<?xml version="1.0" encoding="UTF-8" standalone="no"?>
<!DOCTYPE svg PUBLIC "-//W3C//DTD SVG 1.1//EN"
 "http://www.w3.org/Graphics/SVG/1.1/DTD/svg11.dtd">
<!-- Generated by graphviz version 2.43.0 (0)
 -->
<!-- Title: assign_token_types Pages: 1 -->
<svg width="328pt" height="119pt"
 viewBox="0.00 0.00 328.00 119.00" xmlns="http://www.w3.org/2000/svg" xmlns:xlink="http://www.w3.org/1999/xlink">
<g id="graph0" class="graph" transform="scale(1 1) rotate(0) translate(4 115)">
<title>assign_token_types</title>
<!-- Node1 -->
<g id="Node000001" class="node">
<title>Node1</title>
<g id="a_Node000001"><a xlink:title="Assigns correct types to the tokens in the list (COMMAND, ARGUMENT, FILE_, DELIMITER,...">
<polygon fill="#999999" stroke="#666666" points="113,-74 0,-74 0,-55 113,-55 113,-74"/>
<text text-anchor="middle" x="56.5" y="-62" font-family="Helvetica,sans-Serif" font-size="10.00">assign_token_types</text>
</a>
</g>
</g>
<!-- Node2 -->
<g id="Node000002" class="node">
<title>Node2</title>
<g id="a_Node000002"><a xlink:href="assign__token__type_8c.html#a49da08d963b46b3158a79a9fc120a759" target="_top" xlink:title="Assigns COMMAND or ARGUMENT type to a token.">
<polygon fill="white" stroke="#666666" points="224,-111 150,-111 150,-92 224,-92 224,-111"/>
<text text-anchor="middle" x="187" y="-99" font-family="Helvetica,sans-Serif" font-size="10.00">assign_cmd</text>
</a>
</g>
</g>
<!-- Node1&#45;&gt;Node2 -->
<g id="edge1_Node000001_Node000002" class="edge">
<title>Node1&#45;&gt;Node2</title>
<g id="a_edge1_Node000001_Node000002"><a xlink:title=" ">
<path fill="none" stroke="#63b8ff" d="M90.59,-74.03C106.51,-78.61 125.78,-84.16 142.83,-89.07"/>
<polygon fill="#63b8ff" stroke="#63b8ff" points="142,-92.47 152.57,-91.88 143.93,-85.74 142,-92.47"/>
</a>
</g>
</g>
<!-- Node3 -->
<g id="Node000003" class="node">
<title>Node3</title>
<g id="a_Node000003"><a xlink:href="assign__token__type_8c.html#a3a4c4ac34c8fb944f7cdc8889dd7d356" target="_top" xlink:title="Handles the type assignment for PIPE tokens.">
<polygon fill="white" stroke="#666666" points="224,-74 150,-74 150,-55 224,-55 224,-74"/>
<text text-anchor="middle" x="187" y="-62" font-family="Helvetica,sans-Serif" font-size="10.00">assign_pipe</text>
</a>
</g>
</g>
<!-- Node1&#45;&gt;Node3 -->
<g id="edge2_Node000001_Node000003" class="edge">
<title>Node1&#45;&gt;Node3</title>
<g id="a_edge2_Node000001_Node000003"><a xlink:title=" ">
<path fill="none" stroke="#63b8ff" d="M113.11,-57.8C121.99,-57.69 131.08,-57.75 139.71,-57.99"/>
<polygon fill="#63b8ff" stroke="#63b8ff" points="139.83,-61.5 149.95,-58.36 140.09,-54.5 139.83,-61.5"/>
</a>
</g>
</g>
<!-- Node4 -->
<g id="Node000004" class="node">
<title>Node4</title>
<g id="a_Node000004"><a xlink:href="assign__token__type_8c.html#afe8f8f4301ccbcd33344e893f665c442" target="_top" xlink:title="Correctly assigns types to tokens related to redirections and here&#45;documents.">
<polygon fill="white" stroke="#666666" points="225,-37 149,-37 149,-18 225,-18 225,-37"/>
<text text-anchor="middle" x="187" y="-25" font-family="Helvetica,sans-Serif" font-size="10.00">assign_redir</text>
</a>
</g>
</g>
<!-- Node1&#45;&gt;Node4 -->
<g id="edge4_Node000001_Node000004" class="edge">
<title>Node1&#45;&gt;Node4</title>
<g id="a_edge4_Node000001_Node000004"><a xlink:title=" ">
<path fill="none" stroke="#63b8ff" d="M90.59,-54.97C106.51,-50.39 125.78,-44.84 142.83,-39.93"/>
<polygon fill="#63b8ff" stroke="#63b8ff" points="143.93,-43.26 152.57,-37.12 142,-36.53 143.93,-43.26"/>
</a>
</g>
</g>
<!-- Node3&#45;&gt;Node1 -->
<g id="edge3_Node000003_Node000001" class="edge">
<title>Node3&#45;&gt;Node1</title>
<g id="a_edge3_Node000003_Node000001"><a xlink:title=" ">
<path fill="none" stroke="#63b8ff" d="M149.95,-70.64C141.56,-71.03 132.36,-71.23 123.12,-71.25"/>
<polygon fill="#63b8ff" stroke="#63b8ff" points="123.13,-67.75 113.11,-71.2 123.1,-74.75 123.13,-67.75"/>
</a>
</g>
</g>
<!-- Node5 -->
<g id="Node000005" class="node">
<title>Node5</title>
<g id="a_Node000005"><a xlink:href="utils__token__pt2_8c.html#a80ff8a93c96a15856a12c406efa61cf7" target="_top" xlink:title="Checks if the token represents a redirection.">
<polygon fill="white" stroke="#666666" points="317,-56 264,-56 264,-37 317,-37 317,-56"/>
<text text-anchor="middle" x="290.5" y="-44" font-family="Helvetica,sans-Serif" font-size="10.00">is_redir</text>
</a>
</g>
</g>
<!-- Node4&#45;&gt;Node5 -->
<g id="edge5_Node000004_Node000005" class="edge">
<title>Node4&#45;&gt;Node5</title>
<g id="a_edge5_Node000004_Node000005"><a xlink:title=" ">
<path fill="none" stroke="#63b8ff" d="M225.22,-34.47C234.51,-36.21 244.45,-38.07 253.67,-39.79"/>
<polygon fill="#63b8ff" stroke="#63b8ff" points="253.23,-43.27 263.7,-41.67 254.52,-36.39 253.23,-43.27"/>
</a>
</g>
</g>
<!-- Node6 -->
<g id="Node000006" class="node">
<title>Node6</title>
<g id="a_Node000006"><a xlink:href="utils__token__pt2_8c.html#a10926033b2c368f9697d5725d8416844" target="_top" xlink:title="Checks if the token represents whitespace or invalid characters (garbage).">
<polygon fill="white" stroke="#666666" points="320,-19 261,-19 261,0 320,0 320,-19"/>
<text text-anchor="middle" x="290.5" y="-7" font-family="Helvetica,sans-Serif" font-size="10.00">is_space</text>
</a>
</g>
</g>
<!-- Node4&#45;&gt;Node6 -->
<g id="edge6_Node000004_Node000006" class="edge">
<title>Node4&#45;&gt;Node6</title>
<g id="a_edge6_Node000004_Node000006"><a xlink:title=" ">
<path fill="none" stroke="#63b8ff" d="M225.22,-20.9C233.59,-19.42 242.48,-17.84 250.9,-16.34"/>
<polygon fill="#63b8ff" stroke="#63b8ff" points="251.64,-19.77 260.87,-14.58 250.41,-12.88 251.64,-19.77"/>
</a>
</g>
</g>
</g>
</svg>
