<?xml version="1.0" encoding="UTF-8" standalone="no"?>
<!DOCTYPE svg PUBLIC "-//W3C//DTD SVG 1.1//EN"
 "http://www.w3.org/Graphics/SVG/1.1/DTD/svg11.dtd">
<!-- Generated by graphviz version 2.43.0 (0)
 -->
<!-- Title: assign_redir Pages: 1 -->
<svg width="179pt" height="64pt"
 viewBox="0.00 0.00 179.00 64.00" xmlns="http://www.w3.org/2000/svg" xmlns:xlink="http://www.w3.org/1999/xlink">
<g id="graph0" class="graph" transform="scale(1 1) rotate(0) translate(4 60)">
<title>assign_redir</title>
<!-- Node1 -->
<g id="Node000001" class="node">
<title>Node1</title>
<g id="a_Node000001"><a xlink:title="Correctly assigns types to tokens related to redirections and here&#45;documents.">
<polygon fill="#999999" stroke="#666666" points="76,-37 0,-37 0,-18 76,-18 76,-37"/>
<text text-anchor="middle" x="38" y="-25" font-family="Helvetica,sans-Serif" font-size="10.00">assign_redir</text>
</a>
</g>
</g>
<!-- Node2 -->
<g id="Node000002" class="node">
<title>Node2</title>
<g id="a_Node000002"><a xlink:href="utils__token__pt2_8c.html#a80ff8a93c96a15856a12c406efa61cf7" target="_top" xlink:title="Checks if the token represents a redirection.">
<polygon fill="white" stroke="#666666" points="168,-56 115,-56 115,-37 168,-37 168,-56"/>
<text text-anchor="middle" x="141.5" y="-44" font-family="Helvetica,sans-Serif" font-size="10.00">is_redir</text>
</a>
</g>
</g>
<!-- Node1&#45;&gt;Node2 -->
<g id="edge1_Node000001_Node000002" class="edge">
<title>Node1&#45;&gt;Node2</title>
<g id="a_edge1_Node000001_Node000002"><a xlink:title=" ">
<path fill="none" stroke="#63b8ff" d="M76.22,-34.47C85.51,-36.21 95.45,-38.07 104.67,-39.79"/>
<polygon fill="#63b8ff" stroke="#63b8ff" points="104.23,-43.27 114.7,-41.67 105.52,-36.39 104.23,-43.27"/>
</a>
</g>
</g>
<!-- Node3 -->
<g id="Node000003" class="node">
<title>Node3</title>
<g id="a_Node000003"><a xlink:href="utils__token__pt2_8c.html#a10926033b2c368f9697d5725d8416844" target="_top" xlink:title="Checks if the token represents whitespace or invalid characters (garbage).">
<polygon fill="white" stroke="#666666" points="171,-19 112,-19 112,0 171,0 171,-19"/>
<text text-anchor="middle" x="141.5" y="-7" font-family="Helvetica,sans-Serif" font-size="10.00">is_space</text>
</a>
</g>
</g>
<!-- Node1&#45;&gt;Node3 -->
<g id="edge2_Node000001_Node000003" class="edge">
<title>Node1&#45;&gt;Node3</title>
<g id="a_edge2_Node000001_Node000003"><a xlink:title=" ">
<path fill="none" stroke="#63b8ff" d="M76.22,-20.9C84.59,-19.42 93.48,-17.84 101.9,-16.34"/>
<polygon fill="#63b8ff" stroke="#63b8ff" points="102.64,-19.77 111.87,-14.58 101.41,-12.88 102.64,-19.77"/>
</a>
</g>
</g>
</g>
</svg>
