<?xml version="1.0" encoding="UTF-8" standalone="no"?>
<!DOCTYPE svg PUBLIC "-//W3C//DTD SVG 1.1//EN"
 "http://www.w3.org/Graphics/SVG/1.1/DTD/svg11.dtd">
<!-- Generated by graphviz version 2.43.0 (0)
 -->
<!-- Title: mark_sign_spaces Pages: 1 -->
<svg width="374pt" height="27pt"
 viewBox="0.00 0.00 374.00 27.00" xmlns="http://www.w3.org/2000/svg" xmlns:xlink="http://www.w3.org/1999/xlink">
<g id="graph0" class="graph" transform="scale(1 1) rotate(0) translate(4 23)">
<title>mark_sign_spaces</title>
<!-- Node1 -->
<g id="Node000001" class="node">
<title>Node1</title>
<g id="a_Node000001"><a xlink:title="Marks and manages SPACES tokens in relation to ARGUMENT, COMMAND, QUOTE, ENV_VAR, and PIPE tokens.">
<polygon fill="#999999" stroke="#666666" points="107,-19 0,-19 0,0 107,0 107,-19"/>
<text text-anchor="middle" x="53.5" y="-7" font-family="Helvetica,sans-Serif" font-size="10.00">mark_sign_spaces</text>
</a>
</g>
</g>
<!-- Node2 -->
<g id="Node000002" class="node">
<title>Node2</title>
<g id="a_Node000002"><a xlink:href="utils__token__pt2_8c.html#a3604e297db5e07dd328d7bea99faca19" target="_top" xlink:title="Assigns the token type for space tokens based on surrounding context.">
<polygon fill="white" stroke="#666666" points="242,-19 143,-19 143,0 242,0 242,-19"/>
<text text-anchor="middle" x="192.5" y="-7" font-family="Helvetica,sans-Serif" font-size="10.00">ft_assign_spaces</text>
</a>
</g>
</g>
<!-- Node1&#45;&gt;Node2 -->
<g id="edge1_Node000001_Node000002" class="edge">
<title>Node1&#45;&gt;Node2</title>
<g id="a_edge1_Node000001_Node000002"><a xlink:title=" ">
<path fill="none" stroke="#63b8ff" d="M107.08,-9.5C115.44,-9.5 124.15,-9.5 132.65,-9.5"/>
<polygon fill="#63b8ff" stroke="#63b8ff" points="132.89,-13 142.89,-9.5 132.89,-6 132.89,-13"/>
</a>
</g>
</g>
<!-- Node3 -->
<g id="Node000003" class="node">
<title>Node3</title>
<g id="a_Node000003"><a xlink:href="utils__token__pt2_8c.html#a4b9fd6f04c0b37820d575167acc78f59" target="_top" xlink:title="Checks if a string is a valid sequence of &#39;&#45;n&#39; for the echo command.">
<polygon fill="white" stroke="#666666" points="366,-19 278,-19 278,0 366,0 366,-19"/>
<text text-anchor="middle" x="322" y="-7" font-family="Helvetica,sans-Serif" font-size="10.00">is_n_sequence</text>
</a>
</g>
</g>
<!-- Node2&#45;&gt;Node3 -->
<g id="edge2_Node000002_Node000003" class="edge">
<title>Node2&#45;&gt;Node3</title>
<g id="a_edge2_Node000002_Node000003"><a xlink:title=" ">
<path fill="none" stroke="#63b8ff" d="M242.07,-9.5C250.47,-9.5 259.25,-9.5 267.77,-9.5"/>
<polygon fill="#63b8ff" stroke="#63b8ff" points="268,-13 278,-9.5 268,-6 268,-13"/>
</a>
</g>
</g>
</g>
</svg>
