<?xml version="1.0" encoding="UTF-8" standalone="no"?>
<!DOCTYPE svg PUBLIC "-//W3C//DTD SVG 1.1//EN"
 "http://www.w3.org/Graphics/SVG/1.1/DTD/svg11.dtd">
<!-- Generated by graphviz version 2.43.0 (0)
 -->
<!-- Title: assign_pipe Pages: 1 -->
<svg width="438pt" height="82pt"
 viewBox="0.00 0.00 438.00 82.00" xmlns="http://www.w3.org/2000/svg" xmlns:xlink="http://www.w3.org/1999/xlink">
<g id="graph0" class="graph" transform="scale(1 1) rotate(0) translate(4 78)">
<title>assign_pipe</title>
<!-- Node1 -->
<g id="Node000001" class="node">
<title>Node1</title>
<g id="a_Node000001"><a xlink:title="Handles the type assignment for PIPE tokens.">
<polygon fill="#999999" stroke="#666666" points="74,-55 0,-55 0,-36 74,-36 74,-55"/>
<text text-anchor="middle" x="37" y="-43" font-family="Helvetica,sans-Serif" font-size="10.00">assign_pipe</text>
</a>
</g>
</g>
<!-- Node2 -->
<g id="Node000002" class="node">
<title>Node2</title>
<g id="a_Node000002"><a xlink:href="assign__token__type_8c.html#a51e5006d1819ae97939773490b75ffaa" target="_top" xlink:title="Assigns correct types to the tokens in the list (COMMAND, ARGUMENT, FILE_, DELIMITER,...">
<polygon fill="white" stroke="#666666" points="223,-55 110,-55 110,-36 223,-36 223,-55"/>
<text text-anchor="middle" x="166.5" y="-43" font-family="Helvetica,sans-Serif" font-size="10.00">assign_token_types</text>
</a>
</g>
</g>
<!-- Node1&#45;&gt;Node2 -->
<g id="edge1_Node000001_Node000002" class="edge">
<title>Node1&#45;&gt;Node2</title>
<g id="a_edge1_Node000001_Node000002"><a xlink:title=" ">
<path fill="none" stroke="#63b8ff" d="M74.2,-39.34C82.13,-38.98 90.78,-38.78 99.48,-38.75"/>
<polygon fill="#63b8ff" stroke="#63b8ff" points="99.66,-42.25 109.68,-38.8 99.69,-35.25 99.66,-42.25"/>
</a>
</g>
</g>
<!-- Node2&#45;&gt;Node1 -->
<g id="edge3_Node000002_Node000001" class="edge">
<title>Node2&#45;&gt;Node1</title>
<g id="a_edge3_Node000002_Node000001"><a xlink:title=" ">
<path fill="none" stroke="#63b8ff" d="M109.68,-52.2C101.22,-52.3 92.57,-52.24 84.35,-52.02"/>
<polygon fill="#63b8ff" stroke="#63b8ff" points="84.32,-48.52 74.2,-51.66 84.06,-55.51 84.32,-48.52"/>
</a>
</g>
</g>
<!-- Node3 -->
<g id="Node000003" class="node">
<title>Node3</title>
<g id="a_Node000003"><a xlink:href="assign__token__type_8c.html#a49da08d963b46b3158a79a9fc120a759" target="_top" xlink:title="Assigns COMMAND or ARGUMENT type to a token.">
<polygon fill="white" stroke="#666666" points="334,-74 260,-74 260,-55 334,-55 334,-74"/>
<text text-anchor="middle" x="297" y="-62" font-family="Helvetica,sans-Serif" font-size="10.00">assign_cmd</text>
</a>
</g>
</g>
<!-- Node2&#45;&gt;Node3 -->
<g id="edge2_Node000002_Node000003" class="edge">
<title>Node2&#45;&gt;Node3</title>
<g id="a_edge2_Node000002_Node000003"><a xlink:title=" ">
<path fill="none" stroke="#63b8ff" d="M223.11,-53.72C232.09,-55.05 241.28,-56.41 250,-57.7"/>
<polygon fill="#63b8ff" stroke="#63b8ff" points="249.55,-61.17 259.95,-59.17 250.57,-54.25 249.55,-61.17"/>
</a>
</g>
</g>
<!-- Node4 -->
<g id="Node000004" class="node">
<title>Node4</title>
<g id="a_Node000004"><a xlink:href="assign__token__type_8c.html#afe8f8f4301ccbcd33344e893f665c442" target="_top" xlink:title="Correctly assigns types to tokens related to redirections and here&#45;documents.">
<polygon fill="white" stroke="#666666" points="335,-37 259,-37 259,-18 335,-18 335,-37"/>
<text text-anchor="middle" x="297" y="-25" font-family="Helvetica,sans-Serif" font-size="10.00">assign_redir</text>
</a>
</g>
</g>
<!-- Node2&#45;&gt;Node4 -->
<g id="edge4_Node000002_Node000004" class="edge">
<title>Node2&#45;&gt;Node4</title>
<g id="a_edge4_Node000002_Node000004"><a xlink:title=" ">
<path fill="none" stroke="#63b8ff" d="M223.11,-37.71C231.7,-36.51 240.49,-35.28 248.87,-34.1"/>
<polygon fill="#63b8ff" stroke="#63b8ff" points="249.41,-37.56 258.83,-32.71 248.44,-30.63 249.41,-37.56"/>
</a>
</g>
</g>
<!-- Node5 -->
<g id="Node000005" class="node">
<title>Node5</title>
<g id="a_Node000005"><a xlink:href="utils__token__pt2_8c.html#a80ff8a93c96a15856a12c406efa61cf7" target="_top" xlink:title="Checks if the token represents a redirection.">
<polygon fill="white" stroke="#666666" points="427,-56 374,-56 374,-37 427,-37 427,-56"/>
<text text-anchor="middle" x="400.5" y="-44" font-family="Helvetica,sans-Serif" font-size="10.00">is_redir</text>
</a>
</g>
</g>
<!-- Node4&#45;&gt;Node5 -->
<g id="edge5_Node000004_Node000005" class="edge">
<title>Node4&#45;&gt;Node5</title>
<g id="a_edge5_Node000004_Node000005"><a xlink:title=" ">
<path fill="none" stroke="#63b8ff" d="M335.22,-34.47C344.51,-36.21 354.45,-38.07 363.67,-39.79"/>
<polygon fill="#63b8ff" stroke="#63b8ff" points="363.23,-43.27 373.7,-41.67 364.52,-36.39 363.23,-43.27"/>
</a>
</g>
</g>
<!-- Node6 -->
<g id="Node000006" class="node">
<title>Node6</title>
<g id="a_Node000006"><a xlink:href="utils__token__pt2_8c.html#a10926033b2c368f9697d5725d8416844" target="_top" xlink:title="Checks if the token represents whitespace or invalid characters (garbage).">
<polygon fill="white" stroke="#666666" points="430,-19 371,-19 371,0 430,0 430,-19"/>
<text text-anchor="middle" x="400.5" y="-7" font-family="Helvetica,sans-Serif" font-size="10.00">is_space</text>
</a>
</g>
</g>
<!-- Node4&#45;&gt;Node6 -->
<g id="edge6_Node000004_Node000006" class="edge">
<title>Node4&#45;&gt;Node6</title>
<g id="a_edge6_Node000004_Node000006"><a xlink:title=" ">
<path fill="none" stroke="#63b8ff" d="M335.22,-20.9C343.59,-19.42 352.48,-17.84 360.9,-16.34"/>
<polygon fill="#63b8ff" stroke="#63b8ff" points="361.64,-19.77 370.87,-14.58 360.41,-12.88 361.64,-19.77"/>
</a>
</g>
</g>
</g>
</svg>
