<?xml version="1.0" encoding="UTF-8" standalone="no"?>
<!DOCTYPE svg PUBLIC "-//W3C//DTD SVG 1.1//EN"
 "http://www.w3.org/Graphics/SVG/1.1/DTD/svg11.dtd">
<!-- Generated by graphviz version 2.43.0 (0)
 -->
<!-- Title: ft_env Pages: 1 -->
<svg width="758pt" height="353pt"
 viewBox="0.00 0.00 758.00 353.00" xmlns="http://www.w3.org/2000/svg" xmlns:xlink="http://www.w3.org/1999/xlink">
<g id="graph0" class="graph" transform="scale(1 1) rotate(0) translate(4 349)">
<title>ft_env</title>
<!-- Node1 -->
<g id="Node000001" class="node">
<title>Node1</title>
<g id="a_Node000001"><a xlink:title="Builtin function for the env command.">
<polygon fill="#999999" stroke="#666666" points="47,-158 0,-158 0,-139 47,-139 47,-158"/>
<text text-anchor="middle" x="23.5" y="-146" font-family="Helvetica,sans-Serif" font-size="10.00">ft_env</text>
</a>
</g>
</g>
<!-- Node2 -->
<g id="Node000002" class="node">
<title>Node2</title>
<g id="a_Node000002"><a xlink:href="free__functions_8c.html#a451c65e7c59e947c1880d1f75d866e3a" target="_top" xlink:title="Frees all resources associated with a list of pipes and the environment.">
<polygon fill="white" stroke="#666666" points="163,-269 83,-269 83,-250 163,-250 163,-269"/>
<text text-anchor="middle" x="123" y="-257" font-family="Helvetica,sans-Serif" font-size="10.00">free_all_pipe</text>
</a>
</g>
</g>
<!-- Node1&#45;&gt;Node2 -->
<g id="edge1_Node000001_Node000002" class="edge">
<title>Node1&#45;&gt;Node2</title>
<g id="a_edge1_Node000001_Node000002"><a xlink:title=" ">
<path fill="none" stroke="#63b8ff" d="M33.15,-158.35C49.67,-177.16 85.9,-218.41 106.63,-242.01"/>
<polygon fill="#63b8ff" stroke="#63b8ff" points="104.28,-244.63 113.51,-249.83 109.54,-240.01 104.28,-244.63"/>
</a>
</g>
</g>
<!-- Node7 -->
<g id="Node000007" class="node">
<title>Node7</title>
<g id="a_Node000007"><a xlink:href="env_8c.html#a11f0af3bef460228933bef7dcb4a0a5e" target="_top" xlink:title="Handles errors for invalid arguments passed to the env command.">
<polygon fill="white" stroke="#666666" points="160.5,-195 85.5,-195 85.5,-176 160.5,-176 160.5,-195"/>
<text text-anchor="middle" x="123" y="-183" font-family="Helvetica,sans-Serif" font-size="10.00">ft_env_error</text>
</a>
</g>
</g>
<!-- Node1&#45;&gt;Node7 -->
<g id="edge7_Node000001_Node000007" class="edge">
<title>Node1&#45;&gt;Node7</title>
<g id="a_edge7_Node000001_Node000007"><a xlink:title=" ">
<path fill="none" stroke="#63b8ff" d="M47.11,-157.08C59.06,-161.62 73.99,-167.28 87.36,-172.36"/>
<polygon fill="#63b8ff" stroke="#63b8ff" points="86.17,-175.65 96.76,-175.92 88.66,-169.1 86.17,-175.65"/>
</a>
</g>
</g>
<!-- Node18 -->
<g id="Node000018" class="node">
<title>Node18</title>
<g id="a_Node000018"><a xlink:href="utils__fd_8c.html#a184b4852a6ca5544cc056e7a8e20e4ad" target="_top" xlink:title="Handles opening and validating file descriptors for command input/output.">
<polygon fill="white" stroke="#666666" points="151.5,-121 94.5,-121 94.5,-102 151.5,-102 151.5,-121"/>
<text text-anchor="middle" x="123" y="-109" font-family="Helvetica,sans-Serif" font-size="10.00">ft_for_fd</text>
</a>
</g>
</g>
<!-- Node1&#45;&gt;Node18 -->
<g id="edge23_Node000001_Node000018" class="edge">
<title>Node1&#45;&gt;Node18</title>
<g id="a_edge23_Node000001_Node000018"><a xlink:title=" ">
<path fill="none" stroke="#63b8ff" d="M47.11,-139.92C59.06,-135.38 73.99,-129.72 87.36,-124.64"/>
<polygon fill="#63b8ff" stroke="#63b8ff" points="88.66,-127.9 96.76,-121.08 86.17,-121.35 88.66,-127.9"/>
</a>
</g>
</g>
<!-- Node22 -->
<g id="Node000022" class="node">
<title>Node22</title>
<g id="a_Node000022"><a xlink:href="env_8c.html#ab82a0a51cb0f680a21ea1e0429cde368" target="_top" xlink:title="Prints valid environment variables to the specified file descriptor.">
<polygon fill="white" stroke="#666666" points="155.5,-158 90.5,-158 90.5,-139 155.5,-139 155.5,-158"/>
<text text-anchor="middle" x="123" y="-146" font-family="Helvetica,sans-Serif" font-size="10.00">print_args</text>
</a>
</g>
</g>
<!-- Node1&#45;&gt;Node22 -->
<g id="edge28_Node000001_Node000022" class="edge">
<title>Node1&#45;&gt;Node22</title>
<g id="a_edge28_Node000001_Node000022"><a xlink:title=" ">
<path fill="none" stroke="#63b8ff" d="M47.11,-148.5C56.93,-148.5 68.76,-148.5 80.09,-148.5"/>
<polygon fill="#63b8ff" stroke="#63b8ff" points="80.28,-152 90.28,-148.5 80.28,-145 80.28,-152"/>
</a>
</g>
</g>
<!-- Node24 -->
<g id="Node000024" class="node">
<title>Node24</title>
<g id="a_Node000024"><a xlink:href="utils__pipes_8c.html#aa5bc406fd1d5aadd2018c5c2061d31ba" target="_top" xlink:title="Restores the previously duplicated standard input.">
<polygon fill="white" stroke="#666666" points="161.5,-84 84.5,-84 84.5,-65 161.5,-65 161.5,-84"/>
<text text-anchor="middle" x="123" y="-72" font-family="Helvetica,sans-Serif" font-size="10.00">restore_sdin</text>
</a>
</g>
</g>
<!-- Node1&#45;&gt;Node24 -->
<g id="edge31_Node000001_Node000024" class="edge">
<title>Node1&#45;&gt;Node24</title>
<g id="a_edge31_Node000001_Node000024"><a xlink:title=" ">
<path fill="none" stroke="#63b8ff" d="M33.27,-138.61C44.1,-126.8 63.49,-106.96 83,-93.5 85.38,-91.86 87.93,-90.28 90.54,-88.78"/>
<polygon fill="#63b8ff" stroke="#63b8ff" points="92.29,-91.81 99.49,-84.04 89.01,-85.63 92.29,-91.81"/>
</a>
</g>
</g>
<!-- Node3 -->
<g id="Node000003" class="node">
<title>Node3</title>
<g id="a_Node000003"><a xlink:href="free__functions_8c.html#a32c72055f1119062342fcdf42527c05c" target="_top" xlink:title="Frees a list of commands.">
<polygon fill="white" stroke="#666666" points="298.5,-269 236.5,-269 236.5,-250 298.5,-250 298.5,-269"/>
<text text-anchor="middle" x="267.5" y="-257" font-family="Helvetica,sans-Serif" font-size="10.00">free_cmd</text>
</a>
</g>
</g>
<!-- Node2&#45;&gt;Node3 -->
<g id="edge2_Node000002_Node000003" class="edge">
<title>Node2&#45;&gt;Node3</title>
<g id="a_edge2_Node000002_Node000003"><a xlink:title=" ">
<path fill="none" stroke="#63b8ff" d="M163.32,-259.5C182.87,-259.5 206.47,-259.5 226.16,-259.5"/>
<polygon fill="#63b8ff" stroke="#63b8ff" points="226.35,-263 236.35,-259.5 226.35,-256 226.35,-263"/>
</a>
</g>
</g>
<!-- Node4 -->
<g id="Node000004" class="node">
<title>Node4</title>
<g id="a_Node000004"><a xlink:href="ft__free__matrix_8c.html#a1ea6d1f3b50d1c23d4f0faddd1a13448" target="_top" xlink:title="Frees a NULL&#45;terminated matrix of strings.">
<polygon fill="white" stroke="#666666" points="458,-288 372,-288 372,-269 458,-269 458,-288"/>
<text text-anchor="middle" x="415" y="-276" font-family="Helvetica,sans-Serif" font-size="10.00">ft_free_matrix</text>
</a>
</g>
</g>
<!-- Node2&#45;&gt;Node4 -->
<g id="edge6_Node000002_Node000004" class="edge">
<title>Node2&#45;&gt;Node4</title>
<g id="a_edge6_Node000002_Node000004"><a xlink:title=" ">
<path fill="none" stroke="#63b8ff" d="M154.32,-269C167.85,-272.77 184.07,-276.64 199,-278.5 254.21,-285.38 318.01,-284.25 361.69,-282.1"/>
<polygon fill="#63b8ff" stroke="#63b8ff" points="361.99,-285.59 371.79,-281.57 361.62,-278.6 361.99,-285.59"/>
</a>
</g>
</g>
<!-- Node5 -->
<g id="Node000005" class="node">
<title>Node5</title>
<g id="a_Node000005"><a xlink:href="free__functions_8c.html#a87de2a27d0e0e99f3de0b477731181e0" target="_top" xlink:title="Frees a list of pipes.">
<polygon fill="white" stroke="#666666" points="298.5,-232 236.5,-232 236.5,-213 298.5,-213 298.5,-232"/>
<text text-anchor="middle" x="267.5" y="-220" font-family="Helvetica,sans-Serif" font-size="10.00">free_pipe</text>
</a>
</g>
</g>
<!-- Node2&#45;&gt;Node5 -->
<g id="edge4_Node000002_Node000005" class="edge">
<title>Node2&#45;&gt;Node5</title>
<g id="a_edge4_Node000002_Node000005"><a xlink:title=" ">
<path fill="none" stroke="#63b8ff" d="M160.7,-249.97C180.82,-244.75 205.8,-238.26 226.44,-232.9"/>
<polygon fill="#63b8ff" stroke="#63b8ff" points="227.38,-236.27 236.18,-230.37 225.62,-229.5 227.38,-236.27"/>
</a>
</g>
</g>
<!-- Node6 -->
<g id="Node000006" class="node">
<title>Node6</title>
<g id="a_Node000006"><a xlink:href="free__functions_8c.html#a4f32f08947270b8aec54f43ddd8b02d4" target="_top" xlink:title="Frees a list of tokens.">
<polygon fill="white" stroke="#666666" points="301.5,-345 233.5,-345 233.5,-326 301.5,-326 301.5,-345"/>
<text text-anchor="middle" x="267.5" y="-333" font-family="Helvetica,sans-Serif" font-size="10.00">free_token</text>
</a>
</g>
</g>
<!-- Node2&#45;&gt;Node6 -->
<g id="edge5_Node000002_Node000006" class="edge">
<title>Node2&#45;&gt;Node6</title>
<g id="a_edge5_Node000002_Node000006"><a xlink:title=" ">
<path fill="none" stroke="#63b8ff" d="M135.59,-269C149.82,-280.31 175.03,-299.21 199,-311.5 207.04,-315.62 215.95,-319.34 224.6,-322.55"/>
<polygon fill="#63b8ff" stroke="#63b8ff" points="223.59,-325.9 234.18,-325.95 225.93,-319.31 223.59,-325.9"/>
</a>
</g>
</g>
<!-- Node3&#45;&gt;Node4 -->
<g id="edge3_Node000003_Node000004" class="edge">
<title>Node3&#45;&gt;Node4</title>
<g id="a_edge3_Node000003_Node000004"><a xlink:title=" ">
<path fill="none" stroke="#63b8ff" d="M298.65,-263.44C316.82,-265.81 340.46,-268.9 361.61,-271.66"/>
<polygon fill="#63b8ff" stroke="#63b8ff" points="361.38,-275.16 371.75,-272.98 362.29,-268.22 361.38,-275.16"/>
</a>
</g>
</g>
<!-- Node8 -->
<g id="Node000008" class="node">
<title>Node8</title>
<g id="a_Node000008"><a xlink:href="ft__printf_8c.html#a091532b7f37af84bdecc84dccf4eedb1" target="_top" xlink:title="A simplified printf function that outputs formatted data to a given file descriptor.">
<polygon fill="white" stroke="#666666" points="295,-195 240,-195 240,-176 295,-176 295,-195"/>
<text text-anchor="middle" x="267.5" y="-183" font-family="Helvetica,sans-Serif" font-size="10.00">ft_printf</text>
</a>
</g>
</g>
<!-- Node7&#45;&gt;Node8 -->
<g id="edge8_Node000007_Node000008" class="edge">
<title>Node7&#45;&gt;Node8</title>
<g id="a_edge8_Node000007_Node000008"><a xlink:title=" ">
<path fill="none" stroke="#63b8ff" d="M160.7,-185.5C181.86,-185.5 208.39,-185.5 229.59,-185.5"/>
<polygon fill="#63b8ff" stroke="#63b8ff" points="229.83,-189 239.83,-185.5 229.83,-182 229.83,-189"/>
</a>
</g>
</g>
<!-- Node9 -->
<g id="Node000009" class="node">
<title>Node9</title>
<g id="a_Node000009"><a xlink:href="ft__printf_8c.html#a80c1c206dcd33d07c265581878aaa300" target="_top" xlink:title="Processes a single format specifier and prints the corresponding argument.">
<polygon fill="white" stroke="#666666" points="456.5,-166 373.5,-166 373.5,-147 456.5,-147 456.5,-166"/>
<text text-anchor="middle" x="415" y="-154" font-family="Helvetica,sans-Serif" font-size="10.00">check_format</text>
</a>
</g>
</g>
<!-- Node8&#45;&gt;Node9 -->
<g id="edge9_Node000008_Node000009" class="edge">
<title>Node8&#45;&gt;Node9</title>
<g id="a_edge9_Node000008_Node000009"><a xlink:title=" ">
<path fill="none" stroke="#63b8ff" d="M295.19,-180.18C314.27,-176.38 340.53,-171.14 363.51,-166.56"/>
<polygon fill="#63b8ff" stroke="#63b8ff" points="364.34,-169.97 373.47,-164.58 362.98,-163.1 364.34,-169.97"/>
</a>
</g>
</g>
<!-- Node13 -->
<g id="Node000013" class="node">
<title>Node13</title>
<g id="a_Node000013"><a xlink:href="ft__putchar__fd_8c.html#a03ef80b25dc4a521379fa92ad97bad21" target="_top" xlink:title="Writes a single character to the specified file descriptor.">
<polygon fill="white" stroke="#666666" points="589,-240 509,-240 509,-221 589,-221 589,-240"/>
<text text-anchor="middle" x="549" y="-228" font-family="Helvetica,sans-Serif" font-size="10.00">ft_putchar_fd</text>
</a>
</g>
</g>
<!-- Node8&#45;&gt;Node13 -->
<g id="edge22_Node000008_Node000013" class="edge">
<title>Node8&#45;&gt;Node13</title>
<g id="a_edge22_Node000008_Node000013"><a xlink:title=" ">
<path fill="none" stroke="#63b8ff" d="M295.05,-189.77C341.81,-197.3 439.51,-213.03 498.87,-222.59"/>
<polygon fill="#63b8ff" stroke="#63b8ff" points="498.34,-226.05 508.77,-224.18 499.45,-219.14 498.34,-226.05"/>
</a>
</g>
</g>
<!-- Node10 -->
<g id="Node000010" class="node">
<title>Node10</title>
<g id="a_Node000010"><a xlink:href="ft__forpointer_8c.html#a8e02c77b80406af72327ebf71f537786" target="_top" xlink:title="Prints a pointer in hexadecimal format prefixed with &quot;0x&quot;.">
<polygon fill="white" stroke="#666666" points="587.5,-166 510.5,-166 510.5,-147 587.5,-147 587.5,-166"/>
<text text-anchor="middle" x="549" y="-154" font-family="Helvetica,sans-Serif" font-size="10.00">ft_forpointer</text>
</a>
</g>
</g>
<!-- Node9&#45;&gt;Node10 -->
<g id="edge10_Node000009_Node000010" class="edge">
<title>Node9&#45;&gt;Node10</title>
<g id="a_edge10_Node000009_Node000010"><a xlink:title=" ">
<path fill="none" stroke="#63b8ff" d="M456.68,-156.5C470.46,-156.5 485.97,-156.5 500.24,-156.5"/>
<polygon fill="#63b8ff" stroke="#63b8ff" points="500.38,-160 510.38,-156.5 500.38,-153 500.38,-160"/>
</a>
</g>
</g>
<!-- Node12 -->
<g id="Node000012" class="node">
<title>Node12</title>
<g id="a_Node000012"><a xlink:href="ft__hexadecimal_8c.html#a39c845e0a4286d3ac1e04c1e64ac734b" target="_top" xlink:title="Prints an unsigned integer in hexadecimal format.">
<polygon fill="white" stroke="#666666" points="595,-111 503,-111 503,-92 595,-92 595,-111"/>
<text text-anchor="middle" x="549" y="-99" font-family="Helvetica,sans-Serif" font-size="10.00">ft_hexadecimal</text>
</a>
</g>
</g>
<!-- Node9&#45;&gt;Node12 -->
<g id="edge13_Node000009_Node000012" class="edge">
<title>Node9&#45;&gt;Node12</title>
<g id="a_edge13_Node000009_Node000012"><a xlink:title=" ">
<path fill="none" stroke="#63b8ff" d="M438.99,-146.92C460.16,-138.1 491.77,-124.93 515.51,-115.04"/>
<polygon fill="#63b8ff" stroke="#63b8ff" points="516.94,-118.23 524.83,-111.16 514.25,-111.77 516.94,-118.23"/>
</a>
</g>
</g>
<!-- Node9&#45;&gt;Node13 -->
<g id="edge15_Node000009_Node000013" class="edge">
<title>Node9&#45;&gt;Node13</title>
<g id="a_edge15_Node000009_Node000013"><a xlink:title=" ">
<path fill="none" stroke="#63b8ff" d="M427.18,-166.21C441.72,-178.42 468.32,-199.38 494,-212.5 497.37,-214.22 500.93,-215.83 504.56,-217.32"/>
<polygon fill="#63b8ff" stroke="#63b8ff" points="503.64,-220.71 514.23,-220.99 506.12,-214.17 503.64,-220.71"/>
</a>
</g>
</g>
<!-- Node14 -->
<g id="Node000014" class="node">
<title>Node14</title>
<g id="a_Node000014"><a xlink:href="ft__putnbr__fd_8c.html#a1554101ee350c316340c78e19faddaa8" target="_top" xlink:title="Writes an integer to a given file descriptor.">
<polygon fill="white" stroke="#666666" points="586.5,-56 511.5,-56 511.5,-37 586.5,-37 586.5,-56"/>
<text text-anchor="middle" x="549" y="-44" font-family="Helvetica,sans-Serif" font-size="10.00">ft_putnbr_fd</text>
</a>
</g>
</g>
<!-- Node9&#45;&gt;Node14 -->
<g id="edge16_Node000009_Node000014" class="edge">
<title>Node9&#45;&gt;Node14</title>
<g id="a_edge16_Node000009_Node000014"><a xlink:title=" ">
<path fill="none" stroke="#63b8ff" d="M425.13,-146.84C439.23,-132.15 467.45,-103.69 494,-82.5 503.21,-75.15 513.91,-67.8 523.34,-61.67"/>
<polygon fill="#63b8ff" stroke="#63b8ff" points="525.35,-64.54 531.9,-56.21 521.59,-58.64 525.35,-64.54"/>
</a>
</g>
</g>
<!-- Node15 -->
<g id="Node000015" class="node">
<title>Node15</title>
<g id="a_Node000015"><a xlink:href="ft__putstr__fd_8c.html#a00b0638f31a75c7a30f77f33888bfb73" target="_top" xlink:title="Writes a null&#45;terminated string to the specified file descriptor.">
<polygon fill="white" stroke="#666666" points="585,-19 513,-19 513,0 585,0 585,-19"/>
<text text-anchor="middle" x="549" y="-7" font-family="Helvetica,sans-Serif" font-size="10.00">ft_putstr_fd</text>
</a>
</g>
</g>
<!-- Node9&#45;&gt;Node15 -->
<g id="edge18_Node000009_Node000015" class="edge">
<title>Node9&#45;&gt;Node15</title>
<g id="a_edge18_Node000009_Node000015"><a xlink:title=" ">
<path fill="none" stroke="#63b8ff" d="M420.76,-146.78C434.17,-119.75 472.64,-44.58 494,-27.5 496.91,-25.17 500.14,-23.14 503.52,-21.37"/>
<polygon fill="#63b8ff" stroke="#63b8ff" points="505.04,-24.52 512.74,-17.25 502.19,-18.13 505.04,-24.52"/>
</a>
</g>
</g>
<!-- Node16 -->
<g id="Node000016" class="node">
<title>Node16</title>
<g id="a_Node000016"><a xlink:href="ft__unsigned__putnbr_8c.html#af9a70f8607b40cf2a7706f9d3725b549" target="_top" xlink:title="Writes an unsigned integer to the given file descriptor.">
<polygon fill="white" stroke="#666666" points="604,-203 494,-203 494,-184 604,-184 604,-203"/>
<text text-anchor="middle" x="549" y="-191" font-family="Helvetica,sans-Serif" font-size="10.00">ft_unsigned_putnbr</text>
</a>
</g>
</g>
<!-- Node9&#45;&gt;Node16 -->
<g id="edge19_Node000009_Node000016" class="edge">
<title>Node9&#45;&gt;Node16</title>
<g id="a_edge19_Node000009_Node000016"><a xlink:title=" ">
<path fill="none" stroke="#63b8ff" d="M449.99,-166.03C466.34,-170.61 486.14,-176.16 503.66,-181.07"/>
<polygon fill="#63b8ff" stroke="#63b8ff" points="503.09,-184.55 513.66,-183.88 504.98,-177.81 503.09,-184.55"/>
</a>
</g>
</g>
<!-- Node11 -->
<g id="Node000011" class="node">
<title>Node11</title>
<g id="a_Node000011"><a xlink:href="ft__forpointer_8c.html#aded1bf735c8a10e47396170d27c5b6aa" target="_top" xlink:title="Recursively prints a memory address in hexadecimal format.">
<polygon fill="white" stroke="#666666" points="750,-157 640,-157 640,-138 750,-138 750,-157"/>
<text text-anchor="middle" x="695" y="-145" font-family="Helvetica,sans-Serif" font-size="10.00">ft_ricorsive_pointer</text>
</a>
</g>
</g>
<!-- Node10&#45;&gt;Node11 -->
<g id="edge11_Node000010_Node000011" class="edge">
<title>Node10&#45;&gt;Node11</title>
<g id="a_edge11_Node000010_Node000011"><a xlink:title=" ">
<path fill="none" stroke="#63b8ff" d="M587.83,-154.14C600.64,-153.33 615.33,-152.42 629.61,-151.52"/>
<polygon fill="#63b8ff" stroke="#63b8ff" points="630.14,-155 639.9,-150.88 629.7,-148.01 630.14,-155"/>
</a>
</g>
</g>
<!-- Node11&#45;&gt;Node11 -->
<g id="edge12_Node000011_Node000011" class="edge">
<title>Node11&#45;&gt;Node11</title>
<g id="a_edge12_Node000011_Node000011"><a xlink:title=" ">
<path fill="none" stroke="#63b8ff" d="M672.5,-157.08C661.55,-165.73 669.05,-175 695,-175 711.62,-175 720.68,-171.2 722.16,-166.19"/>
<polygon fill="#63b8ff" stroke="#63b8ff" points="725.17,-164.39 717.5,-157.08 718.94,-167.58 725.17,-164.39"/>
</a>
</g>
</g>
<!-- Node12&#45;&gt;Node12 -->
<g id="edge14_Node000012_Node000012" class="edge">
<title>Node12&#45;&gt;Node12</title>
<g id="a_edge14_Node000012_Node000012"><a xlink:title=" ">
<path fill="none" stroke="#63b8ff" d="M528.35,-111.08C518.3,-119.73 525.18,-129 549,-129 564.26,-129 572.57,-125.2 573.93,-120.19"/>
<polygon fill="#63b8ff" stroke="#63b8ff" points="577.07,-118.65 569.65,-111.08 570.73,-121.62 577.07,-118.65"/>
</a>
</g>
</g>
<!-- Node14&#45;&gt;Node14 -->
<g id="edge17_Node000014_Node000014" class="edge">
<title>Node14&#45;&gt;Node14</title>
<g id="a_edge17_Node000014_Node000014"><a xlink:title=" ">
<path fill="none" stroke="#63b8ff" d="M528.35,-56.08C518.3,-64.73 525.18,-74 549,-74 564.26,-74 572.57,-70.2 573.93,-65.19"/>
<polygon fill="#63b8ff" stroke="#63b8ff" points="577.07,-63.65 569.65,-56.08 570.73,-66.62 577.07,-63.65"/>
</a>
</g>
</g>
<!-- Node17 -->
<g id="Node000017" class="node">
<title>Node17</title>
<g id="a_Node000017"><a xlink:href="ft__putnbr_8c.html#a2e51f80c9e46e52f4adf94617fb51ada" target="_top" xlink:title="Writes an integer to the standard output (stdout).">
<polygon fill="white" stroke="#666666" points="725,-212 665,-212 665,-193 725,-193 725,-212"/>
<text text-anchor="middle" x="695" y="-200" font-family="Helvetica,sans-Serif" font-size="10.00">ft_putnbr</text>
</a>
</g>
</g>
<!-- Node16&#45;&gt;Node17 -->
<g id="edge20_Node000016_Node000017" class="edge">
<title>Node16&#45;&gt;Node17</title>
<g id="a_edge20_Node000016_Node000017"><a xlink:title=" ">
<path fill="none" stroke="#63b8ff" d="M604.03,-196.88C620.76,-197.92 638.87,-199.05 654.43,-200.03"/>
<polygon fill="#63b8ff" stroke="#63b8ff" points="654.55,-203.54 664.74,-200.67 654.98,-196.55 654.55,-203.54"/>
</a>
</g>
</g>
<!-- Node17&#45;&gt;Node17 -->
<g id="edge21_Node000017_Node000017" class="edge">
<title>Node17&#45;&gt;Node17</title>
<g id="a_edge21_Node000017_Node000017"><a xlink:title=" ">
<path fill="none" stroke="#63b8ff" d="M672.5,-212.08C661.55,-220.73 669.05,-230 695,-230 711.62,-230 720.68,-226.2 722.16,-221.19"/>
<polygon fill="#63b8ff" stroke="#63b8ff" points="725.17,-219.39 717.5,-212.08 718.94,-222.58 725.17,-219.39"/>
</a>
</g>
</g>
<!-- Node19 -->
<g id="Node000019" class="node">
<title>Node19</title>
<g id="a_Node000019"><a xlink:href="utils__fd_8c.html#ae6ad7aa33393749b9dc5eac6b61cdf74" target="_top" xlink:title="Returns the correct file descriptor based on append flag and file.">
<polygon fill="white" stroke="#666666" points="313.5,-45 221.5,-45 221.5,-26 313.5,-26 313.5,-45"/>
<text text-anchor="middle" x="267.5" y="-33" font-family="Helvetica,sans-Serif" font-size="10.00">check_value_fd</text>
</a>
</g>
</g>
<!-- Node18&#45;&gt;Node19 -->
<g id="edge24_Node000018_Node000019" class="edge">
<title>Node18&#45;&gt;Node19</title>
<g id="a_edge24_Node000018_Node000019"><a xlink:title=" ">
<path fill="none" stroke="#63b8ff" d="M148.18,-101.83C153.24,-99.4 158.43,-96.59 163,-93.5 181.23,-81.17 180.23,-70.99 199,-59.5 205.94,-55.25 213.74,-51.61 221.5,-48.54"/>
<polygon fill="#63b8ff" stroke="#63b8ff" points="222.73,-51.82 230.9,-45.07 220.31,-45.25 222.73,-51.82"/>
</a>
</g>
</g>
<!-- Node20 -->
<g id="Node000020" class="node">
<title>Node20</title>
<g id="a_Node000020"><a xlink:href="utils__fd_8c.html#a9cf70d06db18597b04bb642db7abab4a" target="_top" xlink:title="Checks if a file descriptor is valid.">
<polygon fill="white" stroke="#666666" points="451,-64 379,-64 379,-45 451,-45 451,-64"/>
<text text-anchor="middle" x="415" y="-52" font-family="Helvetica,sans-Serif" font-size="10.00">ft_check_fd</text>
</a>
</g>
</g>
<!-- Node18&#45;&gt;Node20 -->
<g id="edge26_Node000018_Node000020" class="edge">
<title>Node18&#45;&gt;Node20</title>
<g id="a_edge26_Node000018_Node000020"><a xlink:title=" ">
<path fill="none" stroke="#63b8ff" d="M151.7,-104.46C165.81,-100.97 183.28,-96.81 199,-93.5 257.42,-81.2 325.27,-69.28 368.87,-61.93"/>
<polygon fill="#63b8ff" stroke="#63b8ff" points="369.59,-65.36 378.88,-60.25 368.44,-58.45 369.59,-65.36"/>
</a>
</g>
</g>
<!-- Node21 -->
<g id="Node000021" class="node">
<title>Node21</title>
<g id="a_Node000021"><a xlink:href="utils__pipes_8c.html#a4112bdd2bc0766ff52195f2ab3a53339" target="_top" xlink:title="Handles input redirection from a file.">
<polygon fill="white" stroke="#666666" points="336,-121 199,-121 199,-102 336,-102 336,-121"/>
<text text-anchor="middle" x="267.5" y="-109" font-family="Helvetica,sans-Serif" font-size="10.00">handle_input_redirection</text>
</a>
</g>
</g>
<!-- Node18&#45;&gt;Node21 -->
<g id="edge27_Node000018_Node000021" class="edge">
<title>Node18&#45;&gt;Node21</title>
<g id="a_edge27_Node000018_Node000021"><a xlink:title=" ">
<path fill="none" stroke="#63b8ff" d="M151.81,-111.5C162.59,-111.5 175.52,-111.5 188.74,-111.5"/>
<polygon fill="#63b8ff" stroke="#63b8ff" points="188.88,-115 198.88,-111.5 188.88,-108 188.88,-115"/>
</a>
</g>
</g>
<!-- Node19&#45;&gt;Node20 -->
<g id="edge25_Node000019_Node000020" class="edge">
<title>Node19&#45;&gt;Node20</title>
<g id="a_edge25_Node000019_Node000020"><a xlink:title=" ">
<path fill="none" stroke="#63b8ff" d="M313.74,-41.41C331.31,-43.7 351.4,-46.33 368.95,-48.62"/>
<polygon fill="#63b8ff" stroke="#63b8ff" points="368.59,-52.1 378.96,-49.92 369.5,-45.16 368.59,-52.1"/>
</a>
</g>
</g>
<!-- Node22&#45;&gt;Node8 -->
<g id="edge30_Node000022_Node000008" class="edge">
<title>Node22&#45;&gt;Node8</title>
<g id="a_edge30_Node000022_Node000008"><a xlink:title=" ">
<path fill="none" stroke="#63b8ff" d="M155.63,-156.71C177.62,-162.42 207.01,-170.05 230.01,-176.02"/>
<polygon fill="#63b8ff" stroke="#63b8ff" points="229.19,-179.43 239.75,-178.55 230.95,-172.65 229.19,-179.43"/>
</a>
</g>
</g>
<!-- Node23 -->
<g id="Node000023" class="node">
<title>Node23</title>
<g id="a_Node000023"><a xlink:href="env_8c.html#afa91ce9c7b8e6f5ab601759029cc2c16" target="_top" xlink:title="Checks if an environment string contains a value after &#39;=&#39;.">
<polygon fill="white" stroke="#666666" points="306,-158 229,-158 229,-139 306,-139 306,-158"/>
<text text-anchor="middle" x="267.5" y="-146" font-family="Helvetica,sans-Serif" font-size="10.00">check_value</text>
</a>
</g>
</g>
<!-- Node22&#45;&gt;Node23 -->
<g id="edge29_Node000022_Node000023" class="edge">
<title>Node22&#45;&gt;Node23</title>
<g id="a_edge29_Node000022_Node000023"><a xlink:title=" ">
<path fill="none" stroke="#63b8ff" d="M155.63,-148.5C174.14,-148.5 197.9,-148.5 218.67,-148.5"/>
<polygon fill="#63b8ff" stroke="#63b8ff" points="218.9,-152 228.9,-148.5 218.9,-145 218.9,-152"/>
</a>
</g>
</g>
</g>
</svg>
