<?xml version="1.0" encoding="UTF-8" standalone="no"?>
<!DOCTYPE svg PUBLIC "-//W3C//DTD SVG 1.1//EN"
 "http://www.w3.org/Graphics/SVG/1.1/DTD/svg11.dtd">
<!-- Generated by graphviz version 2.43.0 (0)
 -->
<!-- Title: ft_setenv Pages: 1 -->
<svg width="281pt" height="103pt"
 viewBox="0.00 0.00 281.00 103.00" xmlns="http://www.w3.org/2000/svg" xmlns:xlink="http://www.w3.org/1999/xlink">
<g id="graph0" class="graph" transform="scale(1 1) rotate(0) translate(4 99)">
<title>ft_setenv</title>
<!-- Node1 -->
<g id="Node000001" class="node">
<title>Node1</title>
<g id="a_Node000001"><a xlink:title="Sets or updates an environment variable.">
<polygon fill="#999999" stroke="#666666" points="62,-57 0,-57 0,-38 62,-38 62,-57"/>
<text text-anchor="middle" x="31" y="-45" font-family="Helvetica,sans-Serif" font-size="10.00">ft_setenv</text>
</a>
</g>
</g>
<!-- Node2 -->
<g id="Node000002" class="node">
<title>Node2</title>
<g id="a_Node000002"><a xlink:href="ft__strjoin_8c.html#a91e6e3e428bcc9f2291b700e1829b82b" target="_top" xlink:title="Concatenates two strings into a newly allocated string.">
<polygon fill="white" stroke="#666666" points="161.5,-95 102.5,-95 102.5,-76 161.5,-76 161.5,-95"/>
<text text-anchor="middle" x="132" y="-83" font-family="Helvetica,sans-Serif" font-size="10.00">ft_strjoin</text>
</a>
</g>
</g>
<!-- Node1&#45;&gt;Node2 -->
<g id="edge1_Node000001_Node000002" class="edge">
<title>Node1&#45;&gt;Node2</title>
<g id="a_edge1_Node000001_Node000002"><a xlink:title=" ">
<path fill="none" stroke="#63b8ff" d="M56.98,-57.09C68.94,-61.68 83.45,-67.25 96.45,-72.24"/>
<polygon fill="#63b8ff" stroke="#63b8ff" points="95.44,-75.6 106.03,-75.91 97.94,-69.06 95.44,-75.6"/>
</a>
</g>
</g>
<!-- Node4 -->
<g id="Node000004" class="node">
<title>Node4</title>
<g id="a_Node000004"><a xlink:href="ft__strlen_8c.html#a828402378653640f545a4be2e00e92f9" target="_top" xlink:title="Calculates the length of a null&#45;terminated string.">
<polygon fill="white" stroke="#666666" points="265.5,-58 209.5,-58 209.5,-39 265.5,-39 265.5,-58"/>
<text text-anchor="middle" x="237.5" y="-46" font-family="Helvetica,sans-Serif" font-size="10.00">ft_strlen</text>
</a>
</g>
</g>
<!-- Node1&#45;&gt;Node4 -->
<g id="edge4_Node000001_Node000004" class="edge">
<title>Node1&#45;&gt;Node4</title>
<g id="a_edge4_Node000001_Node000004"><a xlink:title=" ">
<path fill="none" stroke="#63b8ff" d="M62.17,-47.65C98.61,-47.83 159.89,-48.13 199.24,-48.32"/>
<polygon fill="#63b8ff" stroke="#63b8ff" points="199.45,-51.82 209.47,-48.37 199.49,-44.82 199.45,-51.82"/>
</a>
</g>
</g>
<!-- Node5 -->
<g id="Node000005" class="node">
<title>Node5</title>
<g id="a_Node000005"><a xlink:href="ft__strncmp_8c.html#a9d2fe792187aa4ed08e5864fb2c4d6dc" target="_top" xlink:title="Compares up to n characters of two strings.">
<polygon fill="white" stroke="#666666" points="166,-19 98,-19 98,0 166,0 166,-19"/>
<text text-anchor="middle" x="132" y="-7" font-family="Helvetica,sans-Serif" font-size="10.00">ft_strncmp</text>
</a>
</g>
</g>
<!-- Node1&#45;&gt;Node5 -->
<g id="edge5_Node000001_Node000005" class="edge">
<title>Node1&#45;&gt;Node5</title>
<g id="a_edge5_Node000001_Node000005"><a xlink:title=" ">
<path fill="none" stroke="#63b8ff" d="M56.98,-37.91C68.94,-33.32 83.45,-27.75 96.45,-22.76"/>
<polygon fill="#63b8ff" stroke="#63b8ff" points="97.94,-25.94 106.03,-19.09 95.44,-19.4 97.94,-25.94"/>
</a>
</g>
</g>
<!-- Node3 -->
<g id="Node000003" class="node">
<title>Node3</title>
<g id="a_Node000003"><a xlink:href="ft__memcpy_8c.html#a41a6f05af30cf85ff63a08e383826322" target="_top" xlink:title="Copies &#39;n&#39; bytes from memory area &#39;src&#39; to memory area &#39;dest&#39;.">
<polygon fill="white" stroke="#666666" points="273,-95 202,-95 202,-76 273,-76 273,-95"/>
<text text-anchor="middle" x="237.5" y="-83" font-family="Helvetica,sans-Serif" font-size="10.00">ft_memcpy</text>
</a>
</g>
</g>
<!-- Node2&#45;&gt;Node3 -->
<g id="edge2_Node000002_Node000003" class="edge">
<title>Node2&#45;&gt;Node3</title>
<g id="a_edge2_Node000002_Node000003"><a xlink:title=" ">
<path fill="none" stroke="#63b8ff" d="M161.56,-85.5C170.89,-85.5 181.49,-85.5 191.73,-85.5"/>
<polygon fill="#63b8ff" stroke="#63b8ff" points="191.78,-89 201.78,-85.5 191.78,-82 191.78,-89"/>
</a>
</g>
</g>
<!-- Node2&#45;&gt;Node4 -->
<g id="edge3_Node000002_Node000004" class="edge">
<title>Node2&#45;&gt;Node4</title>
<g id="a_edge3_Node000002_Node000004"><a xlink:title=" ">
<path fill="none" stroke="#63b8ff" d="M159.65,-75.97C171.87,-71.6 186.55,-66.36 199.8,-61.62"/>
<polygon fill="#63b8ff" stroke="#63b8ff" points="201.34,-64.79 209.58,-58.12 198.98,-58.2 201.34,-64.79"/>
</a>
</g>
</g>
</g>
</svg>
