<?xml version="1.0" encoding="UTF-8" standalone="no"?>
<!DOCTYPE svg PUBLIC "-//W3C//DTD SVG 1.1//EN"
 "http://www.w3.org/Graphics/SVG/1.1/DTD/svg11.dtd">
<!-- Generated by graphviz version 2.43.0 (0)
 -->
<!-- Title: builtin/builtin.h Pages: 1 -->
<svg width="1011pt" height="192pt"
 viewBox="0.00 0.00 1011.00 192.00" xmlns="http://www.w3.org/2000/svg" xmlns:xlink="http://www.w3.org/1999/xlink">
<g id="graph0" class="graph" transform="scale(1 1) rotate(0) translate(4 188)">
<title>builtin/builtin.h</title>
<!-- Node1 -->
<g id="Node000001" class="node">
<title>Node1</title>
<g id="a_Node000001"><a xlink:title=" ">
<polygon fill="#999999" stroke="#666666" points="490,-184 400,-184 400,-165 490,-165 490,-184"/>
<text text-anchor="middle" x="445" y="-172" font-family="Helvetica,sans-Serif" font-size="10.00">builtin/builtin.h</text>
</a>
</g>
</g>
<!-- Node2 -->
<g id="Node000002" class="node">
<title>Node2</title>
<g id="a_Node000002"><a xlink:href="env_8c.html" target="_top" xlink:title=" ">
<polygon fill="white" stroke="#666666" points="76,-129 0,-129 0,-110 76,-110 76,-129"/>
<text text-anchor="middle" x="38" y="-117" font-family="Helvetica,sans-Serif" font-size="10.00">builtin/env.c</text>
</a>
</g>
</g>
<!-- Node1&#45;&gt;Node2 -->
<g id="edge1_Node000001_Node000002" class="edge">
<title>Node1&#45;&gt;Node2</title>
<g id="a_edge1_Node000001_Node000002"><a xlink:title=" ">
<path fill="none" stroke="#63b8ff" d="M389.97,-167.67C319.24,-159.94 192.7,-145.38 85,-129 82.13,-128.56 79.17,-128.09 76.19,-127.59"/>
<polygon fill="#63b8ff" stroke="#63b8ff" points="389.67,-171.15 399.99,-168.75 390.43,-164.19 389.67,-171.15"/>
</a>
</g>
</g>
<!-- Node3 -->
<g id="Node000003" class="node">
<title>Node3</title>
<g id="a_Node000003"><a xlink:href="exit_8c.html" target="_top" xlink:title=" ">
<polygon fill="white" stroke="#666666" points="171.5,-129 94.5,-129 94.5,-110 171.5,-110 171.5,-129"/>
<text text-anchor="middle" x="133" y="-117" font-family="Helvetica,sans-Serif" font-size="10.00">builtin/exit.c</text>
</a>
</g>
</g>
<!-- Node1&#45;&gt;Node3 -->
<g id="edge2_Node000001_Node000003" class="edge">
<title>Node1&#45;&gt;Node3</title>
<g id="a_edge2_Node000001_Node000003"><a xlink:title=" ">
<path fill="none" stroke="#63b8ff" d="M389.72,-164.32C336.29,-155.41 253.07,-141.46 181,-129 177.91,-128.47 174.72,-127.91 171.51,-127.35"/>
<polygon fill="#63b8ff" stroke="#63b8ff" points="389.23,-167.78 399.67,-165.98 390.38,-160.88 389.23,-167.78"/>
</a>
</g>
</g>
<!-- Node4 -->
<g id="Node000004" class="node">
<title>Node4</title>
<g id="a_Node000004"><a xlink:href="export_8c.html" target="_top" xlink:title=" ">
<polygon fill="white" stroke="#666666" points="280,-129 190,-129 190,-110 280,-110 280,-129"/>
<text text-anchor="middle" x="235" y="-117" font-family="Helvetica,sans-Serif" font-size="10.00">builtin/export.c</text>
</a>
</g>
</g>
<!-- Node1&#45;&gt;Node4 -->
<g id="edge3_Node000001_Node000004" class="edge">
<title>Node1&#45;&gt;Node4</title>
<g id="a_edge3_Node000001_Node000004"><a xlink:title=" ">
<path fill="none" stroke="#63b8ff" d="M401.42,-162.5C362.1,-152.58 305.05,-138.18 269,-129.08"/>
<polygon fill="#63b8ff" stroke="#63b8ff" points="400.71,-165.93 411.26,-164.98 402.42,-159.14 400.71,-165.93"/>
</a>
</g>
</g>
<!-- Node5 -->
<g id="Node000005" class="node">
<title>Node5</title>
<g id="a_Node000005"><a xlink:href="ft__cd_8c.html" target="_top" xlink:title=" ">
<polygon fill="white" stroke="#666666" points="380,-129 298,-129 298,-110 380,-110 380,-129"/>
<text text-anchor="middle" x="339" y="-117" font-family="Helvetica,sans-Serif" font-size="10.00">builtin/ft_cd.c</text>
</a>
</g>
</g>
<!-- Node1&#45;&gt;Node5 -->
<g id="edge4_Node000001_Node000005" class="edge">
<title>Node1&#45;&gt;Node5</title>
<g id="a_edge4_Node000001_Node000005"><a xlink:title=" ">
<path fill="none" stroke="#63b8ff" d="M419,-160.5C399.5,-150.75 373.35,-137.68 356.34,-129.17"/>
<polygon fill="#63b8ff" stroke="#63b8ff" points="417.46,-163.64 427.97,-164.98 420.59,-157.38 417.46,-163.64"/>
</a>
</g>
</g>
<!-- Node6 -->
<g id="Node000006" class="node">
<title>Node6</title>
<g id="a_Node000006"><a xlink:href="ft__echo_8c.html" target="_top" xlink:title=" ">
<polygon fill="white" stroke="#666666" points="492,-129 398,-129 398,-110 492,-110 492,-129"/>
<text text-anchor="middle" x="445" y="-117" font-family="Helvetica,sans-Serif" font-size="10.00">builtin/ft_echo.c</text>
</a>
</g>
</g>
<!-- Node1&#45;&gt;Node6 -->
<g id="edge5_Node000001_Node000006" class="edge">
<title>Node1&#45;&gt;Node6</title>
<g id="a_edge5_Node000001_Node000006"><a xlink:title=" ">
<path fill="none" stroke="#63b8ff" d="M445,-154.66C445,-145.93 445,-135.99 445,-129.09"/>
<polygon fill="#63b8ff" stroke="#63b8ff" points="441.5,-154.75 445,-164.75 448.5,-154.75 441.5,-154.75"/>
</a>
</g>
</g>
<!-- Node7 -->
<g id="Node000007" class="node">
<title>Node7</title>
<g id="a_Node000007"><a xlink:href="pwd_8c.html" target="_top" xlink:title=" ">
<polygon fill="white" stroke="#666666" points="589.5,-129 510.5,-129 510.5,-110 589.5,-110 589.5,-129"/>
<text text-anchor="middle" x="550" y="-117" font-family="Helvetica,sans-Serif" font-size="10.00">builtin/pwd.c</text>
</a>
</g>
</g>
<!-- Node1&#45;&gt;Node7 -->
<g id="edge6_Node000001_Node000007" class="edge">
<title>Node1&#45;&gt;Node7</title>
<g id="a_edge6_Node000001_Node000007"><a xlink:title=" ">
<path fill="none" stroke="#63b8ff" d="M471.02,-160.37C490.3,-150.63 516.05,-137.64 532.82,-129.17"/>
<polygon fill="#63b8ff" stroke="#63b8ff" points="469.22,-157.35 461.87,-164.98 472.37,-163.6 469.22,-157.35"/>
</a>
</g>
</g>
<!-- Node8 -->
<g id="Node000008" class="node">
<title>Node8</title>
<g id="a_Node000008"><a xlink:href="unset_8c.html" target="_top" xlink:title=" ">
<polygon fill="white" stroke="#666666" points="694,-129 608,-129 608,-110 694,-110 694,-129"/>
<text text-anchor="middle" x="651" y="-117" font-family="Helvetica,sans-Serif" font-size="10.00">builtin/unset.c</text>
</a>
</g>
</g>
<!-- Node1&#45;&gt;Node8 -->
<g id="edge7_Node000001_Node000008" class="edge">
<title>Node1&#45;&gt;Node8</title>
<g id="a_edge7_Node000001_Node000008"><a xlink:title=" ">
<path fill="none" stroke="#63b8ff" d="M488,-162.44C526.56,-152.52 582.36,-138.16 617.64,-129.08"/>
<polygon fill="#63b8ff" stroke="#63b8ff" points="486.91,-159.1 478.1,-164.98 488.65,-165.88 486.91,-159.1"/>
</a>
</g>
</g>
<!-- Node9 -->
<g id="Node000009" class="node">
<title>Node9</title>
<g id="a_Node000009"><a xlink:href="minishell_8h.html" target="_top" xlink:title=" ">
<polygon fill="white" stroke="#666666" points="755,-74 657,-74 657,-55 755,-55 755,-74"/>
<text text-anchor="middle" x="706" y="-62" font-family="Helvetica,sans-Serif" font-size="10.00">main/minishell.h</text>
</a>
</g>
</g>
<!-- Node1&#45;&gt;Node9 -->
<g id="edge8_Node000001_Node000009" class="edge">
<title>Node1&#45;&gt;Node9</title>
<g id="a_edge8_Node000001_Node000009"><a xlink:title=" ">
<path fill="none" stroke="#63b8ff" d="M500.15,-171.81C567.86,-168.47 676.92,-158.52 703,-129 716.45,-113.78 712.11,-87.64 708.61,-74.13"/>
<polygon fill="#63b8ff" stroke="#63b8ff" points="499.9,-168.32 490.07,-172.28 500.22,-175.31 499.9,-168.32"/>
</a>
</g>
</g>
<!-- Node13 -->
<g id="Node000013" class="node">
<title>Node13</title>
<g id="a_Node000013"><a xlink:href="pipes_8h.html" target="_top" xlink:title=" ">
<polygon fill="white" stroke="#666666" points="863.5,-129 782.5,-129 782.5,-110 863.5,-110 863.5,-129"/>
<text text-anchor="middle" x="823" y="-117" font-family="Helvetica,sans-Serif" font-size="10.00">pipes/pipes.h</text>
</a>
</g>
</g>
<!-- Node1&#45;&gt;Node13 -->
<g id="edge12_Node000001_Node000013" class="edge">
<title>Node1&#45;&gt;Node13</title>
<g id="a_edge12_Node000001_Node000013"><a xlink:title=" ">
<path fill="none" stroke="#63b8ff" d="M500.18,-165.76C576.95,-155 714.21,-135.75 782.33,-126.2"/>
<polygon fill="#63b8ff" stroke="#63b8ff" points="499.64,-162.3 490.22,-167.16 500.61,-169.24 499.64,-162.3"/>
</a>
</g>
</g>
<!-- Node10 -->
<g id="Node000010" class="node">
<title>Node10</title>
<g id="a_Node000010"><a xlink:href="cmd__execution_8c.html" target="_top" xlink:title=" ">
<polygon fill="white" stroke="#666666" points="649,-19 523,-19 523,0 649,0 649,-19"/>
<text text-anchor="middle" x="586" y="-7" font-family="Helvetica,sans-Serif" font-size="10.00">main/cmd_execution.c</text>
</a>
</g>
</g>
<!-- Node9&#45;&gt;Node10 -->
<g id="edge9_Node000009_Node000010" class="edge">
<title>Node9&#45;&gt;Node10</title>
<g id="a_edge9_Node000009_Node000010"><a xlink:title=" ">
<path fill="none" stroke="#63b8ff" d="M677.47,-50.9C655.3,-41.11 625.15,-27.79 605.63,-19.17"/>
<polygon fill="#63b8ff" stroke="#63b8ff" points="676.16,-54.15 686.72,-54.98 678.99,-47.74 676.16,-54.15"/>
</a>
</g>
</g>
<!-- Node11 -->
<g id="Node000011" class="node">
<title>Node11</title>
<g id="a_Node000011"><a xlink:href="main_8c.html" target="_top" xlink:title=" ">
<polygon fill="white" stroke="#666666" points="744.5,-19 667.5,-19 667.5,0 744.5,0 744.5,-19"/>
<text text-anchor="middle" x="706" y="-7" font-family="Helvetica,sans-Serif" font-size="10.00">main/main.c</text>
</a>
</g>
</g>
<!-- Node9&#45;&gt;Node11 -->
<g id="edge10_Node000009_Node000011" class="edge">
<title>Node9&#45;&gt;Node11</title>
<g id="a_edge10_Node000009_Node000011"><a xlink:title=" ">
<path fill="none" stroke="#63b8ff" d="M706,-44.66C706,-35.93 706,-25.99 706,-19.09"/>
<polygon fill="#63b8ff" stroke="#63b8ff" points="702.5,-44.75 706,-54.75 709.5,-44.75 702.5,-44.75"/>
</a>
</g>
</g>
<!-- Node12 -->
<g id="Node000012" class="node">
<title>Node12</title>
<g id="a_Node000012"><a xlink:href="main__utils_8c.html" target="_top" xlink:title=" ">
<polygon fill="white" stroke="#666666" points="867,-19 763,-19 763,0 867,0 867,-19"/>
<text text-anchor="middle" x="815" y="-7" font-family="Helvetica,sans-Serif" font-size="10.00">main/main_utils.c</text>
</a>
</g>
</g>
<!-- Node9&#45;&gt;Node12 -->
<g id="edge11_Node000009_Node000012" class="edge">
<title>Node9&#45;&gt;Node12</title>
<g id="a_edge11_Node000009_Node000012"><a xlink:title=" ">
<path fill="none" stroke="#63b8ff" d="M732.73,-50.5C752.79,-40.75 779.68,-27.68 797.17,-19.17"/>
<polygon fill="#63b8ff" stroke="#63b8ff" points="730.98,-47.46 723.51,-54.98 734.04,-53.76 730.98,-47.46"/>
</a>
</g>
</g>
<!-- Node13&#45;&gt;Node9 -->
<g id="edge13_Node000013_Node000009" class="edge">
<title>Node13&#45;&gt;Node9</title>
<g id="a_edge13_Node000013_Node000009"><a xlink:title=" ">
<path fill="none" stroke="#63b8ff" d="M794.89,-105.77C773.31,-95.99 744.09,-82.75 725.14,-74.17"/>
<polygon fill="#63b8ff" stroke="#63b8ff" points="793.65,-109.05 804.2,-109.98 796.54,-102.67 793.65,-109.05"/>
</a>
</g>
</g>
<!-- Node14 -->
<g id="Node000014" class="node">
<title>Node14</title>
<g id="a_Node000014"><a xlink:href="create__pipe__list_8c.html" target="_top" xlink:title=" ">
<polygon fill="white" stroke="#666666" points="904.5,-74 773.5,-74 773.5,-55 904.5,-55 904.5,-74"/>
<text text-anchor="middle" x="839" y="-62" font-family="Helvetica,sans-Serif" font-size="10.00">pipes/create_pipe_list.c</text>
</a>
</g>
</g>
<!-- Node13&#45;&gt;Node14 -->
<g id="edge14_Node000013_Node000014" class="edge">
<title>Node13&#45;&gt;Node14</title>
<g id="a_edge14_Node000013_Node000014"><a xlink:title=" ">
<path fill="none" stroke="#63b8ff" d="M828.6,-99.95C831.26,-91.15 834.3,-81.06 836.41,-74.09"/>
<polygon fill="#63b8ff" stroke="#63b8ff" points="825.18,-99.16 825.64,-109.75 831.88,-101.19 825.18,-99.16"/>
</a>
</g>
</g>
<!-- Node15 -->
<g id="Node000015" class="node">
<title>Node15</title>
<g id="a_Node000015"><a xlink:href="pipes_8c.html" target="_top" xlink:title=" ">
<polygon fill="white" stroke="#666666" points="1003,-74 923,-74 923,-55 1003,-55 1003,-74"/>
<text text-anchor="middle" x="963" y="-62" font-family="Helvetica,sans-Serif" font-size="10.00">pipes/pipes.c</text>
</a>
</g>
</g>
<!-- Node13&#45;&gt;Node15 -->
<g id="edge15_Node000013_Node000015" class="edge">
<title>Node13&#45;&gt;Node15</title>
<g id="a_edge15_Node000013_Node000015"><a xlink:title=" ">
<path fill="none" stroke="#63b8ff" d="M854.91,-106.42C880.88,-96.59 916.92,-82.95 940.1,-74.17"/>
<polygon fill="#63b8ff" stroke="#63b8ff" points="853.61,-103.17 845.49,-109.98 856.08,-109.72 853.61,-103.17"/>
</a>
</g>
</g>
</g>
</svg>
