<?xml version="1.0" encoding="UTF-8" standalone="no"?>
<!DOCTYPE svg PUBLIC "-//W3C//DTD SVG 1.1//EN"
 "http://www.w3.org/Graphics/SVG/1.1/DTD/svg11.dtd">
<!-- Generated by graphviz version 2.43.0 (0)
 -->
<!-- Title: ft_exit Pages: 1 -->
<svg width="735pt" height="346pt"
 viewBox="0.00 0.00 735.00 346.00" xmlns="http://www.w3.org/2000/svg" xmlns:xlink="http://www.w3.org/1999/xlink">
<g id="graph0" class="graph" transform="scale(1 1) rotate(0) translate(4 342)">
<title>ft_exit</title>
<!-- Node1 -->
<g id="Node000001" class="node">
<title>Node1</title>
<g id="a_Node000001"><a xlink:title="Builtin function for the exit command.">
<polygon fill="#999999" stroke="#666666" points="47,-186 0,-186 0,-167 47,-167 47,-186"/>
<text text-anchor="middle" x="23.5" y="-174" font-family="Helvetica,sans-Serif" font-size="10.00">ft_exit</text>
</a>
</g>
</g>
<!-- Node2 -->
<g id="Node000002" class="node">
<title>Node2</title>
<g id="a_Node000002"><a xlink:href="utils__fd_8c.html#ae6ad7aa33393749b9dc5eac6b61cdf74" target="_top" xlink:title="Returns the correct file descriptor based on append flag and file.">
<polygon fill="white" stroke="#666666" points="187.5,-338 95.5,-338 95.5,-319 187.5,-319 187.5,-338"/>
<text text-anchor="middle" x="141.5" y="-326" font-family="Helvetica,sans-Serif" font-size="10.00">check_value_fd</text>
</a>
</g>
</g>
<!-- Node1&#45;&gt;Node2 -->
<g id="edge1_Node000001_Node000002" class="edge">
<title>Node1&#45;&gt;Node2</title>
<g id="a_edge1_Node000001_Node000002"><a xlink:title=" ">
<path fill="none" stroke="#63b8ff" d="M26.4,-186.25C31.45,-209.74 47.35,-270.02 83,-304.5 87.03,-308.4 91.79,-311.71 96.82,-314.5"/>
<polygon fill="#63b8ff" stroke="#63b8ff" points="95.53,-317.76 106.05,-318.98 98.59,-311.47 95.53,-317.76"/>
</a>
</g>
</g>
<!-- Node3 -->
<g id="Node000003" class="node">
<title>Node3</title>
<g id="a_Node000003"><a xlink:href="utils__fd_8c.html#a9cf70d06db18597b04bb642db7abab4a" target="_top" xlink:title="Checks if a file descriptor is valid.">
<polygon fill="white" stroke="#666666" points="312,-319 240,-319 240,-300 312,-300 312,-319"/>
<text text-anchor="middle" x="276" y="-307" font-family="Helvetica,sans-Serif" font-size="10.00">ft_check_fd</text>
</a>
</g>
</g>
<!-- Node1&#45;&gt;Node3 -->
<g id="edge15_Node000001_Node000003" class="edge">
<title>Node1&#45;&gt;Node3</title>
<g id="a_edge15_Node000001_Node000003"><a xlink:title=" ">
<path fill="none" stroke="#63b8ff" d="M32.24,-186.36C42.61,-199.01 62.14,-220.93 83,-234.5 129.28,-264.61 189.51,-285.66 230.07,-297.65"/>
<polygon fill="#63b8ff" stroke="#63b8ff" points="229.1,-301.01 239.68,-300.42 231.05,-294.29 229.1,-301.01"/>
</a>
</g>
</g>
<!-- Node4 -->
<g id="Node000004" class="node">
<title>Node4</title>
<g id="a_Node000004"><a xlink:href="free__functions_8c.html#af29ea604c324eb3b9934ef9d6a34aa1d" target="_top" xlink:title="Frees all allocated resources associated with the command list and environment.">
<polygon fill="white" stroke="#666666" points="302.5,-242 249.5,-242 249.5,-223 302.5,-223 302.5,-242"/>
<text text-anchor="middle" x="276" y="-230" font-family="Helvetica,sans-Serif" font-size="10.00">free_all</text>
</a>
</g>
</g>
<!-- Node1&#45;&gt;Node4 -->
<g id="edge3_Node000001_Node000004" class="edge">
<title>Node1&#45;&gt;Node4</title>
<g id="a_edge3_Node000001_Node000004"><a xlink:title=" ">
<path fill="none" stroke="#63b8ff" d="M37.18,-186.3C48.52,-194.51 65.95,-205.77 83,-211.5 135.41,-229.1 199.96,-232.74 239.26,-233.1"/>
<polygon fill="#63b8ff" stroke="#63b8ff" points="239.4,-236.6 249.41,-233.13 239.42,-229.6 239.4,-236.6"/>
</a>
</g>
</g>
<!-- Node8 -->
<g id="Node000008" class="node">
<title>Node8</title>
<g id="a_Node000008"><a xlink:href="free__functions_8c.html#a451c65e7c59e947c1880d1f75d866e3a" target="_top" xlink:title="Frees all resources associated with a list of pipes and the environment.">
<polygon fill="white" stroke="#666666" points="316,-186 236,-186 236,-167 316,-167 316,-186"/>
<text text-anchor="middle" x="276" y="-174" font-family="Helvetica,sans-Serif" font-size="10.00">free_all_pipe</text>
</a>
</g>
</g>
<!-- Node1&#45;&gt;Node8 -->
<g id="edge8_Node000001_Node000008" class="edge">
<title>Node1&#45;&gt;Node8</title>
<g id="a_edge8_Node000001_Node000008"><a xlink:title=" ">
<path fill="none" stroke="#63b8ff" d="M47.15,-185.69C57.83,-189.55 70.87,-193.58 83,-195.5 134.36,-203.63 148.4,-201.93 200,-195.5 211.43,-194.07 223.62,-191.47 234.77,-188.64"/>
<polygon fill="#63b8ff" stroke="#63b8ff" points="235.91,-191.96 244.68,-186 234.11,-185.2 235.91,-191.96"/>
</a>
</g>
</g>
<!-- Node10 -->
<g id="Node000010" class="node">
<title>Node10</title>
<g id="a_Node000010"><a xlink:href="ft__atol_8c.html#a25083028f2d84eb80f897cf3a4ca213b" target="_top" xlink:title="Converts a string to an long integer.">
<polygon fill="white" stroke="#666666" points="165,-36 118,-36 118,-17 165,-17 165,-36"/>
<text text-anchor="middle" x="141.5" y="-24" font-family="Helvetica,sans-Serif" font-size="10.00">ft_atol</text>
</a>
</g>
</g>
<!-- Node1&#45;&gt;Node10 -->
<g id="edge13_Node000001_Node000010" class="edge">
<title>Node1&#45;&gt;Node10</title>
<g id="a_edge13_Node000001_Node000010"><a xlink:title=" ">
<path fill="none" stroke="#63b8ff" d="M26.45,-166.9C31.6,-143.78 47.71,-84.43 83,-50.5 90.04,-43.73 99.28,-38.75 108.27,-35.14"/>
<polygon fill="#63b8ff" stroke="#63b8ff" points="109.58,-38.38 117.83,-31.74 107.24,-31.79 109.58,-38.38"/>
</a>
</g>
</g>
<!-- Node12 -->
<g id="Node000012" class="node">
<title>Node12</title>
<g id="a_Node000012"><a xlink:href="exit_8c.html#a81b8a91253c822b248934172be9eee03" target="_top" xlink:title="Handles errors related to non&#45;numeric or null exit arguments.">
<polygon fill="white" stroke="#666666" points="179.5,-186 103.5,-186 103.5,-167 179.5,-167 179.5,-186"/>
<text text-anchor="middle" x="141.5" y="-174" font-family="Helvetica,sans-Serif" font-size="10.00">ft_error_exit</text>
</a>
</g>
</g>
<!-- Node1&#45;&gt;Node12 -->
<g id="edge16_Node000001_Node000012" class="edge">
<title>Node1&#45;&gt;Node12</title>
<g id="a_edge16_Node000001_Node000012"><a xlink:title=" ">
<path fill="none" stroke="#63b8ff" d="M47.14,-176.5C60.23,-176.5 77.2,-176.5 93.08,-176.5"/>
<polygon fill="#63b8ff" stroke="#63b8ff" points="93.31,-180 103.31,-176.5 93.31,-173 93.31,-180"/>
</a>
</g>
</g>
<!-- Node13 -->
<g id="Node000013" class="node">
<title>Node13</title>
<g id="a_Node000013"><a xlink:href="ft__printf_8c.html#a091532b7f37af84bdecc84dccf4eedb1" target="_top" xlink:title="A simplified printf function that outputs formatted data to a given file descriptor.">
<polygon fill="white" stroke="#666666" points="303.5,-111 248.5,-111 248.5,-92 303.5,-92 303.5,-111"/>
<text text-anchor="middle" x="276" y="-99" font-family="Helvetica,sans-Serif" font-size="10.00">ft_printf</text>
</a>
</g>
</g>
<!-- Node1&#45;&gt;Node13 -->
<g id="edge41_Node000001_Node000013" class="edge">
<title>Node1&#45;&gt;Node13</title>
<g id="a_edge41_Node000001_Node000013"><a xlink:title=" ">
<path fill="none" stroke="#63b8ff" d="M27.18,-166.95C33.29,-147.25 50.32,-102.45 83,-84.5 133.57,-56.73 203.1,-74.07 243.12,-88.36"/>
<polygon fill="#63b8ff" stroke="#63b8ff" points="242.04,-91.69 252.63,-91.9 244.48,-85.13 242.04,-91.69"/>
</a>
</g>
</g>
<!-- Node23 -->
<g id="Node000023" class="node">
<title>Node23</title>
<g id="a_Node000023"><a xlink:href="exit_8c.html#a7bda6b30cde0b18718f60d2a30efb2f6" target="_top" xlink:title="Handles the case when exit is called without arguments or with &quot;0&quot;.">
<polygon fill="white" stroke="#666666" points="200,-149 83,-149 83,-130 200,-130 200,-149"/>
<text text-anchor="middle" x="141.5" y="-137" font-family="Helvetica,sans-Serif" font-size="10.00">ft_exit_no_args_or_0</text>
</a>
</g>
</g>
<!-- Node1&#45;&gt;Node23 -->
<g id="edge34_Node000001_Node000023" class="edge">
<title>Node1&#45;&gt;Node23</title>
<g id="a_edge34_Node000001_Node000023"><a xlink:title=" ">
<path fill="none" stroke="#63b8ff" d="M47.14,-169.28C62.38,-164.42 82.9,-157.87 100.81,-152.16"/>
<polygon fill="#63b8ff" stroke="#63b8ff" points="101.98,-155.46 110.45,-149.09 99.86,-148.79 101.98,-155.46"/>
</a>
</g>
</g>
<!-- Node25 -->
<g id="Node000025" class="node">
<title>Node25</title>
<g id="a_Node000025"><a xlink:href="exit_8c.html#a31166fb7eed428449a3e6183d4fa1642" target="_top" xlink:title="Checks if there are too many arguments for the exit command.">
<polygon fill="white" stroke="#666666" points="189,-112 94,-112 94,-93 189,-93 189,-112"/>
<text text-anchor="middle" x="141.5" y="-100" font-family="Helvetica,sans-Serif" font-size="10.00">ft_exit_too_args</text>
</a>
</g>
</g>
<!-- Node1&#45;&gt;Node25 -->
<g id="edge38_Node000001_Node000025" class="edge">
<title>Node1&#45;&gt;Node25</title>
<g id="a_edge38_Node000001_Node000025"><a xlink:title=" ">
<path fill="none" stroke="#63b8ff" d="M32.61,-166.58C43.07,-154.38 62.4,-133.76 83,-121.5 86.46,-119.44 90.17,-117.57 93.98,-115.89"/>
<polygon fill="#63b8ff" stroke="#63b8ff" points="95.58,-119.02 103.56,-112.05 92.98,-112.52 95.58,-119.02"/>
</a>
</g>
</g>
<!-- Node2&#45;&gt;Node3 -->
<g id="edge2_Node000002_Node000003" class="edge">
<title>Node2&#45;&gt;Node3</title>
<g id="a_edge2_Node000002_Node000003"><a xlink:title=" ">
<path fill="none" stroke="#63b8ff" d="M187.73,-322.01C201.23,-320.08 216.03,-317.96 229.55,-316.02"/>
<polygon fill="#63b8ff" stroke="#63b8ff" points="230.19,-319.46 239.59,-314.58 229.19,-312.53 230.19,-319.46"/>
</a>
</g>
</g>
<!-- Node5 -->
<g id="Node000005" class="node">
<title>Node5</title>
<g id="a_Node000005"><a xlink:href="free__functions_8c.html#a32c72055f1119062342fcdf42527c05c" target="_top" xlink:title="Frees a list of commands.">
<polygon fill="white" stroke="#666666" points="424.5,-224 362.5,-224 362.5,-205 424.5,-205 424.5,-224"/>
<text text-anchor="middle" x="393.5" y="-212" font-family="Helvetica,sans-Serif" font-size="10.00">free_cmd</text>
</a>
</g>
</g>
<!-- Node4&#45;&gt;Node5 -->
<g id="edge4_Node000004_Node000005" class="edge">
<title>Node4&#45;&gt;Node5</title>
<g id="a_edge4_Node000004_Node000005"><a xlink:title=" ">
<path fill="none" stroke="#63b8ff" d="M302.63,-228.51C317.27,-226.22 335.95,-223.31 352.48,-220.74"/>
<polygon fill="#63b8ff" stroke="#63b8ff" points="353.1,-224.18 362.44,-219.18 352.02,-217.27 353.1,-224.18"/>
</a>
</g>
</g>
<!-- Node6 -->
<g id="Node000006" class="node">
<title>Node6</title>
<g id="a_Node000006"><a xlink:href="ft__free__matrix_8c.html#a1ea6d1f3b50d1c23d4f0faddd1a13448" target="_top" xlink:title="Frees a NULL&#45;terminated matrix of strings.">
<polygon fill="white" stroke="#666666" points="569,-277 483,-277 483,-258 569,-258 569,-277"/>
<text text-anchor="middle" x="526" y="-265" font-family="Helvetica,sans-Serif" font-size="10.00">ft_free_matrix</text>
</a>
</g>
</g>
<!-- Node4&#45;&gt;Node6 -->
<g id="edge7_Node000004_Node000006" class="edge">
<title>Node4&#45;&gt;Node6</title>
<g id="a_edge7_Node000004_Node000006"><a xlink:title=" ">
<path fill="none" stroke="#63b8ff" d="M290.88,-242.06C305.37,-251.42 329.14,-265.04 352,-270.5 391.58,-279.96 437.73,-278.56 472.4,-275.16"/>
<polygon fill="#63b8ff" stroke="#63b8ff" points="473.2,-278.59 482.77,-274.04 472.45,-271.63 473.2,-278.59"/>
</a>
</g>
</g>
<!-- Node7 -->
<g id="Node000007" class="node">
<title>Node7</title>
<g id="a_Node000007"><a xlink:href="free__functions_8c.html#a4f32f08947270b8aec54f43ddd8b02d4" target="_top" xlink:title="Frees a list of tokens.">
<polygon fill="white" stroke="#666666" points="427.5,-261 359.5,-261 359.5,-242 427.5,-242 427.5,-261"/>
<text text-anchor="middle" x="393.5" y="-249" font-family="Helvetica,sans-Serif" font-size="10.00">free_token</text>
</a>
</g>
</g>
<!-- Node4&#45;&gt;Node7 -->
<g id="edge6_Node000004_Node000007" class="edge">
<title>Node4&#45;&gt;Node7</title>
<g id="a_edge6_Node000004_Node000007"><a xlink:title=" ">
<path fill="none" stroke="#63b8ff" d="M302.63,-236.72C316.37,-238.98 333.67,-241.82 349.4,-244.41"/>
<polygon fill="#63b8ff" stroke="#63b8ff" points="349.03,-247.9 359.47,-246.07 350.17,-240.99 349.03,-247.9"/>
</a>
</g>
</g>
<!-- Node5&#45;&gt;Node6 -->
<g id="edge5_Node000005_Node000006" class="edge">
<title>Node5&#45;&gt;Node6</title>
<g id="a_edge5_Node000005_Node000006"><a xlink:title=" ">
<path fill="none" stroke="#63b8ff" d="M414.83,-224.1C433.64,-232.93 460.27,-245.27 471,-249.5 475.48,-251.26 480.2,-253.01 484.92,-254.68"/>
<polygon fill="#63b8ff" stroke="#63b8ff" points="483.93,-258.03 494.52,-257.98 486.2,-251.41 483.93,-258.03"/>
</a>
</g>
</g>
<!-- Node8&#45;&gt;Node5 -->
<g id="edge9_Node000008_Node000005" class="edge">
<title>Node8&#45;&gt;Node5</title>
<g id="a_edge9_Node000008_Node000005"><a xlink:title=" ">
<path fill="none" stroke="#63b8ff" d="M306.15,-186.09C320.51,-190.81 338.03,-196.58 353.53,-201.68"/>
<polygon fill="#63b8ff" stroke="#63b8ff" points="352.77,-205.11 363.36,-204.91 354.96,-198.46 352.77,-205.11"/>
</a>
</g>
</g>
<!-- Node8&#45;&gt;Node6 -->
<g id="edge12_Node000008_Node000006" class="edge">
<title>Node8&#45;&gt;Node6</title>
<g id="a_edge12_Node000008_Node000006"><a xlink:title=" ">
<path fill="none" stroke="#63b8ff" d="M316.3,-172.84C350.19,-171.6 399.17,-174.53 435,-196.5 459.28,-211.38 448.3,-232.31 471,-249.5 472.82,-250.88 474.76,-252.16 476.77,-253.34"/>
<polygon fill="#63b8ff" stroke="#63b8ff" points="475.47,-256.6 485.98,-257.94 478.6,-250.34 475.47,-256.6"/>
</a>
</g>
</g>
<!-- Node8&#45;&gt;Node7 -->
<g id="edge11_Node000008_Node000007" class="edge">
<title>Node8&#45;&gt;Node7</title>
<g id="a_edge11_Node000008_Node000007"><a xlink:title=" ">
<path fill="none" stroke="#63b8ff" d="M288.1,-186.26C302.25,-198.37 327.79,-219.18 352,-233.5 354.34,-234.88 356.81,-236.23 359.32,-237.52"/>
<polygon fill="#63b8ff" stroke="#63b8ff" points="357.95,-240.75 368.48,-241.93 360.99,-234.44 357.95,-240.75"/>
</a>
</g>
</g>
<!-- Node9 -->
<g id="Node000009" class="node">
<title>Node9</title>
<g id="a_Node000009"><a xlink:href="free__functions_8c.html#a87de2a27d0e0e99f3de0b477731181e0" target="_top" xlink:title="Frees a list of pipes.">
<polygon fill="white" stroke="#666666" points="424.5,-148 362.5,-148 362.5,-129 424.5,-129 424.5,-148"/>
<text text-anchor="middle" x="393.5" y="-136" font-family="Helvetica,sans-Serif" font-size="10.00">free_pipe</text>
</a>
</g>
</g>
<!-- Node8&#45;&gt;Node9 -->
<g id="edge10_Node000008_Node000009" class="edge">
<title>Node8&#45;&gt;Node9</title>
<g id="a_edge10_Node000008_Node000009"><a xlink:title=" ">
<path fill="none" stroke="#63b8ff" d="M306.15,-166.91C320.51,-162.19 338.03,-156.42 353.53,-151.32"/>
<polygon fill="#63b8ff" stroke="#63b8ff" points="354.96,-154.54 363.36,-148.09 352.77,-147.89 354.96,-154.54"/>
</a>
</g>
</g>
<!-- Node11 -->
<g id="Node000011" class="node">
<title>Node11</title>
<g id="a_Node000011"><a xlink:href="ft__isspace_8c.html#ac7978b309e3e11366ba16643e447528c" target="_top" xlink:title="Checks whether a character is a whitespace character.">
<polygon fill="white" stroke="#666666" points="308.5,-36 243.5,-36 243.5,-17 308.5,-17 308.5,-36"/>
<text text-anchor="middle" x="276" y="-24" font-family="Helvetica,sans-Serif" font-size="10.00">ft_isspace</text>
</a>
</g>
</g>
<!-- Node10&#45;&gt;Node11 -->
<g id="edge14_Node000010_Node000011" class="edge">
<title>Node10&#45;&gt;Node11</title>
<g id="a_edge14_Node000010_Node000011"><a xlink:title=" ">
<path fill="none" stroke="#63b8ff" d="M165.28,-26.5C183.8,-26.5 210.44,-26.5 232.84,-26.5"/>
<polygon fill="#63b8ff" stroke="#63b8ff" points="233.11,-30 243.11,-26.5 233.11,-23 233.11,-30"/>
</a>
</g>
</g>
<!-- Node12&#45;&gt;Node4 -->
<g id="edge17_Node000012_Node000004" class="edge">
<title>Node12&#45;&gt;Node4</title>
<g id="a_edge17_Node000012_Node000004"><a xlink:title=" ">
<path fill="none" stroke="#63b8ff" d="M165.28,-186.13C186.74,-195.2 219.09,-208.87 243.12,-219.02"/>
<polygon fill="#63b8ff" stroke="#63b8ff" points="241.95,-222.33 252.52,-223 244.67,-215.88 241.95,-222.33"/>
</a>
</g>
</g>
<!-- Node12&#45;&gt;Node8 -->
<g id="edge18_Node000012_Node000008" class="edge">
<title>Node12&#45;&gt;Node8</title>
<g id="a_edge18_Node000012_Node000008"><a xlink:title=" ">
<path fill="none" stroke="#63b8ff" d="M179.76,-176.5C193.94,-176.5 210.33,-176.5 225.47,-176.5"/>
<polygon fill="#63b8ff" stroke="#63b8ff" points="225.71,-180 235.71,-176.5 225.71,-173 225.71,-180"/>
</a>
</g>
</g>
<!-- Node12&#45;&gt;Node13 -->
<g id="edge19_Node000012_Node000013" class="edge">
<title>Node12&#45;&gt;Node13</title>
<g id="a_edge19_Node000012_Node000013"><a xlink:title=" ">
<path fill="none" stroke="#63b8ff" d="M179.58,-167.87C186.64,-165.42 193.76,-162.33 200,-158.5 219.55,-146.48 217.55,-135.14 236,-121.5 238.63,-119.56 241.48,-117.7 244.4,-115.96"/>
<polygon fill="#63b8ff" stroke="#63b8ff" points="246.14,-118.99 253.21,-111.1 242.76,-112.86 246.14,-118.99"/>
</a>
</g>
</g>
<!-- Node14 -->
<g id="Node000014" class="node">
<title>Node14</title>
<g id="a_Node000014"><a xlink:href="ft__printf_8c.html#a80c1c206dcd33d07c265581878aaa300" target="_top" xlink:title="Processes a single format specifier and prints the corresponding argument.">
<polygon fill="white" stroke="#666666" points="435,-111 352,-111 352,-92 435,-92 435,-111"/>
<text text-anchor="middle" x="393.5" y="-99" font-family="Helvetica,sans-Serif" font-size="10.00">check_format</text>
</a>
</g>
</g>
<!-- Node13&#45;&gt;Node14 -->
<g id="edge20_Node000013_Node000014" class="edge">
<title>Node13&#45;&gt;Node14</title>
<g id="a_edge20_Node000013_Node000014"><a xlink:title=" ">
<path fill="none" stroke="#63b8ff" d="M303.79,-101.5C315.04,-101.5 328.52,-101.5 341.53,-101.5"/>
<polygon fill="#63b8ff" stroke="#63b8ff" points="341.82,-105 351.82,-101.5 341.82,-98 341.82,-105"/>
</a>
</g>
</g>
<!-- Node18 -->
<g id="Node000018" class="node">
<title>Node18</title>
<g id="a_Node000018"><a xlink:href="ft__putchar__fd_8c.html#a03ef80b25dc4a521379fa92ad97bad21" target="_top" xlink:title="Writes a single character to the specified file descriptor.">
<polygon fill="white" stroke="#666666" points="566,-19 486,-19 486,0 566,0 566,-19"/>
<text text-anchor="middle" x="526" y="-7" font-family="Helvetica,sans-Serif" font-size="10.00">ft_putchar_fd</text>
</a>
</g>
</g>
<!-- Node13&#45;&gt;Node18 -->
<g id="edge33_Node000013_Node000018" class="edge">
<title>Node13&#45;&gt;Node18</title>
<g id="a_edge33_Node000013_Node000018"><a xlink:title=" ">
<path fill="none" stroke="#63b8ff" d="M301.07,-91.94C337.62,-77.51 409.39,-49.51 471,-27.5 475.82,-25.78 480.9,-24.02 485.94,-22.3"/>
<polygon fill="#63b8ff" stroke="#63b8ff" points="487.13,-25.59 495.49,-19.08 484.9,-18.96 487.13,-25.59"/>
</a>
</g>
</g>
<!-- Node15 -->
<g id="Node000015" class="node">
<title>Node15</title>
<g id="a_Node000015"><a xlink:href="ft__forpointer_8c.html#a8e02c77b80406af72327ebf71f537786" target="_top" xlink:title="Prints a pointer in hexadecimal format prefixed with &quot;0x&quot;.">
<polygon fill="white" stroke="#666666" points="564.5,-240 487.5,-240 487.5,-221 564.5,-221 564.5,-240"/>
<text text-anchor="middle" x="526" y="-228" font-family="Helvetica,sans-Serif" font-size="10.00">ft_forpointer</text>
</a>
</g>
</g>
<!-- Node14&#45;&gt;Node15 -->
<g id="edge21_Node000014_Node000015" class="edge">
<title>Node14&#45;&gt;Node15</title>
<g id="a_edge21_Node000014_Node000015"><a xlink:title=" ">
<path fill="none" stroke="#63b8ff" d="M422.52,-111.18C427.11,-113.68 431.5,-116.76 435,-120.5 465.01,-152.55 439.17,-182.26 471,-212.5 473.26,-214.64 475.77,-216.53 478.45,-218.19"/>
<polygon fill="#63b8ff" stroke="#63b8ff" points="476.95,-221.36 487.45,-222.78 480.13,-215.12 476.95,-221.36"/>
</a>
</g>
</g>
<!-- Node17 -->
<g id="Node000017" class="node">
<title>Node17</title>
<g id="a_Node000017"><a xlink:href="ft__hexadecimal_8c.html#a39c845e0a4286d3ac1e04c1e64ac734b" target="_top" xlink:title="Prints an unsigned integer in hexadecimal format.">
<polygon fill="white" stroke="#666666" points="572,-185 480,-185 480,-166 572,-166 572,-185"/>
<text text-anchor="middle" x="526" y="-173" font-family="Helvetica,sans-Serif" font-size="10.00">ft_hexadecimal</text>
</a>
</g>
</g>
<!-- Node14&#45;&gt;Node17 -->
<g id="edge24_Node000014_Node000017" class="edge">
<title>Node14&#45;&gt;Node17</title>
<g id="a_edge24_Node000014_Node000017"><a xlink:title=" ">
<path fill="none" stroke="#63b8ff" d="M418.86,-111.19C424.38,-113.85 430.07,-116.99 435,-120.5 453.69,-133.81 451.57,-145.3 471,-157.5 473.59,-159.13 476.35,-160.63 479.2,-162"/>
<polygon fill="#63b8ff" stroke="#63b8ff" points="477.91,-165.26 488.48,-165.99 480.67,-158.82 477.91,-165.26"/>
</a>
</g>
</g>
<!-- Node14&#45;&gt;Node18 -->
<g id="edge26_Node000014_Node000018" class="edge">
<title>Node14&#45;&gt;Node18</title>
<g id="a_edge26_Node000014_Node000018"><a xlink:title=" ">
<path fill="none" stroke="#63b8ff" d="M403.86,-91.98C422.53,-73.08 463.26,-32.2 471,-27.5 473.66,-25.89 476.48,-24.4 479.39,-23.03"/>
<polygon fill="#63b8ff" stroke="#63b8ff" points="480.99,-26.15 488.85,-19.04 478.27,-19.7 480.99,-26.15"/>
</a>
</g>
</g>
<!-- Node19 -->
<g id="Node000019" class="node">
<title>Node19</title>
<g id="a_Node000019"><a xlink:href="ft__putnbr__fd_8c.html#a1554101ee350c316340c78e19faddaa8" target="_top" xlink:title="Writes an integer to a given file descriptor.">
<polygon fill="white" stroke="#666666" points="563.5,-130 488.5,-130 488.5,-111 563.5,-111 563.5,-130"/>
<text text-anchor="middle" x="526" y="-118" font-family="Helvetica,sans-Serif" font-size="10.00">ft_putnbr_fd</text>
</a>
</g>
</g>
<!-- Node14&#45;&gt;Node19 -->
<g id="edge27_Node000014_Node000019" class="edge">
<title>Node14&#45;&gt;Node19</title>
<g id="a_edge27_Node000014_Node000019"><a xlink:title=" ">
<path fill="none" stroke="#63b8ff" d="M435.08,-107.41C448.8,-109.41 464.24,-111.65 478.4,-113.71"/>
<polygon fill="#63b8ff" stroke="#63b8ff" points="478.04,-117.2 488.44,-115.18 479.05,-110.27 478.04,-117.2"/>
</a>
</g>
</g>
<!-- Node20 -->
<g id="Node000020" class="node">
<title>Node20</title>
<g id="a_Node000020"><a xlink:href="ft__putstr__fd_8c.html#a00b0638f31a75c7a30f77f33888bfb73" target="_top" xlink:title="Writes a null&#45;terminated string to the specified file descriptor.">
<polygon fill="white" stroke="#666666" points="562,-93 490,-93 490,-74 562,-74 562,-93"/>
<text text-anchor="middle" x="526" y="-81" font-family="Helvetica,sans-Serif" font-size="10.00">ft_putstr_fd</text>
</a>
</g>
</g>
<!-- Node14&#45;&gt;Node20 -->
<g id="edge29_Node000014_Node000020" class="edge">
<title>Node14&#45;&gt;Node20</title>
<g id="a_edge29_Node000014_Node000020"><a xlink:title=" ">
<path fill="none" stroke="#63b8ff" d="M435.08,-95.9C449.16,-93.96 465.05,-91.77 479.51,-89.77"/>
<polygon fill="#63b8ff" stroke="#63b8ff" points="480.31,-93.2 489.74,-88.36 479.36,-86.26 480.31,-93.2"/>
</a>
</g>
</g>
<!-- Node21 -->
<g id="Node000021" class="node">
<title>Node21</title>
<g id="a_Node000021"><a xlink:href="ft__unsigned__putnbr_8c.html#af9a70f8607b40cf2a7706f9d3725b549" target="_top" xlink:title="Writes an unsigned integer to the given file descriptor.">
<polygon fill="white" stroke="#666666" points="581,-56 471,-56 471,-37 581,-37 581,-56"/>
<text text-anchor="middle" x="526" y="-44" font-family="Helvetica,sans-Serif" font-size="10.00">ft_unsigned_putnbr</text>
</a>
</g>
</g>
<!-- Node14&#45;&gt;Node21 -->
<g id="edge30_Node000014_Node000021" class="edge">
<title>Node14&#45;&gt;Node21</title>
<g id="a_edge30_Node000014_Node000021"><a xlink:title=" ">
<path fill="none" stroke="#63b8ff" d="M413.44,-91.93C428.77,-84.34 451.04,-73.69 471,-65.5 476.06,-63.43 481.43,-61.37 486.76,-59.41"/>
<polygon fill="#63b8ff" stroke="#63b8ff" points="487.98,-62.69 496.21,-56.02 485.62,-56.1 487.98,-62.69"/>
</a>
</g>
</g>
<!-- Node16 -->
<g id="Node000016" class="node">
<title>Node16</title>
<g id="a_Node000016"><a xlink:href="ft__forpointer_8c.html#aded1bf735c8a10e47396170d27c5b6aa" target="_top" xlink:title="Recursively prints a memory address in hexadecimal format.">
<polygon fill="white" stroke="#666666" points="727,-240 617,-240 617,-221 727,-221 727,-240"/>
<text text-anchor="middle" x="672" y="-228" font-family="Helvetica,sans-Serif" font-size="10.00">ft_ricorsive_pointer</text>
</a>
</g>
</g>
<!-- Node15&#45;&gt;Node16 -->
<g id="edge22_Node000015_Node000016" class="edge">
<title>Node15&#45;&gt;Node16</title>
<g id="a_edge22_Node000015_Node000016"><a xlink:title=" ">
<path fill="none" stroke="#63b8ff" d="M564.83,-230.5C577.64,-230.5 592.33,-230.5 606.61,-230.5"/>
<polygon fill="#63b8ff" stroke="#63b8ff" points="606.9,-234 616.9,-230.5 606.9,-227 606.9,-234"/>
</a>
</g>
</g>
<!-- Node16&#45;&gt;Node16 -->
<g id="edge23_Node000016_Node000016" class="edge">
<title>Node16&#45;&gt;Node16</title>
<g id="a_edge23_Node000016_Node000016"><a xlink:title=" ">
<path fill="none" stroke="#63b8ff" d="M649.5,-240.08C638.55,-248.73 646.05,-258 672,-258 688.62,-258 697.68,-254.2 699.16,-249.19"/>
<polygon fill="#63b8ff" stroke="#63b8ff" points="702.17,-247.39 694.5,-240.08 695.94,-250.58 702.17,-247.39"/>
</a>
</g>
</g>
<!-- Node17&#45;&gt;Node17 -->
<g id="edge25_Node000017_Node000017" class="edge">
<title>Node17&#45;&gt;Node17</title>
<g id="a_edge25_Node000017_Node000017"><a xlink:title=" ">
<path fill="none" stroke="#63b8ff" d="M505.65,-185.08C495.76,-193.73 502.54,-203 526,-203 541.03,-203 549.21,-199.2 550.55,-194.19"/>
<polygon fill="#63b8ff" stroke="#63b8ff" points="553.72,-192.69 546.35,-185.08 547.36,-195.63 553.72,-192.69"/>
</a>
</g>
</g>
<!-- Node19&#45;&gt;Node19 -->
<g id="edge28_Node000019_Node000019" class="edge">
<title>Node19&#45;&gt;Node19</title>
<g id="a_edge28_Node000019_Node000019"><a xlink:title=" ">
<path fill="none" stroke="#63b8ff" d="M505.65,-130.08C495.76,-138.73 502.54,-148 526,-148 541.03,-148 549.21,-144.2 550.55,-139.19"/>
<polygon fill="#63b8ff" stroke="#63b8ff" points="553.72,-137.69 546.35,-130.08 547.36,-140.63 553.72,-137.69"/>
</a>
</g>
</g>
<!-- Node22 -->
<g id="Node000022" class="node">
<title>Node22</title>
<g id="a_Node000022"><a xlink:href="ft__putnbr_8c.html#a2e51f80c9e46e52f4adf94617fb51ada" target="_top" xlink:title="Writes an integer to the standard output (stdout).">
<polygon fill="white" stroke="#666666" points="702,-56 642,-56 642,-37 702,-37 702,-56"/>
<text text-anchor="middle" x="672" y="-44" font-family="Helvetica,sans-Serif" font-size="10.00">ft_putnbr</text>
</a>
</g>
</g>
<!-- Node21&#45;&gt;Node22 -->
<g id="edge31_Node000021_Node000022" class="edge">
<title>Node21&#45;&gt;Node22</title>
<g id="a_edge31_Node000021_Node000022"><a xlink:title=" ">
<path fill="none" stroke="#63b8ff" d="M581.03,-46.5C597.76,-46.5 615.87,-46.5 631.43,-46.5"/>
<polygon fill="#63b8ff" stroke="#63b8ff" points="631.74,-50 641.74,-46.5 631.74,-43 631.74,-50"/>
</a>
</g>
</g>
<!-- Node22&#45;&gt;Node22 -->
<g id="edge32_Node000022_Node000022" class="edge">
<title>Node22&#45;&gt;Node22</title>
<g id="a_edge32_Node000022_Node000022"><a xlink:title=" ">
<path fill="none" stroke="#63b8ff" d="M649.5,-56.08C638.55,-64.73 646.05,-74 672,-74 688.62,-74 697.68,-70.2 699.16,-65.19"/>
<polygon fill="#63b8ff" stroke="#63b8ff" points="702.17,-63.39 694.5,-56.08 695.94,-66.58 702.17,-63.39"/>
</a>
</g>
</g>
<!-- Node23&#45;&gt;Node4 -->
<g id="edge35_Node000023_Node000004" class="edge">
<title>Node23&#45;&gt;Node4</title>
<g id="a_edge35_Node000023_Node000004"><a xlink:title=" ">
<path fill="none" stroke="#63b8ff" d="M180.18,-149.05C187.04,-151.59 193.94,-154.71 200,-158.5 219.45,-170.67 219.67,-179.38 236,-195.5 242.87,-202.29 250.56,-209.63 257.29,-215.98"/>
<polygon fill="#63b8ff" stroke="#63b8ff" points="254.94,-218.58 264.63,-222.87 259.73,-213.48 254.94,-218.58"/>
</a>
</g>
</g>
<!-- Node23&#45;&gt;Node13 -->
<g id="edge36_Node000023_Node000013" class="edge">
<title>Node23&#45;&gt;Node13</title>
<g id="a_edge36_Node000023_Node000013"><a xlink:title=" ">
<path fill="none" stroke="#63b8ff" d="M175.94,-129.91C195,-124.44 218.91,-117.59 238.47,-111.98"/>
<polygon fill="#63b8ff" stroke="#63b8ff" points="239.6,-115.29 248.25,-109.17 237.67,-108.57 239.6,-115.29"/>
</a>
</g>
</g>
<!-- Node24 -->
<g id="Node000024" class="node">
<title>Node24</title>
<g id="a_Node000024"><a xlink:href="ft__strcmp_8c.html#a1f2ff2312e5994560c9537cd9173be94" target="_top" xlink:title="Compares two null&#45;terminated strings lexicographically.">
<polygon fill="white" stroke="#666666" points="307,-149 245,-149 245,-130 307,-130 307,-149"/>
<text text-anchor="middle" x="276" y="-137" font-family="Helvetica,sans-Serif" font-size="10.00">ft_strcmp</text>
</a>
</g>
</g>
<!-- Node23&#45;&gt;Node24 -->
<g id="edge37_Node000023_Node000024" class="edge">
<title>Node23&#45;&gt;Node24</title>
<g id="a_edge37_Node000023_Node000024"><a xlink:title=" ">
<path fill="none" stroke="#63b8ff" d="M200.23,-139.5C211.86,-139.5 223.84,-139.5 234.71,-139.5"/>
<polygon fill="#63b8ff" stroke="#63b8ff" points="234.75,-143 244.75,-139.5 234.75,-136 234.75,-143"/>
</a>
</g>
</g>
<!-- Node25&#45;&gt;Node8 -->
<g id="edge39_Node000025_Node000008" class="edge">
<title>Node25&#45;&gt;Node8</title>
<g id="a_edge39_Node000025_Node000008"><a xlink:title=" ">
<path fill="none" stroke="#63b8ff" d="M180.18,-112.05C187.04,-114.59 193.94,-117.71 200,-121.5 219.45,-133.67 217.27,-145.25 236,-158.5 237.83,-159.79 239.77,-161.03 241.76,-162.21"/>
<polygon fill="#63b8ff" stroke="#63b8ff" points="240.25,-165.37 250.72,-166.98 243.54,-159.19 240.25,-165.37"/>
</a>
</g>
</g>
<!-- Node25&#45;&gt;Node13 -->
<g id="edge40_Node000025_Node000013" class="edge">
<title>Node25&#45;&gt;Node13</title>
<g id="a_edge40_Node000025_Node000013"><a xlink:title=" ">
<path fill="none" stroke="#63b8ff" d="M189.21,-102.15C205.32,-102.03 223.11,-101.89 238.3,-101.78"/>
<polygon fill="#63b8ff" stroke="#63b8ff" points="238.37,-105.28 248.34,-101.7 238.32,-98.28 238.37,-105.28"/>
</a>
</g>
</g>
</g>
</svg>
