<?xml version="1.0" encoding="UTF-8" standalone="no"?>
<!DOCTYPE svg PUBLIC "-//W3C//DTD SVG 1.1//EN"
 "http://www.w3.org/Graphics/SVG/1.1/DTD/svg11.dtd">
<!-- Generated by graphviz version 2.43.0 (0)
 -->
<!-- Title: ft_sintax_errors Pages: 1 -->
<svg width="841pt" height="248pt"
 viewBox="0.00 0.00 841.00 248.00" xmlns="http://www.w3.org/2000/svg" xmlns:xlink="http://www.w3.org/1999/xlink">
<g id="graph0" class="graph" transform="scale(1 1) rotate(0) translate(4 244)">
<title>ft_sintax_errors</title>
<!-- Node1 -->
<g id="Node000001" class="node">
<title>Node1</title>
<g id="a_Node000001"><a xlink:title="Checks for syntax errors on a single token.">
<polygon fill="#999999" stroke="#666666" points="92,-130 0,-130 0,-111 92,-111 92,-130"/>
<text text-anchor="middle" x="46" y="-118" font-family="Helvetica,sans-Serif" font-size="10.00">ft_sintax_errors</text>
</a>
</g>
</g>
<!-- Node2 -->
<g id="Node000002" class="node">
<title>Node2</title>
<g id="a_Node000002"><a xlink:href="check__sintax__utils_8c.html#ad8979b4383535e8fa301630e112254bf" target="_top" xlink:title="Checks the syntax related to a command.">
<polygon fill="white" stroke="#666666" points="227,-222 128,-222 128,-203 227,-203 227,-222"/>
<text text-anchor="middle" x="177.5" y="-210" font-family="Helvetica,sans-Serif" font-size="10.00">check_command</text>
</a>
</g>
</g>
<!-- Node1&#45;&gt;Node2 -->
<g id="edge1_Node000001_Node000002" class="edge">
<title>Node1&#45;&gt;Node2</title>
<g id="a_edge1_Node000001_Node000002"><a xlink:title=" ">
<path fill="none" stroke="#63b8ff" d="M60.86,-130.35C83.25,-146.25 127.59,-177.75 154.38,-196.79"/>
<polygon fill="#63b8ff" stroke="#63b8ff" points="152.56,-199.79 162.74,-202.73 156.62,-194.08 152.56,-199.79"/>
</a>
</g>
</g>
<!-- Node14 -->
<g id="Node000014" class="node">
<title>Node14</title>
<g id="a_Node000014"><a xlink:href="check__sintax__utils_8c.html#ad4c2c747cfe6cf3d23dff0a99937f136" target="_top" xlink:title="Checks the syntactic correctness of a here&#45;document.">
<polygon fill="white" stroke="#666666" points="222,-167 133,-167 133,-148 222,-148 222,-167"/>
<text text-anchor="middle" x="177.5" y="-155" font-family="Helvetica,sans-Serif" font-size="10.00">check_heredoc</text>
</a>
</g>
</g>
<!-- Node1&#45;&gt;Node14 -->
<g id="edge18_Node000001_Node000014" class="edge">
<title>Node1&#45;&gt;Node14</title>
<g id="a_edge18_Node000001_Node000014"><a xlink:title=" ">
<path fill="none" stroke="#63b8ff" d="M80.35,-130.03C96.39,-134.61 115.82,-140.16 133,-145.07"/>
<polygon fill="#63b8ff" stroke="#63b8ff" points="132.24,-148.49 142.81,-147.88 134.16,-141.76 132.24,-148.49"/>
</a>
</g>
</g>
<!-- Node18 -->
<g id="Node000018" class="node">
<title>Node18</title>
<g id="a_Node000018"><a xlink:href="check__sintax__utils_8c.html#a2ce60b5e74342ed1a7442aed0a3a72ab" target="_top" xlink:title="Checks the syntactic correctness of a pipe.">
<polygon fill="white" stroke="#666666" points="213,-93 142,-93 142,-74 213,-74 213,-93"/>
<text text-anchor="middle" x="177.5" y="-81" font-family="Helvetica,sans-Serif" font-size="10.00">check_pipe</text>
</a>
</g>
</g>
<!-- Node1&#45;&gt;Node18 -->
<g id="edge23_Node000001_Node000018" class="edge">
<title>Node1&#45;&gt;Node18</title>
<g id="a_edge23_Node000001_Node000018"><a xlink:title=" ">
<path fill="none" stroke="#63b8ff" d="M80.35,-110.97C96.39,-106.39 115.82,-100.84 133,-95.93"/>
<polygon fill="#63b8ff" stroke="#63b8ff" points="134.16,-99.24 142.81,-93.12 132.24,-92.51 134.16,-99.24"/>
</a>
</g>
</g>
<!-- Node19 -->
<g id="Node000019" class="node">
<title>Node19</title>
<g id="a_Node000019"><a xlink:href="utils__token__pt2_8c.html#a80ff8a93c96a15856a12c406efa61cf7" target="_top" xlink:title="Checks if the token represents a redirection.">
<polygon fill="white" stroke="#666666" points="323.5,-65 270.5,-65 270.5,-46 323.5,-46 323.5,-65"/>
<text text-anchor="middle" x="297" y="-53" font-family="Helvetica,sans-Serif" font-size="10.00">is_redir</text>
</a>
</g>
</g>
<!-- Node1&#45;&gt;Node19 -->
<g id="edge28_Node000001_Node000019" class="edge">
<title>Node1&#45;&gt;Node19</title>
<g id="a_edge28_Node000001_Node000019"><a xlink:title=" ">
<path fill="none" stroke="#63b8ff" d="M57.49,-110.57C72.01,-97.52 99.68,-75.14 128,-65.5 171.74,-50.62 225.55,-50.3 260.3,-52.24"/>
<polygon fill="#63b8ff" stroke="#63b8ff" points="260.23,-55.74 270.44,-52.9 260.68,-48.76 260.23,-55.74"/>
</a>
</g>
</g>
<!-- Node20 -->
<g id="Node000020" class="node">
<title>Node20</title>
<g id="a_Node000020"><a xlink:href="check__sintax__utils_8c.html#a614b2be0786f20e6e20f0d0238446eeb" target="_top" xlink:title="Checks the syntactic correctness of a redirection.">
<polygon fill="white" stroke="#666666" points="214,-130 141,-130 141,-111 214,-111 214,-130"/>
<text text-anchor="middle" x="177.5" y="-118" font-family="Helvetica,sans-Serif" font-size="10.00">check_redir</text>
</a>
</g>
</g>
<!-- Node1&#45;&gt;Node20 -->
<g id="edge26_Node000001_Node000020" class="edge">
<title>Node1&#45;&gt;Node20</title>
<g id="a_edge26_Node000001_Node000020"><a xlink:title=" ">
<path fill="none" stroke="#63b8ff" d="M92.29,-120.5C104.72,-120.5 118.19,-120.5 130.64,-120.5"/>
<polygon fill="#63b8ff" stroke="#63b8ff" points="130.82,-124 140.82,-120.5 130.82,-117 130.82,-124"/>
</a>
</g>
</g>
<!-- Node3 -->
<g id="Node000003" class="node">
<title>Node3</title>
<g id="a_Node000003"><a xlink:href="ft__printf_8c.html#a091532b7f37af84bdecc84dccf4eedb1" target="_top" xlink:title="A simplified printf function that outputs formatted data to a given file descriptor.">
<polygon fill="white" stroke="#666666" points="422,-185 367,-185 367,-166 422,-166 422,-185"/>
<text text-anchor="middle" x="394.5" y="-173" font-family="Helvetica,sans-Serif" font-size="10.00">ft_printf</text>
</a>
</g>
</g>
<!-- Node2&#45;&gt;Node3 -->
<g id="edge2_Node000002_Node000003" class="edge">
<title>Node2&#45;&gt;Node3</title>
<g id="a_edge2_Node000002_Node000003"><a xlink:title=" ">
<path fill="none" stroke="#63b8ff" d="M201.54,-222.01C232.14,-233.18 287.39,-248.18 331,-231.5 350.87,-223.9 368.41,-206.75 379.81,-193.42"/>
<polygon fill="#63b8ff" stroke="#63b8ff" points="382.78,-195.31 386.38,-185.35 377.35,-190.9 382.78,-195.31"/>
</a>
</g>
</g>
<!-- Node13 -->
<g id="Node000013" class="node">
<title>Node13</title>
<g id="a_Node000013"><a xlink:href="utils__token__pt2_8c.html#a10926033b2c368f9697d5725d8416844" target="_top" xlink:title="Checks if the token represents whitespace or invalid characters (garbage).">
<polygon fill="white" stroke="#666666" points="326.5,-222 267.5,-222 267.5,-203 326.5,-203 326.5,-222"/>
<text text-anchor="middle" x="297" y="-210" font-family="Helvetica,sans-Serif" font-size="10.00">is_space</text>
</a>
</g>
</g>
<!-- Node2&#45;&gt;Node13 -->
<g id="edge17_Node000002_Node000013" class="edge">
<title>Node2&#45;&gt;Node13</title>
<g id="a_edge17_Node000002_Node000013"><a xlink:title=" ">
<path fill="none" stroke="#63b8ff" d="M227.31,-212.5C237.31,-212.5 247.71,-212.5 257.3,-212.5"/>
<polygon fill="#63b8ff" stroke="#63b8ff" points="257.33,-216 267.33,-212.5 257.33,-209 257.33,-216"/>
</a>
</g>
</g>
<!-- Node4 -->
<g id="Node000004" class="node">
<title>Node4</title>
<g id="a_Node000004"><a xlink:href="ft__printf_8c.html#a80c1c206dcd33d07c265581878aaa300" target="_top" xlink:title="Processes a single format specifier and prints the corresponding argument.">
<polygon fill="white" stroke="#666666" points="541,-166 458,-166 458,-147 541,-147 541,-166"/>
<text text-anchor="middle" x="499.5" y="-154" font-family="Helvetica,sans-Serif" font-size="10.00">check_format</text>
</a>
</g>
</g>
<!-- Node3&#45;&gt;Node4 -->
<g id="edge3_Node000003_Node000004" class="edge">
<title>Node3&#45;&gt;Node4</title>
<g id="a_edge3_Node000003_Node000004"><a xlink:title=" ">
<path fill="none" stroke="#63b8ff" d="M422.03,-170.61C429.91,-169.15 438.82,-167.51 447.7,-165.87"/>
<polygon fill="#63b8ff" stroke="#63b8ff" points="448.47,-169.29 457.66,-164.03 447.2,-162.4 448.47,-169.29"/>
</a>
</g>
</g>
<!-- Node8 -->
<g id="Node000008" class="node">
<title>Node8</title>
<g id="a_Node000008"><a xlink:href="ft__putchar__fd_8c.html#a03ef80b25dc4a521379fa92ad97bad21" target="_top" xlink:title="Writes a single character to the specified file descriptor.">
<polygon fill="white" stroke="#666666" points="672,-240 592,-240 592,-221 672,-221 672,-240"/>
<text text-anchor="middle" x="632" y="-228" font-family="Helvetica,sans-Serif" font-size="10.00">ft_putchar_fd</text>
</a>
</g>
</g>
<!-- Node3&#45;&gt;Node8 -->
<g id="edge16_Node000003_Node000008" class="edge">
<title>Node3&#45;&gt;Node8</title>
<g id="a_edge16_Node000003_Node000008"><a xlink:title=" ">
<path fill="none" stroke="#63b8ff" d="M422.06,-181.7C460.69,-190.72 533.07,-207.63 581.65,-218.98"/>
<polygon fill="#63b8ff" stroke="#63b8ff" points="581.11,-222.44 591.64,-221.31 582.7,-215.63 581.11,-222.44"/>
</a>
</g>
</g>
<!-- Node5 -->
<g id="Node000005" class="node">
<title>Node5</title>
<g id="a_Node000005"><a xlink:href="ft__forpointer_8c.html#a8e02c77b80406af72327ebf71f537786" target="_top" xlink:title="Prints a pointer in hexadecimal format prefixed with &quot;0x&quot;.">
<polygon fill="white" stroke="#666666" points="670.5,-166 593.5,-166 593.5,-147 670.5,-147 670.5,-166"/>
<text text-anchor="middle" x="632" y="-154" font-family="Helvetica,sans-Serif" font-size="10.00">ft_forpointer</text>
</a>
</g>
</g>
<!-- Node4&#45;&gt;Node5 -->
<g id="edge4_Node000004_Node000005" class="edge">
<title>Node4&#45;&gt;Node5</title>
<g id="a_edge4_Node000004_Node000005"><a xlink:title=" ">
<path fill="none" stroke="#63b8ff" d="M541.08,-156.5C554.31,-156.5 569.14,-156.5 582.87,-156.5"/>
<polygon fill="#63b8ff" stroke="#63b8ff" points="583.12,-160 593.12,-156.5 583.12,-153 583.12,-160"/>
</a>
</g>
</g>
<!-- Node7 -->
<g id="Node000007" class="node">
<title>Node7</title>
<g id="a_Node000007"><a xlink:href="ft__hexadecimal_8c.html#a39c845e0a4286d3ac1e04c1e64ac734b" target="_top" xlink:title="Prints an unsigned integer in hexadecimal format.">
<polygon fill="white" stroke="#666666" points="678,-111 586,-111 586,-92 678,-92 678,-111"/>
<text text-anchor="middle" x="632" y="-99" font-family="Helvetica,sans-Serif" font-size="10.00">ft_hexadecimal</text>
</a>
</g>
</g>
<!-- Node4&#45;&gt;Node7 -->
<g id="edge7_Node000004_Node000007" class="edge">
<title>Node4&#45;&gt;Node7</title>
<g id="a_edge7_Node000004_Node000007"><a xlink:title=" ">
<path fill="none" stroke="#63b8ff" d="M523.23,-146.92C544.06,-138.14 575.13,-125.05 598.57,-115.17"/>
<polygon fill="#63b8ff" stroke="#63b8ff" points="600.24,-118.26 608.09,-111.16 597.52,-111.81 600.24,-118.26"/>
</a>
</g>
</g>
<!-- Node4&#45;&gt;Node8 -->
<g id="edge9_Node000004_Node000008" class="edge">
<title>Node4&#45;&gt;Node8</title>
<g id="a_edge9_Node000004_Node000008"><a xlink:title=" ">
<path fill="none" stroke="#63b8ff" d="M511.19,-166.01C525.36,-178.21 551.56,-199.36 577,-212.5 580.31,-214.21 583.82,-215.81 587.39,-217.29"/>
<polygon fill="#63b8ff" stroke="#63b8ff" points="586.33,-220.63 596.92,-220.93 588.83,-214.09 586.33,-220.63"/>
</a>
</g>
</g>
<!-- Node9 -->
<g id="Node000009" class="node">
<title>Node9</title>
<g id="a_Node000009"><a xlink:href="ft__putnbr__fd_8c.html#a1554101ee350c316340c78e19faddaa8" target="_top" xlink:title="Writes an integer to a given file descriptor.">
<polygon fill="white" stroke="#666666" points="669.5,-56 594.5,-56 594.5,-37 669.5,-37 669.5,-56"/>
<text text-anchor="middle" x="632" y="-44" font-family="Helvetica,sans-Serif" font-size="10.00">ft_putnbr_fd</text>
</a>
</g>
</g>
<!-- Node4&#45;&gt;Node9 -->
<g id="edge10_Node000004_Node000009" class="edge">
<title>Node4&#45;&gt;Node9</title>
<g id="a_edge10_Node000004_Node000009"><a xlink:title=" ">
<path fill="none" stroke="#63b8ff" d="M509.94,-146.52C523.94,-131.95 551.33,-104.31 577,-83.5 586.37,-75.91 597.24,-68.25 606.77,-61.89"/>
<polygon fill="#63b8ff" stroke="#63b8ff" points="608.95,-64.64 615.4,-56.23 605.12,-58.79 608.95,-64.64"/>
</a>
</g>
</g>
<!-- Node10 -->
<g id="Node000010" class="node">
<title>Node10</title>
<g id="a_Node000010"><a xlink:href="ft__putstr__fd_8c.html#a00b0638f31a75c7a30f77f33888bfb73" target="_top" xlink:title="Writes a null&#45;terminated string to the specified file descriptor.">
<polygon fill="white" stroke="#666666" points="668,-19 596,-19 596,0 668,0 668,-19"/>
<text text-anchor="middle" x="632" y="-7" font-family="Helvetica,sans-Serif" font-size="10.00">ft_putstr_fd</text>
</a>
</g>
</g>
<!-- Node4&#45;&gt;Node10 -->
<g id="edge12_Node000004_Node000010" class="edge">
<title>Node4&#45;&gt;Node10</title>
<g id="a_edge12_Node000004_Node000010"><a xlink:title=" ">
<path fill="none" stroke="#63b8ff" d="M503.57,-146.82C511.62,-122.96 535.65,-60.84 577,-27.5 579.94,-25.13 583.21,-23.06 586.64,-21.26"/>
<polygon fill="#63b8ff" stroke="#63b8ff" points="588.28,-24.37 596,-17.11 585.44,-17.97 588.28,-24.37"/>
</a>
</g>
</g>
<!-- Node11 -->
<g id="Node000011" class="node">
<title>Node11</title>
<g id="a_Node000011"><a xlink:href="ft__unsigned__putnbr_8c.html#af9a70f8607b40cf2a7706f9d3725b549" target="_top" xlink:title="Writes an unsigned integer to the given file descriptor.">
<polygon fill="white" stroke="#666666" points="687,-203 577,-203 577,-184 687,-184 687,-203"/>
<text text-anchor="middle" x="632" y="-191" font-family="Helvetica,sans-Serif" font-size="10.00">ft_unsigned_putnbr</text>
</a>
</g>
</g>
<!-- Node4&#45;&gt;Node11 -->
<g id="edge13_Node000004_Node000011" class="edge">
<title>Node4&#45;&gt;Node11</title>
<g id="a_edge13_Node000004_Node000011"><a xlink:title=" ">
<path fill="none" stroke="#63b8ff" d="M534.11,-166.03C550.27,-170.61 569.85,-176.16 587.16,-181.07"/>
<polygon fill="#63b8ff" stroke="#63b8ff" points="586.48,-184.51 597.05,-183.88 588.39,-177.78 586.48,-184.51"/>
</a>
</g>
</g>
<!-- Node6 -->
<g id="Node000006" class="node">
<title>Node6</title>
<g id="a_Node000006"><a xlink:href="ft__forpointer_8c.html#aded1bf735c8a10e47396170d27c5b6aa" target="_top" xlink:title="Recursively prints a memory address in hexadecimal format.">
<polygon fill="white" stroke="#666666" points="833,-157 723,-157 723,-138 833,-138 833,-157"/>
<text text-anchor="middle" x="778" y="-145" font-family="Helvetica,sans-Serif" font-size="10.00">ft_ricorsive_pointer</text>
</a>
</g>
</g>
<!-- Node5&#45;&gt;Node6 -->
<g id="edge5_Node000005_Node000006" class="edge">
<title>Node5&#45;&gt;Node6</title>
<g id="a_edge5_Node000005_Node000006"><a xlink:title=" ">
<path fill="none" stroke="#63b8ff" d="M670.83,-154.14C683.64,-153.33 698.33,-152.42 712.61,-151.52"/>
<polygon fill="#63b8ff" stroke="#63b8ff" points="713.14,-155 722.9,-150.88 712.7,-148.01 713.14,-155"/>
</a>
</g>
</g>
<!-- Node6&#45;&gt;Node6 -->
<g id="edge6_Node000006_Node000006" class="edge">
<title>Node6&#45;&gt;Node6</title>
<g id="a_edge6_Node000006_Node000006"><a xlink:title=" ">
<path fill="none" stroke="#63b8ff" d="M755.5,-157.08C744.55,-165.73 752.05,-175 778,-175 794.62,-175 803.68,-171.2 805.16,-166.19"/>
<polygon fill="#63b8ff" stroke="#63b8ff" points="808.17,-164.39 800.5,-157.08 801.94,-167.58 808.17,-164.39"/>
</a>
</g>
</g>
<!-- Node7&#45;&gt;Node7 -->
<g id="edge8_Node000007_Node000007" class="edge">
<title>Node7&#45;&gt;Node7</title>
<g id="a_edge8_Node000007_Node000007"><a xlink:title=" ">
<path fill="none" stroke="#63b8ff" d="M611.65,-111.08C601.76,-119.73 608.54,-129 632,-129 647.03,-129 655.21,-125.2 656.55,-120.19"/>
<polygon fill="#63b8ff" stroke="#63b8ff" points="659.72,-118.69 652.35,-111.08 653.36,-121.63 659.72,-118.69"/>
</a>
</g>
</g>
<!-- Node9&#45;&gt;Node9 -->
<g id="edge11_Node000009_Node000009" class="edge">
<title>Node9&#45;&gt;Node9</title>
<g id="a_edge11_Node000009_Node000009"><a xlink:title=" ">
<path fill="none" stroke="#63b8ff" d="M611.65,-56.08C601.76,-64.73 608.54,-74 632,-74 647.03,-74 655.21,-70.2 656.55,-65.19"/>
<polygon fill="#63b8ff" stroke="#63b8ff" points="659.72,-63.69 652.35,-56.08 653.36,-66.63 659.72,-63.69"/>
</a>
</g>
</g>
<!-- Node12 -->
<g id="Node000012" class="node">
<title>Node12</title>
<g id="a_Node000012"><a xlink:href="ft__putnbr_8c.html#a2e51f80c9e46e52f4adf94617fb51ada" target="_top" xlink:title="Writes an integer to the standard output (stdout).">
<polygon fill="white" stroke="#666666" points="808,-212 748,-212 748,-193 808,-193 808,-212"/>
<text text-anchor="middle" x="778" y="-200" font-family="Helvetica,sans-Serif" font-size="10.00">ft_putnbr</text>
</a>
</g>
</g>
<!-- Node11&#45;&gt;Node12 -->
<g id="edge14_Node000011_Node000012" class="edge">
<title>Node11&#45;&gt;Node12</title>
<g id="a_edge14_Node000011_Node000012"><a xlink:title=" ">
<path fill="none" stroke="#63b8ff" d="M687.03,-196.88C703.76,-197.92 721.87,-199.05 737.43,-200.03"/>
<polygon fill="#63b8ff" stroke="#63b8ff" points="737.55,-203.54 747.74,-200.67 737.98,-196.55 737.55,-203.54"/>
</a>
</g>
</g>
<!-- Node12&#45;&gt;Node12 -->
<g id="edge15_Node000012_Node000012" class="edge">
<title>Node12&#45;&gt;Node12</title>
<g id="a_edge15_Node000012_Node000012"><a xlink:title=" ">
<path fill="none" stroke="#63b8ff" d="M755.5,-212.08C744.55,-220.73 752.05,-230 778,-230 794.62,-230 803.68,-226.2 805.16,-221.19"/>
<polygon fill="#63b8ff" stroke="#63b8ff" points="808.17,-219.39 800.5,-212.08 801.94,-222.58 808.17,-219.39"/>
</a>
</g>
</g>
<!-- Node15 -->
<g id="Node000015" class="node">
<title>Node15</title>
<g id="a_Node000015"><a xlink:href="write__errors_8c.html#a0c76a459d59d98c5e92eb1333d6d9858" target="_top" xlink:title="Prints an error message to standard error.">
<polygon fill="white" stroke="#666666" points="325.5,-111 268.5,-111 268.5,-92 325.5,-92 325.5,-111"/>
<text text-anchor="middle" x="297" y="-99" font-family="Helvetica,sans-Serif" font-size="10.00">error_ex</text>
</a>
</g>
</g>
<!-- Node14&#45;&gt;Node15 -->
<g id="edge19_Node000014_Node000015" class="edge">
<title>Node14&#45;&gt;Node15</title>
<g id="a_edge19_Node000014_Node000015"><a xlink:title=" ">
<path fill="none" stroke="#63b8ff" d="M206.49,-147.92C213.28,-145.37 220.47,-142.49 227,-139.5 235.47,-135.62 254.47,-125.11 270.39,-116.12"/>
<polygon fill="#63b8ff" stroke="#63b8ff" points="272.34,-119.04 279.31,-111.06 268.88,-112.95 272.34,-119.04"/>
</a>
</g>
</g>
<!-- Node16 -->
<g id="Node000016" class="node">
<title>Node16</title>
<g id="a_Node000016"><a xlink:href="ft__isalnum_8c.html#a9c2c3821ea43ebdf97de07b123503f8b" target="_top" xlink:title="Checks whether a character is alphanumeric.">
<polygon fill="white" stroke="#666666" points="331,-185 263,-185 263,-166 331,-166 331,-185"/>
<text text-anchor="middle" x="297" y="-173" font-family="Helvetica,sans-Serif" font-size="10.00">ft_isalnum</text>
</a>
</g>
</g>
<!-- Node14&#45;&gt;Node16 -->
<g id="edge21_Node000014_Node000016" class="edge">
<title>Node14&#45;&gt;Node16</title>
<g id="a_edge21_Node000014_Node000016"><a xlink:title=" ">
<path fill="none" stroke="#63b8ff" d="M222.25,-164.2C232.23,-165.73 242.82,-167.35 252.78,-168.88"/>
<polygon fill="#63b8ff" stroke="#63b8ff" points="252.45,-172.37 262.86,-170.42 253.51,-165.45 252.45,-172.37"/>
</a>
</g>
</g>
<!-- Node17 -->
<g id="Node000017" class="node">
<title>Node17</title>
<g id="a_Node000017"><a xlink:href="ft__strncmp_8c.html#a9d2fe792187aa4ed08e5864fb2c4d6dc" target="_top" xlink:title="Compares up to n characters of two strings.">
<polygon fill="white" stroke="#666666" points="331,-148 263,-148 263,-129 331,-129 331,-148"/>
<text text-anchor="middle" x="297" y="-136" font-family="Helvetica,sans-Serif" font-size="10.00">ft_strncmp</text>
</a>
</g>
</g>
<!-- Node14&#45;&gt;Node17 -->
<g id="edge22_Node000014_Node000017" class="edge">
<title>Node14&#45;&gt;Node17</title>
<g id="a_edge22_Node000014_Node000017"><a xlink:title=" ">
<path fill="none" stroke="#63b8ff" d="M222.25,-150.43C232.23,-148.81 242.82,-147.1 252.78,-145.49"/>
<polygon fill="#63b8ff" stroke="#63b8ff" points="253.55,-148.91 262.86,-143.86 252.43,-142 253.55,-148.91"/>
</a>
</g>
</g>
<!-- Node15&#45;&gt;Node3 -->
<g id="edge20_Node000015_Node000003" class="edge">
<title>Node15&#45;&gt;Node3</title>
<g id="a_edge20_Node000015_Node000003"><a xlink:title=" ">
<path fill="none" stroke="#63b8ff" d="M316.22,-111.13C321.14,-113.96 326.38,-117.19 331,-120.5 347.22,-132.13 364.14,-147.22 376.27,-158.66"/>
<polygon fill="#63b8ff" stroke="#63b8ff" points="374.19,-161.51 383.84,-165.9 379.03,-156.45 374.19,-161.51"/>
</a>
</g>
</g>
<!-- Node18&#45;&gt;Node15 -->
<g id="edge24_Node000018_Node000015" class="edge">
<title>Node18&#45;&gt;Node15</title>
<g id="a_edge24_Node000018_Node000015"><a xlink:title=" ">
<path fill="none" stroke="#63b8ff" d="M213.12,-88.8C227.28,-90.97 243.71,-93.49 258.19,-95.71"/>
<polygon fill="#63b8ff" stroke="#63b8ff" points="257.91,-99.21 268.32,-97.26 258.97,-92.29 257.91,-99.21"/>
</a>
</g>
</g>
<!-- Node18&#45;&gt;Node19 -->
<g id="edge25_Node000018_Node000019" class="edge">
<title>Node18&#45;&gt;Node19</title>
<g id="a_edge25_Node000018_Node000019"><a xlink:title=" ">
<path fill="none" stroke="#63b8ff" d="M213.12,-75.25C227.97,-71.71 245.31,-67.58 260.28,-64.01"/>
<polygon fill="#63b8ff" stroke="#63b8ff" points="261.29,-67.37 270.21,-61.65 259.67,-60.56 261.29,-67.37"/>
</a>
</g>
</g>
<!-- Node20&#45;&gt;Node15 -->
<g id="edge27_Node000020_Node000015" class="edge">
<title>Node20&#45;&gt;Node15</title>
<g id="a_edge27_Node000020_Node000015"><a xlink:title=" ">
<path fill="none" stroke="#63b8ff" d="M214.07,-114.75C228.1,-112.48 244.22,-109.87 258.43,-107.58"/>
<polygon fill="#63b8ff" stroke="#63b8ff" points="259.07,-111.02 268.38,-105.97 257.95,-104.11 259.07,-111.02"/>
</a>
</g>
</g>
</g>
</svg>
