<?xml version="1.0" encoding="UTF-8" standalone="no"?>
<!DOCTYPE svg PUBLIC "-//W3C//DTD SVG 1.1//EN"
 "http://www.w3.org/Graphics/SVG/1.1/DTD/svg11.dtd">
<!-- Generated by graphviz version 2.43.0 (0)
 -->
<!-- Title: check_sintax Pages: 1 -->
<svg width="957pt" height="307pt"
 viewBox="0.00 0.00 957.00 307.00" xmlns="http://www.w3.org/2000/svg" xmlns:xlink="http://www.w3.org/1999/xlink">
<g id="graph0" class="graph" transform="scale(1 1) rotate(0) translate(4 303)">
<title>check_sintax</title>
<!-- Node1 -->
<g id="Node000001" class="node">
<title>Node1</title>
<g id="a_Node000001"><a xlink:title="Checks the syntax of the entire token list.">
<polygon fill="#999999" stroke="#666666" points="80,-168 0,-168 0,-149 80,-149 80,-168"/>
<text text-anchor="middle" x="40" y="-156" font-family="Helvetica,sans-Serif" font-size="10.00">check_sintax</text>
</a>
</g>
</g>
<!-- Node2 -->
<g id="Node000002" class="node">
<title>Node2</title>
<g id="a_Node000002"><a xlink:href="write__errors_8c.html#a0c76a459d59d98c5e92eb1333d6d9858" target="_top" xlink:title="Prints an error message to standard error.">
<polygon fill="white" stroke="#666666" points="441.5,-205 384.5,-205 384.5,-186 441.5,-186 441.5,-205"/>
<text text-anchor="middle" x="413" y="-193" font-family="Helvetica,sans-Serif" font-size="10.00">error_ex</text>
</a>
</g>
</g>
<!-- Node1&#45;&gt;Node2 -->
<g id="edge1_Node000001_Node000002" class="edge">
<title>Node1&#45;&gt;Node2</title>
<g id="a_edge1_Node000001_Node000002"><a xlink:title=" ">
<path fill="none" stroke="#63b8ff" d="M66.81,-168.04C104.92,-181.57 178.79,-205.67 244,-214.5 287.6,-220.4 299.4,-220.39 343,-214.5 353.44,-213.09 364.52,-210.53 374.69,-207.74"/>
<polygon fill="#63b8ff" stroke="#63b8ff" points="375.86,-211.04 384.49,-204.9 373.91,-204.32 375.86,-211.04"/>
</a>
</g>
</g>
<!-- Node13 -->
<g id="Node000013" class="node">
<title>Node13</title>
<g id="a_Node000013"><a xlink:href="check__sintax_8c.html#a3dadca8fc2261c0e335299829d01f84b" target="_top" xlink:title="Checks for syntax errors on a single token.">
<polygon fill="white" stroke="#666666" points="208,-168 116,-168 116,-149 208,-149 208,-168"/>
<text text-anchor="middle" x="162" y="-156" font-family="Helvetica,sans-Serif" font-size="10.00">ft_sintax_errors</text>
</a>
</g>
</g>
<!-- Node1&#45;&gt;Node13 -->
<g id="edge17_Node000001_Node000013" class="edge">
<title>Node1&#45;&gt;Node13</title>
<g id="a_edge17_Node000001_Node000013"><a xlink:title=" ">
<path fill="none" stroke="#63b8ff" d="M80.29,-158.5C88.36,-158.5 97,-158.5 105.51,-158.5"/>
<polygon fill="#63b8ff" stroke="#63b8ff" points="105.79,-162 115.79,-158.5 105.79,-155 105.79,-162"/>
</a>
</g>
</g>
<!-- Node15 -->
<g id="Node000015" class="node">
<title>Node15</title>
<g id="a_Node000015"><a xlink:href="utils__token__pt2_8c.html#a10926033b2c368f9697d5725d8416844" target="_top" xlink:title="Checks if the token represents whitespace or invalid characters (garbage).">
<polygon fill="white" stroke="#666666" points="442.5,-73 383.5,-73 383.5,-54 442.5,-54 442.5,-73"/>
<text text-anchor="middle" x="413" y="-61" font-family="Helvetica,sans-Serif" font-size="10.00">is_space</text>
</a>
</g>
</g>
<!-- Node1&#45;&gt;Node15 -->
<g id="edge31_Node000001_Node000015" class="edge">
<title>Node1&#45;&gt;Node15</title>
<g id="a_edge31_Node000001_Node000015"><a xlink:title=" ">
<path fill="none" stroke="#63b8ff" d="M55.47,-148.97C87.67,-128.39 168.41,-80.31 244,-63.5 287.48,-53.83 338.86,-55.7 373.25,-58.78"/>
<polygon fill="#63b8ff" stroke="#63b8ff" points="373.06,-62.27 383.35,-59.76 373.74,-55.31 373.06,-62.27"/>
</a>
</g>
</g>
<!-- Node3 -->
<g id="Node000003" class="node">
<title>Node3</title>
<g id="a_Node000003"><a xlink:href="ft__printf_8c.html#a091532b7f37af84bdecc84dccf4eedb1" target="_top" xlink:title="A simplified printf function that outputs formatted data to a given file descriptor.">
<polygon fill="white" stroke="#666666" points="538,-167 483,-167 483,-148 538,-148 538,-167"/>
<text text-anchor="middle" x="510.5" y="-155" font-family="Helvetica,sans-Serif" font-size="10.00">ft_printf</text>
</a>
</g>
</g>
<!-- Node2&#45;&gt;Node3 -->
<g id="edge2_Node000002_Node000003" class="edge">
<title>Node2&#45;&gt;Node3</title>
<g id="a_edge2_Node000002_Node000003"><a xlink:title=" ">
<path fill="none" stroke="#63b8ff" d="M438.1,-185.91C449.52,-181.37 463.36,-175.86 475.8,-170.91"/>
<polygon fill="#63b8ff" stroke="#63b8ff" points="477.41,-174.04 485.41,-167.09 474.82,-167.53 477.41,-174.04"/>
</a>
</g>
</g>
<!-- Node4 -->
<g id="Node000004" class="node">
<title>Node4</title>
<g id="a_Node000004"><a xlink:href="ft__printf_8c.html#a80c1c206dcd33d07c265581878aaa300" target="_top" xlink:title="Processes a single format specifier and prints the corresponding argument.">
<polygon fill="white" stroke="#666666" points="657,-148 574,-148 574,-129 657,-129 657,-148"/>
<text text-anchor="middle" x="615.5" y="-136" font-family="Helvetica,sans-Serif" font-size="10.00">check_format</text>
</a>
</g>
</g>
<!-- Node3&#45;&gt;Node4 -->
<g id="edge3_Node000003_Node000004" class="edge">
<title>Node3&#45;&gt;Node4</title>
<g id="a_edge3_Node000003_Node000004"><a xlink:title=" ">
<path fill="none" stroke="#63b8ff" d="M538.03,-152.61C545.91,-151.15 554.82,-149.51 563.7,-147.87"/>
<polygon fill="#63b8ff" stroke="#63b8ff" points="564.47,-151.29 573.66,-146.03 563.2,-144.4 564.47,-151.29"/>
</a>
</g>
</g>
<!-- Node8 -->
<g id="Node000008" class="node">
<title>Node8</title>
<g id="a_Node000008"><a xlink:href="ft__putchar__fd_8c.html#a03ef80b25dc4a521379fa92ad97bad21" target="_top" xlink:title="Writes a single character to the specified file descriptor.">
<polygon fill="white" stroke="#666666" points="788,-240 708,-240 708,-221 788,-221 788,-240"/>
<text text-anchor="middle" x="748" y="-228" font-family="Helvetica,sans-Serif" font-size="10.00">ft_putchar_fd</text>
</a>
</g>
</g>
<!-- Node3&#45;&gt;Node8 -->
<g id="edge16_Node000003_Node000008" class="edge">
<title>Node3&#45;&gt;Node8</title>
<g id="a_edge16_Node000003_Node000008"><a xlink:title=" ">
<path fill="none" stroke="#63b8ff" d="M538.06,-165.73C579.05,-178.44 658.03,-202.92 706.27,-217.88"/>
<polygon fill="#63b8ff" stroke="#63b8ff" points="705.49,-221.3 716.08,-220.91 707.56,-214.61 705.49,-221.3"/>
</a>
</g>
</g>
<!-- Node5 -->
<g id="Node000005" class="node">
<title>Node5</title>
<g id="a_Node000005"><a xlink:href="ft__forpointer_8c.html#a8e02c77b80406af72327ebf71f537786" target="_top" xlink:title="Prints a pointer in hexadecimal format prefixed with &quot;0x&quot;.">
<polygon fill="white" stroke="#666666" points="786.5,-203 709.5,-203 709.5,-184 786.5,-184 786.5,-203"/>
<text text-anchor="middle" x="748" y="-191" font-family="Helvetica,sans-Serif" font-size="10.00">ft_forpointer</text>
</a>
</g>
</g>
<!-- Node4&#45;&gt;Node5 -->
<g id="edge4_Node000004_Node000005" class="edge">
<title>Node4&#45;&gt;Node5</title>
<g id="a_edge4_Node000004_Node000005"><a xlink:title=" ">
<path fill="none" stroke="#63b8ff" d="M634.75,-148.15C650.06,-156.05 672.64,-167.22 693,-175.5 697.4,-177.29 702.06,-179.04 706.71,-180.71"/>
<polygon fill="#63b8ff" stroke="#63b8ff" points="705.6,-184.03 716.19,-183.99 707.89,-177.41 705.6,-184.03"/>
</a>
</g>
</g>
<!-- Node7 -->
<g id="Node000007" class="node">
<title>Node7</title>
<g id="a_Node000007"><a xlink:href="ft__hexadecimal_8c.html#a39c845e0a4286d3ac1e04c1e64ac734b" target="_top" xlink:title="Prints an unsigned integer in hexadecimal format.">
<polygon fill="white" stroke="#666666" points="794,-148 702,-148 702,-129 794,-129 794,-148"/>
<text text-anchor="middle" x="748" y="-136" font-family="Helvetica,sans-Serif" font-size="10.00">ft_hexadecimal</text>
</a>
</g>
</g>
<!-- Node4&#45;&gt;Node7 -->
<g id="edge7_Node000004_Node000007" class="edge">
<title>Node4&#45;&gt;Node7</title>
<g id="a_edge7_Node000004_Node000007"><a xlink:title=" ">
<path fill="none" stroke="#63b8ff" d="M657.08,-138.5C668.07,-138.5 680.16,-138.5 691.82,-138.5"/>
<polygon fill="#63b8ff" stroke="#63b8ff" points="691.9,-142 701.9,-138.5 691.9,-135 691.9,-142"/>
</a>
</g>
</g>
<!-- Node4&#45;&gt;Node8 -->
<g id="edge9_Node000004_Node000008" class="edge">
<title>Node4&#45;&gt;Node8</title>
<g id="a_edge9_Node000004_Node000008"><a xlink:title=" ">
<path fill="none" stroke="#63b8ff" d="M623.94,-148.07C636.55,-163.69 663.61,-194.67 693,-212.5 695.66,-214.11 698.48,-215.6 701.39,-216.97"/>
<polygon fill="#63b8ff" stroke="#63b8ff" points="700.27,-220.3 710.85,-220.96 702.99,-213.85 700.27,-220.3"/>
</a>
</g>
</g>
<!-- Node9 -->
<g id="Node000009" class="node">
<title>Node9</title>
<g id="a_Node000009"><a xlink:href="ft__putnbr__fd_8c.html#a1554101ee350c316340c78e19faddaa8" target="_top" xlink:title="Writes an integer to a given file descriptor.">
<polygon fill="white" stroke="#666666" points="785.5,-93 710.5,-93 710.5,-74 785.5,-74 785.5,-93"/>
<text text-anchor="middle" x="748" y="-81" font-family="Helvetica,sans-Serif" font-size="10.00">ft_putnbr_fd</text>
</a>
</g>
</g>
<!-- Node4&#45;&gt;Node9 -->
<g id="edge10_Node000004_Node000009" class="edge">
<title>Node4&#45;&gt;Node9</title>
<g id="a_edge10_Node000004_Node000009"><a xlink:title=" ">
<path fill="none" stroke="#63b8ff" d="M639.23,-128.92C660.06,-120.14 691.13,-107.05 714.57,-97.17"/>
<polygon fill="#63b8ff" stroke="#63b8ff" points="716.24,-100.26 724.09,-93.16 713.52,-93.81 716.24,-100.26"/>
</a>
</g>
</g>
<!-- Node10 -->
<g id="Node000010" class="node">
<title>Node10</title>
<g id="a_Node000010"><a xlink:href="ft__putstr__fd_8c.html#a00b0638f31a75c7a30f77f33888bfb73" target="_top" xlink:title="Writes a null&#45;terminated string to the specified file descriptor.">
<polygon fill="white" stroke="#666666" points="784,-56 712,-56 712,-37 784,-37 784,-56"/>
<text text-anchor="middle" x="748" y="-44" font-family="Helvetica,sans-Serif" font-size="10.00">ft_putstr_fd</text>
</a>
</g>
</g>
<!-- Node4&#45;&gt;Node10 -->
<g id="edge12_Node000004_Node000010" class="edge">
<title>Node4&#45;&gt;Node10</title>
<g id="a_edge12_Node000004_Node000010"><a xlink:title=" ">
<path fill="none" stroke="#63b8ff" d="M623.94,-128.93C636.55,-113.31 663.61,-82.33 693,-64.5 696.01,-62.68 699.22,-61.01 702.52,-59.5"/>
<polygon fill="#63b8ff" stroke="#63b8ff" points="704.06,-62.65 711.99,-55.62 701.41,-56.17 704.06,-62.65"/>
</a>
</g>
</g>
<!-- Node11 -->
<g id="Node000011" class="node">
<title>Node11</title>
<g id="a_Node000011"><a xlink:href="ft__unsigned__putnbr_8c.html#af9a70f8607b40cf2a7706f9d3725b549" target="_top" xlink:title="Writes an unsigned integer to the given file descriptor.">
<polygon fill="white" stroke="#666666" points="803,-19 693,-19 693,0 803,0 803,-19"/>
<text text-anchor="middle" x="748" y="-7" font-family="Helvetica,sans-Serif" font-size="10.00">ft_unsigned_putnbr</text>
</a>
</g>
</g>
<!-- Node4&#45;&gt;Node11 -->
<g id="edge13_Node000004_Node000011" class="edge">
<title>Node4&#45;&gt;Node11</title>
<g id="a_edge13_Node000004_Node000011"><a xlink:title=" ">
<path fill="none" stroke="#63b8ff" d="M620.51,-128.93C629.94,-107.55 655.58,-55.62 693,-27.5 694.83,-26.13 696.77,-24.85 698.79,-23.67"/>
<polygon fill="#63b8ff" stroke="#63b8ff" points="700.61,-26.67 708,-19.09 697.49,-20.41 700.61,-26.67"/>
</a>
</g>
</g>
<!-- Node6 -->
<g id="Node000006" class="node">
<title>Node6</title>
<g id="a_Node000006"><a xlink:href="ft__forpointer_8c.html#aded1bf735c8a10e47396170d27c5b6aa" target="_top" xlink:title="Recursively prints a memory address in hexadecimal format.">
<polygon fill="white" stroke="#666666" points="949,-203 839,-203 839,-184 949,-184 949,-203"/>
<text text-anchor="middle" x="894" y="-191" font-family="Helvetica,sans-Serif" font-size="10.00">ft_ricorsive_pointer</text>
</a>
</g>
</g>
<!-- Node5&#45;&gt;Node6 -->
<g id="edge5_Node000005_Node000006" class="edge">
<title>Node5&#45;&gt;Node6</title>
<g id="a_edge5_Node000005_Node000006"><a xlink:title=" ">
<path fill="none" stroke="#63b8ff" d="M786.83,-193.5C799.64,-193.5 814.33,-193.5 828.61,-193.5"/>
<polygon fill="#63b8ff" stroke="#63b8ff" points="828.9,-197 838.9,-193.5 828.9,-190 828.9,-197"/>
</a>
</g>
</g>
<!-- Node6&#45;&gt;Node6 -->
<g id="edge6_Node000006_Node000006" class="edge">
<title>Node6&#45;&gt;Node6</title>
<g id="a_edge6_Node000006_Node000006"><a xlink:title=" ">
<path fill="none" stroke="#63b8ff" d="M871.5,-203.08C860.55,-211.73 868.05,-221 894,-221 910.62,-221 919.68,-217.2 921.16,-212.19"/>
<polygon fill="#63b8ff" stroke="#63b8ff" points="924.17,-210.39 916.5,-203.08 917.94,-213.58 924.17,-210.39"/>
</a>
</g>
</g>
<!-- Node7&#45;&gt;Node7 -->
<g id="edge8_Node000007_Node000007" class="edge">
<title>Node7&#45;&gt;Node7</title>
<g id="a_edge8_Node000007_Node000007"><a xlink:title=" ">
<path fill="none" stroke="#63b8ff" d="M727.65,-148.08C717.76,-156.73 724.54,-166 748,-166 763.03,-166 771.21,-162.2 772.55,-157.19"/>
<polygon fill="#63b8ff" stroke="#63b8ff" points="775.72,-155.69 768.35,-148.08 769.36,-158.63 775.72,-155.69"/>
</a>
</g>
</g>
<!-- Node9&#45;&gt;Node9 -->
<g id="edge11_Node000009_Node000009" class="edge">
<title>Node9&#45;&gt;Node9</title>
<g id="a_edge11_Node000009_Node000009"><a xlink:title=" ">
<path fill="none" stroke="#63b8ff" d="M727.65,-93.08C717.76,-101.73 724.54,-111 748,-111 763.03,-111 771.21,-107.2 772.55,-102.19"/>
<polygon fill="#63b8ff" stroke="#63b8ff" points="775.72,-100.69 768.35,-93.08 769.36,-103.63 775.72,-100.69"/>
</a>
</g>
</g>
<!-- Node12 -->
<g id="Node000012" class="node">
<title>Node12</title>
<g id="a_Node000012"><a xlink:href="ft__putnbr_8c.html#a2e51f80c9e46e52f4adf94617fb51ada" target="_top" xlink:title="Writes an integer to the standard output (stdout).">
<polygon fill="white" stroke="#666666" points="924,-19 864,-19 864,0 924,0 924,-19"/>
<text text-anchor="middle" x="894" y="-7" font-family="Helvetica,sans-Serif" font-size="10.00">ft_putnbr</text>
</a>
</g>
</g>
<!-- Node11&#45;&gt;Node12 -->
<g id="edge14_Node000011_Node000012" class="edge">
<title>Node11&#45;&gt;Node12</title>
<g id="a_edge14_Node000011_Node000012"><a xlink:title=" ">
<path fill="none" stroke="#63b8ff" d="M803.03,-9.5C819.76,-9.5 837.87,-9.5 853.43,-9.5"/>
<polygon fill="#63b8ff" stroke="#63b8ff" points="853.74,-13 863.74,-9.5 853.74,-6 853.74,-13"/>
</a>
</g>
</g>
<!-- Node12&#45;&gt;Node12 -->
<g id="edge15_Node000012_Node000012" class="edge">
<title>Node12&#45;&gt;Node12</title>
<g id="a_edge15_Node000012_Node000012"><a xlink:title=" ">
<path fill="none" stroke="#63b8ff" d="M871.5,-19.08C860.55,-27.73 868.05,-37 894,-37 910.62,-37 919.68,-33.2 921.16,-28.19"/>
<polygon fill="#63b8ff" stroke="#63b8ff" points="924.17,-26.39 916.5,-19.08 917.94,-29.58 924.17,-26.39"/>
</a>
</g>
</g>
<!-- Node14 -->
<g id="Node000014" class="node">
<title>Node14</title>
<g id="a_Node000014"><a xlink:href="check__sintax__utils_8c.html#ad8979b4383535e8fa301630e112254bf" target="_top" xlink:title="Checks the syntax related to a command.">
<polygon fill="white" stroke="#666666" points="343,-92 244,-92 244,-73 343,-73 343,-92"/>
<text text-anchor="middle" x="293.5" y="-80" font-family="Helvetica,sans-Serif" font-size="10.00">check_command</text>
</a>
</g>
</g>
<!-- Node13&#45;&gt;Node14 -->
<g id="edge18_Node000013_Node000014" class="edge">
<title>Node13&#45;&gt;Node14</title>
<g id="a_edge18_Node000013_Node000014"><a xlink:title=" ">
<path fill="none" stroke="#63b8ff" d="M177.04,-148.81C192.97,-137.97 219.86,-120.17 244,-106.5 250.04,-103.08 256.64,-99.63 262.96,-96.46"/>
<polygon fill="#63b8ff" stroke="#63b8ff" points="264.51,-99.6 271.94,-92.05 261.43,-93.32 264.51,-99.6"/>
</a>
</g>
</g>
<!-- Node16 -->
<g id="Node000016" class="node">
<title>Node16</title>
<g id="a_Node000016"><a xlink:href="check__sintax__utils_8c.html#ad4c2c747cfe6cf3d23dff0a99937f136" target="_top" xlink:title="Checks the syntactic correctness of a here&#45;document.">
<polygon fill="white" stroke="#666666" points="338,-281 249,-281 249,-262 338,-262 338,-281"/>
<text text-anchor="middle" x="293.5" y="-269" font-family="Helvetica,sans-Serif" font-size="10.00">check_heredoc</text>
</a>
</g>
</g>
<!-- Node13&#45;&gt;Node16 -->
<g id="edge21_Node000013_Node000016" class="edge">
<title>Node13&#45;&gt;Node16</title>
<g id="a_edge21_Node000013_Node000016"><a xlink:title=" ">
<path fill="none" stroke="#63b8ff" d="M174.04,-168.13C196.21,-187.48 246.37,-231.25 273.77,-255.16"/>
<polygon fill="#63b8ff" stroke="#63b8ff" points="271.65,-257.95 281.49,-261.89 276.25,-252.68 271.65,-257.95"/>
</a>
</g>
</g>
<!-- Node19 -->
<g id="Node000019" class="node">
<title>Node19</title>
<g id="a_Node000019"><a xlink:href="check__sintax__utils_8c.html#a2ce60b5e74342ed1a7442aed0a3a72ab" target="_top" xlink:title="Checks the syntactic correctness of a pipe.">
<polygon fill="white" stroke="#666666" points="329,-168 258,-168 258,-149 329,-149 329,-168"/>
<text text-anchor="middle" x="293.5" y="-156" font-family="Helvetica,sans-Serif" font-size="10.00">check_pipe</text>
</a>
</g>
</g>
<!-- Node13&#45;&gt;Node19 -->
<g id="edge25_Node000013_Node000019" class="edge">
<title>Node13&#45;&gt;Node19</title>
<g id="a_edge25_Node000013_Node000019"><a xlink:title=" ">
<path fill="none" stroke="#63b8ff" d="M208.29,-158.5C220.94,-158.5 234.69,-158.5 247.33,-158.5"/>
<polygon fill="#63b8ff" stroke="#63b8ff" points="247.64,-162 257.64,-158.5 247.64,-155 247.64,-162"/>
</a>
</g>
</g>
<!-- Node20 -->
<g id="Node000020" class="node">
<title>Node20</title>
<g id="a_Node000020"><a xlink:href="utils__token__pt2_8c.html#a80ff8a93c96a15856a12c406efa61cf7" target="_top" xlink:title="Checks if the token represents a redirection.">
<polygon fill="white" stroke="#666666" points="439.5,-168 386.5,-168 386.5,-149 439.5,-149 439.5,-168"/>
<text text-anchor="middle" x="413" y="-156" font-family="Helvetica,sans-Serif" font-size="10.00">is_redir</text>
</a>
</g>
</g>
<!-- Node13&#45;&gt;Node20 -->
<g id="edge30_Node000013_Node000020" class="edge">
<title>Node13&#45;&gt;Node20</title>
<g id="a_edge30_Node000013_Node000020"><a xlink:title=" ">
<path fill="none" stroke="#63b8ff" d="M195.8,-148.99C210.42,-145.23 227.93,-141.36 244,-139.5 287.71,-134.44 299.4,-133.61 343,-139.5 354.1,-141 365.95,-143.8 376.63,-146.8"/>
<polygon fill="#63b8ff" stroke="#63b8ff" points="375.87,-150.23 386.46,-149.7 377.86,-143.51 375.87,-150.23"/>
</a>
</g>
</g>
<!-- Node21 -->
<g id="Node000021" class="node">
<title>Node21</title>
<g id="a_Node000021"><a xlink:href="check__sintax__utils_8c.html#a614b2be0786f20e6e20f0d0238446eeb" target="_top" xlink:title="Checks the syntactic correctness of a redirection.">
<polygon fill="white" stroke="#666666" points="330,-205 257,-205 257,-186 330,-186 330,-205"/>
<text text-anchor="middle" x="293.5" y="-193" font-family="Helvetica,sans-Serif" font-size="10.00">check_redir</text>
</a>
</g>
</g>
<!-- Node13&#45;&gt;Node21 -->
<g id="edge28_Node000013_Node000021" class="edge">
<title>Node13&#45;&gt;Node21</title>
<g id="a_edge28_Node000013_Node000021"><a xlink:title=" ">
<path fill="none" stroke="#63b8ff" d="M196.35,-168.03C212.39,-172.61 231.82,-178.16 249,-183.07"/>
<polygon fill="#63b8ff" stroke="#63b8ff" points="248.24,-186.49 258.81,-185.88 250.16,-179.76 248.24,-186.49"/>
</a>
</g>
</g>
<!-- Node14&#45;&gt;Node3 -->
<g id="edge19_Node000014_Node000003" class="edge">
<title>Node14&#45;&gt;Node3</title>
<g id="a_edge19_Node000014_Node000003"><a xlink:title=" ">
<path fill="none" stroke="#63b8ff" d="M322.17,-92.15C360.7,-105.59 430.59,-129.97 473.25,-144.85"/>
<polygon fill="#63b8ff" stroke="#63b8ff" points="472.36,-148.25 482.95,-148.24 474.66,-141.64 472.36,-148.25"/>
</a>
</g>
</g>
<!-- Node14&#45;&gt;Node15 -->
<g id="edge20_Node000014_Node000015" class="edge">
<title>Node14&#45;&gt;Node15</title>
<g id="a_edge20_Node000014_Node000015"><a xlink:title=" ">
<path fill="none" stroke="#63b8ff" d="M343.31,-74.61C353.31,-72.99 363.71,-71.31 373.3,-69.76"/>
<polygon fill="#63b8ff" stroke="#63b8ff" points="374.01,-73.19 383.33,-68.14 372.9,-66.28 374.01,-73.19"/>
</a>
</g>
</g>
<!-- Node16&#45;&gt;Node2 -->
<g id="edge22_Node000016_Node000002" class="edge">
<title>Node16&#45;&gt;Node2</title>
<g id="a_edge22_Node000016_Node000002"><a xlink:title=" ">
<path fill="none" stroke="#63b8ff" d="M316.21,-261.82C324.75,-257.74 334.52,-252.73 343,-247.5 360.59,-236.65 379.24,-222.41 392.71,-211.58"/>
<polygon fill="#63b8ff" stroke="#63b8ff" points="395.21,-214.05 400.75,-205.02 390.79,-208.63 395.21,-214.05"/>
</a>
</g>
</g>
<!-- Node17 -->
<g id="Node000017" class="node">
<title>Node17</title>
<g id="a_Node000017"><a xlink:href="ft__isalnum_8c.html#a9c2c3821ea43ebdf97de07b123503f8b" target="_top" xlink:title="Checks whether a character is alphanumeric.">
<polygon fill="white" stroke="#666666" points="447,-262 379,-262 379,-243 447,-243 447,-262"/>
<text text-anchor="middle" x="413" y="-250" font-family="Helvetica,sans-Serif" font-size="10.00">ft_isalnum</text>
</a>
</g>
</g>
<!-- Node16&#45;&gt;Node17 -->
<g id="edge23_Node000016_Node000017" class="edge">
<title>Node16&#45;&gt;Node17</title>
<g id="a_edge23_Node000016_Node000017"><a xlink:title=" ">
<path fill="none" stroke="#63b8ff" d="M338.25,-264.43C348.23,-262.81 358.82,-261.1 368.78,-259.49"/>
<polygon fill="#63b8ff" stroke="#63b8ff" points="369.55,-262.91 378.86,-257.86 368.43,-256 369.55,-262.91"/>
</a>
</g>
</g>
<!-- Node18 -->
<g id="Node000018" class="node">
<title>Node18</title>
<g id="a_Node000018"><a xlink:href="ft__strncmp_8c.html#a9d2fe792187aa4ed08e5864fb2c4d6dc" target="_top" xlink:title="Compares up to n characters of two strings.">
<polygon fill="white" stroke="#666666" points="447,-299 379,-299 379,-280 447,-280 447,-299"/>
<text text-anchor="middle" x="413" y="-287" font-family="Helvetica,sans-Serif" font-size="10.00">ft_strncmp</text>
</a>
</g>
</g>
<!-- Node16&#45;&gt;Node18 -->
<g id="edge24_Node000016_Node000018" class="edge">
<title>Node16&#45;&gt;Node18</title>
<g id="a_edge24_Node000016_Node000018"><a xlink:title=" ">
<path fill="none" stroke="#63b8ff" d="M338.25,-278.2C348.23,-279.73 358.82,-281.35 368.78,-282.88"/>
<polygon fill="#63b8ff" stroke="#63b8ff" points="368.45,-286.37 378.86,-284.42 369.51,-279.45 368.45,-286.37"/>
</a>
</g>
</g>
<!-- Node19&#45;&gt;Node2 -->
<g id="edge26_Node000019_Node000002" class="edge">
<title>Node19&#45;&gt;Node2</title>
<g id="a_edge26_Node000019_Node000002"><a xlink:title=" ">
<path fill="none" stroke="#63b8ff" d="M324.76,-168.03C339.96,-172.82 358.53,-178.66 374.61,-183.73"/>
<polygon fill="#63b8ff" stroke="#63b8ff" points="373.67,-187.1 384.26,-186.76 375.77,-180.42 373.67,-187.1"/>
</a>
</g>
</g>
<!-- Node19&#45;&gt;Node20 -->
<g id="edge27_Node000019_Node000020" class="edge">
<title>Node19&#45;&gt;Node20</title>
<g id="a_edge27_Node000019_Node000020"><a xlink:title=" ">
<path fill="none" stroke="#63b8ff" d="M329.12,-158.5C343.83,-158.5 360.98,-158.5 375.85,-158.5"/>
<polygon fill="#63b8ff" stroke="#63b8ff" points="376.21,-162 386.21,-158.5 376.21,-155 376.21,-162"/>
</a>
</g>
</g>
<!-- Node21&#45;&gt;Node2 -->
<g id="edge29_Node000021_Node000002" class="edge">
<title>Node21&#45;&gt;Node2</title>
<g id="a_edge29_Node000021_Node000002"><a xlink:title=" ">
<path fill="none" stroke="#63b8ff" d="M330.07,-195.5C343.96,-195.5 359.9,-195.5 374.01,-195.5"/>
<polygon fill="#63b8ff" stroke="#63b8ff" points="374.38,-199 384.38,-195.5 374.38,-192 374.38,-199"/>
</a>
</g>
</g>
</g>
</svg>
