<?xml version="1.0" encoding="UTF-8" standalone="no"?>
<!DOCTYPE svg PUBLIC "-//W3C//DTD SVG 1.1//EN"
 "http://www.w3.org/Graphics/SVG/1.1/DTD/svg11.dtd">
<!-- Generated by graphviz version 2.43.0 (0)
 -->
<!-- Title: free_all_pipe Pages: 1 -->
<svg width="314pt" height="140pt"
 viewBox="0.00 0.00 314.00 140.00" xmlns="http://www.w3.org/2000/svg" xmlns:xlink="http://www.w3.org/1999/xlink">
<g id="graph0" class="graph" transform="scale(1 1) rotate(0) translate(4 136)">
<title>free_all_pipe</title>
<!-- Node1 -->
<g id="Node000001" class="node">
<title>Node1</title>
<g id="a_Node000001"><a xlink:title="Frees all resources associated with a list of pipes and the environment.">
<polygon fill="#999999" stroke="#666666" points="80,-75 0,-75 0,-56 80,-56 80,-75"/>
<text text-anchor="middle" x="40" y="-63" font-family="Helvetica,sans-Serif" font-size="10.00">free_all_pipe</text>
</a>
</g>
</g>
<!-- Node2 -->
<g id="Node000002" class="node">
<title>Node2</title>
<g id="a_Node000002"><a xlink:href="free__functions_8c.html#a32c72055f1119062342fcdf42527c05c" target="_top" xlink:title="Frees a list of commands.">
<polygon fill="white" stroke="#666666" points="181,-132 119,-132 119,-113 181,-113 181,-132"/>
<text text-anchor="middle" x="150" y="-120" font-family="Helvetica,sans-Serif" font-size="10.00">free_cmd</text>
</a>
</g>
</g>
<!-- Node1&#45;&gt;Node2 -->
<g id="edge1_Node000001_Node000002" class="edge">
<title>Node1&#45;&gt;Node2</title>
<g id="a_edge1_Node000001_Node000002"><a xlink:title=" ">
<path fill="none" stroke="#63b8ff" d="M59.32,-75.17C76.49,-84.23 102.37,-97.89 121.93,-108.21"/>
<polygon fill="#63b8ff" stroke="#63b8ff" points="120.47,-111.4 130.95,-112.97 123.74,-105.21 120.47,-111.4"/>
</a>
</g>
</g>
<!-- Node3 -->
<g id="Node000003" class="node">
<title>Node3</title>
<g id="a_Node000003"><a xlink:href="ft__free__matrix_8c.html#a1ea6d1f3b50d1c23d4f0faddd1a13448" target="_top" xlink:title="Frees a NULL&#45;terminated matrix of strings.">
<polygon fill="white" stroke="#666666" points="306,-113 220,-113 220,-94 306,-94 306,-113"/>
<text text-anchor="middle" x="263" y="-101" font-family="Helvetica,sans-Serif" font-size="10.00">ft_free_matrix</text>
</a>
</g>
</g>
<!-- Node1&#45;&gt;Node3 -->
<g id="edge5_Node000001_Node000003" class="edge">
<title>Node1&#45;&gt;Node3</title>
<g id="a_edge5_Node000001_Node000003"><a xlink:title=" ">
<path fill="none" stroke="#63b8ff" d="M80,-72.21C116.02,-78.4 169.81,-87.65 209.58,-94.49"/>
<polygon fill="#63b8ff" stroke="#63b8ff" points="209.17,-97.97 219.62,-96.21 210.36,-91.07 209.17,-97.97"/>
</a>
</g>
</g>
<!-- Node4 -->
<g id="Node000004" class="node">
<title>Node4</title>
<g id="a_Node000004"><a xlink:href="free__functions_8c.html#a87de2a27d0e0e99f3de0b477731181e0" target="_top" xlink:title="Frees a list of pipes.">
<polygon fill="white" stroke="#666666" points="181,-56 119,-56 119,-37 181,-37 181,-56"/>
<text text-anchor="middle" x="150" y="-44" font-family="Helvetica,sans-Serif" font-size="10.00">free_pipe</text>
</a>
</g>
</g>
<!-- Node1&#45;&gt;Node4 -->
<g id="edge3_Node000001_Node000004" class="edge">
<title>Node1&#45;&gt;Node4</title>
<g id="a_edge3_Node000001_Node000004"><a xlink:title=" ">
<path fill="none" stroke="#63b8ff" d="M80.3,-58.59C89.5,-56.97 99.32,-55.24 108.57,-53.61"/>
<polygon fill="#63b8ff" stroke="#63b8ff" points="109.47,-57.01 118.71,-51.83 108.25,-50.11 109.47,-57.01"/>
</a>
</g>
</g>
<!-- Node5 -->
<g id="Node000005" class="node">
<title>Node5</title>
<g id="a_Node000005"><a xlink:href="free__functions_8c.html#a4f32f08947270b8aec54f43ddd8b02d4" target="_top" xlink:title="Frees a list of tokens.">
<polygon fill="white" stroke="#666666" points="184,-19 116,-19 116,0 184,0 184,-19"/>
<text text-anchor="middle" x="150" y="-7" font-family="Helvetica,sans-Serif" font-size="10.00">free_token</text>
</a>
</g>
</g>
<!-- Node1&#45;&gt;Node5 -->
<g id="edge4_Node000001_Node000005" class="edge">
<title>Node1&#45;&gt;Node5</title>
<g id="a_edge4_Node000001_Node000005"><a xlink:title=" ">
<path fill="none" stroke="#63b8ff" d="M59.81,-55.75C76.85,-46.91 102.16,-33.79 121.47,-23.78"/>
<polygon fill="#63b8ff" stroke="#63b8ff" points="123.14,-26.85 130.4,-19.14 119.91,-20.64 123.14,-26.85"/>
</a>
</g>
</g>
<!-- Node2&#45;&gt;Node3 -->
<g id="edge2_Node000002_Node000003" class="edge">
<title>Node2&#45;&gt;Node3</title>
<g id="a_edge2_Node000002_Node000003"><a xlink:title=" ">
<path fill="none" stroke="#63b8ff" d="M181.04,-117.36C189.9,-115.84 199.87,-114.13 209.71,-112.45"/>
<polygon fill="#63b8ff" stroke="#63b8ff" points="210.59,-115.85 219.85,-110.71 209.41,-108.95 210.59,-115.85"/>
</a>
</g>
</g>
</g>
</svg>
