<?xml version="1.0" encoding="UTF-8" standalone="no"?>
<!DOCTYPE svg PUBLIC "-//W3C//DTD SVG 1.1//EN"
 "http://www.w3.org/Graphics/SVG/1.1/DTD/svg11.dtd">
<!-- Generated by graphviz version 2.43.0 (0)
 -->
<!-- Title: ft_for_fd Pages: 1 -->
<svg width="346pt" height="103pt"
 viewBox="0.00 0.00 346.00 103.00" xmlns="http://www.w3.org/2000/svg" xmlns:xlink="http://www.w3.org/1999/xlink">
<g id="graph0" class="graph" transform="scale(1 1) rotate(0) translate(4 99)">
<title>ft_for_fd</title>
<!-- Node1 -->
<g id="Node000001" class="node">
<title>Node1</title>
<g id="a_Node000001"><a xlink:title="Handles opening and validating file descriptors for command input/output.">
<polygon fill="#999999" stroke="#666666" points="57,-57 0,-57 0,-38 57,-38 57,-57"/>
<text text-anchor="middle" x="28.5" y="-45" font-family="Helvetica,sans-Serif" font-size="10.00">ft_for_fd</text>
</a>
</g>
</g>
<!-- Node2 -->
<g id="Node000002" class="node">
<title>Node2</title>
<g id="a_Node000002"><a xlink:href="utils__fd_8c.html#ae6ad7aa33393749b9dc5eac6b61cdf74" target="_top" xlink:title="Returns the correct file descriptor based on append flag and file.">
<polygon fill="white" stroke="#666666" points="207.5,-95 115.5,-95 115.5,-76 207.5,-76 207.5,-95"/>
<text text-anchor="middle" x="161.5" y="-83" font-family="Helvetica,sans-Serif" font-size="10.00">check_value_fd</text>
</a>
</g>
</g>
<!-- Node1&#45;&gt;Node2 -->
<g id="edge1_Node000001_Node000002" class="edge">
<title>Node1&#45;&gt;Node2</title>
<g id="a_edge1_Node000001_Node000002"><a xlink:title=" ">
<path fill="none" stroke="#63b8ff" d="M57.28,-55.56C74.89,-60.67 98.01,-67.37 117.9,-73.14"/>
<polygon fill="#63b8ff" stroke="#63b8ff" points="117.09,-76.55 127.67,-75.98 119.04,-69.83 117.09,-76.55"/>
</a>
</g>
</g>
<!-- Node3 -->
<g id="Node000003" class="node">
<title>Node3</title>
<g id="a_Node000003"><a xlink:href="utils__fd_8c.html#a9cf70d06db18597b04bb642db7abab4a" target="_top" xlink:title="Checks if a file descriptor is valid.">
<polygon fill="white" stroke="#666666" points="338,-76 266,-76 266,-57 338,-57 338,-76"/>
<text text-anchor="middle" x="302" y="-64" font-family="Helvetica,sans-Serif" font-size="10.00">ft_check_fd</text>
</a>
</g>
</g>
<!-- Node1&#45;&gt;Node3 -->
<g id="edge3_Node000001_Node000003" class="edge">
<title>Node1&#45;&gt;Node3</title>
<g id="a_edge3_Node000001_Node000003"><a xlink:title=" ">
<path fill="none" stroke="#63b8ff" d="M57.03,-49.43C103.73,-52.69 198.93,-59.36 255.62,-63.32"/>
<polygon fill="#63b8ff" stroke="#63b8ff" points="255.51,-66.83 265.73,-64.03 256,-59.84 255.51,-66.83"/>
</a>
</g>
</g>
<!-- Node4 -->
<g id="Node000004" class="node">
<title>Node4</title>
<g id="a_Node000004"><a xlink:href="utils__pipes_8c.html#a4112bdd2bc0766ff52195f2ab3a53339" target="_top" xlink:title="Handles input redirection from a file.">
<polygon fill="white" stroke="#666666" points="230,-19 93,-19 93,0 230,0 230,-19"/>
<text text-anchor="middle" x="161.5" y="-7" font-family="Helvetica,sans-Serif" font-size="10.00">handle_input_redirection</text>
</a>
</g>
</g>
<!-- Node1&#45;&gt;Node4 -->
<g id="edge4_Node000001_Node000004" class="edge">
<title>Node1&#45;&gt;Node4</title>
<g id="a_edge4_Node000001_Node000004"><a xlink:title=" ">
<path fill="none" stroke="#63b8ff" d="M57.28,-39.44C74.89,-34.33 98.01,-27.63 117.9,-21.86"/>
<polygon fill="#63b8ff" stroke="#63b8ff" points="119.04,-25.17 127.67,-19.02 117.09,-18.45 119.04,-25.17"/>
</a>
</g>
</g>
<!-- Node2&#45;&gt;Node3 -->
<g id="edge2_Node000002_Node000003" class="edge">
<title>Node2&#45;&gt;Node3</title>
<g id="a_edge2_Node000002_Node000003"><a xlink:title=" ">
<path fill="none" stroke="#63b8ff" d="M207.85,-79.28C223.11,-77.19 240.13,-74.85 255.4,-72.76"/>
<polygon fill="#63b8ff" stroke="#63b8ff" points="256.22,-76.18 265.65,-71.35 255.27,-69.24 256.22,-76.18"/>
</a>
</g>
</g>
</g>
</svg>
