<?xml version="1.0" encoding="UTF-8" standalone="no"?>
<!DOCTYPE svg PUBLIC "-//W3C//DTD SVG 1.1//EN"
 "http://www.w3.org/Graphics/SVG/1.1/DTD/svg11.dtd">
<!-- Generated by graphviz version 2.43.0 (0)
 -->
<!-- Title: free_cmd Pages: 1 -->
<svg width="1388pt" height="486pt"
 viewBox="0.00 0.00 1388.00 486.37" xmlns="http://www.w3.org/2000/svg" xmlns:xlink="http://www.w3.org/1999/xlink">
<g id="graph0" class="graph" transform="scale(1 1) rotate(0) translate(4 482.37)">
<title>free_cmd</title>
<!-- Node1 -->
<g id="Node000001" class="node">
<title>Node1</title>
<g id="a_Node000001"><a xlink:title="Frees a list of commands.">
<polygon fill="#999999" stroke="#666666" points="1380,-392.87 1318,-392.87 1318,-373.87 1380,-373.87 1380,-392.87"/>
<text text-anchor="middle" x="1349" y="-380.87" font-family="Helvetica,sans-Serif" font-size="10.00">free_cmd</text>
</a>
</g>
</g>
<!-- Node2 -->
<g id="Node000002" class="node">
<title>Node2</title>
<g id="a_Node000002"><a xlink:href="free__functions_8c.html#af29ea604c324eb3b9934ef9d6a34aa1d" target="_top" xlink:title="Frees all allocated resources associated with the command list and environment.">
<polygon fill="white" stroke="#666666" points="1268.5,-392.87 1215.5,-392.87 1215.5,-373.87 1268.5,-373.87 1268.5,-392.87"/>
<text text-anchor="middle" x="1242" y="-380.87" font-family="Helvetica,sans-Serif" font-size="10.00">free_all</text>
</a>
</g>
</g>
<!-- Node1&#45;&gt;Node2 -->
<g id="edge1_Node000001_Node000002" class="edge">
<title>Node1&#45;&gt;Node2</title>
<g id="a_edge1_Node000001_Node000002"><a xlink:title=" ">
<path fill="none" stroke="#63b8ff" d="M1307.73,-383.37C1294.67,-383.37 1280.54,-383.37 1268.82,-383.37"/>
<polygon fill="#63b8ff" stroke="#63b8ff" points="1307.91,-386.87 1317.91,-383.37 1307.91,-379.87 1307.91,-386.87"/>
</a>
</g>
</g>
<!-- Node6 -->
<g id="Node000006" class="node">
<title>Node6</title>
<g id="a_Node000006"><a xlink:href="main__utils_8c.html#a7e8f478480ab6ab34d6f5eadaf6acdb9" target="_top" xlink:title="Handles parsing and execution of tokens.">
<polygon fill="white" stroke="#666666" points="273,-185.87 192,-185.87 192,-166.87 273,-166.87 273,-185.87"/>
<text text-anchor="middle" x="232.5" y="-173.87" font-family="Helvetica,sans-Serif" font-size="10.00">ft_token_flow</text>
</a>
</g>
</g>
<!-- Node1&#45;&gt;Node6 -->
<g id="edge44_Node000001_Node000006" class="edge">
<title>Node1&#45;&gt;Node6</title>
<g id="a_edge44_Node000001_Node000006"><a xlink:title=" ">
<path fill="none" stroke="#63b8ff" d="M1326.08,-398.61C1285.25,-425.46 1193.96,-478.37 1108.5,-478.37 1108.5,-478.37 1108.5,-478.37 459.5,-478.37 309.86,-478.37 247.3,-237.77 235.58,-186.08"/>
<polygon fill="#63b8ff" stroke="#63b8ff" points="1328.09,-401.48 1334.45,-393 1324.19,-395.66 1328.09,-401.48"/>
</a>
</g>
</g>
<!-- Node17 -->
<g id="Node000017" class="node">
<title>Node17</title>
<g id="a_Node000017"><a xlink:href="free__functions_8c.html#a451c65e7c59e947c1880d1f75d866e3a" target="_top" xlink:title="Frees all resources associated with a list of pipes and the environment.">
<polygon fill="white" stroke="#666666" points="1282,-185.87 1202,-185.87 1202,-166.87 1282,-166.87 1282,-185.87"/>
<text text-anchor="middle" x="1242" y="-173.87" font-family="Helvetica,sans-Serif" font-size="10.00">free_all_pipe</text>
</a>
</g>
</g>
<!-- Node1&#45;&gt;Node17 -->
<g id="edge20_Node000001_Node000017" class="edge">
<title>Node1&#45;&gt;Node17</title>
<g id="a_edge20_Node000001_Node000017"><a xlink:title=" ">
<path fill="none" stroke="#63b8ff" d="M1338.5,-364.64C1316.85,-321.97 1264.49,-218.74 1248.04,-186.3"/>
<polygon fill="#63b8ff" stroke="#63b8ff" points="1335.43,-366.33 1343.08,-373.67 1341.67,-363.16 1335.43,-366.33"/>
</a>
</g>
</g>
<!-- Node3 -->
<g id="Node000003" class="node">
<title>Node3</title>
<g id="a_Node000003"><a xlink:href="system__commands_8c.html#a6dfb68d4eb4b73539a6d36f36d23d093" target="_top" xlink:title="Function executed by the child process to run a command.">
<polygon fill="white" stroke="#666666" points="1133.5,-449.87 1081.5,-449.87 1081.5,-430.87 1133.5,-430.87 1133.5,-449.87"/>
<text text-anchor="middle" x="1107.5" y="-437.87" font-family="Helvetica,sans-Serif" font-size="10.00">ft_child</text>
</a>
</g>
</g>
<!-- Node2&#45;&gt;Node3 -->
<g id="edge2_Node000002_Node000003" class="edge">
<title>Node2&#45;&gt;Node3</title>
<g id="a_edge2_Node000002_Node000003"><a xlink:title=" ">
<path fill="none" stroke="#63b8ff" d="M1210.06,-397.14C1196.55,-403.11 1180.52,-410.15 1166,-416.37 1154.77,-421.19 1142.25,-426.43 1131.76,-430.78"/>
<polygon fill="#63b8ff" stroke="#63b8ff" points="1211.66,-400.26 1219.39,-393.01 1208.83,-393.86 1211.66,-400.26"/>
</a>
</g>
</g>
<!-- Node9 -->
<g id="Node000009" class="node">
<title>Node9</title>
<g id="a_Node000009"><a xlink:href="exit_8c.html#a81b8a91253c822b248934172be9eee03" target="_top" xlink:title="Handles errors related to non&#45;numeric or null exit arguments.">
<polygon fill="white" stroke="#666666" points="1145.5,-336.87 1069.5,-336.87 1069.5,-317.87 1145.5,-317.87 1145.5,-336.87"/>
<text text-anchor="middle" x="1107.5" y="-324.87" font-family="Helvetica,sans-Serif" font-size="10.00">ft_error_exit</text>
</a>
</g>
</g>
<!-- Node2&#45;&gt;Node9 -->
<g id="edge8_Node000002_Node000009" class="edge">
<title>Node2&#45;&gt;Node9</title>
<g id="a_edge8_Node000002_Node000009"><a xlink:title=" ">
<path fill="none" stroke="#63b8ff" d="M1214.3,-369.07C1200.16,-361.78 1182.38,-353.08 1166,-346.37 1157.73,-342.98 1148.61,-339.75 1140.12,-336.94"/>
<polygon fill="#63b8ff" stroke="#63b8ff" points="1212.95,-372.32 1223.44,-373.84 1216.19,-366.11 1212.95,-372.32"/>
</a>
</g>
</g>
<!-- Node10 -->
<g id="Node000010" class="node">
<title>Node10</title>
<g id="a_Node000010"><a xlink:href="exit_8c.html#af0d4948984577b715a89f18d5864cfa2" target="_top" xlink:title="Builtin function for the exit command.">
<polygon fill="white" stroke="#666666" points="992,-299.87 945,-299.87 945,-280.87 992,-280.87 992,-299.87"/>
<text text-anchor="middle" x="968.5" y="-287.87" font-family="Helvetica,sans-Serif" font-size="10.00">ft_exit</text>
</a>
</g>
</g>
<!-- Node2&#45;&gt;Node10 -->
<g id="edge17_Node000002_Node000010" class="edge">
<title>Node2&#45;&gt;Node10</title>
<g id="a_edge17_Node000002_Node000010"><a xlink:title=" ">
<path fill="none" stroke="#63b8ff" d="M1205.49,-391.89C1165.47,-399.61 1099.41,-406.6 1049,-383.37 1010.99,-365.86 984.4,-320.23 974.17,-300.12"/>
<polygon fill="#63b8ff" stroke="#63b8ff" points="1206.23,-395.31 1215.33,-389.87 1204.83,-388.45 1206.23,-395.31"/>
</a>
</g>
</g>
<!-- Node16 -->
<g id="Node000016" class="node">
<title>Node16</title>
<g id="a_Node000016"><a xlink:href="exit_8c.html#a7bda6b30cde0b18718f60d2a30efb2f6" target="_top" xlink:title="Handles the case when exit is called without arguments or with &quot;0&quot;.">
<polygon fill="white" stroke="#666666" points="1166,-373.87 1049,-373.87 1049,-354.87 1166,-354.87 1166,-373.87"/>
<text text-anchor="middle" x="1107.5" y="-361.87" font-family="Helvetica,sans-Serif" font-size="10.00">ft_exit_no_args_or_0</text>
</a>
</g>
</g>
<!-- Node2&#45;&gt;Node16 -->
<g id="edge18_Node000002_Node000016" class="edge">
<title>Node2&#45;&gt;Node16</title>
<g id="a_edge18_Node000002_Node000016"><a xlink:title=" ">
<path fill="none" stroke="#63b8ff" d="M1205.34,-378.26C1193.25,-376.52 1179.42,-374.54 1166.07,-372.63"/>
<polygon fill="#63b8ff" stroke="#63b8ff" points="1205.06,-381.75 1215.45,-379.71 1206.05,-374.82 1205.06,-381.75"/>
</a>
</g>
</g>
<!-- Node4 -->
<g id="Node000004" class="node">
<title>Node4</title>
<g id="a_Node000004"><a xlink:href="system__commands_8c.html#a6d8647dce4277e848c613bd0cc3df5bb" target="_top" xlink:title="Executes a system command by creating a child process.">
<polygon fill="white" stroke="#666666" points="1013,-393.87 924,-393.87 924,-374.87 1013,-374.87 1013,-393.87"/>
<text text-anchor="middle" x="968.5" y="-381.87" font-family="Helvetica,sans-Serif" font-size="10.00">ft_exe_syscmd</text>
</a>
</g>
</g>
<!-- Node3&#45;&gt;Node4 -->
<g id="edge3_Node000003_Node000004" class="edge">
<title>Node3&#45;&gt;Node4</title>
<g id="a_edge3_Node000003_Node000004"><a xlink:title=" ">
<path fill="none" stroke="#63b8ff" d="M1073.52,-426.89C1048.57,-416.69 1014.93,-402.94 992.74,-393.87"/>
<polygon fill="#63b8ff" stroke="#63b8ff" points="1072.37,-430.2 1082.95,-430.74 1075.02,-423.72 1072.37,-430.2"/>
</a>
</g>
</g>
<!-- Node5 -->
<g id="Node000005" class="node">
<title>Node5</title>
<g id="a_Node000005"><a xlink:href="cmd__execution_8c.html#a5ce7231f800cbacea6350cc1a32a59bd" target="_top" xlink:title="Executes a list of non&#45;pipelined commands.">
<polygon fill="white" stroke="#666666" points="875,-185.87 803,-185.87 803,-166.87 875,-166.87 875,-185.87"/>
<text text-anchor="middle" x="839" y="-173.87" font-family="Helvetica,sans-Serif" font-size="10.00">ft_exe_cmd</text>
</a>
</g>
</g>
<!-- Node4&#45;&gt;Node5 -->
<g id="edge4_Node000004_Node000005" class="edge">
<title>Node4&#45;&gt;Node5</title>
<g id="a_edge4_Node000004_Node000005"><a xlink:title=" ">
<path fill="none" stroke="#63b8ff" d="M956.29,-366.09C930.22,-323.55 866.18,-219.08 846.11,-186.35"/>
<polygon fill="#63b8ff" stroke="#63b8ff" points="953.31,-367.92 961.52,-374.62 959.28,-364.26 953.31,-367.92"/>
</a>
</g>
</g>
<!-- Node5&#45;&gt;Node6 -->
<g id="edge5_Node000005_Node000006" class="edge">
<title>Node5&#45;&gt;Node6</title>
<g id="a_edge5_Node000005_Node000006"><a xlink:title=" ">
<path fill="none" stroke="#63b8ff" d="M792.82,-176.37C741.77,-176.37 656.16,-176.37 582.5,-176.37 582.5,-176.37 582.5,-176.37 459.5,-176.37 394.17,-176.37 318.22,-176.37 273.1,-176.37"/>
<polygon fill="#63b8ff" stroke="#63b8ff" points="792.87,-179.87 802.87,-176.37 792.87,-172.87 792.87,-179.87"/>
</a>
</g>
</g>
<!-- Node7 -->
<g id="Node000007" class="node">
<title>Node7</title>
<g id="a_Node000007"><a xlink:href="main__utils_8c.html#ae35edfb8f1339d6f77f53c28eb2a2ed6" target="_top" xlink:title="Handles a complete cycle of input → parsing → execution.">
<polygon fill="white" stroke="#666666" points="156,-185.87 77,-185.87 77,-166.87 156,-166.87 156,-185.87"/>
<text text-anchor="middle" x="116.5" y="-173.87" font-family="Helvetica,sans-Serif" font-size="10.00">ft_main_flow</text>
</a>
</g>
</g>
<!-- Node6&#45;&gt;Node7 -->
<g id="edge6_Node000006_Node000007" class="edge">
<title>Node6&#45;&gt;Node7</title>
<g id="a_edge6_Node000006_Node000007"><a xlink:title=" ">
<path fill="none" stroke="#63b8ff" d="M181.7,-176.37C173.16,-176.37 164.4,-176.37 156.21,-176.37"/>
<polygon fill="#63b8ff" stroke="#63b8ff" points="181.95,-179.87 191.95,-176.37 181.95,-172.87 181.95,-179.87"/>
</a>
</g>
</g>
<!-- Node8 -->
<g id="Node000008" class="node">
<title>Node8</title>
<g id="a_Node000008"><a xlink:href="main_8c.html#ab3862b46d6a8d13c2d884a297e6b05b5" target="_top" xlink:title="Main function of the minishell.">
<polygon fill="white" stroke="#666666" points="41,-185.87 0,-185.87 0,-166.87 41,-166.87 41,-185.87"/>
<text text-anchor="middle" x="20.5" y="-173.87" font-family="Helvetica,sans-Serif" font-size="10.00">main</text>
</a>
</g>
</g>
<!-- Node7&#45;&gt;Node8 -->
<g id="edge7_Node000007_Node000008" class="edge">
<title>Node7&#45;&gt;Node8</title>
<g id="a_edge7_Node000007_Node000008"><a xlink:title=" ">
<path fill="none" stroke="#63b8ff" d="M66.74,-176.37C57.62,-176.37 48.59,-176.37 41.03,-176.37"/>
<polygon fill="#63b8ff" stroke="#63b8ff" points="67,-179.87 77,-176.37 67,-172.87 67,-179.87"/>
</a>
</g>
</g>
<!-- Node9&#45;&gt;Node10 -->
<g id="edge9_Node000009_Node000010" class="edge">
<title>Node9&#45;&gt;Node10</title>
<g id="a_edge9_Node000009_Node000010"><a xlink:title=" ">
<path fill="none" stroke="#63b8ff" d="M1061.56,-315.23C1038.34,-308.96 1011.02,-301.58 992.2,-296.5"/>
<polygon fill="#63b8ff" stroke="#63b8ff" points="1060.65,-318.61 1071.22,-317.84 1062.48,-311.86 1060.65,-318.61"/>
</a>
</g>
</g>
<!-- Node10&#45;&gt;Node5 -->
<g id="edge10_Node000010_Node000005" class="edge">
<title>Node10&#45;&gt;Node5</title>
<g id="a_edge10_Node000010_Node000005"><a xlink:title=" ">
<path fill="none" stroke="#63b8ff" d="M949.03,-273.85C922.03,-249.72 872.65,-205.56 850.84,-186.07"/>
<polygon fill="#63b8ff" stroke="#63b8ff" points="946.84,-276.6 956.63,-280.65 951.51,-271.38 946.84,-276.6"/>
</a>
</g>
</g>
<!-- Node11 -->
<g id="Node000011" class="node">
<title>Node11</title>
<g id="a_Node000011"><a xlink:href="cmd__execution_8c.html#a50e59fa2e4621831a415d4038f697c56" target="_top" xlink:title="Executes a command within a pipeline.">
<polygon fill="white" stroke="#666666" points="888,-147.87 790,-147.87 790,-128.87 888,-128.87 888,-147.87"/>
<text text-anchor="middle" x="839" y="-135.87" font-family="Helvetica,sans-Serif" font-size="10.00">ft_exe_pipe_cmd</text>
</a>
</g>
</g>
<!-- Node10&#45;&gt;Node11 -->
<g id="edge11_Node000010_Node000011" class="edge">
<title>Node10&#45;&gt;Node11</title>
<g id="a_edge11_Node000010_Node000011"><a xlink:title=" ">
<path fill="none" stroke="#63b8ff" d="M952.66,-272.45C943.78,-261.3 932.59,-246.44 924,-232.37 904.94,-201.16 914.6,-183.47 888,-158.37 883.54,-154.16 878.06,-150.77 872.42,-148.07"/>
<polygon fill="#63b8ff" stroke="#63b8ff" points="950.18,-274.95 959.19,-280.52 955.62,-270.54 950.18,-274.95"/>
</a>
</g>
</g>
<!-- Node12 -->
<g id="Node000012" class="node">
<title>Node12</title>
<g id="a_Node000012"><a xlink:href="pipes_8c.html#a36a2d91a0566ad253efe3833b05e69d1" target="_top" xlink:title="Routine executed by the child process for each command in the pipe.">
<polygon fill="white" stroke="#666666" points="754,-147.87 662,-147.87 662,-128.87 754,-128.87 754,-147.87"/>
<text text-anchor="middle" x="708" y="-135.87" font-family="Helvetica,sans-Serif" font-size="10.00">ft_child_routine</text>
</a>
</g>
</g>
<!-- Node11&#45;&gt;Node12 -->
<g id="edge12_Node000011_Node000012" class="edge">
<title>Node11&#45;&gt;Node12</title>
<g id="a_edge12_Node000011_Node000012"><a xlink:title=" ">
<path fill="none" stroke="#63b8ff" d="M779.91,-138.37C771.24,-138.37 762.42,-138.37 754.08,-138.37"/>
<polygon fill="#63b8ff" stroke="#63b8ff" points="779.97,-141.87 789.97,-138.37 779.97,-134.87 779.97,-141.87"/>
</a>
</g>
</g>
<!-- Node13 -->
<g id="Node000013" class="node">
<title>Node13</title>
<g id="a_Node000013"><a xlink:href="pipes_8c.html#aa17e847997e7266a0a111ab3572756bb" target="_top" xlink:title="Manages pipe creation and fork to execute the current command.">
<polygon fill="white" stroke="#666666" points="626,-147.87 537,-147.87 537,-128.87 626,-128.87 626,-147.87"/>
<text text-anchor="middle" x="581.5" y="-135.87" font-family="Helvetica,sans-Serif" font-size="10.00">ft_pipe_routine</text>
</a>
</g>
</g>
<!-- Node12&#45;&gt;Node13 -->
<g id="edge13_Node000012_Node000013" class="edge">
<title>Node12&#45;&gt;Node13</title>
<g id="a_edge13_Node000012_Node000013"><a xlink:title=" ">
<path fill="none" stroke="#63b8ff" d="M651.52,-138.37C643.08,-138.37 634.46,-138.37 626.31,-138.37"/>
<polygon fill="#63b8ff" stroke="#63b8ff" points="651.7,-141.87 661.7,-138.37 651.7,-134.87 651.7,-141.87"/>
</a>
</g>
</g>
<!-- Node14 -->
<g id="Node000014" class="node">
<title>Node14</title>
<g id="a_Node000014"><a xlink:href="pipes_8c.html#a7a3b0de1a88a243da741f748881e14f0" target="_top" xlink:title="Executes a list of commands connected via pipes.">
<polygon fill="white" stroke="#666666" points="501,-147.87 420,-147.87 420,-128.87 501,-128.87 501,-147.87"/>
<text text-anchor="middle" x="460.5" y="-135.87" font-family="Helvetica,sans-Serif" font-size="10.00">execute_pipe</text>
</a>
</g>
</g>
<!-- Node13&#45;&gt;Node14 -->
<g id="edge14_Node000013_Node000014" class="edge">
<title>Node13&#45;&gt;Node14</title>
<g id="a_edge14_Node000013_Node000014"><a xlink:title=" ">
<path fill="none" stroke="#63b8ff" d="M526.85,-138.37C518.22,-138.37 509.42,-138.37 501.19,-138.37"/>
<polygon fill="#63b8ff" stroke="#63b8ff" points="526.86,-141.87 536.86,-138.37 526.86,-134.87 526.86,-141.87"/>
</a>
</g>
</g>
<!-- Node15 -->
<g id="Node000015" class="node">
<title>Node15</title>
<g id="a_Node000015"><a xlink:href="main__utils_8c.html#ad0183732909ae6e7c52e7b086c2e5642" target="_top" xlink:title="Manages the execution flow of commands with pipes.">
<polygon fill="white" stroke="#666666" points="384,-147.87 309,-147.87 309,-128.87 384,-128.87 384,-147.87"/>
<text text-anchor="middle" x="346.5" y="-135.87" font-family="Helvetica,sans-Serif" font-size="10.00">ft_pipe_flow</text>
</a>
</g>
</g>
<!-- Node14&#45;&gt;Node15 -->
<g id="edge15_Node000014_Node000015" class="edge">
<title>Node14&#45;&gt;Node15</title>
<g id="a_edge15_Node000014_Node000015"><a xlink:title=" ">
<path fill="none" stroke="#63b8ff" d="M409.47,-138.37C400.96,-138.37 392.26,-138.37 384.18,-138.37"/>
<polygon fill="#63b8ff" stroke="#63b8ff" points="409.7,-141.87 419.7,-138.37 409.7,-134.87 409.7,-141.87"/>
</a>
</g>
</g>
<!-- Node15&#45;&gt;Node6 -->
<g id="edge16_Node000015_Node000006" class="edge">
<title>Node15&#45;&gt;Node6</title>
<g id="a_edge16_Node000015_Node000006"><a xlink:title=" ">
<path fill="none" stroke="#63b8ff" d="M307.7,-151.2C292.67,-156.3 275.68,-162.06 261.75,-166.79"/>
<polygon fill="#63b8ff" stroke="#63b8ff" points="308.89,-154.49 317.24,-147.96 306.64,-147.86 308.89,-154.49"/>
</a>
</g>
</g>
<!-- Node16&#45;&gt;Node10 -->
<g id="edge19_Node000016_Node000010" class="edge">
<title>Node16&#45;&gt;Node10</title>
<g id="a_edge19_Node000016_Node000010"><a xlink:title=" ">
<path fill="none" stroke="#63b8ff" d="M1060.26,-351.3C1056.39,-349.79 1052.59,-348.14 1049,-346.37 1022.66,-333.37 995.4,-312.17 980.64,-299.93"/>
<polygon fill="#63b8ff" stroke="#63b8ff" points="1059.35,-354.7 1069.94,-354.81 1061.73,-348.11 1059.35,-354.7"/>
</a>
</g>
</g>
<!-- Node17&#45;&gt;Node9 -->
<g id="edge30_Node000017_Node000009" class="edge">
<title>Node17&#45;&gt;Node9</title>
<g id="a_edge30_Node000017_Node000009"><a xlink:title=" ">
<path fill="none" stroke="#63b8ff" d="M1235.19,-195.78C1225.54,-224.74 1203.46,-279.06 1166,-309.37 1160.06,-314.18 1152.84,-317.7 1145.54,-320.29"/>
<polygon fill="#63b8ff" stroke="#63b8ff" points="1238.59,-196.62 1238.29,-186.03 1231.92,-194.5 1238.59,-196.62"/>
</a>
</g>
</g>
<!-- Node17&#45;&gt;Node10 -->
<g id="edge32_Node000017_Node000010" class="edge">
<title>Node17&#45;&gt;Node10</title>
<g id="a_edge32_Node000017_Node000010"><a xlink:title=" ">
<path fill="none" stroke="#63b8ff" d="M1212.32,-190.2C1198.41,-196.79 1181.42,-204.68 1166,-211.37 1103.6,-238.45 1028.77,-267.65 992.06,-281.76"/>
<polygon fill="#63b8ff" stroke="#63b8ff" points="1213.87,-193.34 1221.39,-185.88 1210.86,-187.02 1213.87,-193.34"/>
</a>
</g>
</g>
<!-- Node17&#45;&gt;Node11 -->
<g id="edge31_Node000017_Node000011" class="edge">
<title>Node17&#45;&gt;Node11</title>
<g id="a_edge31_Node000017_Node000011"><a xlink:title=" ">
<path fill="none" stroke="#63b8ff" d="M1237.19,-156.64C1229.77,-124.01 1210.06,-59.34 1166,-28.37 1109.94,11.03 1081.39,-13.6 1013,-9.37 973.52,-6.93 958.77,9.48 924,-9.37 875.6,-35.61 850.7,-103.15 842.82,-128.53"/>
<polygon fill="#63b8ff" stroke="#63b8ff" points="1233.83,-157.68 1239.32,-166.74 1240.68,-156.23 1233.83,-157.68"/>
</a>
</g>
</g>
<!-- Node18 -->
<g id="Node000018" class="node">
<title>Node18</title>
<g id="a_Node000018"><a xlink:href="ft__cd_8c.html#af438919e376d2d0df3830120118ea526" target="_top" xlink:title="Builtin function for the cd (change directory) command.">
<polygon fill="white" stroke="#666666" points="988.5,-111.87 948.5,-111.87 948.5,-92.87 988.5,-92.87 988.5,-111.87"/>
<text text-anchor="middle" x="968.5" y="-99.87" font-family="Helvetica,sans-Serif" font-size="10.00">ft_cd</text>
</a>
</g>
</g>
<!-- Node17&#45;&gt;Node18 -->
<g id="edge21_Node000017_Node000018" class="edge">
<title>Node17&#45;&gt;Node18</title>
<g id="a_edge21_Node000017_Node000018"><a xlink:title=" ">
<path fill="none" stroke="#63b8ff" d="M1211.33,-162.69C1197.72,-156.78 1181.25,-150.15 1166,-145.37 1102.35,-125.43 1024.3,-111.31 988.76,-105.42"/>
<polygon fill="#63b8ff" stroke="#63b8ff" points="1210.11,-165.98 1220.67,-166.82 1212.94,-159.58 1210.11,-165.98"/>
</a>
</g>
</g>
<!-- Node19 -->
<g id="Node000019" class="node">
<title>Node19</title>
<g id="a_Node000019"><a xlink:href="ft__echo_8c.html#a177f72f5eedf5cdf35c113ae47966c4b" target="_top" xlink:title="Builtin function for the echo command.">
<polygon fill="white" stroke="#666666" points="994.5,-74.87 942.5,-74.87 942.5,-55.87 994.5,-55.87 994.5,-74.87"/>
<text text-anchor="middle" x="968.5" y="-62.87" font-family="Helvetica,sans-Serif" font-size="10.00">ft_echo</text>
</a>
</g>
</g>
<!-- Node17&#45;&gt;Node19 -->
<g id="edge24_Node000017_Node000019" class="edge">
<title>Node17&#45;&gt;Node19</title>
<g id="a_edge24_Node000017_Node000019"><a xlink:title=" ">
<path fill="none" stroke="#63b8ff" d="M1225.37,-159.07C1211.25,-144.49 1189.17,-124.16 1166,-112.37 1108.94,-83.35 1033.37,-71.82 994.68,-67.59"/>
<polygon fill="#63b8ff" stroke="#63b8ff" points="1222.95,-161.61 1232.36,-166.49 1228.05,-156.81 1222.95,-161.61"/>
</a>
</g>
</g>
<!-- Node20 -->
<g id="Node000020" class="node">
<title>Node20</title>
<g id="a_Node000020"><a xlink:href="env_8c.html#a6a15443c9c0b34afef3d21f19e385995" target="_top" xlink:title="Builtin function for the env command.">
<polygon fill="white" stroke="#666666" points="992,-37.87 945,-37.87 945,-18.87 992,-18.87 992,-37.87"/>
<text text-anchor="middle" x="968.5" y="-25.87" font-family="Helvetica,sans-Serif" font-size="10.00">ft_env</text>
</a>
</g>
</g>
<!-- Node17&#45;&gt;Node20 -->
<g id="edge27_Node000017_Node000020" class="edge">
<title>Node17&#45;&gt;Node20</title>
<g id="a_edge27_Node000017_Node000020"><a xlink:title=" ">
<path fill="none" stroke="#63b8ff" d="M1232.89,-157.61C1221.53,-133.68 1198.56,-92.85 1166,-71.37 1111.19,-35.23 1030.91,-28.98 992.13,-28.21"/>
<polygon fill="#63b8ff" stroke="#63b8ff" points="1229.71,-159.07 1237.04,-166.72 1236.08,-156.17 1229.71,-159.07"/>
</a>
</g>
</g>
<!-- Node21 -->
<g id="Node000021" class="node">
<title>Node21</title>
<g id="a_Node000021"><a xlink:href="exit_8c.html#a31166fb7eed428449a3e6183d4fa1642" target="_top" xlink:title="Checks if there are too many arguments for the exit command.">
<polygon fill="white" stroke="#666666" points="1155,-299.87 1060,-299.87 1060,-280.87 1155,-280.87 1155,-299.87"/>
<text text-anchor="middle" x="1107.5" y="-287.87" font-family="Helvetica,sans-Serif" font-size="10.00">ft_exit_too_args</text>
</a>
</g>
</g>
<!-- Node17&#45;&gt;Node21 -->
<g id="edge33_Node000017_Node000021" class="edge">
<title>Node17&#45;&gt;Node21</title>
<g id="a_edge33_Node000017_Node000021"><a xlink:title=" ">
<path fill="none" stroke="#63b8ff" d="M1229.72,-194.58C1216.57,-214.53 1193.13,-246.35 1166,-266.37 1157.91,-272.34 1148.1,-277.15 1138.9,-280.84"/>
<polygon fill="#63b8ff" stroke="#63b8ff" points="1232.72,-196.39 1235.17,-186.09 1226.83,-192.61 1232.72,-196.39"/>
</a>
</g>
</g>
<!-- Node22 -->
<g id="Node000022" class="node">
<title>Node22</title>
<g id="a_Node000022"><a xlink:href="export_8c.html#a2b0f2ba2e9188c7b4f6ca5a44c1d0c8e" target="_top" xlink:title="Builtin function for the export command.">
<polygon fill="white" stroke="#666666" points="998.5,-222.87 938.5,-222.87 938.5,-203.87 998.5,-203.87 998.5,-222.87"/>
<text text-anchor="middle" x="968.5" y="-210.87" font-family="Helvetica,sans-Serif" font-size="10.00">ft_export</text>
</a>
</g>
</g>
<!-- Node17&#45;&gt;Node22 -->
<g id="edge35_Node000017_Node000022" class="edge">
<title>Node17&#45;&gt;Node22</title>
<g id="a_edge35_Node000017_Node000022"><a xlink:title=" ">
<path fill="none" stroke="#63b8ff" d="M1191.85,-186.04C1183.25,-187.59 1174.38,-189.1 1166,-190.37 1106.74,-199.36 1036.97,-206.78 998.55,-210.6"/>
<polygon fill="#63b8ff" stroke="#63b8ff" points="1192.57,-189.47 1201.77,-184.21 1191.3,-182.58 1192.57,-189.47"/>
</a>
</g>
</g>
<!-- Node23 -->
<g id="Node000023" class="node">
<title>Node23</title>
<g id="a_Node000023"><a xlink:href="pwd_8c.html#a445dbcbb87f52cdbb07a078f21b198c4" target="_top" xlink:title="Builtin function for the pwd (print working directory) command.">
<polygon fill="white" stroke="#666666" points="993,-185.87 944,-185.87 944,-166.87 993,-166.87 993,-185.87"/>
<text text-anchor="middle" x="968.5" y="-173.87" font-family="Helvetica,sans-Serif" font-size="10.00">ft_pwd</text>
</a>
</g>
</g>
<!-- Node17&#45;&gt;Node23 -->
<g id="edge38_Node000017_Node000023" class="edge">
<title>Node17&#45;&gt;Node23</title>
<g id="a_edge38_Node000017_Node000023"><a xlink:title=" ">
<path fill="none" stroke="#63b8ff" d="M1191.64,-176.37C1132.85,-176.37 1037.08,-176.37 993.03,-176.37"/>
<polygon fill="#63b8ff" stroke="#63b8ff" points="1191.81,-179.87 1201.81,-176.37 1191.81,-172.87 1191.81,-179.87"/>
</a>
</g>
</g>
<!-- Node24 -->
<g id="Node000024" class="node">
<title>Node24</title>
<g id="a_Node000024"><a xlink:href="unset_8c.html#afc37f76bba8f618bcf9eaafa7ee23618" target="_top" xlink:title="Builtin function for the unset command.">
<polygon fill="white" stroke="#666666" points="996.5,-148.87 940.5,-148.87 940.5,-129.87 996.5,-129.87 996.5,-148.87"/>
<text text-anchor="middle" x="968.5" y="-136.87" font-family="Helvetica,sans-Serif" font-size="10.00">ft_unset</text>
</a>
</g>
</g>
<!-- Node17&#45;&gt;Node24 -->
<g id="edge41_Node000017_Node000024" class="edge">
<title>Node17&#45;&gt;Node24</title>
<g id="a_edge41_Node000017_Node000024"><a xlink:title=" ">
<path fill="none" stroke="#63b8ff" d="M1191.56,-169.63C1134.36,-161.84 1042.24,-149.28 996.73,-143.08"/>
<polygon fill="#63b8ff" stroke="#63b8ff" points="1191.43,-173.15 1201.81,-171.03 1192.38,-166.21 1191.43,-173.15"/>
</a>
</g>
</g>
<!-- Node18&#45;&gt;Node5 -->
<g id="edge22_Node000018_Node000005" class="edge">
<title>Node18&#45;&gt;Node5</title>
<g id="a_edge22_Node000018_Node000005"><a xlink:title=" ">
<path fill="none" stroke="#63b8ff" d="M939.24,-112.87C933.98,-115.33 928.68,-118.18 924,-121.37 905.31,-134.12 906.91,-144.95 888,-157.37 882.38,-161.06 875.94,-164.22 869.63,-166.84"/>
<polygon fill="#63b8ff" stroke="#63b8ff" points="940.7,-116.05 948.5,-108.88 937.93,-109.62 940.7,-116.05"/>
</a>
</g>
</g>
<!-- Node18&#45;&gt;Node11 -->
<g id="edge23_Node000018_Node000011" class="edge">
<title>Node18&#45;&gt;Node11</title>
<g id="a_edge23_Node000018_Node000011"><a xlink:title=" ">
<path fill="none" stroke="#63b8ff" d="M938.7,-110.5C919.46,-115.94 894.07,-123.1 873.86,-128.81"/>
<polygon fill="#63b8ff" stroke="#63b8ff" points="939.74,-113.85 948.41,-107.76 937.84,-107.11 939.74,-113.85"/>
</a>
</g>
</g>
<!-- Node19&#45;&gt;Node5 -->
<g id="edge25_Node000019_Node000005" class="edge">
<title>Node19&#45;&gt;Node5</title>
<g id="a_edge25_Node000019_Node000005"><a xlink:title=" ">
<path fill="none" stroke="#63b8ff" d="M933.18,-77.51C929.86,-79.49 926.72,-81.77 924,-84.37 897.83,-109.35 914.6,-132.85 888,-157.37 883.91,-161.14 878.99,-164.19 873.88,-166.66"/>
<polygon fill="#63b8ff" stroke="#63b8ff" points="934.89,-80.56 942.21,-72.9 931.71,-74.33 934.89,-80.56"/>
</a>
</g>
</g>
<!-- Node19&#45;&gt;Node11 -->
<g id="edge26_Node000019_Node000011" class="edge">
<title>Node19&#45;&gt;Node11</title>
<g id="a_edge26_Node000019_Node000011"><a xlink:title=" ">
<path fill="none" stroke="#63b8ff" d="M934.38,-79.17C930.84,-80.85 927.32,-82.59 924,-84.37 898.17,-98.2 869.84,-117.3 853.56,-128.69"/>
<polygon fill="#63b8ff" stroke="#63b8ff" points="936.03,-82.27 943.69,-74.95 933.14,-75.89 936.03,-82.27"/>
</a>
</g>
</g>
<!-- Node20&#45;&gt;Node5 -->
<g id="edge28_Node000020_Node000005" class="edge">
<title>Node20&#45;&gt;Node5</title>
<g id="a_edge28_Node000020_Node000005"><a xlink:title=" ">
<path fill="none" stroke="#63b8ff" d="M935.76,-38.37C931.4,-40.79 927.29,-43.75 924,-47.37 889.4,-85.44 923.25,-119.91 888,-157.37 884.44,-161.16 880.03,-164.2 875.33,-166.65"/>
<polygon fill="#63b8ff" stroke="#63b8ff" points="937.29,-41.52 944.9,-34.14 934.36,-35.16 937.29,-41.52"/>
</a>
</g>
</g>
<!-- Node20&#45;&gt;Node11 -->
<g id="edge29_Node000020_Node000011" class="edge">
<title>Node20&#45;&gt;Node11</title>
<g id="a_edge29_Node000020_Node000011"><a xlink:title=" ">
<path fill="none" stroke="#63b8ff" d="M935.51,-40.5C931.49,-42.55 927.55,-44.84 924,-47.37 890.37,-71.31 859.93,-110.53 846.82,-128.64"/>
<polygon fill="#63b8ff" stroke="#63b8ff" points="937.26,-43.55 944.87,-36.17 934.32,-37.19 937.26,-43.55"/>
</a>
</g>
</g>
<!-- Node21&#45;&gt;Node10 -->
<g id="edge34_Node000021_Node000010" class="edge">
<title>Node21&#45;&gt;Node10</title>
<g id="a_edge34_Node000021_Node000010"><a xlink:title=" ">
<path fill="none" stroke="#63b8ff" d="M1049.66,-290.37C1029.49,-290.37 1007.93,-290.37 992.25,-290.37"/>
<polygon fill="#63b8ff" stroke="#63b8ff" points="1049.74,-293.87 1059.74,-290.37 1049.74,-286.87 1049.74,-293.87"/>
</a>
</g>
</g>
<!-- Node22&#45;&gt;Node5 -->
<g id="edge36_Node000022_Node000005" class="edge">
<title>Node22&#45;&gt;Node5</title>
<g id="a_edge36_Node000022_Node000005"><a xlink:title=" ">
<path fill="none" stroke="#63b8ff" d="M928.25,-201.98C910.61,-196.86 890.02,-190.89 873.16,-185.99"/>
<polygon fill="#63b8ff" stroke="#63b8ff" points="927.67,-205.46 938.25,-204.88 929.62,-198.73 927.67,-205.46"/>
</a>
</g>
</g>
<!-- Node22&#45;&gt;Node11 -->
<g id="edge37_Node000022_Node000011" class="edge">
<title>Node22&#45;&gt;Node11</title>
<g id="a_edge37_Node000022_Node000011"><a xlink:title=" ">
<path fill="none" stroke="#63b8ff" d="M930.05,-199.08C927.96,-197.91 925.92,-196.68 924,-195.37 905.01,-182.5 906.98,-171.27 888,-158.37 882.03,-154.31 875.1,-150.84 868.4,-147.98"/>
<polygon fill="#63b8ff" stroke="#63b8ff" points="928.96,-202.45 939.48,-203.76 932.08,-196.18 928.96,-202.45"/>
</a>
</g>
</g>
<!-- Node23&#45;&gt;Node5 -->
<g id="edge39_Node000023_Node000005" class="edge">
<title>Node23&#45;&gt;Node5</title>
<g id="a_edge39_Node000023_Node000005"><a xlink:title=" ">
<path fill="none" stroke="#63b8ff" d="M933.71,-176.37C915.63,-176.37 893.39,-176.37 875.11,-176.37"/>
<polygon fill="#63b8ff" stroke="#63b8ff" points="933.82,-179.87 943.82,-176.37 933.82,-172.87 933.82,-179.87"/>
</a>
</g>
</g>
<!-- Node23&#45;&gt;Node11 -->
<g id="edge40_Node000023_Node000011" class="edge">
<title>Node23&#45;&gt;Node11</title>
<g id="a_edge40_Node000023_Node000011"><a xlink:title=" ">
<path fill="none" stroke="#63b8ff" d="M934.03,-166.4C914.93,-160.7 891.1,-153.6 872.21,-147.97"/>
<polygon fill="#63b8ff" stroke="#63b8ff" points="933.23,-169.81 943.82,-169.31 935.23,-163.1 933.23,-169.81"/>
</a>
</g>
</g>
<!-- Node24&#45;&gt;Node5 -->
<g id="edge42_Node000024_Node000005" class="edge">
<title>Node24&#45;&gt;Node5</title>
<g id="a_edge42_Node000024_Node000005"><a xlink:title=" ">
<path fill="none" stroke="#63b8ff" d="M930.74,-150.04C912.47,-155.34 890.59,-161.69 872.89,-166.83"/>
<polygon fill="#63b8ff" stroke="#63b8ff" points="931.83,-153.37 940.46,-147.22 929.88,-146.64 931.83,-153.37"/>
</a>
</g>
</g>
<!-- Node24&#45;&gt;Node11 -->
<g id="edge43_Node000024_Node000011" class="edge">
<title>Node24&#45;&gt;Node11</title>
<g id="a_edge43_Node000024_Node000011"><a xlink:title=" ">
<path fill="none" stroke="#63b8ff" d="M930.33,-139.08C917.14,-138.98 902.09,-138.86 888.11,-138.75"/>
<polygon fill="#63b8ff" stroke="#63b8ff" points="930.43,-142.58 940.46,-139.16 930.49,-135.58 930.43,-142.58"/>
</a>
</g>
</g>
</g>
</svg>
