<?xml version="1.0" encoding="UTF-8" standalone="no"?>
<!DOCTYPE svg PUBLIC "-//W3C//DTD SVG 1.1//EN"
 "http://www.w3.org/Graphics/SVG/1.1/DTD/svg11.dtd">
<!-- Generated by graphviz version 2.43.0 (0)
 -->
<!-- Title: command_list/command.h Pages: 1 -->
<svg width="484pt" height="148pt"
 viewBox="0.00 0.00 483.50 148.00" xmlns="http://www.w3.org/2000/svg" xmlns:xlink="http://www.w3.org/1999/xlink">
<g id="graph0" class="graph" transform="scale(1 1) rotate(0) translate(4 144)">
<title>command_list/command.h</title>
<!-- Node1 -->
<g id="Node000001" class="node">
<title>Node1</title>
<g id="a_Node000001"><a xlink:title=" ">
<polygon fill="#999999" stroke="#666666" points="265.5,-140 119.5,-140 119.5,-121 265.5,-121 265.5,-140"/>
<text text-anchor="middle" x="192.5" y="-128" font-family="Helvetica,sans-Serif" font-size="10.00">command_list/command.h</text>
</a>
</g>
</g>
<!-- Node2 -->
<g id="Node000002" class="node">
<title>Node2</title>
<g id="a_Node000002"><a xlink:href="create__command__list_8c.html" target="_top" xlink:title=" ">
<polygon fill="white" stroke="#666666" points="119,-85 0,-85 0,-55 119,-55 119,-85"/>
<text text-anchor="start" x="8" y="-73" font-family="Helvetica,sans-Serif" font-size="10.00">command_list/create</text>
<text text-anchor="middle" x="59.5" y="-62" font-family="Helvetica,sans-Serif" font-size="10.00">_command_list.c</text>
</a>
</g>
</g>
<!-- Node1&#45;&gt;Node2 -->
<g id="edge1_Node000001_Node000002" class="edge">
<title>Node1&#45;&gt;Node2</title>
<g id="a_edge1_Node000001_Node000002"><a xlink:title=" ">
<path fill="none" stroke="#63b8ff" d="M163.98,-116.95C142.68,-107.59 113.56,-94.78 91.48,-85.06"/>
<polygon fill="#63b8ff" stroke="#63b8ff" points="162.6,-120.17 173.16,-120.99 165.42,-113.76 162.6,-120.17"/>
</a>
</g>
</g>
<!-- Node3 -->
<g id="Node000003" class="node">
<title>Node3</title>
<g id="a_Node000003"><a xlink:href="utils__cmd__list_8c.html" target="_top" xlink:title=" ">
<polygon fill="white" stroke="#666666" points="247.5,-85 137.5,-85 137.5,-55 247.5,-55 247.5,-85"/>
<text text-anchor="start" x="145.5" y="-73" font-family="Helvetica,sans-Serif" font-size="10.00">command_list/utils</text>
<text text-anchor="middle" x="192.5" y="-62" font-family="Helvetica,sans-Serif" font-size="10.00">_cmd_list.c</text>
</a>
</g>
</g>
<!-- Node1&#45;&gt;Node3 -->
<g id="edge2_Node000001_Node000003" class="edge">
<title>Node1&#45;&gt;Node3</title>
<g id="a_edge2_Node000001_Node000003"><a xlink:title=" ">
<path fill="none" stroke="#63b8ff" d="M192.5,-110.65C192.5,-102.36 192.5,-92.78 192.5,-85.11"/>
<polygon fill="#63b8ff" stroke="#63b8ff" points="189,-110.87 192.5,-120.87 196,-110.87 189,-110.87"/>
</a>
</g>
</g>
<!-- Node4 -->
<g id="Node000004" class="node">
<title>Node4</title>
<g id="a_Node000004"><a xlink:href="minishell_8h.html" target="_top" xlink:title=" ">
<polygon fill="white" stroke="#666666" points="363.5,-79.5 265.5,-79.5 265.5,-60.5 363.5,-60.5 363.5,-79.5"/>
<text text-anchor="middle" x="314.5" y="-67.5" font-family="Helvetica,sans-Serif" font-size="10.00">main/minishell.h</text>
</a>
</g>
</g>
<!-- Node1&#45;&gt;Node4 -->
<g id="edge3_Node000001_Node000004" class="edge">
<title>Node1&#45;&gt;Node4</title>
<g id="a_edge3_Node000001_Node000004"><a xlink:title=" ">
<path fill="none" stroke="#63b8ff" d="M219.33,-116.63C242.86,-105.35 276.4,-89.27 296.74,-79.52"/>
<polygon fill="#63b8ff" stroke="#63b8ff" points="217.74,-113.51 210.24,-120.99 220.77,-119.83 217.74,-113.51"/>
</a>
</g>
</g>
<!-- Node5 -->
<g id="Node000005" class="node">
<title>Node5</title>
<g id="a_Node000005"><a xlink:href="cmd__execution_8c.html" target="_top" xlink:title=" ">
<polygon fill="white" stroke="#666666" points="257.5,-19 131.5,-19 131.5,0 257.5,0 257.5,-19"/>
<text text-anchor="middle" x="194.5" y="-7" font-family="Helvetica,sans-Serif" font-size="10.00">main/cmd_execution.c</text>
</a>
</g>
</g>
<!-- Node4&#45;&gt;Node5 -->
<g id="edge4_Node000004_Node000005" class="edge">
<title>Node4&#45;&gt;Node5</title>
<g id="a_edge4_Node000004_Node000005"><a xlink:title=" ">
<path fill="none" stroke="#63b8ff" d="M287.8,-55.98C264.67,-44.71 231.89,-28.73 211.97,-19.02"/>
<polygon fill="#63b8ff" stroke="#63b8ff" points="286.53,-59.26 297.05,-60.49 289.6,-52.97 286.53,-59.26"/>
</a>
</g>
</g>
<!-- Node6 -->
<g id="Node000006" class="node">
<title>Node6</title>
<g id="a_Node000006"><a xlink:href="main_8c.html" target="_top" xlink:title=" ">
<polygon fill="white" stroke="#666666" points="353,-19 276,-19 276,0 353,0 353,-19"/>
<text text-anchor="middle" x="314.5" y="-7" font-family="Helvetica,sans-Serif" font-size="10.00">main/main.c</text>
</a>
</g>
</g>
<!-- Node4&#45;&gt;Node6 -->
<g id="edge5_Node000004_Node000006" class="edge">
<title>Node4&#45;&gt;Node6</title>
<g id="a_edge5_Node000004_Node000006"><a xlink:title=" ">
<path fill="none" stroke="#63b8ff" d="M314.5,-50.16C314.5,-39.74 314.5,-27.3 314.5,-19.17"/>
<polygon fill="#63b8ff" stroke="#63b8ff" points="311,-50.37 314.5,-60.37 318,-50.37 311,-50.37"/>
</a>
</g>
</g>
<!-- Node7 -->
<g id="Node000007" class="node">
<title>Node7</title>
<g id="a_Node000007"><a xlink:href="main__utils_8c.html" target="_top" xlink:title=" ">
<polygon fill="white" stroke="#666666" points="475.5,-19 371.5,-19 371.5,0 475.5,0 475.5,-19"/>
<text text-anchor="middle" x="423.5" y="-7" font-family="Helvetica,sans-Serif" font-size="10.00">main/main_utils.c</text>
</a>
</g>
</g>
<!-- Node4&#45;&gt;Node7 -->
<g id="edge6_Node000004_Node000007" class="edge">
<title>Node4&#45;&gt;Node7</title>
<g id="a_edge6_Node000004_Node000007"><a xlink:title=" ">
<path fill="none" stroke="#63b8ff" d="M339.51,-55.58C360.36,-44.38 389.45,-28.77 407.35,-19.17"/>
<polygon fill="#63b8ff" stroke="#63b8ff" points="337.74,-52.56 330.58,-60.37 341.05,-58.72 337.74,-52.56"/>
</a>
</g>
</g>
</g>
</svg>
