<?xml version="1.0" encoding="UTF-8" standalone="no"?>
<!DOCTYPE svg PUBLIC "-//W3C//DTD SVG 1.1//EN"
 "http://www.w3.org/Graphics/SVG/1.1/DTD/svg11.dtd">
<!-- Generated by graphviz version 2.43.0 (0)
 -->
<!-- Title: handle_input_redirection Pages: 1 -->
<svg width="1398pt" height="339pt"
 viewBox="0.00 0.00 1398.00 338.50" xmlns="http://www.w3.org/2000/svg" xmlns:xlink="http://www.w3.org/1999/xlink">
<g id="graph0" class="graph" transform="scale(1 1) rotate(0) translate(4 334.5)">
<title>handle_input_redirection</title>
<!-- Node1 -->
<g id="Node000001" class="node">
<title>Node1</title>
<g id="a_Node000001"><a xlink:title="Handles input redirection from a file.">
<polygon fill="#999999" stroke="#666666" points="1390,-101.5 1253,-101.5 1253,-82.5 1390,-82.5 1390,-101.5"/>
<text text-anchor="middle" x="1321.5" y="-89.5" font-family="Helvetica,sans-Serif" font-size="10.00">handle_input_redirection</text>
</a>
</g>
</g>
<!-- Node2 -->
<g id="Node000002" class="node">
<title>Node2</title>
<g id="a_Node000002"><a xlink:href="utils__fd_8c.html#a184b4852a6ca5544cc056e7a8e20e4ad" target="_top" xlink:title="Handles opening and validating file descriptors for command input/output.">
<polygon fill="white" stroke="#666666" points="1186,-178.5 1129,-178.5 1129,-159.5 1186,-159.5 1186,-178.5"/>
<text text-anchor="middle" x="1157.5" y="-166.5" font-family="Helvetica,sans-Serif" font-size="10.00">ft_for_fd</text>
</a>
</g>
</g>
<!-- Node1&#45;&gt;Node2 -->
<g id="edge1_Node000001_Node000002" class="edge">
<title>Node1&#45;&gt;Node2</title>
<g id="a_edge1_Node000001_Node000002"><a xlink:title=" ">
<path fill="none" stroke="#63b8ff" d="M1291.28,-105.89C1258.74,-121.35 1207.02,-145.94 1178.69,-159.4"/>
<polygon fill="#63b8ff" stroke="#63b8ff" points="1292.78,-109.05 1300.31,-101.6 1289.78,-102.73 1292.78,-109.05"/>
</a>
</g>
</g>
<!-- Node21 -->
<g id="Node000021" class="node">
<title>Node21</title>
<g id="a_Node000021"><a xlink:href="handle__redirections_8c.html#a2834314002a1f4ef4af82f95159b0a34" target="_top" xlink:title="Handles input redirection from file or heredoc.">
<polygon fill="white" stroke="#666666" points="1217,-83.5 1098,-83.5 1098,-64.5 1217,-64.5 1217,-83.5"/>
<text text-anchor="middle" x="1157.5" y="-71.5" font-family="Helvetica,sans-Serif" font-size="10.00">ft_handle_infile_redir</text>
</a>
</g>
</g>
<!-- Node1&#45;&gt;Node21 -->
<g id="edge33_Node000001_Node000021" class="edge">
<title>Node1&#45;&gt;Node21</title>
<g id="a_edge33_Node000001_Node000021"><a xlink:title=" ">
<path fill="none" stroke="#63b8ff" d="M1242.72,-83.36C1234.15,-82.41 1225.53,-81.45 1217.24,-80.53"/>
<polygon fill="#63b8ff" stroke="#63b8ff" points="1242.41,-86.84 1252.74,-84.47 1243.18,-79.89 1242.41,-86.84"/>
</a>
</g>
</g>
<!-- Node3 -->
<g id="Node000003" class="node">
<title>Node3</title>
<g id="a_Node000003"><a xlink:href="ft__cd_8c.html#af438919e376d2d0df3830120118ea526" target="_top" xlink:title="Builtin function for the cd (change directory) command.">
<polygon fill="white" stroke="#666666" points="1017.5,-178.5 977.5,-178.5 977.5,-159.5 1017.5,-159.5 1017.5,-178.5"/>
<text text-anchor="middle" x="997.5" y="-166.5" font-family="Helvetica,sans-Serif" font-size="10.00">ft_cd</text>
</a>
</g>
</g>
<!-- Node2&#45;&gt;Node3 -->
<g id="edge2_Node000002_Node000003" class="edge">
<title>Node2&#45;&gt;Node3</title>
<g id="a_edge2_Node000002_Node000003"><a xlink:title=" ">
<path fill="none" stroke="#63b8ff" d="M1118.72,-169C1086.92,-169 1042.75,-169 1017.76,-169"/>
<polygon fill="#63b8ff" stroke="#63b8ff" points="1118.98,-172.5 1128.98,-169 1118.98,-165.5 1118.98,-172.5"/>
</a>
</g>
</g>
<!-- Node13 -->
<g id="Node000013" class="node">
<title>Node13</title>
<g id="a_Node000013"><a xlink:href="system__commands_8c.html#a6dfb68d4eb4b73539a6d36f36d23d093" target="_top" xlink:title="Function executed by the child process to run a command.">
<polygon fill="white" stroke="#666666" points="1023.5,-328.5 971.5,-328.5 971.5,-309.5 1023.5,-309.5 1023.5,-328.5"/>
<text text-anchor="middle" x="997.5" y="-316.5" font-family="Helvetica,sans-Serif" font-size="10.00">ft_child</text>
</a>
</g>
</g>
<!-- Node2&#45;&gt;Node13 -->
<g id="edge13_Node000002_Node000013" class="edge">
<title>Node2&#45;&gt;Node13</title>
<g id="a_edge13_Node000002_Node000013"><a xlink:title=" ">
<path fill="none" stroke="#63b8ff" d="M1147.64,-188.02C1133.49,-216.33 1103.15,-269.39 1062,-299 1050.74,-307.1 1036.09,-312 1023.69,-314.92"/>
<polygon fill="#63b8ff" stroke="#63b8ff" points="1150.89,-189.32 1152.11,-178.8 1144.6,-186.27 1150.89,-189.32"/>
</a>
</g>
</g>
<!-- Node15 -->
<g id="Node000015" class="node">
<title>Node15</title>
<g id="a_Node000015"><a xlink:href="ft__echo_8c.html#a177f72f5eedf5cdf35c113ae47966c4b" target="_top" xlink:title="Builtin function for the echo command.">
<polygon fill="white" stroke="#666666" points="1023.5,-104.5 971.5,-104.5 971.5,-85.5 1023.5,-85.5 1023.5,-104.5"/>
<text text-anchor="middle" x="997.5" y="-92.5" font-family="Helvetica,sans-Serif" font-size="10.00">ft_echo</text>
</a>
</g>
</g>
<!-- Node2&#45;&gt;Node15 -->
<g id="edge16_Node000002_Node000015" class="edge">
<title>Node2&#45;&gt;Node15</title>
<g id="a_edge16_Node000002_Node000015"><a xlink:title=" ">
<path fill="none" stroke="#63b8ff" d="M1133.93,-153.81C1115.27,-141.77 1087.75,-125.16 1062,-114 1049.75,-108.69 1035.57,-104.29 1023.71,-101.07"/>
<polygon fill="#63b8ff" stroke="#63b8ff" points="1132.05,-156.76 1142.33,-159.31 1135.88,-150.91 1132.05,-156.76"/>
</a>
</g>
</g>
<!-- Node16 -->
<g id="Node000016" class="node">
<title>Node16</title>
<g id="a_Node000016"><a xlink:href="env_8c.html#a6a15443c9c0b34afef3d21f19e385995" target="_top" xlink:title="Builtin function for the env command.">
<polygon fill="white" stroke="#666666" points="1021,-67.5 974,-67.5 974,-48.5 1021,-48.5 1021,-67.5"/>
<text text-anchor="middle" x="997.5" y="-55.5" font-family="Helvetica,sans-Serif" font-size="10.00">ft_env</text>
</a>
</g>
</g>
<!-- Node2&#45;&gt;Node16 -->
<g id="edge19_Node000002_Node000016" class="edge">
<title>Node2&#45;&gt;Node16</title>
<g id="a_edge19_Node000002_Node000016"><a xlink:title=" ">
<path fill="none" stroke="#63b8ff" d="M1143.05,-151.13C1126.31,-130.13 1095.78,-95.65 1062,-76 1049.42,-68.68 1033.69,-64.2 1021.04,-61.53"/>
<polygon fill="#63b8ff" stroke="#63b8ff" points="1140.45,-153.49 1149.35,-159.23 1145.97,-149.19 1140.45,-153.49"/>
</a>
</g>
</g>
<!-- Node17 -->
<g id="Node000017" class="node">
<title>Node17</title>
<g id="a_Node000017"><a xlink:href="pipes_8c.html#ac1cb08fe66e7823c939af4fab981e93c" target="_top" xlink:title="Executes a system command inside a pipe.">
<polygon fill="white" stroke="#666666" points="1062,-141.5 933,-141.5 933,-122.5 1062,-122.5 1062,-141.5"/>
<text text-anchor="middle" x="997.5" y="-129.5" font-family="Helvetica,sans-Serif" font-size="10.00">ft_exe_syscmd_in_pipe</text>
</a>
</g>
</g>
<!-- Node2&#45;&gt;Node17 -->
<g id="edge22_Node000002_Node000017" class="edge">
<title>Node2&#45;&gt;Node17</title>
<g id="a_edge22_Node000002_Node000017"><a xlink:title=" ">
<path fill="none" stroke="#63b8ff" d="M1119.18,-160.26C1095.18,-154.64 1064,-147.34 1039.34,-141.56"/>
<polygon fill="#63b8ff" stroke="#63b8ff" points="1118.44,-163.68 1128.98,-162.56 1120.04,-156.87 1118.44,-163.68"/>
</a>
</g>
</g>
<!-- Node18 -->
<g id="Node000018" class="node">
<title>Node18</title>
<g id="a_Node000018"><a xlink:href="export_8c.html#a2b0f2ba2e9188c7b4f6ca5a44c1d0c8e" target="_top" xlink:title="Builtin function for the export command.">
<polygon fill="white" stroke="#666666" points="1027.5,-289.5 967.5,-289.5 967.5,-270.5 1027.5,-270.5 1027.5,-289.5"/>
<text text-anchor="middle" x="997.5" y="-277.5" font-family="Helvetica,sans-Serif" font-size="10.00">ft_export</text>
</a>
</g>
</g>
<!-- Node2&#45;&gt;Node18 -->
<g id="edge24_Node000002_Node000018" class="edge">
<title>Node2&#45;&gt;Node18</title>
<g id="a_edge24_Node000002_Node000018"><a xlink:title=" ">
<path fill="none" stroke="#63b8ff" d="M1143.05,-186.87C1126.31,-207.87 1095.78,-242.35 1062,-262 1051.5,-268.11 1038.81,-272.24 1027.54,-274.99"/>
<polygon fill="#63b8ff" stroke="#63b8ff" points="1145.97,-188.81 1149.35,-178.77 1140.45,-184.51 1145.97,-188.81"/>
</a>
</g>
</g>
<!-- Node19 -->
<g id="Node000019" class="node">
<title>Node19</title>
<g id="a_Node000019"><a xlink:href="pwd_8c.html#a445dbcbb87f52cdbb07a078f21b198c4" target="_top" xlink:title="Builtin function for the pwd (print working directory) command.">
<polygon fill="white" stroke="#666666" points="1022,-252.5 973,-252.5 973,-233.5 1022,-233.5 1022,-252.5"/>
<text text-anchor="middle" x="997.5" y="-240.5" font-family="Helvetica,sans-Serif" font-size="10.00">ft_pwd</text>
</a>
</g>
</g>
<!-- Node2&#45;&gt;Node19 -->
<g id="edge27_Node000002_Node000019" class="edge">
<title>Node2&#45;&gt;Node19</title>
<g id="a_edge27_Node000002_Node000019"><a xlink:title=" ">
<path fill="none" stroke="#63b8ff" d="M1134.66,-184.16C1116.04,-196.54 1088.2,-213.75 1062,-225 1049.26,-230.47 1034.38,-234.79 1022.22,-237.83"/>
<polygon fill="#63b8ff" stroke="#63b8ff" points="1136.68,-187.02 1143.01,-178.53 1132.76,-181.22 1136.68,-187.02"/>
</a>
</g>
</g>
<!-- Node20 -->
<g id="Node000020" class="node">
<title>Node20</title>
<g id="a_Node000020"><a xlink:href="unset_8c.html#afc37f76bba8f618bcf9eaafa7ee23618" target="_top" xlink:title="Builtin function for the unset command.">
<polygon fill="white" stroke="#666666" points="1025.5,-215.5 969.5,-215.5 969.5,-196.5 1025.5,-196.5 1025.5,-215.5"/>
<text text-anchor="middle" x="997.5" y="-203.5" font-family="Helvetica,sans-Serif" font-size="10.00">ft_unset</text>
</a>
</g>
</g>
<!-- Node2&#45;&gt;Node20 -->
<g id="edge30_Node000002_Node000020" class="edge">
<title>Node2&#45;&gt;Node20</title>
<g id="a_edge30_Node000002_Node000020"><a xlink:title=" ">
<path fill="none" stroke="#63b8ff" d="M1118.92,-177.8C1090.25,-184.52 1051.43,-193.61 1025.71,-199.63"/>
<polygon fill="#63b8ff" stroke="#63b8ff" points="1120.04,-181.13 1128.98,-175.44 1118.44,-174.32 1120.04,-181.13"/>
</a>
</g>
</g>
<!-- Node4 -->
<g id="Node000004" class="node">
<title>Node4</title>
<g id="a_Node000004"><a xlink:href="cmd__execution_8c.html#a5ce7231f800cbacea6350cc1a32a59bd" target="_top" xlink:title="Executes a list of non&#45;pipelined commands.">
<polygon fill="white" stroke="#666666" points="744,-206.5 672,-206.5 672,-187.5 744,-187.5 744,-206.5"/>
<text text-anchor="middle" x="708" y="-194.5" font-family="Helvetica,sans-Serif" font-size="10.00">ft_exe_cmd</text>
</a>
</g>
</g>
<!-- Node3&#45;&gt;Node4 -->
<g id="edge3_Node000003_Node000004" class="edge">
<title>Node3&#45;&gt;Node4</title>
<g id="a_edge3_Node000003_Node000004"><a xlink:title=" ">
<path fill="none" stroke="#63b8ff" d="M967.05,-171.87C913.75,-177.06 801.5,-187.99 744.23,-193.57"/>
<polygon fill="#63b8ff" stroke="#63b8ff" points="967.58,-175.33 977.19,-170.88 966.9,-168.37 967.58,-175.33"/>
</a>
</g>
</g>
<!-- Node8 -->
<g id="Node000008" class="node">
<title>Node8</title>
<g id="a_Node000008"><a xlink:href="cmd__execution_8c.html#a50e59fa2e4621831a415d4038f697c56" target="_top" xlink:title="Executes a command within a pipeline.">
<polygon fill="white" stroke="#666666" points="892.5,-140.5 794.5,-140.5 794.5,-121.5 892.5,-121.5 892.5,-140.5"/>
<text text-anchor="middle" x="843.5" y="-128.5" font-family="Helvetica,sans-Serif" font-size="10.00">ft_exe_pipe_cmd</text>
</a>
</g>
</g>
<!-- Node3&#45;&gt;Node8 -->
<g id="edge7_Node000003_Node000008" class="edge">
<title>Node3&#45;&gt;Node8</title>
<g id="a_edge7_Node000003_Node000008"><a xlink:title=" ">
<path fill="none" stroke="#63b8ff" d="M967.28,-161.69C943.17,-155.67 908.77,-147.07 882.51,-140.5"/>
<polygon fill="#63b8ff" stroke="#63b8ff" points="966.7,-165.16 977.25,-164.19 968.4,-158.37 966.7,-165.16"/>
</a>
</g>
</g>
<!-- Node5 -->
<g id="Node000005" class="node">
<title>Node5</title>
<g id="a_Node000005"><a xlink:href="main__utils_8c.html#a7e8f478480ab6ab34d6f5eadaf6acdb9" target="_top" xlink:title="Handles parsing and execution of tokens.">
<polygon fill="white" stroke="#666666" points="273,-140.5 192,-140.5 192,-121.5 273,-121.5 273,-140.5"/>
<text text-anchor="middle" x="232.5" y="-128.5" font-family="Helvetica,sans-Serif" font-size="10.00">ft_token_flow</text>
</a>
</g>
</g>
<!-- Node4&#45;&gt;Node5 -->
<g id="edge4_Node000004_Node000005" class="edge">
<title>Node4&#45;&gt;Node5</title>
<g id="a_edge4_Node000004_Node000005"><a xlink:title=" ">
<path fill="none" stroke="#63b8ff" d="M661.53,-193.55C587.3,-187.49 435.69,-173.32 309,-150 295.31,-147.48 280.41,-143.91 267.5,-140.55"/>
<polygon fill="#63b8ff" stroke="#63b8ff" points="661.65,-197.07 671.9,-194.39 662.22,-190.1 661.65,-197.07"/>
</a>
</g>
</g>
<!-- Node6 -->
<g id="Node000006" class="node">
<title>Node6</title>
<g id="a_Node000006"><a xlink:href="main__utils_8c.html#ae35edfb8f1339d6f77f53c28eb2a2ed6" target="_top" xlink:title="Handles a complete cycle of input → parsing → execution.">
<polygon fill="white" stroke="#666666" points="156,-140.5 77,-140.5 77,-121.5 156,-121.5 156,-140.5"/>
<text text-anchor="middle" x="116.5" y="-128.5" font-family="Helvetica,sans-Serif" font-size="10.00">ft_main_flow</text>
</a>
</g>
</g>
<!-- Node5&#45;&gt;Node6 -->
<g id="edge5_Node000005_Node000006" class="edge">
<title>Node5&#45;&gt;Node6</title>
<g id="a_edge5_Node000005_Node000006"><a xlink:title=" ">
<path fill="none" stroke="#63b8ff" d="M181.7,-131C173.16,-131 164.4,-131 156.21,-131"/>
<polygon fill="#63b8ff" stroke="#63b8ff" points="181.95,-134.5 191.95,-131 181.95,-127.5 181.95,-134.5"/>
</a>
</g>
</g>
<!-- Node7 -->
<g id="Node000007" class="node">
<title>Node7</title>
<g id="a_Node000007"><a xlink:href="main_8c.html#ab3862b46d6a8d13c2d884a297e6b05b5" target="_top" xlink:title="Main function of the minishell.">
<polygon fill="white" stroke="#666666" points="41,-140.5 0,-140.5 0,-121.5 41,-121.5 41,-140.5"/>
<text text-anchor="middle" x="20.5" y="-128.5" font-family="Helvetica,sans-Serif" font-size="10.00">main</text>
</a>
</g>
</g>
<!-- Node6&#45;&gt;Node7 -->
<g id="edge6_Node000006_Node000007" class="edge">
<title>Node6&#45;&gt;Node7</title>
<g id="a_edge6_Node000006_Node000007"><a xlink:title=" ">
<path fill="none" stroke="#63b8ff" d="M66.74,-131C57.62,-131 48.59,-131 41.03,-131"/>
<polygon fill="#63b8ff" stroke="#63b8ff" points="67,-134.5 77,-131 67,-127.5 67,-134.5"/>
</a>
</g>
</g>
<!-- Node9 -->
<g id="Node000009" class="node">
<title>Node9</title>
<g id="a_Node000009"><a xlink:href="pipes_8c.html#a36a2d91a0566ad253efe3833b05e69d1" target="_top" xlink:title="Routine executed by the child process for each command in the pipe.">
<polygon fill="white" stroke="#666666" points="754,-140.5 662,-140.5 662,-121.5 754,-121.5 754,-140.5"/>
<text text-anchor="middle" x="708" y="-128.5" font-family="Helvetica,sans-Serif" font-size="10.00">ft_child_routine</text>
</a>
</g>
</g>
<!-- Node8&#45;&gt;Node9 -->
<g id="edge8_Node000008_Node000009" class="edge">
<title>Node8&#45;&gt;Node9</title>
<g id="a_edge8_Node000008_Node000009"><a xlink:title=" ">
<path fill="none" stroke="#63b8ff" d="M784.28,-131C774.14,-131 763.73,-131 754.01,-131"/>
<polygon fill="#63b8ff" stroke="#63b8ff" points="784.3,-134.5 794.3,-131 784.3,-127.5 784.3,-134.5"/>
</a>
</g>
</g>
<!-- Node10 -->
<g id="Node000010" class="node">
<title>Node10</title>
<g id="a_Node000010"><a xlink:href="pipes_8c.html#aa17e847997e7266a0a111ab3572756bb" target="_top" xlink:title="Manages pipe creation and fork to execute the current command.">
<polygon fill="white" stroke="#666666" points="626,-140.5 537,-140.5 537,-121.5 626,-121.5 626,-140.5"/>
<text text-anchor="middle" x="581.5" y="-128.5" font-family="Helvetica,sans-Serif" font-size="10.00">ft_pipe_routine</text>
</a>
</g>
</g>
<!-- Node9&#45;&gt;Node10 -->
<g id="edge9_Node000009_Node000010" class="edge">
<title>Node9&#45;&gt;Node10</title>
<g id="a_edge9_Node000009_Node000010"><a xlink:title=" ">
<path fill="none" stroke="#63b8ff" d="M651.52,-131C643.08,-131 634.46,-131 626.31,-131"/>
<polygon fill="#63b8ff" stroke="#63b8ff" points="651.7,-134.5 661.7,-131 651.7,-127.5 651.7,-134.5"/>
</a>
</g>
</g>
<!-- Node11 -->
<g id="Node000011" class="node">
<title>Node11</title>
<g id="a_Node000011"><a xlink:href="pipes_8c.html#a7a3b0de1a88a243da741f748881e14f0" target="_top" xlink:title="Executes a list of commands connected via pipes.">
<polygon fill="white" stroke="#666666" points="501,-140.5 420,-140.5 420,-121.5 501,-121.5 501,-140.5"/>
<text text-anchor="middle" x="460.5" y="-128.5" font-family="Helvetica,sans-Serif" font-size="10.00">execute_pipe</text>
</a>
</g>
</g>
<!-- Node10&#45;&gt;Node11 -->
<g id="edge10_Node000010_Node000011" class="edge">
<title>Node10&#45;&gt;Node11</title>
<g id="a_edge10_Node000010_Node000011"><a xlink:title=" ">
<path fill="none" stroke="#63b8ff" d="M526.85,-131C518.22,-131 509.42,-131 501.19,-131"/>
<polygon fill="#63b8ff" stroke="#63b8ff" points="526.86,-134.5 536.86,-131 526.86,-127.5 526.86,-134.5"/>
</a>
</g>
</g>
<!-- Node12 -->
<g id="Node000012" class="node">
<title>Node12</title>
<g id="a_Node000012"><a xlink:href="main__utils_8c.html#ad0183732909ae6e7c52e7b086c2e5642" target="_top" xlink:title="Manages the execution flow of commands with pipes.">
<polygon fill="white" stroke="#666666" points="384,-140.5 309,-140.5 309,-121.5 384,-121.5 384,-140.5"/>
<text text-anchor="middle" x="346.5" y="-128.5" font-family="Helvetica,sans-Serif" font-size="10.00">ft_pipe_flow</text>
</a>
</g>
</g>
<!-- Node11&#45;&gt;Node12 -->
<g id="edge11_Node000011_Node000012" class="edge">
<title>Node11&#45;&gt;Node12</title>
<g id="a_edge11_Node000011_Node000012"><a xlink:title=" ">
<path fill="none" stroke="#63b8ff" d="M409.47,-131C400.96,-131 392.26,-131 384.18,-131"/>
<polygon fill="#63b8ff" stroke="#63b8ff" points="409.7,-134.5 419.7,-131 409.7,-127.5 409.7,-134.5"/>
</a>
</g>
</g>
<!-- Node12&#45;&gt;Node5 -->
<g id="edge12_Node000012_Node000005" class="edge">
<title>Node12&#45;&gt;Node5</title>
<g id="a_edge12_Node000012_Node000005"><a xlink:title=" ">
<path fill="none" stroke="#63b8ff" d="M298.73,-131C290.29,-131 281.57,-131 273.35,-131"/>
<polygon fill="#63b8ff" stroke="#63b8ff" points="298.83,-134.5 308.83,-131 298.83,-127.5 298.83,-134.5"/>
</a>
</g>
</g>
<!-- Node14 -->
<g id="Node000014" class="node">
<title>Node14</title>
<g id="a_Node000014"><a xlink:href="system__commands_8c.html#a6d8647dce4277e848c613bd0cc3df5bb" target="_top" xlink:title="Executes a system command by creating a child process.">
<polygon fill="white" stroke="#666666" points="888,-330.5 799,-330.5 799,-311.5 888,-311.5 888,-330.5"/>
<text text-anchor="middle" x="843.5" y="-318.5" font-family="Helvetica,sans-Serif" font-size="10.00">ft_exe_syscmd</text>
</a>
</g>
</g>
<!-- Node13&#45;&gt;Node14 -->
<g id="edge14_Node000013_Node000014" class="edge">
<title>Node13&#45;&gt;Node14</title>
<g id="a_edge14_Node000013_Node000014"><a xlink:title=" ">
<path fill="none" stroke="#63b8ff" d="M961.26,-319.46C939.45,-319.75 911.3,-320.12 888.1,-320.43"/>
<polygon fill="#63b8ff" stroke="#63b8ff" points="961.45,-322.96 971.4,-319.33 961.36,-315.96 961.45,-322.96"/>
</a>
</g>
</g>
<!-- Node14&#45;&gt;Node4 -->
<g id="edge15_Node000014_Node000004" class="edge">
<title>Node14&#45;&gt;Node4</title>
<g id="a_edge15_Node000014_Node000004"><a xlink:title=" ">
<path fill="none" stroke="#63b8ff" d="M805.89,-306.94C800.32,-304.05 794.82,-300.74 790,-297 755.57,-270.31 726.59,-226.26 714.74,-206.78"/>
<polygon fill="#63b8ff" stroke="#63b8ff" points="804.72,-310.25 815.25,-311.38 807.72,-303.93 804.72,-310.25"/>
</a>
</g>
</g>
<!-- Node15&#45;&gt;Node4 -->
<g id="edge17_Node000015_Node000004" class="edge">
<title>Node15&#45;&gt;Node4</title>
<g id="a_edge17_Node000015_Node000004"><a xlink:title=" ">
<path fill="none" stroke="#63b8ff" d="M961,-90.81C918.23,-87.36 845.24,-86.64 790,-113 788.85,-113.55 739.08,-165.53 718.14,-187.44"/>
<polygon fill="#63b8ff" stroke="#63b8ff" points="960.92,-94.32 971.2,-91.74 961.55,-87.35 960.92,-94.32"/>
</a>
</g>
</g>
<!-- Node15&#45;&gt;Node8 -->
<g id="edge18_Node000015_Node000008" class="edge">
<title>Node15&#45;&gt;Node8</title>
<g id="a_edge18_Node000015_Node000008"><a xlink:title=" ">
<path fill="none" stroke="#63b8ff" d="M961.44,-103.3C938.57,-108.72 908.65,-115.81 884.81,-121.45"/>
<polygon fill="#63b8ff" stroke="#63b8ff" points="962.48,-106.66 971.4,-100.94 960.86,-99.84 962.48,-106.66"/>
</a>
</g>
</g>
<!-- Node16&#45;&gt;Node4 -->
<g id="edge20_Node000016_Node000004" class="edge">
<title>Node16&#45;&gt;Node4</title>
<g id="a_edge20_Node000016_Node000004"><a xlink:title=" ">
<path fill="none" stroke="#63b8ff" d="M963.69,-53.98C920.11,-50.41 842.53,-50.32 790,-86 763,-104.34 773.44,-123.78 754,-150 743.64,-163.97 729.46,-178.14 719.8,-187.22"/>
<polygon fill="#63b8ff" stroke="#63b8ff" points="963.46,-57.48 973.74,-54.92 964.11,-50.51 963.46,-57.48"/>
</a>
</g>
</g>
<!-- Node16&#45;&gt;Node8 -->
<g id="edge21_Node000016_Node000008" class="edge">
<title>Node16&#45;&gt;Node8</title>
<g id="a_edge21_Node000016_Node000008"><a xlink:title=" ">
<path fill="none" stroke="#63b8ff" d="M964.15,-65.29C953.97,-68.08 942.83,-71.66 933,-76 904.38,-88.65 874.02,-109.32 857.35,-121.39"/>
<polygon fill="#63b8ff" stroke="#63b8ff" points="965.12,-68.66 973.93,-62.77 963.37,-61.88 965.12,-68.66"/>
</a>
</g>
</g>
<!-- Node17&#45;&gt;Node8 -->
<g id="edge23_Node000017_Node000008" class="edge">
<title>Node17&#45;&gt;Node8</title>
<g id="a_edge23_Node000017_Node000008"><a xlink:title=" ">
<path fill="none" stroke="#63b8ff" d="M922.72,-131.51C912.47,-131.45 902.17,-131.38 892.56,-131.32"/>
<polygon fill="#63b8ff" stroke="#63b8ff" points="922.9,-135.02 932.92,-131.58 922.94,-128.02 922.9,-135.02"/>
</a>
</g>
</g>
<!-- Node18&#45;&gt;Node4 -->
<g id="edge25_Node000018_Node000004" class="edge">
<title>Node18&#45;&gt;Node4</title>
<g id="a_edge25_Node000018_Node000004"><a xlink:title=" ">
<path fill="none" stroke="#63b8ff" d="M957.38,-274.87C915.25,-268.66 846.65,-256.53 790,-237 766.57,-228.92 741.21,-215.58 725.22,-206.55"/>
<polygon fill="#63b8ff" stroke="#63b8ff" points="957.1,-278.37 967.49,-276.33 958.09,-271.44 957.1,-278.37"/>
</a>
</g>
</g>
<!-- Node18&#45;&gt;Node8 -->
<g id="edge26_Node000018_Node000008" class="edge">
<title>Node18&#45;&gt;Node8</title>
<g id="a_edge26_Node000018_Node000008"><a xlink:title=" ">
<path fill="none" stroke="#63b8ff" d="M957.47,-273.56C948.88,-270.92 940.21,-267.21 933,-262 887.42,-229.01 858.09,-164.85 848.21,-140.6"/>
<polygon fill="#63b8ff" stroke="#63b8ff" points="956.86,-277.02 967.42,-276.18 958.65,-270.25 956.86,-277.02"/>
</a>
</g>
</g>
<!-- Node19&#45;&gt;Node4 -->
<g id="edge28_Node000019_Node000004" class="edge">
<title>Node19&#45;&gt;Node4</title>
<g id="a_edge28_Node000019_Node000004"><a xlink:title=" ">
<path fill="none" stroke="#63b8ff" d="M962.88,-239.32C921.9,-234.63 850.61,-225.82 790,-215 774.97,-212.32 758.5,-208.77 744.36,-205.53"/>
<polygon fill="#63b8ff" stroke="#63b8ff" points="962.53,-242.8 972.86,-240.45 963.32,-235.85 962.53,-242.8"/>
</a>
</g>
</g>
<!-- Node19&#45;&gt;Node8 -->
<g id="edge29_Node000019_Node000008" class="edge">
<title>Node19&#45;&gt;Node8</title>
<g id="a_edge29_Node000019_Node000008"><a xlink:title=" ">
<path fill="none" stroke="#63b8ff" d="M963.13,-237.13C952.98,-234.42 942.11,-230.53 933,-225 895.64,-202.31 863.85,-159.65 850.82,-140.6"/>
<polygon fill="#63b8ff" stroke="#63b8ff" points="962.41,-240.56 972.95,-239.46 964.03,-233.75 962.41,-240.56"/>
</a>
</g>
</g>
<!-- Node20&#45;&gt;Node4 -->
<g id="edge31_Node000020_Node000004" class="edge">
<title>Node20&#45;&gt;Node4</title>
<g id="a_edge31_Node000020_Node000004"><a xlink:title=" ">
<path fill="none" stroke="#63b8ff" d="M959.29,-204.84C903.47,-203.09 798.78,-199.81 744.17,-198.1"/>
<polygon fill="#63b8ff" stroke="#63b8ff" points="959.35,-208.34 969.45,-205.15 959.57,-201.34 959.35,-208.34"/>
</a>
</g>
</g>
<!-- Node20&#45;&gt;Node8 -->
<g id="edge32_Node000020_Node000008" class="edge">
<title>Node20&#45;&gt;Node8</title>
<g id="a_edge32_Node000020_Node000008"><a xlink:title=" ">
<path fill="none" stroke="#63b8ff" d="M959.55,-197.52C950.67,-194.94 941.35,-191.77 933,-188 903.85,-174.84 873.2,-153.03 856.72,-140.55"/>
<polygon fill="#63b8ff" stroke="#63b8ff" points="958.74,-200.92 969.31,-200.18 960.58,-194.17 958.74,-200.92"/>
</a>
</g>
</g>
<!-- Node22 -->
<g id="Node000022" class="node">
<title>Node22</title>
<g id="a_Node000022"><a xlink:href="handle__redirections_8c.html#aa4509a43f47ed881eb2d81fb81458466" target="_top" xlink:title="Handles redirections without an associated command.">
<polygon fill="white" stroke="#666666" points="1054,-30 941,-30 941,0 1054,0 1054,-30"/>
<text text-anchor="start" x="949" y="-18" font-family="Helvetica,sans-Serif" font-size="10.00">handle_redirection</text>
<text text-anchor="middle" x="997.5" y="-7" font-family="Helvetica,sans-Serif" font-size="10.00">_without_command</text>
</a>
</g>
</g>
<!-- Node21&#45;&gt;Node22 -->
<g id="edge34_Node000021_Node000022" class="edge">
<title>Node21&#45;&gt;Node22</title>
<g id="a_edge34_Node000021_Node000022"><a xlink:title=" ">
<path fill="none" stroke="#63b8ff" d="M1121.17,-60.81C1096.74,-51.68 1064.18,-39.53 1038.75,-30.03"/>
<polygon fill="#63b8ff" stroke="#63b8ff" points="1120.17,-64.17 1130.76,-64.39 1122.62,-57.61 1120.17,-64.17"/>
</a>
</g>
</g>
<!-- Node23 -->
<g id="Node000023" class="node">
<title>Node23</title>
<g id="a_Node000023"><a xlink:href="handle__redirections_8c.html#ab2c37fefb1291d3f8d0dc91e8c096334" target="_top" xlink:title="Handles redirection associated with a command.">
<polygon fill="white" stroke="#666666" points="897,-25.5 790,-25.5 790,-6.5 897,-6.5 897,-25.5"/>
<text text-anchor="middle" x="843.5" y="-13.5" font-family="Helvetica,sans-Serif" font-size="10.00">handle_redirection</text>
</a>
</g>
</g>
<!-- Node22&#45;&gt;Node23 -->
<g id="edge35_Node000022_Node000023" class="edge">
<title>Node22&#45;&gt;Node23</title>
<g id="a_edge35_Node000022_Node000023"><a xlink:title=" ">
<path fill="none" stroke="#63b8ff" d="M930.62,-15.43C919.44,-15.51 907.97,-15.58 897.2,-15.65"/>
<polygon fill="#63b8ff" stroke="#63b8ff" points="930.79,-18.93 940.76,-15.37 930.74,-11.93 930.79,-18.93"/>
</a>
</g>
</g>
<!-- Node24 -->
<g id="Node000024" class="node">
<title>Node24</title>
<g id="a_Node000024"><a xlink:href="create__command__list_8c.html#ae2006bf82a70d4753ffdca65847316ca" target="_top" xlink:title="Executes a redirection for the current command.">
<polygon fill="white" stroke="#666666" points="745,-45.5 671,-45.5 671,-26.5 745,-26.5 745,-45.5"/>
<text text-anchor="middle" x="708" y="-33.5" font-family="Helvetica,sans-Serif" font-size="10.00">ft_exe_redir</text>
</a>
</g>
</g>
<!-- Node23&#45;&gt;Node24 -->
<g id="edge36_Node000023_Node000024" class="edge">
<title>Node23&#45;&gt;Node24</title>
<g id="a_edge36_Node000023_Node000024"><a xlink:title=" ">
<path fill="none" stroke="#63b8ff" d="M779.52,-25.44C767.8,-27.19 755.93,-28.97 745.36,-30.55"/>
<polygon fill="#63b8ff" stroke="#63b8ff" points="780.37,-28.85 789.74,-23.9 779.33,-21.92 780.37,-28.85"/>
</a>
</g>
</g>
<!-- Node25 -->
<g id="Node000025" class="node">
<title>Node25</title>
<g id="a_Node000025"><a xlink:href="create__command__list_8c.html#ad16d74756b107a98677124008c71d23b" target="_top" xlink:title="Creates a command list from tokens.">
<polygon fill="white" stroke="#666666" points="494.5,-102.5 426.5,-102.5 426.5,-83.5 494.5,-83.5 494.5,-102.5"/>
<text text-anchor="middle" x="460.5" y="-90.5" font-family="Helvetica,sans-Serif" font-size="10.00">create_list</text>
</a>
</g>
</g>
<!-- Node24&#45;&gt;Node25 -->
<g id="edge37_Node000024_Node000025" class="edge">
<title>Node24&#45;&gt;Node25</title>
<g id="a_edge37_Node000024_Node000025"><a xlink:title=" ">
<path fill="none" stroke="#63b8ff" d="M660.87,-46.71C612.48,-57.95 537.61,-75.33 494.72,-85.29"/>
<polygon fill="#63b8ff" stroke="#63b8ff" points="661.83,-50.08 670.78,-44.41 660.24,-43.26 661.83,-50.08"/>
</a>
</g>
</g>
<!-- Node25&#45;&gt;Node5 -->
<g id="edge38_Node000025_Node000005" class="edge">
<title>Node25&#45;&gt;Node5</title>
<g id="a_edge38_Node000025_Node000005"><a xlink:title=" ">
<path fill="none" stroke="#63b8ff" d="M416.27,-97.56C386.09,-101.03 344.94,-106.35 309,-113 296.28,-115.36 282.48,-118.48 270.21,-121.46"/>
<polygon fill="#63b8ff" stroke="#63b8ff" points="416.92,-101.01 426.47,-96.41 416.14,-94.05 416.92,-101.01"/>
</a>
</g>
</g>
</g>
</svg>
