<?xml version="1.0" encoding="UTF-8" standalone="no"?>
<!DOCTYPE svg PUBLIC "-//W3C//DTD SVG 1.1//EN"
 "http://www.w3.org/Graphics/SVG/1.1/DTD/svg11.dtd">
<!-- Generated by graphviz version 2.43.0 (0)
 -->
<!-- Title: error_ex Pages: 1 -->
<svg width="567pt" height="248pt"
 viewBox="0.00 0.00 567.00 248.00" xmlns="http://www.w3.org/2000/svg" xmlns:xlink="http://www.w3.org/1999/xlink">
<g id="graph0" class="graph" transform="scale(1 1) rotate(0) translate(4 244)">
<title>error_ex</title>
<!-- Node1 -->
<g id="Node000001" class="node">
<title>Node1</title>
<g id="a_Node000001"><a xlink:title="Prints an error message to standard error.">
<polygon fill="#999999" stroke="#666666" points="57,-167 0,-167 0,-148 57,-148 57,-167"/>
<text text-anchor="middle" x="28.5" y="-155" font-family="Helvetica,sans-Serif" font-size="10.00">error_ex</text>
</a>
</g>
</g>
<!-- Node2 -->
<g id="Node000002" class="node">
<title>Node2</title>
<g id="a_Node000002"><a xlink:href="ft__printf_8c.html#a091532b7f37af84bdecc84dccf4eedb1" target="_top" xlink:title="A simplified printf function that outputs formatted data to a given file descriptor.">
<polygon fill="white" stroke="#666666" points="148,-167 93,-167 93,-148 148,-148 148,-167"/>
<text text-anchor="middle" x="120.5" y="-155" font-family="Helvetica,sans-Serif" font-size="10.00">ft_printf</text>
</a>
</g>
</g>
<!-- Node1&#45;&gt;Node2 -->
<g id="edge1_Node000001_Node000002" class="edge">
<title>Node1&#45;&gt;Node2</title>
<g id="a_edge1_Node000001_Node000002"><a xlink:title=" ">
<path fill="none" stroke="#63b8ff" d="M57.48,-157.5C65.48,-157.5 74.32,-157.5 82.76,-157.5"/>
<polygon fill="#63b8ff" stroke="#63b8ff" points="82.77,-161 92.77,-157.5 82.77,-154 82.77,-161"/>
</a>
</g>
</g>
<!-- Node3 -->
<g id="Node000003" class="node">
<title>Node3</title>
<g id="a_Node000003"><a xlink:href="ft__printf_8c.html#a80c1c206dcd33d07c265581878aaa300" target="_top" xlink:title="Processes a single format specifier and prints the corresponding argument.">
<polygon fill="white" stroke="#666666" points="267,-148 184,-148 184,-129 267,-129 267,-148"/>
<text text-anchor="middle" x="225.5" y="-136" font-family="Helvetica,sans-Serif" font-size="10.00">check_format</text>
</a>
</g>
</g>
<!-- Node2&#45;&gt;Node3 -->
<g id="edge2_Node000002_Node000003" class="edge">
<title>Node2&#45;&gt;Node3</title>
<g id="a_edge2_Node000002_Node000003"><a xlink:title=" ">
<path fill="none" stroke="#63b8ff" d="M148.03,-152.61C155.91,-151.15 164.82,-149.51 173.7,-147.87"/>
<polygon fill="#63b8ff" stroke="#63b8ff" points="174.47,-151.29 183.66,-146.03 173.2,-144.4 174.47,-151.29"/>
</a>
</g>
</g>
<!-- Node7 -->
<g id="Node000007" class="node">
<title>Node7</title>
<g id="a_Node000007"><a xlink:href="ft__putchar__fd_8c.html#a03ef80b25dc4a521379fa92ad97bad21" target="_top" xlink:title="Writes a single character to the specified file descriptor.">
<polygon fill="white" stroke="#666666" points="398,-240 318,-240 318,-221 398,-221 398,-240"/>
<text text-anchor="middle" x="358" y="-228" font-family="Helvetica,sans-Serif" font-size="10.00">ft_putchar_fd</text>
</a>
</g>
</g>
<!-- Node2&#45;&gt;Node7 -->
<g id="edge15_Node000002_Node000007" class="edge">
<title>Node2&#45;&gt;Node7</title>
<g id="a_edge15_Node000002_Node000007"><a xlink:title=" ">
<path fill="none" stroke="#63b8ff" d="M148.06,-165.73C189.05,-178.44 268.03,-202.92 316.27,-217.88"/>
<polygon fill="#63b8ff" stroke="#63b8ff" points="315.49,-221.3 326.08,-220.91 317.56,-214.61 315.49,-221.3"/>
</a>
</g>
</g>
<!-- Node4 -->
<g id="Node000004" class="node">
<title>Node4</title>
<g id="a_Node000004"><a xlink:href="ft__forpointer_8c.html#a8e02c77b80406af72327ebf71f537786" target="_top" xlink:title="Prints a pointer in hexadecimal format prefixed with &quot;0x&quot;.">
<polygon fill="white" stroke="#666666" points="396.5,-203 319.5,-203 319.5,-184 396.5,-184 396.5,-203"/>
<text text-anchor="middle" x="358" y="-191" font-family="Helvetica,sans-Serif" font-size="10.00">ft_forpointer</text>
</a>
</g>
</g>
<!-- Node3&#45;&gt;Node4 -->
<g id="edge3_Node000003_Node000004" class="edge">
<title>Node3&#45;&gt;Node4</title>
<g id="a_edge3_Node000003_Node000004"><a xlink:title=" ">
<path fill="none" stroke="#63b8ff" d="M244.75,-148.15C260.06,-156.05 282.64,-167.22 303,-175.5 307.4,-177.29 312.06,-179.04 316.71,-180.71"/>
<polygon fill="#63b8ff" stroke="#63b8ff" points="315.6,-184.03 326.19,-183.99 317.89,-177.41 315.6,-184.03"/>
</a>
</g>
</g>
<!-- Node6 -->
<g id="Node000006" class="node">
<title>Node6</title>
<g id="a_Node000006"><a xlink:href="ft__hexadecimal_8c.html#a39c845e0a4286d3ac1e04c1e64ac734b" target="_top" xlink:title="Prints an unsigned integer in hexadecimal format.">
<polygon fill="white" stroke="#666666" points="404,-148 312,-148 312,-129 404,-129 404,-148"/>
<text text-anchor="middle" x="358" y="-136" font-family="Helvetica,sans-Serif" font-size="10.00">ft_hexadecimal</text>
</a>
</g>
</g>
<!-- Node3&#45;&gt;Node6 -->
<g id="edge6_Node000003_Node000006" class="edge">
<title>Node3&#45;&gt;Node6</title>
<g id="a_edge6_Node000003_Node000006"><a xlink:title=" ">
<path fill="none" stroke="#63b8ff" d="M267.08,-138.5C278.07,-138.5 290.16,-138.5 301.82,-138.5"/>
<polygon fill="#63b8ff" stroke="#63b8ff" points="301.9,-142 311.9,-138.5 301.9,-135 301.9,-142"/>
</a>
</g>
</g>
<!-- Node3&#45;&gt;Node7 -->
<g id="edge8_Node000003_Node000007" class="edge">
<title>Node3&#45;&gt;Node7</title>
<g id="a_edge8_Node000003_Node000007"><a xlink:title=" ">
<path fill="none" stroke="#63b8ff" d="M233.94,-148.07C246.55,-163.69 273.61,-194.67 303,-212.5 305.66,-214.11 308.48,-215.6 311.39,-216.97"/>
<polygon fill="#63b8ff" stroke="#63b8ff" points="310.27,-220.3 320.85,-220.96 312.99,-213.85 310.27,-220.3"/>
</a>
</g>
</g>
<!-- Node8 -->
<g id="Node000008" class="node">
<title>Node8</title>
<g id="a_Node000008"><a xlink:href="ft__putnbr__fd_8c.html#a1554101ee350c316340c78e19faddaa8" target="_top" xlink:title="Writes an integer to a given file descriptor.">
<polygon fill="white" stroke="#666666" points="395.5,-93 320.5,-93 320.5,-74 395.5,-74 395.5,-93"/>
<text text-anchor="middle" x="358" y="-81" font-family="Helvetica,sans-Serif" font-size="10.00">ft_putnbr_fd</text>
</a>
</g>
</g>
<!-- Node3&#45;&gt;Node8 -->
<g id="edge9_Node000003_Node000008" class="edge">
<title>Node3&#45;&gt;Node8</title>
<g id="a_edge9_Node000003_Node000008"><a xlink:title=" ">
<path fill="none" stroke="#63b8ff" d="M249.23,-128.92C270.06,-120.14 301.13,-107.05 324.57,-97.17"/>
<polygon fill="#63b8ff" stroke="#63b8ff" points="326.24,-100.26 334.09,-93.16 323.52,-93.81 326.24,-100.26"/>
</a>
</g>
</g>
<!-- Node9 -->
<g id="Node000009" class="node">
<title>Node9</title>
<g id="a_Node000009"><a xlink:href="ft__putstr__fd_8c.html#a00b0638f31a75c7a30f77f33888bfb73" target="_top" xlink:title="Writes a null&#45;terminated string to the specified file descriptor.">
<polygon fill="white" stroke="#666666" points="394,-56 322,-56 322,-37 394,-37 394,-56"/>
<text text-anchor="middle" x="358" y="-44" font-family="Helvetica,sans-Serif" font-size="10.00">ft_putstr_fd</text>
</a>
</g>
</g>
<!-- Node3&#45;&gt;Node9 -->
<g id="edge11_Node000003_Node000009" class="edge">
<title>Node3&#45;&gt;Node9</title>
<g id="a_edge11_Node000003_Node000009"><a xlink:title=" ">
<path fill="none" stroke="#63b8ff" d="M234.42,-128.62C247.28,-113.15 274.21,-83.16 303,-65.5 306.34,-63.45 309.92,-61.59 313.61,-59.89"/>
<polygon fill="#63b8ff" stroke="#63b8ff" points="314.98,-63.11 322.87,-56.04 312.29,-56.65 314.98,-63.11"/>
</a>
</g>
</g>
<!-- Node10 -->
<g id="Node000010" class="node">
<title>Node10</title>
<g id="a_Node000010"><a xlink:href="ft__unsigned__putnbr_8c.html#af9a70f8607b40cf2a7706f9d3725b549" target="_top" xlink:title="Writes an unsigned integer to the given file descriptor.">
<polygon fill="white" stroke="#666666" points="413,-19 303,-19 303,0 413,0 413,-19"/>
<text text-anchor="middle" x="358" y="-7" font-family="Helvetica,sans-Serif" font-size="10.00">ft_unsigned_putnbr</text>
</a>
</g>
</g>
<!-- Node3&#45;&gt;Node10 -->
<g id="edge12_Node000003_Node000010" class="edge">
<title>Node3&#45;&gt;Node10</title>
<g id="a_edge12_Node000003_Node000010"><a xlink:title=" ">
<path fill="none" stroke="#63b8ff" d="M230.51,-128.93C239.94,-107.55 265.58,-55.62 303,-27.5 304.83,-26.13 306.77,-24.85 308.79,-23.67"/>
<polygon fill="#63b8ff" stroke="#63b8ff" points="310.61,-26.67 318,-19.09 307.49,-20.41 310.61,-26.67"/>
</a>
</g>
</g>
<!-- Node5 -->
<g id="Node000005" class="node">
<title>Node5</title>
<g id="a_Node000005"><a xlink:href="ft__forpointer_8c.html#aded1bf735c8a10e47396170d27c5b6aa" target="_top" xlink:title="Recursively prints a memory address in hexadecimal format.">
<polygon fill="white" stroke="#666666" points="559,-203 449,-203 449,-184 559,-184 559,-203"/>
<text text-anchor="middle" x="504" y="-191" font-family="Helvetica,sans-Serif" font-size="10.00">ft_ricorsive_pointer</text>
</a>
</g>
</g>
<!-- Node4&#45;&gt;Node5 -->
<g id="edge4_Node000004_Node000005" class="edge">
<title>Node4&#45;&gt;Node5</title>
<g id="a_edge4_Node000004_Node000005"><a xlink:title=" ">
<path fill="none" stroke="#63b8ff" d="M396.83,-193.5C409.64,-193.5 424.33,-193.5 438.61,-193.5"/>
<polygon fill="#63b8ff" stroke="#63b8ff" points="438.9,-197 448.9,-193.5 438.9,-190 438.9,-197"/>
</a>
</g>
</g>
<!-- Node5&#45;&gt;Node5 -->
<g id="edge5_Node000005_Node000005" class="edge">
<title>Node5&#45;&gt;Node5</title>
<g id="a_edge5_Node000005_Node000005"><a xlink:title=" ">
<path fill="none" stroke="#63b8ff" d="M481.5,-203.08C470.55,-211.73 478.05,-221 504,-221 520.62,-221 529.68,-217.2 531.16,-212.19"/>
<polygon fill="#63b8ff" stroke="#63b8ff" points="534.17,-210.39 526.5,-203.08 527.94,-213.58 534.17,-210.39"/>
</a>
</g>
</g>
<!-- Node6&#45;&gt;Node6 -->
<g id="edge7_Node000006_Node000006" class="edge">
<title>Node6&#45;&gt;Node6</title>
<g id="a_edge7_Node000006_Node000006"><a xlink:title=" ">
<path fill="none" stroke="#63b8ff" d="M337.65,-148.08C327.76,-156.73 334.54,-166 358,-166 373.03,-166 381.21,-162.2 382.55,-157.19"/>
<polygon fill="#63b8ff" stroke="#63b8ff" points="385.72,-155.69 378.35,-148.08 379.36,-158.63 385.72,-155.69"/>
</a>
</g>
</g>
<!-- Node8&#45;&gt;Node8 -->
<g id="edge10_Node000008_Node000008" class="edge">
<title>Node8&#45;&gt;Node8</title>
<g id="a_edge10_Node000008_Node000008"><a xlink:title=" ">
<path fill="none" stroke="#63b8ff" d="M337.65,-93.08C327.76,-101.73 334.54,-111 358,-111 373.03,-111 381.21,-107.2 382.55,-102.19"/>
<polygon fill="#63b8ff" stroke="#63b8ff" points="385.72,-100.69 378.35,-93.08 379.36,-103.63 385.72,-100.69"/>
</a>
</g>
</g>
<!-- Node11 -->
<g id="Node000011" class="node">
<title>Node11</title>
<g id="a_Node000011"><a xlink:href="ft__putnbr_8c.html#a2e51f80c9e46e52f4adf94617fb51ada" target="_top" xlink:title="Writes an integer to the standard output (stdout).">
<polygon fill="white" stroke="#666666" points="534,-19 474,-19 474,0 534,0 534,-19"/>
<text text-anchor="middle" x="504" y="-7" font-family="Helvetica,sans-Serif" font-size="10.00">ft_putnbr</text>
</a>
</g>
</g>
<!-- Node10&#45;&gt;Node11 -->
<g id="edge13_Node000010_Node000011" class="edge">
<title>Node10&#45;&gt;Node11</title>
<g id="a_edge13_Node000010_Node000011"><a xlink:title=" ">
<path fill="none" stroke="#63b8ff" d="M413.03,-9.5C429.76,-9.5 447.87,-9.5 463.43,-9.5"/>
<polygon fill="#63b8ff" stroke="#63b8ff" points="463.74,-13 473.74,-9.5 463.74,-6 463.74,-13"/>
</a>
</g>
</g>
<!-- Node11&#45;&gt;Node11 -->
<g id="edge14_Node000011_Node000011" class="edge">
<title>Node11&#45;&gt;Node11</title>
<g id="a_edge14_Node000011_Node000011"><a xlink:title=" ">
<path fill="none" stroke="#63b8ff" d="M481.5,-19.08C470.55,-27.73 478.05,-37 504,-37 520.62,-37 529.68,-33.2 531.16,-28.19"/>
<polygon fill="#63b8ff" stroke="#63b8ff" points="534.17,-26.39 526.5,-19.08 527.94,-29.58 534.17,-26.39"/>
</a>
</g>
</g>
</g>
</svg>
