<?xml version="1.0" encoding="UTF-8" standalone="no"?>
<!DOCTYPE svg PUBLIC "-//W3C//DTD SVG 1.1//EN"
 "http://www.w3.org/Graphics/SVG/1.1/DTD/svg11.dtd">
<!-- Generated by graphviz version 2.43.0 (0)
 -->
<!-- Title: common_utils/common_utils.h Pages: 1 -->
<svg width="3079pt" height="346pt"
 viewBox="0.00 0.00 3079.00 346.00" xmlns="http://www.w3.org/2000/svg" xmlns:xlink="http://www.w3.org/1999/xlink">
<g id="graph0" class="graph" transform="scale(1 1) rotate(0) translate(4 342)">
<title>common_utils/common_utils.h</title>
<!-- Node1 -->
<g id="Node000001" class="node">
<title>Node1</title>
<g id="a_Node000001"><a xlink:title=" ">
<polygon fill="#999999" stroke="#666666" points="1893,-338 1762,-338 1762,-308 1893,-308 1893,-338"/>
<text text-anchor="start" x="1770" y="-326" font-family="Helvetica,sans-Serif" font-size="10.00">common_utils/common</text>
<text text-anchor="middle" x="1827.5" y="-315" font-family="Helvetica,sans-Serif" font-size="10.00">_utils.h</text>
</a>
</g>
</g>
<!-- Node2 -->
<g id="Node000002" class="node">
<title>Node2</title>
<g id="a_Node000002"><a xlink:href="builtin_8h.html" target="_top" xlink:title=" ">
<polygon fill="white" stroke="#666666" points="585.5,-200.5 495.5,-200.5 495.5,-181.5 585.5,-181.5 585.5,-200.5"/>
<text text-anchor="middle" x="540.5" y="-188.5" font-family="Helvetica,sans-Serif" font-size="10.00">builtin/builtin.h</text>
</a>
</g>
</g>
<!-- Node1&#45;&gt;Node2 -->
<g id="edge1_Node000001_Node000002" class="edge">
<title>Node1&#45;&gt;Node2</title>
<g id="a_edge1_Node000001_Node000002"><a xlink:title=" ">
<path fill="none" stroke="#63b8ff" d="M1751.27,-321.91C1503.16,-321.19 728.75,-315.45 625.5,-272 588.89,-256.59 558.51,-217.88 546.29,-200.58"/>
<polygon fill="#63b8ff" stroke="#63b8ff" points="1751.62,-325.41 1761.63,-321.94 1751.64,-318.41 1751.62,-325.41"/>
</a>
</g>
</g>
<!-- Node10 -->
<g id="Node000010" class="node">
<title>Node10</title>
<g id="a_Node000010"><a xlink:href="minishell_8h.html" target="_top" xlink:title=" ">
<polygon fill="white" stroke="#666666" points="972.5,-74 874.5,-74 874.5,-55 972.5,-55 972.5,-74"/>
<text text-anchor="middle" x="923.5" y="-62" font-family="Helvetica,sans-Serif" font-size="10.00">main/minishell.h</text>
</a>
</g>
</g>
<!-- Node1&#45;&gt;Node10 -->
<g id="edge33_Node000001_Node000010" class="edge">
<title>Node1&#45;&gt;Node10</title>
<g id="a_edge33_Node000001_Node000010"><a xlink:title=" ">
<path fill="none" stroke="#63b8ff" d="M1751.53,-319.52C1625.12,-314.61 1377.4,-301.49 1295.5,-272 1246.44,-254.34 1239.98,-237.59 1198.5,-206 1185.39,-196.02 1100.07,-117.7 1085.5,-110 1050.04,-91.26 1005.94,-79.82 972.71,-73.23"/>
<polygon fill="#63b8ff" stroke="#63b8ff" points="1751.4,-323.01 1761.53,-319.9 1751.67,-316.02 1751.4,-323.01"/>
</a>
</g>
</g>
<!-- Node14 -->
<g id="Node000014" class="node">
<title>Node14</title>
<g id="a_Node000014"><a xlink:href="pipes_8h.html" target="_top" xlink:title=" ">
<polygon fill="white" stroke="#666666" points="831,-134.5 750,-134.5 750,-115.5 831,-115.5 831,-134.5"/>
<text text-anchor="middle" x="790.5" y="-122.5" font-family="Helvetica,sans-Serif" font-size="10.00">pipes/pipes.h</text>
</a>
</g>
</g>
<!-- Node1&#45;&gt;Node14 -->
<g id="edge34_Node000001_Node000014" class="edge">
<title>Node1&#45;&gt;Node14</title>
<g id="a_edge34_Node000001_Node000014"><a xlink:title=" ">
<path fill="none" stroke="#63b8ff" d="M1751.58,-321.99C1546.23,-321.36 983.28,-315.61 803.5,-272 734.69,-255.31 696.82,-265.54 658.5,-206 651.28,-194.79 650.92,-186.97 658.5,-176 664.7,-167.03 726.09,-146.36 762.93,-134.6"/>
<polygon fill="#63b8ff" stroke="#63b8ff" points="1751.66,-325.49 1761.67,-322.01 1751.68,-318.49 1751.66,-325.49"/>
</a>
</g>
</g>
<!-- Node17 -->
<g id="Node000017" class="node">
<title>Node17</title>
<g id="a_Node000017"><a xlink:href="command_8h.html" target="_top" xlink:title=" ">
<polygon fill="white" stroke="#666666" points="1353.5,-200.5 1207.5,-200.5 1207.5,-181.5 1353.5,-181.5 1353.5,-200.5"/>
<text text-anchor="middle" x="1280.5" y="-188.5" font-family="Helvetica,sans-Serif" font-size="10.00">command_list/command.h</text>
</a>
</g>
</g>
<!-- Node1&#45;&gt;Node17 -->
<g id="edge17_Node000001_Node000017" class="edge">
<title>Node1&#45;&gt;Node17</title>
<g id="a_edge17_Node000001_Node000017"><a xlink:title=" ">
<path fill="none" stroke="#63b8ff" d="M1751.72,-322.82C1629.07,-322.8 1393.87,-316.68 1325.5,-272 1299.49,-255 1286.99,-217.48 1282.52,-200.57"/>
<polygon fill="#63b8ff" stroke="#63b8ff" points="1751.8,-326.32 1761.79,-322.81 1751.79,-319.32 1751.8,-326.32"/>
</a>
</g>
</g>
<!-- Node20 -->
<g id="Node000020" class="node">
<title>Node20</title>
<g id="a_Node000020"><a xlink:href="free__functions_8c.html" target="_top" xlink:title=" ">
<polygon fill="white" stroke="#666666" points="1613,-266.5 1446,-266.5 1446,-247.5 1613,-247.5 1613,-266.5"/>
<text text-anchor="middle" x="1529.5" y="-254.5" font-family="Helvetica,sans-Serif" font-size="10.00">common_utils/free_functions.c</text>
</a>
</g>
</g>
<!-- Node1&#45;&gt;Node20 -->
<g id="edge21_Node000001_Node000020" class="edge">
<title>Node1&#45;&gt;Node20</title>
<g id="a_edge21_Node000001_Node000020"><a xlink:title=" ">
<path fill="none" stroke="#63b8ff" d="M1752.21,-305.83C1694,-293.33 1615.73,-276.52 1569.16,-266.52"/>
<polygon fill="#63b8ff" stroke="#63b8ff" points="1751.59,-309.28 1762.1,-307.95 1753.06,-302.43 1751.59,-309.28"/>
</a>
</g>
</g>
<!-- Node21 -->
<g id="Node000021" class="node">
<title>Node21</title>
<g id="a_Node000021"><a xlink:href="quotes__finder_8c.html" target="_top" xlink:title=" ">
<polygon fill="white" stroke="#666666" points="1753.5,-272 1631.5,-272 1631.5,-242 1753.5,-242 1753.5,-272"/>
<text text-anchor="start" x="1639.5" y="-260" font-family="Helvetica,sans-Serif" font-size="10.00">common_utils/quotes</text>
<text text-anchor="middle" x="1692.5" y="-249" font-family="Helvetica,sans-Serif" font-size="10.00">_finder.c</text>
</a>
</g>
</g>
<!-- Node1&#45;&gt;Node21 -->
<g id="edge22_Node000001_Node000021" class="edge">
<title>Node1&#45;&gt;Node21</title>
<g id="a_edge22_Node000001_Node000021"><a xlink:title=" ">
<path fill="none" stroke="#63b8ff" d="M1788.79,-303.65C1767.56,-293.58 1741.65,-281.3 1722.06,-272.01"/>
<polygon fill="#63b8ff" stroke="#63b8ff" points="1787.34,-306.83 1797.87,-307.95 1790.34,-300.51 1787.34,-306.83"/>
</a>
</g>
</g>
<!-- Node22 -->
<g id="Node000022" class="node">
<title>Node22</title>
<g id="a_Node000022"><a xlink:href="redir__utils_8c.html" target="_top" xlink:title=" ">
<polygon fill="white" stroke="#666666" points="1883,-272 1772,-272 1772,-242 1883,-242 1883,-272"/>
<text text-anchor="start" x="1780" y="-260" font-family="Helvetica,sans-Serif" font-size="10.00">common_utils/redir</text>
<text text-anchor="middle" x="1827.5" y="-249" font-family="Helvetica,sans-Serif" font-size="10.00">_utils.c</text>
</a>
</g>
</g>
<!-- Node1&#45;&gt;Node22 -->
<g id="edge23_Node000001_Node000022" class="edge">
<title>Node1&#45;&gt;Node22</title>
<g id="a_edge23_Node000001_Node000022"><a xlink:title=" ">
<path fill="none" stroke="#63b8ff" d="M1827.5,-297.54C1827.5,-288.96 1827.5,-279.61 1827.5,-272.16"/>
<polygon fill="#63b8ff" stroke="#63b8ff" points="1824,-297.8 1827.5,-307.8 1831,-297.8 1824,-297.8"/>
</a>
</g>
</g>
<!-- Node23 -->
<g id="Node000023" class="node">
<title>Node23</title>
<g id="a_Node000023"><a xlink:href="signal__flag_8c.html" target="_top" xlink:title=" ">
<polygon fill="white" stroke="#666666" points="2019.5,-272 1901.5,-272 1901.5,-242 2019.5,-242 2019.5,-272"/>
<text text-anchor="start" x="1909.5" y="-260" font-family="Helvetica,sans-Serif" font-size="10.00">common_utils/signal</text>
<text text-anchor="middle" x="1960.5" y="-249" font-family="Helvetica,sans-Serif" font-size="10.00">_flag.c</text>
</a>
</g>
</g>
<!-- Node1&#45;&gt;Node23 -->
<g id="edge24_Node000001_Node000023" class="edge">
<title>Node1&#45;&gt;Node23</title>
<g id="a_edge24_Node000001_Node000023"><a xlink:title=" ">
<path fill="none" stroke="#63b8ff" d="M1865.92,-303.51C1886.78,-293.47 1912.17,-281.26 1931.38,-272.01"/>
<polygon fill="#63b8ff" stroke="#63b8ff" points="1864.18,-300.46 1856.69,-307.95 1867.22,-306.77 1864.18,-300.46"/>
</a>
</g>
</g>
<!-- Node24 -->
<g id="Node000024" class="node">
<title>Node24</title>
<g id="a_Node000024"><a xlink:href="utils__env_8c.html" target="_top" xlink:title=" ">
<polygon fill="white" stroke="#666666" points="2147.5,-272 2037.5,-272 2037.5,-242 2147.5,-242 2147.5,-272"/>
<text text-anchor="start" x="2045.5" y="-260" font-family="Helvetica,sans-Serif" font-size="10.00">common_utils/utils</text>
<text text-anchor="middle" x="2092.5" y="-249" font-family="Helvetica,sans-Serif" font-size="10.00">_env.c</text>
</a>
</g>
</g>
<!-- Node1&#45;&gt;Node24 -->
<g id="edge25_Node000001_Node000024" class="edge">
<title>Node1&#45;&gt;Node24</title>
<g id="a_edge25_Node000001_Node000024"><a xlink:title=" ">
<path fill="none" stroke="#63b8ff" d="M1895.41,-305.6C1939.4,-294.98 1995.96,-281.32 2037.2,-271.36"/>
<polygon fill="#63b8ff" stroke="#63b8ff" points="1894.55,-302.21 1885.66,-307.95 1896.2,-309.01 1894.55,-302.21"/>
</a>
</g>
</g>
<!-- Node25 -->
<g id="Node000025" class="node">
<title>Node25</title>
<g id="a_Node000025"><a xlink:href="utils__env__pt2_8c.html" target="_top" xlink:title=" ">
<polygon fill="white" stroke="#666666" points="2275.5,-272 2165.5,-272 2165.5,-242 2275.5,-242 2275.5,-272"/>
<text text-anchor="start" x="2173.5" y="-260" font-family="Helvetica,sans-Serif" font-size="10.00">common_utils/utils</text>
<text text-anchor="middle" x="2220.5" y="-249" font-family="Helvetica,sans-Serif" font-size="10.00">_env_pt2.c</text>
</a>
</g>
</g>
<!-- Node1&#45;&gt;Node25 -->
<g id="edge26_Node000001_Node000025" class="edge">
<title>Node1&#45;&gt;Node25</title>
<g id="a_edge26_Node000001_Node000025"><a xlink:title=" ">
<path fill="none" stroke="#63b8ff" d="M1903.28,-311.9C1970.11,-302.65 2070.04,-288.01 2156.5,-272 2159.41,-271.46 2162.39,-270.89 2165.39,-270.29"/>
<polygon fill="#63b8ff" stroke="#63b8ff" points="1902.68,-308.45 1893.25,-313.28 1903.64,-315.38 1902.68,-308.45"/>
</a>
</g>
</g>
<!-- Node26 -->
<g id="Node000026" class="node">
<title>Node26</title>
<g id="a_Node000026"><a xlink:href="utils__export__unset_8c.html" target="_top" xlink:title=" ">
<polygon fill="white" stroke="#666666" points="2403.5,-272 2293.5,-272 2293.5,-242 2403.5,-242 2403.5,-272"/>
<text text-anchor="start" x="2301.5" y="-260" font-family="Helvetica,sans-Serif" font-size="10.00">common_utils/utils</text>
<text text-anchor="middle" x="2348.5" y="-249" font-family="Helvetica,sans-Serif" font-size="10.00">_export_unset.c</text>
</a>
</g>
</g>
<!-- Node1&#45;&gt;Node26 -->
<g id="edge27_Node000001_Node000026" class="edge">
<title>Node1&#45;&gt;Node26</title>
<g id="a_edge27_Node000001_Node000026"><a xlink:title=" ">
<path fill="none" stroke="#63b8ff" d="M1903.48,-316.18C1994.44,-308.63 2151.2,-293.81 2284.5,-272 2287.42,-271.52 2290.4,-271 2293.41,-270.44"/>
<polygon fill="#63b8ff" stroke="#63b8ff" points="1902.94,-312.71 1893.26,-317.02 1903.51,-319.69 1902.94,-312.71"/>
</a>
</g>
</g>
<!-- Node27 -->
<g id="Node000027" class="node">
<title>Node27</title>
<g id="a_Node000027"><a xlink:href="utils__fd_8c.html" target="_top" xlink:title=" ">
<polygon fill="white" stroke="#666666" points="2555,-266.5 2422,-266.5 2422,-247.5 2555,-247.5 2555,-266.5"/>
<text text-anchor="middle" x="2488.5" y="-254.5" font-family="Helvetica,sans-Serif" font-size="10.00">common_utils/utils_fd.c</text>
</a>
</g>
</g>
<!-- Node1&#45;&gt;Node27 -->
<g id="edge28_Node000001_Node000027" class="edge">
<title>Node1&#45;&gt;Node27</title>
<g id="a_edge28_Node000001_Node000027"><a xlink:title=" ">
<path fill="none" stroke="#63b8ff" d="M1903.25,-317.88C2015.01,-311.26 2230.53,-296.48 2412.5,-272 2423.54,-270.52 2435.41,-268.52 2446.41,-266.51"/>
<polygon fill="#63b8ff" stroke="#63b8ff" points="1902.87,-314.39 1893.09,-318.47 1903.28,-321.38 1902.87,-314.39"/>
</a>
</g>
</g>
<!-- Node28 -->
<g id="Node000028" class="node">
<title>Node28</title>
<g id="a_Node000028"><a xlink:href="utils__pipes_8c.html" target="_top" xlink:title=" ">
<polygon fill="white" stroke="#666666" points="2683.5,-272 2573.5,-272 2573.5,-242 2683.5,-242 2683.5,-272"/>
<text text-anchor="start" x="2581.5" y="-260" font-family="Helvetica,sans-Serif" font-size="10.00">common_utils/utils</text>
<text text-anchor="middle" x="2628.5" y="-249" font-family="Helvetica,sans-Serif" font-size="10.00">_pipes.c</text>
</a>
</g>
</g>
<!-- Node1&#45;&gt;Node28 -->
<g id="edge29_Node000001_Node000028" class="edge">
<title>Node1&#45;&gt;Node28</title>
<g id="a_edge29_Node000001_Node000028"><a xlink:title=" ">
<path fill="none" stroke="#63b8ff" d="M1903.31,-320.54C2037.33,-317.15 2324.6,-306.19 2564.5,-272 2567.43,-271.58 2570.42,-271.11 2573.44,-270.59"/>
<polygon fill="#63b8ff" stroke="#63b8ff" points="1903.07,-317.05 1893.16,-320.79 1903.24,-324.05 1903.07,-317.05"/>
</a>
</g>
</g>
<!-- Node29 -->
<g id="Node000029" class="node">
<title>Node29</title>
<g id="a_Node000029"><a xlink:href="utils__token_8c.html" target="_top" xlink:title=" ">
<polygon fill="white" stroke="#666666" points="2811.5,-272 2701.5,-272 2701.5,-242 2811.5,-242 2811.5,-272"/>
<text text-anchor="start" x="2709.5" y="-260" font-family="Helvetica,sans-Serif" font-size="10.00">common_utils/utils</text>
<text text-anchor="middle" x="2756.5" y="-249" font-family="Helvetica,sans-Serif" font-size="10.00">_token.c</text>
</a>
</g>
</g>
<!-- Node1&#45;&gt;Node29 -->
<g id="edge30_Node000001_Node000029" class="edge">
<title>Node1&#45;&gt;Node29</title>
<g id="a_edge30_Node000001_Node000029"><a xlink:title=" ">
<path fill="none" stroke="#63b8ff" d="M1903.31,-321.62C2054.25,-319.99 2402.79,-311.81 2692.5,-272 2695.43,-271.6 2698.42,-271.13 2701.44,-270.62"/>
<polygon fill="#63b8ff" stroke="#63b8ff" points="1903.18,-318.12 1893.22,-321.73 1903.25,-325.12 1903.18,-318.12"/>
</a>
</g>
</g>
<!-- Node30 -->
<g id="Node000030" class="node">
<title>Node30</title>
<g id="a_Node000030"><a xlink:href="utils__token__pt2_8c.html" target="_top" xlink:title=" ">
<polygon fill="white" stroke="#666666" points="2939.5,-272 2829.5,-272 2829.5,-242 2939.5,-242 2939.5,-272"/>
<text text-anchor="start" x="2837.5" y="-260" font-family="Helvetica,sans-Serif" font-size="10.00">common_utils/utils</text>
<text text-anchor="middle" x="2884.5" y="-249" font-family="Helvetica,sans-Serif" font-size="10.00">_token_pt2.c</text>
</a>
</g>
</g>
<!-- Node1&#45;&gt;Node30 -->
<g id="edge31_Node000001_Node000030" class="edge">
<title>Node1&#45;&gt;Node30</title>
<g id="a_edge31_Node000001_Node000030"><a xlink:title=" ">
<path fill="none" stroke="#63b8ff" d="M1903.34,-322.43C2070.03,-322.46 2480.51,-317.43 2820.5,-272 2823.43,-271.61 2826.43,-271.15 2829.44,-270.65"/>
<polygon fill="#63b8ff" stroke="#63b8ff" points="1903.2,-318.93 1893.2,-322.43 1903.19,-325.93 1903.2,-318.93"/>
</a>
</g>
</g>
<!-- Node31 -->
<g id="Node000031" class="node">
<title>Node31</title>
<g id="a_Node000031"><a xlink:href="write__errors_8c.html" target="_top" xlink:title=" ">
<polygon fill="white" stroke="#666666" points="3071,-272 2958,-272 2958,-242 3071,-242 3071,-272"/>
<text text-anchor="start" x="2966" y="-260" font-family="Helvetica,sans-Serif" font-size="10.00">common_utils/write</text>
<text text-anchor="middle" x="3014.5" y="-249" font-family="Helvetica,sans-Serif" font-size="10.00">_errors.c</text>
</a>
</g>
</g>
<!-- Node1&#45;&gt;Node31 -->
<g id="edge32_Node000001_Node000031" class="edge">
<title>Node1&#45;&gt;Node31</title>
<g id="a_edge32_Node000001_Node000031"><a xlink:title=" ">
<path fill="none" stroke="#63b8ff" d="M1903.29,-320.25C2121,-314.95 2745.55,-297.87 2948.5,-272 2951.52,-271.61 2954.61,-271.16 2957.72,-270.66"/>
<polygon fill="#63b8ff" stroke="#63b8ff" points="1903.15,-316.75 1893.24,-320.49 1903.32,-323.75 1903.15,-316.75"/>
</a>
</g>
</g>
<!-- Node32 -->
<g id="Node000032" class="node">
<title>Node32</title>
<g id="a_Node000032"><a xlink:href="redirections_8h.html" target="_top" xlink:title=" ">
<polygon fill="white" stroke="#666666" points="956.5,-266.5 812.5,-266.5 812.5,-247.5 956.5,-247.5 956.5,-266.5"/>
<text text-anchor="middle" x="884.5" y="-254.5" font-family="Helvetica,sans-Serif" font-size="10.00">redirections/redirections.h</text>
</a>
</g>
</g>
<!-- Node1&#45;&gt;Node32 -->
<g id="edge35_Node000001_Node000032" class="edge">
<title>Node1&#45;&gt;Node32</title>
<g id="a_edge35_Node000001_Node000032"><a xlink:title=" ">
<path fill="none" stroke="#63b8ff" d="M1751.88,-316.87C1574.02,-304.8 1131.02,-274.73 956.65,-262.9"/>
<polygon fill="#63b8ff" stroke="#63b8ff" points="1751.72,-320.37 1761.94,-317.55 1752.2,-313.38 1751.72,-320.37"/>
</a>
</g>
</g>
<!-- Node35 -->
<g id="Node000035" class="node">
<title>Node35</title>
<g id="a_Node000035"><a xlink:href="system__commands_8h.html" target="_top" xlink:title=" ">
<polygon fill="white" stroke="#666666" points="1151,-206 1000,-206 1000,-176 1151,-176 1151,-206"/>
<text text-anchor="start" x="1008" y="-194" font-family="Helvetica,sans-Serif" font-size="10.00">system_commands/system</text>
<text text-anchor="middle" x="1075.5" y="-183" font-family="Helvetica,sans-Serif" font-size="10.00">_commands.h</text>
</a>
</g>
</g>
<!-- Node1&#45;&gt;Node35 -->
<g id="edge46_Node000001_Node000035" class="edge">
<title>Node1&#45;&gt;Node35</title>
<g id="a_edge46_Node000001_Node000035"><a xlink:title=" ">
<path fill="none" stroke="#63b8ff" d="M1751.74,-322.31C1601.04,-321.95 1269.3,-316.01 1165.5,-272 1131.43,-257.56 1101.45,-224.84 1086.19,-206.03"/>
<polygon fill="#63b8ff" stroke="#63b8ff" points="1751.83,-325.81 1761.83,-322.33 1751.84,-318.81 1751.83,-325.81"/>
</a>
</g>
</g>
<!-- Node37 -->
<g id="Node000037" class="node">
<title>Node37</title>
<g id="a_Node000037"><a xlink:href="tokens_8h.html" target="_top" xlink:title=" ">
<polygon fill="white" stroke="#666666" points="1428,-266.5 1335,-266.5 1335,-247.5 1428,-247.5 1428,-266.5"/>
<text text-anchor="middle" x="1381.5" y="-254.5" font-family="Helvetica,sans-Serif" font-size="10.00">tokens/tokens.h</text>
</a>
</g>
</g>
<!-- Node1&#45;&gt;Node37 -->
<g id="edge47_Node000001_Node000037" class="edge">
<title>Node1&#45;&gt;Node37</title>
<g id="a_edge47_Node000001_Node000037"><a xlink:title=" ">
<path fill="none" stroke="#63b8ff" d="M1751.59,-314.94C1672.7,-306.97 1545.84,-292.41 1437.5,-272 1429.42,-270.48 1420.78,-268.5 1412.75,-266.5"/>
<polygon fill="#63b8ff" stroke="#63b8ff" points="1751.62,-318.46 1761.92,-315.97 1752.32,-311.49 1751.62,-318.46"/>
</a>
</g>
</g>
<!-- Node3 -->
<g id="Node000003" class="node">
<title>Node3</title>
<g id="a_Node000003"><a xlink:href="env_8c.html" target="_top" xlink:title=" ">
<polygon fill="white" stroke="#666666" points="277.5,-134.5 201.5,-134.5 201.5,-115.5 277.5,-115.5 277.5,-134.5"/>
<text text-anchor="middle" x="239.5" y="-122.5" font-family="Helvetica,sans-Serif" font-size="10.00">builtin/env.c</text>
</a>
</g>
</g>
<!-- Node2&#45;&gt;Node3 -->
<g id="edge2_Node000002_Node000003" class="edge">
<title>Node2&#45;&gt;Node3</title>
<g id="a_edge2_Node000002_Node000003"><a xlink:title=" ">
<path fill="none" stroke="#63b8ff" d="M485.29,-180.7C433.62,-171.62 354.41,-156.76 286.5,-140 280.05,-138.41 273.17,-136.49 266.72,-134.59"/>
<polygon fill="#63b8ff" stroke="#63b8ff" points="484.8,-184.16 495.25,-182.43 486,-177.27 484.8,-184.16"/>
</a>
</g>
</g>
<!-- Node4 -->
<g id="Node000004" class="node">
<title>Node4</title>
<g id="a_Node000004"><a xlink:href="exit_8c.html" target="_top" xlink:title=" ">
<polygon fill="white" stroke="#666666" points="373,-134.5 296,-134.5 296,-115.5 373,-115.5 373,-134.5"/>
<text text-anchor="middle" x="334.5" y="-122.5" font-family="Helvetica,sans-Serif" font-size="10.00">builtin/exit.c</text>
</a>
</g>
</g>
<!-- Node2&#45;&gt;Node4 -->
<g id="edge3_Node000002_Node000004" class="edge">
<title>Node2&#45;&gt;Node4</title>
<g id="a_edge3_Node000002_Node000004"><a xlink:title=" ">
<path fill="none" stroke="#63b8ff" d="M502.92,-178.32C462.28,-165.7 398.46,-145.87 362.17,-134.6"/>
<polygon fill="#63b8ff" stroke="#63b8ff" points="502.13,-181.74 512.72,-181.37 504.21,-175.06 502.13,-181.74"/>
</a>
</g>
</g>
<!-- Node5 -->
<g id="Node000005" class="node">
<title>Node5</title>
<g id="a_Node000005"><a xlink:href="export_8c.html" target="_top" xlink:title=" ">
<polygon fill="white" stroke="#666666" points="481.5,-134.5 391.5,-134.5 391.5,-115.5 481.5,-115.5 481.5,-134.5"/>
<text text-anchor="middle" x="436.5" y="-122.5" font-family="Helvetica,sans-Serif" font-size="10.00">builtin/export.c</text>
</a>
</g>
</g>
<!-- Node2&#45;&gt;Node5 -->
<g id="edge4_Node000002_Node000005" class="edge">
<title>Node2&#45;&gt;Node5</title>
<g id="a_edge4_Node000002_Node000005"><a xlink:title=" ">
<path fill="none" stroke="#63b8ff" d="M517.78,-176.02C497.33,-163.43 467.9,-145.32 450.64,-134.7"/>
<polygon fill="#63b8ff" stroke="#63b8ff" points="516.12,-179.11 526.47,-181.37 519.79,-173.15 516.12,-179.11"/>
</a>
</g>
</g>
<!-- Node6 -->
<g id="Node000006" class="node">
<title>Node6</title>
<g id="a_Node000006"><a xlink:href="ft__cd_8c.html" target="_top" xlink:title=" ">
<polygon fill="white" stroke="#666666" points="581.5,-134.5 499.5,-134.5 499.5,-115.5 581.5,-115.5 581.5,-134.5"/>
<text text-anchor="middle" x="540.5" y="-122.5" font-family="Helvetica,sans-Serif" font-size="10.00">builtin/ft_cd.c</text>
</a>
</g>
</g>
<!-- Node2&#45;&gt;Node6 -->
<g id="edge5_Node000002_Node000006" class="edge">
<title>Node2&#45;&gt;Node6</title>
<g id="a_edge5_Node000002_Node000006"><a xlink:title=" ">
<path fill="none" stroke="#63b8ff" d="M540.5,-171.08C540.5,-159.13 540.5,-144.22 540.5,-134.91"/>
<polygon fill="#63b8ff" stroke="#63b8ff" points="537,-171.37 540.5,-181.37 544,-171.37 537,-171.37"/>
</a>
</g>
</g>
<!-- Node7 -->
<g id="Node000007" class="node">
<title>Node7</title>
<g id="a_Node000007"><a xlink:href="ft__echo_8c.html" target="_top" xlink:title=" ">
<polygon fill="white" stroke="#666666" points="731.5,-134.5 637.5,-134.5 637.5,-115.5 731.5,-115.5 731.5,-134.5"/>
<text text-anchor="middle" x="684.5" y="-122.5" font-family="Helvetica,sans-Serif" font-size="10.00">builtin/ft_echo.c</text>
</a>
</g>
</g>
<!-- Node2&#45;&gt;Node7 -->
<g id="edge6_Node000002_Node000007" class="edge">
<title>Node2&#45;&gt;Node7</title>
<g id="a_edge6_Node000002_Node000007"><a xlink:title=" ">
<path fill="none" stroke="#63b8ff" d="M569.31,-177.19C597.69,-164.58 640.27,-145.66 664.93,-134.7"/>
<polygon fill="#63b8ff" stroke="#63b8ff" points="567.64,-174.11 559.92,-181.37 570.48,-180.51 567.64,-174.11"/>
</a>
</g>
</g>
<!-- Node8 -->
<g id="Node000008" class="node">
<title>Node8</title>
<g id="a_Node000008"><a xlink:href="pwd_8c.html" target="_top" xlink:title=" ">
<polygon fill="white" stroke="#666666" points="79,-134.5 0,-134.5 0,-115.5 79,-115.5 79,-134.5"/>
<text text-anchor="middle" x="39.5" y="-122.5" font-family="Helvetica,sans-Serif" font-size="10.00">builtin/pwd.c</text>
</a>
</g>
</g>
<!-- Node2&#45;&gt;Node8 -->
<g id="edge7_Node000002_Node000008" class="edge">
<title>Node2&#45;&gt;Node8</title>
<g id="a_edge7_Node000002_Node000008"><a xlink:title=" ">
<path fill="none" stroke="#63b8ff" d="M485.19,-186.89C399.54,-181.39 229.94,-167.82 88.5,-140 81.21,-138.57 73.43,-136.57 66.26,-134.52"/>
<polygon fill="#63b8ff" stroke="#63b8ff" points="485.01,-190.38 495.21,-187.52 485.45,-183.4 485.01,-190.38"/>
</a>
</g>
</g>
<!-- Node9 -->
<g id="Node000009" class="node">
<title>Node9</title>
<g id="a_Node000009"><a xlink:href="unset_8c.html" target="_top" xlink:title=" ">
<polygon fill="white" stroke="#666666" points="183.5,-134.5 97.5,-134.5 97.5,-115.5 183.5,-115.5 183.5,-134.5"/>
<text text-anchor="middle" x="140.5" y="-122.5" font-family="Helvetica,sans-Serif" font-size="10.00">builtin/unset.c</text>
</a>
</g>
</g>
<!-- Node2&#45;&gt;Node9 -->
<g id="edge8_Node000002_Node000009" class="edge">
<title>Node2&#45;&gt;Node9</title>
<g id="a_edge8_Node000002_Node000009"><a xlink:title=" ">
<path fill="none" stroke="#63b8ff" d="M485.24,-184.14C416.3,-176.35 295,-161.08 192.5,-140 185.08,-138.47 177.15,-136.51 169.78,-134.54"/>
<polygon fill="#63b8ff" stroke="#63b8ff" points="485.1,-187.65 495.43,-185.28 485.88,-180.69 485.1,-187.65"/>
</a>
</g>
</g>
<!-- Node2&#45;&gt;Node10 -->
<g id="edge9_Node000002_Node000010" class="edge">
<title>Node2&#45;&gt;Node10</title>
<g id="a_edge9_Node000002_Node000010"><a xlink:title=" ">
<path fill="none" stroke="#63b8ff" d="M555.63,-174.21C576.11,-153.22 611.96,-117.86 628.5,-110 631.27,-108.68 791.16,-84.99 874.36,-72.73"/>
<polygon fill="#63b8ff" stroke="#63b8ff" points="553.05,-171.84 548.61,-181.46 558.08,-176.71 553.05,-171.84"/>
</a>
</g>
</g>
<!-- Node2&#45;&gt;Node14 -->
<g id="edge13_Node000002_Node000014" class="edge">
<title>Node2&#45;&gt;Node14</title>
<g id="a_edge13_Node000002_Node000014"><a xlink:title=" ">
<path fill="none" stroke="#63b8ff" d="M585.84,-179.05C626.44,-169.15 687.56,-154.03 740.5,-140 747.04,-138.27 754.03,-136.35 760.66,-134.5"/>
<polygon fill="#63b8ff" stroke="#63b8ff" points="584.87,-175.68 575.98,-181.45 586.53,-182.48 584.87,-175.68"/>
</a>
</g>
</g>
<!-- Node11 -->
<g id="Node000011" class="node">
<title>Node11</title>
<g id="a_Node000011"><a xlink:href="cmd__execution_8c.html" target="_top" xlink:title=" ">
<polygon fill="white" stroke="#666666" points="866.5,-19 740.5,-19 740.5,0 866.5,0 866.5,-19"/>
<text text-anchor="middle" x="803.5" y="-7" font-family="Helvetica,sans-Serif" font-size="10.00">main/cmd_execution.c</text>
</a>
</g>
</g>
<!-- Node10&#45;&gt;Node11 -->
<g id="edge10_Node000010_Node000011" class="edge">
<title>Node10&#45;&gt;Node11</title>
<g id="a_edge10_Node000010_Node000011"><a xlink:title=" ">
<path fill="none" stroke="#63b8ff" d="M894.97,-50.9C872.8,-41.11 842.65,-27.79 823.13,-19.17"/>
<polygon fill="#63b8ff" stroke="#63b8ff" points="893.66,-54.15 904.22,-54.98 896.49,-47.74 893.66,-54.15"/>
</a>
</g>
</g>
<!-- Node12 -->
<g id="Node000012" class="node">
<title>Node12</title>
<g id="a_Node000012"><a xlink:href="main_8c.html" target="_top" xlink:title=" ">
<polygon fill="white" stroke="#666666" points="962,-19 885,-19 885,0 962,0 962,-19"/>
<text text-anchor="middle" x="923.5" y="-7" font-family="Helvetica,sans-Serif" font-size="10.00">main/main.c</text>
</a>
</g>
</g>
<!-- Node10&#45;&gt;Node12 -->
<g id="edge11_Node000010_Node000012" class="edge">
<title>Node10&#45;&gt;Node12</title>
<g id="a_edge11_Node000010_Node000012"><a xlink:title=" ">
<path fill="none" stroke="#63b8ff" d="M923.5,-44.66C923.5,-35.93 923.5,-25.99 923.5,-19.09"/>
<polygon fill="#63b8ff" stroke="#63b8ff" points="920,-44.75 923.5,-54.75 927,-44.75 920,-44.75"/>
</a>
</g>
</g>
<!-- Node13 -->
<g id="Node000013" class="node">
<title>Node13</title>
<g id="a_Node000013"><a xlink:href="main__utils_8c.html" target="_top" xlink:title=" ">
<polygon fill="white" stroke="#666666" points="1084.5,-19 980.5,-19 980.5,0 1084.5,0 1084.5,-19"/>
<text text-anchor="middle" x="1032.5" y="-7" font-family="Helvetica,sans-Serif" font-size="10.00">main/main_utils.c</text>
</a>
</g>
</g>
<!-- Node10&#45;&gt;Node13 -->
<g id="edge12_Node000010_Node000013" class="edge">
<title>Node10&#45;&gt;Node13</title>
<g id="a_edge12_Node000010_Node000013"><a xlink:title=" ">
<path fill="none" stroke="#63b8ff" d="M950.23,-50.5C970.29,-40.75 997.18,-27.68 1014.67,-19.17"/>
<polygon fill="#63b8ff" stroke="#63b8ff" points="948.48,-47.46 941.01,-54.98 951.54,-53.76 948.48,-47.46"/>
</a>
</g>
</g>
<!-- Node14&#45;&gt;Node10 -->
<g id="edge14_Node000014_Node000010" class="edge">
<title>Node14&#45;&gt;Node10</title>
<g id="a_edge14_Node000014_Node000010"><a xlink:title=" ">
<path fill="none" stroke="#63b8ff" d="M819.07,-111.43C844.75,-100.14 881.77,-83.86 904.14,-74.02"/>
<polygon fill="#63b8ff" stroke="#63b8ff" points="817.58,-108.26 809.84,-115.49 820.4,-114.67 817.58,-108.26"/>
</a>
</g>
</g>
<!-- Node15 -->
<g id="Node000015" class="node">
<title>Node15</title>
<g id="a_Node000015"><a xlink:href="create__pipe__list_8c.html" target="_top" xlink:title=" ">
<polygon fill="white" stroke="#666666" points="856,-74 725,-74 725,-55 856,-55 856,-74"/>
<text text-anchor="middle" x="790.5" y="-62" font-family="Helvetica,sans-Serif" font-size="10.00">pipes/create_pipe_list.c</text>
</a>
</g>
</g>
<!-- Node14&#45;&gt;Node15 -->
<g id="edge15_Node000014_Node000015" class="edge">
<title>Node14&#45;&gt;Node15</title>
<g id="a_edge15_Node000014_Node000015"><a xlink:title=" ">
<path fill="none" stroke="#63b8ff" d="M790.5,-105.16C790.5,-94.74 790.5,-82.3 790.5,-74.17"/>
<polygon fill="#63b8ff" stroke="#63b8ff" points="787,-105.37 790.5,-115.37 794,-105.37 787,-105.37"/>
</a>
</g>
</g>
<!-- Node16 -->
<g id="Node000016" class="node">
<title>Node16</title>
<g id="a_Node000016"><a xlink:href="pipes_8c.html" target="_top" xlink:title=" ">
<polygon fill="white" stroke="#666666" points="706.5,-74 626.5,-74 626.5,-55 706.5,-55 706.5,-74"/>
<text text-anchor="middle" x="666.5" y="-62" font-family="Helvetica,sans-Serif" font-size="10.00">pipes/pipes.c</text>
</a>
</g>
</g>
<!-- Node14&#45;&gt;Node16 -->
<g id="edge16_Node000014_Node000016" class="edge">
<title>Node14&#45;&gt;Node16</title>
<g id="a_edge16_Node000014_Node000016"><a xlink:title=" ">
<path fill="none" stroke="#63b8ff" d="M763.23,-111.13C739.31,-99.85 705.22,-83.77 684.55,-74.02"/>
<polygon fill="#63b8ff" stroke="#63b8ff" points="761.93,-114.39 772.47,-115.49 764.92,-108.06 761.93,-114.39"/>
</a>
</g>
</g>
<!-- Node17&#45;&gt;Node10 -->
<g id="edge20_Node000017_Node000010" class="edge">
<title>Node17&#45;&gt;Node10</title>
<g id="a_edge20_Node000017_Node000010"><a xlink:title=" ">
<path fill="none" stroke="#63b8ff" d="M1320.68,-178.32C1362.07,-164.36 1417.05,-139.2 1390.5,-110 1362.76,-79.49 1086.7,-69.41 972.53,-66.52"/>
<polygon fill="#63b8ff" stroke="#63b8ff" points="1319.47,-175.04 1311.04,-181.46 1321.63,-181.69 1319.47,-175.04"/>
</a>
</g>
</g>
<!-- Node18 -->
<g id="Node000018" class="node">
<title>Node18</title>
<g id="a_Node000018"><a xlink:href="create__command__list_8c.html" target="_top" xlink:title=" ">
<polygon fill="white" stroke="#666666" points="1253,-140 1134,-140 1134,-110 1253,-110 1253,-140"/>
<text text-anchor="start" x="1142" y="-128" font-family="Helvetica,sans-Serif" font-size="10.00">command_list/create</text>
<text text-anchor="middle" x="1193.5" y="-117" font-family="Helvetica,sans-Serif" font-size="10.00">_command_list.c</text>
</a>
</g>
</g>
<!-- Node17&#45;&gt;Node18 -->
<g id="edge18_Node000017_Node000018" class="edge">
<title>Node17&#45;&gt;Node18</title>
<g id="a_edge18_Node000017_Node000018"><a xlink:title=" ">
<path fill="none" stroke="#63b8ff" d="M1260.54,-175.32C1246.17,-164.74 1226.88,-150.56 1212.69,-140.12"/>
<polygon fill="#63b8ff" stroke="#63b8ff" points="1258.64,-178.26 1268.77,-181.37 1262.79,-172.62 1258.64,-178.26"/>
</a>
</g>
</g>
<!-- Node19 -->
<g id="Node000019" class="node">
<title>Node19</title>
<g id="a_Node000019"><a xlink:href="utils__cmd__list_8c.html" target="_top" xlink:title=" ">
<polygon fill="white" stroke="#666666" points="1381.5,-140 1271.5,-140 1271.5,-110 1381.5,-110 1381.5,-140"/>
<text text-anchor="start" x="1279.5" y="-128" font-family="Helvetica,sans-Serif" font-size="10.00">command_list/utils</text>
<text text-anchor="middle" x="1326.5" y="-117" font-family="Helvetica,sans-Serif" font-size="10.00">_cmd_list.c</text>
</a>
</g>
</g>
<!-- Node17&#45;&gt;Node19 -->
<g id="edge19_Node000017_Node000019" class="edge">
<title>Node17&#45;&gt;Node19</title>
<g id="a_edge19_Node000017_Node000019"><a xlink:title=" ">
<path fill="none" stroke="#63b8ff" d="M1292.55,-173.24C1299.89,-163.02 1309.18,-150.1 1316.18,-140.36"/>
<polygon fill="#63b8ff" stroke="#63b8ff" points="1289.7,-171.21 1286.7,-181.37 1295.38,-175.29 1289.7,-171.21"/>
</a>
</g>
</g>
<!-- Node32&#45;&gt;Node2 -->
<g id="edge36_Node000032_Node000002" class="edge">
<title>Node32&#45;&gt;Node2</title>
<g id="a_edge36_Node000032_Node000002"><a xlink:title=" ">
<path fill="none" stroke="#63b8ff" d="M828.4,-245.56C760.69,-232.96 648.15,-212.03 585.72,-200.41"/>
<polygon fill="#63b8ff" stroke="#63b8ff" points="827.99,-249.05 838.46,-247.44 829.27,-242.16 827.99,-249.05"/>
</a>
</g>
</g>
<!-- Node32&#45;&gt;Node10 -->
<g id="edge38_Node000032_Node000010" class="edge">
<title>Node32&#45;&gt;Node10</title>
<g id="a_edge38_Node000032_Node000010"><a xlink:title=" ">
<path fill="none" stroke="#63b8ff" d="M874.5,-238.19C869.86,-228.9 864.85,-217.18 862.5,-206 859.76,-192.95 859.17,-188.91 862.5,-176 873.22,-134.41 903.28,-91.73 916.78,-74.01"/>
<polygon fill="#63b8ff" stroke="#63b8ff" points="871.48,-239.97 879.26,-247.17 877.67,-236.69 871.48,-239.97"/>
</a>
</g>
</g>
<!-- Node32&#45;&gt;Node14 -->
<g id="edge39_Node000032_Node000014" class="edge">
<title>Node32&#45;&gt;Node14</title>
<g id="a_edge39_Node000032_Node000014"><a xlink:title=" ">
<path fill="none" stroke="#63b8ff" d="M864.72,-241.15C853.39,-231.93 839.49,-219.33 829.5,-206 811.89,-182.51 798.94,-149.82 793.43,-134.53"/>
<polygon fill="#63b8ff" stroke="#63b8ff" points="862.75,-244.05 872.77,-247.49 867.08,-238.55 862.75,-244.05"/>
</a>
</g>
</g>
<!-- Node32&#45;&gt;Node17 -->
<g id="edge37_Node000032_Node000017" class="edge">
<title>Node32&#45;&gt;Node17</title>
<g id="a_edge37_Node000032_Node000017"><a xlink:title=" ">
<path fill="none" stroke="#63b8ff" d="M947.61,-245.8C1025.17,-233.26 1155.37,-212.22 1227.82,-200.51"/>
<polygon fill="#63b8ff" stroke="#63b8ff" points="946.81,-242.38 937.5,-247.44 947.93,-249.29 946.81,-242.38"/>
</a>
</g>
</g>
<!-- Node33 -->
<g id="Node000033" class="node">
<title>Node33</title>
<g id="a_Node000033"><a xlink:href="handle__heredoc_8c.html" target="_top" xlink:title=" ">
<polygon fill="white" stroke="#666666" points="981.5,-206 871.5,-206 871.5,-176 981.5,-176 981.5,-206"/>
<text text-anchor="start" x="879.5" y="-194" font-family="Helvetica,sans-Serif" font-size="10.00">redirections/handle</text>
<text text-anchor="middle" x="926.5" y="-183" font-family="Helvetica,sans-Serif" font-size="10.00">_heredoc.c</text>
</a>
</g>
</g>
<!-- Node32&#45;&gt;Node33 -->
<g id="edge40_Node000032_Node000033" class="edge">
<title>Node32&#45;&gt;Node33</title>
<g id="a_edge40_Node000032_Node000033"><a xlink:title=" ">
<path fill="none" stroke="#63b8ff" d="M895.71,-238.92C902.38,-228.76 910.75,-216.01 917.08,-206.36"/>
<polygon fill="#63b8ff" stroke="#63b8ff" points="892.72,-237.09 890.16,-247.37 898.58,-240.93 892.72,-237.09"/>
</a>
</g>
</g>
<!-- Node34 -->
<g id="Node000034" class="node">
<title>Node34</title>
<g id="a_Node000034"><a xlink:href="handle__redirections_8c.html" target="_top" xlink:title=" ">
<polygon fill="white" stroke="#666666" points="777.5,-206 667.5,-206 667.5,-176 777.5,-176 777.5,-206"/>
<text text-anchor="start" x="675.5" y="-194" font-family="Helvetica,sans-Serif" font-size="10.00">redirections/handle</text>
<text text-anchor="middle" x="722.5" y="-183" font-family="Helvetica,sans-Serif" font-size="10.00">_redirections.c</text>
</a>
</g>
</g>
<!-- Node32&#45;&gt;Node34 -->
<g id="edge41_Node000032_Node000034" class="edge">
<title>Node32&#45;&gt;Node34</title>
<g id="a_edge41_Node000032_Node000034"><a xlink:title=" ">
<path fill="none" stroke="#63b8ff" d="M853.23,-243.65C826.04,-232.9 786.66,-217.35 758.23,-206.12"/>
<polygon fill="#63b8ff" stroke="#63b8ff" points="852.07,-246.95 862.65,-247.37 854.64,-240.44 852.07,-246.95"/>
</a>
</g>
</g>
<!-- Node32&#45;&gt;Node35 -->
<g id="edge42_Node000032_Node000035" class="edge">
<title>Node32&#45;&gt;Node35</title>
<g id="a_edge42_Node000032_Node000035"><a xlink:title=" ">
<path fill="none" stroke="#63b8ff" d="M920.11,-244.07C952.2,-233.31 999.42,-217.49 1033.37,-206.12"/>
<polygon fill="#63b8ff" stroke="#63b8ff" points="918.63,-240.87 910.26,-247.37 920.85,-247.51 918.63,-240.87"/>
</a>
</g>
</g>
<!-- Node35&#45;&gt;Node10 -->
<g id="edge43_Node000035_Node000010" class="edge">
<title>Node35&#45;&gt;Node10</title>
<g id="a_edge43_Node000035_Node000010"><a xlink:title=" ">
<path fill="none" stroke="#63b8ff" d="M993.4,-173.54C959.77,-164.98 926.39,-153.48 916.5,-140 902.05,-120.31 912.6,-89.36 919.22,-74.31"/>
<polygon fill="#63b8ff" stroke="#63b8ff" points="992.8,-177 1003.35,-175.99 994.48,-170.2 992.8,-177"/>
</a>
</g>
</g>
<!-- Node35&#45;&gt;Node14 -->
<g id="edge44_Node000035_Node000014" class="edge">
<title>Node35&#45;&gt;Node14</title>
<g id="a_edge44_Node000035_Node000014"><a xlink:title=" ">
<path fill="none" stroke="#63b8ff" d="M1003.15,-173.75C947.52,-161.26 872.88,-144.5 828.43,-134.52"/>
<polygon fill="#63b8ff" stroke="#63b8ff" points="1002.43,-177.18 1012.96,-175.95 1003.97,-170.35 1002.43,-177.18"/>
</a>
</g>
</g>
<!-- Node36 -->
<g id="Node000036" class="node">
<title>Node36</title>
<g id="a_Node000036"><a xlink:href="system__commands_8c.html" target="_top" xlink:title=" ">
<polygon fill="white" stroke="#666666" points="1077,-140 926,-140 926,-110 1077,-110 1077,-140"/>
<text text-anchor="start" x="934" y="-128" font-family="Helvetica,sans-Serif" font-size="10.00">system_commands/system</text>
<text text-anchor="middle" x="1001.5" y="-117" font-family="Helvetica,sans-Serif" font-size="10.00">_commands.c</text>
</a>
</g>
</g>
<!-- Node35&#45;&gt;Node36 -->
<g id="edge45_Node000035_Node000036" class="edge">
<title>Node35&#45;&gt;Node36</title>
<g id="a_edge45_Node000035_Node000036"><a xlink:title=" ">
<path fill="none" stroke="#63b8ff" d="M1051.45,-169.2C1040.47,-159.7 1027.74,-148.69 1017.88,-140.16"/>
<polygon fill="#63b8ff" stroke="#63b8ff" points="1049.22,-171.9 1059.08,-175.8 1053.8,-166.61 1049.22,-171.9"/>
</a>
</g>
</g>
<!-- Node37&#45;&gt;Node10 -->
<g id="edge49_Node000037_Node000010" class="edge">
<title>Node37&#45;&gt;Node10</title>
<g id="a_edge49_Node000037_Node000010"><a xlink:title=" ">
<path fill="none" stroke="#63b8ff" d="M1385.89,-237.64C1393.39,-206.18 1407.94,-144.87 1408.5,-140 1410.02,-126.75 1417.49,-119.85 1408.5,-110 1379.51,-78.22 1090.14,-68.85 972.67,-66.34"/>
<polygon fill="#63b8ff" stroke="#63b8ff" points="1382.48,-236.84 1383.56,-247.38 1389.29,-238.47 1382.48,-236.84"/>
</a>
</g>
</g>
<!-- Node37&#45;&gt;Node17 -->
<g id="edge48_Node000037_Node000017" class="edge">
<title>Node37&#45;&gt;Node17</title>
<g id="a_edge48_Node000037_Node000017"><a xlink:title=" ">
<path fill="none" stroke="#63b8ff" d="M1359.17,-241.85C1339.31,-229.27 1310.92,-211.28 1294.23,-200.7"/>
<polygon fill="#63b8ff" stroke="#63b8ff" points="1357.56,-244.97 1367.88,-247.37 1361.31,-239.06 1357.56,-244.97"/>
</a>
</g>
</g>
<!-- Node38 -->
<g id="Node000038" class="node">
<title>Node38</title>
<g id="a_Node000038"><a xlink:href="assign__token__type_8c.html" target="_top" xlink:title=" ">
<polygon fill="white" stroke="#666666" points="2422.5,-206 2306.5,-206 2306.5,-176 2422.5,-176 2422.5,-206"/>
<text text-anchor="start" x="2314.5" y="-194" font-family="Helvetica,sans-Serif" font-size="10.00">tokens/assign_token</text>
<text text-anchor="middle" x="2364.5" y="-183" font-family="Helvetica,sans-Serif" font-size="10.00">_type.c</text>
</a>
</g>
</g>
<!-- Node37&#45;&gt;Node38 -->
<g id="edge50_Node000037_Node000038" class="edge">
<title>Node37&#45;&gt;Node38</title>
<g id="a_edge50_Node000037_Node000038"><a xlink:title=" ">
<path fill="none" stroke="#63b8ff" d="M1420.77,-245.12C1426.35,-243.88 1432.04,-242.79 1437.5,-242 1816.13,-187.33 1917.88,-253.28 2297.5,-206 2300.45,-205.63 2303.46,-205.2 2306.49,-204.73"/>
<polygon fill="#63b8ff" stroke="#63b8ff" points="1419.84,-241.74 1410.92,-247.45 1421.46,-248.55 1419.84,-241.74"/>
</a>
</g>
</g>
<!-- Node39 -->
<g id="Node000039" class="node">
<title>Node39</title>
<g id="a_Node000039"><a xlink:href="check__sintax_8c.html" target="_top" xlink:title=" ">
<polygon fill="white" stroke="#666666" points="1533.5,-200.5 1409.5,-200.5 1409.5,-181.5 1533.5,-181.5 1533.5,-200.5"/>
<text text-anchor="middle" x="1471.5" y="-188.5" font-family="Helvetica,sans-Serif" font-size="10.00">tokens/check_sintax.c</text>
</a>
</g>
</g>
<!-- Node37&#45;&gt;Node39 -->
<g id="edge51_Node000037_Node000039" class="edge">
<title>Node37&#45;&gt;Node39</title>
<g id="a_edge51_Node000037_Node000039"><a xlink:title=" ">
<path fill="none" stroke="#63b8ff" d="M1402.12,-241.33C1419.78,-228.78 1444.6,-211.13 1459.27,-200.7"/>
<polygon fill="#63b8ff" stroke="#63b8ff" points="1399.76,-238.72 1393.64,-247.37 1403.82,-244.43 1399.76,-238.72"/>
</a>
</g>
</g>
<!-- Node40 -->
<g id="Node000040" class="node">
<title>Node40</title>
<g id="a_Node000040"><a xlink:href="check__sintax__utils_8c.html" target="_top" xlink:title=" ">
<polygon fill="white" stroke="#666666" points="1667.5,-206 1551.5,-206 1551.5,-176 1667.5,-176 1667.5,-206"/>
<text text-anchor="start" x="1559.5" y="-194" font-family="Helvetica,sans-Serif" font-size="10.00">tokens/check_sintax</text>
<text text-anchor="middle" x="1609.5" y="-183" font-family="Helvetica,sans-Serif" font-size="10.00">_utils.c</text>
</a>
</g>
</g>
<!-- Node37&#45;&gt;Node40 -->
<g id="edge52_Node000037_Node000040" class="edge">
<title>Node37&#45;&gt;Node40</title>
<g id="a_edge52_Node000037_Node000040"><a xlink:title=" ">
<path fill="none" stroke="#63b8ff" d="M1422.04,-244.62C1460.36,-233.86 1517.98,-217.69 1559.21,-206.12"/>
<polygon fill="#63b8ff" stroke="#63b8ff" points="1420.93,-241.3 1412.25,-247.37 1422.82,-248.04 1420.93,-241.3"/>
</a>
</g>
</g>
<!-- Node41 -->
<g id="Node000041" class="node">
<title>Node41</title>
<g id="a_Node000041"><a xlink:href="for__merge__echo_8c.html" target="_top" xlink:title=" ">
<polygon fill="white" stroke="#666666" points="1825,-200.5 1686,-200.5 1686,-181.5 1825,-181.5 1825,-200.5"/>
<text text-anchor="middle" x="1755.5" y="-188.5" font-family="Helvetica,sans-Serif" font-size="10.00">tokens/for_merge_echo.c</text>
</a>
</g>
</g>
<!-- Node37&#45;&gt;Node41 -->
<g id="edge53_Node000037_Node000041" class="edge">
<title>Node37&#45;&gt;Node41</title>
<g id="a_edge53_Node000037_Node000041"><a xlink:title=" ">
<path fill="none" stroke="#63b8ff" d="M1423.14,-245.12C1427.97,-244 1432.83,-242.93 1437.5,-242 1542.84,-220.95 1570.49,-223.37 1676.5,-206 1686.81,-204.31 1697.86,-202.41 1708.33,-200.57"/>
<polygon fill="#63b8ff" stroke="#63b8ff" points="1422.27,-241.73 1413.36,-247.47 1423.91,-248.54 1422.27,-241.73"/>
</a>
</g>
</g>
<!-- Node42 -->
<g id="Node000042" class="node">
<title>Node42</title>
<g id="a_Node000042"><a xlink:href="for__merge__export_8c.html" target="_top" xlink:title=" ">
<polygon fill="white" stroke="#666666" points="1990,-200.5 1843,-200.5 1843,-181.5 1990,-181.5 1990,-200.5"/>
<text text-anchor="middle" x="1916.5" y="-188.5" font-family="Helvetica,sans-Serif" font-size="10.00">tokens/for_merge_export.c</text>
</a>
</g>
</g>
<!-- Node37&#45;&gt;Node42 -->
<g id="edge54_Node000037_Node000042" class="edge">
<title>Node37&#45;&gt;Node42</title>
<g id="a_edge54_Node000037_Node000042"><a xlink:title=" ">
<path fill="none" stroke="#63b8ff" d="M1421.97,-245.1C1427.17,-243.93 1432.44,-242.86 1437.5,-242 1612.18,-212.43 1658.82,-228.93 1834.5,-206 1846.1,-204.49 1858.57,-202.53 1870.19,-200.56"/>
<polygon fill="#63b8ff" stroke="#63b8ff" points="1421.05,-241.72 1412.13,-247.44 1422.67,-248.53 1421.05,-241.72"/>
</a>
</g>
</g>
<!-- Node43 -->
<g id="Node000043" class="node">
<title>Node43</title>
<g id="a_Node000043"><a xlink:href="handle__tokens_8c.html" target="_top" xlink:title=" ">
<polygon fill="white" stroke="#666666" points="2139,-200.5 2008,-200.5 2008,-181.5 2139,-181.5 2139,-200.5"/>
<text text-anchor="middle" x="2073.5" y="-188.5" font-family="Helvetica,sans-Serif" font-size="10.00">tokens/handle_tokens.c</text>
</a>
</g>
</g>
<!-- Node37&#45;&gt;Node43 -->
<g id="edge55_Node000037_Node000043" class="edge">
<title>Node37&#45;&gt;Node43</title>
<g id="a_edge55_Node000037_Node000043"><a xlink:title=" ">
<path fill="none" stroke="#63b8ff" d="M1421.57,-245.05C1426.9,-243.87 1432.31,-242.81 1437.5,-242 1684.81,-203.49 1751.18,-237.32 1999.5,-206 2010.53,-204.61 2022.39,-202.6 2033.32,-200.53"/>
<polygon fill="#63b8ff" stroke="#63b8ff" points="1420.45,-241.72 1411.52,-247.43 1422.06,-248.54 1420.45,-241.72"/>
</a>
</g>
</g>
<!-- Node44 -->
<g id="Node000044" class="node">
<title>Node44</title>
<g id="a_Node000044"><a xlink:href="tokenize__input_8c.html" target="_top" xlink:title=" ">
<polygon fill="white" stroke="#666666" points="2288,-200.5 2157,-200.5 2157,-181.5 2288,-181.5 2288,-200.5"/>
<text text-anchor="middle" x="2222.5" y="-188.5" font-family="Helvetica,sans-Serif" font-size="10.00">tokens/tokenize_input.c</text>
</a>
</g>
</g>
<!-- Node37&#45;&gt;Node44 -->
<g id="edge56_Node000037_Node000044" class="edge">
<title>Node37&#45;&gt;Node44</title>
<g id="a_edge56_Node000037_Node000044"><a xlink:title=" ">
<path fill="none" stroke="#63b8ff" d="M1420.96,-245.12C1426.48,-243.9 1432.11,-242.8 1437.5,-242 1750.46,-195.41 1834.32,-243.5 2148.5,-206 2159.67,-204.67 2171.68,-202.65 2182.71,-200.56"/>
<polygon fill="#63b8ff" stroke="#63b8ff" points="1420.14,-241.72 1411.22,-247.43 1421.76,-248.53 1420.14,-241.72"/>
</a>
</g>
</g>
</g>
</svg>
