<?xml version="1.0" encoding="UTF-8" standalone="no"?>
<!DOCTYPE svg PUBLIC "-//W3C//DTD SVG 1.1//EN"
 "http://www.w3.org/Graphics/SVG/1.1/DTD/svg11.dtd">
<!-- Generated by graphviz version 2.43.0 (0)
 -->
<!-- Title: check_value_fd Pages: 1 -->
<svg width="1282pt" height="327pt"
 viewBox="0.00 0.00 1282.00 327.00" xmlns="http://www.w3.org/2000/svg" xmlns:xlink="http://www.w3.org/1999/xlink">
<g id="graph0" class="graph" transform="scale(1 1) rotate(0) translate(4 323)">
<title>check_value_fd</title>
<!-- Node1 -->
<g id="Node000001" class="node">
<title>Node1</title>
<g id="a_Node000001"><a xlink:title="Returns the correct file descriptor based on append flag and file.">
<polygon fill="#999999" stroke="#666666" points="1274,-190 1182,-190 1182,-171 1274,-171 1274,-190"/>
<text text-anchor="middle" x="1228" y="-178" font-family="Helvetica,sans-Serif" font-size="10.00">check_value_fd</text>
</a>
</g>
</g>
<!-- Node2 -->
<g id="Node000002" class="node">
<title>Node2</title>
<g id="a_Node000002"><a xlink:href="exit_8c.html#af0d4948984577b715a89f18d5864cfa2" target="_top" xlink:title="Builtin function for the exit command.">
<polygon fill="white" stroke="#666666" points="1012,-319 965,-319 965,-300 1012,-300 1012,-319"/>
<text text-anchor="middle" x="988.5" y="-307" font-family="Helvetica,sans-Serif" font-size="10.00">ft_exit</text>
</a>
</g>
</g>
<!-- Node1&#45;&gt;Node2 -->
<g id="edge1_Node000001_Node000002" class="edge">
<title>Node1&#45;&gt;Node2</title>
<g id="a_edge1_Node000001_Node000002"><a xlink:title=" ">
<path fill="none" stroke="#63b8ff" d="M1206.57,-196.04C1175.1,-219.37 1112.16,-263.56 1053,-290.5 1039.91,-296.46 1024.46,-301.13 1012.08,-304.35"/>
<polygon fill="#63b8ff" stroke="#63b8ff" points="1208.68,-198.84 1214.59,-190.05 1204.49,-193.24 1208.68,-198.84"/>
</a>
</g>
</g>
<!-- Node12 -->
<g id="Node000012" class="node">
<title>Node12</title>
<g id="a_Node000012"><a xlink:href="utils__fd_8c.html#a184b4852a6ca5544cc056e7a8e20e4ad" target="_top" xlink:title="Handles opening and validating file descriptors for command input/output.">
<polygon fill="white" stroke="#666666" points="1146,-171 1089,-171 1089,-152 1146,-152 1146,-171"/>
<text text-anchor="middle" x="1117.5" y="-159" font-family="Helvetica,sans-Serif" font-size="10.00">ft_for_fd</text>
</a>
</g>
</g>
<!-- Node1&#45;&gt;Node12 -->
<g id="edge12_Node000001_Node000012" class="edge">
<title>Node1&#45;&gt;Node12</title>
<g id="a_edge12_Node000001_Node000012"><a xlink:title=" ">
<path fill="none" stroke="#63b8ff" d="M1171.9,-170.85C1162.99,-169.29 1154.11,-167.74 1146.22,-166.35"/>
<polygon fill="#63b8ff" stroke="#63b8ff" points="1171.47,-174.33 1181.93,-172.61 1172.68,-167.43 1171.47,-174.33"/>
</a>
</g>
</g>
<!-- Node3 -->
<g id="Node000003" class="node">
<title>Node3</title>
<g id="a_Node000003"><a xlink:href="cmd__execution_8c.html#a5ce7231f800cbacea6350cc1a32a59bd" target="_top" xlink:title="Executes a list of non&#45;pipelined commands.">
<polygon fill="white" stroke="#666666" points="744,-171 672,-171 672,-152 744,-152 744,-171"/>
<text text-anchor="middle" x="708" y="-159" font-family="Helvetica,sans-Serif" font-size="10.00">ft_exe_cmd</text>
</a>
</g>
</g>
<!-- Node2&#45;&gt;Node3 -->
<g id="edge2_Node000002_Node000003" class="edge">
<title>Node2&#45;&gt;Node3</title>
<g id="a_edge2_Node000002_Node000003"><a xlink:title=" ">
<path fill="none" stroke="#63b8ff" d="M954.59,-312.65C911.78,-314.91 836.92,-312.3 790,-273.5 755.84,-245.26 784.86,-212.31 754,-180.5 750.34,-176.73 745.81,-173.67 741.05,-171.2"/>
<polygon fill="#63b8ff" stroke="#63b8ff" points="954.99,-316.13 964.75,-311.99 954.54,-309.15 954.99,-316.13"/>
</a>
</g>
</g>
<!-- Node7 -->
<g id="Node000007" class="node">
<title>Node7</title>
<g id="a_Node000007"><a xlink:href="cmd__execution_8c.html#a50e59fa2e4621831a415d4038f697c56" target="_top" xlink:title="Executes a command within a pipeline.">
<polygon fill="white" stroke="#666666" points="888,-209 790,-209 790,-190 888,-190 888,-209"/>
<text text-anchor="middle" x="839" y="-197" font-family="Helvetica,sans-Serif" font-size="10.00">ft_exe_pipe_cmd</text>
</a>
</g>
</g>
<!-- Node2&#45;&gt;Node7 -->
<g id="edge6_Node000002_Node000007" class="edge">
<title>Node2&#45;&gt;Node7</title>
<g id="a_edge6_Node000002_Node000007"><a xlink:title=" ">
<path fill="none" stroke="#63b8ff" d="M954.83,-303.3C944.47,-300.42 933.3,-296.3 924,-290.5 888.62,-268.41 858.62,-227.54 846.17,-209.04"/>
<polygon fill="#63b8ff" stroke="#63b8ff" points="954.27,-306.77 964.82,-305.78 955.96,-299.97 954.27,-306.77"/>
</a>
</g>
</g>
<!-- Node4 -->
<g id="Node000004" class="node">
<title>Node4</title>
<g id="a_Node000004"><a xlink:href="main__utils_8c.html#a7e8f478480ab6ab34d6f5eadaf6acdb9" target="_top" xlink:title="Handles parsing and execution of tokens.">
<polygon fill="white" stroke="#666666" points="273,-190 192,-190 192,-171 273,-171 273,-190"/>
<text text-anchor="middle" x="232.5" y="-178" font-family="Helvetica,sans-Serif" font-size="10.00">ft_token_flow</text>
</a>
</g>
</g>
<!-- Node3&#45;&gt;Node4 -->
<g id="edge3_Node000003_Node000004" class="edge">
<title>Node3&#45;&gt;Node4</title>
<g id="a_edge3_Node000003_Node000004"><a xlink:title=" ">
<path fill="none" stroke="#63b8ff" d="M661.65,-163.32C569.27,-167.03 360.66,-175.4 273.23,-178.91"/>
<polygon fill="#63b8ff" stroke="#63b8ff" points="661.95,-166.81 671.8,-162.91 661.67,-159.82 661.95,-166.81"/>
</a>
</g>
</g>
<!-- Node5 -->
<g id="Node000005" class="node">
<title>Node5</title>
<g id="a_Node000005"><a xlink:href="main__utils_8c.html#ae35edfb8f1339d6f77f53c28eb2a2ed6" target="_top" xlink:title="Handles a complete cycle of input → parsing → execution.">
<polygon fill="white" stroke="#666666" points="156,-190 77,-190 77,-171 156,-171 156,-190"/>
<text text-anchor="middle" x="116.5" y="-178" font-family="Helvetica,sans-Serif" font-size="10.00">ft_main_flow</text>
</a>
</g>
</g>
<!-- Node4&#45;&gt;Node5 -->
<g id="edge4_Node000004_Node000005" class="edge">
<title>Node4&#45;&gt;Node5</title>
<g id="a_edge4_Node000004_Node000005"><a xlink:title=" ">
<path fill="none" stroke="#63b8ff" d="M181.7,-180.5C173.16,-180.5 164.4,-180.5 156.21,-180.5"/>
<polygon fill="#63b8ff" stroke="#63b8ff" points="181.95,-184 191.95,-180.5 181.95,-177 181.95,-184"/>
</a>
</g>
</g>
<!-- Node6 -->
<g id="Node000006" class="node">
<title>Node6</title>
<g id="a_Node000006"><a xlink:href="main_8c.html#ab3862b46d6a8d13c2d884a297e6b05b5" target="_top" xlink:title="Main function of the minishell.">
<polygon fill="white" stroke="#666666" points="41,-190 0,-190 0,-171 41,-171 41,-190"/>
<text text-anchor="middle" x="20.5" y="-178" font-family="Helvetica,sans-Serif" font-size="10.00">main</text>
</a>
</g>
</g>
<!-- Node5&#45;&gt;Node6 -->
<g id="edge5_Node000005_Node000006" class="edge">
<title>Node5&#45;&gt;Node6</title>
<g id="a_edge5_Node000005_Node000006"><a xlink:title=" ">
<path fill="none" stroke="#63b8ff" d="M66.74,-180.5C57.62,-180.5 48.59,-180.5 41.03,-180.5"/>
<polygon fill="#63b8ff" stroke="#63b8ff" points="67,-184 77,-180.5 67,-177 67,-184"/>
</a>
</g>
</g>
<!-- Node8 -->
<g id="Node000008" class="node">
<title>Node8</title>
<g id="a_Node000008"><a xlink:href="pipes_8c.html#a36a2d91a0566ad253efe3833b05e69d1" target="_top" xlink:title="Routine executed by the child process for each command in the pipe.">
<polygon fill="white" stroke="#666666" points="754,-209 662,-209 662,-190 754,-190 754,-209"/>
<text text-anchor="middle" x="708" y="-197" font-family="Helvetica,sans-Serif" font-size="10.00">ft_child_routine</text>
</a>
</g>
</g>
<!-- Node7&#45;&gt;Node8 -->
<g id="edge7_Node000007_Node000008" class="edge">
<title>Node7&#45;&gt;Node8</title>
<g id="a_edge7_Node000007_Node000008"><a xlink:title=" ">
<path fill="none" stroke="#63b8ff" d="M779.91,-199.5C771.24,-199.5 762.42,-199.5 754.08,-199.5"/>
<polygon fill="#63b8ff" stroke="#63b8ff" points="779.97,-203 789.97,-199.5 779.97,-196 779.97,-203"/>
</a>
</g>
</g>
<!-- Node9 -->
<g id="Node000009" class="node">
<title>Node9</title>
<g id="a_Node000009"><a xlink:href="pipes_8c.html#aa17e847997e7266a0a111ab3572756bb" target="_top" xlink:title="Manages pipe creation and fork to execute the current command.">
<polygon fill="white" stroke="#666666" points="626,-209 537,-209 537,-190 626,-190 626,-209"/>
<text text-anchor="middle" x="581.5" y="-197" font-family="Helvetica,sans-Serif" font-size="10.00">ft_pipe_routine</text>
</a>
</g>
</g>
<!-- Node8&#45;&gt;Node9 -->
<g id="edge8_Node000008_Node000009" class="edge">
<title>Node8&#45;&gt;Node9</title>
<g id="a_edge8_Node000008_Node000009"><a xlink:title=" ">
<path fill="none" stroke="#63b8ff" d="M651.52,-199.5C643.08,-199.5 634.46,-199.5 626.31,-199.5"/>
<polygon fill="#63b8ff" stroke="#63b8ff" points="651.7,-203 661.7,-199.5 651.7,-196 651.7,-203"/>
</a>
</g>
</g>
<!-- Node10 -->
<g id="Node000010" class="node">
<title>Node10</title>
<g id="a_Node000010"><a xlink:href="pipes_8c.html#a7a3b0de1a88a243da741f748881e14f0" target="_top" xlink:title="Executes a list of commands connected via pipes.">
<polygon fill="white" stroke="#666666" points="501,-209 420,-209 420,-190 501,-190 501,-209"/>
<text text-anchor="middle" x="460.5" y="-197" font-family="Helvetica,sans-Serif" font-size="10.00">execute_pipe</text>
</a>
</g>
</g>
<!-- Node9&#45;&gt;Node10 -->
<g id="edge9_Node000009_Node000010" class="edge">
<title>Node9&#45;&gt;Node10</title>
<g id="a_edge9_Node000009_Node000010"><a xlink:title=" ">
<path fill="none" stroke="#63b8ff" d="M526.85,-199.5C518.22,-199.5 509.42,-199.5 501.19,-199.5"/>
<polygon fill="#63b8ff" stroke="#63b8ff" points="526.86,-203 536.86,-199.5 526.86,-196 526.86,-203"/>
</a>
</g>
</g>
<!-- Node11 -->
<g id="Node000011" class="node">
<title>Node11</title>
<g id="a_Node000011"><a xlink:href="main__utils_8c.html#ad0183732909ae6e7c52e7b086c2e5642" target="_top" xlink:title="Manages the execution flow of commands with pipes.">
<polygon fill="white" stroke="#666666" points="384,-209 309,-209 309,-190 384,-190 384,-209"/>
<text text-anchor="middle" x="346.5" y="-197" font-family="Helvetica,sans-Serif" font-size="10.00">ft_pipe_flow</text>
</a>
</g>
</g>
<!-- Node10&#45;&gt;Node11 -->
<g id="edge10_Node000010_Node000011" class="edge">
<title>Node10&#45;&gt;Node11</title>
<g id="a_edge10_Node000010_Node000011"><a xlink:title=" ">
<path fill="none" stroke="#63b8ff" d="M409.47,-199.5C400.96,-199.5 392.26,-199.5 384.18,-199.5"/>
<polygon fill="#63b8ff" stroke="#63b8ff" points="409.7,-203 419.7,-199.5 409.7,-196 409.7,-203"/>
</a>
</g>
</g>
<!-- Node11&#45;&gt;Node4 -->
<g id="edge11_Node000011_Node000004" class="edge">
<title>Node11&#45;&gt;Node4</title>
<g id="a_edge11_Node000011_Node000004"><a xlink:title=" ">
<path fill="none" stroke="#63b8ff" d="M298.73,-191.57C290.29,-190.13 281.57,-188.65 273.35,-187.26"/>
<polygon fill="#63b8ff" stroke="#63b8ff" points="298.38,-195.06 308.83,-193.28 299.55,-188.16 298.38,-195.06"/>
</a>
</g>
</g>
<!-- Node13 -->
<g id="Node000013" class="node">
<title>Node13</title>
<g id="a_Node000013"><a xlink:href="ft__cd_8c.html#af438919e376d2d0df3830120118ea526" target="_top" xlink:title="Builtin function for the cd (change directory) command.">
<polygon fill="white" stroke="#666666" points="1008.5,-245 968.5,-245 968.5,-226 1008.5,-226 1008.5,-245"/>
<text text-anchor="middle" x="988.5" y="-233" font-family="Helvetica,sans-Serif" font-size="10.00">ft_cd</text>
</a>
</g>
</g>
<!-- Node12&#45;&gt;Node13 -->
<g id="edge13_Node000012_Node000013" class="edge">
<title>Node12&#45;&gt;Node13</title>
<g id="a_edge13_Node000012_Node000013"><a xlink:title=" ">
<path fill="none" stroke="#63b8ff" d="M1100.92,-178.39C1088.89,-190.53 1071.25,-206.48 1053,-216.5 1039.08,-224.14 1021.72,-229.07 1008.67,-231.98"/>
<polygon fill="#63b8ff" stroke="#63b8ff" points="1103.57,-180.69 1107.97,-171.05 1098.52,-175.84 1103.57,-180.69"/>
</a>
</g>
</g>
<!-- Node14 -->
<g id="Node000014" class="node">
<title>Node14</title>
<g id="a_Node000014"><a xlink:href="system__commands_8c.html#a6dfb68d4eb4b73539a6d36f36d23d093" target="_top" xlink:title="Function executed by the child process to run a command.">
<polygon fill="white" stroke="#666666" points="1014.5,-21 962.5,-21 962.5,-2 1014.5,-2 1014.5,-21"/>
<text text-anchor="middle" x="988.5" y="-9" font-family="Helvetica,sans-Serif" font-size="10.00">ft_child</text>
</a>
</g>
</g>
<!-- Node12&#45;&gt;Node14 -->
<g id="edge16_Node000012_Node000014" class="edge">
<title>Node12&#45;&gt;Node14</title>
<g id="a_edge16_Node000012_Node000014"><a xlink:title=" ">
<path fill="none" stroke="#63b8ff" d="M1112.1,-141.77C1104.76,-113.34 1087.28,-61.01 1053,-31.5 1042.31,-22.3 1027.39,-17.33 1014.7,-14.64"/>
<polygon fill="#63b8ff" stroke="#63b8ff" points="1108.76,-142.83 1114.51,-151.73 1115.56,-141.18 1108.76,-142.83"/>
</a>
</g>
</g>
<!-- Node16 -->
<g id="Node000016" class="node">
<title>Node16</title>
<g id="a_Node000016"><a xlink:href="ft__echo_8c.html#a177f72f5eedf5cdf35c113ae47966c4b" target="_top" xlink:title="Builtin function for the echo command.">
<polygon fill="white" stroke="#666666" points="1014.5,-60 962.5,-60 962.5,-41 1014.5,-41 1014.5,-60"/>
<text text-anchor="middle" x="988.5" y="-48" font-family="Helvetica,sans-Serif" font-size="10.00">ft_echo</text>
</a>
</g>
</g>
<!-- Node12&#45;&gt;Node16 -->
<g id="edge19_Node000012_Node000016" class="edge">
<title>Node12&#45;&gt;Node16</title>
<g id="a_edge19_Node000012_Node000016"><a xlink:title=" ">
<path fill="none" stroke="#63b8ff" d="M1108.52,-142.73C1098.58,-121.57 1079.59,-87.64 1053,-68.5 1041.84,-60.47 1027.19,-56.01 1014.77,-53.54"/>
<polygon fill="#63b8ff" stroke="#63b8ff" points="1105.38,-144.28 1112.67,-151.97 1111.77,-141.41 1105.38,-144.28"/>
</a>
</g>
</g>
<!-- Node17 -->
<g id="Node000017" class="node">
<title>Node17</title>
<g id="a_Node000017"><a xlink:href="env_8c.html#a6a15443c9c0b34afef3d21f19e385995" target="_top" xlink:title="Builtin function for the env command.">
<polygon fill="white" stroke="#666666" points="1012,-171 965,-171 965,-152 1012,-152 1012,-171"/>
<text text-anchor="middle" x="988.5" y="-159" font-family="Helvetica,sans-Serif" font-size="10.00">ft_env</text>
</a>
</g>
</g>
<!-- Node12&#45;&gt;Node17 -->
<g id="edge22_Node000012_Node000017" class="edge">
<title>Node12&#45;&gt;Node17</title>
<g id="a_edge22_Node000012_Node000017"><a xlink:title=" ">
<path fill="none" stroke="#63b8ff" d="M1078.78,-161.5C1057.19,-161.5 1030.8,-161.5 1012.34,-161.5"/>
<polygon fill="#63b8ff" stroke="#63b8ff" points="1078.94,-165 1088.94,-161.5 1078.94,-158 1078.94,-165"/>
</a>
</g>
</g>
<!-- Node18 -->
<g id="Node000018" class="node">
<title>Node18</title>
<g id="a_Node000018"><a xlink:href="pipes_8c.html#ac1cb08fe66e7823c939af4fab981e93c" target="_top" xlink:title="Executes a system command inside a pipe.">
<polygon fill="white" stroke="#666666" points="1053,-208 924,-208 924,-189 1053,-189 1053,-208"/>
<text text-anchor="middle" x="988.5" y="-196" font-family="Helvetica,sans-Serif" font-size="10.00">ft_exe_syscmd_in_pipe</text>
</a>
</g>
</g>
<!-- Node12&#45;&gt;Node18 -->
<g id="edge25_Node000012_Node000018" class="edge">
<title>Node12&#45;&gt;Node18</title>
<g id="a_edge25_Node000012_Node000018"><a xlink:title=" ">
<path fill="none" stroke="#63b8ff" d="M1079.33,-172.33C1061.3,-177.58 1039.83,-183.84 1022.41,-188.91"/>
<polygon fill="#63b8ff" stroke="#63b8ff" points="1080.32,-175.69 1088.94,-169.53 1078.36,-168.97 1080.32,-175.69"/>
</a>
</g>
</g>
<!-- Node19 -->
<g id="Node000019" class="node">
<title>Node19</title>
<g id="a_Node000019"><a xlink:href="export_8c.html#a2b0f2ba2e9188c7b4f6ca5a44c1d0c8e" target="_top" xlink:title="Builtin function for the export command.">
<polygon fill="white" stroke="#666666" points="1018.5,-134 958.5,-134 958.5,-115 1018.5,-115 1018.5,-134"/>
<text text-anchor="middle" x="988.5" y="-122" font-family="Helvetica,sans-Serif" font-size="10.00">ft_export</text>
</a>
</g>
</g>
<!-- Node12&#45;&gt;Node19 -->
<g id="edge27_Node000012_Node000019" class="edge">
<title>Node12&#45;&gt;Node19</title>
<g id="a_edge27_Node000012_Node000019"><a xlink:title=" ">
<path fill="none" stroke="#63b8ff" d="M1078.98,-150.18C1070.45,-147.63 1061.42,-144.95 1053,-142.5 1041.78,-139.23 1029.42,-135.71 1018.61,-132.66"/>
<polygon fill="#63b8ff" stroke="#63b8ff" points="1078.12,-153.57 1088.71,-153.09 1080.13,-146.87 1078.12,-153.57"/>
</a>
</g>
</g>
<!-- Node20 -->
<g id="Node000020" class="node">
<title>Node20</title>
<g id="a_Node000020"><a xlink:href="pwd_8c.html#a445dbcbb87f52cdbb07a078f21b198c4" target="_top" xlink:title="Builtin function for the pwd (print working directory) command.">
<polygon fill="white" stroke="#666666" points="1013,-97 964,-97 964,-78 1013,-78 1013,-97"/>
<text text-anchor="middle" x="988.5" y="-85" font-family="Helvetica,sans-Serif" font-size="10.00">ft_pwd</text>
</a>
</g>
</g>
<!-- Node12&#45;&gt;Node20 -->
<g id="edge30_Node000012_Node000020" class="edge">
<title>Node12&#45;&gt;Node20</title>
<g id="a_edge30_Node000012_Node000020"><a xlink:title=" ">
<path fill="none" stroke="#63b8ff" d="M1101.02,-144.21C1089.04,-131.8 1071.42,-115.55 1053,-105.5 1040.63,-98.75 1025.49,-94.33 1013.09,-91.56"/>
<polygon fill="#63b8ff" stroke="#63b8ff" points="1098.65,-146.8 1108.04,-151.71 1103.76,-142.02 1098.65,-146.8"/>
</a>
</g>
</g>
<!-- Node21 -->
<g id="Node000021" class="node">
<title>Node21</title>
<g id="a_Node000021"><a xlink:href="unset_8c.html#afc37f76bba8f618bcf9eaafa7ee23618" target="_top" xlink:title="Builtin function for the unset command.">
<polygon fill="white" stroke="#666666" points="1016.5,-282 960.5,-282 960.5,-263 1016.5,-263 1016.5,-282"/>
<text text-anchor="middle" x="988.5" y="-270" font-family="Helvetica,sans-Serif" font-size="10.00">ft_unset</text>
</a>
</g>
</g>
<!-- Node12&#45;&gt;Node21 -->
<g id="edge33_Node000012_Node000021" class="edge">
<title>Node12&#45;&gt;Node21</title>
<g id="a_edge33_Node000012_Node000021"><a xlink:title=" ">
<path fill="none" stroke="#63b8ff" d="M1108.27,-180.32C1098.18,-201.21 1079.17,-234.47 1053,-253.5 1042.39,-261.21 1028.64,-265.83 1016.64,-268.57"/>
<polygon fill="#63b8ff" stroke="#63b8ff" points="1111.47,-181.72 1112.49,-171.18 1105.12,-178.79 1111.47,-181.72"/>
</a>
</g>
</g>
<!-- Node13&#45;&gt;Node3 -->
<g id="edge14_Node000013_Node000003" class="edge">
<title>Node13&#45;&gt;Node3</title>
<g id="a_edge14_Node000013_Node000003"><a xlink:title=" ">
<path fill="none" stroke="#63b8ff" d="M958.26,-238.92C918.19,-242.3 844.94,-243.7 790,-217.5 769.29,-207.62 772.95,-193.44 754,-180.5 748.68,-176.86 742.55,-173.71 736.56,-171.08"/>
<polygon fill="#63b8ff" stroke="#63b8ff" points="958.78,-242.39 968.4,-237.96 958.12,-235.42 958.78,-242.39"/>
</a>
</g>
</g>
<!-- Node13&#45;&gt;Node7 -->
<g id="edge15_Node000013_Node000007" class="edge">
<title>Node13&#45;&gt;Node7</title>
<g id="a_edge15_Node000013_Node000007"><a xlink:title=" ">
<path fill="none" stroke="#63b8ff" d="M958.47,-228.41C935.73,-222.87 903.89,-215.09 878.94,-209"/>
<polygon fill="#63b8ff" stroke="#63b8ff" points="957.67,-231.82 968.22,-230.79 959.33,-225.02 957.67,-231.82"/>
</a>
</g>
</g>
<!-- Node15 -->
<g id="Node000015" class="node">
<title>Node15</title>
<g id="a_Node000015"><a xlink:href="system__commands_8c.html#a6d8647dce4277e848c613bd0cc3df5bb" target="_top" xlink:title="Executes a system command by creating a child process.">
<polygon fill="white" stroke="#666666" points="883.5,-19 794.5,-19 794.5,0 883.5,0 883.5,-19"/>
<text text-anchor="middle" x="839" y="-7" font-family="Helvetica,sans-Serif" font-size="10.00">ft_exe_syscmd</text>
</a>
</g>
</g>
<!-- Node14&#45;&gt;Node15 -->
<g id="edge17_Node000014_Node000015" class="edge">
<title>Node14&#45;&gt;Node15</title>
<g id="a_edge17_Node000014_Node000015"><a xlink:title=" ">
<path fill="none" stroke="#63b8ff" d="M952.28,-11.02C931.7,-10.74 905.56,-10.39 883.68,-10.09"/>
<polygon fill="#63b8ff" stroke="#63b8ff" points="952.43,-14.52 962.48,-11.16 952.53,-7.53 952.43,-14.52"/>
</a>
</g>
</g>
<!-- Node15&#45;&gt;Node3 -->
<g id="edge18_Node000015_Node000003" class="edge">
<title>Node15&#45;&gt;Node3</title>
<g id="a_edge18_Node000015_Node000003"><a xlink:title=" ">
<path fill="none" stroke="#63b8ff" d="M803.29,-23.96C798.55,-26.74 793.96,-29.92 790,-33.5 750.4,-69.3 722.67,-128.81 712.89,-151.92"/>
<polygon fill="#63b8ff" stroke="#63b8ff" points="805.26,-26.88 812.47,-19.11 801.99,-20.69 805.26,-26.88"/>
</a>
</g>
</g>
<!-- Node16&#45;&gt;Node3 -->
<g id="edge20_Node000016_Node000003" class="edge">
<title>Node16&#45;&gt;Node3</title>
<g id="a_edge20_Node000016_Node000003"><a xlink:title=" ">
<path fill="none" stroke="#63b8ff" d="M952.35,-56.91C911.9,-65.09 844.08,-81.28 790,-106.5 763.35,-118.93 735.73,-139.68 720.62,-151.82"/>
<polygon fill="#63b8ff" stroke="#63b8ff" points="953.13,-60.33 962.27,-54.96 951.78,-53.46 953.13,-60.33"/>
</a>
</g>
</g>
<!-- Node16&#45;&gt;Node7 -->
<g id="edge21_Node000016_Node000007" class="edge">
<title>Node16&#45;&gt;Node7</title>
<g id="a_edge21_Node000016_Node000007"><a xlink:title=" ">
<path fill="none" stroke="#63b8ff" d="M952.41,-55.66C942.54,-58.32 932.26,-62.37 924,-68.5 879.52,-101.51 852.41,-165.65 843.38,-189.9"/>
<polygon fill="#63b8ff" stroke="#63b8ff" points="953.48,-59 962.44,-53.34 951.91,-52.18 953.48,-59"/>
</a>
</g>
</g>
<!-- Node17&#45;&gt;Node3 -->
<g id="edge23_Node000017_Node000003" class="edge">
<title>Node17&#45;&gt;Node3</title>
<g id="a_edge23_Node000017_Node000003"><a xlink:title=" ">
<path fill="none" stroke="#63b8ff" d="M954.53,-161.5C901.65,-161.5 798.34,-161.5 744.13,-161.5"/>
<polygon fill="#63b8ff" stroke="#63b8ff" points="954.71,-165 964.71,-161.5 954.71,-158 954.71,-165"/>
</a>
</g>
</g>
<!-- Node17&#45;&gt;Node7 -->
<g id="edge24_Node000017_Node000007" class="edge">
<title>Node17&#45;&gt;Node7</title>
<g id="a_edge24_Node000017_Node000007"><a xlink:title=" ">
<path fill="none" stroke="#63b8ff" d="M954.82,-169.92C931.82,-175.84 901.02,-183.78 877.1,-189.94"/>
<polygon fill="#63b8ff" stroke="#63b8ff" points="955.97,-173.24 964.78,-167.35 954.22,-166.46 955.97,-173.24"/>
</a>
</g>
</g>
<!-- Node18&#45;&gt;Node7 -->
<g id="edge26_Node000018_Node000007" class="edge">
<title>Node18&#45;&gt;Node7</title>
<g id="a_edge26_Node000018_Node000007"><a xlink:title=" ">
<path fill="none" stroke="#63b8ff" d="M913.62,-199C905.05,-199.06 896.47,-199.12 888.37,-199.17"/>
<polygon fill="#63b8ff" stroke="#63b8ff" points="913.69,-202.5 923.66,-198.93 913.64,-195.5 913.69,-202.5"/>
</a>
</g>
</g>
<!-- Node19&#45;&gt;Node3 -->
<g id="edge28_Node000019_Node000003" class="edge">
<title>Node19&#45;&gt;Node3</title>
<g id="a_edge28_Node000019_Node000003"><a xlink:title=" ">
<path fill="none" stroke="#63b8ff" d="M948.53,-129.68C894.13,-136.9 796.24,-149.91 744.03,-156.85"/>
<polygon fill="#63b8ff" stroke="#63b8ff" points="949.03,-133.14 958.48,-128.35 948.11,-126.2 949.03,-133.14"/>
</a>
</g>
</g>
<!-- Node19&#45;&gt;Node7 -->
<g id="edge29_Node000019_Node000007" class="edge">
<title>Node19&#45;&gt;Node7</title>
<g id="a_edge29_Node000019_Node000007"><a xlink:title=" ">
<path fill="none" stroke="#63b8ff" d="M948.48,-133.43C940.22,-135.91 931.68,-138.92 924,-142.5 896.05,-155.53 867.06,-177.38 851.51,-189.91"/>
<polygon fill="#63b8ff" stroke="#63b8ff" points="949.66,-136.74 958.35,-130.68 947.78,-130 949.66,-136.74"/>
</a>
</g>
</g>
<!-- Node20&#45;&gt;Node3 -->
<g id="edge31_Node000020_Node000003" class="edge">
<title>Node20&#45;&gt;Node3</title>
<g id="a_edge31_Node000020_Node000003"><a xlink:title=" ">
<path fill="none" stroke="#63b8ff" d="M954.07,-94.85C914.64,-103.7 847.21,-119.39 790,-135.5 772.23,-140.5 752.5,-146.82 736.96,-151.97"/>
<polygon fill="#63b8ff" stroke="#63b8ff" points="954.95,-98.24 963.95,-92.65 953.43,-91.41 954.95,-98.24"/>
</a>
</g>
</g>
<!-- Node20&#45;&gt;Node7 -->
<g id="edge32_Node000020_Node000007" class="edge">
<title>Node20&#45;&gt;Node7</title>
<g id="a_edge32_Node000020_Node000007"><a xlink:title=" ">
<path fill="none" stroke="#63b8ff" d="M954.04,-93.23C943.89,-95.93 933.04,-99.85 924,-105.5 887.82,-128.13 858.02,-170.82 845.87,-189.89"/>
<polygon fill="#63b8ff" stroke="#63b8ff" points="954.94,-96.61 963.87,-90.91 953.33,-89.8 954.94,-96.61"/>
</a>
</g>
</g>
<!-- Node21&#45;&gt;Node3 -->
<g id="edge34_Node000021_Node000003" class="edge">
<title>Node21&#45;&gt;Node3</title>
<g id="a_edge34_Node000021_Node000003"><a xlink:title=" ">
<path fill="none" stroke="#63b8ff" d="M950.06,-276.24C907.55,-278.53 837.9,-276.18 790,-243.5 763.36,-225.32 778.13,-201.9 754,-180.5 749.81,-176.79 744.79,-173.72 739.65,-171.23"/>
<polygon fill="#63b8ff" stroke="#63b8ff" points="950.51,-279.71 960.26,-275.57 950.05,-272.73 950.51,-279.71"/>
</a>
</g>
</g>
<!-- Node21&#45;&gt;Node7 -->
<g id="edge35_Node000021_Node000007" class="edge">
<title>Node21&#45;&gt;Node7</title>
<g id="a_edge35_Node000021_Node000007"><a xlink:title=" ">
<path fill="none" stroke="#63b8ff" d="M950.56,-263.35C941.68,-260.64 932.36,-257.34 924,-253.5 896.91,-241.04 868.3,-220.95 852.45,-209.1"/>
<polygon fill="#63b8ff" stroke="#63b8ff" points="949.74,-266.76 960.32,-266.17 951.68,-260.03 949.74,-266.76"/>
</a>
</g>
</g>
</g>
</svg>
