<?xml version="1.0" encoding="UTF-8" standalone="no"?>
<!DOCTYPE svg PUBLIC "-//W3C//DTD SVG 1.1//EN"
 "http://www.w3.org/Graphics/SVG/1.1/DTD/svg11.dtd">
<!-- Generated by graphviz version 2.43.0 (0)
 -->
<!-- Title: add_args Pages: 1 -->
<svg width="578pt" height="554pt"
 viewBox="0.00 0.00 578.00 554.00" xmlns="http://www.w3.org/2000/svg" xmlns:xlink="http://www.w3.org/1999/xlink">
<g id="graph0" class="graph" transform="scale(1 1) rotate(0) translate(4 550)">
<title>add_args</title>
<!-- Node1 -->
<g id="Node000001" class="node">
<title>Node1</title>
<g id="a_Node000001"><a xlink:title="Adds an argument to the command’s argument list.">
<polygon fill="#999999" stroke="#666666" points="61,-114 0,-114 0,-95 61,-95 61,-114"/>
<text text-anchor="middle" x="30.5" y="-102" font-family="Helvetica,sans-Serif" font-size="10.00">add_args</text>
</a>
</g>
</g>
<!-- Node2 -->
<g id="Node000002" class="node">
<title>Node2</title>
<g id="a_Node000002"><a xlink:href="create__command__list_8c.html#a6823bdba32af9d583d3b6ad55969f4e7" target="_top" xlink:title="Expands the exit status variable $? in a string.">
<polygon fill="white" stroke="#666666" points="198,-357 100,-357 100,-338 198,-338 198,-357"/>
<text text-anchor="middle" x="149" y="-345" font-family="Helvetica,sans-Serif" font-size="10.00">ft_estatus_to_str</text>
</a>
</g>
</g>
<!-- Node1&#45;&gt;Node2 -->
<g id="edge1_Node000001_Node000002" class="edge">
<title>Node1&#45;&gt;Node2</title>
<g id="a_edge1_Node000001_Node000002"><a xlink:title=" ">
<path fill="none" stroke="#63b8ff" d="M36.07,-114.03C53.43,-150.24 115.51,-279.73 138.95,-328.63"/>
<polygon fill="#63b8ff" stroke="#63b8ff" points="135.86,-330.27 143.34,-337.78 142.17,-327.25 135.86,-330.27"/>
</a>
</g>
</g>
<!-- Node14 -->
<g id="Node000014" class="node">
<title>Node14</title>
<g id="a_Node000014"><a xlink:href="ft__strdup_8c.html#aebe73f27c70c56ac5053f860ef5436c9" target="_top" xlink:title="Duplicates a null&#45;terminated string by allocating memory.">
<polygon fill="white" stroke="#666666" points="564,-152 505,-152 505,-133 564,-133 564,-152"/>
<text text-anchor="middle" x="534.5" y="-140" font-family="Helvetica,sans-Serif" font-size="10.00">ft_strdup</text>
</a>
</g>
</g>
<!-- Node1&#45;&gt;Node14 -->
<g id="edge36_Node000001_Node000014" class="edge">
<title>Node1&#45;&gt;Node14</title>
<g id="a_edge36_Node000001_Node000014"><a xlink:title=" ">
<path fill="none" stroke="#63b8ff" d="M60.58,-94.92C113.73,-78.7 229.99,-49.22 327,-66.5 393.4,-78.33 466.42,-109.99 505.36,-128.5"/>
<polygon fill="#63b8ff" stroke="#63b8ff" points="503.97,-131.71 514.5,-132.9 507.01,-125.41 503.97,-131.71"/>
</a>
</g>
</g>
<!-- Node16 -->
<g id="Node000016" class="node">
<title>Node16</title>
<g id="a_Node000016"><a xlink:href="utils__env_8c.html#a78e10627f49df6e904925e22ae6ee15f" target="_top" xlink:title="Performs environment variable expansion in a string.">
<polygon fill="white" stroke="#666666" points="201,-208 97,-208 97,-189 201,-189 201,-208"/>
<text text-anchor="middle" x="149" y="-196" font-family="Helvetica,sans-Serif" font-size="10.00">ft_expand_envvar</text>
</a>
</g>
</g>
<!-- Node1&#45;&gt;Node16 -->
<g id="edge19_Node000001_Node000016" class="edge">
<title>Node1&#45;&gt;Node16</title>
<g id="a_edge19_Node000001_Node000016"><a xlink:title=" ">
<path fill="none" stroke="#63b8ff" d="M43.53,-114.21C63.6,-130.4 104.12,-163.09 128.37,-182.66"/>
<polygon fill="#63b8ff" stroke="#63b8ff" points="126.23,-185.43 136.21,-188.99 130.63,-179.98 126.23,-185.43"/>
</a>
</g>
</g>
<!-- Node23 -->
<g id="Node000023" class="node">
<title>Node23</title>
<g id="a_Node000023"><a xlink:href="ft__matrix__len_8c.html#a8a061c92b4f7c01468c1907282d5a53d" target="_top" xlink:title="Calculates the length of a NULL&#45;terminated matrix of strings.">
<polygon fill="white" stroke="#666666" points="189.5,-19 108.5,-19 108.5,0 189.5,0 189.5,-19"/>
<text text-anchor="middle" x="149" y="-7" font-family="Helvetica,sans-Serif" font-size="10.00">ft_matrix_len</text>
</a>
</g>
</g>
<!-- Node1&#45;&gt;Node23 -->
<g id="edge32_Node000001_Node000023" class="edge">
<title>Node1&#45;&gt;Node23</title>
<g id="a_edge32_Node000001_Node000023"><a xlink:title=" ">
<path fill="none" stroke="#63b8ff" d="M38.59,-94.66C49.66,-79.82 72.39,-51.55 97,-33.5 102.13,-29.74 107.94,-26.34 113.75,-23.37"/>
<polygon fill="#63b8ff" stroke="#63b8ff" points="115.28,-26.51 122.8,-19.04 112.27,-20.2 115.28,-26.51"/>
</a>
</g>
</g>
<!-- Node24 -->
<g id="Node000024" class="node">
<title>Node24</title>
<g id="a_Node000024"><a xlink:href="ft__realloc_8c.html#a9614b2d66dc188037d9d5144c4f63af5" target="_top" xlink:title="Reallocates a NULL&#45;terminated matrix of strings to a new size.">
<polygon fill="white" stroke="#666666" points="192,-114 106,-114 106,-95 192,-95 192,-114"/>
<text text-anchor="middle" x="149" y="-102" font-family="Helvetica,sans-Serif" font-size="10.00">ft_realloc_mtx</text>
</a>
</g>
</g>
<!-- Node1&#45;&gt;Node24 -->
<g id="edge33_Node000001_Node000024" class="edge">
<title>Node1&#45;&gt;Node24</title>
<g id="a_edge33_Node000001_Node000024"><a xlink:title=" ">
<path fill="none" stroke="#63b8ff" d="M61.2,-104.5C71.63,-104.5 83.68,-104.5 95.42,-104.5"/>
<polygon fill="#63b8ff" stroke="#63b8ff" points="95.61,-108 105.61,-104.5 95.61,-101 95.61,-108"/>
</a>
</g>
</g>
<!-- Node3 -->
<g id="Node000003" class="node">
<title>Node3</title>
<g id="a_Node000003"><a xlink:href="ft__itoa_8c.html#a8a6ea3765dfd826eabfc00d36e28ea38" target="_top" xlink:title="Converts an integer to a null&#45;terminated string.">
<polygon fill="white" stroke="#666666" points="305.5,-470 258.5,-470 258.5,-451 305.5,-451 305.5,-470"/>
<text text-anchor="middle" x="282" y="-458" font-family="Helvetica,sans-Serif" font-size="10.00">ft_itoa</text>
</a>
</g>
</g>
<!-- Node2&#45;&gt;Node3 -->
<g id="edge2_Node000002_Node000003" class="edge">
<title>Node2&#45;&gt;Node3</title>
<g id="a_edge2_Node000002_Node000003"><a xlink:title=" ">
<path fill="none" stroke="#63b8ff" d="M161.17,-357.13C183.6,-376.48 234.34,-420.25 262.05,-444.16"/>
<polygon fill="#63b8ff" stroke="#63b8ff" points="260,-447.01 269.86,-450.89 264.57,-441.71 260,-447.01"/>
</a>
</g>
</g>
<!-- Node9 -->
<g id="Node000009" class="node">
<title>Node9</title>
<g id="a_Node000009"><a xlink:href="ft__strjoin__three_8c.html#a516b013da6ff6065d18005f321670a5b" target="_top" xlink:title="Concatenates three strings into a newly allocated string.">
<polygon fill="white" stroke="#666666" points="327,-319 237,-319 237,-300 327,-300 327,-319"/>
<text text-anchor="middle" x="282" y="-307" font-family="Helvetica,sans-Serif" font-size="10.00">ft_strjoin_three</text>
</a>
</g>
</g>
<!-- Node2&#45;&gt;Node9 -->
<g id="edge9_Node000002_Node000009" class="edge">
<title>Node2&#45;&gt;Node9</title>
<g id="a_edge9_Node000002_Node000009"><a xlink:title=" ">
<path fill="none" stroke="#63b8ff" d="M183.06,-337.91C199.81,-333.05 220.36,-327.09 238.3,-321.89"/>
<polygon fill="#63b8ff" stroke="#63b8ff" points="239.32,-325.23 247.95,-319.09 237.37,-318.51 239.32,-325.23"/>
</a>
</g>
</g>
<!-- Node12 -->
<g id="Node000012" class="node">
<title>Node12</title>
<g id="a_Node000012"><a xlink:href="ft__strlen_8c.html#a828402378653640f545a4be2e00e92f9" target="_top" xlink:title="Calculates the length of a null&#45;terminated string.">
<polygon fill="white" stroke="#666666" points="562.5,-357 506.5,-357 506.5,-338 562.5,-338 562.5,-357"/>
<text text-anchor="middle" x="534.5" y="-345" font-family="Helvetica,sans-Serif" font-size="10.00">ft_strlen</text>
</a>
</g>
</g>
<!-- Node2&#45;&gt;Node12 -->
<g id="edge13_Node000002_Node000012" class="edge">
<title>Node2&#45;&gt;Node12</title>
<g id="a_edge13_Node000002_Node000012"><a xlink:title=" ">
<path fill="none" stroke="#63b8ff" d="M198.18,-356.38C210.77,-358.39 224.36,-360.29 237,-361.5 337,-371.09 363.32,-378.02 463,-365.5 474.02,-364.12 485.78,-361.56 496.48,-358.8"/>
<polygon fill="#63b8ff" stroke="#63b8ff" points="497.62,-362.12 506.35,-356.12 495.78,-355.36 497.62,-362.12"/>
</a>
</g>
</g>
<!-- Node13 -->
<g id="Node000013" class="node">
<title>Node13</title>
<g id="a_Node000013"><a xlink:href="ft__substr_8c.html#a78c402cbf3d55b1374693c3b7d34f71d" target="_top" xlink:title="Extracts a substring from a given string.">
<polygon fill="white" stroke="#666666" points="442.5,-357 383.5,-357 383.5,-338 442.5,-338 442.5,-357"/>
<text text-anchor="middle" x="413" y="-345" font-family="Helvetica,sans-Serif" font-size="10.00">ft_substr</text>
</a>
</g>
</g>
<!-- Node2&#45;&gt;Node13 -->
<g id="edge14_Node000002_Node000013" class="edge">
<title>Node2&#45;&gt;Node13</title>
<g id="a_edge14_Node000002_Node000013"><a xlink:title=" ">
<path fill="none" stroke="#63b8ff" d="M198.05,-347.5C248.46,-347.5 326.69,-347.5 373.28,-347.5"/>
<polygon fill="#63b8ff" stroke="#63b8ff" points="373.29,-351 383.29,-347.5 373.29,-344 373.29,-351"/>
</a>
</g>
</g>
<!-- Node4 -->
<g id="Node000004" class="node">
<title>Node4</title>
<g id="a_Node000004"><a xlink:href="ft__itoa_8c.html#a163fba91673b8409055003e4be5530f4" target="_top" xlink:title="Fills a string buffer with the digits of an integer.">
<polygon fill="white" stroke="#666666" points="443,-433 383,-433 383,-414 443,-414 443,-433"/>
<text text-anchor="middle" x="413" y="-421" font-family="Helvetica,sans-Serif" font-size="10.00">fget_itoa</text>
</a>
</g>
</g>
<!-- Node3&#45;&gt;Node4 -->
<g id="edge3_Node000003_Node000004" class="edge">
<title>Node3&#45;&gt;Node4</title>
<g id="a_edge3_Node000003_Node000004"><a xlink:title=" ">
<path fill="none" stroke="#63b8ff" d="M305.77,-453.97C324.33,-448.65 350.98,-441 372.95,-434.7"/>
<polygon fill="#63b8ff" stroke="#63b8ff" points="374.01,-438.04 382.66,-431.91 372.08,-431.31 374.01,-438.04"/>
</a>
</g>
</g>
<!-- Node5 -->
<g id="Node000005" class="node">
<title>Node5</title>
<g id="a_Node000005"><a xlink:href="ft__itoa_8c.html#ad01d7565914b3df7a4348fbeba72841b" target="_top" xlink:title="Calculates the number of characters needed to represent an integer as a string.">
<polygon fill="white" stroke="#666666" points="439.5,-470 386.5,-470 386.5,-451 439.5,-451 439.5,-470"/>
<text text-anchor="middle" x="413" y="-458" font-family="Helvetica,sans-Serif" font-size="10.00">get_len</text>
</a>
</g>
</g>
<!-- Node3&#45;&gt;Node5 -->
<g id="edge4_Node000003_Node000005" class="edge">
<title>Node3&#45;&gt;Node5</title>
<g id="a_edge4_Node000003_Node000005"><a xlink:title=" ">
<path fill="none" stroke="#63b8ff" d="M305.77,-460.5C325.25,-460.5 353.63,-460.5 376.16,-460.5"/>
<polygon fill="#63b8ff" stroke="#63b8ff" points="376.36,-464 386.36,-460.5 376.36,-457 376.36,-464"/>
</a>
</g>
</g>
<!-- Node6 -->
<g id="Node000006" class="node">
<title>Node6</title>
<g id="a_Node000006"><a xlink:href="ft__strlcat_8c.html#a3ab017dd491d7327d1b4acbf1398b91e" target="_top" xlink:title="Returns the length of a null&#45;terminated string.">
<polygon fill="white" stroke="#666666" points="550.5,-470 518.5,-470 518.5,-451 550.5,-451 550.5,-470"/>
<text text-anchor="middle" x="534.5" y="-458" font-family="Helvetica,sans-Serif" font-size="10.00">len</text>
</a>
</g>
</g>
<!-- Node3&#45;&gt;Node6 -->
<g id="edge8_Node000003_Node000006" class="edge">
<title>Node3&#45;&gt;Node6</title>
<g id="a_edge8_Node000003_Node000006"><a xlink:title=" ">
<path fill="none" stroke="#63b8ff" d="M305.53,-466.97C321.44,-471.2 343.33,-476.31 363,-478.5 407.17,-483.41 418.9,-484.04 463,-478.5 478.33,-476.57 495.1,-472.38 508.44,-468.52"/>
<polygon fill="#63b8ff" stroke="#63b8ff" points="509.74,-471.79 518.31,-465.55 507.73,-465.08 509.74,-471.79"/>
</a>
</g>
</g>
<!-- Node7 -->
<g id="Node000007" class="node">
<title>Node7</title>
<g id="a_Node000007"><a xlink:href="ft__itoa_8c.html#a4d5d7925588cf4c4d9fbd138580fd73e" target="_top" xlink:title="Returns a string representation of the minimum integer value.">
<polygon fill="white" stroke="#666666" points="439.5,-546 386.5,-546 386.5,-527 439.5,-527 439.5,-546"/>
<text text-anchor="middle" x="413" y="-534" font-family="Helvetica,sans-Serif" font-size="10.00">int_min</text>
</a>
</g>
</g>
<!-- Node3&#45;&gt;Node7 -->
<g id="edge6_Node000003_Node000007" class="edge">
<title>Node3&#45;&gt;Node7</title>
<g id="a_edge6_Node000003_Node000007"><a xlink:title=" ">
<path fill="none" stroke="#63b8ff" d="M296.56,-470.04C312.22,-480.88 338.94,-498.85 363,-512.5 368.84,-515.81 375.2,-519.13 381.35,-522.2"/>
<polygon fill="#63b8ff" stroke="#63b8ff" points="380.21,-525.53 390.73,-526.77 383.27,-519.24 380.21,-525.53"/>
</a>
</g>
</g>
<!-- Node5&#45;&gt;Node6 -->
<g id="edge5_Node000005_Node000006" class="edge">
<title>Node5&#45;&gt;Node6</title>
<g id="a_edge5_Node000005_Node000006"><a xlink:title=" ">
<path fill="none" stroke="#63b8ff" d="M439.64,-460.5C459.98,-460.5 488.27,-460.5 508.46,-460.5"/>
<polygon fill="#63b8ff" stroke="#63b8ff" points="508.46,-464 518.46,-460.5 508.46,-457 508.46,-464"/>
</a>
</g>
</g>
<!-- Node8 -->
<g id="Node000008" class="node">
<title>Node8</title>
<g id="a_Node000008"><a xlink:href="ft__itoa_8c.html#a8f08154d6a4e5a1ccc9771aced90ed0a" target="_top" xlink:title="Copies a null&#45;terminated string into another buffer.">
<polygon fill="white" stroke="#666666" points="559.5,-546 509.5,-546 509.5,-527 559.5,-527 559.5,-546"/>
<text text-anchor="middle" x="534.5" y="-534" font-family="Helvetica,sans-Serif" font-size="10.00">fstrcpy</text>
</a>
</g>
</g>
<!-- Node7&#45;&gt;Node8 -->
<g id="edge7_Node000007_Node000008" class="edge">
<title>Node7&#45;&gt;Node8</title>
<g id="a_edge7_Node000007_Node000008"><a xlink:title=" ">
<path fill="none" stroke="#63b8ff" d="M439.64,-536.5C457,-536.5 480.13,-536.5 499.09,-536.5"/>
<polygon fill="#63b8ff" stroke="#63b8ff" points="499.13,-540 509.13,-536.5 499.13,-533 499.13,-540"/>
</a>
</g>
</g>
<!-- Node10 -->
<g id="Node000010" class="node">
<title>Node10</title>
<g id="a_Node000010"><a xlink:href="ft__strjoin_8c.html#a91e6e3e428bcc9f2291b700e1829b82b" target="_top" xlink:title="Concatenates two strings into a newly allocated string.">
<polygon fill="white" stroke="#666666" points="442.5,-320 383.5,-320 383.5,-301 442.5,-301 442.5,-320"/>
<text text-anchor="middle" x="413" y="-308" font-family="Helvetica,sans-Serif" font-size="10.00">ft_strjoin</text>
</a>
</g>
</g>
<!-- Node9&#45;&gt;Node10 -->
<g id="edge10_Node000009_Node000010" class="edge">
<title>Node9&#45;&gt;Node10</title>
<g id="a_edge10_Node000009_Node000010"><a xlink:title=" ">
<path fill="none" stroke="#63b8ff" d="M327.03,-309.84C341.95,-309.96 358.5,-310.09 373,-310.2"/>
<polygon fill="#63b8ff" stroke="#63b8ff" points="373.11,-313.7 383.14,-310.28 373.17,-306.7 373.11,-313.7"/>
</a>
</g>
</g>
<!-- Node11 -->
<g id="Node000011" class="node">
<title>Node11</title>
<g id="a_Node000011"><a xlink:href="ft__memcpy_8c.html#a41a6f05af30cf85ff63a08e383826322" target="_top" xlink:title="Copies &#39;n&#39; bytes from memory area &#39;src&#39; to memory area &#39;dest&#39;.">
<polygon fill="white" stroke="#666666" points="570,-320 499,-320 499,-301 570,-301 570,-320"/>
<text text-anchor="middle" x="534.5" y="-308" font-family="Helvetica,sans-Serif" font-size="10.00">ft_memcpy</text>
</a>
</g>
</g>
<!-- Node10&#45;&gt;Node11 -->
<g id="edge11_Node000010_Node000011" class="edge">
<title>Node10&#45;&gt;Node11</title>
<g id="a_edge11_Node000010_Node000011"><a xlink:title=" ">
<path fill="none" stroke="#63b8ff" d="M442.62,-310.5C456.31,-310.5 473.03,-310.5 488.37,-310.5"/>
<polygon fill="#63b8ff" stroke="#63b8ff" points="488.72,-314 498.72,-310.5 488.72,-307 488.72,-314"/>
</a>
</g>
</g>
<!-- Node10&#45;&gt;Node12 -->
<g id="edge12_Node000010_Node000012" class="edge">
<title>Node10&#45;&gt;Node12</title>
<g id="a_edge12_Node000010_Node000012"><a xlink:title=" ">
<path fill="none" stroke="#63b8ff" d="M442.62,-319.36C458.78,-324.37 479.16,-330.68 496.52,-336.05"/>
<polygon fill="#63b8ff" stroke="#63b8ff" points="495.75,-339.48 506.34,-339.09 497.82,-332.79 495.75,-339.48"/>
</a>
</g>
</g>
<!-- Node13&#45;&gt;Node6 -->
<g id="edge18_Node000013_Node000006" class="edge">
<title>Node13&#45;&gt;Node6</title>
<g id="a_edge18_Node000013_Node000006"><a xlink:title=" ">
<path fill="none" stroke="#63b8ff" d="M424.19,-357.13C444.56,-376.4 490.53,-419.87 515.89,-443.85"/>
<polygon fill="#63b8ff" stroke="#63b8ff" points="513.67,-446.56 523.34,-450.89 518.48,-441.48 513.67,-446.56"/>
</a>
</g>
</g>
<!-- Node13&#45;&gt;Node12 -->
<g id="edge17_Node000013_Node000012" class="edge">
<title>Node13&#45;&gt;Node12</title>
<g id="a_edge17_Node000013_Node000012"><a xlink:title=" ">
<path fill="none" stroke="#63b8ff" d="M442.62,-347.5C458.63,-347.5 478.78,-347.5 496.04,-347.5"/>
<polygon fill="#63b8ff" stroke="#63b8ff" points="496.34,-351 506.34,-347.5 496.34,-344 496.34,-351"/>
</a>
</g>
</g>
<!-- Node13&#45;&gt;Node14 -->
<g id="edge15_Node000013_Node000014" class="edge">
<title>Node13&#45;&gt;Node14</title>
<g id="a_edge15_Node000013_Node000014"><a xlink:title=" ">
<path fill="none" stroke="#63b8ff" d="M442.56,-340.96C449.96,-338.13 457.41,-334.13 463,-328.5 475.3,-316.1 512.19,-207.13 527.12,-161.97"/>
<polygon fill="#63b8ff" stroke="#63b8ff" points="530.54,-162.79 530.34,-152.19 523.89,-160.6 530.54,-162.79"/>
</a>
</g>
</g>
<!-- Node15 -->
<g id="Node000015" class="node">
<title>Node15</title>
<g id="a_Node000015"><a xlink:href="ft__strlcpy_8c.html#aa053827b3a2ea3d0118783d6fb59d178" target="_top" xlink:title="Copies up to size &#45; 1 characters from the string src to dst, null&#45;terminating the result.">
<polygon fill="white" stroke="#666666" points="565.5,-394 503.5,-394 503.5,-375 565.5,-375 565.5,-394"/>
<text text-anchor="middle" x="534.5" y="-382" font-family="Helvetica,sans-Serif" font-size="10.00">ft_strlcpy</text>
</a>
</g>
</g>
<!-- Node13&#45;&gt;Node15 -->
<g id="edge16_Node000013_Node000015" class="edge">
<title>Node13&#45;&gt;Node15</title>
<g id="a_edge16_Node000013_Node000015"><a xlink:title=" ">
<path fill="none" stroke="#63b8ff" d="M442.62,-356.36C457.83,-361.07 476.78,-366.94 493.43,-372.09"/>
<polygon fill="#63b8ff" stroke="#63b8ff" points="492.85,-375.58 503.44,-375.19 494.93,-368.89 492.85,-375.58"/>
</a>
</g>
</g>
<!-- Node16&#45;&gt;Node14 -->
<g id="edge31_Node000016_Node000014" class="edge">
<title>Node16&#45;&gt;Node14</title>
<g id="a_edge31_Node000016_Node000014"><a xlink:title=" ">
<path fill="none" stroke="#63b8ff" d="M201.32,-191.01C279.17,-179.64 425.38,-158.29 494.89,-148.14"/>
<polygon fill="#63b8ff" stroke="#63b8ff" points="495.58,-151.57 504.97,-146.67 494.57,-144.65 495.58,-151.57"/>
</a>
</g>
</g>
<!-- Node17 -->
<g id="Node000017" class="node">
<title>Node17</title>
<g id="a_Node000017"><a xlink:href="utils__env_8c.html#a4ea711c91d64ff7669bf6ac7e6b6b9dd" target="_top" xlink:title="Expands an environment variable found in a string.">
<polygon fill="white" stroke="#666666" points="314.5,-245 249.5,-245 249.5,-226 314.5,-226 314.5,-245"/>
<text text-anchor="middle" x="282" y="-233" font-family="Helvetica,sans-Serif" font-size="10.00">ft_expand</text>
</a>
</g>
</g>
<!-- Node16&#45;&gt;Node17 -->
<g id="edge20_Node000016_Node000017" class="edge">
<title>Node16&#45;&gt;Node17</title>
<g id="a_edge20_Node000016_Node000017"><a xlink:title=" ">
<path fill="none" stroke="#63b8ff" d="M183.74,-208.03C200.75,-212.83 221.54,-218.71 239.52,-223.78"/>
<polygon fill="#63b8ff" stroke="#63b8ff" points="238.61,-227.16 249.18,-226.51 240.51,-220.43 238.61,-227.16"/>
</a>
</g>
</g>
<!-- Node22 -->
<g id="Node000022" class="node">
<title>Node22</title>
<g id="a_Node000022"><a xlink:href="utils__env_8c.html#a3323d2c2586349772b23a3eaf1a241c3" target="_top" xlink:title="Concatenates a literal part (non&#45;variable) of the string to the result.">
<polygon fill="white" stroke="#666666" points="321,-282 243,-282 243,-263 321,-263 321,-282"/>
<text text-anchor="middle" x="282" y="-270" font-family="Helvetica,sans-Serif" font-size="10.00">ft_merge_str</text>
</a>
</g>
</g>
<!-- Node16&#45;&gt;Node22 -->
<g id="edge28_Node000016_Node000022" class="edge">
<title>Node16&#45;&gt;Node22</title>
<g id="a_edge28_Node000016_Node000022"><a xlink:title=" ">
<path fill="none" stroke="#63b8ff" d="M163.76,-208.15C180.59,-219.72 210.14,-239.32 237,-253.5 240.36,-255.27 243.93,-257.02 247.51,-258.69"/>
<polygon fill="#63b8ff" stroke="#63b8ff" points="246.38,-262.02 256.93,-262.91 249.24,-255.63 246.38,-262.02"/>
</a>
</g>
</g>
<!-- Node17&#45;&gt;Node10 -->
<g id="edge26_Node000017_Node000010" class="edge">
<title>Node17&#45;&gt;Node10</title>
<g id="a_edge26_Node000017_Node000010"><a xlink:title=" ">
<path fill="none" stroke="#63b8ff" d="M311.38,-245.03C316.78,-247.41 322.23,-250.24 327,-253.5 346.2,-266.64 343.68,-278.53 363,-291.5 366.49,-293.85 370.32,-295.96 374.24,-297.86"/>
<polygon fill="#63b8ff" stroke="#63b8ff" points="372.91,-301.09 383.47,-301.88 375.7,-294.67 372.91,-301.09"/>
</a>
</g>
</g>
<!-- Node17&#45;&gt;Node13 -->
<g id="edge27_Node000017_Node000013" class="edge">
<title>Node17&#45;&gt;Node13</title>
<g id="a_edge27_Node000017_Node000013"><a xlink:title=" ">
<path fill="none" stroke="#63b8ff" d="M314.54,-245.02C319.06,-247.31 323.4,-250.1 327,-253.5 353.91,-278.86 335.86,-303.39 363,-328.5 366.33,-331.58 370.21,-334.18 374.31,-336.37"/>
<polygon fill="#63b8ff" stroke="#63b8ff" points="372.94,-339.59 383.49,-340.54 375.84,-333.22 372.94,-339.59"/>
</a>
</g>
</g>
<!-- Node18 -->
<g id="Node000018" class="node">
<title>Node18</title>
<g id="a_Node000018"><a xlink:href="utils__env__pt2_8c.html#afac58c53fe53bc538ba19b53efec42e4" target="_top" xlink:title="Finds the value of an environment variable given its name key.">
<polygon fill="white" stroke="#666666" points="463,-283 363,-283 363,-264 463,-264 463,-283"/>
<text text-anchor="middle" x="413" y="-271" font-family="Helvetica,sans-Serif" font-size="10.00">ft_get_env_value</text>
</a>
</g>
</g>
<!-- Node17&#45;&gt;Node18 -->
<g id="edge21_Node000017_Node000018" class="edge">
<title>Node17&#45;&gt;Node18</title>
<g id="a_edge21_Node000017_Node000018"><a xlink:title=" ">
<path fill="none" stroke="#63b8ff" d="M314.56,-244.8C331.17,-249.69 351.77,-255.76 369.75,-261.05"/>
<polygon fill="#63b8ff" stroke="#63b8ff" points="368.84,-264.43 379.42,-263.9 370.82,-257.72 368.84,-264.43"/>
</a>
</g>
</g>
<!-- Node20 -->
<g id="Node000020" class="node">
<title>Node20</title>
<g id="a_Node000020"><a xlink:href="ft__isalnum_8c.html#a9c2c3821ea43ebdf97de07b123503f8b" target="_top" xlink:title="Checks whether a character is alphanumeric.">
<polygon fill="white" stroke="#666666" points="447,-246 379,-246 379,-227 447,-227 447,-246"/>
<text text-anchor="middle" x="413" y="-234" font-family="Helvetica,sans-Serif" font-size="10.00">ft_isalnum</text>
</a>
</g>
</g>
<!-- Node17&#45;&gt;Node20 -->
<g id="edge24_Node000017_Node000020" class="edge">
<title>Node17&#45;&gt;Node20</title>
<g id="a_edge24_Node000017_Node000020"><a xlink:title=" ">
<path fill="none" stroke="#63b8ff" d="M314.56,-235.74C330.89,-235.87 351.08,-236.03 368.84,-236.17"/>
<polygon fill="#63b8ff" stroke="#63b8ff" points="368.94,-239.67 378.97,-236.24 369,-232.67 368.94,-239.67"/>
</a>
</g>
</g>
<!-- Node21 -->
<g id="Node000021" class="node">
<title>Node21</title>
<g id="a_Node000021"><a xlink:href="ft__isdigit_8c.html#a2cf15b8a1a277d1e2ce3654101a2003d" target="_top" xlink:title="Checks whether a character is a decimal digit.">
<polygon fill="white" stroke="#666666" points="442.5,-209 383.5,-209 383.5,-190 442.5,-190 442.5,-209"/>
<text text-anchor="middle" x="413" y="-197" font-family="Helvetica,sans-Serif" font-size="10.00">ft_isdigit</text>
</a>
</g>
</g>
<!-- Node17&#45;&gt;Node21 -->
<g id="edge25_Node000017_Node000021" class="edge">
<title>Node17&#45;&gt;Node21</title>
<g id="a_edge25_Node000017_Node000021"><a xlink:title=" ">
<path fill="none" stroke="#63b8ff" d="M314.56,-226.69C332.39,-221.72 354.81,-215.46 373.65,-210.2"/>
<polygon fill="#63b8ff" stroke="#63b8ff" points="374.72,-213.54 383.41,-207.48 372.84,-206.8 374.72,-213.54"/>
</a>
</g>
</g>
<!-- Node18&#45;&gt;Node12 -->
<g id="edge22_Node000018_Node000012" class="edge">
<title>Node18&#45;&gt;Node12</title>
<g id="a_edge22_Node000018_Node000012"><a xlink:title=" ">
<path fill="none" stroke="#63b8ff" d="M446.36,-283.04C452.12,-285.39 457.91,-288.19 463,-291.5 482.25,-303.99 480.75,-314.59 499,-328.5 500.81,-329.88 502.74,-331.22 504.71,-332.52"/>
<polygon fill="#63b8ff" stroke="#63b8ff" points="503.16,-335.66 513.53,-337.81 506.76,-329.66 503.16,-335.66"/>
</a>
</g>
</g>
<!-- Node19 -->
<g id="Node000019" class="node">
<title>Node19</title>
<g id="a_Node000019"><a xlink:href="ft__strncmp_8c.html#a9d2fe792187aa4ed08e5864fb2c4d6dc" target="_top" xlink:title="Compares up to n characters of two strings.">
<polygon fill="white" stroke="#666666" points="568.5,-283 500.5,-283 500.5,-264 568.5,-264 568.5,-283"/>
<text text-anchor="middle" x="534.5" y="-271" font-family="Helvetica,sans-Serif" font-size="10.00">ft_strncmp</text>
</a>
</g>
</g>
<!-- Node18&#45;&gt;Node19 -->
<g id="edge23_Node000018_Node000019" class="edge">
<title>Node18&#45;&gt;Node19</title>
<g id="a_edge23_Node000018_Node000019"><a xlink:title=" ">
<path fill="none" stroke="#63b8ff" d="M463.3,-273.5C472.26,-273.5 481.55,-273.5 490.32,-273.5"/>
<polygon fill="#63b8ff" stroke="#63b8ff" points="490.33,-277 500.33,-273.5 490.33,-270 490.33,-277"/>
</a>
</g>
</g>
<!-- Node22&#45;&gt;Node10 -->
<g id="edge29_Node000022_Node000010" class="edge">
<title>Node22&#45;&gt;Node10</title>
<g id="a_edge29_Node000022_Node000010"><a xlink:title=" ">
<path fill="none" stroke="#63b8ff" d="M315.55,-282.09C333.27,-287.31 355.28,-293.79 373.81,-299.25"/>
<polygon fill="#63b8ff" stroke="#63b8ff" points="372.83,-302.61 383.41,-302.08 374.81,-295.9 372.83,-302.61"/>
</a>
</g>
</g>
<!-- Node22&#45;&gt;Node13 -->
<g id="edge30_Node000022_Node000013" class="edge">
<title>Node22&#45;&gt;Node13</title>
<g id="a_edge30_Node000022_Node000013"><a xlink:title=" ">
<path fill="none" stroke="#63b8ff" d="M311.38,-282.03C316.78,-284.41 322.23,-287.24 327,-290.5 346.2,-303.64 343.68,-315.53 363,-328.5 366.49,-330.85 370.32,-332.96 374.24,-334.86"/>
<polygon fill="#63b8ff" stroke="#63b8ff" points="372.91,-338.09 383.47,-338.88 375.7,-331.67 372.91,-338.09"/>
</a>
</g>
</g>
<!-- Node24&#45;&gt;Node14 -->
<g id="edge35_Node000024_Node000014" class="edge">
<title>Node24&#45;&gt;Node14</title>
<g id="a_edge35_Node000024_Node000014"><a xlink:title=" ">
<path fill="none" stroke="#63b8ff" d="M192.14,-108.68C267.06,-116.1 422.37,-131.49 494.77,-138.66"/>
<polygon fill="#63b8ff" stroke="#63b8ff" points="494.54,-142.16 504.83,-139.66 495.23,-135.19 494.54,-142.16"/>
</a>
</g>
</g>
<!-- Node25 -->
<g id="Node000025" class="node">
<title>Node25</title>
<g id="a_Node000025"><a xlink:href="ft__free__matrix_8c.html#a1ea6d1f3b50d1c23d4f0faddd1a13448" target="_top" xlink:title="Frees a NULL&#45;terminated matrix of strings.">
<polygon fill="white" stroke="#666666" points="325,-95 239,-95 239,-76 325,-76 325,-95"/>
<text text-anchor="middle" x="282" y="-83" font-family="Helvetica,sans-Serif" font-size="10.00">ft_free_matrix</text>
</a>
</g>
</g>
<!-- Node24&#45;&gt;Node25 -->
<g id="edge34_Node000024_Node000025" class="edge">
<title>Node24&#45;&gt;Node25</title>
<g id="a_edge34_Node000024_Node000025"><a xlink:title=" ">
<path fill="none" stroke="#63b8ff" d="M192.17,-98.38C203.86,-96.69 216.68,-94.83 228.87,-93.06"/>
<polygon fill="#63b8ff" stroke="#63b8ff" points="229.51,-96.5 238.91,-91.6 228.51,-89.58 229.51,-96.5"/>
</a>
</g>
</g>
</g>
</svg>
