<?xml version="1.0" encoding="UTF-8" standalone="no"?>
<!DOCTYPE svg PUBLIC "-//W3C//DTD SVG 1.1//EN"
 "http://www.w3.org/Graphics/SVG/1.1/DTD/svg11.dtd">
<!-- Generated by graphviz version 2.43.0 (0)
 -->
<!-- Title: free_pipe Pages: 1 -->
<svg width="1337pt" height="365pt"
 viewBox="0.00 0.00 1337.00 364.51" xmlns="http://www.w3.org/2000/svg" xmlns:xlink="http://www.w3.org/1999/xlink">
<g id="graph0" class="graph" transform="scale(1 1) rotate(0) translate(4 360.51)">
<title>free_pipe</title>
<!-- Node1 -->
<g id="Node000001" class="node">
<title>Node1</title>
<g id="a_Node000001"><a xlink:title="Frees a list of pipes.">
<polygon fill="#999999" stroke="#666666" points="1329,-104.5 1267,-104.5 1267,-85.5 1329,-85.5 1329,-104.5"/>
<text text-anchor="middle" x="1298" y="-92.5" font-family="Helvetica,sans-Serif" font-size="10.00">free_pipe</text>
</a>
</g>
</g>
<!-- Node2 -->
<g id="Node000002" class="node">
<title>Node2</title>
<g id="a_Node000002"><a xlink:href="free__functions_8c.html#a451c65e7c59e947c1880d1f75d866e3a" target="_top" xlink:title="Frees all resources associated with a list of pipes and the environment.">
<polygon fill="white" stroke="#666666" points="1231,-199.5 1151,-199.5 1151,-180.5 1231,-180.5 1231,-199.5"/>
<text text-anchor="middle" x="1191" y="-187.5" font-family="Helvetica,sans-Serif" font-size="10.00">free_all_pipe</text>
</a>
</g>
</g>
<!-- Node1&#45;&gt;Node2 -->
<g id="edge1_Node000001_Node000002" class="edge">
<title>Node1&#45;&gt;Node2</title>
<g id="a_edge1_Node000001_Node000002"><a xlink:title=" ">
<path fill="none" stroke="#63b8ff" d="M1278.47,-111.77C1256.43,-131.7 1220.41,-164.29 1202.63,-180.39"/>
<polygon fill="#63b8ff" stroke="#63b8ff" points="1281.09,-114.11 1286.16,-104.81 1276.4,-108.92 1281.09,-114.11"/>
</a>
</g>
</g>
<!-- Node12 -->
<g id="Node000012" class="node">
<title>Node12</title>
<g id="a_Node000012"><a xlink:href="main__utils_8c.html#ad0183732909ae6e7c52e7b086c2e5642" target="_top" xlink:title="Manages the execution flow of commands with pipes.">
<polygon fill="white" stroke="#666666" points="384,-161.5 309,-161.5 309,-142.5 384,-142.5 384,-161.5"/>
<text text-anchor="middle" x="346.5" y="-149.5" font-family="Helvetica,sans-Serif" font-size="10.00">ft_pipe_flow</text>
</a>
</g>
</g>
<!-- Node1&#45;&gt;Node12 -->
<g id="edge36_Node000001_Node000012" class="edge">
<title>Node1&#45;&gt;Node12</title>
<g id="a_edge36_Node000001_Node000012"><a xlink:title=" ">
<path fill="none" stroke="#63b8ff" d="M1275.41,-79.22C1236.26,-52.21 1150.04,0 1068.5,0 1068.5,0 1068.5,0 580.5,0 475.69,0 381.15,-109.22 354.78,-142.49"/>
<polygon fill="#63b8ff" stroke="#63b8ff" points="1273.7,-82.3 1283.89,-85.19 1277.73,-76.57 1273.7,-82.3"/>
</a>
</g>
</g>
<!-- Node3 -->
<g id="Node000003" class="node">
<title>Node3</title>
<g id="a_Node000003"><a xlink:href="ft__cd_8c.html#af438919e376d2d0df3830120118ea526" target="_top" xlink:title="Builtin function for the cd (change directory) command.">
<polygon fill="white" stroke="#666666" points="974,-88.5 934,-88.5 934,-69.5 974,-69.5 974,-88.5"/>
<text text-anchor="middle" x="954" y="-76.5" font-family="Helvetica,sans-Serif" font-size="10.00">ft_cd</text>
</a>
</g>
</g>
<!-- Node2&#45;&gt;Node3 -->
<g id="edge2_Node000002_Node000003" class="edge">
<title>Node2&#45;&gt;Node3</title>
<g id="a_edge2_Node000002_Node000003"><a xlink:title=" ">
<path fill="none" stroke="#63b8ff" d="M1174.15,-173.3C1159.88,-159.15 1137.73,-139.27 1115,-127 1067.79,-101.51 1005.26,-87.79 974.2,-82.15"/>
<polygon fill="#63b8ff" stroke="#63b8ff" points="1171.71,-175.81 1181.22,-180.48 1176.7,-170.9 1171.71,-175.81"/>
</a>
</g>
</g>
<!-- Node8 -->
<g id="Node000008" class="node">
<title>Node8</title>
<g id="a_Node000008"><a xlink:href="cmd__execution_8c.html#a50e59fa2e4621831a415d4038f697c56" target="_top" xlink:title="Executes a command within a pipeline.">
<polygon fill="white" stroke="#666666" points="888,-162.5 790,-162.5 790,-143.5 888,-143.5 888,-162.5"/>
<text text-anchor="middle" x="839" y="-150.5" font-family="Helvetica,sans-Serif" font-size="10.00">ft_exe_pipe_cmd</text>
</a>
</g>
</g>
<!-- Node2&#45;&gt;Node8 -->
<g id="edge23_Node000002_Node000008" class="edge">
<title>Node2&#45;&gt;Node8</title>
<g id="a_edge23_Node000002_Node000008"><a xlink:title=" ">
<path fill="none" stroke="#63b8ff" d="M1181.45,-171.05C1169.87,-147.65 1146.92,-108.46 1115,-88 1064.95,-55.92 1043.14,-67.03 984,-61 957.47,-58.29 948.4,-50.24 924,-61 885.02,-78.2 856.29,-123.41 845.12,-143.33"/>
<polygon fill="#63b8ff" stroke="#63b8ff" points="1178.39,-172.75 1185.84,-180.28 1184.71,-169.75 1178.39,-172.75"/>
</a>
</g>
</g>
<!-- Node13 -->
<g id="Node000013" class="node">
<title>Node13</title>
<g id="a_Node000013"><a xlink:href="ft__echo_8c.html#a177f72f5eedf5cdf35c113ae47966c4b" target="_top" xlink:title="Builtin function for the echo command.">
<polygon fill="white" stroke="#666666" points="980,-310.5 928,-310.5 928,-291.5 980,-291.5 980,-310.5"/>
<text text-anchor="middle" x="954" y="-298.5" font-family="Helvetica,sans-Serif" font-size="10.00">ft_echo</text>
</a>
</g>
</g>
<!-- Node2&#45;&gt;Node13 -->
<g id="edge13_Node000002_Node000013" class="edge">
<title>Node2&#45;&gt;Node13</title>
<g id="a_edge13_Node000002_Node000013"><a xlink:title=" ">
<path fill="none" stroke="#63b8ff" d="M1186.99,-210.05C1180.65,-244.36 1162.36,-313.47 1115,-343 1079.17,-365.34 1060.5,-354.95 1020,-343 998.61,-336.69 977.63,-320.9 965.52,-310.58"/>
<polygon fill="#63b8ff" stroke="#63b8ff" points="1190.5,-210.3 1188.71,-199.86 1183.6,-209.14 1190.5,-210.3"/>
</a>
</g>
</g>
<!-- Node14 -->
<g id="Node000014" class="node">
<title>Node14</title>
<g id="a_Node000014"><a xlink:href="env_8c.html#a6a15443c9c0b34afef3d21f19e385995" target="_top" xlink:title="Builtin function for the env command.">
<polygon fill="white" stroke="#666666" points="977.5,-273.5 930.5,-273.5 930.5,-254.5 977.5,-254.5 977.5,-273.5"/>
<text text-anchor="middle" x="954" y="-261.5" font-family="Helvetica,sans-Serif" font-size="10.00">ft_env</text>
</a>
</g>
</g>
<!-- Node2&#45;&gt;Node14 -->
<g id="edge16_Node000002_Node000014" class="edge">
<title>Node2&#45;&gt;Node14</title>
<g id="a_edge16_Node000002_Node000014"><a xlink:title=" ">
<path fill="none" stroke="#63b8ff" d="M1185.53,-209.48C1177.4,-239.86 1157,-297.56 1115,-322 1078.51,-343.24 1058.68,-338.93 1020,-322 998.39,-312.54 1002,-298.24 984,-283 980.05,-279.65 975.48,-276.41 971.15,-273.58"/>
<polygon fill="#63b8ff" stroke="#63b8ff" points="1188.96,-210.19 1187.99,-199.64 1182.17,-208.49 1188.96,-210.19"/>
</a>
</g>
</g>
<!-- Node15 -->
<g id="Node000015" class="node">
<title>Node15</title>
<g id="a_Node000015"><a xlink:href="exit_8c.html#a81b8a91253c822b248934172be9eee03" target="_top" xlink:title="Handles errors related to non&#45;numeric or null exit arguments.">
<polygon fill="white" stroke="#666666" points="1105.5,-312.5 1029.5,-312.5 1029.5,-293.5 1105.5,-293.5 1105.5,-312.5"/>
<text text-anchor="middle" x="1067.5" y="-300.5" font-family="Helvetica,sans-Serif" font-size="10.00">ft_error_exit</text>
</a>
</g>
</g>
<!-- Node2&#45;&gt;Node15 -->
<g id="edge19_Node000002_Node000015" class="edge">
<title>Node2&#45;&gt;Node15</title>
<g id="a_edge19_Node000002_Node000015"><a xlink:title=" ">
<path fill="none" stroke="#63b8ff" d="M1179.63,-208.44C1166.89,-229.58 1143.44,-264 1115,-285 1110.54,-288.29 1105.41,-291.06 1100.21,-293.37"/>
<polygon fill="#63b8ff" stroke="#63b8ff" points="1182.68,-210.16 1184.7,-199.76 1176.63,-206.62 1182.68,-210.16"/>
</a>
</g>
</g>
<!-- Node16 -->
<g id="Node000016" class="node">
<title>Node16</title>
<g id="a_Node000016"><a xlink:href="exit_8c.html#af0d4948984577b715a89f18d5864cfa2" target="_top" xlink:title="Builtin function for the exit command.">
<polygon fill="white" stroke="#666666" points="977.5,-236.5 930.5,-236.5 930.5,-217.5 977.5,-217.5 977.5,-236.5"/>
<text text-anchor="middle" x="954" y="-224.5" font-family="Helvetica,sans-Serif" font-size="10.00">ft_exit</text>
</a>
</g>
</g>
<!-- Node2&#45;&gt;Node16 -->
<g id="edge24_Node000002_Node000016" class="edge">
<title>Node2&#45;&gt;Node16</title>
<g id="a_edge24_Node000002_Node000016"><a xlink:title=" ">
<path fill="none" stroke="#63b8ff" d="M1140.82,-199.48C1132.22,-201.05 1123.36,-202.62 1115,-204 1066.13,-212.07 1008.59,-219.95 977.57,-224.06"/>
<polygon fill="#63b8ff" stroke="#63b8ff" points="1141.54,-202.91 1150.74,-197.65 1140.27,-196.03 1141.54,-202.91"/>
</a>
</g>
</g>
<!-- Node17 -->
<g id="Node000017" class="node">
<title>Node17</title>
<g id="a_Node000017"><a xlink:href="exit_8c.html#a31166fb7eed428449a3e6183d4fa1642" target="_top" xlink:title="Checks if there are too many arguments for the exit command.">
<polygon fill="white" stroke="#666666" points="1115,-275.5 1020,-275.5 1020,-256.5 1115,-256.5 1115,-275.5"/>
<text text-anchor="middle" x="1067.5" y="-263.5" font-family="Helvetica,sans-Serif" font-size="10.00">ft_exit_too_args</text>
</a>
</g>
</g>
<!-- Node2&#45;&gt;Node17 -->
<g id="edge25_Node000002_Node000017" class="edge">
<title>Node2&#45;&gt;Node17</title>
<g id="a_edge25_Node000002_Node000017"><a xlink:title=" ">
<path fill="none" stroke="#63b8ff" d="M1168.92,-205.71C1154.16,-216.44 1133.78,-230.71 1115,-242 1106.59,-247.06 1097,-252.12 1088.72,-256.28"/>
<polygon fill="#63b8ff" stroke="#63b8ff" points="1171.34,-208.28 1177.33,-199.54 1167.2,-202.63 1171.34,-208.28"/>
</a>
</g>
</g>
<!-- Node18 -->
<g id="Node000018" class="node">
<title>Node18</title>
<g id="a_Node000018"><a xlink:href="export_8c.html#a2b0f2ba2e9188c7b4f6ca5a44c1d0c8e" target="_top" xlink:title="Builtin function for the export command.">
<polygon fill="white" stroke="#666666" points="984,-199.5 924,-199.5 924,-180.5 984,-180.5 984,-199.5"/>
<text text-anchor="middle" x="954" y="-187.5" font-family="Helvetica,sans-Serif" font-size="10.00">ft_export</text>
</a>
</g>
</g>
<!-- Node2&#45;&gt;Node18 -->
<g id="edge27_Node000002_Node000018" class="edge">
<title>Node2&#45;&gt;Node18</title>
<g id="a_edge27_Node000002_Node000018"><a xlink:title=" ">
<path fill="none" stroke="#63b8ff" d="M1140.88,-190C1093.48,-190 1023.29,-190 984.13,-190"/>
<polygon fill="#63b8ff" stroke="#63b8ff" points="1140.93,-193.5 1150.93,-190 1140.93,-186.5 1140.93,-193.5"/>
</a>
</g>
</g>
<!-- Node19 -->
<g id="Node000019" class="node">
<title>Node19</title>
<g id="a_Node000019"><a xlink:href="pwd_8c.html#a445dbcbb87f52cdbb07a078f21b198c4" target="_top" xlink:title="Builtin function for the pwd (print working directory) command.">
<polygon fill="white" stroke="#666666" points="978.5,-162.5 929.5,-162.5 929.5,-143.5 978.5,-143.5 978.5,-162.5"/>
<text text-anchor="middle" x="954" y="-150.5" font-family="Helvetica,sans-Serif" font-size="10.00">ft_pwd</text>
</a>
</g>
</g>
<!-- Node2&#45;&gt;Node19 -->
<g id="edge30_Node000002_Node000019" class="edge">
<title>Node2&#45;&gt;Node19</title>
<g id="a_edge30_Node000002_Node000019"><a xlink:title=" ">
<path fill="none" stroke="#63b8ff" d="M1141.04,-182.29C1091.38,-174.47 1016.59,-162.7 978.74,-156.74"/>
<polygon fill="#63b8ff" stroke="#63b8ff" points="1140.51,-185.75 1150.93,-183.85 1141.6,-178.84 1140.51,-185.75"/>
</a>
</g>
</g>
<!-- Node20 -->
<g id="Node000020" class="node">
<title>Node20</title>
<g id="a_Node000020"><a xlink:href="unset_8c.html#afc37f76bba8f618bcf9eaafa7ee23618" target="_top" xlink:title="Builtin function for the unset command.">
<polygon fill="white" stroke="#666666" points="982,-125.5 926,-125.5 926,-106.5 982,-106.5 982,-125.5"/>
<text text-anchor="middle" x="954" y="-113.5" font-family="Helvetica,sans-Serif" font-size="10.00">ft_unset</text>
</a>
</g>
</g>
<!-- Node2&#45;&gt;Node20 -->
<g id="edge33_Node000002_Node000020" class="edge">
<title>Node2&#45;&gt;Node20</title>
<g id="a_edge33_Node000002_Node000020"><a xlink:title=" ">
<path fill="none" stroke="#63b8ff" d="M1159.64,-176.4C1146.12,-170.62 1129.92,-164.07 1115,-159 1069.11,-143.42 1014.31,-129.72 982.21,-122.18"/>
<polygon fill="#63b8ff" stroke="#63b8ff" points="1158.38,-179.67 1168.94,-180.44 1161.16,-173.25 1158.38,-179.67"/>
</a>
</g>
</g>
<!-- Node4 -->
<g id="Node000004" class="node">
<title>Node4</title>
<g id="a_Node000004"><a xlink:href="cmd__execution_8c.html#a5ce7231f800cbacea6350cc1a32a59bd" target="_top" xlink:title="Executes a list of non&#45;pipelined commands.">
<polygon fill="white" stroke="#666666" points="875,-199.5 803,-199.5 803,-180.5 875,-180.5 875,-199.5"/>
<text text-anchor="middle" x="839" y="-187.5" font-family="Helvetica,sans-Serif" font-size="10.00">ft_exe_cmd</text>
</a>
</g>
</g>
<!-- Node3&#45;&gt;Node4 -->
<g id="edge3_Node000003_Node000004" class="edge">
<title>Node3&#45;&gt;Node4</title>
<g id="a_edge3_Node000003_Node000004"><a xlink:title=" ">
<path fill="none" stroke="#63b8ff" d="M926.79,-95.12C925.81,-96.05 924.87,-97.01 924,-98 899.83,-125.45 915.05,-147.38 888,-172 884.31,-175.35 879.94,-178.1 875.37,-180.35"/>
<polygon fill="#63b8ff" stroke="#63b8ff" points="929.27,-97.62 934.94,-88.67 924.92,-92.13 929.27,-97.62"/>
</a>
</g>
</g>
<!-- Node3&#45;&gt;Node8 -->
<g id="edge7_Node000003_Node000008" class="edge">
<title>Node3&#45;&gt;Node8</title>
<g id="a_edge7_Node000003_Node000008"><a xlink:title=" ">
<path fill="none" stroke="#63b8ff" d="M929.61,-94.32C907.12,-109.04 873.81,-130.86 854.78,-143.32"/>
<polygon fill="#63b8ff" stroke="#63b8ff" points="931.78,-97.08 938.23,-88.67 927.94,-91.22 931.78,-97.08"/>
</a>
</g>
</g>
<!-- Node5 -->
<g id="Node000005" class="node">
<title>Node5</title>
<g id="a_Node000005"><a xlink:href="main__utils_8c.html#a7e8f478480ab6ab34d6f5eadaf6acdb9" target="_top" xlink:title="Handles parsing and execution of tokens.">
<polygon fill="white" stroke="#666666" points="273,-180.5 192,-180.5 192,-161.5 273,-161.5 273,-180.5"/>
<text text-anchor="middle" x="232.5" y="-168.5" font-family="Helvetica,sans-Serif" font-size="10.00">ft_token_flow</text>
</a>
</g>
</g>
<!-- Node4&#45;&gt;Node5 -->
<g id="edge4_Node000004_Node000005" class="edge">
<title>Node4&#45;&gt;Node5</title>
<g id="a_edge4_Node000004_Node000005"><a xlink:title=" ">
<path fill="none" stroke="#63b8ff" d="M792.82,-190C741.77,-190 656.16,-190 582.5,-190 582.5,-190 582.5,-190 459.5,-190 393.94,-190 318.06,-181.96 273.02,-176.34"/>
<polygon fill="#63b8ff" stroke="#63b8ff" points="792.87,-193.5 802.87,-190 792.87,-186.5 792.87,-193.5"/>
</a>
</g>
</g>
<!-- Node6 -->
<g id="Node000006" class="node">
<title>Node6</title>
<g id="a_Node000006"><a xlink:href="main__utils_8c.html#ae35edfb8f1339d6f77f53c28eb2a2ed6" target="_top" xlink:title="Handles a complete cycle of input → parsing → execution.">
<polygon fill="white" stroke="#666666" points="156,-180.5 77,-180.5 77,-161.5 156,-161.5 156,-180.5"/>
<text text-anchor="middle" x="116.5" y="-168.5" font-family="Helvetica,sans-Serif" font-size="10.00">ft_main_flow</text>
</a>
</g>
</g>
<!-- Node5&#45;&gt;Node6 -->
<g id="edge5_Node000005_Node000006" class="edge">
<title>Node5&#45;&gt;Node6</title>
<g id="a_edge5_Node000005_Node000006"><a xlink:title=" ">
<path fill="none" stroke="#63b8ff" d="M181.7,-171C173.16,-171 164.4,-171 156.21,-171"/>
<polygon fill="#63b8ff" stroke="#63b8ff" points="181.95,-174.5 191.95,-171 181.95,-167.5 181.95,-174.5"/>
</a>
</g>
</g>
<!-- Node7 -->
<g id="Node000007" class="node">
<title>Node7</title>
<g id="a_Node000007"><a xlink:href="main_8c.html#ab3862b46d6a8d13c2d884a297e6b05b5" target="_top" xlink:title="Main function of the minishell.">
<polygon fill="white" stroke="#666666" points="41,-180.5 0,-180.5 0,-161.5 41,-161.5 41,-180.5"/>
<text text-anchor="middle" x="20.5" y="-168.5" font-family="Helvetica,sans-Serif" font-size="10.00">main</text>
</a>
</g>
</g>
<!-- Node6&#45;&gt;Node7 -->
<g id="edge6_Node000006_Node000007" class="edge">
<title>Node6&#45;&gt;Node7</title>
<g id="a_edge6_Node000006_Node000007"><a xlink:title=" ">
<path fill="none" stroke="#63b8ff" d="M66.74,-171C57.62,-171 48.59,-171 41.03,-171"/>
<polygon fill="#63b8ff" stroke="#63b8ff" points="67,-174.5 77,-171 67,-167.5 67,-174.5"/>
</a>
</g>
</g>
<!-- Node9 -->
<g id="Node000009" class="node">
<title>Node9</title>
<g id="a_Node000009"><a xlink:href="pipes_8c.html#a36a2d91a0566ad253efe3833b05e69d1" target="_top" xlink:title="Routine executed by the child process for each command in the pipe.">
<polygon fill="white" stroke="#666666" points="754,-161.5 662,-161.5 662,-142.5 754,-142.5 754,-161.5"/>
<text text-anchor="middle" x="708" y="-149.5" font-family="Helvetica,sans-Serif" font-size="10.00">ft_child_routine</text>
</a>
</g>
</g>
<!-- Node8&#45;&gt;Node9 -->
<g id="edge8_Node000008_Node000009" class="edge">
<title>Node8&#45;&gt;Node9</title>
<g id="a_edge8_Node000008_Node000009"><a xlink:title=" ">
<path fill="none" stroke="#63b8ff" d="M779.91,-152.55C771.24,-152.48 762.42,-152.41 754.08,-152.35"/>
<polygon fill="#63b8ff" stroke="#63b8ff" points="779.94,-156.05 789.97,-152.63 779.99,-149.05 779.94,-156.05"/>
</a>
</g>
</g>
<!-- Node10 -->
<g id="Node000010" class="node">
<title>Node10</title>
<g id="a_Node000010"><a xlink:href="pipes_8c.html#aa17e847997e7266a0a111ab3572756bb" target="_top" xlink:title="Manages pipe creation and fork to execute the current command.">
<polygon fill="white" stroke="#666666" points="626,-161.5 537,-161.5 537,-142.5 626,-142.5 626,-161.5"/>
<text text-anchor="middle" x="581.5" y="-149.5" font-family="Helvetica,sans-Serif" font-size="10.00">ft_pipe_routine</text>
</a>
</g>
</g>
<!-- Node9&#45;&gt;Node10 -->
<g id="edge9_Node000009_Node000010" class="edge">
<title>Node9&#45;&gt;Node10</title>
<g id="a_edge9_Node000009_Node000010"><a xlink:title=" ">
<path fill="none" stroke="#63b8ff" d="M651.52,-152C643.08,-152 634.46,-152 626.31,-152"/>
<polygon fill="#63b8ff" stroke="#63b8ff" points="651.7,-155.5 661.7,-152 651.7,-148.5 651.7,-155.5"/>
</a>
</g>
</g>
<!-- Node11 -->
<g id="Node000011" class="node">
<title>Node11</title>
<g id="a_Node000011"><a xlink:href="pipes_8c.html#a7a3b0de1a88a243da741f748881e14f0" target="_top" xlink:title="Executes a list of commands connected via pipes.">
<polygon fill="white" stroke="#666666" points="501,-161.5 420,-161.5 420,-142.5 501,-142.5 501,-161.5"/>
<text text-anchor="middle" x="460.5" y="-149.5" font-family="Helvetica,sans-Serif" font-size="10.00">execute_pipe</text>
</a>
</g>
</g>
<!-- Node10&#45;&gt;Node11 -->
<g id="edge10_Node000010_Node000011" class="edge">
<title>Node10&#45;&gt;Node11</title>
<g id="a_edge10_Node000010_Node000011"><a xlink:title=" ">
<path fill="none" stroke="#63b8ff" d="M526.85,-152C518.22,-152 509.42,-152 501.19,-152"/>
<polygon fill="#63b8ff" stroke="#63b8ff" points="526.86,-155.5 536.86,-152 526.86,-148.5 526.86,-155.5"/>
</a>
</g>
</g>
<!-- Node11&#45;&gt;Node12 -->
<g id="edge11_Node000011_Node000012" class="edge">
<title>Node11&#45;&gt;Node12</title>
<g id="a_edge11_Node000011_Node000012"><a xlink:title=" ">
<path fill="none" stroke="#63b8ff" d="M409.47,-152C400.96,-152 392.26,-152 384.18,-152"/>
<polygon fill="#63b8ff" stroke="#63b8ff" points="409.7,-155.5 419.7,-152 409.7,-148.5 409.7,-155.5"/>
</a>
</g>
</g>
<!-- Node12&#45;&gt;Node5 -->
<g id="edge12_Node000012_Node000005" class="edge">
<title>Node12&#45;&gt;Node5</title>
<g id="a_edge12_Node000012_Node000005"><a xlink:title=" ">
<path fill="none" stroke="#63b8ff" d="M298.73,-159.93C290.29,-161.37 281.57,-162.85 273.35,-164.24"/>
<polygon fill="#63b8ff" stroke="#63b8ff" points="299.55,-163.34 308.83,-158.22 298.38,-156.44 299.55,-163.34"/>
</a>
</g>
</g>
<!-- Node13&#45;&gt;Node4 -->
<g id="edge14_Node000013_Node000004" class="edge">
<title>Node13&#45;&gt;Node4</title>
<g id="a_edge14_Node000013_Node000004"><a xlink:title=" ">
<path fill="none" stroke="#63b8ff" d="M927.55,-285.8C926.33,-284.89 925.14,-283.95 924,-283 891.94,-256.22 860.72,-217.3 847.11,-199.51"/>
<polygon fill="#63b8ff" stroke="#63b8ff" points="925.65,-288.74 935.89,-291.48 929.6,-282.96 925.65,-288.74"/>
</a>
</g>
</g>
<!-- Node13&#45;&gt;Node8 -->
<g id="edge15_Node000013_Node000008" class="edge">
<title>Node13&#45;&gt;Node8</title>
<g id="a_edge15_Node000013_Node000008"><a xlink:title=" ">
<path fill="none" stroke="#63b8ff" d="M925.52,-284.79C924.99,-284.21 924.48,-283.61 924,-283 892.02,-242.17 923.49,-209.81 888,-172 884.44,-168.21 880.03,-165.16 875.34,-162.71"/>
<polygon fill="#63b8ff" stroke="#63b8ff" points="923.49,-287.66 933.37,-291.47 928.02,-282.33 923.49,-287.66"/>
</a>
</g>
</g>
<!-- Node14&#45;&gt;Node4 -->
<g id="edge17_Node000014_Node000004" class="edge">
<title>Node14&#45;&gt;Node4</title>
<g id="a_edge17_Node000014_Node000004"><a xlink:title=" ">
<path fill="none" stroke="#63b8ff" d="M928.53,-248.89C926.99,-247.92 925.47,-246.95 924,-246 899.24,-230.07 870.8,-210.93 854.18,-199.65"/>
<polygon fill="#63b8ff" stroke="#63b8ff" points="926.96,-252.03 937.29,-254.38 930.67,-246.1 926.96,-252.03"/>
</a>
</g>
</g>
<!-- Node14&#45;&gt;Node8 -->
<g id="edge18_Node000014_Node000008" class="edge">
<title>Node14&#45;&gt;Node8</title>
<g id="a_edge18_Node000014_Node000008"><a xlink:title=" ">
<path fill="none" stroke="#63b8ff" d="M925.97,-248.03C925.28,-247.37 924.63,-246.69 924,-246 899.5,-218.84 914.82,-196.86 888,-172 883.92,-168.22 879.01,-165.16 873.9,-162.69"/>
<polygon fill="#63b8ff" stroke="#63b8ff" points="924,-250.93 934.02,-254.38 928.34,-245.44 924,-250.93"/>
</a>
</g>
</g>
<!-- Node15&#45;&gt;Node16 -->
<g id="edge20_Node000015_Node000016" class="edge">
<title>Node15&#45;&gt;Node16</title>
<g id="a_edge20_Node000015_Node000016"><a xlink:title=" ">
<path fill="none" stroke="#63b8ff" d="M1026.73,-289.07C1024.39,-287.8 1022.13,-286.45 1020,-285 1000.5,-271.73 1002,-261.24 984,-246 980.05,-242.65 975.48,-239.41 971.15,-236.58"/>
<polygon fill="#63b8ff" stroke="#63b8ff" points="1025.44,-292.33 1035.97,-293.49 1028.46,-286.02 1025.44,-292.33"/>
</a>
</g>
</g>
<!-- Node16&#45;&gt;Node4 -->
<g id="edge21_Node000016_Node000004" class="edge">
<title>Node16&#45;&gt;Node4</title>
<g id="a_edge21_Node000016_Node000004"><a xlink:title=" ">
<path fill="none" stroke="#63b8ff" d="M920.82,-216.46C904.65,-211.17 885.19,-204.8 869.42,-199.63"/>
<polygon fill="#63b8ff" stroke="#63b8ff" points="919.81,-219.82 930.4,-219.6 921.99,-213.16 919.81,-219.82"/>
</a>
</g>
</g>
<!-- Node16&#45;&gt;Node8 -->
<g id="edge22_Node000016_Node000008" class="edge">
<title>Node16&#45;&gt;Node8</title>
<g id="a_edge22_Node000016_Node000008"><a xlink:title=" ">
<path fill="none" stroke="#63b8ff" d="M927.6,-211.75C926.36,-210.85 925.15,-209.93 924,-209 906.12,-194.62 907.09,-184.73 888,-172 882.48,-168.32 876.14,-165.18 869.92,-162.58"/>
<polygon fill="#63b8ff" stroke="#63b8ff" points="925.72,-214.7 935.96,-217.39 929.63,-208.9 925.72,-214.7"/>
</a>
</g>
</g>
<!-- Node17&#45;&gt;Node16 -->
<g id="edge26_Node000017_Node000016" class="edge">
<title>Node17&#45;&gt;Node16</title>
<g id="a_edge26_Node000017_Node000016"><a xlink:title=" ">
<path fill="none" stroke="#63b8ff" d="M1029.54,-253.07C1012.47,-247.1 992.73,-240.2 977.86,-235"/>
<polygon fill="#63b8ff" stroke="#63b8ff" points="1028.63,-256.46 1039.22,-256.46 1030.94,-249.85 1028.63,-256.46"/>
</a>
</g>
</g>
<!-- Node18&#45;&gt;Node4 -->
<g id="edge28_Node000018_Node000004" class="edge">
<title>Node18&#45;&gt;Node4</title>
<g id="a_edge28_Node000018_Node000004"><a xlink:title=" ">
<path fill="none" stroke="#63b8ff" d="M913.7,-190C901.12,-190 887.29,-190 875.04,-190"/>
<polygon fill="#63b8ff" stroke="#63b8ff" points="913.9,-193.5 923.9,-190 913.9,-186.5 913.9,-193.5"/>
</a>
</g>
</g>
<!-- Node18&#45;&gt;Node8 -->
<g id="edge29_Node000018_Node000008" class="edge">
<title>Node18&#45;&gt;Node8</title>
<g id="a_edge29_Node000018_Node000008"><a xlink:title=" ">
<path fill="none" stroke="#63b8ff" d="M914.09,-177.26C899.44,-172.46 883.04,-167.09 869.39,-162.62"/>
<polygon fill="#63b8ff" stroke="#63b8ff" points="913.31,-180.69 923.9,-180.47 915.49,-174.03 913.31,-180.69"/>
</a>
</g>
</g>
<!-- Node19&#45;&gt;Node4 -->
<g id="edge31_Node000019_Node000004" class="edge">
<title>Node19&#45;&gt;Node4</title>
<g id="a_edge31_Node000019_Node000004"><a xlink:title=" ">
<path fill="none" stroke="#63b8ff" d="M919.79,-163.87C903.78,-169.12 884.75,-175.35 869.29,-180.41"/>
<polygon fill="#63b8ff" stroke="#63b8ff" points="920.9,-167.19 929.31,-160.76 918.72,-160.54 920.9,-167.19"/>
</a>
</g>
</g>
<!-- Node19&#45;&gt;Node8 -->
<g id="edge32_Node000019_Node000008" class="edge">
<title>Node19&#45;&gt;Node8</title>
<g id="a_edge32_Node000019_Node000008"><a xlink:title=" ">
<path fill="none" stroke="#63b8ff" d="M919.26,-153C909.55,-153 898.75,-153 888.34,-153"/>
<polygon fill="#63b8ff" stroke="#63b8ff" points="919.31,-156.5 929.31,-153 919.31,-149.5 919.31,-156.5"/>
</a>
</g>
</g>
<!-- Node20&#45;&gt;Node4 -->
<g id="edge34_Node000020_Node000004" class="edge">
<title>Node20&#45;&gt;Node4</title>
<g id="a_edge34_Node000020_Node000004"><a xlink:title=" ">
<path fill="none" stroke="#63b8ff" d="M928.29,-131.64C926.82,-132.74 925.37,-133.87 924,-135 906.3,-149.6 907.21,-159.45 888,-172 882.93,-175.31 877.17,-178.13 871.44,-180.49"/>
<polygon fill="#63b8ff" stroke="#63b8ff" points="930.69,-134.24 936.9,-125.65 926.7,-128.49 930.69,-134.24"/>
</a>
</g>
</g>
<!-- Node20&#45;&gt;Node8 -->
<g id="edge35_Node000020_Node000008" class="edge">
<title>Node20&#45;&gt;Node8</title>
<g id="a_edge35_Node000020_Node000008"><a xlink:title=" ">
<path fill="none" stroke="#63b8ff" d="M916.28,-128.02C901.03,-133.02 883.58,-138.73 869.22,-143.43"/>
<polygon fill="#63b8ff" stroke="#63b8ff" points="917.52,-131.3 925.93,-124.86 915.34,-124.65 917.52,-131.3"/>
</a>
</g>
</g>
</g>
</svg>
