<?xml version="1.0" encoding="UTF-8" standalone="no"?>
<!DOCTYPE svg PUBLIC "-//W3C//DTD SVG 1.1//EN"
 "http://www.w3.org/Graphics/SVG/1.1/DTD/svg11.dtd">
<!-- Generated by graphviz version 2.43.0 (0)
 -->
<!-- Title: ft_add_node Pages: 1 -->
<svg width="409pt" height="103pt"
 viewBox="0.00 0.00 409.00 103.00" xmlns="http://www.w3.org/2000/svg" xmlns:xlink="http://www.w3.org/1999/xlink">
<g id="graph0" class="graph" transform="scale(1 1) rotate(0) translate(4 99)">
<title>ft_add_node</title>
<!-- Node1 -->
<g id="Node000001" class="node">
<title>Node1</title>
<g id="a_Node000001"><a xlink:title="Adds a new command node to the list and updates the current node.">
<polygon fill="#999999" stroke="#666666" points="76,-75 0,-75 0,-56 76,-56 76,-75"/>
<text text-anchor="middle" x="38" y="-63" font-family="Helvetica,sans-Serif" font-size="10.00">ft_add_node</text>
</a>
</g>
</g>
<!-- Node2 -->
<g id="Node000002" class="node">
<title>Node2</title>
<g id="a_Node000002"><a xlink:href="utils__cmd__list_8c.html#a8f03e9f309a1fd0b2f003f070e82b1bb" target="_top" xlink:title="Adds a t_cmd node to the command list.">
<polygon fill="white" stroke="#666666" points="201,-94 112,-94 112,-75 201,-75 201,-94"/>
<text text-anchor="middle" x="156.5" y="-82" font-family="Helvetica,sans-Serif" font-size="10.00">add_command</text>
</a>
</g>
</g>
<!-- Node1&#45;&gt;Node2 -->
<g id="edge1_Node000001_Node000002" class="edge">
<title>Node1&#45;&gt;Node2</title>
<g id="a_edge1_Node000001_Node000002"><a xlink:title=" ">
<path fill="none" stroke="#63b8ff" d="M76.18,-71.56C84.32,-72.89 93.09,-74.32 101.73,-75.73"/>
<polygon fill="#63b8ff" stroke="#63b8ff" points="101.33,-79.21 111.76,-77.37 102.45,-72.3 101.33,-79.21"/>
</a>
</g>
</g>
<!-- Node5 -->
<g id="Node000005" class="node">
<title>Node5</title>
<g id="a_Node000005"><a xlink:href="utils__cmd__list_8c.html#a5668bb086874f4eac3b64300b787367b" target="_top" xlink:title="Creates a new command list node.">
<polygon fill="white" stroke="#666666" points="195,-57 118,-57 118,-38 195,-38 195,-57"/>
<text text-anchor="middle" x="156.5" y="-45" font-family="Helvetica,sans-Serif" font-size="10.00">create_node</text>
</a>
</g>
</g>
<!-- Node1&#45;&gt;Node5 -->
<g id="edge4_Node000001_Node000005" class="edge">
<title>Node1&#45;&gt;Node5</title>
<g id="a_edge4_Node000001_Node000005"><a xlink:title=" ">
<path fill="none" stroke="#63b8ff" d="M76.18,-59.76C86.27,-58.2 97.34,-56.49 107.92,-54.85"/>
<polygon fill="#63b8ff" stroke="#63b8ff" points="108.52,-58.3 117.87,-53.31 107.45,-51.38 108.52,-58.3"/>
</a>
</g>
</g>
<!-- Node3 -->
<g id="Node000003" class="node">
<title>Node3</title>
<g id="a_Node000003"><a xlink:href="utils__token_8c.html#ab94cb586647a70372e436ef3214797ad" target="_top" xlink:title="Creates a new token node.">
<polygon fill="white" stroke="#666666" points="306,-95 237,-95 237,-76 306,-76 306,-95"/>
<text text-anchor="middle" x="271.5" y="-83" font-family="Helvetica,sans-Serif" font-size="10.00">new_token</text>
</a>
</g>
</g>
<!-- Node2&#45;&gt;Node3 -->
<g id="edge2_Node000002_Node000003" class="edge">
<title>Node2&#45;&gt;Node3</title>
<g id="a_edge2_Node000002_Node000003"><a xlink:title=" ">
<path fill="none" stroke="#63b8ff" d="M201.19,-84.89C209.49,-84.96 218.17,-85.04 226.48,-85.11"/>
<polygon fill="#63b8ff" stroke="#63b8ff" points="226.71,-88.61 236.74,-85.2 226.77,-81.61 226.71,-88.61"/>
</a>
</g>
</g>
<!-- Node4 -->
<g id="Node000004" class="node">
<title>Node4</title>
<g id="a_Node000004"><a xlink:href="ft__strdup_8c.html#aebe73f27c70c56ac5053f860ef5436c9" target="_top" xlink:title="Duplicates a null&#45;terminated string by allocating memory.">
<polygon fill="white" stroke="#666666" points="401,-76 342,-76 342,-57 401,-57 401,-76"/>
<text text-anchor="middle" x="371.5" y="-64" font-family="Helvetica,sans-Serif" font-size="10.00">ft_strdup</text>
</a>
</g>
</g>
<!-- Node3&#45;&gt;Node4 -->
<g id="edge3_Node000003_Node000004" class="edge">
<title>Node3&#45;&gt;Node4</title>
<g id="a_edge3_Node000003_Node000004"><a xlink:title=" ">
<path fill="none" stroke="#63b8ff" d="M306.23,-78.96C314.49,-77.36 323.4,-75.63 331.88,-73.99"/>
<polygon fill="#63b8ff" stroke="#63b8ff" points="332.78,-77.38 341.93,-72.04 331.45,-70.51 332.78,-77.38"/>
</a>
</g>
</g>
<!-- Node5&#45;&gt;Node4 -->
<g id="edge6_Node000005_Node000004" class="edge">
<title>Node5&#45;&gt;Node4</title>
<g id="a_edge6_Node000005_Node000004"><a xlink:title=" ">
<path fill="none" stroke="#63b8ff" d="M195.09,-50.85C233.41,-54.27 292.58,-59.55 331.43,-63.01"/>
<polygon fill="#63b8ff" stroke="#63b8ff" points="331.54,-66.54 341.81,-63.94 332.16,-59.57 331.54,-66.54"/>
</a>
</g>
</g>
<!-- Node6 -->
<g id="Node000006" class="node">
<title>Node6</title>
<g id="a_Node000006"><a xlink:href="ft__bzero_8c.html#a5937ab0d08e31d0e3e4a16ec71e293a1" target="_top" xlink:title="Sets the first &#39;n&#39; bytes of the memory area pointed to by &#39;s&#39; to zero.">
<polygon fill="white" stroke="#666666" points="299.5,-19 243.5,-19 243.5,0 299.5,0 299.5,-19"/>
<text text-anchor="middle" x="271.5" y="-7" font-family="Helvetica,sans-Serif" font-size="10.00">ft_bzero</text>
</a>
</g>
</g>
<!-- Node5&#45;&gt;Node6 -->
<g id="edge5_Node000005_Node000006" class="edge">
<title>Node5&#45;&gt;Node6</title>
<g id="a_edge5_Node000005_Node000006"><a xlink:title=" ">
<path fill="none" stroke="#63b8ff" d="M186.01,-37.91C200.39,-33.08 217.99,-27.16 233.41,-21.97"/>
<polygon fill="#63b8ff" stroke="#63b8ff" points="234.8,-25.2 243.16,-18.69 232.57,-18.56 234.8,-25.2"/>
</a>
</g>
</g>
</g>
</svg>
