<?xml version="1.0" encoding="UTF-8" standalone="no"?>
<!DOCTYPE svg PUBLIC "-//W3C//DTD SVG 1.1//EN"
 "http://www.w3.org/Graphics/SVG/1.1/DTD/svg11.dtd">
<!-- Generated by graphviz version 2.43.0 (0)
 -->
<!-- Title: get_exit_status Pages: 1 -->
<svg width="629pt" height="248pt"
 viewBox="0.00 0.00 629.00 248.00" xmlns="http://www.w3.org/2000/svg" xmlns:xlink="http://www.w3.org/1999/xlink">
<g id="graph0" class="graph" transform="scale(1 1) rotate(0) translate(4 244)">
<title>get_exit_status</title>
<!-- Node1 -->
<g id="Node000001" class="node">
<title>Node1</title>
<g id="a_Node000001"><a xlink:title="Updates the child process exit status in the env struct.">
<polygon fill="#999999" stroke="#666666" points="92,-161 0,-161 0,-142 92,-142 92,-161"/>
<text text-anchor="middle" x="46" y="-149" font-family="Helvetica,sans-Serif" font-size="10.00">get_exit_status</text>
</a>
</g>
</g>
<!-- Node2 -->
<g id="Node000002" class="node">
<title>Node2</title>
<g id="a_Node000002"><a xlink:href="ft__printf_8c.html#a091532b7f37af84bdecc84dccf4eedb1" target="_top" xlink:title="A simplified printf function that outputs formatted data to a given file descriptor.">
<polygon fill="white" stroke="#666666" points="196.5,-180 141.5,-180 141.5,-161 196.5,-161 196.5,-180"/>
<text text-anchor="middle" x="169" y="-168" font-family="Helvetica,sans-Serif" font-size="10.00">ft_printf</text>
</a>
</g>
</g>
<!-- Node1&#45;&gt;Node2 -->
<g id="edge1_Node000001_Node000002" class="edge">
<title>Node1&#45;&gt;Node2</title>
<g id="a_edge1_Node000001_Node000002"><a xlink:title=" ">
<path fill="none" stroke="#63b8ff" d="M92.06,-158.57C104.97,-160.6 118.89,-162.79 131.24,-164.73"/>
<polygon fill="#63b8ff" stroke="#63b8ff" points="130.77,-168.2 141.19,-166.29 131.85,-161.28 130.77,-168.2"/>
</a>
</g>
</g>
<!-- Node12 -->
<g id="Node000012" class="node">
<title>Node12</title>
<g id="a_Node000012"><a xlink:href="signal__flag_8c.html#a8bfc90b3fb9344e9caafec953baacc0b" target="_top" xlink:title="Signal handler for SIGINT (Ctrl&#45;C).">
<polygon fill="white" stroke="#666666" points="210,-143 128,-143 128,-124 210,-124 210,-143"/>
<text text-anchor="middle" x="169" y="-131" font-family="Helvetica,sans-Serif" font-size="10.00">handle_sigint</text>
</a>
</g>
</g>
<!-- Node1&#45;&gt;Node12 -->
<g id="edge16_Node000001_Node000012" class="edge">
<title>Node1&#45;&gt;Node12</title>
<g id="a_edge16_Node000001_Node000012"><a xlink:title=" ">
<path fill="none" stroke="#63b8ff" d="M92.06,-144.8C100.37,-143.56 109.1,-142.26 117.56,-141"/>
<polygon fill="#63b8ff" stroke="#63b8ff" points="118.32,-144.43 127.69,-139.5 117.29,-137.51 118.32,-144.43"/>
</a>
</g>
</g>
<!-- Node3 -->
<g id="Node000003" class="node">
<title>Node3</title>
<g id="a_Node000003"><a xlink:href="ft__printf_8c.html#a80c1c206dcd33d07c265581878aaa300" target="_top" xlink:title="Processes a single format specifier and prints the corresponding argument.">
<polygon fill="white" stroke="#666666" points="329,-148 246,-148 246,-129 329,-129 329,-148"/>
<text text-anchor="middle" x="287.5" y="-136" font-family="Helvetica,sans-Serif" font-size="10.00">check_format</text>
</a>
</g>
</g>
<!-- Node2&#45;&gt;Node3 -->
<g id="edge2_Node000002_Node000003" class="edge">
<title>Node2&#45;&gt;Node3</title>
<g id="a_edge2_Node000002_Node000003"><a xlink:title=" ">
<path fill="none" stroke="#63b8ff" d="M196.73,-163.16C210.06,-159.5 226.55,-154.97 241.75,-150.79"/>
<polygon fill="#63b8ff" stroke="#63b8ff" points="242.78,-154.14 251.5,-148.11 240.93,-147.39 242.78,-154.14"/>
</a>
</g>
</g>
<!-- Node7 -->
<g id="Node000007" class="node">
<title>Node7</title>
<g id="a_Node000007"><a xlink:href="ft__putchar__fd_8c.html#a03ef80b25dc4a521379fa92ad97bad21" target="_top" xlink:title="Writes a single character to the specified file descriptor.">
<polygon fill="white" stroke="#666666" points="460,-240 380,-240 380,-221 460,-221 460,-240"/>
<text text-anchor="middle" x="420" y="-228" font-family="Helvetica,sans-Serif" font-size="10.00">ft_putchar_fd</text>
</a>
</g>
</g>
<!-- Node2&#45;&gt;Node7 -->
<g id="edge15_Node000002_Node000007" class="edge">
<title>Node2&#45;&gt;Node7</title>
<g id="a_edge15_Node000002_Node000007"><a xlink:title=" ">
<path fill="none" stroke="#63b8ff" d="M196.65,-176.92C237.93,-186.87 317.99,-206.16 369.94,-218.68"/>
<polygon fill="#63b8ff" stroke="#63b8ff" points="369.39,-222.15 379.93,-221.09 371.03,-215.34 369.39,-222.15"/>
</a>
</g>
</g>
<!-- Node4 -->
<g id="Node000004" class="node">
<title>Node4</title>
<g id="a_Node000004"><a xlink:href="ft__forpointer_8c.html#a8e02c77b80406af72327ebf71f537786" target="_top" xlink:title="Prints a pointer in hexadecimal format prefixed with &quot;0x&quot;.">
<polygon fill="white" stroke="#666666" points="458.5,-203 381.5,-203 381.5,-184 458.5,-184 458.5,-203"/>
<text text-anchor="middle" x="420" y="-191" font-family="Helvetica,sans-Serif" font-size="10.00">ft_forpointer</text>
</a>
</g>
</g>
<!-- Node3&#45;&gt;Node4 -->
<g id="edge3_Node000003_Node000004" class="edge">
<title>Node3&#45;&gt;Node4</title>
<g id="a_edge3_Node000003_Node000004"><a xlink:title=" ">
<path fill="none" stroke="#63b8ff" d="M306.75,-148.15C322.06,-156.05 344.64,-167.22 365,-175.5 369.4,-177.29 374.06,-179.04 378.71,-180.71"/>
<polygon fill="#63b8ff" stroke="#63b8ff" points="377.6,-184.03 388.19,-183.99 379.89,-177.41 377.6,-184.03"/>
</a>
</g>
</g>
<!-- Node6 -->
<g id="Node000006" class="node">
<title>Node6</title>
<g id="a_Node000006"><a xlink:href="ft__hexadecimal_8c.html#a39c845e0a4286d3ac1e04c1e64ac734b" target="_top" xlink:title="Prints an unsigned integer in hexadecimal format.">
<polygon fill="white" stroke="#666666" points="466,-148 374,-148 374,-129 466,-129 466,-148"/>
<text text-anchor="middle" x="420" y="-136" font-family="Helvetica,sans-Serif" font-size="10.00">ft_hexadecimal</text>
</a>
</g>
</g>
<!-- Node3&#45;&gt;Node6 -->
<g id="edge6_Node000003_Node000006" class="edge">
<title>Node3&#45;&gt;Node6</title>
<g id="a_edge6_Node000003_Node000006"><a xlink:title=" ">
<path fill="none" stroke="#63b8ff" d="M329.08,-138.5C340.07,-138.5 352.16,-138.5 363.82,-138.5"/>
<polygon fill="#63b8ff" stroke="#63b8ff" points="363.9,-142 373.9,-138.5 363.9,-135 363.9,-142"/>
</a>
</g>
</g>
<!-- Node3&#45;&gt;Node7 -->
<g id="edge8_Node000003_Node000007" class="edge">
<title>Node3&#45;&gt;Node7</title>
<g id="a_edge8_Node000003_Node000007"><a xlink:title=" ">
<path fill="none" stroke="#63b8ff" d="M295.94,-148.07C308.55,-163.69 335.61,-194.67 365,-212.5 367.66,-214.11 370.48,-215.6 373.39,-216.97"/>
<polygon fill="#63b8ff" stroke="#63b8ff" points="372.27,-220.3 382.85,-220.96 374.99,-213.85 372.27,-220.3"/>
</a>
</g>
</g>
<!-- Node8 -->
<g id="Node000008" class="node">
<title>Node8</title>
<g id="a_Node000008"><a xlink:href="ft__putnbr__fd_8c.html#a1554101ee350c316340c78e19faddaa8" target="_top" xlink:title="Writes an integer to a given file descriptor.">
<polygon fill="white" stroke="#666666" points="457.5,-93 382.5,-93 382.5,-74 457.5,-74 457.5,-93"/>
<text text-anchor="middle" x="420" y="-81" font-family="Helvetica,sans-Serif" font-size="10.00">ft_putnbr_fd</text>
</a>
</g>
</g>
<!-- Node3&#45;&gt;Node8 -->
<g id="edge9_Node000003_Node000008" class="edge">
<title>Node3&#45;&gt;Node8</title>
<g id="a_edge9_Node000003_Node000008"><a xlink:title=" ">
<path fill="none" stroke="#63b8ff" d="M311.23,-128.92C332.06,-120.14 363.13,-107.05 386.57,-97.17"/>
<polygon fill="#63b8ff" stroke="#63b8ff" points="388.24,-100.26 396.09,-93.16 385.52,-93.81 388.24,-100.26"/>
</a>
</g>
</g>
<!-- Node9 -->
<g id="Node000009" class="node">
<title>Node9</title>
<g id="a_Node000009"><a xlink:href="ft__putstr__fd_8c.html#a00b0638f31a75c7a30f77f33888bfb73" target="_top" xlink:title="Writes a null&#45;terminated string to the specified file descriptor.">
<polygon fill="white" stroke="#666666" points="456,-56 384,-56 384,-37 456,-37 456,-56"/>
<text text-anchor="middle" x="420" y="-44" font-family="Helvetica,sans-Serif" font-size="10.00">ft_putstr_fd</text>
</a>
</g>
</g>
<!-- Node3&#45;&gt;Node9 -->
<g id="edge11_Node000003_Node000009" class="edge">
<title>Node3&#45;&gt;Node9</title>
<g id="a_edge11_Node000003_Node000009"><a xlink:title=" ">
<path fill="none" stroke="#63b8ff" d="M296.42,-128.62C309.28,-113.15 336.21,-83.16 365,-65.5 368.34,-63.45 371.92,-61.59 375.61,-59.89"/>
<polygon fill="#63b8ff" stroke="#63b8ff" points="376.98,-63.11 384.87,-56.04 374.29,-56.65 376.98,-63.11"/>
</a>
</g>
</g>
<!-- Node10 -->
<g id="Node000010" class="node">
<title>Node10</title>
<g id="a_Node000010"><a xlink:href="ft__unsigned__putnbr_8c.html#af9a70f8607b40cf2a7706f9d3725b549" target="_top" xlink:title="Writes an unsigned integer to the given file descriptor.">
<polygon fill="white" stroke="#666666" points="475,-19 365,-19 365,0 475,0 475,-19"/>
<text text-anchor="middle" x="420" y="-7" font-family="Helvetica,sans-Serif" font-size="10.00">ft_unsigned_putnbr</text>
</a>
</g>
</g>
<!-- Node3&#45;&gt;Node10 -->
<g id="edge12_Node000003_Node000010" class="edge">
<title>Node3&#45;&gt;Node10</title>
<g id="a_edge12_Node000003_Node000010"><a xlink:title=" ">
<path fill="none" stroke="#63b8ff" d="M292.51,-128.93C301.94,-107.55 327.58,-55.62 365,-27.5 366.83,-26.13 368.77,-24.85 370.79,-23.67"/>
<polygon fill="#63b8ff" stroke="#63b8ff" points="372.61,-26.67 380,-19.09 369.49,-20.41 372.61,-26.67"/>
</a>
</g>
</g>
<!-- Node5 -->
<g id="Node000005" class="node">
<title>Node5</title>
<g id="a_Node000005"><a xlink:href="ft__forpointer_8c.html#aded1bf735c8a10e47396170d27c5b6aa" target="_top" xlink:title="Recursively prints a memory address in hexadecimal format.">
<polygon fill="white" stroke="#666666" points="621,-203 511,-203 511,-184 621,-184 621,-203"/>
<text text-anchor="middle" x="566" y="-191" font-family="Helvetica,sans-Serif" font-size="10.00">ft_ricorsive_pointer</text>
</a>
</g>
</g>
<!-- Node4&#45;&gt;Node5 -->
<g id="edge4_Node000004_Node000005" class="edge">
<title>Node4&#45;&gt;Node5</title>
<g id="a_edge4_Node000004_Node000005"><a xlink:title=" ">
<path fill="none" stroke="#63b8ff" d="M458.83,-193.5C471.64,-193.5 486.33,-193.5 500.61,-193.5"/>
<polygon fill="#63b8ff" stroke="#63b8ff" points="500.9,-197 510.9,-193.5 500.9,-190 500.9,-197"/>
</a>
</g>
</g>
<!-- Node5&#45;&gt;Node5 -->
<g id="edge5_Node000005_Node000005" class="edge">
<title>Node5&#45;&gt;Node5</title>
<g id="a_edge5_Node000005_Node000005"><a xlink:title=" ">
<path fill="none" stroke="#63b8ff" d="M543.5,-203.08C532.55,-211.73 540.05,-221 566,-221 582.62,-221 591.68,-217.2 593.16,-212.19"/>
<polygon fill="#63b8ff" stroke="#63b8ff" points="596.17,-210.39 588.5,-203.08 589.94,-213.58 596.17,-210.39"/>
</a>
</g>
</g>
<!-- Node6&#45;&gt;Node6 -->
<g id="edge7_Node000006_Node000006" class="edge">
<title>Node6&#45;&gt;Node6</title>
<g id="a_edge7_Node000006_Node000006"><a xlink:title=" ">
<path fill="none" stroke="#63b8ff" d="M399.65,-148.08C389.76,-156.73 396.54,-166 420,-166 435.03,-166 443.21,-162.2 444.55,-157.19"/>
<polygon fill="#63b8ff" stroke="#63b8ff" points="447.72,-155.69 440.35,-148.08 441.36,-158.63 447.72,-155.69"/>
</a>
</g>
</g>
<!-- Node8&#45;&gt;Node8 -->
<g id="edge10_Node000008_Node000008" class="edge">
<title>Node8&#45;&gt;Node8</title>
<g id="a_edge10_Node000008_Node000008"><a xlink:title=" ">
<path fill="none" stroke="#63b8ff" d="M399.65,-93.08C389.76,-101.73 396.54,-111 420,-111 435.03,-111 443.21,-107.2 444.55,-102.19"/>
<polygon fill="#63b8ff" stroke="#63b8ff" points="447.72,-100.69 440.35,-93.08 441.36,-103.63 447.72,-100.69"/>
</a>
</g>
</g>
<!-- Node11 -->
<g id="Node000011" class="node">
<title>Node11</title>
<g id="a_Node000011"><a xlink:href="ft__putnbr_8c.html#a2e51f80c9e46e52f4adf94617fb51ada" target="_top" xlink:title="Writes an integer to the standard output (stdout).">
<polygon fill="white" stroke="#666666" points="596,-19 536,-19 536,0 596,0 596,-19"/>
<text text-anchor="middle" x="566" y="-7" font-family="Helvetica,sans-Serif" font-size="10.00">ft_putnbr</text>
</a>
</g>
</g>
<!-- Node10&#45;&gt;Node11 -->
<g id="edge13_Node000010_Node000011" class="edge">
<title>Node10&#45;&gt;Node11</title>
<g id="a_edge13_Node000010_Node000011"><a xlink:title=" ">
<path fill="none" stroke="#63b8ff" d="M475.03,-9.5C491.76,-9.5 509.87,-9.5 525.43,-9.5"/>
<polygon fill="#63b8ff" stroke="#63b8ff" points="525.74,-13 535.74,-9.5 525.74,-6 525.74,-13"/>
</a>
</g>
</g>
<!-- Node11&#45;&gt;Node11 -->
<g id="edge14_Node000011_Node000011" class="edge">
<title>Node11&#45;&gt;Node11</title>
<g id="a_edge14_Node000011_Node000011"><a xlink:title=" ">
<path fill="none" stroke="#63b8ff" d="M543.5,-19.08C532.55,-27.73 540.05,-37 566,-37 582.62,-37 591.68,-33.2 593.16,-28.19"/>
<polygon fill="#63b8ff" stroke="#63b8ff" points="596.17,-26.39 588.5,-19.08 589.94,-29.58 596.17,-26.39"/>
</a>
</g>
</g>
</g>
</svg>
