<?xml version="1.0" encoding="UTF-8" standalone="no"?>
<!DOCTYPE svg PUBLIC "-//W3C//DTD SVG 1.1//EN"
 "http://www.w3.org/Graphics/SVG/1.1/DTD/svg11.dtd">
<!-- Generated by graphviz version 2.43.0 (0)
 -->
<!-- Title: get_token_type Pages: 1 -->
<svg width="661pt" height="101pt"
 viewBox="0.00 0.00 661.00 101.00" xmlns="http://www.w3.org/2000/svg" xmlns:xlink="http://www.w3.org/1999/xlink">
<g id="graph0" class="graph" transform="scale(1 1) rotate(0) translate(4 97)">
<title>get_token_type</title>
<!-- Node1 -->
<g id="Node000001" class="node">
<title>Node1</title>
<g id="a_Node000001"><a xlink:title="Determines the token type based on the value, quote flag, and command flag.">
<polygon fill="#999999" stroke="#666666" points="653,-56 561,-56 561,-37 653,-37 653,-56"/>
<text text-anchor="middle" x="607" y="-44" font-family="Helvetica,sans-Serif" font-size="10.00">get_token_type</text>
</a>
</g>
</g>
<!-- Node2 -->
<g id="Node000002" class="node">
<title>Node2</title>
<g id="a_Node000002"><a xlink:href="handle__tokens_8c.html#aa2c36964d13c3cd524d41408f386eed9" target="_top" xlink:title="Handles tokens enclosed in quotes and adds them to the list.">
<polygon fill="white" stroke="#666666" points="508.5,-93 420.5,-93 420.5,-74 508.5,-74 508.5,-93"/>
<text text-anchor="middle" x="464.5" y="-81" font-family="Helvetica,sans-Serif" font-size="10.00">handle_quotes</text>
</a>
</g>
</g>
<!-- Node1&#45;&gt;Node2 -->
<g id="edge1_Node000001_Node000002" class="edge">
<title>Node1&#45;&gt;Node2</title>
<g id="a_edge1_Node000001_Node000002"><a xlink:title=" ">
<path fill="none" stroke="#63b8ff" d="M559.98,-58.62C541.18,-63.57 519.74,-69.22 502.05,-73.88"/>
<polygon fill="#63b8ff" stroke="#63b8ff" points="561.04,-61.96 569.82,-56.03 559.26,-55.19 561.04,-61.96"/>
</a>
</g>
</g>
<!-- Node7 -->
<g id="Node000007" class="node">
<title>Node7</title>
<g id="a_Node000007"><a xlink:href="handle__tokens_8c.html#a0d1a76ff74d96055e21dbd045c471793" target="_top" xlink:title="Handles shell special characters (|, &lt;, &gt;, &lt;&lt;, &gt;&gt;).">
<polygon fill="white" stroke="#666666" points="525,-56 404,-56 404,-37 525,-37 525,-56"/>
<text text-anchor="middle" x="464.5" y="-44" font-family="Helvetica,sans-Serif" font-size="10.00">handle_special_chars</text>
</a>
</g>
</g>
<!-- Node1&#45;&gt;Node7 -->
<g id="edge6_Node000001_Node000007" class="edge">
<title>Node1&#45;&gt;Node7</title>
<g id="a_edge6_Node000001_Node000007"><a xlink:title=" ">
<path fill="none" stroke="#63b8ff" d="M550.67,-46.5C542.25,-46.5 533.52,-46.5 525.01,-46.5"/>
<polygon fill="#63b8ff" stroke="#63b8ff" points="550.77,-50 560.77,-46.5 550.77,-43 550.77,-50"/>
</a>
</g>
</g>
<!-- Node8 -->
<g id="Node000008" class="node">
<title>Node8</title>
<g id="a_Node000008"><a xlink:href="handle__tokens_8c.html#a4435ee7ff5bdf5ceb09137c12fd49ccd" target="_top" xlink:title="Handles creation of a normal token (words, commands, arguments).">
<polygon fill="white" stroke="#666666" points="504,-19 425,-19 425,0 504,0 504,-19"/>
<text text-anchor="middle" x="464.5" y="-7" font-family="Helvetica,sans-Serif" font-size="10.00">handle_word</text>
</a>
</g>
</g>
<!-- Node1&#45;&gt;Node8 -->
<g id="edge8_Node000001_Node000008" class="edge">
<title>Node1&#45;&gt;Node8</title>
<g id="a_edge8_Node000001_Node000008"><a xlink:title=" ">
<path fill="none" stroke="#63b8ff" d="M559.98,-34.38C541.18,-29.43 519.74,-23.78 502.05,-19.12"/>
<polygon fill="#63b8ff" stroke="#63b8ff" points="559.26,-37.81 569.82,-36.97 561.04,-31.04 559.26,-37.81"/>
</a>
</g>
</g>
<!-- Node3 -->
<g id="Node000003" class="node">
<title>Node3</title>
<g id="a_Node000003"><a xlink:href="tokenize__input_8c.html#a4ec55df7b6b0c546095f50475f610fb1" target="_top" xlink:title="Extracts and builds a single token from the user input.">
<polygon fill="white" stroke="#666666" points="368,-56 286,-56 286,-37 368,-37 368,-56"/>
<text text-anchor="middle" x="327" y="-44" font-family="Helvetica,sans-Serif" font-size="10.00">ft_get_tokens</text>
</a>
</g>
</g>
<!-- Node2&#45;&gt;Node3 -->
<g id="edge2_Node000002_Node000003" class="edge">
<title>Node2&#45;&gt;Node3</title>
<g id="a_edge2_Node000002_Node000003"><a xlink:title=" ">
<path fill="none" stroke="#63b8ff" d="M418.86,-71.31C400.79,-66.38 380.23,-60.76 363.25,-56.12"/>
<polygon fill="#63b8ff" stroke="#63b8ff" points="418.04,-74.71 428.61,-73.97 419.88,-67.96 418.04,-74.71"/>
</a>
</g>
</g>
<!-- Node4 -->
<g id="Node000004" class="node">
<title>Node4</title>
<g id="a_Node000004"><a xlink:href="tokenize__input_8c.html#a4e40c3f57ab2488a2b49f37846785b2e" target="_top" xlink:title="Tokenizes the entire user input string.">
<polygon fill="white" stroke="#666666" points="250,-56 192,-56 192,-37 250,-37 250,-56"/>
<text text-anchor="middle" x="221" y="-44" font-family="Helvetica,sans-Serif" font-size="10.00">tokenize</text>
</a>
</g>
</g>
<!-- Node3&#45;&gt;Node4 -->
<g id="edge3_Node000003_Node000004" class="edge">
<title>Node3&#45;&gt;Node4</title>
<g id="a_edge3_Node000003_Node000004"><a xlink:title=" ">
<path fill="none" stroke="#63b8ff" d="M275.61,-46.5C266.87,-46.5 258.06,-46.5 250.19,-46.5"/>
<polygon fill="#63b8ff" stroke="#63b8ff" points="275.79,-50 285.79,-46.5 275.79,-43 275.79,-50"/>
</a>
</g>
</g>
<!-- Node5 -->
<g id="Node000005" class="node">
<title>Node5</title>
<g id="a_Node000005"><a xlink:href="main__utils_8c.html#ae35edfb8f1339d6f77f53c28eb2a2ed6" target="_top" xlink:title="Handles a complete cycle of input → parsing → execution.">
<polygon fill="white" stroke="#666666" points="156,-56 77,-56 77,-37 156,-37 156,-56"/>
<text text-anchor="middle" x="116.5" y="-44" font-family="Helvetica,sans-Serif" font-size="10.00">ft_main_flow</text>
</a>
</g>
</g>
<!-- Node4&#45;&gt;Node5 -->
<g id="edge4_Node000004_Node000005" class="edge">
<title>Node4&#45;&gt;Node5</title>
<g id="a_edge4_Node000004_Node000005"><a xlink:title=" ">
<path fill="none" stroke="#63b8ff" d="M181.76,-46.5C173.42,-46.5 164.59,-46.5 156.23,-46.5"/>
<polygon fill="#63b8ff" stroke="#63b8ff" points="181.99,-50 191.99,-46.5 181.99,-43 181.99,-50"/>
</a>
</g>
</g>
<!-- Node6 -->
<g id="Node000006" class="node">
<title>Node6</title>
<g id="a_Node000006"><a xlink:href="main_8c.html#ab3862b46d6a8d13c2d884a297e6b05b5" target="_top" xlink:title="Main function of the minishell.">
<polygon fill="white" stroke="#666666" points="41,-56 0,-56 0,-37 41,-37 41,-56"/>
<text text-anchor="middle" x="20.5" y="-44" font-family="Helvetica,sans-Serif" font-size="10.00">main</text>
</a>
</g>
</g>
<!-- Node5&#45;&gt;Node6 -->
<g id="edge5_Node000005_Node000006" class="edge">
<title>Node5&#45;&gt;Node6</title>
<g id="a_edge5_Node000005_Node000006"><a xlink:title=" ">
<path fill="none" stroke="#63b8ff" d="M66.74,-46.5C57.62,-46.5 48.59,-46.5 41.03,-46.5"/>
<polygon fill="#63b8ff" stroke="#63b8ff" points="67,-50 77,-46.5 67,-43 67,-50"/>
</a>
</g>
</g>
<!-- Node7&#45;&gt;Node3 -->
<g id="edge7_Node000007_Node000003" class="edge">
<title>Node7&#45;&gt;Node3</title>
<g id="a_edge7_Node000007_Node000003"><a xlink:title=" ">
<path fill="none" stroke="#63b8ff" d="M393.46,-46.5C384.75,-46.5 376.09,-46.5 368.05,-46.5"/>
<polygon fill="#63b8ff" stroke="#63b8ff" points="393.67,-50 403.67,-46.5 393.67,-43 393.67,-50"/>
</a>
</g>
</g>
<!-- Node8&#45;&gt;Node3 -->
<g id="edge9_Node000008_Node000003" class="edge">
<title>Node8&#45;&gt;Node3</title>
<g id="a_edge9_Node000008_Node000003"><a xlink:title=" ">
<path fill="none" stroke="#63b8ff" d="M418.86,-21.69C400.79,-26.62 380.23,-32.24 363.25,-36.88"/>
<polygon fill="#63b8ff" stroke="#63b8ff" points="419.88,-25.04 428.61,-19.03 418.04,-18.29 419.88,-25.04"/>
</a>
</g>
</g>
</g>
</svg>
