<?xml version="1.0" encoding="UTF-8" standalone="no"?>
<!DOCTYPE svg PUBLIC "-//W3C//DTD SVG 1.1//EN"
 "http://www.w3.org/Graphics/SVG/1.1/DTD/svg11.dtd">
<!-- Generated by graphviz version 2.43.0 (0)
 -->
<!-- Title: ft_check_fd Pages: 1 -->
<svg width="1463pt" height="381pt"
 viewBox="0.00 0.00 1463.00 381.15" xmlns="http://www.w3.org/2000/svg" xmlns:xlink="http://www.w3.org/1999/xlink">
<g id="graph0" class="graph" transform="scale(1 1) rotate(0) translate(4 377.15)">
<title>ft_check_fd</title>
<!-- Node1 -->
<g id="Node000001" class="node">
<title>Node1</title>
<g id="a_Node000001"><a xlink:title="Checks if a file descriptor is valid.">
<polygon fill="#999999" stroke="#666666" points="1455,-234.5 1383,-234.5 1383,-215.5 1455,-215.5 1455,-234.5"/>
<text text-anchor="middle" x="1419" y="-222.5" font-family="Helvetica,sans-Serif" font-size="10.00">ft_check_fd</text>
</a>
</g>
</g>
<!-- Node2 -->
<g id="Node000002" class="node">
<title>Node2</title>
<g id="a_Node000002"><a xlink:href="utils__fd_8c.html#ae6ad7aa33393749b9dc5eac6b61cdf74" target="_top" xlink:title="Returns the correct file descriptor based on append flag and file.">
<polygon fill="white" stroke="#666666" points="1346,-253.5 1254,-253.5 1254,-234.5 1346,-234.5 1346,-253.5"/>
<text text-anchor="middle" x="1300" y="-241.5" font-family="Helvetica,sans-Serif" font-size="10.00">check_value_fd</text>
</a>
</g>
</g>
<!-- Node1&#45;&gt;Node2 -->
<g id="edge1_Node000001_Node000002" class="edge">
<title>Node1&#45;&gt;Node2</title>
<g id="a_edge1_Node000001_Node000002"><a xlink:title=" ">
<path fill="none" stroke="#63b8ff" d="M1372.83,-232.34C1364.05,-233.76 1354.84,-235.26 1346.06,-236.68"/>
<polygon fill="#63b8ff" stroke="#63b8ff" points="1373.59,-235.76 1382.9,-230.7 1372.46,-228.85 1373.59,-235.76"/>
</a>
</g>
</g>
<!-- Node3 -->
<g id="Node000003" class="node">
<title>Node3</title>
<g id="a_Node000003"><a xlink:href="exit_8c.html#af0d4948984577b715a89f18d5864cfa2" target="_top" xlink:title="Builtin function for the exit command.">
<polygon fill="white" stroke="#666666" points="1181,-345.5 1134,-345.5 1134,-326.5 1181,-326.5 1181,-345.5"/>
<text text-anchor="middle" x="1157.5" y="-333.5" font-family="Helvetica,sans-Serif" font-size="10.00">ft_exit</text>
</a>
</g>
</g>
<!-- Node1&#45;&gt;Node3 -->
<g id="edge37_Node000001_Node000003" class="edge">
<title>Node1&#45;&gt;Node3</title>
<g id="a_edge37_Node000001_Node000003"><a xlink:title=" ">
<path fill="none" stroke="#63b8ff" d="M1392.32,-239.72C1378.99,-247.11 1362.34,-255.96 1347,-263 1288.48,-289.87 1217,-315.73 1181.21,-328.22"/>
<polygon fill="#63b8ff" stroke="#63b8ff" points="1394.35,-242.59 1401.36,-234.65 1390.93,-236.49 1394.35,-242.59"/>
</a>
</g>
</g>
<!-- Node13 -->
<g id="Node000013" class="node">
<title>Node13</title>
<g id="a_Node000013"><a xlink:href="utils__fd_8c.html#a184b4852a6ca5544cc056e7a8e20e4ad" target="_top" xlink:title="Handles opening and validating file descriptors for command input/output.">
<polygon fill="white" stroke="#666666" points="1186,-215.5 1129,-215.5 1129,-196.5 1186,-196.5 1186,-215.5"/>
<text text-anchor="middle" x="1157.5" y="-203.5" font-family="Helvetica,sans-Serif" font-size="10.00">ft_for_fd</text>
</a>
</g>
</g>
<!-- Node1&#45;&gt;Node13 -->
<g id="edge38_Node000001_Node000013" class="edge">
<title>Node1&#45;&gt;Node13</title>
<g id="a_edge38_Node000001_Node000013"><a xlink:title=" ">
<path fill="none" stroke="#63b8ff" d="M1372.44,-221.66C1318.57,-217.72 1230.64,-211.28 1186.15,-208.02"/>
<polygon fill="#63b8ff" stroke="#63b8ff" points="1372.5,-225.18 1382.73,-222.42 1373.01,-218.2 1372.5,-225.18"/>
</a>
</g>
</g>
<!-- Node23 -->
<g id="Node000023" class="node">
<title>Node23</title>
<g id="a_Node000023"><a xlink:href="handle__heredoc_8c.html#a922eae1c49290306f7cf811bf65d9ed1" target="_top" xlink:title="Handles the entire input process for a here&#45;document.">
<polygon fill="white" stroke="#666666" points="1347,-101.5 1253,-101.5 1253,-82.5 1347,-82.5 1347,-101.5"/>
<text text-anchor="middle" x="1300" y="-89.5" font-family="Helvetica,sans-Serif" font-size="10.00">handle_heredoc</text>
</a>
</g>
</g>
<!-- Node1&#45;&gt;Node23 -->
<g id="edge39_Node000001_Node000023" class="edge">
<title>Node1&#45;&gt;Node23</title>
<g id="a_edge39_Node000001_Node000023"><a xlink:title=" ">
<path fill="none" stroke="#63b8ff" d="M1402.67,-207.58C1377.78,-179.28 1329.36,-124.24 1309.65,-101.84"/>
<polygon fill="#63b8ff" stroke="#63b8ff" points="1400.35,-210.24 1409.59,-215.43 1405.61,-205.61 1400.35,-210.24"/>
</a>
</g>
</g>
<!-- Node2&#45;&gt;Node3 -->
<g id="edge2_Node000002_Node000003" class="edge">
<title>Node2&#45;&gt;Node3</title>
<g id="a_edge2_Node000002_Node000003"><a xlink:title=" ">
<path fill="none" stroke="#63b8ff" d="M1275.5,-259.39C1246.29,-278.51 1197.35,-310.56 1173.07,-326.46"/>
<polygon fill="#63b8ff" stroke="#63b8ff" points="1277.78,-262.08 1284.23,-253.67 1273.95,-256.22 1277.78,-262.08"/>
</a>
</g>
</g>
<!-- Node2&#45;&gt;Node13 -->
<g id="edge13_Node000002_Node000013" class="edge">
<title>Node2&#45;&gt;Node13</title>
<g id="a_edge13_Node000002_Node000013"><a xlink:title=" ">
<path fill="none" stroke="#63b8ff" d="M1253.68,-231.74C1231.55,-225.76 1205.62,-218.74 1186.42,-213.55"/>
<polygon fill="#63b8ff" stroke="#63b8ff" points="1252.98,-235.18 1263.55,-234.41 1254.81,-228.42 1252.98,-235.18"/>
</a>
</g>
</g>
<!-- Node4 -->
<g id="Node000004" class="node">
<title>Node4</title>
<g id="a_Node000004"><a xlink:href="cmd__execution_8c.html#a5ce7231f800cbacea6350cc1a32a59bd" target="_top" xlink:title="Executes a list of non&#45;pipelined commands.">
<polygon fill="white" stroke="#666666" points="744,-182.5 672,-182.5 672,-163.5 744,-163.5 744,-182.5"/>
<text text-anchor="middle" x="708" y="-170.5" font-family="Helvetica,sans-Serif" font-size="10.00">ft_exe_cmd</text>
</a>
</g>
</g>
<!-- Node3&#45;&gt;Node4 -->
<g id="edge3_Node000003_Node000004" class="edge">
<title>Node3&#45;&gt;Node4</title>
<g id="a_edge3_Node000003_Node000004"><a xlink:title=" ">
<path fill="none" stroke="#63b8ff" d="M1124.17,-346.55C1053.34,-367.43 883.35,-404.94 790,-319 755.56,-287.29 778.72,-259.76 754,-220 744.93,-205.42 730.77,-191.58 720.76,-182.75"/>
<polygon fill="#63b8ff" stroke="#63b8ff" points="1125.32,-349.86 1133.88,-343.61 1123.29,-343.16 1125.32,-349.86"/>
</a>
</g>
</g>
<!-- Node8 -->
<g id="Node000008" class="node">
<title>Node8</title>
<g id="a_Node000008"><a xlink:href="cmd__execution_8c.html#a50e59fa2e4621831a415d4038f697c56" target="_top" xlink:title="Executes a command within a pipeline.">
<polygon fill="white" stroke="#666666" points="892.5,-253.5 794.5,-253.5 794.5,-234.5 892.5,-234.5 892.5,-253.5"/>
<text text-anchor="middle" x="843.5" y="-241.5" font-family="Helvetica,sans-Serif" font-size="10.00">ft_exe_pipe_cmd</text>
</a>
</g>
</g>
<!-- Node3&#45;&gt;Node8 -->
<g id="edge7_Node000003_Node000008" class="edge">
<title>Node3&#45;&gt;Node8</title>
<g id="a_edge7_Node000003_Node000008"><a xlink:title=" ">
<path fill="none" stroke="#63b8ff" d="M1123.99,-343.65C1079.03,-352.58 996.26,-362.93 933,-336 892.83,-318.9 862.07,-273.64 850.03,-253.68"/>
<polygon fill="#63b8ff" stroke="#63b8ff" points="1124.7,-347.08 1133.78,-341.61 1123.28,-340.23 1124.7,-347.08"/>
</a>
</g>
</g>
<!-- Node5 -->
<g id="Node000005" class="node">
<title>Node5</title>
<g id="a_Node000005"><a xlink:href="main__utils_8c.html#a7e8f478480ab6ab34d6f5eadaf6acdb9" target="_top" xlink:title="Handles parsing and execution of tokens.">
<polygon fill="white" stroke="#666666" points="273,-182.5 192,-182.5 192,-163.5 273,-163.5 273,-182.5"/>
<text text-anchor="middle" x="232.5" y="-170.5" font-family="Helvetica,sans-Serif" font-size="10.00">ft_token_flow</text>
</a>
</g>
</g>
<!-- Node4&#45;&gt;Node5 -->
<g id="edge4_Node000004_Node000005" class="edge">
<title>Node4&#45;&gt;Node5</title>
<g id="a_edge4_Node000004_Node000005"><a xlink:title=" ">
<path fill="none" stroke="#63b8ff" d="M661.65,-173C569.27,-173 360.66,-173 273.23,-173"/>
<polygon fill="#63b8ff" stroke="#63b8ff" points="661.8,-176.5 671.8,-173 661.8,-169.5 661.8,-176.5"/>
</a>
</g>
</g>
<!-- Node6 -->
<g id="Node000006" class="node">
<title>Node6</title>
<g id="a_Node000006"><a xlink:href="main__utils_8c.html#ae35edfb8f1339d6f77f53c28eb2a2ed6" target="_top" xlink:title="Handles a complete cycle of input → parsing → execution.">
<polygon fill="white" stroke="#666666" points="156,-182.5 77,-182.5 77,-163.5 156,-163.5 156,-182.5"/>
<text text-anchor="middle" x="116.5" y="-170.5" font-family="Helvetica,sans-Serif" font-size="10.00">ft_main_flow</text>
</a>
</g>
</g>
<!-- Node5&#45;&gt;Node6 -->
<g id="edge5_Node000005_Node000006" class="edge">
<title>Node5&#45;&gt;Node6</title>
<g id="a_edge5_Node000005_Node000006"><a xlink:title=" ">
<path fill="none" stroke="#63b8ff" d="M181.7,-173C173.16,-173 164.4,-173 156.21,-173"/>
<polygon fill="#63b8ff" stroke="#63b8ff" points="181.95,-176.5 191.95,-173 181.95,-169.5 181.95,-176.5"/>
</a>
</g>
</g>
<!-- Node7 -->
<g id="Node000007" class="node">
<title>Node7</title>
<g id="a_Node000007"><a xlink:href="main_8c.html#ab3862b46d6a8d13c2d884a297e6b05b5" target="_top" xlink:title="Main function of the minishell.">
<polygon fill="white" stroke="#666666" points="41,-182.5 0,-182.5 0,-163.5 41,-163.5 41,-182.5"/>
<text text-anchor="middle" x="20.5" y="-170.5" font-family="Helvetica,sans-Serif" font-size="10.00">main</text>
</a>
</g>
</g>
<!-- Node6&#45;&gt;Node7 -->
<g id="edge6_Node000006_Node000007" class="edge">
<title>Node6&#45;&gt;Node7</title>
<g id="a_edge6_Node000006_Node000007"><a xlink:title=" ">
<path fill="none" stroke="#63b8ff" d="M66.74,-173C57.62,-173 48.59,-173 41.03,-173"/>
<polygon fill="#63b8ff" stroke="#63b8ff" points="67,-176.5 77,-173 67,-169.5 67,-176.5"/>
</a>
</g>
</g>
<!-- Node9 -->
<g id="Node000009" class="node">
<title>Node9</title>
<g id="a_Node000009"><a xlink:href="pipes_8c.html#a36a2d91a0566ad253efe3833b05e69d1" target="_top" xlink:title="Routine executed by the child process for each command in the pipe.">
<polygon fill="white" stroke="#666666" points="754,-248.5 662,-248.5 662,-229.5 754,-229.5 754,-248.5"/>
<text text-anchor="middle" x="708" y="-236.5" font-family="Helvetica,sans-Serif" font-size="10.00">ft_child_routine</text>
</a>
</g>
</g>
<!-- Node8&#45;&gt;Node9 -->
<g id="edge8_Node000008_Node000009" class="edge">
<title>Node8&#45;&gt;Node9</title>
<g id="a_edge8_Node000008_Node000009"><a xlink:title=" ">
<path fill="none" stroke="#63b8ff" d="M784.28,-241.82C774.14,-241.44 763.73,-241.05 754.01,-240.69"/>
<polygon fill="#63b8ff" stroke="#63b8ff" points="784.18,-245.32 794.3,-242.19 784.44,-238.32 784.18,-245.32"/>
</a>
</g>
</g>
<!-- Node10 -->
<g id="Node000010" class="node">
<title>Node10</title>
<g id="a_Node000010"><a xlink:href="pipes_8c.html#aa17e847997e7266a0a111ab3572756bb" target="_top" xlink:title="Manages pipe creation and fork to execute the current command.">
<polygon fill="white" stroke="#666666" points="626,-239.5 537,-239.5 537,-220.5 626,-220.5 626,-239.5"/>
<text text-anchor="middle" x="581.5" y="-227.5" font-family="Helvetica,sans-Serif" font-size="10.00">ft_pipe_routine</text>
</a>
</g>
</g>
<!-- Node9&#45;&gt;Node10 -->
<g id="edge9_Node000009_Node000010" class="edge">
<title>Node9&#45;&gt;Node10</title>
<g id="a_edge9_Node000009_Node000010"><a xlink:title=" ">
<path fill="none" stroke="#63b8ff" d="M651.52,-234.99C643.08,-234.38 634.46,-233.76 626.31,-233.17"/>
<polygon fill="#63b8ff" stroke="#63b8ff" points="651.47,-238.5 661.7,-235.73 651.98,-231.51 651.47,-238.5"/>
</a>
</g>
</g>
<!-- Node11 -->
<g id="Node000011" class="node">
<title>Node11</title>
<g id="a_Node000011"><a xlink:href="pipes_8c.html#a7a3b0de1a88a243da741f748881e14f0" target="_top" xlink:title="Executes a list of commands connected via pipes.">
<polygon fill="white" stroke="#666666" points="501,-234.5 420,-234.5 420,-215.5 501,-215.5 501,-234.5"/>
<text text-anchor="middle" x="460.5" y="-222.5" font-family="Helvetica,sans-Serif" font-size="10.00">execute_pipe</text>
</a>
</g>
</g>
<!-- Node10&#45;&gt;Node11 -->
<g id="edge10_Node000010_Node000011" class="edge">
<title>Node10&#45;&gt;Node11</title>
<g id="a_edge10_Node000010_Node000011"><a xlink:title=" ">
<path fill="none" stroke="#63b8ff" d="M526.85,-227.75C518.22,-227.38 509.42,-227.01 501.19,-226.67"/>
<polygon fill="#63b8ff" stroke="#63b8ff" points="526.73,-231.24 536.86,-228.17 527.02,-224.25 526.73,-231.24"/>
</a>
</g>
</g>
<!-- Node12 -->
<g id="Node000012" class="node">
<title>Node12</title>
<g id="a_Node000012"><a xlink:href="main__utils_8c.html#ad0183732909ae6e7c52e7b086c2e5642" target="_top" xlink:title="Manages the execution flow of commands with pipes.">
<polygon fill="white" stroke="#666666" points="384,-225.5 309,-225.5 309,-206.5 384,-206.5 384,-225.5"/>
<text text-anchor="middle" x="346.5" y="-213.5" font-family="Helvetica,sans-Serif" font-size="10.00">ft_pipe_flow</text>
</a>
</g>
</g>
<!-- Node11&#45;&gt;Node12 -->
<g id="edge11_Node000011_Node000012" class="edge">
<title>Node11&#45;&gt;Node12</title>
<g id="a_edge11_Node000011_Node000012"><a xlink:title=" ">
<path fill="none" stroke="#63b8ff" d="M409.47,-220.98C400.96,-220.3 392.26,-219.6 384.18,-218.95"/>
<polygon fill="#63b8ff" stroke="#63b8ff" points="409.45,-224.49 419.7,-221.8 410.01,-217.51 409.45,-224.49"/>
</a>
</g>
</g>
<!-- Node12&#45;&gt;Node5 -->
<g id="edge12_Node000012_Node000005" class="edge">
<title>Node12&#45;&gt;Node5</title>
<g id="a_edge12_Node000012_Node000005"><a xlink:title=" ">
<path fill="none" stroke="#63b8ff" d="M311.03,-202.76C293.98,-196.22 273.79,-188.47 258.29,-182.52"/>
<polygon fill="#63b8ff" stroke="#63b8ff" points="310.05,-206.14 320.64,-206.46 312.56,-199.61 310.05,-206.14"/>
</a>
</g>
</g>
<!-- Node14 -->
<g id="Node000014" class="node">
<title>Node14</title>
<g id="a_Node000014"><a xlink:href="ft__cd_8c.html#af438919e376d2d0df3830120118ea526" target="_top" xlink:title="Builtin function for the cd (change directory) command.">
<polygon fill="white" stroke="#666666" points="1017.5,-215.5 977.5,-215.5 977.5,-196.5 1017.5,-196.5 1017.5,-215.5"/>
<text text-anchor="middle" x="997.5" y="-203.5" font-family="Helvetica,sans-Serif" font-size="10.00">ft_cd</text>
</a>
</g>
</g>
<!-- Node13&#45;&gt;Node14 -->
<g id="edge14_Node000013_Node000014" class="edge">
<title>Node13&#45;&gt;Node14</title>
<g id="a_edge14_Node000013_Node000014"><a xlink:title=" ">
<path fill="none" stroke="#63b8ff" d="M1118.72,-206C1086.92,-206 1042.75,-206 1017.76,-206"/>
<polygon fill="#63b8ff" stroke="#63b8ff" points="1118.98,-209.5 1128.98,-206 1118.98,-202.5 1118.98,-209.5"/>
</a>
</g>
</g>
<!-- Node15 -->
<g id="Node000015" class="node">
<title>Node15</title>
<g id="a_Node000015"><a xlink:href="system__commands_8c.html#a6dfb68d4eb4b73539a6d36f36d23d093" target="_top" xlink:title="Function executed by the child process to run a command.">
<polygon fill="white" stroke="#666666" points="1023.5,-67.5 971.5,-67.5 971.5,-48.5 1023.5,-48.5 1023.5,-67.5"/>
<text text-anchor="middle" x="997.5" y="-55.5" font-family="Helvetica,sans-Serif" font-size="10.00">ft_child</text>
</a>
</g>
</g>
<!-- Node13&#45;&gt;Node15 -->
<g id="edge17_Node000013_Node000015" class="edge">
<title>Node13&#45;&gt;Node15</title>
<g id="a_edge17_Node000013_Node000015"><a xlink:title=" ">
<path fill="none" stroke="#63b8ff" d="M1147.95,-187.25C1134.03,-158.85 1103.78,-105.15 1062,-76 1050.72,-68.13 1036.07,-63.68 1023.68,-61.18"/>
<polygon fill="#63b8ff" stroke="#63b8ff" points="1144.88,-188.94 1152.33,-196.47 1151.2,-185.94 1144.88,-188.94"/>
</a>
</g>
</g>
<!-- Node17 -->
<g id="Node000017" class="node">
<title>Node17</title>
<g id="a_Node000017"><a xlink:href="ft__echo_8c.html#a177f72f5eedf5cdf35c113ae47966c4b" target="_top" xlink:title="Builtin function for the echo command.">
<polygon fill="white" stroke="#666666" points="1023.5,-141.5 971.5,-141.5 971.5,-122.5 1023.5,-122.5 1023.5,-141.5"/>
<text text-anchor="middle" x="997.5" y="-129.5" font-family="Helvetica,sans-Serif" font-size="10.00">ft_echo</text>
</a>
</g>
</g>
<!-- Node13&#45;&gt;Node17 -->
<g id="edge20_Node000013_Node000017" class="edge">
<title>Node13&#45;&gt;Node17</title>
<g id="a_edge20_Node000013_Node000017"><a xlink:title=" ">
<path fill="none" stroke="#63b8ff" d="M1134.66,-190.84C1116.04,-178.46 1088.2,-161.25 1062,-150 1049.79,-144.76 1035.6,-140.57 1023.74,-137.56"/>
<polygon fill="#63b8ff" stroke="#63b8ff" points="1132.76,-193.78 1143.01,-196.47 1136.68,-187.98 1132.76,-193.78"/>
</a>
</g>
</g>
<!-- Node18 -->
<g id="Node000018" class="node">
<title>Node18</title>
<g id="a_Node000018"><a xlink:href="env_8c.html#a6a15443c9c0b34afef3d21f19e385995" target="_top" xlink:title="Builtin function for the env command.">
<polygon fill="white" stroke="#666666" points="1021,-104.5 974,-104.5 974,-85.5 1021,-85.5 1021,-104.5"/>
<text text-anchor="middle" x="997.5" y="-92.5" font-family="Helvetica,sans-Serif" font-size="10.00">ft_env</text>
</a>
</g>
</g>
<!-- Node13&#45;&gt;Node18 -->
<g id="edge23_Node000013_Node000018" class="edge">
<title>Node13&#45;&gt;Node18</title>
<g id="a_edge23_Node000013_Node000018"><a xlink:title=" ">
<path fill="none" stroke="#63b8ff" d="M1143.05,-188.13C1126.31,-167.13 1095.78,-132.65 1062,-113 1049.42,-105.68 1033.69,-101.2 1021.04,-98.53"/>
<polygon fill="#63b8ff" stroke="#63b8ff" points="1140.45,-190.49 1149.35,-196.23 1145.97,-186.19 1140.45,-190.49"/>
</a>
</g>
</g>
<!-- Node19 -->
<g id="Node000019" class="node">
<title>Node19</title>
<g id="a_Node000019"><a xlink:href="pipes_8c.html#ac1cb08fe66e7823c939af4fab981e93c" target="_top" xlink:title="Executes a system command inside a pipe.">
<polygon fill="white" stroke="#666666" points="1062,-252.5 933,-252.5 933,-233.5 1062,-233.5 1062,-252.5"/>
<text text-anchor="middle" x="997.5" y="-240.5" font-family="Helvetica,sans-Serif" font-size="10.00">ft_exe_syscmd_in_pipe</text>
</a>
</g>
</g>
<!-- Node13&#45;&gt;Node19 -->
<g id="edge26_Node000013_Node000019" class="edge">
<title>Node13&#45;&gt;Node19</title>
<g id="a_edge26_Node000013_Node000019"><a xlink:title=" ">
<path fill="none" stroke="#63b8ff" d="M1119.18,-214.74C1095.18,-220.36 1064,-227.66 1039.34,-233.44"/>
<polygon fill="#63b8ff" stroke="#63b8ff" points="1120.04,-218.13 1128.98,-212.44 1118.44,-211.32 1120.04,-218.13"/>
</a>
</g>
</g>
<!-- Node20 -->
<g id="Node000020" class="node">
<title>Node20</title>
<g id="a_Node000020"><a xlink:href="export_8c.html#a2b0f2ba2e9188c7b4f6ca5a44c1d0c8e" target="_top" xlink:title="Builtin function for the export command.">
<polygon fill="white" stroke="#666666" points="1027.5,-326.5 967.5,-326.5 967.5,-307.5 1027.5,-307.5 1027.5,-326.5"/>
<text text-anchor="middle" x="997.5" y="-314.5" font-family="Helvetica,sans-Serif" font-size="10.00">ft_export</text>
</a>
</g>
</g>
<!-- Node13&#45;&gt;Node20 -->
<g id="edge28_Node000013_Node000020" class="edge">
<title>Node13&#45;&gt;Node20</title>
<g id="a_edge28_Node000013_Node000020"><a xlink:title=" ">
<path fill="none" stroke="#63b8ff" d="M1143.05,-223.87C1126.31,-244.87 1095.78,-279.35 1062,-299 1051.5,-305.11 1038.81,-309.24 1027.54,-311.99"/>
<polygon fill="#63b8ff" stroke="#63b8ff" points="1145.97,-225.81 1149.35,-215.77 1140.45,-221.51 1145.97,-225.81"/>
</a>
</g>
</g>
<!-- Node21 -->
<g id="Node000021" class="node">
<title>Node21</title>
<g id="a_Node000021"><a xlink:href="pwd_8c.html#a445dbcbb87f52cdbb07a078f21b198c4" target="_top" xlink:title="Builtin function for the pwd (print working directory) command.">
<polygon fill="white" stroke="#666666" points="1022,-178.5 973,-178.5 973,-159.5 1022,-159.5 1022,-178.5"/>
<text text-anchor="middle" x="997.5" y="-166.5" font-family="Helvetica,sans-Serif" font-size="10.00">ft_pwd</text>
</a>
</g>
</g>
<!-- Node13&#45;&gt;Node21 -->
<g id="edge31_Node000013_Node000021" class="edge">
<title>Node13&#45;&gt;Node21</title>
<g id="a_edge31_Node000013_Node000021"><a xlink:title=" ">
<path fill="none" stroke="#63b8ff" d="M1118.86,-197.19C1088.82,-190.15 1047.67,-180.51 1022.1,-174.53"/>
<polygon fill="#63b8ff" stroke="#63b8ff" points="1118.44,-200.68 1128.98,-199.56 1120.04,-193.87 1118.44,-200.68"/>
</a>
</g>
</g>
<!-- Node22 -->
<g id="Node000022" class="node">
<title>Node22</title>
<g id="a_Node000022"><a xlink:href="unset_8c.html#afc37f76bba8f618bcf9eaafa7ee23618" target="_top" xlink:title="Builtin function for the unset command.">
<polygon fill="white" stroke="#666666" points="1025.5,-289.5 969.5,-289.5 969.5,-270.5 1025.5,-270.5 1025.5,-289.5"/>
<text text-anchor="middle" x="997.5" y="-277.5" font-family="Helvetica,sans-Serif" font-size="10.00">ft_unset</text>
</a>
</g>
</g>
<!-- Node13&#45;&gt;Node22 -->
<g id="edge34_Node000013_Node000022" class="edge">
<title>Node13&#45;&gt;Node22</title>
<g id="a_edge34_Node000013_Node000022"><a xlink:title=" ">
<path fill="none" stroke="#63b8ff" d="M1134.66,-221.16C1116.04,-233.54 1088.2,-250.75 1062,-262 1050.42,-266.97 1037.07,-271 1025.6,-273.97"/>
<polygon fill="#63b8ff" stroke="#63b8ff" points="1136.68,-224.02 1143.01,-215.53 1132.76,-218.22 1136.68,-224.02"/>
</a>
</g>
</g>
<!-- Node14&#45;&gt;Node4 -->
<g id="edge15_Node000014_Node000004" class="edge">
<title>Node14&#45;&gt;Node4</title>
<g id="a_edge15_Node000014_Node000004"><a xlink:title=" ">
<path fill="none" stroke="#63b8ff" d="M967.25,-203.75C927.18,-200.53 852.99,-194.1 790,-186 774.88,-184.06 758.25,-181.47 744.02,-179.11"/>
<polygon fill="#63b8ff" stroke="#63b8ff" points="967.14,-207.25 977.38,-204.55 967.69,-200.27 967.14,-207.25"/>
</a>
</g>
</g>
<!-- Node14&#45;&gt;Node8 -->
<g id="edge16_Node000014_Node000008" class="edge">
<title>Node14&#45;&gt;Node8</title>
<g id="a_edge16_Node000014_Node000008"><a xlink:title=" ">
<path fill="none" stroke="#63b8ff" d="M967.28,-213.31C943.17,-219.33 908.77,-227.93 882.51,-234.5"/>
<polygon fill="#63b8ff" stroke="#63b8ff" points="968.4,-216.63 977.25,-210.81 966.7,-209.84 968.4,-216.63"/>
</a>
</g>
</g>
<!-- Node16 -->
<g id="Node000016" class="node">
<title>Node16</title>
<g id="a_Node000016"><a xlink:href="system__commands_8c.html#a6d8647dce4277e848c613bd0cc3df5bb" target="_top" xlink:title="Executes a system command by creating a child process.">
<polygon fill="white" stroke="#666666" points="888,-63.5 799,-63.5 799,-44.5 888,-44.5 888,-63.5"/>
<text text-anchor="middle" x="843.5" y="-51.5" font-family="Helvetica,sans-Serif" font-size="10.00">ft_exe_syscmd</text>
</a>
</g>
</g>
<!-- Node15&#45;&gt;Node16 -->
<g id="edge18_Node000015_Node000016" class="edge">
<title>Node15&#45;&gt;Node16</title>
<g id="a_edge18_Node000015_Node000016"><a xlink:title=" ">
<path fill="none" stroke="#63b8ff" d="M961.26,-57.07C939.45,-56.5 911.3,-55.76 888.1,-55.15"/>
<polygon fill="#63b8ff" stroke="#63b8ff" points="961.31,-60.58 971.4,-57.34 961.5,-53.58 961.31,-60.58"/>
</a>
</g>
</g>
<!-- Node16&#45;&gt;Node4 -->
<g id="edge19_Node000016_Node000004" class="edge">
<title>Node16&#45;&gt;Node4</title>
<g id="a_edge19_Node000016_Node000004"><a xlink:title=" ">
<path fill="none" stroke="#63b8ff" d="M806.15,-68.08C800.5,-70.97 794.92,-74.29 790,-78 756.44,-103.34 727.23,-144.83 715.05,-163.44"/>
<polygon fill="#63b8ff" stroke="#63b8ff" points="808.06,-71.05 815.61,-63.61 805.07,-64.72 808.06,-71.05"/>
</a>
</g>
</g>
<!-- Node17&#45;&gt;Node4 -->
<g id="edge21_Node000017_Node000004" class="edge">
<title>Node17&#45;&gt;Node4</title>
<g id="a_edge21_Node000017_Node000004"><a xlink:title=" ">
<path fill="none" stroke="#63b8ff" d="M961.49,-136.99C906.3,-144.86 799.69,-160.07 744.32,-167.96"/>
<polygon fill="#63b8ff" stroke="#63b8ff" points="962.08,-140.44 971.49,-135.57 961.1,-133.51 962.08,-140.44"/>
</a>
</g>
</g>
<!-- Node17&#45;&gt;Node8 -->
<g id="edge22_Node000017_Node000008" class="edge">
<title>Node17&#45;&gt;Node8</title>
<g id="a_edge22_Node000017_Node000008"><a xlink:title=" ">
<path fill="none" stroke="#63b8ff" d="M961.59,-138.29C951.89,-140.97 941.65,-144.75 933,-150 895.64,-172.69 863.85,-215.35 850.82,-234.4"/>
<polygon fill="#63b8ff" stroke="#63b8ff" points="962.55,-141.66 971.42,-135.87 960.87,-134.86 962.55,-141.66"/>
</a>
</g>
</g>
<!-- Node18&#45;&gt;Node4 -->
<g id="edge24_Node000018_Node000004" class="edge">
<title>Node18&#45;&gt;Node4</title>
<g id="a_edge24_Node000018_Node000004"><a xlink:title=" ">
<path fill="none" stroke="#63b8ff" d="M963.99,-101.23C923.03,-109.39 850.64,-124.8 790,-143 770.32,-148.91 748.51,-157.08 732.48,-163.41"/>
<polygon fill="#63b8ff" stroke="#63b8ff" points="964.81,-104.64 973.95,-99.27 963.46,-97.77 964.81,-104.64"/>
</a>
</g>
</g>
<!-- Node18&#45;&gt;Node8 -->
<g id="edge25_Node000018_Node000008" class="edge">
<title>Node18&#45;&gt;Node8</title>
<g id="a_edge25_Node000018_Node000008"><a xlink:title=" ">
<path fill="none" stroke="#63b8ff" d="M964.11,-99.6C953.48,-102.26 942.07,-106.43 933,-113 887.42,-145.99 858.09,-210.15 848.21,-234.4"/>
<polygon fill="#63b8ff" stroke="#63b8ff" points="964.92,-103.01 973.96,-97.5 963.45,-96.16 964.92,-103.01"/>
</a>
</g>
</g>
<!-- Node19&#45;&gt;Node8 -->
<g id="edge27_Node000019_Node000008" class="edge">
<title>Node19&#45;&gt;Node8</title>
<g id="a_edge27_Node000019_Node000008"><a xlink:title=" ">
<path fill="none" stroke="#63b8ff" d="M922.72,-243.49C912.47,-243.55 902.17,-243.62 892.56,-243.68"/>
<polygon fill="#63b8ff" stroke="#63b8ff" points="922.94,-246.98 932.92,-243.42 922.9,-239.98 922.94,-246.98"/>
</a>
</g>
</g>
<!-- Node20&#45;&gt;Node4 -->
<g id="edge29_Node000020_Node000004" class="edge">
<title>Node20&#45;&gt;Node4</title>
<g id="a_edge29_Node000020_Node000004"><a xlink:title=" ">
<path fill="none" stroke="#63b8ff" d="M956.99,-321.79C912.34,-325.06 839.47,-323.75 790,-289 761.7,-269.12 774.16,-248.11 754,-220 743.86,-205.86 729.63,-191.73 719.91,-182.71"/>
<polygon fill="#63b8ff" stroke="#63b8ff" points="957.49,-325.26 967.15,-320.92 956.89,-318.28 957.49,-325.26"/>
</a>
</g>
</g>
<!-- Node20&#45;&gt;Node8 -->
<g id="edge30_Node000020_Node000008" class="edge">
<title>Node20&#45;&gt;Node8</title>
<g id="a_edge30_Node000020_Node000008"><a xlink:title=" ">
<path fill="none" stroke="#63b8ff" d="M957.59,-307.83C949.32,-305.37 940.75,-302.42 933,-299 904.38,-286.35 874.02,-265.68 857.35,-253.61"/>
<polygon fill="#63b8ff" stroke="#63b8ff" points="956.88,-311.27 967.45,-310.59 958.77,-304.53 956.88,-311.27"/>
</a>
</g>
</g>
<!-- Node21&#45;&gt;Node4 -->
<g id="edge32_Node000021_Node000004" class="edge">
<title>Node21&#45;&gt;Node4</title>
<g id="a_edge32_Node000021_Node000004"><a xlink:title=" ">
<path fill="none" stroke="#63b8ff" d="M962.75,-169.47C907.94,-170.23 800.1,-171.73 744.31,-172.51"/>
<polygon fill="#63b8ff" stroke="#63b8ff" points="963.02,-172.97 972.97,-169.33 962.92,-165.97 963.02,-172.97"/>
</a>
</g>
</g>
<!-- Node21&#45;&gt;Node8 -->
<g id="edge33_Node000021_Node000008" class="edge">
<title>Node21&#45;&gt;Node8</title>
<g id="a_edge33_Node000021_Node000008"><a xlink:title=" ">
<path fill="none" stroke="#63b8ff" d="M963.06,-176.49C953.17,-179.23 942.46,-182.73 933,-187 903.85,-200.16 873.2,-221.97 856.72,-234.45"/>
<polygon fill="#63b8ff" stroke="#63b8ff" points="964.19,-179.81 972.99,-173.9 962.43,-173.03 964.19,-179.81"/>
</a>
</g>
</g>
<!-- Node22&#45;&gt;Node4 -->
<g id="edge35_Node000022_Node000004" class="edge">
<title>Node22&#45;&gt;Node4</title>
<g id="a_edge35_Node000022_Node000004"><a xlink:title=" ">
<path fill="none" stroke="#63b8ff" d="M959.2,-285.2C915.94,-289.43 843.7,-290.82 790,-263 767.87,-251.54 770.63,-238.57 754,-220 742.09,-206.7 727.74,-191.92 718.5,-182.54"/>
<polygon fill="#63b8ff" stroke="#63b8ff" points="959.72,-288.66 969.28,-284.11 958.97,-281.7 959.72,-288.66"/>
</a>
</g>
</g>
<!-- Node22&#45;&gt;Node8 -->
<g id="edge36_Node000022_Node000008" class="edge">
<title>Node22&#45;&gt;Node8</title>
<g id="a_edge36_Node000022_Node000008"><a xlink:title=" ">
<path fill="none" stroke="#63b8ff" d="M959.44,-271.22C936.87,-265.88 908.03,-259.05 884.88,-253.56"/>
<polygon fill="#63b8ff" stroke="#63b8ff" points="958.79,-274.66 969.33,-273.56 960.4,-267.85 958.79,-274.66"/>
</a>
</g>
</g>
<!-- Node24 -->
<g id="Node000024" class="node">
<title>Node24</title>
<g id="a_Node000024"><a xlink:href="handle__redirections_8c.html#a2834314002a1f4ef4af82f95159b0a34" target="_top" xlink:title="Handles input redirection from file or heredoc.">
<polygon fill="white" stroke="#666666" points="1217,-62.5 1098,-62.5 1098,-43.5 1217,-43.5 1217,-62.5"/>
<text text-anchor="middle" x="1157.5" y="-50.5" font-family="Helvetica,sans-Serif" font-size="10.00">ft_handle_infile_redir</text>
</a>
</g>
</g>
<!-- Node23&#45;&gt;Node24 -->
<g id="edge40_Node000023_Node000024" class="edge">
<title>Node23&#45;&gt;Node24</title>
<g id="a_edge40_Node000023_Node000024"><a xlink:title=" ">
<path fill="none" stroke="#63b8ff" d="M1254.83,-79.74C1234.88,-74.2 1211.65,-67.75 1193,-62.58"/>
<polygon fill="#63b8ff" stroke="#63b8ff" points="1254.06,-83.16 1264.63,-82.46 1255.93,-76.41 1254.06,-83.16"/>
</a>
</g>
</g>
<!-- Node25 -->
<g id="Node000025" class="node">
<title>Node25</title>
<g id="a_Node000025"><a xlink:href="handle__redirections_8c.html#aa4509a43f47ed881eb2d81fb81458466" target="_top" xlink:title="Handles redirections without an associated command.">
<polygon fill="white" stroke="#666666" points="1054,-30 941,-30 941,0 1054,0 1054,-30"/>
<text text-anchor="start" x="949" y="-18" font-family="Helvetica,sans-Serif" font-size="10.00">handle_redirection</text>
<text text-anchor="middle" x="997.5" y="-7" font-family="Helvetica,sans-Serif" font-size="10.00">_without_command</text>
</a>
</g>
</g>
<!-- Node24&#45;&gt;Node25 -->
<g id="edge41_Node000024_Node000025" class="edge">
<title>Node24&#45;&gt;Node25</title>
<g id="a_edge41_Node000024_Node000025"><a xlink:title=" ">
<path fill="none" stroke="#63b8ff" d="M1106.55,-40.99C1089.89,-36.98 1071.23,-32.49 1054.17,-28.39"/>
<polygon fill="#63b8ff" stroke="#63b8ff" points="1106.09,-44.48 1116.63,-43.41 1107.73,-37.67 1106.09,-44.48"/>
</a>
</g>
</g>
<!-- Node26 -->
<g id="Node000026" class="node">
<title>Node26</title>
<g id="a_Node000026"><a xlink:href="handle__redirections_8c.html#ab2c37fefb1291d3f8d0dc91e8c096334" target="_top" xlink:title="Handles redirection associated with a command.">
<polygon fill="white" stroke="#666666" points="897,-25.5 790,-25.5 790,-6.5 897,-6.5 897,-25.5"/>
<text text-anchor="middle" x="843.5" y="-13.5" font-family="Helvetica,sans-Serif" font-size="10.00">handle_redirection</text>
</a>
</g>
</g>
<!-- Node25&#45;&gt;Node26 -->
<g id="edge42_Node000025_Node000026" class="edge">
<title>Node25&#45;&gt;Node26</title>
<g id="a_edge42_Node000025_Node000026"><a xlink:title=" ">
<path fill="none" stroke="#63b8ff" d="M930.62,-15.43C919.44,-15.51 907.97,-15.58 897.2,-15.65"/>
<polygon fill="#63b8ff" stroke="#63b8ff" points="930.79,-18.93 940.76,-15.37 930.74,-11.93 930.79,-18.93"/>
</a>
</g>
</g>
<!-- Node27 -->
<g id="Node000027" class="node">
<title>Node27</title>
<g id="a_Node000027"><a xlink:href="create__command__list_8c.html#ae2006bf82a70d4753ffdca65847316ca" target="_top" xlink:title="Executes a redirection for the current command.">
<polygon fill="white" stroke="#666666" points="745,-39.5 671,-39.5 671,-20.5 745,-20.5 745,-39.5"/>
<text text-anchor="middle" x="708" y="-27.5" font-family="Helvetica,sans-Serif" font-size="10.00">ft_exe_redir</text>
</a>
</g>
</g>
<!-- Node26&#45;&gt;Node27 -->
<g id="edge43_Node000026_Node000027" class="edge">
<title>Node26&#45;&gt;Node27</title>
<g id="a_edge43_Node000026_Node000027"><a xlink:title=" ">
<path fill="none" stroke="#63b8ff" d="M779.52,-22.6C767.8,-23.83 755.93,-25.08 745.36,-26.19"/>
<polygon fill="#63b8ff" stroke="#63b8ff" points="780.16,-26.06 789.74,-21.53 779.43,-19.1 780.16,-26.06"/>
</a>
</g>
</g>
<!-- Node28 -->
<g id="Node000028" class="node">
<title>Node28</title>
<g id="a_Node000028"><a xlink:href="create__command__list_8c.html#ad16d74756b107a98677124008c71d23b" target="_top" xlink:title="Creates a command list from tokens.">
<polygon fill="white" stroke="#666666" points="494.5,-123.5 426.5,-123.5 426.5,-104.5 494.5,-104.5 494.5,-123.5"/>
<text text-anchor="middle" x="460.5" y="-111.5" font-family="Helvetica,sans-Serif" font-size="10.00">create_list</text>
</a>
</g>
</g>
<!-- Node27&#45;&gt;Node28 -->
<g id="edge44_Node000027_Node000028" class="edge">
<title>Node27&#45;&gt;Node28</title>
<g id="a_edge44_Node000027_Node000028"><a xlink:title=" ">
<path fill="none" stroke="#63b8ff" d="M669.11,-42.96C619.43,-59.96 533.43,-89.39 489.33,-104.48"/>
<polygon fill="#63b8ff" stroke="#63b8ff" points="670.51,-46.18 678.84,-39.64 668.24,-39.56 670.51,-46.18"/>
</a>
</g>
</g>
<!-- Node28&#45;&gt;Node5 -->
<g id="edge45_Node000028_Node000005" class="edge">
<title>Node28&#45;&gt;Node5</title>
<g id="a_edge45_Node000028_Node000005"><a xlink:title=" ">
<path fill="none" stroke="#63b8ff" d="M416.39,-125.25C373.98,-136.33 309.94,-153.04 269.98,-163.48"/>
<polygon fill="#63b8ff" stroke="#63b8ff" points="417.36,-128.62 426.15,-122.71 415.59,-121.85 417.36,-128.62"/>
</a>
</g>
</g>
</g>
</svg>
