<?xml version="1.0" encoding="UTF-8" standalone="no"?>
<!DOCTYPE svg PUBLIC "-//W3C//DTD SVG 1.1//EN"
 "http://www.w3.org/Graphics/SVG/1.1/DTD/svg11.dtd">
<!-- Generated by graphviz version 2.43.0 (0)
 -->
<!-- Title: process_command Pages: 1 -->
<svg width="606pt" height="179pt"
 viewBox="0.00 0.00 606.00 179.00" xmlns="http://www.w3.org/2000/svg" xmlns:xlink="http://www.w3.org/1999/xlink">
<g id="graph0" class="graph" transform="scale(1 1) rotate(0) translate(4 175)">
<title>process_command</title>
<!-- Node1 -->
<g id="Node000001" class="node">
<title>Node1</title>
<g id="a_Node000001"><a xlink:title="Processes a command token and handles any associated redirections.">
<polygon fill="#999999" stroke="#666666" points="108,-86 0,-86 0,-67 108,-67 108,-86"/>
<text text-anchor="middle" x="54" y="-74" font-family="Helvetica,sans-Serif" font-size="10.00">process_command</text>
</a>
</g>
</g>
<!-- Node2 -->
<g id="Node000002" class="node">
<title>Node2</title>
<g id="a_Node000002"><a xlink:href="utils__cmd__list_8c.html#a266a0961e603ebf86561da796a4a0cfd" target="_top" xlink:title="Creates and adds a new command node to the list.">
<polygon fill="white" stroke="#666666" points="220,-105 144,-105 144,-86 220,-86 220,-105"/>
<text text-anchor="middle" x="182" y="-93" font-family="Helvetica,sans-Serif" font-size="10.00">ft_add_node</text>
</a>
</g>
</g>
<!-- Node1&#45;&gt;Node2 -->
<g id="edge1_Node000001_Node000002" class="edge">
<title>Node1&#45;&gt;Node2</title>
<g id="a_edge1_Node000001_Node000002"><a xlink:title=" ">
<path fill="none" stroke="#63b8ff" d="M108.07,-84.5C116.58,-85.79 125.34,-87.11 133.7,-88.37"/>
<polygon fill="#63b8ff" stroke="#63b8ff" points="133.26,-91.84 143.67,-89.87 134.3,-84.92 133.26,-91.84"/>
</a>
</g>
</g>
<!-- Node8 -->
<g id="Node000008" class="node">
<title>Node8</title>
<g id="a_Node000008"><a xlink:href="redir__utils_8c.html#a9cc0cbe67ea65ccbbc4a191a0b76e863" target="_top" xlink:title="Gets the filename from a token based on redirection type and assigns it to the command.">
<polygon fill="white" stroke="#666666" points="354,-57 256,-57 256,-38 354,-38 354,-57"/>
<text text-anchor="middle" x="305" y="-45" font-family="Helvetica,sans-Serif" font-size="10.00">ft_get_file_name</text>
</a>
</g>
</g>
<!-- Node1&#45;&gt;Node8 -->
<g id="edge8_Node000001_Node000008" class="edge">
<title>Node1&#45;&gt;Node8</title>
<g id="a_edge8_Node000001_Node000008"><a xlink:title=" ">
<path fill="none" stroke="#63b8ff" d="M108.11,-70.31C148.49,-65.61 203.99,-59.15 245.62,-54.3"/>
<polygon fill="#63b8ff" stroke="#63b8ff" points="246.08,-57.77 255.61,-53.14 245.27,-50.82 246.08,-57.77"/>
</a>
</g>
</g>
<!-- Node3 -->
<g id="Node000003" class="node">
<title>Node3</title>
<g id="a_Node000003"><a xlink:href="utils__cmd__list_8c.html#a8f03e9f309a1fd0b2f003f070e82b1bb" target="_top" xlink:title="Adds a t_cmd node to the command list.">
<polygon fill="white" stroke="#666666" points="349.5,-161 260.5,-161 260.5,-142 349.5,-142 349.5,-161"/>
<text text-anchor="middle" x="305" y="-149" font-family="Helvetica,sans-Serif" font-size="10.00">add_command</text>
</a>
</g>
</g>
<!-- Node2&#45;&gt;Node3 -->
<g id="edge2_Node000002_Node000003" class="edge">
<title>Node2&#45;&gt;Node3</title>
<g id="a_edge2_Node000002_Node000003"><a xlink:title=" ">
<path fill="none" stroke="#63b8ff" d="M203.8,-105.13C223.22,-114.12 252.42,-127.63 274.3,-137.75"/>
<polygon fill="#63b8ff" stroke="#63b8ff" points="272.93,-140.98 283.47,-142 275.87,-134.62 272.93,-140.98"/>
</a>
</g>
</g>
<!-- Node6 -->
<g id="Node000006" class="node">
<title>Node6</title>
<g id="a_Node000006"><a xlink:href="utils__cmd__list_8c.html#a5668bb086874f4eac3b64300b787367b" target="_top" xlink:title="Creates a new command list node.">
<polygon fill="white" stroke="#666666" points="343.5,-105 266.5,-105 266.5,-86 343.5,-86 343.5,-105"/>
<text text-anchor="middle" x="305" y="-93" font-family="Helvetica,sans-Serif" font-size="10.00">create_node</text>
</a>
</g>
</g>
<!-- Node2&#45;&gt;Node6 -->
<g id="edge5_Node000002_Node000006" class="edge">
<title>Node2&#45;&gt;Node6</title>
<g id="a_edge5_Node000002_Node000006"><a xlink:title=" ">
<path fill="none" stroke="#63b8ff" d="M220.29,-95.5C231.57,-95.5 244.12,-95.5 255.99,-95.5"/>
<polygon fill="#63b8ff" stroke="#63b8ff" points="256.21,-99 266.21,-95.5 256.21,-92 256.21,-99"/>
</a>
</g>
</g>
<!-- Node4 -->
<g id="Node000004" class="node">
<title>Node4</title>
<g id="a_Node000004"><a xlink:href="utils__token_8c.html#ab94cb586647a70372e436ef3214797ad" target="_top" xlink:title="Creates a new token node.">
<polygon fill="white" stroke="#666666" points="481,-171 412,-171 412,-152 481,-152 481,-171"/>
<text text-anchor="middle" x="446.5" y="-159" font-family="Helvetica,sans-Serif" font-size="10.00">new_token</text>
</a>
</g>
</g>
<!-- Node3&#45;&gt;Node4 -->
<g id="edge3_Node000003_Node000004" class="edge">
<title>Node3&#45;&gt;Node4</title>
<g id="a_edge3_Node000003_Node000004"><a xlink:title=" ">
<path fill="none" stroke="#63b8ff" d="M349.76,-154.64C366.14,-155.81 384.76,-157.15 401.2,-158.32"/>
<polygon fill="#63b8ff" stroke="#63b8ff" points="401.41,-161.85 411.64,-159.07 401.91,-154.87 401.41,-161.85"/>
</a>
</g>
</g>
<!-- Node5 -->
<g id="Node000005" class="node">
<title>Node5</title>
<g id="a_Node000005"><a xlink:href="ft__strdup_8c.html#aebe73f27c70c56ac5053f860ef5436c9" target="_top" xlink:title="Duplicates a null&#45;terminated string by allocating memory.">
<polygon fill="white" stroke="#666666" points="598,-95 539,-95 539,-76 598,-76 598,-95"/>
<text text-anchor="middle" x="568.5" y="-83" font-family="Helvetica,sans-Serif" font-size="10.00">ft_strdup</text>
</a>
</g>
</g>
<!-- Node4&#45;&gt;Node5 -->
<g id="edge4_Node000004_Node000005" class="edge">
<title>Node4&#45;&gt;Node5</title>
<g id="a_edge4_Node000004_Node000005"><a xlink:title=" ">
<path fill="none" stroke="#63b8ff" d="M473.64,-151.9C483.16,-147.97 493.83,-143.04 503,-137.5 519.81,-127.35 537.03,-113.24 549.44,-102.28"/>
<polygon fill="#63b8ff" stroke="#63b8ff" points="552.12,-104.58 557.21,-95.28 547.44,-99.38 552.12,-104.58"/>
</a>
</g>
</g>
<!-- Node6&#45;&gt;Node5 -->
<g id="edge7_Node000006_Node000005" class="edge">
<title>Node6&#45;&gt;Node5</title>
<g id="a_edge7_Node000006_Node000005"><a xlink:title=" ">
<path fill="none" stroke="#63b8ff" d="M343.6,-101.4C383.4,-106.67 447.93,-112.44 503,-104.5 512.5,-103.13 522.56,-100.68 531.83,-97.98"/>
<polygon fill="#63b8ff" stroke="#63b8ff" points="532.99,-101.29 541.52,-95 530.93,-94.6 532.99,-101.29"/>
</a>
</g>
</g>
<!-- Node7 -->
<g id="Node000007" class="node">
<title>Node7</title>
<g id="a_Node000007"><a xlink:href="ft__bzero_8c.html#a5937ab0d08e31d0e3e4a16ec71e293a1" target="_top" xlink:title="Sets the first &#39;n&#39; bytes of the memory area pointed to by &#39;s&#39; to zero.">
<polygon fill="white" stroke="#666666" points="474.5,-95 418.5,-95 418.5,-76 474.5,-76 474.5,-95"/>
<text text-anchor="middle" x="446.5" y="-83" font-family="Helvetica,sans-Serif" font-size="10.00">ft_bzero</text>
</a>
</g>
</g>
<!-- Node6&#45;&gt;Node7 -->
<g id="edge6_Node000006_Node000007" class="edge">
<title>Node6&#45;&gt;Node7</title>
<g id="a_edge6_Node000006_Node000007"><a xlink:title=" ">
<path fill="none" stroke="#63b8ff" d="M343.75,-92.79C363.81,-91.36 388.39,-89.59 408.36,-88.16"/>
<polygon fill="#63b8ff" stroke="#63b8ff" points="408.61,-91.65 418.34,-87.45 408.11,-84.67 408.61,-91.65"/>
</a>
</g>
</g>
<!-- Node8&#45;&gt;Node5 -->
<g id="edge11_Node000008_Node000005" class="edge">
<title>Node8&#45;&gt;Node5</title>
<g id="a_edge11_Node000008_Node000005"><a xlink:title=" ">
<path fill="none" stroke="#63b8ff" d="M354.13,-49.58C394.25,-51.93 452.74,-56.77 503,-66.5 511.83,-68.21 521.18,-70.61 529.94,-73.13"/>
<polygon fill="#63b8ff" stroke="#63b8ff" points="528.95,-76.49 539.53,-76 530.95,-69.78 528.95,-76.49"/>
</a>
</g>
</g>
<!-- Node9 -->
<g id="Node000009" class="node">
<title>Node9</title>
<g id="a_Node000009"><a xlink:href="redir__utils_8c.html#ad4b61aab1ceefdbef3527f934f78618d" target="_top" xlink:title="Assigns the output file name and append flag based on redirection type.">
<polygon fill="white" stroke="#666666" points="503,-19 390,-19 390,0 503,0 503,-19"/>
<text text-anchor="middle" x="446.5" y="-7" font-family="Helvetica,sans-Serif" font-size="10.00">ft_get_outfile_name</text>
</a>
</g>
</g>
<!-- Node8&#45;&gt;Node9 -->
<g id="edge9_Node000008_Node000009" class="edge">
<title>Node8&#45;&gt;Node9</title>
<g id="a_edge9_Node000008_Node000009"><a xlink:title=" ">
<path fill="none" stroke="#63b8ff" d="M341.2,-37.91C359.21,-33.01 381.33,-26.98 400.56,-21.74"/>
<polygon fill="#63b8ff" stroke="#63b8ff" points="401.58,-25.09 410.31,-19.09 399.74,-18.34 401.58,-25.09"/>
</a>
</g>
</g>
<!-- Node9&#45;&gt;Node5 -->
<g id="edge10_Node000009_Node000005" class="edge">
<title>Node9&#45;&gt;Node5</title>
<g id="a_edge10_Node000009_Node000005"><a xlink:title=" ">
<path fill="none" stroke="#63b8ff" d="M473.64,-19.1C483.16,-23.03 493.83,-27.96 503,-33.5 519.81,-43.65 537.03,-57.76 549.44,-68.72"/>
<polygon fill="#63b8ff" stroke="#63b8ff" points="547.44,-71.62 557.21,-75.72 552.12,-66.42 547.44,-71.62"/>
</a>
</g>
</g>
</g>
</svg>
