<?xml version="1.0" encoding="UTF-8" standalone="no"?>
<!DOCTYPE svg PUBLIC "-//W3C//DTD SVG 1.1//EN"
 "http://www.w3.org/Graphics/SVG/1.1/DTD/svg11.dtd">
<!-- Generated by graphviz version 2.43.0 (0)
 -->
<!-- Title: new_token Pages: 1 -->
<svg width="916pt" height="217pt"
 viewBox="0.00 0.00 916.00 217.00" xmlns="http://www.w3.org/2000/svg" xmlns:xlink="http://www.w3.org/1999/xlink">
<g id="graph0" class="graph" transform="scale(1 1) rotate(0) translate(4 213)">
<title>new_token</title>
<!-- Node1 -->
<g id="Node000001" class="node">
<title>Node1</title>
<g id="a_Node000001"><a xlink:title="Creates a new token node.">
<polygon fill="#999999" stroke="#666666" points="908,-114 839,-114 839,-95 908,-95 908,-114"/>
<text text-anchor="middle" x="873.5" y="-102" font-family="Helvetica,sans-Serif" font-size="10.00">new_token</text>
</a>
</g>
</g>
<!-- Node2 -->
<g id="Node000002" class="node">
<title>Node2</title>
<g id="a_Node000002"><a xlink:href="utils__cmd__list_8c.html#a8f03e9f309a1fd0b2f003f070e82b1bb" target="_top" xlink:title="Adds a command node to the list.">
<polygon fill="white" stroke="#666666" points="803,-209 714,-209 714,-190 803,-190 803,-209"/>
<text text-anchor="middle" x="758.5" y="-197" font-family="Helvetica,sans-Serif" font-size="10.00">add_command</text>
</a>
</g>
</g>
<!-- Node1&#45;&gt;Node2 -->
<g id="edge1_Node000001_Node000002" class="edge">
<title>Node1&#45;&gt;Node2</title>
<g id="a_edge1_Node000001_Node000002"><a xlink:title=" ">
<path fill="none" stroke="#63b8ff" d="M858.15,-121.81C844.88,-137.12 824.08,-159.47 803,-175.5 795.86,-180.93 787.34,-185.91 779.74,-189.91"/>
<polygon fill="#63b8ff" stroke="#63b8ff" points="860.89,-123.99 864.7,-114.1 855.55,-119.45 860.89,-123.99"/>
</a>
</g>
</g>
<!-- Node9 -->
<g id="Node000009" class="node">
<title>Node9</title>
<g id="a_Node000009"><a xlink:href="utils__token_8c.html#a44faf9bdbfed1c7003733fff20cd6930" target="_top" xlink:title="Adds a token to the end of the linked list of tokens.">
<polygon fill="white" stroke="#666666" points="792,-57 725,-57 725,-38 792,-38 792,-57"/>
<text text-anchor="middle" x="758.5" y="-45" font-family="Helvetica,sans-Serif" font-size="10.00">add_token</text>
</a>
</g>
</g>
<!-- Node1&#45;&gt;Node9 -->
<g id="edge8_Node000001_Node000009" class="edge">
<title>Node1&#45;&gt;Node9</title>
<g id="a_edge8_Node000001_Node000009"><a xlink:title=" ">
<path fill="none" stroke="#63b8ff" d="M844.39,-90.32C823.84,-79.95 796.5,-66.17 778.48,-57.07"/>
<polygon fill="#63b8ff" stroke="#63b8ff" points="843.08,-93.58 853.59,-94.96 846.23,-87.33 843.08,-93.58"/>
</a>
</g>
</g>
<!-- Node10 -->
<g id="Node000010" class="node">
<title>Node10</title>
<g id="a_Node000010"><a xlink:href="tokenize__input_8c.html#a4ec55df7b6b0c546095f50475f610fb1" target="_top" xlink:title="Extracts and builds a single token from the user input.">
<polygon fill="white" stroke="#666666" points="508,-104 426,-104 426,-85 508,-85 508,-104"/>
<text text-anchor="middle" x="467" y="-92" font-family="Helvetica,sans-Serif" font-size="10.00">ft_get_tokens</text>
</a>
</g>
</g>
<!-- Node1&#45;&gt;Node10 -->
<g id="edge18_Node000001_Node000010" class="edge">
<title>Node1&#45;&gt;Node10</title>
<g id="a_edge18_Node000001_Node000010"><a xlink:title=" ">
<path fill="none" stroke="#63b8ff" d="M835.82,-117.18C776.45,-135.85 655.93,-166.02 557,-141.5 527.83,-134.27 497.68,-115.54 481.04,-104.02"/>
<polygon fill="#63b8ff" stroke="#63b8ff" points="837.05,-120.46 845.5,-114.07 834.91,-113.8 837.05,-120.46"/>
</a>
</g>
</g>
<!-- Node12 -->
<g id="Node000012" class="node">
<title>Node12</title>
<g id="a_Node000012"><a xlink:href="handle__tokens_8c.html#aa2c36964d13c3cd524d41408f386eed9" target="_top" xlink:title="Handles tokens enclosed in quotes and adds them to the list.">
<polygon fill="white" stroke="#666666" points="661.5,-132 573.5,-132 573.5,-113 661.5,-113 661.5,-132"/>
<text text-anchor="middle" x="617.5" y="-120" font-family="Helvetica,sans-Serif" font-size="10.00">handle_quotes</text>
</a>
</g>
</g>
<!-- Node1&#45;&gt;Node12 -->
<g id="edge19_Node000001_Node000012" class="edge">
<title>Node1&#45;&gt;Node12</title>
<g id="a_edge19_Node000001_Node000012"><a xlink:title=" ">
<path fill="none" stroke="#63b8ff" d="M828.64,-107.61C781.87,-110.92 708.25,-116.14 661.72,-119.44"/>
<polygon fill="#63b8ff" stroke="#63b8ff" points="829.04,-111.09 838.77,-106.89 828.55,-104.11 829.04,-111.09"/>
</a>
</g>
</g>
<!-- Node13 -->
<g id="Node000013" class="node">
<title>Node13</title>
<g id="a_Node000013"><a xlink:href="handle__tokens_8c.html#a0d1a76ff74d96055e21dbd045c471793" target="_top" xlink:title="Handles shell special characters (|, &lt;, &gt;, &lt;&lt;, &gt;&gt;).">
<polygon fill="white" stroke="#666666" points="678,-95 557,-95 557,-76 678,-76 678,-95"/>
<text text-anchor="middle" x="617.5" y="-83" font-family="Helvetica,sans-Serif" font-size="10.00">handle_special_chars</text>
</a>
</g>
</g>
<!-- Node1&#45;&gt;Node13 -->
<g id="edge20_Node000001_Node000013" class="edge">
<title>Node1&#45;&gt;Node13</title>
<g id="a_edge20_Node000001_Node000013"><a xlink:title=" ">
<path fill="none" stroke="#63b8ff" d="M828.68,-101.22C787.12,-98.11 724.34,-93.42 678.21,-89.97"/>
<polygon fill="#63b8ff" stroke="#63b8ff" points="828.54,-104.72 838.77,-101.98 829.06,-97.74 828.54,-104.72"/>
</a>
</g>
</g>
<!-- Node14 -->
<g id="Node000014" class="node">
<title>Node14</title>
<g id="a_Node000014"><a xlink:href="handle__tokens_8c.html#a4435ee7ff5bdf5ceb09137c12fd49ccd" target="_top" xlink:title="Handles creation of a normal token (words, commands, arguments).">
<polygon fill="white" stroke="#666666" points="657,-19 578,-19 578,0 657,0 657,-19"/>
<text text-anchor="middle" x="617.5" y="-7" font-family="Helvetica,sans-Serif" font-size="10.00">handle_word</text>
</a>
</g>
</g>
<!-- Node1&#45;&gt;Node14 -->
<g id="edge21_Node000001_Node000014" class="edge">
<title>Node1&#45;&gt;Node14</title>
<g id="a_edge21_Node000001_Node000014"><a xlink:title=" ">
<path fill="none" stroke="#63b8ff" d="M861.69,-86.48C849.78,-68.43 828.84,-41.51 803,-28.5 756.84,-5.26 696.04,-3.69 657.1,-5.76"/>
<polygon fill="#63b8ff" stroke="#63b8ff" points="858.77,-88.42 867.07,-95 864.69,-84.67 858.77,-88.42"/>
</a>
</g>
</g>
<!-- Node3 -->
<g id="Node000003" class="node">
<title>Node3</title>
<g id="a_Node000003"><a xlink:href="utils__cmd__list_8c.html#a266a0961e603ebf86561da796a4a0cfd" target="_top" xlink:title="Adds a new command node to the list and updates the current node.">
<polygon fill="white" stroke="#666666" points="655.5,-209 579.5,-209 579.5,-190 655.5,-190 655.5,-209"/>
<text text-anchor="middle" x="617.5" y="-197" font-family="Helvetica,sans-Serif" font-size="10.00">ft_add_node</text>
</a>
</g>
</g>
<!-- Node2&#45;&gt;Node3 -->
<g id="edge2_Node000002_Node000003" class="edge">
<title>Node2&#45;&gt;Node3</title>
<g id="a_edge2_Node000002_Node000003"><a xlink:title=" ">
<path fill="none" stroke="#63b8ff" d="M703.62,-199.5C687.65,-199.5 670.53,-199.5 655.86,-199.5"/>
<polygon fill="#63b8ff" stroke="#63b8ff" points="703.9,-203 713.9,-199.5 703.9,-196 703.9,-203"/>
</a>
</g>
</g>
<!-- Node4 -->
<g id="Node000004" class="node">
<title>Node4</title>
<g id="a_Node000004"><a xlink:href="utils__cmd__list_8c.html#ad6de7454925bb78cc9488c934183e8f2" target="_top" xlink:title="Processes a command token and handles any associated redirections.">
<polygon fill="white" stroke="#666666" points="521,-204 413,-204 413,-185 521,-185 521,-204"/>
<text text-anchor="middle" x="467" y="-192" font-family="Helvetica,sans-Serif" font-size="10.00">process_command</text>
</a>
</g>
</g>
<!-- Node3&#45;&gt;Node4 -->
<g id="edge3_Node000003_Node000004" class="edge">
<title>Node3&#45;&gt;Node4</title>
<g id="a_edge3_Node000003_Node000004"><a xlink:title=" ">
<path fill="none" stroke="#63b8ff" d="M569.15,-197.91C553.86,-197.39 536.81,-196.82 521.14,-196.29"/>
<polygon fill="#63b8ff" stroke="#63b8ff" points="569.3,-201.41 579.41,-198.25 569.53,-194.42 569.3,-201.41"/>
</a>
</g>
</g>
<!-- Node5 -->
<g id="Node000005" class="node">
<title>Node5</title>
<g id="a_Node000005"><a xlink:href="create__command__list_8c.html#ad16d74756b107a98677124008c71d23b" target="_top" xlink:title="Creates a command list from tokens.">
<polygon fill="white" stroke="#666666" points="377,-199 309,-199 309,-180 377,-180 377,-199"/>
<text text-anchor="middle" x="343" y="-187" font-family="Helvetica,sans-Serif" font-size="10.00">create_list</text>
</a>
</g>
</g>
<!-- Node4&#45;&gt;Node5 -->
<g id="edge4_Node000004_Node000005" class="edge">
<title>Node4&#45;&gt;Node5</title>
<g id="a_edge4_Node000004_Node000005"><a xlink:title=" ">
<path fill="none" stroke="#63b8ff" d="M402.6,-191.9C393.87,-191.54 385.2,-191.19 377.31,-190.87"/>
<polygon fill="#63b8ff" stroke="#63b8ff" points="402.71,-195.41 412.84,-192.32 403,-188.41 402.71,-195.41"/>
</a>
</g>
</g>
<!-- Node6 -->
<g id="Node000006" class="node">
<title>Node6</title>
<g id="a_Node000006"><a xlink:href="main__utils_8c.html#a7e8f478480ab6ab34d6f5eadaf6acdb9" target="_top" xlink:title="Handles parsing and execution of tokens.">
<polygon fill="white" stroke="#666666" points="273,-179 192,-179 192,-160 273,-160 273,-179"/>
<text text-anchor="middle" x="232.5" y="-167" font-family="Helvetica,sans-Serif" font-size="10.00">ft_token_flow</text>
</a>
</g>
</g>
<!-- Node5&#45;&gt;Node6 -->
<g id="edge5_Node000005_Node000006" class="edge">
<title>Node5&#45;&gt;Node6</title>
<g id="a_edge5_Node000005_Node000006"><a xlink:title=" ">
<path fill="none" stroke="#63b8ff" d="M298.83,-181.54C290.41,-179.99 281.62,-178.37 273.31,-176.84"/>
<polygon fill="#63b8ff" stroke="#63b8ff" points="298.39,-185.02 308.86,-183.39 299.66,-178.14 298.39,-185.02"/>
</a>
</g>
</g>
<!-- Node7 -->
<g id="Node000007" class="node">
<title>Node7</title>
<g id="a_Node000007"><a xlink:href="main__utils_8c.html#ae35edfb8f1339d6f77f53c28eb2a2ed6" target="_top" xlink:title="Handles a complete cycle of input → parsing → execution.">
<polygon fill="white" stroke="#666666" points="156,-160 77,-160 77,-141 156,-141 156,-160"/>
<text text-anchor="middle" x="116.5" y="-148" font-family="Helvetica,sans-Serif" font-size="10.00">ft_main_flow</text>
</a>
</g>
</g>
<!-- Node6&#45;&gt;Node7 -->
<g id="edge6_Node000006_Node000007" class="edge">
<title>Node6&#45;&gt;Node7</title>
<g id="a_edge6_Node000006_Node000007"><a xlink:title=" ">
<path fill="none" stroke="#63b8ff" d="M181.98,-161.25C173.35,-159.81 164.49,-158.33 156.21,-156.95"/>
<polygon fill="#63b8ff" stroke="#63b8ff" points="181.51,-164.72 191.95,-162.91 182.66,-157.81 181.51,-164.72"/>
</a>
</g>
</g>
<!-- Node8 -->
<g id="Node000008" class="node">
<title>Node8</title>
<g id="a_Node000008"><a xlink:href="main_8c.html#ab3862b46d6a8d13c2d884a297e6b05b5" target="_top" xlink:title="Main function of the minishell.">
<polygon fill="white" stroke="#666666" points="41,-160 0,-160 0,-141 41,-141 41,-160"/>
<text text-anchor="middle" x="20.5" y="-148" font-family="Helvetica,sans-Serif" font-size="10.00">main</text>
</a>
</g>
</g>
<!-- Node7&#45;&gt;Node8 -->
<g id="edge7_Node000007_Node000008" class="edge">
<title>Node7&#45;&gt;Node8</title>
<g id="a_edge7_Node000007_Node000008"><a xlink:title=" ">
<path fill="none" stroke="#63b8ff" d="M66.74,-150.5C57.62,-150.5 48.59,-150.5 41.03,-150.5"/>
<polygon fill="#63b8ff" stroke="#63b8ff" points="67,-154 77,-150.5 67,-147 67,-154"/>
</a>
</g>
</g>
<!-- Node9&#45;&gt;Node10 -->
<g id="edge9_Node000009_Node000010" class="edge">
<title>Node9&#45;&gt;Node10</title>
<g id="a_edge9_Node000009_Node000010"><a xlink:title=" ">
<path fill="none" stroke="#63b8ff" d="M714.76,-48.95C673.9,-50.94 610.75,-55.62 557,-66.5 535.09,-70.93 510.94,-78.72 493.33,-84.96"/>
<polygon fill="#63b8ff" stroke="#63b8ff" points="715.07,-52.44 724.9,-48.49 714.75,-45.45 715.07,-52.44"/>
</a>
</g>
</g>
<!-- Node9&#45;&gt;Node12 -->
<g id="edge12_Node000009_Node000012" class="edge">
<title>Node9&#45;&gt;Node12</title>
<g id="a_edge12_Node000009_Node000012"><a xlink:title=" ">
<path fill="none" stroke="#63b8ff" d="M738.92,-63.53C723.49,-76.15 700.49,-93.41 678,-104.5 671.32,-107.79 663.92,-110.62 656.67,-112.99"/>
<polygon fill="#63b8ff" stroke="#63b8ff" points="741.23,-66.16 746.67,-57.06 736.75,-60.79 741.23,-66.16"/>
</a>
</g>
</g>
<!-- Node9&#45;&gt;Node13 -->
<g id="edge14_Node000009_Node000013" class="edge">
<title>Node9&#45;&gt;Node13</title>
<g id="a_edge14_Node000009_Node000013"><a xlink:title=" ">
<path fill="none" stroke="#63b8ff" d="M715.21,-59.06C695.4,-64.48 672.09,-70.85 653.31,-75.98"/>
<polygon fill="#63b8ff" stroke="#63b8ff" points="716.19,-62.42 724.91,-56.41 714.34,-55.67 716.19,-62.42"/>
</a>
</g>
</g>
<!-- Node9&#45;&gt;Node14 -->
<g id="edge16_Node000009_Node000014" class="edge">
<title>Node9&#45;&gt;Node14</title>
<g id="a_edge16_Node000009_Node000014"><a xlink:title=" ">
<path fill="none" stroke="#63b8ff" d="M715.21,-35.94C695.4,-30.52 672.09,-24.15 653.31,-19.02"/>
<polygon fill="#63b8ff" stroke="#63b8ff" points="714.34,-39.33 724.91,-38.59 716.19,-32.58 714.34,-39.33"/>
</a>
</g>
</g>
<!-- Node11 -->
<g id="Node000011" class="node">
<title>Node11</title>
<g id="a_Node000011"><a xlink:href="tokenize__input_8c.html#a4e40c3f57ab2488a2b49f37846785b2e" target="_top" xlink:title="Tokenizes the entire user input string.">
<polygon fill="white" stroke="#666666" points="261.5,-142 203.5,-142 203.5,-123 261.5,-123 261.5,-142"/>
<text text-anchor="middle" x="232.5" y="-130" font-family="Helvetica,sans-Serif" font-size="10.00">tokenize</text>
</a>
</g>
</g>
<!-- Node10&#45;&gt;Node11 -->
<g id="edge10_Node000010_Node000011" class="edge">
<title>Node10&#45;&gt;Node11</title>
<g id="a_edge10_Node000010_Node000011"><a xlink:title=" ">
<path fill="none" stroke="#63b8ff" d="M415.75,-102.71C368.58,-110.42 299.71,-121.68 261.56,-127.91"/>
<polygon fill="#63b8ff" stroke="#63b8ff" points="416.46,-106.14 425.77,-101.08 415.33,-99.23 416.46,-106.14"/>
</a>
</g>
</g>
<!-- Node11&#45;&gt;Node7 -->
<g id="edge11_Node000011_Node000007" class="edge">
<title>Node11&#45;&gt;Node7</title>
<g id="a_edge11_Node000011_Node000007"><a xlink:title=" ">
<path fill="none" stroke="#63b8ff" d="M193.2,-138.55C181.25,-140.43 168.07,-142.51 156.11,-144.4"/>
<polygon fill="#63b8ff" stroke="#63b8ff" points="193.99,-141.97 203.32,-136.95 192.9,-135.05 193.99,-141.97"/>
</a>
</g>
</g>
<!-- Node12&#45;&gt;Node10 -->
<g id="edge13_Node000012_Node000010" class="edge">
<title>Node12&#45;&gt;Node10</title>
<g id="a_edge13_Node000012_Node000010"><a xlink:title=" ">
<path fill="none" stroke="#63b8ff" d="M563.27,-112.46C545.09,-109.03 525.07,-105.26 508.1,-102.06"/>
<polygon fill="#63b8ff" stroke="#63b8ff" points="562.67,-115.91 573.15,-114.33 563.97,-109.03 562.67,-115.91"/>
</a>
</g>
</g>
<!-- Node13&#45;&gt;Node10 -->
<g id="edge15_Node000013_Node000010" class="edge">
<title>Node13&#45;&gt;Node10</title>
<g id="a_edge15_Node000013_Node000010"><a xlink:title=" ">
<path fill="none" stroke="#63b8ff" d="M546.93,-89.72C533.73,-90.52 520.33,-91.33 508.42,-92.05"/>
<polygon fill="#63b8ff" stroke="#63b8ff" points="547.19,-93.21 556.96,-89.11 546.76,-86.22 547.19,-93.21"/>
</a>
</g>
</g>
<!-- Node14&#45;&gt;Node10 -->
<g id="edge17_Node000014_Node000010" class="edge">
<title>Node14&#45;&gt;Node10</title>
<g id="a_edge17_Node000014_Node000010"><a xlink:title=" ">
<path fill="none" stroke="#63b8ff" d="M579.78,-22.85C572.11,-26.04 564.18,-29.65 557,-33.5 527.94,-49.08 496.77,-72.07 480.13,-84.92"/>
<polygon fill="#63b8ff" stroke="#63b8ff" points="581.3,-26.01 589.28,-19.05 578.69,-19.52 581.3,-26.01"/>
</a>
</g>
</g>
</g>
</svg>
