<?xml version="1.0" encoding="UTF-8" standalone="no"?>
<!DOCTYPE svg PUBLIC "-//W3C//DTD SVG 1.1//EN"
 "http://www.w3.org/Graphics/SVG/1.1/DTD/svg11.dtd">
<!-- Generated by graphviz version 2.43.0 (0)
 -->
<!-- Title: ft_get_env_value Pages: 1 -->
<svg width="1780pt" height="199pt"
 viewBox="0.00 0.00 1780.00 199.00" xmlns="http://www.w3.org/2000/svg" xmlns:xlink="http://www.w3.org/1999/xlink">
<g id="graph0" class="graph" transform="scale(1 1) rotate(0) translate(4 195)">
<title>ft_get_env_value</title>
<!-- Node1 -->
<g id="Node000001" class="node">
<title>Node1</title>
<g id="a_Node000001"><a xlink:title="Finds the value of an environment variable given its name key.">
<polygon fill="#999999" stroke="#666666" points="1772,-113 1672,-113 1672,-94 1772,-94 1772,-113"/>
<text text-anchor="middle" x="1722" y="-101" font-family="Helvetica,sans-Serif" font-size="10.00">ft_get_env_value</text>
</a>
</g>
</g>
<!-- Node2 -->
<g id="Node000002" class="node">
<title>Node2</title>
<g id="a_Node000002"><a xlink:href="ft__cd_8c.html#ac060a52395a8362da6298c5c36871f32" target="_top" xlink:title="Processes the arguments passed to the cd command to determine the path.">
<polygon fill="white" stroke="#666666" points="1625.5,-132 1563.5,-132 1563.5,-113 1625.5,-113 1625.5,-132"/>
<text text-anchor="middle" x="1594.5" y="-120" font-family="Helvetica,sans-Serif" font-size="10.00">ft_exe_cd</text>
</a>
</g>
</g>
<!-- Node1&#45;&gt;Node2 -->
<g id="edge1_Node000001_Node000002" class="edge">
<title>Node1&#45;&gt;Node2</title>
<g id="a_edge1_Node000001_Node000002"><a xlink:title=" ">
<path fill="none" stroke="#63b8ff" d="M1661.82,-112.46C1649.33,-114.35 1636.65,-116.27 1625.77,-117.92"/>
<polygon fill="#63b8ff" stroke="#63b8ff" points="1662.4,-115.91 1671.76,-110.95 1661.35,-108.99 1662.4,-115.91"/>
</a>
</g>
</g>
<!-- Node13 -->
<g id="Node000013" class="node">
<title>Node13</title>
<g id="a_Node000013"><a xlink:href="utils__env_8c.html#a4ea711c91d64ff7669bf6ac7e6b6b9dd" target="_top" xlink:title="Expands an environment variable found in a string.">
<polygon fill="white" stroke="#666666" points="1627,-58 1562,-58 1562,-39 1627,-39 1627,-58"/>
<text text-anchor="middle" x="1594.5" y="-46" font-family="Helvetica,sans-Serif" font-size="10.00">ft_expand</text>
</a>
</g>
</g>
<!-- Node1&#45;&gt;Node13 -->
<g id="edge13_Node000001_Node000013" class="edge">
<title>Node1&#45;&gt;Node13</title>
<g id="a_edge13_Node000001_Node000013"><a xlink:title=" ">
<path fill="none" stroke="#63b8ff" d="M1689.7,-89.78C1667.24,-79.94 1637.53,-66.92 1617.53,-58.16"/>
<polygon fill="#63b8ff" stroke="#63b8ff" points="1688.58,-93.11 1699.14,-93.92 1691.39,-86.7 1688.58,-93.11"/>
</a>
</g>
</g>
<!-- Node25 -->
<g id="Node000025" class="node">
<title>Node25</title>
<g id="a_Node000025"><a xlink:href="system__commands_8c.html#aaaa4228e08342bbace615a9eeea465bd" target="_top" xlink:title="Searches for the executable path of a command.">
<polygon fill="white" stroke="#666666" points="1636,-169 1553,-169 1553,-150 1636,-150 1636,-169"/>
<text text-anchor="middle" x="1594.5" y="-157" font-family="Helvetica,sans-Serif" font-size="10.00">ft_path_finder</text>
</a>
</g>
</g>
<!-- Node1&#45;&gt;Node25 -->
<g id="edge28_Node000001_Node000025" class="edge">
<title>Node1&#45;&gt;Node25</title>
<g id="a_edge28_Node000001_Node000025"><a xlink:title=" ">
<path fill="none" stroke="#63b8ff" d="M1690.21,-117.28C1674.07,-124.5 1653.97,-133.49 1636,-141.5 1629.82,-144.26 1623.1,-147.25 1616.94,-149.98"/>
<polygon fill="#63b8ff" stroke="#63b8ff" points="1692,-120.32 1699.7,-113.04 1689.14,-113.93 1692,-120.32"/>
</a>
</g>
</g>
<!-- Node28 -->
<g id="Node000028" class="node">
<title>Node28</title>
<g id="a_Node000028"><a xlink:href="ft__cd_8c.html#abe3ef0d9243dfb9deb0adcf20cf26db5" target="_top" xlink:title="Changes the current directory and updates PWD and OLDPWD environment variables.">
<polygon fill="white" stroke="#666666" points="1628,-95 1561,-95 1561,-76 1628,-76 1628,-95"/>
<text text-anchor="middle" x="1594.5" y="-83" font-family="Helvetica,sans-Serif" font-size="10.00">ft_set_env</text>
</a>
</g>
</g>
<!-- Node1&#45;&gt;Node28 -->
<g id="edge33_Node000001_Node000028" class="edge">
<title>Node1&#45;&gt;Node28</title>
<g id="a_edge33_Node000001_Node000028"><a xlink:title=" ">
<path fill="none" stroke="#63b8ff" d="M1661.75,-95C1650.26,-93.35 1638.62,-91.68 1628.37,-90.21"/>
<polygon fill="#63b8ff" stroke="#63b8ff" points="1661.36,-98.48 1671.76,-96.44 1662.36,-91.55 1661.36,-98.48"/>
</a>
</g>
</g>
<!-- Node3 -->
<g id="Node000003" class="node">
<title>Node3</title>
<g id="a_Node000003"><a xlink:href="ft__cd_8c.html#af438919e376d2d0df3830120118ea526" target="_top" xlink:title="Builtin function for the cd (change directory) command.">
<polygon fill="white" stroke="#666666" points="1472.5,-117 1432.5,-117 1432.5,-98 1472.5,-98 1472.5,-117"/>
<text text-anchor="middle" x="1452.5" y="-105" font-family="Helvetica,sans-Serif" font-size="10.00">ft_cd</text>
</a>
</g>
</g>
<!-- Node2&#45;&gt;Node3 -->
<g id="edge2_Node000002_Node000003" class="edge">
<title>Node2&#45;&gt;Node3</title>
<g id="a_edge2_Node000002_Node000003"><a xlink:title=" ">
<path fill="none" stroke="#63b8ff" d="M1553.34,-118.2C1526.88,-115.36 1493.41,-111.78 1472.73,-109.56"/>
<polygon fill="#63b8ff" stroke="#63b8ff" points="1553.15,-121.7 1563.47,-119.28 1553.9,-114.74 1553.15,-121.7"/>
</a>
</g>
</g>
<!-- Node4 -->
<g id="Node000004" class="node">
<title>Node4</title>
<g id="a_Node000004"><a xlink:href="cmd__execution_8c.html#a5ce7231f800cbacea6350cc1a32a59bd" target="_top" xlink:title="Executes a list of non&#45;pipelined commands.">
<polygon fill="white" stroke="#666666" points="1339,-177 1267,-177 1267,-158 1339,-158 1339,-177"/>
<text text-anchor="middle" x="1303" y="-165" font-family="Helvetica,sans-Serif" font-size="10.00">ft_exe_cmd</text>
</a>
</g>
</g>
<!-- Node3&#45;&gt;Node4 -->
<g id="edge3_Node000003_Node000004" class="edge">
<title>Node3&#45;&gt;Node4</title>
<g id="a_edge3_Node000003_Node000004"><a xlink:title=" ">
<path fill="none" stroke="#63b8ff" d="M1422.43,-114.5C1411.42,-117.59 1398.91,-121.63 1388,-126.5 1370.88,-134.14 1368.78,-140.13 1352,-148.5 1345.18,-151.9 1337.6,-155.14 1330.51,-157.94"/>
<polygon fill="#63b8ff" stroke="#63b8ff" points="1423.66,-117.79 1432.43,-111.84 1421.86,-111.03 1423.66,-117.79"/>
</a>
</g>
</g>
<!-- Node8 -->
<g id="Node000008" class="node">
<title>Node8</title>
<g id="a_Node000008"><a xlink:href="cmd__execution_8c.html#a50e59fa2e4621831a415d4038f697c56" target="_top" xlink:title="Executes a command within a pipeline.">
<polygon fill="white" stroke="#666666" points="1352,-139 1254,-139 1254,-120 1352,-120 1352,-139"/>
<text text-anchor="middle" x="1303" y="-127" font-family="Helvetica,sans-Serif" font-size="10.00">ft_exe_pipe_cmd</text>
</a>
</g>
</g>
<!-- Node3&#45;&gt;Node8 -->
<g id="edge7_Node000003_Node000008" class="edge">
<title>Node3&#45;&gt;Node8</title>
<g id="a_edge7_Node000003_Node000008"><a xlink:title=" ">
<path fill="none" stroke="#63b8ff" d="M1422.18,-111.87C1402.19,-114.85 1375.27,-118.87 1352.17,-122.32"/>
<polygon fill="#63b8ff" stroke="#63b8ff" points="1422.84,-115.31 1432.22,-110.38 1421.81,-108.39 1422.84,-115.31"/>
</a>
</g>
</g>
<!-- Node5 -->
<g id="Node000005" class="node">
<title>Node5</title>
<g id="a_Node000005"><a xlink:href="main__utils_8c.html#a7e8f478480ab6ab34d6f5eadaf6acdb9" target="_top" xlink:title="Handles parsing and execution of tokens.">
<polygon fill="white" stroke="#666666" points="273,-120 192,-120 192,-101 273,-101 273,-120"/>
<text text-anchor="middle" x="232.5" y="-108" font-family="Helvetica,sans-Serif" font-size="10.00">ft_token_flow</text>
</a>
</g>
</g>
<!-- Node4&#45;&gt;Node5 -->
<g id="edge4_Node000004_Node000005" class="edge">
<title>Node4&#45;&gt;Node5</title>
<g id="a_edge4_Node000004_Node000005"><a xlink:title=" ">
<path fill="none" stroke="#63b8ff" d="M1256.82,-167.5C1205.31,-167.5 1118.59,-167.5 1044,-167.5 1044,-167.5 1044,-167.5 465.5,-167.5 395.43,-167.5 376.07,-168.77 309,-148.5 286.95,-141.83 263.55,-129.05 248.75,-120.16"/>
<polygon fill="#63b8ff" stroke="#63b8ff" points="1256.95,-171 1266.95,-167.5 1256.95,-164 1256.95,-171"/>
</a>
</g>
</g>
<!-- Node6 -->
<g id="Node000006" class="node">
<title>Node6</title>
<g id="a_Node000006"><a xlink:href="main__utils_8c.html#ae35edfb8f1339d6f77f53c28eb2a2ed6" target="_top" xlink:title="Handles a complete cycle of input → parsing → execution.">
<polygon fill="white" stroke="#666666" points="156,-120 77,-120 77,-101 156,-101 156,-120"/>
<text text-anchor="middle" x="116.5" y="-108" font-family="Helvetica,sans-Serif" font-size="10.00">ft_main_flow</text>
</a>
</g>
</g>
<!-- Node5&#45;&gt;Node6 -->
<g id="edge5_Node000005_Node000006" class="edge">
<title>Node5&#45;&gt;Node6</title>
<g id="a_edge5_Node000005_Node000006"><a xlink:title=" ">
<path fill="none" stroke="#63b8ff" d="M181.7,-110.5C173.16,-110.5 164.4,-110.5 156.21,-110.5"/>
<polygon fill="#63b8ff" stroke="#63b8ff" points="181.95,-114 191.95,-110.5 181.95,-107 181.95,-114"/>
</a>
</g>
</g>
<!-- Node7 -->
<g id="Node000007" class="node">
<title>Node7</title>
<g id="a_Node000007"><a xlink:href="main_8c.html#ab3862b46d6a8d13c2d884a297e6b05b5" target="_top" xlink:title="Main function of the minishell.">
<polygon fill="white" stroke="#666666" points="41,-120 0,-120 0,-101 41,-101 41,-120"/>
<text text-anchor="middle" x="20.5" y="-108" font-family="Helvetica,sans-Serif" font-size="10.00">main</text>
</a>
</g>
</g>
<!-- Node6&#45;&gt;Node7 -->
<g id="edge6_Node000006_Node000007" class="edge">
<title>Node6&#45;&gt;Node7</title>
<g id="a_edge6_Node000006_Node000007"><a xlink:title=" ">
<path fill="none" stroke="#63b8ff" d="M66.74,-110.5C57.62,-110.5 48.59,-110.5 41.03,-110.5"/>
<polygon fill="#63b8ff" stroke="#63b8ff" points="67,-114 77,-110.5 67,-107 67,-114"/>
</a>
</g>
</g>
<!-- Node9 -->
<g id="Node000009" class="node">
<title>Node9</title>
<g id="a_Node000009"><a xlink:href="pipes_8c.html#a36a2d91a0566ad253efe3833b05e69d1" target="_top" xlink:title="Routine executed by the child process for each command in the pipe.">
<polygon fill="white" stroke="#666666" points="1218,-139 1126,-139 1126,-120 1218,-120 1218,-139"/>
<text text-anchor="middle" x="1172" y="-127" font-family="Helvetica,sans-Serif" font-size="10.00">ft_child_routine</text>
</a>
</g>
</g>
<!-- Node8&#45;&gt;Node9 -->
<g id="edge8_Node000008_Node000009" class="edge">
<title>Node8&#45;&gt;Node9</title>
<g id="a_edge8_Node000008_Node000009"><a xlink:title=" ">
<path fill="none" stroke="#63b8ff" d="M1243.91,-129.5C1235.24,-129.5 1226.42,-129.5 1218.08,-129.5"/>
<polygon fill="#63b8ff" stroke="#63b8ff" points="1243.97,-133 1253.97,-129.5 1243.97,-126 1243.97,-133"/>
</a>
</g>
</g>
<!-- Node10 -->
<g id="Node000010" class="node">
<title>Node10</title>
<g id="a_Node000010"><a xlink:href="pipes_8c.html#aa17e847997e7266a0a111ab3572756bb" target="_top" xlink:title="Manages pipe creation and fork to execute the current command.">
<polygon fill="white" stroke="#666666" points="1087.5,-139 998.5,-139 998.5,-120 1087.5,-120 1087.5,-139"/>
<text text-anchor="middle" x="1043" y="-127" font-family="Helvetica,sans-Serif" font-size="10.00">ft_pipe_routine</text>
</a>
</g>
</g>
<!-- Node9&#45;&gt;Node10 -->
<g id="edge9_Node000009_Node000010" class="edge">
<title>Node9&#45;&gt;Node10</title>
<g id="a_edge9_Node000009_Node000010"><a xlink:title=" ">
<path fill="none" stroke="#63b8ff" d="M1115.8,-129.5C1106.41,-129.5 1096.76,-129.5 1087.71,-129.5"/>
<polygon fill="#63b8ff" stroke="#63b8ff" points="1115.87,-133 1125.87,-129.5 1115.87,-126 1115.87,-133"/>
</a>
</g>
</g>
<!-- Node11 -->
<g id="Node000011" class="node">
<title>Node11</title>
<g id="a_Node000011"><a xlink:href="pipes_8c.html#a7a3b0de1a88a243da741f748881e14f0" target="_top" xlink:title="Executes a list of commands connected via pipes.">
<polygon fill="white" stroke="#666666" points="941,-139 860,-139 860,-120 941,-120 941,-139"/>
<text text-anchor="middle" x="900.5" y="-127" font-family="Helvetica,sans-Serif" font-size="10.00">execute_pipe</text>
</a>
</g>
</g>
<!-- Node10&#45;&gt;Node11 -->
<g id="edge10_Node000010_Node000011" class="edge">
<title>Node10&#45;&gt;Node11</title>
<g id="a_edge10_Node000010_Node000011"><a xlink:title=" ">
<path fill="none" stroke="#63b8ff" d="M988.27,-129.5C972.67,-129.5 955.92,-129.5 941.34,-129.5"/>
<polygon fill="#63b8ff" stroke="#63b8ff" points="988.32,-133 998.32,-129.5 988.32,-126 988.32,-133"/>
</a>
</g>
</g>
<!-- Node12 -->
<g id="Node000012" class="node">
<title>Node12</title>
<g id="a_Node000012"><a xlink:href="main__utils_8c.html#ad0183732909ae6e7c52e7b086c2e5642" target="_top" xlink:title="Manages the execution flow of commands with pipes.">
<polygon fill="white" stroke="#666666" points="384,-139 309,-139 309,-120 384,-120 384,-139"/>
<text text-anchor="middle" x="346.5" y="-127" font-family="Helvetica,sans-Serif" font-size="10.00">ft_pipe_flow</text>
</a>
</g>
</g>
<!-- Node11&#45;&gt;Node12 -->
<g id="edge11_Node000011_Node000012" class="edge">
<title>Node11&#45;&gt;Node12</title>
<g id="a_edge11_Node000011_Node000012"><a xlink:title=" ">
<path fill="none" stroke="#63b8ff" d="M849.68,-129.5C740.17,-129.5 480.59,-129.5 384.29,-129.5"/>
<polygon fill="#63b8ff" stroke="#63b8ff" points="849.8,-133 859.8,-129.5 849.8,-126 849.8,-133"/>
</a>
</g>
</g>
<!-- Node12&#45;&gt;Node5 -->
<g id="edge12_Node000012_Node000005" class="edge">
<title>Node12&#45;&gt;Node5</title>
<g id="a_edge12_Node000012_Node000005"><a xlink:title=" ">
<path fill="none" stroke="#63b8ff" d="M298.73,-121.57C290.29,-120.13 281.57,-118.65 273.35,-117.26"/>
<polygon fill="#63b8ff" stroke="#63b8ff" points="298.38,-125.06 308.83,-123.28 299.55,-118.16 298.38,-125.06"/>
</a>
</g>
</g>
<!-- Node14 -->
<g id="Node000014" class="node">
<title>Node14</title>
<g id="a_Node000014"><a xlink:href="utils__env_8c.html#a78e10627f49df6e904925e22ae6ee15f" target="_top" xlink:title="Performs environment variable expansion in a string.">
<polygon fill="white" stroke="#666666" points="1504.5,-58 1400.5,-58 1400.5,-39 1504.5,-39 1504.5,-58"/>
<text text-anchor="middle" x="1452.5" y="-46" font-family="Helvetica,sans-Serif" font-size="10.00">ft_expand_envvar</text>
</a>
</g>
</g>
<!-- Node13&#45;&gt;Node14 -->
<g id="edge14_Node000013_Node000014" class="edge">
<title>Node13&#45;&gt;Node14</title>
<g id="a_edge14_Node000013_Node000014"><a xlink:title=" ">
<path fill="none" stroke="#63b8ff" d="M1551.41,-48.5C1536.69,-48.5 1520.01,-48.5 1504.64,-48.5"/>
<polygon fill="#63b8ff" stroke="#63b8ff" points="1551.73,-52 1561.73,-48.5 1551.73,-45 1551.73,-52"/>
</a>
</g>
</g>
<!-- Node15 -->
<g id="Node000015" class="node">
<title>Node15</title>
<g id="a_Node000015"><a xlink:href="create__command__list_8c.html#a9fb2e7501277f2f93e5c7042fec32429" target="_top" xlink:title="Adds an argument to the command’s argument list.">
<polygon fill="white" stroke="#666666" points="633,-101 572,-101 572,-82 633,-82 633,-101"/>
<text text-anchor="middle" x="602.5" y="-89" font-family="Helvetica,sans-Serif" font-size="10.00">add_args</text>
</a>
</g>
</g>
<!-- Node14&#45;&gt;Node15 -->
<g id="edge15_Node000014_Node000015" class="edge">
<title>Node14&#45;&gt;Node15</title>
<g id="a_edge15_Node000014_Node000015"><a xlink:title=" ">
<path fill="none" stroke="#63b8ff" d="M1404.11,-60.35C1348.96,-73.08 1254.98,-91.5 1173,-91.5 1173,-91.5 1173,-91.5 899.5,-91.5 802.12,-91.5 686.71,-91.5 633.33,-91.5"/>
<polygon fill="#63b8ff" stroke="#63b8ff" points="1405.01,-63.73 1413.95,-58.04 1403.41,-56.92 1405.01,-63.73"/>
</a>
</g>
</g>
<!-- Node17 -->
<g id="Node000017" class="node">
<title>Node17</title>
<g id="a_Node000017"><a xlink:href="main__utils_8c.html#a5aeae9d23b7c4e831229866f395977e7" target="_top" xlink:title="Handles printing of a single environment variable.">
<polygon fill="white" stroke="#666666" points="513,-19 420,-19 420,0 513,0 513,-19"/>
<text text-anchor="middle" x="466.5" y="-7" font-family="Helvetica,sans-Serif" font-size="10.00">ft_env_var_flow</text>
</a>
</g>
</g>
<!-- Node14&#45;&gt;Node17 -->
<g id="edge18_Node000014_Node000017" class="edge">
<title>Node14&#45;&gt;Node17</title>
<g id="a_edge18_Node000014_Node000017"><a xlink:title=" ">
<path fill="none" stroke="#63b8ff" d="M1404.11,-36.65C1348.96,-23.92 1254.98,-5.5 1173,-5.5 1173,-5.5 1173,-5.5 747.5,-5.5 664.85,-5.5 568.5,-7.26 513.09,-8.45"/>
<polygon fill="#63b8ff" stroke="#63b8ff" points="1403.41,-40.08 1413.95,-38.96 1405.01,-33.27 1403.41,-40.08"/>
</a>
</g>
</g>
<!-- Node18 -->
<g id="Node000018" class="node">
<title>Node18</title>
<g id="a_Node000018"><a xlink:href="redir__utils_8c.html#aff3d6a56d03d5df38cbb3e1f171eb191" target="_top" xlink:title="Expands environment variables in a line and writes the result to a file descriptor.">
<polygon fill="white" stroke="#666666" points="1346,-58 1260,-58 1260,-39 1346,-39 1346,-58"/>
<text text-anchor="middle" x="1303" y="-46" font-family="Helvetica,sans-Serif" font-size="10.00">ft_for_env_var</text>
</a>
</g>
</g>
<!-- Node14&#45;&gt;Node18 -->
<g id="edge20_Node000014_Node000018" class="edge">
<title>Node14&#45;&gt;Node18</title>
<g id="a_edge20_Node000014_Node000018"><a xlink:title=" ">
<path fill="none" stroke="#63b8ff" d="M1390.23,-48.5C1375.45,-48.5 1359.98,-48.5 1346.29,-48.5"/>
<polygon fill="#63b8ff" stroke="#63b8ff" points="1390.33,-52 1400.33,-48.5 1390.33,-45 1390.33,-52"/>
</a>
</g>
</g>
<!-- Node16 -->
<g id="Node000016" class="node">
<title>Node16</title>
<g id="a_Node000016"><a xlink:href="create__command__list_8c.html#ad16d74756b107a98677124008c71d23b" target="_top" xlink:title="Creates a command list from tokens.">
<polygon fill="white" stroke="#666666" points="380.5,-101 312.5,-101 312.5,-82 380.5,-82 380.5,-101"/>
<text text-anchor="middle" x="346.5" y="-89" font-family="Helvetica,sans-Serif" font-size="10.00">create_list</text>
</a>
</g>
</g>
<!-- Node15&#45;&gt;Node16 -->
<g id="edge16_Node000015_Node000016" class="edge">
<title>Node15&#45;&gt;Node16</title>
<g id="a_edge16_Node000015_Node000016"><a xlink:title=" ">
<path fill="none" stroke="#63b8ff" d="M561.77,-91.5C511.85,-91.5 427.1,-91.5 380.55,-91.5"/>
<polygon fill="#63b8ff" stroke="#63b8ff" points="561.87,-95 571.87,-91.5 561.87,-88 561.87,-95"/>
</a>
</g>
</g>
<!-- Node16&#45;&gt;Node5 -->
<g id="edge17_Node000016_Node000005" class="edge">
<title>Node16&#45;&gt;Node5</title>
<g id="a_edge17_Node000016_Node000005"><a xlink:title=" ">
<path fill="none" stroke="#63b8ff" d="M302.12,-98.86C292.6,-100.47 282.56,-102.18 273.19,-103.77"/>
<polygon fill="#63b8ff" stroke="#63b8ff" points="302.93,-102.27 312.2,-97.15 301.75,-95.37 302.93,-102.27"/>
</a>
</g>
</g>
<!-- Node17&#45;&gt;Node5 -->
<g id="edge19_Node000017_Node000005" class="edge">
<title>Node17&#45;&gt;Node5</title>
<g id="a_edge19_Node000017_Node000005"><a xlink:title=" ">
<path fill="none" stroke="#63b8ff" d="M431.28,-22.72C399.39,-35.23 350.62,-54.82 309,-73.5 289.42,-82.29 267.44,-93.18 252.26,-100.87"/>
<polygon fill="#63b8ff" stroke="#63b8ff" points="432.57,-25.98 440.62,-19.08 430.03,-19.46 432.57,-25.98"/>
</a>
</g>
</g>
<!-- Node19 -->
<g id="Node000019" class="node">
<title>Node19</title>
<g id="a_Node000019"><a xlink:href="handle__heredoc_8c.html#ac5ba13b1edbd22e4a7e0a50fc91f80db" target="_top" xlink:title="Executes a single read&#45;write cycle of the here&#45;document.">
<polygon fill="white" stroke="#666666" points="1217,-58 1127,-58 1127,-39 1217,-39 1217,-58"/>
<text text-anchor="middle" x="1172" y="-46" font-family="Helvetica,sans-Serif" font-size="10.00">ft_exe_heredoc</text>
</a>
</g>
</g>
<!-- Node18&#45;&gt;Node19 -->
<g id="edge21_Node000018_Node000019" class="edge">
<title>Node18&#45;&gt;Node19</title>
<g id="a_edge21_Node000018_Node000019"><a xlink:title=" ">
<path fill="none" stroke="#63b8ff" d="M1249.6,-48.5C1238.82,-48.5 1227.56,-48.5 1217.11,-48.5"/>
<polygon fill="#63b8ff" stroke="#63b8ff" points="1249.76,-52 1259.76,-48.5 1249.76,-45 1249.76,-52"/>
</a>
</g>
</g>
<!-- Node20 -->
<g id="Node000020" class="node">
<title>Node20</title>
<g id="a_Node000020"><a xlink:href="handle__heredoc_8c.html#a922eae1c49290306f7cf811bf65d9ed1" target="_top" xlink:title="Handles the entire input process for a here&#45;document.">
<polygon fill="white" stroke="#666666" points="1090,-58 996,-58 996,-39 1090,-39 1090,-58"/>
<text text-anchor="middle" x="1043" y="-46" font-family="Helvetica,sans-Serif" font-size="10.00">handle_heredoc</text>
</a>
</g>
</g>
<!-- Node19&#45;&gt;Node20 -->
<g id="edge22_Node000019_Node000020" class="edge">
<title>Node19&#45;&gt;Node20</title>
<g id="a_edge22_Node000019_Node000020"><a xlink:title=" ">
<path fill="none" stroke="#63b8ff" d="M1116.71,-48.5C1107.86,-48.5 1098.77,-48.5 1090.14,-48.5"/>
<polygon fill="#63b8ff" stroke="#63b8ff" points="1116.94,-52 1126.94,-48.5 1116.94,-45 1116.94,-52"/>
</a>
</g>
</g>
<!-- Node21 -->
<g id="Node000021" class="node">
<title>Node21</title>
<g id="a_Node000021"><a xlink:href="handle__redirections_8c.html#a2834314002a1f4ef4af82f95159b0a34" target="_top" xlink:title="Handles input redirection from file or heredoc.">
<polygon fill="white" stroke="#666666" points="960,-58 841,-58 841,-39 960,-39 960,-58"/>
<text text-anchor="middle" x="900.5" y="-46" font-family="Helvetica,sans-Serif" font-size="10.00">ft_handle_infile_redir</text>
</a>
</g>
</g>
<!-- Node20&#45;&gt;Node21 -->
<g id="edge23_Node000020_Node000021" class="edge">
<title>Node20&#45;&gt;Node21</title>
<g id="a_edge23_Node000020_Node000021"><a xlink:title=" ">
<path fill="none" stroke="#63b8ff" d="M985.86,-48.5C977.41,-48.5 968.67,-48.5 960.17,-48.5"/>
<polygon fill="#63b8ff" stroke="#63b8ff" points="986,-52 996,-48.5 986,-45 986,-52"/>
</a>
</g>
</g>
<!-- Node22 -->
<g id="Node000022" class="node">
<title>Node22</title>
<g id="a_Node000022"><a xlink:href="handle__redirections_8c.html#aa4509a43f47ed881eb2d81fb81458466" target="_top" xlink:title="Handles redirections without an associated command.">
<polygon fill="white" stroke="#666666" points="805,-63.5 692,-63.5 692,-33.5 805,-33.5 805,-63.5"/>
<text text-anchor="start" x="700" y="-51.5" font-family="Helvetica,sans-Serif" font-size="10.00">handle_redirection</text>
<text text-anchor="middle" x="748.5" y="-40.5" font-family="Helvetica,sans-Serif" font-size="10.00">_without_command</text>
</a>
</g>
</g>
<!-- Node21&#45;&gt;Node22 -->
<g id="edge24_Node000021_Node000022" class="edge">
<title>Node21&#45;&gt;Node22</title>
<g id="a_edge24_Node000021_Node000022"><a xlink:title=" ">
<path fill="none" stroke="#63b8ff" d="M830.43,-48.5C821.99,-48.5 813.45,-48.5 805.24,-48.5"/>
<polygon fill="#63b8ff" stroke="#63b8ff" points="830.65,-52 840.65,-48.5 830.65,-45 830.65,-52"/>
</a>
</g>
</g>
<!-- Node23 -->
<g id="Node000023" class="node">
<title>Node23</title>
<g id="a_Node000023"><a xlink:href="handle__redirections_8c.html#ab2c37fefb1291d3f8d0dc91e8c096334" target="_top" xlink:title="Handles redirection associated with a command.">
<polygon fill="white" stroke="#666666" points="656,-60 549,-60 549,-41 656,-41 656,-60"/>
<text text-anchor="middle" x="602.5" y="-48" font-family="Helvetica,sans-Serif" font-size="10.00">handle_redirection</text>
</a>
</g>
</g>
<!-- Node22&#45;&gt;Node23 -->
<g id="edge25_Node000022_Node000023" class="edge">
<title>Node22&#45;&gt;Node23</title>
<g id="a_edge25_Node000022_Node000023"><a xlink:title=" ">
<path fill="none" stroke="#63b8ff" d="M681.55,-49.42C673.05,-49.53 664.44,-49.65 656.19,-49.77"/>
<polygon fill="#63b8ff" stroke="#63b8ff" points="681.88,-52.91 691.83,-49.27 681.78,-45.91 681.88,-52.91"/>
</a>
</g>
</g>
<!-- Node24 -->
<g id="Node000024" class="node">
<title>Node24</title>
<g id="a_Node000024"><a xlink:href="create__command__list_8c.html#ae2006bf82a70d4753ffdca65847316ca" target="_top" xlink:title="Executes a redirection for the current command.">
<polygon fill="white" stroke="#666666" points="503.5,-61 429.5,-61 429.5,-42 503.5,-42 503.5,-61"/>
<text text-anchor="middle" x="466.5" y="-49" font-family="Helvetica,sans-Serif" font-size="10.00">ft_exe_redir</text>
</a>
</g>
</g>
<!-- Node23&#45;&gt;Node24 -->
<g id="edge26_Node000023_Node000024" class="edge">
<title>Node23&#45;&gt;Node24</title>
<g id="a_edge26_Node000023_Node000024"><a xlink:title=" ">
<path fill="none" stroke="#63b8ff" d="M538.9,-50.97C526.87,-51.06 514.65,-51.15 503.8,-51.23"/>
<polygon fill="#63b8ff" stroke="#63b8ff" points="538.95,-54.47 548.92,-50.89 538.9,-47.47 538.95,-54.47"/>
</a>
</g>
</g>
<!-- Node24&#45;&gt;Node16 -->
<g id="edge27_Node000024_Node000016" class="edge">
<title>Node24&#45;&gt;Node16</title>
<g id="a_edge27_Node000024_Node000016"><a xlink:title=" ">
<path fill="none" stroke="#63b8ff" d="M427.63,-64.34C410.71,-70.07 391.11,-76.72 375.53,-82"/>
<polygon fill="#63b8ff" stroke="#63b8ff" points="428.89,-67.61 437.24,-61.08 426.64,-60.98 428.89,-67.61"/>
</a>
</g>
</g>
<!-- Node26 -->
<g id="Node000026" class="node">
<title>Node26</title>
<g id="a_Node000026"><a xlink:href="system__commands_8c.html#a6d8647dce4277e848c613bd0cc3df5bb" target="_top" xlink:title="Executes a system command by creating a child process.">
<polygon fill="white" stroke="#666666" points="1497,-191 1408,-191 1408,-172 1497,-172 1497,-191"/>
<text text-anchor="middle" x="1452.5" y="-179" font-family="Helvetica,sans-Serif" font-size="10.00">ft_exe_syscmd</text>
</a>
</g>
</g>
<!-- Node25&#45;&gt;Node26 -->
<g id="edge29_Node000025_Node000026" class="edge">
<title>Node25&#45;&gt;Node26</title>
<g id="a_edge29_Node000025_Node000026"><a xlink:title=" ">
<path fill="none" stroke="#63b8ff" d="M1542.55,-167.51C1527.65,-169.85 1511.51,-172.38 1497.11,-174.65"/>
<polygon fill="#63b8ff" stroke="#63b8ff" points="1543.29,-170.93 1552.63,-165.92 1542.21,-164.02 1543.29,-170.93"/>
</a>
</g>
</g>
<!-- Node27 -->
<g id="Node000027" class="node">
<title>Node27</title>
<g id="a_Node000027"><a xlink:href="pipes_8c.html#ac1cb08fe66e7823c939af4fab981e93c" target="_top" xlink:title="Executes a system command inside a pipe.">
<polygon fill="white" stroke="#666666" points="1517,-154 1388,-154 1388,-135 1517,-135 1517,-154"/>
<text text-anchor="middle" x="1452.5" y="-142" font-family="Helvetica,sans-Serif" font-size="10.00">ft_exe_syscmd_in_pipe</text>
</a>
</g>
</g>
<!-- Node25&#45;&gt;Node27 -->
<g id="edge31_Node000025_Node000027" class="edge">
<title>Node25&#45;&gt;Node27</title>
<g id="a_edge31_Node000025_Node000027"><a xlink:title=" ">
<path fill="none" stroke="#63b8ff" d="M1542.43,-154.03C1534.19,-153.15 1525.57,-152.22 1517.08,-151.31"/>
<polygon fill="#63b8ff" stroke="#63b8ff" points="1542.31,-157.54 1552.63,-155.12 1543.06,-150.58 1542.31,-157.54"/>
</a>
</g>
</g>
<!-- Node26&#45;&gt;Node4 -->
<g id="edge30_Node000026_Node000004" class="edge">
<title>Node26&#45;&gt;Node4</title>
<g id="a_edge30_Node000026_Node000004"><a xlink:title=" ">
<path fill="none" stroke="#63b8ff" d="M1397.64,-176.39C1378.1,-174.53 1356.54,-172.49 1339.04,-170.83"/>
<polygon fill="#63b8ff" stroke="#63b8ff" points="1397.36,-179.88 1407.64,-177.34 1398.02,-172.91 1397.36,-179.88"/>
</a>
</g>
</g>
<!-- Node27&#45;&gt;Node8 -->
<g id="edge32_Node000027_Node000008" class="edge">
<title>Node27&#45;&gt;Node8</title>
<g id="a_edge32_Node000027_Node000008"><a xlink:title=" ">
<path fill="none" stroke="#63b8ff" d="M1377.62,-136.99C1369.05,-136.11 1360.47,-135.24 1352.37,-134.42"/>
<polygon fill="#63b8ff" stroke="#63b8ff" points="1377.36,-140.48 1387.66,-138.01 1378.07,-133.51 1377.36,-140.48"/>
</a>
</g>
</g>
<!-- Node28&#45;&gt;Node3 -->
<g id="edge34_Node000028_Node000003" class="edge">
<title>Node28&#45;&gt;Node3</title>
<g id="a_edge34_Node000028_Node000003"><a xlink:title=" ">
<path fill="none" stroke="#63b8ff" d="M1550.68,-92.23C1524.67,-96.32 1492.75,-101.33 1472.76,-104.47"/>
<polygon fill="#63b8ff" stroke="#63b8ff" points="1551.34,-95.67 1560.68,-90.66 1550.25,-88.75 1551.34,-95.67"/>
</a>
</g>
</g>
</g>
</svg>
