<?xml version="1.0" encoding="UTF-8" standalone="no"?>
<!DOCTYPE svg PUBLIC "-//W3C//DTD SVG 1.1//EN"
 "http://www.w3.org/Graphics/SVG/1.1/DTD/svg11.dtd">
<!-- Generated by graphviz version 2.43.0 (0)
 -->
<!-- Title: free_all_pipe Pages: 1 -->
<svg width="1239pt" height="350pt"
 viewBox="0.00 0.00 1239.00 349.57" xmlns="http://www.w3.org/2000/svg" xmlns:xlink="http://www.w3.org/1999/xlink">
<g id="graph0" class="graph" transform="scale(1 1) rotate(0) translate(4 345.57)">
<title>free_all_pipe</title>
<!-- Node1 -->
<g id="Node000001" class="node">
<title>Node1</title>
<g id="a_Node000001"><a xlink:title="Frees all resources associated with a list of pipes and the environment.">
<polygon fill="#999999" stroke="#666666" points="1231,-174.57 1151,-174.57 1151,-155.57 1231,-155.57 1231,-174.57"/>
<text text-anchor="middle" x="1191" y="-162.57" font-family="Helvetica,sans-Serif" font-size="10.00">free_all_pipe</text>
</a>
</g>
</g>
<!-- Node2 -->
<g id="Node000002" class="node">
<title>Node2</title>
<g id="a_Node000002"><a xlink:href="ft__cd_8c.html#af438919e376d2d0df3830120118ea526" target="_top" xlink:title="Builtin function for the cd (change directory) command.">
<polygon fill="white" stroke="#666666" points="974,-230.57 934,-230.57 934,-211.57 974,-211.57 974,-230.57"/>
<text text-anchor="middle" x="954" y="-218.57" font-family="Helvetica,sans-Serif" font-size="10.00">ft_cd</text>
</a>
</g>
</g>
<!-- Node1&#45;&gt;Node2 -->
<g id="edge1_Node000001_Node000002" class="edge">
<title>Node1&#45;&gt;Node2</title>
<g id="a_edge1_Node000001_Node000002"><a xlink:title=" ">
<path fill="none" stroke="#63b8ff" d="M1151.16,-177.74C1139.59,-181.31 1126.84,-185.04 1115,-188.07 1064.72,-200.93 1004.56,-212.27 974.34,-217.69"/>
<polygon fill="#63b8ff" stroke="#63b8ff" points="1152.48,-181 1160.97,-174.67 1150.39,-174.32 1152.48,-181"/>
</a>
</g>
</g>
<!-- Node7 -->
<g id="Node000007" class="node">
<title>Node7</title>
<g id="a_Node000007"><a xlink:href="cmd__execution_8c.html#a50e59fa2e4621831a415d4038f697c56" target="_top" xlink:title="Executes a command within a pipeline.">
<polygon fill="white" stroke="#666666" points="888,-193.57 790,-193.57 790,-174.57 888,-174.57 888,-193.57"/>
<text text-anchor="middle" x="839" y="-181.57" font-family="Helvetica,sans-Serif" font-size="10.00">ft_exe_pipe_cmd</text>
</a>
</g>
</g>
<!-- Node1&#45;&gt;Node7 -->
<g id="edge22_Node000001_Node000007" class="edge">
<title>Node1&#45;&gt;Node7</title>
<g id="a_edge22_Node000001_Node000007"><a xlink:title=" ">
<path fill="none" stroke="#63b8ff" d="M1186.91,-145.27C1180.43,-111.39 1161.94,-43.16 1115,-14.07 1079.11,8.18 1059.88,-0.19 1020,-14.07 933.12,-44.29 865.71,-142.78 845.93,-174.28"/>
<polygon fill="#63b8ff" stroke="#63b8ff" points="1183.5,-146.08 1188.67,-155.33 1190.39,-144.88 1183.5,-146.08"/>
</a>
</g>
</g>
<!-- Node12 -->
<g id="Node000012" class="node">
<title>Node12</title>
<g id="a_Node000012"><a xlink:href="ft__echo_8c.html#a177f72f5eedf5cdf35c113ae47966c4b" target="_top" xlink:title="Builtin function for the echo command.">
<polygon fill="white" stroke="#666666" points="980,-193.57 928,-193.57 928,-174.57 980,-174.57 980,-193.57"/>
<text text-anchor="middle" x="954" y="-181.57" font-family="Helvetica,sans-Serif" font-size="10.00">ft_echo</text>
</a>
</g>
</g>
<!-- Node1&#45;&gt;Node12 -->
<g id="edge12_Node000001_Node000012" class="edge">
<title>Node1&#45;&gt;Node12</title>
<g id="a_edge12_Node000001_Node000012"><a xlink:title=" ">
<path fill="none" stroke="#63b8ff" d="M1140.84,-169.04C1091.74,-173.01 1018.23,-178.96 980.05,-182.04"/>
<polygon fill="#63b8ff" stroke="#63b8ff" points="1141.25,-172.52 1150.93,-168.23 1140.68,-165.54 1141.25,-172.52"/>
</a>
</g>
</g>
<!-- Node13 -->
<g id="Node000013" class="node">
<title>Node13</title>
<g id="a_Node000013"><a xlink:href="env_8c.html#a6a15443c9c0b34afef3d21f19e385995" target="_top" xlink:title="Builtin function for the env command.">
<polygon fill="white" stroke="#666666" points="977.5,-156.57 930.5,-156.57 930.5,-137.57 977.5,-137.57 977.5,-156.57"/>
<text text-anchor="middle" x="954" y="-144.57" font-family="Helvetica,sans-Serif" font-size="10.00">ft_env</text>
</a>
</g>
</g>
<!-- Node1&#45;&gt;Node13 -->
<g id="edge15_Node000001_Node000013" class="edge">
<title>Node1&#45;&gt;Node13</title>
<g id="a_edge15_Node000001_Node000013"><a xlink:title=" ">
<path fill="none" stroke="#63b8ff" d="M1140.65,-161.29C1090.56,-157.45 1015.21,-151.68 977.78,-148.81"/>
<polygon fill="#63b8ff" stroke="#63b8ff" points="1140.69,-164.8 1150.93,-162.08 1141.23,-157.82 1140.69,-164.8"/>
</a>
</g>
</g>
<!-- Node14 -->
<g id="Node000014" class="node">
<title>Node14</title>
<g id="a_Node000014"><a xlink:href="exit_8c.html#a81b8a91253c822b248934172be9eee03" target="_top" xlink:title="Handles errors related to non&#45;numeric or null exit arguments.">
<polygon fill="white" stroke="#666666" points="1105.5,-79.57 1029.5,-79.57 1029.5,-60.57 1105.5,-60.57 1105.5,-79.57"/>
<text text-anchor="middle" x="1067.5" y="-67.57" font-family="Helvetica,sans-Serif" font-size="10.00">ft_error_exit</text>
</a>
</g>
</g>
<!-- Node1&#45;&gt;Node14 -->
<g id="edge18_Node000001_Node000014" class="edge">
<title>Node1&#45;&gt;Node14</title>
<g id="a_edge18_Node000001_Node000014"><a xlink:title=" ">
<path fill="none" stroke="#63b8ff" d="M1174.37,-147.72C1159.96,-132.37 1137.45,-110 1115,-94.07 1107.3,-88.6 1098.18,-83.61 1090.06,-79.62"/>
<polygon fill="#63b8ff" stroke="#63b8ff" points="1172.14,-150.46 1181.49,-155.43 1177.28,-145.71 1172.14,-150.46"/>
</a>
</g>
</g>
<!-- Node15 -->
<g id="Node000015" class="node">
<title>Node15</title>
<g id="a_Node000015"><a xlink:href="exit_8c.html#af0d4948984577b715a89f18d5864cfa2" target="_top" xlink:title="Builtin function for the exit command.">
<polygon fill="white" stroke="#666666" points="977.5,-117.57 930.5,-117.57 930.5,-98.57 977.5,-98.57 977.5,-117.57"/>
<text text-anchor="middle" x="954" y="-105.57" font-family="Helvetica,sans-Serif" font-size="10.00">ft_exit</text>
</a>
</g>
</g>
<!-- Node1&#45;&gt;Node15 -->
<g id="edge23_Node000001_Node000015" class="edge">
<title>Node1&#45;&gt;Node15</title>
<g id="a_edge23_Node000001_Node000015"><a xlink:title=" ">
<path fill="none" stroke="#63b8ff" d="M1140.96,-153.17C1090.87,-141.02 1015.29,-122.69 977.78,-113.59"/>
<polygon fill="#63b8ff" stroke="#63b8ff" points="1140.39,-156.64 1150.93,-155.59 1142.04,-149.83 1140.39,-156.64"/>
</a>
</g>
</g>
<!-- Node16 -->
<g id="Node000016" class="node">
<title>Node16</title>
<g id="a_Node000016"><a xlink:href="exit_8c.html#a31166fb7eed428449a3e6183d4fa1642" target="_top" xlink:title="Checks if there are too many arguments for the exit command.">
<polygon fill="white" stroke="#666666" points="1115,-42.57 1020,-42.57 1020,-23.57 1115,-23.57 1115,-42.57"/>
<text text-anchor="middle" x="1067.5" y="-30.57" font-family="Helvetica,sans-Serif" font-size="10.00">ft_exit_too_args</text>
</a>
</g>
</g>
<!-- Node1&#45;&gt;Node16 -->
<g id="edge24_Node000001_Node000016" class="edge">
<title>Node1&#45;&gt;Node16</title>
<g id="a_edge24_Node000001_Node000016"><a xlink:title=" ">
<path fill="none" stroke="#63b8ff" d="M1182.07,-146.21C1170.67,-121.21 1147.4,-77.22 1115,-51.07 1110.82,-47.7 1105.94,-44.9 1100.94,-42.6"/>
<polygon fill="#63b8ff" stroke="#63b8ff" points="1178.86,-147.62 1186.1,-155.36 1185.27,-144.8 1178.86,-147.62"/>
</a>
</g>
</g>
<!-- Node17 -->
<g id="Node000017" class="node">
<title>Node17</title>
<g id="a_Node000017"><a xlink:href="export_8c.html#a2b0f2ba2e9188c7b4f6ca5a44c1d0c8e" target="_top" xlink:title="Builtin function for the export command.">
<polygon fill="white" stroke="#666666" points="984,-341.57 924,-341.57 924,-322.57 984,-322.57 984,-341.57"/>
<text text-anchor="middle" x="954" y="-329.57" font-family="Helvetica,sans-Serif" font-size="10.00">ft_export</text>
</a>
</g>
</g>
<!-- Node1&#45;&gt;Node17 -->
<g id="edge26_Node000001_Node000017" class="edge">
<title>Node1&#45;&gt;Node17</title>
<g id="a_edge26_Node000001_Node000017"><a xlink:title=" ">
<path fill="none" stroke="#63b8ff" d="M1181.6,-183.88C1169.94,-208 1146.65,-249.61 1115,-274.07 1075.49,-304.6 1018.42,-320.1 984.19,-327.1"/>
<polygon fill="#63b8ff" stroke="#63b8ff" points="1184.82,-185.26 1185.88,-174.72 1178.48,-182.3 1184.82,-185.26"/>
</a>
</g>
</g>
<!-- Node18 -->
<g id="Node000018" class="node">
<title>Node18</title>
<g id="a_Node000018"><a xlink:href="pwd_8c.html#a445dbcbb87f52cdbb07a078f21b198c4" target="_top" xlink:title="Builtin function for the pwd (print working directory) command.">
<polygon fill="white" stroke="#666666" points="978.5,-304.57 929.5,-304.57 929.5,-285.57 978.5,-285.57 978.5,-304.57"/>
<text text-anchor="middle" x="954" y="-292.57" font-family="Helvetica,sans-Serif" font-size="10.00">ft_pwd</text>
</a>
</g>
</g>
<!-- Node1&#45;&gt;Node18 -->
<g id="edge29_Node000001_Node000018" class="edge">
<title>Node1&#45;&gt;Node18</title>
<g id="a_edge29_Node000001_Node000018"><a xlink:title=" ">
<path fill="none" stroke="#63b8ff" d="M1176.68,-182.73C1162.94,-199.83 1140.03,-225.42 1115,-241.07 1071,-268.58 1011.36,-283.86 978.74,-290.67"/>
<polygon fill="#63b8ff" stroke="#63b8ff" points="1179.6,-184.68 1183,-174.65 1174.08,-180.37 1179.6,-184.68"/>
</a>
</g>
</g>
<!-- Node19 -->
<g id="Node000019" class="node">
<title>Node19</title>
<g id="a_Node000019"><a xlink:href="unset_8c.html#afc37f76bba8f618bcf9eaafa7ee23618" target="_top" xlink:title="Builtin function for the unset command.">
<polygon fill="white" stroke="#666666" points="982,-267.57 926,-267.57 926,-248.57 982,-248.57 982,-267.57"/>
<text text-anchor="middle" x="954" y="-255.57" font-family="Helvetica,sans-Serif" font-size="10.00">ft_unset</text>
</a>
</g>
</g>
<!-- Node1&#45;&gt;Node19 -->
<g id="edge32_Node000001_Node000019" class="edge">
<title>Node1&#45;&gt;Node19</title>
<g id="a_edge32_Node000001_Node000019"><a xlink:title=" ">
<path fill="none" stroke="#63b8ff" d="M1168.8,-180.61C1154.25,-190.7 1134.17,-203.51 1115,-212.07 1070.26,-232.04 1014.63,-245.73 982.13,-252.7"/>
<polygon fill="#63b8ff" stroke="#63b8ff" points="1170.94,-183.38 1177.08,-174.74 1166.9,-177.66 1170.94,-183.38"/>
</a>
</g>
</g>
<!-- Node3 -->
<g id="Node000003" class="node">
<title>Node3</title>
<g id="a_Node000003"><a xlink:href="cmd__execution_8c.html#a5ce7231f800cbacea6350cc1a32a59bd" target="_top" xlink:title="Executes a list of non&#45;pipelined commands.">
<polygon fill="white" stroke="#666666" points="875,-230.57 803,-230.57 803,-211.57 875,-211.57 875,-230.57"/>
<text text-anchor="middle" x="839" y="-218.57" font-family="Helvetica,sans-Serif" font-size="10.00">ft_exe_cmd</text>
</a>
</g>
</g>
<!-- Node2&#45;&gt;Node3 -->
<g id="edge2_Node000002_Node000003" class="edge">
<title>Node2&#45;&gt;Node3</title>
<g id="a_edge2_Node000002_Node000003"><a xlink:title=" ">
<path fill="none" stroke="#63b8ff" d="M923.72,-221.07C908.92,-221.07 890.84,-221.07 875.28,-221.07"/>
<polygon fill="#63b8ff" stroke="#63b8ff" points="923.83,-224.57 933.83,-221.07 923.83,-217.57 923.83,-224.57"/>
</a>
</g>
</g>
<!-- Node2&#45;&gt;Node7 -->
<g id="edge6_Node000002_Node000007" class="edge">
<title>Node2&#45;&gt;Node7</title>
<g id="a_edge6_Node000002_Node000007"><a xlink:title=" ">
<path fill="none" stroke="#63b8ff" d="M923.96,-211.56C907.1,-206.04 885.91,-199.1 869.04,-193.58"/>
<polygon fill="#63b8ff" stroke="#63b8ff" points="923.24,-215.01 933.83,-214.79 925.42,-208.35 923.24,-215.01"/>
</a>
</g>
</g>
<!-- Node4 -->
<g id="Node000004" class="node">
<title>Node4</title>
<g id="a_Node000004"><a xlink:href="main__utils_8c.html#a7e8f478480ab6ab34d6f5eadaf6acdb9" target="_top" xlink:title="Handles parsing and execution of tokens.">
<polygon fill="white" stroke="#666666" points="273,-212.57 192,-212.57 192,-193.57 273,-193.57 273,-212.57"/>
<text text-anchor="middle" x="232.5" y="-200.57" font-family="Helvetica,sans-Serif" font-size="10.00">ft_token_flow</text>
</a>
</g>
</g>
<!-- Node3&#45;&gt;Node4 -->
<g id="edge3_Node000003_Node000004" class="edge">
<title>Node3&#45;&gt;Node4</title>
<g id="a_edge3_Node000003_Node000004"><a xlink:title=" ">
<path fill="none" stroke="#63b8ff" d="M792.83,-221.35C741.77,-221.65 656.16,-222.07 582.5,-222.07 582.5,-222.07 582.5,-222.07 459.5,-222.07 393.94,-222.07 318.06,-214.03 273.02,-208.41"/>
<polygon fill="#63b8ff" stroke="#63b8ff" points="792.89,-224.85 802.87,-221.29 792.85,-217.85 792.89,-224.85"/>
</a>
</g>
</g>
<!-- Node5 -->
<g id="Node000005" class="node">
<title>Node5</title>
<g id="a_Node000005"><a xlink:href="main__utils_8c.html#ae35edfb8f1339d6f77f53c28eb2a2ed6" target="_top" xlink:title="Handles a complete cycle of input → parsing → execution.">
<polygon fill="white" stroke="#666666" points="156,-212.57 77,-212.57 77,-193.57 156,-193.57 156,-212.57"/>
<text text-anchor="middle" x="116.5" y="-200.57" font-family="Helvetica,sans-Serif" font-size="10.00">ft_main_flow</text>
</a>
</g>
</g>
<!-- Node4&#45;&gt;Node5 -->
<g id="edge4_Node000004_Node000005" class="edge">
<title>Node4&#45;&gt;Node5</title>
<g id="a_edge4_Node000004_Node000005"><a xlink:title=" ">
<path fill="none" stroke="#63b8ff" d="M181.7,-203.07C173.16,-203.07 164.4,-203.07 156.21,-203.07"/>
<polygon fill="#63b8ff" stroke="#63b8ff" points="181.95,-206.57 191.95,-203.07 181.95,-199.57 181.95,-206.57"/>
</a>
</g>
</g>
<!-- Node6 -->
<g id="Node000006" class="node">
<title>Node6</title>
<g id="a_Node000006"><a xlink:href="main_8c.html#ab3862b46d6a8d13c2d884a297e6b05b5" target="_top" xlink:title="Main function of the minishell.">
<polygon fill="white" stroke="#666666" points="41,-212.57 0,-212.57 0,-193.57 41,-193.57 41,-212.57"/>
<text text-anchor="middle" x="20.5" y="-200.57" font-family="Helvetica,sans-Serif" font-size="10.00">main</text>
</a>
</g>
</g>
<!-- Node5&#45;&gt;Node6 -->
<g id="edge5_Node000005_Node000006" class="edge">
<title>Node5&#45;&gt;Node6</title>
<g id="a_edge5_Node000005_Node000006"><a xlink:title=" ">
<path fill="none" stroke="#63b8ff" d="M66.74,-203.07C57.62,-203.07 48.59,-203.07 41.03,-203.07"/>
<polygon fill="#63b8ff" stroke="#63b8ff" points="67,-206.57 77,-203.07 67,-199.57 67,-206.57"/>
</a>
</g>
</g>
<!-- Node8 -->
<g id="Node000008" class="node">
<title>Node8</title>
<g id="a_Node000008"><a xlink:href="pipes_8c.html#a36a2d91a0566ad253efe3833b05e69d1" target="_top" xlink:title="Routine executed by the child process for each command in the pipe.">
<polygon fill="white" stroke="#666666" points="754,-193.57 662,-193.57 662,-174.57 754,-174.57 754,-193.57"/>
<text text-anchor="middle" x="708" y="-181.57" font-family="Helvetica,sans-Serif" font-size="10.00">ft_child_routine</text>
</a>
</g>
</g>
<!-- Node7&#45;&gt;Node8 -->
<g id="edge7_Node000007_Node000008" class="edge">
<title>Node7&#45;&gt;Node8</title>
<g id="a_edge7_Node000007_Node000008"><a xlink:title=" ">
<path fill="none" stroke="#63b8ff" d="M779.91,-184.07C771.24,-184.07 762.42,-184.07 754.08,-184.07"/>
<polygon fill="#63b8ff" stroke="#63b8ff" points="779.97,-187.57 789.97,-184.07 779.97,-180.57 779.97,-187.57"/>
</a>
</g>
</g>
<!-- Node9 -->
<g id="Node000009" class="node">
<title>Node9</title>
<g id="a_Node000009"><a xlink:href="pipes_8c.html#aa17e847997e7266a0a111ab3572756bb" target="_top" xlink:title="Manages pipe creation and fork to execute the current command.">
<polygon fill="white" stroke="#666666" points="626,-193.57 537,-193.57 537,-174.57 626,-174.57 626,-193.57"/>
<text text-anchor="middle" x="581.5" y="-181.57" font-family="Helvetica,sans-Serif" font-size="10.00">ft_pipe_routine</text>
</a>
</g>
</g>
<!-- Node8&#45;&gt;Node9 -->
<g id="edge8_Node000008_Node000009" class="edge">
<title>Node8&#45;&gt;Node9</title>
<g id="a_edge8_Node000008_Node000009"><a xlink:title=" ">
<path fill="none" stroke="#63b8ff" d="M651.52,-184.07C643.08,-184.07 634.46,-184.07 626.31,-184.07"/>
<polygon fill="#63b8ff" stroke="#63b8ff" points="651.7,-187.57 661.7,-184.07 651.7,-180.57 651.7,-187.57"/>
</a>
</g>
</g>
<!-- Node10 -->
<g id="Node000010" class="node">
<title>Node10</title>
<g id="a_Node000010"><a xlink:href="pipes_8c.html#a7a3b0de1a88a243da741f748881e14f0" target="_top" xlink:title="Executes a list of commands connected via pipes.">
<polygon fill="white" stroke="#666666" points="501,-193.57 420,-193.57 420,-174.57 501,-174.57 501,-193.57"/>
<text text-anchor="middle" x="460.5" y="-181.57" font-family="Helvetica,sans-Serif" font-size="10.00">execute_pipe</text>
</a>
</g>
</g>
<!-- Node9&#45;&gt;Node10 -->
<g id="edge9_Node000009_Node000010" class="edge">
<title>Node9&#45;&gt;Node10</title>
<g id="a_edge9_Node000009_Node000010"><a xlink:title=" ">
<path fill="none" stroke="#63b8ff" d="M526.85,-184.07C518.22,-184.07 509.42,-184.07 501.19,-184.07"/>
<polygon fill="#63b8ff" stroke="#63b8ff" points="526.86,-187.57 536.86,-184.07 526.86,-180.57 526.86,-187.57"/>
</a>
</g>
</g>
<!-- Node11 -->
<g id="Node000011" class="node">
<title>Node11</title>
<g id="a_Node000011"><a xlink:href="main__utils_8c.html#ad0183732909ae6e7c52e7b086c2e5642" target="_top" xlink:title="Manages the execution flow of commands with pipes.">
<polygon fill="white" stroke="#666666" points="384,-193.57 309,-193.57 309,-174.57 384,-174.57 384,-193.57"/>
<text text-anchor="middle" x="346.5" y="-181.57" font-family="Helvetica,sans-Serif" font-size="10.00">ft_pipe_flow</text>
</a>
</g>
</g>
<!-- Node10&#45;&gt;Node11 -->
<g id="edge10_Node000010_Node000011" class="edge">
<title>Node10&#45;&gt;Node11</title>
<g id="a_edge10_Node000010_Node000011"><a xlink:title=" ">
<path fill="none" stroke="#63b8ff" d="M409.47,-184.07C400.96,-184.07 392.26,-184.07 384.18,-184.07"/>
<polygon fill="#63b8ff" stroke="#63b8ff" points="409.7,-187.57 419.7,-184.07 409.7,-180.57 409.7,-187.57"/>
</a>
</g>
</g>
<!-- Node11&#45;&gt;Node4 -->
<g id="edge11_Node000011_Node000004" class="edge">
<title>Node11&#45;&gt;Node4</title>
<g id="a_edge11_Node000011_Node000004"><a xlink:title=" ">
<path fill="none" stroke="#63b8ff" d="M298.73,-192C290.29,-193.43 281.57,-194.91 273.35,-196.31"/>
<polygon fill="#63b8ff" stroke="#63b8ff" points="299.55,-195.41 308.83,-190.29 298.38,-188.51 299.55,-195.41"/>
</a>
</g>
</g>
<!-- Node12&#45;&gt;Node3 -->
<g id="edge13_Node000012_Node000003" class="edge">
<title>Node12&#45;&gt;Node3</title>
<g id="a_edge13_Node000012_Node000003"><a xlink:title=" ">
<path fill="none" stroke="#63b8ff" d="M918.1,-195.49C902.5,-200.6 884.31,-206.56 869.41,-211.44"/>
<polygon fill="#63b8ff" stroke="#63b8ff" points="919.51,-198.72 927.92,-192.28 917.33,-192.07 919.51,-198.72"/>
</a>
</g>
</g>
<!-- Node12&#45;&gt;Node7 -->
<g id="edge14_Node000012_Node000007" class="edge">
<title>Node12&#45;&gt;Node7</title>
<g id="a_edge14_Node000012_Node000007"><a xlink:title=" ">
<path fill="none" stroke="#63b8ff" d="M917.8,-184.07C908.42,-184.07 898.14,-184.07 888.2,-184.07"/>
<polygon fill="#63b8ff" stroke="#63b8ff" points="917.92,-187.57 927.92,-184.07 917.92,-180.57 917.92,-187.57"/>
</a>
</g>
</g>
<!-- Node13&#45;&gt;Node3 -->
<g id="edge16_Node000013_Node000003" class="edge">
<title>Node13&#45;&gt;Node3</title>
<g id="a_edge16_Node000013_Node000003"><a xlink:title=" ">
<path fill="none" stroke="#63b8ff" d="M928.29,-162.71C926.82,-163.81 925.37,-164.94 924,-166.07 906.3,-180.66 907.21,-190.51 888,-203.07 882.93,-206.38 877.17,-209.2 871.44,-211.56"/>
<polygon fill="#63b8ff" stroke="#63b8ff" points="930.69,-165.3 936.9,-156.72 926.7,-159.56 930.69,-165.3"/>
</a>
</g>
</g>
<!-- Node13&#45;&gt;Node7 -->
<g id="edge17_Node000013_Node000007" class="edge">
<title>Node13&#45;&gt;Node7</title>
<g id="a_edge17_Node000013_Node000007"><a xlink:title=" ">
<path fill="none" stroke="#63b8ff" d="M920.82,-157.6C904.65,-162.9 885.19,-169.27 869.42,-174.43"/>
<polygon fill="#63b8ff" stroke="#63b8ff" points="921.99,-160.9 930.4,-154.47 919.81,-154.25 921.99,-160.9"/>
</a>
</g>
</g>
<!-- Node14&#45;&gt;Node15 -->
<g id="edge19_Node000014_Node000015" class="edge">
<title>Node14&#45;&gt;Node15</title>
<g id="a_edge19_Node000014_Node000015"><a xlink:title=" ">
<path fill="none" stroke="#63b8ff" d="M1028.69,-82.95C1011.68,-88.75 992.18,-95.4 977.51,-100.4"/>
<polygon fill="#63b8ff" stroke="#63b8ff" points="1030.03,-86.2 1038.36,-79.66 1027.77,-79.57 1030.03,-86.2"/>
</a>
</g>
</g>
<!-- Node15&#45;&gt;Node3 -->
<g id="edge20_Node000015_Node000003" class="edge">
<title>Node15&#45;&gt;Node3</title>
<g id="a_edge20_Node000015_Node000003"><a xlink:title=" ">
<path fill="none" stroke="#63b8ff" d="M928.83,-124.07C927.1,-125.66 925.46,-127.33 924,-129.07 900.48,-157.08 915.05,-178.45 888,-203.07 884.31,-206.42 879.94,-209.17 875.37,-211.42"/>
<polygon fill="#63b8ff" stroke="#63b8ff" points="931.16,-126.69 936.77,-117.7 926.78,-121.22 931.16,-126.69"/>
</a>
</g>
</g>
<!-- Node15&#45;&gt;Node7 -->
<g id="edge21_Node000015_Node000007" class="edge">
<title>Node15&#45;&gt;Node7</title>
<g id="a_edge21_Node000015_Node000007"><a xlink:title=" ">
<path fill="none" stroke="#63b8ff" d="M930.31,-123.33C907.59,-138.61 873.32,-161.66 854.2,-174.52"/>
<polygon fill="#63b8ff" stroke="#63b8ff" points="932.34,-126.18 938.69,-117.69 928.44,-120.37 932.34,-126.18"/>
</a>
</g>
</g>
<!-- Node16&#45;&gt;Node15 -->
<g id="edge25_Node000016_Node000015" class="edge">
<title>Node16&#45;&gt;Node15</title>
<g id="a_edge25_Node000016_Node000015"><a xlink:title=" ">
<path fill="none" stroke="#63b8ff" d="M1027.86,-46.79C1025.15,-48.13 1022.5,-49.55 1020,-51.07 997.66,-64.6 975.66,-86.07 963.86,-98.43"/>
<polygon fill="#63b8ff" stroke="#63b8ff" points="1029.53,-49.88 1037.23,-42.59 1026.67,-43.49 1029.53,-49.88"/>
</a>
</g>
</g>
<!-- Node17&#45;&gt;Node3 -->
<g id="edge27_Node000017_Node000003" class="edge">
<title>Node17&#45;&gt;Node3</title>
<g id="a_edge27_Node000017_Node000003"><a xlink:title=" ">
<path fill="none" stroke="#63b8ff" d="M927.55,-316.87C926.33,-315.95 925.14,-315.02 924,-314.07 891.94,-287.29 860.72,-248.37 847.11,-230.58"/>
<polygon fill="#63b8ff" stroke="#63b8ff" points="925.65,-319.81 935.89,-322.55 929.6,-314.03 925.65,-319.81"/>
</a>
</g>
</g>
<!-- Node17&#45;&gt;Node7 -->
<g id="edge28_Node000017_Node000007" class="edge">
<title>Node17&#45;&gt;Node7</title>
<g id="a_edge28_Node000017_Node000007"><a xlink:title=" ">
<path fill="none" stroke="#63b8ff" d="M925.52,-315.86C924.99,-315.28 924.48,-314.68 924,-314.07 892.02,-273.24 923.49,-240.88 888,-203.07 884.44,-199.28 880.03,-196.23 875.34,-193.78"/>
<polygon fill="#63b8ff" stroke="#63b8ff" points="923.49,-318.73 933.37,-322.54 928.02,-313.39 923.49,-318.73"/>
</a>
</g>
</g>
<!-- Node18&#45;&gt;Node3 -->
<g id="edge30_Node000018_Node000003" class="edge">
<title>Node18&#45;&gt;Node3</title>
<g id="a_edge30_Node000018_Node000003"><a xlink:title=" ">
<path fill="none" stroke="#63b8ff" d="M928.53,-279.96C926.99,-278.98 925.47,-278.02 924,-277.07 899.24,-261.13 870.8,-242 854.18,-230.72"/>
<polygon fill="#63b8ff" stroke="#63b8ff" points="926.96,-283.1 937.29,-285.45 930.67,-277.17 926.96,-283.1"/>
</a>
</g>
</g>
<!-- Node18&#45;&gt;Node7 -->
<g id="edge31_Node000018_Node000007" class="edge">
<title>Node18&#45;&gt;Node7</title>
<g id="a_edge31_Node000018_Node000007"><a xlink:title=" ">
<path fill="none" stroke="#63b8ff" d="M925.97,-279.09C925.28,-278.44 924.63,-277.76 924,-277.07 899.5,-249.91 914.82,-227.93 888,-203.07 883.92,-199.29 879.01,-196.23 873.9,-193.76"/>
<polygon fill="#63b8ff" stroke="#63b8ff" points="924,-282 934.02,-285.45 928.34,-276.51 924,-282"/>
</a>
</g>
</g>
<!-- Node19&#45;&gt;Node3 -->
<g id="edge33_Node000019_Node000003" class="edge">
<title>Node19&#45;&gt;Node3</title>
<g id="a_edge33_Node000019_Node000003"><a xlink:title=" ">
<path fill="none" stroke="#63b8ff" d="M916.28,-246.05C901.03,-241.05 883.58,-235.34 869.22,-230.64"/>
<polygon fill="#63b8ff" stroke="#63b8ff" points="915.34,-249.42 925.93,-249.21 917.52,-242.77 915.34,-249.42"/>
</a>
</g>
</g>
<!-- Node19&#45;&gt;Node7 -->
<g id="edge34_Node000019_Node000007" class="edge">
<title>Node19&#45;&gt;Node7</title>
<g id="a_edge34_Node000019_Node000007"><a xlink:title=" ">
<path fill="none" stroke="#63b8ff" d="M927.6,-242.82C926.36,-241.92 925.15,-241 924,-240.07 906.12,-225.69 907.09,-215.79 888,-203.07 882.48,-199.39 876.14,-196.25 869.92,-193.64"/>
<polygon fill="#63b8ff" stroke="#63b8ff" points="925.72,-245.77 935.96,-248.46 929.63,-239.97 925.72,-245.77"/>
</a>
</g>
</g>
</g>
</svg>
