<?xml version="1.0" encoding="UTF-8" standalone="no"?>
<!DOCTYPE svg PUBLIC "-//W3C//DTD SVG 1.1//EN"
 "http://www.w3.org/Graphics/SVG/1.1/DTD/svg11.dtd">
<!-- Generated by graphviz version 2.43.0 (0)
 -->
<!-- Title: ft_add_var Pages: 1 -->
<svg width="612pt" height="248pt"
 viewBox="0.00 0.00 612.00 248.00" xmlns="http://www.w3.org/2000/svg" xmlns:xlink="http://www.w3.org/1999/xlink">
<g id="graph0" class="graph" transform="scale(1 1) rotate(0) translate(4 244)">
<title>ft_add_var</title>
<!-- Node1 -->
<g id="Node000001" class="node">
<title>Node1</title>
<g id="a_Node000001"><a xlink:title="Adds a new variable to the environment (env&#45;&gt;env_copy).">
<polygon fill="#999999" stroke="#666666" points="68,-111 0,-111 0,-92 68,-92 68,-111"/>
<text text-anchor="middle" x="34" y="-99" font-family="Helvetica,sans-Serif" font-size="10.00">ft_add_var</text>
</a>
</g>
</g>
<!-- Node2 -->
<g id="Node000002" class="node">
<title>Node2</title>
<g id="a_Node000002"><a xlink:href="ft__printf_8c.html#a091532b7f37af84bdecc84dccf4eedb1" target="_top" xlink:title="A simplified printf function that outputs formatted data to a given file descriptor.">
<polygon fill="white" stroke="#666666" points="174.5,-148 119.5,-148 119.5,-129 174.5,-129 174.5,-148"/>
<text text-anchor="middle" x="147" y="-136" font-family="Helvetica,sans-Serif" font-size="10.00">ft_printf</text>
</a>
</g>
</g>
<!-- Node1&#45;&gt;Node2 -->
<g id="edge1_Node000001_Node000002" class="edge">
<title>Node1&#45;&gt;Node2</title>
<g id="a_edge1_Node000001_Node000002"><a xlink:title=" ">
<path fill="none" stroke="#63b8ff" d="M63.59,-111.03C77.71,-115.74 94.9,-121.47 109.92,-126.47"/>
<polygon fill="#63b8ff" stroke="#63b8ff" points="108.82,-129.8 119.42,-129.64 111.04,-123.16 108.82,-129.8"/>
</a>
</g>
</g>
<!-- Node12 -->
<g id="Node000012" class="node">
<title>Node12</title>
<g id="a_Node000012"><a xlink:href="ft__realloc_8c.html#a9614b2d66dc188037d9d5144c4f63af5" target="_top" xlink:title="Reallocates a NULL&#45;terminated matrix of strings to a new size.">
<polygon fill="white" stroke="#666666" points="190,-111 104,-111 104,-92 190,-92 190,-111"/>
<text text-anchor="middle" x="147" y="-99" font-family="Helvetica,sans-Serif" font-size="10.00">ft_realloc_mtx</text>
</a>
</g>
</g>
<!-- Node1&#45;&gt;Node12 -->
<g id="edge16_Node000001_Node000012" class="edge">
<title>Node1&#45;&gt;Node12</title>
<g id="a_edge16_Node000001_Node000012"><a xlink:title=" ">
<path fill="none" stroke="#63b8ff" d="M68,-101.5C76.09,-101.5 84.94,-101.5 93.68,-101.5"/>
<polygon fill="#63b8ff" stroke="#63b8ff" points="93.85,-105 103.85,-101.5 93.85,-98 93.85,-105"/>
</a>
</g>
</g>
<!-- Node14 -->
<g id="Node000014" class="node">
<title>Node14</title>
<g id="a_Node000014"><a xlink:href="ft__strdup_8c.html#aebe73f27c70c56ac5053f860ef5436c9" target="_top" xlink:title="Duplicates a null&#45;terminated string by allocating memory.">
<polygon fill="white" stroke="#666666" points="298.5,-74 239.5,-74 239.5,-55 298.5,-55 298.5,-74"/>
<text text-anchor="middle" x="269" y="-62" font-family="Helvetica,sans-Serif" font-size="10.00">ft_strdup</text>
</a>
</g>
</g>
<!-- Node1&#45;&gt;Node14 -->
<g id="edge19_Node000001_Node000014" class="edge">
<title>Node1&#45;&gt;Node14</title>
<g id="a_edge19_Node000001_Node000014"><a xlink:title=" ">
<path fill="none" stroke="#63b8ff" d="M65.67,-91.93C77.54,-88.52 91.31,-84.93 104,-82.5 146.39,-74.39 195.7,-69.59 229.1,-67.01"/>
<polygon fill="#63b8ff" stroke="#63b8ff" points="229.64,-70.48 239.35,-66.26 229.12,-63.5 229.64,-70.48"/>
</a>
</g>
</g>
<!-- Node3 -->
<g id="Node000003" class="node">
<title>Node3</title>
<g id="a_Node000003"><a xlink:href="ft__printf_8c.html#a80c1c206dcd33d07c265581878aaa300" target="_top" xlink:title="Processes a single format specifier and prints the corresponding argument.">
<polygon fill="white" stroke="#666666" points="310.5,-148 227.5,-148 227.5,-129 310.5,-129 310.5,-148"/>
<text text-anchor="middle" x="269" y="-136" font-family="Helvetica,sans-Serif" font-size="10.00">check_format</text>
</a>
</g>
</g>
<!-- Node2&#45;&gt;Node3 -->
<g id="edge2_Node000002_Node000003" class="edge">
<title>Node2&#45;&gt;Node3</title>
<g id="a_edge2_Node000002_Node000003"><a xlink:title=" ">
<path fill="none" stroke="#63b8ff" d="M174.63,-138.5C187.08,-138.5 202.33,-138.5 216.88,-138.5"/>
<polygon fill="#63b8ff" stroke="#63b8ff" points="217.29,-142 227.29,-138.5 217.29,-135 217.29,-142"/>
</a>
</g>
</g>
<!-- Node7 -->
<g id="Node000007" class="node">
<title>Node7</title>
<g id="a_Node000007"><a xlink:href="ft__putchar__fd_8c.html#a03ef80b25dc4a521379fa92ad97bad21" target="_top" xlink:title="Writes a single character to the specified file descriptor.">
<polygon fill="white" stroke="#666666" points="443,-240 363,-240 363,-221 443,-221 443,-240"/>
<text text-anchor="middle" x="403" y="-228" font-family="Helvetica,sans-Serif" font-size="10.00">ft_putchar_fd</text>
</a>
</g>
</g>
<!-- Node2&#45;&gt;Node7 -->
<g id="edge15_Node000002_Node000007" class="edge">
<title>Node2&#45;&gt;Node7</title>
<g id="a_edge15_Node000002_Node000007"><a xlink:title=" ">
<path fill="none" stroke="#63b8ff" d="M173.16,-148.11C210.98,-162.49 284.78,-190.27 348,-212.5 352.89,-214.22 358.03,-215.99 363.13,-217.71"/>
<polygon fill="#63b8ff" stroke="#63b8ff" points="362.2,-221.09 372.79,-220.96 364.43,-214.46 362.2,-221.09"/>
</a>
</g>
</g>
<!-- Node4 -->
<g id="Node000004" class="node">
<title>Node4</title>
<g id="a_Node000004"><a xlink:href="ft__forpointer_8c.html#a8e02c77b80406af72327ebf71f537786" target="_top" xlink:title="Prints a pointer in hexadecimal format prefixed with &quot;0x&quot;.">
<polygon fill="white" stroke="#666666" points="441.5,-203 364.5,-203 364.5,-184 441.5,-184 441.5,-203"/>
<text text-anchor="middle" x="403" y="-191" font-family="Helvetica,sans-Serif" font-size="10.00">ft_forpointer</text>
</a>
</g>
</g>
<!-- Node3&#45;&gt;Node4 -->
<g id="edge3_Node000003_Node000004" class="edge">
<title>Node3&#45;&gt;Node4</title>
<g id="a_edge3_Node000003_Node000004"><a xlink:title=" ">
<path fill="none" stroke="#63b8ff" d="M288.63,-148.12C304.26,-156 327.28,-167.17 348,-175.5 352.41,-177.27 357.07,-179.02 361.73,-180.68"/>
<polygon fill="#63b8ff" stroke="#63b8ff" points="360.61,-183.99 371.21,-183.95 362.9,-177.38 360.61,-183.99"/>
</a>
</g>
</g>
<!-- Node6 -->
<g id="Node000006" class="node">
<title>Node6</title>
<g id="a_Node000006"><a xlink:href="ft__hexadecimal_8c.html#a39c845e0a4286d3ac1e04c1e64ac734b" target="_top" xlink:title="Prints an unsigned integer in hexadecimal format.">
<polygon fill="white" stroke="#666666" points="449,-148 357,-148 357,-129 449,-129 449,-148"/>
<text text-anchor="middle" x="403" y="-136" font-family="Helvetica,sans-Serif" font-size="10.00">ft_hexadecimal</text>
</a>
</g>
</g>
<!-- Node3&#45;&gt;Node6 -->
<g id="edge6_Node000003_Node000006" class="edge">
<title>Node3&#45;&gt;Node6</title>
<g id="a_edge6_Node000003_Node000006"><a xlink:title=" ">
<path fill="none" stroke="#63b8ff" d="M310.68,-138.5C321.93,-138.5 334.34,-138.5 346.28,-138.5"/>
<polygon fill="#63b8ff" stroke="#63b8ff" points="346.62,-142 356.62,-138.5 346.62,-135 346.62,-142"/>
</a>
</g>
</g>
<!-- Node3&#45;&gt;Node7 -->
<g id="edge8_Node000003_Node000007" class="edge">
<title>Node3&#45;&gt;Node7</title>
<g id="a_edge8_Node000003_Node000007"><a xlink:title=" ">
<path fill="none" stroke="#63b8ff" d="M277.63,-148.07C290.54,-163.67 318.23,-194.64 348,-212.5 350.67,-214.1 353.5,-215.58 356.41,-216.94"/>
<polygon fill="#63b8ff" stroke="#63b8ff" points="355.3,-220.27 365.87,-220.91 358,-213.82 355.3,-220.27"/>
</a>
</g>
</g>
<!-- Node8 -->
<g id="Node000008" class="node">
<title>Node8</title>
<g id="a_Node000008"><a xlink:href="ft__putnbr__fd_8c.html#a1554101ee350c316340c78e19faddaa8" target="_top" xlink:title="Writes an integer to a given file descriptor.">
<polygon fill="white" stroke="#666666" points="440.5,-93 365.5,-93 365.5,-74 440.5,-74 440.5,-93"/>
<text text-anchor="middle" x="403" y="-81" font-family="Helvetica,sans-Serif" font-size="10.00">ft_putnbr_fd</text>
</a>
</g>
</g>
<!-- Node3&#45;&gt;Node8 -->
<g id="edge9_Node000003_Node000008" class="edge">
<title>Node3&#45;&gt;Node8</title>
<g id="a_edge9_Node000003_Node000008"><a xlink:title=" ">
<path fill="none" stroke="#63b8ff" d="M292.99,-128.92C314.16,-120.1 345.77,-106.93 369.51,-97.04"/>
<polygon fill="#63b8ff" stroke="#63b8ff" points="370.94,-100.23 378.83,-93.16 368.25,-93.77 370.94,-100.23"/>
</a>
</g>
</g>
<!-- Node9 -->
<g id="Node000009" class="node">
<title>Node9</title>
<g id="a_Node000009"><a xlink:href="ft__putstr__fd_8c.html#a00b0638f31a75c7a30f77f33888bfb73" target="_top" xlink:title="Writes a null&#45;terminated string to the specified file descriptor.">
<polygon fill="white" stroke="#666666" points="439,-56 367,-56 367,-37 439,-37 439,-56"/>
<text text-anchor="middle" x="403" y="-44" font-family="Helvetica,sans-Serif" font-size="10.00">ft_putstr_fd</text>
</a>
</g>
</g>
<!-- Node3&#45;&gt;Node9 -->
<g id="edge11_Node000003_Node000009" class="edge">
<title>Node3&#45;&gt;Node9</title>
<g id="a_edge11_Node000003_Node000009"><a xlink:title=" ">
<path fill="none" stroke="#63b8ff" d="M298.9,-128.85C303.56,-126.54 308.12,-123.78 312,-120.5 334.59,-101.39 324.64,-82.66 348,-64.5 350.94,-62.21 354.19,-60.21 357.59,-58.45"/>
<polygon fill="#63b8ff" stroke="#63b8ff" points="359.1,-61.61 366.84,-54.37 356.28,-55.21 359.1,-61.61"/>
</a>
</g>
</g>
<!-- Node10 -->
<g id="Node000010" class="node">
<title>Node10</title>
<g id="a_Node000010"><a xlink:href="ft__unsigned__putnbr_8c.html#af9a70f8607b40cf2a7706f9d3725b549" target="_top" xlink:title="Writes an unsigned integer to the given file descriptor.">
<polygon fill="white" stroke="#666666" points="458,-19 348,-19 348,0 458,0 458,-19"/>
<text text-anchor="middle" x="403" y="-7" font-family="Helvetica,sans-Serif" font-size="10.00">ft_unsigned_putnbr</text>
</a>
</g>
</g>
<!-- Node3&#45;&gt;Node10 -->
<g id="edge12_Node000003_Node000010" class="edge">
<title>Node3&#45;&gt;Node10</title>
<g id="a_edge12_Node000003_Node000010"><a xlink:title=" ">
<path fill="none" stroke="#63b8ff" d="M300.78,-128.79C304.9,-126.55 308.8,-123.81 312,-120.5 342.78,-88.61 315.92,-58.09 348,-27.5 349.12,-26.43 350.3,-25.43 351.53,-24.49"/>
<polygon fill="#63b8ff" stroke="#63b8ff" points="353.64,-27.3 360.32,-19.08 349.97,-21.34 353.64,-27.3"/>
</a>
</g>
</g>
<!-- Node5 -->
<g id="Node000005" class="node">
<title>Node5</title>
<g id="a_Node000005"><a xlink:href="ft__forpointer_8c.html#aded1bf735c8a10e47396170d27c5b6aa" target="_top" xlink:title="Recursively prints a memory address in hexadecimal format.">
<polygon fill="white" stroke="#666666" points="604,-203 494,-203 494,-184 604,-184 604,-203"/>
<text text-anchor="middle" x="549" y="-191" font-family="Helvetica,sans-Serif" font-size="10.00">ft_ricorsive_pointer</text>
</a>
</g>
</g>
<!-- Node4&#45;&gt;Node5 -->
<g id="edge4_Node000004_Node000005" class="edge">
<title>Node4&#45;&gt;Node5</title>
<g id="a_edge4_Node000004_Node000005"><a xlink:title=" ">
<path fill="none" stroke="#63b8ff" d="M441.83,-193.5C454.64,-193.5 469.33,-193.5 483.61,-193.5"/>
<polygon fill="#63b8ff" stroke="#63b8ff" points="483.9,-197 493.9,-193.5 483.9,-190 483.9,-197"/>
</a>
</g>
</g>
<!-- Node5&#45;&gt;Node5 -->
<g id="edge5_Node000005_Node000005" class="edge">
<title>Node5&#45;&gt;Node5</title>
<g id="a_edge5_Node000005_Node000005"><a xlink:title=" ">
<path fill="none" stroke="#63b8ff" d="M526.5,-203.08C515.55,-211.73 523.05,-221 549,-221 565.62,-221 574.68,-217.2 576.16,-212.19"/>
<polygon fill="#63b8ff" stroke="#63b8ff" points="579.17,-210.39 571.5,-203.08 572.94,-213.58 579.17,-210.39"/>
</a>
</g>
</g>
<!-- Node6&#45;&gt;Node6 -->
<g id="edge7_Node000006_Node000006" class="edge">
<title>Node6&#45;&gt;Node6</title>
<g id="a_edge7_Node000006_Node000006"><a xlink:title=" ">
<path fill="none" stroke="#63b8ff" d="M382.35,-148.08C372.3,-156.73 379.18,-166 403,-166 418.26,-166 426.57,-162.2 427.93,-157.19"/>
<polygon fill="#63b8ff" stroke="#63b8ff" points="431.07,-155.65 423.65,-148.08 424.73,-158.62 431.07,-155.65"/>
</a>
</g>
</g>
<!-- Node8&#45;&gt;Node8 -->
<g id="edge10_Node000008_Node000008" class="edge">
<title>Node8&#45;&gt;Node8</title>
<g id="a_edge10_Node000008_Node000008"><a xlink:title=" ">
<path fill="none" stroke="#63b8ff" d="M382.35,-93.08C372.3,-101.73 379.18,-111 403,-111 418.26,-111 426.57,-107.2 427.93,-102.19"/>
<polygon fill="#63b8ff" stroke="#63b8ff" points="431.07,-100.65 423.65,-93.08 424.73,-103.62 431.07,-100.65"/>
</a>
</g>
</g>
<!-- Node11 -->
<g id="Node000011" class="node">
<title>Node11</title>
<g id="a_Node000011"><a xlink:href="ft__putnbr_8c.html#a2e51f80c9e46e52f4adf94617fb51ada" target="_top" xlink:title="Writes an integer to the standard output (stdout).">
<polygon fill="white" stroke="#666666" points="579,-19 519,-19 519,0 579,0 579,-19"/>
<text text-anchor="middle" x="549" y="-7" font-family="Helvetica,sans-Serif" font-size="10.00">ft_putnbr</text>
</a>
</g>
</g>
<!-- Node10&#45;&gt;Node11 -->
<g id="edge13_Node000010_Node000011" class="edge">
<title>Node10&#45;&gt;Node11</title>
<g id="a_edge13_Node000010_Node000011"><a xlink:title=" ">
<path fill="none" stroke="#63b8ff" d="M458.03,-9.5C474.76,-9.5 492.87,-9.5 508.43,-9.5"/>
<polygon fill="#63b8ff" stroke="#63b8ff" points="508.74,-13 518.74,-9.5 508.74,-6 508.74,-13"/>
</a>
</g>
</g>
<!-- Node11&#45;&gt;Node11 -->
<g id="edge14_Node000011_Node000011" class="edge">
<title>Node11&#45;&gt;Node11</title>
<g id="a_edge14_Node000011_Node000011"><a xlink:title=" ">
<path fill="none" stroke="#63b8ff" d="M526.5,-19.08C515.55,-27.73 523.05,-37 549,-37 565.62,-37 574.68,-33.2 576.16,-28.19"/>
<polygon fill="#63b8ff" stroke="#63b8ff" points="579.17,-26.39 571.5,-19.08 572.94,-29.58 579.17,-26.39"/>
</a>
</g>
</g>
<!-- Node13 -->
<g id="Node000013" class="node">
<title>Node13</title>
<g id="a_Node000013"><a xlink:href="ft__free__matrix_8c.html#a1ea6d1f3b50d1c23d4f0faddd1a13448" target="_top" xlink:title="Frees a NULL&#45;terminated matrix of strings.">
<polygon fill="white" stroke="#666666" points="312,-111 226,-111 226,-92 312,-92 312,-111"/>
<text text-anchor="middle" x="269" y="-99" font-family="Helvetica,sans-Serif" font-size="10.00">ft_free_matrix</text>
</a>
</g>
</g>
<!-- Node12&#45;&gt;Node13 -->
<g id="edge17_Node000012_Node000013" class="edge">
<title>Node12&#45;&gt;Node13</title>
<g id="a_edge17_Node000012_Node000013"><a xlink:title=" ">
<path fill="none" stroke="#63b8ff" d="M190.31,-101.5C198.46,-101.5 207.1,-101.5 215.53,-101.5"/>
<polygon fill="#63b8ff" stroke="#63b8ff" points="215.67,-105 225.67,-101.5 215.67,-98 215.67,-105"/>
</a>
</g>
</g>
<!-- Node12&#45;&gt;Node14 -->
<g id="edge18_Node000012_Node000014" class="edge">
<title>Node12&#45;&gt;Node14</title>
<g id="a_edge18_Node000012_Node000014"><a xlink:title=" ">
<path fill="none" stroke="#63b8ff" d="M178.9,-91.97C194.32,-87.22 213.11,-81.43 229.45,-76.39"/>
<polygon fill="#63b8ff" stroke="#63b8ff" points="230.74,-79.65 239.26,-73.36 228.67,-72.96 230.74,-79.65"/>
</a>
</g>
</g>
</g>
</svg>
