<?xml version="1.0" encoding="UTF-8" standalone="no"?>
<!DOCTYPE svg PUBLIC "-//W3C//DTD SVG 1.1//EN"
 "http://www.w3.org/Graphics/SVG/1.1/DTD/svg11.dtd">
<!-- Generated by graphviz version 2.43.0 (0)
 -->
<!-- Title: remove_token_node Pages: 1 -->
<svg width="1043pt" height="65pt"
 viewBox="0.00 0.00 1043.00 65.00" xmlns="http://www.w3.org/2000/svg" xmlns:xlink="http://www.w3.org/1999/xlink">
<g id="graph0" class="graph" transform="scale(1 1) rotate(0) translate(4 61)">
<title>remove_token_node</title>
<!-- Node1 -->
<g id="Node000001" class="node">
<title>Node1</title>
<g id="a_Node000001"><a xlink:title="Removes a specific token node from the linked list.">
<polygon fill="#999999" stroke="#666666" points="1035,-37 919,-37 919,-18 1035,-18 1035,-37"/>
<text text-anchor="middle" x="977" y="-25" font-family="Helvetica,sans-Serif" font-size="10.00">remove_token_node</text>
</a>
</g>
</g>
<!-- Node2 -->
<g id="Node000002" class="node">
<title>Node2</title>
<g id="a_Node000002"><a xlink:href="for__merge__echo_8c.html#a1e7a6d749fc26b1a0848360c666ea945" target="_top" xlink:title="Merges two tokens by concatenating their values.">
<polygon fill="white" stroke="#666666" points="874.5,-56 765.5,-56 765.5,-37 874.5,-37 874.5,-56"/>
<text text-anchor="middle" x="820" y="-44" font-family="Helvetica,sans-Serif" font-size="10.00">ft_merge_n_tokens</text>
</a>
</g>
</g>
<!-- Node1&#45;&gt;Node2 -->
<g id="edge1_Node000001_Node000002" class="edge">
<title>Node1&#45;&gt;Node2</title>
<g id="a_edge1_Node000001_Node000002"><a xlink:title=" ">
<path fill="none" stroke="#63b8ff" d="M908.46,-35.78C897.17,-37.16 885.59,-38.58 874.7,-39.92"/>
<polygon fill="#63b8ff" stroke="#63b8ff" points="909.22,-39.21 918.72,-34.52 908.37,-32.26 909.22,-39.21"/>
</a>
</g>
</g>
<!-- Node9 -->
<g id="Node000009" class="node">
<title>Node9</title>
<g id="a_Node000009"><a xlink:href="for__merge__export_8c.html#ae1468c1b7b66228b739b08940a389e42" target="_top" xlink:title="Merges consecutive ARGUMENT tokens into a single token, used for the export command.">
<polygon fill="white" stroke="#666666" points="883,-19 757,-19 757,0 883,0 883,-19"/>
<text text-anchor="middle" x="820" y="-7" font-family="Helvetica,sans-Serif" font-size="10.00">ft_merge_word_export</text>
</a>
</g>
</g>
<!-- Node1&#45;&gt;Node9 -->
<g id="edge8_Node000001_Node000009" class="edge">
<title>Node1&#45;&gt;Node9</title>
<g id="a_edge8_Node000001_Node000009"><a xlink:title=" ">
<path fill="none" stroke="#63b8ff" d="M908.57,-19.67C900.16,-18.69 891.58,-17.7 883.25,-16.73"/>
<polygon fill="#63b8ff" stroke="#63b8ff" points="908.39,-23.17 918.72,-20.85 909.19,-16.22 908.39,-23.17"/>
</a>
</g>
</g>
<!-- Node3 -->
<g id="Node000003" class="node">
<title>Node3</title>
<g id="a_Node000003"><a xlink:href="for__merge__echo_8c.html#a9a9e603a3cf06f996da02d8b076da2c7" target="_top" xlink:title="Finds and merges all consecutive tokens like &#45;n, &#45;nn, etc. after the initial valid &#45;n token.">
<polygon fill="white" stroke="#666666" points="721,-57 588,-57 588,-38 721,-38 721,-57"/>
<text text-anchor="middle" x="654.5" y="-45" font-family="Helvetica,sans-Serif" font-size="10.00">ft_merge_subsequent_n</text>
</a>
</g>
</g>
<!-- Node2&#45;&gt;Node3 -->
<g id="edge2_Node000002_Node000003" class="edge">
<title>Node2&#45;&gt;Node3</title>
<g id="a_edge2_Node000002_Node000003"><a xlink:title=" ">
<path fill="none" stroke="#63b8ff" d="M755.32,-46.89C744.11,-46.96 732.42,-47.03 721.15,-47.1"/>
<polygon fill="#63b8ff" stroke="#63b8ff" points="755.49,-50.39 765.46,-46.83 755.44,-43.39 755.49,-50.39"/>
</a>
</g>
</g>
<!-- Node4 -->
<g id="Node000004" class="node">
<title>Node4</title>
<g id="a_Node000004"><a xlink:href="for__merge__echo_8c.html#a5326da08ceca8e15b2ceca38c9930e08" target="_top" xlink:title="Handles merging multiple &#45;n, &#45;nn, etc. tokens for the echo command.">
<polygon fill="white" stroke="#666666" points="548,-56 422,-56 422,-37 548,-37 548,-56"/>
<text text-anchor="middle" x="485" y="-44" font-family="Helvetica,sans-Serif" font-size="10.00">ft_merge_tokens_echo</text>
</a>
</g>
</g>
<!-- Node3&#45;&gt;Node4 -->
<g id="edge3_Node000003_Node000004" class="edge">
<title>Node3&#45;&gt;Node4</title>
<g id="a_edge3_Node000003_Node000004"><a xlink:title=" ">
<path fill="none" stroke="#63b8ff" d="M577.62,-47.05C567.79,-46.99 557.82,-46.93 548.25,-46.87"/>
<polygon fill="#63b8ff" stroke="#63b8ff" points="577.76,-50.55 587.78,-47.11 577.8,-43.55 577.76,-50.55"/>
</a>
</g>
</g>
<!-- Node5 -->
<g id="Node000005" class="node">
<title>Node5</title>
<g id="a_Node000005"><a xlink:href="tokenize__input_8c.html#a040acaabf04da0b8d7ce5da9c1d210d8" target="_top" xlink:title="Assigns types to tokens and applies command&#45;specific rules.">
<polygon fill="white" stroke="#666666" points="382,-37 286,-37 286,-18 382,-18 382,-37"/>
<text text-anchor="middle" x="334" y="-25" font-family="Helvetica,sans-Serif" font-size="10.00">ft_define_tokens</text>
</a>
</g>
</g>
<!-- Node4&#45;&gt;Node5 -->
<g id="edge4_Node000004_Node000005" class="edge">
<title>Node4&#45;&gt;Node5</title>
<g id="a_edge4_Node000004_Node000005"><a xlink:title=" ">
<path fill="none" stroke="#63b8ff" d="M411.67,-37.28C401.63,-36 391.53,-34.71 382.11,-33.51"/>
<polygon fill="#63b8ff" stroke="#63b8ff" points="411.31,-40.76 421.67,-38.55 412.2,-33.82 411.31,-40.76"/>
</a>
</g>
</g>
<!-- Node6 -->
<g id="Node000006" class="node">
<title>Node6</title>
<g id="a_Node000006"><a xlink:href="tokenize__input_8c.html#a4e40c3f57ab2488a2b49f37846785b2e" target="_top" xlink:title="Tokenizes the entire user input string.">
<polygon fill="white" stroke="#666666" points="250,-37 192,-37 192,-18 250,-18 250,-37"/>
<text text-anchor="middle" x="221" y="-25" font-family="Helvetica,sans-Serif" font-size="10.00">tokenize</text>
</a>
</g>
</g>
<!-- Node5&#45;&gt;Node6 -->
<g id="edge5_Node000005_Node000006" class="edge">
<title>Node5&#45;&gt;Node6</title>
<g id="a_edge5_Node000005_Node000006"><a xlink:title=" ">
<path fill="none" stroke="#63b8ff" d="M275.87,-27.5C266.93,-27.5 258.06,-27.5 250.16,-27.5"/>
<polygon fill="#63b8ff" stroke="#63b8ff" points="275.93,-31 285.93,-27.5 275.93,-24 275.93,-31"/>
</a>
</g>
</g>
<!-- Node7 -->
<g id="Node000007" class="node">
<title>Node7</title>
<g id="a_Node000007"><a xlink:href="main__utils_8c.html#ae35edfb8f1339d6f77f53c28eb2a2ed6" target="_top" xlink:title="Handles a complete cycle of input → parsing → execution.">
<polygon fill="white" stroke="#666666" points="156,-37 77,-37 77,-18 156,-18 156,-37"/>
<text text-anchor="middle" x="116.5" y="-25" font-family="Helvetica,sans-Serif" font-size="10.00">ft_main_flow</text>
</a>
</g>
</g>
<!-- Node6&#45;&gt;Node7 -->
<g id="edge6_Node000006_Node000007" class="edge">
<title>Node6&#45;&gt;Node7</title>
<g id="a_edge6_Node000006_Node000007"><a xlink:title=" ">
<path fill="none" stroke="#63b8ff" d="M181.76,-27.5C173.42,-27.5 164.59,-27.5 156.23,-27.5"/>
<polygon fill="#63b8ff" stroke="#63b8ff" points="181.99,-31 191.99,-27.5 181.99,-24 181.99,-31"/>
</a>
</g>
</g>
<!-- Node8 -->
<g id="Node000008" class="node">
<title>Node8</title>
<g id="a_Node000008"><a xlink:href="main_8c.html#ab3862b46d6a8d13c2d884a297e6b05b5" target="_top" xlink:title="Main function of the minishell.">
<polygon fill="white" stroke="#666666" points="41,-37 0,-37 0,-18 41,-18 41,-37"/>
<text text-anchor="middle" x="20.5" y="-25" font-family="Helvetica,sans-Serif" font-size="10.00">main</text>
</a>
</g>
</g>
<!-- Node7&#45;&gt;Node8 -->
<g id="edge7_Node000007_Node000008" class="edge">
<title>Node7&#45;&gt;Node8</title>
<g id="a_edge7_Node000007_Node000008"><a xlink:title=" ">
<path fill="none" stroke="#63b8ff" d="M66.74,-27.5C57.62,-27.5 48.59,-27.5 41.03,-27.5"/>
<polygon fill="#63b8ff" stroke="#63b8ff" points="67,-31 77,-27.5 67,-24 67,-31"/>
</a>
</g>
</g>
<!-- Node10 -->
<g id="Node000010" class="node">
<title>Node10</title>
<g id="a_Node000010"><a xlink:href="for__merge__export_8c.html#a94cce59efbc71ee79944cf7e061d8104" target="_top" xlink:title="Checks if the current command is export and, if so, merges the following ARGUMENT tokens.">
<polygon fill="white" stroke="#666666" points="552,-19 418,-19 418,0 552,0 552,-19"/>
<text text-anchor="middle" x="485" y="-7" font-family="Helvetica,sans-Serif" font-size="10.00">ft_merge_tokens_export</text>
</a>
</g>
</g>
<!-- Node9&#45;&gt;Node10 -->
<g id="edge9_Node000009_Node000010" class="edge">
<title>Node9&#45;&gt;Node10</title>
<g id="a_edge9_Node000009_Node000010"><a xlink:title=" ">
<path fill="none" stroke="#63b8ff" d="M746.59,-9.5C688.75,-9.5 608.36,-9.5 552.22,-9.5"/>
<polygon fill="#63b8ff" stroke="#63b8ff" points="746.76,-13 756.76,-9.5 746.76,-6 746.76,-13"/>
</a>
</g>
</g>
<!-- Node10&#45;&gt;Node5 -->
<g id="edge10_Node000010_Node000005" class="edge">
<title>Node10&#45;&gt;Node5</title>
<g id="a_edge10_Node000010_Node000005"><a xlink:title=" ">
<path fill="none" stroke="#63b8ff" d="M407.64,-18.72C398.99,-19.77 390.38,-20.81 382.26,-21.79"/>
<polygon fill="#63b8ff" stroke="#63b8ff" points="408.27,-22.17 417.78,-17.5 407.43,-15.22 408.27,-22.17"/>
</a>
</g>
</g>
</g>
</svg>
