<?xml version="1.0" encoding="UTF-8" standalone="no"?>
<!DOCTYPE svg PUBLIC "-//W3C//DTD SVG 1.1//EN"
 "http://www.w3.org/Graphics/SVG/1.1/DTD/svg11.dtd">
<!-- Generated by graphviz version 2.43.0 (0)
 -->
<!-- Title: ft_exe_redir Pages: 1 -->
<svg width="1510pt" height="786pt"
 viewBox="0.00 0.00 1510.00 785.50" xmlns="http://www.w3.org/2000/svg" xmlns:xlink="http://www.w3.org/1999/xlink">
<g id="graph0" class="graph" transform="scale(1 1) rotate(0) translate(4 781.5)">
<title>ft_exe_redir</title>
<!-- Node1 -->
<g id="Node000001" class="node">
<title>Node1</title>
<g id="a_Node000001"><a xlink:title="Executes a redirection for the current command.">
<polygon fill="#999999" stroke="#666666" points="74,-749 0,-749 0,-730 74,-730 74,-749"/>
<text text-anchor="middle" x="37" y="-737" font-family="Helvetica,sans-Serif" font-size="10.00">ft_exe_redir</text>
</a>
</g>
</g>
<!-- Node2 -->
<g id="Node000002" class="node">
<title>Node2</title>
<g id="a_Node000002"><a xlink:href="handle__redirections_8c.html#ab2c37fefb1291d3f8d0dc91e8c096334" target="_top" xlink:title="Handles redirection associated with a command.">
<polygon fill="white" stroke="#666666" points="217,-749 110,-749 110,-730 217,-730 217,-749"/>
<text text-anchor="middle" x="163.5" y="-737" font-family="Helvetica,sans-Serif" font-size="10.00">handle_redirection</text>
</a>
</g>
</g>
<!-- Node1&#45;&gt;Node2 -->
<g id="edge1_Node000001_Node000002" class="edge">
<title>Node1&#45;&gt;Node2</title>
<g id="a_edge1_Node000001_Node000002"><a xlink:title=" ">
<path fill="none" stroke="#63b8ff" d="M74.01,-739.5C82.06,-739.5 90.83,-739.5 99.62,-739.5"/>
<polygon fill="#63b8ff" stroke="#63b8ff" points="99.9,-743 109.9,-739.5 99.9,-736 99.9,-743"/>
</a>
</g>
</g>
<!-- Node3 -->
<g id="Node000003" class="node">
<title>Node3</title>
<g id="a_Node000003"><a xlink:href="redir__utils_8c.html#ad4b61aab1ceefdbef3527f934f78618d" target="_top" xlink:title="Assigns the output file name and append flag based on redirection type.">
<polygon fill="white" stroke="#666666" points="366,-749 253,-749 253,-730 366,-730 366,-749"/>
<text text-anchor="middle" x="309.5" y="-737" font-family="Helvetica,sans-Serif" font-size="10.00">ft_get_outfile_name</text>
</a>
</g>
</g>
<!-- Node2&#45;&gt;Node3 -->
<g id="edge2_Node000002_Node000003" class="edge">
<title>Node2&#45;&gt;Node3</title>
<g id="a_edge2_Node000002_Node000003"><a xlink:title=" ">
<path fill="none" stroke="#63b8ff" d="M217.3,-739.5C225.52,-739.5 234.1,-739.5 242.56,-739.5"/>
<polygon fill="#63b8ff" stroke="#63b8ff" points="242.8,-743 252.8,-739.5 242.8,-736 242.8,-743"/>
</a>
</g>
</g>
<!-- Node4 -->
<g id="Node000004" class="node">
<title>Node4</title>
<g id="a_Node000004"><a xlink:href="ft__strdup_8c.html#aebe73f27c70c56ac5053f860ef5436c9" target="_top" xlink:title="Duplicates a null&#45;terminated string by allocating memory.">
<polygon fill="white" stroke="#666666" points="1496,-692 1437,-692 1437,-673 1496,-673 1496,-692"/>
<text text-anchor="middle" x="1466.5" y="-680" font-family="Helvetica,sans-Serif" font-size="10.00">ft_strdup</text>
</a>
</g>
</g>
<!-- Node2&#45;&gt;Node4 -->
<g id="edge4_Node000002_Node000004" class="edge">
<title>Node2&#45;&gt;Node4</title>
<g id="a_edge4_Node000002_Node000004"><a xlink:title=" ">
<path fill="none" stroke="#63b8ff" d="M203.96,-749.03C219.21,-752.44 236.84,-756.04 253,-758.5 344.55,-772.47 367.89,-777.5 460.5,-777.5 460.5,-777.5 460.5,-777.5 1195,-777.5 1286.11,-777.5 1311.77,-769.58 1395,-732.5 1414.11,-723.98 1433.32,-709.91 1446.85,-698.86"/>
<polygon fill="#63b8ff" stroke="#63b8ff" points="1449.46,-701.24 1454.87,-692.12 1444.96,-695.88 1449.46,-701.24"/>
</a>
</g>
</g>
<!-- Node5 -->
<g id="Node000005" class="node">
<title>Node5</title>
<g id="a_Node000005"><a xlink:href="handle__redirections_8c.html#aa4509a43f47ed881eb2d81fb81458466" target="_top" xlink:title="Handles redirections without an associated command.">
<polygon fill="white" stroke="#666666" points="366,-678.5 253,-678.5 253,-648.5 366,-648.5 366,-678.5"/>
<text text-anchor="start" x="261" y="-666.5" font-family="Helvetica,sans-Serif" font-size="10.00">handle_redirection</text>
<text text-anchor="middle" x="309.5" y="-655.5" font-family="Helvetica,sans-Serif" font-size="10.00">_without_command</text>
</a>
</g>
</g>
<!-- Node2&#45;&gt;Node5 -->
<g id="edge5_Node000002_Node000005" class="edge">
<title>Node2&#45;&gt;Node5</title>
<g id="a_edge5_Node000002_Node000005"><a xlink:title=" ">
<path fill="none" stroke="#63b8ff" d="M182.74,-729.87C204.86,-718.2 242.73,-698.21 271.14,-683.22"/>
<polygon fill="#63b8ff" stroke="#63b8ff" points="272.79,-686.3 280,-678.54 269.52,-680.11 272.79,-686.3"/>
</a>
</g>
</g>
<!-- Node3&#45;&gt;Node4 -->
<g id="edge3_Node000003_Node000004" class="edge">
<title>Node3&#45;&gt;Node4</title>
<g id="a_edge3_Node000003_Node000004"><a xlink:title=" ">
<path fill="none" stroke="#63b8ff" d="M366.09,-739.5C428.84,-739.5 534.01,-739.5 624.5,-739.5 624.5,-739.5 624.5,-739.5 1195,-739.5 1280.26,-739.5 1377.46,-712.05 1428.96,-695.25"/>
<polygon fill="#63b8ff" stroke="#63b8ff" points="1430.24,-698.51 1438.64,-692.04 1428.04,-691.86 1430.24,-698.51"/>
</a>
</g>
</g>
<!-- Node6 -->
<g id="Node000006" class="node">
<title>Node6</title>
<g id="a_Node000006"><a xlink:href="handle__redirections_8c.html#a2834314002a1f4ef4af82f95159b0a34" target="_top" xlink:title="Handles input redirection from file or heredoc.">
<polygon fill="white" stroke="#666666" points="521,-673 402,-673 402,-654 521,-654 521,-673"/>
<text text-anchor="middle" x="461.5" y="-661" font-family="Helvetica,sans-Serif" font-size="10.00">ft_handle_infile_redir</text>
</a>
</g>
</g>
<!-- Node5&#45;&gt;Node6 -->
<g id="edge6_Node000005_Node000006" class="edge">
<title>Node5&#45;&gt;Node6</title>
<g id="a_edge6_Node000005_Node000006"><a xlink:title=" ">
<path fill="none" stroke="#63b8ff" d="M366.35,-663.5C374.59,-663.5 383.15,-663.5 391.6,-663.5"/>
<polygon fill="#63b8ff" stroke="#63b8ff" points="391.84,-667 401.84,-663.5 391.84,-660 391.84,-667"/>
</a>
</g>
</g>
<!-- Node43 -->
<g id="Node000043" class="node">
<title>Node43</title>
<g id="a_Node000043"><a xlink:href="utils__pipes_8c.html#aa5bc406fd1d5aadd2018c5c2061d31ba" target="_top" xlink:title="Restores the previously duplicated standard input.">
<polygon fill="white" stroke="#666666" points="500,-636 423,-636 423,-617 500,-617 500,-636"/>
<text text-anchor="middle" x="461.5" y="-624" font-family="Helvetica,sans-Serif" font-size="10.00">restore_sdin</text>
</a>
</g>
</g>
<!-- Node5&#45;&gt;Node43 -->
<g id="edge64_Node000005_Node000043" class="edge">
<title>Node5&#45;&gt;Node43</title>
<g id="a_edge64_Node000005_Node000043"><a xlink:title=" ">
<path fill="none" stroke="#63b8ff" d="M366.35,-649.72C381.65,-645.95 398.08,-641.9 412.87,-638.25"/>
<polygon fill="#63b8ff" stroke="#63b8ff" points="413.94,-641.59 422.81,-635.8 412.26,-634.79 413.94,-641.59"/>
</a>
</g>
</g>
<!-- Node7 -->
<g id="Node000007" class="node">
<title>Node7</title>
<g id="a_Node000007"><a xlink:href="redir__utils_8c.html#acd7b4a57306a2984ae26bceaa9d97888" target="_top" xlink:title="Checks for following heredocs in tokens and removes the temporary file.">
<polygon fill="white" stroke="#666666" points="821,-711 730,-711 730,-692 821,-692 821,-711"/>
<text text-anchor="middle" x="775.5" y="-699" font-family="Helvetica,sans-Serif" font-size="10.00">ft_end_heredoc</text>
</a>
</g>
</g>
<!-- Node6&#45;&gt;Node7 -->
<g id="edge7_Node000006_Node000007" class="edge">
<title>Node6&#45;&gt;Node7</title>
<g id="a_edge7_Node000006_Node000007"><a xlink:title=" ">
<path fill="none" stroke="#63b8ff" d="M504.66,-673.02C520.95,-676.42 539.77,-680.02 557,-682.5 612.05,-690.41 675.45,-695.5 719.54,-698.4"/>
<polygon fill="#63b8ff" stroke="#63b8ff" points="719.56,-701.9 729.76,-699.05 720.01,-694.92 719.56,-701.9"/>
</a>
</g>
</g>
<!-- Node8 -->
<g id="Node000008" class="node">
<title>Node8</title>
<g id="a_Node000008"><a xlink:href="utils__fd_8c.html#aae58663bcc5fdd74e961d307a7f7f51a" target="_top" xlink:title="Checks if there is at least one HEREDOC token in the token list.">
<polygon fill="white" stroke="#666666" points="960.5,-711 859.5,-711 859.5,-692 960.5,-692 960.5,-711"/>
<text text-anchor="middle" x="910" y="-699" font-family="Helvetica,sans-Serif" font-size="10.00">ft_found_heredoc</text>
</a>
</g>
</g>
<!-- Node6&#45;&gt;Node8 -->
<g id="edge9_Node000006_Node000008" class="edge">
<title>Node6&#45;&gt;Node8</title>
<g id="a_edge9_Node000006_Node000008"><a xlink:title=" ">
<path fill="none" stroke="#63b8ff" d="M503.66,-653.92C520.14,-650.54 539.38,-647.16 557,-645.5 617.62,-639.78 633.6,-637.76 694,-645.5 757.76,-653.67 829.61,-674.93 872,-688.78"/>
<polygon fill="#63b8ff" stroke="#63b8ff" points="871.02,-692.14 881.61,-691.96 873.22,-685.49 871.02,-692.14"/>
</a>
</g>
</g>
<!-- Node9 -->
<g id="Node000009" class="node">
<title>Node9</title>
<g id="a_Node000009"><a xlink:href="handle__heredoc_8c.html#a922eae1c49290306f7cf811bf65d9ed1" target="_top" xlink:title="Handles the entire input process for a here&#45;document.">
<polygon fill="white" stroke="#666666" points="672.5,-563 578.5,-563 578.5,-544 672.5,-544 672.5,-563"/>
<text text-anchor="middle" x="625.5" y="-551" font-family="Helvetica,sans-Serif" font-size="10.00">handle_heredoc</text>
</a>
</g>
</g>
<!-- Node6&#45;&gt;Node9 -->
<g id="edge10_Node000006_Node000009" class="edge">
<title>Node6&#45;&gt;Node9</title>
<g id="a_edge10_Node000006_Node000009"><a xlink:title=" ">
<path fill="none" stroke="#63b8ff" d="M502.25,-653.98C508.74,-651.67 515.22,-648.87 521,-645.5 540.01,-634.42 540.65,-626.23 557,-611.5 572.97,-597.11 591.52,-581.23 605.12,-569.73"/>
<polygon fill="#63b8ff" stroke="#63b8ff" points="607.5,-572.31 612.89,-563.19 602.99,-566.96 607.5,-572.31"/>
</a>
</g>
</g>
<!-- Node42 -->
<g id="Node000042" class="node">
<title>Node42</title>
<g id="a_Node000042"><a xlink:href="utils__pipes_8c.html#a4112bdd2bc0766ff52195f2ab3a53339" target="_top" xlink:title="Handles input redirection from a file.">
<polygon fill="white" stroke="#666666" points="694,-673 557,-673 557,-654 694,-654 694,-673"/>
<text text-anchor="middle" x="625.5" y="-661" font-family="Helvetica,sans-Serif" font-size="10.00">handle_input_redirection</text>
</a>
</g>
</g>
<!-- Node6&#45;&gt;Node42 -->
<g id="edge63_Node000006_Node000042" class="edge">
<title>Node6&#45;&gt;Node42</title>
<g id="a_edge63_Node000006_Node000042"><a xlink:title=" ">
<path fill="none" stroke="#63b8ff" d="M521.44,-663.5C529.61,-663.5 538.1,-663.5 546.55,-663.5"/>
<polygon fill="#63b8ff" stroke="#63b8ff" points="546.81,-667 556.81,-663.5 546.81,-660 546.81,-667"/>
</a>
</g>
</g>
<!-- Node7&#45;&gt;Node8 -->
<g id="edge8_Node000007_Node000008" class="edge">
<title>Node7&#45;&gt;Node8</title>
<g id="a_edge8_Node000007_Node000008"><a xlink:title=" ">
<path fill="none" stroke="#63b8ff" d="M821.36,-701.5C830.29,-701.5 839.8,-701.5 849.14,-701.5"/>
<polygon fill="#63b8ff" stroke="#63b8ff" points="849.18,-705 859.18,-701.5 849.18,-698 849.18,-705"/>
</a>
</g>
</g>
<!-- Node10 -->
<g id="Node000010" class="node">
<title>Node10</title>
<g id="a_Node000010"><a xlink:href="utils__fd_8c.html#a9cf70d06db18597b04bb642db7abab4a" target="_top" xlink:title="Checks if a file descriptor is valid.">
<polygon fill="white" stroke="#666666" points="811.5,-563 739.5,-563 739.5,-544 811.5,-544 811.5,-563"/>
<text text-anchor="middle" x="775.5" y="-551" font-family="Helvetica,sans-Serif" font-size="10.00">ft_check_fd</text>
</a>
</g>
</g>
<!-- Node9&#45;&gt;Node10 -->
<g id="edge11_Node000009_Node000010" class="edge">
<title>Node9&#45;&gt;Node10</title>
<g id="a_edge11_Node000009_Node000010"><a xlink:title=" ">
<path fill="none" stroke="#63b8ff" d="M672.52,-553.5C690.53,-553.5 711.15,-553.5 729.1,-553.5"/>
<polygon fill="#63b8ff" stroke="#63b8ff" points="729.33,-557 739.33,-553.5 729.33,-550 729.33,-557"/>
</a>
</g>
</g>
<!-- Node11 -->
<g id="Node000011" class="node">
<title>Node11</title>
<g id="a_Node000011"><a xlink:href="handle__heredoc_8c.html#ac5ba13b1edbd22e4a7e0a50fc91f80db" target="_top" xlink:title="Executes a single read&#45;write cycle of the here&#45;document.">
<polygon fill="white" stroke="#666666" points="820.5,-474 730.5,-474 730.5,-455 820.5,-455 820.5,-474"/>
<text text-anchor="middle" x="775.5" y="-462" font-family="Helvetica,sans-Serif" font-size="10.00">ft_exe_heredoc</text>
</a>
</g>
</g>
<!-- Node9&#45;&gt;Node11 -->
<g id="edge12_Node000009_Node000011" class="edge">
<title>Node9&#45;&gt;Node11</title>
<g id="a_edge12_Node000009_Node000011"><a xlink:title=" ">
<path fill="none" stroke="#63b8ff" d="M642.34,-543.98C668.02,-528.53 718.94,-497.91 749.54,-479.51"/>
<polygon fill="#63b8ff" stroke="#63b8ff" points="751.56,-482.38 758.33,-474.23 747.95,-476.38 751.56,-482.38"/>
</a>
</g>
</g>
<!-- Node11&#45;&gt;Node4 -->
<g id="edge52_Node000011_Node000004" class="edge">
<title>Node11&#45;&gt;Node4</title>
<g id="a_edge52_Node000011_Node000004"><a xlink:title=" ">
<path fill="none" stroke="#63b8ff" d="M792.34,-474.02C808.43,-483.59 834.17,-498.58 857,-510.5 979.99,-574.75 1006.71,-602.62 1139,-644.5 1201.76,-664.37 1219.65,-661.57 1285,-669.5 1333.68,-675.41 1390.1,-678.94 1426.73,-680.8"/>
<polygon fill="#63b8ff" stroke="#63b8ff" points="1426.81,-684.31 1436.97,-681.31 1427.15,-677.32 1426.81,-684.31"/>
</a>
</g>
</g>
<!-- Node11&#45;&gt;Node8 -->
<g id="edge35_Node000011_Node000008" class="edge">
<title>Node11&#45;&gt;Node8</title>
<g id="a_edge35_Node000011_Node000008"><a xlink:title=" ">
<path fill="none" stroke="#63b8ff" d="M783.91,-474.06C793.75,-487.2 811.05,-511.91 821,-535.5 847.31,-597.87 811.45,-633.42 857,-683.5 857.77,-684.35 858.58,-685.16 859.43,-685.93"/>
<polygon fill="#63b8ff" stroke="#63b8ff" points="857.71,-689 867.91,-691.88 861.74,-683.27 857.71,-689"/>
</a>
</g>
</g>
<!-- Node12 -->
<g id="Node000012" class="node">
<title>Node12</title>
<g id="a_Node000012"><a xlink:href="redir__utils_8c.html#aff3d6a56d03d5df38cbb3e1f171eb191" target="_top" xlink:title="Expands environment variables in a line and writes the result to a file descriptor.">
<polygon fill="white" stroke="#666666" points="953,-352 867,-352 867,-333 953,-333 953,-352"/>
<text text-anchor="middle" x="910" y="-340" font-family="Helvetica,sans-Serif" font-size="10.00">ft_for_env_var</text>
</a>
</g>
</g>
<!-- Node11&#45;&gt;Node12 -->
<g id="edge13_Node000011_Node000012" class="edge">
<title>Node11&#45;&gt;Node12</title>
<g id="a_edge13_Node000011_Node000012"><a xlink:title=" ">
<path fill="none" stroke="#63b8ff" d="M782.25,-454.93C794.1,-435.87 823.02,-392.75 857,-366.5 861.84,-362.76 867.35,-359.43 872.94,-356.54"/>
<polygon fill="#63b8ff" stroke="#63b8ff" points="874.79,-359.53 882.31,-352.07 871.77,-353.22 874.79,-359.53"/>
</a>
</g>
</g>
<!-- Node16 -->
<g id="Node000016" class="node">
<title>Node16</title>
<g id="a_Node000016"><a xlink:href="ft__strlen_8c.html#a828402378653640f545a4be2e00e92f9" target="_top" xlink:title="Calculates the length of a null&#45;terminated string.">
<polygon fill="white" stroke="#666666" points="1494.5,-390 1438.5,-390 1438.5,-371 1494.5,-371 1494.5,-390"/>
<text text-anchor="middle" x="1466.5" y="-378" font-family="Helvetica,sans-Serif" font-size="10.00">ft_strlen</text>
</a>
</g>
</g>
<!-- Node11&#45;&gt;Node16 -->
<g id="edge54_Node000011_Node000016" class="edge">
<title>Node11&#45;&gt;Node16</title>
<g id="a_edge54_Node000011_Node000016"><a xlink:title=" ">
<path fill="none" stroke="#63b8ff" d="M779.03,-454.79C786.31,-428.97 809.82,-358.3 857,-324.5 928.07,-273.58 962.58,-286.5 1050,-286.5 1050,-286.5 1050,-286.5 1195,-286.5 1285.32,-286.5 1316.09,-278.56 1395,-322.5 1415.9,-334.14 1412.1,-347.85 1431,-362.5 1432.39,-363.58 1433.86,-364.63 1435.38,-365.64"/>
<polygon fill="#63b8ff" stroke="#63b8ff" points="1433.95,-368.87 1444.34,-370.98 1437.54,-362.85 1433.95,-368.87"/>
</a>
</g>
</g>
<!-- Node20 -->
<g id="Node000020" class="node">
<title>Node20</title>
<g id="a_Node000020"><a xlink:href="ft__strjoin_8c.html#a91e6e3e428bcc9f2291b700e1829b82b" target="_top" xlink:title="Concatenates two strings into a newly allocated string.">
<polygon fill="white" stroke="#666666" points="1369.5,-372 1310.5,-372 1310.5,-353 1369.5,-353 1369.5,-372"/>
<text text-anchor="middle" x="1340" y="-360" font-family="Helvetica,sans-Serif" font-size="10.00">ft_strjoin</text>
</a>
</g>
</g>
<!-- Node11&#45;&gt;Node20 -->
<g id="edge53_Node000011_Node000020" class="edge">
<title>Node11&#45;&gt;Node20</title>
<g id="a_edge53_Node000011_Node000020"><a xlink:title=" ">
<path fill="none" stroke="#63b8ff" d="M820.74,-455.1C865.58,-445.68 936.99,-430.96 999,-419.5 1107.99,-399.35 1237.22,-378.52 1300.37,-368.54"/>
<polygon fill="#63b8ff" stroke="#63b8ff" points="1300.95,-372 1310.29,-366.98 1299.86,-365.08 1300.95,-372"/>
</a>
</g>
</g>
<!-- Node26 -->
<g id="Node000026" class="node">
<title>Node26</title>
<g id="a_Node000026"><a xlink:href="handle__heredoc_8c.html#a9a25ed2a488d16a1f121e7803ec7fbf8" target="_top" xlink:title="Returns the value of the token used as the here&#45;document delimiter.">
<polygon fill="white" stroke="#666666" points="963,-258 857,-258 857,-239 963,-239 963,-258"/>
<text text-anchor="middle" x="910" y="-246" font-family="Helvetica,sans-Serif" font-size="10.00">ft_found_delimiter</text>
</a>
</g>
</g>
<!-- Node11&#45;&gt;Node26 -->
<g id="edge34_Node000011_Node000026" class="edge">
<title>Node11&#45;&gt;Node26</title>
<g id="a_edge34_Node000011_Node000026"><a xlink:title=" ">
<path fill="none" stroke="#63b8ff" d="M778.03,-454.76C783.31,-424.03 803.53,-327.89 857,-272.5 860.62,-268.75 864.94,-265.53 869.51,-262.78"/>
<polygon fill="#63b8ff" stroke="#63b8ff" points="871.29,-265.8 878.52,-258.05 868.04,-259.6 871.29,-265.8"/>
</a>
</g>
</g>
<!-- Node27 -->
<g id="Node000027" class="node">
<title>Node27</title>
<g id="a_Node000027"><a xlink:href="ft__printf_8c.html#a091532b7f37af84bdecc84dccf4eedb1" target="_top" xlink:title="A simplified printf function that outputs formatted data to a given file descriptor.">
<polygon fill="white" stroke="#666666" points="937.5,-221 882.5,-221 882.5,-202 937.5,-202 937.5,-221"/>
<text text-anchor="middle" x="910" y="-209" font-family="Helvetica,sans-Serif" font-size="10.00">ft_printf</text>
</a>
</g>
</g>
<!-- Node11&#45;&gt;Node27 -->
<g id="edge36_Node000011_Node000027" class="edge">
<title>Node11&#45;&gt;Node27</title>
<g id="a_edge36_Node000011_Node000027"><a xlink:title=" ">
<path fill="none" stroke="#63b8ff" d="M776.96,-454.98C779.15,-420.03 791.41,-297.35 857,-230.5 861.46,-225.95 867.1,-222.49 873,-219.85"/>
<polygon fill="#63b8ff" stroke="#63b8ff" points="874.23,-223.12 882.37,-216.34 871.78,-216.57 874.23,-223.12"/>
</a>
</g>
</g>
<!-- Node37 -->
<g id="Node000037" class="node">
<title>Node37</title>
<g id="a_Node000037"><a xlink:href="ft__strcmp_8c.html#a1f2ff2312e5994560c9537cd9173be94" target="_top" xlink:title="Compares two null&#45;terminated strings lexicographically.">
<polygon fill="white" stroke="#666666" points="941,-674 879,-674 879,-655 941,-655 941,-674"/>
<text text-anchor="middle" x="910" y="-662" font-family="Helvetica,sans-Serif" font-size="10.00">ft_strcmp</text>
</a>
</g>
</g>
<!-- Node11&#45;&gt;Node37 -->
<g id="edge51_Node000011_Node000037" class="edge">
<title>Node11&#45;&gt;Node37</title>
<g id="a_edge51_Node000011_Node000037"><a xlink:title=" ">
<path fill="none" stroke="#63b8ff" d="M783.59,-474.2C793.08,-487.5 809.98,-512.39 821,-535.5 842.24,-580.03 823.94,-603.88 857,-640.5 860.57,-644.46 864.93,-647.81 869.59,-650.64"/>
<polygon fill="#63b8ff" stroke="#63b8ff" points="868.3,-653.92 878.78,-655.45 871.55,-647.71 868.3,-653.92"/>
</a>
</g>
</g>
<!-- Node38 -->
<g id="Node000038" class="node">
<title>Node38</title>
<g id="a_Node000038"><a xlink:href="get__next__line_8c.html#a78d68a5f50a6eec0380ce25b4a1bd5b7" target="_top" xlink:title=" ">
<polygon fill="white" stroke="#666666" points="1092.5,-540 1009.5,-540 1009.5,-521 1092.5,-521 1092.5,-540"/>
<text text-anchor="middle" x="1051" y="-528" font-family="Helvetica,sans-Serif" font-size="10.00">get_next_line</text>
</a>
</g>
</g>
<!-- Node11&#45;&gt;Node38 -->
<g id="edge55_Node000011_Node000038" class="edge">
<title>Node11&#45;&gt;Node38</title>
<g id="a_edge55_Node000011_Node000038"><a xlink:title=" ">
<path fill="none" stroke="#63b8ff" d="M815.98,-474.03C864.76,-485.8 947.77,-505.83 1000.69,-518.6"/>
<polygon fill="#63b8ff" stroke="#63b8ff" points="999.99,-522.03 1010.53,-520.98 1001.63,-515.23 999.99,-522.03"/>
</a>
</g>
</g>
<!-- Node13 -->
<g id="Node000013" class="node">
<title>Node13</title>
<g id="a_Node000013"><a xlink:href="utils__env_8c.html#a78e10627f49df6e904925e22ae6ee15f" target="_top" xlink:title="Performs environment variable expansion in a string.">
<polygon fill="white" stroke="#666666" points="1103,-447 999,-447 999,-428 1103,-428 1103,-447"/>
<text text-anchor="middle" x="1051" y="-435" font-family="Helvetica,sans-Serif" font-size="10.00">ft_expand_envvar</text>
</a>
</g>
</g>
<!-- Node12&#45;&gt;Node13 -->
<g id="edge14_Node000012_Node000013" class="edge">
<title>Node12&#45;&gt;Node13</title>
<g id="a_edge14_Node000012_Node000013"><a xlink:title=" ">
<path fill="none" stroke="#63b8ff" d="M925.09,-352.13C949.24,-368.63 998.7,-402.44 1027.61,-422.2"/>
<polygon fill="#63b8ff" stroke="#63b8ff" points="1025.64,-425.09 1035.87,-427.84 1029.59,-419.31 1025.64,-425.09"/>
</a>
</g>
</g>
<!-- Node12&#45;&gt;Node16 -->
<g id="edge33_Node000012_Node000016" class="edge">
<title>Node12&#45;&gt;Node16</title>
<g id="a_edge33_Node000012_Node000016"><a xlink:title=" ">
<path fill="none" stroke="#63b8ff" d="M953.22,-336.2C1038.29,-324.92 1235.77,-305.85 1395,-344.5 1396.21,-344.79 1418.74,-356.34 1438.01,-366.28"/>
<polygon fill="#63b8ff" stroke="#63b8ff" points="1436.6,-369.49 1447.1,-370.97 1439.82,-363.27 1436.6,-369.49"/>
</a>
</g>
</g>
<!-- Node13&#45;&gt;Node4 -->
<g id="edge32_Node000013_Node000004" class="edge">
<title>Node13&#45;&gt;Node4</title>
<g id="a_edge32_Node000013_Node000004"><a xlink:title=" ">
<path fill="none" stroke="#63b8ff" d="M1058.21,-447.09C1074.31,-471.66 1117.6,-535.89 1139,-549.5 1237.43,-612.12 1293.73,-549.58 1395,-607.5 1419.61,-621.57 1440.79,-647 1453.34,-664.31"/>
<polygon fill="#63b8ff" stroke="#63b8ff" points="1450.79,-666.78 1459.39,-672.97 1456.53,-662.77 1450.79,-666.78"/>
</a>
</g>
</g>
<!-- Node14 -->
<g id="Node000014" class="node">
<title>Node14</title>
<g id="a_Node000014"><a xlink:href="utils__env_8c.html#a4ea711c91d64ff7669bf6ac7e6b6b9dd" target="_top" xlink:title="Expands an environment variable found in a string.">
<polygon fill="white" stroke="#666666" points="1226.5,-465 1161.5,-465 1161.5,-446 1226.5,-446 1226.5,-465"/>
<text text-anchor="middle" x="1194" y="-453" font-family="Helvetica,sans-Serif" font-size="10.00">ft_expand</text>
</a>
</g>
</g>
<!-- Node13&#45;&gt;Node14 -->
<g id="edge15_Node000013_Node000014" class="edge">
<title>Node13&#45;&gt;Node14</title>
<g id="a_edge15_Node000013_Node000014"><a xlink:title=" ">
<path fill="none" stroke="#63b8ff" d="M1103.3,-444.05C1119.04,-446.06 1136.16,-448.24 1151.19,-450.16"/>
<polygon fill="#63b8ff" stroke="#63b8ff" points="1150.85,-453.65 1161.21,-451.44 1151.73,-446.7 1150.85,-453.65"/>
</a>
</g>
</g>
<!-- Node25 -->
<g id="Node000025" class="node">
<title>Node25</title>
<g id="a_Node000025"><a xlink:href="utils__env_8c.html#a3323d2c2586349772b23a3eaf1a241c3" target="_top" xlink:title="Concatenates a literal part (non&#45;variable) of the string to the result.">
<polygon fill="white" stroke="#666666" points="1233,-428 1155,-428 1155,-409 1233,-409 1233,-428"/>
<text text-anchor="middle" x="1194" y="-416" font-family="Helvetica,sans-Serif" font-size="10.00">ft_merge_str</text>
</a>
</g>
</g>
<!-- Node13&#45;&gt;Node25 -->
<g id="edge29_Node000013_Node000025" class="edge">
<title>Node13&#45;&gt;Node25</title>
<g id="a_edge29_Node000013_Node000025"><a xlink:title=" ">
<path fill="none" stroke="#63b8ff" d="M1103.3,-430.59C1116.86,-428.76 1131.43,-426.8 1144.82,-424.99"/>
<polygon fill="#63b8ff" stroke="#63b8ff" points="1145.34,-428.45 1154.78,-423.65 1144.4,-421.52 1145.34,-428.45"/>
</a>
</g>
</g>
<!-- Node15 -->
<g id="Node000015" class="node">
<title>Node15</title>
<g id="a_Node000015"><a xlink:href="utils__env__pt2_8c.html#afac58c53fe53bc538ba19b53efec42e4" target="_top" xlink:title="Finds the value of an environment variable given its name key.">
<polygon fill="white" stroke="#666666" points="1390,-409 1290,-409 1290,-390 1390,-390 1390,-409"/>
<text text-anchor="middle" x="1340" y="-397" font-family="Helvetica,sans-Serif" font-size="10.00">ft_get_env_value</text>
</a>
</g>
</g>
<!-- Node14&#45;&gt;Node15 -->
<g id="edge16_Node000014_Node000015" class="edge">
<title>Node14&#45;&gt;Node15</title>
<g id="a_edge16_Node000014_Node000015"><a xlink:title=" ">
<path fill="none" stroke="#63b8ff" d="M1226.45,-445.98C1233.93,-443.45 1241.82,-440.57 1249,-437.5 1265.64,-430.39 1268.42,-425.74 1285,-418.5 1289.72,-416.44 1294.74,-414.43 1299.74,-412.55"/>
<polygon fill="#63b8ff" stroke="#63b8ff" points="1301.07,-415.79 1309.27,-409.08 1298.67,-409.21 1301.07,-415.79"/>
</a>
</g>
</g>
<!-- Node18 -->
<g id="Node000018" class="node">
<title>Node18</title>
<g id="a_Node000018"><a xlink:href="ft__isalnum_8c.html#a9c2c3821ea43ebdf97de07b123503f8b" target="_top" xlink:title="Checks whether a character is alphanumeric.">
<polygon fill="white" stroke="#666666" points="1374,-483 1306,-483 1306,-464 1374,-464 1374,-483"/>
<text text-anchor="middle" x="1340" y="-471" font-family="Helvetica,sans-Serif" font-size="10.00">ft_isalnum</text>
</a>
</g>
</g>
<!-- Node14&#45;&gt;Node18 -->
<g id="edge19_Node000014_Node000018" class="edge">
<title>Node14&#45;&gt;Node18</title>
<g id="a_edge19_Node000014_Node000018"><a xlink:title=" ">
<path fill="none" stroke="#63b8ff" d="M1226.6,-459.45C1246.9,-461.99 1273.53,-465.32 1295.78,-468.1"/>
<polygon fill="#63b8ff" stroke="#63b8ff" points="1295.62,-471.6 1305.97,-469.37 1296.48,-464.66 1295.62,-471.6"/>
</a>
</g>
</g>
<!-- Node19 -->
<g id="Node000019" class="node">
<title>Node19</title>
<g id="a_Node000019"><a xlink:href="ft__isdigit_8c.html#a2cf15b8a1a277d1e2ce3654101a2003d" target="_top" xlink:title="Checks whether a character is a decimal digit.">
<polygon fill="white" stroke="#666666" points="1369.5,-446 1310.5,-446 1310.5,-427 1369.5,-427 1369.5,-446"/>
<text text-anchor="middle" x="1340" y="-434" font-family="Helvetica,sans-Serif" font-size="10.00">ft_isdigit</text>
</a>
</g>
</g>
<!-- Node14&#45;&gt;Node19 -->
<g id="edge20_Node000014_Node000019" class="edge">
<title>Node14&#45;&gt;Node19</title>
<g id="a_edge20_Node000014_Node000019"><a xlink:title=" ">
<path fill="none" stroke="#63b8ff" d="M1226.6,-451.33C1248.28,-448.47 1277.19,-444.66 1300.26,-441.61"/>
<polygon fill="#63b8ff" stroke="#63b8ff" points="1300.95,-445.05 1310.4,-440.27 1300.03,-438.11 1300.95,-445.05"/>
</a>
</g>
</g>
<!-- Node14&#45;&gt;Node20 -->
<g id="edge21_Node000014_Node000020" class="edge">
<title>Node14&#45;&gt;Node20</title>
<g id="a_edge21_Node000014_Node000020"><a xlink:title=" ">
<path fill="none" stroke="#63b8ff" d="M1226.78,-448.84C1234.57,-446.19 1242.52,-442.53 1249,-437.5 1272.36,-419.34 1261.79,-399.85 1285,-381.5 1289.7,-377.79 1295.17,-374.77 1300.8,-372.33"/>
<polygon fill="#63b8ff" stroke="#63b8ff" points="1302.18,-375.55 1310.3,-368.74 1299.71,-369 1302.18,-375.55"/>
</a>
</g>
</g>
<!-- Node22 -->
<g id="Node000022" class="node">
<title>Node22</title>
<g id="a_Node000022"><a xlink:href="ft__substr_8c.html#a78c402cbf3d55b1374693c3b7d34f71d" target="_top" xlink:title="Extracts a substring from a given string.">
<polygon fill="white" stroke="#666666" points="1369.5,-559 1310.5,-559 1310.5,-540 1369.5,-540 1369.5,-559"/>
<text text-anchor="middle" x="1340" y="-547" font-family="Helvetica,sans-Serif" font-size="10.00">ft_substr</text>
</a>
</g>
</g>
<!-- Node14&#45;&gt;Node22 -->
<g id="edge24_Node000014_Node000022" class="edge">
<title>Node14&#45;&gt;Node22</title>
<g id="a_edge24_Node000014_Node000022"><a xlink:title=" ">
<path fill="none" stroke="#63b8ff" d="M1209.6,-465.03C1234.61,-481.36 1285.85,-514.81 1315.8,-534.36"/>
<polygon fill="#63b8ff" stroke="#63b8ff" points="1314.07,-537.41 1324.36,-539.94 1317.9,-531.55 1314.07,-537.41"/>
</a>
</g>
</g>
<!-- Node15&#45;&gt;Node16 -->
<g id="edge17_Node000015_Node000016" class="edge">
<title>Node15&#45;&gt;Node16</title>
<g id="a_edge17_Node000015_Node000016"><a xlink:title=" ">
<path fill="none" stroke="#63b8ff" d="M1390.21,-391.99C1402.93,-390.05 1416.41,-387.99 1428.4,-386.16"/>
<polygon fill="#63b8ff" stroke="#63b8ff" points="1429.13,-389.59 1438.49,-384.62 1428.08,-382.67 1429.13,-389.59"/>
</a>
</g>
</g>
<!-- Node17 -->
<g id="Node000017" class="node">
<title>Node17</title>
<g id="a_Node000017"><a xlink:href="ft__strncmp_8c.html#a9d2fe792187aa4ed08e5864fb2c4d6dc" target="_top" xlink:title="Compares up to n characters of two strings.">
<polygon fill="white" stroke="#666666" points="1500.5,-427 1432.5,-427 1432.5,-408 1500.5,-408 1500.5,-427"/>
<text text-anchor="middle" x="1466.5" y="-415" font-family="Helvetica,sans-Serif" font-size="10.00">ft_strncmp</text>
</a>
</g>
</g>
<!-- Node15&#45;&gt;Node17 -->
<g id="edge18_Node000015_Node000017" class="edge">
<title>Node15&#45;&gt;Node17</title>
<g id="a_edge18_Node000015_Node000017"><a xlink:title=" ">
<path fill="none" stroke="#63b8ff" d="M1390.21,-406.61C1400.81,-408.15 1411.94,-409.76 1422.29,-411.25"/>
<polygon fill="#63b8ff" stroke="#63b8ff" points="1421.94,-414.74 1432.34,-412.71 1422.94,-407.81 1421.94,-414.74"/>
</a>
</g>
</g>
<!-- Node20&#45;&gt;Node16 -->
<g id="edge23_Node000020_Node000016" class="edge">
<title>Node20&#45;&gt;Node16</title>
<g id="a_edge23_Node000020_Node000016"><a xlink:title=" ">
<path fill="none" stroke="#63b8ff" d="M1369.56,-366.63C1387.01,-369.15 1409.5,-372.4 1428.33,-375.13"/>
<polygon fill="#63b8ff" stroke="#63b8ff" points="1427.95,-378.61 1438.35,-376.57 1428.95,-371.68 1427.95,-378.61"/>
</a>
</g>
</g>
<!-- Node21 -->
<g id="Node000021" class="node">
<title>Node21</title>
<g id="a_Node000021"><a xlink:href="ft__memcpy_8c.html#a41a6f05af30cf85ff63a08e383826322" target="_top" xlink:title="Copies &#39;n&#39; bytes from memory area &#39;src&#39; to memory area &#39;dest&#39;.">
<polygon fill="white" stroke="#666666" points="1502,-353 1431,-353 1431,-334 1502,-334 1502,-353"/>
<text text-anchor="middle" x="1466.5" y="-341" font-family="Helvetica,sans-Serif" font-size="10.00">ft_memcpy</text>
</a>
</g>
</g>
<!-- Node20&#45;&gt;Node21 -->
<g id="edge22_Node000020_Node000021" class="edge">
<title>Node20&#45;&gt;Node21</title>
<g id="a_edge22_Node000020_Node000021"><a xlink:title=" ">
<path fill="none" stroke="#63b8ff" d="M1369.56,-358.14C1384.66,-355.84 1403.55,-352.95 1420.56,-350.36"/>
<polygon fill="#63b8ff" stroke="#63b8ff" points="1421.5,-353.76 1430.86,-348.79 1420.45,-346.84 1421.5,-353.76"/>
</a>
</g>
</g>
<!-- Node22&#45;&gt;Node4 -->
<g id="edge25_Node000022_Node000004" class="edge">
<title>Node22&#45;&gt;Node4</title>
<g id="a_edge25_Node000022_Node000004"><a xlink:title=" ">
<path fill="none" stroke="#63b8ff" d="M1369.7,-558.64C1378.44,-562.33 1387.67,-567.23 1395,-573.5 1424.54,-598.76 1446.28,-639.46 1457.32,-663.33"/>
<polygon fill="#63b8ff" stroke="#63b8ff" points="1454.23,-665.01 1461.51,-672.72 1460.63,-662.16 1454.23,-665.01"/>
</a>
</g>
</g>
<!-- Node22&#45;&gt;Node16 -->
<g id="edge27_Node000022_Node000016" class="edge">
<title>Node22&#45;&gt;Node16</title>
<g id="a_edge27_Node000022_Node000016"><a xlink:title=" ">
<path fill="none" stroke="#63b8ff" d="M1369.5,-542.14C1378.75,-538.49 1388.34,-533.17 1395,-525.5 1433.2,-481.54 1394.7,-445.05 1431,-399.5 1431.93,-398.33 1432.96,-397.22 1434.05,-396.17"/>
<polygon fill="#63b8ff" stroke="#63b8ff" points="1436.21,-398.93 1442.05,-390.09 1431.97,-393.36 1436.21,-398.93"/>
</a>
</g>
</g>
<!-- Node23 -->
<g id="Node000023" class="node">
<title>Node23</title>
<g id="a_Node000023"><a xlink:href="ft__strlcpy_8c.html#aa053827b3a2ea3d0118783d6fb59d178" target="_top" xlink:title="Copies up to size &#45; 1 characters from the string src to dst, null&#45;terminating the result.">
<polygon fill="white" stroke="#666666" points="1497.5,-577 1435.5,-577 1435.5,-558 1497.5,-558 1497.5,-577"/>
<text text-anchor="middle" x="1466.5" y="-565" font-family="Helvetica,sans-Serif" font-size="10.00">ft_strlcpy</text>
</a>
</g>
</g>
<!-- Node22&#45;&gt;Node23 -->
<g id="edge26_Node000022_Node000023" class="edge">
<title>Node22&#45;&gt;Node23</title>
<g id="a_edge26_Node000022_Node000023"><a xlink:title=" ">
<path fill="none" stroke="#63b8ff" d="M1369.56,-553.63C1386.08,-556.02 1407.13,-559.06 1425.3,-561.69"/>
<polygon fill="#63b8ff" stroke="#63b8ff" points="1424.94,-565.17 1435.33,-563.14 1425.94,-558.24 1424.94,-565.17"/>
</a>
</g>
</g>
<!-- Node24 -->
<g id="Node000024" class="node">
<title>Node24</title>
<g id="a_Node000024"><a xlink:href="ft__strlcat_8c.html#a3ab017dd491d7327d1b4acbf1398b91e" target="_top" xlink:title="Returns the length of a null&#45;terminated string.">
<polygon fill="white" stroke="#666666" points="1482.5,-540 1450.5,-540 1450.5,-521 1482.5,-521 1482.5,-540"/>
<text text-anchor="middle" x="1466.5" y="-528" font-family="Helvetica,sans-Serif" font-size="10.00">len</text>
</a>
</g>
</g>
<!-- Node22&#45;&gt;Node24 -->
<g id="edge28_Node000022_Node000024" class="edge">
<title>Node22&#45;&gt;Node24</title>
<g id="a_edge28_Node000022_Node000024"><a xlink:title=" ">
<path fill="none" stroke="#63b8ff" d="M1369.56,-545.14C1390.86,-541.89 1419.69,-537.49 1440.17,-534.37"/>
<polygon fill="#63b8ff" stroke="#63b8ff" points="1440.95,-537.79 1450.31,-532.82 1439.9,-530.87 1440.95,-537.79"/>
</a>
</g>
</g>
<!-- Node25&#45;&gt;Node20 -->
<g id="edge30_Node000025_Node000020" class="edge">
<title>Node25&#45;&gt;Node20</title>
<g id="a_edge30_Node000025_Node000020"><a xlink:title=" ">
<path fill="none" stroke="#63b8ff" d="M1217.43,-408.9C1235.56,-401.23 1261.79,-390.35 1285,-381.5 1290.22,-379.51 1295.76,-377.48 1301.22,-375.51"/>
<polygon fill="#63b8ff" stroke="#63b8ff" points="1302.62,-378.73 1310.87,-372.09 1300.28,-372.13 1302.62,-378.73"/>
</a>
</g>
</g>
<!-- Node25&#45;&gt;Node22 -->
<g id="edge31_Node000025_Node000022" class="edge">
<title>Node25&#45;&gt;Node22</title>
<g id="a_edge31_Node000025_Node000022"><a xlink:title=" ">
<path fill="none" stroke="#63b8ff" d="M1232.4,-428.03C1238.3,-430.53 1244.07,-433.64 1249,-437.5 1271.99,-455.52 1266.88,-469.58 1285,-492.5 1296.29,-506.78 1310.5,-521.68 1321.51,-532.66"/>
<polygon fill="#63b8ff" stroke="#63b8ff" points="1319.29,-535.39 1328.87,-539.9 1324.2,-530.39 1319.29,-535.39"/>
</a>
</g>
</g>
<!-- Node28 -->
<g id="Node000028" class="node">
<title>Node28</title>
<g id="a_Node000028"><a xlink:href="ft__printf_8c.html#a80c1c206dcd33d07c265581878aaa300" target="_top" xlink:title="Processes a single format specifier and prints the corresponding argument.">
<polygon fill="white" stroke="#666666" points="1092.5,-166 1009.5,-166 1009.5,-147 1092.5,-147 1092.5,-166"/>
<text text-anchor="middle" x="1051" y="-154" font-family="Helvetica,sans-Serif" font-size="10.00">check_format</text>
</a>
</g>
</g>
<!-- Node27&#45;&gt;Node28 -->
<g id="edge37_Node000027_Node000028" class="edge">
<title>Node27&#45;&gt;Node28</title>
<g id="a_edge37_Node000027_Node000028"><a xlink:title=" ">
<path fill="none" stroke="#63b8ff" d="M935.21,-201.92C957.6,-193.06 991.09,-179.81 1016.12,-169.91"/>
<polygon fill="#63b8ff" stroke="#63b8ff" points="1017.59,-173.09 1025.6,-166.16 1015.01,-166.58 1017.59,-173.09"/>
</a>
</g>
</g>
<!-- Node32 -->
<g id="Node000032" class="node">
<title>Node32</title>
<g id="a_Node000032"><a xlink:href="ft__putchar__fd_8c.html#a03ef80b25dc4a521379fa92ad97bad21" target="_top" xlink:title="Writes a single character to the specified file descriptor.">
<polygon fill="white" stroke="#666666" points="1234,-240 1154,-240 1154,-221 1234,-221 1234,-240"/>
<text text-anchor="middle" x="1194" y="-228" font-family="Helvetica,sans-Serif" font-size="10.00">ft_putchar_fd</text>
</a>
</g>
</g>
<!-- Node27&#45;&gt;Node32 -->
<g id="edge50_Node000027_Node000032" class="edge">
<title>Node27&#45;&gt;Node32</title>
<g id="a_edge50_Node000027_Node000032"><a xlink:title=" ">
<path fill="none" stroke="#63b8ff" d="M937.53,-213.29C984.71,-216.47 1083.86,-223.15 1143.82,-227.19"/>
<polygon fill="#63b8ff" stroke="#63b8ff" points="1143.6,-230.68 1153.81,-227.86 1144.07,-223.7 1143.6,-230.68"/>
</a>
</g>
</g>
<!-- Node29 -->
<g id="Node000029" class="node">
<title>Node29</title>
<g id="a_Node000029"><a xlink:href="ft__forpointer_8c.html#a8e02c77b80406af72327ebf71f537786" target="_top" xlink:title="Prints a pointer in hexadecimal format prefixed with &quot;0x&quot;.">
<polygon fill="white" stroke="#666666" points="1232.5,-129 1155.5,-129 1155.5,-110 1232.5,-110 1232.5,-129"/>
<text text-anchor="middle" x="1194" y="-117" font-family="Helvetica,sans-Serif" font-size="10.00">ft_forpointer</text>
</a>
</g>
</g>
<!-- Node28&#45;&gt;Node29 -->
<g id="edge38_Node000028_Node000029" class="edge">
<title>Node28&#45;&gt;Node29</title>
<g id="a_edge38_Node000028_Node000029"><a xlink:title=" ">
<path fill="none" stroke="#63b8ff" d="M1088.31,-146.97C1106.02,-142.33 1127.52,-136.68 1146.42,-131.72"/>
<polygon fill="#63b8ff" stroke="#63b8ff" points="1147.54,-135.05 1156.32,-129.12 1145.76,-128.28 1147.54,-135.05"/>
</a>
</g>
</g>
<!-- Node31 -->
<g id="Node000031" class="node">
<title>Node31</title>
<g id="a_Node000031"><a xlink:href="ft__hexadecimal_8c.html#a39c845e0a4286d3ac1e04c1e64ac734b" target="_top" xlink:title="Prints an unsigned integer in hexadecimal format.">
<polygon fill="white" stroke="#666666" points="1240,-74 1148,-74 1148,-55 1240,-55 1240,-74"/>
<text text-anchor="middle" x="1194" y="-62" font-family="Helvetica,sans-Serif" font-size="10.00">ft_hexadecimal</text>
</a>
</g>
</g>
<!-- Node28&#45;&gt;Node31 -->
<g id="edge41_Node000028_Node000031" class="edge">
<title>Node28&#45;&gt;Node31</title>
<g id="a_edge41_Node000028_Node000031"><a xlink:title=" ">
<path fill="none" stroke="#63b8ff" d="M1066.82,-146.83C1091.32,-130.84 1140.45,-98.79 1169.65,-79.73"/>
<polygon fill="#63b8ff" stroke="#63b8ff" points="1171.91,-82.44 1178.38,-74.04 1168.09,-76.58 1171.91,-82.44"/>
</a>
</g>
</g>
<!-- Node28&#45;&gt;Node32 -->
<g id="edge43_Node000028_Node000032" class="edge">
<title>Node28&#45;&gt;Node32</title>
<g id="a_edge43_Node000028_Node000032"><a xlink:title=" ">
<path fill="none" stroke="#63b8ff" d="M1064.67,-166.11C1081.1,-178.22 1110.98,-199.07 1139,-212.5 1142.61,-214.23 1146.42,-215.86 1150.29,-217.38"/>
<polygon fill="#63b8ff" stroke="#63b8ff" points="1149.33,-220.76 1159.93,-220.93 1151.75,-214.19 1149.33,-220.76"/>
</a>
</g>
</g>
<!-- Node33 -->
<g id="Node000033" class="node">
<title>Node33</title>
<g id="a_Node000033"><a xlink:href="ft__putnbr__fd_8c.html#a1554101ee350c316340c78e19faddaa8" target="_top" xlink:title="Writes an integer to a given file descriptor.">
<polygon fill="white" stroke="#666666" points="1231.5,-19 1156.5,-19 1156.5,0 1231.5,0 1231.5,-19"/>
<text text-anchor="middle" x="1194" y="-7" font-family="Helvetica,sans-Serif" font-size="10.00">ft_putnbr_fd</text>
</a>
</g>
</g>
<!-- Node28&#45;&gt;Node33 -->
<g id="edge44_Node000028_Node000033" class="edge">
<title>Node28&#45;&gt;Node33</title>
<g id="a_edge44_Node000028_Node000033"><a xlink:title=" ">
<path fill="none" stroke="#63b8ff" d="M1058.09,-146.75C1071.17,-126.34 1103.61,-78.27 1139,-45.5 1147.39,-37.73 1157.63,-30.45 1166.92,-24.51"/>
<polygon fill="#63b8ff" stroke="#63b8ff" points="1168.77,-27.48 1175.44,-19.25 1165.1,-21.52 1168.77,-27.48"/>
</a>
</g>
</g>
<!-- Node34 -->
<g id="Node000034" class="node">
<title>Node34</title>
<g id="a_Node000034"><a xlink:href="ft__putstr__fd_8c.html#a00b0638f31a75c7a30f77f33888bfb73" target="_top" xlink:title="Writes a null&#45;terminated string to the specified file descriptor.">
<polygon fill="white" stroke="#666666" points="1230,-203 1158,-203 1158,-184 1230,-184 1230,-203"/>
<text text-anchor="middle" x="1194" y="-191" font-family="Helvetica,sans-Serif" font-size="10.00">ft_putstr_fd</text>
</a>
</g>
</g>
<!-- Node28&#45;&gt;Node34 -->
<g id="edge46_Node000028_Node000034" class="edge">
<title>Node28&#45;&gt;Node34</title>
<g id="a_edge46_Node000028_Node000034"><a xlink:title=" ">
<path fill="none" stroke="#63b8ff" d="M1088.31,-166.03C1106.52,-170.81 1128.73,-176.64 1148.01,-181.69"/>
<polygon fill="#63b8ff" stroke="#63b8ff" points="1147.23,-185.11 1157.79,-184.26 1149,-178.34 1147.23,-185.11"/>
</a>
</g>
</g>
<!-- Node35 -->
<g id="Node000035" class="node">
<title>Node35</title>
<g id="a_Node000035"><a xlink:href="ft__unsigned__putnbr_8c.html#af9a70f8607b40cf2a7706f9d3725b549" target="_top" xlink:title="Writes an unsigned integer to the given file descriptor.">
<polygon fill="white" stroke="#666666" points="1249,-166 1139,-166 1139,-147 1249,-147 1249,-166"/>
<text text-anchor="middle" x="1194" y="-154" font-family="Helvetica,sans-Serif" font-size="10.00">ft_unsigned_putnbr</text>
</a>
</g>
</g>
<!-- Node28&#45;&gt;Node35 -->
<g id="edge47_Node000028_Node000035" class="edge">
<title>Node28&#45;&gt;Node35</title>
<g id="a_edge47_Node000028_Node000035"><a xlink:title=" ">
<path fill="none" stroke="#63b8ff" d="M1092.78,-156.5C1104.03,-156.5 1116.51,-156.5 1128.74,-156.5"/>
<polygon fill="#63b8ff" stroke="#63b8ff" points="1128.92,-160 1138.92,-156.5 1128.92,-153 1128.92,-160"/>
</a>
</g>
</g>
<!-- Node30 -->
<g id="Node000030" class="node">
<title>Node30</title>
<g id="a_Node000030"><a xlink:href="ft__forpointer_8c.html#aded1bf735c8a10e47396170d27c5b6aa" target="_top" xlink:title="Recursively prints a memory address in hexadecimal format.">
<polygon fill="white" stroke="#666666" points="1395,-120 1285,-120 1285,-101 1395,-101 1395,-120"/>
<text text-anchor="middle" x="1340" y="-108" font-family="Helvetica,sans-Serif" font-size="10.00">ft_ricorsive_pointer</text>
</a>
</g>
</g>
<!-- Node29&#45;&gt;Node30 -->
<g id="edge39_Node000029_Node000030" class="edge">
<title>Node29&#45;&gt;Node30</title>
<g id="a_edge39_Node000029_Node000030"><a xlink:title=" ">
<path fill="none" stroke="#63b8ff" d="M1232.83,-117.14C1245.64,-116.33 1260.33,-115.42 1274.61,-114.52"/>
<polygon fill="#63b8ff" stroke="#63b8ff" points="1275.14,-118 1284.9,-113.88 1274.7,-111.01 1275.14,-118"/>
</a>
</g>
</g>
<!-- Node30&#45;&gt;Node30 -->
<g id="edge40_Node000030_Node000030" class="edge">
<title>Node30&#45;&gt;Node30</title>
<g id="a_edge40_Node000030_Node000030"><a xlink:title=" ">
<path fill="none" stroke="#63b8ff" d="M1320.58,-120.08C1311.13,-128.73 1317.61,-138 1340,-138 1354,-138 1361.77,-134.38 1363.33,-129.55"/>
<polygon fill="#63b8ff" stroke="#63b8ff" points="1366.47,-127.99 1359.42,-120.08 1360,-130.66 1366.47,-127.99"/>
</a>
</g>
</g>
<!-- Node31&#45;&gt;Node31 -->
<g id="edge42_Node000031_Node000031" class="edge">
<title>Node31&#45;&gt;Node31</title>
<g id="a_edge42_Node000031_Node000031"><a xlink:title=" ">
<path fill="none" stroke="#63b8ff" d="M1172.11,-74.08C1161.47,-82.73 1168.76,-92 1194,-92 1210.17,-92 1218.97,-88.2 1220.41,-83.19"/>
<polygon fill="#63b8ff" stroke="#63b8ff" points="1223.47,-81.48 1215.89,-74.08 1217.2,-84.6 1223.47,-81.48"/>
</a>
</g>
</g>
<!-- Node33&#45;&gt;Node33 -->
<g id="edge45_Node000033_Node000033" class="edge">
<title>Node33&#45;&gt;Node33</title>
<g id="a_edge45_Node000033_Node000033"><a xlink:title=" ">
<path fill="none" stroke="#63b8ff" d="M1172.11,-19.08C1161.47,-27.73 1168.76,-37 1194,-37 1210.17,-37 1218.97,-33.2 1220.41,-28.19"/>
<polygon fill="#63b8ff" stroke="#63b8ff" points="1223.47,-26.48 1215.89,-19.08 1217.2,-29.6 1223.47,-26.48"/>
</a>
</g>
</g>
<!-- Node36 -->
<g id="Node000036" class="node">
<title>Node36</title>
<g id="a_Node000036"><a xlink:href="ft__putnbr_8c.html#a2e51f80c9e46e52f4adf94617fb51ada" target="_top" xlink:title="Writes an integer to the standard output (stdout).">
<polygon fill="white" stroke="#666666" points="1370,-175 1310,-175 1310,-156 1370,-156 1370,-175"/>
<text text-anchor="middle" x="1340" y="-163" font-family="Helvetica,sans-Serif" font-size="10.00">ft_putnbr</text>
</a>
</g>
</g>
<!-- Node35&#45;&gt;Node36 -->
<g id="edge48_Node000035_Node000036" class="edge">
<title>Node35&#45;&gt;Node36</title>
<g id="a_edge48_Node000035_Node000036"><a xlink:title=" ">
<path fill="none" stroke="#63b8ff" d="M1249.03,-159.88C1265.76,-160.92 1283.87,-162.05 1299.43,-163.03"/>
<polygon fill="#63b8ff" stroke="#63b8ff" points="1299.55,-166.54 1309.74,-163.67 1299.98,-159.55 1299.55,-166.54"/>
</a>
</g>
</g>
<!-- Node36&#45;&gt;Node36 -->
<g id="edge49_Node000036_Node000036" class="edge">
<title>Node36&#45;&gt;Node36</title>
<g id="a_edge49_Node000036_Node000036"><a xlink:title=" ">
<path fill="none" stroke="#63b8ff" d="M1320.58,-175.08C1311.13,-183.73 1317.61,-193 1340,-193 1354,-193 1361.77,-189.38 1363.33,-184.55"/>
<polygon fill="#63b8ff" stroke="#63b8ff" points="1366.47,-182.99 1359.42,-175.08 1360,-185.66 1366.47,-182.99"/>
</a>
</g>
</g>
<!-- Node39 -->
<g id="Node000039" class="node">
<title>Node39</title>
<g id="a_Node000039"><a xlink:href="get__next__line_8c.html#a253f107325777771467d4b92d8ad0def" target="_top" xlink:title=" ">
<polygon fill="white" stroke="#666666" points="1225.5,-540 1162.5,-540 1162.5,-521 1225.5,-521 1225.5,-540"/>
<text text-anchor="middle" x="1194" y="-528" font-family="Helvetica,sans-Serif" font-size="10.00">ft_getrest</text>
</a>
</g>
</g>
<!-- Node38&#45;&gt;Node39 -->
<g id="edge56_Node000038_Node000039" class="edge">
<title>Node38&#45;&gt;Node39</title>
<g id="a_edge56_Node000038_Node000039"><a xlink:title=" ">
<path fill="none" stroke="#63b8ff" d="M1092.78,-530.5C1111.36,-530.5 1133.31,-530.5 1151.93,-530.5"/>
<polygon fill="#63b8ff" stroke="#63b8ff" points="1152.17,-534 1162.17,-530.5 1152.17,-527 1152.17,-534"/>
</a>
</g>
</g>
<!-- Node40 -->
<g id="Node000040" class="node">
<title>Node40</title>
<g id="a_Node000040"><a xlink:href="get__next__line_8c.html#aad5cee417ca3f1d807d5b1d1c76c6987" target="_top" xlink:title=" ">
<polygon fill="white" stroke="#666666" points="1225,-635 1163,-635 1163,-616 1225,-616 1225,-635"/>
<text text-anchor="middle" x="1194" y="-623" font-family="Helvetica,sans-Serif" font-size="10.00">ft_putline</text>
</a>
</g>
</g>
<!-- Node38&#45;&gt;Node40 -->
<g id="edge59_Node000038_Node000040" class="edge">
<title>Node38&#45;&gt;Node40</title>
<g id="a_edge59_Node000038_Node000040"><a xlink:title=" ">
<path fill="none" stroke="#63b8ff" d="M1062.03,-540.21C1077.55,-554.87 1108.78,-582.91 1139,-601.5 1145.05,-605.22 1151.77,-608.68 1158.36,-611.75"/>
<polygon fill="#63b8ff" stroke="#63b8ff" points="1157.28,-615.1 1167.84,-615.96 1160.12,-608.7 1157.28,-615.1"/>
</a>
</g>
</g>
<!-- Node39&#45;&gt;Node16 -->
<g id="edge57_Node000039_Node000016" class="edge">
<title>Node39&#45;&gt;Node16</title>
<g id="a_edge57_Node000039_Node000016"><a xlink:title=" ">
<path fill="none" stroke="#63b8ff" d="M1225.62,-528.28C1275.1,-524.12 1369.68,-513.6 1395,-492.5 1429.05,-464.13 1401.83,-432.87 1431,-399.5 1432.01,-398.34 1433.11,-397.24 1434.28,-396.19"/>
<polygon fill="#63b8ff" stroke="#63b8ff" points="1436.64,-398.8 1442.67,-390.09 1432.53,-393.14 1436.64,-398.8"/>
</a>
</g>
</g>
<!-- Node39&#45;&gt;Node22 -->
<g id="edge58_Node000039_Node000022" class="edge">
<title>Node39&#45;&gt;Node22</title>
<g id="a_edge58_Node000039_Node000022"><a xlink:title=" ">
<path fill="none" stroke="#63b8ff" d="M1225.54,-534.53C1247.4,-537.41 1277,-541.32 1300.48,-544.42"/>
<polygon fill="#63b8ff" stroke="#63b8ff" points="1300.09,-547.9 1310.46,-545.73 1301.01,-540.96 1300.09,-547.9"/>
</a>
</g>
</g>
<!-- Node40&#45;&gt;Node4 -->
<g id="edge61_Node000040_Node000004" class="edge">
<title>Node40&#45;&gt;Node4</title>
<g id="a_edge61_Node000040_Node000004"><a xlink:title=" ">
<path fill="none" stroke="#63b8ff" d="M1225.41,-631.92C1242.85,-635.61 1265.16,-640.32 1285,-644.5 1333.77,-654.78 1389.95,-666.61 1426.51,-674.3"/>
<polygon fill="#63b8ff" stroke="#63b8ff" points="1426.23,-677.82 1436.74,-676.45 1427.67,-670.97 1426.23,-677.82"/>
</a>
</g>
</g>
<!-- Node40&#45;&gt;Node20 -->
<g id="edge62_Node000040_Node000020" class="edge">
<title>Node40&#45;&gt;Node20</title>
<g id="a_edge62_Node000040_Node000020"><a xlink:title=" ">
<path fill="none" stroke="#63b8ff" d="M1203.75,-615.98C1215.82,-602.31 1237.4,-575.87 1249,-549.5 1279.75,-479.6 1234.55,-438.82 1285,-381.5 1289.27,-376.65 1294.84,-373.04 1300.8,-370.35"/>
<polygon fill="#63b8ff" stroke="#63b8ff" points="1302.15,-373.59 1310.32,-366.84 1299.72,-367.02 1302.15,-373.59"/>
</a>
</g>
</g>
<!-- Node41 -->
<g id="Node000041" class="node">
<title>Node41</title>
<g id="a_Node000041"><a xlink:href="ft__strchr_8c.html#aa6d0c2d180f32ee585485e1a1ce3d55d" target="_top" xlink:title="Locates the first occurrence of a character in a string.">
<polygon fill="white" stroke="#666666" points="1368,-635 1312,-635 1312,-616 1368,-616 1368,-635"/>
<text text-anchor="middle" x="1340" y="-623" font-family="Helvetica,sans-Serif" font-size="10.00">ft_strchr</text>
</a>
</g>
</g>
<!-- Node40&#45;&gt;Node41 -->
<g id="edge60_Node000040_Node000041" class="edge">
<title>Node40&#45;&gt;Node41</title>
<g id="a_edge60_Node000040_Node000041"><a xlink:title=" ">
<path fill="none" stroke="#63b8ff" d="M1225.19,-625.5C1247.46,-625.5 1277.9,-625.5 1301.69,-625.5"/>
<polygon fill="#63b8ff" stroke="#63b8ff" points="1301.77,-629 1311.77,-625.5 1301.77,-622 1301.77,-629"/>
</a>
</g>
</g>
</g>
</svg>
