<?xml version="1.0" encoding="UTF-8" standalone="no"?>
<!DOCTYPE svg PUBLIC "-//W3C//DTD SVG 1.1//EN"
 "http://www.w3.org/Graphics/SVG/1.1/DTD/svg11.dtd">
<!-- Generated by graphviz version 2.43.0 (0)
 -->
<!-- Title: ft_estatus_to_str Pages: 1 -->
<svg width="435pt" height="253pt"
 viewBox="0.00 0.00 435.00 253.00" xmlns="http://www.w3.org/2000/svg" xmlns:xlink="http://www.w3.org/1999/xlink">
<g id="graph0" class="graph" transform="scale(1 1) rotate(0) translate(4 249)">
<title>ft_estatus_to_str</title>
<!-- Node1 -->
<g id="Node000001" class="node">
<title>Node1</title>
<g id="a_Node000001"><a xlink:title="Expands the exit status variable $? in a string.">
<polygon fill="#999999" stroke="#666666" points="98,-76 0,-76 0,-57 98,-57 98,-76"/>
<text text-anchor="middle" x="49" y="-64" font-family="Helvetica,sans-Serif" font-size="10.00">ft_estatus_to_str</text>
</a>
</g>
</g>
<!-- Node2 -->
<g id="Node000002" class="node">
<title>Node2</title>
<g id="a_Node000002"><a xlink:href="ft__itoa_8c.html#a8a6ea3765dfd826eabfc00d36e28ea38" target="_top" xlink:title="Converts an integer to a null&#45;terminated string.">
<polygon fill="white" stroke="#666666" points="202.5,-169 155.5,-169 155.5,-150 202.5,-150 202.5,-169"/>
<text text-anchor="middle" x="179" y="-157" font-family="Helvetica,sans-Serif" font-size="10.00">ft_itoa</text>
</a>
</g>
</g>
<!-- Node1&#45;&gt;Node2 -->
<g id="edge1_Node000001_Node000002" class="edge">
<title>Node1&#45;&gt;Node2</title>
<g id="a_edge1_Node000001_Node000002"><a xlink:title=" ">
<path fill="none" stroke="#63b8ff" d="M63.22,-76.1C85.25,-92.11 129.71,-124.41 156.36,-143.78"/>
<polygon fill="#63b8ff" stroke="#63b8ff" points="154.52,-146.76 164.66,-149.81 158.63,-141.1 154.52,-146.76"/>
</a>
</g>
</g>
<!-- Node8 -->
<g id="Node000008" class="node">
<title>Node8</title>
<g id="a_Node000008"><a xlink:href="ft__strjoin__three_8c.html#a516b013da6ff6065d18005f321670a5b" target="_top" xlink:title="Concatenates three strings into a newly allocated string.">
<polygon fill="white" stroke="#666666" points="224,-19 134,-19 134,0 224,0 224,-19"/>
<text text-anchor="middle" x="179" y="-7" font-family="Helvetica,sans-Serif" font-size="10.00">ft_strjoin_three</text>
</a>
</g>
</g>
<!-- Node1&#45;&gt;Node8 -->
<g id="edge8_Node000001_Node000008" class="edge">
<title>Node1&#45;&gt;Node8</title>
<g id="a_edge8_Node000001_Node000008"><a xlink:title=" ">
<path fill="none" stroke="#63b8ff" d="M71.42,-56.96C92.19,-47.71 123.9,-33.59 147.34,-23.15"/>
<polygon fill="#63b8ff" stroke="#63b8ff" points="148.79,-26.34 156.51,-19.07 145.95,-19.94 148.79,-26.34"/>
</a>
</g>
</g>
<!-- Node11 -->
<g id="Node000011" class="node">
<title>Node11</title>
<g id="a_Node000011"><a xlink:href="ft__strlen_8c.html#a828402378653640f545a4be2e00e92f9" target="_top" xlink:title="Calculates the length of a null&#45;terminated string.">
<polygon fill="white" stroke="#666666" points="419.5,-57 363.5,-57 363.5,-38 419.5,-38 419.5,-57"/>
<text text-anchor="middle" x="391.5" y="-45" font-family="Helvetica,sans-Serif" font-size="10.00">ft_strlen</text>
</a>
</g>
</g>
<!-- Node1&#45;&gt;Node11 -->
<g id="edge12_Node000001_Node000011" class="edge">
<title>Node1&#45;&gt;Node11</title>
<g id="a_edge12_Node000001_Node000011"><a xlink:title=" ">
<path fill="none" stroke="#63b8ff" d="M98.06,-63.82C166.69,-59.99 291.29,-53.04 353.33,-49.57"/>
<polygon fill="#63b8ff" stroke="#63b8ff" points="353.66,-53.06 363.45,-49.01 353.27,-46.07 353.66,-53.06"/>
</a>
</g>
</g>
<!-- Node12 -->
<g id="Node000012" class="node">
<title>Node12</title>
<g id="a_Node000012"><a xlink:href="ft__substr_8c.html#a78c402cbf3d55b1374693c3b7d34f71d" target="_top" xlink:title="Extracts a substring from a given string.">
<polygon fill="white" stroke="#666666" points="319.5,-95 260.5,-95 260.5,-76 319.5,-76 319.5,-95"/>
<text text-anchor="middle" x="290" y="-83" font-family="Helvetica,sans-Serif" font-size="10.00">ft_substr</text>
</a>
</g>
</g>
<!-- Node1&#45;&gt;Node12 -->
<g id="edge13_Node000001_Node000012" class="edge">
<title>Node1&#45;&gt;Node12</title>
<g id="a_edge13_Node000001_Node000012"><a xlink:title=" ">
<path fill="none" stroke="#63b8ff" d="M98.08,-70.32C142.94,-73.89 209.01,-79.14 250.49,-82.44"/>
<polygon fill="#63b8ff" stroke="#63b8ff" points="250.24,-85.93 260.48,-83.23 250.79,-78.95 250.24,-85.93"/>
</a>
</g>
</g>
<!-- Node3 -->
<g id="Node000003" class="node">
<title>Node3</title>
<g id="a_Node000003"><a xlink:href="ft__itoa_8c.html#a163fba91673b8409055003e4be5530f4" target="_top" xlink:title="Fills a string buffer with the digits of an integer.">
<polygon fill="white" stroke="#666666" points="320,-169 260,-169 260,-150 320,-150 320,-169"/>
<text text-anchor="middle" x="290" y="-157" font-family="Helvetica,sans-Serif" font-size="10.00">fget_itoa</text>
</a>
</g>
</g>
<!-- Node2&#45;&gt;Node3 -->
<g id="edge2_Node000002_Node000003" class="edge">
<title>Node2&#45;&gt;Node3</title>
<g id="a_edge2_Node000002_Node000003"><a xlink:title=" ">
<path fill="none" stroke="#63b8ff" d="M202.58,-159.5C216.19,-159.5 233.9,-159.5 249.73,-159.5"/>
<polygon fill="#63b8ff" stroke="#63b8ff" points="249.81,-163 259.81,-159.5 249.81,-156 249.81,-163"/>
</a>
</g>
</g>
<!-- Node4 -->
<g id="Node000004" class="node">
<title>Node4</title>
<g id="a_Node000004"><a xlink:href="ft__itoa_8c.html#ad01d7565914b3df7a4348fbeba72841b" target="_top" xlink:title="Calculates the number of characters needed to represent an integer as a string.">
<polygon fill="white" stroke="#666666" points="316.5,-132 263.5,-132 263.5,-113 316.5,-113 316.5,-132"/>
<text text-anchor="middle" x="290" y="-120" font-family="Helvetica,sans-Serif" font-size="10.00">get_len</text>
</a>
</g>
</g>
<!-- Node2&#45;&gt;Node4 -->
<g id="edge3_Node000002_Node000004" class="edge">
<title>Node2&#45;&gt;Node4</title>
<g id="a_edge3_Node000002_Node000004"><a xlink:title=" ">
<path fill="none" stroke="#63b8ff" d="M202.58,-151.83C217.39,-146.81 237.04,-140.14 253.87,-134.43"/>
<polygon fill="#63b8ff" stroke="#63b8ff" points="255.04,-137.72 263.39,-131.19 252.79,-131.09 255.04,-137.72"/>
</a>
</g>
</g>
<!-- Node5 -->
<g id="Node000005" class="node">
<title>Node5</title>
<g id="a_Node000005"><a xlink:href="ft__strlcat_8c.html#a3ab017dd491d7327d1b4acbf1398b91e" target="_top" xlink:title="Returns the length of a null&#45;terminated string.">
<polygon fill="white" stroke="#666666" points="407.5,-168 375.5,-168 375.5,-149 407.5,-149 407.5,-168"/>
<text text-anchor="middle" x="391.5" y="-156" font-family="Helvetica,sans-Serif" font-size="10.00">len</text>
</a>
</g>
</g>
<!-- Node2&#45;&gt;Node5 -->
<g id="edge7_Node000002_Node000005" class="edge">
<title>Node2&#45;&gt;Node5</title>
<g id="a_edge7_Node000002_Node000005"><a xlink:title=" ">
<path fill="none" stroke="#63b8ff" d="M202.51,-166.33C218.4,-170.79 240.29,-176.19 260,-178.5 286.49,-181.6 293.59,-182.17 320,-178.5 335.41,-176.36 352.19,-171.7 365.51,-167.41"/>
<polygon fill="#63b8ff" stroke="#63b8ff" points="366.99,-170.61 375.36,-164.11 364.76,-163.97 366.99,-170.61"/>
</a>
</g>
</g>
<!-- Node6 -->
<g id="Node000006" class="node">
<title>Node6</title>
<g id="a_Node000006"><a xlink:href="ft__itoa_8c.html#a4d5d7925588cf4c4d9fbd138580fd73e" target="_top" xlink:title="Returns a string representation of the minimum integer value.">
<polygon fill="white" stroke="#666666" points="316.5,-245 263.5,-245 263.5,-226 316.5,-226 316.5,-245"/>
<text text-anchor="middle" x="290" y="-233" font-family="Helvetica,sans-Serif" font-size="10.00">int_min</text>
</a>
</g>
</g>
<!-- Node2&#45;&gt;Node6 -->
<g id="edge5_Node000002_Node000006" class="edge">
<title>Node2&#45;&gt;Node6</title>
<g id="a_edge5_Node000002_Node000006"><a xlink:title=" ">
<path fill="none" stroke="#63b8ff" d="M193.8,-169.13C212.23,-181.97 245.08,-204.88 266.96,-220.13"/>
<polygon fill="#63b8ff" stroke="#63b8ff" points="265.1,-223.1 275.31,-225.95 269.11,-217.36 265.1,-223.1"/>
</a>
</g>
</g>
<!-- Node4&#45;&gt;Node5 -->
<g id="edge4_Node000004_Node000005" class="edge">
<title>Node4&#45;&gt;Node5</title>
<g id="a_edge4_Node000004_Node000005"><a xlink:title=" ">
<path fill="none" stroke="#63b8ff" d="M316.62,-131.77C331.78,-137.26 350.88,-144.17 365.86,-149.59"/>
<polygon fill="#63b8ff" stroke="#63b8ff" points="364.88,-152.95 375.48,-153.07 367.27,-146.37 364.88,-152.95"/>
</a>
</g>
</g>
<!-- Node7 -->
<g id="Node000007" class="node">
<title>Node7</title>
<g id="a_Node000007"><a xlink:href="ft__itoa_8c.html#a8f08154d6a4e5a1ccc9771aced90ed0a" target="_top" xlink:title="Copies a null&#45;terminated string into another buffer.">
<polygon fill="white" stroke="#666666" points="416.5,-245 366.5,-245 366.5,-226 416.5,-226 416.5,-245"/>
<text text-anchor="middle" x="391.5" y="-233" font-family="Helvetica,sans-Serif" font-size="10.00">fstrcpy</text>
</a>
</g>
</g>
<!-- Node6&#45;&gt;Node7 -->
<g id="edge6_Node000006_Node000007" class="edge">
<title>Node6&#45;&gt;Node7</title>
<g id="a_edge6_Node000006_Node000007"><a xlink:title=" ">
<path fill="none" stroke="#63b8ff" d="M316.62,-235.5C328.71,-235.5 343.3,-235.5 356.31,-235.5"/>
<polygon fill="#63b8ff" stroke="#63b8ff" points="356.33,-239 366.33,-235.5 356.33,-232 356.33,-239"/>
</a>
</g>
</g>
<!-- Node9 -->
<g id="Node000009" class="node">
<title>Node9</title>
<g id="a_Node000009"><a xlink:href="ft__strjoin_8c.html#a91e6e3e428bcc9f2291b700e1829b82b" target="_top" xlink:title="Concatenates two strings into a newly allocated string.">
<polygon fill="white" stroke="#666666" points="319.5,-19 260.5,-19 260.5,0 319.5,0 319.5,-19"/>
<text text-anchor="middle" x="290" y="-7" font-family="Helvetica,sans-Serif" font-size="10.00">ft_strjoin</text>
</a>
</g>
</g>
<!-- Node8&#45;&gt;Node9 -->
<g id="edge9_Node000008_Node000009" class="edge">
<title>Node8&#45;&gt;Node9</title>
<g id="a_edge9_Node000008_Node000009"><a xlink:title=" ">
<path fill="none" stroke="#63b8ff" d="M224.02,-9.5C232.76,-9.5 241.87,-9.5 250.41,-9.5"/>
<polygon fill="#63b8ff" stroke="#63b8ff" points="250.48,-13 260.48,-9.5 250.48,-6 250.48,-13"/>
</a>
</g>
</g>
<!-- Node10 -->
<g id="Node000010" class="node">
<title>Node10</title>
<g id="a_Node000010"><a xlink:href="ft__memcpy_8c.html#a41a6f05af30cf85ff63a08e383826322" target="_top" xlink:title="Copies &#39;n&#39; bytes from memory area &#39;src&#39; to memory area &#39;dest&#39;.">
<polygon fill="white" stroke="#666666" points="427,-19 356,-19 356,0 427,0 427,-19"/>
<text text-anchor="middle" x="391.5" y="-7" font-family="Helvetica,sans-Serif" font-size="10.00">ft_memcpy</text>
</a>
</g>
</g>
<!-- Node9&#45;&gt;Node10 -->
<g id="edge10_Node000009_Node000010" class="edge">
<title>Node9&#45;&gt;Node10</title>
<g id="a_edge10_Node000009_Node000010"><a xlink:title=" ">
<path fill="none" stroke="#63b8ff" d="M319.51,-9.5C327.69,-9.5 336.8,-9.5 345.7,-9.5"/>
<polygon fill="#63b8ff" stroke="#63b8ff" points="345.98,-13 355.98,-9.5 345.98,-6 345.98,-13"/>
</a>
</g>
</g>
<!-- Node9&#45;&gt;Node11 -->
<g id="edge11_Node000009_Node000011" class="edge">
<title>Node9&#45;&gt;Node11</title>
<g id="a_edge11_Node000009_Node000011"><a xlink:title=" ">
<path fill="none" stroke="#63b8ff" d="M316.11,-19.09C328.13,-23.68 342.71,-29.25 355.78,-34.24"/>
<polygon fill="#63b8ff" stroke="#63b8ff" points="354.81,-37.62 365.4,-37.91 357.31,-31.08 354.81,-37.62"/>
</a>
</g>
</g>
<!-- Node12&#45;&gt;Node5 -->
<g id="edge17_Node000012_Node000005" class="edge">
<title>Node12&#45;&gt;Node5</title>
<g id="a_edge17_Node000012_Node000005"><a xlink:title=" ">
<path fill="none" stroke="#63b8ff" d="M308.04,-95.11C312.09,-97.66 316.31,-100.53 320,-103.5 337.88,-117.88 337.6,-126.8 356,-140.5 359.26,-142.93 362.89,-145.21 366.54,-147.28"/>
<polygon fill="#63b8ff" stroke="#63b8ff" points="364.97,-150.4 375.45,-151.94 368.22,-144.2 364.97,-150.4"/>
</a>
</g>
</g>
<!-- Node12&#45;&gt;Node11 -->
<g id="edge16_Node000012_Node000011" class="edge">
<title>Node12&#45;&gt;Node11</title>
<g id="a_edge16_Node000012_Node000011"><a xlink:title=" ">
<path fill="none" stroke="#63b8ff" d="M316.11,-75.91C328.13,-71.32 342.71,-65.75 355.78,-60.76"/>
<polygon fill="#63b8ff" stroke="#63b8ff" points="357.31,-63.92 365.4,-57.09 354.81,-57.38 357.31,-63.92"/>
</a>
</g>
</g>
<!-- Node13 -->
<g id="Node000013" class="node">
<title>Node13</title>
<g id="a_Node000013"><a xlink:href="ft__strdup_8c.html#aebe73f27c70c56ac5053f860ef5436c9" target="_top" xlink:title="Duplicates a null&#45;terminated string by allocating memory.">
<polygon fill="white" stroke="#666666" points="421,-94 362,-94 362,-75 421,-75 421,-94"/>
<text text-anchor="middle" x="391.5" y="-82" font-family="Helvetica,sans-Serif" font-size="10.00">ft_strdup</text>
</a>
</g>
</g>
<!-- Node12&#45;&gt;Node13 -->
<g id="edge14_Node000012_Node000013" class="edge">
<title>Node12&#45;&gt;Node13</title>
<g id="a_edge14_Node000012_Node000013"><a xlink:title=" ">
<path fill="none" stroke="#63b8ff" d="M319.51,-85.21C329.61,-85.11 341.14,-85 351.93,-84.89"/>
<polygon fill="#63b8ff" stroke="#63b8ff" points="352.02,-88.39 361.98,-84.79 351.95,-81.39 352.02,-88.39"/>
</a>
</g>
</g>
<!-- Node14 -->
<g id="Node000014" class="node">
<title>Node14</title>
<g id="a_Node000014"><a xlink:href="ft__strlcpy_8c.html#aa053827b3a2ea3d0118783d6fb59d178" target="_top" xlink:title="Copies up to size &#45; 1 characters from the string src to dst, null&#45;terminating the result.">
<polygon fill="white" stroke="#666666" points="422.5,-131 360.5,-131 360.5,-112 422.5,-112 422.5,-131"/>
<text text-anchor="middle" x="391.5" y="-119" font-family="Helvetica,sans-Serif" font-size="10.00">ft_strlcpy</text>
</a>
</g>
</g>
<!-- Node12&#45;&gt;Node14 -->
<g id="edge15_Node000012_Node000014" class="edge">
<title>Node12&#45;&gt;Node14</title>
<g id="a_edge15_Node000012_Node000014"><a xlink:title=" ">
<path fill="none" stroke="#63b8ff" d="M317.4,-95.05C328.76,-99.16 342.22,-104.03 354.47,-108.46"/>
<polygon fill="#63b8ff" stroke="#63b8ff" points="353.38,-111.79 363.97,-111.9 355.76,-105.21 353.38,-111.79"/>
</a>
</g>
</g>
</g>
</svg>
