<?xml version="1.0" encoding="UTF-8" standalone="no"?>
<!DOCTYPE svg PUBLIC "-//W3C//DTD SVG 1.1//EN"
 "http://www.w3.org/Graphics/SVG/1.1/DTD/svg11.dtd">
<!-- Generated by graphviz version 2.43.0 (0)
 -->
<!-- Title: pipes/create_pipe_list.c Pages: 1 -->
<svg width="1195pt" height="379pt"
 viewBox="0.00 0.00 1195.26 379.00" xmlns="http://www.w3.org/2000/svg" xmlns:xlink="http://www.w3.org/1999/xlink">
<g id="graph0" class="graph" transform="scale(1 1) rotate(0) translate(4 375)">
<title>pipes/create_pipe_list.c</title>
<!-- Node1 -->
<g id="Node000001" class="node">
<title>Node1</title>
<g id="a_Node000001"><a xlink:title=" ">
<polygon fill="#999999" stroke="#666666" points="936.76,-371 805.76,-371 805.76,-352 936.76,-352 936.76,-371"/>
<text text-anchor="middle" x="871.26" y="-359" font-family="Helvetica,sans-Serif" font-size="10.00">pipes/create_pipe_list.c</text>
</a>
</g>
</g>
<!-- Node2 -->
<g id="Node000002" class="node">
<title>Node2</title>
<g id="a_Node000002"><a xlink:href="pipes_8h.html" target="_top" xlink:title=" ">
<polygon fill="white" stroke="#666666" points="845.26,-316 793.26,-316 793.26,-297 845.26,-297 845.26,-316"/>
<text text-anchor="middle" x="819.26" y="-304" font-family="Helvetica,sans-Serif" font-size="10.00">pipes.h</text>
</a>
</g>
</g>
<!-- Node1&#45;&gt;Node2 -->
<g id="edge1_Node000001_Node000002" class="edge">
<title>Node1&#45;&gt;Node2</title>
<g id="a_edge1_Node000001_Node000002"><a xlink:title=" ">
<path fill="none" stroke="#63b8ff" d="M862.68,-351.75C855.1,-344.03 843.88,-332.6 834.75,-323.28"/>
<polygon fill="#63b8ff" stroke="#63b8ff" points="837.19,-320.78 827.69,-316.09 832.2,-325.68 837.19,-320.78"/>
</a>
</g>
</g>
<!-- Node8 -->
<g id="Node000008" class="node">
<title>Node8</title>
<g id="a_Node000008"><a xlink:title=" ">
<polygon fill="#e0e0e0" stroke="#999999" points="1187.26,-19 1137.26,-19 1137.26,0 1187.26,0 1187.26,-19"/>
<text text-anchor="middle" x="1162.26" y="-7" font-family="Helvetica,sans-Serif" font-size="10.00">stdio.h</text>
</a>
</g>
</g>
<!-- Node1&#45;&gt;Node8 -->
<g id="edge39_Node000001_Node000008" class="edge">
<title>Node1&#45;&gt;Node8</title>
<g id="a_edge39_Node000001_Node000008"><a xlink:title=" ">
<path fill="none" stroke="#63b8ff" d="M920.04,-351.89C973.95,-339.24 1053.26,-309.93 1053.26,-247 1053.26,-247 1053.26,-247 1053.26,-124 1053.26,-77 1102.48,-41.92 1134.77,-23.96"/>
<polygon fill="#63b8ff" stroke="#63b8ff" points="1136.6,-26.94 1143.77,-19.14 1133.3,-20.77 1136.6,-26.94"/>
</a>
</g>
</g>
<!-- Node3 -->
<g id="Node000003" class="node">
<title>Node3</title>
<g id="a_Node000003"><a xlink:href="common__utils_8h.html" target="_top" xlink:title=" ">
<polygon fill="white" stroke="#666666" points="639.26,-140 499.26,-140 499.26,-110 639.26,-110 639.26,-140"/>
<text text-anchor="start" x="507.26" y="-128" font-family="Helvetica,sans-Serif" font-size="10.00">../common_utils/common</text>
<text text-anchor="middle" x="569.26" y="-117" font-family="Helvetica,sans-Serif" font-size="10.00">_utils.h</text>
</a>
</g>
</g>
<!-- Node2&#45;&gt;Node3 -->
<g id="edge2_Node000002_Node000003" class="edge">
<title>Node2&#45;&gt;Node3</title>
<g id="a_edge2_Node000002_Node000003"><a xlink:title=" ">
<path fill="none" stroke="#63b8ff" d="M824.9,-296.97C833.49,-282.85 847.87,-253.89 838.26,-231 824.77,-198.83 812.82,-192.83 782.26,-176 741.54,-153.57 691.06,-141.16 649.47,-134.31"/>
<polygon fill="#63b8ff" stroke="#63b8ff" points="649.79,-130.82 639.37,-132.73 648.71,-137.73 649.79,-130.82"/>
</a>
</g>
</g>
<!-- Node4 -->
<g id="Node000004" class="node">
<title>Node4</title>
<g id="a_Node000004"><a xlink:href="libft_8h.html" target="_top" xlink:title=" ">
<polygon fill="white" stroke="#666666" points="933.76,-74 858.76,-74 858.76,-55 933.76,-55 933.76,-74"/>
<text text-anchor="middle" x="896.26" y="-62" font-family="Helvetica,sans-Serif" font-size="10.00">../libft/libft.h</text>
</a>
</g>
</g>
<!-- Node2&#45;&gt;Node4 -->
<g id="edge23_Node000002_Node000004" class="edge">
<title>Node2&#45;&gt;Node4</title>
<g id="a_edge23_Node000002_Node000004"><a xlink:title=" ">
<path fill="none" stroke="#63b8ff" d="M828.13,-296.79C836.17,-288.37 847.75,-274.88 854.26,-261 882.76,-200.32 892.16,-119.95 895.06,-84.12"/>
<polygon fill="#63b8ff" stroke="#63b8ff" points="898.55,-84.36 895.79,-74.13 891.57,-83.85 898.55,-84.36"/>
</a>
</g>
</g>
<!-- Node20 -->
<g id="Node000020" class="node">
<title>Node20</title>
<g id="a_Node000020"><a xlink:href="builtin_8h.html" target="_top" xlink:title=" ">
<polygon fill="white" stroke="#666666" points="829.76,-255.5 730.76,-255.5 730.76,-236.5 829.76,-236.5 829.76,-255.5"/>
<text text-anchor="middle" x="780.26" y="-243.5" font-family="Helvetica,sans-Serif" font-size="10.00">../builtin/builtin.h</text>
</a>
</g>
</g>
<!-- Node2&#45;&gt;Node20 -->
<g id="edge24_Node000002_Node000020" class="edge">
<title>Node2&#45;&gt;Node20</title>
<g id="a_edge24_Node000002_Node000020"><a xlink:title=" ">
<path fill="none" stroke="#63b8ff" d="M813.51,-296.87C807.81,-288.31 798.91,-274.97 791.76,-264.24"/>
<polygon fill="#63b8ff" stroke="#63b8ff" points="794.5,-262.05 786.04,-255.67 788.68,-265.93 794.5,-262.05"/>
</a>
</g>
</g>
<!-- Node21 -->
<g id="Node000021" class="node">
<title>Node21</title>
<g id="a_Node000021"><a xlink:href="redirections_8h.html" target="_top" xlink:title=" ">
<polygon fill="white" stroke="#666666" points="753.76,-195 600.76,-195 600.76,-176 753.76,-176 753.76,-195"/>
<text text-anchor="middle" x="677.26" y="-183" font-family="Helvetica,sans-Serif" font-size="10.00">../redirections/redirections.h</text>
</a>
</g>
</g>
<!-- Node2&#45;&gt;Node21 -->
<g id="edge29_Node000002_Node000021" class="edge">
<title>Node2&#45;&gt;Node21</title>
<g id="a_edge29_Node000002_Node000021"><a xlink:title=" ">
<path fill="none" stroke="#63b8ff" d="M793.07,-298.43C771.78,-291.63 741.98,-279.6 721.26,-261 704.03,-245.52 691.59,-221.65 684.42,-205.12"/>
<polygon fill="#63b8ff" stroke="#63b8ff" points="687.51,-203.41 680.48,-195.48 681.03,-206.06 687.51,-203.41"/>
</a>
</g>
</g>
<!-- Node22 -->
<g id="Node000022" class="node">
<title>Node22</title>
<g id="a_Node000022"><a xlink:href="system__commands_8h.html" target="_top" xlink:title=" ">
<polygon fill="white" stroke="#666666" points="349.26,-261 225.26,-261 225.26,-231 349.26,-231 349.26,-261"/>
<text text-anchor="start" x="233.26" y="-249" font-family="Helvetica,sans-Serif" font-size="10.00">../system_commands</text>
<text text-anchor="middle" x="287.26" y="-238" font-family="Helvetica,sans-Serif" font-size="10.00">/system_commands.h</text>
</a>
</g>
</g>
<!-- Node2&#45;&gt;Node22 -->
<g id="edge30_Node000002_Node000022" class="edge">
<title>Node2&#45;&gt;Node22</title>
<g id="a_edge30_Node000002_Node000022"><a xlink:title=" ">
<path fill="none" stroke="#63b8ff" d="M793.24,-302.64C715,-294.03 479.86,-268.18 359.69,-254.96"/>
<polygon fill="#63b8ff" stroke="#63b8ff" points="359.8,-251.46 349.48,-253.84 359.04,-258.41 359.8,-251.46"/>
</a>
</g>
</g>
<!-- Node3&#45;&gt;Node4 -->
<g id="edge3_Node000003_Node000004" class="edge">
<title>Node3&#45;&gt;Node4</title>
<g id="a_edge3_Node000003_Node000004"><a xlink:title=" ">
<path fill="none" stroke="#63b8ff" d="M639.41,-111.45C702.48,-100.17 793.42,-83.9 848.47,-74.05"/>
<polygon fill="#63b8ff" stroke="#63b8ff" points="849.09,-77.5 858.32,-72.29 847.86,-70.6 849.09,-77.5"/>
</a>
</g>
</g>
<!-- Node5 -->
<g id="Node000005" class="node">
<title>Node5</title>
<g id="a_Node000005"><a xlink:title=" ">
<polygon fill="#e0e0e0" stroke="#999999" points="394.26,-19 338.26,-19 338.26,0 394.26,0 394.26,-19"/>
<text text-anchor="middle" x="366.26" y="-7" font-family="Helvetica,sans-Serif" font-size="10.00">unistd.h</text>
</a>
</g>
</g>
<!-- Node3&#45;&gt;Node5 -->
<g id="edge22_Node000003_Node000005" class="edge">
<title>Node3&#45;&gt;Node5</title>
<g id="a_edge22_Node000003_Node000005"><a xlink:title=" ">
<path fill="none" stroke="#63b8ff" d="M499.12,-121.06C460.88,-115.88 415.37,-103.35 385.26,-74 373.3,-62.34 368.8,-43.48 367.14,-29.34"/>
<polygon fill="#63b8ff" stroke="#63b8ff" points="370.62,-28.93 366.33,-19.24 363.64,-29.48 370.62,-28.93"/>
</a>
</g>
</g>
<!-- Node6 -->
<g id="Node000006" class="node">
<title>Node6</title>
<g id="a_Node000006"><a xlink:title=" ">
<polygon fill="#e0e0e0" stroke="#999999" points="699.76,-19 646.76,-19 646.76,0 699.76,0 699.76,-19"/>
<text text-anchor="middle" x="673.26" y="-7" font-family="Helvetica,sans-Serif" font-size="10.00">stdlib.h</text>
</a>
</g>
</g>
<!-- Node3&#45;&gt;Node6 -->
<g id="edge20_Node000003_Node000006" class="edge">
<title>Node3&#45;&gt;Node6</title>
<g id="a_edge20_Node000003_Node000006"><a xlink:title=" ">
<path fill="none" stroke="#63b8ff" d="M639.58,-111.49C679.32,-102.84 723.37,-90 735.26,-74 749.4,-54.98 724.17,-35.89 701.77,-23.68"/>
<polygon fill="#63b8ff" stroke="#63b8ff" points="703.28,-20.52 692.79,-19.05 700.07,-26.74 703.28,-20.52"/>
</a>
</g>
</g>
<!-- Node7 -->
<g id="Node000007" class="node">
<title>Node7</title>
<g id="a_Node000007"><a xlink:title=" ">
<polygon fill="#e0e0e0" stroke="#999999" points="770.76,-19 717.76,-19 717.76,0 770.76,0 770.76,-19"/>
<text text-anchor="middle" x="744.26" y="-7" font-family="Helvetica,sans-Serif" font-size="10.00">string.h</text>
</a>
</g>
</g>
<!-- Node3&#45;&gt;Node7 -->
<g id="edge21_Node000003_Node000007" class="edge">
<title>Node3&#45;&gt;Node7</title>
<g id="a_edge21_Node000003_Node000007"><a xlink:title=" ">
<path fill="none" stroke="#63b8ff" d="M635.54,-109.98C684.86,-98.88 744.87,-83.69 752.26,-74 762.04,-61.19 758.17,-42.51 752.98,-28.73"/>
<polygon fill="#63b8ff" stroke="#63b8ff" points="756.11,-27.14 748.96,-19.32 749.67,-29.89 756.11,-27.14"/>
</a>
</g>
</g>
<!-- Node10 -->
<g id="Node000010" class="node">
<title>Node10</title>
<g id="a_Node000010"><a xlink:title=" ">
<polygon fill="#e0e0e0" stroke="#999999" points="835.76,-19 788.76,-19 788.76,0 835.76,0 835.76,-19"/>
<text text-anchor="middle" x="812.26" y="-7" font-family="Helvetica,sans-Serif" font-size="10.00">fcntl.h</text>
</a>
</g>
</g>
<!-- Node3&#45;&gt;Node10 -->
<g id="edge16_Node000003_Node000010" class="edge">
<title>Node3&#45;&gt;Node10</title>
<g id="a_edge16_Node000003_Node000010"><a xlink:title=" ">
<path fill="none" stroke="#63b8ff" d="M639.39,-112.14C688.59,-102.8 749.19,-88.89 770.26,-74 786.25,-62.71 797.79,-43.24 804.68,-28.82"/>
<polygon fill="#63b8ff" stroke="#63b8ff" points="808,-29.97 808.88,-19.41 801.61,-27.12 808,-29.97"/>
</a>
</g>
</g>
<!-- Node14 -->
<g id="Node000014" class="node">
<title>Node14</title>
<g id="a_Node000014"><a xlink:href="signal__flag_8h.html" target="_top" xlink:title=" ">
<polygon fill="white" stroke="#666666" points="472.26,-74 394.26,-74 394.26,-55 472.26,-55 472.26,-74"/>
<text text-anchor="middle" x="433.26" y="-62" font-family="Helvetica,sans-Serif" font-size="10.00">signal_flag.h</text>
</a>
</g>
</g>
<!-- Node3&#45;&gt;Node14 -->
<g id="edge13_Node000003_Node000014" class="edge">
<title>Node3&#45;&gt;Node14</title>
<g id="a_edge13_Node000003_Node000014"><a xlink:title=" ">
<path fill="none" stroke="#63b8ff" d="M536.69,-109.99C514.2,-100.31 484.54,-87.56 462.75,-78.18"/>
<polygon fill="#63b8ff" stroke="#63b8ff" points="463.92,-74.88 453.35,-74.14 461.15,-81.31 463.92,-74.88"/>
</a>
</g>
</g>
<!-- Node15 -->
<g id="Node000015" class="node">
<title>Node15</title>
<g id="a_Node000015"><a xlink:title=" ">
<polygon fill="#e0e0e0" stroke="#999999" points="218.26,-74 110.26,-74 110.26,-55 218.26,-55 218.26,-74"/>
<text text-anchor="middle" x="164.26" y="-62" font-family="Helvetica,sans-Serif" font-size="10.00">readline/readline.h</text>
</a>
</g>
</g>
<!-- Node3&#45;&gt;Node15 -->
<g id="edge14_Node000003_Node000015" class="edge">
<title>Node3&#45;&gt;Node15</title>
<g id="a_edge14_Node000003_Node000015"><a xlink:title=" ">
<path fill="none" stroke="#63b8ff" d="M499.18,-113.88C422.96,-102.87 302.17,-85.42 228.38,-74.76"/>
<polygon fill="#63b8ff" stroke="#63b8ff" points="228.68,-71.27 218.29,-73.3 227.68,-78.2 228.68,-71.27"/>
</a>
</g>
</g>
<!-- Node16 -->
<g id="Node000016" class="node">
<title>Node16</title>
<g id="a_Node000016"><a xlink:title=" ">
<polygon fill="#e0e0e0" stroke="#999999" points="337.76,-74 236.76,-74 236.76,-55 337.76,-55 337.76,-74"/>
<text text-anchor="middle" x="287.26" y="-62" font-family="Helvetica,sans-Serif" font-size="10.00">readline/history.h</text>
</a>
</g>
</g>
<!-- Node3&#45;&gt;Node16 -->
<g id="edge15_Node000003_Node000016" class="edge">
<title>Node3&#45;&gt;Node16</title>
<g id="a_edge15_Node000003_Node000016"><a xlink:title=" ">
<path fill="none" stroke="#63b8ff" d="M501.72,-109.99C451.57,-99.59 384.24,-85.62 338.49,-76.13"/>
<polygon fill="#63b8ff" stroke="#63b8ff" points="339,-72.66 328.5,-74.05 337.58,-79.51 339,-72.66"/>
</a>
</g>
</g>
<!-- Node17 -->
<g id="Node000017" class="node">
<title>Node17</title>
<g id="a_Node000017"><a xlink:title=" ">
<polygon fill="#e0e0e0" stroke="#999999" points="562.26,-74 490.26,-74 490.26,-55 562.26,-55 562.26,-74"/>
<text text-anchor="middle" x="526.26" y="-62" font-family="Helvetica,sans-Serif" font-size="10.00">sys/types.h</text>
</a>
</g>
</g>
<!-- Node3&#45;&gt;Node17 -->
<g id="edge17_Node000003_Node000017" class="edge">
<title>Node3&#45;&gt;Node17</title>
<g id="a_edge17_Node000003_Node000017"><a xlink:title=" ">
<path fill="none" stroke="#63b8ff" d="M558.85,-109.84C552.8,-101.61 545.14,-91.18 538.76,-82.51"/>
<polygon fill="#63b8ff" stroke="#63b8ff" points="541.45,-80.25 532.71,-74.27 535.81,-84.4 541.45,-80.25"/>
</a>
</g>
</g>
<!-- Node18 -->
<g id="Node000018" class="node">
<title>Node18</title>
<g id="a_Node000018"><a xlink:title=" ">
<polygon fill="#e0e0e0" stroke="#999999" points="646.26,-74 580.26,-74 580.26,-55 646.26,-55 646.26,-74"/>
<text text-anchor="middle" x="613.26" y="-62" font-family="Helvetica,sans-Serif" font-size="10.00">sys/wait.h</text>
</a>
</g>
</g>
<!-- Node3&#45;&gt;Node18 -->
<g id="edge18_Node000003_Node000018" class="edge">
<title>Node3&#45;&gt;Node18</title>
<g id="a_edge18_Node000003_Node000018"><a xlink:title=" ">
<path fill="none" stroke="#63b8ff" d="M579.91,-109.84C586.11,-101.61 593.95,-91.18 600.47,-82.51"/>
<polygon fill="#63b8ff" stroke="#63b8ff" points="603.46,-84.36 606.67,-74.27 597.86,-80.15 603.46,-84.36"/>
</a>
</g>
</g>
<!-- Node19 -->
<g id="Node000019" class="node">
<title>Node19</title>
<g id="a_Node000019"><a xlink:title=" ">
<polygon fill="#e0e0e0" stroke="#999999" points="726.26,-74 664.26,-74 664.26,-55 726.26,-55 726.26,-74"/>
<text text-anchor="middle" x="695.26" y="-62" font-family="Helvetica,sans-Serif" font-size="10.00">stdbool.h</text>
</a>
</g>
</g>
<!-- Node3&#45;&gt;Node19 -->
<g id="edge19_Node000003_Node000019" class="edge">
<title>Node3&#45;&gt;Node19</title>
<g id="a_edge19_Node000003_Node000019"><a xlink:title=" ">
<path fill="none" stroke="#63b8ff" d="M599.44,-109.99C620.09,-100.4 647.26,-87.79 667.4,-78.44"/>
<polygon fill="#63b8ff" stroke="#63b8ff" points="669.06,-81.52 676.66,-74.14 666.11,-75.18 669.06,-81.52"/>
</a>
</g>
</g>
<!-- Node4&#45;&gt;Node5 -->
<g id="edge4_Node000004_Node000005" class="edge">
<title>Node4&#45;&gt;Node5</title>
<g id="a_edge4_Node000004_Node000005"><a xlink:title=" ">
<path fill="none" stroke="#63b8ff" d="M858.57,-59.73C761.25,-50 502.35,-24.11 404.47,-14.32"/>
<polygon fill="#63b8ff" stroke="#63b8ff" points="404.72,-10.83 394.43,-13.32 404.03,-17.79 404.72,-10.83"/>
</a>
</g>
</g>
<!-- Node4&#45;&gt;Node6 -->
<g id="edge5_Node000004_Node000006" class="edge">
<title>Node4&#45;&gt;Node6</title>
<g id="a_edge5_Node000004_Node000006"><a xlink:title=" ">
<path fill="none" stroke="#63b8ff" d="M859.86,-54.95C824.04,-46.52 767.54,-33.19 710.01,-19.41"/>
<polygon fill="#63b8ff" stroke="#63b8ff" points="710.55,-15.94 700.01,-17.01 708.92,-22.75 710.55,-15.94"/>
</a>
</g>
</g>
<!-- Node4&#45;&gt;Node7 -->
<g id="edge6_Node000004_Node000007" class="edge">
<title>Node4&#45;&gt;Node7</title>
<g id="a_edge6_Node000004_Node000007"><a xlink:title=" ">
<path fill="none" stroke="#63b8ff" d="M871.84,-54.98C846.54,-46.16 806.81,-32.31 778.41,-22.41"/>
<polygon fill="#63b8ff" stroke="#63b8ff" points="779.47,-19.07 768.88,-19.08 777.17,-25.68 779.47,-19.07"/>
</a>
</g>
</g>
<!-- Node4&#45;&gt;Node8 -->
<g id="edge7_Node000004_Node000008" class="edge">
<title>Node4&#45;&gt;Node8</title>
<g id="a_edge7_Node000004_Node000008"><a xlink:title=" ">
<path fill="none" stroke="#63b8ff" d="M933.76,-56.97C977.77,-49.16 1053.15,-35.33 1127.1,-19.16"/>
<polygon fill="#63b8ff" stroke="#63b8ff" points="1128.04,-22.54 1137.05,-16.97 1126.53,-15.7 1128.04,-22.54"/>
</a>
</g>
</g>
<!-- Node9 -->
<g id="Node000009" class="node">
<title>Node9</title>
<g id="a_Node000009"><a xlink:title=" ">
<polygon fill="#e0e0e0" stroke="#999999" points="556.76,-19 501.76,-19 501.76,0 556.76,0 556.76,-19"/>
<text text-anchor="middle" x="529.26" y="-7" font-family="Helvetica,sans-Serif" font-size="10.00">signal.h</text>
</a>
</g>
</g>
<!-- Node4&#45;&gt;Node9 -->
<g id="edge8_Node000004_Node000009" class="edge">
<title>Node4&#45;&gt;Node9</title>
<g id="a_edge8_Node000004_Node000009"><a xlink:title=" ">
<path fill="none" stroke="#63b8ff" d="M858.71,-58.08C788.51,-47.94 638.11,-26.22 567.44,-16.01"/>
<polygon fill="#63b8ff" stroke="#63b8ff" points="567.6,-12.5 557.2,-14.53 566.6,-19.43 567.6,-12.5"/>
</a>
</g>
</g>
<!-- Node4&#45;&gt;Node10 -->
<g id="edge9_Node000004_Node000010" class="edge">
<title>Node4&#45;&gt;Node10</title>
<g id="a_edge9_Node000004_Node000010"><a xlink:title=" ">
<path fill="none" stroke="#63b8ff" d="M882.77,-54.98C869.86,-46.84 850.16,-34.41 834.86,-24.76"/>
<polygon fill="#63b8ff" stroke="#63b8ff" points="836.33,-21.55 826,-19.17 832.59,-27.47 836.33,-21.55"/>
</a>
</g>
</g>
<!-- Node11 -->
<g id="Node000011" class="node">
<title>Node11</title>
<g id="a_Node000011"><a xlink:title=" ">
<polygon fill="#e0e0e0" stroke="#999999" points="972.76,-19 853.76,-19 853.76,0 972.76,0 972.76,-19"/>
<text text-anchor="middle" x="913.26" y="-7" font-family="Helvetica,sans-Serif" font-size="10.00">bits/types/siginfo_t.h</text>
</a>
</g>
</g>
<!-- Node4&#45;&gt;Node11 -->
<g id="edge10_Node000004_Node000011" class="edge">
<title>Node4&#45;&gt;Node11</title>
<g id="a_edge10_Node000004_Node000011"><a xlink:title=" ">
<path fill="none" stroke="#63b8ff" d="M899.07,-54.75C901.32,-47.72 904.56,-37.62 907.38,-28.84"/>
<polygon fill="#63b8ff" stroke="#63b8ff" points="910.79,-29.68 910.51,-19.09 904.12,-27.54 910.79,-29.68"/>
</a>
</g>
</g>
<!-- Node12 -->
<g id="Node000012" class="node">
<title>Node12</title>
<g id="a_Node000012"><a xlink:title=" ">
<polygon fill="#e0e0e0" stroke="#999999" points="1047.26,-19 991.26,-19 991.26,0 1047.26,0 1047.26,-19"/>
<text text-anchor="middle" x="1019.26" y="-7" font-family="Helvetica,sans-Serif" font-size="10.00">stdarg.h</text>
</a>
</g>
</g>
<!-- Node4&#45;&gt;Node12 -->
<g id="edge11_Node000004_Node000012" class="edge">
<title>Node4&#45;&gt;Node12</title>
<g id="a_edge11_Node000004_Node000012"><a xlink:title=" ">
<path fill="none" stroke="#63b8ff" d="M916.03,-54.98C935.99,-46.38 967.07,-32.99 989.91,-23.15"/>
<polygon fill="#63b8ff" stroke="#63b8ff" points="991.34,-26.34 999.14,-19.17 988.57,-19.91 991.34,-26.34"/>
</a>
</g>
</g>
<!-- Node13 -->
<g id="Node000013" class="node">
<title>Node13</title>
<g id="a_Node000013"><a xlink:title=" ">
<polygon fill="#e0e0e0" stroke="#999999" points="1118.76,-19 1065.76,-19 1065.76,0 1118.76,0 1118.76,-19"/>
<text text-anchor="middle" x="1092.26" y="-7" font-family="Helvetica,sans-Serif" font-size="10.00">limits.h</text>
</a>
</g>
</g>
<!-- Node4&#45;&gt;Node13 -->
<g id="edge12_Node000004_Node000013" class="edge">
<title>Node4&#45;&gt;Node13</title>
<g id="a_edge12_Node000004_Node000013"><a xlink:title=" ">
<path fill="none" stroke="#63b8ff" d="M927.75,-54.98C962.67,-45.54 1018.91,-30.33 1055.74,-20.38"/>
<polygon fill="#63b8ff" stroke="#63b8ff" points="1056.83,-23.71 1065.57,-17.72 1055.01,-16.95 1056.83,-23.71"/>
</a>
</g>
</g>
<!-- Node20&#45;&gt;Node3 -->
<g id="edge26_Node000020_Node000003" class="edge">
<title>Node20&#45;&gt;Node3</title>
<g id="a_edge26_Node000020_Node000003"><a xlink:title=" ">
<path fill="none" stroke="#63b8ff" d="M780.61,-236.46C780.72,-221.95 778.73,-192.44 762.26,-176 746.03,-159.8 694.88,-146.97 649.32,-138.37"/>
<polygon fill="#63b8ff" stroke="#63b8ff" points="649.86,-134.91 639.4,-136.54 648.6,-141.79 649.86,-134.91"/>
</a>
</g>
</g>
<!-- Node20&#45;&gt;Node4 -->
<g id="edge25_Node000020_Node000004" class="edge">
<title>Node20&#45;&gt;Node4</title>
<g id="a_edge25_Node000020_Node000004"><a xlink:title=" ">
<path fill="none" stroke="#63b8ff" d="M785.86,-236.34C803.89,-208.44 860.71,-120.52 885.03,-82.88"/>
<polygon fill="#63b8ff" stroke="#63b8ff" points="888.24,-84.37 890.72,-74.07 882.36,-80.57 888.24,-84.37"/>
</a>
</g>
</g>
<!-- Node20&#45;&gt;Node21 -->
<g id="edge27_Node000020_Node000021" class="edge">
<title>Node20&#45;&gt;Node21</title>
<g id="a_edge27_Node000020_Node000021"><a xlink:title=" ">
<path fill="none" stroke="#63b8ff" d="M765.07,-236.37C748.25,-226.82 720.94,-211.31 701.24,-200.12"/>
<polygon fill="#63b8ff" stroke="#63b8ff" points="702.95,-197.06 692.52,-195.17 699.49,-203.15 702.95,-197.06"/>
</a>
</g>
</g>
<!-- Node21&#45;&gt;Node3 -->
<g id="edge28_Node000021_Node000003" class="edge">
<title>Node21&#45;&gt;Node3</title>
<g id="a_edge28_Node000021_Node000003"><a xlink:title=" ">
<path fill="none" stroke="#63b8ff" d="M661.33,-175.87C646.33,-167.75 623.37,-155.31 604.14,-144.89"/>
<polygon fill="#63b8ff" stroke="#63b8ff" points="605.78,-141.8 595.32,-140.11 602.45,-147.96 605.78,-141.8"/>
</a>
</g>
</g>
<!-- Node22&#45;&gt;Node3 -->
<g id="edge32_Node000022_Node000003" class="edge">
<title>Node22&#45;&gt;Node3</title>
<g id="a_edge32_Node000022_Node000003"><a xlink:title=" ">
<path fill="none" stroke="#63b8ff" d="M320.44,-231C371.64,-209.39 469.89,-167.94 526.4,-144.09"/>
<polygon fill="#63b8ff" stroke="#63b8ff" points="527.92,-147.24 535.77,-140.13 525.2,-140.8 527.92,-147.24"/>
</a>
</g>
</g>
<!-- Node22&#45;&gt;Node4 -->
<g id="edge31_Node000022_Node000004" class="edge">
<title>Node22&#45;&gt;Node4</title>
<g id="a_edge31_Node000022_Node000004"><a xlink:title=" ">
<path fill="none" stroke="#63b8ff" d="M336.06,-230.95C405.47,-210.94 536.69,-172.98 648.26,-140 722.72,-117.99 809.6,-91.77 858.24,-77.04"/>
<polygon fill="#63b8ff" stroke="#63b8ff" points="859.47,-80.32 868.02,-74.07 857.44,-73.62 859.47,-80.32"/>
</a>
</g>
</g>
<!-- Node22&#45;&gt;Node5 -->
<g id="edge38_Node000022_Node000005" class="edge">
<title>Node22&#45;&gt;Node5</title>
<g id="a_edge38_Node000022_Node000005"><a xlink:title=" ">
<path fill="none" stroke="#63b8ff" d="M225.04,-241.74C157.03,-236.72 54.48,-224.38 30.26,-195 -9.31,-146.98 -10.74,-101.8 30.26,-55 49.67,-32.85 244.19,-18.13 328.08,-12.76"/>
<polygon fill="#63b8ff" stroke="#63b8ff" points="328.46,-16.25 338.22,-12.13 328.02,-9.26 328.46,-16.25"/>
</a>
</g>
</g>
<!-- Node22&#45;&gt;Node6 -->
<g id="edge37_Node000022_Node000006" class="edge">
<title>Node22&#45;&gt;Node6</title>
<g id="a_edge37_Node000022_Node000006"><a xlink:title=" ">
<path fill="none" stroke="#63b8ff" d="M254.43,-230.96C185.87,-199.83 38.87,-122.42 101.26,-55 136.39,-17.05 513.71,-23.03 565.26,-19 589,-17.14 615.68,-15.05 636.58,-13.4"/>
<polygon fill="#63b8ff" stroke="#63b8ff" points="636.94,-16.88 646.63,-12.6 636.39,-9.9 636.94,-16.88"/>
</a>
</g>
</g>
<!-- Node22&#45;&gt;Node9 -->
<g id="edge36_Node000022_Node000009" class="edge">
<title>Node22&#45;&gt;Node9</title>
<g id="a_edge36_Node000022_Node000009"><a xlink:title=" ">
<path fill="none" stroke="#63b8ff" d="M225.09,-239.35C167.39,-232.66 87.59,-219.24 68.26,-195 29.47,-146.35 26.43,-101.06 68.26,-55 75.37,-47.17 382.46,-22.13 491.41,-13.48"/>
<polygon fill="#63b8ff" stroke="#63b8ff" points="491.93,-16.95 501.62,-12.67 491.37,-9.97 491.93,-16.95"/>
</a>
</g>
</g>
<!-- Node22&#45;&gt;Node15 -->
<g id="edge34_Node000022_Node000015" class="edge">
<title>Node22&#45;&gt;Node15</title>
<g id="a_edge34_Node000022_Node000015"><a xlink:title=" ">
<path fill="none" stroke="#63b8ff" d="M277.61,-230.91C255.26,-198.29 200,-117.65 175.86,-82.42"/>
<polygon fill="#63b8ff" stroke="#63b8ff" points="178.72,-80.41 170.18,-74.13 172.95,-84.36 178.72,-80.41"/>
</a>
</g>
</g>
<!-- Node22&#45;&gt;Node16 -->
<g id="edge35_Node000022_Node000016" class="edge">
<title>Node22&#45;&gt;Node16</title>
<g id="a_edge35_Node000022_Node000016"><a xlink:title=" ">
<path fill="none" stroke="#63b8ff" d="M287.26,-230.91C287.26,-198.85 287.26,-120.38 287.26,-84.26"/>
<polygon fill="#63b8ff" stroke="#63b8ff" points="290.76,-84.13 287.26,-74.13 283.76,-84.13 290.76,-84.13"/>
</a>
</g>
</g>
<!-- Node22&#45;&gt;Node21 -->
<g id="edge33_Node000022_Node000021" class="edge">
<title>Node22&#45;&gt;Node21</title>
<g id="a_edge33_Node000022_Node000021"><a xlink:title=" ">
<path fill="none" stroke="#63b8ff" d="M349.49,-235.67C420.76,-224.98 537.1,-207.52 610.3,-196.54"/>
<polygon fill="#63b8ff" stroke="#63b8ff" points="610.96,-199.98 620.33,-195.04 609.92,-193.06 610.96,-199.98"/>
</a>
</g>
</g>
</g>
</svg>
