<?xml version="1.0" encoding="UTF-8" standalone="no"?>
<!DOCTYPE svg PUBLIC "-//W3C//DTD SVG 1.1//EN"
 "http://www.w3.org/Graphics/SVG/1.1/DTD/svg11.dtd">
<!-- Generated by graphviz version 2.43.0 (0)
 -->
<!-- Title: command_list/create_command_list.c Pages: 1 -->
<svg width="956pt" height="324pt"
 viewBox="0.00 0.00 956.00 324.00" xmlns="http://www.w3.org/2000/svg" xmlns:xlink="http://www.w3.org/1999/xlink">
<g id="graph0" class="graph" transform="scale(1 1) rotate(0) translate(4 320)">
<title>command_list/create_command_list.c</title>
<!-- Node1 -->
<g id="Node000001" class="node">
<title>Node1</title>
<g id="a_Node000001"><a xlink:title=" ">
<polygon fill="#999999" stroke="#666666" points="511.5,-316 392.5,-316 392.5,-286 511.5,-286 511.5,-316"/>
<text text-anchor="start" x="400.5" y="-304" font-family="Helvetica,sans-Serif" font-size="10.00">command_list/create</text>
<text text-anchor="middle" x="452" y="-293" font-family="Helvetica,sans-Serif" font-size="10.00">_command_list.c</text>
</a>
</g>
</g>
<!-- Node2 -->
<g id="Node000002" class="node">
<title>Node2</title>
<g id="a_Node000002"><a xlink:href="command_8h.html" target="_top" xlink:title=" ">
<polygon fill="white" stroke="#666666" points="446,-250 372,-250 372,-231 446,-231 446,-250"/>
<text text-anchor="middle" x="409" y="-238" font-family="Helvetica,sans-Serif" font-size="10.00">command.h</text>
</a>
</g>
</g>
<!-- Node1&#45;&gt;Node2 -->
<g id="edge1_Node000001_Node000002" class="edge">
<title>Node1&#45;&gt;Node2</title>
<g id="a_edge1_Node000001_Node000002"><a xlink:title=" ">
<path fill="none" stroke="#63b8ff" d="M441.59,-285.84C435.54,-277.61 427.88,-267.18 421.5,-258.51"/>
<polygon fill="#63b8ff" stroke="#63b8ff" points="424.19,-256.25 415.44,-250.27 418.55,-260.4 424.19,-256.25"/>
</a>
</g>
</g>
<!-- Node22 -->
<g id="Node000022" class="node">
<title>Node22</title>
<g id="a_Node000022"><a xlink:title=" ">
<polygon fill="#e0e0e0" stroke="#999999" points="526,-250 464,-250 464,-231 526,-231 526,-250"/>
<text text-anchor="middle" x="495" y="-238" font-family="Helvetica,sans-Serif" font-size="10.00">threads.h</text>
</a>
</g>
</g>
<!-- Node1&#45;&gt;Node22 -->
<g id="edge27_Node000001_Node000022" class="edge">
<title>Node1&#45;&gt;Node22</title>
<g id="a_edge27_Node000001_Node000022"><a xlink:title=" ">
<path fill="none" stroke="#63b8ff" d="M462.41,-285.84C468.46,-277.61 476.12,-267.18 482.5,-258.51"/>
<polygon fill="#63b8ff" stroke="#63b8ff" points="485.45,-260.4 488.56,-250.27 479.81,-256.25 485.45,-260.4"/>
</a>
</g>
</g>
<!-- Node3 -->
<g id="Node000003" class="node">
<title>Node3</title>
<g id="a_Node000003"><a xlink:href="common__utils_8h.html" target="_top" xlink:title=" ">
<polygon fill="white" stroke="#666666" points="479,-140 339,-140 339,-110 479,-110 479,-140"/>
<text text-anchor="start" x="347" y="-128" font-family="Helvetica,sans-Serif" font-size="10.00">../common_utils/common</text>
<text text-anchor="middle" x="409" y="-117" font-family="Helvetica,sans-Serif" font-size="10.00">_utils.h</text>
</a>
</g>
</g>
<!-- Node2&#45;&gt;Node3 -->
<g id="edge2_Node000002_Node000003" class="edge">
<title>Node2&#45;&gt;Node3</title>
<g id="a_edge2_Node000002_Node000003"><a xlink:title=" ">
<path fill="none" stroke="#63b8ff" d="M389.42,-230.98C375.33,-223.68 357.4,-211.68 349,-195 339.68,-176.48 355.49,-158.89 373.21,-146.11"/>
<polygon fill="#63b8ff" stroke="#63b8ff" points="375.61,-148.72 381.97,-140.24 371.71,-142.9 375.61,-148.72"/>
</a>
</g>
</g>
<!-- Node20 -->
<g id="Node000020" class="node">
<title>Node20</title>
<g id="a_Node000020"><a xlink:href="tokens_8h.html" target="_top" xlink:title=" ">
<polygon fill="white" stroke="#666666" points="460,-195 358,-195 358,-176 460,-176 460,-195"/>
<text text-anchor="middle" x="409" y="-183" font-family="Helvetica,sans-Serif" font-size="10.00">../tokens/tokens.h</text>
</a>
</g>
</g>
<!-- Node2&#45;&gt;Node20 -->
<g id="edge23_Node000002_Node000020" class="edge">
<title>Node2&#45;&gt;Node20</title>
<g id="a_edge23_Node000002_Node000020"><a xlink:title=" ">
<path fill="none" stroke="#63b8ff" d="M409,-230.75C409,-223.8 409,-213.85 409,-205.13"/>
<polygon fill="#63b8ff" stroke="#63b8ff" points="412.5,-205.09 409,-195.09 405.5,-205.09 412.5,-205.09"/>
</a>
</g>
</g>
<!-- Node21 -->
<g id="Node000021" class="node">
<title>Node21</title>
<g id="a_Node000021"><a xlink:href="redirections_8h.html" target="_top" xlink:title=" ">
<polygon fill="white" stroke="#666666" points="631.5,-195 478.5,-195 478.5,-176 631.5,-176 631.5,-195"/>
<text text-anchor="middle" x="555" y="-183" font-family="Helvetica,sans-Serif" font-size="10.00">../redirections/redirections.h</text>
</a>
</g>
</g>
<!-- Node2&#45;&gt;Node21 -->
<g id="edge25_Node000002_Node000021" class="edge">
<title>Node2&#45;&gt;Node21</title>
<g id="a_edge25_Node000002_Node000021"><a xlink:title=" ">
<path fill="none" stroke="#63b8ff" d="M432.46,-230.98C456.58,-222.23 494.37,-208.51 521.6,-198.62"/>
<polygon fill="#63b8ff" stroke="#63b8ff" points="522.91,-201.87 531.12,-195.17 520.52,-195.29 522.91,-201.87"/>
</a>
</g>
</g>
<!-- Node4 -->
<g id="Node000004" class="node">
<title>Node4</title>
<g id="a_Node000004"><a xlink:href="libft_8h.html" target="_top" xlink:title=" ">
<polygon fill="white" stroke="#666666" points="313.5,-74 238.5,-74 238.5,-55 313.5,-55 313.5,-74"/>
<text text-anchor="middle" x="276" y="-62" font-family="Helvetica,sans-Serif" font-size="10.00">../libft/libft.h</text>
</a>
</g>
</g>
<!-- Node3&#45;&gt;Node4 -->
<g id="edge3_Node000003_Node000004" class="edge">
<title>Node3&#45;&gt;Node4</title>
<g id="a_edge3_Node000003_Node000004"><a xlink:title=" ">
<path fill="none" stroke="#63b8ff" d="M377.14,-109.99C355.15,-100.31 326.15,-87.56 304.84,-78.18"/>
<polygon fill="#63b8ff" stroke="#63b8ff" points="306.2,-74.96 295.64,-74.14 303.39,-81.37 306.2,-74.96"/>
</a>
</g>
</g>
<!-- Node5 -->
<g id="Node000005" class="node">
<title>Node5</title>
<g id="a_Node000005"><a xlink:title=" ">
<polygon fill="#e0e0e0" stroke="#999999" points="56,-19 0,-19 0,0 56,0 56,-19"/>
<text text-anchor="middle" x="28" y="-7" font-family="Helvetica,sans-Serif" font-size="10.00">unistd.h</text>
</a>
</g>
</g>
<!-- Node3&#45;&gt;Node5 -->
<g id="edge22_Node000003_Node000005" class="edge">
<title>Node3&#45;&gt;Node5</title>
<g id="a_edge22_Node000003_Node000005"><a xlink:title=" ">
<path fill="none" stroke="#63b8ff" d="M338.99,-114.08C289.6,-106.02 222.3,-92.86 165,-74 124.19,-60.56 79.49,-38.31 52.6,-24.03"/>
<polygon fill="#63b8ff" stroke="#63b8ff" points="54.01,-20.81 43.54,-19.16 50.69,-26.98 54.01,-20.81"/>
</a>
</g>
</g>
<!-- Node6 -->
<g id="Node000006" class="node">
<title>Node6</title>
<g id="a_Node000006"><a xlink:title=" ">
<polygon fill="#e0e0e0" stroke="#999999" points="127.5,-19 74.5,-19 74.5,0 127.5,0 127.5,-19"/>
<text text-anchor="middle" x="101" y="-7" font-family="Helvetica,sans-Serif" font-size="10.00">stdlib.h</text>
</a>
</g>
</g>
<!-- Node3&#45;&gt;Node6 -->
<g id="edge20_Node000003_Node000006" class="edge">
<title>Node3&#45;&gt;Node6</title>
<g id="a_edge20_Node000003_Node000006"><a xlink:title=" ">
<path fill="none" stroke="#63b8ff" d="M338.95,-112.56C298.51,-104.58 247.26,-92.08 204,-74 173.07,-61.08 140.68,-39.59 120.67,-25.24"/>
<polygon fill="#63b8ff" stroke="#63b8ff" points="122.54,-22.27 112.4,-19.21 118.41,-27.93 122.54,-22.27"/>
</a>
</g>
</g>
<!-- Node7 -->
<g id="Node000007" class="node">
<title>Node7</title>
<g id="a_Node000007"><a xlink:title=" ">
<polygon fill="#e0e0e0" stroke="#999999" points="198.5,-19 145.5,-19 145.5,0 198.5,0 198.5,-19"/>
<text text-anchor="middle" x="172" y="-7" font-family="Helvetica,sans-Serif" font-size="10.00">string.h</text>
</a>
</g>
</g>
<!-- Node3&#45;&gt;Node7 -->
<g id="edge21_Node000003_Node000007" class="edge">
<title>Node3&#45;&gt;Node7</title>
<g id="a_edge21_Node000003_Node000007"><a xlink:title=" ">
<path fill="none" stroke="#63b8ff" d="M338.58,-114.03C303.69,-106.78 262.08,-94.51 229,-74 210,-62.22 193.59,-42.25 183.32,-27.85"/>
<polygon fill="#63b8ff" stroke="#63b8ff" points="186.03,-25.61 177.49,-19.33 180.25,-29.56 186.03,-25.61"/>
</a>
</g>
</g>
<!-- Node10 -->
<g id="Node000010" class="node">
<title>Node10</title>
<g id="a_Node000010"><a xlink:title=" ">
<polygon fill="#e0e0e0" stroke="#999999" points="688.5,-19 641.5,-19 641.5,0 688.5,0 688.5,-19"/>
<text text-anchor="middle" x="665" y="-7" font-family="Helvetica,sans-Serif" font-size="10.00">fcntl.h</text>
</a>
</g>
</g>
<!-- Node3&#45;&gt;Node10 -->
<g id="edge16_Node000003_Node000010" class="edge">
<title>Node3&#45;&gt;Node10</title>
<g id="a_edge16_Node000003_Node000010"><a xlink:title=" ">
<path fill="none" stroke="#63b8ff" d="M387.68,-109.85C368.49,-95.4 345.52,-72.67 361,-55 399.3,-11.29 557.36,-28.96 631.07,-18.86"/>
<polygon fill="#63b8ff" stroke="#63b8ff" points="632.02,-22.25 641.31,-17.15 630.87,-15.34 632.02,-22.25"/>
</a>
</g>
</g>
<!-- Node14 -->
<g id="Node000014" class="node">
<title>Node14</title>
<g id="a_Node000014"><a xlink:href="signal__flag_8h.html" target="_top" xlink:title=" ">
<polygon fill="white" stroke="#666666" points="448,-74 370,-74 370,-55 448,-55 448,-74"/>
<text text-anchor="middle" x="409" y="-62" font-family="Helvetica,sans-Serif" font-size="10.00">signal_flag.h</text>
</a>
</g>
</g>
<!-- Node3&#45;&gt;Node14 -->
<g id="edge13_Node000003_Node000014" class="edge">
<title>Node3&#45;&gt;Node14</title>
<g id="a_edge13_Node000003_Node000014"><a xlink:title=" ">
<path fill="none" stroke="#63b8ff" d="M409,-109.84C409,-102.21 409,-92.7 409,-84.45"/>
<polygon fill="#63b8ff" stroke="#63b8ff" points="412.5,-84.27 409,-74.27 405.5,-84.27 412.5,-84.27"/>
</a>
</g>
</g>
<!-- Node15 -->
<g id="Node000015" class="node">
<title>Node15</title>
<g id="a_Node000015"><a xlink:title=" ">
<polygon fill="#e0e0e0" stroke="#999999" points="574,-74 466,-74 466,-55 574,-55 574,-74"/>
<text text-anchor="middle" x="520" y="-62" font-family="Helvetica,sans-Serif" font-size="10.00">readline/readline.h</text>
</a>
</g>
</g>
<!-- Node3&#45;&gt;Node15 -->
<g id="edge14_Node000003_Node000015" class="edge">
<title>Node3&#45;&gt;Node15</title>
<g id="a_edge14_Node000003_Node000015"><a xlink:title=" ">
<path fill="none" stroke="#63b8ff" d="M435.59,-109.99C453.45,-100.58 476.84,-88.24 494.48,-78.95"/>
<polygon fill="#63b8ff" stroke="#63b8ff" points="496.39,-81.9 503.61,-74.14 493.13,-75.71 496.39,-81.9"/>
</a>
</g>
</g>
<!-- Node16 -->
<g id="Node000016" class="node">
<title>Node16</title>
<g id="a_Node000016"><a xlink:title=" ">
<polygon fill="#e0e0e0" stroke="#999999" points="693.5,-74 592.5,-74 592.5,-55 693.5,-55 693.5,-74"/>
<text text-anchor="middle" x="643" y="-62" font-family="Helvetica,sans-Serif" font-size="10.00">readline/history.h</text>
</a>
</g>
</g>
<!-- Node3&#45;&gt;Node16 -->
<g id="edge15_Node000003_Node000016" class="edge">
<title>Node3&#45;&gt;Node16</title>
<g id="a_edge15_Node000003_Node000016"><a xlink:title=" ">
<path fill="none" stroke="#63b8ff" d="M465.05,-109.99C506.13,-99.72 561.12,-85.97 599.05,-76.49"/>
<polygon fill="#63b8ff" stroke="#63b8ff" points="599.93,-79.87 608.79,-74.05 598.24,-73.08 599.93,-79.87"/>
</a>
</g>
</g>
<!-- Node17 -->
<g id="Node000017" class="node">
<title>Node17</title>
<g id="a_Node000017"><a xlink:title=" ">
<polygon fill="#e0e0e0" stroke="#999999" points="784,-74 712,-74 712,-55 784,-55 784,-74"/>
<text text-anchor="middle" x="748" y="-62" font-family="Helvetica,sans-Serif" font-size="10.00">sys/types.h</text>
</a>
</g>
</g>
<!-- Node3&#45;&gt;Node17 -->
<g id="edge17_Node000003_Node000017" class="edge">
<title>Node3&#45;&gt;Node17</title>
<g id="a_edge17_Node000003_Node000017"><a xlink:title=" ">
<path fill="none" stroke="#63b8ff" d="M479.16,-112.44C536.43,-102.91 619.74,-88.87 701.68,-74.21"/>
<polygon fill="#63b8ff" stroke="#63b8ff" points="702.44,-77.63 711.66,-72.42 701.2,-70.74 702.44,-77.63"/>
</a>
</g>
</g>
<!-- Node18 -->
<g id="Node000018" class="node">
<title>Node18</title>
<g id="a_Node000018"><a xlink:title=" ">
<polygon fill="#e0e0e0" stroke="#999999" points="868,-74 802,-74 802,-55 868,-55 868,-74"/>
<text text-anchor="middle" x="835" y="-62" font-family="Helvetica,sans-Serif" font-size="10.00">sys/wait.h</text>
</a>
</g>
</g>
<!-- Node3&#45;&gt;Node18 -->
<g id="edge18_Node000003_Node000018" class="edge">
<title>Node3&#45;&gt;Node18</title>
<g id="a_edge18_Node000003_Node000018"><a xlink:title=" ">
<path fill="none" stroke="#63b8ff" d="M479.29,-116.35C554.27,-107.85 676.72,-92.99 791.55,-74.14"/>
<polygon fill="#63b8ff" stroke="#63b8ff" points="792.27,-77.57 801.57,-72.49 791.13,-70.67 792.27,-77.57"/>
</a>
</g>
</g>
<!-- Node19 -->
<g id="Node000019" class="node">
<title>Node19</title>
<g id="a_Node000019"><a xlink:title=" ">
<polygon fill="#e0e0e0" stroke="#999999" points="948,-74 886,-74 886,-55 948,-55 948,-74"/>
<text text-anchor="middle" x="917" y="-62" font-family="Helvetica,sans-Serif" font-size="10.00">stdbool.h</text>
</a>
</g>
</g>
<!-- Node3&#45;&gt;Node19 -->
<g id="edge19_Node000003_Node000019" class="edge">
<title>Node3&#45;&gt;Node19</title>
<g id="a_edge19_Node000003_Node000019"><a xlink:title=" ">
<path fill="none" stroke="#63b8ff" d="M479.07,-118.78C568.78,-111.59 729.18,-97.03 875.55,-74.08"/>
<polygon fill="#63b8ff" stroke="#63b8ff" points="876.29,-77.51 885.61,-72.49 875.19,-70.6 876.29,-77.51"/>
</a>
</g>
</g>
<!-- Node4&#45;&gt;Node5 -->
<g id="edge4_Node000004_Node000005" class="edge">
<title>Node4&#45;&gt;Node5</title>
<g id="a_edge4_Node000004_Node000005"><a xlink:title=" ">
<path fill="none" stroke="#63b8ff" d="M238.22,-55.75C198.03,-47.45 132.32,-33.75 66.42,-19.28"/>
<polygon fill="#63b8ff" stroke="#63b8ff" points="66.79,-15.78 56.27,-17.05 65.28,-22.62 66.79,-15.78"/>
</a>
</g>
</g>
<!-- Node4&#45;&gt;Node6 -->
<g id="edge5_Node000004_Node000006" class="edge">
<title>Node4&#45;&gt;Node6</title>
<g id="a_edge5_Node000004_Node000006"><a xlink:title=" ">
<path fill="none" stroke="#63b8ff" d="M247.88,-54.98C217.85,-45.89 170.14,-31.44 137.29,-21.49"/>
<polygon fill="#63b8ff" stroke="#63b8ff" points="138.2,-18.11 127.61,-18.56 136.17,-24.81 138.2,-18.11"/>
</a>
</g>
</g>
<!-- Node4&#45;&gt;Node7 -->
<g id="edge6_Node000004_Node000007" class="edge">
<title>Node4&#45;&gt;Node7</title>
<g id="a_edge6_Node000004_Node000007"><a xlink:title=" ">
<path fill="none" stroke="#63b8ff" d="M259.29,-54.98C242.79,-46.57 217.3,-33.59 198.12,-23.81"/>
<polygon fill="#63b8ff" stroke="#63b8ff" points="199.51,-20.59 189.01,-19.17 196.33,-26.83 199.51,-20.59"/>
</a>
</g>
</g>
<!-- Node8 -->
<g id="Node000008" class="node">
<title>Node8</title>
<g id="a_Node000008"><a xlink:title=" ">
<polygon fill="#e0e0e0" stroke="#999999" points="550,-19 500,-19 500,0 550,0 550,-19"/>
<text text-anchor="middle" x="525" y="-7" font-family="Helvetica,sans-Serif" font-size="10.00">stdio.h</text>
</a>
</g>
</g>
<!-- Node4&#45;&gt;Node8 -->
<g id="edge7_Node000004_Node000008" class="edge">
<title>Node4&#45;&gt;Node8</title>
<g id="a_edge7_Node000004_Node000008"><a xlink:title=" ">
<path fill="none" stroke="#63b8ff" d="M313.58,-56.08C356.38,-47.54 428.36,-32.89 490,-19 490.1,-18.98 490.2,-18.96 490.3,-18.93"/>
<polygon fill="#63b8ff" stroke="#63b8ff" points="490.84,-22.4 499.79,-16.73 489.26,-15.58 490.84,-22.4"/>
</a>
</g>
</g>
<!-- Node9 -->
<g id="Node000009" class="node">
<title>Node9</title>
<g id="a_Node000009"><a xlink:title=" ">
<polygon fill="#e0e0e0" stroke="#999999" points="623.5,-19 568.5,-19 568.5,0 623.5,0 623.5,-19"/>
<text text-anchor="middle" x="596" y="-7" font-family="Helvetica,sans-Serif" font-size="10.00">signal.h</text>
</a>
</g>
</g>
<!-- Node4&#45;&gt;Node9 -->
<g id="edge8_Node000004_Node000009" class="edge">
<title>Node4&#45;&gt;Node9</title>
<g id="a_edge8_Node000004_Node000009"><a xlink:title=" ">
<path fill="none" stroke="#63b8ff" d="M313.77,-57.29C318.56,-56.52 323.39,-55.74 328,-55 427.5,-39.11 455.3,-38.66 558.29,-19.01"/>
<polygon fill="#63b8ff" stroke="#63b8ff" points="559,-22.44 568.16,-17.12 557.68,-15.57 559,-22.44"/>
</a>
</g>
</g>
<!-- Node4&#45;&gt;Node10 -->
<g id="edge9_Node000004_Node000010" class="edge">
<title>Node4&#45;&gt;Node10</title>
<g id="a_edge9_Node000004_Node000010"><a xlink:title=" ">
<path fill="none" stroke="#63b8ff" d="M313.74,-57.13C318.54,-56.38 323.38,-55.65 328,-55 460,-36.43 497.19,-44.2 631.48,-19.06"/>
<polygon fill="#63b8ff" stroke="#63b8ff" points="632.15,-22.49 641.32,-17.19 630.84,-15.62 632.15,-22.49"/>
</a>
</g>
</g>
<!-- Node11 -->
<g id="Node000011" class="node">
<title>Node11</title>
<g id="a_Node000011"><a xlink:title=" ">
<polygon fill="#e0e0e0" stroke="#999999" points="335.5,-19 216.5,-19 216.5,0 335.5,0 335.5,-19"/>
<text text-anchor="middle" x="276" y="-7" font-family="Helvetica,sans-Serif" font-size="10.00">bits/types/siginfo_t.h</text>
</a>
</g>
</g>
<!-- Node4&#45;&gt;Node11 -->
<g id="edge10_Node000004_Node000011" class="edge">
<title>Node4&#45;&gt;Node11</title>
<g id="a_edge10_Node000004_Node000011"><a xlink:title=" ">
<path fill="none" stroke="#63b8ff" d="M276,-54.75C276,-47.8 276,-37.85 276,-29.13"/>
<polygon fill="#63b8ff" stroke="#63b8ff" points="279.5,-29.09 276,-19.09 272.5,-29.09 279.5,-29.09"/>
</a>
</g>
</g>
<!-- Node12 -->
<g id="Node000012" class="node">
<title>Node12</title>
<g id="a_Node000012"><a xlink:title=" ">
<polygon fill="#e0e0e0" stroke="#999999" points="410,-19 354,-19 354,0 410,0 410,-19"/>
<text text-anchor="middle" x="382" y="-7" font-family="Helvetica,sans-Serif" font-size="10.00">stdarg.h</text>
</a>
</g>
</g>
<!-- Node4&#45;&gt;Node12 -->
<g id="edge11_Node000004_Node000012" class="edge">
<title>Node4&#45;&gt;Node12</title>
<g id="a_edge11_Node000004_Node000012"><a xlink:title=" ">
<path fill="none" stroke="#63b8ff" d="M293.03,-54.98C309.93,-46.54 336.06,-33.47 355.64,-23.68"/>
<polygon fill="#63b8ff" stroke="#63b8ff" points="357.28,-26.77 364.66,-19.17 354.15,-20.51 357.28,-26.77"/>
</a>
</g>
</g>
<!-- Node13 -->
<g id="Node000013" class="node">
<title>Node13</title>
<g id="a_Node000013"><a xlink:title=" ">
<polygon fill="#e0e0e0" stroke="#999999" points="481.5,-19 428.5,-19 428.5,0 481.5,0 481.5,-19"/>
<text text-anchor="middle" x="455" y="-7" font-family="Helvetica,sans-Serif" font-size="10.00">limits.h</text>
</a>
</g>
</g>
<!-- Node4&#45;&gt;Node13 -->
<g id="edge12_Node000004_Node000013" class="edge">
<title>Node4&#45;&gt;Node13</title>
<g id="a_edge12_Node000004_Node000013"><a xlink:title=" ">
<path fill="none" stroke="#63b8ff" d="M304.76,-54.98C335.66,-45.84 384.84,-31.27 418.46,-21.32"/>
<polygon fill="#63b8ff" stroke="#63b8ff" points="419.76,-24.58 428.36,-18.39 417.78,-17.87 419.76,-24.58"/>
</a>
</g>
</g>
<!-- Node20&#45;&gt;Node3 -->
<g id="edge24_Node000020_Node000003" class="edge">
<title>Node20&#45;&gt;Node3</title>
<g id="a_edge24_Node000020_Node000003"><a xlink:title=" ">
<path fill="none" stroke="#63b8ff" d="M409,-175.87C409,-169.11 409,-159.35 409,-150.26"/>
<polygon fill="#63b8ff" stroke="#63b8ff" points="412.5,-150.11 409,-140.11 405.5,-150.11 412.5,-150.11"/>
</a>
</g>
</g>
<!-- Node21&#45;&gt;Node3 -->
<g id="edge26_Node000021_Node000003" class="edge">
<title>Node21&#45;&gt;Node3</title>
<g id="a_edge26_Node000021_Node000003"><a xlink:title=" ">
<path fill="none" stroke="#63b8ff" d="M533.77,-175.99C512.85,-167.61 480.24,-154.55 453.61,-143.87"/>
<polygon fill="#63b8ff" stroke="#63b8ff" points="454.68,-140.53 444.1,-140.06 452.08,-147.03 454.68,-140.53"/>
</a>
</g>
</g>
</g>
</svg>
