<?xml version="1.0" encoding="UTF-8" standalone="no"?>
<!DOCTYPE svg PUBLIC "-//W3C//DTD SVG 1.1//EN"
 "http://www.w3.org/Graphics/SVG/1.1/DTD/svg11.dtd">
<!-- Generated by graphviz version 2.43.0 (0)
 -->
<!-- Title: print_args Pages: 1 -->
<svg width="597pt" height="248pt"
 viewBox="0.00 0.00 597.00 248.00" xmlns="http://www.w3.org/2000/svg" xmlns:xlink="http://www.w3.org/1999/xlink">
<g id="graph0" class="graph" transform="scale(1 1) rotate(0) translate(4 244)">
<title>print_args</title>
<!-- Node1 -->
<g id="Node000001" class="node">
<title>Node1</title>
<g id="a_Node000001"><a xlink:title="Prints valid environment variables to the specified file descriptor.">
<polygon fill="#999999" stroke="#666666" points="65,-185 0,-185 0,-166 65,-166 65,-185"/>
<text text-anchor="middle" x="32.5" y="-173" font-family="Helvetica,sans-Serif" font-size="10.00">print_args</text>
</a>
</g>
</g>
<!-- Node2 -->
<g id="Node000002" class="node">
<title>Node2</title>
<g id="a_Node000002"><a xlink:href="env_8c.html#afa91ce9c7b8e6f5ab601759029cc2c16" target="_top" xlink:title="Checks if an environment string contains a value after &#39;=&#39;.">
<polygon fill="white" stroke="#666666" points="178,-204 101,-204 101,-185 178,-185 178,-204"/>
<text text-anchor="middle" x="139.5" y="-192" font-family="Helvetica,sans-Serif" font-size="10.00">check_value</text>
</a>
</g>
</g>
<!-- Node1&#45;&gt;Node2 -->
<g id="edge1_Node000001_Node000002" class="edge">
<title>Node1&#45;&gt;Node2</title>
<g id="a_edge1_Node000001_Node000002"><a xlink:title=" ">
<path fill="none" stroke="#63b8ff" d="M65,-181.2C73.08,-182.66 81.95,-184.27 90.65,-185.84"/>
<polygon fill="#63b8ff" stroke="#63b8ff" points="90.26,-189.33 100.72,-187.66 91.5,-182.44 90.26,-189.33"/>
</a>
</g>
</g>
<!-- Node3 -->
<g id="Node000003" class="node">
<title>Node3</title>
<g id="a_Node000003"><a xlink:href="ft__printf_8c.html#a091532b7f37af84bdecc84dccf4eedb1" target="_top" xlink:title="A simplified printf function that outputs formatted data to a given file descriptor.">
<polygon fill="white" stroke="#666666" points="167,-167 112,-167 112,-148 167,-148 167,-167"/>
<text text-anchor="middle" x="139.5" y="-155" font-family="Helvetica,sans-Serif" font-size="10.00">ft_printf</text>
</a>
</g>
</g>
<!-- Node1&#45;&gt;Node3 -->
<g id="edge2_Node000001_Node000003" class="edge">
<title>Node1&#45;&gt;Node3</title>
<g id="a_edge2_Node000001_Node000003"><a xlink:title=" ">
<path fill="none" stroke="#63b8ff" d="M65,-170.1C76.59,-168.11 89.81,-165.85 101.81,-163.79"/>
<polygon fill="#63b8ff" stroke="#63b8ff" points="102.71,-167.19 111.98,-162.05 101.53,-160.29 102.71,-167.19"/>
</a>
</g>
</g>
<!-- Node4 -->
<g id="Node000004" class="node">
<title>Node4</title>
<g id="a_Node000004"><a xlink:href="ft__printf_8c.html#a80c1c206dcd33d07c265581878aaa300" target="_top" xlink:title="Processes a single format specifier and prints the corresponding argument.">
<polygon fill="white" stroke="#666666" points="297,-148 214,-148 214,-129 297,-129 297,-148"/>
<text text-anchor="middle" x="255.5" y="-136" font-family="Helvetica,sans-Serif" font-size="10.00">check_format</text>
</a>
</g>
</g>
<!-- Node3&#45;&gt;Node4 -->
<g id="edge3_Node000003_Node000004" class="edge">
<title>Node3&#45;&gt;Node4</title>
<g id="a_edge3_Node000003_Node000004"><a xlink:title=" ">
<path fill="none" stroke="#63b8ff" d="M167.23,-153.05C178.13,-151.23 191.12,-149.06 203.7,-146.97"/>
<polygon fill="#63b8ff" stroke="#63b8ff" points="204.37,-150.4 213.65,-145.31 203.21,-143.5 204.37,-150.4"/>
</a>
</g>
</g>
<!-- Node8 -->
<g id="Node000008" class="node">
<title>Node8</title>
<g id="a_Node000008"><a xlink:href="ft__putchar__fd_8c.html#a03ef80b25dc4a521379fa92ad97bad21" target="_top" xlink:title="Writes a single character to the specified file descriptor.">
<polygon fill="white" stroke="#666666" points="428,-240 348,-240 348,-221 428,-221 428,-240"/>
<text text-anchor="middle" x="388" y="-228" font-family="Helvetica,sans-Serif" font-size="10.00">ft_putchar_fd</text>
</a>
</g>
</g>
<!-- Node3&#45;&gt;Node8 -->
<g id="edge16_Node000003_Node000008" class="edge">
<title>Node3&#45;&gt;Node8</title>
<g id="a_edge16_Node000003_Node000008"><a xlink:title=" ">
<path fill="none" stroke="#63b8ff" d="M167.35,-165.45C210.16,-178.13 294.24,-203.03 345.05,-218.08"/>
<polygon fill="#63b8ff" stroke="#63b8ff" points="344.16,-221.46 354.74,-220.95 346.15,-214.75 344.16,-221.46"/>
</a>
</g>
</g>
<!-- Node5 -->
<g id="Node000005" class="node">
<title>Node5</title>
<g id="a_Node000005"><a xlink:href="ft__forpointer_8c.html#a8e02c77b80406af72327ebf71f537786" target="_top" xlink:title="Prints a pointer in hexadecimal format prefixed with &quot;0x&quot;.">
<polygon fill="white" stroke="#666666" points="426.5,-203 349.5,-203 349.5,-184 426.5,-184 426.5,-203"/>
<text text-anchor="middle" x="388" y="-191" font-family="Helvetica,sans-Serif" font-size="10.00">ft_forpointer</text>
</a>
</g>
</g>
<!-- Node4&#45;&gt;Node5 -->
<g id="edge4_Node000004_Node000005" class="edge">
<title>Node4&#45;&gt;Node5</title>
<g id="a_edge4_Node000004_Node000005"><a xlink:title=" ">
<path fill="none" stroke="#63b8ff" d="M274.75,-148.15C290.06,-156.05 312.64,-167.22 333,-175.5 337.4,-177.29 342.06,-179.04 346.71,-180.71"/>
<polygon fill="#63b8ff" stroke="#63b8ff" points="345.6,-184.03 356.19,-183.99 347.89,-177.41 345.6,-184.03"/>
</a>
</g>
</g>
<!-- Node7 -->
<g id="Node000007" class="node">
<title>Node7</title>
<g id="a_Node000007"><a xlink:href="ft__hexadecimal_8c.html#a39c845e0a4286d3ac1e04c1e64ac734b" target="_top" xlink:title="Prints an unsigned integer in hexadecimal format.">
<polygon fill="white" stroke="#666666" points="434,-148 342,-148 342,-129 434,-129 434,-148"/>
<text text-anchor="middle" x="388" y="-136" font-family="Helvetica,sans-Serif" font-size="10.00">ft_hexadecimal</text>
</a>
</g>
</g>
<!-- Node4&#45;&gt;Node7 -->
<g id="edge7_Node000004_Node000007" class="edge">
<title>Node4&#45;&gt;Node7</title>
<g id="a_edge7_Node000004_Node000007"><a xlink:title=" ">
<path fill="none" stroke="#63b8ff" d="M297.08,-138.5C308.07,-138.5 320.16,-138.5 331.82,-138.5"/>
<polygon fill="#63b8ff" stroke="#63b8ff" points="331.9,-142 341.9,-138.5 331.9,-135 331.9,-142"/>
</a>
</g>
</g>
<!-- Node4&#45;&gt;Node8 -->
<g id="edge9_Node000004_Node000008" class="edge">
<title>Node4&#45;&gt;Node8</title>
<g id="a_edge9_Node000004_Node000008"><a xlink:title=" ">
<path fill="none" stroke="#63b8ff" d="M263.94,-148.07C276.55,-163.69 303.61,-194.67 333,-212.5 335.66,-214.11 338.48,-215.6 341.39,-216.97"/>
<polygon fill="#63b8ff" stroke="#63b8ff" points="340.27,-220.3 350.85,-220.96 342.99,-213.85 340.27,-220.3"/>
</a>
</g>
</g>
<!-- Node9 -->
<g id="Node000009" class="node">
<title>Node9</title>
<g id="a_Node000009"><a xlink:href="ft__putnbr__fd_8c.html#a1554101ee350c316340c78e19faddaa8" target="_top" xlink:title="Writes an integer to a given file descriptor.">
<polygon fill="white" stroke="#666666" points="425.5,-93 350.5,-93 350.5,-74 425.5,-74 425.5,-93"/>
<text text-anchor="middle" x="388" y="-81" font-family="Helvetica,sans-Serif" font-size="10.00">ft_putnbr_fd</text>
</a>
</g>
</g>
<!-- Node4&#45;&gt;Node9 -->
<g id="edge10_Node000004_Node000009" class="edge">
<title>Node4&#45;&gt;Node9</title>
<g id="a_edge10_Node000004_Node000009"><a xlink:title=" ">
<path fill="none" stroke="#63b8ff" d="M279.23,-128.92C300.06,-120.14 331.13,-107.05 354.57,-97.17"/>
<polygon fill="#63b8ff" stroke="#63b8ff" points="356.24,-100.26 364.09,-93.16 353.52,-93.81 356.24,-100.26"/>
</a>
</g>
</g>
<!-- Node10 -->
<g id="Node000010" class="node">
<title>Node10</title>
<g id="a_Node000010"><a xlink:href="ft__putstr__fd_8c.html#a00b0638f31a75c7a30f77f33888bfb73" target="_top" xlink:title="Writes a null&#45;terminated string to the specified file descriptor.">
<polygon fill="white" stroke="#666666" points="424,-56 352,-56 352,-37 424,-37 424,-56"/>
<text text-anchor="middle" x="388" y="-44" font-family="Helvetica,sans-Serif" font-size="10.00">ft_putstr_fd</text>
</a>
</g>
</g>
<!-- Node4&#45;&gt;Node10 -->
<g id="edge12_Node000004_Node000010" class="edge">
<title>Node4&#45;&gt;Node10</title>
<g id="a_edge12_Node000004_Node000010"><a xlink:title=" ">
<path fill="none" stroke="#63b8ff" d="M264.42,-128.62C277.28,-113.15 304.21,-83.16 333,-65.5 336.34,-63.45 339.92,-61.59 343.61,-59.89"/>
<polygon fill="#63b8ff" stroke="#63b8ff" points="344.98,-63.11 352.87,-56.04 342.29,-56.65 344.98,-63.11"/>
</a>
</g>
</g>
<!-- Node11 -->
<g id="Node000011" class="node">
<title>Node11</title>
<g id="a_Node000011"><a xlink:href="ft__unsigned__putnbr_8c.html#af9a70f8607b40cf2a7706f9d3725b549" target="_top" xlink:title="Writes an unsigned integer to the given file descriptor.">
<polygon fill="white" stroke="#666666" points="443,-19 333,-19 333,0 443,0 443,-19"/>
<text text-anchor="middle" x="388" y="-7" font-family="Helvetica,sans-Serif" font-size="10.00">ft_unsigned_putnbr</text>
</a>
</g>
</g>
<!-- Node4&#45;&gt;Node11 -->
<g id="edge13_Node000004_Node000011" class="edge">
<title>Node4&#45;&gt;Node11</title>
<g id="a_edge13_Node000004_Node000011"><a xlink:title=" ">
<path fill="none" stroke="#63b8ff" d="M260.51,-128.93C269.94,-107.55 295.58,-55.62 333,-27.5 334.83,-26.13 336.77,-24.85 338.79,-23.67"/>
<polygon fill="#63b8ff" stroke="#63b8ff" points="340.61,-26.67 348,-19.09 337.49,-20.41 340.61,-26.67"/>
</a>
</g>
</g>
<!-- Node6 -->
<g id="Node000006" class="node">
<title>Node6</title>
<g id="a_Node000006"><a xlink:href="ft__forpointer_8c.html#aded1bf735c8a10e47396170d27c5b6aa" target="_top" xlink:title="Recursively prints a memory address in hexadecimal format.">
<polygon fill="white" stroke="#666666" points="589,-203 479,-203 479,-184 589,-184 589,-203"/>
<text text-anchor="middle" x="534" y="-191" font-family="Helvetica,sans-Serif" font-size="10.00">ft_ricorsive_pointer</text>
</a>
</g>
</g>
<!-- Node5&#45;&gt;Node6 -->
<g id="edge5_Node000005_Node000006" class="edge">
<title>Node5&#45;&gt;Node6</title>
<g id="a_edge5_Node000005_Node000006"><a xlink:title=" ">
<path fill="none" stroke="#63b8ff" d="M426.83,-193.5C439.64,-193.5 454.33,-193.5 468.61,-193.5"/>
<polygon fill="#63b8ff" stroke="#63b8ff" points="468.9,-197 478.9,-193.5 468.9,-190 468.9,-197"/>
</a>
</g>
</g>
<!-- Node6&#45;&gt;Node6 -->
<g id="edge6_Node000006_Node000006" class="edge">
<title>Node6&#45;&gt;Node6</title>
<g id="a_edge6_Node000006_Node000006"><a xlink:title=" ">
<path fill="none" stroke="#63b8ff" d="M511.5,-203.08C500.55,-211.73 508.05,-221 534,-221 550.62,-221 559.68,-217.2 561.16,-212.19"/>
<polygon fill="#63b8ff" stroke="#63b8ff" points="564.17,-210.39 556.5,-203.08 557.94,-213.58 564.17,-210.39"/>
</a>
</g>
</g>
<!-- Node7&#45;&gt;Node7 -->
<g id="edge8_Node000007_Node000007" class="edge">
<title>Node7&#45;&gt;Node7</title>
<g id="a_edge8_Node000007_Node000007"><a xlink:title=" ">
<path fill="none" stroke="#63b8ff" d="M367.65,-148.08C357.76,-156.73 364.54,-166 388,-166 403.03,-166 411.21,-162.2 412.55,-157.19"/>
<polygon fill="#63b8ff" stroke="#63b8ff" points="415.72,-155.69 408.35,-148.08 409.36,-158.63 415.72,-155.69"/>
</a>
</g>
</g>
<!-- Node9&#45;&gt;Node9 -->
<g id="edge11_Node000009_Node000009" class="edge">
<title>Node9&#45;&gt;Node9</title>
<g id="a_edge11_Node000009_Node000009"><a xlink:title=" ">
<path fill="none" stroke="#63b8ff" d="M367.65,-93.08C357.76,-101.73 364.54,-111 388,-111 403.03,-111 411.21,-107.2 412.55,-102.19"/>
<polygon fill="#63b8ff" stroke="#63b8ff" points="415.72,-100.69 408.35,-93.08 409.36,-103.63 415.72,-100.69"/>
</a>
</g>
</g>
<!-- Node12 -->
<g id="Node000012" class="node">
<title>Node12</title>
<g id="a_Node000012"><a xlink:href="ft__putnbr_8c.html#a2e51f80c9e46e52f4adf94617fb51ada" target="_top" xlink:title="Writes an integer to the standard output (stdout).">
<polygon fill="white" stroke="#666666" points="564,-19 504,-19 504,0 564,0 564,-19"/>
<text text-anchor="middle" x="534" y="-7" font-family="Helvetica,sans-Serif" font-size="10.00">ft_putnbr</text>
</a>
</g>
</g>
<!-- Node11&#45;&gt;Node12 -->
<g id="edge14_Node000011_Node000012" class="edge">
<title>Node11&#45;&gt;Node12</title>
<g id="a_edge14_Node000011_Node000012"><a xlink:title=" ">
<path fill="none" stroke="#63b8ff" d="M443.03,-9.5C459.76,-9.5 477.87,-9.5 493.43,-9.5"/>
<polygon fill="#63b8ff" stroke="#63b8ff" points="493.74,-13 503.74,-9.5 493.74,-6 493.74,-13"/>
</a>
</g>
</g>
<!-- Node12&#45;&gt;Node12 -->
<g id="edge15_Node000012_Node000012" class="edge">
<title>Node12&#45;&gt;Node12</title>
<g id="a_edge15_Node000012_Node000012"><a xlink:title=" ">
<path fill="none" stroke="#63b8ff" d="M511.5,-19.08C500.55,-27.73 508.05,-37 534,-37 550.62,-37 559.68,-33.2 561.16,-28.19"/>
<polygon fill="#63b8ff" stroke="#63b8ff" points="564.17,-26.39 556.5,-19.08 557.94,-29.58 564.17,-26.39"/>
</a>
</g>
</g>
</g>
</svg>
