<?xml version="1.0" encoding="UTF-8" standalone="no"?>
<!DOCTYPE svg PUBLIC "-//W3C//DTD SVG 1.1//EN"
 "http://www.w3.org/Graphics/SVG/1.1/DTD/svg11.dtd">
<!-- Generated by graphviz version 2.43.0 (0)
 -->
<!-- Title: ft_env_error Pages: 1 -->
<svg width="585pt" height="248pt"
 viewBox="0.00 0.00 585.00 248.00" xmlns="http://www.w3.org/2000/svg" xmlns:xlink="http://www.w3.org/1999/xlink">
<g id="graph0" class="graph" transform="scale(1 1) rotate(0) translate(4 244)">
<title>ft_env_error</title>
<!-- Node1 -->
<g id="Node000001" class="node">
<title>Node1</title>
<g id="a_Node000001"><a xlink:title="Handles errors for invalid arguments passed to the env command.">
<polygon fill="#999999" stroke="#666666" points="75,-167 0,-167 0,-148 75,-148 75,-167"/>
<text text-anchor="middle" x="37.5" y="-155" font-family="Helvetica,sans-Serif" font-size="10.00">ft_env_error</text>
</a>
</g>
</g>
<!-- Node2 -->
<g id="Node000002" class="node">
<title>Node2</title>
<g id="a_Node000002"><a xlink:href="ft__printf_8c.html#a091532b7f37af84bdecc84dccf4eedb1" target="_top" xlink:title="A simplified printf function that outputs formatted data to a given file descriptor.">
<polygon fill="white" stroke="#666666" points="166,-167 111,-167 111,-148 166,-148 166,-167"/>
<text text-anchor="middle" x="138.5" y="-155" font-family="Helvetica,sans-Serif" font-size="10.00">ft_printf</text>
</a>
</g>
</g>
<!-- Node1&#45;&gt;Node2 -->
<g id="edge1_Node000001_Node000002" class="edge">
<title>Node1&#45;&gt;Node2</title>
<g id="a_edge1_Node000001_Node000002"><a xlink:title=" ">
<path fill="none" stroke="#63b8ff" d="M75.08,-157.5C83.45,-157.5 92.34,-157.5 100.72,-157.5"/>
<polygon fill="#63b8ff" stroke="#63b8ff" points="100.97,-161 110.97,-157.5 100.97,-154 100.97,-161"/>
</a>
</g>
</g>
<!-- Node3 -->
<g id="Node000003" class="node">
<title>Node3</title>
<g id="a_Node000003"><a xlink:href="ft__printf_8c.html#a80c1c206dcd33d07c265581878aaa300" target="_top" xlink:title="Processes a single format specifier and prints the corresponding argument.">
<polygon fill="white" stroke="#666666" points="285,-148 202,-148 202,-129 285,-129 285,-148"/>
<text text-anchor="middle" x="243.5" y="-136" font-family="Helvetica,sans-Serif" font-size="10.00">check_format</text>
</a>
</g>
</g>
<!-- Node2&#45;&gt;Node3 -->
<g id="edge2_Node000002_Node000003" class="edge">
<title>Node2&#45;&gt;Node3</title>
<g id="a_edge2_Node000002_Node000003"><a xlink:title=" ">
<path fill="none" stroke="#63b8ff" d="M166.03,-152.61C173.91,-151.15 182.82,-149.51 191.7,-147.87"/>
<polygon fill="#63b8ff" stroke="#63b8ff" points="192.47,-151.29 201.66,-146.03 191.2,-144.4 192.47,-151.29"/>
</a>
</g>
</g>
<!-- Node7 -->
<g id="Node000007" class="node">
<title>Node7</title>
<g id="a_Node000007"><a xlink:href="ft__putchar__fd_8c.html#a03ef80b25dc4a521379fa92ad97bad21" target="_top" xlink:title="Writes a single character to the specified file descriptor.">
<polygon fill="white" stroke="#666666" points="416,-240 336,-240 336,-221 416,-221 416,-240"/>
<text text-anchor="middle" x="376" y="-228" font-family="Helvetica,sans-Serif" font-size="10.00">ft_putchar_fd</text>
</a>
</g>
</g>
<!-- Node2&#45;&gt;Node7 -->
<g id="edge15_Node000002_Node000007" class="edge">
<title>Node2&#45;&gt;Node7</title>
<g id="a_edge15_Node000002_Node000007"><a xlink:title=" ">
<path fill="none" stroke="#63b8ff" d="M166.06,-165.73C207.05,-178.44 286.03,-202.92 334.27,-217.88"/>
<polygon fill="#63b8ff" stroke="#63b8ff" points="333.49,-221.3 344.08,-220.91 335.56,-214.61 333.49,-221.3"/>
</a>
</g>
</g>
<!-- Node4 -->
<g id="Node000004" class="node">
<title>Node4</title>
<g id="a_Node000004"><a xlink:href="ft__forpointer_8c.html#a8e02c77b80406af72327ebf71f537786" target="_top" xlink:title="Prints a pointer in hexadecimal format prefixed with &quot;0x&quot;.">
<polygon fill="white" stroke="#666666" points="414.5,-203 337.5,-203 337.5,-184 414.5,-184 414.5,-203"/>
<text text-anchor="middle" x="376" y="-191" font-family="Helvetica,sans-Serif" font-size="10.00">ft_forpointer</text>
</a>
</g>
</g>
<!-- Node3&#45;&gt;Node4 -->
<g id="edge3_Node000003_Node000004" class="edge">
<title>Node3&#45;&gt;Node4</title>
<g id="a_edge3_Node000003_Node000004"><a xlink:title=" ">
<path fill="none" stroke="#63b8ff" d="M262.75,-148.15C278.06,-156.05 300.64,-167.22 321,-175.5 325.4,-177.29 330.06,-179.04 334.71,-180.71"/>
<polygon fill="#63b8ff" stroke="#63b8ff" points="333.6,-184.03 344.19,-183.99 335.89,-177.41 333.6,-184.03"/>
</a>
</g>
</g>
<!-- Node6 -->
<g id="Node000006" class="node">
<title>Node6</title>
<g id="a_Node000006"><a xlink:href="ft__hexadecimal_8c.html#a39c845e0a4286d3ac1e04c1e64ac734b" target="_top" xlink:title="Prints an unsigned integer in hexadecimal format.">
<polygon fill="white" stroke="#666666" points="422,-148 330,-148 330,-129 422,-129 422,-148"/>
<text text-anchor="middle" x="376" y="-136" font-family="Helvetica,sans-Serif" font-size="10.00">ft_hexadecimal</text>
</a>
</g>
</g>
<!-- Node3&#45;&gt;Node6 -->
<g id="edge6_Node000003_Node000006" class="edge">
<title>Node3&#45;&gt;Node6</title>
<g id="a_edge6_Node000003_Node000006"><a xlink:title=" ">
<path fill="none" stroke="#63b8ff" d="M285.08,-138.5C296.07,-138.5 308.16,-138.5 319.82,-138.5"/>
<polygon fill="#63b8ff" stroke="#63b8ff" points="319.9,-142 329.9,-138.5 319.9,-135 319.9,-142"/>
</a>
</g>
</g>
<!-- Node3&#45;&gt;Node7 -->
<g id="edge8_Node000003_Node000007" class="edge">
<title>Node3&#45;&gt;Node7</title>
<g id="a_edge8_Node000003_Node000007"><a xlink:title=" ">
<path fill="none" stroke="#63b8ff" d="M251.94,-148.07C264.55,-163.69 291.61,-194.67 321,-212.5 323.66,-214.11 326.48,-215.6 329.39,-216.97"/>
<polygon fill="#63b8ff" stroke="#63b8ff" points="328.27,-220.3 338.85,-220.96 330.99,-213.85 328.27,-220.3"/>
</a>
</g>
</g>
<!-- Node8 -->
<g id="Node000008" class="node">
<title>Node8</title>
<g id="a_Node000008"><a xlink:href="ft__putnbr__fd_8c.html#a1554101ee350c316340c78e19faddaa8" target="_top" xlink:title="Writes an integer to a given file descriptor.">
<polygon fill="white" stroke="#666666" points="413.5,-93 338.5,-93 338.5,-74 413.5,-74 413.5,-93"/>
<text text-anchor="middle" x="376" y="-81" font-family="Helvetica,sans-Serif" font-size="10.00">ft_putnbr_fd</text>
</a>
</g>
</g>
<!-- Node3&#45;&gt;Node8 -->
<g id="edge9_Node000003_Node000008" class="edge">
<title>Node3&#45;&gt;Node8</title>
<g id="a_edge9_Node000003_Node000008"><a xlink:title=" ">
<path fill="none" stroke="#63b8ff" d="M267.23,-128.92C288.06,-120.14 319.13,-107.05 342.57,-97.17"/>
<polygon fill="#63b8ff" stroke="#63b8ff" points="344.24,-100.26 352.09,-93.16 341.52,-93.81 344.24,-100.26"/>
</a>
</g>
</g>
<!-- Node9 -->
<g id="Node000009" class="node">
<title>Node9</title>
<g id="a_Node000009"><a xlink:href="ft__putstr__fd_8c.html#a00b0638f31a75c7a30f77f33888bfb73" target="_top" xlink:title="Writes a null&#45;terminated string to the specified file descriptor.">
<polygon fill="white" stroke="#666666" points="412,-56 340,-56 340,-37 412,-37 412,-56"/>
<text text-anchor="middle" x="376" y="-44" font-family="Helvetica,sans-Serif" font-size="10.00">ft_putstr_fd</text>
</a>
</g>
</g>
<!-- Node3&#45;&gt;Node9 -->
<g id="edge11_Node000003_Node000009" class="edge">
<title>Node3&#45;&gt;Node9</title>
<g id="a_edge11_Node000003_Node000009"><a xlink:title=" ">
<path fill="none" stroke="#63b8ff" d="M252.42,-128.62C265.28,-113.15 292.21,-83.16 321,-65.5 324.34,-63.45 327.92,-61.59 331.61,-59.89"/>
<polygon fill="#63b8ff" stroke="#63b8ff" points="332.98,-63.11 340.87,-56.04 330.29,-56.65 332.98,-63.11"/>
</a>
</g>
</g>
<!-- Node10 -->
<g id="Node000010" class="node">
<title>Node10</title>
<g id="a_Node000010"><a xlink:href="ft__unsigned__putnbr_8c.html#af9a70f8607b40cf2a7706f9d3725b549" target="_top" xlink:title="Writes an unsigned integer to the given file descriptor.">
<polygon fill="white" stroke="#666666" points="431,-19 321,-19 321,0 431,0 431,-19"/>
<text text-anchor="middle" x="376" y="-7" font-family="Helvetica,sans-Serif" font-size="10.00">ft_unsigned_putnbr</text>
</a>
</g>
</g>
<!-- Node3&#45;&gt;Node10 -->
<g id="edge12_Node000003_Node000010" class="edge">
<title>Node3&#45;&gt;Node10</title>
<g id="a_edge12_Node000003_Node000010"><a xlink:title=" ">
<path fill="none" stroke="#63b8ff" d="M248.51,-128.93C257.94,-107.55 283.58,-55.62 321,-27.5 322.83,-26.13 324.77,-24.85 326.79,-23.67"/>
<polygon fill="#63b8ff" stroke="#63b8ff" points="328.61,-26.67 336,-19.09 325.49,-20.41 328.61,-26.67"/>
</a>
</g>
</g>
<!-- Node5 -->
<g id="Node000005" class="node">
<title>Node5</title>
<g id="a_Node000005"><a xlink:href="ft__forpointer_8c.html#aded1bf735c8a10e47396170d27c5b6aa" target="_top" xlink:title="Recursively prints a memory address in hexadecimal format.">
<polygon fill="white" stroke="#666666" points="577,-203 467,-203 467,-184 577,-184 577,-203"/>
<text text-anchor="middle" x="522" y="-191" font-family="Helvetica,sans-Serif" font-size="10.00">ft_ricorsive_pointer</text>
</a>
</g>
</g>
<!-- Node4&#45;&gt;Node5 -->
<g id="edge4_Node000004_Node000005" class="edge">
<title>Node4&#45;&gt;Node5</title>
<g id="a_edge4_Node000004_Node000005"><a xlink:title=" ">
<path fill="none" stroke="#63b8ff" d="M414.83,-193.5C427.64,-193.5 442.33,-193.5 456.61,-193.5"/>
<polygon fill="#63b8ff" stroke="#63b8ff" points="456.9,-197 466.9,-193.5 456.9,-190 456.9,-197"/>
</a>
</g>
</g>
<!-- Node5&#45;&gt;Node5 -->
<g id="edge5_Node000005_Node000005" class="edge">
<title>Node5&#45;&gt;Node5</title>
<g id="a_edge5_Node000005_Node000005"><a xlink:title=" ">
<path fill="none" stroke="#63b8ff" d="M499.5,-203.08C488.55,-211.73 496.05,-221 522,-221 538.62,-221 547.68,-217.2 549.16,-212.19"/>
<polygon fill="#63b8ff" stroke="#63b8ff" points="552.17,-210.39 544.5,-203.08 545.94,-213.58 552.17,-210.39"/>
</a>
</g>
</g>
<!-- Node6&#45;&gt;Node6 -->
<g id="edge7_Node000006_Node000006" class="edge">
<title>Node6&#45;&gt;Node6</title>
<g id="a_edge7_Node000006_Node000006"><a xlink:title=" ">
<path fill="none" stroke="#63b8ff" d="M355.65,-148.08C345.76,-156.73 352.54,-166 376,-166 391.03,-166 399.21,-162.2 400.55,-157.19"/>
<polygon fill="#63b8ff" stroke="#63b8ff" points="403.72,-155.69 396.35,-148.08 397.36,-158.63 403.72,-155.69"/>
</a>
</g>
</g>
<!-- Node8&#45;&gt;Node8 -->
<g id="edge10_Node000008_Node000008" class="edge">
<title>Node8&#45;&gt;Node8</title>
<g id="a_edge10_Node000008_Node000008"><a xlink:title=" ">
<path fill="none" stroke="#63b8ff" d="M355.65,-93.08C345.76,-101.73 352.54,-111 376,-111 391.03,-111 399.21,-107.2 400.55,-102.19"/>
<polygon fill="#63b8ff" stroke="#63b8ff" points="403.72,-100.69 396.35,-93.08 397.36,-103.63 403.72,-100.69"/>
</a>
</g>
</g>
<!-- Node11 -->
<g id="Node000011" class="node">
<title>Node11</title>
<g id="a_Node000011"><a xlink:href="ft__putnbr_8c.html#a2e51f80c9e46e52f4adf94617fb51ada" target="_top" xlink:title="Writes an integer to the standard output (stdout).">
<polygon fill="white" stroke="#666666" points="552,-19 492,-19 492,0 552,0 552,-19"/>
<text text-anchor="middle" x="522" y="-7" font-family="Helvetica,sans-Serif" font-size="10.00">ft_putnbr</text>
</a>
</g>
</g>
<!-- Node10&#45;&gt;Node11 -->
<g id="edge13_Node000010_Node000011" class="edge">
<title>Node10&#45;&gt;Node11</title>
<g id="a_edge13_Node000010_Node000011"><a xlink:title=" ">
<path fill="none" stroke="#63b8ff" d="M431.03,-9.5C447.76,-9.5 465.87,-9.5 481.43,-9.5"/>
<polygon fill="#63b8ff" stroke="#63b8ff" points="481.74,-13 491.74,-9.5 481.74,-6 481.74,-13"/>
</a>
</g>
</g>
<!-- Node11&#45;&gt;Node11 -->
<g id="edge14_Node000011_Node000011" class="edge">
<title>Node11&#45;&gt;Node11</title>
<g id="a_edge14_Node000011_Node000011"><a xlink:title=" ">
<path fill="none" stroke="#63b8ff" d="M499.5,-19.08C488.55,-27.73 496.05,-37 522,-37 538.62,-37 547.68,-33.2 549.16,-28.19"/>
<polygon fill="#63b8ff" stroke="#63b8ff" points="552.17,-26.39 544.5,-19.08 545.94,-29.58 552.17,-26.39"/>
</a>
</g>
</g>
</g>
</svg>
