<?xml version="1.0" encoding="UTF-8" standalone="no"?>
<!DOCTYPE svg PUBLIC "-//W3C//DTD SVG 1.1//EN"
 "http://www.w3.org/Graphics/SVG/1.1/DTD/svg11.dtd">
<!-- Generated by graphviz version 2.43.0 (0)
 -->
<!-- Title: ft_error_exit Pages: 1 -->
<svg width="611pt" height="333pt"
 viewBox="0.00 0.00 611.00 333.00" xmlns="http://www.w3.org/2000/svg" xmlns:xlink="http://www.w3.org/1999/xlink">
<g id="graph0" class="graph" transform="scale(1 1) rotate(0) translate(4 329)">
<title>ft_error_exit</title>
<!-- Node1 -->
<g id="Node000001" class="node">
<title>Node1</title>
<g id="a_Node000001"><a xlink:title="Handles errors related to non&#45;numeric or null exit arguments.">
<polygon fill="#999999" stroke="#666666" points="76,-212 0,-212 0,-193 76,-193 76,-212"/>
<text text-anchor="middle" x="38" y="-200" font-family="Helvetica,sans-Serif" font-size="10.00">ft_error_exit</text>
</a>
</g>
</g>
<!-- Node2 -->
<g id="Node000002" class="node">
<title>Node2</title>
<g id="a_Node000002"><a xlink:href="free__functions_8c.html#af29ea604c324eb3b9934ef9d6a34aa1d" target="_top" xlink:title="Frees all allocated resources associated with the command list and environment.">
<polygon fill="white" stroke="#666666" points="178.5,-212 125.5,-212 125.5,-193 178.5,-193 178.5,-212"/>
<text text-anchor="middle" x="152" y="-200" font-family="Helvetica,sans-Serif" font-size="10.00">free_all</text>
</a>
</g>
</g>
<!-- Node1&#45;&gt;Node2 -->
<g id="edge1_Node000001_Node000002" class="edge">
<title>Node1&#45;&gt;Node2</title>
<g id="a_edge1_Node000001_Node000002"><a xlink:title=" ">
<path fill="none" stroke="#63b8ff" d="M76.29,-202.5C88.82,-202.5 102.76,-202.5 115.17,-202.5"/>
<polygon fill="#63b8ff" stroke="#63b8ff" points="115.18,-206 125.18,-202.5 115.18,-199 115.18,-206"/>
</a>
</g>
</g>
<!-- Node6 -->
<g id="Node000006" class="node">
<title>Node6</title>
<g id="a_Node000006"><a xlink:href="free__functions_8c.html#a451c65e7c59e947c1880d1f75d866e3a" target="_top" xlink:title="Frees all resources associated with a list of pipes and the environment.">
<polygon fill="white" stroke="#666666" points="192,-249 112,-249 112,-230 192,-230 192,-249"/>
<text text-anchor="middle" x="152" y="-237" font-family="Helvetica,sans-Serif" font-size="10.00">free_all_pipe</text>
</a>
</g>
</g>
<!-- Node1&#45;&gt;Node6 -->
<g id="edge6_Node000001_Node000006" class="edge">
<title>Node1&#45;&gt;Node6</title>
<g id="a_edge6_Node000001_Node000006"><a xlink:title=" ">
<path fill="none" stroke="#63b8ff" d="M67.84,-212.03C81.32,-216.48 97.58,-221.85 112.12,-226.66"/>
<polygon fill="#63b8ff" stroke="#63b8ff" points="111.27,-230.06 121.87,-229.88 113.47,-223.42 111.27,-230.06"/>
</a>
</g>
</g>
<!-- Node8 -->
<g id="Node000008" class="node">
<title>Node8</title>
<g id="a_Node000008"><a xlink:href="ft__printf_8c.html#a091532b7f37af84bdecc84dccf4eedb1" target="_top" xlink:title="A simplified printf function that outputs formatted data to a given file descriptor.">
<polygon fill="white" stroke="#666666" points="179.5,-120 124.5,-120 124.5,-101 179.5,-101 179.5,-120"/>
<text text-anchor="middle" x="152" y="-108" font-family="Helvetica,sans-Serif" font-size="10.00">ft_printf</text>
</a>
</g>
</g>
<!-- Node1&#45;&gt;Node8 -->
<g id="edge11_Node000001_Node000008" class="edge">
<title>Node1&#45;&gt;Node8</title>
<g id="a_edge11_Node000001_Node000008"><a xlink:title=" ">
<path fill="none" stroke="#63b8ff" d="M50.99,-192.65C70.19,-176.88 108.03,-145.8 131.26,-126.71"/>
<polygon fill="#63b8ff" stroke="#63b8ff" points="133.59,-129.33 139.1,-120.27 129.15,-123.92 133.59,-129.33"/>
</a>
</g>
</g>
<!-- Node3 -->
<g id="Node000003" class="node">
<title>Node3</title>
<g id="a_Node000003"><a xlink:href="free__functions_8c.html#a32c72055f1119062342fcdf42527c05c" target="_top" xlink:title="Frees a list of commands.">
<polygon fill="white" stroke="#666666" points="300.5,-212 238.5,-212 238.5,-193 300.5,-193 300.5,-212"/>
<text text-anchor="middle" x="269.5" y="-200" font-family="Helvetica,sans-Serif" font-size="10.00">free_cmd</text>
</a>
</g>
</g>
<!-- Node2&#45;&gt;Node3 -->
<g id="edge2_Node000002_Node000003" class="edge">
<title>Node2&#45;&gt;Node3</title>
<g id="a_edge2_Node000002_Node000003"><a xlink:title=" ">
<path fill="none" stroke="#63b8ff" d="M178.63,-202.5C193.13,-202.5 211.6,-202.5 228.01,-202.5"/>
<polygon fill="#63b8ff" stroke="#63b8ff" points="228.44,-206 238.44,-202.5 228.44,-199 228.44,-206"/>
</a>
</g>
</g>
<!-- Node4 -->
<g id="Node000004" class="node">
<title>Node4</title>
<g id="a_Node000004"><a xlink:href="ft__free__matrix_8c.html#a1ea6d1f3b50d1c23d4f0faddd1a13448" target="_top" xlink:title="Frees a NULL&#45;terminated matrix of strings.">
<polygon fill="white" stroke="#666666" points="445,-277 359,-277 359,-258 445,-258 445,-277"/>
<text text-anchor="middle" x="402" y="-265" font-family="Helvetica,sans-Serif" font-size="10.00">ft_free_matrix</text>
</a>
</g>
</g>
<!-- Node2&#45;&gt;Node4 -->
<g id="edge5_Node000002_Node000004" class="edge">
<title>Node2&#45;&gt;Node4</title>
<g id="a_edge5_Node000002_Node000004"><a xlink:title=" ">
<path fill="none" stroke="#63b8ff" d="M173.08,-192.91C204.76,-179.29 267.23,-158.71 311,-184.5 339.45,-201.27 321.6,-228.39 347,-249.5 348.54,-250.78 350.17,-251.97 351.88,-253.07"/>
<polygon fill="#63b8ff" stroke="#63b8ff" points="350.4,-256.25 360.86,-257.94 353.73,-250.1 350.4,-256.25"/>
</a>
</g>
</g>
<!-- Node5 -->
<g id="Node000005" class="node">
<title>Node5</title>
<g id="a_Node000005"><a xlink:href="free__functions_8c.html#a4f32f08947270b8aec54f43ddd8b02d4" target="_top" xlink:title="Frees a list of tokens.">
<polygon fill="white" stroke="#666666" points="303.5,-249 235.5,-249 235.5,-230 303.5,-230 303.5,-249"/>
<text text-anchor="middle" x="269.5" y="-237" font-family="Helvetica,sans-Serif" font-size="10.00">free_token</text>
</a>
</g>
</g>
<!-- Node2&#45;&gt;Node5 -->
<g id="edge4_Node000002_Node000005" class="edge">
<title>Node2&#45;&gt;Node5</title>
<g id="a_edge4_Node000002_Node000005"><a xlink:title=" ">
<path fill="none" stroke="#63b8ff" d="M178.63,-210.71C193.27,-215.4 211.95,-221.38 228.48,-226.68"/>
<polygon fill="#63b8ff" stroke="#63b8ff" points="227.85,-230.15 238.44,-229.87 229.99,-223.49 227.85,-230.15"/>
</a>
</g>
</g>
<!-- Node3&#45;&gt;Node4 -->
<g id="edge3_Node000003_Node000004" class="edge">
<title>Node3&#45;&gt;Node4</title>
<g id="a_edge3_Node000003_Node000004"><a xlink:title=" ">
<path fill="none" stroke="#63b8ff" d="M293.25,-212.09C299.17,-214.87 305.44,-218.09 311,-221.5 328.28,-232.09 329.13,-239.94 347,-249.5 350.24,-251.23 353.68,-252.84 357.19,-254.33"/>
<polygon fill="#63b8ff" stroke="#63b8ff" points="355.97,-257.61 366.56,-257.97 358.51,-251.09 355.97,-257.61"/>
</a>
</g>
</g>
<!-- Node6&#45;&gt;Node3 -->
<g id="edge7_Node000006_Node000003" class="edge">
<title>Node6&#45;&gt;Node3</title>
<g id="a_edge7_Node000006_Node000003"><a xlink:title=" ">
<path fill="none" stroke="#63b8ff" d="M182.74,-229.97C196.78,-225.48 213.73,-220.05 228.84,-215.2"/>
<polygon fill="#63b8ff" stroke="#63b8ff" points="230,-218.51 238.46,-212.12 227.86,-211.84 230,-218.51"/>
</a>
</g>
</g>
<!-- Node6&#45;&gt;Node4 -->
<g id="edge10_Node000006_Node000004" class="edge">
<title>Node6&#45;&gt;Node4</title>
<g id="a_edge10_Node000006_Node000004"><a xlink:title=" ">
<path fill="none" stroke="#63b8ff" d="M184.84,-249.03C198.07,-252.61 213.66,-256.33 228,-258.5 268.15,-264.57 314.08,-266.74 348.52,-267.44"/>
<polygon fill="#63b8ff" stroke="#63b8ff" points="348.76,-270.94 358.82,-267.61 348.88,-263.94 348.76,-270.94"/>
</a>
</g>
</g>
<!-- Node6&#45;&gt;Node5 -->
<g id="edge9_Node000006_Node000005" class="edge">
<title>Node6&#45;&gt;Node5</title>
<g id="a_edge9_Node000006_Node000005"><a xlink:title=" ">
<path fill="none" stroke="#63b8ff" d="M192.1,-239.5C202.72,-239.5 214.27,-239.5 225.11,-239.5"/>
<polygon fill="#63b8ff" stroke="#63b8ff" points="225.22,-243 235.22,-239.5 225.22,-236 225.22,-243"/>
</a>
</g>
</g>
<!-- Node7 -->
<g id="Node000007" class="node">
<title>Node7</title>
<g id="a_Node000007"><a xlink:href="free__functions_8c.html#a87de2a27d0e0e99f3de0b477731181e0" target="_top" xlink:title="Frees a list of pipes.">
<polygon fill="white" stroke="#666666" points="300.5,-325 238.5,-325 238.5,-306 300.5,-306 300.5,-325"/>
<text text-anchor="middle" x="269.5" y="-313" font-family="Helvetica,sans-Serif" font-size="10.00">free_pipe</text>
</a>
</g>
</g>
<!-- Node6&#45;&gt;Node7 -->
<g id="edge8_Node000006_Node000007" class="edge">
<title>Node6&#45;&gt;Node7</title>
<g id="a_edge8_Node000006_Node000007"><a xlink:title=" ">
<path fill="none" stroke="#63b8ff" d="M166.35,-249.19C181.2,-259.86 206,-277.38 228,-291.5 232.81,-294.59 238.02,-297.78 243.05,-300.8"/>
<polygon fill="#63b8ff" stroke="#63b8ff" points="241.4,-303.88 251.79,-305.95 244.96,-297.85 241.4,-303.88"/>
</a>
</g>
</g>
<!-- Node9 -->
<g id="Node000009" class="node">
<title>Node9</title>
<g id="a_Node000009"><a xlink:href="ft__printf_8c.html#a80c1c206dcd33d07c265581878aaa300" target="_top" xlink:title="Processes a single format specifier and prints the corresponding argument.">
<polygon fill="white" stroke="#666666" points="311,-120 228,-120 228,-101 311,-101 311,-120"/>
<text text-anchor="middle" x="269.5" y="-108" font-family="Helvetica,sans-Serif" font-size="10.00">check_format</text>
</a>
</g>
</g>
<!-- Node8&#45;&gt;Node9 -->
<g id="edge12_Node000008_Node000009" class="edge">
<title>Node8&#45;&gt;Node9</title>
<g id="a_edge12_Node000008_Node000009"><a xlink:title=" ">
<path fill="none" stroke="#63b8ff" d="M179.79,-110.5C191.04,-110.5 204.52,-110.5 217.53,-110.5"/>
<polygon fill="#63b8ff" stroke="#63b8ff" points="217.82,-114 227.82,-110.5 217.82,-107 217.82,-114"/>
</a>
</g>
</g>
<!-- Node13 -->
<g id="Node000013" class="node">
<title>Node13</title>
<g id="a_Node000013"><a xlink:href="ft__putchar__fd_8c.html#a03ef80b25dc4a521379fa92ad97bad21" target="_top" xlink:title="Writes a single character to the specified file descriptor.">
<polygon fill="white" stroke="#666666" points="442,-19 362,-19 362,0 442,0 442,-19"/>
<text text-anchor="middle" x="402" y="-7" font-family="Helvetica,sans-Serif" font-size="10.00">ft_putchar_fd</text>
</a>
</g>
</g>
<!-- Node8&#45;&gt;Node13 -->
<g id="edge25_Node000008_Node000013" class="edge">
<title>Node8&#45;&gt;Node13</title>
<g id="a_edge25_Node000008_Node000013"><a xlink:title=" ">
<path fill="none" stroke="#63b8ff" d="M174.35,-100.96C209.9,-85.21 283.57,-53.04 347,-28.5 352.21,-26.48 357.74,-24.44 363.2,-22.47"/>
<polygon fill="#63b8ff" stroke="#63b8ff" points="364.6,-25.68 372.85,-19.04 362.26,-19.09 364.6,-25.68"/>
</a>
</g>
</g>
<!-- Node10 -->
<g id="Node000010" class="node">
<title>Node10</title>
<g id="a_Node000010"><a xlink:href="ft__forpointer_8c.html#a8e02c77b80406af72327ebf71f537786" target="_top" xlink:title="Prints a pointer in hexadecimal format prefixed with &quot;0x&quot;.">
<polygon fill="white" stroke="#666666" points="440.5,-240 363.5,-240 363.5,-221 440.5,-221 440.5,-240"/>
<text text-anchor="middle" x="402" y="-228" font-family="Helvetica,sans-Serif" font-size="10.00">ft_forpointer</text>
</a>
</g>
</g>
<!-- Node9&#45;&gt;Node10 -->
<g id="edge13_Node000009_Node000010" class="edge">
<title>Node9&#45;&gt;Node10</title>
<g id="a_edge13_Node000009_Node000010"><a xlink:title=" ">
<path fill="none" stroke="#63b8ff" d="M281.97,-120.31C290.56,-128 302.29,-139.25 311,-150.5 330.51,-175.69 322.29,-192.38 347,-212.5 349.26,-214.34 351.72,-216 354.3,-217.49"/>
<polygon fill="#63b8ff" stroke="#63b8ff" points="352.91,-220.7 363.43,-221.94 355.98,-214.41 352.91,-220.7"/>
</a>
</g>
</g>
<!-- Node12 -->
<g id="Node000012" class="node">
<title>Node12</title>
<g id="a_Node000012"><a xlink:href="ft__hexadecimal_8c.html#a39c845e0a4286d3ac1e04c1e64ac734b" target="_top" xlink:title="Prints an unsigned integer in hexadecimal format.">
<polygon fill="white" stroke="#666666" points="448,-185 356,-185 356,-166 448,-166 448,-185"/>
<text text-anchor="middle" x="402" y="-173" font-family="Helvetica,sans-Serif" font-size="10.00">ft_hexadecimal</text>
</a>
</g>
</g>
<!-- Node9&#45;&gt;Node12 -->
<g id="edge16_Node000009_Node000012" class="edge">
<title>Node9&#45;&gt;Node12</title>
<g id="a_edge16_Node000009_Node000012"><a xlink:title=" ">
<path fill="none" stroke="#63b8ff" d="M284.06,-120.16C298.95,-130.45 323.83,-146.7 347,-157.5 350.78,-159.26 354.78,-160.93 358.82,-162.49"/>
<polygon fill="#63b8ff" stroke="#63b8ff" points="357.67,-165.8 368.26,-165.93 360.06,-159.22 357.67,-165.8"/>
</a>
</g>
</g>
<!-- Node9&#45;&gt;Node13 -->
<g id="edge18_Node000009_Node000013" class="edge">
<title>Node9&#45;&gt;Node13</title>
<g id="a_edge18_Node000009_Node000013"><a xlink:title=" ">
<path fill="none" stroke="#63b8ff" d="M276.96,-101C288.9,-84.11 316.04,-48.75 347,-28.5 349.96,-26.56 353.14,-24.8 356.42,-23.2"/>
<polygon fill="#63b8ff" stroke="#63b8ff" points="358.07,-26.3 365.84,-19.09 355.28,-19.88 358.07,-26.3"/>
</a>
</g>
</g>
<!-- Node14 -->
<g id="Node000014" class="node">
<title>Node14</title>
<g id="a_Node000014"><a xlink:href="ft__putnbr__fd_8c.html#a1554101ee350c316340c78e19faddaa8" target="_top" xlink:title="Writes an integer to a given file descriptor.">
<polygon fill="white" stroke="#666666" points="439.5,-130 364.5,-130 364.5,-111 439.5,-111 439.5,-130"/>
<text text-anchor="middle" x="402" y="-118" font-family="Helvetica,sans-Serif" font-size="10.00">ft_putnbr_fd</text>
</a>
</g>
</g>
<!-- Node9&#45;&gt;Node14 -->
<g id="edge19_Node000009_Node000014" class="edge">
<title>Node9&#45;&gt;Node14</title>
<g id="a_edge19_Node000009_Node000014"><a xlink:title=" ">
<path fill="none" stroke="#63b8ff" d="M311.08,-113.61C324.8,-114.66 340.24,-115.84 354.4,-116.93"/>
<polygon fill="#63b8ff" stroke="#63b8ff" points="354.2,-120.42 364.44,-117.7 354.73,-113.44 354.2,-120.42"/>
</a>
</g>
</g>
<!-- Node15 -->
<g id="Node000015" class="node">
<title>Node15</title>
<g id="a_Node000015"><a xlink:href="ft__putstr__fd_8c.html#a00b0638f31a75c7a30f77f33888bfb73" target="_top" xlink:title="Writes a null&#45;terminated string to the specified file descriptor.">
<polygon fill="white" stroke="#666666" points="438,-93 366,-93 366,-74 438,-74 438,-93"/>
<text text-anchor="middle" x="402" y="-81" font-family="Helvetica,sans-Serif" font-size="10.00">ft_putstr_fd</text>
</a>
</g>
</g>
<!-- Node9&#45;&gt;Node15 -->
<g id="edge21_Node000009_Node000015" class="edge">
<title>Node9&#45;&gt;Node15</title>
<g id="a_edge21_Node000009_Node000015"><a xlink:title=" ">
<path fill="none" stroke="#63b8ff" d="M311.08,-102.11C325.3,-99.16 341.36,-95.84 355.93,-92.82"/>
<polygon fill="#63b8ff" stroke="#63b8ff" points="356.66,-96.25 365.74,-90.79 355.24,-89.39 356.66,-96.25"/>
</a>
</g>
</g>
<!-- Node16 -->
<g id="Node000016" class="node">
<title>Node16</title>
<g id="a_Node000016"><a xlink:href="ft__unsigned__putnbr_8c.html#af9a70f8607b40cf2a7706f9d3725b549" target="_top" xlink:title="Writes an unsigned integer to the given file descriptor.">
<polygon fill="white" stroke="#666666" points="457,-56 347,-56 347,-37 457,-37 457,-56"/>
<text text-anchor="middle" x="402" y="-44" font-family="Helvetica,sans-Serif" font-size="10.00">ft_unsigned_putnbr</text>
</a>
</g>
</g>
<!-- Node9&#45;&gt;Node16 -->
<g id="edge22_Node000009_Node000016" class="edge">
<title>Node9&#45;&gt;Node16</title>
<g id="a_edge22_Node000009_Node000016"><a xlink:title=" ">
<path fill="none" stroke="#63b8ff" d="M284.99,-100.83C300.05,-91.06 324.5,-75.95 347,-65.5 351.44,-63.44 356.17,-61.46 360.92,-59.62"/>
<polygon fill="#63b8ff" stroke="#63b8ff" points="362.43,-62.79 370.6,-56.04 360,-56.23 362.43,-62.79"/>
</a>
</g>
</g>
<!-- Node11 -->
<g id="Node000011" class="node">
<title>Node11</title>
<g id="a_Node000011"><a xlink:href="ft__forpointer_8c.html#aded1bf735c8a10e47396170d27c5b6aa" target="_top" xlink:title="Recursively prints a memory address in hexadecimal format.">
<polygon fill="white" stroke="#666666" points="603,-240 493,-240 493,-221 603,-221 603,-240"/>
<text text-anchor="middle" x="548" y="-228" font-family="Helvetica,sans-Serif" font-size="10.00">ft_ricorsive_pointer</text>
</a>
</g>
</g>
<!-- Node10&#45;&gt;Node11 -->
<g id="edge14_Node000010_Node000011" class="edge">
<title>Node10&#45;&gt;Node11</title>
<g id="a_edge14_Node000010_Node000011"><a xlink:title=" ">
<path fill="none" stroke="#63b8ff" d="M440.83,-230.5C453.64,-230.5 468.33,-230.5 482.61,-230.5"/>
<polygon fill="#63b8ff" stroke="#63b8ff" points="482.9,-234 492.9,-230.5 482.9,-227 482.9,-234"/>
</a>
</g>
</g>
<!-- Node11&#45;&gt;Node11 -->
<g id="edge15_Node000011_Node000011" class="edge">
<title>Node11&#45;&gt;Node11</title>
<g id="a_edge15_Node000011_Node000011"><a xlink:title=" ">
<path fill="none" stroke="#63b8ff" d="M525.5,-240.08C514.55,-248.73 522.05,-258 548,-258 564.62,-258 573.68,-254.2 575.16,-249.19"/>
<polygon fill="#63b8ff" stroke="#63b8ff" points="578.17,-247.39 570.5,-240.08 571.94,-250.58 578.17,-247.39"/>
</a>
</g>
</g>
<!-- Node12&#45;&gt;Node12 -->
<g id="edge17_Node000012_Node000012" class="edge">
<title>Node12&#45;&gt;Node12</title>
<g id="a_edge17_Node000012_Node000012"><a xlink:title=" ">
<path fill="none" stroke="#63b8ff" d="M381.65,-185.08C371.76,-193.73 378.54,-203 402,-203 417.03,-203 425.21,-199.2 426.55,-194.19"/>
<polygon fill="#63b8ff" stroke="#63b8ff" points="429.72,-192.69 422.35,-185.08 423.36,-195.63 429.72,-192.69"/>
</a>
</g>
</g>
<!-- Node14&#45;&gt;Node14 -->
<g id="edge20_Node000014_Node000014" class="edge">
<title>Node14&#45;&gt;Node14</title>
<g id="a_edge20_Node000014_Node000014"><a xlink:title=" ">
<path fill="none" stroke="#63b8ff" d="M381.65,-130.08C371.76,-138.73 378.54,-148 402,-148 417.03,-148 425.21,-144.2 426.55,-139.19"/>
<polygon fill="#63b8ff" stroke="#63b8ff" points="429.72,-137.69 422.35,-130.08 423.36,-140.63 429.72,-137.69"/>
</a>
</g>
</g>
<!-- Node17 -->
<g id="Node000017" class="node">
<title>Node17</title>
<g id="a_Node000017"><a xlink:href="ft__putnbr_8c.html#a2e51f80c9e46e52f4adf94617fb51ada" target="_top" xlink:title="Writes an integer to the standard output (stdout).">
<polygon fill="white" stroke="#666666" points="578,-56 518,-56 518,-37 578,-37 578,-56"/>
<text text-anchor="middle" x="548" y="-44" font-family="Helvetica,sans-Serif" font-size="10.00">ft_putnbr</text>
</a>
</g>
</g>
<!-- Node16&#45;&gt;Node17 -->
<g id="edge23_Node000016_Node000017" class="edge">
<title>Node16&#45;&gt;Node17</title>
<g id="a_edge23_Node000016_Node000017"><a xlink:title=" ">
<path fill="none" stroke="#63b8ff" d="M457.03,-46.5C473.76,-46.5 491.87,-46.5 507.43,-46.5"/>
<polygon fill="#63b8ff" stroke="#63b8ff" points="507.74,-50 517.74,-46.5 507.74,-43 507.74,-50"/>
</a>
</g>
</g>
<!-- Node17&#45;&gt;Node17 -->
<g id="edge24_Node000017_Node000017" class="edge">
<title>Node17&#45;&gt;Node17</title>
<g id="a_edge24_Node000017_Node000017"><a xlink:title=" ">
<path fill="none" stroke="#63b8ff" d="M525.5,-56.08C514.55,-64.73 522.05,-74 548,-74 564.62,-74 573.68,-70.2 575.16,-65.19"/>
<polygon fill="#63b8ff" stroke="#63b8ff" points="578.17,-63.39 570.5,-56.08 571.94,-66.58 578.17,-63.39"/>
</a>
</g>
</g>
</g>
</svg>
