<?xml version="1.0" encoding="UTF-8" standalone="no"?>
<!DOCTYPE svg PUBLIC "-//W3C//DTD SVG 1.1//EN"
 "http://www.w3.org/Graphics/SVG/1.1/DTD/svg11.dtd">
<!-- Generated by graphviz version 2.43.0 (0)
 -->
<!-- Title: ft_exit_too_args Pages: 1 -->
<svg width="630pt" height="372pt"
 viewBox="0.00 0.00 630.00 372.00" xmlns="http://www.w3.org/2000/svg" xmlns:xlink="http://www.w3.org/1999/xlink">
<g id="graph0" class="graph" transform="scale(1 1) rotate(0) translate(4 368)">
<title>ft_exit_too_args</title>
<!-- Node1 -->
<g id="Node000001" class="node">
<title>Node1</title>
<g id="a_Node000001"><a xlink:title="Checks if there are too many arguments for the exit command.">
<polygon fill="#999999" stroke="#666666" points="95,-250 0,-250 0,-231 95,-231 95,-250"/>
<text text-anchor="middle" x="47.5" y="-238" font-family="Helvetica,sans-Serif" font-size="10.00">ft_exit_too_args</text>
</a>
</g>
</g>
<!-- Node2 -->
<g id="Node000002" class="node">
<title>Node2</title>
<g id="a_Node000002"><a xlink:href="free__functions_8c.html#a451c65e7c59e947c1880d1f75d866e3a" target="_top" xlink:title="Frees all resources associated with a list of pipes and the environment.">
<polygon fill="white" stroke="#666666" points="211,-288 131,-288 131,-269 211,-269 211,-288"/>
<text text-anchor="middle" x="171" y="-276" font-family="Helvetica,sans-Serif" font-size="10.00">free_all_pipe</text>
</a>
</g>
</g>
<!-- Node1&#45;&gt;Node2 -->
<g id="edge1_Node000001_Node000002" class="edge">
<title>Node1&#45;&gt;Node2</title>
<g id="a_edge1_Node000001_Node000002"><a xlink:title=" ">
<path fill="none" stroke="#63b8ff" d="M79.16,-250.09C94.41,-254.86 113.05,-260.69 129.47,-265.82"/>
<polygon fill="#63b8ff" stroke="#63b8ff" points="128.76,-269.27 139.35,-268.91 130.85,-262.59 128.76,-269.27"/>
</a>
</g>
</g>
<!-- Node7 -->
<g id="Node000007" class="node">
<title>Node7</title>
<g id="a_Node000007"><a xlink:href="ft__printf_8c.html#a091532b7f37af84bdecc84dccf4eedb1" target="_top" xlink:title="A simplified printf function that outputs formatted data to a given file descriptor.">
<polygon fill="white" stroke="#666666" points="198.5,-213 143.5,-213 143.5,-194 198.5,-194 198.5,-213"/>
<text text-anchor="middle" x="171" y="-201" font-family="Helvetica,sans-Serif" font-size="10.00">ft_printf</text>
</a>
</g>
</g>
<!-- Node1&#45;&gt;Node7 -->
<g id="edge7_Node000001_Node000007" class="edge">
<title>Node1&#45;&gt;Node7</title>
<g id="a_edge7_Node000001_Node000007"><a xlink:title=" ">
<path fill="none" stroke="#63b8ff" d="M79.79,-230.97C96.25,-225.96 116.51,-219.79 133.66,-214.57"/>
<polygon fill="#63b8ff" stroke="#63b8ff" points="134.8,-217.88 143.35,-211.62 132.76,-211.18 134.8,-217.88"/>
</a>
</g>
</g>
<!-- Node3 -->
<g id="Node000003" class="node">
<title>Node3</title>
<g id="a_Node000003"><a xlink:href="free__functions_8c.html#a32c72055f1119062342fcdf42527c05c" target="_top" xlink:title="Frees a list of commands.">
<polygon fill="white" stroke="#666666" points="319.5,-364 257.5,-364 257.5,-345 319.5,-345 319.5,-364"/>
<text text-anchor="middle" x="288.5" y="-352" font-family="Helvetica,sans-Serif" font-size="10.00">free_cmd</text>
</a>
</g>
</g>
<!-- Node2&#45;&gt;Node3 -->
<g id="edge2_Node000002_Node000003" class="edge">
<title>Node2&#45;&gt;Node3</title>
<g id="a_edge2_Node000002_Node000003"><a xlink:title=" ">
<path fill="none" stroke="#63b8ff" d="M185.35,-288.19C200.2,-298.86 225,-316.38 247,-330.5 251.81,-333.59 257.02,-336.78 262.05,-339.8"/>
<polygon fill="#63b8ff" stroke="#63b8ff" points="260.4,-342.88 270.79,-344.95 263.96,-336.85 260.4,-342.88"/>
</a>
</g>
</g>
<!-- Node4 -->
<g id="Node000004" class="node">
<title>Node4</title>
<g id="a_Node000004"><a xlink:href="ft__free__matrix_8c.html#a1ea6d1f3b50d1c23d4f0faddd1a13448" target="_top" xlink:title="Frees a NULL&#45;terminated matrix of strings.">
<polygon fill="white" stroke="#666666" points="464,-345 378,-345 378,-326 464,-326 464,-345"/>
<text text-anchor="middle" x="421" y="-333" font-family="Helvetica,sans-Serif" font-size="10.00">ft_free_matrix</text>
</a>
</g>
</g>
<!-- Node2&#45;&gt;Node4 -->
<g id="edge6_Node000002_Node000004" class="edge">
<title>Node2&#45;&gt;Node4</title>
<g id="a_edge6_Node000002_Node000004"><a xlink:title=" ">
<path fill="none" stroke="#63b8ff" d="M208.56,-288.01C220.77,-291.12 234.45,-294.53 247,-297.5 287.58,-307.1 333.72,-317.19 368.13,-324.56"/>
<polygon fill="#63b8ff" stroke="#63b8ff" points="367.45,-327.99 377.97,-326.66 368.92,-321.15 367.45,-327.99"/>
</a>
</g>
</g>
<!-- Node5 -->
<g id="Node000005" class="node">
<title>Node5</title>
<g id="a_Node000005"><a xlink:href="free__functions_8c.html#a87de2a27d0e0e99f3de0b477731181e0" target="_top" xlink:title="Frees a list of pipes.">
<polygon fill="white" stroke="#666666" points="319.5,-288 257.5,-288 257.5,-269 319.5,-269 319.5,-288"/>
<text text-anchor="middle" x="288.5" y="-276" font-family="Helvetica,sans-Serif" font-size="10.00">free_pipe</text>
</a>
</g>
</g>
<!-- Node2&#45;&gt;Node5 -->
<g id="edge4_Node000002_Node000005" class="edge">
<title>Node2&#45;&gt;Node5</title>
<g id="a_edge4_Node000002_Node000005"><a xlink:title=" ">
<path fill="none" stroke="#63b8ff" d="M211.1,-278.5C222.63,-278.5 235.26,-278.5 246.88,-278.5"/>
<polygon fill="#63b8ff" stroke="#63b8ff" points="247.2,-282 257.2,-278.5 247.2,-275 247.2,-282"/>
</a>
</g>
</g>
<!-- Node6 -->
<g id="Node000006" class="node">
<title>Node6</title>
<g id="a_Node000006"><a xlink:href="free__functions_8c.html#a4f32f08947270b8aec54f43ddd8b02d4" target="_top" xlink:title="Frees a list of tokens.">
<polygon fill="white" stroke="#666666" points="322.5,-251 254.5,-251 254.5,-232 322.5,-232 322.5,-251"/>
<text text-anchor="middle" x="288.5" y="-239" font-family="Helvetica,sans-Serif" font-size="10.00">free_token</text>
</a>
</g>
</g>
<!-- Node2&#45;&gt;Node6 -->
<g id="edge5_Node000002_Node000006" class="edge">
<title>Node2&#45;&gt;Node6</title>
<g id="a_edge5_Node000002_Node000006"><a xlink:title=" ">
<path fill="none" stroke="#63b8ff" d="M201.74,-268.97C215.78,-264.48 232.73,-259.05 247.84,-254.2"/>
<polygon fill="#63b8ff" stroke="#63b8ff" points="249,-257.51 257.46,-251.12 246.86,-250.84 249,-257.51"/>
</a>
</g>
</g>
<!-- Node3&#45;&gt;Node4 -->
<g id="edge3_Node000003_Node000004" class="edge">
<title>Node3&#45;&gt;Node4</title>
<g id="a_edge3_Node000003_Node000004"><a xlink:title=" ">
<path fill="none" stroke="#63b8ff" d="M319.77,-350.09C333.98,-348.02 351.35,-345.5 367.6,-343.13"/>
<polygon fill="#63b8ff" stroke="#63b8ff" points="368.15,-346.59 377.54,-341.68 367.14,-339.66 368.15,-346.59"/>
</a>
</g>
</g>
<!-- Node8 -->
<g id="Node000008" class="node">
<title>Node8</title>
<g id="a_Node000008"><a xlink:href="ft__printf_8c.html#a80c1c206dcd33d07c265581878aaa300" target="_top" xlink:title="Processes a single format specifier and prints the corresponding argument.">
<polygon fill="white" stroke="#666666" points="330,-148 247,-148 247,-129 330,-129 330,-148"/>
<text text-anchor="middle" x="288.5" y="-136" font-family="Helvetica,sans-Serif" font-size="10.00">check_format</text>
</a>
</g>
</g>
<!-- Node7&#45;&gt;Node8 -->
<g id="edge8_Node000007_Node000008" class="edge">
<title>Node7&#45;&gt;Node8</title>
<g id="a_edge8_Node000007_Node000008"><a xlink:title=" ">
<path fill="none" stroke="#63b8ff" d="M189.04,-193.91C208.15,-183.16 239.35,-165.59 261.51,-153.13"/>
<polygon fill="#63b8ff" stroke="#63b8ff" points="263.39,-156.08 270.39,-148.13 259.96,-149.98 263.39,-156.08"/>
</a>
</g>
</g>
<!-- Node12 -->
<g id="Node000012" class="node">
<title>Node12</title>
<g id="a_Node000012"><a xlink:href="ft__putchar__fd_8c.html#a03ef80b25dc4a521379fa92ad97bad21" target="_top" xlink:title="Writes a single character to the specified file descriptor.">
<polygon fill="white" stroke="#666666" points="461,-240 381,-240 381,-221 461,-221 461,-240"/>
<text text-anchor="middle" x="421" y="-228" font-family="Helvetica,sans-Serif" font-size="10.00">ft_putchar_fd</text>
</a>
</g>
</g>
<!-- Node7&#45;&gt;Node12 -->
<g id="edge21_Node000007_Node000012" class="edge">
<title>Node7&#45;&gt;Node12</title>
<g id="a_edge21_Node000007_Node000012"><a xlink:title=" ">
<path fill="none" stroke="#63b8ff" d="M198.54,-206.39C239.54,-210.85 318.95,-219.5 370.69,-225.13"/>
<polygon fill="#63b8ff" stroke="#63b8ff" points="370.33,-228.61 380.65,-226.22 371.09,-221.65 370.33,-228.61"/>
</a>
</g>
</g>
<!-- Node9 -->
<g id="Node000009" class="node">
<title>Node9</title>
<g id="a_Node000009"><a xlink:href="ft__forpointer_8c.html#a8e02c77b80406af72327ebf71f537786" target="_top" xlink:title="Prints a pointer in hexadecimal format prefixed with &quot;0x&quot;.">
<polygon fill="white" stroke="#666666" points="459.5,-203 382.5,-203 382.5,-184 459.5,-184 459.5,-203"/>
<text text-anchor="middle" x="421" y="-191" font-family="Helvetica,sans-Serif" font-size="10.00">ft_forpointer</text>
</a>
</g>
</g>
<!-- Node8&#45;&gt;Node9 -->
<g id="edge9_Node000008_Node000009" class="edge">
<title>Node8&#45;&gt;Node9</title>
<g id="a_edge9_Node000008_Node000009"><a xlink:title=" ">
<path fill="none" stroke="#63b8ff" d="M307.75,-148.15C323.06,-156.05 345.64,-167.22 366,-175.5 370.4,-177.29 375.06,-179.04 379.71,-180.71"/>
<polygon fill="#63b8ff" stroke="#63b8ff" points="378.6,-184.03 389.19,-183.99 380.89,-177.41 378.6,-184.03"/>
</a>
</g>
</g>
<!-- Node11 -->
<g id="Node000011" class="node">
<title>Node11</title>
<g id="a_Node000011"><a xlink:href="ft__hexadecimal_8c.html#a39c845e0a4286d3ac1e04c1e64ac734b" target="_top" xlink:title="Prints an unsigned integer in hexadecimal format.">
<polygon fill="white" stroke="#666666" points="467,-148 375,-148 375,-129 467,-129 467,-148"/>
<text text-anchor="middle" x="421" y="-136" font-family="Helvetica,sans-Serif" font-size="10.00">ft_hexadecimal</text>
</a>
</g>
</g>
<!-- Node8&#45;&gt;Node11 -->
<g id="edge12_Node000008_Node000011" class="edge">
<title>Node8&#45;&gt;Node11</title>
<g id="a_edge12_Node000008_Node000011"><a xlink:title=" ">
<path fill="none" stroke="#63b8ff" d="M330.08,-138.5C341.07,-138.5 353.16,-138.5 364.82,-138.5"/>
<polygon fill="#63b8ff" stroke="#63b8ff" points="364.9,-142 374.9,-138.5 364.9,-135 364.9,-142"/>
</a>
</g>
</g>
<!-- Node8&#45;&gt;Node12 -->
<g id="edge14_Node000008_Node000012" class="edge">
<title>Node8&#45;&gt;Node12</title>
<g id="a_edge14_Node000008_Node000012"><a xlink:title=" ">
<path fill="none" stroke="#63b8ff" d="M296.94,-148.07C309.55,-163.69 336.61,-194.67 366,-212.5 368.66,-214.11 371.48,-215.6 374.39,-216.97"/>
<polygon fill="#63b8ff" stroke="#63b8ff" points="373.27,-220.3 383.85,-220.96 375.99,-213.85 373.27,-220.3"/>
</a>
</g>
</g>
<!-- Node13 -->
<g id="Node000013" class="node">
<title>Node13</title>
<g id="a_Node000013"><a xlink:href="ft__putnbr__fd_8c.html#a1554101ee350c316340c78e19faddaa8" target="_top" xlink:title="Writes an integer to a given file descriptor.">
<polygon fill="white" stroke="#666666" points="458.5,-93 383.5,-93 383.5,-74 458.5,-74 458.5,-93"/>
<text text-anchor="middle" x="421" y="-81" font-family="Helvetica,sans-Serif" font-size="10.00">ft_putnbr_fd</text>
</a>
</g>
</g>
<!-- Node8&#45;&gt;Node13 -->
<g id="edge15_Node000008_Node000013" class="edge">
<title>Node8&#45;&gt;Node13</title>
<g id="a_edge15_Node000008_Node000013"><a xlink:title=" ">
<path fill="none" stroke="#63b8ff" d="M312.23,-128.92C333.06,-120.14 364.13,-107.05 387.57,-97.17"/>
<polygon fill="#63b8ff" stroke="#63b8ff" points="389.24,-100.26 397.09,-93.16 386.52,-93.81 389.24,-100.26"/>
</a>
</g>
</g>
<!-- Node14 -->
<g id="Node000014" class="node">
<title>Node14</title>
<g id="a_Node000014"><a xlink:href="ft__putstr__fd_8c.html#a00b0638f31a75c7a30f77f33888bfb73" target="_top" xlink:title="Writes a null&#45;terminated string to the specified file descriptor.">
<polygon fill="white" stroke="#666666" points="457,-56 385,-56 385,-37 457,-37 457,-56"/>
<text text-anchor="middle" x="421" y="-44" font-family="Helvetica,sans-Serif" font-size="10.00">ft_putstr_fd</text>
</a>
</g>
</g>
<!-- Node8&#45;&gt;Node14 -->
<g id="edge17_Node000008_Node000014" class="edge">
<title>Node8&#45;&gt;Node14</title>
<g id="a_edge17_Node000008_Node000014"><a xlink:title=" ">
<path fill="none" stroke="#63b8ff" d="M297.42,-128.62C310.28,-113.15 337.21,-83.16 366,-65.5 369.34,-63.45 372.92,-61.59 376.61,-59.89"/>
<polygon fill="#63b8ff" stroke="#63b8ff" points="377.98,-63.11 385.87,-56.04 375.29,-56.65 377.98,-63.11"/>
</a>
</g>
</g>
<!-- Node15 -->
<g id="Node000015" class="node">
<title>Node15</title>
<g id="a_Node000015"><a xlink:href="ft__unsigned__putnbr_8c.html#af9a70f8607b40cf2a7706f9d3725b549" target="_top" xlink:title="Writes an unsigned integer to the given file descriptor.">
<polygon fill="white" stroke="#666666" points="476,-19 366,-19 366,0 476,0 476,-19"/>
<text text-anchor="middle" x="421" y="-7" font-family="Helvetica,sans-Serif" font-size="10.00">ft_unsigned_putnbr</text>
</a>
</g>
</g>
<!-- Node8&#45;&gt;Node15 -->
<g id="edge18_Node000008_Node000015" class="edge">
<title>Node8&#45;&gt;Node15</title>
<g id="a_edge18_Node000008_Node000015"><a xlink:title=" ">
<path fill="none" stroke="#63b8ff" d="M293.51,-128.93C302.94,-107.55 328.58,-55.62 366,-27.5 367.83,-26.13 369.77,-24.85 371.79,-23.67"/>
<polygon fill="#63b8ff" stroke="#63b8ff" points="373.61,-26.67 381,-19.09 370.49,-20.41 373.61,-26.67"/>
</a>
</g>
</g>
<!-- Node10 -->
<g id="Node000010" class="node">
<title>Node10</title>
<g id="a_Node000010"><a xlink:href="ft__forpointer_8c.html#aded1bf735c8a10e47396170d27c5b6aa" target="_top" xlink:title="Recursively prints a memory address in hexadecimal format.">
<polygon fill="white" stroke="#666666" points="622,-203 512,-203 512,-184 622,-184 622,-203"/>
<text text-anchor="middle" x="567" y="-191" font-family="Helvetica,sans-Serif" font-size="10.00">ft_ricorsive_pointer</text>
</a>
</g>
</g>
<!-- Node9&#45;&gt;Node10 -->
<g id="edge10_Node000009_Node000010" class="edge">
<title>Node9&#45;&gt;Node10</title>
<g id="a_edge10_Node000009_Node000010"><a xlink:title=" ">
<path fill="none" stroke="#63b8ff" d="M459.83,-193.5C472.64,-193.5 487.33,-193.5 501.61,-193.5"/>
<polygon fill="#63b8ff" stroke="#63b8ff" points="501.9,-197 511.9,-193.5 501.9,-190 501.9,-197"/>
</a>
</g>
</g>
<!-- Node10&#45;&gt;Node10 -->
<g id="edge11_Node000010_Node000010" class="edge">
<title>Node10&#45;&gt;Node10</title>
<g id="a_edge11_Node000010_Node000010"><a xlink:title=" ">
<path fill="none" stroke="#63b8ff" d="M544.5,-203.08C533.55,-211.73 541.05,-221 567,-221 583.62,-221 592.68,-217.2 594.16,-212.19"/>
<polygon fill="#63b8ff" stroke="#63b8ff" points="597.17,-210.39 589.5,-203.08 590.94,-213.58 597.17,-210.39"/>
</a>
</g>
</g>
<!-- Node11&#45;&gt;Node11 -->
<g id="edge13_Node000011_Node000011" class="edge">
<title>Node11&#45;&gt;Node11</title>
<g id="a_edge13_Node000011_Node000011"><a xlink:title=" ">
<path fill="none" stroke="#63b8ff" d="M400.65,-148.08C390.76,-156.73 397.54,-166 421,-166 436.03,-166 444.21,-162.2 445.55,-157.19"/>
<polygon fill="#63b8ff" stroke="#63b8ff" points="448.72,-155.69 441.35,-148.08 442.36,-158.63 448.72,-155.69"/>
</a>
</g>
</g>
<!-- Node13&#45;&gt;Node13 -->
<g id="edge16_Node000013_Node000013" class="edge">
<title>Node13&#45;&gt;Node13</title>
<g id="a_edge16_Node000013_Node000013"><a xlink:title=" ">
<path fill="none" stroke="#63b8ff" d="M400.65,-93.08C390.76,-101.73 397.54,-111 421,-111 436.03,-111 444.21,-107.2 445.55,-102.19"/>
<polygon fill="#63b8ff" stroke="#63b8ff" points="448.72,-100.69 441.35,-93.08 442.36,-103.63 448.72,-100.69"/>
</a>
</g>
</g>
<!-- Node16 -->
<g id="Node000016" class="node">
<title>Node16</title>
<g id="a_Node000016"><a xlink:href="ft__putnbr_8c.html#a2e51f80c9e46e52f4adf94617fb51ada" target="_top" xlink:title="Writes an integer to the standard output (stdout).">
<polygon fill="white" stroke="#666666" points="597,-19 537,-19 537,0 597,0 597,-19"/>
<text text-anchor="middle" x="567" y="-7" font-family="Helvetica,sans-Serif" font-size="10.00">ft_putnbr</text>
</a>
</g>
</g>
<!-- Node15&#45;&gt;Node16 -->
<g id="edge19_Node000015_Node000016" class="edge">
<title>Node15&#45;&gt;Node16</title>
<g id="a_edge19_Node000015_Node000016"><a xlink:title=" ">
<path fill="none" stroke="#63b8ff" d="M476.03,-9.5C492.76,-9.5 510.87,-9.5 526.43,-9.5"/>
<polygon fill="#63b8ff" stroke="#63b8ff" points="526.74,-13 536.74,-9.5 526.74,-6 526.74,-13"/>
</a>
</g>
</g>
<!-- Node16&#45;&gt;Node16 -->
<g id="edge20_Node000016_Node000016" class="edge">
<title>Node16&#45;&gt;Node16</title>
<g id="a_edge20_Node000016_Node000016"><a xlink:title=" ">
<path fill="none" stroke="#63b8ff" d="M544.5,-19.08C533.55,-27.73 541.05,-37 567,-37 583.62,-37 592.68,-33.2 594.16,-28.19"/>
<polygon fill="#63b8ff" stroke="#63b8ff" points="597.17,-26.39 589.5,-19.08 590.94,-29.58 597.17,-26.39"/>
</a>
</g>
</g>
</g>
</svg>
