<?xml version="1.0" encoding="UTF-8" standalone="no"?>
<!DOCTYPE svg PUBLIC "-//W3C//DTD SVG 1.1//EN"
 "http://www.w3.org/Graphics/SVG/1.1/DTD/svg11.dtd">
<!-- Generated by graphviz version 2.43.0 (0)
 -->
<!-- Title: ft_exit_no_args_or_0 Pages: 1 -->
<svg width="634pt" height="335pt"
 viewBox="0.00 0.00 634.00 335.00" xmlns="http://www.w3.org/2000/svg" xmlns:xlink="http://www.w3.org/1999/xlink">
<g id="graph0" class="graph" transform="scale(1 1) rotate(0) translate(4 331)">
<title>ft_exit_no_args_or_0</title>
<!-- Node1 -->
<g id="Node000001" class="node">
<title>Node1</title>
<g id="a_Node000001"><a xlink:title="Handles the case when exit is called without arguments or with &quot;0&quot;.">
<polygon fill="#999999" stroke="#666666" points="117,-213 0,-213 0,-194 117,-194 117,-213"/>
<text text-anchor="middle" x="58.5" y="-201" font-family="Helvetica,sans-Serif" font-size="10.00">ft_exit_no_args_or_0</text>
</a>
</g>
</g>
<!-- Node2 -->
<g id="Node000002" class="node">
<title>Node2</title>
<g id="a_Node000002"><a xlink:href="free__functions_8c.html#af29ea604c324eb3b9934ef9d6a34aa1d" target="_top" xlink:title="Frees all allocated resources associated with the command list and environment.">
<polygon fill="white" stroke="#666666" points="210.5,-270 157.5,-270 157.5,-251 210.5,-251 210.5,-270"/>
<text text-anchor="middle" x="184" y="-258" font-family="Helvetica,sans-Serif" font-size="10.00">free_all</text>
</a>
</g>
</g>
<!-- Node1&#45;&gt;Node2 -->
<g id="edge1_Node000001_Node000002" class="edge">
<title>Node1&#45;&gt;Node2</title>
<g id="a_edge1_Node000001_Node000002"><a xlink:title=" ">
<path fill="none" stroke="#63b8ff" d="M80.17,-213.04C100.12,-222.25 130.53,-236.28 153.12,-246.71"/>
<polygon fill="#63b8ff" stroke="#63b8ff" points="151.72,-249.92 162.26,-250.93 154.65,-243.56 151.72,-249.92"/>
</a>
</g>
</g>
<!-- Node6 -->
<g id="Node000006" class="node">
<title>Node6</title>
<g id="a_Node000006"><a xlink:href="ft__printf_8c.html#a091532b7f37af84bdecc84dccf4eedb1" target="_top" xlink:title="A simplified printf function that outputs formatted data to a given file descriptor.">
<polygon fill="white" stroke="#666666" points="211.5,-213 156.5,-213 156.5,-194 211.5,-194 211.5,-213"/>
<text text-anchor="middle" x="184" y="-201" font-family="Helvetica,sans-Serif" font-size="10.00">ft_printf</text>
</a>
</g>
</g>
<!-- Node1&#45;&gt;Node6 -->
<g id="edge6_Node000001_Node000006" class="edge">
<title>Node1&#45;&gt;Node6</title>
<g id="a_edge6_Node000001_Node000006"><a xlink:title=" ">
<path fill="none" stroke="#63b8ff" d="M117.27,-203.5C127.11,-203.5 137.08,-203.5 146.18,-203.5"/>
<polygon fill="#63b8ff" stroke="#63b8ff" points="146.41,-207 156.41,-203.5 146.41,-200 146.41,-207"/>
</a>
</g>
</g>
<!-- Node16 -->
<g id="Node000016" class="node">
<title>Node16</title>
<g id="a_Node000016"><a xlink:href="ft__strcmp_8c.html#a1f2ff2312e5994560c9537cd9173be94" target="_top" xlink:title="Compares two null&#45;terminated strings lexicographically.">
<polygon fill="white" stroke="#666666" points="215,-176 153,-176 153,-157 215,-157 215,-176"/>
<text text-anchor="middle" x="184" y="-164" font-family="Helvetica,sans-Serif" font-size="10.00">ft_strcmp</text>
</a>
</g>
</g>
<!-- Node1&#45;&gt;Node16 -->
<g id="edge21_Node000001_Node000016" class="edge">
<title>Node1&#45;&gt;Node16</title>
<g id="a_edge21_Node000001_Node000016"><a xlink:title=" ">
<path fill="none" stroke="#63b8ff" d="M91.3,-193.97C106.93,-189.29 125.93,-183.6 142.57,-178.61"/>
<polygon fill="#63b8ff" stroke="#63b8ff" points="144.01,-181.84 152.58,-175.61 142,-175.13 144.01,-181.84"/>
</a>
</g>
</g>
<!-- Node3 -->
<g id="Node000003" class="node">
<title>Node3</title>
<g id="a_Node000003"><a xlink:href="free__functions_8c.html#a32c72055f1119062342fcdf42527c05c" target="_top" xlink:title="Frees a list of commands.">
<polygon fill="white" stroke="#666666" points="323.5,-327 261.5,-327 261.5,-308 323.5,-308 323.5,-327"/>
<text text-anchor="middle" x="292.5" y="-315" font-family="Helvetica,sans-Serif" font-size="10.00">free_cmd</text>
</a>
</g>
</g>
<!-- Node2&#45;&gt;Node3 -->
<g id="edge2_Node000002_Node000003" class="edge">
<title>Node2&#45;&gt;Node3</title>
<g id="a_edge2_Node000002_Node000003"><a xlink:title=" ">
<path fill="none" stroke="#63b8ff" d="M203.07,-270.17C220,-279.23 245.52,-292.89 264.8,-303.21"/>
<polygon fill="#63b8ff" stroke="#63b8ff" points="263.23,-306.34 273.7,-307.97 266.54,-300.17 263.23,-306.34"/>
</a>
</g>
</g>
<!-- Node4 -->
<g id="Node000004" class="node">
<title>Node4</title>
<g id="a_Node000004"><a xlink:href="ft__free__matrix_8c.html#a1ea6d1f3b50d1c23d4f0faddd1a13448" target="_top" xlink:title="Frees a NULL&#45;terminated matrix of strings.">
<polygon fill="white" stroke="#666666" points="468,-308 382,-308 382,-289 468,-289 468,-308"/>
<text text-anchor="middle" x="425" y="-296" font-family="Helvetica,sans-Serif" font-size="10.00">ft_free_matrix</text>
</a>
</g>
</g>
<!-- Node2&#45;&gt;Node4 -->
<g id="edge5_Node000002_Node000004" class="edge">
<title>Node2&#45;&gt;Node4</title>
<g id="a_edge5_Node000002_Node000004"><a xlink:title=" ">
<path fill="none" stroke="#63b8ff" d="M210.58,-264.57C248.88,-270.66 321.97,-282.28 371.83,-290.21"/>
<polygon fill="#63b8ff" stroke="#63b8ff" points="371.36,-293.67 381.79,-291.79 372.46,-286.76 371.36,-293.67"/>
</a>
</g>
</g>
<!-- Node5 -->
<g id="Node000005" class="node">
<title>Node5</title>
<g id="a_Node000005"><a xlink:href="free__functions_8c.html#a4f32f08947270b8aec54f43ddd8b02d4" target="_top" xlink:title="Frees a list of tokens.">
<polygon fill="white" stroke="#666666" points="326.5,-251 258.5,-251 258.5,-232 326.5,-232 326.5,-251"/>
<text text-anchor="middle" x="292.5" y="-239" font-family="Helvetica,sans-Serif" font-size="10.00">free_token</text>
</a>
</g>
</g>
<!-- Node2&#45;&gt;Node5 -->
<g id="edge4_Node000002_Node000005" class="edge">
<title>Node2&#45;&gt;Node5</title>
<g id="a_edge4_Node000002_Node000005"><a xlink:title=" ">
<path fill="none" stroke="#63b8ff" d="M210.51,-255.95C221.77,-253.94 235.34,-251.52 248.12,-249.24"/>
<polygon fill="#63b8ff" stroke="#63b8ff" points="248.91,-252.65 258.14,-247.45 247.68,-245.76 248.91,-252.65"/>
</a>
</g>
</g>
<!-- Node3&#45;&gt;Node4 -->
<g id="edge3_Node000003_Node000004" class="edge">
<title>Node3&#45;&gt;Node4</title>
<g id="a_edge3_Node000003_Node000004"><a xlink:title=" ">
<path fill="none" stroke="#63b8ff" d="M323.77,-313.09C337.98,-311.02 355.35,-308.5 371.6,-306.13"/>
<polygon fill="#63b8ff" stroke="#63b8ff" points="372.15,-309.59 381.54,-304.68 371.14,-302.66 372.15,-309.59"/>
</a>
</g>
</g>
<!-- Node7 -->
<g id="Node000007" class="node">
<title>Node7</title>
<g id="a_Node000007"><a xlink:href="ft__printf_8c.html#a80c1c206dcd33d07c265581878aaa300" target="_top" xlink:title="Processes a single format specifier and prints the corresponding argument.">
<polygon fill="white" stroke="#666666" points="334,-148 251,-148 251,-129 334,-129 334,-148"/>
<text text-anchor="middle" x="292.5" y="-136" font-family="Helvetica,sans-Serif" font-size="10.00">check_format</text>
</a>
</g>
</g>
<!-- Node6&#45;&gt;Node7 -->
<g id="edge7_Node000006_Node000007" class="edge">
<title>Node6&#45;&gt;Node7</title>
<g id="a_edge7_Node000006_Node000007"><a xlink:title=" ">
<path fill="none" stroke="#63b8ff" d="M201.21,-193.82C205.68,-191.13 210.54,-188.21 215,-185.5 232.54,-174.85 252.28,-162.72 267.31,-153.45"/>
<polygon fill="#63b8ff" stroke="#63b8ff" points="269.33,-156.32 276,-148.09 265.65,-150.36 269.33,-156.32"/>
</a>
</g>
</g>
<!-- Node11 -->
<g id="Node000011" class="node">
<title>Node11</title>
<g id="a_Node000011"><a xlink:href="ft__putchar__fd_8c.html#a03ef80b25dc4a521379fa92ad97bad21" target="_top" xlink:title="Writes a single character to the specified file descriptor.">
<polygon fill="white" stroke="#666666" points="465,-240 385,-240 385,-221 465,-221 465,-240"/>
<text text-anchor="middle" x="425" y="-228" font-family="Helvetica,sans-Serif" font-size="10.00">ft_putchar_fd</text>
</a>
</g>
</g>
<!-- Node6&#45;&gt;Node11 -->
<g id="edge20_Node000006_Node000011" class="edge">
<title>Node6&#45;&gt;Node11</title>
<g id="a_edge20_Node000006_Node000011"><a xlink:title=" ">
<path fill="none" stroke="#63b8ff" d="M211.95,-206.54C251.39,-211 325.47,-219.37 374.78,-224.94"/>
<polygon fill="#63b8ff" stroke="#63b8ff" points="374.57,-228.44 384.9,-226.08 375.36,-221.48 374.57,-228.44"/>
</a>
</g>
</g>
<!-- Node8 -->
<g id="Node000008" class="node">
<title>Node8</title>
<g id="a_Node000008"><a xlink:href="ft__forpointer_8c.html#a8e02c77b80406af72327ebf71f537786" target="_top" xlink:title="Prints a pointer in hexadecimal format prefixed with &quot;0x&quot;.">
<polygon fill="white" stroke="#666666" points="463.5,-203 386.5,-203 386.5,-184 463.5,-184 463.5,-203"/>
<text text-anchor="middle" x="425" y="-191" font-family="Helvetica,sans-Serif" font-size="10.00">ft_forpointer</text>
</a>
</g>
</g>
<!-- Node7&#45;&gt;Node8 -->
<g id="edge8_Node000007_Node000008" class="edge">
<title>Node7&#45;&gt;Node8</title>
<g id="a_edge8_Node000007_Node000008"><a xlink:title=" ">
<path fill="none" stroke="#63b8ff" d="M311.75,-148.15C327.06,-156.05 349.64,-167.22 370,-175.5 374.4,-177.29 379.06,-179.04 383.71,-180.71"/>
<polygon fill="#63b8ff" stroke="#63b8ff" points="382.6,-184.03 393.19,-183.99 384.89,-177.41 382.6,-184.03"/>
</a>
</g>
</g>
<!-- Node10 -->
<g id="Node000010" class="node">
<title>Node10</title>
<g id="a_Node000010"><a xlink:href="ft__hexadecimal_8c.html#a39c845e0a4286d3ac1e04c1e64ac734b" target="_top" xlink:title="Prints an unsigned integer in hexadecimal format.">
<polygon fill="white" stroke="#666666" points="471,-148 379,-148 379,-129 471,-129 471,-148"/>
<text text-anchor="middle" x="425" y="-136" font-family="Helvetica,sans-Serif" font-size="10.00">ft_hexadecimal</text>
</a>
</g>
</g>
<!-- Node7&#45;&gt;Node10 -->
<g id="edge11_Node000007_Node000010" class="edge">
<title>Node7&#45;&gt;Node10</title>
<g id="a_edge11_Node000007_Node000010"><a xlink:title=" ">
<path fill="none" stroke="#63b8ff" d="M334.08,-138.5C345.07,-138.5 357.16,-138.5 368.82,-138.5"/>
<polygon fill="#63b8ff" stroke="#63b8ff" points="368.9,-142 378.9,-138.5 368.9,-135 368.9,-142"/>
</a>
</g>
</g>
<!-- Node7&#45;&gt;Node11 -->
<g id="edge13_Node000007_Node000011" class="edge">
<title>Node7&#45;&gt;Node11</title>
<g id="a_edge13_Node000007_Node000011"><a xlink:title=" ">
<path fill="none" stroke="#63b8ff" d="M300.94,-148.07C313.55,-163.69 340.61,-194.67 370,-212.5 372.66,-214.11 375.48,-215.6 378.39,-216.97"/>
<polygon fill="#63b8ff" stroke="#63b8ff" points="377.27,-220.3 387.85,-220.96 379.99,-213.85 377.27,-220.3"/>
</a>
</g>
</g>
<!-- Node12 -->
<g id="Node000012" class="node">
<title>Node12</title>
<g id="a_Node000012"><a xlink:href="ft__putnbr__fd_8c.html#a1554101ee350c316340c78e19faddaa8" target="_top" xlink:title="Writes an integer to a given file descriptor.">
<polygon fill="white" stroke="#666666" points="462.5,-93 387.5,-93 387.5,-74 462.5,-74 462.5,-93"/>
<text text-anchor="middle" x="425" y="-81" font-family="Helvetica,sans-Serif" font-size="10.00">ft_putnbr_fd</text>
</a>
</g>
</g>
<!-- Node7&#45;&gt;Node12 -->
<g id="edge14_Node000007_Node000012" class="edge">
<title>Node7&#45;&gt;Node12</title>
<g id="a_edge14_Node000007_Node000012"><a xlink:title=" ">
<path fill="none" stroke="#63b8ff" d="M316.23,-128.92C337.06,-120.14 368.13,-107.05 391.57,-97.17"/>
<polygon fill="#63b8ff" stroke="#63b8ff" points="393.24,-100.26 401.09,-93.16 390.52,-93.81 393.24,-100.26"/>
</a>
</g>
</g>
<!-- Node13 -->
<g id="Node000013" class="node">
<title>Node13</title>
<g id="a_Node000013"><a xlink:href="ft__putstr__fd_8c.html#a00b0638f31a75c7a30f77f33888bfb73" target="_top" xlink:title="Writes a null&#45;terminated string to the specified file descriptor.">
<polygon fill="white" stroke="#666666" points="461,-56 389,-56 389,-37 461,-37 461,-56"/>
<text text-anchor="middle" x="425" y="-44" font-family="Helvetica,sans-Serif" font-size="10.00">ft_putstr_fd</text>
</a>
</g>
</g>
<!-- Node7&#45;&gt;Node13 -->
<g id="edge16_Node000007_Node000013" class="edge">
<title>Node7&#45;&gt;Node13</title>
<g id="a_edge16_Node000007_Node000013"><a xlink:title=" ">
<path fill="none" stroke="#63b8ff" d="M301.42,-128.62C314.28,-113.15 341.21,-83.16 370,-65.5 373.34,-63.45 376.92,-61.59 380.61,-59.89"/>
<polygon fill="#63b8ff" stroke="#63b8ff" points="381.98,-63.11 389.87,-56.04 379.29,-56.65 381.98,-63.11"/>
</a>
</g>
</g>
<!-- Node14 -->
<g id="Node000014" class="node">
<title>Node14</title>
<g id="a_Node000014"><a xlink:href="ft__unsigned__putnbr_8c.html#af9a70f8607b40cf2a7706f9d3725b549" target="_top" xlink:title="Writes an unsigned integer to the given file descriptor.">
<polygon fill="white" stroke="#666666" points="480,-19 370,-19 370,0 480,0 480,-19"/>
<text text-anchor="middle" x="425" y="-7" font-family="Helvetica,sans-Serif" font-size="10.00">ft_unsigned_putnbr</text>
</a>
</g>
</g>
<!-- Node7&#45;&gt;Node14 -->
<g id="edge17_Node000007_Node000014" class="edge">
<title>Node7&#45;&gt;Node14</title>
<g id="a_edge17_Node000007_Node000014"><a xlink:title=" ">
<path fill="none" stroke="#63b8ff" d="M297.51,-128.93C306.94,-107.55 332.58,-55.62 370,-27.5 371.83,-26.13 373.77,-24.85 375.79,-23.67"/>
<polygon fill="#63b8ff" stroke="#63b8ff" points="377.61,-26.67 385,-19.09 374.49,-20.41 377.61,-26.67"/>
</a>
</g>
</g>
<!-- Node9 -->
<g id="Node000009" class="node">
<title>Node9</title>
<g id="a_Node000009"><a xlink:href="ft__forpointer_8c.html#aded1bf735c8a10e47396170d27c5b6aa" target="_top" xlink:title="Recursively prints a memory address in hexadecimal format.">
<polygon fill="white" stroke="#666666" points="626,-203 516,-203 516,-184 626,-184 626,-203"/>
<text text-anchor="middle" x="571" y="-191" font-family="Helvetica,sans-Serif" font-size="10.00">ft_ricorsive_pointer</text>
</a>
</g>
</g>
<!-- Node8&#45;&gt;Node9 -->
<g id="edge9_Node000008_Node000009" class="edge">
<title>Node8&#45;&gt;Node9</title>
<g id="a_edge9_Node000008_Node000009"><a xlink:title=" ">
<path fill="none" stroke="#63b8ff" d="M463.83,-193.5C476.64,-193.5 491.33,-193.5 505.61,-193.5"/>
<polygon fill="#63b8ff" stroke="#63b8ff" points="505.9,-197 515.9,-193.5 505.9,-190 505.9,-197"/>
</a>
</g>
</g>
<!-- Node9&#45;&gt;Node9 -->
<g id="edge10_Node000009_Node000009" class="edge">
<title>Node9&#45;&gt;Node9</title>
<g id="a_edge10_Node000009_Node000009"><a xlink:title=" ">
<path fill="none" stroke="#63b8ff" d="M548.5,-203.08C537.55,-211.73 545.05,-221 571,-221 587.62,-221 596.68,-217.2 598.16,-212.19"/>
<polygon fill="#63b8ff" stroke="#63b8ff" points="601.17,-210.39 593.5,-203.08 594.94,-213.58 601.17,-210.39"/>
</a>
</g>
</g>
<!-- Node10&#45;&gt;Node10 -->
<g id="edge12_Node000010_Node000010" class="edge">
<title>Node10&#45;&gt;Node10</title>
<g id="a_edge12_Node000010_Node000010"><a xlink:title=" ">
<path fill="none" stroke="#63b8ff" d="M404.65,-148.08C394.76,-156.73 401.54,-166 425,-166 440.03,-166 448.21,-162.2 449.55,-157.19"/>
<polygon fill="#63b8ff" stroke="#63b8ff" points="452.72,-155.69 445.35,-148.08 446.36,-158.63 452.72,-155.69"/>
</a>
</g>
</g>
<!-- Node12&#45;&gt;Node12 -->
<g id="edge15_Node000012_Node000012" class="edge">
<title>Node12&#45;&gt;Node12</title>
<g id="a_edge15_Node000012_Node000012"><a xlink:title=" ">
<path fill="none" stroke="#63b8ff" d="M404.65,-93.08C394.76,-101.73 401.54,-111 425,-111 440.03,-111 448.21,-107.2 449.55,-102.19"/>
<polygon fill="#63b8ff" stroke="#63b8ff" points="452.72,-100.69 445.35,-93.08 446.36,-103.63 452.72,-100.69"/>
</a>
</g>
</g>
<!-- Node15 -->
<g id="Node000015" class="node">
<title>Node15</title>
<g id="a_Node000015"><a xlink:href="ft__putnbr_8c.html#a2e51f80c9e46e52f4adf94617fb51ada" target="_top" xlink:title="Writes an integer to the standard output (stdout).">
<polygon fill="white" stroke="#666666" points="601,-19 541,-19 541,0 601,0 601,-19"/>
<text text-anchor="middle" x="571" y="-7" font-family="Helvetica,sans-Serif" font-size="10.00">ft_putnbr</text>
</a>
</g>
</g>
<!-- Node14&#45;&gt;Node15 -->
<g id="edge18_Node000014_Node000015" class="edge">
<title>Node14&#45;&gt;Node15</title>
<g id="a_edge18_Node000014_Node000015"><a xlink:title=" ">
<path fill="none" stroke="#63b8ff" d="M480.03,-9.5C496.76,-9.5 514.87,-9.5 530.43,-9.5"/>
<polygon fill="#63b8ff" stroke="#63b8ff" points="530.74,-13 540.74,-9.5 530.74,-6 530.74,-13"/>
</a>
</g>
</g>
<!-- Node15&#45;&gt;Node15 -->
<g id="edge19_Node000015_Node000015" class="edge">
<title>Node15&#45;&gt;Node15</title>
<g id="a_edge19_Node000015_Node000015"><a xlink:title=" ">
<path fill="none" stroke="#63b8ff" d="M548.5,-19.08C537.55,-27.73 545.05,-37 571,-37 587.62,-37 596.68,-33.2 598.16,-28.19"/>
<polygon fill="#63b8ff" stroke="#63b8ff" points="601.17,-26.39 593.5,-19.08 594.94,-29.58 601.17,-26.39"/>
</a>
</g>
</g>
</g>
</svg>
