<?xml version="1.0" encoding="UTF-8" standalone="no"?>
<!DOCTYPE svg PUBLIC "-//W3C//DTD SVG 1.1//EN"
 "http://www.w3.org/Graphics/SVG/1.1/DTD/svg11.dtd">
<!-- Generated by graphviz version 2.43.0 (0)
 -->
<!-- Title: ft_export_no_args Pages: 1 -->
<svg width="329pt" height="64pt"
 viewBox="0.00 0.00 329.00 64.00" xmlns="http://www.w3.org/2000/svg" xmlns:xlink="http://www.w3.org/1999/xlink">
<g id="graph0" class="graph" transform="scale(1 1) rotate(0) translate(4 60)">
<title>ft_export_no_args</title>
<!-- Node1 -->
<g id="Node000001" class="node">
<title>Node1</title>
<g id="a_Node000001"><a xlink:title="Handles the export command without arguments.">
<polygon fill="#999999" stroke="#666666" points="104,-37 0,-37 0,-18 104,-18 104,-37"/>
<text text-anchor="middle" x="52" y="-25" font-family="Helvetica,sans-Serif" font-size="10.00">ft_export_no_args</text>
</a>
</g>
</g>
<!-- Node2 -->
<g id="Node000002" class="node">
<title>Node2</title>
<g id="a_Node000002"><a xlink:href="utils__export__unset_8c.html#aa08bca6e18fd1b1686a244acf72ed2c6" target="_top" xlink:title="Sorts an array of strings (environment variables) in lexicographical (alphabetical) order.">
<polygon fill="white" stroke="#666666" points="223,-56 140,-56 140,-37 223,-37 223,-56"/>
<text text-anchor="middle" x="181.5" y="-44" font-family="Helvetica,sans-Serif" font-size="10.00">ft_env_sorted</text>
</a>
</g>
</g>
<!-- Node1&#45;&gt;Node2 -->
<g id="edge1_Node000001_Node000002" class="edge">
<title>Node1&#45;&gt;Node2</title>
<g id="a_edge1_Node000001_Node000002"><a xlink:title=" ">
<path fill="none" stroke="#63b8ff" d="M104.12,-35.12C112.6,-36.38 121.38,-37.69 129.84,-38.95"/>
<polygon fill="#63b8ff" stroke="#63b8ff" points="129.55,-42.45 139.96,-40.46 130.58,-35.52 129.55,-42.45"/>
</a>
</g>
</g>
<!-- Node4 -->
<g id="Node000004" class="node">
<title>Node4</title>
<g id="a_Node000004"><a xlink:href="export_8c.html#a8c162dea9179b442efcee728f20d668e" target="_top" xlink:title="Helper function that prints a single exported variable formatted as &quot;declare &#45;x VAR=&quot;value&quot;&quot; if the v...">
<polygon fill="white" stroke="#666666" points="218.5,-19 144.5,-19 144.5,0 218.5,0 218.5,-19"/>
<text text-anchor="middle" x="181.5" y="-7" font-family="Helvetica,sans-Serif" font-size="10.00">ft_too_write</text>
</a>
</g>
</g>
<!-- Node1&#45;&gt;Node4 -->
<g id="edge3_Node000001_Node000004" class="edge">
<title>Node1&#45;&gt;Node4</title>
<g id="a_edge3_Node000001_Node000004"><a xlink:title=" ">
<path fill="none" stroke="#63b8ff" d="M104.12,-20.28C114.1,-18.87 124.5,-17.41 134.31,-16.02"/>
<polygon fill="#63b8ff" stroke="#63b8ff" points="134.85,-19.48 144.26,-14.62 133.87,-12.55 134.85,-19.48"/>
</a>
</g>
</g>
<!-- Node3 -->
<g id="Node000003" class="node">
<title>Node3</title>
<g id="a_Node000003"><a xlink:href="ft__strcmp_8c.html#a1f2ff2312e5994560c9537cd9173be94" target="_top" xlink:title="Compares two null&#45;terminated strings lexicographically.">
<polygon fill="white" stroke="#666666" points="321,-56 259,-56 259,-37 321,-37 321,-56"/>
<text text-anchor="middle" x="290" y="-44" font-family="Helvetica,sans-Serif" font-size="10.00">ft_strcmp</text>
</a>
</g>
</g>
<!-- Node2&#45;&gt;Node3 -->
<g id="edge2_Node000002_Node000003" class="edge">
<title>Node2&#45;&gt;Node3</title>
<g id="a_edge2_Node000002_Node000003"><a xlink:title=" ">
<path fill="none" stroke="#63b8ff" d="M223.07,-46.5C231.42,-46.5 240.21,-46.5 248.55,-46.5"/>
<polygon fill="#63b8ff" stroke="#63b8ff" points="248.82,-50 258.82,-46.5 248.82,-43 248.82,-50"/>
</a>
</g>
</g>
</g>
</svg>
