<?xml version="1.0" encoding="UTF-8" standalone="no"?>
<!DOCTYPE svg PUBLIC "-//W3C//DTD SVG 1.1//EN"
 "http://www.w3.org/Graphics/SVG/1.1/DTD/svg11.dtd">
<!-- Generated by graphviz version 2.43.0 (0)
 -->
<!-- Title: ft_exe_export Pages: 1 -->
<svg width="767pt" height="381pt"
 viewBox="0.00 0.00 767.00 381.00" xmlns="http://www.w3.org/2000/svg" xmlns:xlink="http://www.w3.org/1999/xlink">
<g id="graph0" class="graph" transform="scale(1 1) rotate(0) translate(4 377)">
<title>ft_exe_export</title>
<!-- Node1 -->
<g id="Node000001" class="node">
<title>Node1</title>
<g id="a_Node000001"><a xlink:title="Executes export on a single argument.">
<polygon fill="#999999" stroke="#666666" points="83,-149 0,-149 0,-130 83,-130 83,-149"/>
<text text-anchor="middle" x="41.5" y="-137" font-family="Helvetica,sans-Serif" font-size="10.00">ft_exe_export</text>
</a>
</g>
</g>
<!-- Node2 -->
<g id="Node000002" class="node">
<title>Node2</title>
<g id="a_Node000002"><a xlink:href="utils__export__unset_8c.html#a816ee6b26fbb9862373621ed0f57245f" target="_top" xlink:title="Adds a new variable to the environment (env&#45;&gt;env_copy).">
<polygon fill="white" stroke="#666666" points="205,-224 137,-224 137,-205 205,-205 205,-224"/>
<text text-anchor="middle" x="171" y="-212" font-family="Helvetica,sans-Serif" font-size="10.00">ft_add_var</text>
</a>
</g>
</g>
<!-- Node1&#45;&gt;Node2 -->
<g id="edge1_Node000001_Node000002" class="edge">
<title>Node1&#45;&gt;Node2</title>
<g id="a_edge1_Node000001_Node000002"><a xlink:title=" ">
<path fill="none" stroke="#63b8ff" d="M58.91,-149.15C80.71,-161.98 119.44,-184.76 144.92,-199.75"/>
<polygon fill="#63b8ff" stroke="#63b8ff" points="143.26,-202.83 153.66,-204.89 146.81,-196.8 143.26,-202.83"/>
</a>
</g>
</g>
<!-- Node3 -->
<g id="Node000003" class="node">
<title>Node3</title>
<g id="a_Node000003"><a xlink:href="ft__printf_8c.html#a091532b7f37af84bdecc84dccf4eedb1" target="_top" xlink:title="A simplified printf function that outputs formatted data to a given file descriptor.">
<polygon fill="white" stroke="#666666" points="329.5,-281 274.5,-281 274.5,-262 329.5,-262 329.5,-281"/>
<text text-anchor="middle" x="302" y="-269" font-family="Helvetica,sans-Serif" font-size="10.00">ft_printf</text>
</a>
</g>
</g>
<!-- Node1&#45;&gt;Node3 -->
<g id="edge25_Node000001_Node000003" class="edge">
<title>Node1&#45;&gt;Node3</title>
<g id="a_edge25_Node000001_Node000003"><a xlink:title=" ">
<path fill="none" stroke="#63b8ff" d="M47.33,-149.04C57.64,-168.35 83.77,-212.06 119,-233.5 163.86,-260.81 225.22,-268.75 263.98,-270.92"/>
<polygon fill="#63b8ff" stroke="#63b8ff" points="264.13,-274.43 274.28,-271.39 264.45,-267.44 264.13,-274.43"/>
</a>
</g>
</g>
<!-- Node15 -->
<g id="Node000015" class="node">
<title>Node15</title>
<g id="a_Node000015"><a xlink:href="ft__strdup_8c.html#aebe73f27c70c56ac5053f860ef5436c9" target="_top" xlink:title="Duplicates a null&#45;terminated string by allocating memory.">
<polygon fill="white" stroke="#666666" points="453.5,-206 394.5,-206 394.5,-187 453.5,-187 453.5,-206"/>
<text text-anchor="middle" x="424" y="-194" font-family="Helvetica,sans-Serif" font-size="10.00">ft_strdup</text>
</a>
</g>
</g>
<!-- Node1&#45;&gt;Node15 -->
<g id="edge26_Node000001_Node000015" class="edge">
<title>Node1&#45;&gt;Node15</title>
<g id="a_edge26_Node000001_Node000015"><a xlink:title=" ">
<path fill="none" stroke="#63b8ff" d="M83.22,-145.6C157.04,-156.66 312.01,-179.87 384.31,-190.7"/>
<polygon fill="#63b8ff" stroke="#63b8ff" points="383.95,-194.19 394.36,-192.21 384.99,-187.27 383.95,-194.19"/>
</a>
</g>
</g>
<!-- Node16 -->
<g id="Node000016" class="node">
<title>Node16</title>
<g id="a_Node000016"><a xlink:href="utils__export__unset_8c.html#ae98ae22050772236584199cd8f27783d" target="_top" xlink:title="Searches for a variable to export in the environment.">
<polygon fill="white" stroke="#666666" points="223,-130 119,-130 119,-111 223,-111 223,-130"/>
<text text-anchor="middle" x="171" y="-118" font-family="Helvetica,sans-Serif" font-size="10.00">ft_find_export_var</text>
</a>
</g>
</g>
<!-- Node1&#45;&gt;Node16 -->
<g id="edge21_Node000001_Node000016" class="edge">
<title>Node1&#45;&gt;Node16</title>
<g id="a_edge21_Node000001_Node000016"><a xlink:title=" ">
<path fill="none" stroke="#63b8ff" d="M83.19,-133.44C91.36,-132.22 100.12,-130.91 108.81,-129.62"/>
<polygon fill="#63b8ff" stroke="#63b8ff" points="109.57,-133.04 118.95,-128.11 108.54,-126.12 109.57,-133.04"/>
</a>
</g>
</g>
<!-- Node19 -->
<g id="Node000019" class="node">
<title>Node19</title>
<g id="a_Node000019"><a xlink:href="ft__isspace_8c.html#ac7978b309e3e11366ba16643e447528c" target="_top" xlink:title="Checks whether a character is a whitespace character.">
<polygon fill="white" stroke="#666666" points="203.5,-93 138.5,-93 138.5,-74 203.5,-74 203.5,-93"/>
<text text-anchor="middle" x="171" y="-81" font-family="Helvetica,sans-Serif" font-size="10.00">ft_isspace</text>
</a>
</g>
</g>
<!-- Node1&#45;&gt;Node19 -->
<g id="edge24_Node000001_Node000019" class="edge">
<title>Node1&#45;&gt;Node19</title>
<g id="a_edge24_Node000001_Node000019"><a xlink:title=" ">
<path fill="none" stroke="#63b8ff" d="M61.14,-129.88C76.49,-122.1 98.92,-111.07 119,-102.5 123.54,-100.56 128.35,-98.62 133.13,-96.76"/>
<polygon fill="#63b8ff" stroke="#63b8ff" points="134.71,-99.91 142.82,-93.09 132.22,-93.37 134.71,-99.91"/>
</a>
</g>
</g>
<!-- Node20 -->
<g id="Node000020" class="node">
<title>Node20</title>
<g id="a_Node000020"><a xlink:href="utils__export__unset_8c.html#a054fceec4fb7c4bdd5f9d5d958d1b535" target="_top" xlink:title="Checks if a string is a valid identifier for environment variables.">
<polygon fill="white" stroke="#666666" points="222.5,-56 119.5,-56 119.5,-37 222.5,-37 222.5,-56"/>
<text text-anchor="middle" x="171" y="-44" font-family="Helvetica,sans-Serif" font-size="10.00">is_valid_identifier</text>
</a>
</g>
</g>
<!-- Node1&#45;&gt;Node20 -->
<g id="edge27_Node000001_Node000020" class="edge">
<title>Node1&#45;&gt;Node20</title>
<g id="a_edge27_Node000001_Node000020"><a xlink:title=" ">
<path fill="none" stroke="#63b8ff" d="M49.95,-129.85C62.56,-114.1 89.64,-82.8 119,-64.5 121.59,-62.89 124.34,-61.4 127.17,-60.02"/>
<polygon fill="#63b8ff" stroke="#63b8ff" points="128.61,-63.21 136.38,-56.01 125.82,-56.79 128.61,-63.21"/>
</a>
</g>
</g>
<!-- Node2&#45;&gt;Node3 -->
<g id="edge2_Node000002_Node000003" class="edge">
<title>Node2&#45;&gt;Node3</title>
<g id="a_edge2_Node000002_Node000003"><a xlink:title=" ">
<path fill="none" stroke="#63b8ff" d="M193.05,-224.05C210.65,-232.01 236.41,-243.6 259,-253.5 262.22,-254.91 265.59,-256.38 268.95,-257.83"/>
<polygon fill="#63b8ff" stroke="#63b8ff" points="267.73,-261.12 278.3,-261.85 270.5,-254.69 267.73,-261.12"/>
</a>
</g>
</g>
<!-- Node13 -->
<g id="Node000013" class="node">
<title>Node13</title>
<g id="a_Node000013"><a xlink:href="ft__realloc_8c.html#a9614b2d66dc188037d9d5144c4f63af5" target="_top" xlink:title="Reallocates a NULL&#45;terminated matrix of strings to a new size.">
<polygon fill="white" stroke="#666666" points="345,-244 259,-244 259,-225 345,-225 345,-244"/>
<text text-anchor="middle" x="302" y="-232" font-family="Helvetica,sans-Serif" font-size="10.00">ft_realloc_mtx</text>
</a>
</g>
</g>
<!-- Node2&#45;&gt;Node13 -->
<g id="edge17_Node000002_Node000013" class="edge">
<title>Node2&#45;&gt;Node13</title>
<g id="a_edge17_Node000002_Node000013"><a xlink:title=" ">
<path fill="none" stroke="#63b8ff" d="M205.22,-219.65C218.44,-221.7 233.98,-224.11 248.65,-226.38"/>
<polygon fill="#63b8ff" stroke="#63b8ff" points="248.21,-229.86 258.62,-227.93 249.28,-222.94 248.21,-229.86"/>
</a>
</g>
</g>
<!-- Node2&#45;&gt;Node15 -->
<g id="edge20_Node000002_Node000015" class="edge">
<title>Node2&#45;&gt;Node15</title>
<g id="a_edge20_Node000002_Node000015"><a xlink:title=" ">
<path fill="none" stroke="#63b8ff" d="M205.07,-212.13C251.21,-208.82 334.74,-202.83 383.9,-199.3"/>
<polygon fill="#63b8ff" stroke="#63b8ff" points="384.41,-202.78 394.14,-198.57 383.91,-195.79 384.41,-202.78"/>
</a>
</g>
</g>
<!-- Node4 -->
<g id="Node000004" class="node">
<title>Node4</title>
<g id="a_Node000004"><a xlink:href="ft__printf_8c.html#a80c1c206dcd33d07c265581878aaa300" target="_top" xlink:title="Processes a single format specifier and prints the corresponding argument.">
<polygon fill="white" stroke="#666666" points="465.5,-281 382.5,-281 382.5,-262 465.5,-262 465.5,-281"/>
<text text-anchor="middle" x="424" y="-269" font-family="Helvetica,sans-Serif" font-size="10.00">check_format</text>
</a>
</g>
</g>
<!-- Node3&#45;&gt;Node4 -->
<g id="edge3_Node000003_Node000004" class="edge">
<title>Node3&#45;&gt;Node4</title>
<g id="a_edge3_Node000003_Node000004"><a xlink:title=" ">
<path fill="none" stroke="#63b8ff" d="M329.63,-271.5C342.08,-271.5 357.33,-271.5 371.88,-271.5"/>
<polygon fill="#63b8ff" stroke="#63b8ff" points="372.29,-275 382.29,-271.5 372.29,-268 372.29,-275"/>
</a>
</g>
</g>
<!-- Node8 -->
<g id="Node000008" class="node">
<title>Node8</title>
<g id="a_Node000008"><a xlink:href="ft__putchar__fd_8c.html#a03ef80b25dc4a521379fa92ad97bad21" target="_top" xlink:title="Writes a single character to the specified file descriptor.">
<polygon fill="white" stroke="#666666" points="598,-373 518,-373 518,-354 598,-354 598,-373"/>
<text text-anchor="middle" x="558" y="-361" font-family="Helvetica,sans-Serif" font-size="10.00">ft_putchar_fd</text>
</a>
</g>
</g>
<!-- Node3&#45;&gt;Node8 -->
<g id="edge16_Node000003_Node000008" class="edge">
<title>Node3&#45;&gt;Node8</title>
<g id="a_edge16_Node000003_Node000008"><a xlink:title=" ">
<path fill="none" stroke="#63b8ff" d="M328.16,-281.11C365.98,-295.49 439.78,-323.27 503,-345.5 507.89,-347.22 513.03,-348.99 518.13,-350.71"/>
<polygon fill="#63b8ff" stroke="#63b8ff" points="517.2,-354.09 527.79,-353.96 519.43,-347.46 517.2,-354.09"/>
</a>
</g>
</g>
<!-- Node5 -->
<g id="Node000005" class="node">
<title>Node5</title>
<g id="a_Node000005"><a xlink:href="ft__forpointer_8c.html#a8e02c77b80406af72327ebf71f537786" target="_top" xlink:title="Prints a pointer in hexadecimal format prefixed with &quot;0x&quot;.">
<polygon fill="white" stroke="#666666" points="596.5,-336 519.5,-336 519.5,-317 596.5,-317 596.5,-336"/>
<text text-anchor="middle" x="558" y="-324" font-family="Helvetica,sans-Serif" font-size="10.00">ft_forpointer</text>
</a>
</g>
</g>
<!-- Node4&#45;&gt;Node5 -->
<g id="edge4_Node000004_Node000005" class="edge">
<title>Node4&#45;&gt;Node5</title>
<g id="a_edge4_Node000004_Node000005"><a xlink:title=" ">
<path fill="none" stroke="#63b8ff" d="M443.63,-281.12C459.26,-289 482.28,-300.17 503,-308.5 507.41,-310.27 512.07,-312.02 516.73,-313.68"/>
<polygon fill="#63b8ff" stroke="#63b8ff" points="515.61,-316.99 526.21,-316.95 517.9,-310.38 515.61,-316.99"/>
</a>
</g>
</g>
<!-- Node7 -->
<g id="Node000007" class="node">
<title>Node7</title>
<g id="a_Node000007"><a xlink:href="ft__hexadecimal_8c.html#a39c845e0a4286d3ac1e04c1e64ac734b" target="_top" xlink:title="Prints an unsigned integer in hexadecimal format.">
<polygon fill="white" stroke="#666666" points="604,-281 512,-281 512,-262 604,-262 604,-281"/>
<text text-anchor="middle" x="558" y="-269" font-family="Helvetica,sans-Serif" font-size="10.00">ft_hexadecimal</text>
</a>
</g>
</g>
<!-- Node4&#45;&gt;Node7 -->
<g id="edge7_Node000004_Node000007" class="edge">
<title>Node4&#45;&gt;Node7</title>
<g id="a_edge7_Node000004_Node000007"><a xlink:title=" ">
<path fill="none" stroke="#63b8ff" d="M465.68,-271.5C476.93,-271.5 489.34,-271.5 501.28,-271.5"/>
<polygon fill="#63b8ff" stroke="#63b8ff" points="501.62,-275 511.62,-271.5 501.62,-268 501.62,-275"/>
</a>
</g>
</g>
<!-- Node4&#45;&gt;Node8 -->
<g id="edge9_Node000004_Node000008" class="edge">
<title>Node4&#45;&gt;Node8</title>
<g id="a_edge9_Node000004_Node000008"><a xlink:title=" ">
<path fill="none" stroke="#63b8ff" d="M432.63,-281.07C445.54,-296.67 473.23,-327.64 503,-345.5 505.67,-347.1 508.5,-348.58 511.41,-349.94"/>
<polygon fill="#63b8ff" stroke="#63b8ff" points="510.3,-353.27 520.87,-353.91 513,-346.82 510.3,-353.27"/>
</a>
</g>
</g>
<!-- Node9 -->
<g id="Node000009" class="node">
<title>Node9</title>
<g id="a_Node000009"><a xlink:href="ft__putnbr__fd_8c.html#a1554101ee350c316340c78e19faddaa8" target="_top" xlink:title="Writes an integer to a given file descriptor.">
<polygon fill="white" stroke="#666666" points="595.5,-226 520.5,-226 520.5,-207 595.5,-207 595.5,-226"/>
<text text-anchor="middle" x="558" y="-214" font-family="Helvetica,sans-Serif" font-size="10.00">ft_putnbr_fd</text>
</a>
</g>
</g>
<!-- Node4&#45;&gt;Node9 -->
<g id="edge10_Node000004_Node000009" class="edge">
<title>Node4&#45;&gt;Node9</title>
<g id="a_edge10_Node000004_Node000009"><a xlink:title=" ">
<path fill="none" stroke="#63b8ff" d="M447.99,-261.92C469.16,-253.1 500.77,-239.93 524.51,-230.04"/>
<polygon fill="#63b8ff" stroke="#63b8ff" points="525.94,-233.23 533.83,-226.16 523.25,-226.77 525.94,-233.23"/>
</a>
</g>
</g>
<!-- Node10 -->
<g id="Node000010" class="node">
<title>Node10</title>
<g id="a_Node000010"><a xlink:href="ft__putstr__fd_8c.html#a00b0638f31a75c7a30f77f33888bfb73" target="_top" xlink:title="Writes a null&#45;terminated string to the specified file descriptor.">
<polygon fill="white" stroke="#666666" points="594,-189 522,-189 522,-170 594,-170 594,-189"/>
<text text-anchor="middle" x="558" y="-177" font-family="Helvetica,sans-Serif" font-size="10.00">ft_putstr_fd</text>
</a>
</g>
</g>
<!-- Node4&#45;&gt;Node10 -->
<g id="edge12_Node000004_Node000010" class="edge">
<title>Node4&#45;&gt;Node10</title>
<g id="a_edge12_Node000004_Node000010"><a xlink:title=" ">
<path fill="none" stroke="#63b8ff" d="M453.87,-261.82C458.54,-259.52 463.11,-256.76 467,-253.5 489.38,-234.72 480.01,-216.52 503,-198.5 505.95,-196.19 509.2,-194.14 512.61,-192.34"/>
<polygon fill="#63b8ff" stroke="#63b8ff" points="514.22,-195.45 521.86,-188.11 511.31,-189.09 514.22,-195.45"/>
</a>
</g>
</g>
<!-- Node11 -->
<g id="Node000011" class="node">
<title>Node11</title>
<g id="a_Node000011"><a xlink:href="ft__unsigned__putnbr_8c.html#af9a70f8607b40cf2a7706f9d3725b549" target="_top" xlink:title="Writes an unsigned integer to the given file descriptor.">
<polygon fill="white" stroke="#666666" points="613,-152 503,-152 503,-133 613,-133 613,-152"/>
<text text-anchor="middle" x="558" y="-140" font-family="Helvetica,sans-Serif" font-size="10.00">ft_unsigned_putnbr</text>
</a>
</g>
</g>
<!-- Node4&#45;&gt;Node11 -->
<g id="edge13_Node000004_Node000011" class="edge">
<title>Node4&#45;&gt;Node11</title>
<g id="a_edge13_Node000004_Node000011"><a xlink:title=" ">
<path fill="none" stroke="#63b8ff" d="M455.76,-261.78C459.89,-259.54 463.8,-256.81 467,-253.5 497.55,-221.96 471.42,-192 503,-161.5 504.63,-159.93 506.39,-158.49 508.25,-157.16"/>
<polygon fill="#63b8ff" stroke="#63b8ff" points="510.08,-160.15 516.95,-152.09 506.55,-154.11 510.08,-160.15"/>
</a>
</g>
</g>
<!-- Node6 -->
<g id="Node000006" class="node">
<title>Node6</title>
<g id="a_Node000006"><a xlink:href="ft__forpointer_8c.html#aded1bf735c8a10e47396170d27c5b6aa" target="_top" xlink:title="Recursively prints a memory address in hexadecimal format.">
<polygon fill="white" stroke="#666666" points="759,-336 649,-336 649,-317 759,-317 759,-336"/>
<text text-anchor="middle" x="704" y="-324" font-family="Helvetica,sans-Serif" font-size="10.00">ft_ricorsive_pointer</text>
</a>
</g>
</g>
<!-- Node5&#45;&gt;Node6 -->
<g id="edge5_Node000005_Node000006" class="edge">
<title>Node5&#45;&gt;Node6</title>
<g id="a_edge5_Node000005_Node000006"><a xlink:title=" ">
<path fill="none" stroke="#63b8ff" d="M596.83,-326.5C609.64,-326.5 624.33,-326.5 638.61,-326.5"/>
<polygon fill="#63b8ff" stroke="#63b8ff" points="638.9,-330 648.9,-326.5 638.9,-323 638.9,-330"/>
</a>
</g>
</g>
<!-- Node6&#45;&gt;Node6 -->
<g id="edge6_Node000006_Node000006" class="edge">
<title>Node6&#45;&gt;Node6</title>
<g id="a_edge6_Node000006_Node000006"><a xlink:title=" ">
<path fill="none" stroke="#63b8ff" d="M681.5,-336.08C670.55,-344.73 678.05,-354 704,-354 720.62,-354 729.68,-350.2 731.16,-345.19"/>
<polygon fill="#63b8ff" stroke="#63b8ff" points="734.17,-343.39 726.5,-336.08 727.94,-346.58 734.17,-343.39"/>
</a>
</g>
</g>
<!-- Node7&#45;&gt;Node7 -->
<g id="edge8_Node000007_Node000007" class="edge">
<title>Node7&#45;&gt;Node7</title>
<g id="a_edge8_Node000007_Node000007"><a xlink:title=" ">
<path fill="none" stroke="#63b8ff" d="M537.35,-281.08C527.3,-289.73 534.18,-299 558,-299 573.26,-299 581.57,-295.2 582.93,-290.19"/>
<polygon fill="#63b8ff" stroke="#63b8ff" points="586.07,-288.65 578.65,-281.08 579.73,-291.62 586.07,-288.65"/>
</a>
</g>
</g>
<!-- Node9&#45;&gt;Node9 -->
<g id="edge11_Node000009_Node000009" class="edge">
<title>Node9&#45;&gt;Node9</title>
<g id="a_edge11_Node000009_Node000009"><a xlink:title=" ">
<path fill="none" stroke="#63b8ff" d="M537.35,-226.08C527.3,-234.73 534.18,-244 558,-244 573.26,-244 581.57,-240.2 582.93,-235.19"/>
<polygon fill="#63b8ff" stroke="#63b8ff" points="586.07,-233.65 578.65,-226.08 579.73,-236.62 586.07,-233.65"/>
</a>
</g>
</g>
<!-- Node12 -->
<g id="Node000012" class="node">
<title>Node12</title>
<g id="a_Node000012"><a xlink:href="ft__putnbr_8c.html#a2e51f80c9e46e52f4adf94617fb51ada" target="_top" xlink:title="Writes an integer to the standard output (stdout).">
<polygon fill="white" stroke="#666666" points="734,-152 674,-152 674,-133 734,-133 734,-152"/>
<text text-anchor="middle" x="704" y="-140" font-family="Helvetica,sans-Serif" font-size="10.00">ft_putnbr</text>
</a>
</g>
</g>
<!-- Node11&#45;&gt;Node12 -->
<g id="edge14_Node000011_Node000012" class="edge">
<title>Node11&#45;&gt;Node12</title>
<g id="a_edge14_Node000011_Node000012"><a xlink:title=" ">
<path fill="none" stroke="#63b8ff" d="M613.03,-142.5C629.76,-142.5 647.87,-142.5 663.43,-142.5"/>
<polygon fill="#63b8ff" stroke="#63b8ff" points="663.74,-146 673.74,-142.5 663.74,-139 663.74,-146"/>
</a>
</g>
</g>
<!-- Node12&#45;&gt;Node12 -->
<g id="edge15_Node000012_Node000012" class="edge">
<title>Node12&#45;&gt;Node12</title>
<g id="a_edge15_Node000012_Node000012"><a xlink:title=" ">
<path fill="none" stroke="#63b8ff" d="M681.5,-152.08C670.55,-160.73 678.05,-170 704,-170 720.62,-170 729.68,-166.2 731.16,-161.19"/>
<polygon fill="#63b8ff" stroke="#63b8ff" points="734.17,-159.39 726.5,-152.08 727.94,-162.58 734.17,-159.39"/>
</a>
</g>
</g>
<!-- Node14 -->
<g id="Node000014" class="node">
<title>Node14</title>
<g id="a_Node000014"><a xlink:href="ft__free__matrix_8c.html#a1ea6d1f3b50d1c23d4f0faddd1a13448" target="_top" xlink:title="Frees a NULL&#45;terminated matrix of strings.">
<polygon fill="white" stroke="#666666" points="467,-244 381,-244 381,-225 467,-225 467,-244"/>
<text text-anchor="middle" x="424" y="-232" font-family="Helvetica,sans-Serif" font-size="10.00">ft_free_matrix</text>
</a>
</g>
</g>
<!-- Node13&#45;&gt;Node14 -->
<g id="edge18_Node000013_Node000014" class="edge">
<title>Node13&#45;&gt;Node14</title>
<g id="a_edge18_Node000013_Node000014"><a xlink:title=" ">
<path fill="none" stroke="#63b8ff" d="M345.31,-234.5C353.46,-234.5 362.1,-234.5 370.53,-234.5"/>
<polygon fill="#63b8ff" stroke="#63b8ff" points="370.67,-238 380.67,-234.5 370.67,-231 370.67,-238"/>
</a>
</g>
</g>
<!-- Node13&#45;&gt;Node15 -->
<g id="edge19_Node000013_Node000015" class="edge">
<title>Node13&#45;&gt;Node15</title>
<g id="a_edge19_Node000013_Node000015"><a xlink:title=" ">
<path fill="none" stroke="#63b8ff" d="M333.28,-224.91C348.81,-219.99 367.88,-213.95 384.45,-208.71"/>
<polygon fill="#63b8ff" stroke="#63b8ff" points="385.9,-211.92 394.38,-205.56 383.79,-205.24 385.9,-211.92"/>
</a>
</g>
</g>
<!-- Node17 -->
<g id="Node000017" class="node">
<title>Node17</title>
<g id="a_Node000017"><a xlink:href="ft__strncmp_8c.html#a9d2fe792187aa4ed08e5864fb2c4d6dc" target="_top" xlink:title="Compares up to n characters of two strings.">
<polygon fill="white" stroke="#666666" points="336,-130 268,-130 268,-111 336,-111 336,-130"/>
<text text-anchor="middle" x="302" y="-118" font-family="Helvetica,sans-Serif" font-size="10.00">ft_strncmp</text>
</a>
</g>
</g>
<!-- Node16&#45;&gt;Node17 -->
<g id="edge22_Node000016_Node000017" class="edge">
<title>Node16&#45;&gt;Node17</title>
<g id="a_edge22_Node000016_Node000017"><a xlink:title=" ">
<path fill="none" stroke="#63b8ff" d="M223.35,-120.5C234.75,-120.5 246.72,-120.5 257.75,-120.5"/>
<polygon fill="#63b8ff" stroke="#63b8ff" points="257.99,-124 267.99,-120.5 257.99,-117 257.99,-124"/>
</a>
</g>
</g>
<!-- Node18 -->
<g id="Node000018" class="node">
<title>Node18</title>
<g id="a_Node000018"><a xlink:href="ft__strlcat_8c.html#a3ab017dd491d7327d1b4acbf1398b91e" target="_top" xlink:title="Returns the length of a null&#45;terminated string.">
<polygon fill="white" stroke="#666666" points="318,-93 286,-93 286,-74 318,-74 318,-93"/>
<text text-anchor="middle" x="302" y="-81" font-family="Helvetica,sans-Serif" font-size="10.00">len</text>
</a>
</g>
</g>
<!-- Node16&#45;&gt;Node18 -->
<g id="edge23_Node000016_Node000018" class="edge">
<title>Node16&#45;&gt;Node18</title>
<g id="a_edge23_Node000016_Node000018"><a xlink:title=" ">
<path fill="none" stroke="#63b8ff" d="M205.22,-110.97C227.34,-104.63 255.94,-96.42 276.11,-90.64"/>
<polygon fill="#63b8ff" stroke="#63b8ff" points="277.16,-93.98 285.81,-87.86 275.23,-87.25 277.16,-93.98"/>
</a>
</g>
</g>
<!-- Node21 -->
<g id="Node000021" class="node">
<title>Node21</title>
<g id="a_Node000021"><a xlink:href="ft__isalnum_8c.html#a9c2c3821ea43ebdf97de07b123503f8b" target="_top" xlink:title="Checks whether a character is alphanumeric.">
<polygon fill="white" stroke="#666666" points="336,-56 268,-56 268,-37 336,-37 336,-56"/>
<text text-anchor="middle" x="302" y="-44" font-family="Helvetica,sans-Serif" font-size="10.00">ft_isalnum</text>
</a>
</g>
</g>
<!-- Node20&#45;&gt;Node21 -->
<g id="edge28_Node000020_Node000021" class="edge">
<title>Node20&#45;&gt;Node21</title>
<g id="a_edge28_Node000020_Node000021"><a xlink:title=" ">
<path fill="none" stroke="#63b8ff" d="M222.61,-46.5C234.29,-46.5 246.6,-46.5 257.92,-46.5"/>
<polygon fill="#63b8ff" stroke="#63b8ff" points="257.98,-50 267.98,-46.5 257.98,-43 257.98,-50"/>
</a>
</g>
</g>
<!-- Node22 -->
<g id="Node000022" class="node">
<title>Node22</title>
<g id="a_Node000022"><a xlink:href="ft__isalpha_8c.html#ac283963beaa3b8c7d09b78851cda297e" target="_top" xlink:title="Checks whether a character is an alphabetic letter.">
<polygon fill="white" stroke="#666666" points="334,-19 270,-19 270,0 334,0 334,-19"/>
<text text-anchor="middle" x="302" y="-7" font-family="Helvetica,sans-Serif" font-size="10.00">ft_isalpha</text>
</a>
</g>
</g>
<!-- Node20&#45;&gt;Node22 -->
<g id="edge29_Node000020_Node000022" class="edge">
<title>Node20&#45;&gt;Node22</title>
<g id="a_edge29_Node000020_Node000022"><a xlink:title=" ">
<path fill="none" stroke="#63b8ff" d="M205.22,-36.97C221.82,-32.21 242.07,-26.4 259.66,-21.36"/>
<polygon fill="#63b8ff" stroke="#63b8ff" points="261.02,-24.61 269.67,-18.49 259.09,-17.88 261.02,-24.61"/>
</a>
</g>
</g>
</g>
</svg>
