<?xml version="1.0" encoding="UTF-8" standalone="no"?>
<!DOCTYPE svg PUBLIC "-//W3C//DTD SVG 1.1//EN"
 "http://www.w3.org/Graphics/SVG/1.1/DTD/svg11.dtd">
<!-- Generated by graphviz version 2.43.0 (0)
 -->
<!-- Title: builtin/export.c Pages: 1 -->
<svg width="1067pt" height="313pt"
 viewBox="0.00 0.00 1066.50 313.00" xmlns="http://www.w3.org/2000/svg" xmlns:xlink="http://www.w3.org/1999/xlink">
<g id="graph0" class="graph" transform="scale(1 1) rotate(0) translate(4 309)">
<title>builtin/export.c</title>
<!-- Node1 -->
<g id="Node000001" class="node">
<title>Node1</title>
<g id="a_Node000001"><a xlink:title=" ">
<polygon fill="#999999" stroke="#666666" points="853.5,-305 763.5,-305 763.5,-286 853.5,-286 853.5,-305"/>
<text text-anchor="middle" x="808.5" y="-293" font-family="Helvetica,sans-Serif" font-size="10.00">builtin/export.c</text>
</a>
</g>
</g>
<!-- Node2 -->
<g id="Node000002" class="node">
<title>Node2</title>
<g id="a_Node000002"><a xlink:href="builtin_8h.html" target="_top" xlink:title=" ">
<polygon fill="white" stroke="#666666" points="808.5,-250 752.5,-250 752.5,-231 808.5,-231 808.5,-250"/>
<text text-anchor="middle" x="780.5" y="-238" font-family="Helvetica,sans-Serif" font-size="10.00">builtin.h</text>
</a>
</g>
</g>
<!-- Node1&#45;&gt;Node2 -->
<g id="edge1_Node000001_Node000002" class="edge">
<title>Node1&#45;&gt;Node2</title>
<g id="a_edge1_Node000001_Node000002"><a xlink:title=" ">
<path fill="none" stroke="#63b8ff" d="M803.88,-285.75C800.04,-278.49 794.48,-267.95 789.74,-258.98"/>
<polygon fill="#63b8ff" stroke="#63b8ff" points="792.8,-257.3 785.04,-250.09 786.61,-260.57 792.8,-257.3"/>
</a>
</g>
</g>
<!-- Node19 -->
<g id="Node000019" class="node">
<title>Node19</title>
<g id="a_Node000019"><a xlink:title=" ">
<polygon fill="#e0e0e0" stroke="#999999" points="1058.5,-74 996.5,-74 996.5,-55 1058.5,-55 1058.5,-74"/>
<text text-anchor="middle" x="1027.5" y="-62" font-family="Helvetica,sans-Serif" font-size="10.00">stdbool.h</text>
</a>
</g>
</g>
<!-- Node1&#45;&gt;Node19 -->
<g id="edge26_Node000001_Node000019" class="edge">
<title>Node1&#45;&gt;Node19</title>
<g id="a_edge26_Node000001_Node000019"><a xlink:title=" ">
<path fill="none" stroke="#63b8ff" d="M816.82,-285.8C849.48,-251.65 969.22,-126.44 1012.1,-81.6"/>
<polygon fill="#63b8ff" stroke="#63b8ff" points="1014.79,-83.85 1019.17,-74.21 1009.73,-79.01 1014.79,-83.85"/>
</a>
</g>
</g>
<!-- Node3 -->
<g id="Node000003" class="node">
<title>Node3</title>
<g id="a_Node000003"><a xlink:href="libft_8h.html" target="_top" xlink:title=" ">
<polygon fill="white" stroke="#666666" points="310,-74 235,-74 235,-55 310,-55 310,-74"/>
<text text-anchor="middle" x="272.5" y="-62" font-family="Helvetica,sans-Serif" font-size="10.00">../libft/libft.h</text>
</a>
</g>
</g>
<!-- Node2&#45;&gt;Node3 -->
<g id="edge2_Node000002_Node000003" class="edge">
<title>Node2&#45;&gt;Node3</title>
<g id="a_edge2_Node000002_Node000003"><a xlink:title=" ">
<path fill="none" stroke="#63b8ff" d="M752.25,-232.42C720.11,-224.18 666.16,-209.82 620.5,-195 501.67,-156.44 363.33,-102.05 303.11,-77.9"/>
<polygon fill="#63b8ff" stroke="#63b8ff" points="304.05,-74.5 293.46,-74.01 301.44,-80.99 304.05,-74.5"/>
</a>
</g>
</g>
<!-- Node13 -->
<g id="Node000013" class="node">
<title>Node13</title>
<g id="a_Node000013"><a xlink:href="common__utils_8h.html" target="_top" xlink:title=" ">
<polygon fill="white" stroke="#666666" points="814.5,-140 674.5,-140 674.5,-110 814.5,-110 814.5,-140"/>
<text text-anchor="start" x="682.5" y="-128" font-family="Helvetica,sans-Serif" font-size="10.00">../common_utils/common</text>
<text text-anchor="middle" x="744.5" y="-117" font-family="Helvetica,sans-Serif" font-size="10.00">_utils.h</text>
</a>
</g>
</g>
<!-- Node2&#45;&gt;Node13 -->
<g id="edge12_Node000002_Node000013" class="edge">
<title>Node2&#45;&gt;Node13</title>
<g id="a_edge12_Node000002_Node000013"><a xlink:title=" ">
<path fill="none" stroke="#63b8ff" d="M785.04,-230.99C791.04,-218.52 800.04,-194.74 792.5,-176 788.1,-165.06 780.03,-155.17 771.75,-147.13"/>
<polygon fill="#63b8ff" stroke="#63b8ff" points="773.95,-144.4 764.19,-140.28 769.26,-149.59 773.95,-144.4"/>
</a>
</g>
</g>
<!-- Node20 -->
<g id="Node000020" class="node">
<title>Node20</title>
<g id="a_Node000020"><a xlink:href="redirections_8h.html" target="_top" xlink:title=" ">
<polygon fill="white" stroke="#666666" points="783,-195 630,-195 630,-176 783,-176 783,-195"/>
<text text-anchor="middle" x="706.5" y="-183" font-family="Helvetica,sans-Serif" font-size="10.00">../redirections/redirections.h</text>
</a>
</g>
</g>
<!-- Node2&#45;&gt;Node20 -->
<g id="edge24_Node000002_Node000020" class="edge">
<title>Node2&#45;&gt;Node20</title>
<g id="a_edge24_Node000002_Node000020"><a xlink:title=" ">
<path fill="none" stroke="#63b8ff" d="M768.61,-230.98C757.35,-222.92 740.21,-210.65 726.79,-201.03"/>
<polygon fill="#63b8ff" stroke="#63b8ff" points="728.77,-198.15 718.61,-195.17 724.7,-203.84 728.77,-198.15"/>
</a>
</g>
</g>
<!-- Node4 -->
<g id="Node000004" class="node">
<title>Node4</title>
<g id="a_Node000004"><a xlink:title=" ">
<polygon fill="#e0e0e0" stroke="#999999" points="957.5,-19 901.5,-19 901.5,0 957.5,0 957.5,-19"/>
<text text-anchor="middle" x="929.5" y="-7" font-family="Helvetica,sans-Serif" font-size="10.00">unistd.h</text>
</a>
</g>
</g>
<!-- Node3&#45;&gt;Node4 -->
<g id="edge3_Node000003_Node000004" class="edge">
<title>Node3&#45;&gt;Node4</title>
<g id="a_edge3_Node000003_Node000004"><a xlink:title=" ">
<path fill="none" stroke="#63b8ff" d="M310.14,-59.51C324.9,-58.01 341.99,-56.34 357.5,-55 578.15,-35.98 633.98,-39.47 854.5,-19 866.51,-17.88 879.58,-16.47 891.39,-15.12"/>
<polygon fill="#63b8ff" stroke="#63b8ff" points="891.86,-18.59 901.39,-13.96 891.05,-11.64 891.86,-18.59"/>
</a>
</g>
</g>
<!-- Node5 -->
<g id="Node000005" class="node">
<title>Node5</title>
<g id="a_Node000005"><a xlink:title=" ">
<polygon fill="#e0e0e0" stroke="#999999" points="697,-19 644,-19 644,0 697,0 697,-19"/>
<text text-anchor="middle" x="670.5" y="-7" font-family="Helvetica,sans-Serif" font-size="10.00">stdlib.h</text>
</a>
</g>
</g>
<!-- Node3&#45;&gt;Node5 -->
<g id="edge4_Node000003_Node000005" class="edge">
<title>Node3&#45;&gt;Node5</title>
<g id="a_edge4_Node000003_Node000005"><a xlink:title=" ">
<path fill="none" stroke="#63b8ff" d="M310.3,-58.47C386.65,-48.3 558.4,-25.43 633.81,-15.39"/>
<polygon fill="#63b8ff" stroke="#63b8ff" points="634.34,-18.85 643.79,-14.06 633.42,-11.91 634.34,-18.85"/>
</a>
</g>
</g>
<!-- Node6 -->
<g id="Node000006" class="node">
<title>Node6</title>
<g id="a_Node000006"><a xlink:title=" ">
<polygon fill="#e0e0e0" stroke="#999999" points="845,-19 792,-19 792,0 845,0 845,-19"/>
<text text-anchor="middle" x="818.5" y="-7" font-family="Helvetica,sans-Serif" font-size="10.00">string.h</text>
</a>
</g>
</g>
<!-- Node3&#45;&gt;Node6 -->
<g id="edge5_Node000003_Node000006" class="edge">
<title>Node3&#45;&gt;Node6</title>
<g id="a_edge5_Node000003_Node000006"><a xlink:title=" ">
<path fill="none" stroke="#63b8ff" d="M310.16,-59.71C324.92,-58.23 342,-56.52 357.5,-55 515.32,-39.49 703.58,-21.47 781.71,-14.01"/>
<polygon fill="#63b8ff" stroke="#63b8ff" points="782.37,-17.46 791.99,-13.03 781.71,-10.49 782.37,-17.46"/>
</a>
</g>
</g>
<!-- Node7 -->
<g id="Node000007" class="node">
<title>Node7</title>
<g id="a_Node000007"><a xlink:title=" ">
<polygon fill="#e0e0e0" stroke="#999999" points="121.5,-19 71.5,-19 71.5,0 121.5,0 121.5,-19"/>
<text text-anchor="middle" x="96.5" y="-7" font-family="Helvetica,sans-Serif" font-size="10.00">stdio.h</text>
</a>
</g>
</g>
<!-- Node3&#45;&gt;Node7 -->
<g id="edge6_Node000003_Node000007" class="edge">
<title>Node3&#45;&gt;Node7</title>
<g id="a_edge6_Node000003_Node000007"><a xlink:title=" ">
<path fill="none" stroke="#63b8ff" d="M244.22,-54.98C213.49,-45.73 164.36,-30.93 131.28,-20.97"/>
<polygon fill="#63b8ff" stroke="#63b8ff" points="132.16,-17.58 121.57,-18.05 130.14,-24.28 132.16,-17.58"/>
</a>
</g>
</g>
<!-- Node8 -->
<g id="Node000008" class="node">
<title>Node8</title>
<g id="a_Node000008"><a xlink:title=" ">
<polygon fill="#e0e0e0" stroke="#999999" points="195,-19 140,-19 140,0 195,0 195,-19"/>
<text text-anchor="middle" x="167.5" y="-7" font-family="Helvetica,sans-Serif" font-size="10.00">signal.h</text>
</a>
</g>
</g>
<!-- Node3&#45;&gt;Node8 -->
<g id="edge7_Node000003_Node000008" class="edge">
<title>Node3&#45;&gt;Node8</title>
<g id="a_edge7_Node000003_Node000008"><a xlink:title=" ">
<path fill="none" stroke="#63b8ff" d="M255.63,-54.98C238.89,-46.54 213,-33.47 193.61,-23.68"/>
<polygon fill="#63b8ff" stroke="#63b8ff" points="195.18,-20.55 184.68,-19.17 192.03,-26.8 195.18,-20.55"/>
</a>
</g>
</g>
<!-- Node9 -->
<g id="Node000009" class="node">
<title>Node9</title>
<g id="a_Node000009"><a xlink:title=" ">
<polygon fill="#e0e0e0" stroke="#999999" points="472,-19 425,-19 425,0 472,0 472,-19"/>
<text text-anchor="middle" x="448.5" y="-7" font-family="Helvetica,sans-Serif" font-size="10.00">fcntl.h</text>
</a>
</g>
</g>
<!-- Node3&#45;&gt;Node9 -->
<g id="edge8_Node000003_Node000009" class="edge">
<title>Node3&#45;&gt;Node9</title>
<g id="a_edge8_Node000003_Node000009"><a xlink:title=" ">
<path fill="none" stroke="#63b8ff" d="M300.78,-54.98C331.95,-45.6 382.06,-30.51 415.13,-20.55"/>
<polygon fill="#63b8ff" stroke="#63b8ff" points="416.24,-23.87 424.81,-17.63 414.22,-17.17 416.24,-23.87"/>
</a>
</g>
</g>
<!-- Node10 -->
<g id="Node000010" class="node">
<title>Node10</title>
<g id="a_Node000010"><a xlink:title=" ">
<polygon fill="#e0e0e0" stroke="#999999" points="332,-19 213,-19 213,0 332,0 332,-19"/>
<text text-anchor="middle" x="272.5" y="-7" font-family="Helvetica,sans-Serif" font-size="10.00">bits/types/siginfo_t.h</text>
</a>
</g>
</g>
<!-- Node3&#45;&gt;Node10 -->
<g id="edge9_Node000003_Node000010" class="edge">
<title>Node3&#45;&gt;Node10</title>
<g id="a_edge9_Node000003_Node000010"><a xlink:title=" ">
<path fill="none" stroke="#63b8ff" d="M272.5,-54.75C272.5,-47.8 272.5,-37.85 272.5,-29.13"/>
<polygon fill="#63b8ff" stroke="#63b8ff" points="276,-29.09 272.5,-19.09 269,-29.09 276,-29.09"/>
</a>
</g>
</g>
<!-- Node11 -->
<g id="Node000011" class="node">
<title>Node11</title>
<g id="a_Node000011"><a xlink:title=" ">
<polygon fill="#e0e0e0" stroke="#999999" points="406.5,-19 350.5,-19 350.5,0 406.5,0 406.5,-19"/>
<text text-anchor="middle" x="378.5" y="-7" font-family="Helvetica,sans-Serif" font-size="10.00">stdarg.h</text>
</a>
</g>
</g>
<!-- Node3&#45;&gt;Node11 -->
<g id="edge10_Node000003_Node000011" class="edge">
<title>Node3&#45;&gt;Node11</title>
<g id="a_edge10_Node000003_Node000011"><a xlink:title=" ">
<path fill="none" stroke="#63b8ff" d="M289.53,-54.98C306.43,-46.54 332.56,-33.47 352.14,-23.68"/>
<polygon fill="#63b8ff" stroke="#63b8ff" points="353.78,-26.77 361.16,-19.17 350.65,-20.51 353.78,-26.77"/>
</a>
</g>
</g>
<!-- Node12 -->
<g id="Node000012" class="node">
<title>Node12</title>
<g id="a_Node000012"><a xlink:title=" ">
<polygon fill="#e0e0e0" stroke="#999999" points="53,-19 0,-19 0,0 53,0 53,-19"/>
<text text-anchor="middle" x="26.5" y="-7" font-family="Helvetica,sans-Serif" font-size="10.00">limits.h</text>
</a>
</g>
</g>
<!-- Node3&#45;&gt;Node12 -->
<g id="edge11_Node000003_Node000012" class="edge">
<title>Node3&#45;&gt;Node12</title>
<g id="a_edge11_Node000003_Node000012"><a xlink:title=" ">
<path fill="none" stroke="#63b8ff" d="M234.89,-55.8C194.79,-47.54 129.2,-33.84 62.99,-19.07"/>
<polygon fill="#63b8ff" stroke="#63b8ff" points="63.74,-15.65 53.22,-16.88 62.21,-22.48 63.74,-15.65"/>
</a>
</g>
</g>
<!-- Node13&#45;&gt;Node3 -->
<g id="edge13_Node000013_Node000003" class="edge">
<title>Node13&#45;&gt;Node3</title>
<g id="a_edge13_Node000013_Node000003"><a xlink:title=" ">
<path fill="none" stroke="#63b8ff" d="M674.15,-116.57C590.63,-107.53 447.2,-91.32 324.5,-74 323.2,-73.82 321.88,-73.63 320.56,-73.43"/>
<polygon fill="#63b8ff" stroke="#63b8ff" points="320.66,-69.91 310.24,-71.87 319.61,-76.83 320.66,-69.91"/>
</a>
</g>
</g>
<!-- Node13&#45;&gt;Node4 -->
<g id="edge23_Node000013_Node000004" class="edge">
<title>Node13&#45;&gt;Node4</title>
<g id="a_edge23_Node000013_Node000004"><a xlink:title=" ">
<path fill="none" stroke="#63b8ff" d="M814.68,-116.63C846.2,-110.03 881.78,-97.56 906.5,-74 918.82,-62.26 924.57,-43.41 927.23,-29.29"/>
<polygon fill="#63b8ff" stroke="#63b8ff" points="930.72,-29.63 928.77,-19.21 923.8,-28.57 930.72,-29.63"/>
</a>
</g>
</g>
<!-- Node13&#45;&gt;Node5 -->
<g id="edge21_Node000013_Node000005" class="edge">
<title>Node13&#45;&gt;Node5</title>
<g id="a_edge21_Node000013_Node000005"><a xlink:title=" ">
<path fill="none" stroke="#63b8ff" d="M814.57,-111.17C855.7,-100.48 895.63,-82.51 873.5,-55 853.04,-29.57 760.09,-17.86 707.35,-13.17"/>
<polygon fill="#63b8ff" stroke="#63b8ff" points="707.63,-9.69 697.37,-12.33 707.04,-16.66 707.63,-9.69"/>
</a>
</g>
</g>
<!-- Node13&#45;&gt;Node6 -->
<g id="edge22_Node000013_Node000006" class="edge">
<title>Node13&#45;&gt;Node6</title>
<g id="a_edge22_Node000013_Node000006"><a xlink:title=" ">
<path fill="none" stroke="#63b8ff" d="M814.56,-117.51C842.93,-111.04 873.05,-98.42 890.5,-74 905.19,-53.44 877.22,-34.96 851.97,-23.3"/>
<polygon fill="#63b8ff" stroke="#63b8ff" points="853.09,-19.97 842.52,-19.18 850.29,-26.39 853.09,-19.97"/>
</a>
</g>
</g>
<!-- Node13&#45;&gt;Node9 -->
<g id="edge17_Node000013_Node000009" class="edge">
<title>Node13&#45;&gt;Node9</title>
<g id="a_edge17_Node000013_Node000009"><a xlink:title=" ">
<path fill="none" stroke="#63b8ff" d="M674.33,-119.89C568.48,-112.95 378.05,-97.37 357.5,-74 336.31,-49.9 381.22,-30.28 415.18,-19.51"/>
<polygon fill="#63b8ff" stroke="#63b8ff" points="416.29,-22.83 424.84,-16.59 414.26,-16.13 416.29,-22.83"/>
</a>
</g>
</g>
<!-- Node14 -->
<g id="Node000014" class="node">
<title>Node14</title>
<g id="a_Node000014"><a xlink:href="signal__flag_8h.html" target="_top" xlink:title=" ">
<polygon fill="white" stroke="#666666" points="444.5,-74 366.5,-74 366.5,-55 444.5,-55 444.5,-74"/>
<text text-anchor="middle" x="405.5" y="-62" font-family="Helvetica,sans-Serif" font-size="10.00">signal_flag.h</text>
</a>
</g>
</g>
<!-- Node13&#45;&gt;Node14 -->
<g id="edge14_Node000013_Node000014" class="edge">
<title>Node13&#45;&gt;Node14</title>
<g id="a_edge14_Node000013_Node000014"><a xlink:title=" ">
<path fill="none" stroke="#63b8ff" d="M674.22,-112.03C617.57,-102.35 535.58,-88.3 454.42,-74.15"/>
<polygon fill="#63b8ff" stroke="#63b8ff" points="454.98,-70.7 444.53,-72.43 453.78,-77.59 454.98,-70.7"/>
</a>
</g>
</g>
<!-- Node15 -->
<g id="Node000015" class="node">
<title>Node15</title>
<g id="a_Node000015"><a xlink:title=" ">
<polygon fill="#e0e0e0" stroke="#999999" points="570.5,-74 462.5,-74 462.5,-55 570.5,-55 570.5,-74"/>
<text text-anchor="middle" x="516.5" y="-62" font-family="Helvetica,sans-Serif" font-size="10.00">readline/readline.h</text>
</a>
</g>
</g>
<!-- Node13&#45;&gt;Node15 -->
<g id="edge15_Node000013_Node000015" class="edge">
<title>Node13&#45;&gt;Node15</title>
<g id="a_edge15_Node000013_Node000015"><a xlink:title=" ">
<path fill="none" stroke="#63b8ff" d="M689.89,-109.99C650.03,-99.76 596.73,-86.09 559.8,-76.61"/>
<polygon fill="#63b8ff" stroke="#63b8ff" points="560.39,-73.15 549.84,-74.05 558.65,-79.93 560.39,-73.15"/>
</a>
</g>
</g>
<!-- Node16 -->
<g id="Node000016" class="node">
<title>Node16</title>
<g id="a_Node000016"><a xlink:title=" ">
<polygon fill="#e0e0e0" stroke="#999999" points="690,-74 589,-74 589,-55 690,-55 690,-74"/>
<text text-anchor="middle" x="639.5" y="-62" font-family="Helvetica,sans-Serif" font-size="10.00">readline/history.h</text>
</a>
</g>
</g>
<!-- Node13&#45;&gt;Node16 -->
<g id="edge16_Node000013_Node000016" class="edge">
<title>Node13&#45;&gt;Node16</title>
<g id="a_edge16_Node000013_Node000016"><a xlink:title=" ">
<path fill="none" stroke="#63b8ff" d="M719.35,-109.99C702.61,-100.66 680.73,-88.47 664.11,-79.21"/>
<polygon fill="#63b8ff" stroke="#63b8ff" points="665.45,-75.95 655.01,-74.14 662.04,-82.06 665.45,-75.95"/>
</a>
</g>
</g>
<!-- Node17 -->
<g id="Node000017" class="node">
<title>Node17</title>
<g id="a_Node000017"><a xlink:title=" ">
<polygon fill="#e0e0e0" stroke="#999999" points="780.5,-74 708.5,-74 708.5,-55 780.5,-55 780.5,-74"/>
<text text-anchor="middle" x="744.5" y="-62" font-family="Helvetica,sans-Serif" font-size="10.00">sys/types.h</text>
</a>
</g>
</g>
<!-- Node13&#45;&gt;Node17 -->
<g id="edge18_Node000013_Node000017" class="edge">
<title>Node13&#45;&gt;Node17</title>
<g id="a_edge18_Node000013_Node000017"><a xlink:title=" ">
<path fill="none" stroke="#63b8ff" d="M744.5,-109.84C744.5,-102.21 744.5,-92.7 744.5,-84.45"/>
<polygon fill="#63b8ff" stroke="#63b8ff" points="748,-84.27 744.5,-74.27 741,-84.27 748,-84.27"/>
</a>
</g>
</g>
<!-- Node18 -->
<g id="Node000018" class="node">
<title>Node18</title>
<g id="a_Node000018"><a xlink:title=" ">
<polygon fill="#e0e0e0" stroke="#999999" points="864.5,-74 798.5,-74 798.5,-55 864.5,-55 864.5,-74"/>
<text text-anchor="middle" x="831.5" y="-62" font-family="Helvetica,sans-Serif" font-size="10.00">sys/wait.h</text>
</a>
</g>
</g>
<!-- Node13&#45;&gt;Node18 -->
<g id="edge19_Node000013_Node000018" class="edge">
<title>Node13&#45;&gt;Node18</title>
<g id="a_edge19_Node000013_Node000018"><a xlink:title=" ">
<path fill="none" stroke="#63b8ff" d="M765.56,-109.84C779.04,-100.77 796.49,-89.04 810.05,-79.92"/>
<polygon fill="#63b8ff" stroke="#63b8ff" points="812.37,-82.58 818.72,-74.09 808.47,-76.77 812.37,-82.58"/>
</a>
</g>
</g>
<!-- Node13&#45;&gt;Node19 -->
<g id="edge20_Node000013_Node000019" class="edge">
<title>Node13&#45;&gt;Node19</title>
<g id="a_edge20_Node000013_Node000019"><a xlink:title=" ">
<path fill="none" stroke="#63b8ff" d="M812.29,-109.99C866.56,-98.77 940.9,-83.4 986.49,-73.98"/>
<polygon fill="#63b8ff" stroke="#63b8ff" points="987.24,-77.4 996.32,-71.95 985.82,-70.54 987.24,-77.4"/>
</a>
</g>
</g>
<!-- Node20&#45;&gt;Node13 -->
<g id="edge25_Node000020_Node000013" class="edge">
<title>Node20&#45;&gt;Node13</title>
<g id="a_edge25_Node000020_Node000013"><a xlink:title=" ">
<path fill="none" stroke="#63b8ff" d="M712.11,-175.87C716.74,-168.74 723.53,-158.28 729.7,-148.79"/>
<polygon fill="#63b8ff" stroke="#63b8ff" points="732.82,-150.41 735.33,-140.11 726.95,-146.59 732.82,-150.41"/>
</a>
</g>
</g>
</g>
</svg>
