<?xml version="1.0" encoding="UTF-8" standalone="no"?>
<!DOCTYPE svg PUBLIC "-//W3C//DTD SVG 1.1//EN"
 "http://www.w3.org/Graphics/SVG/1.1/DTD/svg11.dtd">
<!-- Generated by graphviz version 2.43.0 (0)
 -->
<!-- Title: ft_export Pages: 1 -->
<svg width="1066pt" height="591pt"
 viewBox="0.00 0.00 1066.00 590.80" xmlns="http://www.w3.org/2000/svg" xmlns:xlink="http://www.w3.org/1999/xlink">
<g id="graph0" class="graph" transform="scale(1 1) rotate(0) translate(4 586.8)">
<title>ft_export</title>
<!-- Node1 -->
<g id="Node000001" class="node">
<title>Node1</title>
<g id="a_Node000001"><a xlink:title="Main function handling the builtin export.">
<polygon fill="#999999" stroke="#666666" points="60,-212 0,-212 0,-193 60,-193 60,-212"/>
<text text-anchor="middle" x="30" y="-200" font-family="Helvetica,sans-Serif" font-size="10.00">ft_export</text>
</a>
</g>
</g>
<!-- Node2 -->
<g id="Node000002" class="node">
<title>Node2</title>
<g id="a_Node000002"><a xlink:href="free__functions_8c.html#a451c65e7c59e947c1880d1f75d866e3a" target="_top" xlink:title="Frees all resources associated with a list of pipes and the environment.">
<polygon fill="white" stroke="#666666" points="510,-530 430,-530 430,-511 510,-511 510,-530"/>
<text text-anchor="middle" x="470" y="-518" font-family="Helvetica,sans-Serif" font-size="10.00">free_all_pipe</text>
</a>
</g>
</g>
<!-- Node1&#45;&gt;Node2 -->
<g id="edge1_Node000001_Node000002" class="edge">
<title>Node1&#45;&gt;Node2</title>
<g id="a_edge1_Node000001_Node000002"><a xlink:title=" ">
<path fill="none" stroke="#63b8ff" d="M39.26,-212.22C51.09,-225.83 73.87,-250.99 96,-269.5 217.6,-371.18 380.99,-469.49 443.36,-505.79"/>
<polygon fill="#63b8ff" stroke="#63b8ff" points="441.74,-508.9 452.14,-510.88 445.25,-502.84 441.74,-508.9"/>
</a>
</g>
</g>
<!-- Node7 -->
<g id="Node000007" class="node">
<title>Node7</title>
<g id="a_Node000007"><a xlink:href="export_8c.html#a9dd6b5454cb0970f6577188835ebc291" target="_top" xlink:title="Handles the export command without arguments.">
<polygon fill="white" stroke="#666666" points="204.5,-212 100.5,-212 100.5,-193 204.5,-193 204.5,-212"/>
<text text-anchor="middle" x="152.5" y="-200" font-family="Helvetica,sans-Serif" font-size="10.00">ft_export_no_args</text>
</a>
</g>
</g>
<!-- Node1&#45;&gt;Node7 -->
<g id="edge7_Node000001_Node000007" class="edge">
<title>Node1&#45;&gt;Node7</title>
<g id="a_edge7_Node000001_Node000007"><a xlink:title=" ">
<path fill="none" stroke="#63b8ff" d="M60.17,-202.5C69.35,-202.5 79.87,-202.5 90.41,-202.5"/>
<polygon fill="#63b8ff" stroke="#63b8ff" points="90.49,-206 100.49,-202.5 90.49,-199 90.49,-206"/>
</a>
</g>
</g>
<!-- Node11 -->
<g id="Node000011" class="node">
<title>Node11</title>
<g id="a_Node000011"><a xlink:href="export_8c.html#a962491ce27455342a86cefa998c352fd" target="_top" xlink:title="Handles the export command with arguments.">
<polygon fill="white" stroke="#666666" points="209,-260 96,-260 96,-241 209,-241 209,-260"/>
<text text-anchor="middle" x="152.5" y="-248" font-family="Helvetica,sans-Serif" font-size="10.00">ft_export_with_args</text>
</a>
</g>
</g>
<!-- Node1&#45;&gt;Node11 -->
<g id="edge11_Node000001_Node000011" class="edge">
<title>Node1&#45;&gt;Node11</title>
<g id="a_edge11_Node000001_Node000011"><a xlink:title=" ">
<path fill="none" stroke="#63b8ff" d="M55.1,-212.1C73.16,-219.29 98.1,-229.23 118.08,-237.19"/>
<polygon fill="#63b8ff" stroke="#63b8ff" points="116.86,-240.47 127.45,-240.92 119.45,-233.97 116.86,-240.47"/>
</a>
</g>
</g>
<!-- Node33 -->
<g id="Node000033" class="node">
<title>Node33</title>
<g id="a_Node000033"><a xlink:href="utils__fd_8c.html#a184b4852a6ca5544cc056e7a8e20e4ad" target="_top" xlink:title="Handles opening and validating file descriptors for command input/output.">
<polygon fill="white" stroke="#666666" points="181,-157 124,-157 124,-138 181,-138 181,-157"/>
<text text-anchor="middle" x="152.5" y="-145" font-family="Helvetica,sans-Serif" font-size="10.00">ft_for_fd</text>
</a>
</g>
</g>
<!-- Node1&#45;&gt;Node33 -->
<g id="edge42_Node000001_Node000033" class="edge">
<title>Node1&#45;&gt;Node33</title>
<g id="a_edge42_Node000001_Node000033"><a xlink:title=" ">
<path fill="none" stroke="#63b8ff" d="M51.99,-192.92C71.05,-184.22 99.4,-171.28 120.97,-161.43"/>
<polygon fill="#63b8ff" stroke="#63b8ff" points="122.7,-164.49 130.35,-157.16 119.8,-158.12 122.7,-164.49"/>
</a>
</g>
</g>
<!-- Node37 -->
<g id="Node000037" class="node">
<title>Node37</title>
<g id="a_Node000037"><a xlink:href="utils__pipes_8c.html#aa5bc406fd1d5aadd2018c5c2061d31ba" target="_top" xlink:title="Restores the previously duplicated standard input.">
<polygon fill="white" stroke="#666666" points="191,-120 114,-120 114,-101 191,-101 191,-120"/>
<text text-anchor="middle" x="152.5" y="-108" font-family="Helvetica,sans-Serif" font-size="10.00">restore_sdin</text>
</a>
</g>
</g>
<!-- Node1&#45;&gt;Node37 -->
<g id="edge47_Node000001_Node000037" class="edge">
<title>Node1&#45;&gt;Node37</title>
<g id="a_edge47_Node000001_Node000037"><a xlink:title=" ">
<path fill="none" stroke="#63b8ff" d="M37.36,-192.53C47.79,-176.93 70,-146.78 96,-129.5 98.93,-127.55 102.08,-125.78 105.34,-124.18"/>
<polygon fill="#63b8ff" stroke="#63b8ff" points="106.94,-127.3 114.71,-120.1 104.14,-120.89 106.94,-127.3"/>
</a>
</g>
</g>
<!-- Node3 -->
<g id="Node000003" class="node">
<title>Node3</title>
<g id="a_Node000003"><a xlink:href="free__functions_8c.html#a32c72055f1119062342fcdf42527c05c" target="_top" xlink:title="Frees a list of commands.">
<polygon fill="white" stroke="#666666" points="632,-567 570,-567 570,-548 632,-548 632,-567"/>
<text text-anchor="middle" x="601" y="-555" font-family="Helvetica,sans-Serif" font-size="10.00">free_cmd</text>
</a>
</g>
</g>
<!-- Node2&#45;&gt;Node3 -->
<g id="edge2_Node000002_Node000003" class="edge">
<title>Node2&#45;&gt;Node3</title>
<g id="a_edge2_Node000002_Node000003"><a xlink:title=" ">
<path fill="none" stroke="#63b8ff" d="M504.22,-530.03C521.35,-534.94 542.37,-540.97 560.35,-546.13"/>
<polygon fill="#63b8ff" stroke="#63b8ff" points="559.4,-549.5 569.98,-548.89 561.33,-542.77 559.4,-549.5"/>
</a>
</g>
</g>
<!-- Node4 -->
<g id="Node000004" class="node">
<title>Node4</title>
<g id="a_Node000004"><a xlink:href="ft__free__matrix_8c.html#a1ea6d1f3b50d1c23d4f0faddd1a13448" target="_top" xlink:title="Frees a NULL&#45;terminated matrix of strings.">
<polygon fill="white" stroke="#666666" points="766,-567 680,-567 680,-548 766,-548 766,-567"/>
<text text-anchor="middle" x="723" y="-555" font-family="Helvetica,sans-Serif" font-size="10.00">ft_free_matrix</text>
</a>
</g>
</g>
<!-- Node2&#45;&gt;Node4 -->
<g id="edge6_Node000002_Node000004" class="edge">
<title>Node2&#45;&gt;Node4</title>
<g id="a_edge6_Node000002_Node000004"><a xlink:title=" ">
<path fill="none" stroke="#63b8ff" d="M481.51,-530.19C496.91,-543.67 527.15,-567.43 558,-576.5 600.49,-588.99 651.43,-579.48 685.15,-569.98"/>
<polygon fill="#63b8ff" stroke="#63b8ff" points="686.43,-573.25 695.03,-567.06 684.45,-566.54 686.43,-573.25"/>
</a>
</g>
</g>
<!-- Node5 -->
<g id="Node000005" class="node">
<title>Node5</title>
<g id="a_Node000005"><a xlink:href="free__functions_8c.html#a87de2a27d0e0e99f3de0b477731181e0" target="_top" xlink:title="Frees a list of pipes.">
<polygon fill="white" stroke="#666666" points="632,-530 570,-530 570,-511 632,-511 632,-530"/>
<text text-anchor="middle" x="601" y="-518" font-family="Helvetica,sans-Serif" font-size="10.00">free_pipe</text>
</a>
</g>
</g>
<!-- Node2&#45;&gt;Node5 -->
<g id="edge4_Node000002_Node000005" class="edge">
<title>Node2&#45;&gt;Node5</title>
<g id="a_edge4_Node000002_Node000005"><a xlink:title=" ">
<path fill="none" stroke="#63b8ff" d="M510.05,-520.5C525.75,-520.5 543.84,-520.5 559.66,-520.5"/>
<polygon fill="#63b8ff" stroke="#63b8ff" points="559.68,-524 569.68,-520.5 559.68,-517 559.68,-524"/>
</a>
</g>
</g>
<!-- Node6 -->
<g id="Node000006" class="node">
<title>Node6</title>
<g id="a_Node000006"><a xlink:href="free__functions_8c.html#a4f32f08947270b8aec54f43ddd8b02d4" target="_top" xlink:title="Frees a list of tokens.">
<polygon fill="white" stroke="#666666" points="635,-493 567,-493 567,-474 635,-474 635,-493"/>
<text text-anchor="middle" x="601" y="-481" font-family="Helvetica,sans-Serif" font-size="10.00">free_token</text>
</a>
</g>
</g>
<!-- Node2&#45;&gt;Node6 -->
<g id="edge5_Node000002_Node000006" class="edge">
<title>Node2&#45;&gt;Node6</title>
<g id="a_edge5_Node000002_Node000006"><a xlink:title=" ">
<path fill="none" stroke="#63b8ff" d="M504.22,-510.97C520.32,-506.35 539.85,-500.75 557.07,-495.81"/>
<polygon fill="#63b8ff" stroke="#63b8ff" points="558.24,-499.12 566.89,-493 556.31,-492.39 558.24,-499.12"/>
</a>
</g>
</g>
<!-- Node3&#45;&gt;Node4 -->
<g id="edge3_Node000003_Node000004" class="edge">
<title>Node3&#45;&gt;Node4</title>
<g id="a_edge3_Node000003_Node000004"><a xlink:title=" ">
<path fill="none" stroke="#63b8ff" d="M632.28,-557.5C643.68,-557.5 656.99,-557.5 669.81,-557.5"/>
<polygon fill="#63b8ff" stroke="#63b8ff" points="669.95,-561 679.95,-557.5 669.95,-554 669.95,-561"/>
</a>
</g>
</g>
<!-- Node8 -->
<g id="Node000008" class="node">
<title>Node8</title>
<g id="a_Node000008"><a xlink:href="utils__export__unset_8c.html#aa08bca6e18fd1b1686a244acf72ed2c6" target="_top" xlink:title="Sorts an array of strings (environment variables) in lexicographical (alphabetical) order.">
<polygon fill="white" stroke="#666666" points="355,-194 272,-194 272,-175 355,-175 355,-194"/>
<text text-anchor="middle" x="313.5" y="-182" font-family="Helvetica,sans-Serif" font-size="10.00">ft_env_sorted</text>
</a>
</g>
</g>
<!-- Node7&#45;&gt;Node8 -->
<g id="edge8_Node000007_Node000008" class="edge">
<title>Node7&#45;&gt;Node8</title>
<g id="a_edge8_Node000007_Node000008"><a xlink:title=" ">
<path fill="none" stroke="#63b8ff" d="M204.68,-196.71C222.98,-194.63 243.58,-192.3 261.84,-190.24"/>
<polygon fill="#63b8ff" stroke="#63b8ff" points="262.45,-193.69 271.99,-189.09 261.66,-186.73 262.45,-193.69"/>
</a>
</g>
</g>
<!-- Node10 -->
<g id="Node000010" class="node">
<title>Node10</title>
<g id="a_Node000010"><a xlink:href="export_8c.html#a8c162dea9179b442efcee728f20d668e" target="_top" xlink:title="Helper function that prints a single exported variable formatted as &quot;declare &#45;x VAR=&quot;value&quot;&quot; if the v...">
<polygon fill="white" stroke="#666666" points="350.5,-231 276.5,-231 276.5,-212 350.5,-212 350.5,-231"/>
<text text-anchor="middle" x="313.5" y="-219" font-family="Helvetica,sans-Serif" font-size="10.00">ft_too_write</text>
</a>
</g>
</g>
<!-- Node7&#45;&gt;Node10 -->
<g id="edge10_Node000007_Node000010" class="edge">
<title>Node7&#45;&gt;Node10</title>
<g id="a_edge10_Node000007_Node000010"><a xlink:title=" ">
<path fill="none" stroke="#63b8ff" d="M204.68,-208.62C224.38,-210.97 246.75,-213.64 265.99,-215.94"/>
<polygon fill="#63b8ff" stroke="#63b8ff" points="265.68,-219.43 276.02,-217.14 266.51,-212.48 265.68,-219.43"/>
</a>
</g>
</g>
<!-- Node9 -->
<g id="Node000009" class="node">
<title>Node9</title>
<g id="a_Node000009"><a xlink:href="ft__strcmp_8c.html#a1f2ff2312e5994560c9537cd9173be94" target="_top" xlink:title="Compares two null&#45;terminated strings lexicographically.">
<polygon fill="white" stroke="#666666" points="501,-156 439,-156 439,-137 501,-137 501,-156"/>
<text text-anchor="middle" x="470" y="-144" font-family="Helvetica,sans-Serif" font-size="10.00">ft_strcmp</text>
</a>
</g>
</g>
<!-- Node8&#45;&gt;Node9 -->
<g id="edge9_Node000008_Node000009" class="edge">
<title>Node8&#45;&gt;Node9</title>
<g id="a_edge9_Node000008_Node000009"><a xlink:title=" ">
<path fill="none" stroke="#63b8ff" d="M353.49,-174.91C376.54,-169.24 405.67,-162.08 428.91,-156.36"/>
<polygon fill="#63b8ff" stroke="#63b8ff" points="429.92,-159.72 438.8,-153.93 428.25,-152.92 429.92,-159.72"/>
</a>
</g>
</g>
<!-- Node12 -->
<g id="Node000012" class="node">
<title>Node12</title>
<g id="a_Node000012"><a xlink:href="export_8c.html#aa1462300aee0c9091833b58ece6c6506" target="_top" xlink:title="Executes export on a single argument.">
<polygon fill="white" stroke="#666666" points="355,-270 272,-270 272,-251 355,-251 355,-270"/>
<text text-anchor="middle" x="313.5" y="-258" font-family="Helvetica,sans-Serif" font-size="10.00">ft_exe_export</text>
</a>
</g>
</g>
<!-- Node11&#45;&gt;Node12 -->
<g id="edge12_Node000011_Node000012" class="edge">
<title>Node11&#45;&gt;Node12</title>
<g id="a_edge12_Node000011_Node000012"><a xlink:title=" ">
<path fill="none" stroke="#63b8ff" d="M209.11,-254C226.17,-255.07 244.84,-256.24 261.57,-257.3"/>
<polygon fill="#63b8ff" stroke="#63b8ff" points="261.5,-260.8 271.7,-257.93 261.94,-253.81 261.5,-260.8"/>
</a>
</g>
</g>
<!-- Node13 -->
<g id="Node000013" class="node">
<title>Node13</title>
<g id="a_Node000013"><a xlink:href="utils__export__unset_8c.html#a816ee6b26fbb9862373621ed0f57245f" target="_top" xlink:title="Adds a new variable to the environment (env&#45;&gt;env_copy).">
<polygon fill="white" stroke="#666666" points="504,-270 436,-270 436,-251 504,-251 504,-270"/>
<text text-anchor="middle" x="470" y="-258" font-family="Helvetica,sans-Serif" font-size="10.00">ft_add_var</text>
</a>
</g>
</g>
<!-- Node12&#45;&gt;Node13 -->
<g id="edge13_Node000012_Node000013" class="edge">
<title>Node12&#45;&gt;Node13</title>
<g id="a_edge13_Node000012_Node000013"><a xlink:title=" ">
<path fill="none" stroke="#63b8ff" d="M355.09,-260.5C376.86,-260.5 403.68,-260.5 425.82,-260.5"/>
<polygon fill="#63b8ff" stroke="#63b8ff" points="425.96,-264 435.96,-260.5 425.96,-257 425.96,-264"/>
</a>
</g>
</g>
<!-- Node14 -->
<g id="Node000014" class="node">
<title>Node14</title>
<g id="a_Node000014"><a xlink:href="ft__printf_8c.html#a091532b7f37af84bdecc84dccf4eedb1" target="_top" xlink:title="A simplified printf function that outputs formatted data to a given file descriptor.">
<polygon fill="white" stroke="#666666" points="628.5,-194 573.5,-194 573.5,-175 628.5,-175 628.5,-194"/>
<text text-anchor="middle" x="601" y="-182" font-family="Helvetica,sans-Serif" font-size="10.00">ft_printf</text>
</a>
</g>
</g>
<!-- Node12&#45;&gt;Node14 -->
<g id="edge37_Node000012_Node000014" class="edge">
<title>Node12&#45;&gt;Node14</title>
<g id="a_edge37_Node000012_Node000014"><a xlink:title=" ">
<path fill="none" stroke="#63b8ff" d="M355.29,-251.55C364.39,-248.7 373.77,-245.07 382,-240.5 400.71,-230.1 398.53,-217.4 418,-208.5 464.89,-187.06 525.21,-183.13 563.25,-183.15"/>
<polygon fill="#63b8ff" stroke="#63b8ff" points="563.32,-186.65 573.36,-183.24 563.39,-179.65 563.32,-186.65"/>
</a>
</g>
</g>
<!-- Node25 -->
<g id="Node000025" class="node">
<title>Node25</title>
<g id="a_Node000025"><a xlink:href="ft__strdup_8c.html#aebe73f27c70c56ac5053f860ef5436c9" target="_top" xlink:title="Duplicates a null&#45;terminated string by allocating memory.">
<polygon fill="white" stroke="#666666" points="752.5,-270 693.5,-270 693.5,-251 752.5,-251 752.5,-270"/>
<text text-anchor="middle" x="723" y="-258" font-family="Helvetica,sans-Serif" font-size="10.00">ft_strdup</text>
</a>
</g>
</g>
<!-- Node12&#45;&gt;Node25 -->
<g id="edge38_Node000012_Node000025" class="edge">
<title>Node12&#45;&gt;Node25</title>
<g id="a_edge38_Node000012_Node000025"><a xlink:title=" ">
<path fill="none" stroke="#63b8ff" d="M355.09,-251.77C374.1,-248.12 397.1,-244.3 418,-242.5 513.21,-234.28 625.52,-246.64 683.32,-254.62"/>
<polygon fill="#63b8ff" stroke="#63b8ff" points="683.07,-258.12 693.46,-256.05 684.05,-251.19 683.07,-258.12"/>
</a>
</g>
</g>
<!-- Node26 -->
<g id="Node000026" class="node">
<title>Node26</title>
<g id="a_Node000026"><a xlink:href="utils__export__unset_8c.html#ae98ae22050772236584199cd8f27783d" target="_top" xlink:title="Searches for a variable to export in the environment.">
<polygon fill="white" stroke="#666666" points="522,-419 418,-419 418,-400 522,-400 522,-419"/>
<text text-anchor="middle" x="470" y="-407" font-family="Helvetica,sans-Serif" font-size="10.00">ft_find_export_var</text>
</a>
</g>
</g>
<!-- Node12&#45;&gt;Node26 -->
<g id="edge33_Node000012_Node000026" class="edge">
<title>Node12&#45;&gt;Node26</title>
<g id="a_edge33_Node000012_Node000026"><a xlink:title=" ">
<path fill="none" stroke="#63b8ff" d="M355.08,-268.8C364.81,-272.34 374.53,-277.37 382,-284.5 412.57,-313.67 391.9,-339.27 418,-372.5 424.69,-381.02 433.83,-388.48 442.53,-394.43"/>
<polygon fill="#63b8ff" stroke="#63b8ff" points="440.67,-397.39 450.97,-399.86 444.45,-391.51 440.67,-397.39"/>
</a>
</g>
</g>
<!-- Node29 -->
<g id="Node000029" class="node">
<title>Node29</title>
<g id="a_Node000029"><a xlink:href="ft__isspace_8c.html#ac7978b309e3e11366ba16643e447528c" target="_top" xlink:title="Checks whether a character is a whitespace character.">
<polygon fill="white" stroke="#666666" points="502.5,-363 437.5,-363 437.5,-344 502.5,-344 502.5,-363"/>
<text text-anchor="middle" x="470" y="-351" font-family="Helvetica,sans-Serif" font-size="10.00">ft_isspace</text>
</a>
</g>
</g>
<!-- Node12&#45;&gt;Node29 -->
<g id="edge36_Node000012_Node000029" class="edge">
<title>Node12&#45;&gt;Node29</title>
<g id="a_edge36_Node000012_Node000029"><a xlink:title=" ">
<path fill="none" stroke="#63b8ff" d="M354.05,-270.02C363.79,-273.55 373.77,-278.26 382,-284.5 404.11,-301.27 395.87,-318.76 418,-335.5 421.02,-337.79 424.36,-339.8 427.84,-341.57"/>
<polygon fill="#63b8ff" stroke="#63b8ff" points="426.69,-344.89 437.26,-345.7 429.51,-338.48 426.69,-344.89"/>
</a>
</g>
</g>
<!-- Node30 -->
<g id="Node000030" class="node">
<title>Node30</title>
<g id="a_Node000030"><a xlink:href="utils__export__unset_8c.html#a054fceec4fb7c4bdd5f9d5d958d1b535" target="_top" xlink:title="Checks if a string is a valid identifier for environment variables.">
<polygon fill="white" stroke="#666666" points="521.5,-326 418.5,-326 418.5,-307 521.5,-307 521.5,-326"/>
<text text-anchor="middle" x="470" y="-314" font-family="Helvetica,sans-Serif" font-size="10.00">is_valid_identifier</text>
</a>
</g>
</g>
<!-- Node12&#45;&gt;Node30 -->
<g id="edge39_Node000012_Node000030" class="edge">
<title>Node12&#45;&gt;Node30</title>
<g id="a_edge39_Node000012_Node000030"><a xlink:title=" ">
<path fill="none" stroke="#63b8ff" d="M341.46,-270.01C353.82,-274.39 368.67,-279.68 382,-284.5 399.04,-290.66 417.93,-297.6 433.74,-303.43"/>
<polygon fill="#63b8ff" stroke="#63b8ff" points="432.55,-306.72 443.14,-306.91 434.97,-300.16 432.55,-306.72"/>
</a>
</g>
</g>
<!-- Node13&#45;&gt;Node14 -->
<g id="edge14_Node000013_Node000014" class="edge">
<title>Node13&#45;&gt;Node14</title>
<g id="a_edge14_Node000013_Node000014"><a xlink:title=" ">
<path fill="none" stroke="#63b8ff" d="M487.34,-250.87C509.44,-237.85 549.06,-214.51 574.94,-199.26"/>
<polygon fill="#63b8ff" stroke="#63b8ff" points="576.96,-202.14 583.79,-194.05 573.4,-196.11 576.96,-202.14"/>
</a>
</g>
</g>
<!-- Node24 -->
<g id="Node000024" class="node">
<title>Node24</title>
<g id="a_Node000024"><a xlink:href="ft__realloc_8c.html#a9614b2d66dc188037d9d5144c4f63af5" target="_top" xlink:title="Reallocates a NULL&#45;terminated matrix of strings to a new size.">
<polygon fill="white" stroke="#666666" points="644,-308 558,-308 558,-289 644,-289 644,-308"/>
<text text-anchor="middle" x="601" y="-296" font-family="Helvetica,sans-Serif" font-size="10.00">ft_realloc_mtx</text>
</a>
</g>
</g>
<!-- Node13&#45;&gt;Node24 -->
<g id="edge29_Node000013_Node000024" class="edge">
<title>Node13&#45;&gt;Node24</title>
<g id="a_edge29_Node000013_Node000024"><a xlink:title=" ">
<path fill="none" stroke="#63b8ff" d="M503.55,-270.09C519.9,-274.9 539.91,-280.8 557.46,-285.97"/>
<polygon fill="#63b8ff" stroke="#63b8ff" points="556.88,-289.45 567.46,-288.91 558.85,-282.73 556.88,-289.45"/>
</a>
</g>
</g>
<!-- Node13&#45;&gt;Node25 -->
<g id="edge32_Node000013_Node000025" class="edge">
<title>Node13&#45;&gt;Node25</title>
<g id="a_edge32_Node000013_Node000025"><a xlink:title=" ">
<path fill="none" stroke="#63b8ff" d="M504.07,-260.5C550.21,-260.5 633.74,-260.5 682.9,-260.5"/>
<polygon fill="#63b8ff" stroke="#63b8ff" points="683.14,-264 693.14,-260.5 683.14,-257 683.14,-264"/>
</a>
</g>
</g>
<!-- Node15 -->
<g id="Node000015" class="node">
<title>Node15</title>
<g id="a_Node000015"><a xlink:href="ft__printf_8c.html#a80c1c206dcd33d07c265581878aaa300" target="_top" xlink:title="Processes a single format specifier and prints the corresponding argument.">
<polygon fill="white" stroke="#666666" points="764.5,-148 681.5,-148 681.5,-129 764.5,-129 764.5,-148"/>
<text text-anchor="middle" x="723" y="-136" font-family="Helvetica,sans-Serif" font-size="10.00">check_format</text>
</a>
</g>
</g>
<!-- Node14&#45;&gt;Node15 -->
<g id="edge15_Node000014_Node000015" class="edge">
<title>Node14&#45;&gt;Node15</title>
<g id="a_edge15_Node000014_Node000015"><a xlink:title=" ">
<path fill="none" stroke="#63b8ff" d="M626.86,-174.97C644.48,-168.22 668.34,-159.07 687.76,-151.63"/>
<polygon fill="#63b8ff" stroke="#63b8ff" points="689.08,-154.87 697.17,-148.02 686.58,-148.33 689.08,-154.87"/>
</a>
</g>
</g>
<!-- Node19 -->
<g id="Node000019" class="node">
<title>Node19</title>
<g id="a_Node000019"><a xlink:href="ft__putchar__fd_8c.html#a03ef80b25dc4a521379fa92ad97bad21" target="_top" xlink:title="Writes a single character to the specified file descriptor.">
<polygon fill="white" stroke="#666666" points="897,-240 817,-240 817,-221 897,-221 897,-240"/>
<text text-anchor="middle" x="857" y="-228" font-family="Helvetica,sans-Serif" font-size="10.00">ft_putchar_fd</text>
</a>
</g>
</g>
<!-- Node14&#45;&gt;Node19 -->
<g id="edge28_Node000014_Node000019" class="edge">
<title>Node14&#45;&gt;Node19</title>
<g id="a_edge28_Node000014_Node000019"><a xlink:title=" ">
<path fill="none" stroke="#63b8ff" d="M628.7,-189.34C670.94,-196.99 753.82,-212 806.97,-221.62"/>
<polygon fill="#63b8ff" stroke="#63b8ff" points="806.4,-225.07 816.86,-223.41 807.65,-218.19 806.4,-225.07"/>
</a>
</g>
</g>
<!-- Node16 -->
<g id="Node000016" class="node">
<title>Node16</title>
<g id="a_Node000016"><a xlink:href="ft__forpointer_8c.html#a8e02c77b80406af72327ebf71f537786" target="_top" xlink:title="Prints a pointer in hexadecimal format prefixed with &quot;0x&quot;.">
<polygon fill="white" stroke="#666666" points="895.5,-74 818.5,-74 818.5,-55 895.5,-55 895.5,-74"/>
<text text-anchor="middle" x="857" y="-62" font-family="Helvetica,sans-Serif" font-size="10.00">ft_forpointer</text>
</a>
</g>
</g>
<!-- Node15&#45;&gt;Node16 -->
<g id="edge16_Node000015_Node000016" class="edge">
<title>Node15&#45;&gt;Node16</title>
<g id="a_edge16_Node000015_Node000016"><a xlink:title=" ">
<path fill="none" stroke="#63b8ff" d="M735.18,-128.79C749.72,-116.58 776.32,-95.62 802,-82.5 805.37,-80.78 808.93,-79.17 812.56,-77.68"/>
<polygon fill="#63b8ff" stroke="#63b8ff" points="814.12,-80.83 822.23,-74.01 811.64,-74.29 814.12,-80.83"/>
</a>
</g>
</g>
<!-- Node18 -->
<g id="Node000018" class="node">
<title>Node18</title>
<g id="a_Node000018"><a xlink:href="ft__hexadecimal_8c.html#a39c845e0a4286d3ac1e04c1e64ac734b" target="_top" xlink:title="Prints an unsigned integer in hexadecimal format.">
<polygon fill="white" stroke="#666666" points="903,-19 811,-19 811,0 903,0 903,-19"/>
<text text-anchor="middle" x="857" y="-7" font-family="Helvetica,sans-Serif" font-size="10.00">ft_hexadecimal</text>
</a>
</g>
</g>
<!-- Node15&#45;&gt;Node18 -->
<g id="edge19_Node000015_Node000018" class="edge">
<title>Node15&#45;&gt;Node18</title>
<g id="a_edge19_Node000015_Node000018"><a xlink:title=" ">
<path fill="none" stroke="#63b8ff" d="M730.73,-128.75C743.36,-110.91 772.02,-72.35 802,-45.5 810.65,-37.75 821.09,-30.41 830.47,-24.4"/>
<polygon fill="#63b8ff" stroke="#63b8ff" points="832.4,-27.32 839.05,-19.08 828.71,-21.37 832.4,-27.32"/>
</a>
</g>
</g>
<!-- Node15&#45;&gt;Node19 -->
<g id="edge21_Node000015_Node000019" class="edge">
<title>Node15&#45;&gt;Node19</title>
<g id="a_edge21_Node000015_Node000019"><a xlink:title=" ">
<path fill="none" stroke="#63b8ff" d="M731.63,-148.07C744.54,-163.67 772.23,-194.64 802,-212.5 804.67,-214.1 807.5,-215.58 810.41,-216.94"/>
<polygon fill="#63b8ff" stroke="#63b8ff" points="809.3,-220.27 819.87,-220.91 812,-213.82 809.3,-220.27"/>
</a>
</g>
</g>
<!-- Node20 -->
<g id="Node000020" class="node">
<title>Node20</title>
<g id="a_Node000020"><a xlink:href="ft__putnbr__fd_8c.html#a1554101ee350c316340c78e19faddaa8" target="_top" xlink:title="Writes an integer to a given file descriptor.">
<polygon fill="white" stroke="#666666" points="894.5,-185 819.5,-185 819.5,-166 894.5,-166 894.5,-185"/>
<text text-anchor="middle" x="857" y="-173" font-family="Helvetica,sans-Serif" font-size="10.00">ft_putnbr_fd</text>
</a>
</g>
</g>
<!-- Node15&#45;&gt;Node20 -->
<g id="edge22_Node000015_Node000020" class="edge">
<title>Node15&#45;&gt;Node20</title>
<g id="a_edge22_Node000015_Node000020"><a xlink:title=" ">
<path fill="none" stroke="#63b8ff" d="M757.99,-148.03C774.34,-152.61 794.14,-158.16 811.66,-163.07"/>
<polygon fill="#63b8ff" stroke="#63b8ff" points="811.09,-166.55 821.66,-165.88 812.98,-159.81 811.09,-166.55"/>
</a>
</g>
</g>
<!-- Node21 -->
<g id="Node000021" class="node">
<title>Node21</title>
<g id="a_Node000021"><a xlink:href="ft__putstr__fd_8c.html#a00b0638f31a75c7a30f77f33888bfb73" target="_top" xlink:title="Writes a null&#45;terminated string to the specified file descriptor.">
<polygon fill="white" stroke="#666666" points="893,-148 821,-148 821,-129 893,-129 893,-148"/>
<text text-anchor="middle" x="857" y="-136" font-family="Helvetica,sans-Serif" font-size="10.00">ft_putstr_fd</text>
</a>
</g>
</g>
<!-- Node15&#45;&gt;Node21 -->
<g id="edge24_Node000015_Node000021" class="edge">
<title>Node15&#45;&gt;Node21</title>
<g id="a_edge24_Node000015_Node000021"><a xlink:title=" ">
<path fill="none" stroke="#63b8ff" d="M764.68,-138.5C779.21,-138.5 795.66,-138.5 810.56,-138.5"/>
<polygon fill="#63b8ff" stroke="#63b8ff" points="810.59,-142 820.59,-138.5 810.59,-135 810.59,-142"/>
</a>
</g>
</g>
<!-- Node22 -->
<g id="Node000022" class="node">
<title>Node22</title>
<g id="a_Node000022"><a xlink:href="ft__unsigned__putnbr_8c.html#af9a70f8607b40cf2a7706f9d3725b549" target="_top" xlink:title="Writes an unsigned integer to the given file descriptor.">
<polygon fill="white" stroke="#666666" points="912,-111 802,-111 802,-92 912,-92 912,-111"/>
<text text-anchor="middle" x="857" y="-99" font-family="Helvetica,sans-Serif" font-size="10.00">ft_unsigned_putnbr</text>
</a>
</g>
</g>
<!-- Node15&#45;&gt;Node22 -->
<g id="edge25_Node000015_Node000022" class="edge">
<title>Node15&#45;&gt;Node22</title>
<g id="a_edge25_Node000015_Node000022"><a xlink:title=" ">
<path fill="none" stroke="#63b8ff" d="M757.99,-128.97C774.34,-124.39 794.14,-118.84 811.66,-113.93"/>
<polygon fill="#63b8ff" stroke="#63b8ff" points="812.98,-117.19 821.66,-111.12 811.09,-110.45 812.98,-117.19"/>
</a>
</g>
</g>
<!-- Node17 -->
<g id="Node000017" class="node">
<title>Node17</title>
<g id="a_Node000017"><a xlink:href="ft__forpointer_8c.html#aded1bf735c8a10e47396170d27c5b6aa" target="_top" xlink:title="Recursively prints a memory address in hexadecimal format.">
<polygon fill="white" stroke="#666666" points="1058,-65 948,-65 948,-46 1058,-46 1058,-65"/>
<text text-anchor="middle" x="1003" y="-53" font-family="Helvetica,sans-Serif" font-size="10.00">ft_ricorsive_pointer</text>
</a>
</g>
</g>
<!-- Node16&#45;&gt;Node17 -->
<g id="edge17_Node000016_Node000017" class="edge">
<title>Node16&#45;&gt;Node17</title>
<g id="a_edge17_Node000016_Node000017"><a xlink:title=" ">
<path fill="none" stroke="#63b8ff" d="M895.83,-62.14C908.64,-61.33 923.33,-60.42 937.61,-59.52"/>
<polygon fill="#63b8ff" stroke="#63b8ff" points="938.14,-63 947.9,-58.88 937.7,-56.01 938.14,-63"/>
</a>
</g>
</g>
<!-- Node17&#45;&gt;Node17 -->
<g id="edge18_Node000017_Node000017" class="edge">
<title>Node17&#45;&gt;Node17</title>
<g id="a_edge18_Node000017_Node000017"><a xlink:title=" ">
<path fill="none" stroke="#63b8ff" d="M980.5,-65.08C969.55,-73.73 977.05,-83 1003,-83 1019.62,-83 1028.68,-79.2 1030.16,-74.19"/>
<polygon fill="#63b8ff" stroke="#63b8ff" points="1033.17,-72.39 1025.5,-65.08 1026.94,-75.58 1033.17,-72.39"/>
</a>
</g>
</g>
<!-- Node18&#45;&gt;Node18 -->
<g id="edge20_Node000018_Node000018" class="edge">
<title>Node18&#45;&gt;Node18</title>
<g id="a_edge20_Node000018_Node000018"><a xlink:title=" ">
<path fill="none" stroke="#63b8ff" d="M836.35,-19.08C826.3,-27.73 833.18,-37 857,-37 872.26,-37 880.57,-33.2 881.93,-28.19"/>
<polygon fill="#63b8ff" stroke="#63b8ff" points="885.07,-26.65 877.65,-19.08 878.73,-29.62 885.07,-26.65"/>
</a>
</g>
</g>
<!-- Node20&#45;&gt;Node20 -->
<g id="edge23_Node000020_Node000020" class="edge">
<title>Node20&#45;&gt;Node20</title>
<g id="a_edge23_Node000020_Node000020"><a xlink:title=" ">
<path fill="none" stroke="#63b8ff" d="M836.35,-185.08C826.3,-193.73 833.18,-203 857,-203 872.26,-203 880.57,-199.2 881.93,-194.19"/>
<polygon fill="#63b8ff" stroke="#63b8ff" points="885.07,-192.65 877.65,-185.08 878.73,-195.62 885.07,-192.65"/>
</a>
</g>
</g>
<!-- Node23 -->
<g id="Node000023" class="node">
<title>Node23</title>
<g id="a_Node000023"><a xlink:href="ft__putnbr_8c.html#a2e51f80c9e46e52f4adf94617fb51ada" target="_top" xlink:title="Writes an integer to the standard output (stdout).">
<polygon fill="white" stroke="#666666" points="1033,-120 973,-120 973,-101 1033,-101 1033,-120"/>
<text text-anchor="middle" x="1003" y="-108" font-family="Helvetica,sans-Serif" font-size="10.00">ft_putnbr</text>
</a>
</g>
</g>
<!-- Node22&#45;&gt;Node23 -->
<g id="edge26_Node000022_Node000023" class="edge">
<title>Node22&#45;&gt;Node23</title>
<g id="a_edge26_Node000022_Node000023"><a xlink:title=" ">
<path fill="none" stroke="#63b8ff" d="M912.03,-104.88C928.76,-105.92 946.87,-107.05 962.43,-108.03"/>
<polygon fill="#63b8ff" stroke="#63b8ff" points="962.55,-111.54 972.74,-108.67 962.98,-104.55 962.55,-111.54"/>
</a>
</g>
</g>
<!-- Node23&#45;&gt;Node23 -->
<g id="edge27_Node000023_Node000023" class="edge">
<title>Node23&#45;&gt;Node23</title>
<g id="a_edge27_Node000023_Node000023"><a xlink:title=" ">
<path fill="none" stroke="#63b8ff" d="M980.5,-120.08C969.55,-128.73 977.05,-138 1003,-138 1019.62,-138 1028.68,-134.2 1030.16,-129.19"/>
<polygon fill="#63b8ff" stroke="#63b8ff" points="1033.17,-127.39 1025.5,-120.08 1026.94,-130.58 1033.17,-127.39"/>
</a>
</g>
</g>
<!-- Node24&#45;&gt;Node4 -->
<g id="edge30_Node000024_Node000004" class="edge">
<title>Node24&#45;&gt;Node4</title>
<g id="a_edge30_Node000024_Node000004"><a xlink:title=" ">
<path fill="none" stroke="#63b8ff" d="M631.67,-308.09C636.25,-310.59 640.58,-313.68 644,-317.5 702.6,-382.97 717.25,-493.14 720.85,-537.81"/>
<polygon fill="#63b8ff" stroke="#63b8ff" points="717.37,-538.18 721.56,-547.91 724.35,-537.69 717.37,-538.18"/>
</a>
</g>
</g>
<!-- Node24&#45;&gt;Node25 -->
<g id="edge31_Node000024_Node000025" class="edge">
<title>Node24&#45;&gt;Node25</title>
<g id="a_edge31_Node000024_Node000025"><a xlink:title=" ">
<path fill="none" stroke="#63b8ff" d="M632.28,-288.91C647.81,-283.99 666.88,-277.95 683.45,-272.71"/>
<polygon fill="#63b8ff" stroke="#63b8ff" points="684.9,-275.92 693.38,-269.56 682.79,-269.24 684.9,-275.92"/>
</a>
</g>
</g>
<!-- Node27 -->
<g id="Node000027" class="node">
<title>Node27</title>
<g id="a_Node000027"><a xlink:href="ft__strncmp_8c.html#a9d2fe792187aa4ed08e5864fb2c4d6dc" target="_top" xlink:title="Compares up to n characters of two strings.">
<polygon fill="white" stroke="#666666" points="635,-456 567,-456 567,-437 635,-437 635,-456"/>
<text text-anchor="middle" x="601" y="-444" font-family="Helvetica,sans-Serif" font-size="10.00">ft_strncmp</text>
</a>
</g>
</g>
<!-- Node26&#45;&gt;Node27 -->
<g id="edge34_Node000026_Node000027" class="edge">
<title>Node26&#45;&gt;Node27</title>
<g id="a_edge34_Node000026_Node000027"><a xlink:title=" ">
<path fill="none" stroke="#63b8ff" d="M504.22,-419.03C520.32,-423.65 539.85,-429.25 557.07,-434.19"/>
<polygon fill="#63b8ff" stroke="#63b8ff" points="556.31,-437.61 566.89,-437 558.24,-430.88 556.31,-437.61"/>
</a>
</g>
</g>
<!-- Node28 -->
<g id="Node000028" class="node">
<title>Node28</title>
<g id="a_Node000028"><a xlink:href="ft__strlcat_8c.html#a3ab017dd491d7327d1b4acbf1398b91e" target="_top" xlink:title="Returns the length of a null&#45;terminated string.">
<polygon fill="white" stroke="#666666" points="617,-419 585,-419 585,-400 617,-400 617,-419"/>
<text text-anchor="middle" x="601" y="-407" font-family="Helvetica,sans-Serif" font-size="10.00">len</text>
</a>
</g>
</g>
<!-- Node26&#45;&gt;Node28 -->
<g id="edge35_Node000026_Node000028" class="edge">
<title>Node26&#45;&gt;Node28</title>
<g id="a_edge35_Node000026_Node000028"><a xlink:title=" ">
<path fill="none" stroke="#63b8ff" d="M522.35,-409.5C540.27,-409.5 559.6,-409.5 574.49,-409.5"/>
<polygon fill="#63b8ff" stroke="#63b8ff" points="574.92,-413 584.92,-409.5 574.92,-406 574.92,-413"/>
</a>
</g>
</g>
<!-- Node31 -->
<g id="Node000031" class="node">
<title>Node31</title>
<g id="a_Node000031"><a xlink:href="ft__isalnum_8c.html#a9c2c3821ea43ebdf97de07b123503f8b" target="_top" xlink:title="Checks whether a character is alphanumeric.">
<polygon fill="white" stroke="#666666" points="635,-382 567,-382 567,-363 635,-363 635,-382"/>
<text text-anchor="middle" x="601" y="-370" font-family="Helvetica,sans-Serif" font-size="10.00">ft_isalnum</text>
</a>
</g>
</g>
<!-- Node30&#45;&gt;Node31 -->
<g id="edge40_Node000030_Node000031" class="edge">
<title>Node30&#45;&gt;Node31</title>
<g id="a_edge40_Node000030_Node000031"><a xlink:title=" ">
<path fill="none" stroke="#63b8ff" d="M498.52,-326.01C506.2,-328.87 514.5,-332.14 522,-335.5 538.51,-342.9 541.67,-346.71 558,-354.5 561.01,-355.94 564.16,-357.38 567.32,-358.8"/>
<polygon fill="#63b8ff" stroke="#63b8ff" points="566.18,-362.12 576.74,-362.93 568.99,-355.71 566.18,-362.12"/>
</a>
</g>
</g>
<!-- Node32 -->
<g id="Node000032" class="node">
<title>Node32</title>
<g id="a_Node000032"><a xlink:href="ft__isalpha_8c.html#ac283963beaa3b8c7d09b78851cda297e" target="_top" xlink:title="Checks whether a character is an alphabetic letter.">
<polygon fill="white" stroke="#666666" points="633,-345 569,-345 569,-326 633,-326 633,-345"/>
<text text-anchor="middle" x="601" y="-333" font-family="Helvetica,sans-Serif" font-size="10.00">ft_isalpha</text>
</a>
</g>
</g>
<!-- Node30&#45;&gt;Node32 -->
<g id="edge41_Node000030_Node000032" class="edge">
<title>Node30&#45;&gt;Node32</title>
<g id="a_edge41_Node000030_Node000032"><a xlink:title=" ">
<path fill="none" stroke="#63b8ff" d="M521.61,-323.95C533.95,-325.77 547,-327.69 558.84,-329.44"/>
<polygon fill="#63b8ff" stroke="#63b8ff" points="558.48,-332.92 568.88,-330.92 559.5,-326 558.48,-332.92"/>
</a>
</g>
</g>
<!-- Node34 -->
<g id="Node000034" class="node">
<title>Node34</title>
<g id="a_Node000034"><a xlink:href="utils__fd_8c.html#ae6ad7aa33393749b9dc5eac6b61cdf74" target="_top" xlink:title="Returns the correct file descriptor based on append flag and file.">
<polygon fill="white" stroke="#666666" points="359.5,-157 267.5,-157 267.5,-138 359.5,-138 359.5,-157"/>
<text text-anchor="middle" x="313.5" y="-145" font-family="Helvetica,sans-Serif" font-size="10.00">check_value_fd</text>
</a>
</g>
</g>
<!-- Node33&#45;&gt;Node34 -->
<g id="edge43_Node000033_Node000034" class="edge">
<title>Node33&#45;&gt;Node34</title>
<g id="a_edge43_Node000033_Node000034"><a xlink:title=" ">
<path fill="none" stroke="#63b8ff" d="M181.2,-147.5C202.17,-147.5 231.66,-147.5 257.38,-147.5"/>
<polygon fill="#63b8ff" stroke="#63b8ff" points="257.4,-151 267.4,-147.5 257.4,-144 257.4,-151"/>
</a>
</g>
</g>
<!-- Node35 -->
<g id="Node000035" class="node">
<title>Node35</title>
<g id="a_Node000035"><a xlink:href="utils__fd_8c.html#a9cf70d06db18597b04bb642db7abab4a" target="_top" xlink:title="Checks if a file descriptor is valid.">
<polygon fill="white" stroke="#666666" points="506,-119 434,-119 434,-100 506,-100 506,-119"/>
<text text-anchor="middle" x="470" y="-107" font-family="Helvetica,sans-Serif" font-size="10.00">ft_check_fd</text>
</a>
</g>
</g>
<!-- Node33&#45;&gt;Node35 -->
<g id="edge45_Node000033_Node000035" class="edge">
<title>Node33&#45;&gt;Node35</title>
<g id="a_edge45_Node000033_Node000035"><a xlink:title=" ">
<path fill="none" stroke="#63b8ff" d="M181.4,-141.22C199.46,-137.35 223.52,-132.56 245,-129.5 306.68,-120.7 378.5,-115.1 423.85,-112.13"/>
<polygon fill="#63b8ff" stroke="#63b8ff" points="424.19,-115.62 433.95,-111.48 423.75,-108.63 424.19,-115.62"/>
</a>
</g>
</g>
<!-- Node36 -->
<g id="Node000036" class="node">
<title>Node36</title>
<g id="a_Node000036"><a xlink:href="utils__pipes_8c.html#a4112bdd2bc0766ff52195f2ab3a53339" target="_top" xlink:title="Handles input redirection from a file.">
<polygon fill="white" stroke="#666666" points="382,-81 245,-81 245,-62 382,-62 382,-81"/>
<text text-anchor="middle" x="313.5" y="-69" font-family="Helvetica,sans-Serif" font-size="10.00">handle_input_redirection</text>
</a>
</g>
</g>
<!-- Node33&#45;&gt;Node36 -->
<g id="edge46_Node000033_Node000036" class="edge">
<title>Node33&#45;&gt;Node36</title>
<g id="a_edge46_Node000033_Node000036"><a xlink:title=" ">
<path fill="none" stroke="#63b8ff" d="M181.07,-141.18C190.33,-138.39 200.46,-134.56 209,-129.5 227.93,-118.28 226.23,-106.99 245,-95.5 251.94,-91.25 259.74,-87.61 267.5,-84.54"/>
<polygon fill="#63b8ff" stroke="#63b8ff" points="268.73,-87.82 276.9,-81.07 266.31,-81.25 268.73,-87.82"/>
</a>
</g>
</g>
<!-- Node34&#45;&gt;Node35 -->
<g id="edge44_Node000034_Node000035" class="edge">
<title>Node34&#45;&gt;Node35</title>
<g id="a_edge44_Node000034_Node000035"><a xlink:title=" ">
<path fill="none" stroke="#63b8ff" d="M353.49,-137.91C374.96,-132.63 401.71,-126.05 424.06,-120.55"/>
<polygon fill="#63b8ff" stroke="#63b8ff" points="425.11,-123.9 433.98,-118.11 423.44,-117.1 425.11,-123.9"/>
</a>
</g>
</g>
</g>
</svg>
