<?xml version="1.0" encoding="UTF-8" standalone="no"?>
<!DOCTYPE svg PUBLIC "-//W3C//DTD SVG 1.1//EN"
 "http://www.w3.org/Graphics/SVG/1.1/DTD/svg11.dtd">
<!-- Generated by graphviz version 2.43.0 (0)
 -->
<!-- Title: ft_export_with_args Pages: 1 -->
<svg width="916pt" height="381pt"
 viewBox="0.00 0.00 916.00 381.00" xmlns="http://www.w3.org/2000/svg" xmlns:xlink="http://www.w3.org/1999/xlink">
<g id="graph0" class="graph" transform="scale(1 1) rotate(0) translate(4 377)">
<title>ft_export_with_args</title>
<!-- Node1 -->
<g id="Node000001" class="node">
<title>Node1</title>
<g id="a_Node000001"><a xlink:title="Handles the export command with arguments.">
<polygon fill="#999999" stroke="#666666" points="113,-149 0,-149 0,-130 113,-130 113,-149"/>
<text text-anchor="middle" x="56.5" y="-137" font-family="Helvetica,sans-Serif" font-size="10.00">ft_export_with_args</text>
</a>
</g>
</g>
<!-- Node2 -->
<g id="Node000002" class="node">
<title>Node2</title>
<g id="a_Node000002"><a xlink:href="export_8c.html#aa1462300aee0c9091833b58ece6c6506" target="_top" xlink:title="Executes export on a single argument.">
<polygon fill="white" stroke="#666666" points="232,-149 149,-149 149,-130 232,-130 232,-149"/>
<text text-anchor="middle" x="190.5" y="-137" font-family="Helvetica,sans-Serif" font-size="10.00">ft_exe_export</text>
</a>
</g>
</g>
<!-- Node1&#45;&gt;Node2 -->
<g id="edge1_Node000001_Node000002" class="edge">
<title>Node1&#45;&gt;Node2</title>
<g id="a_edge1_Node000001_Node000002"><a xlink:title=" ">
<path fill="none" stroke="#63b8ff" d="M113.1,-139.5C121.61,-139.5 130.37,-139.5 138.77,-139.5"/>
<polygon fill="#63b8ff" stroke="#63b8ff" points="138.81,-143 148.81,-139.5 138.81,-136 138.81,-143"/>
</a>
</g>
</g>
<!-- Node3 -->
<g id="Node000003" class="node">
<title>Node3</title>
<g id="a_Node000003"><a xlink:href="utils__export__unset_8c.html#a816ee6b26fbb9862373621ed0f57245f" target="_top" xlink:title="Adds a new variable to the environment (env&#45;&gt;env_copy).">
<polygon fill="white" stroke="#666666" points="354,-224 286,-224 286,-205 354,-205 354,-224"/>
<text text-anchor="middle" x="320" y="-212" font-family="Helvetica,sans-Serif" font-size="10.00">ft_add_var</text>
</a>
</g>
</g>
<!-- Node2&#45;&gt;Node3 -->
<g id="edge2_Node000002_Node000003" class="edge">
<title>Node2&#45;&gt;Node3</title>
<g id="a_edge2_Node000002_Node000003"><a xlink:title=" ">
<path fill="none" stroke="#63b8ff" d="M207.91,-149.15C229.71,-161.98 268.44,-184.76 293.92,-199.75"/>
<polygon fill="#63b8ff" stroke="#63b8ff" points="292.26,-202.83 302.66,-204.89 295.81,-196.8 292.26,-202.83"/>
</a>
</g>
</g>
<!-- Node4 -->
<g id="Node000004" class="node">
<title>Node4</title>
<g id="a_Node000004"><a xlink:href="ft__printf_8c.html#a091532b7f37af84bdecc84dccf4eedb1" target="_top" xlink:title="A simplified printf function that outputs formatted data to a given file descriptor.">
<polygon fill="white" stroke="#666666" points="478.5,-281 423.5,-281 423.5,-262 478.5,-262 478.5,-281"/>
<text text-anchor="middle" x="451" y="-269" font-family="Helvetica,sans-Serif" font-size="10.00">ft_printf</text>
</a>
</g>
</g>
<!-- Node2&#45;&gt;Node4 -->
<g id="edge26_Node000002_Node000004" class="edge">
<title>Node2&#45;&gt;Node4</title>
<g id="a_edge26_Node000002_Node000004"><a xlink:title=" ">
<path fill="none" stroke="#63b8ff" d="M196.33,-149.04C206.64,-168.35 232.77,-212.06 268,-233.5 312.86,-260.81 374.22,-268.75 412.98,-270.92"/>
<polygon fill="#63b8ff" stroke="#63b8ff" points="413.13,-274.43 423.28,-271.39 413.45,-267.44 413.13,-274.43"/>
</a>
</g>
</g>
<!-- Node16 -->
<g id="Node000016" class="node">
<title>Node16</title>
<g id="a_Node000016"><a xlink:href="ft__strdup_8c.html#aebe73f27c70c56ac5053f860ef5436c9" target="_top" xlink:title="Duplicates a null&#45;terminated string by allocating memory.">
<polygon fill="white" stroke="#666666" points="602.5,-206 543.5,-206 543.5,-187 602.5,-187 602.5,-206"/>
<text text-anchor="middle" x="573" y="-194" font-family="Helvetica,sans-Serif" font-size="10.00">ft_strdup</text>
</a>
</g>
</g>
<!-- Node2&#45;&gt;Node16 -->
<g id="edge27_Node000002_Node000016" class="edge">
<title>Node2&#45;&gt;Node16</title>
<g id="a_edge27_Node000002_Node000016"><a xlink:title=" ">
<path fill="none" stroke="#63b8ff" d="M232.22,-145.6C306.04,-156.66 461.01,-179.87 533.31,-190.7"/>
<polygon fill="#63b8ff" stroke="#63b8ff" points="532.95,-194.19 543.36,-192.21 533.99,-187.27 532.95,-194.19"/>
</a>
</g>
</g>
<!-- Node17 -->
<g id="Node000017" class="node">
<title>Node17</title>
<g id="a_Node000017"><a xlink:href="utils__export__unset_8c.html#ae98ae22050772236584199cd8f27783d" target="_top" xlink:title="Searches for a variable to export in the environment.">
<polygon fill="white" stroke="#666666" points="372,-130 268,-130 268,-111 372,-111 372,-130"/>
<text text-anchor="middle" x="320" y="-118" font-family="Helvetica,sans-Serif" font-size="10.00">ft_find_export_var</text>
</a>
</g>
</g>
<!-- Node2&#45;&gt;Node17 -->
<g id="edge22_Node000002_Node000017" class="edge">
<title>Node2&#45;&gt;Node17</title>
<g id="a_edge22_Node000002_Node000017"><a xlink:title=" ">
<path fill="none" stroke="#63b8ff" d="M232.19,-133.44C240.36,-132.22 249.12,-130.91 257.81,-129.62"/>
<polygon fill="#63b8ff" stroke="#63b8ff" points="258.57,-133.04 267.95,-128.11 257.54,-126.12 258.57,-133.04"/>
</a>
</g>
</g>
<!-- Node20 -->
<g id="Node000020" class="node">
<title>Node20</title>
<g id="a_Node000020"><a xlink:href="ft__isspace_8c.html#ac7978b309e3e11366ba16643e447528c" target="_top" xlink:title="Checks whether a character is a whitespace character.">
<polygon fill="white" stroke="#666666" points="352.5,-93 287.5,-93 287.5,-74 352.5,-74 352.5,-93"/>
<text text-anchor="middle" x="320" y="-81" font-family="Helvetica,sans-Serif" font-size="10.00">ft_isspace</text>
</a>
</g>
</g>
<!-- Node2&#45;&gt;Node20 -->
<g id="edge25_Node000002_Node000020" class="edge">
<title>Node2&#45;&gt;Node20</title>
<g id="a_edge25_Node000002_Node000020"><a xlink:title=" ">
<path fill="none" stroke="#63b8ff" d="M210.14,-129.88C225.49,-122.1 247.92,-111.07 268,-102.5 272.54,-100.56 277.35,-98.62 282.13,-96.76"/>
<polygon fill="#63b8ff" stroke="#63b8ff" points="283.71,-99.91 291.82,-93.09 281.22,-93.37 283.71,-99.91"/>
</a>
</g>
</g>
<!-- Node21 -->
<g id="Node000021" class="node">
<title>Node21</title>
<g id="a_Node000021"><a xlink:href="utils__export__unset_8c.html#a054fceec4fb7c4bdd5f9d5d958d1b535" target="_top" xlink:title="Checks if a string is a valid identifier for environment variables.">
<polygon fill="white" stroke="#666666" points="371.5,-56 268.5,-56 268.5,-37 371.5,-37 371.5,-56"/>
<text text-anchor="middle" x="320" y="-44" font-family="Helvetica,sans-Serif" font-size="10.00">is_valid_identifier</text>
</a>
</g>
</g>
<!-- Node2&#45;&gt;Node21 -->
<g id="edge28_Node000002_Node000021" class="edge">
<title>Node2&#45;&gt;Node21</title>
<g id="a_edge28_Node000002_Node000021"><a xlink:title=" ">
<path fill="none" stroke="#63b8ff" d="M198.95,-129.85C211.56,-114.1 238.64,-82.8 268,-64.5 270.59,-62.89 273.34,-61.4 276.17,-60.02"/>
<polygon fill="#63b8ff" stroke="#63b8ff" points="277.61,-63.21 285.38,-56.01 274.82,-56.79 277.61,-63.21"/>
</a>
</g>
</g>
<!-- Node3&#45;&gt;Node4 -->
<g id="edge3_Node000003_Node000004" class="edge">
<title>Node3&#45;&gt;Node4</title>
<g id="a_edge3_Node000003_Node000004"><a xlink:title=" ">
<path fill="none" stroke="#63b8ff" d="M342.05,-224.05C359.65,-232.01 385.41,-243.6 408,-253.5 411.22,-254.91 414.59,-256.38 417.95,-257.83"/>
<polygon fill="#63b8ff" stroke="#63b8ff" points="416.73,-261.12 427.3,-261.85 419.5,-254.69 416.73,-261.12"/>
</a>
</g>
</g>
<!-- Node14 -->
<g id="Node000014" class="node">
<title>Node14</title>
<g id="a_Node000014"><a xlink:href="ft__realloc_8c.html#a9614b2d66dc188037d9d5144c4f63af5" target="_top" xlink:title="Reallocates a NULL&#45;terminated matrix of strings to a new size.">
<polygon fill="white" stroke="#666666" points="494,-244 408,-244 408,-225 494,-225 494,-244"/>
<text text-anchor="middle" x="451" y="-232" font-family="Helvetica,sans-Serif" font-size="10.00">ft_realloc_mtx</text>
</a>
</g>
</g>
<!-- Node3&#45;&gt;Node14 -->
<g id="edge18_Node000003_Node000014" class="edge">
<title>Node3&#45;&gt;Node14</title>
<g id="a_edge18_Node000003_Node000014"><a xlink:title=" ">
<path fill="none" stroke="#63b8ff" d="M354.22,-219.65C367.44,-221.7 382.98,-224.11 397.65,-226.38"/>
<polygon fill="#63b8ff" stroke="#63b8ff" points="397.21,-229.86 407.62,-227.93 398.28,-222.94 397.21,-229.86"/>
</a>
</g>
</g>
<!-- Node3&#45;&gt;Node16 -->
<g id="edge21_Node000003_Node000016" class="edge">
<title>Node3&#45;&gt;Node16</title>
<g id="a_edge21_Node000003_Node000016"><a xlink:title=" ">
<path fill="none" stroke="#63b8ff" d="M354.07,-212.13C400.21,-208.82 483.74,-202.83 532.9,-199.3"/>
<polygon fill="#63b8ff" stroke="#63b8ff" points="533.41,-202.78 543.14,-198.57 532.91,-195.79 533.41,-202.78"/>
</a>
</g>
</g>
<!-- Node5 -->
<g id="Node000005" class="node">
<title>Node5</title>
<g id="a_Node000005"><a xlink:href="ft__printf_8c.html#a80c1c206dcd33d07c265581878aaa300" target="_top" xlink:title="Processes a single format specifier and prints the corresponding argument.">
<polygon fill="white" stroke="#666666" points="614.5,-281 531.5,-281 531.5,-262 614.5,-262 614.5,-281"/>
<text text-anchor="middle" x="573" y="-269" font-family="Helvetica,sans-Serif" font-size="10.00">check_format</text>
</a>
</g>
</g>
<!-- Node4&#45;&gt;Node5 -->
<g id="edge4_Node000004_Node000005" class="edge">
<title>Node4&#45;&gt;Node5</title>
<g id="a_edge4_Node000004_Node000005"><a xlink:title=" ">
<path fill="none" stroke="#63b8ff" d="M478.63,-271.5C491.08,-271.5 506.33,-271.5 520.88,-271.5"/>
<polygon fill="#63b8ff" stroke="#63b8ff" points="521.29,-275 531.29,-271.5 521.29,-268 521.29,-275"/>
</a>
</g>
</g>
<!-- Node9 -->
<g id="Node000009" class="node">
<title>Node9</title>
<g id="a_Node000009"><a xlink:href="ft__putchar__fd_8c.html#a03ef80b25dc4a521379fa92ad97bad21" target="_top" xlink:title="Writes a single character to the specified file descriptor.">
<polygon fill="white" stroke="#666666" points="747,-373 667,-373 667,-354 747,-354 747,-373"/>
<text text-anchor="middle" x="707" y="-361" font-family="Helvetica,sans-Serif" font-size="10.00">ft_putchar_fd</text>
</a>
</g>
</g>
<!-- Node4&#45;&gt;Node9 -->
<g id="edge17_Node000004_Node000009" class="edge">
<title>Node4&#45;&gt;Node9</title>
<g id="a_edge17_Node000004_Node000009"><a xlink:title=" ">
<path fill="none" stroke="#63b8ff" d="M477.16,-281.11C514.98,-295.49 588.78,-323.27 652,-345.5 656.89,-347.22 662.03,-348.99 667.13,-350.71"/>
<polygon fill="#63b8ff" stroke="#63b8ff" points="666.2,-354.09 676.79,-353.96 668.43,-347.46 666.2,-354.09"/>
</a>
</g>
</g>
<!-- Node6 -->
<g id="Node000006" class="node">
<title>Node6</title>
<g id="a_Node000006"><a xlink:href="ft__forpointer_8c.html#a8e02c77b80406af72327ebf71f537786" target="_top" xlink:title="Prints a pointer in hexadecimal format prefixed with &quot;0x&quot;.">
<polygon fill="white" stroke="#666666" points="745.5,-336 668.5,-336 668.5,-317 745.5,-317 745.5,-336"/>
<text text-anchor="middle" x="707" y="-324" font-family="Helvetica,sans-Serif" font-size="10.00">ft_forpointer</text>
</a>
</g>
</g>
<!-- Node5&#45;&gt;Node6 -->
<g id="edge5_Node000005_Node000006" class="edge">
<title>Node5&#45;&gt;Node6</title>
<g id="a_edge5_Node000005_Node000006"><a xlink:title=" ">
<path fill="none" stroke="#63b8ff" d="M592.63,-281.12C608.26,-289 631.28,-300.17 652,-308.5 656.41,-310.27 661.07,-312.02 665.73,-313.68"/>
<polygon fill="#63b8ff" stroke="#63b8ff" points="664.61,-316.99 675.21,-316.95 666.9,-310.38 664.61,-316.99"/>
</a>
</g>
</g>
<!-- Node8 -->
<g id="Node000008" class="node">
<title>Node8</title>
<g id="a_Node000008"><a xlink:href="ft__hexadecimal_8c.html#a39c845e0a4286d3ac1e04c1e64ac734b" target="_top" xlink:title="Prints an unsigned integer in hexadecimal format.">
<polygon fill="white" stroke="#666666" points="753,-281 661,-281 661,-262 753,-262 753,-281"/>
<text text-anchor="middle" x="707" y="-269" font-family="Helvetica,sans-Serif" font-size="10.00">ft_hexadecimal</text>
</a>
</g>
</g>
<!-- Node5&#45;&gt;Node8 -->
<g id="edge8_Node000005_Node000008" class="edge">
<title>Node5&#45;&gt;Node8</title>
<g id="a_edge8_Node000005_Node000008"><a xlink:title=" ">
<path fill="none" stroke="#63b8ff" d="M614.68,-271.5C625.93,-271.5 638.34,-271.5 650.28,-271.5"/>
<polygon fill="#63b8ff" stroke="#63b8ff" points="650.62,-275 660.62,-271.5 650.62,-268 650.62,-275"/>
</a>
</g>
</g>
<!-- Node5&#45;&gt;Node9 -->
<g id="edge10_Node000005_Node000009" class="edge">
<title>Node5&#45;&gt;Node9</title>
<g id="a_edge10_Node000005_Node000009"><a xlink:title=" ">
<path fill="none" stroke="#63b8ff" d="M581.63,-281.07C594.54,-296.67 622.23,-327.64 652,-345.5 654.67,-347.1 657.5,-348.58 660.41,-349.94"/>
<polygon fill="#63b8ff" stroke="#63b8ff" points="659.3,-353.27 669.87,-353.91 662,-346.82 659.3,-353.27"/>
</a>
</g>
</g>
<!-- Node10 -->
<g id="Node000010" class="node">
<title>Node10</title>
<g id="a_Node000010"><a xlink:href="ft__putnbr__fd_8c.html#a1554101ee350c316340c78e19faddaa8" target="_top" xlink:title="Writes an integer to a given file descriptor.">
<polygon fill="white" stroke="#666666" points="744.5,-226 669.5,-226 669.5,-207 744.5,-207 744.5,-226"/>
<text text-anchor="middle" x="707" y="-214" font-family="Helvetica,sans-Serif" font-size="10.00">ft_putnbr_fd</text>
</a>
</g>
</g>
<!-- Node5&#45;&gt;Node10 -->
<g id="edge11_Node000005_Node000010" class="edge">
<title>Node5&#45;&gt;Node10</title>
<g id="a_edge11_Node000005_Node000010"><a xlink:title=" ">
<path fill="none" stroke="#63b8ff" d="M596.99,-261.92C618.16,-253.1 649.77,-239.93 673.51,-230.04"/>
<polygon fill="#63b8ff" stroke="#63b8ff" points="674.94,-233.23 682.83,-226.16 672.25,-226.77 674.94,-233.23"/>
</a>
</g>
</g>
<!-- Node11 -->
<g id="Node000011" class="node">
<title>Node11</title>
<g id="a_Node000011"><a xlink:href="ft__putstr__fd_8c.html#a00b0638f31a75c7a30f77f33888bfb73" target="_top" xlink:title="Writes a null&#45;terminated string to the specified file descriptor.">
<polygon fill="white" stroke="#666666" points="743,-189 671,-189 671,-170 743,-170 743,-189"/>
<text text-anchor="middle" x="707" y="-177" font-family="Helvetica,sans-Serif" font-size="10.00">ft_putstr_fd</text>
</a>
</g>
</g>
<!-- Node5&#45;&gt;Node11 -->
<g id="edge13_Node000005_Node000011" class="edge">
<title>Node5&#45;&gt;Node11</title>
<g id="a_edge13_Node000005_Node000011"><a xlink:title=" ">
<path fill="none" stroke="#63b8ff" d="M602.87,-261.82C607.54,-259.52 612.11,-256.76 616,-253.5 638.38,-234.72 629.01,-216.52 652,-198.5 654.95,-196.19 658.2,-194.14 661.61,-192.34"/>
<polygon fill="#63b8ff" stroke="#63b8ff" points="663.22,-195.45 670.86,-188.11 660.31,-189.09 663.22,-195.45"/>
</a>
</g>
</g>
<!-- Node12 -->
<g id="Node000012" class="node">
<title>Node12</title>
<g id="a_Node000012"><a xlink:href="ft__unsigned__putnbr_8c.html#af9a70f8607b40cf2a7706f9d3725b549" target="_top" xlink:title="Writes an unsigned integer to the given file descriptor.">
<polygon fill="white" stroke="#666666" points="762,-152 652,-152 652,-133 762,-133 762,-152"/>
<text text-anchor="middle" x="707" y="-140" font-family="Helvetica,sans-Serif" font-size="10.00">ft_unsigned_putnbr</text>
</a>
</g>
</g>
<!-- Node5&#45;&gt;Node12 -->
<g id="edge14_Node000005_Node000012" class="edge">
<title>Node5&#45;&gt;Node12</title>
<g id="a_edge14_Node000005_Node000012"><a xlink:title=" ">
<path fill="none" stroke="#63b8ff" d="M604.76,-261.78C608.89,-259.54 612.8,-256.81 616,-253.5 646.55,-221.96 620.42,-192 652,-161.5 653.63,-159.93 655.39,-158.49 657.25,-157.16"/>
<polygon fill="#63b8ff" stroke="#63b8ff" points="659.08,-160.15 665.95,-152.09 655.55,-154.11 659.08,-160.15"/>
</a>
</g>
</g>
<!-- Node7 -->
<g id="Node000007" class="node">
<title>Node7</title>
<g id="a_Node000007"><a xlink:href="ft__forpointer_8c.html#aded1bf735c8a10e47396170d27c5b6aa" target="_top" xlink:title="Recursively prints a memory address in hexadecimal format.">
<polygon fill="white" stroke="#666666" points="908,-336 798,-336 798,-317 908,-317 908,-336"/>
<text text-anchor="middle" x="853" y="-324" font-family="Helvetica,sans-Serif" font-size="10.00">ft_ricorsive_pointer</text>
</a>
</g>
</g>
<!-- Node6&#45;&gt;Node7 -->
<g id="edge6_Node000006_Node000007" class="edge">
<title>Node6&#45;&gt;Node7</title>
<g id="a_edge6_Node000006_Node000007"><a xlink:title=" ">
<path fill="none" stroke="#63b8ff" d="M745.83,-326.5C758.64,-326.5 773.33,-326.5 787.61,-326.5"/>
<polygon fill="#63b8ff" stroke="#63b8ff" points="787.9,-330 797.9,-326.5 787.9,-323 787.9,-330"/>
</a>
</g>
</g>
<!-- Node7&#45;&gt;Node7 -->
<g id="edge7_Node000007_Node000007" class="edge">
<title>Node7&#45;&gt;Node7</title>
<g id="a_edge7_Node000007_Node000007"><a xlink:title=" ">
<path fill="none" stroke="#63b8ff" d="M830.5,-336.08C819.55,-344.73 827.05,-354 853,-354 869.62,-354 878.68,-350.2 880.16,-345.19"/>
<polygon fill="#63b8ff" stroke="#63b8ff" points="883.17,-343.39 875.5,-336.08 876.94,-346.58 883.17,-343.39"/>
</a>
</g>
</g>
<!-- Node8&#45;&gt;Node8 -->
<g id="edge9_Node000008_Node000008" class="edge">
<title>Node8&#45;&gt;Node8</title>
<g id="a_edge9_Node000008_Node000008"><a xlink:title=" ">
<path fill="none" stroke="#63b8ff" d="M686.35,-281.08C676.3,-289.73 683.18,-299 707,-299 722.26,-299 730.57,-295.2 731.93,-290.19"/>
<polygon fill="#63b8ff" stroke="#63b8ff" points="735.07,-288.65 727.65,-281.08 728.73,-291.62 735.07,-288.65"/>
</a>
</g>
</g>
<!-- Node10&#45;&gt;Node10 -->
<g id="edge12_Node000010_Node000010" class="edge">
<title>Node10&#45;&gt;Node10</title>
<g id="a_edge12_Node000010_Node000010"><a xlink:title=" ">
<path fill="none" stroke="#63b8ff" d="M686.35,-226.08C676.3,-234.73 683.18,-244 707,-244 722.26,-244 730.57,-240.2 731.93,-235.19"/>
<polygon fill="#63b8ff" stroke="#63b8ff" points="735.07,-233.65 727.65,-226.08 728.73,-236.62 735.07,-233.65"/>
</a>
</g>
</g>
<!-- Node13 -->
<g id="Node000013" class="node">
<title>Node13</title>
<g id="a_Node000013"><a xlink:href="ft__putnbr_8c.html#a2e51f80c9e46e52f4adf94617fb51ada" target="_top" xlink:title="Writes an integer to the standard output (stdout).">
<polygon fill="white" stroke="#666666" points="883,-152 823,-152 823,-133 883,-133 883,-152"/>
<text text-anchor="middle" x="853" y="-140" font-family="Helvetica,sans-Serif" font-size="10.00">ft_putnbr</text>
</a>
</g>
</g>
<!-- Node12&#45;&gt;Node13 -->
<g id="edge15_Node000012_Node000013" class="edge">
<title>Node12&#45;&gt;Node13</title>
<g id="a_edge15_Node000012_Node000013"><a xlink:title=" ">
<path fill="none" stroke="#63b8ff" d="M762.03,-142.5C778.76,-142.5 796.87,-142.5 812.43,-142.5"/>
<polygon fill="#63b8ff" stroke="#63b8ff" points="812.74,-146 822.74,-142.5 812.74,-139 812.74,-146"/>
</a>
</g>
</g>
<!-- Node13&#45;&gt;Node13 -->
<g id="edge16_Node000013_Node000013" class="edge">
<title>Node13&#45;&gt;Node13</title>
<g id="a_edge16_Node000013_Node000013"><a xlink:title=" ">
<path fill="none" stroke="#63b8ff" d="M830.5,-152.08C819.55,-160.73 827.05,-170 853,-170 869.62,-170 878.68,-166.2 880.16,-161.19"/>
<polygon fill="#63b8ff" stroke="#63b8ff" points="883.17,-159.39 875.5,-152.08 876.94,-162.58 883.17,-159.39"/>
</a>
</g>
</g>
<!-- Node15 -->
<g id="Node000015" class="node">
<title>Node15</title>
<g id="a_Node000015"><a xlink:href="ft__free__matrix_8c.html#a1ea6d1f3b50d1c23d4f0faddd1a13448" target="_top" xlink:title="Frees a NULL&#45;terminated matrix of strings.">
<polygon fill="white" stroke="#666666" points="616,-244 530,-244 530,-225 616,-225 616,-244"/>
<text text-anchor="middle" x="573" y="-232" font-family="Helvetica,sans-Serif" font-size="10.00">ft_free_matrix</text>
</a>
</g>
</g>
<!-- Node14&#45;&gt;Node15 -->
<g id="edge19_Node000014_Node000015" class="edge">
<title>Node14&#45;&gt;Node15</title>
<g id="a_edge19_Node000014_Node000015"><a xlink:title=" ">
<path fill="none" stroke="#63b8ff" d="M494.31,-234.5C502.46,-234.5 511.1,-234.5 519.53,-234.5"/>
<polygon fill="#63b8ff" stroke="#63b8ff" points="519.67,-238 529.67,-234.5 519.67,-231 519.67,-238"/>
</a>
</g>
</g>
<!-- Node14&#45;&gt;Node16 -->
<g id="edge20_Node000014_Node000016" class="edge">
<title>Node14&#45;&gt;Node16</title>
<g id="a_edge20_Node000014_Node000016"><a xlink:title=" ">
<path fill="none" stroke="#63b8ff" d="M482.28,-224.91C497.81,-219.99 516.88,-213.95 533.45,-208.71"/>
<polygon fill="#63b8ff" stroke="#63b8ff" points="534.9,-211.92 543.38,-205.56 532.79,-205.24 534.9,-211.92"/>
</a>
</g>
</g>
<!-- Node18 -->
<g id="Node000018" class="node">
<title>Node18</title>
<g id="a_Node000018"><a xlink:href="ft__strncmp_8c.html#a9d2fe792187aa4ed08e5864fb2c4d6dc" target="_top" xlink:title="Compares up to n characters of two strings.">
<polygon fill="white" stroke="#666666" points="485,-130 417,-130 417,-111 485,-111 485,-130"/>
<text text-anchor="middle" x="451" y="-118" font-family="Helvetica,sans-Serif" font-size="10.00">ft_strncmp</text>
</a>
</g>
</g>
<!-- Node17&#45;&gt;Node18 -->
<g id="edge23_Node000017_Node000018" class="edge">
<title>Node17&#45;&gt;Node18</title>
<g id="a_edge23_Node000017_Node000018"><a xlink:title=" ">
<path fill="none" stroke="#63b8ff" d="M372.35,-120.5C383.75,-120.5 395.72,-120.5 406.75,-120.5"/>
<polygon fill="#63b8ff" stroke="#63b8ff" points="406.99,-124 416.99,-120.5 406.99,-117 406.99,-124"/>
</a>
</g>
</g>
<!-- Node19 -->
<g id="Node000019" class="node">
<title>Node19</title>
<g id="a_Node000019"><a xlink:href="ft__strlcat_8c.html#a3ab017dd491d7327d1b4acbf1398b91e" target="_top" xlink:title="Returns the length of a null&#45;terminated string.">
<polygon fill="white" stroke="#666666" points="467,-93 435,-93 435,-74 467,-74 467,-93"/>
<text text-anchor="middle" x="451" y="-81" font-family="Helvetica,sans-Serif" font-size="10.00">len</text>
</a>
</g>
</g>
<!-- Node17&#45;&gt;Node19 -->
<g id="edge24_Node000017_Node000019" class="edge">
<title>Node17&#45;&gt;Node19</title>
<g id="a_edge24_Node000017_Node000019"><a xlink:title=" ">
<path fill="none" stroke="#63b8ff" d="M354.22,-110.97C376.34,-104.63 404.94,-96.42 425.11,-90.64"/>
<polygon fill="#63b8ff" stroke="#63b8ff" points="426.16,-93.98 434.81,-87.86 424.23,-87.25 426.16,-93.98"/>
</a>
</g>
</g>
<!-- Node22 -->
<g id="Node000022" class="node">
<title>Node22</title>
<g id="a_Node000022"><a xlink:href="ft__isalnum_8c.html#a9c2c3821ea43ebdf97de07b123503f8b" target="_top" xlink:title="Checks whether a character is alphanumeric.">
<polygon fill="white" stroke="#666666" points="485,-56 417,-56 417,-37 485,-37 485,-56"/>
<text text-anchor="middle" x="451" y="-44" font-family="Helvetica,sans-Serif" font-size="10.00">ft_isalnum</text>
</a>
</g>
</g>
<!-- Node21&#45;&gt;Node22 -->
<g id="edge29_Node000021_Node000022" class="edge">
<title>Node21&#45;&gt;Node22</title>
<g id="a_edge29_Node000021_Node000022"><a xlink:title=" ">
<path fill="none" stroke="#63b8ff" d="M371.61,-46.5C383.29,-46.5 395.6,-46.5 406.92,-46.5"/>
<polygon fill="#63b8ff" stroke="#63b8ff" points="406.98,-50 416.98,-46.5 406.98,-43 406.98,-50"/>
</a>
</g>
</g>
<!-- Node23 -->
<g id="Node000023" class="node">
<title>Node23</title>
<g id="a_Node000023"><a xlink:href="ft__isalpha_8c.html#ac283963beaa3b8c7d09b78851cda297e" target="_top" xlink:title="Checks whether a character is an alphabetic letter.">
<polygon fill="white" stroke="#666666" points="483,-19 419,-19 419,0 483,0 483,-19"/>
<text text-anchor="middle" x="451" y="-7" font-family="Helvetica,sans-Serif" font-size="10.00">ft_isalpha</text>
</a>
</g>
</g>
<!-- Node21&#45;&gt;Node23 -->
<g id="edge30_Node000021_Node000023" class="edge">
<title>Node21&#45;&gt;Node23</title>
<g id="a_edge30_Node000021_Node000023"><a xlink:title=" ">
<path fill="none" stroke="#63b8ff" d="M354.22,-36.97C370.82,-32.21 391.07,-26.4 408.66,-21.36"/>
<polygon fill="#63b8ff" stroke="#63b8ff" points="410.02,-24.61 418.67,-18.49 408.09,-17.88 410.02,-24.61"/>
</a>
</g>
</g>
</g>
</svg>
