<?xml version="1.0" encoding="UTF-8" standalone="no"?>
<!DOCTYPE svg PUBLIC "-//W3C//DTD SVG 1.1//EN"
 "http://www.w3.org/Graphics/SVG/1.1/DTD/svg11.dtd">
<!-- Generated by graphviz version 2.43.0 (0)
 -->
<!-- Title: ft_merge_tokens_echo Pages: 1 -->
<svg width="707pt" height="119pt"
 viewBox="0.00 0.00 707.00 119.00" xmlns="http://www.w3.org/2000/svg" xmlns:xlink="http://www.w3.org/1999/xlink">
<g id="graph0" class="graph" transform="scale(1 1) rotate(0) translate(4 115)">
<title>ft_merge_tokens_echo</title>
<!-- Node1 -->
<g id="Node000001" class="node">
<title>Node1</title>
<g id="a_Node000001"><a xlink:title="Handles merging multiple &#45;n, &#45;nn, etc. tokens for the echo command.">
<polygon fill="#999999" stroke="#666666" points="126,-56 0,-56 0,-37 126,-37 126,-56"/>
<text text-anchor="middle" x="63" y="-44" font-family="Helvetica,sans-Serif" font-size="10.00">ft_merge_tokens_echo</text>
</a>
</g>
</g>
<!-- Node2 -->
<g id="Node000002" class="node">
<title>Node2</title>
<g id="a_Node000002"><a xlink:href="for__merge__echo_8c.html#a93ec1dc7360b83d8ce076dc54bd68e6a" target="_top" xlink:title="Checks if a token represents a valid &#45;n option for the echo command.">
<polygon fill="white" stroke="#666666" points="280.5,-93 176.5,-93 176.5,-74 280.5,-74 280.5,-93"/>
<text text-anchor="middle" x="228.5" y="-81" font-family="Helvetica,sans-Serif" font-size="10.00">ft_check_n_option</text>
</a>
</g>
</g>
<!-- Node1&#45;&gt;Node2 -->
<g id="edge1_Node000001_Node000002" class="edge">
<title>Node1&#45;&gt;Node2</title>
<g id="a_edge1_Node000001_Node000002"><a xlink:title=" ">
<path fill="none" stroke="#63b8ff" d="M106.11,-56.03C127.19,-60.8 152.92,-66.62 175.26,-71.68"/>
<polygon fill="#63b8ff" stroke="#63b8ff" points="174.73,-75.15 185.25,-73.94 176.27,-68.32 174.73,-75.15"/>
</a>
</g>
</g>
<!-- Node5 -->
<g id="Node000005" class="node">
<title>Node5</title>
<g id="a_Node000005"><a xlink:href="for__merge__echo_8c.html#a9a9e603a3cf06f996da02d8b076da2c7" target="_top" xlink:title="Finds and merges all consecutive tokens like &#45;n, &#45;nn, etc. after the initial valid &#45;n token.">
<polygon fill="white" stroke="#666666" points="295,-56 162,-56 162,-37 295,-37 295,-56"/>
<text text-anchor="middle" x="228.5" y="-44" font-family="Helvetica,sans-Serif" font-size="10.00">ft_merge_subsequent_n</text>
</a>
</g>
</g>
<!-- Node1&#45;&gt;Node5 -->
<g id="edge4_Node000001_Node000005" class="edge">
<title>Node1&#45;&gt;Node5</title>
<g id="a_edge4_Node000001_Node000005"><a xlink:title=" ">
<path fill="none" stroke="#63b8ff" d="M126.28,-46.5C134.56,-46.5 143.11,-46.5 151.59,-46.5"/>
<polygon fill="#63b8ff" stroke="#63b8ff" points="151.86,-50 161.86,-46.5 151.86,-43 151.86,-50"/>
</a>
</g>
</g>
<!-- Node11 -->
<g id="Node000011" class="node">
<title>Node11</title>
<g id="a_Node000011"><a xlink:href="ft__strcmp_8c.html#a1f2ff2312e5994560c9537cd9173be94" target="_top" xlink:title="Compares two null&#45;terminated strings lexicographically.">
<polygon fill="white" stroke="#666666" points="259.5,-19 197.5,-19 197.5,0 259.5,0 259.5,-19"/>
<text text-anchor="middle" x="228.5" y="-7" font-family="Helvetica,sans-Serif" font-size="10.00">ft_strcmp</text>
</a>
</g>
</g>
<!-- Node1&#45;&gt;Node11 -->
<g id="edge11_Node000001_Node000011" class="edge">
<title>Node1&#45;&gt;Node11</title>
<g id="a_edge11_Node000001_Node000011"><a xlink:title=" ">
<path fill="none" stroke="#63b8ff" d="M106.11,-36.97C131.22,-31.29 162.92,-24.11 187.63,-18.52"/>
<polygon fill="#63b8ff" stroke="#63b8ff" points="188.43,-21.93 197.41,-16.31 186.88,-15.1 188.43,-21.93"/>
</a>
</g>
</g>
<!-- Node3 -->
<g id="Node000003" class="node">
<title>Node3</title>
<g id="a_Node000003"><a xlink:href="for__merge__echo_8c.html#a474f909992d6b44cb96736e899e0b1c4" target="_top" xlink:title="Checks if a string consists only of &#39;n&#39; characters.">
<polygon fill="white" stroke="#666666" points="422.5,-74 348.5,-74 348.5,-55 422.5,-55 422.5,-74"/>
<text text-anchor="middle" x="385.5" y="-62" font-family="Helvetica,sans-Serif" font-size="10.00">ft_is_only_n</text>
</a>
</g>
</g>
<!-- Node2&#45;&gt;Node3 -->
<g id="edge2_Node000002_Node000003" class="edge">
<title>Node2&#45;&gt;Node3</title>
<g id="a_edge2_Node000002_Node000003"><a xlink:title=" ">
<path fill="none" stroke="#63b8ff" d="M280.68,-77.23C299.2,-74.96 319.98,-72.41 338.07,-70.19"/>
<polygon fill="#63b8ff" stroke="#63b8ff" points="338.58,-73.65 348.08,-68.96 337.73,-66.71 338.58,-73.65"/>
</a>
</g>
</g>
<!-- Node4 -->
<g id="Node000004" class="node">
<title>Node4</title>
<g id="a_Node000004"><a xlink:href="ft__strncmp_8c.html#a9d2fe792187aa4ed08e5864fb2c4d6dc" target="_top" xlink:title="Compares up to n characters of two strings.">
<polygon fill="white" stroke="#666666" points="419.5,-111 351.5,-111 351.5,-92 419.5,-92 419.5,-111"/>
<text text-anchor="middle" x="385.5" y="-99" font-family="Helvetica,sans-Serif" font-size="10.00">ft_strncmp</text>
</a>
</g>
</g>
<!-- Node2&#45;&gt;Node4 -->
<g id="edge3_Node000002_Node000004" class="edge">
<title>Node2&#45;&gt;Node4</title>
<g id="a_edge3_Node000002_Node000004"><a xlink:title=" ">
<path fill="none" stroke="#63b8ff" d="M280.68,-89.44C300.32,-91.72 322.53,-94.3 341.34,-96.49"/>
<polygon fill="#63b8ff" stroke="#63b8ff" points="341.07,-99.98 351.41,-97.66 341.88,-93.03 341.07,-99.98"/>
</a>
</g>
</g>
<!-- Node5&#45;&gt;Node3 -->
<g id="edge5_Node000005_Node000003" class="edge">
<title>Node5&#45;&gt;Node3</title>
<g id="a_edge5_Node000005_Node000003"><a xlink:title=" ">
<path fill="none" stroke="#63b8ff" d="M295.23,-54.13C309.7,-55.81 324.72,-57.56 338.23,-59.13"/>
<polygon fill="#63b8ff" stroke="#63b8ff" points="337.89,-62.61 348.23,-60.29 338.7,-55.66 337.89,-62.61"/>
</a>
</g>
</g>
<!-- Node6 -->
<g id="Node000006" class="node">
<title>Node6</title>
<g id="a_Node000006"><a xlink:href="for__merge__echo_8c.html#a1e7a6d749fc26b1a0848360c666ea945" target="_top" xlink:title="Merges two tokens by concatenating their values.">
<polygon fill="white" stroke="#666666" points="440,-37 331,-37 331,-18 440,-18 440,-37"/>
<text text-anchor="middle" x="385.5" y="-25" font-family="Helvetica,sans-Serif" font-size="10.00">ft_merge_n_tokens</text>
</a>
</g>
</g>
<!-- Node5&#45;&gt;Node6 -->
<g id="edge6_Node000005_Node000006" class="edge">
<title>Node5&#45;&gt;Node6</title>
<g id="a_edge6_Node000005_Node000006"><a xlink:title=" ">
<path fill="none" stroke="#63b8ff" d="M295.23,-38.44C303.68,-37.41 312.32,-36.35 320.73,-35.32"/>
<polygon fill="#63b8ff" stroke="#63b8ff" points="321.36,-38.77 330.86,-34.08 320.51,-31.82 321.36,-38.77"/>
</a>
</g>
</g>
<!-- Node7 -->
<g id="Node000007" class="node">
<title>Node7</title>
<g id="a_Node000007"><a xlink:href="ft__strjoin_8c.html#a91e6e3e428bcc9f2291b700e1829b82b" target="_top" xlink:title="Concatenates two strings into a newly allocated string.">
<polygon fill="white" stroke="#666666" points="563.5,-56 504.5,-56 504.5,-37 563.5,-37 563.5,-56"/>
<text text-anchor="middle" x="534" y="-44" font-family="Helvetica,sans-Serif" font-size="10.00">ft_strjoin</text>
</a>
</g>
</g>
<!-- Node6&#45;&gt;Node7 -->
<g id="edge7_Node000006_Node000007" class="edge">
<title>Node6&#45;&gt;Node7</title>
<g id="a_edge7_Node000006_Node000007"><a xlink:title=" ">
<path fill="none" stroke="#63b8ff" d="M440.22,-34.47C458.04,-36.78 477.52,-39.3 494.01,-41.44"/>
<polygon fill="#63b8ff" stroke="#63b8ff" points="494,-44.97 504.37,-42.79 494.9,-38.03 494,-44.97"/>
</a>
</g>
</g>
<!-- Node10 -->
<g id="Node000010" class="node">
<title>Node10</title>
<g id="a_Node000010"><a xlink:href="utils__token_8c.html#af9e2ea59c99233265f752bf7fb34a4a5" target="_top" xlink:title="Removes a specific token node from the linked list.">
<polygon fill="white" stroke="#666666" points="592,-19 476,-19 476,0 592,0 592,-19"/>
<text text-anchor="middle" x="534" y="-7" font-family="Helvetica,sans-Serif" font-size="10.00">remove_token_node</text>
</a>
</g>
</g>
<!-- Node6&#45;&gt;Node10 -->
<g id="edge10_Node000006_Node000010" class="edge">
<title>Node6&#45;&gt;Node10</title>
<g id="a_edge10_Node000006_Node000010"><a xlink:title=" ">
<path fill="none" stroke="#63b8ff" d="M440.22,-20.9C448.55,-19.88 457.25,-18.81 465.84,-17.75"/>
<polygon fill="#63b8ff" stroke="#63b8ff" points="466.34,-21.22 475.84,-16.52 465.49,-14.27 466.34,-21.22"/>
</a>
</g>
</g>
<!-- Node8 -->
<g id="Node000008" class="node">
<title>Node8</title>
<g id="a_Node000008"><a xlink:href="ft__memcpy_8c.html#a41a6f05af30cf85ff63a08e383826322" target="_top" xlink:title="Copies &#39;n&#39; bytes from memory area &#39;src&#39; to memory area &#39;dest&#39;.">
<polygon fill="white" stroke="#666666" points="699,-74 628,-74 628,-55 699,-55 699,-74"/>
<text text-anchor="middle" x="663.5" y="-62" font-family="Helvetica,sans-Serif" font-size="10.00">ft_memcpy</text>
</a>
</g>
</g>
<!-- Node7&#45;&gt;Node8 -->
<g id="edge8_Node000007_Node000008" class="edge">
<title>Node7&#45;&gt;Node8</title>
<g id="a_edge8_Node000007_Node000008"><a xlink:title=" ">
<path fill="none" stroke="#63b8ff" d="M563.61,-50.54C579.52,-52.79 599.68,-55.63 617.63,-58.17"/>
<polygon fill="#63b8ff" stroke="#63b8ff" points="617.23,-61.64 627.62,-59.58 618.21,-54.71 617.23,-61.64"/>
</a>
</g>
</g>
<!-- Node9 -->
<g id="Node000009" class="node">
<title>Node9</title>
<g id="a_Node000009"><a xlink:href="ft__strlen_8c.html#a828402378653640f545a4be2e00e92f9" target="_top" xlink:title="Calculates the length of a null&#45;terminated string.">
<polygon fill="white" stroke="#666666" points="691.5,-37 635.5,-37 635.5,-18 691.5,-18 691.5,-37"/>
<text text-anchor="middle" x="663.5" y="-25" font-family="Helvetica,sans-Serif" font-size="10.00">ft_strlen</text>
</a>
</g>
</g>
<!-- Node7&#45;&gt;Node9 -->
<g id="edge9_Node000007_Node000009" class="edge">
<title>Node7&#45;&gt;Node9</title>
<g id="a_edge9_Node000007_Node000009"><a xlink:title=" ">
<path fill="none" stroke="#63b8ff" d="M563.61,-42.24C581.79,-39.53 605.5,-35.99 625.15,-33.07"/>
<polygon fill="#63b8ff" stroke="#63b8ff" points="625.92,-36.49 635.29,-31.55 624.89,-29.57 625.92,-36.49"/>
</a>
</g>
</g>
</g>
</svg>
