<?xml version="1.0" encoding="UTF-8" standalone="no"?>
<!DOCTYPE svg PUBLIC "-//W3C//DTD SVG 1.1//EN"
 "http://www.w3.org/Graphics/SVG/1.1/DTD/svg11.dtd">
<!-- Generated by graphviz version 2.43.0 (0)
 -->
<!-- Title: ft_is_only_n Pages: 1 -->
<svg width="831pt" height="64pt"
 viewBox="0.00 0.00 831.00 64.00" xmlns="http://www.w3.org/2000/svg" xmlns:xlink="http://www.w3.org/1999/xlink">
<g id="graph0" class="graph" transform="scale(1 1) rotate(0) translate(4 60)">
<title>ft_is_only_n</title>
<!-- Node1 -->
<g id="Node000001" class="node">
<title>Node1</title>
<g id="a_Node000001"><a xlink:title="Checks if a string consists only of &#39;n&#39; characters.">
<polygon fill="#999999" stroke="#666666" points="823,-37 749,-37 749,-18 823,-18 823,-37"/>
<text text-anchor="middle" x="786" y="-25" font-family="Helvetica,sans-Serif" font-size="10.00">ft_is_only_n</text>
</a>
</g>
</g>
<!-- Node2 -->
<g id="Node000002" class="node">
<title>Node2</title>
<g id="a_Node000002"><a xlink:href="for__merge__echo_8c.html#a93ec1dc7360b83d8ce076dc54bd68e6a" target="_top" xlink:title="Checks if a token represents a valid &#45;n option for the echo command.">
<polygon fill="white" stroke="#666666" points="698.5,-56 594.5,-56 594.5,-37 698.5,-37 698.5,-56"/>
<text text-anchor="middle" x="646.5" y="-44" font-family="Helvetica,sans-Serif" font-size="10.00">ft_check_n_option</text>
</a>
</g>
</g>
<!-- Node1&#45;&gt;Node2 -->
<g id="edge1_Node000001_Node000002" class="edge">
<title>Node1&#45;&gt;Node2</title>
<g id="a_edge1_Node000001_Node000002"><a xlink:title=" ">
<path fill="none" stroke="#63b8ff" d="M738.82,-33.88C725.91,-35.66 711.81,-37.61 698.64,-39.43"/>
<polygon fill="#63b8ff" stroke="#63b8ff" points="739.45,-37.33 748.87,-32.49 738.49,-30.39 739.45,-37.33"/>
</a>
</g>
</g>
<!-- Node8 -->
<g id="Node000008" class="node">
<title>Node8</title>
<g id="a_Node000008"><a xlink:href="for__merge__echo_8c.html#a9a9e603a3cf06f996da02d8b076da2c7" target="_top" xlink:title="Finds and merges all consecutive tokens like &#45;n, &#45;nn, etc. after the initial valid &#45;n token.">
<polygon fill="white" stroke="#666666" points="713,-19 580,-19 580,0 713,0 713,-19"/>
<text text-anchor="middle" x="646.5" y="-7" font-family="Helvetica,sans-Serif" font-size="10.00">ft_merge_subsequent_n</text>
</a>
</g>
</g>
<!-- Node1&#45;&gt;Node8 -->
<g id="edge7_Node000001_Node000008" class="edge">
<title>Node1&#45;&gt;Node8</title>
<g id="a_edge7_Node000001_Node000008"><a xlink:title=" ">
<path fill="none" stroke="#63b8ff" d="M738.75,-21.45C730.53,-20.37 721.82,-19.23 713.17,-18.1"/>
<polygon fill="#63b8ff" stroke="#63b8ff" points="738.5,-24.94 748.87,-22.77 739.41,-18 738.5,-24.94"/>
</a>
</g>
</g>
<!-- Node3 -->
<g id="Node000003" class="node">
<title>Node3</title>
<g id="a_Node000003"><a xlink:href="for__merge__echo_8c.html#a5326da08ceca8e15b2ceca38c9930e08" target="_top" xlink:title="Handles merging multiple &#45;n, &#45;nn, etc. tokens for the echo command.">
<polygon fill="white" stroke="#666666" points="544,-37 418,-37 418,-18 544,-18 544,-37"/>
<text text-anchor="middle" x="481" y="-25" font-family="Helvetica,sans-Serif" font-size="10.00">ft_merge_tokens_echo</text>
</a>
</g>
</g>
<!-- Node2&#45;&gt;Node3 -->
<g id="edge2_Node000002_Node000003" class="edge">
<title>Node2&#45;&gt;Node3</title>
<g id="a_edge2_Node000002_Node000003"><a xlink:title=" ">
<path fill="none" stroke="#63b8ff" d="M583.93,-39.34C570.87,-37.83 557.08,-36.23 544.01,-34.71"/>
<polygon fill="#63b8ff" stroke="#63b8ff" points="583.88,-42.86 594.22,-40.54 584.69,-35.91 583.88,-42.86"/>
</a>
</g>
</g>
<!-- Node4 -->
<g id="Node000004" class="node">
<title>Node4</title>
<g id="a_Node000004"><a xlink:href="tokenize__input_8c.html#a040acaabf04da0b8d7ce5da9c1d210d8" target="_top" xlink:title="Assigns types to tokens and applies command&#45;specific rules.">
<polygon fill="white" stroke="#666666" points="382,-37 286,-37 286,-18 382,-18 382,-37"/>
<text text-anchor="middle" x="334" y="-25" font-family="Helvetica,sans-Serif" font-size="10.00">ft_define_tokens</text>
</a>
</g>
</g>
<!-- Node3&#45;&gt;Node4 -->
<g id="edge3_Node000003_Node000004" class="edge">
<title>Node3&#45;&gt;Node4</title>
<g id="a_edge3_Node000003_Node000004"><a xlink:title=" ">
<path fill="none" stroke="#63b8ff" d="M407.63,-27.5C399.06,-27.5 390.49,-27.5 382.39,-27.5"/>
<polygon fill="#63b8ff" stroke="#63b8ff" points="407.67,-31 417.67,-27.5 407.67,-24 407.67,-31"/>
</a>
</g>
</g>
<!-- Node5 -->
<g id="Node000005" class="node">
<title>Node5</title>
<g id="a_Node000005"><a xlink:href="tokenize__input_8c.html#a4e40c3f57ab2488a2b49f37846785b2e" target="_top" xlink:title="Tokenizes the entire user input string.">
<polygon fill="white" stroke="#666666" points="250,-37 192,-37 192,-18 250,-18 250,-37"/>
<text text-anchor="middle" x="221" y="-25" font-family="Helvetica,sans-Serif" font-size="10.00">tokenize</text>
</a>
</g>
</g>
<!-- Node4&#45;&gt;Node5 -->
<g id="edge4_Node000004_Node000005" class="edge">
<title>Node4&#45;&gt;Node5</title>
<g id="a_edge4_Node000004_Node000005"><a xlink:title=" ">
<path fill="none" stroke="#63b8ff" d="M275.87,-27.5C266.93,-27.5 258.06,-27.5 250.16,-27.5"/>
<polygon fill="#63b8ff" stroke="#63b8ff" points="275.93,-31 285.93,-27.5 275.93,-24 275.93,-31"/>
</a>
</g>
</g>
<!-- Node6 -->
<g id="Node000006" class="node">
<title>Node6</title>
<g id="a_Node000006"><a xlink:href="main__utils_8c.html#ae35edfb8f1339d6f77f53c28eb2a2ed6" target="_top" xlink:title="Handles a complete cycle of input → parsing → execution.">
<polygon fill="white" stroke="#666666" points="156,-37 77,-37 77,-18 156,-18 156,-37"/>
<text text-anchor="middle" x="116.5" y="-25" font-family="Helvetica,sans-Serif" font-size="10.00">ft_main_flow</text>
</a>
</g>
</g>
<!-- Node5&#45;&gt;Node6 -->
<g id="edge5_Node000005_Node000006" class="edge">
<title>Node5&#45;&gt;Node6</title>
<g id="a_edge5_Node000005_Node000006"><a xlink:title=" ">
<path fill="none" stroke="#63b8ff" d="M181.76,-27.5C173.42,-27.5 164.59,-27.5 156.23,-27.5"/>
<polygon fill="#63b8ff" stroke="#63b8ff" points="181.99,-31 191.99,-27.5 181.99,-24 181.99,-31"/>
</a>
</g>
</g>
<!-- Node7 -->
<g id="Node000007" class="node">
<title>Node7</title>
<g id="a_Node000007"><a xlink:href="main_8c.html#ab3862b46d6a8d13c2d884a297e6b05b5" target="_top" xlink:title="Main function of the minishell.">
<polygon fill="white" stroke="#666666" points="41,-37 0,-37 0,-18 41,-18 41,-37"/>
<text text-anchor="middle" x="20.5" y="-25" font-family="Helvetica,sans-Serif" font-size="10.00">main</text>
</a>
</g>
</g>
<!-- Node6&#45;&gt;Node7 -->
<g id="edge6_Node000006_Node000007" class="edge">
<title>Node6&#45;&gt;Node7</title>
<g id="a_edge6_Node000006_Node000007"><a xlink:title=" ">
<path fill="none" stroke="#63b8ff" d="M66.74,-27.5C57.62,-27.5 48.59,-27.5 41.03,-27.5"/>
<polygon fill="#63b8ff" stroke="#63b8ff" points="67,-31 77,-27.5 67,-24 67,-31"/>
</a>
</g>
</g>
<!-- Node8&#45;&gt;Node3 -->
<g id="edge8_Node000008_Node000003" class="edge">
<title>Node8&#45;&gt;Node3</title>
<g id="a_edge8_Node000008_Node000003"><a xlink:title=" ">
<path fill="none" stroke="#63b8ff" d="M569.88,-17.82C561.26,-18.77 552.54,-19.73 544.12,-20.66"/>
<polygon fill="#63b8ff" stroke="#63b8ff" points="570.38,-21.29 579.94,-16.72 569.62,-14.33 570.38,-21.29"/>
</a>
</g>
</g>
</g>
</svg>
