<?xml version="1.0" encoding="UTF-8" standalone="no"?>
<!DOCTYPE svg PUBLIC "-//W3C//DTD SVG 1.1//EN"
 "http://www.w3.org/Graphics/SVG/1.1/DTD/svg11.dtd">
<!-- Generated by graphviz version 2.43.0 (0)
 -->
<!-- Title: tokens/for_merge_export.c Pages: 1 -->
<svg width="959pt" height="258pt"
 viewBox="0.00 0.00 958.50 258.00" xmlns="http://www.w3.org/2000/svg" xmlns:xlink="http://www.w3.org/1999/xlink">
<g id="graph0" class="graph" transform="scale(1 1) rotate(0) translate(4 254)">
<title>tokens/for_merge_export.c</title>
<!-- Node1 -->
<g id="Node000001" class="node">
<title>Node1</title>
<g id="a_Node000001"><a xlink:title=" ">
<polygon fill="#999999" stroke="#666666" points="147,-250 0,-250 0,-231 147,-231 147,-250"/>
<text text-anchor="middle" x="73.5" y="-238" font-family="Helvetica,sans-Serif" font-size="10.00">tokens/for_merge_export.c</text>
</a>
</g>
</g>
<!-- Node2 -->
<g id="Node000002" class="node">
<title>Node2</title>
<g id="a_Node000002"><a xlink:href="tokens_8h.html" target="_top" xlink:title=" ">
<polygon fill="white" stroke="#666666" points="291.5,-195 233.5,-195 233.5,-176 291.5,-176 291.5,-195"/>
<text text-anchor="middle" x="262.5" y="-183" font-family="Helvetica,sans-Serif" font-size="10.00">tokens.h</text>
</a>
</g>
</g>
<!-- Node1&#45;&gt;Node2 -->
<g id="edge1_Node000001_Node000002" class="edge">
<title>Node1&#45;&gt;Node2</title>
<g id="a_edge1_Node000001_Node000002"><a xlink:title=" ">
<path fill="none" stroke="#63b8ff" d="M103.87,-230.98C136.35,-221.88 187.97,-207.4 223.45,-197.45"/>
<polygon fill="#63b8ff" stroke="#63b8ff" points="224.77,-200.72 233.45,-194.65 222.88,-193.98 224.77,-200.72"/>
</a>
</g>
</g>
<!-- Node7 -->
<g id="Node000007" class="node">
<title>Node7</title>
<g id="a_Node000007"><a xlink:title=" ">
<polygon fill="#e0e0e0" stroke="#999999" points="110,-19 57,-19 57,0 110,0 110,-19"/>
<text text-anchor="middle" x="83.5" y="-7" font-family="Helvetica,sans-Serif" font-size="10.00">string.h</text>
</a>
</g>
</g>
<!-- Node1&#45;&gt;Node7 -->
<g id="edge23_Node000001_Node000007" class="edge">
<title>Node1&#45;&gt;Node7</title>
<g id="a_edge23_Node000001_Node000007"><a xlink:title=" ">
<path fill="none" stroke="#63b8ff" d="M73.88,-230.8C75.34,-197.29 80.64,-76.08 82.68,-29.2"/>
<polygon fill="#63b8ff" stroke="#63b8ff" points="86.18,-29.35 83.12,-19.21 79.19,-29.04 86.18,-29.35"/>
</a>
</g>
</g>
<!-- Node3 -->
<g id="Node000003" class="node">
<title>Node3</title>
<g id="a_Node000003"><a xlink:href="common__utils_8h.html" target="_top" xlink:title=" ">
<polygon fill="white" stroke="#666666" points="544.5,-140 404.5,-140 404.5,-110 544.5,-110 544.5,-140"/>
<text text-anchor="start" x="412.5" y="-128" font-family="Helvetica,sans-Serif" font-size="10.00">../common_utils/common</text>
<text text-anchor="middle" x="474.5" y="-117" font-family="Helvetica,sans-Serif" font-size="10.00">_utils.h</text>
</a>
</g>
</g>
<!-- Node2&#45;&gt;Node3 -->
<g id="edge2_Node000002_Node000003" class="edge">
<title>Node2&#45;&gt;Node3</title>
<g id="a_edge2_Node000002_Node000003"><a xlink:title=" ">
<path fill="none" stroke="#63b8ff" d="M291.53,-176.49C322.86,-167.84 373.64,-153.83 413.76,-142.76"/>
<polygon fill="#63b8ff" stroke="#63b8ff" points="414.75,-146.12 423.45,-140.09 412.88,-139.37 414.75,-146.12"/>
</a>
</g>
</g>
<!-- Node4 -->
<g id="Node000004" class="node">
<title>Node4</title>
<g id="a_Node000004"><a xlink:href="libft_8h.html" target="_top" xlink:title=" ">
<polygon fill="white" stroke="#666666" points="821,-74 746,-74 746,-55 821,-55 821,-74"/>
<text text-anchor="middle" x="783.5" y="-62" font-family="Helvetica,sans-Serif" font-size="10.00">../libft/libft.h</text>
</a>
</g>
</g>
<!-- Node3&#45;&gt;Node4 -->
<g id="edge3_Node000003_Node000004" class="edge">
<title>Node3&#45;&gt;Node4</title>
<g id="a_edge3_Node000003_Node000004"><a xlink:title=" ">
<path fill="none" stroke="#63b8ff" d="M544.62,-110.73C602.92,-99.69 684.35,-84.27 735.49,-74.59"/>
<polygon fill="#63b8ff" stroke="#63b8ff" points="736.43,-77.97 745.61,-72.67 735.13,-71.1 736.43,-77.97"/>
</a>
</g>
</g>
<!-- Node5 -->
<g id="Node000005" class="node">
<title>Node5</title>
<g id="a_Node000005"><a xlink:title=" ">
<polygon fill="#e0e0e0" stroke="#999999" points="950.5,-19 894.5,-19 894.5,0 950.5,0 950.5,-19"/>
<text text-anchor="middle" x="922.5" y="-7" font-family="Helvetica,sans-Serif" font-size="10.00">unistd.h</text>
</a>
</g>
</g>
<!-- Node3&#45;&gt;Node5 -->
<g id="edge22_Node000003_Node000005" class="edge">
<title>Node3&#45;&gt;Node5</title>
<g id="a_edge22_Node000003_Node000005"><a xlink:title=" ">
<path fill="none" stroke="#63b8ff" d="M544.67,-119.56C638.02,-112.81 797.46,-98.16 850.5,-74 874.08,-63.26 895.58,-42.14 908.82,-27.21"/>
<polygon fill="#63b8ff" stroke="#63b8ff" points="911.78,-29.14 915.62,-19.26 906.46,-24.59 911.78,-29.14"/>
</a>
</g>
</g>
<!-- Node6 -->
<g id="Node000006" class="node">
<title>Node6</title>
<g id="a_Node000006"><a xlink:title=" ">
<polygon fill="#e0e0e0" stroke="#999999" points="284,-19 231,-19 231,0 284,0 284,-19"/>
<text text-anchor="middle" x="257.5" y="-7" font-family="Helvetica,sans-Serif" font-size="10.00">stdlib.h</text>
</a>
</g>
</g>
<!-- Node3&#45;&gt;Node6 -->
<g id="edge20_Node000003_Node000006" class="edge">
<title>Node3&#45;&gt;Node6</title>
<g id="a_edge20_Node000003_Node000006"><a xlink:title=" ">
<path fill="none" stroke="#63b8ff" d="M404.27,-123.8C316.54,-121.88 173.84,-112.7 140.5,-74 114.32,-43.61 177.43,-25.23 220.79,-16.56"/>
<polygon fill="#63b8ff" stroke="#63b8ff" points="221.61,-19.96 230.78,-14.65 220.3,-13.09 221.61,-19.96"/>
</a>
</g>
</g>
<!-- Node3&#45;&gt;Node7 -->
<g id="edge21_Node000003_Node000007" class="edge">
<title>Node3&#45;&gt;Node7</title>
<g id="a_edge21_Node000003_Node000007"><a xlink:title=" ">
<path fill="none" stroke="#63b8ff" d="M404.35,-120.14C317.47,-114.29 175.43,-100.87 130.5,-74 112.71,-63.36 99.55,-43.15 91.74,-28.38"/>
<polygon fill="#63b8ff" stroke="#63b8ff" points="94.78,-26.62 87.21,-19.21 88.5,-29.73 94.78,-26.62"/>
</a>
</g>
</g>
<!-- Node10 -->
<g id="Node000010" class="node">
<title>Node10</title>
<g id="a_Node000010"><a xlink:title=" ">
<polygon fill="#e0e0e0" stroke="#999999" points="876,-19 829,-19 829,0 876,0 876,-19"/>
<text text-anchor="middle" x="852.5" y="-7" font-family="Helvetica,sans-Serif" font-size="10.00">fcntl.h</text>
</a>
</g>
</g>
<!-- Node3&#45;&gt;Node10 -->
<g id="edge16_Node000003_Node000010" class="edge">
<title>Node3&#45;&gt;Node10</title>
<g id="a_edge16_Node000003_Node000010"><a xlink:title=" ">
<path fill="none" stroke="#63b8ff" d="M544.64,-122.63C635.73,-119.44 788.09,-108.89 830.5,-74 843.72,-63.12 849.02,-43.85 851.12,-29.38"/>
<polygon fill="#63b8ff" stroke="#63b8ff" points="854.65,-29.37 852.22,-19.05 847.68,-28.63 854.65,-29.37"/>
</a>
</g>
</g>
<!-- Node14 -->
<g id="Node000014" class="node">
<title>Node14</title>
<g id="a_Node000014"><a xlink:href="signal__flag_8h.html" target="_top" xlink:title=" ">
<polygon fill="white" stroke="#666666" points="227.5,-74 149.5,-74 149.5,-55 227.5,-55 227.5,-74"/>
<text text-anchor="middle" x="188.5" y="-62" font-family="Helvetica,sans-Serif" font-size="10.00">signal_flag.h</text>
</a>
</g>
</g>
<!-- Node3&#45;&gt;Node14 -->
<g id="edge13_Node000003_Node000014" class="edge">
<title>Node3&#45;&gt;Node14</title>
<g id="a_edge13_Node000003_Node000014"><a xlink:title=" ">
<path fill="none" stroke="#63b8ff" d="M406,-109.99C354.11,-99.38 284.08,-85.05 237.66,-75.56"/>
<polygon fill="#63b8ff" stroke="#63b8ff" points="238.34,-72.12 227.84,-73.55 236.93,-78.98 238.34,-72.12"/>
</a>
</g>
</g>
<!-- Node15 -->
<g id="Node000015" class="node">
<title>Node15</title>
<g id="a_Node000015"><a xlink:title=" ">
<polygon fill="#e0e0e0" stroke="#999999" points="353.5,-74 245.5,-74 245.5,-55 353.5,-55 353.5,-74"/>
<text text-anchor="middle" x="299.5" y="-62" font-family="Helvetica,sans-Serif" font-size="10.00">readline/readline.h</text>
</a>
</g>
</g>
<!-- Node3&#45;&gt;Node15 -->
<g id="edge14_Node000003_Node000015" class="edge">
<title>Node3&#45;&gt;Node15</title>
<g id="a_edge14_Node000003_Node000015"><a xlink:title=" ">
<path fill="none" stroke="#63b8ff" d="M432.58,-109.99C402.77,-100.02 363.17,-86.78 334.94,-77.35"/>
<polygon fill="#63b8ff" stroke="#63b8ff" points="335.68,-73.9 325.09,-74.05 333.46,-80.54 335.68,-73.9"/>
</a>
</g>
</g>
<!-- Node16 -->
<g id="Node000016" class="node">
<title>Node16</title>
<g id="a_Node000016"><a xlink:title=" ">
<polygon fill="#e0e0e0" stroke="#999999" points="473,-74 372,-74 372,-55 473,-55 473,-74"/>
<text text-anchor="middle" x="422.5" y="-62" font-family="Helvetica,sans-Serif" font-size="10.00">readline/history.h</text>
</a>
</g>
</g>
<!-- Node3&#45;&gt;Node16 -->
<g id="edge15_Node000003_Node000016" class="edge">
<title>Node3&#45;&gt;Node16</title>
<g id="a_edge15_Node000003_Node000016"><a xlink:title=" ">
<path fill="none" stroke="#63b8ff" d="M461.91,-109.84C454.44,-101.43 444.94,-90.74 437.13,-81.96"/>
<polygon fill="#63b8ff" stroke="#63b8ff" points="439.55,-79.41 430.29,-74.27 434.32,-84.07 439.55,-79.41"/>
</a>
</g>
</g>
<!-- Node17 -->
<g id="Node000017" class="node">
<title>Node17</title>
<g id="a_Node000017"><a xlink:title=" ">
<polygon fill="#e0e0e0" stroke="#999999" points="563.5,-74 491.5,-74 491.5,-55 563.5,-55 563.5,-74"/>
<text text-anchor="middle" x="527.5" y="-62" font-family="Helvetica,sans-Serif" font-size="10.00">sys/types.h</text>
</a>
</g>
</g>
<!-- Node3&#45;&gt;Node17 -->
<g id="edge17_Node000003_Node000017" class="edge">
<title>Node3&#45;&gt;Node17</title>
<g id="a_edge17_Node000003_Node000017"><a xlink:title=" ">
<path fill="none" stroke="#63b8ff" d="M487.33,-109.84C495.02,-101.35 504.83,-90.52 512.83,-81.69"/>
<polygon fill="#63b8ff" stroke="#63b8ff" points="515.44,-84.03 519.56,-74.27 510.25,-79.33 515.44,-84.03"/>
</a>
</g>
</g>
<!-- Node18 -->
<g id="Node000018" class="node">
<title>Node18</title>
<g id="a_Node000018"><a xlink:title=" ">
<polygon fill="#e0e0e0" stroke="#999999" points="647.5,-74 581.5,-74 581.5,-55 647.5,-55 647.5,-74"/>
<text text-anchor="middle" x="614.5" y="-62" font-family="Helvetica,sans-Serif" font-size="10.00">sys/wait.h</text>
</a>
</g>
</g>
<!-- Node3&#45;&gt;Node18 -->
<g id="edge18_Node000003_Node000018" class="edge">
<title>Node3&#45;&gt;Node18</title>
<g id="a_edge18_Node000003_Node000018"><a xlink:title=" ">
<path fill="none" stroke="#63b8ff" d="M508.03,-109.99C531.29,-100.27 561.99,-87.44 584.45,-78.06"/>
<polygon fill="#63b8ff" stroke="#63b8ff" points="585.95,-81.22 593.82,-74.14 583.25,-74.77 585.95,-81.22"/>
</a>
</g>
</g>
<!-- Node19 -->
<g id="Node000019" class="node">
<title>Node19</title>
<g id="a_Node000019"><a xlink:title=" ">
<polygon fill="#e0e0e0" stroke="#999999" points="727.5,-74 665.5,-74 665.5,-55 727.5,-55 727.5,-74"/>
<text text-anchor="middle" x="696.5" y="-62" font-family="Helvetica,sans-Serif" font-size="10.00">stdbool.h</text>
</a>
</g>
</g>
<!-- Node3&#45;&gt;Node19 -->
<g id="edge19_Node000003_Node000019" class="edge">
<title>Node3&#45;&gt;Node19</title>
<g id="a_edge19_Node000003_Node000019"><a xlink:title=" ">
<path fill="none" stroke="#63b8ff" d="M527.67,-109.99C566.95,-99.64 619.64,-85.75 655.64,-76.27"/>
<polygon fill="#63b8ff" stroke="#63b8ff" points="656.55,-79.65 665.33,-73.71 654.77,-72.88 656.55,-79.65"/>
</a>
</g>
</g>
<!-- Node4&#45;&gt;Node5 -->
<g id="edge4_Node000004_Node000005" class="edge">
<title>Node4&#45;&gt;Node5</title>
<g id="a_edge4_Node000004_Node000005"><a xlink:title=" ">
<path fill="none" stroke="#63b8ff" d="M805.83,-54.98C828.7,-46.27 864.46,-32.63 890.36,-22.75"/>
<polygon fill="#63b8ff" stroke="#63b8ff" points="891.66,-26 899.76,-19.17 889.17,-19.46 891.66,-26"/>
</a>
</g>
</g>
<!-- Node4&#45;&gt;Node6 -->
<g id="edge5_Node000004_Node000006" class="edge">
<title>Node4&#45;&gt;Node6</title>
<g id="a_edge5_Node000004_Node000006"><a xlink:title=" ">
<path fill="none" stroke="#63b8ff" d="M745.84,-56.39C742.68,-55.89 739.54,-55.42 736.5,-55 572.17,-32.55 374.56,-18.15 294.18,-12.82"/>
<polygon fill="#63b8ff" stroke="#63b8ff" points="294.28,-9.32 284.07,-12.16 293.82,-16.31 294.28,-9.32"/>
</a>
</g>
</g>
<!-- Node4&#45;&gt;Node7 -->
<g id="edge6_Node000004_Node000007" class="edge">
<title>Node4&#45;&gt;Node7</title>
<g id="a_edge6_Node000004_Node000007"><a xlink:title=" ">
<path fill="none" stroke="#63b8ff" d="M745.85,-56.31C742.69,-55.82 739.54,-55.38 736.5,-55 675.35,-47.41 249.05,-20.74 120.26,-12.77"/>
<polygon fill="#63b8ff" stroke="#63b8ff" points="120.32,-9.26 110.12,-12.14 119.89,-16.25 120.32,-9.26"/>
</a>
</g>
</g>
<!-- Node8 -->
<g id="Node000008" class="node">
<title>Node8</title>
<g id="a_Node000008"><a xlink:title=" ">
<polygon fill="#e0e0e0" stroke="#999999" points="737.5,-19 687.5,-19 687.5,0 737.5,0 737.5,-19"/>
<text text-anchor="middle" x="712.5" y="-7" font-family="Helvetica,sans-Serif" font-size="10.00">stdio.h</text>
</a>
</g>
</g>
<!-- Node4&#45;&gt;Node8 -->
<g id="edge7_Node000004_Node000008" class="edge">
<title>Node4&#45;&gt;Node8</title>
<g id="a_edge7_Node000004_Node000008"><a xlink:title=" ">
<path fill="none" stroke="#63b8ff" d="M772.09,-54.98C761.39,-47 745.16,-34.88 732.34,-25.31"/>
<polygon fill="#63b8ff" stroke="#63b8ff" points="734.22,-22.35 724.11,-19.17 730.03,-27.96 734.22,-22.35"/>
</a>
</g>
</g>
<!-- Node9 -->
<g id="Node000009" class="node">
<title>Node9</title>
<g id="a_Node000009"><a xlink:title=" ">
<polygon fill="#e0e0e0" stroke="#999999" points="811,-19 756,-19 756,0 811,0 811,-19"/>
<text text-anchor="middle" x="783.5" y="-7" font-family="Helvetica,sans-Serif" font-size="10.00">signal.h</text>
</a>
</g>
</g>
<!-- Node4&#45;&gt;Node9 -->
<g id="edge8_Node000004_Node000009" class="edge">
<title>Node4&#45;&gt;Node9</title>
<g id="a_edge8_Node000004_Node000009"><a xlink:title=" ">
<path fill="none" stroke="#63b8ff" d="M783.5,-54.75C783.5,-47.8 783.5,-37.85 783.5,-29.13"/>
<polygon fill="#63b8ff" stroke="#63b8ff" points="787,-29.09 783.5,-19.09 780,-29.09 787,-29.09"/>
</a>
</g>
</g>
<!-- Node4&#45;&gt;Node10 -->
<g id="edge9_Node000004_Node000010" class="edge">
<title>Node4&#45;&gt;Node10</title>
<g id="a_edge9_Node000004_Node000010"><a xlink:title=" ">
<path fill="none" stroke="#63b8ff" d="M794.59,-54.98C804.99,-47 820.76,-34.88 833.22,-25.31"/>
<polygon fill="#63b8ff" stroke="#63b8ff" points="835.41,-28.04 841.21,-19.17 831.15,-22.49 835.41,-28.04"/>
</a>
</g>
</g>
<!-- Node11 -->
<g id="Node000011" class="node">
<title>Node11</title>
<g id="a_Node000011"><a xlink:title=" ">
<polygon fill="#e0e0e0" stroke="#999999" points="523,-19 404,-19 404,0 523,0 523,-19"/>
<text text-anchor="middle" x="463.5" y="-7" font-family="Helvetica,sans-Serif" font-size="10.00">bits/types/siginfo_t.h</text>
</a>
</g>
</g>
<!-- Node4&#45;&gt;Node11 -->
<g id="edge10_Node000004_Node000011" class="edge">
<title>Node4&#45;&gt;Node11</title>
<g id="a_edge10_Node000004_Node000011"><a xlink:title=" ">
<path fill="none" stroke="#63b8ff" d="M745.8,-56.62C742.66,-56.07 739.52,-55.52 736.5,-55 664.99,-42.71 582.79,-29.42 527.43,-20.6"/>
<polygon fill="#63b8ff" stroke="#63b8ff" points="527.84,-17.12 517.42,-19.01 526.74,-24.03 527.84,-17.12"/>
</a>
</g>
</g>
<!-- Node12 -->
<g id="Node000012" class="node">
<title>Node12</title>
<g id="a_Node000012"><a xlink:title=" ">
<polygon fill="#e0e0e0" stroke="#999999" points="597.5,-19 541.5,-19 541.5,0 597.5,0 597.5,-19"/>
<text text-anchor="middle" x="569.5" y="-7" font-family="Helvetica,sans-Serif" font-size="10.00">stdarg.h</text>
</a>
</g>
</g>
<!-- Node4&#45;&gt;Node12 -->
<g id="edge11_Node000004_Node000012" class="edge">
<title>Node4&#45;&gt;Node12</title>
<g id="a_edge11_Node000004_Node000012"><a xlink:title=" ">
<path fill="none" stroke="#63b8ff" d="M749.12,-54.98C710.42,-45.4 647.74,-29.88 607.59,-19.93"/>
<polygon fill="#63b8ff" stroke="#63b8ff" points="608.2,-16.48 597.65,-17.47 606.51,-23.27 608.2,-16.48"/>
</a>
</g>
</g>
<!-- Node13 -->
<g id="Node000013" class="node">
<title>Node13</title>
<g id="a_Node000013"><a xlink:title=" ">
<polygon fill="#e0e0e0" stroke="#999999" points="669,-19 616,-19 616,0 669,0 669,-19"/>
<text text-anchor="middle" x="642.5" y="-7" font-family="Helvetica,sans-Serif" font-size="10.00">limits.h</text>
</a>
</g>
</g>
<!-- Node4&#45;&gt;Node13 -->
<g id="edge12_Node000004_Node000013" class="edge">
<title>Node4&#45;&gt;Node13</title>
<g id="a_edge12_Node000004_Node000013"><a xlink:title=" ">
<path fill="none" stroke="#63b8ff" d="M760.85,-54.98C737.65,-46.27 701.38,-32.63 675.1,-22.75"/>
<polygon fill="#63b8ff" stroke="#63b8ff" points="676.16,-19.41 665.57,-19.17 673.7,-25.97 676.16,-19.41"/>
</a>
</g>
</g>
</g>
</svg>
