<?xml version="1.0" encoding="UTF-8" standalone="no"?>
<!DOCTYPE svg PUBLIC "-//W3C//DTD SVG 1.1//EN"
 "http://www.w3.org/Graphics/SVG/1.1/DTD/svg11.dtd">
<!-- Generated by graphviz version 2.43.0 (0)
 -->
<!-- Title: ft_merge_subsequent_n Pages: 1 -->
<svg width="545pt" height="82pt"
 viewBox="0.00 0.00 545.00 82.00" xmlns="http://www.w3.org/2000/svg" xmlns:xlink="http://www.w3.org/1999/xlink">
<g id="graph0" class="graph" transform="scale(1 1) rotate(0) translate(4 78)">
<title>ft_merge_subsequent_n</title>
<!-- Node1 -->
<g id="Node000001" class="node">
<title>Node1</title>
<g id="a_Node000001"><a xlink:title="Finds and merges all consecutive tokens like &#45;n, &#45;nn, etc. after the initial valid &#45;n token.">
<polygon fill="#999999" stroke="#666666" points="133,-55 0,-55 0,-36 133,-36 133,-55"/>
<text text-anchor="middle" x="66.5" y="-43" font-family="Helvetica,sans-Serif" font-size="10.00">ft_merge_subsequent_n</text>
</a>
</g>
</g>
<!-- Node2 -->
<g id="Node000002" class="node">
<title>Node2</title>
<g id="a_Node000002"><a xlink:href="for__merge__echo_8c.html#a474f909992d6b44cb96736e899e0b1c4" target="_top" xlink:title="Checks if a string consists only of &#39;n&#39; characters.">
<polygon fill="white" stroke="#666666" points="260.5,-74 186.5,-74 186.5,-55 260.5,-55 260.5,-74"/>
<text text-anchor="middle" x="223.5" y="-62" font-family="Helvetica,sans-Serif" font-size="10.00">ft_is_only_n</text>
</a>
</g>
</g>
<!-- Node1&#45;&gt;Node2 -->
<g id="edge1_Node000001_Node000002" class="edge">
<title>Node1&#45;&gt;Node2</title>
<g id="a_edge1_Node000001_Node000002"><a xlink:title=" ">
<path fill="none" stroke="#63b8ff" d="M133.23,-53.56C147.7,-55.33 162.72,-57.17 176.23,-58.83"/>
<polygon fill="#63b8ff" stroke="#63b8ff" points="175.88,-62.31 186.23,-60.05 176.73,-55.36 175.88,-62.31"/>
</a>
</g>
</g>
<!-- Node3 -->
<g id="Node000003" class="node">
<title>Node3</title>
<g id="a_Node000003"><a xlink:href="for__merge__echo_8c.html#a1e7a6d749fc26b1a0848360c666ea945" target="_top" xlink:title="Merges two tokens by concatenating their values.">
<polygon fill="white" stroke="#666666" points="278,-37 169,-37 169,-18 278,-18 278,-37"/>
<text text-anchor="middle" x="223.5" y="-25" font-family="Helvetica,sans-Serif" font-size="10.00">ft_merge_n_tokens</text>
</a>
</g>
</g>
<!-- Node1&#45;&gt;Node3 -->
<g id="edge2_Node000001_Node000003" class="edge">
<title>Node1&#45;&gt;Node3</title>
<g id="a_edge2_Node000001_Node000003"><a xlink:title=" ">
<path fill="none" stroke="#63b8ff" d="M133.23,-37.87C141.68,-36.89 150.32,-35.88 158.73,-34.91"/>
<polygon fill="#63b8ff" stroke="#63b8ff" points="159.33,-38.36 168.86,-33.73 158.52,-31.41 159.33,-38.36"/>
</a>
</g>
</g>
<!-- Node4 -->
<g id="Node000004" class="node">
<title>Node4</title>
<g id="a_Node000004"><a xlink:href="ft__strjoin_8c.html#a91e6e3e428bcc9f2291b700e1829b82b" target="_top" xlink:title="Concatenates two strings into a newly allocated string.">
<polygon fill="white" stroke="#666666" points="401.5,-56 342.5,-56 342.5,-37 401.5,-37 401.5,-56"/>
<text text-anchor="middle" x="372" y="-44" font-family="Helvetica,sans-Serif" font-size="10.00">ft_strjoin</text>
</a>
</g>
</g>
<!-- Node3&#45;&gt;Node4 -->
<g id="edge3_Node000003_Node000004" class="edge">
<title>Node3&#45;&gt;Node4</title>
<g id="a_edge3_Node000003_Node000004"><a xlink:title=" ">
<path fill="none" stroke="#63b8ff" d="M278.22,-34.47C296.04,-36.78 315.52,-39.3 332.01,-41.44"/>
<polygon fill="#63b8ff" stroke="#63b8ff" points="332,-44.97 342.37,-42.79 332.9,-38.03 332,-44.97"/>
</a>
</g>
</g>
<!-- Node7 -->
<g id="Node000007" class="node">
<title>Node7</title>
<g id="a_Node000007"><a xlink:href="utils__token_8c.html#af9e2ea59c99233265f752bf7fb34a4a5" target="_top" xlink:title="Removes a specific token node from the linked list.">
<polygon fill="white" stroke="#666666" points="430,-19 314,-19 314,0 430,0 430,-19"/>
<text text-anchor="middle" x="372" y="-7" font-family="Helvetica,sans-Serif" font-size="10.00">remove_token_node</text>
</a>
</g>
</g>
<!-- Node3&#45;&gt;Node7 -->
<g id="edge6_Node000003_Node000007" class="edge">
<title>Node3&#45;&gt;Node7</title>
<g id="a_edge6_Node000003_Node000007"><a xlink:title=" ">
<path fill="none" stroke="#63b8ff" d="M278.22,-20.9C286.55,-19.88 295.25,-18.81 303.84,-17.75"/>
<polygon fill="#63b8ff" stroke="#63b8ff" points="304.34,-21.22 313.84,-16.52 303.49,-14.27 304.34,-21.22"/>
</a>
</g>
</g>
<!-- Node5 -->
<g id="Node000005" class="node">
<title>Node5</title>
<g id="a_Node000005"><a xlink:href="ft__memcpy_8c.html#a41a6f05af30cf85ff63a08e383826322" target="_top" xlink:title="Copies &#39;n&#39; bytes from memory area &#39;src&#39; to memory area &#39;dest&#39;.">
<polygon fill="white" stroke="#666666" points="537,-74 466,-74 466,-55 537,-55 537,-74"/>
<text text-anchor="middle" x="501.5" y="-62" font-family="Helvetica,sans-Serif" font-size="10.00">ft_memcpy</text>
</a>
</g>
</g>
<!-- Node4&#45;&gt;Node5 -->
<g id="edge4_Node000004_Node000005" class="edge">
<title>Node4&#45;&gt;Node5</title>
<g id="a_edge4_Node000004_Node000005"><a xlink:title=" ">
<path fill="none" stroke="#63b8ff" d="M401.61,-50.54C417.52,-52.79 437.68,-55.63 455.63,-58.17"/>
<polygon fill="#63b8ff" stroke="#63b8ff" points="455.23,-61.64 465.62,-59.58 456.21,-54.71 455.23,-61.64"/>
</a>
</g>
</g>
<!-- Node6 -->
<g id="Node000006" class="node">
<title>Node6</title>
<g id="a_Node000006"><a xlink:href="ft__strlen_8c.html#a828402378653640f545a4be2e00e92f9" target="_top" xlink:title="Calculates the length of a null&#45;terminated string.">
<polygon fill="white" stroke="#666666" points="529.5,-37 473.5,-37 473.5,-18 529.5,-18 529.5,-37"/>
<text text-anchor="middle" x="501.5" y="-25" font-family="Helvetica,sans-Serif" font-size="10.00">ft_strlen</text>
</a>
</g>
</g>
<!-- Node4&#45;&gt;Node6 -->
<g id="edge5_Node000004_Node000006" class="edge">
<title>Node4&#45;&gt;Node6</title>
<g id="a_edge5_Node000004_Node000006"><a xlink:title=" ">
<path fill="none" stroke="#63b8ff" d="M401.61,-42.24C419.79,-39.53 443.5,-35.99 463.15,-33.07"/>
<polygon fill="#63b8ff" stroke="#63b8ff" points="463.92,-36.49 473.29,-31.55 462.89,-29.57 463.92,-36.49"/>
</a>
</g>
</g>
</g>
</svg>
