<?xml version="1.0" encoding="UTF-8" standalone="no"?>
<!DOCTYPE svg PUBLIC "-//W3C//DTD SVG 1.1//EN"
 "http://www.w3.org/Graphics/SVG/1.1/DTD/svg11.dtd">
<!-- Generated by graphviz version 2.43.0 (0)
 -->
<!-- Title: ft_merge_tokens_export Pages: 1 -->
<svg width="658pt" height="120pt"
 viewBox="0.00 0.00 658.00 120.00" xmlns="http://www.w3.org/2000/svg" xmlns:xlink="http://www.w3.org/1999/xlink">
<g id="graph0" class="graph" transform="scale(1 1) rotate(0) translate(4 116)">
<title>ft_merge_tokens_export</title>
<!-- Node1 -->
<g id="Node000001" class="node">
<title>Node1</title>
<g id="a_Node000001"><a xlink:title="Checks if the current command is export and, if so, merges the following ARGUMENT tokens.">
<polygon fill="#999999" stroke="#666666" points="134,-37 0,-37 0,-18 134,-18 134,-37"/>
<text text-anchor="middle" x="67" y="-25" font-family="Helvetica,sans-Serif" font-size="10.00">ft_merge_tokens_export</text>
</a>
</g>
</g>
<!-- Node2 -->
<g id="Node000002" class="node">
<title>Node2</title>
<g id="a_Node000002"><a xlink:href="for__merge__export_8c.html#ae1468c1b7b66228b739b08940a389e42" target="_top" xlink:title="Merges consecutive ARGUMENT tokens into a single token, used for the export command.">
<polygon fill="white" stroke="#666666" points="296,-56 170,-56 170,-37 296,-37 296,-56"/>
<text text-anchor="middle" x="233" y="-44" font-family="Helvetica,sans-Serif" font-size="10.00">ft_merge_word_export</text>
</a>
</g>
</g>
<!-- Node1&#45;&gt;Node2 -->
<g id="edge1_Node000001_Node000002" class="edge">
<title>Node1&#45;&gt;Node2</title>
<g id="a_edge1_Node000001_Node000002"><a xlink:title=" ">
<path fill="none" stroke="#63b8ff" d="M134.23,-35.17C142.57,-36.14 151.14,-37.13 159.58,-38.11"/>
<polygon fill="#63b8ff" stroke="#63b8ff" points="159.43,-41.62 169.77,-39.29 160.24,-34.66 159.43,-41.62"/>
</a>
</g>
</g>
<!-- Node9 -->
<g id="Node000009" class="node">
<title>Node9</title>
<g id="a_Node000009"><a xlink:href="ft__strcmp_8c.html#a1f2ff2312e5994560c9537cd9173be94" target="_top" xlink:title="Compares two null&#45;terminated strings lexicographically.">
<polygon fill="white" stroke="#666666" points="264,-19 202,-19 202,0 264,0 264,-19"/>
<text text-anchor="middle" x="233" y="-7" font-family="Helvetica,sans-Serif" font-size="10.00">ft_strcmp</text>
</a>
</g>
</g>
<!-- Node1&#45;&gt;Node9 -->
<g id="edge8_Node000001_Node000009" class="edge">
<title>Node1&#45;&gt;Node9</title>
<g id="a_edge8_Node000001_Node000009"><a xlink:title=" ">
<path fill="none" stroke="#63b8ff" d="M134.23,-20.23C153.67,-18.1 174.33,-15.83 191.63,-13.93"/>
<polygon fill="#63b8ff" stroke="#63b8ff" points="192.37,-17.37 201.93,-12.8 191.6,-10.41 192.37,-17.37"/>
</a>
</g>
</g>
<!-- Node3 -->
<g id="Node000003" class="node">
<title>Node3</title>
<g id="a_Node000003"><a xlink:href="for__merge__export_8c.html#a8badee2557e8867921cbb0dc2873317b" target="_top" xlink:title="Merges the current token&#39;s value with the next token&#39;s value.">
<polygon fill="white" stroke="#666666" points="422,-93 358,-93 358,-74 422,-74 422,-93"/>
<text text-anchor="middle" x="390" y="-81" font-family="Helvetica,sans-Serif" font-size="10.00">ft_merger</text>
</a>
</g>
</g>
<!-- Node2&#45;&gt;Node3 -->
<g id="edge2_Node000002_Node000003" class="edge">
<title>Node2&#45;&gt;Node3</title>
<g id="a_edge2_Node000002_Node000003"><a xlink:title=" ">
<path fill="none" stroke="#63b8ff" d="M273.92,-56.03C296.58,-61.44 324.89,-68.2 347.76,-73.66"/>
<polygon fill="#63b8ff" stroke="#63b8ff" points="346.99,-77.07 357.53,-75.99 348.61,-70.26 346.99,-77.07"/>
</a>
</g>
</g>
<!-- Node7 -->
<g id="Node000007" class="node">
<title>Node7</title>
<g id="a_Node000007"><a xlink:href="ft__strdup_8c.html#aebe73f27c70c56ac5053f860ef5436c9" target="_top" xlink:title="Duplicates a null&#45;terminated string by allocating memory.">
<polygon fill="white" stroke="#666666" points="419.5,-56 360.5,-56 360.5,-37 419.5,-37 419.5,-56"/>
<text text-anchor="middle" x="390" y="-44" font-family="Helvetica,sans-Serif" font-size="10.00">ft_strdup</text>
</a>
</g>
</g>
<!-- Node2&#45;&gt;Node7 -->
<g id="edge6_Node000002_Node000007" class="edge">
<title>Node2&#45;&gt;Node7</title>
<g id="a_edge6_Node000002_Node000007"><a xlink:title=" ">
<path fill="none" stroke="#63b8ff" d="M296.15,-46.5C314.39,-46.5 333.81,-46.5 350.15,-46.5"/>
<polygon fill="#63b8ff" stroke="#63b8ff" points="350.4,-50 360.4,-46.5 350.4,-43 350.4,-50"/>
</a>
</g>
</g>
<!-- Node8 -->
<g id="Node000008" class="node">
<title>Node8</title>
<g id="a_Node000008"><a xlink:href="utils__token_8c.html#af9e2ea59c99233265f752bf7fb34a4a5" target="_top" xlink:title="Removes a specific token node from the linked list.">
<polygon fill="white" stroke="#666666" points="448,-19 332,-19 332,0 448,0 448,-19"/>
<text text-anchor="middle" x="390" y="-7" font-family="Helvetica,sans-Serif" font-size="10.00">remove_token_node</text>
</a>
</g>
</g>
<!-- Node2&#45;&gt;Node8 -->
<g id="edge7_Node000002_Node000008" class="edge">
<title>Node2&#45;&gt;Node8</title>
<g id="a_edge7_Node000002_Node000008"><a xlink:title=" ">
<path fill="none" stroke="#63b8ff" d="M273.92,-36.97C293.82,-32.22 318.08,-26.43 339.19,-21.39"/>
<polygon fill="#63b8ff" stroke="#63b8ff" points="340.04,-24.79 348.95,-19.06 338.41,-17.98 340.04,-24.79"/>
</a>
</g>
</g>
<!-- Node4 -->
<g id="Node000004" class="node">
<title>Node4</title>
<g id="a_Node000004"><a xlink:href="ft__strjoin_8c.html#a91e6e3e428bcc9f2291b700e1829b82b" target="_top" xlink:title="Concatenates two strings into a newly allocated string.">
<polygon fill="white" stroke="#666666" points="543,-93 484,-93 484,-74 543,-74 543,-93"/>
<text text-anchor="middle" x="513.5" y="-81" font-family="Helvetica,sans-Serif" font-size="10.00">ft_strjoin</text>
</a>
</g>
</g>
<!-- Node3&#45;&gt;Node4 -->
<g id="edge3_Node000003_Node000004" class="edge">
<title>Node3&#45;&gt;Node4</title>
<g id="a_edge3_Node000003_Node000004"><a xlink:title=" ">
<path fill="none" stroke="#63b8ff" d="M422.29,-83.5C437.86,-83.5 456.84,-83.5 473.37,-83.5"/>
<polygon fill="#63b8ff" stroke="#63b8ff" points="473.81,-87 483.81,-83.5 473.81,-80 473.81,-87"/>
</a>
</g>
</g>
<!-- Node5 -->
<g id="Node000005" class="node">
<title>Node5</title>
<g id="a_Node000005"><a xlink:href="ft__memcpy_8c.html#a41a6f05af30cf85ff63a08e383826322" target="_top" xlink:title="Copies &#39;n&#39; bytes from memory area &#39;src&#39; to memory area &#39;dest&#39;.">
<polygon fill="white" stroke="#666666" points="650,-112 579,-112 579,-93 650,-93 650,-112"/>
<text text-anchor="middle" x="614.5" y="-100" font-family="Helvetica,sans-Serif" font-size="10.00">ft_memcpy</text>
</a>
</g>
</g>
<!-- Node4&#45;&gt;Node5 -->
<g id="edge4_Node000004_Node000005" class="edge">
<title>Node4&#45;&gt;Node5</title>
<g id="a_edge4_Node000004_Node000005"><a xlink:title=" ">
<path fill="none" stroke="#63b8ff" d="M543.13,-89C551.18,-90.54 560.12,-92.26 568.87,-93.93"/>
<polygon fill="#63b8ff" stroke="#63b8ff" points="568.49,-97.42 578.97,-95.87 569.8,-90.55 568.49,-97.42"/>
</a>
</g>
</g>
<!-- Node6 -->
<g id="Node000006" class="node">
<title>Node6</title>
<g id="a_Node000006"><a xlink:href="ft__strlen_8c.html#a828402378653640f545a4be2e00e92f9" target="_top" xlink:title="Calculates the length of a null&#45;terminated string.">
<polygon fill="white" stroke="#666666" points="642.5,-75 586.5,-75 586.5,-56 642.5,-56 642.5,-75"/>
<text text-anchor="middle" x="614.5" y="-63" font-family="Helvetica,sans-Serif" font-size="10.00">ft_strlen</text>
</a>
</g>
</g>
<!-- Node4&#45;&gt;Node6 -->
<g id="edge5_Node000004_Node000006" class="edge">
<title>Node4&#45;&gt;Node6</title>
<g id="a_edge5_Node000004_Node000006"><a xlink:title=" ">
<path fill="none" stroke="#63b8ff" d="M543.13,-78.29C553.43,-76.42 565.21,-74.28 576.14,-72.29"/>
<polygon fill="#63b8ff" stroke="#63b8ff" points="577.08,-75.68 586.29,-70.45 575.83,-68.79 577.08,-75.68"/>
</a>
</g>
</g>
</g>
</svg>
