<?xml version="1.0" encoding="UTF-8" standalone="no"?>
<!DOCTYPE svg PUBLIC "-//W3C//DTD SVG 1.1//EN"
 "http://www.w3.org/Graphics/SVG/1.1/DTD/svg11.dtd">
<!-- Generated by graphviz version 2.43.0 (0)
 -->
<!-- Title: ft_merge_word_export Pages: 1 -->
<svg width="488pt" height="120pt"
 viewBox="0.00 0.00 488.00 120.00" xmlns="http://www.w3.org/2000/svg" xmlns:xlink="http://www.w3.org/1999/xlink">
<g id="graph0" class="graph" transform="scale(1 1) rotate(0) translate(4 116)">
<title>ft_merge_word_export</title>
<!-- Node1 -->
<g id="Node000001" class="node">
<title>Node1</title>
<g id="a_Node000001"><a xlink:title="Merges consecutive ARGUMENT tokens into a single token, used for the export command.">
<polygon fill="#999999" stroke="#666666" points="126,-56 0,-56 0,-37 126,-37 126,-56"/>
<text text-anchor="middle" x="63" y="-44" font-family="Helvetica,sans-Serif" font-size="10.00">ft_merge_word_export</text>
</a>
</g>
</g>
<!-- Node2 -->
<g id="Node000002" class="node">
<title>Node2</title>
<g id="a_Node000002"><a xlink:href="for__merge__export_8c.html#a8badee2557e8867921cbb0dc2873317b" target="_top" xlink:title="Merges the current token&#39;s value with the next token&#39;s value.">
<polygon fill="white" stroke="#666666" points="252,-93 188,-93 188,-74 252,-74 252,-93"/>
<text text-anchor="middle" x="220" y="-81" font-family="Helvetica,sans-Serif" font-size="10.00">ft_merger</text>
</a>
</g>
</g>
<!-- Node1&#45;&gt;Node2 -->
<g id="edge1_Node000001_Node000002" class="edge">
<title>Node1&#45;&gt;Node2</title>
<g id="a_edge1_Node000001_Node000002"><a xlink:title=" ">
<path fill="none" stroke="#63b8ff" d="M103.92,-56.03C126.58,-61.44 154.89,-68.2 177.76,-73.66"/>
<polygon fill="#63b8ff" stroke="#63b8ff" points="176.99,-77.07 187.53,-75.99 178.61,-70.26 176.99,-77.07"/>
</a>
</g>
</g>
<!-- Node6 -->
<g id="Node000006" class="node">
<title>Node6</title>
<g id="a_Node000006"><a xlink:href="ft__strdup_8c.html#aebe73f27c70c56ac5053f860ef5436c9" target="_top" xlink:title="Duplicates a null&#45;terminated string by allocating memory.">
<polygon fill="white" stroke="#666666" points="249.5,-56 190.5,-56 190.5,-37 249.5,-37 249.5,-56"/>
<text text-anchor="middle" x="220" y="-44" font-family="Helvetica,sans-Serif" font-size="10.00">ft_strdup</text>
</a>
</g>
</g>
<!-- Node1&#45;&gt;Node6 -->
<g id="edge5_Node000001_Node000006" class="edge">
<title>Node1&#45;&gt;Node6</title>
<g id="a_edge5_Node000001_Node000006"><a xlink:title=" ">
<path fill="none" stroke="#63b8ff" d="M126.15,-46.5C144.39,-46.5 163.81,-46.5 180.15,-46.5"/>
<polygon fill="#63b8ff" stroke="#63b8ff" points="180.4,-50 190.4,-46.5 180.4,-43 180.4,-50"/>
</a>
</g>
</g>
<!-- Node7 -->
<g id="Node000007" class="node">
<title>Node7</title>
<g id="a_Node000007"><a xlink:href="utils__token_8c.html#af9e2ea59c99233265f752bf7fb34a4a5" target="_top" xlink:title="Removes a specific token node from the linked list.">
<polygon fill="white" stroke="#666666" points="278,-19 162,-19 162,0 278,0 278,-19"/>
<text text-anchor="middle" x="220" y="-7" font-family="Helvetica,sans-Serif" font-size="10.00">remove_token_node</text>
</a>
</g>
</g>
<!-- Node1&#45;&gt;Node7 -->
<g id="edge6_Node000001_Node000007" class="edge">
<title>Node1&#45;&gt;Node7</title>
<g id="a_edge6_Node000001_Node000007"><a xlink:title=" ">
<path fill="none" stroke="#63b8ff" d="M103.92,-36.97C123.82,-32.22 148.08,-26.43 169.19,-21.39"/>
<polygon fill="#63b8ff" stroke="#63b8ff" points="170.04,-24.79 178.95,-19.06 168.41,-17.98 170.04,-24.79"/>
</a>
</g>
</g>
<!-- Node3 -->
<g id="Node000003" class="node">
<title>Node3</title>
<g id="a_Node000003"><a xlink:href="ft__strjoin_8c.html#a91e6e3e428bcc9f2291b700e1829b82b" target="_top" xlink:title="Concatenates two strings into a newly allocated string.">
<polygon fill="white" stroke="#666666" points="373,-93 314,-93 314,-74 373,-74 373,-93"/>
<text text-anchor="middle" x="343.5" y="-81" font-family="Helvetica,sans-Serif" font-size="10.00">ft_strjoin</text>
</a>
</g>
</g>
<!-- Node2&#45;&gt;Node3 -->
<g id="edge2_Node000002_Node000003" class="edge">
<title>Node2&#45;&gt;Node3</title>
<g id="a_edge2_Node000002_Node000003"><a xlink:title=" ">
<path fill="none" stroke="#63b8ff" d="M252.29,-83.5C267.86,-83.5 286.84,-83.5 303.37,-83.5"/>
<polygon fill="#63b8ff" stroke="#63b8ff" points="303.81,-87 313.81,-83.5 303.81,-80 303.81,-87"/>
</a>
</g>
</g>
<!-- Node4 -->
<g id="Node000004" class="node">
<title>Node4</title>
<g id="a_Node000004"><a xlink:href="ft__memcpy_8c.html#a41a6f05af30cf85ff63a08e383826322" target="_top" xlink:title="Copies &#39;n&#39; bytes from memory area &#39;src&#39; to memory area &#39;dest&#39;.">
<polygon fill="white" stroke="#666666" points="480,-112 409,-112 409,-93 480,-93 480,-112"/>
<text text-anchor="middle" x="444.5" y="-100" font-family="Helvetica,sans-Serif" font-size="10.00">ft_memcpy</text>
</a>
</g>
</g>
<!-- Node3&#45;&gt;Node4 -->
<g id="edge3_Node000003_Node000004" class="edge">
<title>Node3&#45;&gt;Node4</title>
<g id="a_edge3_Node000003_Node000004"><a xlink:title=" ">
<path fill="none" stroke="#63b8ff" d="M373.13,-89C381.18,-90.54 390.12,-92.26 398.87,-93.93"/>
<polygon fill="#63b8ff" stroke="#63b8ff" points="398.49,-97.42 408.97,-95.87 399.8,-90.55 398.49,-97.42"/>
</a>
</g>
</g>
<!-- Node5 -->
<g id="Node000005" class="node">
<title>Node5</title>
<g id="a_Node000005"><a xlink:href="ft__strlen_8c.html#a828402378653640f545a4be2e00e92f9" target="_top" xlink:title="Calculates the length of a null&#45;terminated string.">
<polygon fill="white" stroke="#666666" points="472.5,-75 416.5,-75 416.5,-56 472.5,-56 472.5,-75"/>
<text text-anchor="middle" x="444.5" y="-63" font-family="Helvetica,sans-Serif" font-size="10.00">ft_strlen</text>
</a>
</g>
</g>
<!-- Node3&#45;&gt;Node5 -->
<g id="edge4_Node000003_Node000005" class="edge">
<title>Node3&#45;&gt;Node5</title>
<g id="a_edge4_Node000003_Node000005"><a xlink:title=" ">
<path fill="none" stroke="#63b8ff" d="M373.13,-78.29C383.43,-76.42 395.21,-74.28 406.14,-72.29"/>
<polygon fill="#63b8ff" stroke="#63b8ff" points="407.08,-75.68 416.29,-70.45 405.83,-68.79 407.08,-75.68"/>
</a>
</g>
</g>
</g>
</svg>
