<?xml version="1.0" encoding="UTF-8" standalone="no"?>
<!DOCTYPE svg PUBLIC "-//W3C//DTD SVG 1.1//EN"
 "http://www.w3.org/Graphics/SVG/1.1/DTD/svg11.dtd">
<!-- Generated by graphviz version 2.43.0 (0)
 -->
<!-- Title: common_utils/free_functions.c Pages: 1 -->
<svg width="898pt" height="192pt"
 viewBox="0.00 0.00 897.50 192.00" xmlns="http://www.w3.org/2000/svg" xmlns:xlink="http://www.w3.org/1999/xlink">
<g id="graph0" class="graph" transform="scale(1 1) rotate(0) translate(4 188)">
<title>common_utils/free_functions.c</title>
<!-- Node1 -->
<g id="Node000001" class="node">
<title>Node1</title>
<g id="a_Node000001"><a xlink:title=" ">
<polygon fill="#999999" stroke="#666666" points="261.5,-184 94.5,-184 94.5,-165 261.5,-165 261.5,-184"/>
<text text-anchor="middle" x="178" y="-172" font-family="Helvetica,sans-Serif" font-size="10.00">common_utils/free_functions.c</text>
</a>
</g>
</g>
<!-- Node2 -->
<g id="Node000002" class="node">
<title>Node2</title>
<g id="a_Node000002"><a xlink:href="common__utils_8h.html" target="_top" xlink:title=" ">
<polygon fill="white" stroke="#666666" points="466.5,-129 371.5,-129 371.5,-110 466.5,-110 466.5,-129"/>
<text text-anchor="middle" x="419" y="-117" font-family="Helvetica,sans-Serif" font-size="10.00">common_utils.h</text>
</a>
</g>
</g>
<!-- Node1&#45;&gt;Node2 -->
<g id="edge1_Node000001_Node000002" class="edge">
<title>Node1&#45;&gt;Node2</title>
<g id="a_edge1_Node000001_Node000002"><a xlink:title=" ">
<path fill="none" stroke="#63b8ff" d="M216.72,-164.98C258.41,-155.82 324.82,-141.21 370.09,-131.26"/>
<polygon fill="#63b8ff" stroke="#63b8ff" points="370.96,-134.65 379.98,-129.08 369.46,-127.81 370.96,-134.65"/>
</a>
</g>
</g>
<!-- Node4 -->
<g id="Node000004" class="node">
<title>Node4</title>
<g id="a_Node000004"><a xlink:title=" ">
<polygon fill="#e0e0e0" stroke="#999999" points="56,-19 0,-19 0,0 56,0 56,-19"/>
<text text-anchor="middle" x="28" y="-7" font-family="Helvetica,sans-Serif" font-size="10.00">unistd.h</text>
</a>
</g>
</g>
<!-- Node1&#45;&gt;Node4 -->
<g id="edge22_Node000001_Node000004" class="edge">
<title>Node1&#45;&gt;Node4</title>
<g id="a_edge22_Node000001_Node000004"><a xlink:title=" ">
<path fill="none" stroke="#63b8ff" d="M161.99,-164.96C135.33,-149.96 81.73,-116.42 51,-74 41.22,-60.5 35.21,-42.41 31.8,-28.99"/>
<polygon fill="#63b8ff" stroke="#63b8ff" points="35.16,-27.99 29.52,-19.02 28.33,-29.55 35.16,-27.99"/>
</a>
</g>
</g>
<!-- Node3 -->
<g id="Node000003" class="node">
<title>Node3</title>
<g id="a_Node000003"><a xlink:href="libft_8h.html" target="_top" xlink:title=" ">
<polygon fill="white" stroke="#666666" points="765.5,-74 690.5,-74 690.5,-55 765.5,-55 765.5,-74"/>
<text text-anchor="middle" x="728" y="-62" font-family="Helvetica,sans-Serif" font-size="10.00">../libft/libft.h</text>
</a>
</g>
</g>
<!-- Node2&#45;&gt;Node3 -->
<g id="edge2_Node000002_Node000003" class="edge">
<title>Node2&#45;&gt;Node3</title>
<g id="a_edge2_Node000002_Node000003"><a xlink:title=" ">
<path fill="none" stroke="#63b8ff" d="M466.84,-110.53C517.33,-102.09 599.51,-88.24 680.44,-74.08"/>
<polygon fill="#63b8ff" stroke="#63b8ff" points="681.05,-77.53 690.3,-72.36 679.84,-70.63 681.05,-77.53"/>
</a>
</g>
</g>
<!-- Node2&#45;&gt;Node4 -->
<g id="edge21_Node000002_Node000004" class="edge">
<title>Node2&#45;&gt;Node4</title>
<g id="a_edge21_Node000002_Node000004"><a xlink:title=" ">
<path fill="none" stroke="#63b8ff" d="M371.38,-116.9C289.05,-113.4 124.2,-102.9 75,-74 57.13,-63.5 43.98,-43.27 36.2,-28.45"/>
<polygon fill="#63b8ff" stroke="#63b8ff" points="39.23,-26.68 31.69,-19.25 32.95,-29.77 39.23,-26.68"/>
</a>
</g>
</g>
<!-- Node5 -->
<g id="Node000005" class="node">
<title>Node5</title>
<g id="a_Node000005"><a xlink:title=" ">
<polygon fill="#e0e0e0" stroke="#999999" points="889.5,-19 836.5,-19 836.5,0 889.5,0 889.5,-19"/>
<text text-anchor="middle" x="863" y="-7" font-family="Helvetica,sans-Serif" font-size="10.00">stdlib.h</text>
</a>
</g>
</g>
<!-- Node2&#45;&gt;Node5 -->
<g id="edge19_Node000002_Node000005" class="edge">
<title>Node2&#45;&gt;Node5</title>
<g id="a_edge19_Node000002_Node000005"><a xlink:title=" ">
<path fill="none" stroke="#63b8ff" d="M466.67,-116.54C554.4,-112.34 737.68,-100.6 795,-74 817.78,-63.43 837.97,-42.27 850.32,-27.29"/>
<polygon fill="#63b8ff" stroke="#63b8ff" points="853.18,-29.32 856.64,-19.31 847.69,-24.98 853.18,-29.32"/>
</a>
</g>
</g>
<!-- Node6 -->
<g id="Node000006" class="node">
<title>Node6</title>
<g id="a_Node000006"><a xlink:title=" ">
<polygon fill="#e0e0e0" stroke="#999999" points="228.5,-19 175.5,-19 175.5,0 228.5,0 228.5,-19"/>
<text text-anchor="middle" x="202" y="-7" font-family="Helvetica,sans-Serif" font-size="10.00">string.h</text>
</a>
</g>
</g>
<!-- Node2&#45;&gt;Node6 -->
<g id="edge20_Node000002_Node000006" class="edge">
<title>Node2&#45;&gt;Node6</title>
<g id="a_edge20_Node000002_Node000006"><a xlink:title=" ">
<path fill="none" stroke="#63b8ff" d="M371.31,-115.58C283.52,-109.71 103.57,-95.21 85,-74 58.57,-43.82 121.78,-25.37 165.21,-16.62"/>
<polygon fill="#63b8ff" stroke="#63b8ff" points="166.06,-20.02 175.22,-14.7 164.74,-13.15 166.06,-20.02"/>
</a>
</g>
</g>
<!-- Node9 -->
<g id="Node000009" class="node">
<title>Node9</title>
<g id="a_Node000009"><a xlink:title=" ">
<polygon fill="#e0e0e0" stroke="#999999" points="818.5,-19 771.5,-19 771.5,0 818.5,0 818.5,-19"/>
<text text-anchor="middle" x="795" y="-7" font-family="Helvetica,sans-Serif" font-size="10.00">fcntl.h</text>
</a>
</g>
</g>
<!-- Node2&#45;&gt;Node9 -->
<g id="edge15_Node000002_Node000009" class="edge">
<title>Node2&#45;&gt;Node9</title>
<g id="a_edge15_Node000002_Node000009"><a xlink:title=" ">
<path fill="none" stroke="#63b8ff" d="M466.69,-118.72C552.71,-118.15 729.19,-112.19 775,-74 788.03,-63.14 792.69,-43.86 794.3,-29.38"/>
<polygon fill="#63b8ff" stroke="#63b8ff" points="797.82,-29.28 795.04,-19.06 790.83,-28.78 797.82,-29.28"/>
</a>
</g>
</g>
<!-- Node13 -->
<g id="Node000013" class="node">
<title>Node13</title>
<g id="a_Node000013"><a xlink:href="signal__flag_8h.html" target="_top" xlink:title=" ">
<polygon fill="white" stroke="#666666" points="172,-74 94,-74 94,-55 172,-55 172,-74"/>
<text text-anchor="middle" x="133" y="-62" font-family="Helvetica,sans-Serif" font-size="10.00">signal_flag.h</text>
</a>
</g>
</g>
<!-- Node2&#45;&gt;Node13 -->
<g id="edge12_Node000002_Node000013" class="edge">
<title>Node2&#45;&gt;Node13</title>
<g id="a_edge12_Node000002_Node000013"><a xlink:title=" ">
<path fill="none" stroke="#63b8ff" d="M373.05,-109.98C320.83,-100.31 235.93,-84.57 182.34,-74.64"/>
<polygon fill="#63b8ff" stroke="#63b8ff" points="182.86,-71.18 172.39,-72.8 181.59,-78.06 182.86,-71.18"/>
</a>
</g>
</g>
<!-- Node14 -->
<g id="Node000014" class="node">
<title>Node14</title>
<g id="a_Node000014"><a xlink:title=" ">
<polygon fill="#e0e0e0" stroke="#999999" points="298,-74 190,-74 190,-55 298,-55 298,-74"/>
<text text-anchor="middle" x="244" y="-62" font-family="Helvetica,sans-Serif" font-size="10.00">readline/readline.h</text>
</a>
</g>
</g>
<!-- Node2&#45;&gt;Node14 -->
<g id="edge13_Node000002_Node000014" class="edge">
<title>Node2&#45;&gt;Node14</title>
<g id="a_edge13_Node000002_Node000014"><a xlink:title=" ">
<path fill="none" stroke="#63b8ff" d="M390.88,-109.98C361.38,-101.05 314.81,-86.94 282.03,-77.02"/>
<polygon fill="#63b8ff" stroke="#63b8ff" points="282.92,-73.63 272.34,-74.08 280.89,-80.33 282.92,-73.63"/>
</a>
</g>
</g>
<!-- Node15 -->
<g id="Node000015" class="node">
<title>Node15</title>
<g id="a_Node000015"><a xlink:title=" ">
<polygon fill="#e0e0e0" stroke="#999999" points="417.5,-74 316.5,-74 316.5,-55 417.5,-55 417.5,-74"/>
<text text-anchor="middle" x="367" y="-62" font-family="Helvetica,sans-Serif" font-size="10.00">readline/history.h</text>
</a>
</g>
</g>
<!-- Node2&#45;&gt;Node15 -->
<g id="edge14_Node000002_Node000015" class="edge">
<title>Node2&#45;&gt;Node15</title>
<g id="a_edge14_Node000002_Node000015"><a xlink:title=" ">
<path fill="none" stroke="#63b8ff" d="M410.41,-109.75C402.84,-102.03 391.62,-90.6 382.49,-81.28"/>
<polygon fill="#63b8ff" stroke="#63b8ff" points="384.93,-78.78 375.43,-74.09 379.93,-83.68 384.93,-78.78"/>
</a>
</g>
</g>
<!-- Node16 -->
<g id="Node000016" class="node">
<title>Node16</title>
<g id="a_Node000016"><a xlink:title=" ">
<polygon fill="#e0e0e0" stroke="#999999" points="508,-74 436,-74 436,-55 508,-55 508,-74"/>
<text text-anchor="middle" x="472" y="-62" font-family="Helvetica,sans-Serif" font-size="10.00">sys/types.h</text>
</a>
</g>
</g>
<!-- Node2&#45;&gt;Node16 -->
<g id="edge16_Node000002_Node000016" class="edge">
<title>Node2&#45;&gt;Node16</title>
<g id="a_edge16_Node000002_Node000016"><a xlink:title=" ">
<path fill="none" stroke="#63b8ff" d="M427.75,-109.75C435.47,-102.03 446.9,-90.6 456.22,-81.28"/>
<polygon fill="#63b8ff" stroke="#63b8ff" points="458.81,-83.64 463.41,-74.09 453.86,-78.69 458.81,-83.64"/>
</a>
</g>
</g>
<!-- Node17 -->
<g id="Node000017" class="node">
<title>Node17</title>
<g id="a_Node000017"><a xlink:title=" ">
<polygon fill="#e0e0e0" stroke="#999999" points="592,-74 526,-74 526,-55 592,-55 592,-74"/>
<text text-anchor="middle" x="559" y="-62" font-family="Helvetica,sans-Serif" font-size="10.00">sys/wait.h</text>
</a>
</g>
</g>
<!-- Node2&#45;&gt;Node17 -->
<g id="edge17_Node000002_Node000017" class="edge">
<title>Node2&#45;&gt;Node17</title>
<g id="a_edge17_Node000002_Node000017"><a xlink:title=" ">
<path fill="none" stroke="#63b8ff" d="M441.49,-109.98C464.52,-101.27 500.54,-87.63 526.63,-77.75"/>
<polygon fill="#63b8ff" stroke="#63b8ff" points="527.98,-80.98 536.1,-74.17 525.51,-74.44 527.98,-80.98"/>
</a>
</g>
</g>
<!-- Node18 -->
<g id="Node000018" class="node">
<title>Node18</title>
<g id="a_Node000018"><a xlink:title=" ">
<polygon fill="#e0e0e0" stroke="#999999" points="672,-74 610,-74 610,-55 672,-55 672,-74"/>
<text text-anchor="middle" x="641" y="-62" font-family="Helvetica,sans-Serif" font-size="10.00">stdbool.h</text>
</a>
</g>
</g>
<!-- Node2&#45;&gt;Node18 -->
<g id="edge18_Node000002_Node000018" class="edge">
<title>Node2&#45;&gt;Node18</title>
<g id="a_edge18_Node000002_Node000018"><a xlink:title=" ">
<path fill="none" stroke="#63b8ff" d="M454.67,-109.98C494.3,-100.52 558.19,-85.27 599.89,-75.31"/>
<polygon fill="#63b8ff" stroke="#63b8ff" points="600.81,-78.69 609.73,-72.97 599.19,-71.88 600.81,-78.69"/>
</a>
</g>
</g>
<!-- Node3&#45;&gt;Node4 -->
<g id="edge3_Node000003_Node000004" class="edge">
<title>Node3&#45;&gt;Node4</title>
<g id="a_edge3_Node000003_Node000004"><a xlink:title=" ">
<path fill="none" stroke="#63b8ff" d="M690.35,-56.31C687.19,-55.82 684.04,-55.38 681,-55 620.13,-47.44 197.37,-20.98 66.51,-12.87"/>
<polygon fill="#63b8ff" stroke="#63b8ff" points="66.38,-9.36 56.18,-12.24 65.95,-16.35 66.38,-9.36"/>
</a>
</g>
</g>
<!-- Node3&#45;&gt;Node5 -->
<g id="edge4_Node000003_Node000005" class="edge">
<title>Node3&#45;&gt;Node5</title>
<g id="a_edge4_Node000003_Node000005"><a xlink:title=" ">
<path fill="none" stroke="#63b8ff" d="M749.69,-54.98C771.8,-46.3 806.32,-32.75 831.45,-22.88"/>
<polygon fill="#63b8ff" stroke="#63b8ff" points="832.89,-26.08 840.92,-19.17 830.33,-19.57 832.89,-26.08"/>
</a>
</g>
</g>
<!-- Node3&#45;&gt;Node6 -->
<g id="edge5_Node000003_Node000006" class="edge">
<title>Node3&#45;&gt;Node6</title>
<g id="a_edge5_Node000003_Node000006"><a xlink:title=" ">
<path fill="none" stroke="#63b8ff" d="M690.34,-56.39C687.18,-55.89 684.04,-55.42 681,-55 516.67,-32.55 319.06,-18.15 238.68,-12.82"/>
<polygon fill="#63b8ff" stroke="#63b8ff" points="238.78,-9.32 228.57,-12.16 238.32,-16.31 238.78,-9.32"/>
</a>
</g>
</g>
<!-- Node7 -->
<g id="Node000007" class="node">
<title>Node7</title>
<g id="a_Node000007"><a xlink:title=" ">
<polygon fill="#e0e0e0" stroke="#999999" points="753,-19 703,-19 703,0 753,0 753,-19"/>
<text text-anchor="middle" x="728" y="-7" font-family="Helvetica,sans-Serif" font-size="10.00">stdio.h</text>
</a>
</g>
</g>
<!-- Node3&#45;&gt;Node7 -->
<g id="edge6_Node000003_Node000007" class="edge">
<title>Node3&#45;&gt;Node7</title>
<g id="a_edge6_Node000003_Node000007"><a xlink:title=" ">
<path fill="none" stroke="#63b8ff" d="M728,-54.75C728,-47.8 728,-37.85 728,-29.13"/>
<polygon fill="#63b8ff" stroke="#63b8ff" points="731.5,-29.09 728,-19.09 724.5,-29.09 731.5,-29.09"/>
</a>
</g>
</g>
<!-- Node8 -->
<g id="Node000008" class="node">
<title>Node8</title>
<g id="a_Node000008"><a xlink:title=" ">
<polygon fill="#e0e0e0" stroke="#999999" points="401.5,-19 346.5,-19 346.5,0 401.5,0 401.5,-19"/>
<text text-anchor="middle" x="374" y="-7" font-family="Helvetica,sans-Serif" font-size="10.00">signal.h</text>
</a>
</g>
</g>
<!-- Node3&#45;&gt;Node8 -->
<g id="edge7_Node000003_Node000008" class="edge">
<title>Node3&#45;&gt;Node8</title>
<g id="a_edge7_Node000003_Node000008"><a xlink:title=" ">
<path fill="none" stroke="#63b8ff" d="M690.32,-56.53C687.17,-55.99 684.03,-55.48 681,-55 564.56,-36.72 531.83,-40.36 411.77,-18.98"/>
<polygon fill="#63b8ff" stroke="#63b8ff" points="412.29,-15.51 401.82,-17.18 411.04,-22.4 412.29,-15.51"/>
</a>
</g>
</g>
<!-- Node3&#45;&gt;Node9 -->
<g id="edge8_Node000003_Node000009" class="edge">
<title>Node3&#45;&gt;Node9</title>
<g id="a_edge8_Node000003_Node000009"><a xlink:title=" ">
<path fill="none" stroke="#63b8ff" d="M738.76,-54.98C748.77,-47.07 763.89,-35.11 775.93,-25.58"/>
<polygon fill="#63b8ff" stroke="#63b8ff" points="778.37,-28.12 784.04,-19.17 774.03,-22.63 778.37,-28.12"/>
</a>
</g>
</g>
<!-- Node10 -->
<g id="Node000010" class="node">
<title>Node10</title>
<g id="a_Node000010"><a xlink:title=" ">
<polygon fill="#e0e0e0" stroke="#999999" points="538.5,-19 419.5,-19 419.5,0 538.5,0 538.5,-19"/>
<text text-anchor="middle" x="479" y="-7" font-family="Helvetica,sans-Serif" font-size="10.00">bits/types/siginfo_t.h</text>
</a>
</g>
</g>
<!-- Node3&#45;&gt;Node10 -->
<g id="edge9_Node000003_Node000010" class="edge">
<title>Node3&#45;&gt;Node10</title>
<g id="a_edge9_Node000003_Node000010"><a xlink:title=" ">
<path fill="none" stroke="#63b8ff" d="M690.45,-55.51C647.45,-46.36 576.82,-31.32 529.14,-21.17"/>
<polygon fill="#63b8ff" stroke="#63b8ff" points="529.84,-17.74 519.34,-19.09 528.39,-24.59 529.84,-17.74"/>
</a>
</g>
</g>
<!-- Node11 -->
<g id="Node000011" class="node">
<title>Node11</title>
<g id="a_Node000011"><a xlink:title=" ">
<polygon fill="#e0e0e0" stroke="#999999" points="613,-19 557,-19 557,0 613,0 613,-19"/>
<text text-anchor="middle" x="585" y="-7" font-family="Helvetica,sans-Serif" font-size="10.00">stdarg.h</text>
</a>
</g>
</g>
<!-- Node3&#45;&gt;Node11 -->
<g id="edge10_Node000003_Node000011" class="edge">
<title>Node3&#45;&gt;Node11</title>
<g id="a_edge10_Node000003_Node000011"><a xlink:title=" ">
<path fill="none" stroke="#63b8ff" d="M705.02,-54.98C681.5,-46.27 644.71,-32.63 618.06,-22.75"/>
<polygon fill="#63b8ff" stroke="#63b8ff" points="618.99,-19.36 608.39,-19.17 616.55,-25.93 618.99,-19.36"/>
</a>
</g>
</g>
<!-- Node12 -->
<g id="Node000012" class="node">
<title>Node12</title>
<g id="a_Node000012"><a xlink:title=" ">
<polygon fill="#e0e0e0" stroke="#999999" points="684.5,-19 631.5,-19 631.5,0 684.5,0 684.5,-19"/>
<text text-anchor="middle" x="658" y="-7" font-family="Helvetica,sans-Serif" font-size="10.00">limits.h</text>
</a>
</g>
</g>
<!-- Node3&#45;&gt;Node12 -->
<g id="edge11_Node000003_Node000012" class="edge">
<title>Node3&#45;&gt;Node12</title>
<g id="a_edge11_Node000003_Node000012"><a xlink:title=" ">
<path fill="none" stroke="#63b8ff" d="M716.75,-54.98C706.2,-47 690.2,-34.88 677.56,-25.31"/>
<polygon fill="#63b8ff" stroke="#63b8ff" points="679.54,-22.42 669.45,-19.17 675.31,-28 679.54,-22.42"/>
</a>
</g>
</g>
</g>
</svg>
