<?xml version="1.0" encoding="UTF-8" standalone="no"?>
<!DOCTYPE svg PUBLIC "-//W3C//DTD SVG 1.1//EN"
 "http://www.w3.org/Graphics/SVG/1.1/DTD/svg11.dtd">
<!-- Generated by graphviz version 2.43.0 (0)
 -->
<!-- Title: free_token Pages: 1 -->
<svg width="1402pt" height="548pt"
 viewBox="0.00 0.00 1402.00 547.50" xmlns="http://www.w3.org/2000/svg" xmlns:xlink="http://www.w3.org/1999/xlink">
<g id="graph0" class="graph" transform="scale(1 1) rotate(0) translate(4 543.5)">
<title>free_token</title>
<!-- Node1 -->
<g id="Node000001" class="node">
<title>Node1</title>
<g id="a_Node000001"><a xlink:title="Frees a list of tokens.">
<polygon fill="#999999" stroke="#666666" points="1394,-341 1326,-341 1326,-322 1394,-322 1394,-341"/>
<text text-anchor="middle" x="1360" y="-329" font-family="Helvetica,sans-Serif" font-size="10.00">free_token</text>
</a>
</g>
</g>
<!-- Node2 -->
<g id="Node000002" class="node">
<title>Node2</title>
<g id="a_Node000002"><a xlink:href="free__functions_8c.html#af29ea604c324eb3b9934ef9d6a34aa1d" target="_top" xlink:title="Frees all allocated resources associated with the command list and environment.">
<polygon fill="white" stroke="#666666" points="1272.5,-435 1219.5,-435 1219.5,-416 1272.5,-416 1272.5,-435"/>
<text text-anchor="middle" x="1246" y="-423" font-family="Helvetica,sans-Serif" font-size="10.00">free_all</text>
</a>
</g>
</g>
<!-- Node1&#45;&gt;Node2 -->
<g id="edge1_Node000001_Node000002" class="edge">
<title>Node1&#45;&gt;Node2</title>
<g id="a_edge1_Node000001_Node000002"><a xlink:title=" ">
<path fill="none" stroke="#63b8ff" d="M1339.54,-347.83C1316.07,-367.53 1277.39,-399.99 1258.33,-415.99"/>
<polygon fill="#63b8ff" stroke="#63b8ff" points="1342.03,-350.32 1347.44,-341.21 1337.53,-344.95 1342.03,-350.32"/>
</a>
</g>
</g>
<!-- Node7 -->
<g id="Node000007" class="node">
<title>Node7</title>
<g id="a_Node000007"><a xlink:href="main__utils_8c.html#ae35edfb8f1339d6f77f53c28eb2a2ed6" target="_top" xlink:title="Handles a complete cycle of input → parsing → execution.">
<polygon fill="white" stroke="#666666" points="156,-201 77,-201 77,-182 156,-182 156,-201"/>
<text text-anchor="middle" x="116.5" y="-189" font-family="Helvetica,sans-Serif" font-size="10.00">ft_main_flow</text>
</a>
</g>
</g>
<!-- Node1&#45;&gt;Node7 -->
<g id="edge44_Node000001_Node000007" class="edge">
<title>Node1&#45;&gt;Node7</title>
<g id="a_edge44_Node000001_Node000007"><a xlink:title=" ">
<path fill="none" stroke="#63b8ff" d="M1350.85,-350.45C1339.79,-374.53 1318.14,-416.32 1290,-444.5 1225.67,-508.93 1199.55,-539.5 1108.5,-539.5 1108.5,-539.5 1108.5,-539.5 345.5,-539.5 179.01,-539.5 127.49,-257.38 118.88,-201.17"/>
<polygon fill="#63b8ff" stroke="#63b8ff" points="1354.05,-351.87 1354.93,-341.31 1347.66,-349.02 1354.05,-351.87"/>
</a>
</g>
</g>
<!-- Node17 -->
<g id="Node000017" class="node">
<title>Node17</title>
<g id="a_Node000017"><a xlink:href="free__functions_8c.html#a451c65e7c59e947c1880d1f75d866e3a" target="_top" xlink:title="Frees all resources associated with a list of pipes and the environment.">
<polygon fill="white" stroke="#666666" points="1286,-247 1206,-247 1206,-228 1286,-228 1286,-247"/>
<text text-anchor="middle" x="1246" y="-235" font-family="Helvetica,sans-Serif" font-size="10.00">free_all_pipe</text>
</a>
</g>
</g>
<!-- Node1&#45;&gt;Node17 -->
<g id="edge20_Node000001_Node000017" class="edge">
<title>Node1&#45;&gt;Node17</title>
<g id="a_edge20_Node000001_Node000017"><a xlink:title=" ">
<path fill="none" stroke="#63b8ff" d="M1339.54,-315.17C1316.07,-295.47 1277.39,-263.01 1258.33,-247.01"/>
<polygon fill="#63b8ff" stroke="#63b8ff" points="1337.53,-318.05 1347.44,-321.79 1342.03,-312.68 1337.53,-318.05"/>
</a>
</g>
</g>
<!-- Node25 -->
<g id="Node000025" class="node">
<title>Node25</title>
<g id="a_Node000025"><a xlink:href="handle__tokens_8c.html#aa2c36964d13c3cd524d41408f386eed9" target="_top" xlink:title="Handles tokens enclosed in quotes and adds them to the list.">
<polygon fill="white" stroke="#666666" points="1290,-115 1202,-115 1202,-96 1290,-96 1290,-115"/>
<text text-anchor="middle" x="1246" y="-103" font-family="Helvetica,sans-Serif" font-size="10.00">handle_quotes</text>
</a>
</g>
</g>
<!-- Node1&#45;&gt;Node25 -->
<g id="edge45_Node000001_Node000025" class="edge">
<title>Node1&#45;&gt;Node25</title>
<g id="a_edge45_Node000001_Node000025"><a xlink:title=" ">
<path fill="none" stroke="#63b8ff" d="M1349.64,-312.62C1326.81,-266.54 1268.85,-149.6 1251.79,-115.17"/>
<polygon fill="#63b8ff" stroke="#63b8ff" points="1346.61,-314.38 1354.19,-321.79 1352.88,-311.27 1346.61,-314.38"/>
</a>
</g>
</g>
<!-- Node3 -->
<g id="Node000003" class="node">
<title>Node3</title>
<g id="a_Node000003"><a xlink:href="system__commands_8c.html#a6dfb68d4eb4b73539a6d36f36d23d093" target="_top" xlink:title="Function executed by the child process to run a command.">
<polygon fill="white" stroke="#666666" points="1133.5,-511 1081.5,-511 1081.5,-492 1133.5,-492 1133.5,-511"/>
<text text-anchor="middle" x="1107.5" y="-499" font-family="Helvetica,sans-Serif" font-size="10.00">ft_child</text>
</a>
</g>
</g>
<!-- Node2&#45;&gt;Node3 -->
<g id="edge2_Node000002_Node000003" class="edge">
<title>Node2&#45;&gt;Node3</title>
<g id="a_edge2_Node000002_Node000003"><a xlink:title=" ">
<path fill="none" stroke="#63b8ff" d="M1223.69,-441.1C1208.16,-452.08 1186.36,-466.67 1166,-477.5 1155.69,-482.99 1143.84,-488.11 1133.59,-492.21"/>
<polygon fill="#63b8ff" stroke="#63b8ff" points="1225.95,-443.78 1232.05,-435.12 1221.88,-438.09 1225.95,-443.78"/>
</a>
</g>
</g>
<!-- Node9 -->
<g id="Node000009" class="node">
<title>Node9</title>
<g id="a_Node000009"><a xlink:href="exit_8c.html#a81b8a91253c822b248934172be9eee03" target="_top" xlink:title="Handles errors related to non&#45;numeric or null exit arguments.">
<polygon fill="white" stroke="#666666" points="1145.5,-398 1069.5,-398 1069.5,-379 1145.5,-379 1145.5,-398"/>
<text text-anchor="middle" x="1107.5" y="-386" font-family="Helvetica,sans-Serif" font-size="10.00">ft_error_exit</text>
</a>
</g>
</g>
<!-- Node2&#45;&gt;Node9 -->
<g id="edge8_Node000002_Node000009" class="edge">
<title>Node2&#45;&gt;Node9</title>
<g id="a_edge8_Node000002_Node000009"><a xlink:title=" ">
<path fill="none" stroke="#63b8ff" d="M1209.52,-415.88C1189.21,-410.38 1163.83,-403.5 1143.59,-398.01"/>
<polygon fill="#63b8ff" stroke="#63b8ff" points="1208.76,-419.3 1219.33,-418.54 1210.59,-412.55 1208.76,-419.3"/>
</a>
</g>
</g>
<!-- Node10 -->
<g id="Node000010" class="node">
<title>Node10</title>
<g id="a_Node000010"><a xlink:href="exit_8c.html#af0d4948984577b715a89f18d5864cfa2" target="_top" xlink:title="Builtin function for the exit command.">
<polygon fill="white" stroke="#666666" points="992,-361 945,-361 945,-342 992,-342 992,-361"/>
<text text-anchor="middle" x="968.5" y="-349" font-family="Helvetica,sans-Serif" font-size="10.00">ft_exit</text>
</a>
</g>
</g>
<!-- Node2&#45;&gt;Node10 -->
<g id="edge17_Node000002_Node000010" class="edge">
<title>Node2&#45;&gt;Node10</title>
<g id="a_edge17_Node000002_Node000010"><a xlink:title=" ">
<path fill="none" stroke="#63b8ff" d="M1212.09,-438.48C1171.72,-452.27 1102.1,-468.96 1049,-444.5 1010.99,-426.99 984.4,-381.36 974.17,-361.25"/>
<polygon fill="#63b8ff" stroke="#63b8ff" points="1213.45,-441.71 1221.7,-435.07 1211.1,-435.12 1213.45,-441.71"/>
</a>
</g>
</g>
<!-- Node16 -->
<g id="Node000016" class="node">
<title>Node16</title>
<g id="a_Node000016"><a xlink:href="exit_8c.html#a7bda6b30cde0b18718f60d2a30efb2f6" target="_top" xlink:title="Handles the case when exit is called without arguments or with &quot;0&quot;.">
<polygon fill="white" stroke="#666666" points="1166,-435 1049,-435 1049,-416 1166,-416 1166,-435"/>
<text text-anchor="middle" x="1107.5" y="-423" font-family="Helvetica,sans-Serif" font-size="10.00">ft_exit_no_args_or_0</text>
</a>
</g>
</g>
<!-- Node2&#45;&gt;Node16 -->
<g id="edge18_Node000002_Node000016" class="edge">
<title>Node2&#45;&gt;Node16</title>
<g id="a_edge18_Node000002_Node000016"><a xlink:title=" ">
<path fill="none" stroke="#63b8ff" d="M1209.23,-425.5C1196.02,-425.5 1180.68,-425.5 1166.03,-425.5"/>
<polygon fill="#63b8ff" stroke="#63b8ff" points="1209.33,-429 1219.33,-425.5 1209.33,-422 1209.33,-429"/>
</a>
</g>
</g>
<!-- Node4 -->
<g id="Node000004" class="node">
<title>Node4</title>
<g id="a_Node000004"><a xlink:href="system__commands_8c.html#a6d8647dce4277e848c613bd0cc3df5bb" target="_top" xlink:title="Executes a system command by creating a child process.">
<polygon fill="white" stroke="#666666" points="1013,-455 924,-455 924,-436 1013,-436 1013,-455"/>
<text text-anchor="middle" x="968.5" y="-443" font-family="Helvetica,sans-Serif" font-size="10.00">ft_exe_syscmd</text>
</a>
</g>
</g>
<!-- Node3&#45;&gt;Node4 -->
<g id="edge3_Node000003_Node000004" class="edge">
<title>Node3&#45;&gt;Node4</title>
<g id="a_edge3_Node000003_Node000004"><a xlink:title=" ">
<path fill="none" stroke="#63b8ff" d="M1073.52,-488.02C1048.57,-477.82 1014.93,-464.07 992.74,-455"/>
<polygon fill="#63b8ff" stroke="#63b8ff" points="1072.37,-491.33 1082.95,-491.87 1075.02,-484.85 1072.37,-491.33"/>
</a>
</g>
</g>
<!-- Node5 -->
<g id="Node000005" class="node">
<title>Node5</title>
<g id="a_Node000005"><a xlink:href="cmd__execution_8c.html#a5ce7231f800cbacea6350cc1a32a59bd" target="_top" xlink:title="Executes a list of non&#45;pipelined commands.">
<polygon fill="white" stroke="#666666" points="875,-229 803,-229 803,-210 875,-210 875,-229"/>
<text text-anchor="middle" x="839" y="-217" font-family="Helvetica,sans-Serif" font-size="10.00">ft_exe_cmd</text>
</a>
</g>
</g>
<!-- Node4&#45;&gt;Node5 -->
<g id="edge4_Node000004_Node000005" class="edge">
<title>Node4&#45;&gt;Node5</title>
<g id="a_edge4_Node000004_Node000005"><a xlink:title=" ">
<path fill="none" stroke="#63b8ff" d="M956.62,-426.95C947.76,-411.81 934.98,-389.83 924,-370.5 893.77,-317.29 858.38,-253 845.25,-229.07"/>
<polygon fill="#63b8ff" stroke="#63b8ff" points="953.74,-428.96 961.81,-435.82 959.78,-425.43 953.74,-428.96"/>
</a>
</g>
</g>
<!-- Node6 -->
<g id="Node000006" class="node">
<title>Node6</title>
<g id="a_Node000006"><a xlink:href="main__utils_8c.html#a7e8f478480ab6ab34d6f5eadaf6acdb9" target="_top" xlink:title="Handles parsing and execution of tokens.">
<polygon fill="white" stroke="#666666" points="273,-201 192,-201 192,-182 273,-182 273,-201"/>
<text text-anchor="middle" x="232.5" y="-189" font-family="Helvetica,sans-Serif" font-size="10.00">ft_token_flow</text>
</a>
</g>
</g>
<!-- Node5&#45;&gt;Node6 -->
<g id="edge5_Node000005_Node000006" class="edge">
<title>Node5&#45;&gt;Node6</title>
<g id="a_edge5_Node000005_Node000006"><a xlink:title=" ">
<path fill="none" stroke="#63b8ff" d="M792.82,-219.5C741.77,-219.5 656.16,-219.5 582.5,-219.5 582.5,-219.5 582.5,-219.5 459.5,-219.5 393.87,-219.5 318.33,-207.73 273.32,-199.45"/>
<polygon fill="#63b8ff" stroke="#63b8ff" points="792.87,-223 802.87,-219.5 792.87,-216 792.87,-223"/>
</a>
</g>
</g>
<!-- Node6&#45;&gt;Node7 -->
<g id="edge6_Node000006_Node000007" class="edge">
<title>Node6&#45;&gt;Node7</title>
<g id="a_edge6_Node000006_Node000007"><a xlink:title=" ">
<path fill="none" stroke="#63b8ff" d="M181.7,-191.5C173.16,-191.5 164.4,-191.5 156.21,-191.5"/>
<polygon fill="#63b8ff" stroke="#63b8ff" points="181.95,-195 191.95,-191.5 181.95,-188 181.95,-195"/>
</a>
</g>
</g>
<!-- Node8 -->
<g id="Node000008" class="node">
<title>Node8</title>
<g id="a_Node000008"><a xlink:href="main_8c.html#ab3862b46d6a8d13c2d884a297e6b05b5" target="_top" xlink:title="Main function of the minishell.">
<polygon fill="white" stroke="#666666" points="41,-201 0,-201 0,-182 41,-182 41,-201"/>
<text text-anchor="middle" x="20.5" y="-189" font-family="Helvetica,sans-Serif" font-size="10.00">main</text>
</a>
</g>
</g>
<!-- Node7&#45;&gt;Node8 -->
<g id="edge7_Node000007_Node000008" class="edge">
<title>Node7&#45;&gt;Node8</title>
<g id="a_edge7_Node000007_Node000008"><a xlink:title=" ">
<path fill="none" stroke="#63b8ff" d="M66.74,-191.5C57.62,-191.5 48.59,-191.5 41.03,-191.5"/>
<polygon fill="#63b8ff" stroke="#63b8ff" points="67,-195 77,-191.5 67,-188 67,-195"/>
</a>
</g>
</g>
<!-- Node9&#45;&gt;Node10 -->
<g id="edge9_Node000009_Node000010" class="edge">
<title>Node9&#45;&gt;Node10</title>
<g id="a_edge9_Node000009_Node000010"><a xlink:title=" ">
<path fill="none" stroke="#63b8ff" d="M1061.56,-376.36C1038.34,-370.09 1011.02,-362.71 992.2,-357.63"/>
<polygon fill="#63b8ff" stroke="#63b8ff" points="1060.65,-379.74 1071.22,-378.97 1062.48,-372.99 1060.65,-379.74"/>
</a>
</g>
</g>
<!-- Node10&#45;&gt;Node5 -->
<g id="edge10_Node000010_Node000005" class="edge">
<title>Node10&#45;&gt;Node5</title>
<g id="a_edge10_Node000010_Node000005"><a xlink:title=" ">
<path fill="none" stroke="#63b8ff" d="M950.66,-334.07C923.46,-305.9 870.73,-251.32 849.35,-229.18"/>
<polygon fill="#63b8ff" stroke="#63b8ff" points="948.45,-336.82 957.92,-341.58 953.49,-331.95 948.45,-336.82"/>
</a>
</g>
</g>
<!-- Node11 -->
<g id="Node000011" class="node">
<title>Node11</title>
<g id="a_Node000011"><a xlink:href="cmd__execution_8c.html#a50e59fa2e4621831a415d4038f697c56" target="_top" xlink:title="Executes a command within a pipeline.">
<polygon fill="white" stroke="#666666" points="888,-191 790,-191 790,-172 888,-172 888,-191"/>
<text text-anchor="middle" x="839" y="-179" font-family="Helvetica,sans-Serif" font-size="10.00">ft_exe_pipe_cmd</text>
</a>
</g>
</g>
<!-- Node10&#45;&gt;Node11 -->
<g id="edge11_Node000010_Node000011" class="edge">
<title>Node10&#45;&gt;Node11</title>
<g id="a_edge11_Node000010_Node000011"><a xlink:title=" ">
<path fill="none" stroke="#63b8ff" d="M952.25,-333.82C943.22,-322.75 932.02,-307.9 924,-293.5 902.63,-255.14 918.71,-232.88 888,-201.5 883.83,-197.24 878.62,-193.85 873.19,-191.16"/>
<polygon fill="#63b8ff" stroke="#63b8ff" points="949.82,-336.37 958.92,-341.8 955.2,-331.88 949.82,-336.37"/>
</a>
</g>
</g>
<!-- Node12 -->
<g id="Node000012" class="node">
<title>Node12</title>
<g id="a_Node000012"><a xlink:href="pipes_8c.html#a36a2d91a0566ad253efe3833b05e69d1" target="_top" xlink:title="Routine executed by the child process for each command in the pipe.">
<polygon fill="white" stroke="#666666" points="754,-191 662,-191 662,-172 754,-172 754,-191"/>
<text text-anchor="middle" x="708" y="-179" font-family="Helvetica,sans-Serif" font-size="10.00">ft_child_routine</text>
</a>
</g>
</g>
<!-- Node11&#45;&gt;Node12 -->
<g id="edge12_Node000011_Node000012" class="edge">
<title>Node11&#45;&gt;Node12</title>
<g id="a_edge12_Node000011_Node000012"><a xlink:title=" ">
<path fill="none" stroke="#63b8ff" d="M779.91,-181.5C771.24,-181.5 762.42,-181.5 754.08,-181.5"/>
<polygon fill="#63b8ff" stroke="#63b8ff" points="779.97,-185 789.97,-181.5 779.97,-178 779.97,-185"/>
</a>
</g>
</g>
<!-- Node13 -->
<g id="Node000013" class="node">
<title>Node13</title>
<g id="a_Node000013"><a xlink:href="pipes_8c.html#aa17e847997e7266a0a111ab3572756bb" target="_top" xlink:title="Manages pipe creation and fork to execute the current command.">
<polygon fill="white" stroke="#666666" points="626,-191 537,-191 537,-172 626,-172 626,-191"/>
<text text-anchor="middle" x="581.5" y="-179" font-family="Helvetica,sans-Serif" font-size="10.00">ft_pipe_routine</text>
</a>
</g>
</g>
<!-- Node12&#45;&gt;Node13 -->
<g id="edge13_Node000012_Node000013" class="edge">
<title>Node12&#45;&gt;Node13</title>
<g id="a_edge13_Node000012_Node000013"><a xlink:title=" ">
<path fill="none" stroke="#63b8ff" d="M651.52,-181.5C643.08,-181.5 634.46,-181.5 626.31,-181.5"/>
<polygon fill="#63b8ff" stroke="#63b8ff" points="651.7,-185 661.7,-181.5 651.7,-178 651.7,-185"/>
</a>
</g>
</g>
<!-- Node14 -->
<g id="Node000014" class="node">
<title>Node14</title>
<g id="a_Node000014"><a xlink:href="pipes_8c.html#a7a3b0de1a88a243da741f748881e14f0" target="_top" xlink:title="Executes a list of commands connected via pipes.">
<polygon fill="white" stroke="#666666" points="501,-191 420,-191 420,-172 501,-172 501,-191"/>
<text text-anchor="middle" x="460.5" y="-179" font-family="Helvetica,sans-Serif" font-size="10.00">execute_pipe</text>
</a>
</g>
</g>
<!-- Node13&#45;&gt;Node14 -->
<g id="edge14_Node000013_Node000014" class="edge">
<title>Node13&#45;&gt;Node14</title>
<g id="a_edge14_Node000013_Node000014"><a xlink:title=" ">
<path fill="none" stroke="#63b8ff" d="M526.85,-181.5C518.22,-181.5 509.42,-181.5 501.19,-181.5"/>
<polygon fill="#63b8ff" stroke="#63b8ff" points="526.86,-185 536.86,-181.5 526.86,-178 526.86,-185"/>
</a>
</g>
</g>
<!-- Node15 -->
<g id="Node000015" class="node">
<title>Node15</title>
<g id="a_Node000015"><a xlink:href="main__utils_8c.html#ad0183732909ae6e7c52e7b086c2e5642" target="_top" xlink:title="Manages the execution flow of commands with pipes.">
<polygon fill="white" stroke="#666666" points="384,-191 309,-191 309,-172 384,-172 384,-191"/>
<text text-anchor="middle" x="346.5" y="-179" font-family="Helvetica,sans-Serif" font-size="10.00">ft_pipe_flow</text>
</a>
</g>
</g>
<!-- Node14&#45;&gt;Node15 -->
<g id="edge15_Node000014_Node000015" class="edge">
<title>Node14&#45;&gt;Node15</title>
<g id="a_edge15_Node000014_Node000015"><a xlink:title=" ">
<path fill="none" stroke="#63b8ff" d="M409.47,-181.5C400.96,-181.5 392.26,-181.5 384.18,-181.5"/>
<polygon fill="#63b8ff" stroke="#63b8ff" points="409.7,-185 419.7,-181.5 409.7,-178 409.7,-185"/>
</a>
</g>
</g>
<!-- Node15&#45;&gt;Node6 -->
<g id="edge16_Node000015_Node000006" class="edge">
<title>Node15&#45;&gt;Node6</title>
<g id="a_edge16_Node000015_Node000006"><a xlink:title=" ">
<path fill="none" stroke="#63b8ff" d="M298.73,-185.68C290.29,-186.43 281.57,-187.21 273.35,-187.94"/>
<polygon fill="#63b8ff" stroke="#63b8ff" points="299.18,-189.15 308.83,-184.77 298.56,-182.18 299.18,-189.15"/>
</a>
</g>
</g>
<!-- Node16&#45;&gt;Node10 -->
<g id="edge19_Node000016_Node000010" class="edge">
<title>Node16&#45;&gt;Node10</title>
<g id="a_edge19_Node000016_Node000010"><a xlink:title=" ">
<path fill="none" stroke="#63b8ff" d="M1060.26,-412.43C1056.39,-410.92 1052.59,-409.27 1049,-407.5 1022.66,-394.5 995.4,-373.3 980.64,-361.05"/>
<polygon fill="#63b8ff" stroke="#63b8ff" points="1059.35,-415.82 1069.94,-415.93 1061.73,-409.24 1059.35,-415.82"/>
</a>
</g>
</g>
<!-- Node17&#45;&gt;Node9 -->
<g id="edge30_Node000017_Node000009" class="edge">
<title>Node17&#45;&gt;Node9</title>
<g id="a_edge30_Node000017_Node000009"><a xlink:title=" ">
<path fill="none" stroke="#63b8ff" d="M1238.59,-256.92C1228.04,-285.88 1204.29,-340.22 1166,-370.5 1160.09,-375.17 1152.96,-378.64 1145.76,-381.21"/>
<polygon fill="#63b8ff" stroke="#63b8ff" points="1242,-257.76 1241.98,-247.17 1235.39,-255.46 1242,-257.76"/>
</a>
</g>
</g>
<!-- Node17&#45;&gt;Node10 -->
<g id="edge32_Node000017_Node000010" class="edge">
<title>Node17&#45;&gt;Node10</title>
<g id="a_edge32_Node000017_Node000010"><a xlink:title=" ">
<path fill="none" stroke="#63b8ff" d="M1214.84,-251.16C1200.15,-257.73 1182.21,-265.65 1166,-272.5 1103.34,-298.97 1028.62,-328.44 992,-342.75"/>
<polygon fill="#63b8ff" stroke="#63b8ff" points="1216.27,-254.35 1223.96,-247.06 1213.41,-247.96 1216.27,-254.35"/>
</a>
</g>
</g>
<!-- Node17&#45;&gt;Node11 -->
<g id="edge31_Node000017_Node000011" class="edge">
<title>Node17&#45;&gt;Node11</title>
<g id="a_edge31_Node000017_Node000011"><a xlink:title=" ">
<path fill="none" stroke="#63b8ff" d="M1240.59,-217.9C1232.18,-185.49 1210.59,-121.26 1166,-90.5 1077.16,-29.22 1020.63,-22.44 924,-70.5 880.29,-92.24 853.26,-148.78 843.8,-171.67"/>
<polygon fill="#63b8ff" stroke="#63b8ff" points="1237.27,-219.04 1243.03,-227.93 1244.07,-217.39 1237.27,-219.04"/>
</a>
</g>
</g>
<!-- Node18 -->
<g id="Node000018" class="node">
<title>Node18</title>
<g id="a_Node000018"><a xlink:href="ft__cd_8c.html#af438919e376d2d0df3830120118ea526" target="_top" xlink:title="Builtin function for the cd (change directory) command.">
<polygon fill="white" stroke="#666666" points="988.5,-173 948.5,-173 948.5,-154 988.5,-154 988.5,-173"/>
<text text-anchor="middle" x="968.5" y="-161" font-family="Helvetica,sans-Serif" font-size="10.00">ft_cd</text>
</a>
</g>
</g>
<!-- Node17&#45;&gt;Node18 -->
<g id="edge21_Node000017_Node000018" class="edge">
<title>Node17&#45;&gt;Node18</title>
<g id="a_edge21_Node000017_Node000018"><a xlink:title=" ">
<path fill="none" stroke="#63b8ff" d="M1213.79,-223.93C1199.42,-218.03 1182.04,-211.37 1166,-206.5 1102.17,-187.13 1024.21,-172.73 988.73,-166.66"/>
<polygon fill="#63b8ff" stroke="#63b8ff" points="1212.62,-227.24 1223.2,-227.86 1215.32,-220.78 1212.62,-227.24"/>
</a>
</g>
</g>
<!-- Node19 -->
<g id="Node000019" class="node">
<title>Node19</title>
<g id="a_Node000019"><a xlink:href="ft__echo_8c.html#a177f72f5eedf5cdf35c113ae47966c4b" target="_top" xlink:title="Builtin function for the echo command.">
<polygon fill="white" stroke="#666666" points="994.5,-136 942.5,-136 942.5,-117 994.5,-117 994.5,-136"/>
<text text-anchor="middle" x="968.5" y="-124" font-family="Helvetica,sans-Serif" font-size="10.00">ft_echo</text>
</a>
</g>
</g>
<!-- Node17&#45;&gt;Node19 -->
<g id="edge24_Node000017_Node000019" class="edge">
<title>Node17&#45;&gt;Node19</title>
<g id="a_edge24_Node000017_Node000019"><a xlink:title=" ">
<path fill="none" stroke="#63b8ff" d="M1228.36,-220.23C1213.37,-205.66 1190.05,-185.35 1166,-173.5 1108.58,-145.21 1033.16,-133.37 994.59,-128.9"/>
<polygon fill="#63b8ff" stroke="#63b8ff" points="1226.23,-223.05 1235.78,-227.64 1231.18,-218.1 1226.23,-223.05"/>
</a>
</g>
</g>
<!-- Node20 -->
<g id="Node000020" class="node">
<title>Node20</title>
<g id="a_Node000020"><a xlink:href="env_8c.html#a6a15443c9c0b34afef3d21f19e385995" target="_top" xlink:title="Builtin function for the env command.">
<polygon fill="white" stroke="#666666" points="992,-99 945,-99 945,-80 992,-80 992,-99"/>
<text text-anchor="middle" x="968.5" y="-87" font-family="Helvetica,sans-Serif" font-size="10.00">ft_env</text>
</a>
</g>
</g>
<!-- Node17&#45;&gt;Node20 -->
<g id="edge27_Node000017_Node000020" class="edge">
<title>Node17&#45;&gt;Node20</title>
<g id="a_edge27_Node000017_Node000020"><a xlink:title=" ">
<path fill="none" stroke="#63b8ff" d="M1236.12,-218.94C1223.8,-195.26 1199.22,-154.83 1166,-133.5 1110.69,-97.99 1030.64,-90.91 992.02,-89.65"/>
<polygon fill="#63b8ff" stroke="#63b8ff" points="1233.03,-220.58 1240.64,-227.95 1239.29,-217.45 1233.03,-220.58"/>
</a>
</g>
</g>
<!-- Node21 -->
<g id="Node000021" class="node">
<title>Node21</title>
<g id="a_Node000021"><a xlink:href="exit_8c.html#a31166fb7eed428449a3e6183d4fa1642" target="_top" xlink:title="Checks if there are too many arguments for the exit command.">
<polygon fill="white" stroke="#666666" points="1155,-361 1060,-361 1060,-342 1155,-342 1155,-361"/>
<text text-anchor="middle" x="1107.5" y="-349" font-family="Helvetica,sans-Serif" font-size="10.00">ft_exit_too_args</text>
</a>
</g>
</g>
<!-- Node17&#45;&gt;Node21 -->
<g id="edge33_Node000017_Node000021" class="edge">
<title>Node17&#45;&gt;Node21</title>
<g id="a_edge33_Node000017_Node000021"><a xlink:title=" ">
<path fill="none" stroke="#63b8ff" d="M1232.9,-255.67C1218.85,-275.6 1193.99,-307.4 1166,-327.5 1157.74,-333.43 1147.8,-338.24 1138.51,-341.96"/>
<polygon fill="#63b8ff" stroke="#63b8ff" points="1235.95,-257.42 1238.74,-247.2 1230.18,-253.45 1235.95,-257.42"/>
</a>
</g>
</g>
<!-- Node22 -->
<g id="Node000022" class="node">
<title>Node22</title>
<g id="a_Node000022"><a xlink:href="export_8c.html#a2b0f2ba2e9188c7b4f6ca5a44c1d0c8e" target="_top" xlink:title="Builtin function for the export command.">
<polygon fill="white" stroke="#666666" points="998.5,-284 938.5,-284 938.5,-265 998.5,-265 998.5,-284"/>
<text text-anchor="middle" x="968.5" y="-272" font-family="Helvetica,sans-Serif" font-size="10.00">ft_export</text>
</a>
</g>
</g>
<!-- Node17&#45;&gt;Node22 -->
<g id="edge35_Node000017_Node000022" class="edge">
<title>Node17&#45;&gt;Node22</title>
<g id="a_edge35_Node000017_Node000022"><a xlink:title=" ">
<path fill="none" stroke="#63b8ff" d="M1195.67,-246.7C1185.86,-248.4 1175.61,-250.09 1166,-251.5 1106.7,-260.22 1036.94,-267.74 998.54,-271.64"/>
<polygon fill="#63b8ff" stroke="#63b8ff" points="1196.45,-250.12 1205.69,-244.94 1195.24,-243.23 1196.45,-250.12"/>
</a>
</g>
</g>
<!-- Node23 -->
<g id="Node000023" class="node">
<title>Node23</title>
<g id="a_Node000023"><a xlink:href="pwd_8c.html#a445dbcbb87f52cdbb07a078f21b198c4" target="_top" xlink:title="Builtin function for the pwd (print working directory) command.">
<polygon fill="white" stroke="#666666" points="993,-247 944,-247 944,-228 993,-228 993,-247"/>
<text text-anchor="middle" x="968.5" y="-235" font-family="Helvetica,sans-Serif" font-size="10.00">ft_pwd</text>
</a>
</g>
</g>
<!-- Node17&#45;&gt;Node23 -->
<g id="edge38_Node000017_Node000023" class="edge">
<title>Node17&#45;&gt;Node23</title>
<g id="a_edge38_Node000017_Node000023"><a xlink:title=" ">
<path fill="none" stroke="#63b8ff" d="M1195.5,-237.5C1135.78,-237.5 1037.86,-237.5 993.13,-237.5"/>
<polygon fill="#63b8ff" stroke="#63b8ff" points="1195.82,-241 1205.82,-237.5 1195.82,-234 1195.82,-241"/>
</a>
</g>
</g>
<!-- Node24 -->
<g id="Node000024" class="node">
<title>Node24</title>
<g id="a_Node000024"><a xlink:href="unset_8c.html#afc37f76bba8f618bcf9eaafa7ee23618" target="_top" xlink:title="Builtin function for the unset command.">
<polygon fill="white" stroke="#666666" points="996.5,-210 940.5,-210 940.5,-191 996.5,-191 996.5,-210"/>
<text text-anchor="middle" x="968.5" y="-198" font-family="Helvetica,sans-Serif" font-size="10.00">ft_unset</text>
</a>
</g>
</g>
<!-- Node17&#45;&gt;Node24 -->
<g id="edge41_Node000017_Node000024" class="edge">
<title>Node17&#45;&gt;Node24</title>
<g id="a_edge41_Node000017_Node000024"><a xlink:title=" ">
<path fill="none" stroke="#63b8ff" d="M1195.77,-230.89C1137.7,-223.09 1043.21,-210.4 996.88,-204.18"/>
<polygon fill="#63b8ff" stroke="#63b8ff" points="1195.44,-234.38 1205.82,-232.24 1196.38,-227.44 1195.44,-234.38"/>
</a>
</g>
</g>
<!-- Node18&#45;&gt;Node5 -->
<g id="edge22_Node000018_Node000005" class="edge">
<title>Node18&#45;&gt;Node5</title>
<g id="a_edge22_Node000018_Node000005"><a xlink:title=" ">
<path fill="none" stroke="#63b8ff" d="M939,-175.7C933.98,-177.92 928.82,-180.24 924,-182.5 907.8,-190.08 904.33,-193.2 888,-200.5 880.8,-203.72 872.88,-206.97 865.58,-209.85"/>
<polygon fill="#63b8ff" stroke="#63b8ff" points="940.59,-178.82 948.35,-171.61 937.78,-172.41 940.59,-178.82"/>
</a>
</g>
</g>
<!-- Node18&#45;&gt;Node11 -->
<g id="edge23_Node000018_Node000011" class="edge">
<title>Node18&#45;&gt;Node11</title>
<g id="a_edge23_Node000018_Node000011"><a xlink:title=" ">
<path fill="none" stroke="#63b8ff" d="M938.31,-167.62C923.47,-169.72 905.04,-172.32 888.17,-174.7"/>
<polygon fill="#63b8ff" stroke="#63b8ff" points="939,-171.06 948.41,-166.19 938.02,-164.13 939,-171.06"/>
</a>
</g>
</g>
<!-- Node19&#45;&gt;Node5 -->
<g id="edge25_Node000019_Node000005" class="edge">
<title>Node19&#45;&gt;Node5</title>
<g id="a_edge25_Node000019_Node000005"><a xlink:title=" ">
<path fill="none" stroke="#63b8ff" d="M932.96,-139.28C929.78,-141.13 926.73,-143.2 924,-145.5 901.68,-164.35 910.64,-182.04 888,-200.5 883.35,-204.29 877.84,-207.4 872.25,-209.93"/>
<polygon fill="#63b8ff" stroke="#63b8ff" points="934.78,-142.28 942.14,-134.66 931.63,-136.03 934.78,-142.28"/>
</a>
</g>
</g>
<!-- Node19&#45;&gt;Node11 -->
<g id="edge26_Node000019_Node000011" class="edge">
<title>Node19&#45;&gt;Node11</title>
<g id="a_edge26_Node000019_Node000011"><a xlink:title=" ">
<path fill="none" stroke="#63b8ff" d="M936.01,-140.09C913.15,-149.94 882.79,-163.04 862.38,-171.84"/>
<polygon fill="#63b8ff" stroke="#63b8ff" points="937.5,-143.25 945.29,-136.08 934.72,-136.83 937.5,-143.25"/>
</a>
</g>
</g>
<!-- Node20&#45;&gt;Node5 -->
<g id="edge28_Node000020_Node000005" class="edge">
<title>Node20&#45;&gt;Node5</title>
<g id="a_edge28_Node000020_Node000005"><a xlink:title=" ">
<path fill="none" stroke="#63b8ff" d="M935.34,-100C931.17,-102.33 927.24,-105.14 924,-108.5 893.56,-140.14 918.99,-169.39 888,-200.5 884.21,-204.31 879.55,-207.38 874.65,-209.84"/>
<polygon fill="#63b8ff" stroke="#63b8ff" points="937.08,-103.05 944.64,-95.63 934.1,-96.71 937.08,-103.05"/>
</a>
</g>
</g>
<!-- Node20&#45;&gt;Node11 -->
<g id="edge29_Node000020_Node000011" class="edge">
<title>Node20&#45;&gt;Node11</title>
<g id="a_edge29_Node000020_Node000011"><a xlink:title=" ">
<path fill="none" stroke="#63b8ff" d="M935.5,-102.13C931.53,-104.09 927.61,-106.22 924,-108.5 893.95,-127.49 863.7,-156.9 849.06,-171.93"/>
<polygon fill="#63b8ff" stroke="#63b8ff" points="937.07,-105.26 944.71,-97.92 934.16,-98.9 937.07,-105.26"/>
</a>
</g>
</g>
<!-- Node21&#45;&gt;Node10 -->
<g id="edge34_Node000021_Node000010" class="edge">
<title>Node21&#45;&gt;Node10</title>
<g id="a_edge34_Node000021_Node000010"><a xlink:title=" ">
<path fill="none" stroke="#63b8ff" d="M1049.66,-351.5C1029.49,-351.5 1007.93,-351.5 992.25,-351.5"/>
<polygon fill="#63b8ff" stroke="#63b8ff" points="1049.74,-355 1059.74,-351.5 1049.74,-348 1049.74,-355"/>
</a>
</g>
</g>
<!-- Node22&#45;&gt;Node5 -->
<g id="edge36_Node000022_Node000005" class="edge">
<title>Node22&#45;&gt;Node5</title>
<g id="a_edge36_Node000022_Node000005"><a xlink:title=" ">
<path fill="none" stroke="#63b8ff" d="M934.62,-260.98C931.03,-259.48 927.43,-257.97 924,-256.5 902.6,-247.36 878.29,-236.61 861.35,-229.06"/>
<polygon fill="#63b8ff" stroke="#63b8ff" points="933.4,-264.27 943.98,-264.88 936.09,-257.81 933.4,-264.27"/>
</a>
</g>
</g>
<!-- Node22&#45;&gt;Node11 -->
<g id="edge37_Node000022_Node000011" class="edge">
<title>Node22&#45;&gt;Node11</title>
<g id="a_edge37_Node000022_Node000011"><a xlink:title=" ">
<path fill="none" stroke="#63b8ff" d="M928.95,-260.13C927.22,-259 925.56,-257.79 924,-256.5 901.5,-237.86 910.48,-220.16 888,-201.5 882.93,-197.29 876.85,-193.85 870.74,-191.09"/>
<polygon fill="#63b8ff" stroke="#63b8ff" points="927.6,-263.38 938.05,-265.16 930.99,-257.26 927.6,-263.38"/>
</a>
</g>
</g>
<!-- Node23&#45;&gt;Node5 -->
<g id="edge39_Node000023_Node000005" class="edge">
<title>Node23&#45;&gt;Node5</title>
<g id="a_edge39_Node000023_Node000005"><a xlink:title=" ">
<path fill="none" stroke="#63b8ff" d="M933.71,-232.73C915.63,-230.18 893.39,-227.04 875.11,-224.46"/>
<polygon fill="#63b8ff" stroke="#63b8ff" points="933.43,-236.22 943.82,-234.16 934.4,-229.29 933.43,-236.22"/>
</a>
</g>
</g>
<!-- Node23&#45;&gt;Node11 -->
<g id="edge40_Node000023_Node000011" class="edge">
<title>Node23&#45;&gt;Node11</title>
<g id="a_edge40_Node000023_Node000011"><a xlink:title=" ">
<path fill="none" stroke="#63b8ff" d="M934.54,-224.15C930.97,-222.62 927.4,-221.05 924,-219.5 907.72,-212.08 904.27,-208.94 888,-201.5 880.28,-197.97 871.76,-194.33 864.07,-191.15"/>
<polygon fill="#63b8ff" stroke="#63b8ff" points="933.31,-227.43 943.89,-228.09 936.03,-220.98 933.31,-227.43"/>
</a>
</g>
</g>
<!-- Node24&#45;&gt;Node5 -->
<g id="edge42_Node000024_Node000005" class="edge">
<title>Node24&#45;&gt;Node5</title>
<g id="a_edge42_Node000024_Node000005"><a xlink:title=" ">
<path fill="none" stroke="#63b8ff" d="M930.13,-206.07C912.8,-208.65 892.3,-211.71 875.24,-214.25"/>
<polygon fill="#63b8ff" stroke="#63b8ff" points="931.09,-209.47 940.46,-204.53 930.05,-202.54 931.09,-209.47"/>
</a>
</g>
</g>
<!-- Node24&#45;&gt;Node11 -->
<g id="edge43_Node000024_Node000011" class="edge">
<title>Node24&#45;&gt;Node11</title>
<g id="a_edge43_Node000024_Node000011"><a xlink:title=" ">
<path fill="none" stroke="#63b8ff" d="M930.33,-194.96C917.14,-192.99 902.09,-190.75 888.11,-188.67"/>
<polygon fill="#63b8ff" stroke="#63b8ff" points="930.05,-198.46 940.46,-196.47 931.09,-191.53 930.05,-198.46"/>
</a>
</g>
</g>
<!-- Node26 -->
<g id="Node000026" class="node">
<title>Node26</title>
<g id="a_Node000026"><a xlink:href="tokenize__input_8c.html#a4ec55df7b6b0c546095f50475f610fb1" target="_top" xlink:title="Extracts and builds a single token from the user input.">
<polygon fill="white" stroke="#666666" points="1148.5,-19 1066.5,-19 1066.5,0 1148.5,0 1148.5,-19"/>
<text text-anchor="middle" x="1107.5" y="-7" font-family="Helvetica,sans-Serif" font-size="10.00">ft_get_tokens</text>
</a>
</g>
</g>
<!-- Node25&#45;&gt;Node26 -->
<g id="edge46_Node000025_Node000026" class="edge">
<title>Node25&#45;&gt;Node26</title>
<g id="a_edge46_Node000025_Node000026"><a xlink:title=" ">
<path fill="none" stroke="#63b8ff" d="M1229.63,-88.45C1214.62,-72.59 1190.52,-49.12 1166,-33.5 1156.97,-27.75 1146.32,-22.85 1136.66,-19.02"/>
<polygon fill="#63b8ff" stroke="#63b8ff" points="1227.24,-91.02 1236.6,-95.97 1232.37,-86.26 1227.24,-91.02"/>
</a>
</g>
</g>
<!-- Node27 -->
<g id="Node000027" class="node">
<title>Node27</title>
<g id="a_Node000027"><a xlink:href="tokenize__input_8c.html#a4e40c3f57ab2488a2b49f37846785b2e" target="_top" xlink:title="Tokenizes the entire user input string.">
<polygon fill="white" stroke="#666666" points="737,-86 679,-86 679,-67 737,-67 737,-86"/>
<text text-anchor="middle" x="708" y="-74" font-family="Helvetica,sans-Serif" font-size="10.00">tokenize</text>
</a>
</g>
</g>
<!-- Node26&#45;&gt;Node27 -->
<g id="edge47_Node000026_Node000027" class="edge">
<title>Node26&#45;&gt;Node27</title>
<g id="a_edge47_Node000026_Node000027"><a xlink:title=" ">
<path fill="none" stroke="#63b8ff" d="M1056.24,-16.42C1019.54,-21.6 968.61,-29.05 924,-36.5 856.78,-47.72 778.12,-62.87 737.11,-70.93"/>
<polygon fill="#63b8ff" stroke="#63b8ff" points="1056.79,-19.88 1066.2,-15.02 1055.81,-12.95 1056.79,-19.88"/>
</a>
</g>
</g>
<!-- Node27&#45;&gt;Node7 -->
<g id="edge48_Node000027_Node000007" class="edge">
<title>Node27&#45;&gt;Node7</title>
<g id="a_edge48_Node000027_Node000007"><a xlink:title=" ">
<path fill="none" stroke="#63b8ff" d="M673.45,-89.66C626.71,-106.77 539.02,-134.5 461.5,-134.5 461.5,-134.5 461.5,-134.5 345.5,-134.5 268.18,-134.5 180.4,-165.73 140.01,-181.96"/>
<polygon fill="#63b8ff" stroke="#63b8ff" points="674.91,-92.85 683.05,-86.08 672.46,-86.29 674.91,-92.85"/>
</a>
</g>
</g>
</g>
</svg>
