<?xml version="1.0" encoding="UTF-8" standalone="no"?>
<!DOCTYPE svg PUBLIC "-//W3C//DTD SVG 1.1//EN"
 "http://www.w3.org/Graphics/SVG/1.1/DTD/svg11.dtd">
<!-- Generated by graphviz version 2.43.0 (0)
 -->
<!-- Title: free_all Pages: 1 -->
<svg width="1263pt" height="140pt"
 viewBox="0.00 0.00 1263.00 140.00" xmlns="http://www.w3.org/2000/svg" xmlns:xlink="http://www.w3.org/1999/xlink">
<g id="graph0" class="graph" transform="scale(1 1) rotate(0) translate(4 136)">
<title>free_all</title>
<!-- Node1 -->
<g id="Node000001" class="node">
<title>Node1</title>
<g id="a_Node000001"><a xlink:title="Frees all resources associated with a list of commands and the environment.">
<polygon fill="#999999" stroke="#666666" points="1255,-76 1202,-76 1202,-57 1255,-57 1255,-76"/>
<text text-anchor="middle" x="1228.5" y="-64" font-family="Helvetica,sans-Serif" font-size="10.00">free_all</text>
</a>
</g>
</g>
<!-- Node2 -->
<g id="Node000002" class="node">
<title>Node2</title>
<g id="a_Node000002"><a xlink:href="system__commands_8c.html#a6dfb68d4eb4b73539a6d36f36d23d093" target="_top" xlink:title="Function executed by the child process to run a command.">
<polygon fill="white" stroke="#666666" points="1133.5,-132 1081.5,-132 1081.5,-113 1133.5,-113 1133.5,-132"/>
<text text-anchor="middle" x="1107.5" y="-120" font-family="Helvetica,sans-Serif" font-size="10.00">ft_child</text>
</a>
</g>
</g>
<!-- Node1&#45;&gt;Node2 -->
<g id="edge1_Node000001_Node000002" class="edge">
<title>Node1&#45;&gt;Node2</title>
<g id="a_edge1_Node000001_Node000002"><a xlink:title=" ">
<path fill="none" stroke="#63b8ff" d="M1205.45,-81.99C1194.05,-89.51 1179.69,-98.25 1166,-104.5 1155.72,-109.19 1143.88,-113.13 1133.63,-116.11"/>
<polygon fill="#63b8ff" stroke="#63b8ff" points="1207.56,-84.79 1213.89,-76.29 1203.64,-78.99 1207.56,-84.79"/>
</a>
</g>
</g>
<!-- Node8 -->
<g id="Node000008" class="node">
<title>Node8</title>
<g id="a_Node000008"><a xlink:href="exit_8c.html#a81b8a91253c822b248934172be9eee03" target="_top" xlink:title="Handles errors related to non&#45;numeric or null exit arguments.">
<polygon fill="white" stroke="#666666" points="1145.5,-95 1069.5,-95 1069.5,-76 1145.5,-76 1145.5,-95"/>
<text text-anchor="middle" x="1107.5" y="-83" font-family="Helvetica,sans-Serif" font-size="10.00">ft_error_exit</text>
</a>
</g>
</g>
<!-- Node1&#45;&gt;Node8 -->
<g id="edge7_Node000001_Node000008" class="edge">
<title>Node1&#45;&gt;Node8</title>
<g id="a_edge7_Node000001_Node000008"><a xlink:title=" ">
<path fill="none" stroke="#63b8ff" d="M1191.84,-72.19C1177.28,-74.52 1160.45,-77.21 1145.73,-79.56"/>
<polygon fill="#63b8ff" stroke="#63b8ff" points="1192.65,-75.61 1201.97,-70.58 1191.54,-68.7 1192.65,-75.61"/>
</a>
</g>
</g>
<!-- Node9 -->
<g id="Node000009" class="node">
<title>Node9</title>
<g id="a_Node000009"><a xlink:href="exit_8c.html#af0d4948984577b715a89f18d5864cfa2" target="_top" xlink:title="Builtin function for the exit command.">
<polygon fill="white" stroke="#666666" points="992,-66 945,-66 945,-47 992,-47 992,-66"/>
<text text-anchor="middle" x="968.5" y="-54" font-family="Helvetica,sans-Serif" font-size="10.00">ft_exit</text>
</a>
</g>
</g>
<!-- Node1&#45;&gt;Node9 -->
<g id="edge16_Node000001_Node000009" class="edge">
<title>Node1&#45;&gt;Node9</title>
<g id="a_edge16_Node000001_Node000009"><a xlink:title=" ">
<path fill="none" stroke="#63b8ff" d="M1191.67,-65.11C1137.67,-63.02 1036.98,-59.12 992.1,-57.38"/>
<polygon fill="#63b8ff" stroke="#63b8ff" points="1191.69,-68.61 1201.82,-65.5 1191.96,-61.62 1191.69,-68.61"/>
</a>
</g>
</g>
<!-- Node15 -->
<g id="Node000015" class="node">
<title>Node15</title>
<g id="a_Node000015"><a xlink:href="exit_8c.html#a7bda6b30cde0b18718f60d2a30efb2f6" target="_top" xlink:title="Handles the case when exit is called without arguments or with &quot;0&quot;.">
<polygon fill="white" stroke="#666666" points="1166,-19 1049,-19 1049,0 1166,0 1166,-19"/>
<text text-anchor="middle" x="1107.5" y="-7" font-family="Helvetica,sans-Serif" font-size="10.00">ft_exit_no_args_or_0</text>
</a>
</g>
</g>
<!-- Node1&#45;&gt;Node15 -->
<g id="edge17_Node000001_Node000015" class="edge">
<title>Node1&#45;&gt;Node15</title>
<g id="a_edge17_Node000001_Node000015"><a xlink:title=" ">
<path fill="none" stroke="#63b8ff" d="M1201.77,-51.97C1190.86,-46 1177.93,-39.18 1166,-33.5 1155.25,-28.39 1143.13,-23.24 1132.79,-19.03"/>
<polygon fill="#63b8ff" stroke="#63b8ff" points="1200.31,-55.17 1210.76,-56.95 1203.7,-49.04 1200.31,-55.17"/>
</a>
</g>
</g>
<!-- Node3 -->
<g id="Node000003" class="node">
<title>Node3</title>
<g id="a_Node000003"><a xlink:href="system__commands_8c.html#a6d8647dce4277e848c613bd0cc3df5bb" target="_top" xlink:title="Executes a system command by creating a child process.">
<polygon fill="white" stroke="#666666" points="1013,-122 924,-122 924,-103 1013,-103 1013,-122"/>
<text text-anchor="middle" x="968.5" y="-110" font-family="Helvetica,sans-Serif" font-size="10.00">ft_exe_syscmd</text>
</a>
</g>
</g>
<!-- Node2&#45;&gt;Node3 -->
<g id="edge2_Node000002_Node000003" class="edge">
<title>Node2&#45;&gt;Node3</title>
<g id="a_edge2_Node000002_Node000003"><a xlink:title=" ">
<path fill="none" stroke="#63b8ff" d="M1070.92,-119.9C1053.23,-118.61 1031.71,-117.04 1013.05,-115.68"/>
<polygon fill="#63b8ff" stroke="#63b8ff" points="1071.14,-123.43 1081.37,-120.67 1071.65,-116.45 1071.14,-123.43"/>
</a>
</g>
</g>
<!-- Node4 -->
<g id="Node000004" class="node">
<title>Node4</title>
<g id="a_Node000004"><a xlink:href="cmd__execution_8c.html#a5ce7231f800cbacea6350cc1a32a59bd" target="_top" xlink:title="Executes a list of non&#45;pipelined commands.">
<polygon fill="white" stroke="#666666" points="875,-104 803,-104 803,-85 875,-85 875,-104"/>
<text text-anchor="middle" x="839" y="-92" font-family="Helvetica,sans-Serif" font-size="10.00">ft_exe_cmd</text>
</a>
</g>
</g>
<!-- Node3&#45;&gt;Node4 -->
<g id="edge3_Node000003_Node000004" class="edge">
<title>Node3&#45;&gt;Node4</title>
<g id="a_edge3_Node000003_Node000004"><a xlink:title=" ">
<path fill="none" stroke="#63b8ff" d="M913.73,-104.91C900.74,-103.08 887.19,-101.16 875.3,-99.48"/>
<polygon fill="#63b8ff" stroke="#63b8ff" points="913.59,-108.42 923.98,-106.36 914.57,-101.49 913.59,-108.42"/>
</a>
</g>
</g>
<!-- Node5 -->
<g id="Node000005" class="node">
<title>Node5</title>
<g id="a_Node000005"><a xlink:href="main__utils_8c.html#a7e8f478480ab6ab34d6f5eadaf6acdb9" target="_top" xlink:title="Handles parsing and execution of tokens.">
<polygon fill="white" stroke="#666666" points="273,-85 192,-85 192,-66 273,-66 273,-85"/>
<text text-anchor="middle" x="232.5" y="-73" font-family="Helvetica,sans-Serif" font-size="10.00">ft_token_flow</text>
</a>
</g>
</g>
<!-- Node4&#45;&gt;Node5 -->
<g id="edge4_Node000004_Node000005" class="edge">
<title>Node4&#45;&gt;Node5</title>
<g id="a_edge4_Node000004_Node000005"><a xlink:title=" ">
<path fill="none" stroke="#63b8ff" d="M792.82,-94.5C741.77,-94.5 656.16,-94.5 582.5,-94.5 582.5,-94.5 582.5,-94.5 459.5,-94.5 393.94,-94.5 318.06,-86.46 273.02,-80.84"/>
<polygon fill="#63b8ff" stroke="#63b8ff" points="792.87,-98 802.87,-94.5 792.87,-91 792.87,-98"/>
</a>
</g>
</g>
<!-- Node6 -->
<g id="Node000006" class="node">
<title>Node6</title>
<g id="a_Node000006"><a xlink:href="main__utils_8c.html#ae35edfb8f1339d6f77f53c28eb2a2ed6" target="_top" xlink:title="Handles a complete cycle of input → parsing → execution.">
<polygon fill="white" stroke="#666666" points="156,-85 77,-85 77,-66 156,-66 156,-85"/>
<text text-anchor="middle" x="116.5" y="-73" font-family="Helvetica,sans-Serif" font-size="10.00">ft_main_flow</text>
</a>
</g>
</g>
<!-- Node5&#45;&gt;Node6 -->
<g id="edge5_Node000005_Node000006" class="edge">
<title>Node5&#45;&gt;Node6</title>
<g id="a_edge5_Node000005_Node000006"><a xlink:title=" ">
<path fill="none" stroke="#63b8ff" d="M181.7,-75.5C173.16,-75.5 164.4,-75.5 156.21,-75.5"/>
<polygon fill="#63b8ff" stroke="#63b8ff" points="181.95,-79 191.95,-75.5 181.95,-72 181.95,-79"/>
</a>
</g>
</g>
<!-- Node7 -->
<g id="Node000007" class="node">
<title>Node7</title>
<g id="a_Node000007"><a xlink:href="main_8c.html#ab3862b46d6a8d13c2d884a297e6b05b5" target="_top" xlink:title="Main function of the minishell.">
<polygon fill="white" stroke="#666666" points="41,-85 0,-85 0,-66 41,-66 41,-85"/>
<text text-anchor="middle" x="20.5" y="-73" font-family="Helvetica,sans-Serif" font-size="10.00">main</text>
</a>
</g>
</g>
<!-- Node6&#45;&gt;Node7 -->
<g id="edge6_Node000006_Node000007" class="edge">
<title>Node6&#45;&gt;Node7</title>
<g id="a_edge6_Node000006_Node000007"><a xlink:title=" ">
<path fill="none" stroke="#63b8ff" d="M66.74,-75.5C57.62,-75.5 48.59,-75.5 41.03,-75.5"/>
<polygon fill="#63b8ff" stroke="#63b8ff" points="67,-79 77,-75.5 67,-72 67,-79"/>
</a>
</g>
</g>
<!-- Node8&#45;&gt;Node9 -->
<g id="edge8_Node000008_Node000009" class="edge">
<title>Node8&#45;&gt;Node9</title>
<g id="a_edge8_Node000008_Node000009"><a xlink:title=" ">
<path fill="none" stroke="#63b8ff" d="M1059.55,-75.56C1036.71,-70.73 1010.3,-65.14 992.01,-61.27"/>
<polygon fill="#63b8ff" stroke="#63b8ff" points="1058.92,-79.01 1069.43,-77.65 1060.37,-72.16 1058.92,-79.01"/>
</a>
</g>
</g>
<!-- Node9&#45;&gt;Node4 -->
<g id="edge9_Node000009_Node000004" class="edge">
<title>Node9&#45;&gt;Node4</title>
<g id="a_edge9_Node000009_Node000004"><a xlink:title=" ">
<path fill="none" stroke="#63b8ff" d="M935.17,-66.13C915.92,-71.87 891.57,-79.13 872.32,-84.87"/>
<polygon fill="#63b8ff" stroke="#63b8ff" points="936.42,-69.42 945,-63.21 934.42,-62.71 936.42,-69.42"/>
</a>
</g>
</g>
<!-- Node10 -->
<g id="Node000010" class="node">
<title>Node10</title>
<g id="a_Node000010"><a xlink:href="cmd__execution_8c.html#a50e59fa2e4621831a415d4038f697c56" target="_top" xlink:title="Executes a command within a pipeline.">
<polygon fill="white" stroke="#666666" points="888,-66 790,-66 790,-47 888,-47 888,-66"/>
<text text-anchor="middle" x="839" y="-54" font-family="Helvetica,sans-Serif" font-size="10.00">ft_exe_pipe_cmd</text>
</a>
</g>
</g>
<!-- Node9&#45;&gt;Node10 -->
<g id="edge10_Node000009_Node000010" class="edge">
<title>Node9&#45;&gt;Node10</title>
<g id="a_edge10_Node000009_Node000010"><a xlink:title=" ">
<path fill="none" stroke="#63b8ff" d="M934.75,-56.5C920.58,-56.5 903.71,-56.5 888.15,-56.5"/>
<polygon fill="#63b8ff" stroke="#63b8ff" points="935,-60 945,-56.5 935,-53 935,-60"/>
</a>
</g>
</g>
<!-- Node11 -->
<g id="Node000011" class="node">
<title>Node11</title>
<g id="a_Node000011"><a xlink:href="pipes_8c.html#a36a2d91a0566ad253efe3833b05e69d1" target="_top" xlink:title="Routine executed by the child process for each command in the pipe.">
<polygon fill="white" stroke="#666666" points="754,-66 662,-66 662,-47 754,-47 754,-66"/>
<text text-anchor="middle" x="708" y="-54" font-family="Helvetica,sans-Serif" font-size="10.00">ft_child_routine</text>
</a>
</g>
</g>
<!-- Node10&#45;&gt;Node11 -->
<g id="edge11_Node000010_Node000011" class="edge">
<title>Node10&#45;&gt;Node11</title>
<g id="a_edge11_Node000010_Node000011"><a xlink:title=" ">
<path fill="none" stroke="#63b8ff" d="M779.91,-56.5C771.24,-56.5 762.42,-56.5 754.08,-56.5"/>
<polygon fill="#63b8ff" stroke="#63b8ff" points="779.97,-60 789.97,-56.5 779.97,-53 779.97,-60"/>
</a>
</g>
</g>
<!-- Node12 -->
<g id="Node000012" class="node">
<title>Node12</title>
<g id="a_Node000012"><a xlink:href="pipes_8c.html#aa17e847997e7266a0a111ab3572756bb" target="_top" xlink:title="Manages pipe creation and fork to execute the current command.">
<polygon fill="white" stroke="#666666" points="626,-66 537,-66 537,-47 626,-47 626,-66"/>
<text text-anchor="middle" x="581.5" y="-54" font-family="Helvetica,sans-Serif" font-size="10.00">ft_pipe_routine</text>
</a>
</g>
</g>
<!-- Node11&#45;&gt;Node12 -->
<g id="edge12_Node000011_Node000012" class="edge">
<title>Node11&#45;&gt;Node12</title>
<g id="a_edge12_Node000011_Node000012"><a xlink:title=" ">
<path fill="none" stroke="#63b8ff" d="M651.52,-56.5C643.08,-56.5 634.46,-56.5 626.31,-56.5"/>
<polygon fill="#63b8ff" stroke="#63b8ff" points="651.7,-60 661.7,-56.5 651.7,-53 651.7,-60"/>
</a>
</g>
</g>
<!-- Node13 -->
<g id="Node000013" class="node">
<title>Node13</title>
<g id="a_Node000013"><a xlink:href="pipes_8c.html#a7a3b0de1a88a243da741f748881e14f0" target="_top" xlink:title="Executes a list of commands connected via pipes.">
<polygon fill="white" stroke="#666666" points="501,-66 420,-66 420,-47 501,-47 501,-66"/>
<text text-anchor="middle" x="460.5" y="-54" font-family="Helvetica,sans-Serif" font-size="10.00">execute_pipe</text>
</a>
</g>
</g>
<!-- Node12&#45;&gt;Node13 -->
<g id="edge13_Node000012_Node000013" class="edge">
<title>Node12&#45;&gt;Node13</title>
<g id="a_edge13_Node000012_Node000013"><a xlink:title=" ">
<path fill="none" stroke="#63b8ff" d="M526.85,-56.5C518.22,-56.5 509.42,-56.5 501.19,-56.5"/>
<polygon fill="#63b8ff" stroke="#63b8ff" points="526.86,-60 536.86,-56.5 526.86,-53 526.86,-60"/>
</a>
</g>
</g>
<!-- Node14 -->
<g id="Node000014" class="node">
<title>Node14</title>
<g id="a_Node000014"><a xlink:href="main__utils_8c.html#ad0183732909ae6e7c52e7b086c2e5642" target="_top" xlink:title="Manages the execution flow of commands with pipes.">
<polygon fill="white" stroke="#666666" points="384,-66 309,-66 309,-47 384,-47 384,-66"/>
<text text-anchor="middle" x="346.5" y="-54" font-family="Helvetica,sans-Serif" font-size="10.00">ft_pipe_flow</text>
</a>
</g>
</g>
<!-- Node13&#45;&gt;Node14 -->
<g id="edge14_Node000013_Node000014" class="edge">
<title>Node13&#45;&gt;Node14</title>
<g id="a_edge14_Node000013_Node000014"><a xlink:title=" ">
<path fill="none" stroke="#63b8ff" d="M409.47,-56.5C400.96,-56.5 392.26,-56.5 384.18,-56.5"/>
<polygon fill="#63b8ff" stroke="#63b8ff" points="409.7,-60 419.7,-56.5 409.7,-53 409.7,-60"/>
</a>
</g>
</g>
<!-- Node14&#45;&gt;Node5 -->
<g id="edge15_Node000014_Node000005" class="edge">
<title>Node14&#45;&gt;Node5</title>
<g id="a_edge15_Node000014_Node000005"><a xlink:title=" ">
<path fill="none" stroke="#63b8ff" d="M298.73,-64.43C290.29,-65.87 281.57,-67.35 273.35,-68.74"/>
<polygon fill="#63b8ff" stroke="#63b8ff" points="299.55,-67.84 308.83,-62.72 298.38,-60.94 299.55,-67.84"/>
</a>
</g>
</g>
<!-- Node15&#45;&gt;Node9 -->
<g id="edge18_Node000015_Node000009" class="edge">
<title>Node15&#45;&gt;Node9</title>
<g id="a_edge18_Node000015_Node000009"><a xlink:title=" ">
<path fill="none" stroke="#63b8ff" d="M1069.04,-22.35C1044.44,-30.79 1013.08,-41.55 992.19,-48.71"/>
<polygon fill="#63b8ff" stroke="#63b8ff" points="1070.45,-25.57 1078.78,-19.01 1068.18,-18.95 1070.45,-25.57"/>
</a>
</g>
</g>
</g>
</svg>
