<?xml version="1.0" encoding="UTF-8" standalone="no"?>
<!DOCTYPE svg PUBLIC "-//W3C//DTD SVG 1.1//EN"
 "http://www.w3.org/Graphics/SVG/1.1/DTD/svg11.dtd">
<!-- Generated by graphviz version 2.43.0 (0)
 -->
<!-- Title: ft_substr Pages: 1 -->
<svg width="165pt" height="138pt"
 viewBox="0.00 0.00 165.00 138.00" xmlns="http://www.w3.org/2000/svg" xmlns:xlink="http://www.w3.org/1999/xlink">
<g id="graph0" class="graph" transform="scale(1 1) rotate(0) translate(4 134)">
<title>ft_substr</title>
<!-- Node1 -->
<g id="Node000001" class="node">
<title>Node1</title>
<g id="a_Node000001"><a xlink:title="Extracts a substring from a given string.">
<polygon fill="#999999" stroke="#666666" points="59,-74 0,-74 0,-55 59,-55 59,-74"/>
<text text-anchor="middle" x="29.5" y="-62" font-family="Helvetica,sans-Serif" font-size="10.00">ft_substr</text>
</a>
</g>
</g>
<!-- Node2 -->
<g id="Node000002" class="node">
<title>Node2</title>
<g id="a_Node000002"><a xlink:href="ft__strdup_8c.html#aebe73f27c70c56ac5053f860ef5436c9" target="_top" xlink:title="Duplicates a null&#45;terminated string by allocating memory.">
<polygon fill="white" stroke="#666666" points="155.5,-130 96.5,-130 96.5,-111 155.5,-111 155.5,-130"/>
<text text-anchor="middle" x="126" y="-118" font-family="Helvetica,sans-Serif" font-size="10.00">ft_strdup</text>
</a>
</g>
</g>
<!-- Node1&#45;&gt;Node2 -->
<g id="edge1_Node000001_Node000002" class="edge">
<title>Node1&#45;&gt;Node2</title>
<g id="a_edge1_Node000001_Node000002"><a xlink:title=" ">
<path fill="none" stroke="#63b8ff" d="M46.96,-74.25C61.6,-82.93 83.21,-95.74 99.98,-105.68"/>
<polygon fill="#63b8ff" stroke="#63b8ff" points="98.34,-108.77 108.73,-110.86 101.91,-102.75 98.34,-108.77"/>
</a>
</g>
</g>
<!-- Node3 -->
<g id="Node000003" class="node">
<title>Node3</title>
<g id="a_Node000003"><a xlink:href="ft__strlcpy_8c.html#aa053827b3a2ea3d0118783d6fb59d178" target="_top" xlink:title="Copies up to size &#45; 1 characters from the string src to dst, null&#45;terminating the result.">
<polygon fill="white" stroke="#666666" points="157,-93 95,-93 95,-74 157,-74 157,-93"/>
<text text-anchor="middle" x="126" y="-81" font-family="Helvetica,sans-Serif" font-size="10.00">ft_strlcpy</text>
</a>
</g>
</g>
<!-- Node1&#45;&gt;Node3 -->
<g id="edge2_Node000001_Node000003" class="edge">
<title>Node1&#45;&gt;Node3</title>
<g id="a_edge2_Node000001_Node000003"><a xlink:title=" ">
<path fill="none" stroke="#63b8ff" d="M59.11,-70.25C67.23,-71.89 76.23,-73.69 84.9,-75.44"/>
<polygon fill="#63b8ff" stroke="#63b8ff" points="84.35,-78.9 94.85,-77.44 85.73,-72.04 84.35,-78.9"/>
</a>
</g>
</g>
<!-- Node4 -->
<g id="Node000004" class="node">
<title>Node4</title>
<g id="a_Node000004"><a xlink:href="ft__strlen_8c.html#a828402378653640f545a4be2e00e92f9" target="_top" xlink:title="Calculates the length of a null&#45;terminated string.">
<polygon fill="white" stroke="#666666" points="154,-56 98,-56 98,-37 154,-37 154,-56"/>
<text text-anchor="middle" x="126" y="-44" font-family="Helvetica,sans-Serif" font-size="10.00">ft_strlen</text>
</a>
</g>
</g>
<!-- Node1&#45;&gt;Node4 -->
<g id="edge3_Node000001_Node000004" class="edge">
<title>Node1&#45;&gt;Node4</title>
<g id="a_edge3_Node000001_Node000004"><a xlink:title=" ">
<path fill="none" stroke="#63b8ff" d="M59.11,-59.05C68.13,-57.33 78.22,-55.41 87.75,-53.6"/>
<polygon fill="#63b8ff" stroke="#63b8ff" points="88.61,-56.99 97.78,-51.68 87.3,-50.12 88.61,-56.99"/>
</a>
</g>
</g>
<!-- Node5 -->
<g id="Node000005" class="node">
<title>Node5</title>
<g id="a_Node000005"><a xlink:href="ft__strlcat_8c.html#a3ab017dd491d7327d1b4acbf1398b91e" target="_top" xlink:title="Returns the length of a null&#45;terminated string.">
<polygon fill="white" stroke="#666666" points="142,-19 110,-19 110,0 142,0 142,-19"/>
<text text-anchor="middle" x="126" y="-7" font-family="Helvetica,sans-Serif" font-size="10.00">len</text>
</a>
</g>
</g>
<!-- Node1&#45;&gt;Node5 -->
<g id="edge4_Node000001_Node000005" class="edge">
<title>Node1&#45;&gt;Node5</title>
<g id="a_edge4_Node000001_Node000005"><a xlink:title=" ">
<path fill="none" stroke="#63b8ff" d="M46.96,-54.92C61.95,-46.19 84.27,-33.21 101.2,-23.35"/>
<polygon fill="#63b8ff" stroke="#63b8ff" points="103.09,-26.3 109.97,-18.25 99.57,-20.25 103.09,-26.3"/>
</a>
</g>
</g>
</g>
</svg>
