<?xml version="1.0" encoding="UTF-8" standalone="no"?>
<!DOCTYPE svg PUBLIC "-//W3C//DTD SVG 1.1//EN"
 "http://www.w3.org/Graphics/SVG/1.1/DTD/svg11.dtd">
<!-- Generated by graphviz version 2.43.0 (0)
 -->
<!-- Title: len Pages: 1 -->
<svg width="1831pt" height="477pt"
 viewBox="0.00 0.00 1831.00 477.00" xmlns="http://www.w3.org/2000/svg" xmlns:xlink="http://www.w3.org/1999/xlink">
<g id="graph0" class="graph" transform="scale(1 1) rotate(0) translate(4 473)">
<title>len</title>
<!-- Node1 -->
<g id="Node000001" class="node">
<title>Node1</title>
<g id="a_Node000001"><a xlink:title="Returns the length of a null&#45;terminated string.">
<polygon fill="#999999" stroke="#666666" points="1823,-187 1791,-187 1791,-168 1823,-168 1823,-187"/>
<text text-anchor="middle" x="1807" y="-175" font-family="Helvetica,sans-Serif" font-size="10.00">len</text>
</a>
</g>
</g>
<!-- Node2 -->
<g id="Node000002" class="node">
<title>Node2</title>
<g id="a_Node000002"><a xlink:href="unset_8c.html#a6a5b46a0f90a47ceea95d80b8605ad87" target="_top" xlink:title="Removes a variable from the environment.">
<polygon fill="white" stroke="#666666" points="1336.5,-243 1256.5,-243 1256.5,-224 1336.5,-224 1336.5,-243"/>
<text text-anchor="middle" x="1296.5" y="-231" font-family="Helvetica,sans-Serif" font-size="10.00">ft_delete_var</text>
</a>
</g>
</g>
<!-- Node1&#45;&gt;Node2 -->
<g id="edge1_Node000001_Node000002" class="edge">
<title>Node1&#45;&gt;Node2</title>
<g id="a_edge1_Node000001_Node000002"><a xlink:title=" ">
<path fill="none" stroke="#63b8ff" d="M1789.26,-194.05C1779.98,-202.1 1767.75,-210.99 1755,-215.5 1607.93,-267.5 1417.48,-250.35 1336.6,-239.51"/>
<polygon fill="#63b8ff" stroke="#63b8ff" points="1791.89,-196.38 1796.89,-187.04 1787.16,-191.23 1791.89,-196.38"/>
</a>
</g>
</g>
<!-- Node14 -->
<g id="Node000014" class="node">
<title>Node14</title>
<g id="a_Node000014"><a xlink:href="utils__export__unset_8c.html#ae98ae22050772236584199cd8f27783d" target="_top" xlink:title="Searches for a variable to export in the environment.">
<polygon fill="white" stroke="#666666" points="1755,-206 1651,-206 1651,-187 1755,-187 1755,-206"/>
<text text-anchor="middle" x="1703" y="-194" font-family="Helvetica,sans-Serif" font-size="10.00">ft_find_export_var</text>
</a>
</g>
</g>
<!-- Node1&#45;&gt;Node14 -->
<g id="edge14_Node000001_Node000014" class="edge">
<title>Node1&#45;&gt;Node14</title>
<g id="a_edge14_Node000001_Node000014"><a xlink:title=" ">
<path fill="none" stroke="#63b8ff" d="M1780.99,-182.16C1773.1,-183.63 1764.07,-185.31 1755.04,-186.99"/>
<polygon fill="#63b8ff" stroke="#63b8ff" points="1781.76,-185.58 1790.95,-180.3 1780.48,-178.69 1781.76,-185.58"/>
</a>
</g>
</g>
<!-- Node18 -->
<g id="Node000018" class="node">
<title>Node18</title>
<g id="a_Node000018"><a xlink:href="ft__itoa_8c.html#a8a6ea3765dfd826eabfc00d36e28ea38" target="_top" xlink:title="Converts an integer to a null&#45;terminated string.">
<polygon fill="white" stroke="#666666" points="1595.5,-469 1548.5,-469 1548.5,-450 1595.5,-450 1595.5,-469"/>
<text text-anchor="middle" x="1572" y="-457" font-family="Helvetica,sans-Serif" font-size="10.00">ft_itoa</text>
</a>
</g>
</g>
<!-- Node1&#45;&gt;Node18 -->
<g id="edge20_Node000001_Node000018" class="edge">
<title>Node1&#45;&gt;Node18</title>
<g id="a_edge20_Node000001_Node000018"><a xlink:title=" ">
<path fill="none" stroke="#63b8ff" d="M1803.96,-197.09C1799.75,-229.29 1787.59,-294.13 1755,-337.5 1712.04,-394.67 1634.02,-433.67 1595.61,-450.35"/>
<polygon fill="#63b8ff" stroke="#63b8ff" points="1807.43,-197.5 1805.14,-187.15 1800.48,-196.67 1807.43,-197.5"/>
</a>
</g>
</g>
<!-- Node22 -->
<g id="Node000022" class="node">
<title>Node22</title>
<g id="a_Node000022"><a xlink:href="ft__strlcat_8c.html#a5ec5cb64412b189edcc4c4bd56183f54" target="_top" xlink:title="Concatenates &#39;src&#39; to the end of &#39;dst&#39; with size limit.">
<polygon fill="white" stroke="#666666" points="1732.5,-169 1673.5,-169 1673.5,-150 1732.5,-150 1732.5,-169"/>
<text text-anchor="middle" x="1703" y="-157" font-family="Helvetica,sans-Serif" font-size="10.00">ft_strlcat</text>
</a>
</g>
</g>
<!-- Node1&#45;&gt;Node22 -->
<g id="edge25_Node000001_Node000022" class="edge">
<title>Node1&#45;&gt;Node22</title>
<g id="a_edge25_Node000001_Node000022"><a xlink:title=" ">
<path fill="none" stroke="#63b8ff" d="M1781.09,-173.1C1766.45,-170.52 1747.88,-167.24 1732.64,-164.55"/>
<polygon fill="#63b8ff" stroke="#63b8ff" points="1780.49,-176.55 1790.95,-174.84 1781.71,-169.66 1780.49,-176.55"/>
</a>
</g>
</g>
<!-- Node23 -->
<g id="Node000023" class="node">
<title>Node23</title>
<g id="a_Node000023"><a xlink:href="ft__strmapi_8c.html#a668b60557bfc9d60c2d3ccda8afadf49" target="_top" xlink:title="Creates a new string by applying a function to each character of the input string.">
<polygon fill="white" stroke="#666666" points="1736,-132 1670,-132 1670,-113 1736,-113 1736,-132"/>
<text text-anchor="middle" x="1703" y="-120" font-family="Helvetica,sans-Serif" font-size="10.00">ft_strmapi</text>
</a>
</g>
</g>
<!-- Node1&#45;&gt;Node23 -->
<g id="edge26_Node000001_Node000023" class="edge">
<title>Node1&#45;&gt;Node23</title>
<g id="a_edge26_Node000001_Node000023"><a xlink:title=" ">
<path fill="none" stroke="#63b8ff" d="M1786.34,-161.82C1777.17,-154.99 1765.9,-147.25 1755,-141.5 1748.32,-137.97 1740.83,-134.79 1733.69,-132.09"/>
<polygon fill="#63b8ff" stroke="#63b8ff" points="1784.34,-164.7 1794.4,-168 1788.59,-159.14 1784.34,-164.7"/>
</a>
</g>
</g>
<!-- Node24 -->
<g id="Node000024" class="node">
<title>Node24</title>
<g id="a_Node000024"><a xlink:href="ft__strnstr_8c.html#a14b236fa10c117b080df2de058d2078d" target="_top" xlink:title="Locates the first occurrence of the substring little in the string big, searching only up to len char...">
<polygon fill="white" stroke="#666666" points="1733,-95 1673,-95 1673,-76 1733,-76 1733,-95"/>
<text text-anchor="middle" x="1703" y="-83" font-family="Helvetica,sans-Serif" font-size="10.00">ft_strnstr</text>
</a>
</g>
</g>
<!-- Node1&#45;&gt;Node24 -->
<g id="edge27_Node000001_Node000024" class="edge">
<title>Node1&#45;&gt;Node24</title>
<g id="a_edge27_Node000001_Node000024"><a xlink:title=" ">
<path fill="none" stroke="#63b8ff" d="M1796.85,-158.39C1788.15,-142.04 1773.63,-118.92 1755,-104.5 1748.57,-99.53 1740.71,-95.75 1733.1,-92.93"/>
<polygon fill="#63b8ff" stroke="#63b8ff" points="1793.86,-160.22 1801.5,-167.56 1800.1,-157.06 1793.86,-160.22"/>
</a>
</g>
</g>
<!-- Node25 -->
<g id="Node000025" class="node">
<title>Node25</title>
<g id="a_Node000025"><a xlink:href="ft__strtrim_8c.html#a60352c5b39fab08469b3e28131a79e25" target="_top" xlink:title="Trims characters from the start and end of a string.">
<polygon fill="white" stroke="#666666" points="1603,-38 1541,-38 1541,-19 1603,-19 1603,-38"/>
<text text-anchor="middle" x="1572" y="-26" font-family="Helvetica,sans-Serif" font-size="10.00">ft_strtrim</text>
</a>
</g>
</g>
<!-- Node1&#45;&gt;Node25 -->
<g id="edge28_Node000001_Node000025" class="edge">
<title>Node1&#45;&gt;Node25</title>
<g id="a_edge28_Node000001_Node000025"><a xlink:title=" ">
<path fill="none" stroke="#63b8ff" d="M1802.56,-157.8C1797.08,-132.62 1783.89,-89.53 1755,-66.5 1710.95,-31.39 1642.39,-26.49 1603.2,-26.93"/>
<polygon fill="#63b8ff" stroke="#63b8ff" points="1799.14,-158.55 1804.51,-167.68 1806,-157.2 1799.14,-158.55"/>
</a>
</g>
</g>
<!-- Node26 -->
<g id="Node000026" class="node">
<title>Node26</title>
<g id="a_Node000026"><a xlink:href="ft__substr_8c.html#a78c402cbf3d55b1374693c3b7d34f71d" target="_top" xlink:title="Extracts a substring from a given string.">
<polygon fill="white" stroke="#666666" points="1732.5,-328 1673.5,-328 1673.5,-309 1732.5,-309 1732.5,-328"/>
<text text-anchor="middle" x="1703" y="-316" font-family="Helvetica,sans-Serif" font-size="10.00">ft_substr</text>
</a>
</g>
</g>
<!-- Node1&#45;&gt;Node26 -->
<g id="edge29_Node000001_Node000026" class="edge">
<title>Node1&#45;&gt;Node26</title>
<g id="a_edge29_Node000001_Node000026"><a xlink:title=" ">
<path fill="none" stroke="#63b8ff" d="M1793.04,-195.61C1782.75,-209.97 1767.99,-230.55 1755,-248.5 1739.49,-269.94 1721.2,-294.99 1711.28,-308.55"/>
<polygon fill="#63b8ff" stroke="#63b8ff" points="1796.12,-197.33 1799.09,-187.16 1790.42,-193.25 1796.12,-197.33"/>
</a>
</g>
</g>
<!-- Node43 -->
<g id="Node000043" class="node">
<title>Node43</title>
<g id="a_Node000043"><a xlink:href="ft__itoa_8c.html#ad01d7565914b3df7a4348fbeba72841b" target="_top" xlink:title="Calculates the number of characters needed to represent an integer as a string.">
<polygon fill="white" stroke="#666666" points="1729.5,-459 1676.5,-459 1676.5,-440 1729.5,-440 1729.5,-459"/>
<text text-anchor="middle" x="1703" y="-447" font-family="Helvetica,sans-Serif" font-size="10.00">get_len</text>
</a>
</g>
</g>
<!-- Node1&#45;&gt;Node43 -->
<g id="edge54_Node000001_Node000043" class="edge">
<title>Node1&#45;&gt;Node43</title>
<g id="a_edge54_Node000001_Node000043"><a xlink:title=" ">
<path fill="none" stroke="#63b8ff" d="M1805.84,-197.29C1804.65,-239.2 1797.21,-338.66 1755,-407.5 1746.61,-421.19 1732.14,-432.47 1720.75,-439.88"/>
<polygon fill="#63b8ff" stroke="#63b8ff" points="1809.34,-197.14 1806.04,-187.07 1802.35,-197.01 1809.34,-197.14"/>
</a>
</g>
</g>
<!-- Node44 -->
<g id="Node000044" class="node">
<title>Node44</title>
<g id="a_Node000044"><a xlink:href="ft__strtrim_8c.html#a71d563401eb940329d5dd4c7c3fbdd35" target="_top" xlink:title=" ">
<polygon fill="white" stroke="#666666" points="1733,-19 1673,-19 1673,0 1733,0 1733,-19"/>
<text text-anchor="middle" x="1703" y="-7" font-family="Helvetica,sans-Serif" font-size="10.00">tft_strlen</text>
</a>
</g>
</g>
<!-- Node1&#45;&gt;Node44 -->
<g id="edge56_Node000001_Node000044" class="edge">
<title>Node1&#45;&gt;Node44</title>
<g id="a_edge56_Node000001_Node000044"><a xlink:title=" ">
<path fill="none" stroke="#63b8ff" d="M1803.85,-157.66C1799.59,-127.39 1787.51,-69.42 1755,-33.5 1749.09,-26.97 1741.03,-22.07 1733.07,-18.45"/>
<polygon fill="#63b8ff" stroke="#63b8ff" points="1800.4,-158.32 1805.12,-167.8 1807.35,-157.44 1800.4,-158.32"/>
</a>
</g>
</g>
<!-- Node3 -->
<g id="Node000003" class="node">
<title>Node3</title>
<g id="a_Node000003"><a xlink:href="unset_8c.html#aabf1b9c17103a2c429513f9b4c84bccd" target="_top" xlink:title="Executes the unset operation on a single argument.">
<polygon fill="white" stroke="#666666" points="1192,-280 1126,-280 1126,-261 1192,-261 1192,-280"/>
<text text-anchor="middle" x="1159" y="-268" font-family="Helvetica,sans-Serif" font-size="10.00">exe_unset</text>
</a>
</g>
</g>
<!-- Node2&#45;&gt;Node3 -->
<g id="edge2_Node000002_Node000003" class="edge">
<title>Node2&#45;&gt;Node3</title>
<g id="a_edge2_Node000002_Node000003"><a xlink:title=" ">
<path fill="none" stroke="#63b8ff" d="M1250.92,-245.67C1231.83,-250.89 1209.96,-256.86 1192.45,-261.64"/>
<polygon fill="#63b8ff" stroke="#63b8ff" points="1251.88,-249.04 1260.61,-243.03 1250.04,-242.29 1251.88,-249.04"/>
</a>
</g>
</g>
<!-- Node4 -->
<g id="Node000004" class="node">
<title>Node4</title>
<g id="a_Node000004"><a xlink:href="unset_8c.html#afc37f76bba8f618bcf9eaafa7ee23618" target="_top" xlink:title="Builtin function for the unset command.">
<polygon fill="white" stroke="#666666" points="1059,-280 1003,-280 1003,-261 1059,-261 1059,-280"/>
<text text-anchor="middle" x="1031" y="-268" font-family="Helvetica,sans-Serif" font-size="10.00">ft_unset</text>
</a>
</g>
</g>
<!-- Node3&#45;&gt;Node4 -->
<g id="edge3_Node000003_Node000004" class="edge">
<title>Node3&#45;&gt;Node4</title>
<g id="a_edge3_Node000003_Node000004"><a xlink:title=" ">
<path fill="none" stroke="#63b8ff" d="M1115.86,-270.5C1097.24,-270.5 1075.87,-270.5 1059.37,-270.5"/>
<polygon fill="#63b8ff" stroke="#63b8ff" points="1115.88,-274 1125.88,-270.5 1115.88,-267 1115.88,-274"/>
</a>
</g>
</g>
<!-- Node5 -->
<g id="Node000005" class="node">
<title>Node5</title>
<g id="a_Node000005"><a xlink:href="cmd__execution_8c.html#a5ce7231f800cbacea6350cc1a32a59bd" target="_top" xlink:title="Executes a list of non&#45;pipelined commands.">
<polygon fill="white" stroke="#666666" points="924.5,-243 852.5,-243 852.5,-224 924.5,-224 924.5,-243"/>
<text text-anchor="middle" x="888.5" y="-231" font-family="Helvetica,sans-Serif" font-size="10.00">ft_exe_cmd</text>
</a>
</g>
</g>
<!-- Node4&#45;&gt;Node5 -->
<g id="edge4_Node000004_Node000005" class="edge">
<title>Node4&#45;&gt;Node5</title>
<g id="a_edge4_Node000004_Node000005"><a xlink:title=" ">
<path fill="none" stroke="#63b8ff" d="M992.97,-260.75C971.78,-255.17 945.35,-248.21 924.5,-242.72"/>
<polygon fill="#63b8ff" stroke="#63b8ff" points="992.35,-264.2 1002.91,-263.37 994.13,-257.43 992.35,-264.2"/>
</a>
</g>
</g>
<!-- Node9 -->
<g id="Node000009" class="node">
<title>Node9</title>
<g id="a_Node000009"><a xlink:href="cmd__execution_8c.html#a50e59fa2e4621831a415d4038f697c56" target="_top" xlink:title="Executes a command within a pipeline.">
<polygon fill="white" stroke="#666666" points="937.5,-280 839.5,-280 839.5,-261 937.5,-261 937.5,-280"/>
<text text-anchor="middle" x="888.5" y="-268" font-family="Helvetica,sans-Serif" font-size="10.00">ft_exe_pipe_cmd</text>
</a>
</g>
</g>
<!-- Node4&#45;&gt;Node9 -->
<g id="edge8_Node000004_Node000009" class="edge">
<title>Node4&#45;&gt;Node9</title>
<g id="a_edge8_Node000004_Node000009"><a xlink:title=" ">
<path fill="none" stroke="#63b8ff" d="M992.84,-270.5C975.9,-270.5 955.64,-270.5 937.56,-270.5"/>
<polygon fill="#63b8ff" stroke="#63b8ff" points="992.91,-274 1002.91,-270.5 992.91,-267 992.91,-274"/>
</a>
</g>
</g>
<!-- Node6 -->
<g id="Node000006" class="node">
<title>Node6</title>
<g id="a_Node000006"><a xlink:href="main__utils_8c.html#a7e8f478480ab6ab34d6f5eadaf6acdb9" target="_top" xlink:title="Handles parsing and execution of tokens.">
<polygon fill="white" stroke="#666666" points="273,-300 192,-300 192,-281 273,-281 273,-300"/>
<text text-anchor="middle" x="232.5" y="-288" font-family="Helvetica,sans-Serif" font-size="10.00">ft_token_flow</text>
</a>
</g>
</g>
<!-- Node5&#45;&gt;Node6 -->
<g id="edge5_Node000005_Node000006" class="edge">
<title>Node5&#45;&gt;Node6</title>
<g id="a_edge5_Node000005_Node000006"><a xlink:title=" ">
<path fill="none" stroke="#63b8ff" d="M842.11,-233.5C784.02,-233.5 680.27,-233.5 591.5,-233.5 591.5,-233.5 591.5,-233.5 459.5,-233.5 392.02,-233.5 373.58,-233.95 309,-253.5 287.21,-260.1 263.94,-272.39 249.08,-280.99"/>
<polygon fill="#63b8ff" stroke="#63b8ff" points="842.41,-237 852.41,-233.5 842.41,-230 842.41,-237"/>
</a>
</g>
</g>
<!-- Node7 -->
<g id="Node000007" class="node">
<title>Node7</title>
<g id="a_Node000007"><a xlink:href="main__utils_8c.html#ae35edfb8f1339d6f77f53c28eb2a2ed6" target="_top" xlink:title="Handles a complete cycle of input → parsing → execution.">
<polygon fill="white" stroke="#666666" points="156,-300 77,-300 77,-281 156,-281 156,-300"/>
<text text-anchor="middle" x="116.5" y="-288" font-family="Helvetica,sans-Serif" font-size="10.00">ft_main_flow</text>
</a>
</g>
</g>
<!-- Node6&#45;&gt;Node7 -->
<g id="edge6_Node000006_Node000007" class="edge">
<title>Node6&#45;&gt;Node7</title>
<g id="a_edge6_Node000006_Node000007"><a xlink:title=" ">
<path fill="none" stroke="#63b8ff" d="M181.7,-290.5C173.16,-290.5 164.4,-290.5 156.21,-290.5"/>
<polygon fill="#63b8ff" stroke="#63b8ff" points="181.95,-294 191.95,-290.5 181.95,-287 181.95,-294"/>
</a>
</g>
</g>
<!-- Node8 -->
<g id="Node000008" class="node">
<title>Node8</title>
<g id="a_Node000008"><a xlink:href="main_8c.html#ab3862b46d6a8d13c2d884a297e6b05b5" target="_top" xlink:title="Main function of the minishell.">
<polygon fill="white" stroke="#666666" points="41,-300 0,-300 0,-281 41,-281 41,-300"/>
<text text-anchor="middle" x="20.5" y="-288" font-family="Helvetica,sans-Serif" font-size="10.00">main</text>
</a>
</g>
</g>
<!-- Node7&#45;&gt;Node8 -->
<g id="edge7_Node000007_Node000008" class="edge">
<title>Node7&#45;&gt;Node8</title>
<g id="a_edge7_Node000007_Node000008"><a xlink:title=" ">
<path fill="none" stroke="#63b8ff" d="M66.74,-290.5C57.62,-290.5 48.59,-290.5 41.03,-290.5"/>
<polygon fill="#63b8ff" stroke="#63b8ff" points="67,-294 77,-290.5 67,-287 67,-294"/>
</a>
</g>
</g>
<!-- Node10 -->
<g id="Node000010" class="node">
<title>Node10</title>
<g id="a_Node000010"><a xlink:href="pipes_8c.html#a36a2d91a0566ad253efe3833b05e69d1" target="_top" xlink:title="Routine executed by the child process for each command in the pipe.">
<polygon fill="white" stroke="#666666" points="782.5,-281 690.5,-281 690.5,-262 782.5,-262 782.5,-281"/>
<text text-anchor="middle" x="736.5" y="-269" font-family="Helvetica,sans-Serif" font-size="10.00">ft_child_routine</text>
</a>
</g>
</g>
<!-- Node9&#45;&gt;Node10 -->
<g id="edge9_Node000009_Node000010" class="edge">
<title>Node9&#45;&gt;Node10</title>
<g id="a_edge9_Node000009_Node000010"><a xlink:title=" ">
<path fill="none" stroke="#63b8ff" d="M828.78,-270.89C813.44,-270.99 797.15,-271.1 782.64,-271.2"/>
<polygon fill="#63b8ff" stroke="#63b8ff" points="829.24,-274.39 839.21,-270.82 829.19,-267.39 829.24,-274.39"/>
</a>
</g>
</g>
<!-- Node11 -->
<g id="Node000011" class="node">
<title>Node11</title>
<g id="a_Node000011"><a xlink:href="pipes_8c.html#aa17e847997e7266a0a111ab3572756bb" target="_top" xlink:title="Manages pipe creation and fork to execute the current command.">
<polygon fill="white" stroke="#666666" points="635,-281 546,-281 546,-262 635,-262 635,-281"/>
<text text-anchor="middle" x="590.5" y="-269" font-family="Helvetica,sans-Serif" font-size="10.00">ft_pipe_routine</text>
</a>
</g>
</g>
<!-- Node10&#45;&gt;Node11 -->
<g id="edge10_Node000010_Node000011" class="edge">
<title>Node10&#45;&gt;Node11</title>
<g id="a_edge10_Node000010_Node000011"><a xlink:title=" ">
<path fill="none" stroke="#63b8ff" d="M680.17,-271.5C665.21,-271.5 649.24,-271.5 635.03,-271.5"/>
<polygon fill="#63b8ff" stroke="#63b8ff" points="680.33,-275 690.33,-271.5 680.33,-268 680.33,-275"/>
</a>
</g>
</g>
<!-- Node12 -->
<g id="Node000012" class="node">
<title>Node12</title>
<g id="a_Node000012"><a xlink:href="pipes_8c.html#a7a3b0de1a88a243da741f748881e14f0" target="_top" xlink:title="Executes a list of commands connected via pipes.">
<polygon fill="white" stroke="#666666" points="501,-281 420,-281 420,-262 501,-262 501,-281"/>
<text text-anchor="middle" x="460.5" y="-269" font-family="Helvetica,sans-Serif" font-size="10.00">execute_pipe</text>
</a>
</g>
</g>
<!-- Node11&#45;&gt;Node12 -->
<g id="edge11_Node000011_Node000012" class="edge">
<title>Node11&#45;&gt;Node12</title>
<g id="a_edge11_Node000011_Node000012"><a xlink:title=" ">
<path fill="none" stroke="#63b8ff" d="M535.76,-271.5C524.15,-271.5 512.08,-271.5 501.13,-271.5"/>
<polygon fill="#63b8ff" stroke="#63b8ff" points="535.81,-275 545.81,-271.5 535.81,-268 535.81,-275"/>
</a>
</g>
</g>
<!-- Node13 -->
<g id="Node000013" class="node">
<title>Node13</title>
<g id="a_Node000013"><a xlink:href="main__utils_8c.html#ad0183732909ae6e7c52e7b086c2e5642" target="_top" xlink:title="Manages the execution flow of commands with pipes.">
<polygon fill="white" stroke="#666666" points="384,-281 309,-281 309,-262 384,-262 384,-281"/>
<text text-anchor="middle" x="346.5" y="-269" font-family="Helvetica,sans-Serif" font-size="10.00">ft_pipe_flow</text>
</a>
</g>
</g>
<!-- Node12&#45;&gt;Node13 -->
<g id="edge12_Node000012_Node000013" class="edge">
<title>Node12&#45;&gt;Node13</title>
<g id="a_edge12_Node000012_Node000013"><a xlink:title=" ">
<path fill="none" stroke="#63b8ff" d="M409.47,-271.5C400.96,-271.5 392.26,-271.5 384.18,-271.5"/>
<polygon fill="#63b8ff" stroke="#63b8ff" points="409.7,-275 419.7,-271.5 409.7,-268 409.7,-275"/>
</a>
</g>
</g>
<!-- Node13&#45;&gt;Node6 -->
<g id="edge13_Node000013_Node000006" class="edge">
<title>Node13&#45;&gt;Node6</title>
<g id="a_edge13_Node000013_Node000006"><a xlink:title=" ">
<path fill="none" stroke="#63b8ff" d="M298.73,-279.43C290.29,-280.87 281.57,-282.35 273.35,-283.74"/>
<polygon fill="#63b8ff" stroke="#63b8ff" points="299.55,-282.84 308.83,-277.72 298.38,-275.94 299.55,-282.84"/>
</a>
</g>
</g>
<!-- Node15 -->
<g id="Node000015" class="node">
<title>Node15</title>
<g id="a_Node000015"><a xlink:href="export_8c.html#aa1462300aee0c9091833b58ece6c6506" target="_top" xlink:title="Executes export on a single argument.">
<polygon fill="white" stroke="#666666" points="1482.5,-206 1399.5,-206 1399.5,-187 1482.5,-187 1482.5,-206"/>
<text text-anchor="middle" x="1441" y="-194" font-family="Helvetica,sans-Serif" font-size="10.00">ft_exe_export</text>
</a>
</g>
</g>
<!-- Node14&#45;&gt;Node15 -->
<g id="edge15_Node000014_Node000015" class="edge">
<title>Node14&#45;&gt;Node15</title>
<g id="a_edge15_Node000014_Node000015"><a xlink:title=" ">
<path fill="none" stroke="#63b8ff" d="M1640.83,-196.5C1592.05,-196.5 1525.11,-196.5 1482.7,-196.5"/>
<polygon fill="#63b8ff" stroke="#63b8ff" points="1640.94,-200 1650.94,-196.5 1640.94,-193 1640.94,-200"/>
</a>
</g>
</g>
<!-- Node16 -->
<g id="Node000016" class="node">
<title>Node16</title>
<g id="a_Node000016"><a xlink:href="export_8c.html#a962491ce27455342a86cefa998c352fd" target="_top" xlink:title="Handles the export command with arguments.">
<polygon fill="white" stroke="#666666" points="1353,-206 1240,-206 1240,-187 1353,-187 1353,-206"/>
<text text-anchor="middle" x="1296.5" y="-194" font-family="Helvetica,sans-Serif" font-size="10.00">ft_export_with_args</text>
</a>
</g>
</g>
<!-- Node15&#45;&gt;Node16 -->
<g id="edge16_Node000015_Node000016" class="edge">
<title>Node15&#45;&gt;Node16</title>
<g id="a_edge16_Node000015_Node000016"><a xlink:title=" ">
<path fill="none" stroke="#63b8ff" d="M1389.16,-196.5C1377.51,-196.5 1365.06,-196.5 1353.21,-196.5"/>
<polygon fill="#63b8ff" stroke="#63b8ff" points="1389.17,-200 1399.17,-196.5 1389.17,-193 1389.17,-200"/>
</a>
</g>
</g>
<!-- Node17 -->
<g id="Node000017" class="node">
<title>Node17</title>
<g id="a_Node000017"><a xlink:href="export_8c.html#a2b0f2ba2e9188c7b4f6ca5a44c1d0c8e" target="_top" xlink:title="Builtin function for the export command.">
<polygon fill="white" stroke="#666666" points="1061,-243 1001,-243 1001,-224 1061,-224 1061,-243"/>
<text text-anchor="middle" x="1031" y="-231" font-family="Helvetica,sans-Serif" font-size="10.00">ft_export</text>
</a>
</g>
</g>
<!-- Node16&#45;&gt;Node17 -->
<g id="edge17_Node000016_Node000017" class="edge">
<title>Node16&#45;&gt;Node17</title>
<g id="a_edge17_Node000016_Node000017"><a xlink:title=" ">
<path fill="none" stroke="#63b8ff" d="M1229.73,-205.73C1175.58,-213.34 1101.36,-223.76 1061.01,-229.43"/>
<polygon fill="#63b8ff" stroke="#63b8ff" points="1230.52,-209.16 1239.94,-204.3 1229.55,-202.23 1230.52,-209.16"/>
</a>
</g>
</g>
<!-- Node17&#45;&gt;Node5 -->
<g id="edge18_Node000017_Node000005" class="edge">
<title>Node17&#45;&gt;Node5</title>
<g id="a_edge18_Node000017_Node000005"><a xlink:title=" ">
<path fill="none" stroke="#63b8ff" d="M990.79,-233.5C970,-233.5 944.67,-233.5 924.54,-233.5"/>
<polygon fill="#63b8ff" stroke="#63b8ff" points="990.89,-237 1000.89,-233.5 990.89,-230 990.89,-237"/>
</a>
</g>
</g>
<!-- Node17&#45;&gt;Node9 -->
<g id="edge19_Node000017_Node000009" class="edge">
<title>Node17&#45;&gt;Node9</title>
<g id="a_edge19_Node000017_Node000009"><a xlink:title=" ">
<path fill="none" stroke="#63b8ff" d="M990.98,-243.78C970.59,-249.14 945.8,-255.67 925.83,-260.93"/>
<polygon fill="#63b8ff" stroke="#63b8ff" points="992.11,-247.1 1000.89,-241.17 990.33,-240.33 992.11,-247.1"/>
</a>
</g>
</g>
<!-- Node19 -->
<g id="Node000019" class="node">
<title>Node19</title>
<g id="a_Node000019"><a xlink:href="create__command__list_8c.html#a6823bdba32af9d583d3b6ad55969f4e7" target="_top" xlink:title="Expands the exit status variable $? in a string.">
<polygon fill="white" stroke="#666666" points="1490,-433 1392,-433 1392,-414 1490,-414 1490,-433"/>
<text text-anchor="middle" x="1441" y="-421" font-family="Helvetica,sans-Serif" font-size="10.00">ft_estatus_to_str</text>
</a>
</g>
</g>
<!-- Node18&#45;&gt;Node19 -->
<g id="edge21_Node000018_Node000019" class="edge">
<title>Node18&#45;&gt;Node19</title>
<g id="a_edge21_Node000018_Node000019"><a xlink:title=" ">
<path fill="none" stroke="#63b8ff" d="M1538.52,-450.43C1519.49,-445.13 1495.49,-438.43 1476.18,-433.04"/>
<polygon fill="#63b8ff" stroke="#63b8ff" points="1537.66,-453.83 1548.23,-453.15 1539.54,-447.09 1537.66,-453.83"/>
</a>
</g>
</g>
<!-- Node20 -->
<g id="Node000020" class="node">
<title>Node20</title>
<g id="a_Node000020"><a xlink:href="create__command__list_8c.html#a9fb2e7501277f2f93e5c7042fec32429" target="_top" xlink:title="Adds an argument to the command’s argument list.">
<polygon fill="white" stroke="#666666" points="1327,-433 1266,-433 1266,-414 1327,-414 1327,-433"/>
<text text-anchor="middle" x="1296.5" y="-421" font-family="Helvetica,sans-Serif" font-size="10.00">add_args</text>
</a>
</g>
</g>
<!-- Node19&#45;&gt;Node20 -->
<g id="edge22_Node000019_Node000020" class="edge">
<title>Node19&#45;&gt;Node20</title>
<g id="a_edge22_Node000019_Node000020"><a xlink:title=" ">
<path fill="none" stroke="#63b8ff" d="M1381.57,-423.5C1362.96,-423.5 1343.14,-423.5 1327.42,-423.5"/>
<polygon fill="#63b8ff" stroke="#63b8ff" points="1381.76,-427 1391.76,-423.5 1381.76,-420 1381.76,-427"/>
</a>
</g>
</g>
<!-- Node21 -->
<g id="Node000021" class="node">
<title>Node21</title>
<g id="a_Node000021"><a xlink:href="create__command__list_8c.html#ad16d74756b107a98677124008c71d23b" target="_top" xlink:title="Creates a command list from tokens.">
<polygon fill="white" stroke="#666666" points="380.5,-376 312.5,-376 312.5,-357 380.5,-357 380.5,-376"/>
<text text-anchor="middle" x="346.5" y="-364" font-family="Helvetica,sans-Serif" font-size="10.00">create_list</text>
</a>
</g>
</g>
<!-- Node20&#45;&gt;Node21 -->
<g id="edge23_Node000020_Node000021" class="edge">
<title>Node20&#45;&gt;Node21</title>
<g id="a_edge23_Node000020_Node000021"><a xlink:title=" ">
<path fill="none" stroke="#63b8ff" d="M1255.82,-421.79C1204.25,-419.72 1111.42,-416.5 1032,-416.5 1032,-416.5 1032,-416.5 589.5,-416.5 510.35,-416.5 419.59,-390.53 375.06,-376.02"/>
<polygon fill="#63b8ff" stroke="#63b8ff" points="1255.73,-425.29 1265.87,-422.2 1256.02,-418.29 1255.73,-425.29"/>
</a>
</g>
</g>
<!-- Node21&#45;&gt;Node6 -->
<g id="edge24_Node000021_Node000006" class="edge">
<title>Node21&#45;&gt;Node6</title>
<g id="a_edge24_Node000021_Node000006"><a xlink:title=" ">
<path fill="none" stroke="#63b8ff" d="M323.01,-351.24C300.49,-335.96 266.53,-312.91 247.57,-300.05"/>
<polygon fill="#63b8ff" stroke="#63b8ff" points="321.08,-354.16 331.32,-356.87 325.01,-348.36 321.08,-354.16"/>
</a>
</g>
</g>
<!-- Node26&#45;&gt;Node19 -->
<g id="edge30_Node000026_Node000019" class="edge">
<title>Node26&#45;&gt;Node19</title>
<g id="a_edge30_Node000026_Node000019"><a xlink:title=" ">
<path fill="none" stroke="#63b8ff" d="M1689.34,-336.3C1674.16,-356.14 1646.73,-387.4 1615,-402.5 1575.8,-421.16 1526.19,-425.5 1490.15,-425.71"/>
<polygon fill="#63b8ff" stroke="#63b8ff" points="1692.29,-338.21 1695.43,-328.09 1686.67,-334.04 1692.29,-338.21"/>
</a>
</g>
</g>
<!-- Node27 -->
<g id="Node000027" class="node">
<title>Node27</title>
<g id="a_Node000027"><a xlink:href="utils__env_8c.html#a4ea711c91d64ff7669bf6ac7e6b6b9dd" target="_top" xlink:title="Expands an environment variable found in a string.">
<polygon fill="white" stroke="#666666" points="1604.5,-319 1539.5,-319 1539.5,-300 1604.5,-300 1604.5,-319"/>
<text text-anchor="middle" x="1572" y="-307" font-family="Helvetica,sans-Serif" font-size="10.00">ft_expand</text>
</a>
</g>
</g>
<!-- Node26&#45;&gt;Node27 -->
<g id="edge31_Node000026_Node000027" class="edge">
<title>Node26&#45;&gt;Node27</title>
<g id="a_edge31_Node000026_Node000027"><a xlink:title=" ">
<path fill="none" stroke="#63b8ff" d="M1663.38,-315.81C1644.65,-314.5 1622.44,-312.95 1604.72,-311.71"/>
<polygon fill="#63b8ff" stroke="#63b8ff" points="1663.15,-319.3 1673.37,-316.5 1663.64,-312.32 1663.15,-319.3"/>
</a>
</g>
</g>
<!-- Node37 -->
<g id="Node000037" class="node">
<title>Node37</title>
<g id="a_Node000037"><a xlink:href="get__next__line_8c.html#a253f107325777771467d4b92d8ad0def" target="_top" xlink:title=" ">
<polygon fill="white" stroke="#666666" points="1603.5,-393 1540.5,-393 1540.5,-374 1603.5,-374 1603.5,-393"/>
<text text-anchor="middle" x="1572" y="-381" font-family="Helvetica,sans-Serif" font-size="10.00">ft_getrest</text>
</a>
</g>
</g>
<!-- Node26&#45;&gt;Node37 -->
<g id="edge44_Node000026_Node000037" class="edge">
<title>Node26&#45;&gt;Node37</title>
<g id="a_edge44_Node000026_Node000037"><a xlink:title=" ">
<path fill="none" stroke="#63b8ff" d="M1676.37,-333.14C1659.21,-342.74 1636,-355.35 1615,-365.5 1609,-368.4 1602.42,-371.33 1596.28,-373.97"/>
<polygon fill="#63b8ff" stroke="#63b8ff" points="1678.24,-336.1 1685.23,-328.15 1674.8,-330 1678.24,-336.1"/>
</a>
</g>
</g>
<!-- Node39 -->
<g id="Node000039" class="node">
<title>Node39</title>
<g id="a_Node000039"><a xlink:href="utils__env_8c.html#a3323d2c2586349772b23a3eaf1a241c3" target="_top" xlink:title="Concatenates a literal part (non&#45;variable) of the string to the result.">
<polygon fill="white" stroke="#666666" points="1611,-356 1533,-356 1533,-337 1611,-337 1611,-356"/>
<text text-anchor="middle" x="1572" y="-344" font-family="Helvetica,sans-Serif" font-size="10.00">ft_merge_str</text>
</a>
</g>
</g>
<!-- Node26&#45;&gt;Node39 -->
<g id="edge47_Node000026_Node000039" class="edge">
<title>Node26&#45;&gt;Node39</title>
<g id="a_edge47_Node000026_Node000039"><a xlink:title=" ">
<path fill="none" stroke="#63b8ff" d="M1663.51,-326.86C1647.02,-330.43 1627.81,-334.6 1611.34,-338.18"/>
<polygon fill="#63b8ff" stroke="#63b8ff" points="1664.34,-330.26 1673.37,-324.71 1662.86,-323.41 1664.34,-330.26"/>
</a>
</g>
</g>
<!-- Node40 -->
<g id="Node000040" class="node">
<title>Node40</title>
<g id="a_Node000040"><a xlink:href="utils__env__pt2_8c.html#a347832cde8b1beaad47f03caa3af78f0" target="_top" xlink:title="Extracts the variable name from a &quot;KEY=VALUE&quot; string.">
<polygon fill="white" stroke="#666666" points="1615,-282 1529,-282 1529,-263 1615,-263 1615,-282"/>
<text text-anchor="middle" x="1572" y="-270" font-family="Helvetica,sans-Serif" font-size="10.00">get_var_name</text>
</a>
</g>
</g>
<!-- Node26&#45;&gt;Node40 -->
<g id="edge49_Node000026_Node000040" class="edge">
<title>Node26&#45;&gt;Node40</title>
<g id="a_edge49_Node000026_Node000040"><a xlink:title=" ">
<path fill="none" stroke="#63b8ff" d="M1665.72,-305.56C1644.74,-298.08 1618.8,-288.83 1599.69,-282.02"/>
<polygon fill="#63b8ff" stroke="#63b8ff" points="1664.68,-308.91 1675.27,-308.97 1667.03,-302.31 1664.68,-308.91"/>
</a>
</g>
</g>
<!-- Node28 -->
<g id="Node000028" class="node">
<title>Node28</title>
<g id="a_Node000028"><a xlink:href="utils__env_8c.html#a78e10627f49df6e904925e22ae6ee15f" target="_top" xlink:title="Performs environment variable expansion in a string.">
<polygon fill="white" stroke="#666666" points="1493,-356 1389,-356 1389,-337 1493,-337 1493,-356"/>
<text text-anchor="middle" x="1441" y="-344" font-family="Helvetica,sans-Serif" font-size="10.00">ft_expand_envvar</text>
</a>
</g>
</g>
<!-- Node27&#45;&gt;Node28 -->
<g id="edge32_Node000027_Node000028" class="edge">
<title>Node27&#45;&gt;Node28</title>
<g id="a_edge32_Node000027_Node000028"><a xlink:title=" ">
<path fill="none" stroke="#63b8ff" d="M1529.51,-321.4C1512.04,-326.41 1491.99,-332.16 1475.49,-336.9"/>
<polygon fill="#63b8ff" stroke="#63b8ff" points="1530.8,-324.67 1539.44,-318.55 1528.87,-317.94 1530.8,-324.67"/>
</a>
</g>
</g>
<!-- Node28&#45;&gt;Node20 -->
<g id="edge33_Node000028_Node000020" class="edge">
<title>Node28&#45;&gt;Node20</title>
<g id="a_edge33_Node000028_Node000020"><a xlink:title=" ">
<path fill="none" stroke="#63b8ff" d="M1403.49,-359.87C1398.55,-361.95 1393.61,-364.19 1389,-366.5 1360.07,-381.03 1328.45,-401.95 1310.99,-413.99"/>
<polygon fill="#63b8ff" stroke="#63b8ff" points="1404.91,-363.07 1412.86,-356.08 1402.28,-356.59 1404.91,-363.07"/>
</a>
</g>
</g>
<!-- Node29 -->
<g id="Node000029" class="node">
<title>Node29</title>
<g id="a_Node000029"><a xlink:href="main__utils_8c.html#a5aeae9d23b7c4e831229866f395977e7" target="_top" xlink:title="Handles printing of a single environment variable.">
<polygon fill="white" stroke="#666666" points="783,-319 690,-319 690,-300 783,-300 783,-319"/>
<text text-anchor="middle" x="736.5" y="-307" font-family="Helvetica,sans-Serif" font-size="10.00">ft_env_var_flow</text>
</a>
</g>
</g>
<!-- Node28&#45;&gt;Node29 -->
<g id="edge34_Node000028_Node000029" class="edge">
<title>Node28&#45;&gt;Node29</title>
<g id="a_edge34_Node000028_Node000029"><a xlink:title=" ">
<path fill="none" stroke="#63b8ff" d="M1385.54,-334.99C1329.32,-324.13 1238.93,-309.5 1160,-309.5 1160,-309.5 1160,-309.5 1030,-309.5 942.66,-309.5 840.64,-309.5 783.1,-309.5"/>
<polygon fill="#63b8ff" stroke="#63b8ff" points="1385.14,-338.48 1395.62,-336.97 1386.49,-331.61 1385.14,-338.48"/>
</a>
</g>
</g>
<!-- Node30 -->
<g id="Node000030" class="node">
<title>Node30</title>
<g id="a_Node000030"><a xlink:href="redir__utils_8c.html#aff3d6a56d03d5df38cbb3e1f171eb191" target="_top" xlink:title="Expands environment variables in a line and writes the result to a file descriptor.">
<polygon fill="white" stroke="#666666" points="1339.5,-357 1253.5,-357 1253.5,-338 1339.5,-338 1339.5,-357"/>
<text text-anchor="middle" x="1296.5" y="-345" font-family="Helvetica,sans-Serif" font-size="10.00">ft_for_env_var</text>
</a>
</g>
</g>
<!-- Node28&#45;&gt;Node30 -->
<g id="edge36_Node000028_Node000030" class="edge">
<title>Node28&#45;&gt;Node30</title>
<g id="a_edge36_Node000028_Node000030"><a xlink:title=" ">
<path fill="none" stroke="#63b8ff" d="M1378.58,-346.93C1365.48,-347.02 1351.93,-347.12 1339.74,-347.2"/>
<polygon fill="#63b8ff" stroke="#63b8ff" points="1378.98,-350.43 1388.96,-346.86 1378.93,-343.43 1378.98,-350.43"/>
</a>
</g>
</g>
<!-- Node29&#45;&gt;Node6 -->
<g id="edge35_Node000029_Node000006" class="edge">
<title>Node29&#45;&gt;Node6</title>
<g id="a_edge35_Node000029_Node000006"><a xlink:title=" ">
<path fill="none" stroke="#63b8ff" d="M679.47,-307.38C577.03,-303.5 361.89,-295.36 273.11,-292"/>
<polygon fill="#63b8ff" stroke="#63b8ff" points="679.49,-310.88 689.62,-307.76 679.76,-303.89 679.49,-310.88"/>
</a>
</g>
</g>
<!-- Node31 -->
<g id="Node000031" class="node">
<title>Node31</title>
<g id="a_Node000031"><a xlink:href="handle__heredoc_8c.html#ac5ba13b1edbd22e4a7e0a50fc91f80db" target="_top" xlink:title="Executes a single read&#45;write cycle of the here&#45;document.">
<polygon fill="white" stroke="#666666" points="1204,-376 1114,-376 1114,-357 1204,-357 1204,-376"/>
<text text-anchor="middle" x="1159" y="-364" font-family="Helvetica,sans-Serif" font-size="10.00">ft_exe_heredoc</text>
</a>
</g>
</g>
<!-- Node30&#45;&gt;Node31 -->
<g id="edge37_Node000030_Node000031" class="edge">
<title>Node30&#45;&gt;Node31</title>
<g id="a_edge37_Node000030_Node000031"><a xlink:title=" ">
<path fill="none" stroke="#63b8ff" d="M1243.29,-354.82C1230.47,-356.62 1216.87,-358.53 1204.45,-360.27"/>
<polygon fill="#63b8ff" stroke="#63b8ff" points="1243.95,-358.26 1253.37,-353.41 1242.98,-351.33 1243.95,-358.26"/>
</a>
</g>
</g>
<!-- Node32 -->
<g id="Node000032" class="node">
<title>Node32</title>
<g id="a_Node000032"><a xlink:href="handle__heredoc_8c.html#a922eae1c49290306f7cf811bf65d9ed1" target="_top" xlink:title="Handles the entire input process for a here&#45;document.">
<polygon fill="white" stroke="#666666" points="1078,-376 984,-376 984,-357 1078,-357 1078,-376"/>
<text text-anchor="middle" x="1031" y="-364" font-family="Helvetica,sans-Serif" font-size="10.00">handle_heredoc</text>
</a>
</g>
</g>
<!-- Node31&#45;&gt;Node32 -->
<g id="edge38_Node000031_Node000032" class="edge">
<title>Node31&#45;&gt;Node32</title>
<g id="a_edge38_Node000031_Node000032"><a xlink:title=" ">
<path fill="none" stroke="#63b8ff" d="M1103.77,-366.5C1095.32,-366.5 1086.65,-366.5 1078.4,-366.5"/>
<polygon fill="#63b8ff" stroke="#63b8ff" points="1103.93,-370 1113.93,-366.5 1103.93,-363 1103.93,-370"/>
</a>
</g>
</g>
<!-- Node33 -->
<g id="Node000033" class="node">
<title>Node33</title>
<g id="a_Node000033"><a xlink:href="handle__redirections_8c.html#a2834314002a1f4ef4af82f95159b0a34" target="_top" xlink:title="Handles input redirection from file or heredoc.">
<polygon fill="white" stroke="#666666" points="948,-376 829,-376 829,-357 948,-357 948,-376"/>
<text text-anchor="middle" x="888.5" y="-364" font-family="Helvetica,sans-Serif" font-size="10.00">ft_handle_infile_redir</text>
</a>
</g>
</g>
<!-- Node32&#45;&gt;Node33 -->
<g id="edge39_Node000032_Node000033" class="edge">
<title>Node32&#45;&gt;Node33</title>
<g id="a_edge39_Node000032_Node000033"><a xlink:title=" ">
<path fill="none" stroke="#63b8ff" d="M973.86,-366.5C965.41,-366.5 956.67,-366.5 948.17,-366.5"/>
<polygon fill="#63b8ff" stroke="#63b8ff" points="974,-370 984,-366.5 974,-363 974,-370"/>
</a>
</g>
</g>
<!-- Node34 -->
<g id="Node000034" class="node">
<title>Node34</title>
<g id="a_Node000034"><a xlink:href="handle__redirections_8c.html#aa4509a43f47ed881eb2d81fb81458466" target="_top" xlink:title="Handles redirections without an associated command.">
<polygon fill="white" stroke="#666666" points="793,-381.5 680,-381.5 680,-351.5 793,-351.5 793,-381.5"/>
<text text-anchor="start" x="688" y="-369.5" font-family="Helvetica,sans-Serif" font-size="10.00">handle_redirection</text>
<text text-anchor="middle" x="736.5" y="-358.5" font-family="Helvetica,sans-Serif" font-size="10.00">_without_command</text>
</a>
</g>
</g>
<!-- Node33&#45;&gt;Node34 -->
<g id="edge40_Node000033_Node000034" class="edge">
<title>Node33&#45;&gt;Node34</title>
<g id="a_edge40_Node000033_Node000034"><a xlink:title=" ">
<path fill="none" stroke="#63b8ff" d="M818.43,-366.5C809.99,-366.5 801.45,-366.5 793.24,-366.5"/>
<polygon fill="#63b8ff" stroke="#63b8ff" points="818.65,-370 828.65,-366.5 818.65,-363 818.65,-370"/>
</a>
</g>
</g>
<!-- Node35 -->
<g id="Node000035" class="node">
<title>Node35</title>
<g id="a_Node000035"><a xlink:href="handle__redirections_8c.html#ab2c37fefb1291d3f8d0dc91e8c096334" target="_top" xlink:title="Handles redirection associated with a command.">
<polygon fill="white" stroke="#666666" points="644,-376 537,-376 537,-357 644,-357 644,-376"/>
<text text-anchor="middle" x="590.5" y="-364" font-family="Helvetica,sans-Serif" font-size="10.00">handle_redirection</text>
</a>
</g>
</g>
<!-- Node34&#45;&gt;Node35 -->
<g id="edge41_Node000034_Node000035" class="edge">
<title>Node34&#45;&gt;Node35</title>
<g id="a_edge41_Node000034_Node000035"><a xlink:title=" ">
<path fill="none" stroke="#63b8ff" d="M669.55,-366.5C661.05,-366.5 652.44,-366.5 644.19,-366.5"/>
<polygon fill="#63b8ff" stroke="#63b8ff" points="669.83,-370 679.83,-366.5 669.83,-363 669.83,-370"/>
</a>
</g>
</g>
<!-- Node36 -->
<g id="Node000036" class="node">
<title>Node36</title>
<g id="a_Node000036"><a xlink:href="create__command__list_8c.html#ae2006bf82a70d4753ffdca65847316ca" target="_top" xlink:title="Executes a redirection for the current command.">
<polygon fill="white" stroke="#666666" points="497.5,-376 423.5,-376 423.5,-357 497.5,-357 497.5,-376"/>
<text text-anchor="middle" x="460.5" y="-364" font-family="Helvetica,sans-Serif" font-size="10.00">ft_exe_redir</text>
</a>
</g>
</g>
<!-- Node35&#45;&gt;Node36 -->
<g id="edge42_Node000035_Node000036" class="edge">
<title>Node35&#45;&gt;Node36</title>
<g id="a_edge42_Node000035_Node000036"><a xlink:title=" ">
<path fill="none" stroke="#63b8ff" d="M526.49,-366.5C516.64,-366.5 506.77,-366.5 497.79,-366.5"/>
<polygon fill="#63b8ff" stroke="#63b8ff" points="526.7,-370 536.7,-366.5 526.7,-363 526.7,-370"/>
</a>
</g>
</g>
<!-- Node36&#45;&gt;Node21 -->
<g id="edge43_Node000036_Node000021" class="edge">
<title>Node36&#45;&gt;Node21</title>
<g id="a_edge43_Node000036_Node000021"><a xlink:title=" ">
<path fill="none" stroke="#63b8ff" d="M413.24,-366.5C402.37,-366.5 391,-366.5 380.83,-366.5"/>
<polygon fill="#63b8ff" stroke="#63b8ff" points="413.45,-370 423.45,-366.5 413.45,-363 413.45,-370"/>
</a>
</g>
</g>
<!-- Node38 -->
<g id="Node000038" class="node">
<title>Node38</title>
<g id="a_Node000038"><a xlink:href="get__next__line_8c.html#a78d68a5f50a6eec0380ce25b4a1bd5b7" target="_top" xlink:title=" ">
<polygon fill="white" stroke="#666666" points="1482.5,-394 1399.5,-394 1399.5,-375 1482.5,-375 1482.5,-394"/>
<text text-anchor="middle" x="1441" y="-382" font-family="Helvetica,sans-Serif" font-size="10.00">get_next_line</text>
</a>
</g>
</g>
<!-- Node37&#45;&gt;Node38 -->
<g id="edge45_Node000037_Node000038" class="edge">
<title>Node37&#45;&gt;Node38</title>
<g id="a_edge45_Node000037_Node000038"><a xlink:title=" ">
<path fill="none" stroke="#63b8ff" d="M1530.28,-383.82C1515.07,-383.93 1497.81,-384.07 1482.61,-384.19"/>
<polygon fill="#63b8ff" stroke="#63b8ff" points="1530.46,-387.31 1540.43,-383.74 1530.4,-380.31 1530.46,-387.31"/>
</a>
</g>
</g>
<!-- Node38&#45;&gt;Node31 -->
<g id="edge46_Node000038_Node000031" class="edge">
<title>Node38&#45;&gt;Node31</title>
<g id="a_edge46_Node000038_Node000031"><a xlink:title=" ">
<path fill="none" stroke="#63b8ff" d="M1389.14,-381.23C1336.39,-377.84 1254.72,-372.59 1204.47,-369.36"/>
<polygon fill="#63b8ff" stroke="#63b8ff" points="1389.08,-384.73 1399.29,-381.88 1389.53,-377.75 1389.08,-384.73"/>
</a>
</g>
</g>
<!-- Node39&#45;&gt;Node28 -->
<g id="edge48_Node000039_Node000028" class="edge">
<title>Node39&#45;&gt;Node28</title>
<g id="a_edge48_Node000039_Node000028"><a xlink:title=" ">
<path fill="none" stroke="#63b8ff" d="M1522.75,-346.5C1513.08,-346.5 1502.89,-346.5 1493.12,-346.5"/>
<polygon fill="#63b8ff" stroke="#63b8ff" points="1522.99,-350 1532.99,-346.5 1522.99,-343 1522.99,-350"/>
</a>
</g>
</g>
<!-- Node41 -->
<g id="Node000041" class="node">
<title>Node41</title>
<g id="a_Node000041"><a xlink:href="unset_8c.html#a1f4492a754a8735a053adc61c57f6692" target="_top" xlink:title="Finds the index of a variable in the environment.">
<polygon fill="white" stroke="#666666" points="1491,-319 1391,-319 1391,-300 1491,-300 1491,-319"/>
<text text-anchor="middle" x="1441" y="-307" font-family="Helvetica,sans-Serif" font-size="10.00">ft_find_unset_var</text>
</a>
</g>
</g>
<!-- Node40&#45;&gt;Node41 -->
<g id="edge50_Node000040_Node000041" class="edge">
<title>Node40&#45;&gt;Node41</title>
<g id="a_edge50_Node000040_Node000041"><a xlink:title=" ">
<path fill="none" stroke="#63b8ff" d="M1528.03,-284.83C1510.94,-289.73 1491.58,-295.28 1475.56,-299.88"/>
<polygon fill="#63b8ff" stroke="#63b8ff" points="1529.13,-288.15 1537.78,-282.03 1527.2,-281.42 1529.13,-288.15"/>
</a>
</g>
</g>
<!-- Node42 -->
<g id="Node000042" class="node">
<title>Node42</title>
<g id="a_Node000042"><a xlink:href="unset_8c.html#ad9c56b69ee719b3000b39b3c873b4c44" target="_top" xlink:title="Copies all environment variables except the one to remove into new_env array.">
<polygon fill="white" stroke="#666666" points="1480,-282 1402,-282 1402,-263 1480,-263 1480,-282"/>
<text text-anchor="middle" x="1441" y="-270" font-family="Helvetica,sans-Serif" font-size="10.00">ft_for_delete</text>
</a>
</g>
</g>
<!-- Node40&#45;&gt;Node42 -->
<g id="edge52_Node000040_Node000042" class="edge">
<title>Node40&#45;&gt;Node42</title>
<g id="a_edge52_Node000040_Node000042"><a xlink:title=" ">
<path fill="none" stroke="#63b8ff" d="M1518.68,-272.5C1505.88,-272.5 1492.42,-272.5 1480.41,-272.5"/>
<polygon fill="#63b8ff" stroke="#63b8ff" points="1518.76,-276 1528.76,-272.5 1518.76,-269 1518.76,-276"/>
</a>
</g>
</g>
<!-- Node41&#45;&gt;Node3 -->
<g id="edge51_Node000041_Node000003" class="edge">
<title>Node41&#45;&gt;Node3</title>
<g id="a_edge51_Node000041_Node000003"><a xlink:title=" ">
<path fill="none" stroke="#63b8ff" d="M1380.83,-299.73C1371.52,-298.26 1362.01,-296.81 1353,-295.5 1296.49,-287.3 1230.48,-279.03 1192.14,-274.36"/>
<polygon fill="#63b8ff" stroke="#63b8ff" points="1380.38,-303.2 1390.81,-301.31 1381.48,-296.29 1380.38,-303.2"/>
</a>
</g>
</g>
<!-- Node42&#45;&gt;Node2 -->
<g id="edge53_Node000042_Node000002" class="edge">
<title>Node42&#45;&gt;Node2</title>
<g id="a_edge53_Node000042_Node000002"><a xlink:title=" ">
<path fill="none" stroke="#63b8ff" d="M1395.48,-260.32C1375.18,-254.76 1351.49,-248.28 1332.49,-243.08"/>
<polygon fill="#63b8ff" stroke="#63b8ff" points="1394.57,-263.7 1405.14,-262.96 1396.42,-256.94 1394.57,-263.7"/>
</a>
</g>
</g>
<!-- Node43&#45;&gt;Node18 -->
<g id="edge55_Node000043_Node000018" class="edge">
<title>Node43&#45;&gt;Node18</title>
<g id="a_edge55_Node000043_Node000018"><a xlink:title=" ">
<path fill="none" stroke="#63b8ff" d="M1666,-452.29C1643.48,-454.04 1615.17,-456.23 1595.73,-457.74"/>
<polygon fill="#63b8ff" stroke="#63b8ff" points="1666.51,-455.76 1676.2,-451.5 1665.96,-448.78 1666.51,-455.76"/>
</a>
</g>
</g>
<!-- Node44&#45;&gt;Node25 -->
<g id="edge57_Node000044_Node000025" class="edge">
<title>Node44&#45;&gt;Node25</title>
<g id="a_edge57_Node000044_Node000025"><a xlink:title=" ">
<path fill="none" stroke="#63b8ff" d="M1662.77,-15.28C1643.58,-18.1 1620.84,-21.45 1603.05,-24.07"/>
<polygon fill="#63b8ff" stroke="#63b8ff" points="1663.34,-18.73 1672.73,-13.81 1662.32,-11.81 1663.34,-18.73"/>
</a>
</g>
</g>
</g>
</svg>
