<?xml version="1.0" encoding="UTF-8" standalone="no"?>
<!DOCTYPE svg PUBLIC "-//W3C//DTD SVG 1.1//EN"
 "http://www.w3.org/Graphics/SVG/1.1/DTD/svg11.dtd">
<!-- Generated by graphviz version 2.43.0 (0)
 -->
<!-- Title: ft_set_env Pages: 1 -->
<svg width="422pt" height="120pt"
 viewBox="0.00 0.00 422.00 119.74" xmlns="http://www.w3.org/2000/svg" xmlns:xlink="http://www.w3.org/1999/xlink">
<g id="graph0" class="graph" transform="scale(1 1) rotate(0) translate(4 115.74)">
<title>ft_set_env</title>
<!-- Node1 -->
<g id="Node000001" class="node">
<title>Node1</title>
<g id="a_Node000001"><a xlink:title="Changes the current directory and updates PWD and OLDPWD environment variables.">
<polygon fill="#999999" stroke="#666666" points="67,-57 0,-57 0,-38 67,-38 67,-57"/>
<text text-anchor="middle" x="33.5" y="-45" font-family="Helvetica,sans-Serif" font-size="10.00">ft_set_env</text>
</a>
</g>
</g>
<!-- Node2 -->
<g id="Node000002" class="node">
<title>Node2</title>
<g id="a_Node000002"><a xlink:href="utils__env__pt2_8c.html#afac58c53fe53bc538ba19b53efec42e4" target="_top" xlink:title="Finds the value of an environment variable given its name key.">
<polygon fill="white" stroke="#666666" points="203,-95 103,-95 103,-76 203,-76 203,-95"/>
<text text-anchor="middle" x="153" y="-83" font-family="Helvetica,sans-Serif" font-size="10.00">ft_get_env_value</text>
</a>
</g>
</g>
<!-- Node1&#45;&gt;Node2 -->
<g id="edge1_Node000001_Node000002" class="edge">
<title>Node1&#45;&gt;Node2</title>
<g id="a_edge1_Node000001_Node000002"><a xlink:title=" ">
<path fill="none" stroke="#63b8ff" d="M64.15,-57.09C78.9,-61.86 96.93,-67.69 112.8,-72.82"/>
<polygon fill="#63b8ff" stroke="#63b8ff" points="111.77,-76.17 122.36,-75.91 113.92,-69.51 111.77,-76.17"/>
</a>
</g>
</g>
<!-- Node5 -->
<g id="Node000005" class="node">
<title>Node5</title>
<g id="a_Node000005"><a xlink:href="ft__cd_8c.html#a1e12354e1572c211f19189669c16b7b7" target="_top" xlink:title="Sets or updates an environment variable in the env_copy array.">
<polygon fill="white" stroke="#666666" points="184,-57 122,-57 122,-38 184,-38 184,-57"/>
<text text-anchor="middle" x="153" y="-45" font-family="Helvetica,sans-Serif" font-size="10.00">ft_setenv</text>
</a>
</g>
</g>
<!-- Node1&#45;&gt;Node5 -->
<g id="edge4_Node000001_Node000005" class="edge">
<title>Node1&#45;&gt;Node5</title>
<g id="a_edge4_Node000001_Node000005"><a xlink:title=" ">
<path fill="none" stroke="#63b8ff" d="M67.23,-47.5C81,-47.5 97.16,-47.5 111.66,-47.5"/>
<polygon fill="#63b8ff" stroke="#63b8ff" points="111.86,-51 121.86,-47.5 111.86,-44 111.86,-51"/>
</a>
</g>
</g>
<!-- Node8 -->
<g id="Node000008" class="node">
<title>Node8</title>
<g id="a_Node000008"><a xlink:href="ft__strdup_8c.html#aebe73f27c70c56ac5053f860ef5436c9" target="_top" xlink:title="Duplicates a null&#45;terminated string by allocating memory.">
<polygon fill="white" stroke="#666666" points="182.5,-20 123.5,-20 123.5,-1 182.5,-1 182.5,-20"/>
<text text-anchor="middle" x="153" y="-8" font-family="Helvetica,sans-Serif" font-size="10.00">ft_strdup</text>
</a>
</g>
</g>
<!-- Node1&#45;&gt;Node8 -->
<g id="edge10_Node000001_Node000008" class="edge">
<title>Node1&#45;&gt;Node8</title>
<g id="a_edge10_Node000001_Node000008"><a xlink:title=" ">
<path fill="none" stroke="#63b8ff" d="M64.76,-37.97C79.74,-33.25 97.98,-27.51 113.9,-22.5"/>
<polygon fill="#63b8ff" stroke="#63b8ff" points="114.97,-25.83 123.46,-19.49 112.87,-19.15 114.97,-25.83"/>
</a>
</g>
</g>
<!-- Node3 -->
<g id="Node000003" class="node">
<title>Node3</title>
<g id="a_Node000003"><a xlink:href="ft__strlen_8c.html#a828402378653640f545a4be2e00e92f9" target="_top" xlink:title="Calculates the length of a null&#45;terminated string.">
<polygon fill="white" stroke="#666666" points="406.5,-57 350.5,-57 350.5,-38 406.5,-38 406.5,-57"/>
<text text-anchor="middle" x="378.5" y="-45" font-family="Helvetica,sans-Serif" font-size="10.00">ft_strlen</text>
</a>
</g>
</g>
<!-- Node2&#45;&gt;Node3 -->
<g id="edge2_Node000002_Node000003" class="edge">
<title>Node2&#45;&gt;Node3</title>
<g id="a_edge2_Node000002_Node000003"><a xlink:title=" ">
<path fill="none" stroke="#63b8ff" d="M178.05,-95.07C208.82,-105.84 263.34,-119.94 307,-104.5 329.33,-96.6 349.76,-78.3 362.82,-64.55"/>
<polygon fill="#63b8ff" stroke="#63b8ff" points="365.46,-66.84 369.61,-57.09 360.29,-62.13 365.46,-66.84"/>
</a>
</g>
</g>
<!-- Node4 -->
<g id="Node000004" class="node">
<title>Node4</title>
<g id="a_Node000004"><a xlink:href="ft__strncmp_8c.html#a9d2fe792187aa4ed08e5864fb2c4d6dc" target="_top" xlink:title="Compares up to n characters of two strings.">
<polygon fill="white" stroke="#666666" points="307,-95 239,-95 239,-76 307,-76 307,-95"/>
<text text-anchor="middle" x="273" y="-83" font-family="Helvetica,sans-Serif" font-size="10.00">ft_strncmp</text>
</a>
</g>
</g>
<!-- Node2&#45;&gt;Node4 -->
<g id="edge3_Node000002_Node000004" class="edge">
<title>Node2&#45;&gt;Node4</title>
<g id="a_edge3_Node000002_Node000004"><a xlink:title=" ">
<path fill="none" stroke="#63b8ff" d="M203.02,-85.5C211.48,-85.5 220.22,-85.5 228.52,-85.5"/>
<polygon fill="#63b8ff" stroke="#63b8ff" points="228.74,-89 238.74,-85.5 228.74,-82 228.74,-89"/>
</a>
</g>
</g>
<!-- Node5&#45;&gt;Node3 -->
<g id="edge8_Node000005_Node000003" class="edge">
<title>Node5&#45;&gt;Node3</title>
<g id="a_edge8_Node000005_Node000003"><a xlink:title=" ">
<path fill="none" stroke="#63b8ff" d="M184.14,-47.5C224.54,-47.5 296.22,-47.5 340.04,-47.5"/>
<polygon fill="#63b8ff" stroke="#63b8ff" points="340.28,-51 350.28,-47.5 340.28,-44 340.28,-51"/>
</a>
</g>
</g>
<!-- Node5&#45;&gt;Node4 -->
<g id="edge9_Node000005_Node000004" class="edge">
<title>Node5&#45;&gt;Node4</title>
<g id="a_edge9_Node000005_Node000004"><a xlink:title=" ">
<path fill="none" stroke="#63b8ff" d="M183.78,-57.09C198.59,-61.86 216.69,-67.69 232.63,-72.82"/>
<polygon fill="#63b8ff" stroke="#63b8ff" points="231.64,-76.18 242.23,-75.91 233.79,-69.52 231.64,-76.18"/>
</a>
</g>
</g>
<!-- Node6 -->
<g id="Node000006" class="node">
<title>Node6</title>
<g id="a_Node000006"><a xlink:href="ft__strjoin_8c.html#a91e6e3e428bcc9f2291b700e1829b82b" target="_top" xlink:title="Concatenates two strings into a newly allocated string.">
<polygon fill="white" stroke="#666666" points="302.5,-19 243.5,-19 243.5,0 302.5,0 302.5,-19"/>
<text text-anchor="middle" x="273" y="-7" font-family="Helvetica,sans-Serif" font-size="10.00">ft_strjoin</text>
</a>
</g>
</g>
<!-- Node5&#45;&gt;Node6 -->
<g id="edge5_Node000005_Node000006" class="edge">
<title>Node5&#45;&gt;Node6</title>
<g id="a_edge5_Node000005_Node000006"><a xlink:title=" ">
<path fill="none" stroke="#63b8ff" d="M183.78,-37.91C198.93,-33.03 217.52,-27.04 233.73,-21.83"/>
<polygon fill="#63b8ff" stroke="#63b8ff" points="235.01,-25.09 243.45,-18.69 232.86,-18.43 235.01,-25.09"/>
</a>
</g>
</g>
<!-- Node6&#45;&gt;Node3 -->
<g id="edge7_Node000006_Node000003" class="edge">
<title>Node6&#45;&gt;Node3</title>
<g id="a_edge7_Node000006_Node000003"><a xlink:title=" ">
<path fill="none" stroke="#63b8ff" d="M300.12,-19.09C312.74,-23.72 328.09,-29.36 341.78,-34.39"/>
<polygon fill="#63b8ff" stroke="#63b8ff" points="340.8,-37.75 351.39,-37.91 343.21,-31.18 340.8,-37.75"/>
</a>
</g>
</g>
<!-- Node7 -->
<g id="Node000007" class="node">
<title>Node7</title>
<g id="a_Node000007"><a xlink:href="ft__memcpy_8c.html#a41a6f05af30cf85ff63a08e383826322" target="_top" xlink:title="Copies &#39;n&#39; bytes from memory area &#39;src&#39; to memory area &#39;dest&#39;.">
<polygon fill="white" stroke="#666666" points="414,-19 343,-19 343,0 414,0 414,-19"/>
<text text-anchor="middle" x="378.5" y="-7" font-family="Helvetica,sans-Serif" font-size="10.00">ft_memcpy</text>
</a>
</g>
</g>
<!-- Node6&#45;&gt;Node7 -->
<g id="edge6_Node000006_Node000007" class="edge">
<title>Node6&#45;&gt;Node7</title>
<g id="a_edge6_Node000006_Node000007"><a xlink:title=" ">
<path fill="none" stroke="#63b8ff" d="M302.56,-9.5C311.89,-9.5 322.49,-9.5 332.73,-9.5"/>
<polygon fill="#63b8ff" stroke="#63b8ff" points="332.78,-13 342.78,-9.5 332.78,-6 332.78,-13"/>
</a>
</g>
</g>
</g>
</svg>
