<?xml version="1.0" encoding="UTF-8" standalone="no"?>
<!DOCTYPE svg PUBLIC "-//W3C//DTD SVG 1.1//EN"
 "http://www.w3.org/Graphics/SVG/1.1/DTD/svg11.dtd">
<!-- Generated by graphviz version 2.43.0 (0)
 -->
<!-- Title: ft_split Pages: 1 -->
<svg width="172pt" height="101pt"
 viewBox="0.00 0.00 172.00 101.00" xmlns="http://www.w3.org/2000/svg" xmlns:xlink="http://www.w3.org/1999/xlink">
<g id="graph0" class="graph" transform="scale(1 1) rotate(0) translate(4 97)">
<title>ft_split</title>
<!-- Node1 -->
<g id="Node000001" class="node">
<title>Node1</title>
<g id="a_Node000001"><a xlink:title="Splits a string into an array of strings based on a delimiter.">
<polygon fill="#999999" stroke="#666666" points="50,-56 0,-56 0,-37 50,-37 50,-56"/>
<text text-anchor="middle" x="25" y="-44" font-family="Helvetica,sans-Serif" font-size="10.00">ft_split</text>
</a>
</g>
</g>
<!-- Node2 -->
<g id="Node000002" class="node">
<title>Node2</title>
<g id="a_Node000002"><a xlink:href="ft__split_8c.html#aa7bb0a2499cd7e833a5b655f1ba32e7e" target="_top" xlink:title="Copies a substring (word) from the input string.">
<polygon fill="white" stroke="#666666" points="151.5,-93 98.5,-93 98.5,-74 151.5,-74 151.5,-93"/>
<text text-anchor="middle" x="125" y="-81" font-family="Helvetica,sans-Serif" font-size="10.00">copy_w</text>
</a>
</g>
</g>
<!-- Node1&#45;&gt;Node2 -->
<g id="edge1_Node000001_Node000002" class="edge">
<title>Node1&#45;&gt;Node2</title>
<g id="a_edge1_Node000001_Node000002"><a xlink:title=" ">
<path fill="none" stroke="#63b8ff" d="M50.22,-55.65C61.97,-60.08 76.29,-65.49 89.18,-70.35"/>
<polygon fill="#63b8ff" stroke="#63b8ff" points="88.1,-73.69 98.69,-73.94 90.57,-67.14 88.1,-73.69"/>
</a>
</g>
</g>
<!-- Node3 -->
<g id="Node000003" class="node">
<title>Node3</title>
<g id="a_Node000003"><a xlink:href="ft__split_8c.html#a894f4b1af0e002219975b3835f6306b6" target="_top" xlink:title="Counts the number of words in a string separated by a delimiter.">
<polygon fill="white" stroke="#666666" points="164,-56 86,-56 86,-37 164,-37 164,-56"/>
<text text-anchor="middle" x="125" y="-44" font-family="Helvetica,sans-Serif" font-size="10.00">count_words</text>
</a>
</g>
</g>
<!-- Node1&#45;&gt;Node3 -->
<g id="edge2_Node000001_Node000003" class="edge">
<title>Node1&#45;&gt;Node3</title>
<g id="a_edge2_Node000001_Node000003"><a xlink:title=" ">
<path fill="none" stroke="#63b8ff" d="M50.22,-46.5C57.97,-46.5 66.83,-46.5 75.66,-46.5"/>
<polygon fill="#63b8ff" stroke="#63b8ff" points="75.94,-50 85.94,-46.5 75.94,-43 75.94,-50"/>
</a>
</g>
</g>
<!-- Node4 -->
<g id="Node000004" class="node">
<title>Node4</title>
<g id="a_Node000004"><a xlink:href="ft__split_8c.html#a7927713e5f2fed5cee8ec1ac2bcadb2c" target="_top" xlink:title="Frees an array of strings up to a given index.">
<polygon fill="white" stroke="#666666" points="148.5,-19 101.5,-19 101.5,0 148.5,0 148.5,-19"/>
<text text-anchor="middle" x="125" y="-7" font-family="Helvetica,sans-Serif" font-size="10.00">fclean</text>
</a>
</g>
</g>
<!-- Node1&#45;&gt;Node4 -->
<g id="edge3_Node000001_Node000004" class="edge">
<title>Node1&#45;&gt;Node4</title>
<g id="a_edge3_Node000001_Node000004"><a xlink:title=" ">
<path fill="none" stroke="#63b8ff" d="M50.22,-37.35C62.81,-32.6 78.36,-26.73 91.93,-21.61"/>
<polygon fill="#63b8ff" stroke="#63b8ff" points="93.28,-24.84 101.4,-18.03 90.81,-18.29 93.28,-24.84"/>
</a>
</g>
</g>
</g>
</svg>
