<?xml version="1.0" encoding="UTF-8" standalone="no"?>
<!DOCTYPE svg PUBLIC "-//W3C//DTD SVG 1.1//EN"
 "http://www.w3.org/Graphics/SVG/1.1/DTD/svg11.dtd">
<!-- Generated by graphviz version 2.43.0 (0)
 -->
<!-- Title: ft_lstdelone Pages: 1 -->
<svg width="281pt" height="27pt"
 viewBox="0.00 0.00 281.00 27.00" xmlns="http://www.w3.org/2000/svg" xmlns:xlink="http://www.w3.org/1999/xlink">
<g id="graph0" class="graph" transform="scale(1 1) rotate(0) translate(4 23)">
<title>ft_lstdelone</title>
<!-- Node1 -->
<g id="Node000001" class="node">
<title>Node1</title>
<g id="a_Node000001"><a xlink:title="Deletes and frees a single node of a linked list.">
<polygon fill="#999999" stroke="#666666" points="273,-19 199,-19 199,0 273,0 273,-19"/>
<text text-anchor="middle" x="236" y="-7" font-family="Helvetica,sans-Serif" font-size="10.00">ft_lstdelone</text>
</a>
</g>
</g>
<!-- Node2 -->
<g id="Node000002" class="node">
<title>Node2</title>
<g id="a_Node000002"><a xlink:href="ft__lstclear_8c.html#a6e900cfaea2857bbf490f3105e38da93" target="_top" xlink:title="Deletes and frees all nodes of a linked list.">
<polygon fill="white" stroke="#666666" points="163,-19 98,-19 98,0 163,0 163,-19"/>
<text text-anchor="middle" x="130.5" y="-7" font-family="Helvetica,sans-Serif" font-size="10.00">ft_lstclear</text>
</a>
</g>
</g>
<!-- Node1&#45;&gt;Node2 -->
<g id="edge1_Node000001_Node000002" class="edge">
<title>Node1&#45;&gt;Node2</title>
<g id="a_edge1_Node000001_Node000002"><a xlink:title=" ">
<path fill="none" stroke="#63b8ff" d="M188.75,-9.5C180.05,-9.5 171.15,-9.5 163.03,-9.5"/>
<polygon fill="#63b8ff" stroke="#63b8ff" points="188.8,-13 198.8,-9.5 188.8,-6 188.8,-13"/>
</a>
</g>
</g>
<!-- Node3 -->
<g id="Node000003" class="node">
<title>Node3</title>
<g id="a_Node000003"><a xlink:href="ft__lstmap_8c.html#a8198d1837ffbba05823f5e85afebf9c6" target="_top" xlink:title="Creates a new list by applying a function to each element of an existing list.">
<polygon fill="white" stroke="#666666" points="62,-19 0,-19 0,0 62,0 62,-19"/>
<text text-anchor="middle" x="31" y="-7" font-family="Helvetica,sans-Serif" font-size="10.00">ft_lstmap</text>
</a>
</g>
</g>
<!-- Node2&#45;&gt;Node3 -->
<g id="edge2_Node000002_Node000003" class="edge">
<title>Node2&#45;&gt;Node3</title>
<g id="a_edge2_Node000002_Node000003"><a xlink:title=" ">
<path fill="none" stroke="#63b8ff" d="M87.62,-9.5C79.07,-9.5 70.22,-9.5 62.17,-9.5"/>
<polygon fill="#63b8ff" stroke="#63b8ff" points="87.84,-13 97.84,-9.5 87.84,-6 87.84,-13"/>
</a>
</g>
</g>
</g>
</svg>
