<?xml version="1.0" encoding="UTF-8" standalone="no"?>
<!DOCTYPE svg PUBLIC "-//W3C//DTD SVG 1.1//EN"
 "http://www.w3.org/Graphics/SVG/1.1/DTD/svg11.dtd">
<!-- Generated by graphviz version 2.43.0 (0)
 -->
<!-- Title: ft_itoa Pages: 1 -->
<svg width="237pt" height="140pt"
 viewBox="0.00 0.00 237.00 140.00" xmlns="http://www.w3.org/2000/svg" xmlns:xlink="http://www.w3.org/1999/xlink">
<g id="graph0" class="graph" transform="scale(1 1) rotate(0) translate(4 136)">
<title>ft_itoa</title>
<!-- Node1 -->
<g id="Node000001" class="node">
<title>Node1</title>
<g id="a_Node000001"><a xlink:title="Converts an integer to a null&#45;terminated string.">
<polygon fill="#999999" stroke="#666666" points="47,-76 0,-76 0,-57 47,-57 47,-76"/>
<text text-anchor="middle" x="23.5" y="-64" font-family="Helvetica,sans-Serif" font-size="10.00">ft_itoa</text>
</a>
</g>
</g>
<!-- Node2 -->
<g id="Node000002" class="node">
<title>Node2</title>
<g id="a_Node000002"><a xlink:href="ft__itoa_8c.html#a163fba91673b8409055003e4be5530f4" target="_top" xlink:title="Fills a string buffer with the digits of an integer.">
<polygon fill="white" stroke="#666666" points="143,-132 83,-132 83,-113 143,-113 143,-132"/>
<text text-anchor="middle" x="113" y="-120" font-family="Helvetica,sans-Serif" font-size="10.00">fget_itoa</text>
</a>
</g>
</g>
<!-- Node1&#45;&gt;Node2 -->
<g id="edge1_Node000001_Node000002" class="edge">
<title>Node1&#45;&gt;Node2</title>
<g id="a_edge1_Node000001_Node000002"><a xlink:title=" ">
<path fill="none" stroke="#63b8ff" d="M39.35,-76.27C51.15,-83.99 68.07,-95.02 83,-104.5 84.48,-105.44 86,-106.4 87.54,-107.37"/>
<polygon fill="#63b8ff" stroke="#63b8ff" points="85.97,-110.52 96.31,-112.84 89.68,-104.58 85.97,-110.52"/>
</a>
</g>
</g>
<!-- Node3 -->
<g id="Node000003" class="node">
<title>Node3</title>
<g id="a_Node000003"><a xlink:href="ft__itoa_8c.html#ad01d7565914b3df7a4348fbeba72841b" target="_top" xlink:title="Calculates the number of characters needed to represent an integer as a string.">
<polygon fill="white" stroke="#666666" points="139.5,-95 86.5,-95 86.5,-76 139.5,-76 139.5,-95"/>
<text text-anchor="middle" x="113" y="-83" font-family="Helvetica,sans-Serif" font-size="10.00">get_len</text>
</a>
</g>
</g>
<!-- Node1&#45;&gt;Node3 -->
<g id="edge2_Node000001_Node000003" class="edge">
<title>Node1&#45;&gt;Node3</title>
<g id="a_edge2_Node000001_Node000003"><a xlink:title=" ">
<path fill="none" stroke="#63b8ff" d="M47.03,-71.39C55.98,-73.34 66.48,-75.62 76.41,-77.77"/>
<polygon fill="#63b8ff" stroke="#63b8ff" points="75.94,-81.25 86.45,-79.95 77.42,-74.41 75.94,-81.25"/>
</a>
</g>
</g>
<!-- Node4 -->
<g id="Node000004" class="node">
<title>Node4</title>
<g id="a_Node000004"><a xlink:href="ft__strlcat_8c.html#a3ab017dd491d7327d1b4acbf1398b91e" target="_top" xlink:title="Returns the length of a null&#45;terminated string.">
<polygon fill="white" stroke="#666666" points="220,-76 188,-76 188,-57 220,-57 220,-76"/>
<text text-anchor="middle" x="204" y="-64" font-family="Helvetica,sans-Serif" font-size="10.00">len</text>
</a>
</g>
</g>
<!-- Node1&#45;&gt;Node4 -->
<g id="edge6_Node000001_Node000004" class="edge">
<title>Node1&#45;&gt;Node4</title>
<g id="a_edge6_Node000001_Node000004"><a xlink:title=" ">
<path fill="none" stroke="#63b8ff" d="M47.11,-66.5C80.46,-66.5 142.66,-66.5 177.56,-66.5"/>
<polygon fill="#63b8ff" stroke="#63b8ff" points="177.87,-70 187.87,-66.5 177.87,-63 177.87,-70"/>
</a>
</g>
</g>
<!-- Node5 -->
<g id="Node000005" class="node">
<title>Node5</title>
<g id="a_Node000005"><a xlink:href="ft__itoa_8c.html#a4d5d7925588cf4c4d9fbd138580fd73e" target="_top" xlink:title="Returns a string representation of the minimum integer value.">
<polygon fill="white" stroke="#666666" points="139.5,-19 86.5,-19 86.5,0 139.5,0 139.5,-19"/>
<text text-anchor="middle" x="113" y="-7" font-family="Helvetica,sans-Serif" font-size="10.00">int_min</text>
</a>
</g>
</g>
<!-- Node1&#45;&gt;Node5 -->
<g id="edge4_Node000001_Node000005" class="edge">
<title>Node1&#45;&gt;Node5</title>
<g id="a_edge4_Node000001_Node000005"><a xlink:title=" ">
<path fill="none" stroke="#63b8ff" d="M39.34,-56.83C52.88,-48.02 73.09,-34.85 88.76,-24.64"/>
<polygon fill="#63b8ff" stroke="#63b8ff" points="90.91,-27.42 97.38,-19.03 87.09,-21.55 90.91,-27.42"/>
</a>
</g>
</g>
<!-- Node3&#45;&gt;Node4 -->
<g id="edge3_Node000003_Node000004" class="edge">
<title>Node3&#45;&gt;Node4</title>
<g id="a_edge3_Node000003_Node000004"><a xlink:title=" ">
<path fill="none" stroke="#63b8ff" d="M139.74,-80C151.81,-77.43 166.14,-74.37 178.1,-71.82"/>
<polygon fill="#63b8ff" stroke="#63b8ff" points="178.84,-75.24 187.89,-69.73 177.38,-68.39 178.84,-75.24"/>
</a>
</g>
</g>
<!-- Node6 -->
<g id="Node000006" class="node">
<title>Node6</title>
<g id="a_Node000006"><a xlink:href="ft__itoa_8c.html#a8f08154d6a4e5a1ccc9771aced90ed0a" target="_top" xlink:title="Copies a null&#45;terminated string into another buffer.">
<polygon fill="white" stroke="#666666" points="229,-19 179,-19 179,0 229,0 229,-19"/>
<text text-anchor="middle" x="204" y="-7" font-family="Helvetica,sans-Serif" font-size="10.00">fstrcpy</text>
</a>
</g>
</g>
<!-- Node5&#45;&gt;Node6 -->
<g id="edge5_Node000005_Node000006" class="edge">
<title>Node5&#45;&gt;Node6</title>
<g id="a_edge5_Node000005_Node000006"><a xlink:title=" ">
<path fill="none" stroke="#63b8ff" d="M139.74,-9.5C148.79,-9.5 159.11,-9.5 168.74,-9.5"/>
<polygon fill="#63b8ff" stroke="#63b8ff" points="168.84,-13 178.84,-9.5 168.84,-6 168.84,-13"/>
</a>
</g>
</g>
</g>
</svg>
