<?xml version="1.0" encoding="UTF-8" standalone="no"?>
<!DOCTYPE svg PUBLIC "-//W3C//DTD SVG 1.1//EN"
 "http://www.w3.org/Graphics/SVG/1.1/DTD/svg11.dtd">
<!-- Generated by graphviz version 2.43.0 (0)
 -->
<!-- Title: builtin/ft_cd.c Pages: 1 -->
<svg width="1008pt" height="313pt"
 viewBox="0.00 0.00 1007.50 313.00" xmlns="http://www.w3.org/2000/svg" xmlns:xlink="http://www.w3.org/1999/xlink">
<g id="graph0" class="graph" transform="scale(1 1) rotate(0) translate(4 309)">
<title>builtin/ft_cd.c</title>
<!-- Node1 -->
<g id="Node000001" class="node">
<title>Node1</title>
<g id="a_Node000001"><a xlink:title=" ">
<polygon fill="#999999" stroke="#666666" points="597,-305 515,-305 515,-286 597,-286 597,-305"/>
<text text-anchor="middle" x="556" y="-293" font-family="Helvetica,sans-Serif" font-size="10.00">builtin/ft_cd.c</text>
</a>
</g>
</g>
<!-- Node2 -->
<g id="Node000002" class="node">
<title>Node2</title>
<g id="a_Node000002"><a xlink:href="builtin_8h.html" target="_top" xlink:title=" ">
<polygon fill="white" stroke="#666666" points="584,-250 528,-250 528,-231 584,-231 584,-250"/>
<text text-anchor="middle" x="556" y="-238" font-family="Helvetica,sans-Serif" font-size="10.00">builtin.h</text>
</a>
</g>
</g>
<!-- Node1&#45;&gt;Node2 -->
<g id="edge1_Node000001_Node000002" class="edge">
<title>Node1&#45;&gt;Node2</title>
<g id="a_edge1_Node000001_Node000002"><a xlink:title=" ">
<path fill="none" stroke="#63b8ff" d="M556,-285.75C556,-278.8 556,-268.85 556,-260.13"/>
<polygon fill="#63b8ff" stroke="#63b8ff" points="559.5,-260.09 556,-250.09 552.5,-260.09 559.5,-260.09"/>
</a>
</g>
</g>
<!-- Node3 -->
<g id="Node000003" class="node">
<title>Node3</title>
<g id="a_Node000003"><a xlink:href="libft_8h.html" target="_top" xlink:title=" ">
<polygon fill="white" stroke="#666666" points="279.5,-74 204.5,-74 204.5,-55 279.5,-55 279.5,-74"/>
<text text-anchor="middle" x="242" y="-62" font-family="Helvetica,sans-Serif" font-size="10.00">../libft/libft.h</text>
</a>
</g>
</g>
<!-- Node2&#45;&gt;Node3 -->
<g id="edge2_Node000002_Node000003" class="edge">
<title>Node2&#45;&gt;Node3</title>
<g id="a_edge2_Node000002_Node000003"><a xlink:title=" ">
<path fill="none" stroke="#63b8ff" d="M539.09,-231C521.67,-222.18 493.79,-207.91 470,-195 394.45,-154.02 306.33,-103.05 265.27,-79.12"/>
<polygon fill="#63b8ff" stroke="#63b8ff" points="266.96,-76.05 256.56,-74.03 263.43,-82.1 266.96,-76.05"/>
</a>
</g>
</g>
<!-- Node13 -->
<g id="Node000013" class="node">
<title>Node13</title>
<g id="a_Node000013"><a xlink:href="common__utils_8h.html" target="_top" xlink:title=" ">
<polygon fill="white" stroke="#666666" points="731,-140 591,-140 591,-110 731,-110 731,-140"/>
<text text-anchor="start" x="599" y="-128" font-family="Helvetica,sans-Serif" font-size="10.00">../common_utils/common</text>
<text text-anchor="middle" x="661" y="-117" font-family="Helvetica,sans-Serif" font-size="10.00">_utils.h</text>
</a>
</g>
</g>
<!-- Node2&#45;&gt;Node13 -->
<g id="edge12_Node000002_Node000013" class="edge">
<title>Node2&#45;&gt;Node13</title>
<g id="a_edge12_Node000002_Node000013"><a xlink:title=" ">
<path fill="none" stroke="#63b8ff" d="M584.25,-231.49C603.2,-224.71 627.29,-213.16 642,-195 652.22,-182.38 656.96,-164.67 659.15,-150.34"/>
<polygon fill="#63b8ff" stroke="#63b8ff" points="662.65,-150.54 660.37,-140.2 655.7,-149.7 662.65,-150.54"/>
</a>
</g>
</g>
<!-- Node20 -->
<g id="Node000020" class="node">
<title>Node20</title>
<g id="a_Node000020"><a xlink:href="redirections_8h.html" target="_top" xlink:title=" ">
<polygon fill="white" stroke="#666666" points="632.5,-195 479.5,-195 479.5,-176 632.5,-176 632.5,-195"/>
<text text-anchor="middle" x="556" y="-183" font-family="Helvetica,sans-Serif" font-size="10.00">../redirections/redirections.h</text>
</a>
</g>
</g>
<!-- Node2&#45;&gt;Node20 -->
<g id="edge24_Node000002_Node000020" class="edge">
<title>Node2&#45;&gt;Node20</title>
<g id="a_edge24_Node000002_Node000020"><a xlink:title=" ">
<path fill="none" stroke="#63b8ff" d="M556,-230.75C556,-223.8 556,-213.85 556,-205.13"/>
<polygon fill="#63b8ff" stroke="#63b8ff" points="559.5,-205.09 556,-195.09 552.5,-205.09 559.5,-205.09"/>
</a>
</g>
</g>
<!-- Node4 -->
<g id="Node000004" class="node">
<title>Node4</title>
<g id="a_Node000004"><a xlink:title=" ">
<polygon fill="#e0e0e0" stroke="#999999" points="724,-19 668,-19 668,0 724,0 724,-19"/>
<text text-anchor="middle" x="696" y="-7" font-family="Helvetica,sans-Serif" font-size="10.00">unistd.h</text>
</a>
</g>
</g>
<!-- Node3&#45;&gt;Node4 -->
<g id="edge3_Node000003_Node000004" class="edge">
<title>Node3&#45;&gt;Node4</title>
<g id="a_edge3_Node000003_Node000004"><a xlink:title=" ">
<path fill="none" stroke="#63b8ff" d="M279.54,-59.12C364.68,-49.18 571.71,-25.01 657.64,-14.98"/>
<polygon fill="#63b8ff" stroke="#63b8ff" points="658.21,-18.44 667.74,-13.8 657.4,-11.48 658.21,-18.44"/>
</a>
</g>
</g>
<!-- Node5 -->
<g id="Node000005" class="node">
<title>Node5</title>
<g id="a_Node000005"><a xlink:title=" ">
<polygon fill="#e0e0e0" stroke="#999999" points="884.5,-19 831.5,-19 831.5,0 884.5,0 884.5,-19"/>
<text text-anchor="middle" x="858" y="-7" font-family="Helvetica,sans-Serif" font-size="10.00">stdlib.h</text>
</a>
</g>
</g>
<!-- Node3&#45;&gt;Node5 -->
<g id="edge4_Node000003_Node000005" class="edge">
<title>Node3&#45;&gt;Node5</title>
<g id="a_edge4_Node000003_Node000005"><a xlink:title=" ">
<path fill="none" stroke="#63b8ff" d="M279.65,-59.6C294.41,-58.11 311.49,-56.43 327,-55 512.71,-37.93 735.22,-20.15 821.41,-13.36"/>
<polygon fill="#63b8ff" stroke="#63b8ff" points="821.77,-16.85 831.47,-12.57 821.22,-9.87 821.77,-16.85"/>
</a>
</g>
</g>
<!-- Node6 -->
<g id="Node000006" class="node">
<title>Node6</title>
<g id="a_Node000006"><a xlink:title=" ">
<polygon fill="#e0e0e0" stroke="#999999" points="999.5,-19 946.5,-19 946.5,0 999.5,0 999.5,-19"/>
<text text-anchor="middle" x="973" y="-7" font-family="Helvetica,sans-Serif" font-size="10.00">string.h</text>
</a>
</g>
</g>
<!-- Node3&#45;&gt;Node6 -->
<g id="edge5_Node000003_Node000006" class="edge">
<title>Node3&#45;&gt;Node6</title>
<g id="a_edge5_Node000003_Node000006"><a xlink:title=" ">
<path fill="none" stroke="#63b8ff" d="M279.63,-59.44C294.39,-57.93 311.48,-56.27 327,-55 578.67,-34.43 642.41,-40.51 894,-19 907.77,-17.82 922.87,-16.26 936.14,-14.8"/>
<polygon fill="#63b8ff" stroke="#63b8ff" points="936.79,-18.25 946.33,-13.66 936.01,-11.3 936.79,-18.25"/>
</a>
</g>
</g>
<!-- Node7 -->
<g id="Node000007" class="node">
<title>Node7</title>
<g id="a_Node000007"><a xlink:title=" ">
<polygon fill="#e0e0e0" stroke="#999999" points="196,-19 146,-19 146,0 196,0 196,-19"/>
<text text-anchor="middle" x="171" y="-7" font-family="Helvetica,sans-Serif" font-size="10.00">stdio.h</text>
</a>
</g>
</g>
<!-- Node3&#45;&gt;Node7 -->
<g id="edge6_Node000003_Node000007" class="edge">
<title>Node3&#45;&gt;Node7</title>
<g id="a_edge6_Node000003_Node000007"><a xlink:title=" ">
<path fill="none" stroke="#63b8ff" d="M230.59,-54.98C219.89,-47 203.66,-34.88 190.84,-25.31"/>
<polygon fill="#63b8ff" stroke="#63b8ff" points="192.72,-22.35 182.61,-19.17 188.53,-27.96 192.72,-22.35"/>
</a>
</g>
</g>
<!-- Node8 -->
<g id="Node000008" class="node">
<title>Node8</title>
<g id="a_Node000008"><a xlink:title=" ">
<polygon fill="#e0e0e0" stroke="#999999" points="269.5,-19 214.5,-19 214.5,0 269.5,0 269.5,-19"/>
<text text-anchor="middle" x="242" y="-7" font-family="Helvetica,sans-Serif" font-size="10.00">signal.h</text>
</a>
</g>
</g>
<!-- Node3&#45;&gt;Node8 -->
<g id="edge7_Node000003_Node000008" class="edge">
<title>Node3&#45;&gt;Node8</title>
<g id="a_edge7_Node000003_Node000008"><a xlink:title=" ">
<path fill="none" stroke="#63b8ff" d="M242,-54.75C242,-47.8 242,-37.85 242,-29.13"/>
<polygon fill="#63b8ff" stroke="#63b8ff" points="245.5,-29.09 242,-19.09 238.5,-29.09 245.5,-29.09"/>
</a>
</g>
</g>
<!-- Node9 -->
<g id="Node000009" class="node">
<title>Node9</title>
<g id="a_Node000009"><a xlink:title=" ">
<polygon fill="#e0e0e0" stroke="#999999" points="471.5,-19 424.5,-19 424.5,0 471.5,0 471.5,-19"/>
<text text-anchor="middle" x="448" y="-7" font-family="Helvetica,sans-Serif" font-size="10.00">fcntl.h</text>
</a>
</g>
</g>
<!-- Node3&#45;&gt;Node9 -->
<g id="edge8_Node000003_Node000009" class="edge">
<title>Node3&#45;&gt;Node9</title>
<g id="a_edge8_Node000003_Node000009"><a xlink:title=" ">
<path fill="none" stroke="#63b8ff" d="M275.17,-54.97C308.02,-46.52 360.03,-33.15 414.39,-19.16"/>
<polygon fill="#63b8ff" stroke="#63b8ff" points="415.4,-22.51 424.21,-16.63 413.65,-15.73 415.4,-22.51"/>
</a>
</g>
</g>
<!-- Node10 -->
<g id="Node000010" class="node">
<title>Node10</title>
<g id="a_Node000010"><a xlink:title=" ">
<polygon fill="#e0e0e0" stroke="#999999" points="406.5,-19 287.5,-19 287.5,0 406.5,0 406.5,-19"/>
<text text-anchor="middle" x="347" y="-7" font-family="Helvetica,sans-Serif" font-size="10.00">bits/types/siginfo_t.h</text>
</a>
</g>
</g>
<!-- Node3&#45;&gt;Node10 -->
<g id="edge9_Node000003_Node000010" class="edge">
<title>Node3&#45;&gt;Node10</title>
<g id="a_edge9_Node000003_Node000010"><a xlink:title=" ">
<path fill="none" stroke="#63b8ff" d="M258.87,-54.98C275.61,-46.54 301.5,-33.47 320.89,-23.68"/>
<polygon fill="#63b8ff" stroke="#63b8ff" points="322.47,-26.8 329.82,-19.17 319.32,-20.55 322.47,-26.8"/>
</a>
</g>
</g>
<!-- Node11 -->
<g id="Node000011" class="node">
<title>Node11</title>
<g id="a_Node000011"><a xlink:title=" ">
<polygon fill="#e0e0e0" stroke="#999999" points="56,-19 0,-19 0,0 56,0 56,-19"/>
<text text-anchor="middle" x="28" y="-7" font-family="Helvetica,sans-Serif" font-size="10.00">stdarg.h</text>
</a>
</g>
</g>
<!-- Node3&#45;&gt;Node11 -->
<g id="edge10_Node000003_Node000011" class="edge">
<title>Node3&#45;&gt;Node11</title>
<g id="a_edge10_Node000003_Node000011"><a xlink:title=" ">
<path fill="none" stroke="#63b8ff" d="M207.62,-54.98C168.92,-45.4 106.24,-29.88 66.09,-19.93"/>
<polygon fill="#63b8ff" stroke="#63b8ff" points="66.7,-16.48 56.15,-17.47 65.01,-23.27 66.7,-16.48"/>
</a>
</g>
</g>
<!-- Node12 -->
<g id="Node000012" class="node">
<title>Node12</title>
<g id="a_Node000012"><a xlink:title=" ">
<polygon fill="#e0e0e0" stroke="#999999" points="127.5,-19 74.5,-19 74.5,0 127.5,0 127.5,-19"/>
<text text-anchor="middle" x="101" y="-7" font-family="Helvetica,sans-Serif" font-size="10.00">limits.h</text>
</a>
</g>
</g>
<!-- Node3&#45;&gt;Node12 -->
<g id="edge11_Node000003_Node000012" class="edge">
<title>Node3&#45;&gt;Node12</title>
<g id="a_edge11_Node000003_Node000012"><a xlink:title=" ">
<path fill="none" stroke="#63b8ff" d="M219.35,-54.98C196.15,-46.27 159.88,-32.63 133.6,-22.75"/>
<polygon fill="#63b8ff" stroke="#63b8ff" points="134.66,-19.41 124.07,-19.17 132.2,-25.97 134.66,-19.41"/>
</a>
</g>
</g>
<!-- Node13&#45;&gt;Node3 -->
<g id="edge13_Node000013_Node000003" class="edge">
<title>Node13&#45;&gt;Node3</title>
<g id="a_edge13_Node000013_Node000003"><a xlink:title=" ">
<path fill="none" stroke="#63b8ff" d="M590.91,-115.01C516.99,-105.41 397.18,-89.46 294,-74 292.7,-73.81 291.39,-73.61 290.06,-73.4"/>
<polygon fill="#63b8ff" stroke="#63b8ff" points="290.18,-69.88 279.76,-71.79 289.09,-76.79 290.18,-69.88"/>
</a>
</g>
</g>
<!-- Node13&#45;&gt;Node4 -->
<g id="edge23_Node000013_Node000004" class="edge">
<title>Node13&#45;&gt;Node4</title>
<g id="a_edge23_Node000013_Node000004"><a xlink:title=" ">
<path fill="none" stroke="#63b8ff" d="M731.04,-120.44C800.22,-115.29 899.06,-102.95 923,-74 928.38,-67.49 928.37,-61.52 923,-55 899.58,-26.54 793.02,-16.01 734.6,-12.34"/>
<polygon fill="#63b8ff" stroke="#63b8ff" points="734.47,-8.82 724.29,-11.73 734.06,-15.81 734.47,-8.82"/>
</a>
</g>
</g>
<!-- Node13&#45;&gt;Node5 -->
<g id="edge21_Node000013_Node000005" class="edge">
<title>Node13&#45;&gt;Node5</title>
<g id="a_edge21_Node000013_Node000005"><a xlink:title=" ">
<path fill="none" stroke="#63b8ff" d="M731.24,-121.32C804.74,-116.87 913.01,-105.08 939,-74 956.76,-52.76 923.33,-33.96 894.18,-22.44"/>
<polygon fill="#63b8ff" stroke="#63b8ff" points="895.13,-19.05 884.54,-18.81 892.67,-25.61 895.13,-19.05"/>
</a>
</g>
</g>
<!-- Node13&#45;&gt;Node6 -->
<g id="edge22_Node000013_Node000006" class="edge">
<title>Node13&#45;&gt;Node6</title>
<g id="a_edge22_Node000013_Node000006"><a xlink:title=" ">
<path fill="none" stroke="#63b8ff" d="M731.23,-120.54C807.52,-115.36 922.83,-102.88 955,-74 967.38,-62.89 971.51,-43.95 972.76,-29.65"/>
<polygon fill="#63b8ff" stroke="#63b8ff" points="976.27,-29.56 973.25,-19.4 969.28,-29.22 976.27,-29.56"/>
</a>
</g>
</g>
<!-- Node13&#45;&gt;Node9 -->
<g id="edge17_Node000013_Node000009" class="edge">
<title>Node13&#45;&gt;Node9</title>
<g id="a_edge17_Node000013_Node000009"><a xlink:title=" ">
<path fill="none" stroke="#63b8ff" d="M590.77,-123.8C503.04,-121.88 360.34,-112.7 327,-74 321.49,-67.6 322.17,-61.93 327,-55 332.27,-47.44 380.87,-31.18 414.84,-20.55"/>
<polygon fill="#63b8ff" stroke="#63b8ff" points="415.91,-23.89 424.42,-17.58 413.83,-17.2 415.91,-23.89"/>
</a>
</g>
</g>
<!-- Node14 -->
<g id="Node000014" class="node">
<title>Node14</title>
<g id="a_Node000014"><a xlink:href="signal__flag_8h.html" target="_top" xlink:title=" ">
<polygon fill="white" stroke="#666666" points="414,-74 336,-74 336,-55 414,-55 414,-74"/>
<text text-anchor="middle" x="375" y="-62" font-family="Helvetica,sans-Serif" font-size="10.00">signal_flag.h</text>
</a>
</g>
</g>
<!-- Node13&#45;&gt;Node14 -->
<g id="edge14_Node000013_Node000014" class="edge">
<title>Node13&#45;&gt;Node14</title>
<g id="a_edge14_Node000013_Node000014"><a xlink:title=" ">
<path fill="none" stroke="#63b8ff" d="M592.5,-109.99C540.61,-99.38 470.58,-85.05 424.16,-75.56"/>
<polygon fill="#63b8ff" stroke="#63b8ff" points="424.84,-72.12 414.34,-73.55 423.43,-78.98 424.84,-72.12"/>
</a>
</g>
</g>
<!-- Node15 -->
<g id="Node000015" class="node">
<title>Node15</title>
<g id="a_Node000015"><a xlink:title=" ">
<polygon fill="#e0e0e0" stroke="#999999" points="540,-74 432,-74 432,-55 540,-55 540,-74"/>
<text text-anchor="middle" x="486" y="-62" font-family="Helvetica,sans-Serif" font-size="10.00">readline/readline.h</text>
</a>
</g>
</g>
<!-- Node13&#45;&gt;Node15 -->
<g id="edge15_Node000013_Node000015" class="edge">
<title>Node13&#45;&gt;Node15</title>
<g id="a_edge15_Node000013_Node000015"><a xlink:title=" ">
<path fill="none" stroke="#63b8ff" d="M619.08,-109.99C589.27,-100.02 549.67,-86.78 521.44,-77.35"/>
<polygon fill="#63b8ff" stroke="#63b8ff" points="522.18,-73.9 511.59,-74.05 519.96,-80.54 522.18,-73.9"/>
</a>
</g>
</g>
<!-- Node16 -->
<g id="Node000016" class="node">
<title>Node16</title>
<g id="a_Node000016"><a xlink:title=" ">
<polygon fill="#e0e0e0" stroke="#999999" points="659.5,-74 558.5,-74 558.5,-55 659.5,-55 659.5,-74"/>
<text text-anchor="middle" x="609" y="-62" font-family="Helvetica,sans-Serif" font-size="10.00">readline/history.h</text>
</a>
</g>
</g>
<!-- Node13&#45;&gt;Node16 -->
<g id="edge16_Node000013_Node000016" class="edge">
<title>Node13&#45;&gt;Node16</title>
<g id="a_edge16_Node000013_Node000016"><a xlink:title=" ">
<path fill="none" stroke="#63b8ff" d="M648.41,-109.84C640.94,-101.43 631.44,-90.74 623.63,-81.96"/>
<polygon fill="#63b8ff" stroke="#63b8ff" points="626.05,-79.41 616.79,-74.27 620.82,-84.07 626.05,-79.41"/>
</a>
</g>
</g>
<!-- Node17 -->
<g id="Node000017" class="node">
<title>Node17</title>
<g id="a_Node000017"><a xlink:title=" ">
<polygon fill="#e0e0e0" stroke="#999999" points="750,-74 678,-74 678,-55 750,-55 750,-74"/>
<text text-anchor="middle" x="714" y="-62" font-family="Helvetica,sans-Serif" font-size="10.00">sys/types.h</text>
</a>
</g>
</g>
<!-- Node13&#45;&gt;Node17 -->
<g id="edge18_Node000013_Node000017" class="edge">
<title>Node13&#45;&gt;Node17</title>
<g id="a_edge18_Node000013_Node000017"><a xlink:title=" ">
<path fill="none" stroke="#63b8ff" d="M673.83,-109.84C681.52,-101.35 691.33,-90.52 699.33,-81.69"/>
<polygon fill="#63b8ff" stroke="#63b8ff" points="701.94,-84.03 706.06,-74.27 696.75,-79.33 701.94,-84.03"/>
</a>
</g>
</g>
<!-- Node18 -->
<g id="Node000018" class="node">
<title>Node18</title>
<g id="a_Node000018"><a xlink:title=" ">
<polygon fill="#e0e0e0" stroke="#999999" points="834,-74 768,-74 768,-55 834,-55 834,-74"/>
<text text-anchor="middle" x="801" y="-62" font-family="Helvetica,sans-Serif" font-size="10.00">sys/wait.h</text>
</a>
</g>
</g>
<!-- Node13&#45;&gt;Node18 -->
<g id="edge19_Node000013_Node000018" class="edge">
<title>Node13&#45;&gt;Node18</title>
<g id="a_edge19_Node000013_Node000018"><a xlink:title=" ">
<path fill="none" stroke="#63b8ff" d="M694.53,-109.99C717.79,-100.27 748.49,-87.44 770.95,-78.06"/>
<polygon fill="#63b8ff" stroke="#63b8ff" points="772.45,-81.22 780.32,-74.14 769.75,-74.77 772.45,-81.22"/>
</a>
</g>
</g>
<!-- Node19 -->
<g id="Node000019" class="node">
<title>Node19</title>
<g id="a_Node000019"><a xlink:title=" ">
<polygon fill="#e0e0e0" stroke="#999999" points="914,-74 852,-74 852,-55 914,-55 914,-74"/>
<text text-anchor="middle" x="883" y="-62" font-family="Helvetica,sans-Serif" font-size="10.00">stdbool.h</text>
</a>
</g>
</g>
<!-- Node13&#45;&gt;Node19 -->
<g id="edge20_Node000013_Node000019" class="edge">
<title>Node13&#45;&gt;Node19</title>
<g id="a_edge20_Node000013_Node000019"><a xlink:title=" ">
<path fill="none" stroke="#63b8ff" d="M714.17,-109.99C753.45,-99.64 806.14,-85.75 842.14,-76.27"/>
<polygon fill="#63b8ff" stroke="#63b8ff" points="843.05,-79.65 851.83,-73.71 841.27,-72.88 843.05,-79.65"/>
</a>
</g>
</g>
<!-- Node20&#45;&gt;Node13 -->
<g id="edge25_Node000020_Node000013" class="edge">
<title>Node20&#45;&gt;Node13</title>
<g id="a_edge25_Node000020_Node000013"><a xlink:title=" ">
<path fill="none" stroke="#63b8ff" d="M571.49,-175.87C586,-167.78 608.19,-155.42 626.84,-145.03"/>
<polygon fill="#63b8ff" stroke="#63b8ff" points="628.63,-148.04 635.67,-140.11 625.23,-141.92 628.63,-148.04"/>
</a>
</g>
</g>
</g>
</svg>
