<?xml version="1.0" encoding="UTF-8" standalone="no"?>
<!DOCTYPE svg PUBLIC "-//W3C//DTD SVG 1.1//EN"
 "http://www.w3.org/Graphics/SVG/1.1/DTD/svg11.dtd">
<!-- Generated by graphviz version 2.43.0 (0)
 -->
<!-- Title: ft_isalnum Pages: 1 -->
<svg width="1751pt" height="218pt"
 viewBox="0.00 0.00 1751.00 217.50" xmlns="http://www.w3.org/2000/svg" xmlns:xlink="http://www.w3.org/1999/xlink">
<g id="graph0" class="graph" transform="scale(1 1) rotate(0) translate(4 213.5)">
<title>ft_isalnum</title>
<!-- Node1 -->
<g id="Node000001" class="node">
<title>Node1</title>
<g id="a_Node000001"><a xlink:title="Checks whether a character is alphanumeric.">
<polygon fill="#999999" stroke="#666666" points="1743,-88 1675,-88 1675,-69 1743,-69 1743,-88"/>
<text text-anchor="middle" x="1709" y="-76" font-family="Helvetica,sans-Serif" font-size="10.00">ft_isalnum</text>
</a>
</g>
</g>
<!-- Node2 -->
<g id="Node000002" class="node">
<title>Node2</title>
<g id="a_Node000002"><a xlink:href="check__sintax__utils_8c.html#ad4c2c747cfe6cf3d23dff0a99937f136" target="_top" xlink:title="Checks the syntactic correctness of a here&#45;document.">
<polygon fill="white" stroke="#666666" points="1630,-144 1541,-144 1541,-125 1630,-125 1630,-144"/>
<text text-anchor="middle" x="1585.5" y="-132" font-family="Helvetica,sans-Serif" font-size="10.00">check_heredoc</text>
</a>
</g>
</g>
<!-- Node1&#45;&gt;Node2 -->
<g id="edge1_Node000001_Node000002" class="edge">
<title>Node1&#45;&gt;Node2</title>
<g id="a_edge1_Node000001_Node000002"><a xlink:title=" ">
<path fill="none" stroke="#63b8ff" d="M1683.72,-93.22C1670.73,-100.75 1654.29,-109.73 1639,-116.5 1632.13,-119.54 1624.57,-122.4 1617.38,-124.91"/>
<polygon fill="#63b8ff" stroke="#63b8ff" points="1685.66,-96.14 1692.5,-88.05 1682.11,-90.11 1685.66,-96.14"/>
</a>
</g>
</g>
<!-- Node8 -->
<g id="Node000008" class="node">
<title>Node8</title>
<g id="a_Node000008"><a xlink:href="utils__env_8c.html#a4ea711c91d64ff7669bf6ac7e6b6b9dd" target="_top" xlink:title="Expands an environment variable found in a string.">
<polygon fill="white" stroke="#666666" points="1618,-107 1553,-107 1553,-88 1618,-88 1618,-107"/>
<text text-anchor="middle" x="1585.5" y="-95" font-family="Helvetica,sans-Serif" font-size="10.00">ft_expand</text>
</a>
</g>
</g>
<!-- Node1&#45;&gt;Node8 -->
<g id="edge7_Node000001_Node000008" class="edge">
<title>Node1&#45;&gt;Node8</title>
<g id="a_edge7_Node000001_Node000008"><a xlink:title=" ">
<path fill="none" stroke="#63b8ff" d="M1664.56,-85.29C1649.33,-87.67 1632.51,-90.3 1618.4,-92.51"/>
<polygon fill="#63b8ff" stroke="#63b8ff" points="1665.46,-88.69 1674.8,-83.69 1664.38,-81.78 1665.46,-88.69"/>
</a>
</g>
</g>
<!-- Node20 -->
<g id="Node000020" class="node">
<title>Node20</title>
<g id="a_Node000020"><a xlink:href="utils__export__unset_8c.html#a054fceec4fb7c4bdd5f9d5d958d1b535" target="_top" xlink:title="Checks if a string is a valid identifier for environment variables.">
<polygon fill="white" stroke="#666666" points="1637,-70 1534,-70 1534,-51 1637,-51 1637,-70"/>
<text text-anchor="middle" x="1585.5" y="-58" font-family="Helvetica,sans-Serif" font-size="10.00">is_valid_identifier</text>
</a>
</g>
</g>
<!-- Node1&#45;&gt;Node20 -->
<g id="edge22_Node000001_Node000020" class="edge">
<title>Node1&#45;&gt;Node20</title>
<g id="a_edge22_Node000001_Node000020"><a xlink:title=" ">
<path fill="none" stroke="#63b8ff" d="M1664.73,-72.09C1655.9,-70.78 1646.53,-69.39 1637.45,-68.05"/>
<polygon fill="#63b8ff" stroke="#63b8ff" points="1664.39,-75.58 1674.8,-73.58 1665.42,-68.65 1664.39,-75.58"/>
</a>
</g>
</g>
<!-- Node30 -->
<g id="Node000030" class="node">
<title>Node30</title>
<g id="a_Node000030"><a xlink:href="utils__export__unset_8c.html#ad79b1c3a9dc66c11e0066ba43dcb0eb2" target="_top" xlink:title="Checks if the argument passed to unset is valid.">
<polygon fill="white" stroke="#666666" points="1639,-33 1532,-33 1532,-14 1639,-14 1639,-33"/>
<text text-anchor="middle" x="1585.5" y="-21" font-family="Helvetica,sans-Serif" font-size="10.00">is_valid_unset_arg</text>
</a>
</g>
</g>
<!-- Node1&#45;&gt;Node30 -->
<g id="edge34_Node000001_Node000030" class="edge">
<title>Node1&#45;&gt;Node30</title>
<g id="a_edge34_Node000001_Node000030"><a xlink:title=" ">
<path fill="none" stroke="#63b8ff" d="M1683.15,-63.92C1670.24,-56.66 1654.04,-48.06 1639,-41.5 1632.02,-38.46 1624.35,-35.58 1617.08,-33.05"/>
<polygon fill="#63b8ff" stroke="#63b8ff" points="1681.5,-67 1691.92,-68.91 1684.97,-60.92 1681.5,-67"/>
</a>
</g>
</g>
<!-- Node3 -->
<g id="Node000003" class="node">
<title>Node3</title>
<g id="a_Node000003"><a xlink:href="check__sintax_8c.html#a3dadca8fc2261c0e335299829d01f84b" target="_top" xlink:title="Checks for syntax errors on a single token.">
<polygon fill="white" stroke="#666666" points="1490,-196 1398,-196 1398,-177 1490,-177 1490,-196"/>
<text text-anchor="middle" x="1444" y="-184" font-family="Helvetica,sans-Serif" font-size="10.00">ft_sintax_errors</text>
</a>
</g>
</g>
<!-- Node2&#45;&gt;Node3 -->
<g id="edge2_Node000002_Node000003" class="edge">
<title>Node2&#45;&gt;Node3</title>
<g id="a_edge2_Node000002_Node000003"><a xlink:title=" ">
<path fill="none" stroke="#63b8ff" d="M1549.31,-147.62C1524.91,-156.71 1492.97,-168.62 1470.9,-176.85"/>
<polygon fill="#63b8ff" stroke="#63b8ff" points="1550.77,-150.81 1558.91,-144.04 1548.32,-144.25 1550.77,-150.81"/>
</a>
</g>
</g>
<!-- Node4 -->
<g id="Node000004" class="node">
<title>Node4</title>
<g id="a_Node000004"><a xlink:href="check__sintax_8c.html#a8ed15b7dba2bb1e02a43dae2f00459af" target="_top" xlink:title="Checks the syntax of the entire token list.">
<polygon fill="white" stroke="#666666" points="389,-197 309,-197 309,-178 389,-178 389,-197"/>
<text text-anchor="middle" x="349" y="-185" font-family="Helvetica,sans-Serif" font-size="10.00">check_sintax</text>
</a>
</g>
</g>
<!-- Node3&#45;&gt;Node4 -->
<g id="edge3_Node000003_Node000004" class="edge">
<title>Node3&#45;&gt;Node4</title>
<g id="a_edge3_Node000003_Node000004"><a xlink:title=" ">
<path fill="none" stroke="#63b8ff" d="M1387.87,-193.71C1331.48,-200.46 1241.29,-209.5 1163,-209.5 1163,-209.5 1163,-209.5 588.5,-209.5 518.02,-209.5 436.31,-199.86 389.15,-193.34"/>
<polygon fill="#63b8ff" stroke="#63b8ff" points="1388.49,-197.16 1397.99,-192.48 1387.64,-190.21 1388.49,-197.16"/>
</a>
</g>
</g>
<!-- Node5 -->
<g id="Node000005" class="node">
<title>Node5</title>
<g id="a_Node000005"><a xlink:href="main__utils_8c.html#a7e8f478480ab6ab34d6f5eadaf6acdb9" target="_top" xlink:title="Handles parsing and execution of tokens.">
<polygon fill="white" stroke="#666666" points="273,-95 192,-95 192,-76 273,-76 273,-95"/>
<text text-anchor="middle" x="232.5" y="-83" font-family="Helvetica,sans-Serif" font-size="10.00">ft_token_flow</text>
</a>
</g>
</g>
<!-- Node4&#45;&gt;Node5 -->
<g id="edge4_Node000004_Node000005" class="edge">
<title>Node4&#45;&gt;Node5</title>
<g id="a_edge4_Node000004_Node000005"><a xlink:title=" ">
<path fill="none" stroke="#63b8ff" d="M329.24,-170.79C305.04,-149.23 263.76,-112.45 244.28,-95.1"/>
<polygon fill="#63b8ff" stroke="#63b8ff" points="327.23,-173.68 337.02,-177.72 331.88,-168.45 327.23,-173.68"/>
</a>
</g>
</g>
<!-- Node6 -->
<g id="Node000006" class="node">
<title>Node6</title>
<g id="a_Node000006"><a xlink:href="main__utils_8c.html#ae35edfb8f1339d6f77f53c28eb2a2ed6" target="_top" xlink:title="Handles a complete cycle of input → parsing → execution.">
<polygon fill="white" stroke="#666666" points="156,-95 77,-95 77,-76 156,-76 156,-95"/>
<text text-anchor="middle" x="116.5" y="-83" font-family="Helvetica,sans-Serif" font-size="10.00">ft_main_flow</text>
</a>
</g>
</g>
<!-- Node5&#45;&gt;Node6 -->
<g id="edge5_Node000005_Node000006" class="edge">
<title>Node5&#45;&gt;Node6</title>
<g id="a_edge5_Node000005_Node000006"><a xlink:title=" ">
<path fill="none" stroke="#63b8ff" d="M181.7,-85.5C173.16,-85.5 164.4,-85.5 156.21,-85.5"/>
<polygon fill="#63b8ff" stroke="#63b8ff" points="181.95,-89 191.95,-85.5 181.95,-82 181.95,-89"/>
</a>
</g>
</g>
<!-- Node7 -->
<g id="Node000007" class="node">
<title>Node7</title>
<g id="a_Node000007"><a xlink:href="main_8c.html#ab3862b46d6a8d13c2d884a297e6b05b5" target="_top" xlink:title="Main function of the minishell.">
<polygon fill="white" stroke="#666666" points="41,-95 0,-95 0,-76 41,-76 41,-95"/>
<text text-anchor="middle" x="20.5" y="-83" font-family="Helvetica,sans-Serif" font-size="10.00">main</text>
</a>
</g>
</g>
<!-- Node6&#45;&gt;Node7 -->
<g id="edge6_Node000006_Node000007" class="edge">
<title>Node6&#45;&gt;Node7</title>
<g id="a_edge6_Node000006_Node000007"><a xlink:title=" ">
<path fill="none" stroke="#63b8ff" d="M66.74,-85.5C57.62,-85.5 48.59,-85.5 41.03,-85.5"/>
<polygon fill="#63b8ff" stroke="#63b8ff" points="67,-89 77,-85.5 67,-82 67,-89"/>
</a>
</g>
</g>
<!-- Node9 -->
<g id="Node000009" class="node">
<title>Node9</title>
<g id="a_Node000009"><a xlink:href="utils__env_8c.html#a78e10627f49df6e904925e22ae6ee15f" target="_top" xlink:title="Performs environment variable expansion in a string.">
<polygon fill="white" stroke="#666666" points="1496,-117 1392,-117 1392,-98 1496,-98 1496,-117"/>
<text text-anchor="middle" x="1444" y="-105" font-family="Helvetica,sans-Serif" font-size="10.00">ft_expand_envvar</text>
</a>
</g>
</g>
<!-- Node8&#45;&gt;Node9 -->
<g id="edge8_Node000008_Node000009" class="edge">
<title>Node8&#45;&gt;Node9</title>
<g id="a_edge8_Node000008_Node000009"><a xlink:title=" ">
<path fill="none" stroke="#63b8ff" d="M1542.61,-100.5C1528.02,-101.55 1511.49,-102.73 1496.23,-103.83"/>
<polygon fill="#63b8ff" stroke="#63b8ff" points="1543.12,-103.98 1552.85,-99.77 1542.62,-96.99 1543.12,-103.98"/>
</a>
</g>
</g>
<!-- Node10 -->
<g id="Node000010" class="node">
<title>Node10</title>
<g id="a_Node000010"><a xlink:href="create__command__list_8c.html#a9fb2e7501277f2f93e5c7042fec32429" target="_top" xlink:title="Adds an argument to the command’s argument list.">
<polygon fill="white" stroke="#666666" points="918,-181 857,-181 857,-162 918,-162 918,-181"/>
<text text-anchor="middle" x="887.5" y="-169" font-family="Helvetica,sans-Serif" font-size="10.00">add_args</text>
</a>
</g>
</g>
<!-- Node9&#45;&gt;Node10 -->
<g id="edge9_Node000009_Node000010" class="edge">
<title>Node9&#45;&gt;Node10</title>
<g id="a_edge9_Node000009_Node000010"><a xlink:title=" ">
<path fill="none" stroke="#63b8ff" d="M1416.78,-121.89C1399.95,-130.38 1377.31,-140.43 1356,-145.5 1194.28,-183.99 992.61,-177.58 918.01,-173.44"/>
<polygon fill="#63b8ff" stroke="#63b8ff" points="1418.71,-124.83 1425.97,-117.12 1415.49,-118.62 1418.71,-124.83"/>
</a>
</g>
</g>
<!-- Node12 -->
<g id="Node000012" class="node">
<title>Node12</title>
<g id="a_Node000012"><a xlink:href="main__utils_8c.html#a5aeae9d23b7c4e831229866f395977e7" target="_top" xlink:title="Handles printing of a single environment variable.">
<polygon fill="white" stroke="#666666" points="782,-95 689,-95 689,-76 782,-76 782,-95"/>
<text text-anchor="middle" x="735.5" y="-83" font-family="Helvetica,sans-Serif" font-size="10.00">ft_env_var_flow</text>
</a>
</g>
</g>
<!-- Node9&#45;&gt;Node12 -->
<g id="edge12_Node000009_Node000012" class="edge">
<title>Node9&#45;&gt;Node12</title>
<g id="a_edge12_Node000009_Node000012"><a xlink:title=" ">
<path fill="none" stroke="#63b8ff" d="M1381.75,-100.95C1325.08,-95.45 1238.45,-88.5 1163,-88.5 1163,-88.5 1163,-88.5 1031,-88.5 942.93,-88.5 840.05,-87.14 782.16,-86.25"/>
<polygon fill="#63b8ff" stroke="#63b8ff" points="1381.68,-104.46 1391.98,-101.95 1382.37,-97.49 1381.68,-104.46"/>
</a>
</g>
</g>
<!-- Node13 -->
<g id="Node000013" class="node">
<title>Node13</title>
<g id="a_Node000013"><a xlink:href="redir__utils_8c.html#aff3d6a56d03d5df38cbb3e1f171eb191" target="_top" xlink:title="Expands environment variables in a line and writes the result to a file descriptor.">
<polygon fill="white" stroke="#666666" points="1342.5,-136 1256.5,-136 1256.5,-117 1342.5,-117 1342.5,-136"/>
<text text-anchor="middle" x="1299.5" y="-124" font-family="Helvetica,sans-Serif" font-size="10.00">ft_for_env_var</text>
</a>
</g>
</g>
<!-- Node9&#45;&gt;Node13 -->
<g id="edge14_Node000009_Node000013" class="edge">
<title>Node9&#45;&gt;Node13</title>
<g id="a_edge14_Node000009_Node000013"><a xlink:title=" ">
<path fill="none" stroke="#63b8ff" d="M1381.97,-115.64C1368.75,-117.4 1355.05,-119.23 1342.74,-120.87"/>
<polygon fill="#63b8ff" stroke="#63b8ff" points="1382.51,-119.1 1391.96,-114.31 1381.58,-112.16 1382.51,-119.1"/>
</a>
</g>
</g>
<!-- Node11 -->
<g id="Node000011" class="node">
<title>Node11</title>
<g id="a_Node000011"><a xlink:href="create__command__list_8c.html#ad16d74756b107a98677124008c71d23b" target="_top" xlink:title="Creates a command list from tokens.">
<polygon fill="white" stroke="#666666" points="383,-138 315,-138 315,-119 383,-119 383,-138"/>
<text text-anchor="middle" x="349" y="-126" font-family="Helvetica,sans-Serif" font-size="10.00">create_list</text>
</a>
</g>
</g>
<!-- Node10&#45;&gt;Node11 -->
<g id="edge10_Node000010_Node000011" class="edge">
<title>Node10&#45;&gt;Node11</title>
<g id="a_edge10_Node000010_Node000011"><a xlink:title=" ">
<path fill="none" stroke="#63b8ff" d="M846.72,-172.04C766.48,-172.57 579.69,-170.88 425,-147.5 410.66,-145.33 395.07,-141.61 381.84,-138.03"/>
<polygon fill="#63b8ff" stroke="#63b8ff" points="846.9,-175.54 856.87,-171.96 846.84,-168.54 846.9,-175.54"/>
</a>
</g>
</g>
<!-- Node11&#45;&gt;Node5 -->
<g id="edge11_Node000011_Node000005" class="edge">
<title>Node11&#45;&gt;Node5</title>
<g id="a_edge11_Node000011_Node000005"><a xlink:title=" ">
<path fill="none" stroke="#63b8ff" d="M312.76,-115.26C295.33,-108.72 274.69,-100.97 258.84,-95.02"/>
<polygon fill="#63b8ff" stroke="#63b8ff" points="312,-118.72 322.59,-118.96 314.46,-112.16 312,-118.72"/>
</a>
</g>
</g>
<!-- Node12&#45;&gt;Node5 -->
<g id="edge13_Node000012_Node000005" class="edge">
<title>Node12&#45;&gt;Node5</title>
<g id="a_edge13_Node000012_Node000005"><a xlink:title=" ">
<path fill="none" stroke="#63b8ff" d="M678.59,-85.5C576.35,-85.5 361.64,-85.5 273.03,-85.5"/>
<polygon fill="#63b8ff" stroke="#63b8ff" points="678.71,-89 688.71,-85.5 678.71,-82 678.71,-89"/>
</a>
</g>
</g>
<!-- Node14 -->
<g id="Node000014" class="node">
<title>Node14</title>
<g id="a_Node000014"><a xlink:href="handle__heredoc_8c.html#ac5ba13b1edbd22e4a7e0a50fc91f80db" target="_top" xlink:title="Executes a single read&#45;write cycle of the here&#45;document.">
<polygon fill="white" stroke="#666666" points="1207,-136 1117,-136 1117,-117 1207,-117 1207,-136"/>
<text text-anchor="middle" x="1162" y="-124" font-family="Helvetica,sans-Serif" font-size="10.00">ft_exe_heredoc</text>
</a>
</g>
</g>
<!-- Node13&#45;&gt;Node14 -->
<g id="edge15_Node000013_Node000014" class="edge">
<title>Node13&#45;&gt;Node14</title>
<g id="a_edge15_Node000013_Node000014"><a xlink:title=" ">
<path fill="none" stroke="#63b8ff" d="M1246.29,-126.5C1233.47,-126.5 1219.87,-126.5 1207.45,-126.5"/>
<polygon fill="#63b8ff" stroke="#63b8ff" points="1246.37,-130 1256.37,-126.5 1246.37,-123 1246.37,-130"/>
</a>
</g>
</g>
<!-- Node15 -->
<g id="Node000015" class="node">
<title>Node15</title>
<g id="a_Node000015"><a xlink:href="handle__heredoc_8c.html#a922eae1c49290306f7cf811bf65d9ed1" target="_top" xlink:title="Handles the entire input process for a here&#45;document.">
<polygon fill="white" stroke="#666666" points="1079,-136 985,-136 985,-117 1079,-117 1079,-136"/>
<text text-anchor="middle" x="1032" y="-124" font-family="Helvetica,sans-Serif" font-size="10.00">handle_heredoc</text>
</a>
</g>
</g>
<!-- Node14&#45;&gt;Node15 -->
<g id="edge16_Node000014_Node000015" class="edge">
<title>Node14&#45;&gt;Node15</title>
<g id="a_edge16_Node000014_Node000015"><a xlink:title=" ">
<path fill="none" stroke="#63b8ff" d="M1106.79,-126.5C1097.64,-126.5 1088.23,-126.5 1079.31,-126.5"/>
<polygon fill="#63b8ff" stroke="#63b8ff" points="1106.95,-130 1116.95,-126.5 1106.95,-123 1106.95,-130"/>
</a>
</g>
</g>
<!-- Node16 -->
<g id="Node000016" class="node">
<title>Node16</title>
<g id="a_Node000016"><a xlink:href="handle__redirections_8c.html#a2834314002a1f4ef4af82f95159b0a34" target="_top" xlink:title="Handles input redirection from file or heredoc.">
<polygon fill="white" stroke="#666666" points="947,-136 828,-136 828,-117 947,-117 947,-136"/>
<text text-anchor="middle" x="887.5" y="-124" font-family="Helvetica,sans-Serif" font-size="10.00">ft_handle_infile_redir</text>
</a>
</g>
</g>
<!-- Node15&#45;&gt;Node16 -->
<g id="edge17_Node000015_Node000016" class="edge">
<title>Node15&#45;&gt;Node16</title>
<g id="a_edge17_Node000015_Node000016"><a xlink:title=" ">
<path fill="none" stroke="#63b8ff" d="M974.66,-126.5C965.58,-126.5 956.15,-126.5 947.02,-126.5"/>
<polygon fill="#63b8ff" stroke="#63b8ff" points="974.73,-130 984.73,-126.5 974.73,-123 974.73,-130"/>
</a>
</g>
</g>
<!-- Node17 -->
<g id="Node000017" class="node">
<title>Node17</title>
<g id="a_Node000017"><a xlink:href="handle__redirections_8c.html#aa4509a43f47ed881eb2d81fb81458466" target="_top" xlink:title="Handles redirections without an associated command.">
<polygon fill="white" stroke="#666666" points="792,-143.5 679,-143.5 679,-113.5 792,-113.5 792,-143.5"/>
<text text-anchor="start" x="687" y="-131.5" font-family="Helvetica,sans-Serif" font-size="10.00">handle_redirection</text>
<text text-anchor="middle" x="735.5" y="-120.5" font-family="Helvetica,sans-Serif" font-size="10.00">_without_command</text>
</a>
</g>
</g>
<!-- Node16&#45;&gt;Node17 -->
<g id="edge18_Node000016_Node000017" class="edge">
<title>Node16&#45;&gt;Node17</title>
<g id="a_edge18_Node000016_Node000017"><a xlink:title=" ">
<path fill="none" stroke="#63b8ff" d="M817.43,-127.42C808.99,-127.53 800.45,-127.65 792.24,-127.76"/>
<polygon fill="#63b8ff" stroke="#63b8ff" points="817.69,-130.92 827.65,-127.28 817.6,-123.92 817.69,-130.92"/>
</a>
</g>
</g>
<!-- Node18 -->
<g id="Node000018" class="node">
<title>Node18</title>
<g id="a_Node000018"><a xlink:href="handle__redirections_8c.html#ab2c37fefb1291d3f8d0dc91e8c096334" target="_top" xlink:title="Handles redirection associated with a command.">
<polygon fill="white" stroke="#666666" points="643,-138 536,-138 536,-119 643,-119 643,-138"/>
<text text-anchor="middle" x="589.5" y="-126" font-family="Helvetica,sans-Serif" font-size="10.00">handle_redirection</text>
</a>
</g>
</g>
<!-- Node17&#45;&gt;Node18 -->
<g id="edge19_Node000017_Node000018" class="edge">
<title>Node17&#45;&gt;Node18</title>
<g id="a_edge19_Node000017_Node000018"><a xlink:title=" ">
<path fill="none" stroke="#63b8ff" d="M668.55,-128.5C660.05,-128.5 651.44,-128.5 643.19,-128.5"/>
<polygon fill="#63b8ff" stroke="#63b8ff" points="668.83,-132 678.83,-128.5 668.83,-125 668.83,-132"/>
</a>
</g>
</g>
<!-- Node19 -->
<g id="Node000019" class="node">
<title>Node19</title>
<g id="a_Node000019"><a xlink:href="create__command__list_8c.html#ae2006bf82a70d4753ffdca65847316ca" target="_top" xlink:title="Executes a redirection for the current command.">
<polygon fill="white" stroke="#666666" points="499.5,-138 425.5,-138 425.5,-119 499.5,-119 499.5,-138"/>
<text text-anchor="middle" x="462.5" y="-126" font-family="Helvetica,sans-Serif" font-size="10.00">ft_exe_redir</text>
</a>
</g>
</g>
<!-- Node18&#45;&gt;Node19 -->
<g id="edge20_Node000018_Node000019" class="edge">
<title>Node18&#45;&gt;Node19</title>
<g id="a_edge20_Node000018_Node000019"><a xlink:title=" ">
<path fill="none" stroke="#63b8ff" d="M525.81,-128.5C516.89,-128.5 507.98,-128.5 499.79,-128.5"/>
<polygon fill="#63b8ff" stroke="#63b8ff" points="525.85,-132 535.85,-128.5 525.85,-125 525.85,-132"/>
</a>
</g>
</g>
<!-- Node19&#45;&gt;Node11 -->
<g id="edge21_Node000019_Node000011" class="edge">
<title>Node19&#45;&gt;Node11</title>
<g id="a_edge21_Node000019_Node000011"><a xlink:title=" ">
<path fill="none" stroke="#63b8ff" d="M415.15,-128.5C404.36,-128.5 393.08,-128.5 383,-128.5"/>
<polygon fill="#63b8ff" stroke="#63b8ff" points="415.3,-132 425.3,-128.5 415.3,-125 415.3,-132"/>
</a>
</g>
</g>
<!-- Node21 -->
<g id="Node000021" class="node">
<title>Node21</title>
<g id="a_Node000021"><a xlink:href="export_8c.html#aa1462300aee0c9091833b58ece6c6506" target="_top" xlink:title="Executes export on a single argument.">
<polygon fill="white" stroke="#666666" points="1485.5,-70 1402.5,-70 1402.5,-51 1485.5,-51 1485.5,-70"/>
<text text-anchor="middle" x="1444" y="-58" font-family="Helvetica,sans-Serif" font-size="10.00">ft_exe_export</text>
</a>
</g>
</g>
<!-- Node20&#45;&gt;Node21 -->
<g id="edge23_Node000020_Node000021" class="edge">
<title>Node20&#45;&gt;Node21</title>
<g id="a_edge23_Node000020_Node000021"><a xlink:title=" ">
<path fill="none" stroke="#63b8ff" d="M1523.63,-60.5C1510.87,-60.5 1497.71,-60.5 1485.9,-60.5"/>
<polygon fill="#63b8ff" stroke="#63b8ff" points="1523.74,-64 1533.74,-60.5 1523.74,-57 1523.74,-64"/>
</a>
</g>
</g>
<!-- Node22 -->
<g id="Node000022" class="node">
<title>Node22</title>
<g id="a_Node000022"><a xlink:href="export_8c.html#a962491ce27455342a86cefa998c352fd" target="_top" xlink:title="Handles the export command with arguments.">
<polygon fill="white" stroke="#666666" points="1356,-60 1243,-60 1243,-41 1356,-41 1356,-60"/>
<text text-anchor="middle" x="1299.5" y="-48" font-family="Helvetica,sans-Serif" font-size="10.00">ft_export_with_args</text>
</a>
</g>
</g>
<!-- Node21&#45;&gt;Node22 -->
<g id="edge24_Node000021_Node000022" class="edge">
<title>Node21&#45;&gt;Node22</title>
<g id="a_edge24_Node000021_Node000022"><a xlink:title=" ">
<path fill="none" stroke="#63b8ff" d="M1392.16,-56.93C1380.51,-56.11 1368.06,-55.24 1356.21,-54.41"/>
<polygon fill="#63b8ff" stroke="#63b8ff" points="1391.94,-60.43 1402.17,-57.63 1392.43,-53.44 1391.94,-60.43"/>
</a>
</g>
</g>
<!-- Node23 -->
<g id="Node000023" class="node">
<title>Node23</title>
<g id="a_Node000023"><a xlink:href="export_8c.html#a2b0f2ba2e9188c7b4f6ca5a44c1d0c8e" target="_top" xlink:title="Builtin function for the export command.">
<polygon fill="white" stroke="#666666" points="1192,-58 1132,-58 1132,-39 1192,-39 1192,-58"/>
<text text-anchor="middle" x="1162" y="-46" font-family="Helvetica,sans-Serif" font-size="10.00">ft_export</text>
</a>
</g>
</g>
<!-- Node22&#45;&gt;Node23 -->
<g id="edge25_Node000022_Node000023" class="edge">
<title>Node22&#45;&gt;Node23</title>
<g id="a_edge25_Node000022_Node000023"><a xlink:title=" ">
<path fill="none" stroke="#63b8ff" d="M1232.71,-49.53C1218.51,-49.32 1204.2,-49.11 1192.26,-48.93"/>
<polygon fill="#63b8ff" stroke="#63b8ff" points="1232.95,-53.03 1243,-49.68 1233.05,-46.03 1232.95,-53.03"/>
</a>
</g>
</g>
<!-- Node24 -->
<g id="Node000024" class="node">
<title>Node24</title>
<g id="a_Node000024"><a xlink:href="cmd__execution_8c.html#a5ce7231f800cbacea6350cc1a32a59bd" target="_top" xlink:title="Executes a list of non&#45;pipelined commands.">
<polygon fill="white" stroke="#666666" points="1068,-57 996,-57 996,-38 1068,-38 1068,-57"/>
<text text-anchor="middle" x="1032" y="-45" font-family="Helvetica,sans-Serif" font-size="10.00">ft_exe_cmd</text>
</a>
</g>
</g>
<!-- Node23&#45;&gt;Node24 -->
<g id="edge26_Node000023_Node000024" class="edge">
<title>Node23&#45;&gt;Node24</title>
<g id="a_edge26_Node000023_Node000024"><a xlink:title=" ">
<path fill="none" stroke="#63b8ff" d="M1121.75,-48.19C1104.71,-48.06 1084.89,-47.91 1068.32,-47.78"/>
<polygon fill="#63b8ff" stroke="#63b8ff" points="1121.93,-51.69 1131.95,-48.27 1121.98,-44.69 1121.93,-51.69"/>
</a>
</g>
</g>
<!-- Node25 -->
<g id="Node000025" class="node">
<title>Node25</title>
<g id="a_Node000025"><a xlink:href="cmd__execution_8c.html#a50e59fa2e4621831a415d4038f697c56" target="_top" xlink:title="Executes a command within a pipeline.">
<polygon fill="white" stroke="#666666" points="1081,-20 983,-20 983,-1 1081,-1 1081,-20"/>
<text text-anchor="middle" x="1032" y="-8" font-family="Helvetica,sans-Serif" font-size="10.00">ft_exe_pipe_cmd</text>
</a>
</g>
</g>
<!-- Node23&#45;&gt;Node25 -->
<g id="edge28_Node000023_Node000025" class="edge">
<title>Node23&#45;&gt;Node25</title>
<g id="a_edge28_Node000023_Node000025"><a xlink:title=" ">
<path fill="none" stroke="#63b8ff" d="M1122.19,-36.98C1103.92,-31.56 1082.4,-25.17 1065.08,-20.02"/>
<polygon fill="#63b8ff" stroke="#63b8ff" points="1121.37,-40.39 1131.95,-39.88 1123.36,-33.68 1121.37,-40.39"/>
</a>
</g>
</g>
<!-- Node24&#45;&gt;Node5 -->
<g id="edge27_Node000024_Node000005" class="edge">
<title>Node24&#45;&gt;Node5</title>
<g id="a_edge27_Node000024_Node000005"><a xlink:title=" ">
<path fill="none" stroke="#63b8ff" d="M985.37,-47.5C927.48,-47.5 824.58,-47.5 736.5,-47.5 736.5,-47.5 736.5,-47.5 461.5,-47.5 392.48,-47.5 313.28,-64.65 268.74,-75.91"/>
<polygon fill="#63b8ff" stroke="#63b8ff" points="985.64,-51 995.64,-47.5 985.64,-44 985.64,-51"/>
</a>
</g>
</g>
<!-- Node26 -->
<g id="Node000026" class="node">
<title>Node26</title>
<g id="a_Node000026"><a xlink:href="pipes_8c.html#a36a2d91a0566ad253efe3833b05e69d1" target="_top" xlink:title="Routine executed by the child process for each command in the pipe.">
<polygon fill="white" stroke="#666666" points="933.5,-19 841.5,-19 841.5,0 933.5,0 933.5,-19"/>
<text text-anchor="middle" x="887.5" y="-7" font-family="Helvetica,sans-Serif" font-size="10.00">ft_child_routine</text>
</a>
</g>
</g>
<!-- Node25&#45;&gt;Node26 -->
<g id="edge29_Node000025_Node000026" class="edge">
<title>Node25&#45;&gt;Node26</title>
<g id="a_edge29_Node000025_Node000026"><a xlink:title=" ">
<path fill="none" stroke="#63b8ff" d="M972.55,-10.09C959.62,-10 946.12,-9.9 933.81,-9.82"/>
<polygon fill="#63b8ff" stroke="#63b8ff" points="972.73,-13.59 982.76,-10.16 972.78,-6.59 972.73,-13.59"/>
</a>
</g>
</g>
<!-- Node27 -->
<g id="Node000027" class="node">
<title>Node27</title>
<g id="a_Node000027"><a xlink:href="pipes_8c.html#aa17e847997e7266a0a111ab3572756bb" target="_top" xlink:title="Manages pipe creation and fork to execute the current command.">
<polygon fill="white" stroke="#666666" points="780,-19 691,-19 691,0 780,0 780,-19"/>
<text text-anchor="middle" x="735.5" y="-7" font-family="Helvetica,sans-Serif" font-size="10.00">ft_pipe_routine</text>
</a>
</g>
</g>
<!-- Node26&#45;&gt;Node27 -->
<g id="edge30_Node000026_Node000027" class="edge">
<title>Node26&#45;&gt;Node27</title>
<g id="a_edge30_Node000026_Node000027"><a xlink:title=" ">
<path fill="none" stroke="#63b8ff" d="M831.23,-9.5C814.4,-9.5 796.14,-9.5 780.18,-9.5"/>
<polygon fill="#63b8ff" stroke="#63b8ff" points="831.5,-13 841.5,-9.5 831.5,-6 831.5,-13"/>
</a>
</g>
</g>
<!-- Node28 -->
<g id="Node000028" class="node">
<title>Node28</title>
<g id="a_Node000028"><a xlink:href="pipes_8c.html#a7a3b0de1a88a243da741f748881e14f0" target="_top" xlink:title="Executes a list of commands connected via pipes.">
<polygon fill="white" stroke="#666666" points="630,-19 549,-19 549,0 630,0 630,-19"/>
<text text-anchor="middle" x="589.5" y="-7" font-family="Helvetica,sans-Serif" font-size="10.00">execute_pipe</text>
</a>
</g>
</g>
<!-- Node27&#45;&gt;Node28 -->
<g id="edge31_Node000027_Node000028" class="edge">
<title>Node27&#45;&gt;Node28</title>
<g id="a_edge31_Node000027_Node000028"><a xlink:title=" ">
<path fill="none" stroke="#63b8ff" d="M680.66,-9.5C663.86,-9.5 645.65,-9.5 630.03,-9.5"/>
<polygon fill="#63b8ff" stroke="#63b8ff" points="680.9,-13 690.9,-9.5 680.9,-6 680.9,-13"/>
</a>
</g>
</g>
<!-- Node29 -->
<g id="Node000029" class="node">
<title>Node29</title>
<g id="a_Node000029"><a xlink:href="main__utils_8c.html#ad0183732909ae6e7c52e7b086c2e5642" target="_top" xlink:title="Manages the execution flow of commands with pipes.">
<polygon fill="white" stroke="#666666" points="500,-19 425,-19 425,0 500,0 500,-19"/>
<text text-anchor="middle" x="462.5" y="-7" font-family="Helvetica,sans-Serif" font-size="10.00">ft_pipe_flow</text>
</a>
</g>
</g>
<!-- Node28&#45;&gt;Node29 -->
<g id="edge32_Node000028_Node000029" class="edge">
<title>Node28&#45;&gt;Node29</title>
<g id="a_edge32_Node000028_Node000029"><a xlink:title=" ">
<path fill="none" stroke="#63b8ff" d="M538.83,-9.5C525.96,-9.5 512.32,-9.5 500.24,-9.5"/>
<polygon fill="#63b8ff" stroke="#63b8ff" points="538.95,-13 548.95,-9.5 538.95,-6 538.95,-13"/>
</a>
</g>
</g>
<!-- Node29&#45;&gt;Node5 -->
<g id="edge33_Node000029_Node000005" class="edge">
<title>Node29&#45;&gt;Node5</title>
<g id="a_edge33_Node000029_Node000005"><a xlink:title=" ">
<path fill="none" stroke="#63b8ff" d="M414.78,-11.47C383.85,-14.05 342.88,-19.98 309,-33.5 283.57,-43.64 258.23,-63.63 244.34,-75.65"/>
<polygon fill="#63b8ff" stroke="#63b8ff" points="415.15,-14.95 424.87,-10.71 414.63,-7.97 415.15,-14.95"/>
</a>
</g>
</g>
<!-- Node31 -->
<g id="Node000031" class="node">
<title>Node31</title>
<g id="a_Node000031"><a xlink:href="unset_8c.html#aabf1b9c17103a2c429513f9b4c84bccd" target="_top" xlink:title="Executes the unset operation on a single argument.">
<polygon fill="white" stroke="#666666" points="1477,-33 1411,-33 1411,-14 1477,-14 1477,-33"/>
<text text-anchor="middle" x="1444" y="-21" font-family="Helvetica,sans-Serif" font-size="10.00">exe_unset</text>
</a>
</g>
</g>
<!-- Node30&#45;&gt;Node31 -->
<g id="edge35_Node000030_Node000031" class="edge">
<title>Node30&#45;&gt;Node31</title>
<g id="a_edge35_Node000030_Node000031"><a xlink:title=" ">
<path fill="none" stroke="#63b8ff" d="M1521.73,-23.5C1506.32,-23.5 1490.45,-23.5 1477.17,-23.5"/>
<polygon fill="#63b8ff" stroke="#63b8ff" points="1521.76,-27 1531.76,-23.5 1521.76,-20 1521.76,-27"/>
</a>
</g>
</g>
<!-- Node32 -->
<g id="Node000032" class="node">
<title>Node32</title>
<g id="a_Node000032"><a xlink:href="unset_8c.html#afc37f76bba8f618bcf9eaafa7ee23618" target="_top" xlink:title="Builtin function for the unset command.">
<polygon fill="white" stroke="#666666" points="1190,-21 1134,-21 1134,-2 1190,-2 1190,-21"/>
<text text-anchor="middle" x="1162" y="-9" font-family="Helvetica,sans-Serif" font-size="10.00">ft_unset</text>
</a>
</g>
</g>
<!-- Node31&#45;&gt;Node32 -->
<g id="edge36_Node000031_Node000032" class="edge">
<title>Node31&#45;&gt;Node32</title>
<g id="a_edge36_Node000031_Node000032"><a xlink:title=" ">
<path fill="none" stroke="#63b8ff" d="M1400.54,-21.68C1342.24,-19.18 1239.07,-14.76 1190.17,-12.66"/>
<polygon fill="#63b8ff" stroke="#63b8ff" points="1400.74,-25.19 1410.88,-22.12 1401.04,-18.2 1400.74,-25.19"/>
</a>
</g>
</g>
<!-- Node32&#45;&gt;Node24 -->
<g id="edge37_Node000032_Node000024" class="edge">
<title>Node32&#45;&gt;Node24</title>
<g id="a_edge37_Node000032_Node000024"><a xlink:title=" ">
<path fill="none" stroke="#63b8ff" d="M1123.99,-21.91C1106,-26.97 1084.52,-33.01 1066.96,-37.95"/>
<polygon fill="#63b8ff" stroke="#63b8ff" points="1125.18,-25.21 1133.85,-19.13 1123.28,-18.47 1125.18,-25.21"/>
</a>
</g>
</g>
<!-- Node32&#45;&gt;Node25 -->
<g id="edge38_Node000032_Node000025" class="edge">
<title>Node32&#45;&gt;Node25</title>
<g id="a_edge38_Node000032_Node000025"><a xlink:title=" ">
<path fill="none" stroke="#63b8ff" d="M1123.63,-11.21C1110.32,-11.1 1095.13,-10.99 1081.04,-10.88"/>
<polygon fill="#63b8ff" stroke="#63b8ff" points="1123.83,-14.71 1133.85,-11.29 1123.88,-7.71 1123.83,-14.71"/>
</a>
</g>
</g>
</g>
</svg>
