<?xml version="1.0" encoding="UTF-8" standalone="no"?>
<!DOCTYPE svg PUBLIC "-//W3C//DTD SVG 1.1//EN"
 "http://www.w3.org/Graphics/SVG/1.1/DTD/svg11.dtd">
<!-- Generated by graphviz version 2.43.0 (0)
 -->
<!-- Title: ft_realloc_mtx Pages: 1 -->
<svg width="216pt" height="64pt"
 viewBox="0.00 0.00 216.00 64.00" xmlns="http://www.w3.org/2000/svg" xmlns:xlink="http://www.w3.org/1999/xlink">
<g id="graph0" class="graph" transform="scale(1 1) rotate(0) translate(4 60)">
<title>ft_realloc_mtx</title>
<!-- Node1 -->
<g id="Node000001" class="node">
<title>Node1</title>
<g id="a_Node000001"><a xlink:title="Reallocates a NULL&#45;terminated matrix of strings to a new size.">
<polygon fill="#999999" stroke="#666666" points="86,-37 0,-37 0,-18 86,-18 86,-37"/>
<text text-anchor="middle" x="43" y="-25" font-family="Helvetica,sans-Serif" font-size="10.00">ft_realloc_mtx</text>
</a>
</g>
</g>
<!-- Node2 -->
<g id="Node000002" class="node">
<title>Node2</title>
<g id="a_Node000002"><a xlink:href="ft__free__matrix_8c.html#a1ea6d1f3b50d1c23d4f0faddd1a13448" target="_top" xlink:title="Frees a NULL&#45;terminated matrix of strings.">
<polygon fill="white" stroke="#666666" points="208,-56 122,-56 122,-37 208,-37 208,-56"/>
<text text-anchor="middle" x="165" y="-44" font-family="Helvetica,sans-Serif" font-size="10.00">ft_free_matrix</text>
</a>
</g>
</g>
<!-- Node1&#45;&gt;Node2 -->
<g id="edge1_Node000001_Node000002" class="edge">
<title>Node1&#45;&gt;Node2</title>
<g id="a_edge1_Node000001_Node000002"><a xlink:title=" ">
<path fill="none" stroke="#63b8ff" d="M86.31,-34.2C94.46,-35.49 103.1,-36.86 111.53,-38.19"/>
<polygon fill="#63b8ff" stroke="#63b8ff" points="111.25,-41.69 121.67,-39.8 112.34,-34.78 111.25,-41.69"/>
</a>
</g>
</g>
<!-- Node3 -->
<g id="Node000003" class="node">
<title>Node3</title>
<g id="a_Node000003"><a xlink:href="ft__strdup_8c.html#aebe73f27c70c56ac5053f860ef5436c9" target="_top" xlink:title="Duplicates a null&#45;terminated string by allocating memory.">
<polygon fill="white" stroke="#666666" points="194.5,-19 135.5,-19 135.5,0 194.5,0 194.5,-19"/>
<text text-anchor="middle" x="165" y="-7" font-family="Helvetica,sans-Serif" font-size="10.00">ft_strdup</text>
</a>
</g>
</g>
<!-- Node1&#45;&gt;Node3 -->
<g id="edge2_Node000001_Node000003" class="edge">
<title>Node1&#45;&gt;Node3</title>
<g id="a_edge2_Node000001_Node000003"><a xlink:title=" ">
<path fill="none" stroke="#63b8ff" d="M86.31,-21.15C98.96,-19.26 112.76,-17.19 125.18,-15.32"/>
<polygon fill="#63b8ff" stroke="#63b8ff" points="125.86,-18.76 135.23,-13.82 124.82,-11.84 125.86,-18.76"/>
</a>
</g>
</g>
</g>
</svg>
