<?xml version="1.0" encoding="UTF-8" standalone="no"?>
<!DOCTYPE svg PUBLIC "-//W3C//DTD SVG 1.1//EN"
 "http://www.w3.org/Graphics/SVG/1.1/DTD/svg11.dtd">
<!-- Generated by graphviz version 2.43.0 (0)
 -->
<!-- Title: ft_strncmp Pages: 1 -->
<svg width="1932pt" height="360pt"
 viewBox="0.00 0.00 1932.00 359.50" xmlns="http://www.w3.org/2000/svg" xmlns:xlink="http://www.w3.org/1999/xlink">
<g id="graph0" class="graph" transform="scale(1 1) rotate(0) translate(4 355.5)">
<title>ft_strncmp</title>
<!-- Node1 -->
<g id="Node000001" class="node">
<title>Node1</title>
<g id="a_Node000001"><a xlink:title="Compares up to n characters of two strings.">
<polygon fill="#999999" stroke="#666666" points="1924,-251 1856,-251 1856,-232 1924,-232 1924,-251"/>
<text text-anchor="middle" x="1890" y="-239" font-family="Helvetica,sans-Serif" font-size="10.00">ft_strncmp</text>
</a>
</g>
</g>
<!-- Node2 -->
<g id="Node000002" class="node">
<title>Node2</title>
<g id="a_Node000002"><a xlink:href="check__sintax__utils_8c.html#ad4c2c747cfe6cf3d23dff0a99937f136" target="_top" xlink:title="Checks the syntactic correctness of a here&#45;document.">
<polygon fill="white" stroke="#666666" points="1812.5,-345 1723.5,-345 1723.5,-326 1812.5,-326 1812.5,-345"/>
<text text-anchor="middle" x="1768" y="-333" font-family="Helvetica,sans-Serif" font-size="10.00">check_heredoc</text>
</a>
</g>
</g>
<!-- Node1&#45;&gt;Node2 -->
<g id="edge1_Node000001_Node000002" class="edge">
<title>Node1&#45;&gt;Node2</title>
<g id="a_edge1_Node000001_Node000002"><a xlink:title=" ">
<path fill="none" stroke="#63b8ff" d="M1869.24,-257.42C1855.49,-268.46 1836.7,-283.46 1820,-296.5 1807,-306.65 1791.98,-318.1 1781.63,-325.95"/>
<polygon fill="#63b8ff" stroke="#63b8ff" points="1871.49,-260.11 1877.09,-251.11 1867.1,-254.65 1871.49,-260.11"/>
</a>
</g>
</g>
<!-- Node8 -->
<g id="Node000008" class="node">
<title>Node8</title>
<g id="a_Node000008"><a xlink:href="for__merge__echo_8c.html#a93ec1dc7360b83d8ce076dc54bd68e6a" target="_top" xlink:title="Checks if a token represents a valid &#45;n option for the echo command.">
<polygon fill="white" stroke="#666666" points="1820,-139 1716,-139 1716,-120 1820,-120 1820,-139"/>
<text text-anchor="middle" x="1768" y="-127" font-family="Helvetica,sans-Serif" font-size="10.00">ft_check_n_option</text>
</a>
</g>
</g>
<!-- Node1&#45;&gt;Node8 -->
<g id="edge7_Node000001_Node000008" class="edge">
<title>Node1&#45;&gt;Node8</title>
<g id="a_edge7_Node000001_Node000008"><a xlink:title=" ">
<path fill="none" stroke="#63b8ff" d="M1871.28,-224.96C1845.8,-201.18 1799.64,-158.1 1779.21,-139.02"/>
<polygon fill="#63b8ff" stroke="#63b8ff" points="1869.07,-227.69 1878.77,-231.95 1873.85,-222.57 1869.07,-227.69"/>
</a>
</g>
</g>
<!-- Node12 -->
<g id="Node000012" class="node">
<title>Node12</title>
<g id="a_Node000012"><a xlink:href="utils__export__unset_8c.html#ae98ae22050772236584199cd8f27783d" target="_top" xlink:title="Searches for a variable to export in the environment.">
<polygon fill="white" stroke="#666666" points="1820,-288 1716,-288 1716,-269 1820,-269 1820,-288"/>
<text text-anchor="middle" x="1768" y="-276" font-family="Helvetica,sans-Serif" font-size="10.00">ft_find_export_var</text>
</a>
</g>
</g>
<!-- Node1&#45;&gt;Node12 -->
<g id="edge12_Node000001_Node000012" class="edge">
<title>Node1&#45;&gt;Node12</title>
<g id="a_edge12_Node000001_Node000012"><a xlink:title=" ">
<path fill="none" stroke="#63b8ff" d="M1848.13,-254.1C1832.46,-258.93 1814.84,-264.37 1800.22,-268.88"/>
<polygon fill="#63b8ff" stroke="#63b8ff" points="1849.57,-257.32 1858.1,-251.03 1847.51,-250.63 1849.57,-257.32"/>
</a>
</g>
</g>
<!-- Node22 -->
<g id="Node000022" class="node">
<title>Node22</title>
<g id="a_Node000022"><a xlink:href="utils__env__pt2_8c.html#afac58c53fe53bc538ba19b53efec42e4" target="_top" xlink:title="Finds the value of an environment variable given its name key.">
<polygon fill="white" stroke="#666666" points="1818,-214 1718,-214 1718,-195 1818,-195 1818,-214"/>
<text text-anchor="middle" x="1768" y="-202" font-family="Helvetica,sans-Serif" font-size="10.00">ft_get_env_value</text>
</a>
</g>
</g>
<!-- Node1&#45;&gt;Node22 -->
<g id="edge24_Node000001_Node000022" class="edge">
<title>Node1&#45;&gt;Node22</title>
<g id="a_edge24_Node000001_Node000022"><a xlink:title=" ">
<path fill="none" stroke="#63b8ff" d="M1848.13,-228.9C1832.46,-224.07 1814.84,-218.63 1800.22,-214.12"/>
<polygon fill="#63b8ff" stroke="#63b8ff" points="1847.51,-232.37 1858.1,-231.97 1849.57,-225.68 1847.51,-232.37"/>
</a>
</g>
</g>
<!-- Node41 -->
<g id="Node000041" class="node">
<title>Node41</title>
<g id="a_Node000041"><a xlink:href="ft__cd_8c.html#a1e12354e1572c211f19189669c16b7b7" target="_top" xlink:title="Sets or updates an environment variable.">
<polygon fill="white" stroke="#666666" points="1799,-251 1737,-251 1737,-232 1799,-232 1799,-251"/>
<text text-anchor="middle" x="1768" y="-239" font-family="Helvetica,sans-Serif" font-size="10.00">ft_setenv</text>
</a>
</g>
</g>
<!-- Node1&#45;&gt;Node41 -->
<g id="edge51_Node000001_Node000041" class="edge">
<title>Node1&#45;&gt;Node41</title>
<g id="a_edge51_Node000001_Node000041"><a xlink:title=" ">
<path fill="none" stroke="#63b8ff" d="M1845.54,-241.5C1830.14,-241.5 1813.17,-241.5 1799.13,-241.5"/>
<polygon fill="#63b8ff" stroke="#63b8ff" points="1845.89,-245 1855.89,-241.5 1845.89,-238 1845.89,-245"/>
</a>
</g>
</g>
<!-- Node3 -->
<g id="Node000003" class="node">
<title>Node3</title>
<g id="a_Node000003"><a xlink:href="check__sintax_8c.html#a3dadca8fc2261c0e335299829d01f84b" target="_top" xlink:title="Checks for syntax errors on a single token.">
<polygon fill="white" stroke="#666666" points="1663,-351 1571,-351 1571,-332 1663,-332 1663,-351"/>
<text text-anchor="middle" x="1617" y="-339" font-family="Helvetica,sans-Serif" font-size="10.00">ft_sintax_errors</text>
</a>
</g>
</g>
<!-- Node2&#45;&gt;Node3 -->
<g id="edge2_Node000002_Node000003" class="edge">
<title>Node2&#45;&gt;Node3</title>
<g id="a_edge2_Node000002_Node000003"><a xlink:title=" ">
<path fill="none" stroke="#63b8ff" d="M1712.65,-337.69C1696.39,-338.34 1678.74,-339.05 1663.13,-339.68"/>
<polygon fill="#63b8ff" stroke="#63b8ff" points="1713.25,-341.17 1723.1,-337.27 1712.97,-334.17 1713.25,-341.17"/>
</a>
</g>
</g>
<!-- Node4 -->
<g id="Node000004" class="node">
<title>Node4</title>
<g id="a_Node000004"><a xlink:href="check__sintax_8c.html#a8ed15b7dba2bb1e02a43dae2f00459af" target="_top" xlink:title="Checks the syntax of the entire token list.">
<polygon fill="white" stroke="#666666" points="493,-342 413,-342 413,-323 493,-323 493,-342"/>
<text text-anchor="middle" x="453" y="-330" font-family="Helvetica,sans-Serif" font-size="10.00">check_sintax</text>
</a>
</g>
</g>
<!-- Node3&#45;&gt;Node4 -->
<g id="edge3_Node000003_Node000004" class="edge">
<title>Node3&#45;&gt;Node4</title>
<g id="a_edge3_Node000003_Node000004"><a xlink:title=" ">
<path fill="none" stroke="#63b8ff" d="M1560.41,-344.37C1498.29,-347.32 1394.72,-351.5 1305.5,-351.5 1305.5,-351.5 1305.5,-351.5 727.5,-351.5 643.97,-351.5 546.43,-342.57 493.34,-336.95"/>
<polygon fill="#63b8ff" stroke="#63b8ff" points="1560.94,-347.85 1570.76,-343.87 1560.61,-340.86 1560.94,-347.85"/>
</a>
</g>
</g>
<!-- Node5 -->
<g id="Node000005" class="node">
<title>Node5</title>
<g id="a_Node000005"><a xlink:href="main__utils_8c.html#a7e8f478480ab6ab34d6f5eadaf6acdb9" target="_top" xlink:title="Handles parsing and execution of tokens.">
<polygon fill="white" stroke="#666666" points="273,-169 192,-169 192,-150 273,-150 273,-169"/>
<text text-anchor="middle" x="232.5" y="-157" font-family="Helvetica,sans-Serif" font-size="10.00">ft_token_flow</text>
</a>
</g>
</g>
<!-- Node4&#45;&gt;Node5 -->
<g id="edge4_Node000004_Node000005" class="edge">
<title>Node4&#45;&gt;Node5</title>
<g id="a_edge4_Node000004_Node000005"><a xlink:title=" ">
<path fill="none" stroke="#63b8ff" d="M416.83,-319.12C386.21,-306.35 341.73,-285 309,-257.5 277.1,-230.7 250.19,-188.24 239.03,-169.24"/>
<polygon fill="#63b8ff" stroke="#63b8ff" points="415.67,-322.43 426.25,-322.96 418.31,-315.94 415.67,-322.43"/>
</a>
</g>
</g>
<!-- Node6 -->
<g id="Node000006" class="node">
<title>Node6</title>
<g id="a_Node000006"><a xlink:href="main__utils_8c.html#ae35edfb8f1339d6f77f53c28eb2a2ed6" target="_top" xlink:title="Handles a complete cycle of input → parsing → execution.">
<polygon fill="white" stroke="#666666" points="156,-107 77,-107 77,-88 156,-88 156,-107"/>
<text text-anchor="middle" x="116.5" y="-95" font-family="Helvetica,sans-Serif" font-size="10.00">ft_main_flow</text>
</a>
</g>
</g>
<!-- Node5&#45;&gt;Node6 -->
<g id="edge5_Node000005_Node000006" class="edge">
<title>Node5&#45;&gt;Node6</title>
<g id="a_edge5_Node000005_Node000006"><a xlink:title=" ">
<path fill="none" stroke="#63b8ff" d="M204.75,-144.95C183.3,-133.29 153.79,-117.24 135.19,-107.12"/>
<polygon fill="#63b8ff" stroke="#63b8ff" points="203.23,-148.11 213.69,-149.81 206.57,-141.96 203.23,-148.11"/>
</a>
</g>
</g>
<!-- Node7 -->
<g id="Node000007" class="node">
<title>Node7</title>
<g id="a_Node000007"><a xlink:href="main_8c.html#ab3862b46d6a8d13c2d884a297e6b05b5" target="_top" xlink:title="Main function of the minishell.">
<polygon fill="white" stroke="#666666" points="41,-107 0,-107 0,-88 41,-88 41,-107"/>
<text text-anchor="middle" x="20.5" y="-95" font-family="Helvetica,sans-Serif" font-size="10.00">main</text>
</a>
</g>
</g>
<!-- Node6&#45;&gt;Node7 -->
<g id="edge6_Node000006_Node000007" class="edge">
<title>Node6&#45;&gt;Node7</title>
<g id="a_edge6_Node000006_Node000007"><a xlink:title=" ">
<path fill="none" stroke="#63b8ff" d="M66.74,-97.5C57.62,-97.5 48.59,-97.5 41.03,-97.5"/>
<polygon fill="#63b8ff" stroke="#63b8ff" points="67,-101 77,-97.5 67,-94 67,-101"/>
</a>
</g>
</g>
<!-- Node9 -->
<g id="Node000009" class="node">
<title>Node9</title>
<g id="a_Node000009"><a xlink:href="for__merge__echo_8c.html#a5326da08ceca8e15b2ceca38c9930e08" target="_top" xlink:title="Handles merging multiple &#45;n, &#45;nn, etc. tokens for the echo command.">
<polygon fill="white" stroke="#666666" points="1680,-67 1554,-67 1554,-48 1680,-48 1680,-67"/>
<text text-anchor="middle" x="1617" y="-55" font-family="Helvetica,sans-Serif" font-size="10.00">ft_merge_tokens_echo</text>
</a>
</g>
</g>
<!-- Node8&#45;&gt;Node9 -->
<g id="edge8_Node000008_Node000009" class="edge">
<title>Node8&#45;&gt;Node9</title>
<g id="a_edge8_Node000008_Node000009"><a xlink:title=" ">
<path fill="none" stroke="#63b8ff" d="M1739.43,-115.17C1722.4,-106.41 1700.04,-95.09 1680,-85.5 1666.79,-79.18 1651.83,-72.41 1639.92,-67.11"/>
<polygon fill="#63b8ff" stroke="#63b8ff" points="1738.29,-118.52 1748.79,-119.99 1741.5,-112.3 1738.29,-118.52"/>
</a>
</g>
</g>
<!-- Node10 -->
<g id="Node000010" class="node">
<title>Node10</title>
<g id="a_Node000010"><a xlink:href="tokenize__input_8c.html#a040acaabf04da0b8d7ce5da9c1d210d8" target="_top" xlink:title="Assigns types to tokens and applies command&#45;specific rules.">
<polygon fill="white" stroke="#666666" points="1509.5,-57 1413.5,-57 1413.5,-38 1509.5,-38 1509.5,-57"/>
<text text-anchor="middle" x="1461.5" y="-45" font-family="Helvetica,sans-Serif" font-size="10.00">ft_define_tokens</text>
</a>
</g>
</g>
<!-- Node9&#45;&gt;Node10 -->
<g id="edge9_Node000009_Node000010" class="edge">
<title>Node9&#45;&gt;Node10</title>
<g id="a_edge9_Node000009_Node000010"><a xlink:title=" ">
<path fill="none" stroke="#63b8ff" d="M1543.55,-52.78C1532.09,-52.03 1520.5,-51.28 1509.81,-50.58"/>
<polygon fill="#63b8ff" stroke="#63b8ff" points="1543.36,-56.28 1553.57,-53.43 1543.81,-49.29 1543.36,-56.28"/>
</a>
</g>
</g>
<!-- Node11 -->
<g id="Node000011" class="node">
<title>Node11</title>
<g id="a_Node000011"><a xlink:href="tokenize__input_8c.html#a4e40c3f57ab2488a2b49f37846785b2e" target="_top" xlink:title="Tokenizes the entire user input string.">
<polygon fill="white" stroke="#666666" points="372,-19 314,-19 314,0 372,0 372,-19"/>
<text text-anchor="middle" x="343" y="-7" font-family="Helvetica,sans-Serif" font-size="10.00">tokenize</text>
</a>
</g>
</g>
<!-- Node10&#45;&gt;Node11 -->
<g id="edge10_Node000010_Node000011" class="edge">
<title>Node10&#45;&gt;Node11</title>
<g id="a_edge10_Node000010_Node000011"><a xlink:title=" ">
<path fill="none" stroke="#63b8ff" d="M1403.33,-36.06C1342.33,-24.87 1242.75,-9.5 1156,-9.5 1156,-9.5 1156,-9.5 581.5,-9.5 505.84,-9.5 416.62,-9.5 372.15,-9.5"/>
<polygon fill="#63b8ff" stroke="#63b8ff" points="1403.05,-39.57 1413.52,-37.96 1404.33,-32.69 1403.05,-39.57"/>
</a>
</g>
</g>
<!-- Node11&#45;&gt;Node6 -->
<g id="edge11_Node000011_Node000006" class="edge">
<title>Node11&#45;&gt;Node6</title>
<g id="a_edge11_Node000011_Node000006"><a xlink:title=" ">
<path fill="none" stroke="#63b8ff" d="M308.07,-22.8C262.37,-40.71 182.14,-72.16 141.92,-87.93"/>
<polygon fill="#63b8ff" stroke="#63b8ff" points="309.51,-25.99 317.55,-19.09 306.96,-19.48 309.51,-25.99"/>
</a>
</g>
</g>
<!-- Node13 -->
<g id="Node000013" class="node">
<title>Node13</title>
<g id="a_Node000013"><a xlink:href="export_8c.html#aa1462300aee0c9091833b58ece6c6506" target="_top" xlink:title="Executes export on a single argument.">
<polygon fill="white" stroke="#666666" points="1658.5,-308 1575.5,-308 1575.5,-289 1658.5,-289 1658.5,-308"/>
<text text-anchor="middle" x="1617" y="-296" font-family="Helvetica,sans-Serif" font-size="10.00">ft_exe_export</text>
</a>
</g>
</g>
<!-- Node12&#45;&gt;Node13 -->
<g id="edge13_Node000012_Node000013" class="edge">
<title>Node12&#45;&gt;Node13</title>
<g id="a_edge13_Node000012_Node000013"><a xlink:title=" ">
<path fill="none" stroke="#63b8ff" d="M1705.47,-286.76C1689.64,-288.88 1673.01,-291.12 1658.55,-293.06"/>
<polygon fill="#63b8ff" stroke="#63b8ff" points="1706.28,-290.18 1715.72,-285.38 1705.35,-283.24 1706.28,-290.18"/>
</a>
</g>
</g>
<!-- Node14 -->
<g id="Node000014" class="node">
<title>Node14</title>
<g id="a_Node000014"><a xlink:href="export_8c.html#a962491ce27455342a86cefa998c352fd" target="_top" xlink:title="Handles the export command with arguments.">
<polygon fill="white" stroke="#666666" points="1518,-315 1405,-315 1405,-296 1518,-296 1518,-315"/>
<text text-anchor="middle" x="1461.5" y="-303" font-family="Helvetica,sans-Serif" font-size="10.00">ft_export_with_args</text>
</a>
</g>
</g>
<!-- Node13&#45;&gt;Node14 -->
<g id="edge14_Node000013_Node000014" class="edge">
<title>Node13&#45;&gt;Node14</title>
<g id="a_edge14_Node000013_Node000014"><a xlink:title=" ">
<path fill="none" stroke="#63b8ff" d="M1565.12,-300.82C1550.06,-301.51 1533.5,-302.26 1518.16,-302.96"/>
<polygon fill="#63b8ff" stroke="#63b8ff" points="1565.44,-304.31 1575.27,-300.36 1565.12,-297.32 1565.44,-304.31"/>
</a>
</g>
</g>
<!-- Node15 -->
<g id="Node000015" class="node">
<title>Node15</title>
<g id="a_Node000015"><a xlink:href="export_8c.html#a2b0f2ba2e9188c7b4f6ca5a44c1d0c8e" target="_top" xlink:title="Builtin function for the export command.">
<polygon fill="white" stroke="#666666" points="1334.5,-323 1274.5,-323 1274.5,-304 1334.5,-304 1334.5,-323"/>
<text text-anchor="middle" x="1304.5" y="-311" font-family="Helvetica,sans-Serif" font-size="10.00">ft_export</text>
</a>
</g>
</g>
<!-- Node14&#45;&gt;Node15 -->
<g id="edge15_Node000014_Node000015" class="edge">
<title>Node14&#45;&gt;Node15</title>
<g id="a_edge15_Node000014_Node000015"><a xlink:title=" ">
<path fill="none" stroke="#63b8ff" d="M1394.79,-308.89C1373.77,-309.98 1351.58,-311.12 1334.57,-312"/>
<polygon fill="#63b8ff" stroke="#63b8ff" points="1395.17,-312.38 1404.98,-308.37 1394.81,-305.39 1395.17,-312.38"/>
</a>
</g>
</g>
<!-- Node16 -->
<g id="Node000016" class="node">
<title>Node16</title>
<g id="a_Node000016"><a xlink:href="cmd__execution_8c.html#a5ce7231f800cbacea6350cc1a32a59bd" target="_top" xlink:title="Executes a list of non&#45;pipelined commands.">
<polygon fill="white" stroke="#666666" points="1191,-269 1119,-269 1119,-250 1191,-250 1191,-269"/>
<text text-anchor="middle" x="1155" y="-257" font-family="Helvetica,sans-Serif" font-size="10.00">ft_exe_cmd</text>
</a>
</g>
</g>
<!-- Node15&#45;&gt;Node16 -->
<g id="edge16_Node000015_Node000016" class="edge">
<title>Node15&#45;&gt;Node16</title>
<g id="a_edge16_Node000015_Node000016"><a xlink:title=" ">
<path fill="none" stroke="#63b8ff" d="M1267.84,-300.44C1241.45,-290.78 1206.1,-277.84 1182.27,-269.12"/>
<polygon fill="#63b8ff" stroke="#63b8ff" points="1266.88,-303.82 1277.47,-303.97 1269.28,-297.25 1266.88,-303.82"/>
</a>
</g>
</g>
<!-- Node17 -->
<g id="Node000017" class="node">
<title>Node17</title>
<g id="a_Node000017"><a xlink:href="cmd__execution_8c.html#a50e59fa2e4621831a415d4038f697c56" target="_top" xlink:title="Executes a command within a pipeline.">
<polygon fill="white" stroke="#666666" points="1204,-209 1106,-209 1106,-190 1204,-190 1204,-209"/>
<text text-anchor="middle" x="1155" y="-197" font-family="Helvetica,sans-Serif" font-size="10.00">ft_exe_pipe_cmd</text>
</a>
</g>
</g>
<!-- Node15&#45;&gt;Node17 -->
<g id="edge18_Node000015_Node000017" class="edge">
<title>Node15&#45;&gt;Node17</title>
<g id="a_edge18_Node000015_Node000017"><a xlink:title=" ">
<path fill="none" stroke="#63b8ff" d="M1283.22,-297.82C1252.27,-273.9 1194.15,-228.99 1168.6,-209.24"/>
<polygon fill="#63b8ff" stroke="#63b8ff" points="1281.13,-300.63 1291.18,-303.98 1285.41,-295.09 1281.13,-300.63"/>
</a>
</g>
</g>
<!-- Node16&#45;&gt;Node5 -->
<g id="edge17_Node000016_Node000005" class="edge">
<title>Node16&#45;&gt;Node5</title>
<g id="a_edge17_Node000016_Node000005"><a xlink:title=" ">
<path fill="none" stroke="#63b8ff" d="M1108.48,-255.19C1054.42,-250.45 961.47,-243.5 881.5,-243.5 881.5,-243.5 881.5,-243.5 452,-243.5 369.91,-243.5 281.32,-191.2 247.61,-169.14"/>
<polygon fill="#63b8ff" stroke="#63b8ff" points="1108.49,-258.71 1118.76,-256.11 1109.11,-251.73 1108.49,-258.71"/>
</a>
</g>
</g>
<!-- Node18 -->
<g id="Node000018" class="node">
<title>Node18</title>
<g id="a_Node000018"><a xlink:href="pipes_8c.html#a36a2d91a0566ad253efe3833b05e69d1" target="_top" xlink:title="Routine executed by the child process for each command in the pipe.">
<polygon fill="white" stroke="#666666" points="1069,-207 977,-207 977,-188 1069,-188 1069,-207"/>
<text text-anchor="middle" x="1023" y="-195" font-family="Helvetica,sans-Serif" font-size="10.00">ft_child_routine</text>
</a>
</g>
</g>
<!-- Node17&#45;&gt;Node18 -->
<g id="edge19_Node000017_Node000018" class="edge">
<title>Node17&#45;&gt;Node18</title>
<g id="a_edge19_Node000017_Node000018"><a xlink:title=" ">
<path fill="none" stroke="#63b8ff" d="M1095.67,-198.6C1086.81,-198.47 1077.78,-198.33 1069.25,-198.2"/>
<polygon fill="#63b8ff" stroke="#63b8ff" points="1095.91,-202.11 1105.96,-198.76 1096.02,-195.11 1095.91,-202.11"/>
</a>
</g>
</g>
<!-- Node19 -->
<g id="Node000019" class="node">
<title>Node19</title>
<g id="a_Node000019"><a xlink:href="pipes_8c.html#aa17e847997e7266a0a111ab3572756bb" target="_top" xlink:title="Manages pipe creation and fork to execute the current command.">
<polygon fill="white" stroke="#666666" points="925,-206 836,-206 836,-187 925,-187 925,-206"/>
<text text-anchor="middle" x="880.5" y="-194" font-family="Helvetica,sans-Serif" font-size="10.00">ft_pipe_routine</text>
</a>
</g>
</g>
<!-- Node18&#45;&gt;Node19 -->
<g id="edge20_Node000018_Node000019" class="edge">
<title>Node18&#45;&gt;Node19</title>
<g id="a_edge20_Node000018_Node000019"><a xlink:title=" ">
<path fill="none" stroke="#63b8ff" d="M966.48,-197.1C952.76,-197.01 938.27,-196.9 925.21,-196.81"/>
<polygon fill="#63b8ff" stroke="#63b8ff" points="966.75,-200.61 976.77,-197.18 966.8,-193.61 966.75,-200.61"/>
</a>
</g>
</g>
<!-- Node20 -->
<g id="Node000020" class="node">
<title>Node20</title>
<g id="a_Node000020"><a xlink:href="pipes_8c.html#a7a3b0de1a88a243da741f748881e14f0" target="_top" xlink:title="Executes a list of commands connected via pipes.">
<polygon fill="white" stroke="#666666" points="769,-205 688,-205 688,-186 769,-186 769,-205"/>
<text text-anchor="middle" x="728.5" y="-193" font-family="Helvetica,sans-Serif" font-size="10.00">execute_pipe</text>
</a>
</g>
</g>
<!-- Node19&#45;&gt;Node20 -->
<g id="edge21_Node000019_Node000020" class="edge">
<title>Node19&#45;&gt;Node20</title>
<g id="a_edge21_Node000019_Node000020"><a xlink:title=" ">
<path fill="none" stroke="#63b8ff" d="M825.6,-196.14C807,-196.02 786.51,-195.88 769.25,-195.76"/>
<polygon fill="#63b8ff" stroke="#63b8ff" points="825.69,-199.64 835.71,-196.21 825.73,-192.64 825.69,-199.64"/>
</a>
</g>
</g>
<!-- Node21 -->
<g id="Node000021" class="node">
<title>Node21</title>
<g id="a_Node000021"><a xlink:href="main__utils_8c.html#ad0183732909ae6e7c52e7b086c2e5642" target="_top" xlink:title="Manages the execution flow of commands with pipes.">
<polygon fill="white" stroke="#666666" points="620,-202 545,-202 545,-183 620,-183 620,-202"/>
<text text-anchor="middle" x="582.5" y="-190" font-family="Helvetica,sans-Serif" font-size="10.00">ft_pipe_flow</text>
</a>
</g>
</g>
<!-- Node20&#45;&gt;Node21 -->
<g id="edge22_Node000020_Node000021" class="edge">
<title>Node20&#45;&gt;Node21</title>
<g id="a_edge22_Node000020_Node000021"><a xlink:title=" ">
<path fill="none" stroke="#63b8ff" d="M677.55,-194.46C658.68,-194.07 637.57,-193.63 620.14,-193.26"/>
<polygon fill="#63b8ff" stroke="#63b8ff" points="677.7,-197.96 687.77,-194.67 677.85,-190.96 677.7,-197.96"/>
</a>
</g>
</g>
<!-- Node21&#45;&gt;Node5 -->
<g id="edge23_Node000021_Node000005" class="edge">
<title>Node21&#45;&gt;Node5</title>
<g id="a_edge23_Node000021_Node000005"><a xlink:title=" ">
<path fill="none" stroke="#63b8ff" d="M534.77,-188.07C465.73,-181.52 337.69,-169.38 273.04,-163.25"/>
<polygon fill="#63b8ff" stroke="#63b8ff" points="534.63,-191.57 544.92,-189.03 535.29,-184.6 534.63,-191.57"/>
</a>
</g>
</g>
<!-- Node23 -->
<g id="Node000023" class="node">
<title>Node23</title>
<g id="a_Node000023"><a xlink:href="ft__cd_8c.html#ac060a52395a8362da6298c5c36871f32" target="_top" xlink:title="Processes the arguments passed to the cd command to determine the path.">
<polygon fill="white" stroke="#666666" points="1648,-214 1586,-214 1586,-195 1648,-195 1648,-214"/>
<text text-anchor="middle" x="1617" y="-202" font-family="Helvetica,sans-Serif" font-size="10.00">ft_exe_cd</text>
</a>
</g>
</g>
<!-- Node22&#45;&gt;Node23 -->
<g id="edge25_Node000022_Node000023" class="edge">
<title>Node22&#45;&gt;Node23</title>
<g id="a_edge25_Node000022_Node000023"><a xlink:title=" ">
<path fill="none" stroke="#63b8ff" d="M1707.6,-204.5C1687.16,-204.5 1665.13,-204.5 1648.03,-204.5"/>
<polygon fill="#63b8ff" stroke="#63b8ff" points="1707.8,-208 1717.8,-204.5 1707.8,-201 1707.8,-208"/>
</a>
</g>
</g>
<!-- Node25 -->
<g id="Node000025" class="node">
<title>Node25</title>
<g id="a_Node000025"><a xlink:href="utils__env_8c.html#a4ea711c91d64ff7669bf6ac7e6b6b9dd" target="_top" xlink:title="Expands an environment variable found in a string.">
<polygon fill="white" stroke="#666666" points="1649.5,-114 1584.5,-114 1584.5,-95 1649.5,-95 1649.5,-114"/>
<text text-anchor="middle" x="1617" y="-102" font-family="Helvetica,sans-Serif" font-size="10.00">ft_expand</text>
</a>
</g>
</g>
<!-- Node22&#45;&gt;Node25 -->
<g id="edge29_Node000022_Node000025" class="edge">
<title>Node22&#45;&gt;Node25</title>
<g id="a_edge29_Node000022_Node000025"><a xlink:title=" ">
<path fill="none" stroke="#63b8ff" d="M1744.26,-189.24C1713.21,-168.4 1658.45,-131.65 1632.46,-114.21"/>
<polygon fill="#63b8ff" stroke="#63b8ff" points="1742.46,-192.25 1752.71,-194.91 1746.36,-186.43 1742.46,-192.25"/>
</a>
</g>
</g>
<!-- Node37 -->
<g id="Node000037" class="node">
<title>Node37</title>
<g id="a_Node000037"><a xlink:href="system__commands_8c.html#aaaa4228e08342bbace615a9eeea465bd" target="_top" xlink:title="Searches for the executable path of a command.">
<polygon fill="white" stroke="#666666" points="1503,-176 1420,-176 1420,-157 1503,-157 1503,-176"/>
<text text-anchor="middle" x="1461.5" y="-164" font-family="Helvetica,sans-Serif" font-size="10.00">ft_path_finder</text>
</a>
</g>
</g>
<!-- Node22&#45;&gt;Node37 -->
<g id="edge44_Node000022_Node000037" class="edge">
<title>Node22&#45;&gt;Node37</title>
<g id="a_edge44_Node000022_Node000037"><a xlink:title=" ">
<path fill="none" stroke="#63b8ff" d="M1718.09,-192.67C1705.72,-189.99 1692.42,-187.39 1680,-185.5 1618.73,-176.17 1547.01,-171.01 1503.17,-168.5"/>
<polygon fill="#63b8ff" stroke="#63b8ff" points="1717.7,-196.17 1728.22,-194.92 1719.22,-189.33 1717.7,-196.17"/>
</a>
</g>
</g>
<!-- Node40 -->
<g id="Node000040" class="node">
<title>Node40</title>
<g id="a_Node000040"><a xlink:href="ft__cd_8c.html#abe3ef0d9243dfb9deb0adcf20cf26db5" target="_top" xlink:title="Changes the current directory and updates PWD and OLDPWD environment variables.">
<polygon fill="white" stroke="#666666" points="1650.5,-251 1583.5,-251 1583.5,-232 1650.5,-232 1650.5,-251"/>
<text text-anchor="middle" x="1617" y="-239" font-family="Helvetica,sans-Serif" font-size="10.00">ft_set_env</text>
</a>
</g>
</g>
<!-- Node22&#45;&gt;Node40 -->
<g id="edge49_Node000022_Node000040" class="edge">
<title>Node22&#45;&gt;Node40</title>
<g id="a_edge49_Node000022_Node000040"><a xlink:title=" ">
<path fill="none" stroke="#63b8ff" d="M1718.69,-216.5C1696.44,-222.02 1670.61,-228.44 1650.69,-233.38"/>
<polygon fill="#63b8ff" stroke="#63b8ff" points="1719.77,-219.84 1728.63,-214.03 1718.08,-213.04 1719.77,-219.84"/>
</a>
</g>
</g>
<!-- Node24 -->
<g id="Node000024" class="node">
<title>Node24</title>
<g id="a_Node000024"><a xlink:href="ft__cd_8c.html#af438919e376d2d0df3830120118ea526" target="_top" xlink:title="Builtin function for the cd (change directory) command.">
<polygon fill="white" stroke="#666666" points="1481.5,-227 1441.5,-227 1441.5,-208 1481.5,-208 1481.5,-227"/>
<text text-anchor="middle" x="1461.5" y="-215" font-family="Helvetica,sans-Serif" font-size="10.00">ft_cd</text>
</a>
</g>
</g>
<!-- Node23&#45;&gt;Node24 -->
<g id="edge26_Node000023_Node000024" class="edge">
<title>Node23&#45;&gt;Node24</title>
<g id="a_edge26_Node000023_Node000024"><a xlink:title=" ">
<path fill="none" stroke="#63b8ff" d="M1575.39,-207.94C1545.05,-210.51 1504.95,-213.9 1481.61,-215.88"/>
<polygon fill="#63b8ff" stroke="#63b8ff" points="1576,-211.4 1585.67,-207.07 1575.41,-204.42 1576,-211.4"/>
</a>
</g>
</g>
<!-- Node24&#45;&gt;Node16 -->
<g id="edge27_Node000024_Node000016" class="edge">
<title>Node24&#45;&gt;Node16</title>
<g id="a_edge27_Node000024_Node000016"><a xlink:title=" ">
<path fill="none" stroke="#63b8ff" d="M1433.73,-231.76C1415.93,-240.44 1391.73,-250.75 1369,-255.5 1307.46,-268.37 1233.72,-265.91 1191.13,-262.81"/>
<polygon fill="#63b8ff" stroke="#63b8ff" points="1435.55,-234.76 1442.91,-227.15 1432.41,-228.51 1435.55,-234.76"/>
</a>
</g>
</g>
<!-- Node24&#45;&gt;Node17 -->
<g id="edge28_Node000024_Node000017" class="edge">
<title>Node24&#45;&gt;Node17</title>
<g id="a_edge28_Node000024_Node000017"><a xlink:title=" ">
<path fill="none" stroke="#63b8ff" d="M1431.16,-215.77C1378.6,-212.66 1267.96,-206.12 1204.14,-202.35"/>
<polygon fill="#63b8ff" stroke="#63b8ff" points="1431.26,-219.28 1441.45,-216.37 1431.68,-212.29 1431.26,-219.28"/>
</a>
</g>
</g>
<!-- Node26 -->
<g id="Node000026" class="node">
<title>Node26</title>
<g id="a_Node000026"><a xlink:href="utils__env_8c.html#a78e10627f49df6e904925e22ae6ee15f" target="_top" xlink:title="Performs environment variable expansion in a string.">
<polygon fill="white" stroke="#666666" points="1513.5,-114 1409.5,-114 1409.5,-95 1513.5,-95 1513.5,-114"/>
<text text-anchor="middle" x="1461.5" y="-102" font-family="Helvetica,sans-Serif" font-size="10.00">ft_expand_envvar</text>
</a>
</g>
</g>
<!-- Node25&#45;&gt;Node26 -->
<g id="edge30_Node000025_Node000026" class="edge">
<title>Node25&#45;&gt;Node26</title>
<g id="a_edge30_Node000025_Node000026"><a xlink:title=" ">
<path fill="none" stroke="#63b8ff" d="M1573.95,-104.5C1555.3,-104.5 1533.19,-104.5 1513.6,-104.5"/>
<polygon fill="#63b8ff" stroke="#63b8ff" points="1574.19,-108 1584.19,-104.5 1574.19,-101 1574.19,-108"/>
</a>
</g>
</g>
<!-- Node27 -->
<g id="Node000027" class="node">
<title>Node27</title>
<g id="a_Node000027"><a xlink:href="create__command__list_8c.html#a9fb2e7501277f2f93e5c7042fec32429" target="_top" xlink:title="Adds an argument to the command’s argument list.">
<polygon fill="white" stroke="#666666" points="1053.5,-139 992.5,-139 992.5,-120 1053.5,-120 1053.5,-139"/>
<text text-anchor="middle" x="1023" y="-127" font-family="Helvetica,sans-Serif" font-size="10.00">add_args</text>
</a>
</g>
</g>
<!-- Node26&#45;&gt;Node27 -->
<g id="edge31_Node000026_Node000027" class="edge">
<title>Node26&#45;&gt;Node27</title>
<g id="a_edge31_Node000026_Node000027"><a xlink:title=" ">
<path fill="none" stroke="#63b8ff" d="M1399.08,-108.02C1303.85,-113.47 1124.18,-123.76 1053.57,-127.81"/>
<polygon fill="#63b8ff" stroke="#63b8ff" points="1399.36,-111.51 1409.14,-107.44 1398.96,-104.52 1399.36,-111.51"/>
</a>
</g>
</g>
<!-- Node29 -->
<g id="Node000029" class="node">
<title>Node29</title>
<g id="a_Node000029"><a xlink:href="main__utils_8c.html#a5aeae9d23b7c4e831229866f395977e7" target="_top" xlink:title="Handles printing of a single environment variable.">
<polygon fill="white" stroke="#666666" points="927,-57 834,-57 834,-38 927,-38 927,-57"/>
<text text-anchor="middle" x="880.5" y="-45" font-family="Helvetica,sans-Serif" font-size="10.00">ft_env_var_flow</text>
</a>
</g>
</g>
<!-- Node26&#45;&gt;Node29 -->
<g id="edge34_Node000026_Node000029" class="edge">
<title>Node26&#45;&gt;Node29</title>
<g id="a_edge34_Node000026_Node000029"><a xlink:title=" ">
<path fill="none" stroke="#63b8ff" d="M1433.7,-90.4C1415.89,-81.78 1391.68,-71.48 1369,-66.5 1209.75,-31.51 1014.35,-38.4 927.21,-43.97"/>
<polygon fill="#63b8ff" stroke="#63b8ff" points="1432.38,-93.65 1442.89,-94.97 1435.49,-87.38 1432.38,-93.65"/>
</a>
</g>
</g>
<!-- Node30 -->
<g id="Node000030" class="node">
<title>Node30</title>
<g id="a_Node000030"><a xlink:href="redir__utils_8c.html#aff3d6a56d03d5df38cbb3e1f171eb191" target="_top" xlink:title="Expands environment variables in a line and writes the result to a file descriptor.">
<polygon fill="white" stroke="#666666" points="1347.5,-95 1261.5,-95 1261.5,-76 1347.5,-76 1347.5,-95"/>
<text text-anchor="middle" x="1304.5" y="-83" font-family="Helvetica,sans-Serif" font-size="10.00">ft_for_env_var</text>
</a>
</g>
</g>
<!-- Node26&#45;&gt;Node30 -->
<g id="edge36_Node000026_Node000030" class="edge">
<title>Node26&#45;&gt;Node30</title>
<g id="a_edge36_Node000026_Node000030"><a xlink:title=" ">
<path fill="none" stroke="#63b8ff" d="M1399.28,-97C1381.96,-94.87 1363.5,-92.61 1347.58,-90.66"/>
<polygon fill="#63b8ff" stroke="#63b8ff" points="1398.97,-100.48 1409.32,-98.23 1399.82,-93.54 1398.97,-100.48"/>
</a>
</g>
</g>
<!-- Node28 -->
<g id="Node000028" class="node">
<title>Node28</title>
<g id="a_Node000028"><a xlink:href="create__command__list_8c.html#ad16d74756b107a98677124008c71d23b" target="_top" xlink:title="Creates a command list from tokens.">
<polygon fill="white" stroke="#666666" points="377,-143 309,-143 309,-124 377,-124 377,-143"/>
<text text-anchor="middle" x="343" y="-131" font-family="Helvetica,sans-Serif" font-size="10.00">create_list</text>
</a>
</g>
</g>
<!-- Node27&#45;&gt;Node28 -->
<g id="edge32_Node000027_Node000028" class="edge">
<title>Node27&#45;&gt;Node28</title>
<g id="a_edge32_Node000027_Node000028"><a xlink:title=" ">
<path fill="none" stroke="#63b8ff" d="M981.84,-130.4C925.47,-131.58 819.67,-133.5 729.5,-133.5 729.5,-133.5 729.5,-133.5 581.5,-133.5 508.52,-133.5 422.92,-133.5 377.04,-133.5"/>
<polygon fill="#63b8ff" stroke="#63b8ff" points="982.18,-133.89 992.11,-130.18 982.03,-126.89 982.18,-133.89"/>
</a>
</g>
</g>
<!-- Node28&#45;&gt;Node5 -->
<g id="edge33_Node000028_Node000005" class="edge">
<title>Node28&#45;&gt;Node5</title>
<g id="a_edge33_Node000028_Node000005"><a xlink:title=" ">
<path fill="none" stroke="#63b8ff" d="M299.11,-143.78C290.6,-145.82 281.71,-147.95 273.31,-149.96"/>
<polygon fill="#63b8ff" stroke="#63b8ff" points="299.95,-147.18 308.86,-141.44 298.32,-140.37 299.95,-147.18"/>
</a>
</g>
</g>
<!-- Node29&#45;&gt;Node5 -->
<g id="edge35_Node000029_Node000005" class="edge">
<title>Node29&#45;&gt;Node5</title>
<g id="a_edge35_Node000029_Node000005"><a xlink:title=" ">
<path fill="none" stroke="#63b8ff" d="M823.56,-47.5C764.04,-47.5 667.12,-47.5 583.5,-47.5 583.5,-47.5 583.5,-47.5 452,-47.5 362.48,-47.5 272.8,-122.87 243.46,-149.95"/>
<polygon fill="#63b8ff" stroke="#63b8ff" points="823.86,-51 833.86,-47.5 823.86,-44 823.86,-51"/>
</a>
</g>
</g>
<!-- Node31 -->
<g id="Node000031" class="node">
<title>Node31</title>
<g id="a_Node000031"><a xlink:href="handle__heredoc_8c.html#ac5ba13b1edbd22e4a7e0a50fc91f80db" target="_top" xlink:title="Executes a single read&#45;write cycle of the here&#45;document.">
<polygon fill="white" stroke="#666666" points="1200,-95 1110,-95 1110,-76 1200,-76 1200,-95"/>
<text text-anchor="middle" x="1155" y="-83" font-family="Helvetica,sans-Serif" font-size="10.00">ft_exe_heredoc</text>
</a>
</g>
</g>
<!-- Node30&#45;&gt;Node31 -->
<g id="edge37_Node000030_Node000031" class="edge">
<title>Node30&#45;&gt;Node31</title>
<g id="a_edge37_Node000030_Node000031"><a xlink:title=" ">
<path fill="none" stroke="#63b8ff" d="M1251.08,-85.5C1234.39,-85.5 1216.11,-85.5 1200.07,-85.5"/>
<polygon fill="#63b8ff" stroke="#63b8ff" points="1251.23,-89 1261.23,-85.5 1251.23,-82 1251.23,-89"/>
</a>
</g>
</g>
<!-- Node32 -->
<g id="Node000032" class="node">
<title>Node32</title>
<g id="a_Node000032"><a xlink:href="handle__heredoc_8c.html#a922eae1c49290306f7cf811bf65d9ed1" target="_top" xlink:title="Handles the entire input process for a here&#45;document.">
<polygon fill="white" stroke="#666666" points="1070,-97 976,-97 976,-78 1070,-78 1070,-97"/>
<text text-anchor="middle" x="1023" y="-85" font-family="Helvetica,sans-Serif" font-size="10.00">handle_heredoc</text>
</a>
</g>
</g>
<!-- Node31&#45;&gt;Node32 -->
<g id="edge38_Node000031_Node000032" class="edge">
<title>Node31&#45;&gt;Node32</title>
<g id="a_edge38_Node000031_Node000032"><a xlink:title=" ">
<path fill="none" stroke="#63b8ff" d="M1099.87,-86.33C1090.01,-86.48 1079.8,-86.64 1070.19,-86.79"/>
<polygon fill="#63b8ff" stroke="#63b8ff" points="1100.04,-89.83 1109.99,-86.18 1099.94,-82.83 1100.04,-89.83"/>
</a>
</g>
</g>
<!-- Node33 -->
<g id="Node000033" class="node">
<title>Node33</title>
<g id="a_Node000033"><a xlink:href="handle__redirections_8c.html#a2834314002a1f4ef4af82f95159b0a34" target="_top" xlink:title="Handles input redirection from file or heredoc.">
<polygon fill="white" stroke="#666666" points="940,-99 821,-99 821,-80 940,-80 940,-99"/>
<text text-anchor="middle" x="880.5" y="-87" font-family="Helvetica,sans-Serif" font-size="10.00">ft_handle_infile_redir</text>
</a>
</g>
</g>
<!-- Node32&#45;&gt;Node33 -->
<g id="edge39_Node000032_Node000033" class="edge">
<title>Node32&#45;&gt;Node33</title>
<g id="a_edge39_Node000032_Node000033"><a xlink:title=" ">
<path fill="none" stroke="#63b8ff" d="M965.86,-88.3C957.41,-88.42 948.67,-88.54 940.17,-88.66"/>
<polygon fill="#63b8ff" stroke="#63b8ff" points="966.05,-91.8 976,-88.15 965.95,-84.8 966.05,-91.8"/>
</a>
</g>
</g>
<!-- Node34 -->
<g id="Node000034" class="node">
<title>Node34</title>
<g id="a_Node000034"><a xlink:href="handle__redirections_8c.html#aa4509a43f47ed881eb2d81fb81458466" target="_top" xlink:title="Handles redirections without an associated command.">
<polygon fill="white" stroke="#666666" points="785,-105.5 672,-105.5 672,-75.5 785,-75.5 785,-105.5"/>
<text text-anchor="start" x="680" y="-93.5" font-family="Helvetica,sans-Serif" font-size="10.00">handle_redirection</text>
<text text-anchor="middle" x="728.5" y="-82.5" font-family="Helvetica,sans-Serif" font-size="10.00">_without_command</text>
</a>
</g>
</g>
<!-- Node33&#45;&gt;Node34 -->
<g id="edge40_Node000033_Node000034" class="edge">
<title>Node33&#45;&gt;Node34</title>
<g id="a_edge40_Node000033_Node000034"><a xlink:title=" ">
<path fill="none" stroke="#63b8ff" d="M810.43,-89.96C801.99,-90.02 793.45,-90.07 785.24,-90.13"/>
<polygon fill="#63b8ff" stroke="#63b8ff" points="810.67,-93.46 820.65,-89.89 810.62,-86.46 810.67,-93.46"/>
</a>
</g>
</g>
<!-- Node35 -->
<g id="Node000035" class="node">
<title>Node35</title>
<g id="a_Node000035"><a xlink:href="handle__redirections_8c.html#ab2c37fefb1291d3f8d0dc91e8c096334" target="_top" xlink:title="Handles redirection associated with a command.">
<polygon fill="white" stroke="#666666" points="636,-101 529,-101 529,-82 636,-82 636,-101"/>
<text text-anchor="middle" x="582.5" y="-89" font-family="Helvetica,sans-Serif" font-size="10.00">handle_redirection</text>
</a>
</g>
</g>
<!-- Node34&#45;&gt;Node35 -->
<g id="edge41_Node000034_Node000035" class="edge">
<title>Node34&#45;&gt;Node35</title>
<g id="a_edge41_Node000034_Node000035"><a xlink:title=" ">
<path fill="none" stroke="#63b8ff" d="M661.55,-90.96C653.05,-91.02 644.44,-91.08 636.19,-91.13"/>
<polygon fill="#63b8ff" stroke="#63b8ff" points="661.85,-94.46 671.83,-90.89 661.8,-87.46 661.85,-94.46"/>
</a>
</g>
</g>
<!-- Node36 -->
<g id="Node000036" class="node">
<title>Node36</title>
<g id="a_Node000036"><a xlink:href="create__command__list_8c.html#ae2006bf82a70d4753ffdca65847316ca" target="_top" xlink:title="Executes a redirection for the current command.">
<polygon fill="white" stroke="#666666" points="490,-103 416,-103 416,-84 490,-84 490,-103"/>
<text text-anchor="middle" x="453" y="-91" font-family="Helvetica,sans-Serif" font-size="10.00">ft_exe_redir</text>
</a>
</g>
</g>
<!-- Node35&#45;&gt;Node36 -->
<g id="edge42_Node000035_Node000036" class="edge">
<title>Node35&#45;&gt;Node36</title>
<g id="a_edge42_Node000035_Node000036"><a xlink:title=" ">
<path fill="none" stroke="#63b8ff" d="M518.74,-92.48C508.93,-92.64 499.09,-92.79 490.15,-92.93"/>
<polygon fill="#63b8ff" stroke="#63b8ff" points="518.96,-95.98 528.9,-92.33 518.85,-88.98 518.96,-95.98"/>
</a>
</g>
</g>
<!-- Node36&#45;&gt;Node28 -->
<g id="edge43_Node000036_Node000028" class="edge">
<title>Node36&#45;&gt;Node28</title>
<g id="a_edge43_Node000036_Node000028"><a xlink:title=" ">
<path fill="none" stroke="#63b8ff" d="M416.47,-106.66C401.18,-112.32 383.65,-118.82 369.66,-124"/>
<polygon fill="#63b8ff" stroke="#63b8ff" points="417.97,-109.84 426.13,-103.08 415.54,-103.27 417.97,-109.84"/>
</a>
</g>
</g>
<!-- Node38 -->
<g id="Node000038" class="node">
<title>Node38</title>
<g id="a_Node000038"><a xlink:href="system__commands_8c.html#a6d8647dce4277e848c613bd0cc3df5bb" target="_top" xlink:title="Executes a system command by creating a child process.">
<polygon fill="white" stroke="#666666" points="1349,-247 1260,-247 1260,-228 1349,-228 1349,-247"/>
<text text-anchor="middle" x="1304.5" y="-235" font-family="Helvetica,sans-Serif" font-size="10.00">ft_exe_syscmd</text>
</a>
</g>
</g>
<!-- Node37&#45;&gt;Node38 -->
<g id="edge45_Node000037_Node000038" class="edge">
<title>Node37&#45;&gt;Node38</title>
<g id="a_edge45_Node000037_Node000038"><a xlink:title=" ">
<path fill="none" stroke="#63b8ff" d="M1430.28,-180.34C1399.74,-194.33 1353.34,-215.59 1326.57,-227.85"/>
<polygon fill="#63b8ff" stroke="#63b8ff" points="1431.96,-183.42 1439.6,-176.08 1429.05,-177.06 1431.96,-183.42"/>
</a>
</g>
</g>
<!-- Node39 -->
<g id="Node000039" class="node">
<title>Node39</title>
<g id="a_Node000039"><a xlink:href="pipes_8c.html#ac1cb08fe66e7823c939af4fab981e93c" target="_top" xlink:title="Executes a system command inside a pipe.">
<polygon fill="white" stroke="#666666" points="1369,-171 1240,-171 1240,-152 1369,-152 1369,-171"/>
<text text-anchor="middle" x="1304.5" y="-159" font-family="Helvetica,sans-Serif" font-size="10.00">ft_exe_syscmd_in_pipe</text>
</a>
</g>
</g>
<!-- Node37&#45;&gt;Node39 -->
<g id="edge47_Node000037_Node000039" class="edge">
<title>Node37&#45;&gt;Node39</title>
<g id="a_edge47_Node000037_Node000039"><a xlink:title=" ">
<path fill="none" stroke="#63b8ff" d="M1409.65,-164.86C1396.67,-164.44 1382.57,-163.99 1369.04,-163.55"/>
<polygon fill="#63b8ff" stroke="#63b8ff" points="1409.67,-168.36 1419.78,-165.19 1409.89,-161.37 1409.67,-168.36"/>
</a>
</g>
</g>
<!-- Node38&#45;&gt;Node16 -->
<g id="edge46_Node000038_Node000016" class="edge">
<title>Node38&#45;&gt;Node16</title>
<g id="a_edge46_Node000038_Node000016"><a xlink:title=" ">
<path fill="none" stroke="#63b8ff" d="M1249.64,-245.53C1230.1,-248.45 1208.54,-251.66 1191.04,-254.27"/>
<polygon fill="#63b8ff" stroke="#63b8ff" points="1250.27,-248.98 1259.64,-244.04 1249.24,-242.05 1250.27,-248.98"/>
</a>
</g>
</g>
<!-- Node39&#45;&gt;Node17 -->
<g id="edge48_Node000039_Node000017" class="edge">
<title>Node39&#45;&gt;Node17</title>
<g id="a_edge48_Node000039_Node000017"><a xlink:title=" ">
<path fill="none" stroke="#63b8ff" d="M1256.49,-173.61C1235.94,-178.9 1212.2,-185.02 1192.95,-189.98"/>
<polygon fill="#63b8ff" stroke="#63b8ff" points="1257.47,-176.97 1266.28,-171.09 1255.72,-170.19 1257.47,-176.97"/>
</a>
</g>
</g>
<!-- Node40&#45;&gt;Node24 -->
<g id="edge50_Node000040_Node000024" class="edge">
<title>Node40&#45;&gt;Node24</title>
<g id="a_edge50_Node000040_Node000024"><a xlink:title=" ">
<path fill="none" stroke="#63b8ff" d="M1573.26,-234.82C1543.33,-230.14 1504.74,-224.1 1481.91,-220.54"/>
<polygon fill="#63b8ff" stroke="#63b8ff" points="1573.03,-238.32 1583.45,-236.41 1574.11,-231.41 1573.03,-238.32"/>
</a>
</g>
</g>
<!-- Node41&#45;&gt;Node40 -->
<g id="edge52_Node000041_Node000040" class="edge">
<title>Node41&#45;&gt;Node40</title>
<g id="a_edge52_Node000041_Node000040"><a xlink:title=" ">
<path fill="none" stroke="#63b8ff" d="M1726.7,-241.5C1702.86,-241.5 1673.06,-241.5 1650.69,-241.5"/>
<polygon fill="#63b8ff" stroke="#63b8ff" points="1726.85,-245 1736.85,-241.5 1726.85,-238 1726.85,-245"/>
</a>
</g>
</g>
</g>
</svg>
