<?xml version="1.0" encoding="UTF-8" standalone="no"?>
<!DOCTYPE svg PUBLIC "-//W3C//DTD SVG 1.1//EN"
 "http://www.w3.org/Graphics/SVG/1.1/DTD/svg11.dtd">
<!-- Generated by graphviz version 2.43.0 (0)
 -->
<!-- Title: check_format Pages: 1 -->
<svg width="383pt" height="266pt"
 viewBox="0.00 0.00 383.00 266.00" xmlns="http://www.w3.org/2000/svg" xmlns:xlink="http://www.w3.org/1999/xlink">
<g id="graph0" class="graph" transform="scale(1 1) rotate(0) translate(4 262)">
<title>check_format</title>
<!-- Node1 -->
<g id="Node000001" class="node">
<title>Node1</title>
<g id="a_Node000001"><a xlink:title="Processes a single format specifier and prints the corresponding argument.">
<polygon fill="#999999" stroke="#666666" points="83,-120 0,-120 0,-101 83,-101 83,-120"/>
<text text-anchor="middle" x="41.5" y="-108" font-family="Helvetica,sans-Serif" font-size="10.00">check_format</text>
</a>
</g>
</g>
<!-- Node2 -->
<g id="Node000002" class="node">
<title>Node2</title>
<g id="a_Node000002"><a xlink:href="ft__forpointer_8c.html#a8e02c77b80406af72327ebf71f537786" target="_top" xlink:title="Prints a pointer in hexadecimal format prefixed with &quot;0x&quot;.">
<polygon fill="white" stroke="#666666" points="212.5,-240 135.5,-240 135.5,-221 212.5,-221 212.5,-240"/>
<text text-anchor="middle" x="174" y="-228" font-family="Helvetica,sans-Serif" font-size="10.00">ft_forpointer</text>
</a>
</g>
</g>
<!-- Node1&#45;&gt;Node2 -->
<g id="edge1_Node000001_Node000002" class="edge">
<title>Node1&#45;&gt;Node2</title>
<g id="a_edge1_Node000001_Node000002"><a xlink:title=" ">
<path fill="none" stroke="#63b8ff" d="M47.18,-120.19C57.39,-140.35 83.62,-187 119,-212.5 121.22,-214.1 123.58,-215.56 126.04,-216.9"/>
<polygon fill="#63b8ff" stroke="#63b8ff" points="124.71,-220.14 135.25,-221.21 127.68,-213.8 124.71,-220.14"/>
</a>
</g>
</g>
<!-- Node4 -->
<g id="Node000004" class="node">
<title>Node4</title>
<g id="a_Node000004"><a xlink:href="ft__hexadecimal_8c.html#a39c845e0a4286d3ac1e04c1e64ac734b" target="_top" xlink:title="Prints an unsigned integer in hexadecimal format.">
<polygon fill="white" stroke="#666666" points="220,-185 128,-185 128,-166 220,-166 220,-185"/>
<text text-anchor="middle" x="174" y="-173" font-family="Helvetica,sans-Serif" font-size="10.00">ft_hexadecimal</text>
</a>
</g>
</g>
<!-- Node1&#45;&gt;Node4 -->
<g id="edge4_Node000001_Node000004" class="edge">
<title>Node1&#45;&gt;Node4</title>
<g id="a_edge4_Node000001_Node000004"><a xlink:title=" ">
<path fill="none" stroke="#63b8ff" d="M56.06,-120.16C70.95,-130.45 95.83,-146.7 119,-157.5 122.78,-159.26 126.78,-160.93 130.82,-162.49"/>
<polygon fill="#63b8ff" stroke="#63b8ff" points="129.67,-165.8 140.26,-165.93 132.06,-159.22 129.67,-165.8"/>
</a>
</g>
</g>
<!-- Node5 -->
<g id="Node000005" class="node">
<title>Node5</title>
<g id="a_Node000005"><a xlink:href="ft__putchar__fd_8c.html#a03ef80b25dc4a521379fa92ad97bad21" target="_top" xlink:title="Writes a single character to the specified file descriptor.">
<polygon fill="white" stroke="#666666" points="214,-148 134,-148 134,-129 214,-129 214,-148"/>
<text text-anchor="middle" x="174" y="-136" font-family="Helvetica,sans-Serif" font-size="10.00">ft_putchar_fd</text>
</a>
</g>
</g>
<!-- Node1&#45;&gt;Node5 -->
<g id="edge6_Node000001_Node000005" class="edge">
<title>Node1&#45;&gt;Node5</title>
<g id="a_edge6_Node000001_Node000005"><a xlink:title=" ">
<path fill="none" stroke="#63b8ff" d="M83.08,-119.21C95.95,-121.97 110.34,-125.06 123.76,-127.93"/>
<polygon fill="#63b8ff" stroke="#63b8ff" points="123.28,-131.41 133.79,-130.09 124.75,-124.57 123.28,-131.41"/>
</a>
</g>
</g>
<!-- Node6 -->
<g id="Node000006" class="node">
<title>Node6</title>
<g id="a_Node000006"><a xlink:href="ft__putnbr__fd_8c.html#a1554101ee350c316340c78e19faddaa8" target="_top" xlink:title="Writes an integer to a given file descriptor.">
<polygon fill="white" stroke="#666666" points="211.5,-93 136.5,-93 136.5,-74 211.5,-74 211.5,-93"/>
<text text-anchor="middle" x="174" y="-81" font-family="Helvetica,sans-Serif" font-size="10.00">ft_putnbr_fd</text>
</a>
</g>
</g>
<!-- Node1&#45;&gt;Node6 -->
<g id="edge7_Node000001_Node000006" class="edge">
<title>Node1&#45;&gt;Node6</title>
<g id="a_edge7_Node000001_Node000006"><a xlink:title=" ">
<path fill="none" stroke="#63b8ff" d="M83.08,-102.11C96.8,-99.26 112.24,-96.07 126.4,-93.14"/>
<polygon fill="#63b8ff" stroke="#63b8ff" points="127.35,-96.52 136.44,-91.06 125.94,-89.66 127.35,-96.52"/>
</a>
</g>
</g>
<!-- Node7 -->
<g id="Node000007" class="node">
<title>Node7</title>
<g id="a_Node000007"><a xlink:href="ft__putstr__fd_8c.html#a00b0638f31a75c7a30f77f33888bfb73" target="_top" xlink:title="Writes a null&#45;terminated string to the specified file descriptor.">
<polygon fill="white" stroke="#666666" points="210,-56 138,-56 138,-37 210,-37 210,-56"/>
<text text-anchor="middle" x="174" y="-44" font-family="Helvetica,sans-Serif" font-size="10.00">ft_putstr_fd</text>
</a>
</g>
</g>
<!-- Node1&#45;&gt;Node7 -->
<g id="edge9_Node000001_Node000007" class="edge">
<title>Node1&#45;&gt;Node7</title>
<g id="a_edge9_Node000001_Node000007"><a xlink:title=" ">
<path fill="none" stroke="#63b8ff" d="M56.99,-100.83C72.05,-91.06 96.5,-75.95 119,-65.5 123.44,-63.44 128.17,-61.46 132.92,-59.62"/>
<polygon fill="#63b8ff" stroke="#63b8ff" points="134.43,-62.79 142.6,-56.04 132,-56.23 134.43,-62.79"/>
</a>
</g>
</g>
<!-- Node8 -->
<g id="Node000008" class="node">
<title>Node8</title>
<g id="a_Node000008"><a xlink:href="ft__unsigned__putnbr_8c.html#af9a70f8607b40cf2a7706f9d3725b549" target="_top" xlink:title="Writes an unsigned integer to the given file descriptor.">
<polygon fill="white" stroke="#666666" points="229,-19 119,-19 119,0 229,0 229,-19"/>
<text text-anchor="middle" x="174" y="-7" font-family="Helvetica,sans-Serif" font-size="10.00">ft_unsigned_putnbr</text>
</a>
</g>
</g>
<!-- Node1&#45;&gt;Node8 -->
<g id="edge10_Node000001_Node000008" class="edge">
<title>Node1&#45;&gt;Node8</title>
<g id="a_edge10_Node000001_Node000008"><a xlink:title=" ">
<path fill="none" stroke="#63b8ff" d="M48.96,-101C60.9,-84.11 88.04,-48.75 119,-28.5 121.96,-26.56 125.14,-24.8 128.42,-23.2"/>
<polygon fill="#63b8ff" stroke="#63b8ff" points="130.07,-26.3 137.84,-19.09 127.28,-19.88 130.07,-26.3"/>
</a>
</g>
</g>
<!-- Node3 -->
<g id="Node000003" class="node">
<title>Node3</title>
<g id="a_Node000003"><a xlink:href="ft__forpointer_8c.html#aded1bf735c8a10e47396170d27c5b6aa" target="_top" xlink:title="Recursively prints a memory address in hexadecimal format.">
<polygon fill="white" stroke="#666666" points="375,-240 265,-240 265,-221 375,-221 375,-240"/>
<text text-anchor="middle" x="320" y="-228" font-family="Helvetica,sans-Serif" font-size="10.00">ft_ricorsive_pointer</text>
</a>
</g>
</g>
<!-- Node2&#45;&gt;Node3 -->
<g id="edge2_Node000002_Node000003" class="edge">
<title>Node2&#45;&gt;Node3</title>
<g id="a_edge2_Node000002_Node000003"><a xlink:title=" ">
<path fill="none" stroke="#63b8ff" d="M212.83,-230.5C225.64,-230.5 240.33,-230.5 254.61,-230.5"/>
<polygon fill="#63b8ff" stroke="#63b8ff" points="254.9,-234 264.9,-230.5 254.9,-227 254.9,-234"/>
</a>
</g>
</g>
<!-- Node3&#45;&gt;Node3 -->
<g id="edge3_Node000003_Node000003" class="edge">
<title>Node3&#45;&gt;Node3</title>
<g id="a_edge3_Node000003_Node000003"><a xlink:title=" ">
<path fill="none" stroke="#63b8ff" d="M297.5,-240.08C286.55,-248.73 294.05,-258 320,-258 336.62,-258 345.68,-254.2 347.16,-249.19"/>
<polygon fill="#63b8ff" stroke="#63b8ff" points="350.17,-247.39 342.5,-240.08 343.94,-250.58 350.17,-247.39"/>
</a>
</g>
</g>
<!-- Node4&#45;&gt;Node4 -->
<g id="edge5_Node000004_Node000004" class="edge">
<title>Node4&#45;&gt;Node4</title>
<g id="a_edge5_Node000004_Node000004"><a xlink:title=" ">
<path fill="none" stroke="#63b8ff" d="M153.65,-185.08C143.76,-193.73 150.54,-203 174,-203 189.03,-203 197.21,-199.2 198.55,-194.19"/>
<polygon fill="#63b8ff" stroke="#63b8ff" points="201.72,-192.69 194.35,-185.08 195.36,-195.63 201.72,-192.69"/>
</a>
</g>
</g>
<!-- Node6&#45;&gt;Node6 -->
<g id="edge8_Node000006_Node000006" class="edge">
<title>Node6&#45;&gt;Node6</title>
<g id="a_edge8_Node000006_Node000006"><a xlink:title=" ">
<path fill="none" stroke="#63b8ff" d="M153.65,-93.08C143.76,-101.73 150.54,-111 174,-111 189.03,-111 197.21,-107.2 198.55,-102.19"/>
<polygon fill="#63b8ff" stroke="#63b8ff" points="201.72,-100.69 194.35,-93.08 195.36,-103.63 201.72,-100.69"/>
</a>
</g>
</g>
<!-- Node9 -->
<g id="Node000009" class="node">
<title>Node9</title>
<g id="a_Node000009"><a xlink:href="ft__putnbr_8c.html#a2e51f80c9e46e52f4adf94617fb51ada" target="_top" xlink:title="Writes an integer to the standard output (stdout).">
<polygon fill="white" stroke="#666666" points="350,-19 290,-19 290,0 350,0 350,-19"/>
<text text-anchor="middle" x="320" y="-7" font-family="Helvetica,sans-Serif" font-size="10.00">ft_putnbr</text>
</a>
</g>
</g>
<!-- Node8&#45;&gt;Node9 -->
<g id="edge11_Node000008_Node000009" class="edge">
<title>Node8&#45;&gt;Node9</title>
<g id="a_edge11_Node000008_Node000009"><a xlink:title=" ">
<path fill="none" stroke="#63b8ff" d="M229.03,-9.5C245.76,-9.5 263.87,-9.5 279.43,-9.5"/>
<polygon fill="#63b8ff" stroke="#63b8ff" points="279.74,-13 289.74,-9.5 279.74,-6 279.74,-13"/>
</a>
</g>
</g>
<!-- Node9&#45;&gt;Node9 -->
<g id="edge12_Node000009_Node000009" class="edge">
<title>Node9&#45;&gt;Node9</title>
<g id="a_edge12_Node000009_Node000009"><a xlink:title=" ">
<path fill="none" stroke="#63b8ff" d="M297.5,-19.08C286.55,-27.73 294.05,-37 320,-37 336.62,-37 345.68,-33.2 347.16,-28.19"/>
<polygon fill="#63b8ff" stroke="#63b8ff" points="350.17,-26.39 342.5,-19.08 343.94,-29.58 350.17,-26.39"/>
</a>
</g>
</g>
</g>
</svg>
