<?xml version="1.0" encoding="UTF-8" standalone="no"?>
<!DOCTYPE svg PUBLIC "-//W3C//DTD SVG 1.1//EN"
 "http://www.w3.org/Graphics/SVG/1.1/DTD/svg11.dtd">
<!-- Generated by graphviz version 2.43.0 (0)
 -->
<!-- Title: ft_isspace Pages: 1 -->
<svg width="1361pt" height="159pt"
 viewBox="0.00 0.00 1361.00 159.41" xmlns="http://www.w3.org/2000/svg" xmlns:xlink="http://www.w3.org/1999/xlink">
<g id="graph0" class="graph" transform="scale(1 1) rotate(0) translate(4 155.41)">
<title>ft_isspace</title>
<!-- Node1 -->
<g id="Node000001" class="node">
<title>Node1</title>
<g id="a_Node000001"><a xlink:title="Checks whether a character is a whitespace character.">
<polygon fill="#999999" stroke="#666666" points="1353,-75.41 1288,-75.41 1288,-56.41 1353,-56.41 1353,-75.41"/>
<text text-anchor="middle" x="1320.5" y="-63.41" font-family="Helvetica,sans-Serif" font-size="10.00">ft_isspace</text>
</a>
</g>
</g>
<!-- Node2 -->
<g id="Node000002" class="node">
<title>Node2</title>
<g id="a_Node000002"><a xlink:href="ft__atol_8c.html#a25083028f2d84eb80f897cf3a4ca213b" target="_top" xlink:title="Converts a string to an long integer.">
<polygon fill="white" stroke="#666666" points="1234,-113.41 1187,-113.41 1187,-94.41 1234,-94.41 1234,-113.41"/>
<text text-anchor="middle" x="1210.5" y="-101.41" font-family="Helvetica,sans-Serif" font-size="10.00">ft_atol</text>
</a>
</g>
</g>
<!-- Node1&#45;&gt;Node2 -->
<g id="edge1_Node000001_Node000002" class="edge">
<title>Node1&#45;&gt;Node2</title>
<g id="a_edge1_Node000001_Node000002"><a xlink:title=" ">
<path fill="none" stroke="#63b8ff" d="M1282.56,-78.91C1266.43,-84.58 1248.04,-91.05 1234.01,-95.99"/>
<polygon fill="#63b8ff" stroke="#63b8ff" points="1283.98,-82.12 1292.25,-75.5 1281.65,-75.51 1283.98,-82.12"/>
</a>
</g>
</g>
<!-- Node13 -->
<g id="Node000013" class="node">
<title>Node13</title>
<g id="a_Node000013"><a xlink:href="export_8c.html#aa1462300aee0c9091833b58ece6c6506" target="_top" xlink:title="Executes export on a single argument.">
<polygon fill="white" stroke="#666666" points="1252,-151.41 1169,-151.41 1169,-132.41 1252,-132.41 1252,-151.41"/>
<text text-anchor="middle" x="1210.5" y="-139.41" font-family="Helvetica,sans-Serif" font-size="10.00">ft_exe_export</text>
</a>
</g>
</g>
<!-- Node1&#45;&gt;Node13 -->
<g id="edge13_Node000001_Node000013" class="edge">
<title>Node1&#45;&gt;Node13</title>
<g id="a_edge13_Node000001_Node000013"><a xlink:title=" ">
<path fill="none" stroke="#63b8ff" d="M1302.29,-82.65C1289.22,-94.8 1270.39,-111.12 1252,-122.91 1246.64,-126.34 1240.56,-129.53 1234.76,-132.27"/>
<polygon fill="#63b8ff" stroke="#63b8ff" points="1304.78,-85.11 1309.64,-75.69 1299.97,-80.02 1304.78,-85.11"/>
</a>
</g>
</g>
<!-- Node16 -->
<g id="Node000016" class="node">
<title>Node16</title>
<g id="a_Node000016"><a xlink:href="tokenize__input_8c.html#a4ec55df7b6b0c546095f50475f610fb1" target="_top" xlink:title="Extracts and builds a single token from the user input.">
<polygon fill="white" stroke="#666666" points="1117.5,-37.41 1035.5,-37.41 1035.5,-18.41 1117.5,-18.41 1117.5,-37.41"/>
<text text-anchor="middle" x="1076.5" y="-25.41" font-family="Helvetica,sans-Serif" font-size="10.00">ft_get_tokens</text>
</a>
</g>
</g>
<!-- Node1&#45;&gt;Node16 -->
<g id="edge18_Node000001_Node000016" class="edge">
<title>Node1&#45;&gt;Node16</title>
<g id="a_edge18_Node000001_Node000016"><a xlink:title=" ">
<path fill="none" stroke="#63b8ff" d="M1305.25,-48.49C1292.82,-34.79 1273.47,-16.76 1252,-8.91 1201.2,9.67 1136.95,-6.65 1102.33,-18.4"/>
<polygon fill="#63b8ff" stroke="#63b8ff" points="1302.85,-51.06 1312.04,-56.33 1308.13,-46.48 1302.85,-51.06"/>
</a>
</g>
</g>
<!-- Node17 -->
<g id="Node000017" class="node">
<title>Node17</title>
<g id="a_Node000017"><a xlink:href="tokenize__input_8c.html#a4e40c3f57ab2488a2b49f37846785b2e" target="_top" xlink:title="Tokenizes the entire user input string.">
<polygon fill="white" stroke="#666666" points="983,-75.41 925,-75.41 925,-56.41 983,-56.41 983,-75.41"/>
<text text-anchor="middle" x="954" y="-63.41" font-family="Helvetica,sans-Serif" font-size="10.00">tokenize</text>
</a>
</g>
</g>
<!-- Node1&#45;&gt;Node17 -->
<g id="edge23_Node000001_Node000017" class="edge">
<title>Node1&#45;&gt;Node17</title>
<g id="a_edge23_Node000001_Node000017"><a xlink:title=" ">
<path fill="none" stroke="#63b8ff" d="M1277.77,-65.91C1202.81,-65.91 1047.24,-65.91 983.34,-65.91"/>
<polygon fill="#63b8ff" stroke="#63b8ff" points="1277.79,-69.41 1287.79,-65.91 1277.79,-62.41 1277.79,-69.41"/>
</a>
</g>
</g>
<!-- Node18 -->
<g id="Node000018" class="node">
<title>Node18</title>
<g id="a_Node000018"><a xlink:href="handle__tokens_8c.html#a4435ee7ff5bdf5ceb09137c12fd49ccd" target="_top" xlink:title="Handles creation of a normal token (words, commands, arguments).">
<polygon fill="white" stroke="#666666" points="1250,-37.41 1171,-37.41 1171,-18.41 1250,-18.41 1250,-37.41"/>
<text text-anchor="middle" x="1210.5" y="-25.41" font-family="Helvetica,sans-Serif" font-size="10.00">handle_word</text>
</a>
</g>
</g>
<!-- Node1&#45;&gt;Node18 -->
<g id="edge21_Node000001_Node000018" class="edge">
<title>Node1&#45;&gt;Node18</title>
<g id="a_edge21_Node000001_Node000018"><a xlink:title=" ">
<path fill="none" stroke="#63b8ff" d="M1282.63,-52.94C1268.24,-47.87 1252.05,-42.17 1238.74,-37.49"/>
<polygon fill="#63b8ff" stroke="#63b8ff" points="1281.65,-56.3 1292.25,-56.32 1283.98,-49.7 1281.65,-56.3"/>
</a>
</g>
</g>
<!-- Node3 -->
<g id="Node000003" class="node">
<title>Node3</title>
<g id="a_Node000003"><a xlink:href="exit_8c.html#af0d4948984577b715a89f18d5864cfa2" target="_top" xlink:title="Builtin function for the exit command.">
<polygon fill="white" stroke="#666666" points="977.5,-113.41 930.5,-113.41 930.5,-94.41 977.5,-94.41 977.5,-113.41"/>
<text text-anchor="middle" x="954" y="-101.41" font-family="Helvetica,sans-Serif" font-size="10.00">ft_exit</text>
</a>
</g>
</g>
<!-- Node2&#45;&gt;Node3 -->
<g id="edge2_Node000002_Node000003" class="edge">
<title>Node2&#45;&gt;Node3</title>
<g id="a_edge2_Node000002_Node000003"><a xlink:title=" ">
<path fill="none" stroke="#63b8ff" d="M1176.81,-103.91C1124.34,-103.91 1022.68,-103.91 977.53,-103.91"/>
<polygon fill="#63b8ff" stroke="#63b8ff" points="1176.91,-107.41 1186.91,-103.91 1176.91,-100.41 1176.91,-107.41"/>
</a>
</g>
</g>
<!-- Node4 -->
<g id="Node000004" class="node">
<title>Node4</title>
<g id="a_Node000004"><a xlink:href="cmd__execution_8c.html#a5ce7231f800cbacea6350cc1a32a59bd" target="_top" xlink:title="Executes a list of non&#45;pipelined commands.">
<polygon fill="white" stroke="#666666" points="875,-150.41 803,-150.41 803,-131.41 875,-131.41 875,-150.41"/>
<text text-anchor="middle" x="839" y="-138.41" font-family="Helvetica,sans-Serif" font-size="10.00">ft_exe_cmd</text>
</a>
</g>
</g>
<!-- Node3&#45;&gt;Node4 -->
<g id="edge3_Node000003_Node000004" class="edge">
<title>Node3&#45;&gt;Node4</title>
<g id="a_edge3_Node000003_Node000004"><a xlink:title=" ">
<path fill="none" stroke="#63b8ff" d="M920.82,-114.44C904.65,-119.74 885.19,-126.11 869.42,-131.27"/>
<polygon fill="#63b8ff" stroke="#63b8ff" points="921.99,-117.74 930.4,-111.31 919.81,-111.09 921.99,-117.74"/>
</a>
</g>
</g>
<!-- Node8 -->
<g id="Node000008" class="node">
<title>Node8</title>
<g id="a_Node000008"><a xlink:href="cmd__execution_8c.html#a50e59fa2e4621831a415d4038f697c56" target="_top" xlink:title="Executes a command within a pipeline.">
<polygon fill="white" stroke="#666666" points="888,-113.41 790,-113.41 790,-94.41 888,-94.41 888,-113.41"/>
<text text-anchor="middle" x="839" y="-101.41" font-family="Helvetica,sans-Serif" font-size="10.00">ft_exe_pipe_cmd</text>
</a>
</g>
</g>
<!-- Node3&#45;&gt;Node8 -->
<g id="edge7_Node000003_Node000008" class="edge">
<title>Node3&#45;&gt;Node8</title>
<g id="a_edge7_Node000003_Node000008"><a xlink:title=" ">
<path fill="none" stroke="#63b8ff" d="M920.13,-103.91C910.17,-103.91 899,-103.91 888.24,-103.91"/>
<polygon fill="#63b8ff" stroke="#63b8ff" points="920.4,-107.41 930.4,-103.91 920.4,-100.41 920.4,-107.41"/>
</a>
</g>
</g>
<!-- Node5 -->
<g id="Node000005" class="node">
<title>Node5</title>
<g id="a_Node000005"><a xlink:href="main__utils_8c.html#a7e8f478480ab6ab34d6f5eadaf6acdb9" target="_top" xlink:title="Handles parsing and execution of tokens.">
<polygon fill="white" stroke="#666666" points="273,-113.41 192,-113.41 192,-94.41 273,-94.41 273,-113.41"/>
<text text-anchor="middle" x="232.5" y="-101.41" font-family="Helvetica,sans-Serif" font-size="10.00">ft_token_flow</text>
</a>
</g>
</g>
<!-- Node4&#45;&gt;Node5 -->
<g id="edge4_Node000004_Node000005" class="edge">
<title>Node4&#45;&gt;Node5</title>
<g id="a_edge4_Node000004_Node000005"><a xlink:title=" ">
<path fill="none" stroke="#63b8ff" d="M792.83,-141.19C741.77,-141.49 656.16,-141.91 582.5,-141.91 582.5,-141.91 582.5,-141.91 459.5,-141.91 391.07,-141.91 312.57,-124.75 268.43,-113.5"/>
<polygon fill="#63b8ff" stroke="#63b8ff" points="792.89,-144.69 802.87,-141.13 792.85,-137.69 792.89,-144.69"/>
</a>
</g>
</g>
<!-- Node6 -->
<g id="Node000006" class="node">
<title>Node6</title>
<g id="a_Node000006"><a xlink:href="main__utils_8c.html#ae35edfb8f1339d6f77f53c28eb2a2ed6" target="_top" xlink:title="Handles a complete cycle of input → parsing → execution.">
<polygon fill="white" stroke="#666666" points="156,-94.41 77,-94.41 77,-75.41 156,-75.41 156,-94.41"/>
<text text-anchor="middle" x="116.5" y="-82.41" font-family="Helvetica,sans-Serif" font-size="10.00">ft_main_flow</text>
</a>
</g>
</g>
<!-- Node5&#45;&gt;Node6 -->
<g id="edge5_Node000005_Node000006" class="edge">
<title>Node5&#45;&gt;Node6</title>
<g id="a_edge5_Node000005_Node000006"><a xlink:title=" ">
<path fill="none" stroke="#63b8ff" d="M181.98,-95.65C173.35,-94.22 164.49,-92.74 156.21,-91.36"/>
<polygon fill="#63b8ff" stroke="#63b8ff" points="181.51,-99.12 191.95,-97.32 182.66,-92.22 181.51,-99.12"/>
</a>
</g>
</g>
<!-- Node7 -->
<g id="Node000007" class="node">
<title>Node7</title>
<g id="a_Node000007"><a xlink:href="main_8c.html#ab3862b46d6a8d13c2d884a297e6b05b5" target="_top" xlink:title="Main function of the minishell.">
<polygon fill="white" stroke="#666666" points="41,-94.41 0,-94.41 0,-75.41 41,-75.41 41,-94.41"/>
<text text-anchor="middle" x="20.5" y="-82.41" font-family="Helvetica,sans-Serif" font-size="10.00">main</text>
</a>
</g>
</g>
<!-- Node6&#45;&gt;Node7 -->
<g id="edge6_Node000006_Node000007" class="edge">
<title>Node6&#45;&gt;Node7</title>
<g id="a_edge6_Node000006_Node000007"><a xlink:title=" ">
<path fill="none" stroke="#63b8ff" d="M66.74,-84.91C57.62,-84.91 48.59,-84.91 41.03,-84.91"/>
<polygon fill="#63b8ff" stroke="#63b8ff" points="67,-88.41 77,-84.91 67,-81.41 67,-88.41"/>
</a>
</g>
</g>
<!-- Node9 -->
<g id="Node000009" class="node">
<title>Node9</title>
<g id="a_Node000009"><a xlink:href="pipes_8c.html#a36a2d91a0566ad253efe3833b05e69d1" target="_top" xlink:title="Routine executed by the child process for each command in the pipe.">
<polygon fill="white" stroke="#666666" points="754,-113.41 662,-113.41 662,-94.41 754,-94.41 754,-113.41"/>
<text text-anchor="middle" x="708" y="-101.41" font-family="Helvetica,sans-Serif" font-size="10.00">ft_child_routine</text>
</a>
</g>
</g>
<!-- Node8&#45;&gt;Node9 -->
<g id="edge8_Node000008_Node000009" class="edge">
<title>Node8&#45;&gt;Node9</title>
<g id="a_edge8_Node000008_Node000009"><a xlink:title=" ">
<path fill="none" stroke="#63b8ff" d="M779.91,-103.91C771.24,-103.91 762.42,-103.91 754.08,-103.91"/>
<polygon fill="#63b8ff" stroke="#63b8ff" points="779.97,-107.41 789.97,-103.91 779.97,-100.41 779.97,-107.41"/>
</a>
</g>
</g>
<!-- Node10 -->
<g id="Node000010" class="node">
<title>Node10</title>
<g id="a_Node000010"><a xlink:href="pipes_8c.html#aa17e847997e7266a0a111ab3572756bb" target="_top" xlink:title="Manages pipe creation and fork to execute the current command.">
<polygon fill="white" stroke="#666666" points="626,-113.41 537,-113.41 537,-94.41 626,-94.41 626,-113.41"/>
<text text-anchor="middle" x="581.5" y="-101.41" font-family="Helvetica,sans-Serif" font-size="10.00">ft_pipe_routine</text>
</a>
</g>
</g>
<!-- Node9&#45;&gt;Node10 -->
<g id="edge9_Node000009_Node000010" class="edge">
<title>Node9&#45;&gt;Node10</title>
<g id="a_edge9_Node000009_Node000010"><a xlink:title=" ">
<path fill="none" stroke="#63b8ff" d="M651.52,-103.91C643.08,-103.91 634.46,-103.91 626.31,-103.91"/>
<polygon fill="#63b8ff" stroke="#63b8ff" points="651.7,-107.41 661.7,-103.91 651.7,-100.41 651.7,-107.41"/>
</a>
</g>
</g>
<!-- Node11 -->
<g id="Node000011" class="node">
<title>Node11</title>
<g id="a_Node000011"><a xlink:href="pipes_8c.html#a7a3b0de1a88a243da741f748881e14f0" target="_top" xlink:title="Executes a list of commands connected via pipes.">
<polygon fill="white" stroke="#666666" points="501,-113.41 420,-113.41 420,-94.41 501,-94.41 501,-113.41"/>
<text text-anchor="middle" x="460.5" y="-101.41" font-family="Helvetica,sans-Serif" font-size="10.00">execute_pipe</text>
</a>
</g>
</g>
<!-- Node10&#45;&gt;Node11 -->
<g id="edge10_Node000010_Node000011" class="edge">
<title>Node10&#45;&gt;Node11</title>
<g id="a_edge10_Node000010_Node000011"><a xlink:title=" ">
<path fill="none" stroke="#63b8ff" d="M526.85,-103.91C518.22,-103.91 509.42,-103.91 501.19,-103.91"/>
<polygon fill="#63b8ff" stroke="#63b8ff" points="526.86,-107.41 536.86,-103.91 526.86,-100.41 526.86,-107.41"/>
</a>
</g>
</g>
<!-- Node12 -->
<g id="Node000012" class="node">
<title>Node12</title>
<g id="a_Node000012"><a xlink:href="main__utils_8c.html#ad0183732909ae6e7c52e7b086c2e5642" target="_top" xlink:title="Manages the execution flow of commands with pipes.">
<polygon fill="white" stroke="#666666" points="384,-113.41 309,-113.41 309,-94.41 384,-94.41 384,-113.41"/>
<text text-anchor="middle" x="346.5" y="-101.41" font-family="Helvetica,sans-Serif" font-size="10.00">ft_pipe_flow</text>
</a>
</g>
</g>
<!-- Node11&#45;&gt;Node12 -->
<g id="edge11_Node000011_Node000012" class="edge">
<title>Node11&#45;&gt;Node12</title>
<g id="a_edge11_Node000011_Node000012"><a xlink:title=" ">
<path fill="none" stroke="#63b8ff" d="M409.47,-103.91C400.96,-103.91 392.26,-103.91 384.18,-103.91"/>
<polygon fill="#63b8ff" stroke="#63b8ff" points="409.7,-107.41 419.7,-103.91 409.7,-100.41 409.7,-107.41"/>
</a>
</g>
</g>
<!-- Node12&#45;&gt;Node5 -->
<g id="edge12_Node000012_Node000005" class="edge">
<title>Node12&#45;&gt;Node5</title>
<g id="a_edge12_Node000012_Node000005"><a xlink:title=" ">
<path fill="none" stroke="#63b8ff" d="M298.73,-103.91C290.29,-103.91 281.57,-103.91 273.35,-103.91"/>
<polygon fill="#63b8ff" stroke="#63b8ff" points="298.83,-107.41 308.83,-103.91 298.83,-100.41 298.83,-107.41"/>
</a>
</g>
</g>
<!-- Node14 -->
<g id="Node000014" class="node">
<title>Node14</title>
<g id="a_Node000014"><a xlink:href="export_8c.html#a962491ce27455342a86cefa998c352fd" target="_top" xlink:title="Handles the export command with arguments.">
<polygon fill="white" stroke="#666666" points="1133,-151.41 1020,-151.41 1020,-132.41 1133,-132.41 1133,-151.41"/>
<text text-anchor="middle" x="1076.5" y="-139.41" font-family="Helvetica,sans-Serif" font-size="10.00">ft_export_with_args</text>
</a>
</g>
</g>
<!-- Node13&#45;&gt;Node14 -->
<g id="edge14_Node000013_Node000014" class="edge">
<title>Node13&#45;&gt;Node14</title>
<g id="a_edge14_Node000013_Node000014"><a xlink:title=" ">
<path fill="none" stroke="#63b8ff" d="M1158.57,-141.91C1150.31,-141.91 1141.71,-141.91 1133.34,-141.91"/>
<polygon fill="#63b8ff" stroke="#63b8ff" points="1158.82,-145.41 1168.82,-141.91 1158.82,-138.41 1158.82,-145.41"/>
</a>
</g>
</g>
<!-- Node15 -->
<g id="Node000015" class="node">
<title>Node15</title>
<g id="a_Node000015"><a xlink:href="export_8c.html#a2b0f2ba2e9188c7b4f6ca5a44c1d0c8e" target="_top" xlink:title="Builtin function for the export command.">
<polygon fill="white" stroke="#666666" points="984,-150.41 924,-150.41 924,-131.41 984,-131.41 984,-150.41"/>
<text text-anchor="middle" x="954" y="-138.41" font-family="Helvetica,sans-Serif" font-size="10.00">ft_export</text>
</a>
</g>
</g>
<!-- Node14&#45;&gt;Node15 -->
<g id="edge15_Node000014_Node000015" class="edge">
<title>Node14&#45;&gt;Node15</title>
<g id="a_edge15_Node000014_Node000015"><a xlink:title=" ">
<path fill="none" stroke="#63b8ff" d="M1009.7,-141.36C1000.75,-141.29 991.97,-141.21 984.15,-141.15"/>
<polygon fill="#63b8ff" stroke="#63b8ff" points="1009.81,-144.86 1019.84,-141.45 1009.86,-137.86 1009.81,-144.86"/>
</a>
</g>
</g>
<!-- Node15&#45;&gt;Node4 -->
<g id="edge16_Node000015_Node000004" class="edge">
<title>Node15&#45;&gt;Node4</title>
<g id="a_edge16_Node000015_Node000004"><a xlink:title=" ">
<path fill="none" stroke="#63b8ff" d="M913.7,-140.91C901.12,-140.91 887.29,-140.91 875.04,-140.91"/>
<polygon fill="#63b8ff" stroke="#63b8ff" points="913.9,-144.41 923.9,-140.91 913.9,-137.41 913.9,-144.41"/>
</a>
</g>
</g>
<!-- Node15&#45;&gt;Node8 -->
<g id="edge17_Node000015_Node000008" class="edge">
<title>Node15&#45;&gt;Node8</title>
<g id="a_edge17_Node000015_Node000008"><a xlink:title=" ">
<path fill="none" stroke="#63b8ff" d="M914.09,-128.17C899.44,-123.37 883.04,-118 869.39,-113.53"/>
<polygon fill="#63b8ff" stroke="#63b8ff" points="913.31,-131.59 923.9,-131.38 915.49,-124.94 913.31,-131.59"/>
</a>
</g>
</g>
<!-- Node16&#45;&gt;Node17 -->
<g id="edge19_Node000016_Node000017" class="edge">
<title>Node16&#45;&gt;Node17</title>
<g id="a_edge19_Node000016_Node000017"><a xlink:title=" ">
<path fill="none" stroke="#63b8ff" d="M1035.38,-40.56C1018.33,-45.94 998.84,-52.08 983.33,-56.97"/>
<polygon fill="#63b8ff" stroke="#63b8ff" points="1036.61,-43.84 1045.09,-37.5 1034.5,-37.17 1036.61,-43.84"/>
</a>
</g>
</g>
<!-- Node17&#45;&gt;Node6 -->
<g id="edge20_Node000017_Node000006" class="edge">
<title>Node17&#45;&gt;Node6</title>
<g id="a_edge20_Node000017_Node000006"><a xlink:title=" ">
<path fill="none" stroke="#63b8ff" d="M914.57,-65.91C866.49,-65.91 781.66,-65.91 709,-65.91 709,-65.91 709,-65.91 345.5,-65.91 278.77,-65.91 201.43,-74.09 156.15,-79.72"/>
<polygon fill="#63b8ff" stroke="#63b8ff" points="914.82,-69.41 924.82,-65.91 914.82,-62.41 914.82,-69.41"/>
</a>
</g>
</g>
<!-- Node18&#45;&gt;Node16 -->
<g id="edge22_Node000018_Node000016" class="edge">
<title>Node18&#45;&gt;Node16</title>
<g id="a_edge22_Node000018_Node000016"><a xlink:title=" ">
<path fill="none" stroke="#63b8ff" d="M1160.87,-27.91C1146.67,-27.91 1131.31,-27.91 1117.69,-27.91"/>
<polygon fill="#63b8ff" stroke="#63b8ff" points="1160.97,-31.41 1170.97,-27.91 1160.97,-24.41 1160.97,-31.41"/>
</a>
</g>
</g>
</g>
</svg>
