<?xml version="1.0" encoding="UTF-8" standalone="no"?>
<!DOCTYPE svg PUBLIC "-//W3C//DTD SVG 1.1//EN"
 "http://www.w3.org/Graphics/SVG/1.1/DTD/svg11.dtd">
<!-- Generated by graphviz version 2.43.0 (0)
 -->
<!-- Title: ft_substr Pages: 1 -->
<svg width="1694pt" height="216pt"
 viewBox="0.00 0.00 1694.00 215.50" xmlns="http://www.w3.org/2000/svg" xmlns:xlink="http://www.w3.org/1999/xlink">
<g id="graph0" class="graph" transform="scale(1 1) rotate(0) translate(4 211.5)">
<title>ft_substr</title>
<!-- Node1 -->
<g id="Node000001" class="node">
<title>Node1</title>
<g id="a_Node000001"><a xlink:title="Extracts a substring from a given string.">
<polygon fill="#999999" stroke="#666666" points="1686,-130 1627,-130 1627,-111 1686,-111 1686,-130"/>
<text text-anchor="middle" x="1656.5" y="-118" font-family="Helvetica,sans-Serif" font-size="10.00">ft_substr</text>
</a>
</g>
</g>
<!-- Node2 -->
<g id="Node000002" class="node">
<title>Node2</title>
<g id="a_Node000002"><a xlink:href="create__command__list_8c.html#a6823bdba32af9d583d3b6ad55969f4e7" target="_top" xlink:title="Expands the exit status variable $? in a string.">
<polygon fill="white" stroke="#666666" points="1466,-168 1368,-168 1368,-149 1466,-149 1466,-168"/>
<text text-anchor="middle" x="1417" y="-156" font-family="Helvetica,sans-Serif" font-size="10.00">ft_estatus_to_str</text>
</a>
</g>
</g>
<!-- Node1&#45;&gt;Node2 -->
<g id="edge1_Node000001_Node000002" class="edge">
<title>Node1&#45;&gt;Node2</title>
<g id="a_edge1_Node000001_Node000002"><a xlink:title=" ">
<path fill="none" stroke="#63b8ff" d="M1617.4,-132.94C1608.79,-135.41 1599.64,-137.77 1591,-139.5 1549.23,-147.88 1500.99,-152.79 1466.08,-155.51"/>
<polygon fill="#63b8ff" stroke="#63b8ff" points="1618.61,-136.23 1627.19,-130.02 1616.61,-129.52 1618.61,-136.23"/>
</a>
</g>
</g>
<!-- Node8 -->
<g id="Node000008" class="node">
<title>Node8</title>
<g id="a_Node000008"><a xlink:href="utils__env_8c.html#a4ea711c91d64ff7669bf6ac7e6b6b9dd" target="_top" xlink:title="Expands an environment variable found in a string.">
<polygon fill="white" stroke="#666666" points="1580.5,-93 1515.5,-93 1515.5,-74 1580.5,-74 1580.5,-93"/>
<text text-anchor="middle" x="1548" y="-81" font-family="Helvetica,sans-Serif" font-size="10.00">ft_expand</text>
</a>
</g>
</g>
<!-- Node1&#45;&gt;Node8 -->
<g id="edge7_Node000001_Node000008" class="edge">
<title>Node1&#45;&gt;Node8</title>
<g id="a_edge7_Node000001_Node000008"><a xlink:title=" ">
<path fill="none" stroke="#63b8ff" d="M1618.43,-107.62C1604.72,-102.86 1589.44,-97.55 1576.7,-93.12"/>
<polygon fill="#63b8ff" stroke="#63b8ff" points="1617.48,-111 1628.07,-110.97 1619.78,-104.38 1617.48,-111"/>
</a>
</g>
</g>
<!-- Node18 -->
<g id="Node000018" class="node">
<title>Node18</title>
<g id="a_Node000018"><a xlink:href="get__next__line_8c.html#a253f107325777771467d4b92d8ad0def" target="_top" xlink:title=" ">
<polygon fill="white" stroke="#666666" points="1579.5,-206 1516.5,-206 1516.5,-187 1579.5,-187 1579.5,-206"/>
<text text-anchor="middle" x="1548" y="-194" font-family="Helvetica,sans-Serif" font-size="10.00">ft_getrest</text>
</a>
</g>
</g>
<!-- Node1&#45;&gt;Node18 -->
<g id="edge20_Node000001_Node000018" class="edge">
<title>Node1&#45;&gt;Node18</title>
<g id="a_edge20_Node000001_Node000018"><a xlink:title=" ">
<path fill="none" stroke="#63b8ff" d="M1636.61,-137.06C1624.07,-147.72 1607.02,-161.56 1591,-172.5 1583.51,-177.61 1574.86,-182.68 1567.37,-186.84"/>
<polygon fill="#63b8ff" stroke="#63b8ff" points="1639.2,-139.45 1644.5,-130.27 1634.64,-134.14 1639.2,-139.45"/>
</a>
</g>
</g>
<!-- Node20 -->
<g id="Node000020" class="node">
<title>Node20</title>
<g id="a_Node000020"><a xlink:href="utils__env_8c.html#a3323d2c2586349772b23a3eaf1a241c3" target="_top" xlink:title="Concatenates a literal part (non&#45;variable) of the string to the result.">
<polygon fill="white" stroke="#666666" points="1587,-130 1509,-130 1509,-111 1587,-111 1587,-130"/>
<text text-anchor="middle" x="1548" y="-118" font-family="Helvetica,sans-Serif" font-size="10.00">ft_merge_str</text>
</a>
</g>
</g>
<!-- Node1&#45;&gt;Node20 -->
<g id="edge23_Node000001_Node000020" class="edge">
<title>Node1&#45;&gt;Node20</title>
<g id="a_edge23_Node000001_Node000020"><a xlink:title=" ">
<path fill="none" stroke="#63b8ff" d="M1616.83,-120.5C1607.19,-120.5 1596.86,-120.5 1587.24,-120.5"/>
<polygon fill="#63b8ff" stroke="#63b8ff" points="1616.96,-124 1626.96,-120.5 1616.96,-117 1616.96,-124"/>
</a>
</g>
</g>
<!-- Node21 -->
<g id="Node000021" class="node">
<title>Node21</title>
<g id="a_Node000021"><a xlink:href="utils__env__pt2_8c.html#a347832cde8b1beaad47f03caa3af78f0" target="_top" xlink:title="Extracts the variable name from a &quot;KEY=VALUE&quot; string.">
<polygon fill="white" stroke="#666666" points="1591,-56 1505,-56 1505,-37 1591,-37 1591,-56"/>
<text text-anchor="middle" x="1548" y="-44" font-family="Helvetica,sans-Serif" font-size="10.00">get_var_name</text>
</a>
</g>
</g>
<!-- Node1&#45;&gt;Node21 -->
<g id="edge25_Node000001_Node000021" class="edge">
<title>Node1&#45;&gt;Node21</title>
<g id="a_edge25_Node000001_Node000021"><a xlink:title=" ">
<path fill="none" stroke="#63b8ff" d="M1638.9,-103.5C1626.51,-91.49 1608.73,-75.61 1591,-64.5 1586.03,-61.38 1580.42,-58.56 1574.96,-56.13"/>
<polygon fill="#63b8ff" stroke="#63b8ff" points="1636.64,-106.19 1646.2,-110.74 1641.57,-101.22 1636.64,-106.19"/>
</a>
</g>
</g>
<!-- Node3 -->
<g id="Node000003" class="node">
<title>Node3</title>
<g id="a_Node000003"><a xlink:href="create__command__list_8c.html#a9fb2e7501277f2f93e5c7042fec32429" target="_top" xlink:title="Adds an argument to the command’s argument list.">
<polygon fill="white" stroke="#666666" points="1316.5,-169 1255.5,-169 1255.5,-150 1316.5,-150 1316.5,-169"/>
<text text-anchor="middle" x="1286" y="-157" font-family="Helvetica,sans-Serif" font-size="10.00">add_args</text>
</a>
</g>
</g>
<!-- Node2&#45;&gt;Node3 -->
<g id="edge2_Node000002_Node000003" class="edge">
<title>Node2&#45;&gt;Node3</title>
<g id="a_edge2_Node000002_Node000003"><a xlink:title=" ">
<path fill="none" stroke="#63b8ff" d="M1357.74,-158.95C1343.54,-159.06 1328.94,-159.17 1316.72,-159.27"/>
<polygon fill="#63b8ff" stroke="#63b8ff" points="1357.99,-162.45 1367.97,-158.87 1357.94,-155.45 1357.99,-162.45"/>
</a>
</g>
</g>
<!-- Node4 -->
<g id="Node000004" class="node">
<title>Node4</title>
<g id="a_Node000004"><a xlink:href="create__command__list_8c.html#ad16d74756b107a98677124008c71d23b" target="_top" xlink:title="Creates a command list from tokens.">
<polygon fill="white" stroke="#666666" points="380.5,-159 312.5,-159 312.5,-140 380.5,-140 380.5,-159"/>
<text text-anchor="middle" x="346.5" y="-147" font-family="Helvetica,sans-Serif" font-size="10.00">create_list</text>
</a>
</g>
</g>
<!-- Node3&#45;&gt;Node4 -->
<g id="edge3_Node000003_Node000004" class="edge">
<title>Node3&#45;&gt;Node4</title>
<g id="a_edge3_Node000003_Node000004"><a xlink:title=" ">
<path fill="none" stroke="#63b8ff" d="M1245.39,-156.97C1195.6,-154 1107.51,-149.5 1032,-149.5 1032,-149.5 1032,-149.5 589.5,-149.5 514.93,-149.5 427.42,-149.5 380.77,-149.5"/>
<polygon fill="#63b8ff" stroke="#63b8ff" points="1245.22,-160.46 1255.41,-157.57 1245.64,-153.47 1245.22,-160.46"/>
</a>
</g>
</g>
<!-- Node5 -->
<g id="Node000005" class="node">
<title>Node5</title>
<g id="a_Node000005"><a xlink:href="main__utils_8c.html#a7e8f478480ab6ab34d6f5eadaf6acdb9" target="_top" xlink:title="Handles parsing and execution of tokens.">
<polygon fill="white" stroke="#666666" points="273,-87 192,-87 192,-68 273,-68 273,-87"/>
<text text-anchor="middle" x="232.5" y="-75" font-family="Helvetica,sans-Serif" font-size="10.00">ft_token_flow</text>
</a>
</g>
</g>
<!-- Node4&#45;&gt;Node5 -->
<g id="edge4_Node000004_Node000005" class="edge">
<title>Node4&#45;&gt;Node5</title>
<g id="a_edge4_Node000004_Node000005"><a xlink:title=" ">
<path fill="none" stroke="#63b8ff" d="M321.87,-134.31C299.67,-120.04 267.14,-99.13 248.37,-87.06"/>
<polygon fill="#63b8ff" stroke="#63b8ff" points="320.09,-137.33 330.4,-139.79 323.88,-131.44 320.09,-137.33"/>
</a>
</g>
</g>
<!-- Node6 -->
<g id="Node000006" class="node">
<title>Node6</title>
<g id="a_Node000006"><a xlink:href="main__utils_8c.html#ae35edfb8f1339d6f77f53c28eb2a2ed6" target="_top" xlink:title="Handles a complete cycle of input → parsing → execution.">
<polygon fill="white" stroke="#666666" points="156,-87 77,-87 77,-68 156,-68 156,-87"/>
<text text-anchor="middle" x="116.5" y="-75" font-family="Helvetica,sans-Serif" font-size="10.00">ft_main_flow</text>
</a>
</g>
</g>
<!-- Node5&#45;&gt;Node6 -->
<g id="edge5_Node000005_Node000006" class="edge">
<title>Node5&#45;&gt;Node6</title>
<g id="a_edge5_Node000005_Node000006"><a xlink:title=" ">
<path fill="none" stroke="#63b8ff" d="M181.7,-77.5C173.16,-77.5 164.4,-77.5 156.21,-77.5"/>
<polygon fill="#63b8ff" stroke="#63b8ff" points="181.95,-81 191.95,-77.5 181.95,-74 181.95,-81"/>
</a>
</g>
</g>
<!-- Node7 -->
<g id="Node000007" class="node">
<title>Node7</title>
<g id="a_Node000007"><a xlink:href="main_8c.html#ab3862b46d6a8d13c2d884a297e6b05b5" target="_top" xlink:title="Main function of the minishell.">
<polygon fill="white" stroke="#666666" points="41,-87 0,-87 0,-68 41,-68 41,-87"/>
<text text-anchor="middle" x="20.5" y="-75" font-family="Helvetica,sans-Serif" font-size="10.00">main</text>
</a>
</g>
</g>
<!-- Node6&#45;&gt;Node7 -->
<g id="edge6_Node000006_Node000007" class="edge">
<title>Node6&#45;&gt;Node7</title>
<g id="a_edge6_Node000006_Node000007"><a xlink:title=" ">
<path fill="none" stroke="#63b8ff" d="M66.74,-77.5C57.62,-77.5 48.59,-77.5 41.03,-77.5"/>
<polygon fill="#63b8ff" stroke="#63b8ff" points="67,-81 77,-77.5 67,-74 67,-81"/>
</a>
</g>
</g>
<!-- Node9 -->
<g id="Node000009" class="node">
<title>Node9</title>
<g id="a_Node000009"><a xlink:href="utils__env_8c.html#a78e10627f49df6e904925e22ae6ee15f" target="_top" xlink:title="Performs environment variable expansion in a string.">
<polygon fill="white" stroke="#666666" points="1469,-130 1365,-130 1365,-111 1469,-111 1469,-130"/>
<text text-anchor="middle" x="1417" y="-118" font-family="Helvetica,sans-Serif" font-size="10.00">ft_expand_envvar</text>
</a>
</g>
</g>
<!-- Node8&#45;&gt;Node9 -->
<g id="edge8_Node000008_Node000009" class="edge">
<title>Node8&#45;&gt;Node9</title>
<g id="a_edge8_Node000008_Node000009"><a xlink:title=" ">
<path fill="none" stroke="#63b8ff" d="M1505.51,-95.4C1488.04,-100.41 1467.99,-106.16 1451.49,-110.9"/>
<polygon fill="#63b8ff" stroke="#63b8ff" points="1506.8,-98.67 1515.44,-92.55 1504.87,-91.94 1506.8,-98.67"/>
</a>
</g>
</g>
<!-- Node9&#45;&gt;Node3 -->
<g id="edge9_Node000009_Node000003" class="edge">
<title>Node9&#45;&gt;Node3</title>
<g id="a_edge9_Node000009_Node000003"><a xlink:title=" ">
<path fill="none" stroke="#63b8ff" d="M1374.65,-133C1355.87,-138.68 1334.06,-145.27 1316.9,-150.46"/>
<polygon fill="#63b8ff" stroke="#63b8ff" points="1375.88,-136.28 1384.44,-130.04 1373.86,-129.58 1375.88,-136.28"/>
</a>
</g>
</g>
<!-- Node10 -->
<g id="Node000010" class="node">
<title>Node10</title>
<g id="a_Node000010"><a xlink:href="main__utils_8c.html#a5aeae9d23b7c4e831229866f395977e7" target="_top" xlink:title="Handles printing of a single environment variable.">
<polygon fill="white" stroke="#666666" points="1207,-102 1114,-102 1114,-83 1207,-83 1207,-102"/>
<text text-anchor="middle" x="1160.5" y="-90" font-family="Helvetica,sans-Serif" font-size="10.00">ft_env_var_flow</text>
</a>
</g>
</g>
<!-- Node9&#45;&gt;Node10 -->
<g id="edge10_Node000009_Node000010" class="edge">
<title>Node9&#45;&gt;Node10</title>
<g id="a_edge10_Node000009_Node000010"><a xlink:title=" ">
<path fill="none" stroke="#63b8ff" d="M1359.63,-109.2C1349.47,-107.43 1338.94,-105.77 1329,-104.5 1287.93,-99.27 1240.89,-96.15 1207.13,-94.41"/>
<polygon fill="#63b8ff" stroke="#63b8ff" points="1359.18,-112.67 1369.64,-110.99 1360.42,-105.78 1359.18,-112.67"/>
</a>
</g>
</g>
<!-- Node11 -->
<g id="Node000011" class="node">
<title>Node11</title>
<g id="a_Node000011"><a xlink:href="redir__utils_8c.html#aff3d6a56d03d5df38cbb3e1f171eb191" target="_top" xlink:title="Expands environment variables in a line and writes the result to a file descriptor.">
<polygon fill="white" stroke="#666666" points="1329,-132 1243,-132 1243,-113 1329,-113 1329,-132"/>
<text text-anchor="middle" x="1286" y="-120" font-family="Helvetica,sans-Serif" font-size="10.00">ft_for_env_var</text>
</a>
</g>
</g>
<!-- Node9&#45;&gt;Node11 -->
<g id="edge12_Node000009_Node000011" class="edge">
<title>Node9&#45;&gt;Node11</title>
<g id="a_edge12_Node000009_Node000011"><a xlink:title=" ">
<path fill="none" stroke="#63b8ff" d="M1354.58,-121.45C1345.94,-121.59 1337.23,-121.72 1329.07,-121.85"/>
<polygon fill="#63b8ff" stroke="#63b8ff" points="1354.7,-124.95 1364.65,-121.3 1354.59,-117.95 1354.7,-124.95"/>
</a>
</g>
</g>
<!-- Node10&#45;&gt;Node5 -->
<g id="edge11_Node000010_Node000005" class="edge">
<title>Node10&#45;&gt;Node5</title>
<g id="a_edge11_Node000010_Node000005"><a xlink:title=" ">
<path fill="none" stroke="#63b8ff" d="M1103.48,-93.81C1048.87,-94.98 963.49,-96.5 889.5,-96.5 889.5,-96.5 889.5,-96.5 459.5,-96.5 393.94,-96.5 318.06,-88.46 273.02,-82.84"/>
<polygon fill="#63b8ff" stroke="#63b8ff" points="1103.72,-97.31 1113.64,-93.59 1103.57,-90.31 1103.72,-97.31"/>
</a>
</g>
</g>
<!-- Node12 -->
<g id="Node000012" class="node">
<title>Node12</title>
<g id="a_Node000012"><a xlink:href="handle__heredoc_8c.html#ac5ba13b1edbd22e4a7e0a50fc91f80db" target="_top" xlink:title="Executes a single read&#45;write cycle of the here&#45;document.">
<polygon fill="white" stroke="#666666" points="1205.5,-202 1115.5,-202 1115.5,-183 1205.5,-183 1205.5,-202"/>
<text text-anchor="middle" x="1160.5" y="-190" font-family="Helvetica,sans-Serif" font-size="10.00">ft_exe_heredoc</text>
</a>
</g>
</g>
<!-- Node11&#45;&gt;Node12 -->
<g id="edge13_Node000011_Node000012" class="edge">
<title>Node11&#45;&gt;Node12</title>
<g id="a_edge13_Node000011_Node000012"><a xlink:title=" ">
<path fill="none" stroke="#63b8ff" d="M1253.3,-136.29C1249.79,-137.98 1246.3,-139.73 1243,-141.5 1218.58,-154.59 1191.56,-172.15 1175.58,-182.87"/>
<polygon fill="#63b8ff" stroke="#63b8ff" points="1254.91,-139.4 1262.5,-132.01 1251.95,-133.05 1254.91,-139.4"/>
</a>
</g>
</g>
<!-- Node13 -->
<g id="Node000013" class="node">
<title>Node13</title>
<g id="a_Node000013"><a xlink:href="handle__heredoc_8c.html#a922eae1c49290306f7cf811bf65d9ed1" target="_top" xlink:title="Handles the entire input process for a here&#45;document.">
<polygon fill="white" stroke="#666666" points="1078,-202 984,-202 984,-183 1078,-183 1078,-202"/>
<text text-anchor="middle" x="1031" y="-190" font-family="Helvetica,sans-Serif" font-size="10.00">handle_heredoc</text>
</a>
</g>
</g>
<!-- Node12&#45;&gt;Node13 -->
<g id="edge14_Node000012_Node000013" class="edge">
<title>Node12&#45;&gt;Node13</title>
<g id="a_edge14_Node000012_Node000013"><a xlink:title=" ">
<path fill="none" stroke="#63b8ff" d="M1104.99,-192.5C1096.11,-192.5 1086.99,-192.5 1078.32,-192.5"/>
<polygon fill="#63b8ff" stroke="#63b8ff" points="1105.26,-196 1115.26,-192.5 1105.26,-189 1105.26,-196"/>
</a>
</g>
</g>
<!-- Node14 -->
<g id="Node000014" class="node">
<title>Node14</title>
<g id="a_Node000014"><a xlink:href="handle__redirections_8c.html#a2834314002a1f4ef4af82f95159b0a34" target="_top" xlink:title="Handles input redirection from file or heredoc.">
<polygon fill="white" stroke="#666666" points="948,-202 829,-202 829,-183 948,-183 948,-202"/>
<text text-anchor="middle" x="888.5" y="-190" font-family="Helvetica,sans-Serif" font-size="10.00">ft_handle_infile_redir</text>
</a>
</g>
</g>
<!-- Node13&#45;&gt;Node14 -->
<g id="edge15_Node000013_Node000014" class="edge">
<title>Node13&#45;&gt;Node14</title>
<g id="a_edge15_Node000013_Node000014"><a xlink:title=" ">
<path fill="none" stroke="#63b8ff" d="M973.86,-192.5C965.41,-192.5 956.67,-192.5 948.17,-192.5"/>
<polygon fill="#63b8ff" stroke="#63b8ff" points="974,-196 984,-192.5 974,-189 974,-196"/>
</a>
</g>
</g>
<!-- Node15 -->
<g id="Node000015" class="node">
<title>Node15</title>
<g id="a_Node000015"><a xlink:href="handle__redirections_8c.html#aa4509a43f47ed881eb2d81fb81458466" target="_top" xlink:title="Handles redirections without an associated command.">
<polygon fill="white" stroke="#666666" points="793,-207.5 680,-207.5 680,-177.5 793,-177.5 793,-207.5"/>
<text text-anchor="start" x="688" y="-195.5" font-family="Helvetica,sans-Serif" font-size="10.00">handle_redirection</text>
<text text-anchor="middle" x="736.5" y="-184.5" font-family="Helvetica,sans-Serif" font-size="10.00">_without_command</text>
</a>
</g>
</g>
<!-- Node14&#45;&gt;Node15 -->
<g id="edge16_Node000014_Node000015" class="edge">
<title>Node14&#45;&gt;Node15</title>
<g id="a_edge16_Node000014_Node000015"><a xlink:title=" ">
<path fill="none" stroke="#63b8ff" d="M818.43,-192.5C809.99,-192.5 801.45,-192.5 793.24,-192.5"/>
<polygon fill="#63b8ff" stroke="#63b8ff" points="818.65,-196 828.65,-192.5 818.65,-189 818.65,-196"/>
</a>
</g>
</g>
<!-- Node16 -->
<g id="Node000016" class="node">
<title>Node16</title>
<g id="a_Node000016"><a xlink:href="handle__redirections_8c.html#ab2c37fefb1291d3f8d0dc91e8c096334" target="_top" xlink:title="Handles redirection associated with a command.">
<polygon fill="white" stroke="#666666" points="644,-199 537,-199 537,-180 644,-180 644,-199"/>
<text text-anchor="middle" x="590.5" y="-187" font-family="Helvetica,sans-Serif" font-size="10.00">handle_redirection</text>
</a>
</g>
</g>
<!-- Node15&#45;&gt;Node16 -->
<g id="edge17_Node000015_Node000016" class="edge">
<title>Node15&#45;&gt;Node16</title>
<g id="a_edge17_Node000015_Node000016"><a xlink:title=" ">
<path fill="none" stroke="#63b8ff" d="M669.83,-191.13C661.24,-190.95 652.53,-190.77 644.19,-190.6"/>
<polygon fill="#63b8ff" stroke="#63b8ff" points="669.76,-194.63 679.83,-191.34 669.9,-187.63 669.76,-194.63"/>
</a>
</g>
</g>
<!-- Node17 -->
<g id="Node000017" class="node">
<title>Node17</title>
<g id="a_Node000017"><a xlink:href="create__command__list_8c.html#ae2006bf82a70d4753ffdca65847316ca" target="_top" xlink:title="Executes a redirection for the current command.">
<polygon fill="white" stroke="#666666" points="497.5,-198 423.5,-198 423.5,-179 497.5,-179 497.5,-198"/>
<text text-anchor="middle" x="460.5" y="-186" font-family="Helvetica,sans-Serif" font-size="10.00">ft_exe_redir</text>
</a>
</g>
</g>
<!-- Node16&#45;&gt;Node17 -->
<g id="edge18_Node000016_Node000017" class="edge">
<title>Node16&#45;&gt;Node17</title>
<g id="a_edge18_Node000016_Node000017"><a xlink:title=" ">
<path fill="none" stroke="#63b8ff" d="M526.49,-189.01C516.64,-188.93 506.77,-188.85 497.79,-188.78"/>
<polygon fill="#63b8ff" stroke="#63b8ff" points="526.67,-192.51 536.7,-189.09 526.73,-185.51 526.67,-192.51"/>
</a>
</g>
</g>
<!-- Node17&#45;&gt;Node4 -->
<g id="edge19_Node000017_Node000004" class="edge">
<title>Node17&#45;&gt;Node4</title>
<g id="a_edge19_Node000017_Node000004"><a xlink:title=" ">
<path fill="none" stroke="#63b8ff" d="M422.32,-175.55C406.87,-170.17 389.26,-164.04 375,-159.08"/>
<polygon fill="#63b8ff" stroke="#63b8ff" points="421.51,-178.98 432.1,-178.96 423.81,-172.37 421.51,-178.98"/>
</a>
</g>
</g>
<!-- Node19 -->
<g id="Node000019" class="node">
<title>Node19</title>
<g id="a_Node000019"><a xlink:href="get__next__line_8c.html#a78d68a5f50a6eec0380ce25b4a1bd5b7" target="_top" xlink:title=" ">
<polygon fill="white" stroke="#666666" points="1327.5,-206 1244.5,-206 1244.5,-187 1327.5,-187 1327.5,-206"/>
<text text-anchor="middle" x="1286" y="-194" font-family="Helvetica,sans-Serif" font-size="10.00">get_next_line</text>
</a>
</g>
</g>
<!-- Node18&#45;&gt;Node19 -->
<g id="edge21_Node000018_Node000019" class="edge">
<title>Node18&#45;&gt;Node19</title>
<g id="a_edge21_Node000018_Node000019"><a xlink:title=" ">
<path fill="none" stroke="#63b8ff" d="M1506.23,-196.5C1457.49,-196.5 1376.42,-196.5 1327.7,-196.5"/>
<polygon fill="#63b8ff" stroke="#63b8ff" points="1506.41,-200 1516.41,-196.5 1506.41,-193 1506.41,-200"/>
</a>
</g>
</g>
<!-- Node19&#45;&gt;Node12 -->
<g id="edge22_Node000019_Node000012" class="edge">
<title>Node19&#45;&gt;Node12</title>
<g id="a_edge22_Node000019_Node000012"><a xlink:title=" ">
<path fill="none" stroke="#63b8ff" d="M1234.14,-194.85C1224.68,-194.55 1214.87,-194.23 1205.64,-193.93"/>
<polygon fill="#63b8ff" stroke="#63b8ff" points="1234.11,-198.35 1244.22,-195.18 1234.34,-191.36 1234.11,-198.35"/>
</a>
</g>
</g>
<!-- Node20&#45;&gt;Node9 -->
<g id="edge24_Node000020_Node000009" class="edge">
<title>Node20&#45;&gt;Node9</title>
<g id="a_edge24_Node000020_Node000009"><a xlink:title=" ">
<path fill="none" stroke="#63b8ff" d="M1498.75,-120.5C1489.08,-120.5 1478.89,-120.5 1469.12,-120.5"/>
<polygon fill="#63b8ff" stroke="#63b8ff" points="1498.99,-124 1508.99,-120.5 1498.99,-117 1498.99,-124"/>
</a>
</g>
</g>
<!-- Node22 -->
<g id="Node000022" class="node">
<title>Node22</title>
<g id="a_Node000022"><a xlink:href="unset_8c.html#a1f4492a754a8735a053adc61c57f6692" target="_top" xlink:title="Finds the index of a variable in the environment.">
<polygon fill="white" stroke="#666666" points="1467,-19 1367,-19 1367,0 1467,0 1467,-19"/>
<text text-anchor="middle" x="1417" y="-7" font-family="Helvetica,sans-Serif" font-size="10.00">ft_find_unset_var</text>
</a>
</g>
</g>
<!-- Node21&#45;&gt;Node22 -->
<g id="edge26_Node000021_Node000022" class="edge">
<title>Node21&#45;&gt;Node22</title>
<g id="a_edge26_Node000021_Node000022"><a xlink:title=" ">
<path fill="none" stroke="#63b8ff" d="M1504.03,-34.17C1486.94,-29.27 1467.58,-23.72 1451.56,-19.12"/>
<polygon fill="#63b8ff" stroke="#63b8ff" points="1503.2,-37.58 1513.78,-36.97 1505.13,-30.85 1503.2,-37.58"/>
</a>
</g>
</g>
<!-- Node31 -->
<g id="Node000031" class="node">
<title>Node31</title>
<g id="a_Node000031"><a xlink:href="unset_8c.html#ad9c56b69ee719b3000b39b3c873b4c44" target="_top" xlink:title="Copies all environment variables except the one to remove into new_env array.">
<polygon fill="white" stroke="#666666" points="1456,-56 1378,-56 1378,-37 1456,-37 1456,-56"/>
<text text-anchor="middle" x="1417" y="-44" font-family="Helvetica,sans-Serif" font-size="10.00">ft_for_delete</text>
</a>
</g>
</g>
<!-- Node21&#45;&gt;Node31 -->
<g id="edge37_Node000021_Node000031" class="edge">
<title>Node21&#45;&gt;Node31</title>
<g id="a_edge37_Node000021_Node000031"><a xlink:title=" ">
<path fill="none" stroke="#63b8ff" d="M1494.68,-46.5C1481.88,-46.5 1468.42,-46.5 1456.41,-46.5"/>
<polygon fill="#63b8ff" stroke="#63b8ff" points="1494.76,-50 1504.76,-46.5 1494.76,-43 1494.76,-50"/>
</a>
</g>
</g>
<!-- Node23 -->
<g id="Node000023" class="node">
<title>Node23</title>
<g id="a_Node000023"><a xlink:href="unset_8c.html#aabf1b9c17103a2c429513f9b4c84bccd" target="_top" xlink:title="Executes the unset operation on a single argument.">
<polygon fill="white" stroke="#666666" points="1193.5,-49 1127.5,-49 1127.5,-30 1193.5,-30 1193.5,-49"/>
<text text-anchor="middle" x="1160.5" y="-37" font-family="Helvetica,sans-Serif" font-size="10.00">exe_unset</text>
</a>
</g>
</g>
<!-- Node22&#45;&gt;Node23 -->
<g id="edge27_Node000022_Node000023" class="edge">
<title>Node22&#45;&gt;Node23</title>
<g id="a_edge27_Node000022_Node000023"><a xlink:title=" ">
<path fill="none" stroke="#63b8ff" d="M1356.65,-15.05C1323.23,-18.33 1280.74,-22.76 1243,-27.5 1226.68,-29.55 1208.58,-32.18 1193.59,-34.45"/>
<polygon fill="#63b8ff" stroke="#63b8ff" points="1357.11,-18.52 1366.72,-14.07 1356.43,-11.55 1357.11,-18.52"/>
</a>
</g>
</g>
<!-- Node24 -->
<g id="Node000024" class="node">
<title>Node24</title>
<g id="a_Node000024"><a xlink:href="unset_8c.html#afc37f76bba8f618bcf9eaafa7ee23618" target="_top" xlink:title="Builtin function for the unset command.">
<polygon fill="white" stroke="#666666" points="1059,-49 1003,-49 1003,-30 1059,-30 1059,-49"/>
<text text-anchor="middle" x="1031" y="-37" font-family="Helvetica,sans-Serif" font-size="10.00">ft_unset</text>
</a>
</g>
</g>
<!-- Node23&#45;&gt;Node24 -->
<g id="edge28_Node000023_Node000024" class="edge">
<title>Node23&#45;&gt;Node24</title>
<g id="a_edge28_Node000023_Node000024"><a xlink:title=" ">
<path fill="none" stroke="#63b8ff" d="M1117.11,-39.5C1098.1,-39.5 1076.22,-39.5 1059.41,-39.5"/>
<polygon fill="#63b8ff" stroke="#63b8ff" points="1117.33,-43 1127.33,-39.5 1117.33,-36 1117.33,-43"/>
</a>
</g>
</g>
<!-- Node25 -->
<g id="Node000025" class="node">
<title>Node25</title>
<g id="a_Node000025"><a xlink:href="cmd__execution_8c.html#a5ce7231f800cbacea6350cc1a32a59bd" target="_top" xlink:title="Executes a list of non&#45;pipelined commands.">
<polygon fill="white" stroke="#666666" points="772.5,-30 700.5,-30 700.5,-11 772.5,-11 772.5,-30"/>
<text text-anchor="middle" x="736.5" y="-18" font-family="Helvetica,sans-Serif" font-size="10.00">ft_exe_cmd</text>
</a>
</g>
</g>
<!-- Node24&#45;&gt;Node25 -->
<g id="edge29_Node000024_Node000025" class="edge">
<title>Node24&#45;&gt;Node25</title>
<g id="a_edge29_Node000024_Node000025"><a xlink:title=" ">
<path fill="none" stroke="#63b8ff" d="M992.76,-37.08C935.98,-33.39 828.53,-26.41 772.89,-22.8"/>
<polygon fill="#63b8ff" stroke="#63b8ff" points="992.54,-40.57 1002.74,-37.73 992.99,-33.59 992.54,-40.57"/>
</a>
</g>
</g>
<!-- Node26 -->
<g id="Node000026" class="node">
<title>Node26</title>
<g id="a_Node000026"><a xlink:href="cmd__execution_8c.html#a50e59fa2e4621831a415d4038f697c56" target="_top" xlink:title="Executes a command within a pipeline.">
<polygon fill="white" stroke="#666666" points="937.5,-68 839.5,-68 839.5,-49 937.5,-49 937.5,-68"/>
<text text-anchor="middle" x="888.5" y="-56" font-family="Helvetica,sans-Serif" font-size="10.00">ft_exe_pipe_cmd</text>
</a>
</g>
</g>
<!-- Node24&#45;&gt;Node26 -->
<g id="edge31_Node000024_Node000026" class="edge">
<title>Node24&#45;&gt;Node26</title>
<g id="a_edge31_Node000024_Node000026"><a xlink:title=" ">
<path fill="none" stroke="#63b8ff" d="M992.84,-44.52C975.9,-46.82 955.64,-49.56 937.56,-52"/>
<polygon fill="#63b8ff" stroke="#63b8ff" points="993.47,-47.97 1002.91,-43.16 992.53,-41.04 993.47,-47.97"/>
</a>
</g>
</g>
<!-- Node25&#45;&gt;Node5 -->
<g id="edge30_Node000025_Node000005" class="edge">
<title>Node25&#45;&gt;Node5</title>
<g id="a_edge30_Node000025_Node000005"><a xlink:title=" ">
<path fill="none" stroke="#63b8ff" d="M690.42,-16.41C611.59,-10.59 444.21,-4.2 309,-39.5 286.28,-45.43 262.47,-58.79 247.8,-67.98"/>
<polygon fill="#63b8ff" stroke="#63b8ff" points="690.25,-19.9 700.49,-17.18 690.79,-12.93 690.25,-19.9"/>
</a>
</g>
</g>
<!-- Node27 -->
<g id="Node000027" class="node">
<title>Node27</title>
<g id="a_Node000027"><a xlink:href="pipes_8c.html#a36a2d91a0566ad253efe3833b05e69d1" target="_top" xlink:title="Routine executed by the child process for each command in the pipe.">
<polygon fill="white" stroke="#666666" points="782.5,-68 690.5,-68 690.5,-49 782.5,-49 782.5,-68"/>
<text text-anchor="middle" x="736.5" y="-56" font-family="Helvetica,sans-Serif" font-size="10.00">ft_child_routine</text>
</a>
</g>
</g>
<!-- Node26&#45;&gt;Node27 -->
<g id="edge32_Node000026_Node000027" class="edge">
<title>Node26&#45;&gt;Node27</title>
<g id="a_edge32_Node000026_Node000027"><a xlink:title=" ">
<path fill="none" stroke="#63b8ff" d="M828.78,-58.5C813.44,-58.5 797.15,-58.5 782.64,-58.5"/>
<polygon fill="#63b8ff" stroke="#63b8ff" points="829.21,-62 839.21,-58.5 829.21,-55 829.21,-62"/>
</a>
</g>
</g>
<!-- Node28 -->
<g id="Node000028" class="node">
<title>Node28</title>
<g id="a_Node000028"><a xlink:href="pipes_8c.html#aa17e847997e7266a0a111ab3572756bb" target="_top" xlink:title="Manages pipe creation and fork to execute the current command.">
<polygon fill="white" stroke="#666666" points="635,-68 546,-68 546,-49 635,-49 635,-68"/>
<text text-anchor="middle" x="590.5" y="-56" font-family="Helvetica,sans-Serif" font-size="10.00">ft_pipe_routine</text>
</a>
</g>
</g>
<!-- Node27&#45;&gt;Node28 -->
<g id="edge33_Node000027_Node000028" class="edge">
<title>Node27&#45;&gt;Node28</title>
<g id="a_edge33_Node000027_Node000028"><a xlink:title=" ">
<path fill="none" stroke="#63b8ff" d="M680.17,-58.5C665.21,-58.5 649.24,-58.5 635.03,-58.5"/>
<polygon fill="#63b8ff" stroke="#63b8ff" points="680.33,-62 690.33,-58.5 680.33,-55 680.33,-62"/>
</a>
</g>
</g>
<!-- Node29 -->
<g id="Node000029" class="node">
<title>Node29</title>
<g id="a_Node000029"><a xlink:href="pipes_8c.html#a7a3b0de1a88a243da741f748881e14f0" target="_top" xlink:title="Executes a list of commands connected via pipes.">
<polygon fill="white" stroke="#666666" points="501,-68 420,-68 420,-49 501,-49 501,-68"/>
<text text-anchor="middle" x="460.5" y="-56" font-family="Helvetica,sans-Serif" font-size="10.00">execute_pipe</text>
</a>
</g>
</g>
<!-- Node28&#45;&gt;Node29 -->
<g id="edge34_Node000028_Node000029" class="edge">
<title>Node28&#45;&gt;Node29</title>
<g id="a_edge34_Node000028_Node000029"><a xlink:title=" ">
<path fill="none" stroke="#63b8ff" d="M535.76,-58.5C524.15,-58.5 512.08,-58.5 501.13,-58.5"/>
<polygon fill="#63b8ff" stroke="#63b8ff" points="535.81,-62 545.81,-58.5 535.81,-55 535.81,-62"/>
</a>
</g>
</g>
<!-- Node30 -->
<g id="Node000030" class="node">
<title>Node30</title>
<g id="a_Node000030"><a xlink:href="main__utils_8c.html#ad0183732909ae6e7c52e7b086c2e5642" target="_top" xlink:title="Manages the execution flow of commands with pipes.">
<polygon fill="white" stroke="#666666" points="384,-68 309,-68 309,-49 384,-49 384,-68"/>
<text text-anchor="middle" x="346.5" y="-56" font-family="Helvetica,sans-Serif" font-size="10.00">ft_pipe_flow</text>
</a>
</g>
</g>
<!-- Node29&#45;&gt;Node30 -->
<g id="edge35_Node000029_Node000030" class="edge">
<title>Node29&#45;&gt;Node30</title>
<g id="a_edge35_Node000029_Node000030"><a xlink:title=" ">
<path fill="none" stroke="#63b8ff" d="M409.47,-58.5C400.96,-58.5 392.26,-58.5 384.18,-58.5"/>
<polygon fill="#63b8ff" stroke="#63b8ff" points="409.7,-62 419.7,-58.5 409.7,-55 409.7,-62"/>
</a>
</g>
</g>
<!-- Node30&#45;&gt;Node5 -->
<g id="edge36_Node000030_Node000005" class="edge">
<title>Node30&#45;&gt;Node5</title>
<g id="a_edge36_Node000030_Node000005"><a xlink:title=" ">
<path fill="none" stroke="#63b8ff" d="M298.73,-66.43C290.29,-67.87 281.57,-69.35 273.35,-70.74"/>
<polygon fill="#63b8ff" stroke="#63b8ff" points="299.55,-69.84 308.83,-64.72 298.38,-62.94 299.55,-69.84"/>
</a>
</g>
</g>
<!-- Node32 -->
<g id="Node000032" class="node">
<title>Node32</title>
<g id="a_Node000032"><a xlink:href="unset_8c.html#a6a5b46a0f90a47ceea95d80b8605ad87" target="_top" xlink:title="Removes a variable from the environment.">
<polygon fill="white" stroke="#666666" points="1326,-56 1246,-56 1246,-37 1326,-37 1326,-56"/>
<text text-anchor="middle" x="1286" y="-44" font-family="Helvetica,sans-Serif" font-size="10.00">ft_delete_var</text>
</a>
</g>
</g>
<!-- Node31&#45;&gt;Node32 -->
<g id="edge38_Node000031_Node000032" class="edge">
<title>Node31&#45;&gt;Node32</title>
<g id="a_edge38_Node000031_Node000032"><a xlink:title=" ">
<path fill="none" stroke="#63b8ff" d="M1367.73,-46.5C1353.99,-46.5 1339.2,-46.5 1326.08,-46.5"/>
<polygon fill="#63b8ff" stroke="#63b8ff" points="1367.99,-50 1377.99,-46.5 1367.99,-43 1367.99,-50"/>
</a>
</g>
</g>
<!-- Node32&#45;&gt;Node23 -->
<g id="edge39_Node000032_Node000023" class="edge">
<title>Node32&#45;&gt;Node23</title>
<g id="a_edge39_Node000032_Node000023"><a xlink:title=" ">
<path fill="none" stroke="#63b8ff" d="M1235.82,-43.71C1221.65,-42.91 1206.56,-42.05 1193.71,-41.33"/>
<polygon fill="#63b8ff" stroke="#63b8ff" points="1235.74,-47.21 1245.92,-44.29 1236.14,-40.22 1235.74,-47.21"/>
</a>
</g>
</g>
</g>
</svg>
