<?xml version="1.0" encoding="UTF-8" standalone="no"?>
<!DOCTYPE svg PUBLIC "-//W3C//DTD SVG 1.1//EN"
 "http://www.w3.org/Graphics/SVG/1.1/DTD/svg11.dtd">
<!-- Generated by graphviz version 2.43.0 (0)
 -->
<!-- Title: builtin/ft_echo.c Pages: 1 -->
<svg width="1156pt" height="313pt"
 viewBox="0.00 0.00 1156.00 313.00" xmlns="http://www.w3.org/2000/svg" xmlns:xlink="http://www.w3.org/1999/xlink">
<g id="graph0" class="graph" transform="scale(1 1) rotate(0) translate(4 309)">
<title>builtin/ft_echo.c</title>
<!-- Node1 -->
<g id="Node000001" class="node">
<title>Node1</title>
<g id="a_Node000001"><a xlink:title=" ">
<polygon fill="#999999" stroke="#666666" points="828,-305 734,-305 734,-286 828,-286 828,-305"/>
<text text-anchor="middle" x="781" y="-293" font-family="Helvetica,sans-Serif" font-size="10.00">builtin/ft_echo.c</text>
</a>
</g>
</g>
<!-- Node2 -->
<g id="Node000002" class="node">
<title>Node2</title>
<g id="a_Node000002"><a xlink:href="builtin_8h.html" target="_top" xlink:title=" ">
<polygon fill="white" stroke="#666666" points="757,-250 701,-250 701,-231 757,-231 757,-250"/>
<text text-anchor="middle" x="729" y="-238" font-family="Helvetica,sans-Serif" font-size="10.00">builtin.h</text>
</a>
</g>
</g>
<!-- Node1&#45;&gt;Node2 -->
<g id="edge1_Node000001_Node000002" class="edge">
<title>Node1&#45;&gt;Node2</title>
<g id="a_edge1_Node000001_Node000002"><a xlink:title=" ">
<path fill="none" stroke="#63b8ff" d="M772.41,-285.75C764.84,-278.03 753.62,-266.6 744.49,-257.28"/>
<polygon fill="#63b8ff" stroke="#63b8ff" points="746.93,-254.78 737.43,-250.09 741.93,-259.68 746.93,-254.78"/>
</a>
</g>
</g>
<!-- Node4 -->
<g id="Node000004" class="node">
<title>Node4</title>
<g id="a_Node000004"><a xlink:title=" ">
<polygon fill="#e0e0e0" stroke="#999999" points="1148,-19 1092,-19 1092,0 1148,0 1148,-19"/>
<text text-anchor="middle" x="1120" y="-7" font-family="Helvetica,sans-Serif" font-size="10.00">unistd.h</text>
</a>
</g>
</g>
<!-- Node1&#45;&gt;Node4 -->
<g id="edge26_Node000001_Node000004" class="edge">
<title>Node1&#45;&gt;Node4</title>
<g id="a_edge26_Node000001_Node000004"><a xlink:title=" ">
<path fill="none" stroke="#63b8ff" d="M828.15,-292.99C896.23,-288 1014,-267.65 1014,-186.5 1014,-186.5 1014,-186.5 1014,-124 1014,-77.57 1061.95,-42.25 1093.35,-24.1"/>
<polygon fill="#63b8ff" stroke="#63b8ff" points="1095.45,-26.94 1102.5,-19.03 1092.05,-20.82 1095.45,-26.94"/>
</a>
</g>
</g>
<!-- Node3 -->
<g id="Node000003" class="node">
<title>Node3</title>
<g id="a_Node000003"><a xlink:href="libft_8h.html" target="_top" xlink:title=" ">
<polygon fill="white" stroke="#666666" points="785.5,-74 710.5,-74 710.5,-55 785.5,-55 785.5,-74"/>
<text text-anchor="middle" x="748" y="-62" font-family="Helvetica,sans-Serif" font-size="10.00">../libft/libft.h</text>
</a>
</g>
</g>
<!-- Node2&#45;&gt;Node3 -->
<g id="edge2_Node000002_Node000003" class="edge">
<title>Node2&#45;&gt;Node3</title>
<g id="a_edge2_Node000002_Node000003"><a xlink:title=" ">
<path fill="none" stroke="#63b8ff" d="M729.97,-230.63C732.93,-203.52 741.9,-121.32 745.97,-84.13"/>
<polygon fill="#63b8ff" stroke="#63b8ff" points="749.45,-84.46 747.06,-74.14 742.49,-83.7 749.45,-84.46"/>
</a>
</g>
</g>
<!-- Node13 -->
<g id="Node000013" class="node">
<title>Node13</title>
<g id="a_Node000013"><a xlink:href="common__utils_8h.html" target="_top" xlink:title=" ">
<polygon fill="white" stroke="#666666" points="675,-140 535,-140 535,-110 675,-110 675,-140"/>
<text text-anchor="start" x="543" y="-128" font-family="Helvetica,sans-Serif" font-size="10.00">../common_utils/common</text>
<text text-anchor="middle" x="605" y="-117" font-family="Helvetica,sans-Serif" font-size="10.00">_utils.h</text>
</a>
</g>
</g>
<!-- Node2&#45;&gt;Node13 -->
<g id="edge12_Node000002_Node000013" class="edge">
<title>Node2&#45;&gt;Node13</title>
<g id="a_edge12_Node000002_Node000013"><a xlink:title=" ">
<path fill="none" stroke="#63b8ff" d="M725.32,-230.78C719.43,-217.63 706.81,-192.49 690,-176 677.35,-163.59 661.03,-153.04 646.08,-144.87"/>
<polygon fill="#63b8ff" stroke="#63b8ff" points="647.47,-141.65 636.99,-140.1 644.22,-147.85 647.47,-141.65"/>
</a>
</g>
</g>
<!-- Node20 -->
<g id="Node000020" class="node">
<title>Node20</title>
<g id="a_Node000020"><a xlink:href="redirections_8h.html" target="_top" xlink:title=" ">
<polygon fill="white" stroke="#666666" points="681.5,-195 528.5,-195 528.5,-176 681.5,-176 681.5,-195"/>
<text text-anchor="middle" x="605" y="-183" font-family="Helvetica,sans-Serif" font-size="10.00">../redirections/redirections.h</text>
</a>
</g>
</g>
<!-- Node2&#45;&gt;Node20 -->
<g id="edge24_Node000002_Node000020" class="edge">
<title>Node2&#45;&gt;Node20</title>
<g id="a_edge24_Node000002_Node000020"><a xlink:title=" ">
<path fill="none" stroke="#63b8ff" d="M709.08,-230.98C688.95,-222.38 657.62,-208.99 634.59,-199.15"/>
<polygon fill="#63b8ff" stroke="#63b8ff" points="635.86,-195.88 625.29,-195.17 633.1,-202.32 635.86,-195.88"/>
</a>
</g>
</g>
<!-- Node3&#45;&gt;Node4 -->
<g id="edge3_Node000003_Node000004" class="edge">
<title>Node3&#45;&gt;Node4</title>
<g id="a_edge3_Node000003_Node000004"><a xlink:title=" ">
<path fill="none" stroke="#63b8ff" d="M785.61,-59.67C846.01,-53.26 968.56,-39.22 1081.89,-19.05"/>
<polygon fill="#63b8ff" stroke="#63b8ff" points="1082.55,-22.49 1091.77,-17.27 1081.31,-15.6 1082.55,-22.49"/>
</a>
</g>
</g>
<!-- Node5 -->
<g id="Node000005" class="node">
<title>Node5</title>
<g id="a_Node000005"><a xlink:title=" ">
<polygon fill="#e0e0e0" stroke="#999999" points="513.5,-19 460.5,-19 460.5,0 513.5,0 513.5,-19"/>
<text text-anchor="middle" x="487" y="-7" font-family="Helvetica,sans-Serif" font-size="10.00">stdlib.h</text>
</a>
</g>
</g>
<!-- Node3&#45;&gt;Node5 -->
<g id="edge4_Node000003_Node000005" class="edge">
<title>Node3&#45;&gt;Node5</title>
<g id="a_edge4_Node000003_Node000005"><a xlink:title=" ">
<path fill="none" stroke="#63b8ff" d="M710.31,-56.6C667.38,-48.63 594.89,-34.82 523.75,-19.32"/>
<polygon fill="#63b8ff" stroke="#63b8ff" points="524.24,-15.84 513.73,-17.12 522.74,-22.68 524.24,-15.84"/>
</a>
</g>
</g>
<!-- Node6 -->
<g id="Node000006" class="node">
<title>Node6</title>
<g id="a_Node000006"><a xlink:title=" ">
<polygon fill="#e0e0e0" stroke="#999999" points="649.5,-19 596.5,-19 596.5,0 649.5,0 649.5,-19"/>
<text text-anchor="middle" x="623" y="-7" font-family="Helvetica,sans-Serif" font-size="10.00">string.h</text>
</a>
</g>
</g>
<!-- Node3&#45;&gt;Node6 -->
<g id="edge5_Node000003_Node000006" class="edge">
<title>Node3&#45;&gt;Node6</title>
<g id="a_edge5_Node000003_Node000006"><a xlink:title=" ">
<path fill="none" stroke="#63b8ff" d="M727.92,-54.98C707.63,-46.38 676.04,-32.99 652.83,-23.15"/>
<polygon fill="#63b8ff" stroke="#63b8ff" points="654.02,-19.85 643.45,-19.17 651.29,-26.3 654.02,-19.85"/>
</a>
</g>
</g>
<!-- Node7 -->
<g id="Node000007" class="node">
<title>Node7</title>
<g id="a_Node000007"><a xlink:title=" ">
<polygon fill="#e0e0e0" stroke="#999999" points="1074,-19 1024,-19 1024,0 1074,0 1074,-19"/>
<text text-anchor="middle" x="1049" y="-7" font-family="Helvetica,sans-Serif" font-size="10.00">stdio.h</text>
</a>
</g>
</g>
<!-- Node3&#45;&gt;Node7 -->
<g id="edge6_Node000003_Node000007" class="edge">
<title>Node3&#45;&gt;Node7</title>
<g id="a_edge6_Node000003_Node000007"><a xlink:title=" ">
<path fill="none" stroke="#63b8ff" d="M785.76,-58.18C835.72,-50.92 926.72,-36.97 1013.76,-19.12"/>
<polygon fill="#63b8ff" stroke="#63b8ff" points="1014.72,-22.49 1023.8,-17.04 1013.3,-15.64 1014.72,-22.49"/>
</a>
</g>
</g>
<!-- Node8 -->
<g id="Node000008" class="node">
<title>Node8</title>
<g id="a_Node000008"><a xlink:title=" ">
<polygon fill="#e0e0e0" stroke="#999999" points="722.5,-19 667.5,-19 667.5,0 722.5,0 722.5,-19"/>
<text text-anchor="middle" x="695" y="-7" font-family="Helvetica,sans-Serif" font-size="10.00">signal.h</text>
</a>
</g>
</g>
<!-- Node3&#45;&gt;Node8 -->
<g id="edge7_Node000003_Node000008" class="edge">
<title>Node3&#45;&gt;Node8</title>
<g id="a_edge7_Node000003_Node000008"><a xlink:title=" ">
<path fill="none" stroke="#63b8ff" d="M739.25,-54.75C731.53,-47.03 720.1,-35.6 710.78,-26.28"/>
<polygon fill="#63b8ff" stroke="#63b8ff" points="713.14,-23.69 703.59,-19.09 708.19,-28.64 713.14,-23.69"/>
</a>
</g>
</g>
<!-- Node9 -->
<g id="Node000009" class="node">
<title>Node9</title>
<g id="a_Node000009"><a xlink:title=" ">
<polygon fill="#e0e0e0" stroke="#999999" points="578.5,-19 531.5,-19 531.5,0 578.5,0 578.5,-19"/>
<text text-anchor="middle" x="555" y="-7" font-family="Helvetica,sans-Serif" font-size="10.00">fcntl.h</text>
</a>
</g>
</g>
<!-- Node3&#45;&gt;Node9 -->
<g id="edge8_Node000003_Node000009" class="edge">
<title>Node3&#45;&gt;Node9</title>
<g id="a_edge8_Node000003_Node000009"><a xlink:title=" ">
<path fill="none" stroke="#63b8ff" d="M716.99,-54.98C681.88,-45.34 624.88,-29.69 588.7,-19.75"/>
<polygon fill="#63b8ff" stroke="#63b8ff" points="589.2,-16.26 578.63,-16.99 587.35,-23.01 589.2,-16.26"/>
</a>
</g>
</g>
<!-- Node10 -->
<g id="Node000010" class="node">
<title>Node10</title>
<g id="a_Node000010"><a xlink:title=" ">
<polygon fill="#e0e0e0" stroke="#999999" points="859.5,-19 740.5,-19 740.5,0 859.5,0 859.5,-19"/>
<text text-anchor="middle" x="800" y="-7" font-family="Helvetica,sans-Serif" font-size="10.00">bits/types/siginfo_t.h</text>
</a>
</g>
</g>
<!-- Node3&#45;&gt;Node10 -->
<g id="edge9_Node000003_Node000010" class="edge">
<title>Node3&#45;&gt;Node10</title>
<g id="a_edge9_Node000003_Node000010"><a xlink:title=" ">
<path fill="none" stroke="#63b8ff" d="M756.59,-54.75C764.16,-47.03 775.38,-35.6 784.51,-26.28"/>
<polygon fill="#63b8ff" stroke="#63b8ff" points="787.07,-28.68 791.57,-19.09 782.07,-23.78 787.07,-28.68"/>
</a>
</g>
</g>
<!-- Node11 -->
<g id="Node000011" class="node">
<title>Node11</title>
<g id="a_Node000011"><a xlink:title=" ">
<polygon fill="#e0e0e0" stroke="#999999" points="934,-19 878,-19 878,0 934,0 934,-19"/>
<text text-anchor="middle" x="906" y="-7" font-family="Helvetica,sans-Serif" font-size="10.00">stdarg.h</text>
</a>
</g>
</g>
<!-- Node3&#45;&gt;Node11 -->
<g id="edge10_Node000003_Node000011" class="edge">
<title>Node3&#45;&gt;Node11</title>
<g id="a_edge10_Node000003_Node000011"><a xlink:title=" ">
<path fill="none" stroke="#63b8ff" d="M773.39,-54.98C799.8,-46.13 841.35,-32.19 870.89,-22.28"/>
<polygon fill="#63b8ff" stroke="#63b8ff" points="872.05,-25.58 880.42,-19.08 869.82,-18.94 872.05,-25.58"/>
</a>
</g>
</g>
<!-- Node12 -->
<g id="Node000012" class="node">
<title>Node12</title>
<g id="a_Node000012"><a xlink:title=" ">
<polygon fill="#e0e0e0" stroke="#999999" points="1005.5,-19 952.5,-19 952.5,0 1005.5,0 1005.5,-19"/>
<text text-anchor="middle" x="979" y="-7" font-family="Helvetica,sans-Serif" font-size="10.00">limits.h</text>
</a>
</g>
</g>
<!-- Node3&#45;&gt;Node12 -->
<g id="edge11_Node000003_Node000012" class="edge">
<title>Node3&#45;&gt;Node12</title>
<g id="a_edge11_Node000003_Node000012"><a xlink:title=" ">
<path fill="none" stroke="#63b8ff" d="M785.77,-54.97C822.99,-46.54 881.76,-33.18 942.17,-19.18"/>
<polygon fill="#63b8ff" stroke="#63b8ff" points="943.32,-22.51 952.27,-16.84 941.74,-15.69 943.32,-22.51"/>
</a>
</g>
</g>
<!-- Node13&#45;&gt;Node3 -->
<g id="edge13_Node000013_Node000003" class="edge">
<title>Node13&#45;&gt;Node3</title>
<g id="a_edge13_Node000013_Node000003"><a xlink:title=" ">
<path fill="none" stroke="#63b8ff" d="M639.25,-109.99C663.11,-100.23 694.65,-87.33 717.61,-77.93"/>
<polygon fill="#63b8ff" stroke="#63b8ff" points="718.95,-81.17 726.88,-74.14 716.3,-74.69 718.95,-81.17"/>
</a>
</g>
</g>
<!-- Node13&#45;&gt;Node4 -->
<g id="edge23_Node000013_Node000004" class="edge">
<title>Node13&#45;&gt;Node4</title>
<g id="a_edge23_Node000013_Node000004"><a xlink:title=" ">
<path fill="none" stroke="#63b8ff" d="M669.99,-109.93C760.01,-90.4 928.03,-53.77 1081.63,-19.29"/>
<polygon fill="#63b8ff" stroke="#63b8ff" points="1082.73,-22.63 1091.72,-17.03 1081.2,-15.8 1082.73,-22.63"/>
</a>
</g>
</g>
<!-- Node13&#45;&gt;Node5 -->
<g id="edge21_Node000013_Node000005" class="edge">
<title>Node13&#45;&gt;Node5</title>
<g id="a_edge21_Node000013_Node000005"><a xlink:title=" ">
<path fill="none" stroke="#63b8ff" d="M604.8,-109.95C603.87,-94.74 600.22,-70.58 587,-55 578.1,-44.51 547.28,-31.65 522.18,-22.46"/>
<polygon fill="#63b8ff" stroke="#63b8ff" points="523.15,-19.09 512.56,-19.01 520.79,-25.68 523.15,-19.09"/>
</a>
</g>
</g>
<!-- Node13&#45;&gt;Node6 -->
<g id="edge22_Node000013_Node000006" class="edge">
<title>Node13&#45;&gt;Node6</title>
<g id="a_edge22_Node000013_Node000006"><a xlink:title=" ">
<path fill="none" stroke="#63b8ff" d="M626.96,-109.94C638.54,-101.17 651.64,-88.75 658,-74 665.27,-57.15 652.91,-38.91 640.93,-26.31"/>
<polygon fill="#63b8ff" stroke="#63b8ff" points="643.3,-23.74 633.69,-19.27 638.41,-28.75 643.3,-23.74"/>
</a>
</g>
</g>
<!-- Node13&#45;&gt;Node9 -->
<g id="edge17_Node000013_Node000009" class="edge">
<title>Node13&#45;&gt;Node9</title>
<g id="a_edge17_Node000013_Node000009"><a xlink:title=" ">
<path fill="none" stroke="#63b8ff" d="M613.47,-109.76C620.9,-95.25 629.21,-72.46 620,-55 612.76,-41.27 599.17,-30.97 586.28,-23.76"/>
<polygon fill="#63b8ff" stroke="#63b8ff" points="587.61,-20.51 577.12,-19.05 584.41,-26.73 587.61,-20.51"/>
</a>
</g>
</g>
<!-- Node14 -->
<g id="Node000014" class="node">
<title>Node14</title>
<g id="a_Node000014"><a xlink:href="signal__flag_8h.html" target="_top" xlink:title=" ">
<polygon fill="white" stroke="#666666" points="78,-74 0,-74 0,-55 78,-55 78,-74"/>
<text text-anchor="middle" x="39" y="-62" font-family="Helvetica,sans-Serif" font-size="10.00">signal_flag.h</text>
</a>
</g>
</g>
<!-- Node13&#45;&gt;Node14 -->
<g id="edge14_Node000013_Node000014" class="edge">
<title>Node13&#45;&gt;Node14</title>
<g id="a_edge14_Node000013_Node000014"><a xlink:title=" ">
<path fill="none" stroke="#63b8ff" d="M534.84,-119C437.11,-111.63 254.26,-96.43 88.63,-74.12"/>
<polygon fill="#63b8ff" stroke="#63b8ff" points="88.63,-70.59 78.25,-72.71 87.69,-77.53 88.63,-70.59"/>
</a>
</g>
</g>
<!-- Node15 -->
<g id="Node000015" class="node">
<title>Node15</title>
<g id="a_Node000015"><a xlink:title=" ">
<polygon fill="#e0e0e0" stroke="#999999" points="204,-74 96,-74 96,-55 204,-55 204,-74"/>
<text text-anchor="middle" x="150" y="-62" font-family="Helvetica,sans-Serif" font-size="10.00">readline/readline.h</text>
</a>
</g>
</g>
<!-- Node13&#45;&gt;Node15 -->
<g id="edge15_Node000013_Node000015" class="edge">
<title>Node13&#45;&gt;Node15</title>
<g id="a_edge15_Node000013_Node000015"><a xlink:title=" ">
<path fill="none" stroke="#63b8ff" d="M534.88,-115.21C458.58,-105.61 332.7,-89.68 214.26,-74.16"/>
<polygon fill="#63b8ff" stroke="#63b8ff" points="214.66,-70.68 204.29,-72.85 213.75,-77.62 214.66,-70.68"/>
</a>
</g>
</g>
<!-- Node16 -->
<g id="Node000016" class="node">
<title>Node16</title>
<g id="a_Node000016"><a xlink:title=" ">
<polygon fill="#e0e0e0" stroke="#999999" points="323.5,-74 222.5,-74 222.5,-55 323.5,-55 323.5,-74"/>
<text text-anchor="middle" x="273" y="-62" font-family="Helvetica,sans-Serif" font-size="10.00">readline/history.h</text>
</a>
</g>
</g>
<!-- Node13&#45;&gt;Node16 -->
<g id="edge16_Node000013_Node000016" class="edge">
<title>Node13&#45;&gt;Node16</title>
<g id="a_edge16_Node000013_Node000016"><a xlink:title=" ">
<path fill="none" stroke="#63b8ff" d="M535,-111.67C474.52,-101.01 388.13,-85.79 331.33,-75.78"/>
<polygon fill="#63b8ff" stroke="#63b8ff" points="331.89,-72.32 321.43,-74.03 330.67,-79.22 331.89,-72.32"/>
</a>
</g>
</g>
<!-- Node17 -->
<g id="Node000017" class="node">
<title>Node17</title>
<g id="a_Node000017"><a xlink:title=" ">
<polygon fill="#e0e0e0" stroke="#999999" points="414,-74 342,-74 342,-55 414,-55 414,-74"/>
<text text-anchor="middle" x="378" y="-62" font-family="Helvetica,sans-Serif" font-size="10.00">sys/types.h</text>
</a>
</g>
</g>
<!-- Node13&#45;&gt;Node17 -->
<g id="edge18_Node000013_Node000017" class="edge">
<title>Node13&#45;&gt;Node17</title>
<g id="a_edge18_Node000013_Node000017"><a xlink:title=" ">
<path fill="none" stroke="#63b8ff" d="M550.63,-109.99C510.94,-99.76 457.88,-86.09 421.11,-76.61"/>
<polygon fill="#63b8ff" stroke="#63b8ff" points="421.75,-73.16 411.19,-74.05 420,-79.94 421.75,-73.16"/>
</a>
</g>
</g>
<!-- Node18 -->
<g id="Node000018" class="node">
<title>Node18</title>
<g id="a_Node000018"><a xlink:title=" ">
<polygon fill="#e0e0e0" stroke="#999999" points="498,-74 432,-74 432,-55 498,-55 498,-74"/>
<text text-anchor="middle" x="465" y="-62" font-family="Helvetica,sans-Serif" font-size="10.00">sys/wait.h</text>
</a>
</g>
</g>
<!-- Node13&#45;&gt;Node18 -->
<g id="edge19_Node000013_Node000018" class="edge">
<title>Node13&#45;&gt;Node18</title>
<g id="a_edge19_Node000013_Node000018"><a xlink:title=" ">
<path fill="none" stroke="#63b8ff" d="M571.47,-109.99C548.21,-100.27 517.51,-87.44 495.05,-78.06"/>
<polygon fill="#63b8ff" stroke="#63b8ff" points="496.25,-74.77 485.68,-74.14 493.55,-81.22 496.25,-74.77"/>
</a>
</g>
</g>
<!-- Node19 -->
<g id="Node000019" class="node">
<title>Node19</title>
<g id="a_Node000019"><a xlink:title=" ">
<polygon fill="#e0e0e0" stroke="#999999" points="578,-74 516,-74 516,-55 578,-55 578,-74"/>
<text text-anchor="middle" x="547" y="-62" font-family="Helvetica,sans-Serif" font-size="10.00">stdbool.h</text>
</a>
</g>
</g>
<!-- Node13&#45;&gt;Node19 -->
<g id="edge20_Node000013_Node000019" class="edge">
<title>Node13&#45;&gt;Node19</title>
<g id="a_edge20_Node000013_Node000019"><a xlink:title=" ">
<path fill="none" stroke="#63b8ff" d="M590.96,-109.84C582.45,-101.26 571.59,-90.3 562.78,-81.42"/>
<polygon fill="#63b8ff" stroke="#63b8ff" points="565.22,-78.9 555.69,-74.27 560.25,-83.83 565.22,-78.9"/>
</a>
</g>
</g>
<!-- Node20&#45;&gt;Node13 -->
<g id="edge25_Node000020_Node000013" class="edge">
<title>Node20&#45;&gt;Node13</title>
<g id="a_edge25_Node000020_Node000013"><a xlink:title=" ">
<path fill="none" stroke="#63b8ff" d="M605,-175.87C605,-169.11 605,-159.35 605,-150.26"/>
<polygon fill="#63b8ff" stroke="#63b8ff" points="608.5,-150.11 605,-140.11 601.5,-150.11 608.5,-150.11"/>
</a>
</g>
</g>
</g>
</svg>
