<?xml version="1.0" encoding="UTF-8" standalone="no"?>
<!DOCTYPE svg PUBLIC "-//W3C//DTD SVG 1.1//EN"
 "http://www.w3.org/Graphics/SVG/1.1/DTD/svg11.dtd">
<!-- Generated by graphviz version 2.43.0 (0)
 -->
<!-- Title: ft_lstmap Pages: 1 -->
<svg width="303pt" height="101pt"
 viewBox="0.00 0.00 303.00 101.00" xmlns="http://www.w3.org/2000/svg" xmlns:xlink="http://www.w3.org/1999/xlink">
<g id="graph0" class="graph" transform="scale(1 1) rotate(0) translate(4 97)">
<title>ft_lstmap</title>
<!-- Node1 -->
<g id="Node000001" class="node">
<title>Node1</title>
<g id="a_Node000001"><a xlink:title="Creates a new list by applying a function to each element of an existing list.">
<polygon fill="#999999" stroke="#666666" points="62,-56 0,-56 0,-37 62,-37 62,-56"/>
<text text-anchor="middle" x="31" y="-44" font-family="Helvetica,sans-Serif" font-size="10.00">ft_lstmap</text>
</a>
</g>
</g>
<!-- Node2 -->
<g id="Node000002" class="node">
<title>Node2</title>
<g id="a_Node000002"><a xlink:href="ft__lstadd__back_8c.html#a4c10e88fffc3c9467eb16e6debd227a4" target="_top" xlink:title="Adds a new node at the end of a linked list.">
<polygon fill="white" stroke="#666666" points="185,-93 98,-93 98,-74 185,-74 185,-93"/>
<text text-anchor="middle" x="141.5" y="-81" font-family="Helvetica,sans-Serif" font-size="10.00">ft_lstadd_back</text>
</a>
</g>
</g>
<!-- Node1&#45;&gt;Node2 -->
<g id="edge1_Node000001_Node000002" class="edge">
<title>Node1&#45;&gt;Node2</title>
<g id="a_edge1_Node000001_Node000002"><a xlink:title=" ">
<path fill="none" stroke="#63b8ff" d="M59.94,-56.03C72.88,-60.44 88.44,-65.75 102.43,-70.52"/>
<polygon fill="#63b8ff" stroke="#63b8ff" points="101.68,-73.96 112.28,-73.88 103.94,-67.33 101.68,-73.96"/>
</a>
</g>
</g>
<!-- Node4 -->
<g id="Node000004" class="node">
<title>Node4</title>
<g id="a_Node000004"><a xlink:href="ft__lstclear_8c.html#a6e900cfaea2857bbf490f3105e38da93" target="_top" xlink:title="Deletes and frees all nodes of a linked list.">
<polygon fill="white" stroke="#666666" points="174,-56 109,-56 109,-37 174,-37 174,-56"/>
<text text-anchor="middle" x="141.5" y="-44" font-family="Helvetica,sans-Serif" font-size="10.00">ft_lstclear</text>
</a>
</g>
</g>
<!-- Node1&#45;&gt;Node4 -->
<g id="edge3_Node000001_Node000004" class="edge">
<title>Node1&#45;&gt;Node4</title>
<g id="a_edge3_Node000001_Node000004"><a xlink:title=" ">
<path fill="none" stroke="#63b8ff" d="M62.22,-46.5C73.47,-46.5 86.45,-46.5 98.57,-46.5"/>
<polygon fill="#63b8ff" stroke="#63b8ff" points="98.93,-50 108.93,-46.5 98.93,-43 98.93,-50"/>
</a>
</g>
</g>
<!-- Node6 -->
<g id="Node000006" class="node">
<title>Node6</title>
<g id="a_Node000006"><a xlink:href="ft__lstnew_8c.html#a8fe4ea6f56f5a2a75ee13d97416b60ed" target="_top" xlink:title="Creates a new list node with specified content.">
<polygon fill="white" stroke="#666666" points="172,-19 111,-19 111,0 172,0 172,-19"/>
<text text-anchor="middle" x="141.5" y="-7" font-family="Helvetica,sans-Serif" font-size="10.00">ft_lstnew</text>
</a>
</g>
</g>
<!-- Node1&#45;&gt;Node6 -->
<g id="edge5_Node000001_Node000006" class="edge">
<title>Node1&#45;&gt;Node6</title>
<g id="a_edge5_Node000001_Node000006"><a xlink:title=" ">
<path fill="none" stroke="#63b8ff" d="M59.94,-36.97C72.88,-32.56 88.44,-27.25 102.43,-22.48"/>
<polygon fill="#63b8ff" stroke="#63b8ff" points="103.94,-25.67 112.28,-19.12 101.68,-19.04 103.94,-25.67"/>
</a>
</g>
</g>
<!-- Node3 -->
<g id="Node000003" class="node">
<title>Node3</title>
<g id="a_Node000003"><a xlink:href="ft__lstlast_8c.html#aed5f9b5ecc45235a7b7cf9d4b24e43dc" target="_top" xlink:title="Returns the last node of a linked list.">
<polygon fill="white" stroke="#666666" points="287.5,-93 228.5,-93 228.5,-74 287.5,-74 287.5,-93"/>
<text text-anchor="middle" x="258" y="-81" font-family="Helvetica,sans-Serif" font-size="10.00">ft_lstlast</text>
</a>
</g>
</g>
<!-- Node2&#45;&gt;Node3 -->
<g id="edge2_Node000002_Node000003" class="edge">
<title>Node2&#45;&gt;Node3</title>
<g id="a_edge2_Node000002_Node000003"><a xlink:title=" ">
<path fill="none" stroke="#63b8ff" d="M185.14,-83.5C195.91,-83.5 207.43,-83.5 218.02,-83.5"/>
<polygon fill="#63b8ff" stroke="#63b8ff" points="218.23,-87 228.23,-83.5 218.23,-80 218.23,-87"/>
</a>
</g>
</g>
<!-- Node5 -->
<g id="Node000005" class="node">
<title>Node5</title>
<g id="a_Node000005"><a xlink:href="ft__lstdelone_8c.html#ac2b881501f9ee2f3ed5718f6d9ebee7c" target="_top" xlink:title="Deletes and frees a single node of a linked list.">
<polygon fill="white" stroke="#666666" points="295,-56 221,-56 221,-37 295,-37 295,-56"/>
<text text-anchor="middle" x="258" y="-44" font-family="Helvetica,sans-Serif" font-size="10.00">ft_lstdelone</text>
</a>
</g>
</g>
<!-- Node4&#45;&gt;Node5 -->
<g id="edge4_Node000004_Node000005" class="edge">
<title>Node4&#45;&gt;Node5</title>
<g id="a_edge4_Node000004_Node000005"><a xlink:title=" ">
<path fill="none" stroke="#63b8ff" d="M174.09,-46.5C185.36,-46.5 198.31,-46.5 210.57,-46.5"/>
<polygon fill="#63b8ff" stroke="#63b8ff" points="210.66,-50 220.66,-46.5 210.66,-43 210.66,-50"/>
</a>
</g>
</g>
</g>
</svg>
