<?xml version="1.0" encoding="UTF-8" standalone="no"?>
<!DOCTYPE svg PUBLIC "-//W3C//DTD SVG 1.1//EN"
 "http://www.w3.org/Graphics/SVG/1.1/DTD/svg11.dtd">
<!-- Generated by graphviz version 2.43.0 (0)
 -->
<!-- Title: ft_strcmp Pages: 1 -->
<svg width="1634pt" height="404pt"
 viewBox="0.00 0.00 1634.00 403.91" xmlns="http://www.w3.org/2000/svg" xmlns:xlink="http://www.w3.org/1999/xlink">
<g id="graph0" class="graph" transform="scale(1 1) rotate(0) translate(4 399.91)">
<title>ft_strcmp</title>
<!-- Node1 -->
<g id="Node000001" class="node">
<title>Node1</title>
<g id="a_Node000001"><a xlink:title="Compares two null&#45;terminated strings lexicographically.">
<polygon fill="#999999" stroke="#666666" points="1626,-224 1564,-224 1564,-205 1626,-205 1626,-224"/>
<text text-anchor="middle" x="1595" y="-212" font-family="Helvetica,sans-Serif" font-size="10.00">ft_strcmp</text>
</a>
</g>
</g>
<!-- Node2 -->
<g id="Node000002" class="node">
<title>Node2</title>
<g id="a_Node000002"><a xlink:href="utils__export__unset_8c.html#aa08bca6e18fd1b1686a244acf72ed2c6" target="_top" xlink:title="Sorts an array of strings (environment variables) in lexicographical (alphabetical) order.">
<polygon fill="white" stroke="#666666" points="1502.5,-243 1419.5,-243 1419.5,-224 1502.5,-224 1502.5,-243"/>
<text text-anchor="middle" x="1461" y="-231" font-family="Helvetica,sans-Serif" font-size="10.00">ft_env_sorted</text>
</a>
</g>
</g>
<!-- Node1&#45;&gt;Node2 -->
<g id="edge1_Node000001_Node000002" class="edge">
<title>Node1&#45;&gt;Node2</title>
<g id="a_edge1_Node000001_Node000002"><a xlink:title=" ">
<path fill="none" stroke="#63b8ff" d="M1553.5,-220.33C1537.36,-222.65 1518.81,-225.32 1502.65,-227.65"/>
<polygon fill="#63b8ff" stroke="#63b8ff" points="1554.32,-223.75 1563.72,-218.86 1553.32,-216.82 1554.32,-223.75"/>
</a>
</g>
</g>
<!-- Node5 -->
<g id="Node000005" class="node">
<title>Node5</title>
<g id="a_Node000005"><a xlink:href="cmd__execution_8c.html#a5ce7231f800cbacea6350cc1a32a59bd" target="_top" xlink:title="Executes a list of non&#45;pipelined commands.">
<polygon fill="white" stroke="#666666" points="879.5,-280 807.5,-280 807.5,-261 879.5,-261 879.5,-280"/>
<text text-anchor="middle" x="843.5" y="-268" font-family="Helvetica,sans-Serif" font-size="10.00">ft_exe_cmd</text>
</a>
</g>
</g>
<!-- Node1&#45;&gt;Node5 -->
<g id="edge14_Node000001_Node000005" class="edge">
<title>Node1&#45;&gt;Node5</title>
<g id="a_edge14_Node000001_Node000005"><a xlink:title=" ">
<path fill="none" stroke="#63b8ff" d="M1591.37,-233.97C1585.91,-266.17 1570.1,-329.97 1528,-360.5 1444.93,-420.73 1401.1,-385.5 1298.5,-385.5 1298.5,-385.5 1298.5,-385.5 1140.5,-385.5 1044.62,-385.5 1020.52,-365.65 933,-326.5 904.12,-313.58 873.61,-292.35 857.03,-280.08"/>
<polygon fill="#63b8ff" stroke="#63b8ff" points="1594.85,-234.42 1592.9,-224.01 1587.93,-233.36 1594.85,-234.42"/>
</a>
</g>
</g>
<!-- Node9 -->
<g id="Node000009" class="node">
<title>Node9</title>
<g id="a_Node000009"><a xlink:href="cmd__execution_8c.html#a50e59fa2e4621831a415d4038f697c56" target="_top" xlink:title="Executes a command within a pipeline.">
<polygon fill="white" stroke="#666666" points="892.5,-243 794.5,-243 794.5,-224 892.5,-224 892.5,-243"/>
<text text-anchor="middle" x="843.5" y="-231" font-family="Helvetica,sans-Serif" font-size="10.00">ft_exe_pipe_cmd</text>
</a>
</g>
</g>
<!-- Node1&#45;&gt;Node9 -->
<g id="edge23_Node000001_Node000009" class="edge">
<title>Node1&#45;&gt;Node9</title>
<g id="a_edge23_Node000001_Node000009"><a xlink:title=" ">
<path fill="none" stroke="#63b8ff" d="M1553.83,-210.28C1497.03,-204.68 1389.97,-195.5 1298.5,-195.5 1298.5,-195.5 1298.5,-195.5 1140.5,-195.5 1047.89,-195.5 1024.55,-200.53 933,-214.5 916.84,-216.96 899.21,-220.56 883.96,-223.97"/>
<polygon fill="#63b8ff" stroke="#63b8ff" points="1553.54,-213.76 1563.84,-211.28 1554.24,-206.8 1553.54,-213.76"/>
</a>
</g>
</g>
<!-- Node14 -->
<g id="Node000014" class="node">
<title>Node14</title>
<g id="a_Node000014"><a xlink:href="handle__heredoc_8c.html#ac5ba13b1edbd22e4a7e0a50fc91f80db" target="_top" xlink:title="Executes a single read&#45;write cycle of the here&#45;document.">
<polygon fill="white" stroke="#666666" points="1506,-167 1416,-167 1416,-148 1506,-148 1506,-167"/>
<text text-anchor="middle" x="1461" y="-155" font-family="Helvetica,sans-Serif" font-size="10.00">ft_exe_heredoc</text>
</a>
</g>
</g>
<!-- Node1&#45;&gt;Node14 -->
<g id="edge15_Node000001_Node000014" class="edge">
<title>Node1&#45;&gt;Node14</title>
<g id="a_edge15_Node000001_Node000014"><a xlink:title=" ">
<path fill="none" stroke="#63b8ff" d="M1567.37,-200.31C1555.47,-194.2 1541.19,-187.17 1528,-181.5 1515.9,-176.3 1502.27,-171.21 1490.54,-167.07"/>
<polygon fill="#63b8ff" stroke="#63b8ff" points="1565.85,-203.46 1576.33,-204.97 1569.08,-197.25 1565.85,-203.46"/>
</a>
</g>
</g>
<!-- Node21 -->
<g id="Node000021" class="node">
<title>Node21</title>
<g id="a_Node000021"><a xlink:href="exit_8c.html#a7bda6b30cde0b18718f60d2a30efb2f6" target="_top" xlink:title="Handles the case when exit is called without arguments or with &quot;0&quot;.">
<polygon fill="white" stroke="#666666" points="1200,-338 1083,-338 1083,-319 1200,-319 1200,-338"/>
<text text-anchor="middle" x="1141.5" y="-326" font-family="Helvetica,sans-Serif" font-size="10.00">ft_exit_no_args_or_0</text>
</a>
</g>
</g>
<!-- Node1&#45;&gt;Node21 -->
<g id="edge24_Node000001_Node000021" class="edge">
<title>Node1&#45;&gt;Node21</title>
<g id="a_edge24_Node000001_Node000021"><a xlink:title=" ">
<path fill="none" stroke="#63b8ff" d="M1589.23,-233.95C1581.48,-260.77 1563.35,-308.12 1528,-328.5 1411.89,-395.44 1241.55,-357.66 1172.87,-338.02"/>
<polygon fill="#63b8ff" stroke="#63b8ff" points="1592.65,-234.72 1591.86,-224.15 1585.88,-232.91 1592.65,-234.72"/>
</a>
</g>
</g>
<!-- Node23 -->
<g id="Node000023" class="node">
<title>Node23</title>
<g id="a_Node000023"><a xlink:href="unset_8c.html#a1f4492a754a8735a053adc61c57f6692" target="_top" xlink:title="Finds the index of a variable in the environment.">
<polygon fill="white" stroke="#666666" points="1511,-319 1411,-319 1411,-300 1511,-300 1511,-319"/>
<text text-anchor="middle" x="1461" y="-307" font-family="Helvetica,sans-Serif" font-size="10.00">ft_find_unset_var</text>
</a>
</g>
</g>
<!-- Node1&#45;&gt;Node23 -->
<g id="edge28_Node000001_Node000023" class="edge">
<title>Node1&#45;&gt;Node23</title>
<g id="a_edge28_Node000001_Node000023"><a xlink:title=" ">
<path fill="none" stroke="#63b8ff" d="M1582.47,-232.61C1570.73,-249.65 1551.01,-274.69 1528,-289.5 1521.25,-293.84 1513.52,-297.28 1505.77,-299.99"/>
<polygon fill="#63b8ff" stroke="#63b8ff" points="1585.52,-234.35 1588.15,-224.08 1579.69,-230.47 1585.52,-234.35"/>
</a>
</g>
</g>
<!-- Node26 -->
<g id="Node000026" class="node">
<title>Node26</title>
<g id="a_Node000026"><a xlink:href="unset_8c.html#ad9c56b69ee719b3000b39b3c873b4c44" target="_top" xlink:title="Copies all environment variables except the one to remove into new_env array.">
<polygon fill="white" stroke="#666666" points="1500,-281 1422,-281 1422,-262 1500,-262 1500,-281"/>
<text text-anchor="middle" x="1461" y="-269" font-family="Helvetica,sans-Serif" font-size="10.00">ft_for_delete</text>
</a>
</g>
</g>
<!-- Node1&#45;&gt;Node26 -->
<g id="edge33_Node000001_Node000026" class="edge">
<title>Node1&#45;&gt;Node26</title>
<g id="a_edge33_Node000001_Node000026"><a xlink:title=" ">
<path fill="none" stroke="#63b8ff" d="M1570.29,-229.44C1558,-236.76 1542.54,-245.31 1528,-251.5 1518.64,-255.49 1508.22,-259.03 1498.47,-261.99"/>
<polygon fill="#63b8ff" stroke="#63b8ff" points="1572.28,-232.33 1579.01,-224.15 1568.65,-226.35 1572.28,-232.33"/>
</a>
</g>
</g>
<!-- Node28 -->
<g id="Node000028" class="node">
<title>Node28</title>
<g id="a_Node000028"><a xlink:href="for__merge__echo_8c.html#a5326da08ceca8e15b2ceca38c9930e08" target="_top" xlink:title="Handles merging multiple &#45;n, &#45;nn, etc. tokens for the echo command.">
<polygon fill="white" stroke="#666666" points="1524,-130 1398,-130 1398,-111 1524,-111 1524,-130"/>
<text text-anchor="middle" x="1461" y="-118" font-family="Helvetica,sans-Serif" font-size="10.00">ft_merge_tokens_echo</text>
</a>
</g>
</g>
<!-- Node1&#45;&gt;Node28 -->
<g id="edge36_Node000001_Node000028" class="edge">
<title>Node1&#45;&gt;Node28</title>
<g id="a_edge36_Node000001_Node000028"><a xlink:title=" ">
<path fill="none" stroke="#63b8ff" d="M1582.81,-196.28C1571.2,-178.9 1551.47,-153.25 1528,-138.5 1522.57,-135.09 1516.49,-132.31 1510.29,-130.06"/>
<polygon fill="#63b8ff" stroke="#63b8ff" points="1580.04,-198.45 1588.39,-204.96 1585.92,-194.66 1580.04,-198.45"/>
</a>
</g>
</g>
<!-- Node31 -->
<g id="Node000031" class="node">
<title>Node31</title>
<g id="a_Node000031"><a xlink:href="for__merge__export_8c.html#a94cce59efbc71ee79944cf7e061d8104" target="_top" xlink:title="Checks if the current command is export and, if so, merges the following ARGUMENT tokens.">
<polygon fill="white" stroke="#666666" points="1528,-93 1394,-93 1394,-74 1528,-74 1528,-93"/>
<text text-anchor="middle" x="1461" y="-81" font-family="Helvetica,sans-Serif" font-size="10.00">ft_merge_tokens_export</text>
</a>
</g>
</g>
<!-- Node1&#45;&gt;Node31 -->
<g id="edge40_Node000001_Node000031" class="edge">
<title>Node1&#45;&gt;Node31</title>
<g id="a_edge40_Node000001_Node000031"><a xlink:title=" ">
<path fill="none" stroke="#63b8ff" d="M1587.97,-195.37C1579,-170.06 1559.71,-125.82 1528,-101.5 1523.57,-98.1 1518.54,-95.35 1513.29,-93.11"/>
<polygon fill="#63b8ff" stroke="#63b8ff" points="1584.68,-196.58 1591.19,-204.94 1591.32,-194.35 1584.68,-196.58"/>
</a>
</g>
</g>
<!-- Node32 -->
<g id="Node000032" class="node">
<title>Node32</title>
<g id="a_Node000032"><a xlink:href="utils__token_8c.html#a611ee3ce2706d68aa376e8222614c6eb" target="_top" xlink:title="Determines the token type based on the value, quote flag, and command flag.">
<polygon fill="white" stroke="#666666" points="1507,-56 1415,-56 1415,-37 1507,-37 1507,-56"/>
<text text-anchor="middle" x="1461" y="-44" font-family="Helvetica,sans-Serif" font-size="10.00">get_token_type</text>
</a>
</g>
</g>
<!-- Node1&#45;&gt;Node32 -->
<g id="edge42_Node000001_Node000032" class="edge">
<title>Node1&#45;&gt;Node32</title>
<g id="a_edge42_Node000001_Node000032"><a xlink:title=" ">
<path fill="none" stroke="#63b8ff" d="M1590.89,-194.77C1584.78,-162.62 1568.1,-99.06 1528,-64.5 1522.06,-59.38 1514.8,-55.71 1507.29,-53.07"/>
<polygon fill="#63b8ff" stroke="#63b8ff" points="1587.46,-195.49 1592.64,-204.73 1594.36,-194.28 1587.46,-195.49"/>
</a>
</g>
</g>
<!-- Node3 -->
<g id="Node000003" class="node">
<title>Node3</title>
<g id="a_Node000003"><a xlink:href="export_8c.html#a9dd6b5454cb0970f6577188835ebc291" target="_top" xlink:title="Handles the export command without arguments.">
<polygon fill="white" stroke="#666666" points="1193.5,-243 1089.5,-243 1089.5,-224 1193.5,-224 1193.5,-243"/>
<text text-anchor="middle" x="1141.5" y="-231" font-family="Helvetica,sans-Serif" font-size="10.00">ft_export_no_args</text>
</a>
</g>
</g>
<!-- Node2&#45;&gt;Node3 -->
<g id="edge2_Node000002_Node000003" class="edge">
<title>Node2&#45;&gt;Node3</title>
<g id="a_edge2_Node000002_Node000003"><a xlink:title=" ">
<path fill="none" stroke="#63b8ff" d="M1409.24,-233.5C1350.06,-233.5 1252.83,-233.5 1193.54,-233.5"/>
<polygon fill="#63b8ff" stroke="#63b8ff" points="1409.47,-237 1419.47,-233.5 1409.47,-230 1409.47,-237"/>
</a>
</g>
</g>
<!-- Node4 -->
<g id="Node000004" class="node">
<title>Node4</title>
<g id="a_Node000004"><a xlink:href="export_8c.html#a2b0f2ba2e9188c7b4f6ca5a44c1d0c8e" target="_top" xlink:title="Builtin function for the export command.">
<polygon fill="white" stroke="#666666" points="1019.5,-243 959.5,-243 959.5,-224 1019.5,-224 1019.5,-243"/>
<text text-anchor="middle" x="989.5" y="-231" font-family="Helvetica,sans-Serif" font-size="10.00">ft_export</text>
</a>
</g>
</g>
<!-- Node3&#45;&gt;Node4 -->
<g id="edge3_Node000003_Node000004" class="edge">
<title>Node3&#45;&gt;Node4</title>
<g id="a_edge3_Node000003_Node000004"><a xlink:title=" ">
<path fill="none" stroke="#63b8ff" d="M1079.03,-233.5C1058.48,-233.5 1036.53,-233.5 1019.62,-233.5"/>
<polygon fill="#63b8ff" stroke="#63b8ff" points="1079.3,-237 1089.3,-233.5 1079.3,-230 1079.3,-237"/>
</a>
</g>
</g>
<!-- Node4&#45;&gt;Node5 -->
<g id="edge4_Node000004_Node000005" class="edge">
<title>Node4&#45;&gt;Node5</title>
<g id="a_edge4_Node000004_Node000005"><a xlink:title=" ">
<path fill="none" stroke="#63b8ff" d="M949.45,-243.53C927.69,-249.12 900.81,-256.03 879.7,-261.45"/>
<polygon fill="#63b8ff" stroke="#63b8ff" points="950.55,-246.87 959.36,-240.99 948.8,-240.09 950.55,-246.87"/>
</a>
</g>
</g>
<!-- Node4&#45;&gt;Node9 -->
<g id="edge8_Node000004_Node000009" class="edge">
<title>Node4&#45;&gt;Node9</title>
<g id="a_edge8_Node000004_Node000009"><a xlink:title=" ">
<path fill="none" stroke="#63b8ff" d="M948.97,-233.5C931.54,-233.5 910.9,-233.5 892.59,-233.5"/>
<polygon fill="#63b8ff" stroke="#63b8ff" points="949.36,-237 959.36,-233.5 949.36,-230 949.36,-237"/>
</a>
</g>
</g>
<!-- Node6 -->
<g id="Node000006" class="node">
<title>Node6</title>
<g id="a_Node000006"><a xlink:href="main__utils_8c.html#a7e8f478480ab6ab34d6f5eadaf6acdb9" target="_top" xlink:title="Handles parsing and execution of tokens.">
<polygon fill="white" stroke="#666666" points="273,-206 192,-206 192,-187 273,-187 273,-206"/>
<text text-anchor="middle" x="232.5" y="-194" font-family="Helvetica,sans-Serif" font-size="10.00">ft_token_flow</text>
</a>
</g>
</g>
<!-- Node5&#45;&gt;Node6 -->
<g id="edge5_Node000005_Node000006" class="edge">
<title>Node5&#45;&gt;Node6</title>
<g id="a_edge5_Node000005_Node000006"><a xlink:title=" ">
<path fill="none" stroke="#63b8ff" d="M796.99,-267.69C745.1,-264.73 657.72,-260.5 582.5,-260.5 582.5,-260.5 582.5,-260.5 459.5,-260.5 380.59,-260.5 291.85,-223.94 253.22,-206.08"/>
<polygon fill="#63b8ff" stroke="#63b8ff" points="797.01,-271.2 807.19,-268.28 797.41,-264.21 797.01,-271.2"/>
</a>
</g>
</g>
<!-- Node7 -->
<g id="Node000007" class="node">
<title>Node7</title>
<g id="a_Node000007"><a xlink:href="main__utils_8c.html#ae35edfb8f1339d6f77f53c28eb2a2ed6" target="_top" xlink:title="Handles a complete cycle of input → parsing → execution.">
<polygon fill="white" stroke="#666666" points="156,-147 77,-147 77,-128 156,-128 156,-147"/>
<text text-anchor="middle" x="116.5" y="-135" font-family="Helvetica,sans-Serif" font-size="10.00">ft_main_flow</text>
</a>
</g>
</g>
<!-- Node6&#45;&gt;Node7 -->
<g id="edge6_Node000006_Node000007" class="edge">
<title>Node6&#45;&gt;Node7</title>
<g id="a_edge6_Node000006_Node000007"><a xlink:title=" ">
<path fill="none" stroke="#63b8ff" d="M203.84,-182.19C182.81,-171.3 154.44,-156.62 136.06,-147.11"/>
<polygon fill="#63b8ff" stroke="#63b8ff" points="202.44,-185.4 212.93,-186.89 205.66,-179.18 202.44,-185.4"/>
</a>
</g>
</g>
<!-- Node8 -->
<g id="Node000008" class="node">
<title>Node8</title>
<g id="a_Node000008"><a xlink:href="main_8c.html#ab3862b46d6a8d13c2d884a297e6b05b5" target="_top" xlink:title="Main function of the minishell.">
<polygon fill="white" stroke="#666666" points="41,-147 0,-147 0,-128 41,-128 41,-147"/>
<text text-anchor="middle" x="20.5" y="-135" font-family="Helvetica,sans-Serif" font-size="10.00">main</text>
</a>
</g>
</g>
<!-- Node7&#45;&gt;Node8 -->
<g id="edge7_Node000007_Node000008" class="edge">
<title>Node7&#45;&gt;Node8</title>
<g id="a_edge7_Node000007_Node000008"><a xlink:title=" ">
<path fill="none" stroke="#63b8ff" d="M66.74,-137.5C57.62,-137.5 48.59,-137.5 41.03,-137.5"/>
<polygon fill="#63b8ff" stroke="#63b8ff" points="67,-141 77,-137.5 67,-134 67,-141"/>
</a>
</g>
</g>
<!-- Node10 -->
<g id="Node000010" class="node">
<title>Node10</title>
<g id="a_Node000010"><a xlink:href="pipes_8c.html#a36a2d91a0566ad253efe3833b05e69d1" target="_top" xlink:title="Routine executed by the child process for each command in the pipe.">
<polygon fill="white" stroke="#666666" points="754,-222 662,-222 662,-203 754,-203 754,-222"/>
<text text-anchor="middle" x="708" y="-210" font-family="Helvetica,sans-Serif" font-size="10.00">ft_child_routine</text>
</a>
</g>
</g>
<!-- Node9&#45;&gt;Node10 -->
<g id="edge9_Node000009_Node000010" class="edge">
<title>Node9&#45;&gt;Node10</title>
<g id="a_edge9_Node000009_Node000010"><a xlink:title=" ">
<path fill="none" stroke="#63b8ff" d="M784.28,-224.34C774.14,-222.75 763.73,-221.11 754.01,-219.58"/>
<polygon fill="#63b8ff" stroke="#63b8ff" points="783.88,-227.82 794.3,-225.92 784.97,-220.91 783.88,-227.82"/>
</a>
</g>
</g>
<!-- Node11 -->
<g id="Node000011" class="node">
<title>Node11</title>
<g id="a_Node000011"><a xlink:href="pipes_8c.html#aa17e847997e7266a0a111ab3572756bb" target="_top" xlink:title="Manages pipe creation and fork to execute the current command.">
<polygon fill="white" stroke="#666666" points="626,-219 537,-219 537,-200 626,-200 626,-219"/>
<text text-anchor="middle" x="581.5" y="-207" font-family="Helvetica,sans-Serif" font-size="10.00">ft_pipe_routine</text>
</a>
</g>
</g>
<!-- Node10&#45;&gt;Node11 -->
<g id="edge10_Node000010_Node000011" class="edge">
<title>Node10&#45;&gt;Node11</title>
<g id="a_edge10_Node000010_Node000011"><a xlink:title=" ">
<path fill="none" stroke="#63b8ff" d="M651.52,-211.16C643.08,-210.96 634.46,-210.75 626.31,-210.56"/>
<polygon fill="#63b8ff" stroke="#63b8ff" points="651.62,-214.67 661.7,-211.41 651.79,-207.67 651.62,-214.67"/>
</a>
</g>
</g>
<!-- Node12 -->
<g id="Node000012" class="node">
<title>Node12</title>
<g id="a_Node000012"><a xlink:href="pipes_8c.html#a7a3b0de1a88a243da741f748881e14f0" target="_top" xlink:title="Executes a list of commands connected via pipes.">
<polygon fill="white" stroke="#666666" points="501,-216 420,-216 420,-197 501,-197 501,-216"/>
<text text-anchor="middle" x="460.5" y="-204" font-family="Helvetica,sans-Serif" font-size="10.00">execute_pipe</text>
</a>
</g>
</g>
<!-- Node11&#45;&gt;Node12 -->
<g id="edge11_Node000011_Node000012" class="edge">
<title>Node11&#45;&gt;Node12</title>
<g id="a_edge11_Node000011_Node000012"><a xlink:title=" ">
<path fill="none" stroke="#63b8ff" d="M526.85,-208.15C518.22,-207.93 509.42,-207.71 501.19,-207.5"/>
<polygon fill="#63b8ff" stroke="#63b8ff" points="526.78,-211.65 536.86,-208.4 526.96,-204.65 526.78,-211.65"/>
</a>
</g>
</g>
<!-- Node13 -->
<g id="Node000013" class="node">
<title>Node13</title>
<g id="a_Node000013"><a xlink:href="main__utils_8c.html#ad0183732909ae6e7c52e7b086c2e5642" target="_top" xlink:title="Manages the execution flow of commands with pipes.">
<polygon fill="white" stroke="#666666" points="384,-211 309,-211 309,-192 384,-192 384,-211"/>
<text text-anchor="middle" x="346.5" y="-199" font-family="Helvetica,sans-Serif" font-size="10.00">ft_pipe_flow</text>
</a>
</g>
</g>
<!-- Node12&#45;&gt;Node13 -->
<g id="edge12_Node000012_Node000013" class="edge">
<title>Node12&#45;&gt;Node13</title>
<g id="a_edge12_Node000012_Node000013"><a xlink:title=" ">
<path fill="none" stroke="#63b8ff" d="M409.47,-204.27C400.96,-203.89 392.26,-203.5 384.18,-203.14"/>
<polygon fill="#63b8ff" stroke="#63b8ff" points="409.55,-207.77 419.7,-204.72 409.86,-200.78 409.55,-207.77"/>
</a>
</g>
</g>
<!-- Node13&#45;&gt;Node6 -->
<g id="edge13_Node000013_Node000006" class="edge">
<title>Node13&#45;&gt;Node6</title>
<g id="a_edge13_Node000013_Node000006"><a xlink:title=" ">
<path fill="none" stroke="#63b8ff" d="M298.73,-199.41C290.29,-199.04 281.57,-198.65 273.35,-198.28"/>
<polygon fill="#63b8ff" stroke="#63b8ff" points="298.68,-202.91 308.83,-199.86 298.99,-195.92 298.68,-202.91"/>
</a>
</g>
</g>
<!-- Node15 -->
<g id="Node000015" class="node">
<title>Node15</title>
<g id="a_Node000015"><a xlink:href="handle__heredoc_8c.html#a922eae1c49290306f7cf811bf65d9ed1" target="_top" xlink:title="Handles the entire input process for a here&#45;document.">
<polygon fill="white" stroke="#666666" points="1344.5,-167 1250.5,-167 1250.5,-148 1344.5,-148 1344.5,-167"/>
<text text-anchor="middle" x="1297.5" y="-155" font-family="Helvetica,sans-Serif" font-size="10.00">handle_heredoc</text>
</a>
</g>
</g>
<!-- Node14&#45;&gt;Node15 -->
<g id="edge16_Node000014_Node000015" class="edge">
<title>Node14&#45;&gt;Node15</title>
<g id="a_edge16_Node000014_Node000015"><a xlink:title=" ">
<path fill="none" stroke="#63b8ff" d="M1405.73,-157.5C1385.88,-157.5 1363.62,-157.5 1344.55,-157.5"/>
<polygon fill="#63b8ff" stroke="#63b8ff" points="1405.87,-161 1415.87,-157.5 1405.87,-154 1405.87,-161"/>
</a>
</g>
</g>
<!-- Node16 -->
<g id="Node000016" class="node">
<title>Node16</title>
<g id="a_Node000016"><a xlink:href="handle__redirections_8c.html#a2834314002a1f4ef4af82f95159b0a34" target="_top" xlink:title="Handles input redirection from file or heredoc.">
<polygon fill="white" stroke="#666666" points="1201,-165 1082,-165 1082,-146 1201,-146 1201,-165"/>
<text text-anchor="middle" x="1141.5" y="-153" font-family="Helvetica,sans-Serif" font-size="10.00">ft_handle_infile_redir</text>
</a>
</g>
</g>
<!-- Node15&#45;&gt;Node16 -->
<g id="edge17_Node000015_Node000016" class="edge">
<title>Node15&#45;&gt;Node16</title>
<g id="a_edge17_Node000015_Node000016"><a xlink:title=" ">
<path fill="none" stroke="#63b8ff" d="M1239.93,-156.77C1227.33,-156.6 1213.94,-156.43 1201.25,-156.26"/>
<polygon fill="#63b8ff" stroke="#63b8ff" points="1240.25,-160.27 1250.29,-156.9 1240.34,-153.27 1240.25,-160.27"/>
</a>
</g>
</g>
<!-- Node17 -->
<g id="Node000017" class="node">
<title>Node17</title>
<g id="a_Node000017"><a xlink:href="handle__redirections_8c.html#aa4509a43f47ed881eb2d81fb81458466" target="_top" xlink:title="Handles redirections without an associated command.">
<polygon fill="white" stroke="#666666" points="1046,-167.5 933,-167.5 933,-137.5 1046,-137.5 1046,-167.5"/>
<text text-anchor="start" x="941" y="-155.5" font-family="Helvetica,sans-Serif" font-size="10.00">handle_redirection</text>
<text text-anchor="middle" x="989.5" y="-144.5" font-family="Helvetica,sans-Serif" font-size="10.00">_without_command</text>
</a>
</g>
</g>
<!-- Node16&#45;&gt;Node17 -->
<g id="edge18_Node000016_Node000017" class="edge">
<title>Node16&#45;&gt;Node17</title>
<g id="a_edge18_Node000016_Node000017"><a xlink:title=" ">
<path fill="none" stroke="#63b8ff" d="M1071.43,-154.12C1062.99,-153.95 1054.45,-153.78 1046.24,-153.61"/>
<polygon fill="#63b8ff" stroke="#63b8ff" points="1071.58,-157.62 1081.65,-154.32 1071.72,-150.62 1071.58,-157.62"/>
</a>
</g>
</g>
<!-- Node18 -->
<g id="Node000018" class="node">
<title>Node18</title>
<g id="a_Node000018"><a xlink:href="handle__redirections_8c.html#ab2c37fefb1291d3f8d0dc91e8c096334" target="_top" xlink:title="Handles redirection associated with a command.">
<polygon fill="white" stroke="#666666" points="897,-167 790,-167 790,-148 897,-148 897,-167"/>
<text text-anchor="middle" x="843.5" y="-155" font-family="Helvetica,sans-Serif" font-size="10.00">handle_redirection</text>
</a>
</g>
</g>
<!-- Node17&#45;&gt;Node18 -->
<g id="edge19_Node000017_Node000018" class="edge">
<title>Node17&#45;&gt;Node18</title>
<g id="a_edge19_Node000017_Node000018"><a xlink:title=" ">
<path fill="none" stroke="#63b8ff" d="M922.83,-154.78C914.24,-155.08 905.53,-155.38 897.19,-155.67"/>
<polygon fill="#63b8ff" stroke="#63b8ff" points="922.95,-158.28 932.83,-154.43 922.71,-151.28 922.95,-158.28"/>
</a>
</g>
</g>
<!-- Node19 -->
<g id="Node000019" class="node">
<title>Node19</title>
<g id="a_Node000019"><a xlink:href="create__command__list_8c.html#ae2006bf82a70d4753ffdca65847316ca" target="_top" xlink:title="Executes a redirection for the current command.">
<polygon fill="white" stroke="#666666" points="745,-167 671,-167 671,-148 745,-148 745,-167"/>
<text text-anchor="middle" x="708" y="-155" font-family="Helvetica,sans-Serif" font-size="10.00">ft_exe_redir</text>
</a>
</g>
</g>
<!-- Node18&#45;&gt;Node19 -->
<g id="edge20_Node000018_Node000019" class="edge">
<title>Node18&#45;&gt;Node19</title>
<g id="a_edge20_Node000018_Node000019"><a xlink:title=" ">
<path fill="none" stroke="#63b8ff" d="M779.52,-157.5C767.8,-157.5 755.93,-157.5 745.36,-157.5"/>
<polygon fill="#63b8ff" stroke="#63b8ff" points="779.74,-161 789.74,-157.5 779.74,-154 779.74,-161"/>
</a>
</g>
</g>
<!-- Node20 -->
<g id="Node000020" class="node">
<title>Node20</title>
<g id="a_Node000020"><a xlink:href="create__command__list_8c.html#ad16d74756b107a98677124008c71d23b" target="_top" xlink:title="Creates a command list from tokens.">
<polygon fill="white" stroke="#666666" points="494.5,-167 426.5,-167 426.5,-148 494.5,-148 494.5,-167"/>
<text text-anchor="middle" x="460.5" y="-155" font-family="Helvetica,sans-Serif" font-size="10.00">create_list</text>
</a>
</g>
</g>
<!-- Node19&#45;&gt;Node20 -->
<g id="edge21_Node000019_Node000020" class="edge">
<title>Node19&#45;&gt;Node20</title>
<g id="a_edge21_Node000019_Node000020"><a xlink:title=" ">
<path fill="none" stroke="#63b8ff" d="M660.57,-157.5C612.17,-157.5 537.52,-157.5 494.72,-157.5"/>
<polygon fill="#63b8ff" stroke="#63b8ff" points="660.78,-161 670.78,-157.5 660.78,-154 660.78,-161"/>
</a>
</g>
</g>
<!-- Node20&#45;&gt;Node6 -->
<g id="edge22_Node000020_Node000006" class="edge">
<title>Node20&#45;&gt;Node6</title>
<g id="a_edge22_Node000020_Node000006"><a xlink:title=" ">
<path fill="none" stroke="#63b8ff" d="M416.13,-164.48C386.04,-169.38 345.05,-176.16 309,-182.5 297.31,-184.55 284.63,-186.87 273.05,-189.02"/>
<polygon fill="#63b8ff" stroke="#63b8ff" points="416.98,-167.89 426.29,-162.83 415.86,-160.98 416.98,-167.89"/>
</a>
</g>
</g>
<!-- Node22 -->
<g id="Node000022" class="node">
<title>Node22</title>
<g id="a_Node000022"><a xlink:href="exit_8c.html#af0d4948984577b715a89f18d5864cfa2" target="_top" xlink:title="Builtin function for the exit command.">
<polygon fill="white" stroke="#666666" points="1013,-317 966,-317 966,-298 1013,-298 1013,-317"/>
<text text-anchor="middle" x="989.5" y="-305" font-family="Helvetica,sans-Serif" font-size="10.00">ft_exit</text>
</a>
</g>
</g>
<!-- Node21&#45;&gt;Node22 -->
<g id="edge25_Node000021_Node000022" class="edge">
<title>Node21&#45;&gt;Node22</title>
<g id="a_edge25_Node000021_Node000022"><a xlink:title=" ">
<path fill="none" stroke="#63b8ff" d="M1072.86,-319.03C1051.45,-316.03 1029.25,-312.92 1013.29,-310.69"/>
<polygon fill="#63b8ff" stroke="#63b8ff" points="1072.55,-322.52 1082.94,-320.44 1073.52,-315.59 1072.55,-322.52"/>
</a>
</g>
</g>
<!-- Node22&#45;&gt;Node5 -->
<g id="edge26_Node000022_Node000005" class="edge">
<title>Node22&#45;&gt;Node5</title>
<g id="a_edge26_Node000022_Node000005"><a xlink:title=" ">
<path fill="none" stroke="#63b8ff" d="M955.82,-299.1C933.09,-293.26 902.81,-285.48 879.57,-279.51"/>
<polygon fill="#63b8ff" stroke="#63b8ff" points="955.13,-302.54 965.68,-301.64 956.87,-295.76 955.13,-302.54"/>
</a>
</g>
</g>
<!-- Node22&#45;&gt;Node9 -->
<g id="edge27_Node000022_Node000009" class="edge">
<title>Node22&#45;&gt;Node9</title>
<g id="a_edge27_Node000022_Node000009"><a xlink:title=" ">
<path fill="none" stroke="#63b8ff" d="M956.09,-299.25C948.2,-296.48 940.02,-292.94 933,-288.5 913.62,-276.23 916.38,-263.78 897,-251.5 891.71,-248.15 885.72,-245.34 879.73,-243.01"/>
<polygon fill="#63b8ff" stroke="#63b8ff" points="955.22,-302.65 965.81,-302.34 957.34,-295.97 955.22,-302.65"/>
</a>
</g>
</g>
<!-- Node24 -->
<g id="Node000024" class="node">
<title>Node24</title>
<g id="a_Node000024"><a xlink:href="unset_8c.html#aabf1b9c17103a2c429513f9b4c84bccd" target="_top" xlink:title="Executes the unset operation on a single argument.">
<polygon fill="white" stroke="#666666" points="1174.5,-281 1108.5,-281 1108.5,-262 1174.5,-262 1174.5,-281"/>
<text text-anchor="middle" x="1141.5" y="-269" font-family="Helvetica,sans-Serif" font-size="10.00">exe_unset</text>
</a>
</g>
</g>
<!-- Node23&#45;&gt;Node24 -->
<g id="edge29_Node000023_Node000024" class="edge">
<title>Node23&#45;&gt;Node24</title>
<g id="a_edge29_Node000023_Node000024"><a xlink:title=" ">
<path fill="none" stroke="#63b8ff" d="M1400.5,-305.77C1355.48,-302.56 1292.18,-297.21 1237,-289.5 1216.16,-286.59 1192.94,-282.18 1174.73,-278.46"/>
<polygon fill="#63b8ff" stroke="#63b8ff" points="1400.46,-309.27 1410.68,-306.48 1400.95,-302.29 1400.46,-309.27"/>
</a>
</g>
</g>
<!-- Node25 -->
<g id="Node000025" class="node">
<title>Node25</title>
<g id="a_Node000025"><a xlink:href="unset_8c.html#afc37f76bba8f618bcf9eaafa7ee23618" target="_top" xlink:title="Builtin function for the unset command.">
<polygon fill="white" stroke="#666666" points="1017.5,-280 961.5,-280 961.5,-261 1017.5,-261 1017.5,-280"/>
<text text-anchor="middle" x="989.5" y="-268" font-family="Helvetica,sans-Serif" font-size="10.00">ft_unset</text>
</a>
</g>
</g>
<!-- Node24&#45;&gt;Node25 -->
<g id="edge30_Node000024_Node000025" class="edge">
<title>Node24&#45;&gt;Node25</title>
<g id="a_edge30_Node000024_Node000025"><a xlink:title=" ">
<path fill="none" stroke="#63b8ff" d="M1098.05,-271.22C1072.23,-271.04 1040.01,-270.83 1017.61,-270.68"/>
<polygon fill="#63b8ff" stroke="#63b8ff" points="1098.3,-274.72 1108.32,-271.29 1098.34,-267.72 1098.3,-274.72"/>
</a>
</g>
</g>
<!-- Node25&#45;&gt;Node5 -->
<g id="edge31_Node000025_Node000005" class="edge">
<title>Node25&#45;&gt;Node5</title>
<g id="a_edge31_Node000025_Node000005"><a xlink:title=" ">
<path fill="none" stroke="#63b8ff" d="M951.39,-270.5C929.29,-270.5 901.39,-270.5 879.64,-270.5"/>
<polygon fill="#63b8ff" stroke="#63b8ff" points="951.41,-274 961.41,-270.5 951.41,-267 951.41,-274"/>
</a>
</g>
</g>
<!-- Node25&#45;&gt;Node9 -->
<g id="edge32_Node000025_Node000009" class="edge">
<title>Node25&#45;&gt;Node9</title>
<g id="a_edge32_Node000025_Node000009"><a xlink:title=" ">
<path fill="none" stroke="#63b8ff" d="M951.65,-261.03C930.13,-255.5 903.07,-248.55 881.52,-243.01"/>
<polygon fill="#63b8ff" stroke="#63b8ff" points="950.86,-264.44 961.41,-263.54 952.6,-257.66 950.86,-264.44"/>
</a>
</g>
</g>
<!-- Node27 -->
<g id="Node000027" class="node">
<title>Node27</title>
<g id="a_Node000027"><a xlink:href="unset_8c.html#a6a5b46a0f90a47ceea95d80b8605ad87" target="_top" xlink:title="Removes a variable from the environment.">
<polygon fill="white" stroke="#666666" points="1337.5,-281 1257.5,-281 1257.5,-262 1337.5,-262 1337.5,-281"/>
<text text-anchor="middle" x="1297.5" y="-269" font-family="Helvetica,sans-Serif" font-size="10.00">ft_delete_var</text>
</a>
</g>
</g>
<!-- Node26&#45;&gt;Node27 -->
<g id="edge34_Node000026_Node000027" class="edge">
<title>Node26&#45;&gt;Node27</title>
<g id="a_edge34_Node000026_Node000027"><a xlink:title=" ">
<path fill="none" stroke="#63b8ff" d="M1411.56,-271.5C1387.93,-271.5 1359.87,-271.5 1337.62,-271.5"/>
<polygon fill="#63b8ff" stroke="#63b8ff" points="1411.73,-275 1421.73,-271.5 1411.73,-268 1411.73,-275"/>
</a>
</g>
</g>
<!-- Node27&#45;&gt;Node24 -->
<g id="edge35_Node000027_Node000024" class="edge">
<title>Node27&#45;&gt;Node24</title>
<g id="a_edge35_Node000027_Node000024"><a xlink:title=" ">
<path fill="none" stroke="#63b8ff" d="M1247.02,-271.5C1223.32,-271.5 1195.61,-271.5 1174.68,-271.5"/>
<polygon fill="#63b8ff" stroke="#63b8ff" points="1247.24,-275 1257.24,-271.5 1247.24,-268 1247.24,-275"/>
</a>
</g>
</g>
<!-- Node29 -->
<g id="Node000029" class="node">
<title>Node29</title>
<g id="a_Node000029"><a xlink:href="tokenize__input_8c.html#a040acaabf04da0b8d7ce5da9c1d210d8" target="_top" xlink:title="Assigns types to tokens and applies command&#45;specific rules.">
<polygon fill="white" stroke="#666666" points="1345.5,-130 1249.5,-130 1249.5,-111 1345.5,-111 1345.5,-130"/>
<text text-anchor="middle" x="1297.5" y="-118" font-family="Helvetica,sans-Serif" font-size="10.00">ft_define_tokens</text>
</a>
</g>
</g>
<!-- Node28&#45;&gt;Node29 -->
<g id="edge37_Node000028_Node000029" class="edge">
<title>Node28&#45;&gt;Node29</title>
<g id="a_edge37_Node000028_Node000029"><a xlink:title=" ">
<path fill="none" stroke="#63b8ff" d="M1387.36,-120.5C1373.24,-120.5 1358.78,-120.5 1345.74,-120.5"/>
<polygon fill="#63b8ff" stroke="#63b8ff" points="1387.56,-124 1397.56,-120.5 1387.56,-117 1387.56,-124"/>
</a>
</g>
</g>
<!-- Node30 -->
<g id="Node000030" class="node">
<title>Node30</title>
<g id="a_Node000030"><a xlink:href="tokenize__input_8c.html#a4e40c3f57ab2488a2b49f37846785b2e" target="_top" xlink:title="Tokenizes the entire user input string.">
<polygon fill="white" stroke="#666666" points="1018.5,-119 960.5,-119 960.5,-100 1018.5,-100 1018.5,-119"/>
<text text-anchor="middle" x="989.5" y="-107" font-family="Helvetica,sans-Serif" font-size="10.00">tokenize</text>
</a>
</g>
</g>
<!-- Node29&#45;&gt;Node30 -->
<g id="edge38_Node000029_Node000030" class="edge">
<title>Node29&#45;&gt;Node30</title>
<g id="a_edge38_Node000029_Node000030"><a xlink:title=" ">
<path fill="none" stroke="#63b8ff" d="M1239.19,-118.44C1173.62,-116.08 1068.89,-112.32 1018.88,-110.52"/>
<polygon fill="#63b8ff" stroke="#63b8ff" points="1239.24,-121.94 1249.36,-118.81 1239.49,-114.95 1239.24,-121.94"/>
</a>
</g>
</g>
<!-- Node30&#45;&gt;Node7 -->
<g id="edge39_Node000030_Node000007" class="edge">
<title>Node30&#45;&gt;Node7</title>
<g id="a_edge39_Node000030_Node000007"><a xlink:title=" ">
<path fill="none" stroke="#63b8ff" d="M950.23,-111.51C896.4,-114.17 795.25,-118.5 709,-118.5 709,-118.5 709,-118.5 345.5,-118.5 278.77,-118.5 201.43,-126.68 156.15,-132.31"/>
<polygon fill="#63b8ff" stroke="#63b8ff" points="950.53,-115 960.34,-111.01 950.18,-108.01 950.53,-115"/>
</a>
</g>
</g>
<!-- Node31&#45;&gt;Node29 -->
<g id="edge41_Node000031_Node000029" class="edge">
<title>Node31&#45;&gt;Node29</title>
<g id="a_edge41_Node000031_Node000029"><a xlink:title=" ">
<path fill="none" stroke="#63b8ff" d="M1408.55,-95.29C1386.5,-100.34 1361.08,-106.16 1340.23,-110.94"/>
<polygon fill="#63b8ff" stroke="#63b8ff" points="1409.44,-98.67 1418.41,-93.03 1407.88,-91.85 1409.44,-98.67"/>
</a>
</g>
</g>
<!-- Node33 -->
<g id="Node000033" class="node">
<title>Node33</title>
<g id="a_Node000033"><a xlink:href="handle__tokens_8c.html#aa2c36964d13c3cd524d41408f386eed9" target="_top" xlink:title="Handles tokens enclosed in quotes and adds them to the list.">
<polygon fill="white" stroke="#666666" points="1341.5,-93 1253.5,-93 1253.5,-74 1341.5,-74 1341.5,-93"/>
<text text-anchor="middle" x="1297.5" y="-81" font-family="Helvetica,sans-Serif" font-size="10.00">handle_quotes</text>
</a>
</g>
</g>
<!-- Node32&#45;&gt;Node33 -->
<g id="edge43_Node000032_Node000033" class="edge">
<title>Node32&#45;&gt;Node33</title>
<g id="a_edge43_Node000032_Node000033"><a xlink:title=" ">
<path fill="none" stroke="#63b8ff" d="M1408.55,-58.29C1386.5,-63.34 1361.08,-69.16 1340.23,-73.94"/>
<polygon fill="#63b8ff" stroke="#63b8ff" points="1409.44,-61.67 1418.41,-56.03 1407.88,-54.85 1409.44,-61.67"/>
</a>
</g>
</g>
<!-- Node35 -->
<g id="Node000035" class="node">
<title>Node35</title>
<g id="a_Node000035"><a xlink:href="handle__tokens_8c.html#a0d1a76ff74d96055e21dbd045c471793" target="_top" xlink:title="Handles shell special characters (|, &lt;, &gt;, &lt;&lt;, &gt;&gt;).">
<polygon fill="white" stroke="#666666" points="1358,-56 1237,-56 1237,-37 1358,-37 1358,-56"/>
<text text-anchor="middle" x="1297.5" y="-44" font-family="Helvetica,sans-Serif" font-size="10.00">handle_special_chars</text>
</a>
</g>
</g>
<!-- Node32&#45;&gt;Node35 -->
<g id="edge46_Node000032_Node000035" class="edge">
<title>Node32&#45;&gt;Node35</title>
<g id="a_edge46_Node000032_Node000035"><a xlink:title=" ">
<path fill="none" stroke="#63b8ff" d="M1404.45,-46.5C1389.48,-46.5 1373.23,-46.5 1358.05,-46.5"/>
<polygon fill="#63b8ff" stroke="#63b8ff" points="1404.58,-50 1414.58,-46.5 1404.58,-43 1404.58,-50"/>
</a>
</g>
</g>
<!-- Node36 -->
<g id="Node000036" class="node">
<title>Node36</title>
<g id="a_Node000036"><a xlink:href="handle__tokens_8c.html#a4435ee7ff5bdf5ceb09137c12fd49ccd" target="_top" xlink:title="Handles creation of a normal token (words, commands, arguments).">
<polygon fill="white" stroke="#666666" points="1337,-19 1258,-19 1258,0 1337,0 1337,-19"/>
<text text-anchor="middle" x="1297.5" y="-7" font-family="Helvetica,sans-Serif" font-size="10.00">handle_word</text>
</a>
</g>
</g>
<!-- Node32&#45;&gt;Node36 -->
<g id="edge48_Node000032_Node000036" class="edge">
<title>Node32&#45;&gt;Node36</title>
<g id="a_edge48_Node000032_Node000036"><a xlink:title=" ">
<path fill="none" stroke="#63b8ff" d="M1408.42,-34.68C1385.31,-29.39 1358.52,-23.25 1337.18,-18.36"/>
<polygon fill="#63b8ff" stroke="#63b8ff" points="1407.88,-38.15 1418.41,-36.97 1409.44,-31.33 1407.88,-38.15"/>
</a>
</g>
</g>
<!-- Node34 -->
<g id="Node000034" class="node">
<title>Node34</title>
<g id="a_Node000034"><a xlink:href="tokenize__input_8c.html#a4ec55df7b6b0c546095f50475f610fb1" target="_top" xlink:title="Extracts and builds a single token from the user input.">
<polygon fill="white" stroke="#666666" points="1182.5,-67 1100.5,-67 1100.5,-48 1182.5,-48 1182.5,-67"/>
<text text-anchor="middle" x="1141.5" y="-55" font-family="Helvetica,sans-Serif" font-size="10.00">ft_get_tokens</text>
</a>
</g>
</g>
<!-- Node33&#45;&gt;Node34 -->
<g id="edge44_Node000033_Node000034" class="edge">
<title>Node33&#45;&gt;Node34</title>
<g id="a_edge44_Node000033_Node000034"><a xlink:title=" ">
<path fill="none" stroke="#63b8ff" d="M1243.33,-74.52C1223.4,-71.16 1201.12,-67.4 1182.58,-64.27"/>
<polygon fill="#63b8ff" stroke="#63b8ff" points="1242.75,-77.97 1253.19,-76.19 1243.91,-71.07 1242.75,-77.97"/>
</a>
</g>
</g>
<!-- Node34&#45;&gt;Node30 -->
<g id="edge45_Node000034_Node000030" class="edge">
<title>Node34&#45;&gt;Node30</title>
<g id="a_edge45_Node000034_Node000030"><a xlink:title=" ">
<path fill="none" stroke="#63b8ff" d="M1103.32,-70.39C1076.92,-79.54 1042.04,-91.63 1018.09,-99.93"/>
<polygon fill="#63b8ff" stroke="#63b8ff" points="1104.69,-73.62 1112.99,-67.04 1102.39,-67.01 1104.69,-73.62"/>
</a>
</g>
</g>
<!-- Node35&#45;&gt;Node34 -->
<g id="edge47_Node000035_Node000034" class="edge">
<title>Node35&#45;&gt;Node34</title>
<g id="a_edge47_Node000035_Node000034"><a xlink:title=" ">
<path fill="none" stroke="#63b8ff" d="M1226.66,-51.49C1211.65,-52.56 1196.27,-53.66 1182.84,-54.62"/>
<polygon fill="#63b8ff" stroke="#63b8ff" points="1227.23,-54.96 1236.96,-50.75 1226.74,-47.97 1227.23,-54.96"/>
</a>
</g>
</g>
<!-- Node36&#45;&gt;Node34 -->
<g id="edge49_Node000036_Node000034" class="edge">
<title>Node36&#45;&gt;Node34</title>
<g id="a_edge49_Node000036_Node000034"><a xlink:title=" ">
<path fill="none" stroke="#63b8ff" d="M1254.78,-22.04C1248.81,-23.86 1242.75,-25.72 1237,-27.5 1215.3,-34.23 1190.85,-41.99 1172.26,-47.94"/>
<polygon fill="#63b8ff" stroke="#63b8ff" points="1256.12,-25.29 1264.67,-19.04 1254.08,-18.6 1256.12,-25.29"/>
</a>
</g>
</g>
</g>
</svg>
