<?xml version="1.0" encoding="UTF-8" standalone="no"?>
<!DOCTYPE svg PUBLIC "-//W3C//DTD SVG 1.1//EN"
 "http://www.w3.org/Graphics/SVG/1.1/DTD/svg11.dtd">
<!-- Generated by graphviz version 2.43.0 (0)
 -->
<!-- Title: ft_forpointer Pages: 1 -->
<svg width="231pt" height="45pt"
 viewBox="0.00 0.00 231.00 45.00" xmlns="http://www.w3.org/2000/svg" xmlns:xlink="http://www.w3.org/1999/xlink">
<g id="graph0" class="graph" transform="scale(1 1) rotate(0) translate(4 41)">
<title>ft_forpointer</title>
<!-- Node1 -->
<g id="Node000001" class="node">
<title>Node1</title>
<g id="a_Node000001"><a xlink:title="Prints a pointer in hexadecimal format prefixed with &quot;0x&quot;.">
<polygon fill="#999999" stroke="#666666" points="77,-19 0,-19 0,0 77,0 77,-19"/>
<text text-anchor="middle" x="38.5" y="-7" font-family="Helvetica,sans-Serif" font-size="10.00">ft_forpointer</text>
</a>
</g>
</g>
<!-- Node2 -->
<g id="Node000002" class="node">
<title>Node2</title>
<g id="a_Node000002"><a xlink:href="ft__forpointer_8c.html#aded1bf735c8a10e47396170d27c5b6aa" target="_top" xlink:title="Recursively prints a memory address in hexadecimal format.">
<polygon fill="white" stroke="#666666" points="223,-19 113,-19 113,0 223,0 223,-19"/>
<text text-anchor="middle" x="168" y="-7" font-family="Helvetica,sans-Serif" font-size="10.00">ft_ricorsive_pointer</text>
</a>
</g>
</g>
<!-- Node1&#45;&gt;Node2 -->
<g id="edge1_Node000001_Node000002" class="edge">
<title>Node1&#45;&gt;Node2</title>
<g id="a_edge1_Node000001_Node000002"><a xlink:title=" ">
<path fill="none" stroke="#63b8ff" d="M77.06,-9.5C85.09,-9.5 93.78,-9.5 102.5,-9.5"/>
<polygon fill="#63b8ff" stroke="#63b8ff" points="102.7,-13 112.7,-9.5 102.7,-6 102.7,-13"/>
</a>
</g>
</g>
<!-- Node2&#45;&gt;Node2 -->
<g id="edge2_Node000002_Node000002" class="edge">
<title>Node2&#45;&gt;Node2</title>
<g id="a_edge2_Node000002_Node000002"><a xlink:title=" ">
<path fill="none" stroke="#63b8ff" d="M148.27,-19.08C138.67,-27.73 145.25,-37 168,-37 182.22,-37 190.12,-33.38 191.7,-28.55"/>
<polygon fill="#63b8ff" stroke="#63b8ff" points="194.83,-26.95 187.73,-19.08 188.37,-29.66 194.83,-26.95"/>
</a>
</g>
</g>
</g>
</svg>
