<?xml version="1.0" encoding="UTF-8" standalone="no"?>
<!DOCTYPE svg PUBLIC "-//W3C//DTD SVG 1.1//EN"
 "http://www.w3.org/Graphics/SVG/1.1/DTD/svg11.dtd">
<!-- Generated by graphviz version 2.43.0 (0)
 -->
<!-- Title: ft_echo Pages: 1 -->
<svg width="517pt" height="290pt"
 viewBox="0.00 0.00 517.00 290.00" xmlns="http://www.w3.org/2000/svg" xmlns:xlink="http://www.w3.org/1999/xlink">
<g id="graph0" class="graph" transform="scale(1 1) rotate(0) translate(4 286)">
<title>ft_echo</title>
<!-- Node1 -->
<g id="Node000001" class="node">
<title>Node1</title>
<g id="a_Node000001"><a xlink:title="Implements the builtin echo command.">
<polygon fill="#999999" stroke="#666666" points="52,-121 0,-121 0,-102 52,-102 52,-121"/>
<text text-anchor="middle" x="26" y="-109" font-family="Helvetica,sans-Serif" font-size="10.00">ft_echo</text>
</a>
</g>
</g>
<!-- Node2 -->
<g id="Node000002" class="node">
<title>Node2</title>
<g id="a_Node000002"><a xlink:href="ft__echo_8c.html#a6d94bdec6ee53c40116419689fb51a8d" target="_top" xlink:title="Advances through the token list until reaching the requested argument index.">
<polygon fill="white" stroke="#666666" points="214,-224 88,-224 88,-205 214,-205 214,-224"/>
<text text-anchor="middle" x="151" y="-212" font-family="Helvetica,sans-Serif" font-size="10.00">advance_token_to_arg</text>
</a>
</g>
</g>
<!-- Node1&#45;&gt;Node2 -->
<g id="edge1_Node000001_Node000002" class="edge">
<title>Node1&#45;&gt;Node2</title>
<g id="a_edge1_Node000001_Node000002"><a xlink:title=" ">
<path fill="none" stroke="#63b8ff" d="M31.19,-121.01C39.45,-138.62 59.52,-176.37 88,-196.5 90.12,-198 92.37,-199.38 94.7,-200.64"/>
<polygon fill="#63b8ff" stroke="#63b8ff" points="93.48,-203.93 104.02,-204.96 96.42,-197.58 93.48,-203.93"/>
</a>
</g>
</g>
<!-- Node3 -->
<g id="Node000003" class="node">
<title>Node3</title>
<g id="a_Node000003"><a xlink:href="free__functions_8c.html#a451c65e7c59e947c1880d1f75d866e3a" target="_top" xlink:title="Frees all resources associated with a list of pipes and the environment.">
<polygon fill="white" stroke="#666666" points="191,-187 111,-187 111,-168 191,-168 191,-187"/>
<text text-anchor="middle" x="151" y="-175" font-family="Helvetica,sans-Serif" font-size="10.00">free_all_pipe</text>
</a>
</g>
</g>
<!-- Node1&#45;&gt;Node3 -->
<g id="edge2_Node000001_Node000003" class="edge">
<title>Node1&#45;&gt;Node3</title>
<g id="a_edge2_Node000001_Node000003"><a xlink:title=" ">
<path fill="none" stroke="#63b8ff" d="M41.22,-121.11C53.39,-129.15 71.49,-140.68 88,-149.5 97.45,-154.55 108,-159.54 117.67,-163.87"/>
<polygon fill="#63b8ff" stroke="#63b8ff" points="116.41,-167.15 126.98,-167.97 119.23,-160.74 116.41,-167.15"/>
</a>
</g>
</g>
<!-- Node8 -->
<g id="Node000008" class="node">
<title>Node8</title>
<g id="a_Node000008"><a xlink:href="ft__echo_8c.html#a51dc5690fc35d1d3b48737d44e3522e5" target="_top" xlink:title="Checks for the presence of the &#45;n option in the echo command.">
<polygon fill="white" stroke="#666666" points="213,-140 89,-140 89,-121 213,-121 213,-140"/>
<text text-anchor="middle" x="151" y="-128" font-family="Helvetica,sans-Serif" font-size="10.00">ft_check_newline_flag</text>
</a>
</g>
</g>
<!-- Node1&#45;&gt;Node8 -->
<g id="edge8_Node000001_Node000008" class="edge">
<title>Node1&#45;&gt;Node8</title>
<g id="a_edge8_Node000001_Node000008"><a xlink:title=" ">
<path fill="none" stroke="#63b8ff" d="M52.19,-115.39C60.12,-116.62 69.3,-118.03 78.8,-119.5"/>
<polygon fill="#63b8ff" stroke="#63b8ff" points="78.36,-122.97 88.78,-121.04 79.43,-116.06 78.36,-122.97"/>
</a>
</g>
</g>
<!-- Node9 -->
<g id="Node000009" class="node">
<title>Node9</title>
<g id="a_Node000009"><a xlink:href="utils__fd_8c.html#a184b4852a6ca5544cc056e7a8e20e4ad" target="_top" xlink:title="Handles opening and validating file descriptors for command input/output.">
<polygon fill="white" stroke="#666666" points="179.5,-103 122.5,-103 122.5,-84 179.5,-84 179.5,-103"/>
<text text-anchor="middle" x="151" y="-91" font-family="Helvetica,sans-Serif" font-size="10.00">ft_for_fd</text>
</a>
</g>
</g>
<!-- Node1&#45;&gt;Node9 -->
<g id="edge9_Node000001_Node000009" class="edge">
<title>Node1&#45;&gt;Node9</title>
<g id="a_edge9_Node000001_Node000009"><a xlink:title=" ">
<path fill="none" stroke="#63b8ff" d="M52.19,-107.81C69.46,-105.29 92.7,-101.89 112.19,-99.03"/>
<polygon fill="#63b8ff" stroke="#63b8ff" points="112.89,-102.47 122.28,-97.56 111.87,-95.54 112.89,-102.47"/>
</a>
</g>
</g>
<!-- Node13 -->
<g id="Node000013" class="node">
<title>Node13</title>
<g id="a_Node000013"><a xlink:href="ft__echo_8c.html#a29c6d0836af22558db986ff336c9062b" target="_top" xlink:title="Writes the echo command arguments to the specified file descriptor.">
<polygon fill="white" stroke="#666666" points="192,-66 110,-66 110,-47 192,-47 192,-66"/>
<text text-anchor="middle" x="151" y="-54" font-family="Helvetica,sans-Serif" font-size="10.00">ft_write_echo</text>
</a>
</g>
</g>
<!-- Node1&#45;&gt;Node13 -->
<g id="edge14_Node000001_Node000013" class="edge">
<title>Node1&#45;&gt;Node13</title>
<g id="a_edge14_Node000001_Node000013"><a xlink:title=" ">
<path fill="none" stroke="#63b8ff" d="M40.49,-101.89C52.49,-93.7 70.76,-82.07 88,-74.5 92.33,-72.6 96.91,-70.84 101.55,-69.22"/>
<polygon fill="#63b8ff" stroke="#63b8ff" points="102.66,-72.54 111.08,-66.1 100.48,-65.88 102.66,-72.54"/>
</a>
</g>
</g>
<!-- Node15 -->
<g id="Node000015" class="node">
<title>Node15</title>
<g id="a_Node000015"><a xlink:href="utils__pipes_8c.html#aa5bc406fd1d5aadd2018c5c2061d31ba" target="_top" xlink:title="Restores the previously duplicated standard input.">
<polygon fill="white" stroke="#666666" points="189.5,-29 112.5,-29 112.5,-10 189.5,-10 189.5,-29"/>
<text text-anchor="middle" x="151" y="-17" font-family="Helvetica,sans-Serif" font-size="10.00">restore_sdin</text>
</a>
</g>
</g>
<!-- Node1&#45;&gt;Node15 -->
<g id="edge16_Node000001_Node000015" class="edge">
<title>Node1&#45;&gt;Node15</title>
<g id="a_edge16_Node000001_Node000015"><a xlink:title=" ">
<path fill="none" stroke="#63b8ff" d="M32.39,-101.75C41.65,-85.87 62.13,-54.52 88,-37.5 92.56,-34.5 97.64,-31.98 102.86,-29.88"/>
<polygon fill="#63b8ff" stroke="#63b8ff" points="104.09,-33.16 112.35,-26.54 101.76,-26.56 104.09,-33.16"/>
</a>
</g>
</g>
<!-- Node4 -->
<g id="Node000004" class="node">
<title>Node4</title>
<g id="a_Node000004"><a xlink:href="free__functions_8c.html#a32c72055f1119062342fcdf42527c05c" target="_top" xlink:title="Frees a list of commands.">
<polygon fill="white" stroke="#666666" points="349.5,-282 287.5,-282 287.5,-263 349.5,-263 349.5,-282"/>
<text text-anchor="middle" x="318.5" y="-270" font-family="Helvetica,sans-Serif" font-size="10.00">free_cmd</text>
</a>
</g>
</g>
<!-- Node3&#45;&gt;Node4 -->
<g id="edge3_Node000003_Node000004" class="edge">
<title>Node3&#45;&gt;Node4</title>
<g id="a_edge3_Node000003_Node000004"><a xlink:title=" ">
<path fill="none" stroke="#63b8ff" d="M191.26,-185.2C199.26,-187.92 207.27,-191.58 214,-196.5 236.69,-213.09 227.68,-231.41 250,-248.5 258.15,-254.74 268.05,-259.45 277.74,-262.97"/>
<polygon fill="#63b8ff" stroke="#63b8ff" points="276.68,-266.3 287.28,-266.1 278.87,-259.65 276.68,-266.3"/>
</a>
</g>
</g>
<!-- Node5 -->
<g id="Node000005" class="node">
<title>Node5</title>
<g id="a_Node000005"><a xlink:href="ft__free__matrix_8c.html#a1ea6d1f3b50d1c23d4f0faddd1a13448" target="_top" xlink:title="Frees a NULL&#45;terminated matrix of strings.">
<polygon fill="white" stroke="#666666" points="509,-263 423,-263 423,-244 509,-244 509,-263"/>
<text text-anchor="middle" x="466" y="-251" font-family="Helvetica,sans-Serif" font-size="10.00">ft_free_matrix</text>
</a>
</g>
</g>
<!-- Node3&#45;&gt;Node5 -->
<g id="edge7_Node000003_Node000005" class="edge">
<title>Node3&#45;&gt;Node5</title>
<g id="a_edge7_Node000003_Node000005"><a xlink:title=" ">
<path fill="none" stroke="#63b8ff" d="M187.17,-187.02C196.04,-189.76 205.47,-192.98 214,-196.5 230.72,-203.4 232.89,-209.63 250,-215.5 303.89,-233.98 368.61,-243.85 412.86,-248.86"/>
<polygon fill="#63b8ff" stroke="#63b8ff" points="412.5,-252.34 422.82,-249.95 413.26,-245.39 412.5,-252.34"/>
</a>
</g>
</g>
<!-- Node6 -->
<g id="Node000006" class="node">
<title>Node6</title>
<g id="a_Node000006"><a xlink:href="free__functions_8c.html#a87de2a27d0e0e99f3de0b477731181e0" target="_top" xlink:title="Frees a list of pipes.">
<polygon fill="white" stroke="#666666" points="349.5,-206 287.5,-206 287.5,-187 349.5,-187 349.5,-206"/>
<text text-anchor="middle" x="318.5" y="-194" font-family="Helvetica,sans-Serif" font-size="10.00">free_pipe</text>
</a>
</g>
</g>
<!-- Node3&#45;&gt;Node6 -->
<g id="edge5_Node000003_Node000006" class="edge">
<title>Node3&#45;&gt;Node6</title>
<g id="a_edge5_Node000003_Node000006"><a xlink:title=" ">
<path fill="none" stroke="#63b8ff" d="M191.22,-182C217.21,-184.99 251.21,-188.89 277.38,-191.89"/>
<polygon fill="#63b8ff" stroke="#63b8ff" points="277.02,-195.38 287.36,-193.04 277.82,-188.42 277.02,-195.38"/>
</a>
</g>
</g>
<!-- Node7 -->
<g id="Node000007" class="node">
<title>Node7</title>
<g id="a_Node000007"><a xlink:href="free__functions_8c.html#a4f32f08947270b8aec54f43ddd8b02d4" target="_top" xlink:title="Frees a list of tokens.">
<polygon fill="white" stroke="#666666" points="352.5,-169 284.5,-169 284.5,-150 352.5,-150 352.5,-169"/>
<text text-anchor="middle" x="318.5" y="-157" font-family="Helvetica,sans-Serif" font-size="10.00">free_token</text>
</a>
</g>
</g>
<!-- Node3&#45;&gt;Node7 -->
<g id="edge6_Node000003_Node000007" class="edge">
<title>Node3&#45;&gt;Node7</title>
<g id="a_edge6_Node000003_Node000007"><a xlink:title=" ">
<path fill="none" stroke="#63b8ff" d="M191.22,-173.23C216.17,-170.52 248.51,-167 274.21,-164.21"/>
<polygon fill="#63b8ff" stroke="#63b8ff" points="274.85,-167.66 284.42,-163.1 274.1,-160.7 274.85,-167.66"/>
</a>
</g>
</g>
<!-- Node4&#45;&gt;Node5 -->
<g id="edge4_Node000004_Node000005" class="edge">
<title>Node4&#45;&gt;Node5</title>
<g id="a_edge4_Node000004_Node000005"><a xlink:title=" ">
<path fill="none" stroke="#63b8ff" d="M349.65,-268.56C367.82,-266.19 391.46,-263.1 412.61,-260.34"/>
<polygon fill="#63b8ff" stroke="#63b8ff" points="413.29,-263.78 422.75,-259.02 412.38,-256.84 413.29,-263.78"/>
</a>
</g>
</g>
<!-- Node10 -->
<g id="Node000010" class="node">
<title>Node10</title>
<g id="a_Node000010"><a xlink:href="utils__fd_8c.html#ae6ad7aa33393749b9dc5eac6b61cdf74" target="_top" xlink:title="Returns the correct file descriptor based on append flag and file.">
<polygon fill="white" stroke="#666666" points="364.5,-132 272.5,-132 272.5,-113 364.5,-113 364.5,-132"/>
<text text-anchor="middle" x="318.5" y="-120" font-family="Helvetica,sans-Serif" font-size="10.00">check_value_fd</text>
</a>
</g>
</g>
<!-- Node9&#45;&gt;Node10 -->
<g id="edge10_Node000009_Node000010" class="edge">
<title>Node9&#45;&gt;Node10</title>
<g id="a_edge10_Node000009_Node000010"><a xlink:title=" ">
<path fill="none" stroke="#63b8ff" d="M179.7,-98.35C202.16,-102.29 234.51,-107.96 262.23,-112.81"/>
<polygon fill="#63b8ff" stroke="#63b8ff" points="261.75,-116.28 272.2,-114.56 262.95,-109.39 261.75,-116.28"/>
</a>
</g>
</g>
<!-- Node11 -->
<g id="Node000011" class="node">
<title>Node11</title>
<g id="a_Node000011"><a xlink:href="utils__fd_8c.html#a9cf70d06db18597b04bb642db7abab4a" target="_top" xlink:title="Checks if a file descriptor is valid.">
<polygon fill="white" stroke="#666666" points="502,-113 430,-113 430,-94 502,-94 502,-113"/>
<text text-anchor="middle" x="466" y="-101" font-family="Helvetica,sans-Serif" font-size="10.00">ft_check_fd</text>
</a>
</g>
</g>
<!-- Node9&#45;&gt;Node11 -->
<g id="edge12_Node000009_Node000011" class="edge">
<title>Node9&#45;&gt;Node11</title>
<g id="a_edge12_Node000009_Node000011"><a xlink:title=" ">
<path fill="none" stroke="#63b8ff" d="M179.5,-94.38C233.45,-96.1 353.63,-99.94 419.56,-102.05"/>
<polygon fill="#63b8ff" stroke="#63b8ff" points="419.55,-105.55 429.66,-102.37 419.77,-98.55 419.55,-105.55"/>
</a>
</g>
</g>
<!-- Node12 -->
<g id="Node000012" class="node">
<title>Node12</title>
<g id="a_Node000012"><a xlink:href="utils__pipes_8c.html#a4112bdd2bc0766ff52195f2ab3a53339" target="_top" xlink:title="Handles input redirection from a file.">
<polygon fill="white" stroke="#666666" points="387,-56 250,-56 250,-37 387,-37 387,-56"/>
<text text-anchor="middle" x="318.5" y="-44" font-family="Helvetica,sans-Serif" font-size="10.00">handle_input_redirection</text>
</a>
</g>
</g>
<!-- Node9&#45;&gt;Node12 -->
<g id="edge13_Node000009_Node000012" class="edge">
<title>Node9&#45;&gt;Node12</title>
<g id="a_edge13_Node000009_Node000012"><a xlink:title=" ">
<path fill="none" stroke="#63b8ff" d="M179.7,-85.63C205.5,-78.31 244.35,-67.27 274.23,-58.79"/>
<polygon fill="#63b8ff" stroke="#63b8ff" points="275.33,-62.12 283.99,-56.02 273.41,-55.38 275.33,-62.12"/>
</a>
</g>
</g>
<!-- Node10&#45;&gt;Node11 -->
<g id="edge11_Node000010_Node000011" class="edge">
<title>Node10&#45;&gt;Node11</title>
<g id="a_edge11_Node000010_Node000011"><a xlink:title=" ">
<path fill="none" stroke="#63b8ff" d="M364.74,-116.59C382.31,-114.3 402.4,-111.67 419.95,-109.38"/>
<polygon fill="#63b8ff" stroke="#63b8ff" points="420.5,-112.84 429.96,-108.08 419.59,-105.9 420.5,-112.84"/>
</a>
</g>
</g>
<!-- Node14 -->
<g id="Node000014" class="node">
<title>Node14</title>
<g id="a_Node000014"><a xlink:href="ft__strlen_8c.html#a828402378653640f545a4be2e00e92f9" target="_top" xlink:title="Calculates the length of a null&#45;terminated string.">
<polygon fill="white" stroke="#666666" points="346.5,-19 290.5,-19 290.5,0 346.5,0 346.5,-19"/>
<text text-anchor="middle" x="318.5" y="-7" font-family="Helvetica,sans-Serif" font-size="10.00">ft_strlen</text>
</a>
</g>
</g>
<!-- Node13&#45;&gt;Node14 -->
<g id="edge15_Node000013_Node000014" class="edge">
<title>Node13&#45;&gt;Node14</title>
<g id="a_edge15_Node000013_Node000014"><a xlink:title=" ">
<path fill="none" stroke="#63b8ff" d="M183.71,-46.88C202.87,-41.13 227.8,-33.74 250,-27.5 259.79,-24.75 270.41,-21.86 280.27,-19.24"/>
<polygon fill="#63b8ff" stroke="#63b8ff" points="281.43,-22.55 290.19,-16.6 279.63,-15.78 281.43,-22.55"/>
</a>
</g>
</g>
</g>
</svg>
