<?xml version="1.0" encoding="UTF-8" standalone="no"?>
<!DOCTYPE svg PUBLIC "-//W3C//DTD SVG 1.1//EN"
 "http://www.w3.org/Graphics/SVG/1.1/DTD/svg11.dtd">
<!-- Generated by graphviz version 2.43.0 (0)
 -->
<!-- Title: ft_realloc_mtx Pages: 1 -->
<svg width="1486pt" height="103pt"
 viewBox="0.00 0.00 1486.00 103.00" xmlns="http://www.w3.org/2000/svg" xmlns:xlink="http://www.w3.org/1999/xlink">
<g id="graph0" class="graph" transform="scale(1 1) rotate(0) translate(4 99)">
<title>ft_realloc_mtx</title>
<!-- Node1 -->
<g id="Node000001" class="node">
<title>Node1</title>
<g id="a_Node000001"><a xlink:title="Reallocates a NULL&#45;terminated matrix of strings to a new size.">
<polygon fill="#999999" stroke="#666666" points="1478,-75 1392,-75 1392,-56 1478,-56 1478,-75"/>
<text text-anchor="middle" x="1435" y="-63" font-family="Helvetica,sans-Serif" font-size="10.00">ft_realloc_mtx</text>
</a>
</g>
</g>
<!-- Node2 -->
<g id="Node000002" class="node">
<title>Node2</title>
<g id="a_Node000002"><a xlink:href="create__command__list_8c.html#a9fb2e7501277f2f93e5c7042fec32429" target="_top" xlink:title="Adds an argument to the command’s argument list.">
<polygon fill="white" stroke="#666666" points="1352.5,-94 1291.5,-94 1291.5,-75 1352.5,-75 1352.5,-94"/>
<text text-anchor="middle" x="1322" y="-82" font-family="Helvetica,sans-Serif" font-size="10.00">add_args</text>
</a>
</g>
</g>
<!-- Node1&#45;&gt;Node2 -->
<g id="edge1_Node000001_Node000002" class="edge">
<title>Node1&#45;&gt;Node2</title>
<g id="a_edge1_Node000001_Node000002"><a xlink:title=" ">
<path fill="none" stroke="#63b8ff" d="M1381.83,-74.43C1371.85,-76.14 1361.73,-77.87 1352.75,-79.41"/>
<polygon fill="#63b8ff" stroke="#63b8ff" points="1382.45,-77.87 1391.72,-72.74 1381.27,-70.97 1382.45,-77.87"/>
</a>
</g>
</g>
<!-- Node7 -->
<g id="Node000007" class="node">
<title>Node7</title>
<g id="a_Node000007"><a xlink:href="utils__export__unset_8c.html#a816ee6b26fbb9862373621ed0f57245f" target="_top" xlink:title="Adds a new variable to the environment (env&#45;&gt;env_copy).">
<polygon fill="white" stroke="#666666" points="1356,-57 1288,-57 1288,-38 1356,-38 1356,-57"/>
<text text-anchor="middle" x="1322" y="-45" font-family="Helvetica,sans-Serif" font-size="10.00">ft_add_var</text>
</a>
</g>
</g>
<!-- Node1&#45;&gt;Node7 -->
<g id="edge6_Node000001_Node000007" class="edge">
<title>Node1&#45;&gt;Node7</title>
<g id="a_edge6_Node000001_Node000007"><a xlink:title=" ">
<path fill="none" stroke="#63b8ff" d="M1381.65,-57.01C1372.98,-55.6 1364.21,-54.18 1356.19,-52.88"/>
<polygon fill="#63b8ff" stroke="#63b8ff" points="1381.29,-60.5 1391.72,-58.64 1382.41,-53.59 1381.29,-60.5"/>
</a>
</g>
</g>
<!-- Node3 -->
<g id="Node000003" class="node">
<title>Node3</title>
<g id="a_Node000003"><a xlink:href="create__command__list_8c.html#ad16d74756b107a98677124008c71d23b" target="_top" xlink:title="Creates a command list from tokens.">
<polygon fill="white" stroke="#666666" points="1110.5,-95 1042.5,-95 1042.5,-76 1110.5,-76 1110.5,-95"/>
<text text-anchor="middle" x="1076.5" y="-83" font-family="Helvetica,sans-Serif" font-size="10.00">create_list</text>
</a>
</g>
</g>
<!-- Node2&#45;&gt;Node3 -->
<g id="edge2_Node000002_Node000003" class="edge">
<title>Node2&#45;&gt;Node3</title>
<g id="a_edge2_Node000002_Node000003"><a xlink:title=" ">
<path fill="none" stroke="#63b8ff" d="M1280.91,-84.66C1233.38,-84.86 1155.02,-85.18 1110.72,-85.36"/>
<polygon fill="#63b8ff" stroke="#63b8ff" points="1281.16,-88.16 1291.14,-84.62 1281.13,-81.16 1281.16,-88.16"/>
</a>
</g>
</g>
<!-- Node4 -->
<g id="Node000004" class="node">
<title>Node4</title>
<g id="a_Node000004"><a xlink:href="main__utils_8c.html#a7e8f478480ab6ab34d6f5eadaf6acdb9" target="_top" xlink:title="Handles parsing and execution of tokens.">
<polygon fill="white" stroke="#666666" points="273,-57 192,-57 192,-38 273,-38 273,-57"/>
<text text-anchor="middle" x="232.5" y="-45" font-family="Helvetica,sans-Serif" font-size="10.00">ft_token_flow</text>
</a>
</g>
</g>
<!-- Node3&#45;&gt;Node4 -->
<g id="edge3_Node000003_Node000004" class="edge">
<title>Node3&#45;&gt;Node4</title>
<g id="a_edge3_Node000003_Node000004"><a xlink:title=" ">
<path fill="none" stroke="#63b8ff" d="M1032.17,-85.5C984.93,-85.5 907.09,-85.5 840,-85.5 840,-85.5 840,-85.5 459.5,-85.5 391.07,-85.5 312.57,-68.35 268.43,-57.09"/>
<polygon fill="#63b8ff" stroke="#63b8ff" points="1032.35,-89 1042.35,-85.5 1032.35,-82 1032.35,-89"/>
</a>
</g>
</g>
<!-- Node5 -->
<g id="Node000005" class="node">
<title>Node5</title>
<g id="a_Node000005"><a xlink:href="main__utils_8c.html#ae35edfb8f1339d6f77f53c28eb2a2ed6" target="_top" xlink:title="Handles a complete cycle of input → parsing → execution.">
<polygon fill="white" stroke="#666666" points="156,-57 77,-57 77,-38 156,-38 156,-57"/>
<text text-anchor="middle" x="116.5" y="-45" font-family="Helvetica,sans-Serif" font-size="10.00">ft_main_flow</text>
</a>
</g>
</g>
<!-- Node4&#45;&gt;Node5 -->
<g id="edge4_Node000004_Node000005" class="edge">
<title>Node4&#45;&gt;Node5</title>
<g id="a_edge4_Node000004_Node000005"><a xlink:title=" ">
<path fill="none" stroke="#63b8ff" d="M181.7,-47.5C173.16,-47.5 164.4,-47.5 156.21,-47.5"/>
<polygon fill="#63b8ff" stroke="#63b8ff" points="181.95,-51 191.95,-47.5 181.95,-44 181.95,-51"/>
</a>
</g>
</g>
<!-- Node6 -->
<g id="Node000006" class="node">
<title>Node6</title>
<g id="a_Node000006"><a xlink:href="main_8c.html#ab3862b46d6a8d13c2d884a297e6b05b5" target="_top" xlink:title="Main function of the minishell.">
<polygon fill="white" stroke="#666666" points="41,-57 0,-57 0,-38 41,-38 41,-57"/>
<text text-anchor="middle" x="20.5" y="-45" font-family="Helvetica,sans-Serif" font-size="10.00">main</text>
</a>
</g>
</g>
<!-- Node5&#45;&gt;Node6 -->
<g id="edge5_Node000005_Node000006" class="edge">
<title>Node5&#45;&gt;Node6</title>
<g id="a_edge5_Node000005_Node000006"><a xlink:title=" ">
<path fill="none" stroke="#63b8ff" d="M66.74,-47.5C57.62,-47.5 48.59,-47.5 41.03,-47.5"/>
<polygon fill="#63b8ff" stroke="#63b8ff" points="67,-51 77,-47.5 67,-44 67,-51"/>
</a>
</g>
</g>
<!-- Node8 -->
<g id="Node000008" class="node">
<title>Node8</title>
<g id="a_Node000008"><a xlink:href="export_8c.html#aa1462300aee0c9091833b58ece6c6506" target="_top" xlink:title="Executes export on a single argument.">
<polygon fill="white" stroke="#666666" points="1252,-57 1169,-57 1169,-38 1252,-38 1252,-57"/>
<text text-anchor="middle" x="1210.5" y="-45" font-family="Helvetica,sans-Serif" font-size="10.00">ft_exe_export</text>
</a>
</g>
</g>
<!-- Node7&#45;&gt;Node8 -->
<g id="edge7_Node000007_Node000008" class="edge">
<title>Node7&#45;&gt;Node8</title>
<g id="a_edge7_Node000007_Node000008"><a xlink:title=" ">
<path fill="none" stroke="#63b8ff" d="M1277.83,-47.5C1269.41,-47.5 1260.61,-47.5 1252.28,-47.5"/>
<polygon fill="#63b8ff" stroke="#63b8ff" points="1277.85,-51 1287.85,-47.5 1277.85,-44 1277.85,-51"/>
</a>
</g>
</g>
<!-- Node9 -->
<g id="Node000009" class="node">
<title>Node9</title>
<g id="a_Node000009"><a xlink:href="export_8c.html#a962491ce27455342a86cefa998c352fd" target="_top" xlink:title="Handles the export command with arguments.">
<polygon fill="white" stroke="#666666" points="1133,-57 1020,-57 1020,-38 1133,-38 1133,-57"/>
<text text-anchor="middle" x="1076.5" y="-45" font-family="Helvetica,sans-Serif" font-size="10.00">ft_export_with_args</text>
</a>
</g>
</g>
<!-- Node8&#45;&gt;Node9 -->
<g id="edge8_Node000008_Node000009" class="edge">
<title>Node8&#45;&gt;Node9</title>
<g id="a_edge8_Node000008_Node000009"><a xlink:title=" ">
<path fill="none" stroke="#63b8ff" d="M1158.57,-47.5C1150.31,-47.5 1141.71,-47.5 1133.34,-47.5"/>
<polygon fill="#63b8ff" stroke="#63b8ff" points="1158.82,-51 1168.82,-47.5 1158.82,-44 1158.82,-51"/>
</a>
</g>
</g>
<!-- Node10 -->
<g id="Node000010" class="node">
<title>Node10</title>
<g id="a_Node000010"><a xlink:href="export_8c.html#a2b0f2ba2e9188c7b4f6ca5a44c1d0c8e" target="_top" xlink:title="Builtin function for the export command.">
<polygon fill="white" stroke="#666666" points="984,-57 924,-57 924,-38 984,-38 984,-57"/>
<text text-anchor="middle" x="954" y="-45" font-family="Helvetica,sans-Serif" font-size="10.00">ft_export</text>
</a>
</g>
</g>
<!-- Node9&#45;&gt;Node10 -->
<g id="edge9_Node000009_Node000010" class="edge">
<title>Node9&#45;&gt;Node10</title>
<g id="a_edge9_Node000009_Node000010"><a xlink:title=" ">
<path fill="none" stroke="#63b8ff" d="M1009.7,-47.5C1000.75,-47.5 991.97,-47.5 984.15,-47.5"/>
<polygon fill="#63b8ff" stroke="#63b8ff" points="1009.84,-51 1019.84,-47.5 1009.84,-44 1009.84,-51"/>
</a>
</g>
</g>
<!-- Node11 -->
<g id="Node000011" class="node">
<title>Node11</title>
<g id="a_Node000011"><a xlink:href="cmd__execution_8c.html#a5ce7231f800cbacea6350cc1a32a59bd" target="_top" xlink:title="Executes a list of non&#45;pipelined commands.">
<polygon fill="white" stroke="#666666" points="744,-57 672,-57 672,-38 744,-38 744,-57"/>
<text text-anchor="middle" x="708" y="-45" font-family="Helvetica,sans-Serif" font-size="10.00">ft_exe_cmd</text>
</a>
</g>
</g>
<!-- Node10&#45;&gt;Node11 -->
<g id="edge10_Node000010_Node000011" class="edge">
<title>Node10&#45;&gt;Node11</title>
<g id="a_edge10_Node000010_Node000011"><a xlink:title=" ">
<path fill="none" stroke="#63b8ff" d="M913.47,-47.5C866.52,-47.5 788.94,-47.5 744.05,-47.5"/>
<polygon fill="#63b8ff" stroke="#63b8ff" points="913.57,-51 923.57,-47.5 913.57,-44 913.57,-51"/>
</a>
</g>
</g>
<!-- Node12 -->
<g id="Node000012" class="node">
<title>Node12</title>
<g id="a_Node000012"><a xlink:href="cmd__execution_8c.html#a50e59fa2e4621831a415d4038f697c56" target="_top" xlink:title="Executes a command within a pipeline.">
<polygon fill="white" stroke="#666666" points="888,-19 790,-19 790,0 888,0 888,-19"/>
<text text-anchor="middle" x="839" y="-7" font-family="Helvetica,sans-Serif" font-size="10.00">ft_exe_pipe_cmd</text>
</a>
</g>
</g>
<!-- Node10&#45;&gt;Node12 -->
<g id="edge12_Node000010_Node000012" class="edge">
<title>Node10&#45;&gt;Node12</title>
<g id="a_edge12_Node000010_Node000012"><a xlink:title=" ">
<path fill="none" stroke="#63b8ff" d="M914.86,-34.67C899.7,-29.58 882.56,-23.81 868.51,-19.09"/>
<polygon fill="#63b8ff" stroke="#63b8ff" points="913.89,-38.04 924.49,-37.91 916.12,-31.41 913.89,-38.04"/>
</a>
</g>
</g>
<!-- Node11&#45;&gt;Node4 -->
<g id="edge11_Node000011_Node000004" class="edge">
<title>Node11&#45;&gt;Node4</title>
<g id="a_edge11_Node000011_Node000004"><a xlink:title=" ">
<path fill="none" stroke="#63b8ff" d="M661.65,-47.5C569.27,-47.5 360.66,-47.5 273.23,-47.5"/>
<polygon fill="#63b8ff" stroke="#63b8ff" points="661.8,-51 671.8,-47.5 661.8,-44 661.8,-51"/>
</a>
</g>
</g>
<!-- Node13 -->
<g id="Node000013" class="node">
<title>Node13</title>
<g id="a_Node000013"><a xlink:href="pipes_8c.html#a36a2d91a0566ad253efe3833b05e69d1" target="_top" xlink:title="Routine executed by the child process for each command in the pipe.">
<polygon fill="white" stroke="#666666" points="754,-19 662,-19 662,0 754,0 754,-19"/>
<text text-anchor="middle" x="708" y="-7" font-family="Helvetica,sans-Serif" font-size="10.00">ft_child_routine</text>
</a>
</g>
</g>
<!-- Node12&#45;&gt;Node13 -->
<g id="edge13_Node000012_Node000013" class="edge">
<title>Node12&#45;&gt;Node13</title>
<g id="a_edge13_Node000012_Node000013"><a xlink:title=" ">
<path fill="none" stroke="#63b8ff" d="M779.91,-9.5C771.24,-9.5 762.42,-9.5 754.08,-9.5"/>
<polygon fill="#63b8ff" stroke="#63b8ff" points="779.97,-13 789.97,-9.5 779.97,-6 779.97,-13"/>
</a>
</g>
</g>
<!-- Node14 -->
<g id="Node000014" class="node">
<title>Node14</title>
<g id="a_Node000014"><a xlink:href="pipes_8c.html#aa17e847997e7266a0a111ab3572756bb" target="_top" xlink:title="Manages pipe creation and fork to execute the current command.">
<polygon fill="white" stroke="#666666" points="626,-19 537,-19 537,0 626,0 626,-19"/>
<text text-anchor="middle" x="581.5" y="-7" font-family="Helvetica,sans-Serif" font-size="10.00">ft_pipe_routine</text>
</a>
</g>
</g>
<!-- Node13&#45;&gt;Node14 -->
<g id="edge14_Node000013_Node000014" class="edge">
<title>Node13&#45;&gt;Node14</title>
<g id="a_edge14_Node000013_Node000014"><a xlink:title=" ">
<path fill="none" stroke="#63b8ff" d="M651.52,-9.5C643.08,-9.5 634.46,-9.5 626.31,-9.5"/>
<polygon fill="#63b8ff" stroke="#63b8ff" points="651.7,-13 661.7,-9.5 651.7,-6 651.7,-13"/>
</a>
</g>
</g>
<!-- Node15 -->
<g id="Node000015" class="node">
<title>Node15</title>
<g id="a_Node000015"><a xlink:href="pipes_8c.html#a7a3b0de1a88a243da741f748881e14f0" target="_top" xlink:title="Executes a list of commands connected via pipes.">
<polygon fill="white" stroke="#666666" points="501,-19 420,-19 420,0 501,0 501,-19"/>
<text text-anchor="middle" x="460.5" y="-7" font-family="Helvetica,sans-Serif" font-size="10.00">execute_pipe</text>
</a>
</g>
</g>
<!-- Node14&#45;&gt;Node15 -->
<g id="edge15_Node000014_Node000015" class="edge">
<title>Node14&#45;&gt;Node15</title>
<g id="a_edge15_Node000014_Node000015"><a xlink:title=" ">
<path fill="none" stroke="#63b8ff" d="M526.85,-9.5C518.22,-9.5 509.42,-9.5 501.19,-9.5"/>
<polygon fill="#63b8ff" stroke="#63b8ff" points="526.86,-13 536.86,-9.5 526.86,-6 526.86,-13"/>
</a>
</g>
</g>
<!-- Node16 -->
<g id="Node000016" class="node">
<title>Node16</title>
<g id="a_Node000016"><a xlink:href="main__utils_8c.html#ad0183732909ae6e7c52e7b086c2e5642" target="_top" xlink:title="Manages the execution flow of commands with pipes.">
<polygon fill="white" stroke="#666666" points="384,-19 309,-19 309,0 384,0 384,-19"/>
<text text-anchor="middle" x="346.5" y="-7" font-family="Helvetica,sans-Serif" font-size="10.00">ft_pipe_flow</text>
</a>
</g>
</g>
<!-- Node15&#45;&gt;Node16 -->
<g id="edge16_Node000015_Node000016" class="edge">
<title>Node15&#45;&gt;Node16</title>
<g id="a_edge16_Node000015_Node000016"><a xlink:title=" ">
<path fill="none" stroke="#63b8ff" d="M409.47,-9.5C400.96,-9.5 392.26,-9.5 384.18,-9.5"/>
<polygon fill="#63b8ff" stroke="#63b8ff" points="409.7,-13 419.7,-9.5 409.7,-6 409.7,-13"/>
</a>
</g>
</g>
<!-- Node16&#45;&gt;Node4 -->
<g id="edge17_Node000016_Node000004" class="edge">
<title>Node16&#45;&gt;Node4</title>
<g id="a_edge17_Node000016_Node000004"><a xlink:title=" ">
<path fill="none" stroke="#63b8ff" d="M307.7,-22.33C292.67,-27.42 275.68,-33.19 261.75,-37.91"/>
<polygon fill="#63b8ff" stroke="#63b8ff" points="308.89,-25.62 317.24,-19.09 306.64,-18.99 308.89,-25.62"/>
</a>
</g>
</g>
</g>
</svg>
