<?xml version="1.0" encoding="UTF-8" standalone="no"?>
<!DOCTYPE svg PUBLIC "-//W3C//DTD SVG 1.1//EN"
 "http://www.w3.org/Graphics/SVG/1.1/DTD/svg11.dtd">
<!-- Generated by graphviz version 2.43.0 (0)
 -->
<!-- Title: ft_cd Pages: 1 -->
<svg width="751pt" height="471pt"
 viewBox="0.00 0.00 751.00 471.11" xmlns="http://www.w3.org/2000/svg" xmlns:xlink="http://www.w3.org/1999/xlink">
<g id="graph0" class="graph" transform="scale(1 1) rotate(0) translate(4 467.11)">
<title>ft_cd</title>
<!-- Node1 -->
<g id="Node000001" class="node">
<title>Node1</title>
<g id="a_Node000001"><a xlink:title="Builtin cd command implementation.">
<polygon fill="#999999" stroke="#666666" points="40,-255 0,-255 0,-236 40,-236 40,-255"/>
<text text-anchor="middle" x="20" y="-243" font-family="Helvetica,sans-Serif" font-size="10.00">ft_cd</text>
</a>
</g>
</g>
<!-- Node2 -->
<g id="Node000002" class="node">
<title>Node2</title>
<g id="a_Node000002"><a xlink:href="free__functions_8c.html#a451c65e7c59e947c1880d1f75d866e3a" target="_top" xlink:title="Frees all resources associated with a list of pipes and the environment.">
<polygon fill="white" stroke="#666666" points="156,-403 76,-403 76,-384 156,-384 156,-403"/>
<text text-anchor="middle" x="116" y="-391" font-family="Helvetica,sans-Serif" font-size="10.00">free_all_pipe</text>
</a>
</g>
</g>
<!-- Node1&#45;&gt;Node2 -->
<g id="edge1_Node000001_Node000002" class="edge">
<title>Node1&#45;&gt;Node2</title>
<g id="a_edge1_Node000001_Node000002"><a xlink:title=" ">
<path fill="none" stroke="#63b8ff" d="M27.17,-255.21C42.64,-279.57 83.3,-343.59 103.4,-375.24"/>
<polygon fill="#63b8ff" stroke="#63b8ff" points="100.62,-377.38 108.93,-383.95 106.52,-373.63 100.62,-377.38"/>
</a>
</g>
</g>
<!-- Node7 -->
<g id="Node000007" class="node">
<title>Node7</title>
<g id="a_Node000007"><a xlink:href="ft__cd_8c.html#ad77d8c01768899312d5dbc506a30f83d" target="_top" xlink:title="Restores standard input and closes file descriptor if needed.">
<polygon fill="white" stroke="#666666" points="155.5,-311 76.5,-311 76.5,-292 155.5,-292 155.5,-311"/>
<text text-anchor="middle" x="116" y="-299" font-family="Helvetica,sans-Serif" font-size="10.00">ft_clean_exit</text>
</a>
</g>
</g>
<!-- Node1&#45;&gt;Node7 -->
<g id="edge7_Node000001_Node000007" class="edge">
<title>Node1&#45;&gt;Node7</title>
<g id="a_edge7_Node000001_Node000007"><a xlink:title=" ">
<path fill="none" stroke="#63b8ff" d="M37.37,-255.25C51.93,-263.93 73.43,-276.74 90.12,-286.68"/>
<polygon fill="#63b8ff" stroke="#63b8ff" points="88.43,-289.75 98.81,-291.86 92.01,-283.73 88.43,-289.75"/>
</a>
</g>
</g>
<!-- Node9 -->
<g id="Node000009" class="node">
<title>Node9</title>
<g id="a_Node000009"><a xlink:href="ft__cd_8c.html#ac060a52395a8362da6298c5c36871f32" target="_top" xlink:title="Processes the arguments passed to the cd command to determine the path.">
<polygon fill="white" stroke="#666666" points="147,-218 85,-218 85,-199 147,-199 147,-218"/>
<text text-anchor="middle" x="116" y="-206" font-family="Helvetica,sans-Serif" font-size="10.00">ft_exe_cd</text>
</a>
</g>
</g>
<!-- Node1&#45;&gt;Node9 -->
<g id="edge9_Node000001_Node000009" class="edge">
<title>Node1&#45;&gt;Node9</title>
<g id="a_edge9_Node000001_Node000009"><a xlink:title=" ">
<path fill="none" stroke="#63b8ff" d="M40.02,-238.01C51.76,-233.39 67.17,-227.33 80.96,-221.9"/>
<polygon fill="#63b8ff" stroke="#63b8ff" points="82.62,-225.01 90.64,-218.09 80.05,-218.49 82.62,-225.01"/>
</a>
</g>
</g>
<!-- Node24 -->
<g id="Node000024" class="node">
<title>Node24</title>
<g id="a_Node000024"><a xlink:href="utils__fd_8c.html#a184b4852a6ca5544cc056e7a8e20e4ad" target="_top" xlink:title="Handles opening and validating file descriptors for command input/output.">
<polygon fill="white" stroke="#666666" points="144.5,-124 87.5,-124 87.5,-105 144.5,-105 144.5,-124"/>
<text text-anchor="middle" x="116" y="-112" font-family="Helvetica,sans-Serif" font-size="10.00">ft_for_fd</text>
</a>
</g>
</g>
<!-- Node1&#45;&gt;Node24 -->
<g id="edge29_Node000001_Node000024" class="edge">
<title>Node1&#45;&gt;Node24</title>
<g id="a_edge29_Node000001_Node000024"><a xlink:title=" ">
<path fill="none" stroke="#63b8ff" d="M28.07,-235.65C43.79,-213.74 81.89,-160.64 102.03,-132.58"/>
<polygon fill="#63b8ff" stroke="#63b8ff" points="105.12,-134.27 108.11,-124.1 99.43,-130.19 105.12,-134.27"/>
</a>
</g>
</g>
<!-- Node28 -->
<g id="Node000028" class="node">
<title>Node28</title>
<g id="a_Node000028"><a xlink:href="ft__cd_8c.html#abe3ef0d9243dfb9deb0adcf20cf26db5" target="_top" xlink:title="Changes the current directory and updates PWD and OLDPWD environment variables.">
<polygon fill="white" stroke="#666666" points="149.5,-255 82.5,-255 82.5,-236 149.5,-236 149.5,-255"/>
<text text-anchor="middle" x="116" y="-243" font-family="Helvetica,sans-Serif" font-size="10.00">ft_set_env</text>
</a>
</g>
</g>
<!-- Node1&#45;&gt;Node28 -->
<g id="edge34_Node000001_Node000028" class="edge">
<title>Node1&#45;&gt;Node28</title>
<g id="a_edge34_Node000001_Node000028"><a xlink:title=" ">
<path fill="none" stroke="#63b8ff" d="M40.02,-245.5C49.3,-245.5 60.88,-245.5 72.13,-245.5"/>
<polygon fill="#63b8ff" stroke="#63b8ff" points="72.3,-249 82.3,-245.5 72.3,-242 72.3,-249"/>
</a>
</g>
</g>
<!-- Node3 -->
<g id="Node000003" class="node">
<title>Node3</title>
<g id="a_Node000003"><a xlink:href="free__functions_8c.html#a32c72055f1119062342fcdf42527c05c" target="_top" xlink:title="Frees a list of commands.">
<polygon fill="white" stroke="#666666" points="291.5,-440 229.5,-440 229.5,-421 291.5,-421 291.5,-440"/>
<text text-anchor="middle" x="260.5" y="-428" font-family="Helvetica,sans-Serif" font-size="10.00">free_cmd</text>
</a>
</g>
</g>
<!-- Node2&#45;&gt;Node3 -->
<g id="edge2_Node000002_Node000003" class="edge">
<title>Node2&#45;&gt;Node3</title>
<g id="a_edge2_Node000002_Node000003"><a xlink:title=" ">
<path fill="none" stroke="#63b8ff" d="M153.7,-403.03C173.82,-408.25 198.8,-414.74 219.44,-420.1"/>
<polygon fill="#63b8ff" stroke="#63b8ff" points="218.62,-423.5 229.18,-422.63 220.38,-416.73 218.62,-423.5"/>
</a>
</g>
</g>
<!-- Node4 -->
<g id="Node000004" class="node">
<title>Node4</title>
<g id="a_Node000004"><a xlink:href="ft__free__matrix_8c.html#a1ea6d1f3b50d1c23d4f0faddd1a13448" target="_top" xlink:title="Frees a NULL&#45;terminated matrix of strings.">
<polygon fill="white" stroke="#666666" points="451,-459 365,-459 365,-440 451,-440 451,-459"/>
<text text-anchor="middle" x="408" y="-447" font-family="Helvetica,sans-Serif" font-size="10.00">ft_free_matrix</text>
</a>
</g>
</g>
<!-- Node2&#45;&gt;Node4 -->
<g id="edge6_Node000002_Node000004" class="edge">
<title>Node2&#45;&gt;Node4</title>
<g id="a_edge6_Node000002_Node000004"><a xlink:title=" ">
<path fill="none" stroke="#63b8ff" d="M126,-403.39C139.01,-416.87 164.55,-440.38 192,-449.5 245.4,-467.24 310.47,-464.08 354.94,-458.49"/>
<polygon fill="#63b8ff" stroke="#63b8ff" points="355.5,-461.95 364.95,-457.15 354.57,-455.01 355.5,-461.95"/>
</a>
</g>
</g>
<!-- Node5 -->
<g id="Node000005" class="node">
<title>Node5</title>
<g id="a_Node000005"><a xlink:href="free__functions_8c.html#a87de2a27d0e0e99f3de0b477731181e0" target="_top" xlink:title="Frees a list of pipes.">
<polygon fill="white" stroke="#666666" points="291.5,-403 229.5,-403 229.5,-384 291.5,-384 291.5,-403"/>
<text text-anchor="middle" x="260.5" y="-391" font-family="Helvetica,sans-Serif" font-size="10.00">free_pipe</text>
</a>
</g>
</g>
<!-- Node2&#45;&gt;Node5 -->
<g id="edge4_Node000002_Node000005" class="edge">
<title>Node2&#45;&gt;Node5</title>
<g id="a_edge4_Node000002_Node000005"><a xlink:title=" ">
<path fill="none" stroke="#63b8ff" d="M156.32,-393.5C175.87,-393.5 199.47,-393.5 219.16,-393.5"/>
<polygon fill="#63b8ff" stroke="#63b8ff" points="219.35,-397 229.35,-393.5 219.35,-390 219.35,-397"/>
</a>
</g>
</g>
<!-- Node6 -->
<g id="Node000006" class="node">
<title>Node6</title>
<g id="a_Node000006"><a xlink:href="free__functions_8c.html#a4f32f08947270b8aec54f43ddd8b02d4" target="_top" xlink:title="Frees a list of tokens.">
<polygon fill="white" stroke="#666666" points="294.5,-366 226.5,-366 226.5,-347 294.5,-347 294.5,-366"/>
<text text-anchor="middle" x="260.5" y="-354" font-family="Helvetica,sans-Serif" font-size="10.00">free_token</text>
</a>
</g>
</g>
<!-- Node2&#45;&gt;Node6 -->
<g id="edge5_Node000002_Node000006" class="edge">
<title>Node2&#45;&gt;Node6</title>
<g id="a_edge5_Node000002_Node000006"><a xlink:title=" ">
<path fill="none" stroke="#63b8ff" d="M153.7,-383.97C172.89,-378.99 196.49,-372.86 216.52,-367.66"/>
<polygon fill="#63b8ff" stroke="#63b8ff" points="217.54,-371.01 226.34,-365.11 215.78,-364.24 217.54,-371.01"/>
</a>
</g>
</g>
<!-- Node3&#45;&gt;Node4 -->
<g id="edge3_Node000003_Node000004" class="edge">
<title>Node3&#45;&gt;Node4</title>
<g id="a_edge3_Node000003_Node000004"><a xlink:title=" ">
<path fill="none" stroke="#63b8ff" d="M291.65,-434.44C309.82,-436.81 333.46,-439.9 354.61,-442.66"/>
<polygon fill="#63b8ff" stroke="#63b8ff" points="354.38,-446.16 364.75,-443.98 355.29,-439.22 354.38,-446.16"/>
</a>
</g>
</g>
<!-- Node8 -->
<g id="Node000008" class="node">
<title>Node8</title>
<g id="a_Node000008"><a xlink:href="utils__pipes_8c.html#aa5bc406fd1d5aadd2018c5c2061d31ba" target="_top" xlink:title="Restores the previously duplicated standard input.">
<polygon fill="white" stroke="#666666" points="299,-329 222,-329 222,-310 299,-310 299,-329"/>
<text text-anchor="middle" x="260.5" y="-317" font-family="Helvetica,sans-Serif" font-size="10.00">restore_sdin</text>
</a>
</g>
</g>
<!-- Node7&#45;&gt;Node8 -->
<g id="edge8_Node000007_Node000008" class="edge">
<title>Node7&#45;&gt;Node8</title>
<g id="a_edge8_Node000007_Node000008"><a xlink:title=" ">
<path fill="none" stroke="#63b8ff" d="M155.56,-306.37C172.87,-308.56 193.46,-311.16 211.73,-313.47"/>
<polygon fill="#63b8ff" stroke="#63b8ff" points="211.53,-316.97 221.89,-314.75 212.41,-310.02 211.53,-316.97"/>
</a>
</g>
</g>
<!-- Node10 -->
<g id="Node000010" class="node">
<title>Node10</title>
<g id="a_Node000010"><a xlink:href="utils__env__pt2_8c.html#afac58c53fe53bc538ba19b53efec42e4" target="_top" xlink:title="Finds the value of an environment variable given its name key.">
<polygon fill="white" stroke="#666666" points="310.5,-255 210.5,-255 210.5,-236 310.5,-236 310.5,-255"/>
<text text-anchor="middle" x="260.5" y="-243" font-family="Helvetica,sans-Serif" font-size="10.00">ft_get_env_value</text>
</a>
</g>
</g>
<!-- Node9&#45;&gt;Node10 -->
<g id="edge10_Node000009_Node000010" class="edge">
<title>Node9&#45;&gt;Node10</title>
<g id="a_edge10_Node000009_Node000010"><a xlink:title=" ">
<path fill="none" stroke="#63b8ff" d="M147.22,-216.35C166.26,-221.29 191.24,-227.78 212.8,-233.37"/>
<polygon fill="#63b8ff" stroke="#63b8ff" points="212.19,-236.83 222.74,-235.96 213.95,-230.06 212.19,-236.83"/>
</a>
</g>
</g>
<!-- Node13 -->
<g id="Node000013" class="node">
<title>Node13</title>
<g id="a_Node000013"><a xlink:href="ft__printf_8c.html#a091532b7f37af84bdecc84dccf4eedb1" target="_top" xlink:title="A simplified printf function that outputs formatted data to a given file descriptor.">
<polygon fill="white" stroke="#666666" points="288,-181 233,-181 233,-162 288,-162 288,-181"/>
<text text-anchor="middle" x="260.5" y="-169" font-family="Helvetica,sans-Serif" font-size="10.00">ft_printf</text>
</a>
</g>
</g>
<!-- Node9&#45;&gt;Node13 -->
<g id="edge13_Node000009_Node000013" class="edge">
<title>Node9&#45;&gt;Node13</title>
<g id="a_edge13_Node000009_Node000013"><a xlink:title=" ">
<path fill="none" stroke="#63b8ff" d="M147.22,-200.65C169.28,-194.92 199.31,-187.13 222.76,-181.04"/>
<polygon fill="#63b8ff" stroke="#63b8ff" points="223.89,-184.36 232.69,-178.46 222.13,-177.59 223.89,-184.36"/>
</a>
</g>
</g>
<!-- Node23 -->
<g id="Node000023" class="node">
<title>Node23</title>
<g id="a_Node000023"><a xlink:href="ft__strdup_8c.html#aebe73f27c70c56ac5053f860ef5436c9" target="_top" xlink:title="Duplicates a null&#45;terminated string by allocating memory.">
<polygon fill="white" stroke="#666666" points="290,-218 231,-218 231,-199 290,-199 290,-218"/>
<text text-anchor="middle" x="260.5" y="-206" font-family="Helvetica,sans-Serif" font-size="10.00">ft_strdup</text>
</a>
</g>
</g>
<!-- Node9&#45;&gt;Node23 -->
<g id="edge28_Node000009_Node000023" class="edge">
<title>Node9&#45;&gt;Node23</title>
<g id="a_edge28_Node000009_Node000023"><a xlink:title=" ">
<path fill="none" stroke="#63b8ff" d="M147.22,-208.5C168.62,-208.5 197.5,-208.5 220.61,-208.5"/>
<polygon fill="#63b8ff" stroke="#63b8ff" points="220.78,-212 230.78,-208.5 220.78,-205 220.78,-212"/>
</a>
</g>
</g>
<!-- Node11 -->
<g id="Node000011" class="node">
<title>Node11</title>
<g id="a_Node000011"><a xlink:href="ft__strlen_8c.html#a828402378653640f545a4be2e00e92f9" target="_top" xlink:title="Calculates the length of a null&#45;terminated string.">
<polygon fill="white" stroke="#666666" points="570,-295 514,-295 514,-276 570,-276 570,-295"/>
<text text-anchor="middle" x="542" y="-283" font-family="Helvetica,sans-Serif" font-size="10.00">ft_strlen</text>
</a>
</g>
</g>
<!-- Node10&#45;&gt;Node11 -->
<g id="edge11_Node000010_Node000011" class="edge">
<title>Node10&#45;&gt;Node11</title>
<g id="a_edge11_Node000010_Node000011"><a xlink:title=" ">
<path fill="none" stroke="#63b8ff" d="M310.63,-236.47C358.09,-228.62 426.31,-219.89 451,-229.5 471.23,-237.37 468.75,-250.75 487,-262.5 492.45,-266.01 498.53,-269.2 504.59,-272.01"/>
<polygon fill="#63b8ff" stroke="#63b8ff" points="503.43,-275.32 514,-276.1 506.22,-268.9 503.43,-275.32"/>
</a>
</g>
</g>
<!-- Node12 -->
<g id="Node000012" class="node">
<title>Node12</title>
<g id="a_Node000012"><a xlink:href="ft__strncmp_8c.html#a9d2fe792187aa4ed08e5864fb2c4d6dc" target="_top" xlink:title="Compares up to n characters of two strings.">
<polygon fill="white" stroke="#666666" points="442,-257 374,-257 374,-238 442,-238 442,-257"/>
<text text-anchor="middle" x="408" y="-245" font-family="Helvetica,sans-Serif" font-size="10.00">ft_strncmp</text>
</a>
</g>
</g>
<!-- Node10&#45;&gt;Node12 -->
<g id="edge12_Node000010_Node000012" class="edge">
<title>Node10&#45;&gt;Node12</title>
<g id="a_edge12_Node000010_Node000012"><a xlink:title=" ">
<path fill="none" stroke="#63b8ff" d="M310.76,-246.18C327.96,-246.41 347.13,-246.68 363.81,-246.91"/>
<polygon fill="#63b8ff" stroke="#63b8ff" points="363.78,-250.41 373.82,-247.04 363.87,-243.41 363.78,-250.41"/>
</a>
</g>
</g>
<!-- Node14 -->
<g id="Node000014" class="node">
<title>Node14</title>
<g id="a_Node000014"><a xlink:href="ft__printf_8c.html#a80c1c206dcd33d07c265581878aaa300" target="_top" xlink:title="Processes a single format specifier and prints the corresponding argument.">
<polygon fill="white" stroke="#666666" points="449.5,-143 366.5,-143 366.5,-124 449.5,-124 449.5,-143"/>
<text text-anchor="middle" x="408" y="-131" font-family="Helvetica,sans-Serif" font-size="10.00">check_format</text>
</a>
</g>
</g>
<!-- Node13&#45;&gt;Node14 -->
<g id="edge14_Node000013_Node000014" class="edge">
<title>Node13&#45;&gt;Node14</title>
<g id="a_edge14_Node000013_Node000014"><a xlink:title=" ">
<path fill="none" stroke="#63b8ff" d="M288.19,-164.53C308.43,-159.24 336.76,-151.85 360.67,-145.6"/>
<polygon fill="#63b8ff" stroke="#63b8ff" points="361.83,-148.92 370.62,-143 360.06,-142.14 361.83,-148.92"/>
</a>
</g>
</g>
<!-- Node18 -->
<g id="Node000018" class="node">
<title>Node18</title>
<g id="a_Node000018"><a xlink:href="ft__putchar__fd_8c.html#a03ef80b25dc4a521379fa92ad97bad21" target="_top" xlink:title="Writes a single character to the specified file descriptor.">
<polygon fill="white" stroke="#666666" points="582,-253 502,-253 502,-234 582,-234 582,-253"/>
<text text-anchor="middle" x="542" y="-241" font-family="Helvetica,sans-Serif" font-size="10.00">ft_putchar_fd</text>
</a>
</g>
</g>
<!-- Node13&#45;&gt;Node18 -->
<g id="edge27_Node000013_Node000018" class="edge">
<title>Node13&#45;&gt;Node18</title>
<g id="a_edge27_Node000013_Node000018"><a xlink:title=" ">
<path fill="none" stroke="#63b8ff" d="M288.05,-178.34C335.32,-190.52 434.67,-216.11 493.82,-231.35"/>
<polygon fill="#63b8ff" stroke="#63b8ff" points="493.1,-234.78 503.66,-233.88 494.85,-228 493.1,-234.78"/>
</a>
</g>
</g>
<!-- Node15 -->
<g id="Node000015" class="node">
<title>Node15</title>
<g id="a_Node000015"><a xlink:href="ft__forpointer_8c.html#a8e02c77b80406af72327ebf71f537786" target="_top" xlink:title="Prints a pointer in hexadecimal format prefixed with &quot;0x&quot;.">
<polygon fill="white" stroke="#666666" points="580.5,-28 503.5,-28 503.5,-9 580.5,-9 580.5,-28"/>
<text text-anchor="middle" x="542" y="-16" font-family="Helvetica,sans-Serif" font-size="10.00">ft_forpointer</text>
</a>
</g>
</g>
<!-- Node14&#45;&gt;Node15 -->
<g id="edge15_Node000014_Node000015" class="edge">
<title>Node14&#45;&gt;Node15</title>
<g id="a_edge15_Node000014_Node000015"><a xlink:title=" ">
<path fill="none" stroke="#63b8ff" d="M439.12,-123.79C443.43,-121.53 447.56,-118.79 451,-115.5 477.7,-89.92 460.07,-65.84 487,-40.5 490.15,-37.53 493.76,-34.95 497.58,-32.69"/>
<polygon fill="#63b8ff" stroke="#63b8ff" points="499.44,-35.67 506.76,-28.01 496.26,-29.43 499.44,-35.67"/>
</a>
</g>
</g>
<!-- Node17 -->
<g id="Node000017" class="node">
<title>Node17</title>
<g id="a_Node000017"><a xlink:href="ft__hexadecimal_8c.html#a39c845e0a4286d3ac1e04c1e64ac734b" target="_top" xlink:title="Prints an unsigned integer in hexadecimal format.">
<polygon fill="white" stroke="#666666" points="588,-198 496,-198 496,-179 588,-179 588,-198"/>
<text text-anchor="middle" x="542" y="-186" font-family="Helvetica,sans-Serif" font-size="10.00">ft_hexadecimal</text>
</a>
</g>
</g>
<!-- Node14&#45;&gt;Node17 -->
<g id="edge18_Node000014_Node000017" class="edge">
<title>Node14&#45;&gt;Node17</title>
<g id="a_edge18_Node000014_Node000017"><a xlink:title=" ">
<path fill="none" stroke="#63b8ff" d="M427.63,-143.12C443.26,-151 466.28,-162.17 487,-170.5 491.41,-172.27 496.07,-174.02 500.73,-175.68"/>
<polygon fill="#63b8ff" stroke="#63b8ff" points="499.61,-178.99 510.21,-178.95 501.9,-172.38 499.61,-178.99"/>
</a>
</g>
</g>
<!-- Node14&#45;&gt;Node18 -->
<g id="edge20_Node000014_Node000018" class="edge">
<title>Node14&#45;&gt;Node18</title>
<g id="a_edge20_Node000014_Node000018"><a xlink:title=" ">
<path fill="none" stroke="#63b8ff" d="M431.14,-143.12C438.08,-146.88 445.39,-151.71 451,-157.5 474.79,-182.07 460.91,-203.4 487,-225.5 488.78,-227.01 490.68,-228.39 492.68,-229.65"/>
<polygon fill="#63b8ff" stroke="#63b8ff" points="491.43,-232.95 501.91,-234.5 494.69,-226.75 491.43,-232.95"/>
</a>
</g>
</g>
<!-- Node19 -->
<g id="Node000019" class="node">
<title>Node19</title>
<g id="a_Node000019"><a xlink:href="ft__putnbr__fd_8c.html#a1554101ee350c316340c78e19faddaa8" target="_top" xlink:title="Writes an integer to a given file descriptor.">
<polygon fill="white" stroke="#666666" points="579.5,-143 504.5,-143 504.5,-124 579.5,-124 579.5,-143"/>
<text text-anchor="middle" x="542" y="-131" font-family="Helvetica,sans-Serif" font-size="10.00">ft_putnbr_fd</text>
</a>
</g>
</g>
<!-- Node14&#45;&gt;Node19 -->
<g id="edge21_Node000014_Node000019" class="edge">
<title>Node14&#45;&gt;Node19</title>
<g id="a_edge21_Node000014_Node000019"><a xlink:title=" ">
<path fill="none" stroke="#63b8ff" d="M449.68,-133.5C463.7,-133.5 479.52,-133.5 494,-133.5"/>
<polygon fill="#63b8ff" stroke="#63b8ff" points="494.26,-137 504.26,-133.5 494.26,-130 494.26,-137"/>
</a>
</g>
</g>
<!-- Node20 -->
<g id="Node000020" class="node">
<title>Node20</title>
<g id="a_Node000020"><a xlink:href="ft__putstr__fd_8c.html#a00b0638f31a75c7a30f77f33888bfb73" target="_top" xlink:title="Writes a null&#45;terminated string to the specified file descriptor.">
<polygon fill="white" stroke="#666666" points="578,-106 506,-106 506,-87 578,-87 578,-106"/>
<text text-anchor="middle" x="542" y="-94" font-family="Helvetica,sans-Serif" font-size="10.00">ft_putstr_fd</text>
</a>
</g>
</g>
<!-- Node14&#45;&gt;Node20 -->
<g id="edge23_Node000014_Node000020" class="edge">
<title>Node14&#45;&gt;Node20</title>
<g id="a_edge23_Node000014_Node000020"><a xlink:title=" ">
<path fill="none" stroke="#63b8ff" d="M442.99,-123.97C459.34,-119.39 479.14,-113.84 496.66,-108.93"/>
<polygon fill="#63b8ff" stroke="#63b8ff" points="497.98,-112.19 506.66,-106.12 496.09,-105.45 497.98,-112.19"/>
</a>
</g>
</g>
<!-- Node21 -->
<g id="Node000021" class="node">
<title>Node21</title>
<g id="a_Node000021"><a xlink:href="ft__unsigned__putnbr_8c.html#af9a70f8607b40cf2a7706f9d3725b549" target="_top" xlink:title="Writes an unsigned integer to the given file descriptor.">
<polygon fill="white" stroke="#666666" points="597,-69 487,-69 487,-50 597,-50 597,-69"/>
<text text-anchor="middle" x="542" y="-57" font-family="Helvetica,sans-Serif" font-size="10.00">ft_unsigned_putnbr</text>
</a>
</g>
</g>
<!-- Node14&#45;&gt;Node21 -->
<g id="edge24_Node000014_Node000021" class="edge">
<title>Node14&#45;&gt;Node21</title>
<g id="a_edge24_Node000014_Node000021"><a xlink:title=" ">
<path fill="none" stroke="#63b8ff" d="M436.08,-123.83C441.24,-121.46 446.44,-118.68 451,-115.5 470.09,-102.2 467.38,-90 487,-77.5 489.46,-75.93 492.07,-74.49 494.77,-73.16"/>
<polygon fill="#63b8ff" stroke="#63b8ff" points="496.39,-76.27 504.16,-69.06 493.59,-69.85 496.39,-76.27"/>
</a>
</g>
</g>
<!-- Node16 -->
<g id="Node000016" class="node">
<title>Node16</title>
<g id="a_Node000016"><a xlink:href="ft__forpointer_8c.html#aded1bf735c8a10e47396170d27c5b6aa" target="_top" xlink:title="Recursively prints a memory address in hexadecimal format.">
<polygon fill="white" stroke="#666666" points="743,-19 633,-19 633,0 743,0 743,-19"/>
<text text-anchor="middle" x="688" y="-7" font-family="Helvetica,sans-Serif" font-size="10.00">ft_ricorsive_pointer</text>
</a>
</g>
</g>
<!-- Node15&#45;&gt;Node16 -->
<g id="edge16_Node000015_Node000016" class="edge">
<title>Node15&#45;&gt;Node16</title>
<g id="a_edge16_Node000015_Node000016"><a xlink:title=" ">
<path fill="none" stroke="#63b8ff" d="M580.83,-16.14C593.64,-15.33 608.33,-14.42 622.61,-13.52"/>
<polygon fill="#63b8ff" stroke="#63b8ff" points="623.14,-17 632.9,-12.88 622.7,-10.01 623.14,-17"/>
</a>
</g>
</g>
<!-- Node16&#45;&gt;Node16 -->
<g id="edge17_Node000016_Node000016" class="edge">
<title>Node16&#45;&gt;Node16</title>
<g id="a_edge17_Node000016_Node000016"><a xlink:title=" ">
<path fill="none" stroke="#63b8ff" d="M665.5,-19.08C654.55,-27.73 662.05,-37 688,-37 704.62,-37 713.68,-33.2 715.16,-28.19"/>
<polygon fill="#63b8ff" stroke="#63b8ff" points="718.17,-26.39 710.5,-19.08 711.94,-29.58 718.17,-26.39"/>
</a>
</g>
</g>
<!-- Node17&#45;&gt;Node17 -->
<g id="edge19_Node000017_Node000017" class="edge">
<title>Node17&#45;&gt;Node17</title>
<g id="a_edge19_Node000017_Node000017"><a xlink:title=" ">
<path fill="none" stroke="#63b8ff" d="M521.35,-198.08C511.3,-206.73 518.18,-216 542,-216 557.26,-216 565.57,-212.2 566.93,-207.19"/>
<polygon fill="#63b8ff" stroke="#63b8ff" points="570.07,-205.65 562.65,-198.08 563.73,-208.62 570.07,-205.65"/>
</a>
</g>
</g>
<!-- Node19&#45;&gt;Node19 -->
<g id="edge22_Node000019_Node000019" class="edge">
<title>Node19&#45;&gt;Node19</title>
<g id="a_edge22_Node000019_Node000019"><a xlink:title=" ">
<path fill="none" stroke="#63b8ff" d="M521.35,-143.08C511.3,-151.73 518.18,-161 542,-161 557.26,-161 565.57,-157.2 566.93,-152.19"/>
<polygon fill="#63b8ff" stroke="#63b8ff" points="570.07,-150.65 562.65,-143.08 563.73,-153.62 570.07,-150.65"/>
</a>
</g>
</g>
<!-- Node22 -->
<g id="Node000022" class="node">
<title>Node22</title>
<g id="a_Node000022"><a xlink:href="ft__putnbr_8c.html#a2e51f80c9e46e52f4adf94617fb51ada" target="_top" xlink:title="Writes an integer to the standard output (stdout).">
<polygon fill="white" stroke="#666666" points="718,-74 658,-74 658,-55 718,-55 718,-74"/>
<text text-anchor="middle" x="688" y="-62" font-family="Helvetica,sans-Serif" font-size="10.00">ft_putnbr</text>
</a>
</g>
</g>
<!-- Node21&#45;&gt;Node22 -->
<g id="edge25_Node000021_Node000022" class="edge">
<title>Node21&#45;&gt;Node22</title>
<g id="a_edge25_Node000021_Node000022"><a xlink:title=" ">
<path fill="none" stroke="#63b8ff" d="M597.03,-61.38C613.76,-61.96 631.87,-62.59 647.43,-63.13"/>
<polygon fill="#63b8ff" stroke="#63b8ff" points="647.63,-66.63 657.74,-63.48 647.87,-59.64 647.63,-66.63"/>
</a>
</g>
</g>
<!-- Node22&#45;&gt;Node22 -->
<g id="edge26_Node000022_Node000022" class="edge">
<title>Node22&#45;&gt;Node22</title>
<g id="a_edge26_Node000022_Node000022"><a xlink:title=" ">
<path fill="none" stroke="#63b8ff" d="M665.5,-74.08C654.55,-82.73 662.05,-92 688,-92 704.62,-92 713.68,-88.2 715.16,-83.19"/>
<polygon fill="#63b8ff" stroke="#63b8ff" points="718.17,-81.39 710.5,-74.08 711.94,-84.58 718.17,-81.39"/>
</a>
</g>
</g>
<!-- Node25 -->
<g id="Node000025" class="node">
<title>Node25</title>
<g id="a_Node000025"><a xlink:href="utils__fd_8c.html#ae6ad7aa33393749b9dc5eac6b61cdf74" target="_top" xlink:title="Returns the correct file descriptor based on append flag and file.">
<polygon fill="white" stroke="#666666" points="306.5,-105 214.5,-105 214.5,-86 306.5,-86 306.5,-105"/>
<text text-anchor="middle" x="260.5" y="-93" font-family="Helvetica,sans-Serif" font-size="10.00">check_value_fd</text>
</a>
</g>
</g>
<!-- Node24&#45;&gt;Node25 -->
<g id="edge30_Node000024_Node000025" class="edge">
<title>Node24&#45;&gt;Node25</title>
<g id="a_edge30_Node000024_Node000025"><a xlink:title=" ">
<path fill="none" stroke="#63b8ff" d="M144.81,-110.79C161.72,-108.54 183.9,-105.58 204.25,-102.87"/>
<polygon fill="#63b8ff" stroke="#63b8ff" points="204.92,-106.31 214.37,-101.52 204,-99.37 204.92,-106.31"/>
</a>
</g>
</g>
<!-- Node26 -->
<g id="Node000026" class="node">
<title>Node26</title>
<g id="a_Node000026"><a xlink:href="utils__fd_8c.html#a9cf70d06db18597b04bb642db7abab4a" target="_top" xlink:title="Checks if a file descriptor is valid.">
<polygon fill="white" stroke="#666666" points="444,-106 372,-106 372,-87 444,-87 444,-106"/>
<text text-anchor="middle" x="408" y="-94" font-family="Helvetica,sans-Serif" font-size="10.00">ft_check_fd</text>
</a>
</g>
</g>
<!-- Node24&#45;&gt;Node26 -->
<g id="edge32_Node000024_Node000026" class="edge">
<title>Node24&#45;&gt;Node26</title>
<g id="a_edge32_Node000024_Node000026"><a xlink:title=" ">
<path fill="none" stroke="#63b8ff" d="M144.56,-116.48C185.11,-118.95 263.18,-122 329,-114.5 340.21,-113.22 352.15,-110.95 363.23,-108.43"/>
<polygon fill="#63b8ff" stroke="#63b8ff" points="364.2,-111.8 373.12,-106.08 362.58,-104.99 364.2,-111.8"/>
</a>
</g>
</g>
<!-- Node27 -->
<g id="Node000027" class="node">
<title>Node27</title>
<g id="a_Node000027"><a xlink:href="utils__pipes_8c.html#a4112bdd2bc0766ff52195f2ab3a53339" target="_top" xlink:title="Handles input redirection from a file.">
<polygon fill="white" stroke="#666666" points="329,-68 192,-68 192,-49 329,-49 329,-68"/>
<text text-anchor="middle" x="260.5" y="-56" font-family="Helvetica,sans-Serif" font-size="10.00">handle_input_redirection</text>
</a>
</g>
</g>
<!-- Node24&#45;&gt;Node27 -->
<g id="edge33_Node000024_Node000027" class="edge">
<title>Node24&#45;&gt;Node27</title>
<g id="a_edge33_Node000024_Node000027"><a xlink:title=" ">
<path fill="none" stroke="#63b8ff" d="M133.52,-104.86C148.42,-96.48 171.14,-84.47 192,-76.5 197.24,-74.5 202.79,-72.63 208.37,-70.92"/>
<polygon fill="#63b8ff" stroke="#63b8ff" points="209.75,-74.16 218.37,-68 207.79,-67.44 209.75,-74.16"/>
</a>
</g>
</g>
<!-- Node25&#45;&gt;Node26 -->
<g id="edge31_Node000025_Node000026" class="edge">
<title>Node25&#45;&gt;Node26</title>
<g id="a_edge31_Node000025_Node000026"><a xlink:title=" ">
<path fill="none" stroke="#63b8ff" d="M306.74,-95.81C324.31,-95.93 344.4,-96.07 361.95,-96.19"/>
<polygon fill="#63b8ff" stroke="#63b8ff" points="361.93,-99.69 371.96,-96.26 361.98,-92.69 361.93,-99.69"/>
</a>
</g>
</g>
<!-- Node28&#45;&gt;Node10 -->
<g id="edge35_Node000028_Node000010" class="edge">
<title>Node28&#45;&gt;Node10</title>
<g id="a_edge35_Node000028_Node000010"><a xlink:title=" ">
<path fill="none" stroke="#63b8ff" d="M149.69,-245.5C164.74,-245.5 183.06,-245.5 200.4,-245.5"/>
<polygon fill="#63b8ff" stroke="#63b8ff" points="200.46,-249 210.46,-245.5 200.46,-242 200.46,-249"/>
</a>
</g>
</g>
<!-- Node28&#45;&gt;Node23 -->
<g id="edge42_Node000028_Node000023" class="edge">
<title>Node28&#45;&gt;Node23</title>
<g id="a_edge42_Node000028_Node000023"><a xlink:title=" ">
<path fill="none" stroke="#63b8ff" d="M149.69,-237.01C170.93,-231.5 198.7,-224.29 221,-218.5"/>
<polygon fill="#63b8ff" stroke="#63b8ff" points="222.02,-221.85 230.82,-215.95 220.26,-215.07 222.02,-221.85"/>
</a>
</g>
</g>
<!-- Node29 -->
<g id="Node000029" class="node">
<title>Node29</title>
<g id="a_Node000029"><a xlink:href="ft__cd_8c.html#a1e12354e1572c211f19189669c16b7b7" target="_top" xlink:title="Sets or updates an environment variable in the env_copy array.">
<polygon fill="white" stroke="#666666" points="291.5,-292 229.5,-292 229.5,-273 291.5,-273 291.5,-292"/>
<text text-anchor="middle" x="260.5" y="-280" font-family="Helvetica,sans-Serif" font-size="10.00">ft_setenv</text>
</a>
</g>
</g>
<!-- Node28&#45;&gt;Node29 -->
<g id="edge36_Node000028_Node000029" class="edge">
<title>Node28&#45;&gt;Node29</title>
<g id="a_edge36_Node000028_Node000029"><a xlink:title=" ">
<path fill="none" stroke="#63b8ff" d="M149.69,-253.99C170.5,-259.39 197.58,-266.42 219.65,-272.15"/>
<polygon fill="#63b8ff" stroke="#63b8ff" points="218.83,-275.56 229.39,-274.68 220.59,-268.78 218.83,-275.56"/>
</a>
</g>
</g>
<!-- Node29&#45;&gt;Node11 -->
<g id="edge40_Node000029_Node000011" class="edge">
<title>Node29&#45;&gt;Node11</title>
<g id="a_edge40_Node000029_Node000011"><a xlink:title=" ">
<path fill="none" stroke="#63b8ff" d="M291.68,-282.82C343.13,-283.38 447.69,-284.5 503.66,-285.1"/>
<polygon fill="#63b8ff" stroke="#63b8ff" points="503.81,-288.6 513.85,-285.21 503.89,-281.6 503.81,-288.6"/>
</a>
</g>
</g>
<!-- Node29&#45;&gt;Node12 -->
<g id="edge41_Node000029_Node000012" class="edge">
<title>Node29&#45;&gt;Node12</title>
<g id="a_edge41_Node000029_Node000012"><a xlink:title=" ">
<path fill="none" stroke="#63b8ff" d="M291.65,-275.25C312.53,-270.22 340.64,-263.46 363.89,-257.87"/>
<polygon fill="#63b8ff" stroke="#63b8ff" points="364.94,-261.22 373.85,-255.47 363.31,-254.41 364.94,-261.22"/>
</a>
</g>
</g>
<!-- Node30 -->
<g id="Node000030" class="node">
<title>Node30</title>
<g id="a_Node000030"><a xlink:href="ft__strjoin_8c.html#a91e6e3e428bcc9f2291b700e1829b82b" target="_top" xlink:title="Concatenates two strings into a newly allocated string.">
<polygon fill="white" stroke="#666666" points="437.5,-333 378.5,-333 378.5,-314 437.5,-314 437.5,-333"/>
<text text-anchor="middle" x="408" y="-321" font-family="Helvetica,sans-Serif" font-size="10.00">ft_strjoin</text>
</a>
</g>
</g>
<!-- Node29&#45;&gt;Node30 -->
<g id="edge37_Node000029_Node000030" class="edge">
<title>Node29&#45;&gt;Node30</title>
<g id="a_edge37_Node000029_Node000030"><a xlink:title=" ">
<path fill="none" stroke="#63b8ff" d="M291.74,-291.01C303.39,-294.29 316.81,-298.07 329,-301.5 341.93,-305.14 356.06,-309.13 368.71,-312.7"/>
<polygon fill="#63b8ff" stroke="#63b8ff" points="367.9,-316.1 378.47,-315.45 369.8,-309.37 367.9,-316.1"/>
</a>
</g>
</g>
<!-- Node30&#45;&gt;Node11 -->
<g id="edge39_Node000030_Node000011" class="edge">
<title>Node30&#45;&gt;Node11</title>
<g id="a_edge39_Node000030_Node000011"><a xlink:title=" ">
<path fill="none" stroke="#63b8ff" d="M437.64,-315.25C457.06,-309.66 482.91,-302.22 503.9,-296.18"/>
<polygon fill="#63b8ff" stroke="#63b8ff" points="505.13,-299.47 513.77,-293.34 503.19,-292.74 505.13,-299.47"/>
</a>
</g>
</g>
<!-- Node31 -->
<g id="Node000031" class="node">
<title>Node31</title>
<g id="a_Node000031"><a xlink:href="ft__memcpy_8c.html#a41a6f05af30cf85ff63a08e383826322" target="_top" xlink:title="Copies &#39;n&#39; bytes from memory area &#39;src&#39; to memory area &#39;dest&#39;.">
<polygon fill="white" stroke="#666666" points="577.5,-333 506.5,-333 506.5,-314 577.5,-314 577.5,-333"/>
<text text-anchor="middle" x="542" y="-321" font-family="Helvetica,sans-Serif" font-size="10.00">ft_memcpy</text>
</a>
</g>
</g>
<!-- Node30&#45;&gt;Node31 -->
<g id="edge38_Node000030_Node000031" class="edge">
<title>Node30&#45;&gt;Node31</title>
<g id="a_edge38_Node000030_Node000031"><a xlink:title=" ">
<path fill="none" stroke="#63b8ff" d="M437.64,-323.5C454.74,-323.5 476.82,-323.5 496.18,-323.5"/>
<polygon fill="#63b8ff" stroke="#63b8ff" points="496.32,-327 506.32,-323.5 496.32,-320 496.32,-327"/>
</a>
</g>
</g>
</g>
</svg>
