<?xml version="1.0" encoding="UTF-8" standalone="no"?>
<!DOCTYPE svg PUBLIC "-//W3C//DTD SVG 1.1//EN"
 "http://www.w3.org/Graphics/SVG/1.1/DTD/svg11.dtd">
<!-- Generated by graphviz version 2.43.0 (0)
 -->
<!-- Title: ft_exe_cd Pages: 1 -->
<svg width="617pt" height="296pt"
 viewBox="0.00 0.00 617.00 296.00" xmlns="http://www.w3.org/2000/svg" xmlns:xlink="http://www.w3.org/1999/xlink">
<g id="graph0" class="graph" transform="scale(1 1) rotate(0) translate(4 292)">
<title>ft_exe_cd</title>
<!-- Node1 -->
<g id="Node000001" class="node">
<title>Node1</title>
<g id="a_Node000001"><a xlink:title="Processes the arguments passed to the cd command to determine the path.">
<polygon fill="#999999" stroke="#666666" points="62,-213 0,-213 0,-194 62,-194 62,-213"/>
<text text-anchor="middle" x="31" y="-201" font-family="Helvetica,sans-Serif" font-size="10.00">ft_exe_cd</text>
</a>
</g>
</g>
<!-- Node2 -->
<g id="Node000002" class="node">
<title>Node2</title>
<g id="a_Node000002"><a xlink:href="utils__env__pt2_8c.html#afac58c53fe53bc538ba19b53efec42e4" target="_top" xlink:title="Finds the value of an environment variable given its name key.">
<polygon fill="white" stroke="#666666" points="198,-251 98,-251 98,-232 198,-232 198,-251"/>
<text text-anchor="middle" x="148" y="-239" font-family="Helvetica,sans-Serif" font-size="10.00">ft_get_env_value</text>
</a>
</g>
</g>
<!-- Node1&#45;&gt;Node2 -->
<g id="edge1_Node000001_Node000002" class="edge">
<title>Node1&#45;&gt;Node2</title>
<g id="a_edge1_Node000001_Node000002"><a xlink:title=" ">
<path fill="none" stroke="#63b8ff" d="M61.02,-213.09C75.32,-217.81 92.76,-223.58 108.19,-228.68"/>
<polygon fill="#63b8ff" stroke="#63b8ff" points="107.4,-232.1 117.99,-231.91 109.59,-225.45 107.4,-232.1"/>
</a>
</g>
</g>
<!-- Node5 -->
<g id="Node000005" class="node">
<title>Node5</title>
<g id="a_Node000005"><a xlink:href="ft__printf_8c.html#a091532b7f37af84bdecc84dccf4eedb1" target="_top" xlink:title="A simplified printf function that outputs formatted data to a given file descriptor.">
<polygon fill="white" stroke="#666666" points="175.5,-213 120.5,-213 120.5,-194 175.5,-194 175.5,-213"/>
<text text-anchor="middle" x="148" y="-201" font-family="Helvetica,sans-Serif" font-size="10.00">ft_printf</text>
</a>
</g>
</g>
<!-- Node1&#45;&gt;Node5 -->
<g id="edge4_Node000001_Node000005" class="edge">
<title>Node1&#45;&gt;Node5</title>
<g id="a_edge4_Node000001_Node000005"><a xlink:title=" ">
<path fill="none" stroke="#63b8ff" d="M62.21,-203.5C76.81,-203.5 94.47,-203.5 109.88,-203.5"/>
<polygon fill="#63b8ff" stroke="#63b8ff" points="110.12,-207 120.12,-203.5 110.12,-200 110.12,-207"/>
</a>
</g>
</g>
<!-- Node15 -->
<g id="Node000015" class="node">
<title>Node15</title>
<g id="a_Node000015"><a xlink:href="ft__strdup_8c.html#aebe73f27c70c56ac5053f860ef5436c9" target="_top" xlink:title="Duplicates a null&#45;terminated string by allocating memory.">
<polygon fill="white" stroke="#666666" points="177.5,-176 118.5,-176 118.5,-157 177.5,-157 177.5,-176"/>
<text text-anchor="middle" x="148" y="-164" font-family="Helvetica,sans-Serif" font-size="10.00">ft_strdup</text>
</a>
</g>
</g>
<!-- Node1&#45;&gt;Node15 -->
<g id="edge19_Node000001_Node000015" class="edge">
<title>Node1&#45;&gt;Node15</title>
<g id="a_edge19_Node000001_Node000015"><a xlink:title=" ">
<path fill="none" stroke="#63b8ff" d="M61.62,-193.97C75.92,-189.37 93.26,-183.79 108.57,-178.87"/>
<polygon fill="#63b8ff" stroke="#63b8ff" points="109.83,-182.14 118.28,-175.74 107.69,-175.47 109.83,-182.14"/>
</a>
</g>
</g>
<!-- Node3 -->
<g id="Node000003" class="node">
<title>Node3</title>
<g id="a_Node000003"><a xlink:href="ft__strlen_8c.html#a828402378653640f545a4be2e00e92f9" target="_top" xlink:title="Calculates the length of a null&#45;terminated string.">
<polygon fill="white" stroke="#666666" points="303.5,-288 247.5,-288 247.5,-269 303.5,-269 303.5,-288"/>
<text text-anchor="middle" x="275.5" y="-276" font-family="Helvetica,sans-Serif" font-size="10.00">ft_strlen</text>
</a>
</g>
</g>
<!-- Node2&#45;&gt;Node3 -->
<g id="edge2_Node000002_Node000003" class="edge">
<title>Node2&#45;&gt;Node3</title>
<g id="a_edge2_Node000002_Node000003"><a xlink:title=" ">
<path fill="none" stroke="#63b8ff" d="M181.32,-251.03C198.44,-256.08 219.55,-262.3 237.34,-267.55"/>
<polygon fill="#63b8ff" stroke="#63b8ff" points="236.8,-271.03 247.38,-270.51 238.78,-264.32 236.8,-271.03"/>
</a>
</g>
</g>
<!-- Node4 -->
<g id="Node000004" class="node">
<title>Node4</title>
<g id="a_Node000004"><a xlink:href="ft__strncmp_8c.html#a9d2fe792187aa4ed08e5864fb2c4d6dc" target="_top" xlink:title="Compares up to n characters of two strings.">
<polygon fill="white" stroke="#666666" points="309.5,-251 241.5,-251 241.5,-232 309.5,-232 309.5,-251"/>
<text text-anchor="middle" x="275.5" y="-239" font-family="Helvetica,sans-Serif" font-size="10.00">ft_strncmp</text>
</a>
</g>
</g>
<!-- Node2&#45;&gt;Node4 -->
<g id="edge3_Node000002_Node000004" class="edge">
<title>Node2&#45;&gt;Node4</title>
<g id="a_edge3_Node000002_Node000004"><a xlink:title=" ">
<path fill="none" stroke="#63b8ff" d="M198.24,-241.5C209.06,-241.5 220.43,-241.5 231,-241.5"/>
<polygon fill="#63b8ff" stroke="#63b8ff" points="231.26,-245 241.26,-241.5 231.26,-238 231.26,-245"/>
</a>
</g>
</g>
<!-- Node6 -->
<g id="Node000006" class="node">
<title>Node6</title>
<g id="a_Node000006"><a xlink:href="ft__printf_8c.html#a80c1c206dcd33d07c265581878aaa300" target="_top" xlink:title="Processes a single format specifier and prints the corresponding argument.">
<polygon fill="white" stroke="#666666" points="317,-148 234,-148 234,-129 317,-129 317,-148"/>
<text text-anchor="middle" x="275.5" y="-136" font-family="Helvetica,sans-Serif" font-size="10.00">check_format</text>
</a>
</g>
</g>
<!-- Node5&#45;&gt;Node6 -->
<g id="edge5_Node000005_Node000006" class="edge">
<title>Node5&#45;&gt;Node6</title>
<g id="a_edge5_Node000005_Node000006"><a xlink:title=" ">
<path fill="none" stroke="#63b8ff" d="M175.59,-194.82C182.97,-192.12 190.91,-188.94 198,-185.5 217.05,-176.26 237.42,-163.6 252.34,-153.74"/>
<polygon fill="#63b8ff" stroke="#63b8ff" points="254.52,-156.5 260.87,-148.03 250.62,-150.69 254.52,-156.5"/>
</a>
</g>
</g>
<!-- Node10 -->
<g id="Node000010" class="node">
<title>Node10</title>
<g id="a_Node000010"><a xlink:href="ft__putchar__fd_8c.html#a03ef80b25dc4a521379fa92ad97bad21" target="_top" xlink:title="Writes a single character to the specified file descriptor.">
<polygon fill="white" stroke="#666666" points="448,-240 368,-240 368,-221 448,-221 448,-240"/>
<text text-anchor="middle" x="408" y="-228" font-family="Helvetica,sans-Serif" font-size="10.00">ft_putchar_fd</text>
</a>
</g>
</g>
<!-- Node5&#45;&gt;Node10 -->
<g id="edge18_Node000005_Node000010" class="edge">
<title>Node5&#45;&gt;Node10</title>
<g id="a_edge18_Node000005_Node000010"><a xlink:title=" ">
<path fill="none" stroke="#63b8ff" d="M175.64,-206.29C218.58,-210.78 303.74,-219.69 357.9,-225.36"/>
<polygon fill="#63b8ff" stroke="#63b8ff" points="357.66,-228.86 367.97,-226.42 358.39,-221.89 357.66,-228.86"/>
</a>
</g>
</g>
<!-- Node7 -->
<g id="Node000007" class="node">
<title>Node7</title>
<g id="a_Node000007"><a xlink:href="ft__forpointer_8c.html#a8e02c77b80406af72327ebf71f537786" target="_top" xlink:title="Prints a pointer in hexadecimal format prefixed with &quot;0x&quot;.">
<polygon fill="white" stroke="#666666" points="446.5,-203 369.5,-203 369.5,-184 446.5,-184 446.5,-203"/>
<text text-anchor="middle" x="408" y="-191" font-family="Helvetica,sans-Serif" font-size="10.00">ft_forpointer</text>
</a>
</g>
</g>
<!-- Node6&#45;&gt;Node7 -->
<g id="edge6_Node000006_Node000007" class="edge">
<title>Node6&#45;&gt;Node7</title>
<g id="a_edge6_Node000006_Node000007"><a xlink:title=" ">
<path fill="none" stroke="#63b8ff" d="M294.75,-148.15C310.06,-156.05 332.64,-167.22 353,-175.5 357.4,-177.29 362.06,-179.04 366.71,-180.71"/>
<polygon fill="#63b8ff" stroke="#63b8ff" points="365.6,-184.03 376.19,-183.99 367.89,-177.41 365.6,-184.03"/>
</a>
</g>
</g>
<!-- Node9 -->
<g id="Node000009" class="node">
<title>Node9</title>
<g id="a_Node000009"><a xlink:href="ft__hexadecimal_8c.html#a39c845e0a4286d3ac1e04c1e64ac734b" target="_top" xlink:title="Prints an unsigned integer in hexadecimal format.">
<polygon fill="white" stroke="#666666" points="454,-148 362,-148 362,-129 454,-129 454,-148"/>
<text text-anchor="middle" x="408" y="-136" font-family="Helvetica,sans-Serif" font-size="10.00">ft_hexadecimal</text>
</a>
</g>
</g>
<!-- Node6&#45;&gt;Node9 -->
<g id="edge9_Node000006_Node000009" class="edge">
<title>Node6&#45;&gt;Node9</title>
<g id="a_edge9_Node000006_Node000009"><a xlink:title=" ">
<path fill="none" stroke="#63b8ff" d="M317.08,-138.5C328.07,-138.5 340.16,-138.5 351.82,-138.5"/>
<polygon fill="#63b8ff" stroke="#63b8ff" points="351.9,-142 361.9,-138.5 351.9,-135 351.9,-142"/>
</a>
</g>
</g>
<!-- Node6&#45;&gt;Node10 -->
<g id="edge11_Node000006_Node000010" class="edge">
<title>Node6&#45;&gt;Node10</title>
<g id="a_edge11_Node000006_Node000010"><a xlink:title=" ">
<path fill="none" stroke="#63b8ff" d="M283.94,-148.07C296.55,-163.69 323.61,-194.67 353,-212.5 355.66,-214.11 358.48,-215.6 361.39,-216.97"/>
<polygon fill="#63b8ff" stroke="#63b8ff" points="360.27,-220.3 370.85,-220.96 362.99,-213.85 360.27,-220.3"/>
</a>
</g>
</g>
<!-- Node11 -->
<g id="Node000011" class="node">
<title>Node11</title>
<g id="a_Node000011"><a xlink:href="ft__putnbr__fd_8c.html#a1554101ee350c316340c78e19faddaa8" target="_top" xlink:title="Writes an integer to a given file descriptor.">
<polygon fill="white" stroke="#666666" points="445.5,-93 370.5,-93 370.5,-74 445.5,-74 445.5,-93"/>
<text text-anchor="middle" x="408" y="-81" font-family="Helvetica,sans-Serif" font-size="10.00">ft_putnbr_fd</text>
</a>
</g>
</g>
<!-- Node6&#45;&gt;Node11 -->
<g id="edge12_Node000006_Node000011" class="edge">
<title>Node6&#45;&gt;Node11</title>
<g id="a_edge12_Node000006_Node000011"><a xlink:title=" ">
<path fill="none" stroke="#63b8ff" d="M299.23,-128.92C320.06,-120.14 351.13,-107.05 374.57,-97.17"/>
<polygon fill="#63b8ff" stroke="#63b8ff" points="376.24,-100.26 384.09,-93.16 373.52,-93.81 376.24,-100.26"/>
</a>
</g>
</g>
<!-- Node12 -->
<g id="Node000012" class="node">
<title>Node12</title>
<g id="a_Node000012"><a xlink:href="ft__putstr__fd_8c.html#a00b0638f31a75c7a30f77f33888bfb73" target="_top" xlink:title="Writes a null&#45;terminated string to the specified file descriptor.">
<polygon fill="white" stroke="#666666" points="444,-56 372,-56 372,-37 444,-37 444,-56"/>
<text text-anchor="middle" x="408" y="-44" font-family="Helvetica,sans-Serif" font-size="10.00">ft_putstr_fd</text>
</a>
</g>
</g>
<!-- Node6&#45;&gt;Node12 -->
<g id="edge14_Node000006_Node000012" class="edge">
<title>Node6&#45;&gt;Node12</title>
<g id="a_edge14_Node000006_Node000012"><a xlink:title=" ">
<path fill="none" stroke="#63b8ff" d="M284.42,-128.62C297.28,-113.15 324.21,-83.16 353,-65.5 356.34,-63.45 359.92,-61.59 363.61,-59.89"/>
<polygon fill="#63b8ff" stroke="#63b8ff" points="364.98,-63.11 372.87,-56.04 362.29,-56.65 364.98,-63.11"/>
</a>
</g>
</g>
<!-- Node13 -->
<g id="Node000013" class="node">
<title>Node13</title>
<g id="a_Node000013"><a xlink:href="ft__unsigned__putnbr_8c.html#af9a70f8607b40cf2a7706f9d3725b549" target="_top" xlink:title="Writes an unsigned integer to the given file descriptor.">
<polygon fill="white" stroke="#666666" points="463,-19 353,-19 353,0 463,0 463,-19"/>
<text text-anchor="middle" x="408" y="-7" font-family="Helvetica,sans-Serif" font-size="10.00">ft_unsigned_putnbr</text>
</a>
</g>
</g>
<!-- Node6&#45;&gt;Node13 -->
<g id="edge15_Node000006_Node000013" class="edge">
<title>Node6&#45;&gt;Node13</title>
<g id="a_edge15_Node000006_Node000013"><a xlink:title=" ">
<path fill="none" stroke="#63b8ff" d="M280.51,-128.93C289.94,-107.55 315.58,-55.62 353,-27.5 354.83,-26.13 356.77,-24.85 358.79,-23.67"/>
<polygon fill="#63b8ff" stroke="#63b8ff" points="360.61,-26.67 368,-19.09 357.49,-20.41 360.61,-26.67"/>
</a>
</g>
</g>
<!-- Node8 -->
<g id="Node000008" class="node">
<title>Node8</title>
<g id="a_Node000008"><a xlink:href="ft__forpointer_8c.html#aded1bf735c8a10e47396170d27c5b6aa" target="_top" xlink:title="Recursively prints a memory address in hexadecimal format.">
<polygon fill="white" stroke="#666666" points="609,-203 499,-203 499,-184 609,-184 609,-203"/>
<text text-anchor="middle" x="554" y="-191" font-family="Helvetica,sans-Serif" font-size="10.00">ft_ricorsive_pointer</text>
</a>
</g>
</g>
<!-- Node7&#45;&gt;Node8 -->
<g id="edge7_Node000007_Node000008" class="edge">
<title>Node7&#45;&gt;Node8</title>
<g id="a_edge7_Node000007_Node000008"><a xlink:title=" ">
<path fill="none" stroke="#63b8ff" d="M446.83,-193.5C459.64,-193.5 474.33,-193.5 488.61,-193.5"/>
<polygon fill="#63b8ff" stroke="#63b8ff" points="488.9,-197 498.9,-193.5 488.9,-190 488.9,-197"/>
</a>
</g>
</g>
<!-- Node8&#45;&gt;Node8 -->
<g id="edge8_Node000008_Node000008" class="edge">
<title>Node8&#45;&gt;Node8</title>
<g id="a_edge8_Node000008_Node000008"><a xlink:title=" ">
<path fill="none" stroke="#63b8ff" d="M531.5,-203.08C520.55,-211.73 528.05,-221 554,-221 570.62,-221 579.68,-217.2 581.16,-212.19"/>
<polygon fill="#63b8ff" stroke="#63b8ff" points="584.17,-210.39 576.5,-203.08 577.94,-213.58 584.17,-210.39"/>
</a>
</g>
</g>
<!-- Node9&#45;&gt;Node9 -->
<g id="edge10_Node000009_Node000009" class="edge">
<title>Node9&#45;&gt;Node9</title>
<g id="a_edge10_Node000009_Node000009"><a xlink:title=" ">
<path fill="none" stroke="#63b8ff" d="M387.65,-148.08C377.76,-156.73 384.54,-166 408,-166 423.03,-166 431.21,-162.2 432.55,-157.19"/>
<polygon fill="#63b8ff" stroke="#63b8ff" points="435.72,-155.69 428.35,-148.08 429.36,-158.63 435.72,-155.69"/>
</a>
</g>
</g>
<!-- Node11&#45;&gt;Node11 -->
<g id="edge13_Node000011_Node000011" class="edge">
<title>Node11&#45;&gt;Node11</title>
<g id="a_edge13_Node000011_Node000011"><a xlink:title=" ">
<path fill="none" stroke="#63b8ff" d="M387.65,-93.08C377.76,-101.73 384.54,-111 408,-111 423.03,-111 431.21,-107.2 432.55,-102.19"/>
<polygon fill="#63b8ff" stroke="#63b8ff" points="435.72,-100.69 428.35,-93.08 429.36,-103.63 435.72,-100.69"/>
</a>
</g>
</g>
<!-- Node14 -->
<g id="Node000014" class="node">
<title>Node14</title>
<g id="a_Node000014"><a xlink:href="ft__putnbr_8c.html#a2e51f80c9e46e52f4adf94617fb51ada" target="_top" xlink:title="Writes an integer to the standard output (stdout).">
<polygon fill="white" stroke="#666666" points="584,-19 524,-19 524,0 584,0 584,-19"/>
<text text-anchor="middle" x="554" y="-7" font-family="Helvetica,sans-Serif" font-size="10.00">ft_putnbr</text>
</a>
</g>
</g>
<!-- Node13&#45;&gt;Node14 -->
<g id="edge16_Node000013_Node000014" class="edge">
<title>Node13&#45;&gt;Node14</title>
<g id="a_edge16_Node000013_Node000014"><a xlink:title=" ">
<path fill="none" stroke="#63b8ff" d="M463.03,-9.5C479.76,-9.5 497.87,-9.5 513.43,-9.5"/>
<polygon fill="#63b8ff" stroke="#63b8ff" points="513.74,-13 523.74,-9.5 513.74,-6 513.74,-13"/>
</a>
</g>
</g>
<!-- Node14&#45;&gt;Node14 -->
<g id="edge17_Node000014_Node000014" class="edge">
<title>Node14&#45;&gt;Node14</title>
<g id="a_edge17_Node000014_Node000014"><a xlink:title=" ">
<path fill="none" stroke="#63b8ff" d="M531.5,-19.08C520.55,-27.73 528.05,-37 554,-37 570.62,-37 579.68,-33.2 581.16,-28.19"/>
<polygon fill="#63b8ff" stroke="#63b8ff" points="584.17,-26.39 576.5,-19.08 577.94,-29.58 584.17,-26.39"/>
</a>
</g>
</g>
</g>
</svg>
