<?xml version="1.0" encoding="UTF-8" standalone="no"?>
<!DOCTYPE svg PUBLIC "-//W3C//DTD SVG 1.1//EN"
 "http://www.w3.org/Graphics/SVG/1.1/DTD/svg11.dtd">
<!-- Generated by graphviz version 2.43.0 (0)
 -->
<!-- Title: ft_putline Pages: 1 -->
<svg width="272pt" height="119pt"
 viewBox="0.00 0.00 272.00 119.00" xmlns="http://www.w3.org/2000/svg" xmlns:xlink="http://www.w3.org/1999/xlink">
<g id="graph0" class="graph" transform="scale(1 1) rotate(0) translate(4 115)">
<title>ft_putline</title>
<!-- Node1 -->
<g id="Node000001" class="node">
<title>Node1</title>
<g id="a_Node000001"><a xlink:title=" ">
<polygon fill="#999999" stroke="#666666" points="62,-74 0,-74 0,-55 62,-55 62,-74"/>
<text text-anchor="middle" x="31" y="-62" font-family="Helvetica,sans-Serif" font-size="10.00">ft_putline</text>
</a>
</g>
</g>
<!-- Node2 -->
<g id="Node000002" class="node">
<title>Node2</title>
<g id="a_Node000002"><a xlink:href="ft__strchr_8c.html#aa6d0c2d180f32ee585485e1a1ce3d55d" target="_top" xlink:title="Locates the first occurrence of a character in a string.">
<polygon fill="white" stroke="#666666" points="155.5,-111 99.5,-111 99.5,-92 155.5,-92 155.5,-111"/>
<text text-anchor="middle" x="127.5" y="-99" font-family="Helvetica,sans-Serif" font-size="10.00">ft_strchr</text>
</a>
</g>
</g>
<!-- Node1&#45;&gt;Node2 -->
<g id="edge1_Node000001_Node000002" class="edge">
<title>Node1&#45;&gt;Node2</title>
<g id="a_edge1_Node000001_Node000002"><a xlink:title=" ">
<path fill="none" stroke="#63b8ff" d="M56.34,-74.03C67.27,-78.31 80.37,-83.44 92.27,-88.1"/>
<polygon fill="#63b8ff" stroke="#63b8ff" points="91.33,-91.49 101.92,-91.88 93.88,-84.97 91.33,-91.49"/>
</a>
</g>
</g>
<!-- Node3 -->
<g id="Node000003" class="node">
<title>Node3</title>
<g id="a_Node000003"><a xlink:href="ft__strdup_8c.html#aebe73f27c70c56ac5053f860ef5436c9" target="_top" xlink:title="Duplicates a null&#45;terminated string by allocating memory.">
<polygon fill="white" stroke="#666666" points="157,-74 98,-74 98,-55 157,-55 157,-74"/>
<text text-anchor="middle" x="127.5" y="-62" font-family="Helvetica,sans-Serif" font-size="10.00">ft_strdup</text>
</a>
</g>
</g>
<!-- Node1&#45;&gt;Node3 -->
<g id="edge2_Node000001_Node000003" class="edge">
<title>Node1&#45;&gt;Node3</title>
<g id="a_edge2_Node000001_Node000003"><a xlink:title=" ">
<path fill="none" stroke="#63b8ff" d="M62.16,-64.5C70.3,-64.5 79.22,-64.5 87.76,-64.5"/>
<polygon fill="#63b8ff" stroke="#63b8ff" points="87.91,-68 97.91,-64.5 87.91,-61 87.91,-68"/>
</a>
</g>
</g>
<!-- Node4 -->
<g id="Node000004" class="node">
<title>Node4</title>
<g id="a_Node000004"><a xlink:href="ft__strjoin_8c.html#a91e6e3e428bcc9f2291b700e1829b82b" target="_top" xlink:title="Concatenates two strings into a newly allocated string.">
<polygon fill="white" stroke="#666666" points="157,-37 98,-37 98,-18 157,-18 157,-37"/>
<text text-anchor="middle" x="127.5" y="-25" font-family="Helvetica,sans-Serif" font-size="10.00">ft_strjoin</text>
</a>
</g>
</g>
<!-- Node1&#45;&gt;Node4 -->
<g id="edge3_Node000001_Node000004" class="edge">
<title>Node1&#45;&gt;Node4</title>
<g id="a_edge3_Node000001_Node000004"><a xlink:title=" ">
<path fill="none" stroke="#63b8ff" d="M56.34,-54.97C67.27,-50.69 80.37,-45.56 92.27,-40.9"/>
<polygon fill="#63b8ff" stroke="#63b8ff" points="93.88,-44.03 101.92,-37.12 91.33,-37.51 93.88,-44.03"/>
</a>
</g>
</g>
<!-- Node5 -->
<g id="Node000005" class="node">
<title>Node5</title>
<g id="a_Node000005"><a xlink:href="ft__memcpy_8c.html#a41a6f05af30cf85ff63a08e383826322" target="_top" xlink:title="Copies &#39;n&#39; bytes from memory area &#39;src&#39; to memory area &#39;dest&#39;.">
<polygon fill="white" stroke="#666666" points="264,-56 193,-56 193,-37 264,-37 264,-56"/>
<text text-anchor="middle" x="228.5" y="-44" font-family="Helvetica,sans-Serif" font-size="10.00">ft_memcpy</text>
</a>
</g>
</g>
<!-- Node4&#45;&gt;Node5 -->
<g id="edge4_Node000004_Node000005" class="edge">
<title>Node4&#45;&gt;Node5</title>
<g id="a_edge4_Node000004_Node000005"><a xlink:title=" ">
<path fill="none" stroke="#63b8ff" d="M157.13,-33C165.18,-34.54 174.12,-36.26 182.87,-37.93"/>
<polygon fill="#63b8ff" stroke="#63b8ff" points="182.49,-41.42 192.97,-39.87 183.8,-34.55 182.49,-41.42"/>
</a>
</g>
</g>
<!-- Node6 -->
<g id="Node000006" class="node">
<title>Node6</title>
<g id="a_Node000006"><a xlink:href="ft__strlen_8c.html#a828402378653640f545a4be2e00e92f9" target="_top" xlink:title="Calculates the length of a null&#45;terminated string.">
<polygon fill="white" stroke="#666666" points="256.5,-19 200.5,-19 200.5,0 256.5,0 256.5,-19"/>
<text text-anchor="middle" x="228.5" y="-7" font-family="Helvetica,sans-Serif" font-size="10.00">ft_strlen</text>
</a>
</g>
</g>
<!-- Node4&#45;&gt;Node6 -->
<g id="edge5_Node000004_Node000006" class="edge">
<title>Node4&#45;&gt;Node6</title>
<g id="a_edge5_Node000004_Node000006"><a xlink:title=" ">
<path fill="none" stroke="#63b8ff" d="M157.13,-22.29C167.43,-20.42 179.21,-18.28 190.14,-16.29"/>
<polygon fill="#63b8ff" stroke="#63b8ff" points="191.08,-19.68 200.29,-14.45 189.83,-12.79 191.08,-19.68"/>
</a>
</g>
</g>
</g>
</svg>
