<?xml version="1.0" encoding="UTF-8" standalone="no"?>
<!DOCTYPE svg PUBLIC "-//W3C//DTD SVG 1.1//EN"
 "http://www.w3.org/Graphics/SVG/1.1/DTD/svg11.dtd">
<!-- Generated by graphviz version 2.43.0 (0)
 -->
<!-- Title: ft_found_delimiter Pages: 1 -->
<svg width="1340pt" height="38pt"
 viewBox="0.00 0.00 1340.00 38.00" xmlns="http://www.w3.org/2000/svg" xmlns:xlink="http://www.w3.org/1999/xlink">
<g id="graph0" class="graph" transform="scale(1 1) rotate(0) translate(4 34)">
<title>ft_found_delimiter</title>
<!-- Node1 -->
<g id="Node000001" class="node">
<title>Node1</title>
<g id="a_Node000001"><a xlink:title="Returns the value of the token used as the here&#45;document delimiter.">
<polygon fill="#999999" stroke="#666666" points="1332,-24.5 1226,-24.5 1226,-5.5 1332,-5.5 1332,-24.5"/>
<text text-anchor="middle" x="1279" y="-12.5" font-family="Helvetica,sans-Serif" font-size="10.00">ft_found_delimiter</text>
</a>
</g>
</g>
<!-- Node2 -->
<g id="Node000002" class="node">
<title>Node2</title>
<g id="a_Node000002"><a xlink:href="handle__heredoc_8c.html#ac5ba13b1edbd22e4a7e0a50fc91f80db" target="_top" xlink:title="Executes a single read&#45;write cycle of the here&#45;document.">
<polygon fill="white" stroke="#666666" points="1190,-24.5 1100,-24.5 1100,-5.5 1190,-5.5 1190,-24.5"/>
<text text-anchor="middle" x="1145" y="-12.5" font-family="Helvetica,sans-Serif" font-size="10.00">ft_exe_heredoc</text>
</a>
</g>
</g>
<!-- Node1&#45;&gt;Node2 -->
<g id="edge1_Node000001_Node000002" class="edge">
<title>Node1&#45;&gt;Node2</title>
<g id="a_edge1_Node000001_Node000002"><a xlink:title=" ">
<path fill="none" stroke="#63b8ff" d="M1215.75,-15C1207.09,-15 1198.35,-15 1190.13,-15"/>
<polygon fill="#63b8ff" stroke="#63b8ff" points="1215.83,-18.5 1225.83,-15 1215.83,-11.5 1215.83,-18.5"/>
</a>
</g>
</g>
<!-- Node3 -->
<g id="Node000003" class="node">
<title>Node3</title>
<g id="a_Node000003"><a xlink:href="handle__heredoc_8c.html#a922eae1c49290306f7cf811bf65d9ed1" target="_top" xlink:title="Handles the entire input process for a here&#45;document.">
<polygon fill="white" stroke="#666666" points="1064,-24.5 970,-24.5 970,-5.5 1064,-5.5 1064,-24.5"/>
<text text-anchor="middle" x="1017" y="-12.5" font-family="Helvetica,sans-Serif" font-size="10.00">handle_heredoc</text>
</a>
</g>
</g>
<!-- Node2&#45;&gt;Node3 -->
<g id="edge2_Node000002_Node000003" class="edge">
<title>Node2&#45;&gt;Node3</title>
<g id="a_edge2_Node000002_Node000003"><a xlink:title=" ">
<path fill="none" stroke="#63b8ff" d="M1089.77,-15C1081.32,-15 1072.65,-15 1064.4,-15"/>
<polygon fill="#63b8ff" stroke="#63b8ff" points="1089.93,-18.5 1099.93,-15 1089.93,-11.5 1089.93,-18.5"/>
</a>
</g>
</g>
<!-- Node4 -->
<g id="Node000004" class="node">
<title>Node4</title>
<g id="a_Node000004"><a xlink:href="handle__redirections_8c.html#a2834314002a1f4ef4af82f95159b0a34" target="_top" xlink:title="Handles input redirection from file or heredoc.">
<polygon fill="white" stroke="#666666" points="934,-24.5 815,-24.5 815,-5.5 934,-5.5 934,-24.5"/>
<text text-anchor="middle" x="874.5" y="-12.5" font-family="Helvetica,sans-Serif" font-size="10.00">ft_handle_infile_redir</text>
</a>
</g>
</g>
<!-- Node3&#45;&gt;Node4 -->
<g id="edge3_Node000003_Node000004" class="edge">
<title>Node3&#45;&gt;Node4</title>
<g id="a_edge3_Node000003_Node000004"><a xlink:title=" ">
<path fill="none" stroke="#63b8ff" d="M959.86,-15C951.41,-15 942.67,-15 934.17,-15"/>
<polygon fill="#63b8ff" stroke="#63b8ff" points="960,-18.5 970,-15 960,-11.5 960,-18.5"/>
</a>
</g>
</g>
<!-- Node5 -->
<g id="Node000005" class="node">
<title>Node5</title>
<g id="a_Node000005"><a xlink:href="handle__redirections_8c.html#aa4509a43f47ed881eb2d81fb81458466" target="_top" xlink:title="Handles redirections without an associated command.">
<polygon fill="white" stroke="#666666" points="779,-30 666,-30 666,0 779,0 779,-30"/>
<text text-anchor="start" x="674" y="-18" font-family="Helvetica,sans-Serif" font-size="10.00">handle_redirection</text>
<text text-anchor="middle" x="722.5" y="-7" font-family="Helvetica,sans-Serif" font-size="10.00">_without_command</text>
</a>
</g>
</g>
<!-- Node4&#45;&gt;Node5 -->
<g id="edge4_Node000004_Node000005" class="edge">
<title>Node4&#45;&gt;Node5</title>
<g id="a_edge4_Node000004_Node000005"><a xlink:title=" ">
<path fill="none" stroke="#63b8ff" d="M804.43,-15C795.99,-15 787.45,-15 779.24,-15"/>
<polygon fill="#63b8ff" stroke="#63b8ff" points="804.65,-18.5 814.65,-15 804.65,-11.5 804.65,-18.5"/>
</a>
</g>
</g>
<!-- Node6 -->
<g id="Node000006" class="node">
<title>Node6</title>
<g id="a_Node000006"><a xlink:href="handle__redirections_8c.html#ab2c37fefb1291d3f8d0dc91e8c096334" target="_top" xlink:title="Handles redirection associated with a command.">
<polygon fill="white" stroke="#666666" points="630,-24.5 523,-24.5 523,-5.5 630,-5.5 630,-24.5"/>
<text text-anchor="middle" x="576.5" y="-12.5" font-family="Helvetica,sans-Serif" font-size="10.00">handle_redirection</text>
</a>
</g>
</g>
<!-- Node5&#45;&gt;Node6 -->
<g id="edge5_Node000005_Node000006" class="edge">
<title>Node5&#45;&gt;Node6</title>
<g id="a_edge5_Node000005_Node000006"><a xlink:title=" ">
<path fill="none" stroke="#63b8ff" d="M655.55,-15C647.05,-15 638.44,-15 630.19,-15"/>
<polygon fill="#63b8ff" stroke="#63b8ff" points="655.83,-18.5 665.83,-15 655.83,-11.5 655.83,-18.5"/>
</a>
</g>
</g>
<!-- Node7 -->
<g id="Node000007" class="node">
<title>Node7</title>
<g id="a_Node000007"><a xlink:href="create__command__list_8c.html#ae2006bf82a70d4753ffdca65847316ca" target="_top" xlink:title="Executes a redirection for the current command.">
<polygon fill="white" stroke="#666666" points="487,-24.5 413,-24.5 413,-5.5 487,-5.5 487,-24.5"/>
<text text-anchor="middle" x="450" y="-12.5" font-family="Helvetica,sans-Serif" font-size="10.00">ft_exe_redir</text>
</a>
</g>
</g>
<!-- Node6&#45;&gt;Node7 -->
<g id="edge6_Node000006_Node000007" class="edge">
<title>Node6&#45;&gt;Node7</title>
<g id="a_edge6_Node000006_Node000007"><a xlink:title=" ">
<path fill="none" stroke="#63b8ff" d="M512.56,-15C503.9,-15 495.25,-15 487.3,-15"/>
<polygon fill="#63b8ff" stroke="#63b8ff" points="512.7,-18.5 522.7,-15 512.7,-11.5 512.7,-18.5"/>
</a>
</g>
</g>
<!-- Node8 -->
<g id="Node000008" class="node">
<title>Node8</title>
<g id="a_Node000008"><a xlink:href="create__command__list_8c.html#ad16d74756b107a98677124008c71d23b" target="_top" xlink:title="Creates a command list from tokens.">
<polygon fill="white" stroke="#666666" points="377,-24.5 309,-24.5 309,-5.5 377,-5.5 377,-24.5"/>
<text text-anchor="middle" x="343" y="-12.5" font-family="Helvetica,sans-Serif" font-size="10.00">create_list</text>
</a>
</g>
</g>
<!-- Node7&#45;&gt;Node8 -->
<g id="edge7_Node000007_Node000008" class="edge">
<title>Node7&#45;&gt;Node8</title>
<g id="a_edge7_Node000007_Node000008"><a xlink:title=" ">
<path fill="none" stroke="#63b8ff" d="M402.83,-15C394.14,-15 385.22,-15 377.03,-15"/>
<polygon fill="#63b8ff" stroke="#63b8ff" points="402.86,-18.5 412.86,-15 402.86,-11.5 402.86,-18.5"/>
</a>
</g>
</g>
<!-- Node9 -->
<g id="Node000009" class="node">
<title>Node9</title>
<g id="a_Node000009"><a xlink:href="main__utils_8c.html#a7e8f478480ab6ab34d6f5eadaf6acdb9" target="_top" xlink:title="Handles parsing and execution of tokens.">
<polygon fill="white" stroke="#666666" points="273,-24.5 192,-24.5 192,-5.5 273,-5.5 273,-24.5"/>
<text text-anchor="middle" x="232.5" y="-12.5" font-family="Helvetica,sans-Serif" font-size="10.00">ft_token_flow</text>
</a>
</g>
</g>
<!-- Node8&#45;&gt;Node9 -->
<g id="edge8_Node000008_Node000009" class="edge">
<title>Node8&#45;&gt;Node9</title>
<g id="a_edge8_Node000008_Node000009"><a xlink:title=" ">
<path fill="none" stroke="#63b8ff" d="M298.83,-15C290.41,-15 281.62,-15 273.31,-15"/>
<polygon fill="#63b8ff" stroke="#63b8ff" points="298.86,-18.5 308.86,-15 298.86,-11.5 298.86,-18.5"/>
</a>
</g>
</g>
<!-- Node10 -->
<g id="Node000010" class="node">
<title>Node10</title>
<g id="a_Node000010"><a xlink:href="main__utils_8c.html#ae35edfb8f1339d6f77f53c28eb2a2ed6" target="_top" xlink:title="Handles a complete cycle of input → parsing → execution.">
<polygon fill="white" stroke="#666666" points="156,-24.5 77,-24.5 77,-5.5 156,-5.5 156,-24.5"/>
<text text-anchor="middle" x="116.5" y="-12.5" font-family="Helvetica,sans-Serif" font-size="10.00">ft_main_flow</text>
</a>
</g>
</g>
<!-- Node9&#45;&gt;Node10 -->
<g id="edge9_Node000009_Node000010" class="edge">
<title>Node9&#45;&gt;Node10</title>
<g id="a_edge9_Node000009_Node000010"><a xlink:title=" ">
<path fill="none" stroke="#63b8ff" d="M181.7,-15C173.16,-15 164.4,-15 156.21,-15"/>
<polygon fill="#63b8ff" stroke="#63b8ff" points="181.95,-18.5 191.95,-15 181.95,-11.5 181.95,-18.5"/>
</a>
</g>
</g>
<!-- Node11 -->
<g id="Node000011" class="node">
<title>Node11</title>
<g id="a_Node000011"><a xlink:href="main_8c.html#ab3862b46d6a8d13c2d884a297e6b05b5" target="_top" xlink:title="Main function of the minishell.">
<polygon fill="white" stroke="#666666" points="41,-24.5 0,-24.5 0,-5.5 41,-5.5 41,-24.5"/>
<text text-anchor="middle" x="20.5" y="-12.5" font-family="Helvetica,sans-Serif" font-size="10.00">main</text>
</a>
</g>
</g>
<!-- Node10&#45;&gt;Node11 -->
<g id="edge10_Node000010_Node000011" class="edge">
<title>Node10&#45;&gt;Node11</title>
<g id="a_edge10_Node000010_Node000011"><a xlink:title=" ">
<path fill="none" stroke="#63b8ff" d="M66.74,-15C57.62,-15 48.59,-15 41.03,-15"/>
<polygon fill="#63b8ff" stroke="#63b8ff" points="67,-18.5 77,-15 67,-11.5 67,-18.5"/>
</a>
</g>
</g>
</g>
</svg>
