<?xml version="1.0" encoding="UTF-8" standalone="no"?>
<!DOCTYPE svg PUBLIC "-//W3C//DTD SVG 1.1//EN"
 "http://www.w3.org/Graphics/SVG/1.1/DTD/svg11.dtd">
<!-- Generated by graphviz version 2.43.0 (0)
 -->
<!-- Title: handle_word Pages: 1 -->
<svg width="438pt" height="177pt"
 viewBox="0.00 0.00 438.00 177.00" xmlns="http://www.w3.org/2000/svg" xmlns:xlink="http://www.w3.org/1999/xlink">
<g id="graph0" class="graph" transform="scale(1 1) rotate(0) translate(4 173)">
<title>handle_word</title>
<!-- Node1 -->
<g id="Node000001" class="node">
<title>Node1</title>
<g id="a_Node000001"><a xlink:title="Handles creation of a normal token (words, commands, arguments).">
<polygon fill="#999999" stroke="#666666" points="79,-112 0,-112 0,-93 79,-93 79,-112"/>
<text text-anchor="middle" x="39.5" y="-100" font-family="Helvetica,sans-Serif" font-size="10.00">handle_word</text>
</a>
</g>
</g>
<!-- Node2 -->
<g id="Node000002" class="node">
<title>Node2</title>
<g id="a_Node000002"><a xlink:href="utils__token_8c.html#a44faf9bdbfed1c7003733fff20cd6930" target="_top" xlink:title="Adds a token to the end of the linked list of tokens.">
<polygon fill="white" stroke="#666666" points="194.5,-169 127.5,-169 127.5,-150 194.5,-150 194.5,-169"/>
<text text-anchor="middle" x="161" y="-157" font-family="Helvetica,sans-Serif" font-size="10.00">add_token</text>
</a>
</g>
</g>
<!-- Node1&#45;&gt;Node2 -->
<g id="edge1_Node000001_Node000002" class="edge">
<title>Node1&#45;&gt;Node2</title>
<g id="a_edge1_Node000001_Node000002"><a xlink:title=" ">
<path fill="none" stroke="#63b8ff" d="M60.5,-112.04C79.72,-121.21 108.97,-135.16 130.79,-145.57"/>
<polygon fill="#63b8ff" stroke="#63b8ff" points="129.4,-148.78 139.93,-149.93 132.41,-142.46 129.4,-148.78"/>
</a>
</g>
</g>
<!-- Node3 -->
<g id="Node000003" class="node">
<title>Node3</title>
<g id="a_Node000003"><a xlink:href="utils__token_8c.html#ab94cb586647a70372e436ef3214797ad" target="_top" xlink:title="Creates a new token node.">
<polygon fill="white" stroke="#666666" points="323.5,-150 254.5,-150 254.5,-131 323.5,-131 323.5,-150"/>
<text text-anchor="middle" x="289" y="-138" font-family="Helvetica,sans-Serif" font-size="10.00">new_token</text>
</a>
</g>
</g>
<!-- Node1&#45;&gt;Node3 -->
<g id="edge9_Node000001_Node000003" class="edge">
<title>Node1&#45;&gt;Node3</title>
<g id="a_edge9_Node000001_Node000003"><a xlink:title=" ">
<path fill="none" stroke="#63b8ff" d="M79.17,-108.44C123.92,-115.31 197.42,-126.59 244.23,-133.78"/>
<polygon fill="#63b8ff" stroke="#63b8ff" points="243.95,-137.28 254.36,-135.34 245.01,-130.36 243.95,-137.28"/>
</a>
</g>
</g>
<!-- Node5 -->
<g id="Node000005" class="node">
<title>Node5</title>
<g id="a_Node000005"><a xlink:href="ft__isspace_8c.html#ac7978b309e3e11366ba16643e447528c" target="_top" xlink:title="Checks whether a character is a whitespace character.">
<polygon fill="white" stroke="#666666" points="193.5,-93 128.5,-93 128.5,-74 193.5,-74 193.5,-93"/>
<text text-anchor="middle" x="161" y="-81" font-family="Helvetica,sans-Serif" font-size="10.00">ft_isspace</text>
</a>
</g>
</g>
<!-- Node1&#45;&gt;Node5 -->
<g id="edge4_Node000001_Node000005" class="edge">
<title>Node1&#45;&gt;Node5</title>
<g id="a_edge4_Node000001_Node000005"><a xlink:title=" ">
<path fill="none" stroke="#63b8ff" d="M79.3,-96.33C91.65,-94.37 105.37,-92.19 117.94,-90.19"/>
<polygon fill="#63b8ff" stroke="#63b8ff" points="118.85,-93.59 128.18,-88.56 117.75,-86.67 118.85,-93.59"/>
</a>
</g>
</g>
<!-- Node6 -->
<g id="Node000006" class="node">
<title>Node6</title>
<g id="a_Node000006"><a xlink:href="utils__token_8c.html#a611ee3ce2706d68aa376e8222614c6eb" target="_top" xlink:title="Determines the token type based on the value, quote flag, and command flag.">
<polygon fill="white" stroke="#666666" points="207,-56 115,-56 115,-37 207,-37 207,-56"/>
<text text-anchor="middle" x="161" y="-44" font-family="Helvetica,sans-Serif" font-size="10.00">get_token_type</text>
</a>
</g>
</g>
<!-- Node1&#45;&gt;Node6 -->
<g id="edge5_Node000001_Node000006" class="edge">
<title>Node1&#45;&gt;Node6</title>
<g id="a_edge5_Node000001_Node000006"><a xlink:title=" ">
<path fill="none" stroke="#63b8ff" d="M58.04,-92.98C73,-85 95.17,-73.5 115,-64.5 118.42,-62.95 122.01,-61.39 125.62,-59.88"/>
<polygon fill="#63b8ff" stroke="#63b8ff" points="127.15,-63.03 135.07,-56 124.49,-56.56 127.15,-63.03"/>
</a>
</g>
</g>
<!-- Node2&#45;&gt;Node3 -->
<g id="edge2_Node000002_Node000003" class="edge">
<title>Node2&#45;&gt;Node3</title>
<g id="a_edge2_Node000002_Node000003"><a xlink:title=" ">
<path fill="none" stroke="#63b8ff" d="M194.78,-154.56C209.73,-152.3 227.66,-149.6 243.78,-147.17"/>
<polygon fill="#63b8ff" stroke="#63b8ff" points="244.7,-150.57 254.07,-145.62 243.66,-143.65 244.7,-150.57"/>
</a>
</g>
</g>
<!-- Node4 -->
<g id="Node000004" class="node">
<title>Node4</title>
<g id="a_Node000004"><a xlink:href="ft__strdup_8c.html#aebe73f27c70c56ac5053f860ef5436c9" target="_top" xlink:title="Duplicates a null&#45;terminated string by allocating memory.">
<polygon fill="white" stroke="#666666" points="430,-150 371,-150 371,-131 430,-131 430,-150"/>
<text text-anchor="middle" x="400.5" y="-138" font-family="Helvetica,sans-Serif" font-size="10.00">ft_strdup</text>
</a>
</g>
</g>
<!-- Node3&#45;&gt;Node4 -->
<g id="edge3_Node000003_Node000004" class="edge">
<title>Node3&#45;&gt;Node4</title>
<g id="a_edge3_Node000003_Node000004"><a xlink:title=" ">
<path fill="none" stroke="#63b8ff" d="M323.75,-140.5C335.41,-140.5 348.58,-140.5 360.62,-140.5"/>
<polygon fill="#63b8ff" stroke="#63b8ff" points="360.85,-144 370.85,-140.5 360.85,-137 360.85,-144"/>
</a>
</g>
</g>
<!-- Node7 -->
<g id="Node000007" class="node">
<title>Node7</title>
<g id="a_Node000007"><a xlink:href="utils__token_8c.html#a51f971c32b38d16d3acd01a9f26a94c9" target="_top" xlink:title="Checks if the string contains the exit status variable &quot;$?&quot;.">
<polygon fill="white" stroke="#666666" points="335,-93 243,-93 243,-74 335,-74 335,-93"/>
<text text-anchor="middle" x="289" y="-81" font-family="Helvetica,sans-Serif" font-size="10.00">exit_status_var</text>
</a>
</g>
</g>
<!-- Node6&#45;&gt;Node7 -->
<g id="edge6_Node000006_Node000007" class="edge">
<title>Node6&#45;&gt;Node7</title>
<g id="a_edge6_Node000006_Node000007"><a xlink:title=" ">
<path fill="none" stroke="#63b8ff" d="M194.45,-56.03C209.91,-60.57 228.6,-66.06 245.2,-70.93"/>
<polygon fill="#63b8ff" stroke="#63b8ff" points="244.64,-74.42 255.22,-73.88 246.62,-67.7 244.64,-74.42"/>
</a>
</g>
</g>
<!-- Node8 -->
<g id="Node000008" class="node">
<title>Node8</title>
<g id="a_Node000008"><a xlink:href="utils__env_8c.html#a43ecaeb2991db8347a59f45f96e8a21f" target="_top" xlink:title="Checks if the string contains the character &#39;$&#39;, indicating an environment variable.">
<polygon fill="white" stroke="#666666" points="334.5,-56 243.5,-56 243.5,-37 334.5,-37 334.5,-56"/>
<text text-anchor="middle" x="289" y="-44" font-family="Helvetica,sans-Serif" font-size="10.00">ft_find_env_var</text>
</a>
</g>
</g>
<!-- Node6&#45;&gt;Node8 -->
<g id="edge7_Node000006_Node000008" class="edge">
<title>Node6&#45;&gt;Node8</title>
<g id="a_edge7_Node000006_Node000008"><a xlink:title=" ">
<path fill="none" stroke="#63b8ff" d="M207.13,-46.5C215.56,-46.5 224.45,-46.5 233.13,-46.5"/>
<polygon fill="#63b8ff" stroke="#63b8ff" points="233.18,-50 243.18,-46.5 233.18,-43 233.18,-50"/>
</a>
</g>
</g>
<!-- Node9 -->
<g id="Node000009" class="node">
<title>Node9</title>
<g id="a_Node000009"><a xlink:href="ft__strcmp_8c.html#a1f2ff2312e5994560c9537cd9173be94" target="_top" xlink:title="Compares two null&#45;terminated strings lexicographically.">
<polygon fill="white" stroke="#666666" points="320,-19 258,-19 258,0 320,0 320,-19"/>
<text text-anchor="middle" x="289" y="-7" font-family="Helvetica,sans-Serif" font-size="10.00">ft_strcmp</text>
</a>
</g>
</g>
<!-- Node6&#45;&gt;Node9 -->
<g id="edge8_Node000006_Node000009" class="edge">
<title>Node6&#45;&gt;Node9</title>
<g id="a_edge8_Node000006_Node000009"><a xlink:title=" ">
<path fill="none" stroke="#63b8ff" d="M194.45,-36.97C210.78,-32.17 230.73,-26.32 248.01,-21.24"/>
<polygon fill="#63b8ff" stroke="#63b8ff" points="249.22,-24.54 257.82,-18.36 247.24,-17.82 249.22,-24.54"/>
</a>
</g>
</g>
</g>
</svg>
