<?xml version="1.0" encoding="UTF-8" standalone="no"?>
<!DOCTYPE svg PUBLIC "-//W3C//DTD SVG 1.1//EN"
 "http://www.w3.org/Graphics/SVG/1.1/DTD/svg11.dtd">
<!-- Generated by graphviz version 2.43.0 (0)
 -->
<!-- Title: handle_word Pages: 1 -->
<svg width="491pt" height="27pt"
 viewBox="0.00 0.00 491.00 27.00" xmlns="http://www.w3.org/2000/svg" xmlns:xlink="http://www.w3.org/1999/xlink">
<g id="graph0" class="graph" transform="scale(1 1) rotate(0) translate(4 23)">
<title>handle_word</title>
<!-- Node1 -->
<g id="Node000001" class="node">
<title>Node1</title>
<g id="a_Node000001"><a xlink:title="Handles creation of a normal token (words, commands, arguments).">
<polygon fill="#999999" stroke="#666666" points="483,-19 404,-19 404,0 483,0 483,-19"/>
<text text-anchor="middle" x="443.5" y="-7" font-family="Helvetica,sans-Serif" font-size="10.00">handle_word</text>
</a>
</g>
</g>
<!-- Node2 -->
<g id="Node000002" class="node">
<title>Node2</title>
<g id="a_Node000002"><a xlink:href="tokenize__input_8c.html#a4ec55df7b6b0c546095f50475f610fb1" target="_top" xlink:title="Extracts and builds a single token from the user input.">
<polygon fill="white" stroke="#666666" points="368,-19 286,-19 286,0 368,0 368,-19"/>
<text text-anchor="middle" x="327" y="-7" font-family="Helvetica,sans-Serif" font-size="10.00">ft_get_tokens</text>
</a>
</g>
</g>
<!-- Node1&#45;&gt;Node2 -->
<g id="edge1_Node000001_Node000002" class="edge">
<title>Node1&#45;&gt;Node2</title>
<g id="a_edge1_Node000001_Node000002"><a xlink:title=" ">
<path fill="none" stroke="#63b8ff" d="M393.61,-9.5C385.16,-9.5 376.47,-9.5 368.29,-9.5"/>
<polygon fill="#63b8ff" stroke="#63b8ff" points="393.74,-13 403.74,-9.5 393.74,-6 393.74,-13"/>
</a>
</g>
</g>
<!-- Node3 -->
<g id="Node000003" class="node">
<title>Node3</title>
<g id="a_Node000003"><a xlink:href="tokenize__input_8c.html#a4e40c3f57ab2488a2b49f37846785b2e" target="_top" xlink:title="Tokenizes the entire user input string.">
<polygon fill="white" stroke="#666666" points="250,-19 192,-19 192,0 250,0 250,-19"/>
<text text-anchor="middle" x="221" y="-7" font-family="Helvetica,sans-Serif" font-size="10.00">tokenize</text>
</a>
</g>
</g>
<!-- Node2&#45;&gt;Node3 -->
<g id="edge2_Node000002_Node000003" class="edge">
<title>Node2&#45;&gt;Node3</title>
<g id="a_edge2_Node000002_Node000003"><a xlink:title=" ">
<path fill="none" stroke="#63b8ff" d="M275.61,-9.5C266.87,-9.5 258.06,-9.5 250.19,-9.5"/>
<polygon fill="#63b8ff" stroke="#63b8ff" points="275.79,-13 285.79,-9.5 275.79,-6 275.79,-13"/>
</a>
</g>
</g>
<!-- Node4 -->
<g id="Node000004" class="node">
<title>Node4</title>
<g id="a_Node000004"><a xlink:href="main__utils_8c.html#ae35edfb8f1339d6f77f53c28eb2a2ed6" target="_top" xlink:title="Handles a complete cycle of input → parsing → execution.">
<polygon fill="white" stroke="#666666" points="156,-19 77,-19 77,0 156,0 156,-19"/>
<text text-anchor="middle" x="116.5" y="-7" font-family="Helvetica,sans-Serif" font-size="10.00">ft_main_flow</text>
</a>
</g>
</g>
<!-- Node3&#45;&gt;Node4 -->
<g id="edge3_Node000003_Node000004" class="edge">
<title>Node3&#45;&gt;Node4</title>
<g id="a_edge3_Node000003_Node000004"><a xlink:title=" ">
<path fill="none" stroke="#63b8ff" d="M181.76,-9.5C173.42,-9.5 164.59,-9.5 156.23,-9.5"/>
<polygon fill="#63b8ff" stroke="#63b8ff" points="181.99,-13 191.99,-9.5 181.99,-6 181.99,-13"/>
</a>
</g>
</g>
<!-- Node5 -->
<g id="Node000005" class="node">
<title>Node5</title>
<g id="a_Node000005"><a xlink:href="main_8c.html#ab3862b46d6a8d13c2d884a297e6b05b5" target="_top" xlink:title="Main function of the minishell.">
<polygon fill="white" stroke="#666666" points="41,-19 0,-19 0,0 41,0 41,-19"/>
<text text-anchor="middle" x="20.5" y="-7" font-family="Helvetica,sans-Serif" font-size="10.00">main</text>
</a>
</g>
</g>
<!-- Node4&#45;&gt;Node5 -->
<g id="edge4_Node000004_Node000005" class="edge">
<title>Node4&#45;&gt;Node5</title>
<g id="a_edge4_Node000004_Node000005"><a xlink:title=" ">
<path fill="none" stroke="#63b8ff" d="M66.74,-9.5C57.62,-9.5 48.59,-9.5 41.03,-9.5"/>
<polygon fill="#63b8ff" stroke="#63b8ff" points="67,-13 77,-9.5 67,-6 67,-13"/>
</a>
</g>
</g>
</g>
</svg>
