<?xml version="1.0" encoding="UTF-8" standalone="no"?>
<!DOCTYPE svg PUBLIC "-//W3C//DTD SVG 1.1//EN"
 "http://www.w3.org/Graphics/SVG/1.1/DTD/svg11.dtd">
<!-- Generated by graphviz version 2.43.0 (0)
 -->
<!-- Title: handle_heredoc Pages: 1 -->
<svg width="909pt" height="715pt"
 viewBox="0.00 0.00 909.00 715.00" xmlns="http://www.w3.org/2000/svg" xmlns:xlink="http://www.w3.org/1999/xlink">
<g id="graph0" class="graph" transform="scale(1 1) rotate(0) translate(4 711)">
<title>handle_heredoc</title>
<!-- Node1 -->
<g id="Node000001" class="node">
<title>Node1</title>
<g id="a_Node000001"><a xlink:title="Handles the entire input process for a here&#45;document.">
<polygon fill="#999999" stroke="#666666" points="94,-358 0,-358 0,-339 94,-339 94,-358"/>
<text text-anchor="middle" x="47" y="-346" font-family="Helvetica,sans-Serif" font-size="10.00">handle_heredoc</text>
</a>
</g>
</g>
<!-- Node2 -->
<g id="Node000002" class="node">
<title>Node2</title>
<g id="a_Node000002"><a xlink:href="utils__fd_8c.html#a9cf70d06db18597b04bb642db7abab4a" target="_top" xlink:title="Checks if a file descriptor is valid.">
<polygon fill="white" stroke="#666666" points="211,-377 139,-377 139,-358 211,-358 211,-377"/>
<text text-anchor="middle" x="175" y="-365" font-family="Helvetica,sans-Serif" font-size="10.00">ft_check_fd</text>
</a>
</g>
</g>
<!-- Node1&#45;&gt;Node2 -->
<g id="edge1_Node000001_Node000002" class="edge">
<title>Node1&#45;&gt;Node2</title>
<g id="a_edge1_Node000001_Node000002"><a xlink:title=" ">
<path fill="none" stroke="#63b8ff" d="M94.2,-355.47C105.49,-357.17 117.56,-358.99 128.81,-360.69"/>
<polygon fill="#63b8ff" stroke="#63b8ff" points="128.45,-364.17 138.86,-362.2 129.49,-357.25 128.45,-364.17"/>
</a>
</g>
</g>
<!-- Node3 -->
<g id="Node000003" class="node">
<title>Node3</title>
<g id="a_Node000003"><a xlink:href="handle__heredoc_8c.html#ac5ba13b1edbd22e4a7e0a50fc91f80db" target="_top" xlink:title="Executes a single read&#45;write cycle of the here&#45;document.">
<polygon fill="white" stroke="#666666" points="220,-340 130,-340 130,-321 220,-321 220,-340"/>
<text text-anchor="middle" x="175" y="-328" font-family="Helvetica,sans-Serif" font-size="10.00">ft_exe_heredoc</text>
</a>
</g>
</g>
<!-- Node1&#45;&gt;Node3 -->
<g id="edge2_Node000001_Node000003" class="edge">
<title>Node1&#45;&gt;Node3</title>
<g id="a_edge2_Node000001_Node000003"><a xlink:title=" ">
<path fill="none" stroke="#63b8ff" d="M94.2,-341.9C102.58,-340.7 111.39,-339.44 119.97,-338.22"/>
<polygon fill="#63b8ff" stroke="#63b8ff" points="120.5,-341.68 129.9,-336.8 119.51,-334.75 120.5,-341.68"/>
</a>
</g>
</g>
<!-- Node4 -->
<g id="Node000004" class="node">
<title>Node4</title>
<g id="a_Node000004"><a xlink:href="redir__utils_8c.html#aff3d6a56d03d5df38cbb3e1f171eb191" target="_top" xlink:title="Expands environment variables in a line and writes the result to a file descriptor.">
<polygon fill="white" stroke="#666666" points="352,-519 266,-519 266,-500 352,-500 352,-519"/>
<text text-anchor="middle" x="309" y="-507" font-family="Helvetica,sans-Serif" font-size="10.00">ft_for_env_var</text>
</a>
</g>
</g>
<!-- Node3&#45;&gt;Node4 -->
<g id="edge3_Node000003_Node000004" class="edge">
<title>Node3&#45;&gt;Node4</title>
<g id="a_edge3_Node000003_Node000004"><a xlink:title=" ">
<path fill="none" stroke="#63b8ff" d="M208.15,-340.21C212.59,-342.66 216.74,-345.72 220,-349.5 260.8,-396.88 215.79,-437.62 256,-485.5 259.11,-489.21 262.92,-492.37 267.05,-495.07"/>
<polygon fill="#63b8ff" stroke="#63b8ff" points="265.41,-498.16 275.85,-499.96 268.82,-492.04 265.41,-498.16"/>
</a>
</g>
</g>
<!-- Node8 -->
<g id="Node000008" class="node">
<title>Node8</title>
<g id="a_Node000008"><a xlink:href="ft__strlen_8c.html#a828402378653640f545a4be2e00e92f9" target="_top" xlink:title="Calculates the length of a null&#45;terminated string.">
<polygon fill="white" stroke="#666666" points="893.5,-593 837.5,-593 837.5,-574 893.5,-574 893.5,-593"/>
<text text-anchor="middle" x="865.5" y="-581" font-family="Helvetica,sans-Serif" font-size="10.00">ft_strlen</text>
</a>
</g>
</g>
<!-- Node3&#45;&gt;Node8 -->
<g id="edge44_Node000003_Node000008" class="edge">
<title>Node3&#45;&gt;Node8</title>
<g id="a_edge44_Node000003_Node000008"><a xlink:title=" ">
<path fill="none" stroke="#63b8ff" d="M208.36,-340.04C212.77,-342.52 216.86,-345.62 220,-349.5 271.08,-412.56 211.09,-460.91 256,-528.5 313.37,-614.85 345.33,-659.5 449,-659.5 449,-659.5 449,-659.5 594,-659.5 684.74,-659.5 708.2,-648.03 794,-618.5 809.6,-613.13 826.16,-605.04 839.31,-598"/>
<polygon fill="#63b8ff" stroke="#63b8ff" points="841.14,-600.98 848.22,-593.1 837.77,-594.85 841.14,-600.98"/>
</a>
</g>
</g>
<!-- Node12 -->
<g id="Node000012" class="node">
<title>Node12</title>
<g id="a_Node000012"><a xlink:href="ft__strjoin_8c.html#a91e6e3e428bcc9f2291b700e1829b82b" target="_top" xlink:title="Concatenates two strings into a newly allocated string.">
<polygon fill="white" stroke="#666666" points="768.5,-443 709.5,-443 709.5,-424 768.5,-424 768.5,-443"/>
<text text-anchor="middle" x="739" y="-431" font-family="Helvetica,sans-Serif" font-size="10.00">ft_strjoin</text>
</a>
</g>
</g>
<!-- Node3&#45;&gt;Node12 -->
<g id="edge43_Node000003_Node000012" class="edge">
<title>Node3&#45;&gt;Node12</title>
<g id="a_edge43_Node000003_Node000012"><a xlink:title=" ">
<path fill="none" stroke="#63b8ff" d="M220.1,-338.58C326.94,-358.16 598.26,-407.89 699.3,-426.41"/>
<polygon fill="#63b8ff" stroke="#63b8ff" points="698.91,-429.89 709.38,-428.25 700.17,-423.01 698.91,-429.89"/>
</a>
</g>
</g>
<!-- Node15 -->
<g id="Node000015" class="node">
<title>Node15</title>
<g id="a_Node000015"><a xlink:href="ft__strdup_8c.html#aebe73f27c70c56ac5053f860ef5436c9" target="_top" xlink:title="Duplicates a null&#45;terminated string by allocating memory.">
<polygon fill="white" stroke="#666666" points="895,-367 836,-367 836,-348 895,-348 895,-367"/>
<text text-anchor="middle" x="865.5" y="-355" font-family="Helvetica,sans-Serif" font-size="10.00">ft_strdup</text>
</a>
</g>
</g>
<!-- Node3&#45;&gt;Node15 -->
<g id="edge42_Node000003_Node000015" class="edge">
<title>Node3&#45;&gt;Node15</title>
<g id="a_edge42_Node000003_Node000015"><a xlink:title=" ">
<path fill="none" stroke="#63b8ff" d="M220.34,-325.03C322.55,-313.59 582.2,-291.33 794,-330.5 808.24,-333.13 823.31,-338.52 835.86,-343.8"/>
<polygon fill="#63b8ff" stroke="#63b8ff" points="834.74,-347.13 845.31,-347.95 837.56,-340.72 834.74,-347.13"/>
</a>
</g>
</g>
<!-- Node19 -->
<g id="Node000019" class="node">
<title>Node19</title>
<g id="a_Node000019"><a xlink:href="handle__heredoc_8c.html#a9a25ed2a488d16a1f121e7803ec7fbf8" target="_top" xlink:title="Returns the value of the token used as the here&#45;document delimiter.">
<polygon fill="white" stroke="#666666" points="362,-302 256,-302 256,-283 362,-283 362,-302"/>
<text text-anchor="middle" x="309" y="-290" font-family="Helvetica,sans-Serif" font-size="10.00">ft_found_delimiter</text>
</a>
</g>
</g>
<!-- Node3&#45;&gt;Node19 -->
<g id="edge24_Node000003_Node000019" class="edge">
<title>Node3&#45;&gt;Node19</title>
<g id="a_edge24_Node000003_Node000019"><a xlink:title=" ">
<path fill="none" stroke="#63b8ff" d="M209.31,-320.91C226.19,-316.05 246.89,-310.09 264.97,-304.89"/>
<polygon fill="#63b8ff" stroke="#63b8ff" points="266.06,-308.22 274.7,-302.09 264.12,-301.49 266.06,-308.22"/>
</a>
</g>
</g>
<!-- Node20 -->
<g id="Node000020" class="node">
<title>Node20</title>
<g id="a_Node000020"><a xlink:href="utils__fd_8c.html#aae58663bcc5fdd74e961d307a7f7f51a" target="_top" xlink:title="Checks if there is at least one HEREDOC token in the token list.">
<polygon fill="white" stroke="#666666" points="359.5,-265 258.5,-265 258.5,-246 359.5,-246 359.5,-265"/>
<text text-anchor="middle" x="309" y="-253" font-family="Helvetica,sans-Serif" font-size="10.00">ft_found_heredoc</text>
</a>
</g>
</g>
<!-- Node3&#45;&gt;Node20 -->
<g id="edge25_Node000003_Node000020" class="edge">
<title>Node3&#45;&gt;Node20</title>
<g id="a_edge25_Node000003_Node000020"><a xlink:title=" ">
<path fill="none" stroke="#63b8ff" d="M187.57,-320.93C202.6,-308.87 229.99,-288.06 256,-274.5 259.94,-272.45 264.16,-270.51 268.42,-268.73"/>
<polygon fill="#63b8ff" stroke="#63b8ff" points="269.71,-271.98 277.73,-265.05 267.14,-265.47 269.71,-271.98"/>
</a>
</g>
</g>
<!-- Node21 -->
<g id="Node000021" class="node">
<title>Node21</title>
<g id="a_Node000021"><a xlink:href="ft__printf_8c.html#a091532b7f37af84bdecc84dccf4eedb1" target="_top" xlink:title="A simplified printf function that outputs formatted data to a given file descriptor.">
<polygon fill="white" stroke="#666666" points="336.5,-228 281.5,-228 281.5,-209 336.5,-209 336.5,-228"/>
<text text-anchor="middle" x="309" y="-216" font-family="Helvetica,sans-Serif" font-size="10.00">ft_printf</text>
</a>
</g>
</g>
<!-- Node3&#45;&gt;Node21 -->
<g id="edge26_Node000003_Node000021" class="edge">
<title>Node3&#45;&gt;Node21</title>
<g id="a_edge26_Node000003_Node000021"><a xlink:title=" ">
<path fill="none" stroke="#63b8ff" d="M181.83,-320.91C193.6,-302.3 222.02,-261.01 256,-237.5 260.86,-234.14 266.39,-231.29 271.98,-228.91"/>
<polygon fill="#63b8ff" stroke="#63b8ff" points="273.25,-232.17 281.34,-225.34 270.75,-225.63 273.25,-232.17"/>
</a>
</g>
</g>
<!-- Node31 -->
<g id="Node000031" class="node">
<title>Node31</title>
<g id="a_Node000031"><a xlink:href="ft__strcmp_8c.html#a1f2ff2312e5994560c9537cd9173be94" target="_top" xlink:title="Compares two null&#45;terminated strings lexicographically.">
<polygon fill="white" stroke="#666666" points="340,-191 278,-191 278,-172 340,-172 340,-191"/>
<text text-anchor="middle" x="309" y="-179" font-family="Helvetica,sans-Serif" font-size="10.00">ft_strcmp</text>
</a>
</g>
</g>
<!-- Node3&#45;&gt;Node31 -->
<g id="edge41_Node000003_Node000031" class="edge">
<title>Node3&#45;&gt;Node31</title>
<g id="a_edge41_Node000003_Node000031"><a xlink:title=" ">
<path fill="none" stroke="#63b8ff" d="M179.38,-320.82C188.19,-296.94 214.12,-234.69 256,-200.5 259.76,-197.43 264.05,-194.84 268.53,-192.64"/>
<polygon fill="#63b8ff" stroke="#63b8ff" points="270.02,-195.81 277.86,-188.69 267.29,-189.37 270.02,-195.81"/>
</a>
</g>
</g>
<!-- Node32 -->
<g id="Node000032" class="node">
<title>Node32</title>
<g id="a_Node000032"><a xlink:href="get__next__line_8c.html#a78d68a5f50a6eec0380ce25b4a1bd5b7" target="_top" xlink:title=" ">
<polygon fill="white" stroke="#666666" points="491.5,-481 408.5,-481 408.5,-462 491.5,-462 491.5,-481"/>
<text text-anchor="middle" x="450" y="-469" font-family="Helvetica,sans-Serif" font-size="10.00">get_next_line</text>
</a>
</g>
</g>
<!-- Node3&#45;&gt;Node32 -->
<g id="edge45_Node000003_Node000032" class="edge">
<title>Node3&#45;&gt;Node32</title>
<g id="a_edge45_Node000003_Node000032"><a xlink:title=" ">
<path fill="none" stroke="#63b8ff" d="M206.95,-340C211.76,-342.51 216.34,-345.63 220,-349.5 251.89,-383.21 219.67,-418.64 256,-447.5 295.81,-479.12 355.57,-481.85 398.03,-478.73"/>
<polygon fill="#63b8ff" stroke="#63b8ff" points="398.5,-482.2 408.16,-477.85 397.89,-475.23 398.5,-482.2"/>
</a>
</g>
</g>
<!-- Node5 -->
<g id="Node000005" class="node">
<title>Node5</title>
<g id="a_Node000005"><a xlink:href="utils__env_8c.html#a78e10627f49df6e904925e22ae6ee15f" target="_top" xlink:title="Performs environment variable expansion in a string.">
<polygon fill="white" stroke="#666666" points="502,-519 398,-519 398,-500 502,-500 502,-519"/>
<text text-anchor="middle" x="450" y="-507" font-family="Helvetica,sans-Serif" font-size="10.00">ft_expand_envvar</text>
</a>
</g>
</g>
<!-- Node4&#45;&gt;Node5 -->
<g id="edge4_Node000004_Node000005" class="edge">
<title>Node4&#45;&gt;Node5</title>
<g id="a_edge4_Node000004_Node000005"><a xlink:title=" ">
<path fill="none" stroke="#63b8ff" d="M352.08,-509.5C363.38,-509.5 375.83,-509.5 387.94,-509.5"/>
<polygon fill="#63b8ff" stroke="#63b8ff" points="387.99,-513 397.99,-509.5 387.99,-506 387.99,-513"/>
</a>
</g>
</g>
<!-- Node4&#45;&gt;Node8 -->
<g id="edge23_Node000004_Node000008" class="edge">
<title>Node4&#45;&gt;Node8</title>
<g id="a_edge23_Node000004_Node000008"><a xlink:title=" ">
<path fill="none" stroke="#63b8ff" d="M338.18,-519.02C399.92,-539.33 552.17,-586.36 684,-602.5 732.53,-608.44 745.53,-608.92 794,-602.5 805.05,-601.04 816.82,-598.34 827.52,-595.43"/>
<polygon fill="#63b8ff" stroke="#63b8ff" points="828.74,-598.72 837.39,-592.6 826.81,-591.99 828.74,-598.72"/>
</a>
</g>
</g>
<!-- Node6 -->
<g id="Node000006" class="node">
<title>Node6</title>
<g id="a_Node000006"><a xlink:href="utils__env_8c.html#a4ea711c91d64ff7669bf6ac7e6b6b9dd" target="_top" xlink:title="Expands an environment variable found in a string.">
<polygon fill="white" stroke="#666666" points="625.5,-556 560.5,-556 560.5,-537 625.5,-537 625.5,-556"/>
<text text-anchor="middle" x="593" y="-544" font-family="Helvetica,sans-Serif" font-size="10.00">ft_expand</text>
</a>
</g>
</g>
<!-- Node5&#45;&gt;Node6 -->
<g id="edge5_Node000005_Node000006" class="edge">
<title>Node5&#45;&gt;Node6</title>
<g id="a_edge5_Node000005_Node000006"><a xlink:title=" ">
<path fill="none" stroke="#63b8ff" d="M487.31,-519.03C506.58,-524.08 530.34,-530.32 550.35,-535.57"/>
<polygon fill="#63b8ff" stroke="#63b8ff" points="549.57,-538.98 560.13,-538.14 551.35,-532.21 549.57,-538.98"/>
</a>
</g>
</g>
<!-- Node5&#45;&gt;Node15 -->
<g id="edge22_Node000005_Node000015" class="edge">
<title>Node5&#45;&gt;Node15</title>
<g id="a_edge22_Node000005_Node000015"><a xlink:title=" ">
<path fill="none" stroke="#63b8ff" d="M483.34,-499.92C489.77,-497.34 496.3,-494.22 502,-490.5 521.22,-477.97 518.35,-465.35 538,-453.5 550.64,-445.88 742.57,-391.64 826.12,-368.22"/>
<polygon fill="#63b8ff" stroke="#63b8ff" points="827.07,-371.59 835.76,-365.52 825.18,-364.85 827.07,-371.59"/>
</a>
</g>
</g>
<!-- Node18 -->
<g id="Node000018" class="node">
<title>Node18</title>
<g id="a_Node000018"><a xlink:href="utils__env_8c.html#a3323d2c2586349772b23a3eaf1a241c3" target="_top" xlink:title="Concatenates a literal part (non&#45;variable) of the string to the result.">
<polygon fill="white" stroke="#666666" points="632,-481 554,-481 554,-462 632,-462 632,-481"/>
<text text-anchor="middle" x="593" y="-469" font-family="Helvetica,sans-Serif" font-size="10.00">ft_merge_str</text>
</a>
</g>
</g>
<!-- Node5&#45;&gt;Node18 -->
<g id="edge19_Node000005_Node000018" class="edge">
<title>Node5&#45;&gt;Node18</title>
<g id="a_edge19_Node000005_Node000018"><a xlink:title=" ">
<path fill="none" stroke="#63b8ff" d="M486.58,-499.91C504.78,-495.01 527.14,-488.98 546.57,-483.74"/>
<polygon fill="#63b8ff" stroke="#63b8ff" points="547.69,-487.07 556.43,-481.09 545.86,-480.31 547.69,-487.07"/>
</a>
</g>
</g>
<!-- Node7 -->
<g id="Node000007" class="node">
<title>Node7</title>
<g id="a_Node000007"><a xlink:href="utils__env__pt2_8c.html#afac58c53fe53bc538ba19b53efec42e4" target="_top" xlink:title="Finds the value of an environment variable given its name key.">
<polygon fill="white" stroke="#666666" points="789,-707 689,-707 689,-688 789,-688 789,-707"/>
<text text-anchor="middle" x="739" y="-695" font-family="Helvetica,sans-Serif" font-size="10.00">ft_get_env_value</text>
</a>
</g>
</g>
<!-- Node6&#45;&gt;Node7 -->
<g id="edge6_Node000006_Node000007" class="edge">
<title>Node6&#45;&gt;Node7</title>
<g id="a_edge6_Node000006_Node000007"><a xlink:title=" ">
<path fill="none" stroke="#63b8ff" d="M603.45,-556.41C627.56,-581.69 691.59,-648.84 721.8,-680.51"/>
<polygon fill="#63b8ff" stroke="#63b8ff" points="719.27,-682.93 728.7,-687.75 724.34,-678.1 719.27,-682.93"/>
</a>
</g>
</g>
<!-- Node10 -->
<g id="Node000010" class="node">
<title>Node10</title>
<g id="a_Node000010"><a xlink:href="ft__isalnum_8c.html#a9c2c3821ea43ebdf97de07b123503f8b" target="_top" xlink:title="Checks whether a character is alphanumeric.">
<polygon fill="white" stroke="#666666" points="773,-593 705,-593 705,-574 773,-574 773,-593"/>
<text text-anchor="middle" x="739" y="-581" font-family="Helvetica,sans-Serif" font-size="10.00">ft_isalnum</text>
</a>
</g>
</g>
<!-- Node6&#45;&gt;Node10 -->
<g id="edge9_Node000006_Node000010" class="edge">
<title>Node6&#45;&gt;Node10</title>
<g id="a_edge9_Node000006_Node000010"><a xlink:title=" ">
<path fill="none" stroke="#63b8ff" d="M625.6,-554.62C645.99,-559.86 672.77,-566.74 695.08,-572.47"/>
<polygon fill="#63b8ff" stroke="#63b8ff" points="694.42,-575.91 704.97,-575.01 696.16,-569.14 694.42,-575.91"/>
</a>
</g>
</g>
<!-- Node11 -->
<g id="Node000011" class="node">
<title>Node11</title>
<g id="a_Node000011"><a xlink:href="ft__isdigit_8c.html#a2cf15b8a1a277d1e2ce3654101a2003d" target="_top" xlink:title="Checks whether a character is a decimal digit.">
<polygon fill="white" stroke="#666666" points="768.5,-556 709.5,-556 709.5,-537 768.5,-537 768.5,-556"/>
<text text-anchor="middle" x="739" y="-544" font-family="Helvetica,sans-Serif" font-size="10.00">ft_isdigit</text>
</a>
</g>
</g>
<!-- Node6&#45;&gt;Node11 -->
<g id="edge10_Node000006_Node000011" class="edge">
<title>Node6&#45;&gt;Node11</title>
<g id="a_edge10_Node000006_Node000011"><a xlink:title=" ">
<path fill="none" stroke="#63b8ff" d="M625.6,-546.5C647.28,-546.5 676.19,-546.5 699.26,-546.5"/>
<polygon fill="#63b8ff" stroke="#63b8ff" points="699.4,-550 709.4,-546.5 699.4,-543 699.4,-550"/>
</a>
</g>
</g>
<!-- Node6&#45;&gt;Node12 -->
<g id="edge11_Node000006_Node000012" class="edge">
<title>Node6&#45;&gt;Node12</title>
<g id="a_edge11_Node000006_Node000012"><a xlink:title=" ">
<path fill="none" stroke="#63b8ff" d="M625.67,-539.94C633.64,-537.13 641.71,-533.14 648,-527.5 675.53,-502.82 656.47,-477.18 684,-452.5 688.55,-448.42 694.03,-445.2 699.73,-442.67"/>
<polygon fill="#63b8ff" stroke="#63b8ff" points="701.29,-445.83 709.41,-439.03 698.82,-439.28 701.29,-445.83"/>
</a>
</g>
</g>
<!-- Node14 -->
<g id="Node000014" class="node">
<title>Node14</title>
<g id="a_Node000014"><a xlink:href="ft__substr_8c.html#a78c402cbf3d55b1374693c3b7d34f71d" target="_top" xlink:title="Extracts a substring from a given string.">
<polygon fill="white" stroke="#666666" points="768.5,-480 709.5,-480 709.5,-461 768.5,-461 768.5,-480"/>
<text text-anchor="middle" x="739" y="-468" font-family="Helvetica,sans-Serif" font-size="10.00">ft_substr</text>
</a>
</g>
</g>
<!-- Node6&#45;&gt;Node14 -->
<g id="edge14_Node000006_Node000014" class="edge">
<title>Node6&#45;&gt;Node14</title>
<g id="a_edge14_Node000006_Node000014"><a xlink:title=" ">
<path fill="none" stroke="#63b8ff" d="M625.05,-536.93C632.69,-534.2 640.76,-531.01 648,-527.5 672.52,-515.61 698.62,-498.53 716.37,-486.17"/>
<polygon fill="#63b8ff" stroke="#63b8ff" points="718.68,-488.82 724.83,-480.19 714.65,-483.1 718.68,-488.82"/>
</a>
</g>
</g>
<!-- Node7&#45;&gt;Node8 -->
<g id="edge7_Node000007_Node000008" class="edge">
<title>Node7&#45;&gt;Node8</title>
<g id="a_edge7_Node000007_Node000008"><a xlink:title=" ">
<path fill="none" stroke="#63b8ff" d="M768.37,-687.96C777.09,-684.24 786.39,-679.43 794,-673.5 819.83,-653.36 841.65,-621.8 853.9,-601.9"/>
<polygon fill="#63b8ff" stroke="#63b8ff" points="856.99,-603.55 859.12,-593.17 850.98,-599.95 856.99,-603.55"/>
</a>
</g>
</g>
<!-- Node9 -->
<g id="Node000009" class="node">
<title>Node9</title>
<g id="a_Node000009"><a xlink:href="ft__strncmp_8c.html#a9d2fe792187aa4ed08e5864fb2c4d6dc" target="_top" xlink:title="Compares up to n characters of two strings.">
<polygon fill="white" stroke="#666666" points="899.5,-707 831.5,-707 831.5,-688 899.5,-688 899.5,-707"/>
<text text-anchor="middle" x="865.5" y="-695" font-family="Helvetica,sans-Serif" font-size="10.00">ft_strncmp</text>
</a>
</g>
</g>
<!-- Node7&#45;&gt;Node9 -->
<g id="edge8_Node000007_Node000009" class="edge">
<title>Node7&#45;&gt;Node9</title>
<g id="a_edge8_Node000007_Node000009"><a xlink:title=" ">
<path fill="none" stroke="#63b8ff" d="M789.21,-697.5C799.81,-697.5 810.94,-697.5 821.29,-697.5"/>
<polygon fill="#63b8ff" stroke="#63b8ff" points="821.34,-701 831.34,-697.5 821.34,-694 821.34,-701"/>
</a>
</g>
</g>
<!-- Node12&#45;&gt;Node8 -->
<g id="edge13_Node000012_Node000008" class="edge">
<title>Node12&#45;&gt;Node8</title>
<g id="a_edge13_Node000012_Node000008"><a xlink:title=" ">
<path fill="none" stroke="#63b8ff" d="M768.57,-439.05C777.5,-441.89 786.88,-446.15 794,-452.5 821.3,-476.84 812.51,-494.38 830,-526.5 837.19,-539.7 845.97,-554.19 852.87,-565.25"/>
<polygon fill="#63b8ff" stroke="#63b8ff" points="850.07,-567.38 858.37,-573.97 856,-563.65 850.07,-567.38"/>
</a>
</g>
</g>
<!-- Node13 -->
<g id="Node000013" class="node">
<title>Node13</title>
<g id="a_Node000013"><a xlink:href="ft__memcpy_8c.html#a41a6f05af30cf85ff63a08e383826322" target="_top" xlink:title="Copies &#39;n&#39; bytes from memory area &#39;src&#39; to memory area &#39;dest&#39;.">
<polygon fill="white" stroke="#666666" points="901,-443 830,-443 830,-424 901,-424 901,-443"/>
<text text-anchor="middle" x="865.5" y="-431" font-family="Helvetica,sans-Serif" font-size="10.00">ft_memcpy</text>
</a>
</g>
</g>
<!-- Node12&#45;&gt;Node13 -->
<g id="edge12_Node000012_Node000013" class="edge">
<title>Node12&#45;&gt;Node13</title>
<g id="a_edge12_Node000012_Node000013"><a xlink:title=" ">
<path fill="none" stroke="#63b8ff" d="M768.56,-433.5C783.66,-433.5 802.55,-433.5 819.56,-433.5"/>
<polygon fill="#63b8ff" stroke="#63b8ff" points="819.86,-437 829.86,-433.5 819.86,-430 819.86,-437"/>
</a>
</g>
</g>
<!-- Node14&#45;&gt;Node8 -->
<g id="edge17_Node000014_Node000008" class="edge">
<title>Node14&#45;&gt;Node8</title>
<g id="a_edge17_Node000014_Node000008"><a xlink:title=" ">
<path fill="none" stroke="#63b8ff" d="M768.35,-480.07C777.07,-483.79 786.38,-488.59 794,-494.5 819.7,-514.43 841.56,-545.64 853.85,-565.31"/>
<polygon fill="#63b8ff" stroke="#63b8ff" points="850.91,-567.21 859.09,-573.94 856.89,-563.58 850.91,-567.21"/>
</a>
</g>
</g>
<!-- Node14&#45;&gt;Node15 -->
<g id="edge15_Node000014_Node000015" class="edge">
<title>Node14&#45;&gt;Node15</title>
<g id="a_edge15_Node000014_Node000015"><a xlink:title=" ">
<path fill="none" stroke="#63b8ff" d="M768.75,-464.46C777.4,-461.74 786.56,-457.89 794,-452.5 808.76,-441.81 836.93,-400.3 852.83,-375.83"/>
<polygon fill="#63b8ff" stroke="#63b8ff" points="855.98,-377.4 858.45,-367.09 850.09,-373.61 855.98,-377.4"/>
</a>
</g>
</g>
<!-- Node16 -->
<g id="Node000016" class="node">
<title>Node16</title>
<g id="a_Node000016"><a xlink:href="ft__strlcpy_8c.html#aa053827b3a2ea3d0118783d6fb59d178" target="_top" xlink:title="Copies up to size &#45; 1 characters from the string src to dst, null&#45;terminating the result.">
<polygon fill="white" stroke="#666666" points="896.5,-517 834.5,-517 834.5,-498 896.5,-498 896.5,-517"/>
<text text-anchor="middle" x="865.5" y="-505" font-family="Helvetica,sans-Serif" font-size="10.00">ft_strlcpy</text>
</a>
</g>
</g>
<!-- Node14&#45;&gt;Node16 -->
<g id="edge16_Node000014_Node000016" class="edge">
<title>Node14&#45;&gt;Node16</title>
<g id="a_edge16_Node000014_Node000016"><a xlink:title=" ">
<path fill="none" stroke="#63b8ff" d="M768.56,-478.99C785.16,-483.92 806.33,-490.21 824.56,-495.63"/>
<polygon fill="#63b8ff" stroke="#63b8ff" points="823.75,-499.04 834.33,-498.53 825.74,-492.33 823.75,-499.04"/>
</a>
</g>
</g>
<!-- Node17 -->
<g id="Node000017" class="node">
<title>Node17</title>
<g id="a_Node000017"><a xlink:href="ft__strlcat_8c.html#a3ab017dd491d7327d1b4acbf1398b91e" target="_top" xlink:title="Returns the length of a null&#45;terminated string.">
<polygon fill="white" stroke="#666666" points="881.5,-480 849.5,-480 849.5,-461 881.5,-461 881.5,-480"/>
<text text-anchor="middle" x="865.5" y="-468" font-family="Helvetica,sans-Serif" font-size="10.00">len</text>
</a>
</g>
</g>
<!-- Node14&#45;&gt;Node17 -->
<g id="edge18_Node000014_Node000017" class="edge">
<title>Node14&#45;&gt;Node17</title>
<g id="a_edge18_Node000014_Node000017"><a xlink:title=" ">
<path fill="none" stroke="#63b8ff" d="M768.56,-470.5C789.86,-470.5 818.69,-470.5 839.17,-470.5"/>
<polygon fill="#63b8ff" stroke="#63b8ff" points="839.31,-474 849.31,-470.5 839.31,-467 839.31,-474"/>
</a>
</g>
</g>
<!-- Node18&#45;&gt;Node12 -->
<g id="edge20_Node000018_Node000012" class="edge">
<title>Node18&#45;&gt;Node12</title>
<g id="a_edge20_Node000018_Node000012"><a xlink:title=" ">
<path fill="none" stroke="#63b8ff" d="M630.34,-461.91C651.48,-456.33 678.12,-449.3 699.61,-443.63"/>
<polygon fill="#63b8ff" stroke="#63b8ff" points="700.61,-446.99 709.39,-441.05 698.83,-440.22 700.61,-446.99"/>
</a>
</g>
</g>
<!-- Node18&#45;&gt;Node14 -->
<g id="edge21_Node000018_Node000014" class="edge">
<title>Node18&#45;&gt;Node14</title>
<g id="a_edge21_Node000018_Node000014"><a xlink:title=" ">
<path fill="none" stroke="#63b8ff" d="M632.21,-471.23C652.88,-471.09 678.36,-470.91 699.13,-470.77"/>
<polygon fill="#63b8ff" stroke="#63b8ff" points="699.23,-474.27 709.21,-470.7 699.19,-467.27 699.23,-474.27"/>
</a>
</g>
</g>
<!-- Node22 -->
<g id="Node000022" class="node">
<title>Node22</title>
<g id="a_Node000022"><a xlink:href="ft__printf_8c.html#a80c1c206dcd33d07c265581878aaa300" target="_top" xlink:title="Processes a single format specifier and prints the corresponding argument.">
<polygon fill="white" stroke="#666666" points="491.5,-148 408.5,-148 408.5,-129 491.5,-129 491.5,-148"/>
<text text-anchor="middle" x="450" y="-136" font-family="Helvetica,sans-Serif" font-size="10.00">check_format</text>
</a>
</g>
</g>
<!-- Node21&#45;&gt;Node22 -->
<g id="edge27_Node000021_Node000022" class="edge">
<title>Node21&#45;&gt;Node22</title>
<g id="a_edge27_Node000021_Node000022"><a xlink:title=" ">
<path fill="none" stroke="#63b8ff" d="M336.53,-210.94C344.89,-208.14 354.02,-204.62 362,-200.5 386.99,-187.61 412.88,-168.25 429.85,-154.6"/>
<polygon fill="#63b8ff" stroke="#63b8ff" points="432.34,-157.09 437.86,-148.04 427.91,-151.67 432.34,-157.09"/>
</a>
</g>
</g>
<!-- Node26 -->
<g id="Node000026" class="node">
<title>Node26</title>
<g id="a_Node000026"><a xlink:href="ft__putchar__fd_8c.html#a03ef80b25dc4a521379fa92ad97bad21" target="_top" xlink:title="Writes a single character to the specified file descriptor.">
<polygon fill="white" stroke="#666666" points="633,-240 553,-240 553,-221 633,-221 633,-240"/>
<text text-anchor="middle" x="593" y="-228" font-family="Helvetica,sans-Serif" font-size="10.00">ft_putchar_fd</text>
</a>
</g>
</g>
<!-- Node21&#45;&gt;Node26 -->
<g id="edge40_Node000021_Node000026" class="edge">
<title>Node21&#45;&gt;Node26</title>
<g id="a_edge40_Node000021_Node000026"><a xlink:title=" ">
<path fill="none" stroke="#63b8ff" d="M336.53,-219.63C383.71,-221.64 482.86,-225.86 542.82,-228.41"/>
<polygon fill="#63b8ff" stroke="#63b8ff" points="542.67,-231.9 552.81,-228.83 542.97,-224.91 542.67,-231.9"/>
</a>
</g>
</g>
<!-- Node23 -->
<g id="Node000023" class="node">
<title>Node23</title>
<g id="a_Node000023"><a xlink:href="ft__forpointer_8c.html#a8e02c77b80406af72327ebf71f537786" target="_top" xlink:title="Prints a pointer in hexadecimal format prefixed with &quot;0x&quot;.">
<polygon fill="white" stroke="#666666" points="631.5,-203 554.5,-203 554.5,-184 631.5,-184 631.5,-203"/>
<text text-anchor="middle" x="593" y="-191" font-family="Helvetica,sans-Serif" font-size="10.00">ft_forpointer</text>
</a>
</g>
</g>
<!-- Node22&#45;&gt;Node23 -->
<g id="edge28_Node000022_Node000023" class="edge">
<title>Node22&#45;&gt;Node23</title>
<g id="a_edge28_Node000022_Node000023"><a xlink:title=" ">
<path fill="none" stroke="#63b8ff" d="M472.26,-148.11C489.75,-155.88 515.28,-166.9 538,-175.5 542.55,-177.22 547.36,-178.95 552.14,-180.62"/>
<polygon fill="#63b8ff" stroke="#63b8ff" points="551.26,-184.02 561.86,-183.93 553.52,-177.39 551.26,-184.02"/>
</a>
</g>
</g>
<!-- Node25 -->
<g id="Node000025" class="node">
<title>Node25</title>
<g id="a_Node000025"><a xlink:href="ft__hexadecimal_8c.html#a39c845e0a4286d3ac1e04c1e64ac734b" target="_top" xlink:title="Prints an unsigned integer in hexadecimal format.">
<polygon fill="white" stroke="#666666" points="639,-148 547,-148 547,-129 639,-129 639,-148"/>
<text text-anchor="middle" x="593" y="-136" font-family="Helvetica,sans-Serif" font-size="10.00">ft_hexadecimal</text>
</a>
</g>
</g>
<!-- Node22&#45;&gt;Node25 -->
<g id="edge31_Node000022_Node000025" class="edge">
<title>Node22&#45;&gt;Node25</title>
<g id="a_edge31_Node000022_Node000025"><a xlink:title=" ">
<path fill="none" stroke="#63b8ff" d="M491.78,-138.5C505.79,-138.5 521.72,-138.5 536.69,-138.5"/>
<polygon fill="#63b8ff" stroke="#63b8ff" points="536.86,-142 546.86,-138.5 536.86,-135 536.86,-142"/>
</a>
</g>
</g>
<!-- Node22&#45;&gt;Node26 -->
<g id="edge33_Node000022_Node000026" class="edge">
<title>Node22&#45;&gt;Node26</title>
<g id="a_edge33_Node000022_Node000026"><a xlink:title=" ">
<path fill="none" stroke="#63b8ff" d="M459.75,-148.01C474.5,-163.53 505.87,-194.39 538,-212.5 541.02,-214.2 544.22,-215.77 547.51,-217.22"/>
<polygon fill="#63b8ff" stroke="#63b8ff" points="546.29,-220.51 556.88,-220.97 548.89,-214.01 546.29,-220.51"/>
</a>
</g>
</g>
<!-- Node27 -->
<g id="Node000027" class="node">
<title>Node27</title>
<g id="a_Node000027"><a xlink:href="ft__putnbr__fd_8c.html#a1554101ee350c316340c78e19faddaa8" target="_top" xlink:title="Writes an integer to a given file descriptor.">
<polygon fill="white" stroke="#666666" points="630.5,-93 555.5,-93 555.5,-74 630.5,-74 630.5,-93"/>
<text text-anchor="middle" x="593" y="-81" font-family="Helvetica,sans-Serif" font-size="10.00">ft_putnbr_fd</text>
</a>
</g>
</g>
<!-- Node22&#45;&gt;Node27 -->
<g id="edge34_Node000022_Node000027" class="edge">
<title>Node22&#45;&gt;Node27</title>
<g id="a_edge34_Node000022_Node000027"><a xlink:title=" ">
<path fill="none" stroke="#63b8ff" d="M475.56,-128.92C498.27,-120.06 532.24,-106.81 557.63,-96.91"/>
<polygon fill="#63b8ff" stroke="#63b8ff" points="559.2,-100.05 567.25,-93.16 556.66,-93.53 559.2,-100.05"/>
</a>
</g>
</g>
<!-- Node28 -->
<g id="Node000028" class="node">
<title>Node28</title>
<g id="a_Node000028"><a xlink:href="ft__putstr__fd_8c.html#a00b0638f31a75c7a30f77f33888bfb73" target="_top" xlink:title="Writes a null&#45;terminated string to the specified file descriptor.">
<polygon fill="white" stroke="#666666" points="629,-56 557,-56 557,-37 629,-37 629,-56"/>
<text text-anchor="middle" x="593" y="-44" font-family="Helvetica,sans-Serif" font-size="10.00">ft_putstr_fd</text>
</a>
</g>
</g>
<!-- Node22&#45;&gt;Node28 -->
<g id="edge36_Node000022_Node000028" class="edge">
<title>Node22&#45;&gt;Node28</title>
<g id="a_edge36_Node000022_Node000028"><a xlink:title=" ">
<path fill="none" stroke="#63b8ff" d="M460.3,-128.69C475.33,-113.32 506.48,-83.47 538,-65.5 541.64,-63.42 545.55,-61.51 549.54,-59.78"/>
<polygon fill="#63b8ff" stroke="#63b8ff" points="550.92,-62.99 558.9,-56.03 548.31,-56.5 550.92,-62.99"/>
</a>
</g>
</g>
<!-- Node29 -->
<g id="Node000029" class="node">
<title>Node29</title>
<g id="a_Node000029"><a xlink:href="ft__unsigned__putnbr_8c.html#af9a70f8607b40cf2a7706f9d3725b549" target="_top" xlink:title="Writes an unsigned integer to the given file descriptor.">
<polygon fill="white" stroke="#666666" points="648,-19 538,-19 538,0 648,0 648,-19"/>
<text text-anchor="middle" x="593" y="-7" font-family="Helvetica,sans-Serif" font-size="10.00">ft_unsigned_putnbr</text>
</a>
</g>
</g>
<!-- Node22&#45;&gt;Node29 -->
<g id="edge37_Node000022_Node000029" class="edge">
<title>Node22&#45;&gt;Node29</title>
<g id="a_edge37_Node000022_Node000029"><a xlink:title=" ">
<path fill="none" stroke="#63b8ff" d="M455.92,-128.94C467.39,-107.59 497.97,-55.71 538,-27.5 540.09,-26.03 542.3,-24.67 544.59,-23.42"/>
<polygon fill="#63b8ff" stroke="#63b8ff" points="546.2,-26.54 553.75,-19.11 543.21,-20.21 546.2,-26.54"/>
</a>
</g>
</g>
<!-- Node24 -->
<g id="Node000024" class="node">
<title>Node24</title>
<g id="a_Node000024"><a xlink:href="ft__forpointer_8c.html#aded1bf735c8a10e47396170d27c5b6aa" target="_top" xlink:title="Recursively prints a memory address in hexadecimal format.">
<polygon fill="white" stroke="#666666" points="794,-203 684,-203 684,-184 794,-184 794,-203"/>
<text text-anchor="middle" x="739" y="-191" font-family="Helvetica,sans-Serif" font-size="10.00">ft_ricorsive_pointer</text>
</a>
</g>
</g>
<!-- Node23&#45;&gt;Node24 -->
<g id="edge29_Node000023_Node000024" class="edge">
<title>Node23&#45;&gt;Node24</title>
<g id="a_edge29_Node000023_Node000024"><a xlink:title=" ">
<path fill="none" stroke="#63b8ff" d="M631.83,-193.5C644.64,-193.5 659.33,-193.5 673.61,-193.5"/>
<polygon fill="#63b8ff" stroke="#63b8ff" points="673.9,-197 683.9,-193.5 673.9,-190 673.9,-197"/>
</a>
</g>
</g>
<!-- Node24&#45;&gt;Node24 -->
<g id="edge30_Node000024_Node000024" class="edge">
<title>Node24&#45;&gt;Node24</title>
<g id="a_edge30_Node000024_Node000024"><a xlink:title=" ">
<path fill="none" stroke="#63b8ff" d="M719.58,-203.08C710.13,-211.73 716.61,-221 739,-221 753,-221 760.77,-217.38 762.33,-212.55"/>
<polygon fill="#63b8ff" stroke="#63b8ff" points="765.47,-210.99 758.42,-203.08 759,-213.66 765.47,-210.99"/>
</a>
</g>
</g>
<!-- Node25&#45;&gt;Node25 -->
<g id="edge32_Node000025_Node000025" class="edge">
<title>Node25&#45;&gt;Node25</title>
<g id="a_edge32_Node000025_Node000025"><a xlink:title=" ">
<path fill="none" stroke="#63b8ff" d="M571.11,-148.08C560.47,-156.73 567.76,-166 593,-166 609.17,-166 617.97,-162.2 619.41,-157.19"/>
<polygon fill="#63b8ff" stroke="#63b8ff" points="622.47,-155.48 614.89,-148.08 616.2,-158.6 622.47,-155.48"/>
</a>
</g>
</g>
<!-- Node27&#45;&gt;Node27 -->
<g id="edge35_Node000027_Node000027" class="edge">
<title>Node27&#45;&gt;Node27</title>
<g id="a_edge35_Node000027_Node000027"><a xlink:title=" ">
<path fill="none" stroke="#63b8ff" d="M571.11,-93.08C560.47,-101.73 567.76,-111 593,-111 609.17,-111 617.97,-107.2 619.41,-102.19"/>
<polygon fill="#63b8ff" stroke="#63b8ff" points="622.47,-100.48 614.89,-93.08 616.2,-103.6 622.47,-100.48"/>
</a>
</g>
</g>
<!-- Node30 -->
<g id="Node000030" class="node">
<title>Node30</title>
<g id="a_Node000030"><a xlink:href="ft__putnbr_8c.html#a2e51f80c9e46e52f4adf94617fb51ada" target="_top" xlink:title="Writes an integer to the standard output (stdout).">
<polygon fill="white" stroke="#666666" points="769,-19 709,-19 709,0 769,0 769,-19"/>
<text text-anchor="middle" x="739" y="-7" font-family="Helvetica,sans-Serif" font-size="10.00">ft_putnbr</text>
</a>
</g>
</g>
<!-- Node29&#45;&gt;Node30 -->
<g id="edge38_Node000029_Node000030" class="edge">
<title>Node29&#45;&gt;Node30</title>
<g id="a_edge38_Node000029_Node000030"><a xlink:title=" ">
<path fill="none" stroke="#63b8ff" d="M648.03,-9.5C664.76,-9.5 682.87,-9.5 698.43,-9.5"/>
<polygon fill="#63b8ff" stroke="#63b8ff" points="698.74,-13 708.74,-9.5 698.74,-6 698.74,-13"/>
</a>
</g>
</g>
<!-- Node30&#45;&gt;Node30 -->
<g id="edge39_Node000030_Node000030" class="edge">
<title>Node30&#45;&gt;Node30</title>
<g id="a_edge39_Node000030_Node000030"><a xlink:title=" ">
<path fill="none" stroke="#63b8ff" d="M719.58,-19.08C710.13,-27.73 716.61,-37 739,-37 753,-37 760.77,-33.38 762.33,-28.55"/>
<polygon fill="#63b8ff" stroke="#63b8ff" points="765.47,-26.99 758.42,-19.08 759,-29.66 765.47,-26.99"/>
</a>
</g>
</g>
<!-- Node33 -->
<g id="Node000033" class="node">
<title>Node33</title>
<g id="a_Node000033"><a xlink:href="get__next__line_8c.html#a253f107325777771467d4b92d8ad0def" target="_top" xlink:title=" ">
<polygon fill="white" stroke="#666666" points="624.5,-518 561.5,-518 561.5,-499 624.5,-499 624.5,-518"/>
<text text-anchor="middle" x="593" y="-506" font-family="Helvetica,sans-Serif" font-size="10.00">ft_getrest</text>
</a>
</g>
</g>
<!-- Node32&#45;&gt;Node33 -->
<g id="edge46_Node000032_Node000033" class="edge">
<title>Node32&#45;&gt;Node33</title>
<g id="a_edge46_Node000032_Node000033"><a xlink:title=" ">
<path fill="none" stroke="#63b8ff" d="M487.31,-481.03C506.86,-486.16 531.03,-492.5 551.22,-497.8"/>
<polygon fill="#63b8ff" stroke="#63b8ff" points="550.51,-501.23 561.07,-500.38 552.28,-494.46 550.51,-501.23"/>
</a>
</g>
</g>
<!-- Node34 -->
<g id="Node000034" class="node">
<title>Node34</title>
<g id="a_Node000034"><a xlink:href="get__next__line_8c.html#aad5cee417ca3f1d807d5b1d1c76c6987" target="_top" xlink:title=" ">
<polygon fill="white" stroke="#666666" points="624,-367 562,-367 562,-348 624,-348 624,-367"/>
<text text-anchor="middle" x="593" y="-355" font-family="Helvetica,sans-Serif" font-size="10.00">ft_putline</text>
</a>
</g>
</g>
<!-- Node32&#45;&gt;Node34 -->
<g id="edge49_Node000032_Node000034" class="edge">
<title>Node32&#45;&gt;Node34</title>
<g id="a_edge49_Node000032_Node000034"><a xlink:title=" ">
<path fill="none" stroke="#63b8ff" d="M458.18,-461.92C471.97,-444.08 503.81,-405.41 538,-381.5 543.41,-377.72 549.51,-374.32 555.61,-371.36"/>
<polygon fill="#63b8ff" stroke="#63b8ff" points="557.43,-374.37 565.1,-367.06 554.54,-368 557.43,-374.37"/>
</a>
</g>
</g>
<!-- Node33&#45;&gt;Node8 -->
<g id="edge47_Node000033_Node000008" class="edge">
<title>Node33&#45;&gt;Node8</title>
<g id="a_edge47_Node000033_Node000008"><a xlink:title=" ">
<path fill="none" stroke="#63b8ff" d="M624.72,-506.4C665.08,-504.79 737.48,-505.85 794,-528.5 815,-536.92 834.94,-553.58 848.22,-566.37"/>
<polygon fill="#63b8ff" stroke="#63b8ff" points="846.03,-569.13 855.58,-573.72 850.98,-564.18 846.03,-569.13"/>
</a>
</g>
</g>
<!-- Node33&#45;&gt;Node14 -->
<g id="edge48_Node000033_Node000014" class="edge">
<title>Node33&#45;&gt;Node14</title>
<g id="a_edge48_Node000033_Node000014"><a xlink:title=" ">
<path fill="none" stroke="#63b8ff" d="M624.54,-500.44C646.4,-494.67 676,-486.86 699.48,-480.66"/>
<polygon fill="#63b8ff" stroke="#63b8ff" points="700.69,-483.97 709.46,-478.03 698.9,-477.2 700.69,-483.97"/>
</a>
</g>
</g>
<!-- Node34&#45;&gt;Node12 -->
<g id="edge52_Node000034_Node000012" class="edge">
<title>Node34&#45;&gt;Node12</title>
<g id="a_edge52_Node000034_Node000012"><a xlink:title=" ">
<path fill="none" stroke="#63b8ff" d="M612.24,-367.13C637.12,-380.26 681.92,-403.9 710.78,-419.14"/>
<polygon fill="#63b8ff" stroke="#63b8ff" points="709.43,-422.38 719.91,-423.95 712.7,-416.19 709.43,-422.38"/>
</a>
</g>
</g>
<!-- Node34&#45;&gt;Node15 -->
<g id="edge51_Node000034_Node000015" class="edge">
<title>Node34&#45;&gt;Node15</title>
<g id="a_edge51_Node000034_Node000015"><a xlink:title=" ">
<path fill="none" stroke="#63b8ff" d="M624.19,-349.91C641.55,-345.94 663.86,-341.49 684,-339.5 732.65,-334.68 745.49,-333.41 794,-339.5 804.53,-340.82 815.74,-343.22 826.05,-345.83"/>
<polygon fill="#63b8ff" stroke="#63b8ff" points="825.44,-349.29 836,-348.5 827.24,-342.53 825.44,-349.29"/>
</a>
</g>
</g>
<!-- Node35 -->
<g id="Node000035" class="node">
<title>Node35</title>
<g id="a_Node000035"><a xlink:href="ft__strchr_8c.html#aa6d0c2d180f32ee585485e1a1ce3d55d" target="_top" xlink:title="Locates the first occurrence of a character in a string.">
<polygon fill="white" stroke="#666666" points="767,-367 711,-367 711,-348 767,-348 767,-367"/>
<text text-anchor="middle" x="739" y="-355" font-family="Helvetica,sans-Serif" font-size="10.00">ft_strchr</text>
</a>
</g>
</g>
<!-- Node34&#45;&gt;Node35 -->
<g id="edge50_Node000034_Node000035" class="edge">
<title>Node34&#45;&gt;Node35</title>
<g id="a_edge50_Node000034_Node000035"><a xlink:title=" ">
<path fill="none" stroke="#63b8ff" d="M624.19,-357.5C646.46,-357.5 676.9,-357.5 700.69,-357.5"/>
<polygon fill="#63b8ff" stroke="#63b8ff" points="700.77,-361 710.77,-357.5 700.77,-354 700.77,-361"/>
</a>
</g>
</g>
</g>
</svg>
