<?xml version="1.0" encoding="UTF-8" standalone="no"?>
<!DOCTYPE svg PUBLIC "-//W3C//DTD SVG 1.1//EN"
 "http://www.w3.org/Graphics/SVG/1.1/DTD/svg11.dtd">
<!-- Generated by graphviz version 2.43.0 (0)
 -->
<!-- Title: redirections/handle_redirections.c Pages: 1 -->
<svg width="846pt" height="269pt"
 viewBox="0.00 0.00 845.91 269.00" xmlns="http://www.w3.org/2000/svg" xmlns:xlink="http://www.w3.org/1999/xlink">
<g id="graph0" class="graph" transform="scale(1 1) rotate(0) translate(4 265)">
<title>redirections/handle_redirections.c</title>
<!-- Node1 -->
<g id="Node000001" class="node">
<title>Node1</title>
<g id="a_Node000001"><a xlink:title=" ">
<polygon fill="#999999" stroke="#666666" points="536.91,-261 426.91,-261 426.91,-231 536.91,-231 536.91,-261"/>
<text text-anchor="start" x="434.91" y="-249" font-family="Helvetica,sans-Serif" font-size="10.00">redirections/handle</text>
<text text-anchor="middle" x="481.91" y="-238" font-family="Helvetica,sans-Serif" font-size="10.00">_redirections.c</text>
</a>
</g>
</g>
<!-- Node2 -->
<g id="Node000002" class="node">
<title>Node2</title>
<g id="a_Node000002"><a xlink:href="redirections_8h.html" target="_top" xlink:title=" ">
<polygon fill="white" stroke="#666666" points="523.41,-195 440.41,-195 440.41,-176 523.41,-176 523.41,-195"/>
<text text-anchor="middle" x="481.91" y="-183" font-family="Helvetica,sans-Serif" font-size="10.00">redirections.h</text>
</a>
</g>
</g>
<!-- Node1&#45;&gt;Node2 -->
<g id="edge1_Node000001_Node000002" class="edge">
<title>Node1&#45;&gt;Node2</title>
<g id="a_edge1_Node000001_Node000002"><a xlink:title=" ">
<path fill="none" stroke="#63b8ff" d="M481.91,-230.84C481.91,-223.21 481.91,-213.7 481.91,-205.45"/>
<polygon fill="#63b8ff" stroke="#63b8ff" points="485.41,-205.27 481.91,-195.27 478.41,-205.27 485.41,-205.27"/>
</a>
</g>
</g>
<!-- Node8 -->
<g id="Node000008" class="node">
<title>Node8</title>
<g id="a_Node000008"><a xlink:title=" ">
<polygon fill="#e0e0e0" stroke="#999999" points="131.91,-19 81.91,-19 81.91,0 131.91,0 131.91,-19"/>
<text text-anchor="middle" x="106.91" y="-7" font-family="Helvetica,sans-Serif" font-size="10.00">stdio.h</text>
</a>
</g>
</g>
<!-- Node1&#45;&gt;Node8 -->
<g id="edge24_Node000001_Node000008" class="edge">
<title>Node1&#45;&gt;Node8</title>
<g id="a_edge24_Node000001_Node000008"><a xlink:title=" ">
<path fill="none" stroke="#63b8ff" d="M426.82,-244.24C323.55,-239.46 102.51,-212.67 4.91,-74 -15.23,-45.39 34.81,-27.01 71.71,-17.74"/>
<polygon fill="#63b8ff" stroke="#63b8ff" points="72.78,-21.08 81.7,-15.36 71.16,-14.27 72.78,-21.08"/>
</a>
</g>
</g>
<!-- Node19 -->
<g id="Node000019" class="node">
<title>Node19</title>
<g id="a_Node000019"><a xlink:title=" ">
<polygon fill="#e0e0e0" stroke="#999999" points="837.91,-74 775.91,-74 775.91,-55 837.91,-55 837.91,-74"/>
<text text-anchor="middle" x="806.91" y="-62" font-family="Helvetica,sans-Serif" font-size="10.00">stdbool.h</text>
</a>
</g>
</g>
<!-- Node1&#45;&gt;Node19 -->
<g id="edge23_Node000001_Node000019" class="edge">
<title>Node1&#45;&gt;Node19</title>
<g id="a_edge23_Node000001_Node000019"><a xlink:title=" ">
<path fill="none" stroke="#63b8ff" d="M507.41,-230.91C568.49,-197.18 722.52,-112.11 782.49,-78.99"/>
<polygon fill="#63b8ff" stroke="#63b8ff" points="784.22,-82.03 791.28,-74.13 780.83,-75.91 784.22,-82.03"/>
</a>
</g>
</g>
<!-- Node3 -->
<g id="Node000003" class="node">
<title>Node3</title>
<g id="a_Node000003"><a xlink:href="common__utils_8h.html" target="_top" xlink:title=" ">
<polygon fill="white" stroke="#666666" points="551.91,-140 411.91,-140 411.91,-110 551.91,-110 551.91,-140"/>
<text text-anchor="start" x="419.91" y="-128" font-family="Helvetica,sans-Serif" font-size="10.00">../common_utils/common</text>
<text text-anchor="middle" x="481.91" y="-117" font-family="Helvetica,sans-Serif" font-size="10.00">_utils.h</text>
</a>
</g>
</g>
<!-- Node2&#45;&gt;Node3 -->
<g id="edge2_Node000002_Node000003" class="edge">
<title>Node2&#45;&gt;Node3</title>
<g id="a_edge2_Node000002_Node000003"><a xlink:title=" ">
<path fill="none" stroke="#63b8ff" d="M481.91,-175.87C481.91,-169.11 481.91,-159.35 481.91,-150.26"/>
<polygon fill="#63b8ff" stroke="#63b8ff" points="485.41,-150.11 481.91,-140.11 478.41,-150.11 485.41,-150.11"/>
</a>
</g>
</g>
<!-- Node4 -->
<g id="Node000004" class="node">
<title>Node4</title>
<g id="a_Node000004"><a xlink:href="libft_8h.html" target="_top" xlink:title=" ">
<polygon fill="white" stroke="#666666" points="585.41,-74 510.41,-74 510.41,-55 585.41,-55 585.41,-74"/>
<text text-anchor="middle" x="547.91" y="-62" font-family="Helvetica,sans-Serif" font-size="10.00">../libft/libft.h</text>
</a>
</g>
</g>
<!-- Node3&#45;&gt;Node4 -->
<g id="edge3_Node000003_Node000004" class="edge">
<title>Node3&#45;&gt;Node4</title>
<g id="a_edge3_Node000003_Node000004"><a xlink:title=" ">
<path fill="none" stroke="#63b8ff" d="M497.89,-109.84C507.66,-101.17 520.19,-90.08 530.25,-81.15"/>
<polygon fill="#63b8ff" stroke="#63b8ff" points="532.86,-83.52 538.02,-74.27 528.22,-78.28 532.86,-83.52"/>
</a>
</g>
</g>
<!-- Node5 -->
<g id="Node000005" class="node">
<title>Node5</title>
<g id="a_Node000005"><a xlink:title=" ">
<polygon fill="#e0e0e0" stroke="#999999" points="272.91,-19 216.91,-19 216.91,0 272.91,0 272.91,-19"/>
<text text-anchor="middle" x="244.91" y="-7" font-family="Helvetica,sans-Serif" font-size="10.00">unistd.h</text>
</a>
</g>
</g>
<!-- Node3&#45;&gt;Node5 -->
<g id="edge22_Node000003_Node000005" class="edge">
<title>Node3&#45;&gt;Node5</title>
<g id="a_edge22_Node000003_Node000005"><a xlink:title=" ">
<path fill="none" stroke="#63b8ff" d="M474,-109.79C464.44,-93.97 446.88,-68.81 424.91,-55 418.84,-51.18 333.98,-31.11 282.98,-19.27"/>
<polygon fill="#63b8ff" stroke="#63b8ff" points="283.49,-15.8 272.96,-16.95 281.91,-22.61 283.49,-15.8"/>
</a>
</g>
</g>
<!-- Node6 -->
<g id="Node000006" class="node">
<title>Node6</title>
<g id="a_Node000006"><a xlink:title=" ">
<polygon fill="#e0e0e0" stroke="#999999" points="344.41,-19 291.41,-19 291.41,0 344.41,0 344.41,-19"/>
<text text-anchor="middle" x="317.91" y="-7" font-family="Helvetica,sans-Serif" font-size="10.00">stdlib.h</text>
</a>
</g>
</g>
<!-- Node3&#45;&gt;Node6 -->
<g id="edge20_Node000003_Node000006" class="edge">
<title>Node3&#45;&gt;Node6</title>
<g id="a_edge20_Node000003_Node000006"><a xlink:title=" ">
<path fill="none" stroke="#63b8ff" d="M480.69,-109.86C478.61,-94.34 473,-69.69 457.91,-55 450.3,-47.59 393.3,-30.98 354.41,-20.28"/>
<polygon fill="#63b8ff" stroke="#63b8ff" points="355.04,-16.82 344.47,-17.56 353.2,-23.57 355.04,-16.82"/>
</a>
</g>
</g>
<!-- Node7 -->
<g id="Node000007" class="node">
<title>Node7</title>
<g id="a_Node000007"><a xlink:title=" ">
<polygon fill="#e0e0e0" stroke="#999999" points="771.41,-19 718.41,-19 718.41,0 771.41,0 771.41,-19"/>
<text text-anchor="middle" x="744.91" y="-7" font-family="Helvetica,sans-Serif" font-size="10.00">string.h</text>
</a>
</g>
</g>
<!-- Node3&#45;&gt;Node7 -->
<g id="edge21_Node000003_Node000007" class="edge">
<title>Node3&#45;&gt;Node7</title>
<g id="a_edge21_Node000003_Node000007"><a xlink:title=" ">
<path fill="none" stroke="#63b8ff" d="M513.2,-109.92C544.63,-95.83 594.5,-73.62 637.91,-55 663.73,-43.92 693.21,-31.69 714.68,-22.86"/>
<polygon fill="#63b8ff" stroke="#63b8ff" points="716.02,-26.1 723.94,-19.06 713.36,-19.62 716.02,-26.1"/>
</a>
</g>
</g>
<!-- Node10 -->
<g id="Node000010" class="node">
<title>Node10</title>
<g id="a_Node000010"><a xlink:title=" ">
<polygon fill="#e0e0e0" stroke="#999999" points="836.41,-19 789.41,-19 789.41,0 836.41,0 836.41,-19"/>
<text text-anchor="middle" x="812.91" y="-7" font-family="Helvetica,sans-Serif" font-size="10.00">fcntl.h</text>
</a>
</g>
</g>
<!-- Node3&#45;&gt;Node10 -->
<g id="edge16_Node000003_Node000010" class="edge">
<title>Node3&#45;&gt;Node10</title>
<g id="a_edge16_Node000003_Node000010"><a xlink:title=" ">
<path fill="none" stroke="#63b8ff" d="M528.41,-109.98C558.06,-100.64 597.13,-87.63 630.91,-74 649.16,-66.63 652.59,-62.18 670.91,-55 707.38,-40.7 750.46,-27.73 779.53,-19.53"/>
<polygon fill="#63b8ff" stroke="#63b8ff" points="780.5,-22.89 789.2,-16.83 778.62,-16.15 780.5,-22.89"/>
</a>
</g>
</g>
<!-- Node14 -->
<g id="Node000014" class="node">
<title>Node14</title>
<g id="a_Node000014"><a xlink:href="signal__flag_8h.html" target="_top" xlink:title=" ">
<polygon fill="white" stroke="#666666" points="757.91,-74 679.91,-74 679.91,-55 757.91,-55 757.91,-74"/>
<text text-anchor="middle" x="718.91" y="-62" font-family="Helvetica,sans-Serif" font-size="10.00">signal_flag.h</text>
</a>
</g>
</g>
<!-- Node3&#45;&gt;Node14 -->
<g id="edge13_Node000003_Node000014" class="edge">
<title>Node3&#45;&gt;Node14</title>
<g id="a_edge13_Node000003_Node000014"><a xlink:title=" ">
<path fill="none" stroke="#63b8ff" d="M538.68,-109.99C580.29,-99.72 635.99,-85.97 674.4,-76.49"/>
<polygon fill="#63b8ff" stroke="#63b8ff" points="675.39,-79.85 684.26,-74.05 673.71,-73.05 675.39,-79.85"/>
</a>
</g>
</g>
<!-- Node15 -->
<g id="Node000015" class="node">
<title>Node15</title>
<g id="a_Node000015"><a xlink:title=" ">
<polygon fill="#e0e0e0" stroke="#999999" points="121.91,-74 13.91,-74 13.91,-55 121.91,-55 121.91,-74"/>
<text text-anchor="middle" x="67.91" y="-62" font-family="Helvetica,sans-Serif" font-size="10.00">readline/readline.h</text>
</a>
</g>
</g>
<!-- Node3&#45;&gt;Node15 -->
<g id="edge14_Node000003_Node000015" class="edge">
<title>Node3&#45;&gt;Node15</title>
<g id="a_edge14_Node000003_Node000015"><a xlink:title=" ">
<path fill="none" stroke="#63b8ff" d="M411.68,-114.08C333.46,-103.02 208.09,-85.31 132.31,-74.6"/>
<polygon fill="#63b8ff" stroke="#63b8ff" points="132.35,-71.07 121.96,-73.14 131.37,-78 132.35,-71.07"/>
</a>
</g>
</g>
<!-- Node16 -->
<g id="Node000016" class="node">
<title>Node16</title>
<g id="a_Node000016"><a xlink:title=" ">
<polygon fill="#e0e0e0" stroke="#999999" points="241.41,-74 140.41,-74 140.41,-55 241.41,-55 241.41,-74"/>
<text text-anchor="middle" x="190.91" y="-62" font-family="Helvetica,sans-Serif" font-size="10.00">readline/history.h</text>
</a>
</g>
</g>
<!-- Node3&#45;&gt;Node16 -->
<g id="edge15_Node000003_Node000016" class="edge">
<title>Node3&#45;&gt;Node16</title>
<g id="a_edge15_Node000003_Node000016"><a xlink:title=" ">
<path fill="none" stroke="#63b8ff" d="M412.21,-109.99C360.36,-99.56 290.69,-85.56 243.48,-76.07"/>
<polygon fill="#63b8ff" stroke="#63b8ff" points="243.95,-72.59 233.46,-74.05 242.57,-79.46 243.95,-72.59"/>
</a>
</g>
</g>
<!-- Node17 -->
<g id="Node000017" class="node">
<title>Node17</title>
<g id="a_Node000017"><a xlink:title=" ">
<polygon fill="#e0e0e0" stroke="#999999" points="331.91,-74 259.91,-74 259.91,-55 331.91,-55 331.91,-74"/>
<text text-anchor="middle" x="295.91" y="-62" font-family="Helvetica,sans-Serif" font-size="10.00">sys/types.h</text>
</a>
</g>
</g>
<!-- Node3&#45;&gt;Node17 -->
<g id="edge17_Node000003_Node000017" class="edge">
<title>Node3&#45;&gt;Node17</title>
<g id="a_edge17_Node000003_Node000017"><a xlink:title=" ">
<path fill="none" stroke="#63b8ff" d="M437.36,-109.99C405.4,-99.94 362.85,-86.55 332.79,-77.1"/>
<polygon fill="#63b8ff" stroke="#63b8ff" points="333.7,-73.72 323.11,-74.05 331.6,-80.39 333.7,-73.72"/>
</a>
</g>
</g>
<!-- Node18 -->
<g id="Node000018" class="node">
<title>Node18</title>
<g id="a_Node000018"><a xlink:title=" ">
<polygon fill="#e0e0e0" stroke="#999999" points="415.91,-74 349.91,-74 349.91,-55 415.91,-55 415.91,-74"/>
<text text-anchor="middle" x="382.91" y="-62" font-family="Helvetica,sans-Serif" font-size="10.00">sys/wait.h</text>
</a>
</g>
</g>
<!-- Node3&#45;&gt;Node18 -->
<g id="edge18_Node000003_Node000018" class="edge">
<title>Node3&#45;&gt;Node18</title>
<g id="a_edge18_Node000003_Node000018"><a xlink:title=" ">
<path fill="none" stroke="#63b8ff" d="M458.2,-109.99C442.57,-100.75 422.17,-88.7 406.55,-79.47"/>
<polygon fill="#63b8ff" stroke="#63b8ff" points="407.92,-76.21 397.53,-74.14 404.36,-82.24 407.92,-76.21"/>
</a>
</g>
</g>
<!-- Node3&#45;&gt;Node19 -->
<g id="edge19_Node000003_Node000019" class="edge">
<title>Node3&#45;&gt;Node19</title>
<g id="a_edge19_Node000003_Node000019"><a xlink:title=" ">
<path fill="none" stroke="#63b8ff" d="M552.02,-112.42C607.42,-103.1 686.95,-89.36 765.43,-74.24"/>
<polygon fill="#63b8ff" stroke="#63b8ff" points="766.34,-77.62 775.49,-72.29 765.01,-70.75 766.34,-77.62"/>
</a>
</g>
</g>
<!-- Node4&#45;&gt;Node5 -->
<g id="edge4_Node000004_Node000005" class="edge">
<title>Node4&#45;&gt;Node5</title>
<g id="a_edge4_Node000004_Node000005"><a xlink:title=" ">
<path fill="none" stroke="#63b8ff" d="M510.34,-57.94C460.62,-50.43 370.02,-36.18 283.18,-19.15"/>
<polygon fill="#63b8ff" stroke="#63b8ff" points="283.65,-15.68 273.16,-17.17 282.29,-22.55 283.65,-15.68"/>
</a>
</g>
</g>
<!-- Node4&#45;&gt;Node6 -->
<g id="edge5_Node000004_Node000006" class="edge">
<title>Node4&#45;&gt;Node6</title>
<g id="a_edge5_Node000004_Node000006"><a xlink:title=" ">
<path fill="none" stroke="#63b8ff" d="M510.13,-55.04C472.89,-46.67 414.11,-33.35 354.6,-19.38"/>
<polygon fill="#63b8ff" stroke="#63b8ff" points="355.19,-15.92 344.66,-17.04 353.59,-22.73 355.19,-15.92"/>
</a>
</g>
</g>
<!-- Node4&#45;&gt;Node7 -->
<g id="edge6_Node000004_Node000007" class="edge">
<title>Node4&#45;&gt;Node7</title>
<g id="a_edge6_Node000004_Node000007"><a xlink:title=" ">
<path fill="none" stroke="#63b8ff" d="M579.56,-54.98C614.76,-45.52 671.51,-30.25 708.51,-20.29"/>
<polygon fill="#63b8ff" stroke="#63b8ff" points="709.64,-23.61 718.39,-17.63 707.83,-16.85 709.64,-23.61"/>
</a>
</g>
</g>
<!-- Node4&#45;&gt;Node8 -->
<g id="edge7_Node000004_Node000008" class="edge">
<title>Node4&#45;&gt;Node8</title>
<g id="a_edge7_Node000004_Node000008"><a xlink:title=" ">
<path fill="none" stroke="#63b8ff" d="M510.31,-58.98C426.2,-48.87 223.85,-24.55 142.08,-14.73"/>
<polygon fill="#63b8ff" stroke="#63b8ff" points="142.38,-11.24 132.04,-13.52 141.55,-18.19 142.38,-11.24"/>
</a>
</g>
</g>
<!-- Node9 -->
<g id="Node000009" class="node">
<title>Node9</title>
<g id="a_Node000009"><a xlink:title=" ">
<polygon fill="#e0e0e0" stroke="#999999" points="417.41,-19 362.41,-19 362.41,0 417.41,0 417.41,-19"/>
<text text-anchor="middle" x="389.91" y="-7" font-family="Helvetica,sans-Serif" font-size="10.00">signal.h</text>
</a>
</g>
</g>
<!-- Node4&#45;&gt;Node9 -->
<g id="edge8_Node000004_Node000009" class="edge">
<title>Node4&#45;&gt;Node9</title>
<g id="a_edge8_Node000004_Node000009"><a xlink:title=" ">
<path fill="none" stroke="#63b8ff" d="M522.53,-54.98C496.11,-46.13 454.57,-32.19 425.02,-22.28"/>
<polygon fill="#63b8ff" stroke="#63b8ff" points="426.09,-18.94 415.5,-19.08 423.86,-25.58 426.09,-18.94"/>
</a>
</g>
</g>
<!-- Node4&#45;&gt;Node10 -->
<g id="edge9_Node000004_Node000010" class="edge">
<title>Node4&#45;&gt;Node10</title>
<g id="a_edge9_Node000004_Node000010"><a xlink:title=" ">
<path fill="none" stroke="#63b8ff" d="M585.61,-57.15C629.84,-49.51 705.59,-35.85 779.28,-19.25"/>
<polygon fill="#63b8ff" stroke="#63b8ff" points="780.22,-22.63 789.19,-17 778.67,-15.8 780.22,-22.63"/>
</a>
</g>
</g>
<!-- Node11 -->
<g id="Node000011" class="node">
<title>Node11</title>
<g id="a_Node000011"><a xlink:title=" ">
<polygon fill="#e0e0e0" stroke="#999999" points="554.41,-19 435.41,-19 435.41,0 554.41,0 554.41,-19"/>
<text text-anchor="middle" x="494.91" y="-7" font-family="Helvetica,sans-Serif" font-size="10.00">bits/types/siginfo_t.h</text>
</a>
</g>
</g>
<!-- Node4&#45;&gt;Node11 -->
<g id="edge10_Node000004_Node000011" class="edge">
<title>Node4&#45;&gt;Node11</title>
<g id="a_edge10_Node000004_Node000011"><a xlink:title=" ">
<path fill="none" stroke="#63b8ff" d="M539.16,-54.75C531.44,-47.03 520.01,-35.6 510.7,-26.28"/>
<polygon fill="#63b8ff" stroke="#63b8ff" points="513.05,-23.69 503.5,-19.09 508.1,-28.64 513.05,-23.69"/>
</a>
</g>
</g>
<!-- Node12 -->
<g id="Node000012" class="node">
<title>Node12</title>
<g id="a_Node000012"><a xlink:title=" ">
<polygon fill="#e0e0e0" stroke="#999999" points="628.91,-19 572.91,-19 572.91,0 628.91,0 628.91,-19"/>
<text text-anchor="middle" x="600.91" y="-7" font-family="Helvetica,sans-Serif" font-size="10.00">stdarg.h</text>
</a>
</g>
</g>
<!-- Node4&#45;&gt;Node12 -->
<g id="edge11_Node000004_Node000012" class="edge">
<title>Node4&#45;&gt;Node12</title>
<g id="a_edge11_Node000004_Node000012"><a xlink:title=" ">
<path fill="none" stroke="#63b8ff" d="M556.66,-54.75C564.38,-47.03 575.82,-35.6 585.13,-26.28"/>
<polygon fill="#63b8ff" stroke="#63b8ff" points="587.73,-28.64 592.32,-19.09 582.78,-23.69 587.73,-28.64"/>
</a>
</g>
</g>
<!-- Node13 -->
<g id="Node000013" class="node">
<title>Node13</title>
<g id="a_Node000013"><a xlink:title=" ">
<polygon fill="#e0e0e0" stroke="#999999" points="700.41,-19 647.41,-19 647.41,0 700.41,0 700.41,-19"/>
<text text-anchor="middle" x="673.91" y="-7" font-family="Helvetica,sans-Serif" font-size="10.00">limits.h</text>
</a>
</g>
</g>
<!-- Node4&#45;&gt;Node13 -->
<g id="edge12_Node000004_Node000013" class="edge">
<title>Node4&#45;&gt;Node13</title>
<g id="a_edge12_Node000004_Node000013"><a xlink:title=" ">
<path fill="none" stroke="#63b8ff" d="M568.16,-54.98C588.61,-46.38 620.44,-32.99 643.84,-23.15"/>
<polygon fill="#63b8ff" stroke="#63b8ff" points="645.44,-26.27 653.3,-19.17 642.72,-19.82 645.44,-26.27"/>
</a>
</g>
</g>
</g>
</svg>
