<?xml version="1.0" encoding="UTF-8" standalone="no"?>
<!DOCTYPE svg PUBLIC "-//W3C//DTD SVG 1.1//EN"
 "http://www.w3.org/Graphics/SVG/1.1/DTD/svg11.dtd">
<!-- Generated by graphviz version 2.43.0 (0)
 -->
<!-- Title: handle_redirection Pages: 1 -->
<svg width="638pt" height="27pt"
 viewBox="0.00 0.00 638.00 27.00" xmlns="http://www.w3.org/2000/svg" xmlns:xlink="http://www.w3.org/1999/xlink">
<g id="graph0" class="graph" transform="scale(1 1) rotate(0) translate(4 23)">
<title>handle_redirection</title>
<!-- Node1 -->
<g id="Node000001" class="node">
<title>Node1</title>
<g id="a_Node000001"><a xlink:title="Handles redirection associated with a command.">
<polygon fill="#999999" stroke="#666666" points="630,-19 523,-19 523,0 630,0 630,-19"/>
<text text-anchor="middle" x="576.5" y="-7" font-family="Helvetica,sans-Serif" font-size="10.00">handle_redirection</text>
</a>
</g>
</g>
<!-- Node2 -->
<g id="Node000002" class="node">
<title>Node2</title>
<g id="a_Node000002"><a xlink:href="create__command__list_8c.html#ae2006bf82a70d4753ffdca65847316ca" target="_top" xlink:title="Executes a redirection for the current command.">
<polygon fill="white" stroke="#666666" points="487,-19 413,-19 413,0 487,0 487,-19"/>
<text text-anchor="middle" x="450" y="-7" font-family="Helvetica,sans-Serif" font-size="10.00">ft_exe_redir</text>
</a>
</g>
</g>
<!-- Node1&#45;&gt;Node2 -->
<g id="edge1_Node000001_Node000002" class="edge">
<title>Node1&#45;&gt;Node2</title>
<g id="a_edge1_Node000001_Node000002"><a xlink:title=" ">
<path fill="none" stroke="#63b8ff" d="M512.56,-9.5C503.9,-9.5 495.25,-9.5 487.3,-9.5"/>
<polygon fill="#63b8ff" stroke="#63b8ff" points="512.7,-13 522.7,-9.5 512.7,-6 512.7,-13"/>
</a>
</g>
</g>
<!-- Node3 -->
<g id="Node000003" class="node">
<title>Node3</title>
<g id="a_Node000003"><a xlink:href="create__command__list_8c.html#ad16d74756b107a98677124008c71d23b" target="_top" xlink:title="Creates a command list from tokens.">
<polygon fill="white" stroke="#666666" points="377,-19 309,-19 309,0 377,0 377,-19"/>
<text text-anchor="middle" x="343" y="-7" font-family="Helvetica,sans-Serif" font-size="10.00">create_list</text>
</a>
</g>
</g>
<!-- Node2&#45;&gt;Node3 -->
<g id="edge2_Node000002_Node000003" class="edge">
<title>Node2&#45;&gt;Node3</title>
<g id="a_edge2_Node000002_Node000003"><a xlink:title=" ">
<path fill="none" stroke="#63b8ff" d="M402.83,-9.5C394.14,-9.5 385.22,-9.5 377.03,-9.5"/>
<polygon fill="#63b8ff" stroke="#63b8ff" points="402.86,-13 412.86,-9.5 402.86,-6 402.86,-13"/>
</a>
</g>
</g>
<!-- Node4 -->
<g id="Node000004" class="node">
<title>Node4</title>
<g id="a_Node000004"><a xlink:href="main__utils_8c.html#a7e8f478480ab6ab34d6f5eadaf6acdb9" target="_top" xlink:title="Handles parsing and execution of tokens.">
<polygon fill="white" stroke="#666666" points="273,-19 192,-19 192,0 273,0 273,-19"/>
<text text-anchor="middle" x="232.5" y="-7" font-family="Helvetica,sans-Serif" font-size="10.00">ft_token_flow</text>
</a>
</g>
</g>
<!-- Node3&#45;&gt;Node4 -->
<g id="edge3_Node000003_Node000004" class="edge">
<title>Node3&#45;&gt;Node4</title>
<g id="a_edge3_Node000003_Node000004"><a xlink:title=" ">
<path fill="none" stroke="#63b8ff" d="M298.83,-9.5C290.41,-9.5 281.62,-9.5 273.31,-9.5"/>
<polygon fill="#63b8ff" stroke="#63b8ff" points="298.86,-13 308.86,-9.5 298.86,-6 298.86,-13"/>
</a>
</g>
</g>
<!-- Node5 -->
<g id="Node000005" class="node">
<title>Node5</title>
<g id="a_Node000005"><a xlink:href="main__utils_8c.html#ae35edfb8f1339d6f77f53c28eb2a2ed6" target="_top" xlink:title="Handles a complete cycle of input → parsing → execution.">
<polygon fill="white" stroke="#666666" points="156,-19 77,-19 77,0 156,0 156,-19"/>
<text text-anchor="middle" x="116.5" y="-7" font-family="Helvetica,sans-Serif" font-size="10.00">ft_main_flow</text>
</a>
</g>
</g>
<!-- Node4&#45;&gt;Node5 -->
<g id="edge4_Node000004_Node000005" class="edge">
<title>Node4&#45;&gt;Node5</title>
<g id="a_edge4_Node000004_Node000005"><a xlink:title=" ">
<path fill="none" stroke="#63b8ff" d="M181.7,-9.5C173.16,-9.5 164.4,-9.5 156.21,-9.5"/>
<polygon fill="#63b8ff" stroke="#63b8ff" points="181.95,-13 191.95,-9.5 181.95,-6 181.95,-13"/>
</a>
</g>
</g>
<!-- Node6 -->
<g id="Node000006" class="node">
<title>Node6</title>
<g id="a_Node000006"><a xlink:href="main_8c.html#ab3862b46d6a8d13c2d884a297e6b05b5" target="_top" xlink:title="Main function of the minishell.">
<polygon fill="white" stroke="#666666" points="41,-19 0,-19 0,0 41,0 41,-19"/>
<text text-anchor="middle" x="20.5" y="-7" font-family="Helvetica,sans-Serif" font-size="10.00">main</text>
</a>
</g>
</g>
<!-- Node5&#45;&gt;Node6 -->
<g id="edge5_Node000005_Node000006" class="edge">
<title>Node5&#45;&gt;Node6</title>
<g id="a_edge5_Node000005_Node000006"><a xlink:title=" ">
<path fill="none" stroke="#63b8ff" d="M66.74,-9.5C57.62,-9.5 48.59,-9.5 41.03,-9.5"/>
<polygon fill="#63b8ff" stroke="#63b8ff" points="67,-13 77,-9.5 67,-6 67,-13"/>
</a>
</g>
</g>
</g>
</svg>
