<?xml version="1.0" encoding="UTF-8" standalone="no"?>
<!DOCTYPE svg PUBLIC "-//W3C//DTD SVG 1.1//EN"
 "http://www.w3.org/Graphics/SVG/1.1/DTD/svg11.dtd">
<!-- Generated by graphviz version 2.43.0 (0)
 -->
<!-- Title: handle_redirection_without_command Pages: 1 -->
<svg width="1257pt" height="721pt"
 viewBox="0.00 0.00 1257.00 721.00" xmlns="http://www.w3.org/2000/svg" xmlns:xlink="http://www.w3.org/1999/xlink">
<g id="graph0" class="graph" transform="scale(1 1) rotate(0) translate(4 717)">
<title>handle_redirection_without_command</title>
<!-- Node1 -->
<g id="Node000001" class="node">
<title>Node1</title>
<g id="a_Node000001"><a xlink:title="Handles redirections without an associated command.">
<polygon fill="#999999" stroke="#666666" points="113,-467.5 0,-467.5 0,-437.5 113,-437.5 113,-467.5"/>
<text text-anchor="start" x="8" y="-455.5" font-family="Helvetica,sans-Serif" font-size="10.00">handle_redirection</text>
<text text-anchor="middle" x="56.5" y="-444.5" font-family="Helvetica,sans-Serif" font-size="10.00">_without_command</text>
</a>
</g>
</g>
<!-- Node2 -->
<g id="Node000002" class="node">
<title>Node2</title>
<g id="a_Node000002"><a xlink:href="handle__redirections_8c.html#a2834314002a1f4ef4af82f95159b0a34" target="_top" xlink:title="Handles input redirection from file or heredoc.">
<polygon fill="white" stroke="#666666" points="268,-481 149,-481 149,-462 268,-462 268,-481"/>
<text text-anchor="middle" x="208.5" y="-469" font-family="Helvetica,sans-Serif" font-size="10.00">ft_handle_infile_redir</text>
</a>
</g>
</g>
<!-- Node1&#45;&gt;Node2 -->
<g id="edge1_Node000001_Node000002" class="edge">
<title>Node1&#45;&gt;Node2</title>
<g id="a_edge1_Node000001_Node000002"><a xlink:title=" ">
<path fill="none" stroke="#63b8ff" d="M113.35,-459.57C121.68,-460.63 130.33,-461.73 138.88,-462.81"/>
<polygon fill="#63b8ff" stroke="#63b8ff" points="138.48,-466.29 148.84,-464.07 139.36,-459.34 138.48,-466.29"/>
</a>
</g>
</g>
<!-- Node40 -->
<g id="Node000040" class="node">
<title>Node40</title>
<g id="a_Node000040"><a xlink:href="utils__pipes_8c.html#aa5bc406fd1d5aadd2018c5c2061d31ba" target="_top" xlink:title="Restores the previously duplicated standard input.">
<polygon fill="white" stroke="#666666" points="247,-444 170,-444 170,-425 247,-425 247,-444"/>
<text text-anchor="middle" x="208.5" y="-432" font-family="Helvetica,sans-Serif" font-size="10.00">restore_sdin</text>
</a>
</g>
</g>
<!-- Node1&#45;&gt;Node40 -->
<g id="edge59_Node000001_Node000040" class="edge">
<title>Node1&#45;&gt;Node40</title>
<g id="a_edge59_Node000001_Node000040"><a xlink:title=" ">
<path fill="none" stroke="#63b8ff" d="M113.35,-445.8C128.65,-443.96 145.08,-441.99 159.87,-440.22"/>
<polygon fill="#63b8ff" stroke="#63b8ff" points="160.3,-443.69 169.81,-439.02 159.47,-436.74 160.3,-443.69"/>
</a>
</g>
</g>
<!-- Node3 -->
<g id="Node000003" class="node">
<title>Node3</title>
<g id="a_Node000003"><a xlink:href="redir__utils_8c.html#acd7b4a57306a2984ae26bceaa9d97888" target="_top" xlink:title="Checks for following heredocs in tokens and removes the temporary file.">
<polygon fill="white" stroke="#666666" points="568,-507 477,-507 477,-488 568,-488 568,-507"/>
<text text-anchor="middle" x="522.5" y="-495" font-family="Helvetica,sans-Serif" font-size="10.00">ft_end_heredoc</text>
</a>
</g>
</g>
<!-- Node2&#45;&gt;Node3 -->
<g id="edge2_Node000002_Node000003" class="edge">
<title>Node2&#45;&gt;Node3</title>
<g id="a_edge2_Node000002_Node000003"><a xlink:title=" ">
<path fill="none" stroke="#63b8ff" d="M268.18,-476.39C325.18,-481.14 411.04,-488.3 466.69,-492.93"/>
<polygon fill="#63b8ff" stroke="#63b8ff" points="466.46,-496.43 476.71,-493.77 467.04,-489.45 466.46,-496.43"/>
</a>
</g>
</g>
<!-- Node4 -->
<g id="Node000004" class="node">
<title>Node4</title>
<g id="a_Node000004"><a xlink:href="utils__fd_8c.html#aae58663bcc5fdd74e961d307a7f7f51a" target="_top" xlink:title="Checks if there is at least one HEREDOC token in the token list.">
<polygon fill="white" stroke="#666666" points="707.5,-566 606.5,-566 606.5,-547 707.5,-547 707.5,-566"/>
<text text-anchor="middle" x="657" y="-554" font-family="Helvetica,sans-Serif" font-size="10.00">ft_found_heredoc</text>
</a>
</g>
</g>
<!-- Node2&#45;&gt;Node4 -->
<g id="edge4_Node000002_Node000004" class="edge">
<title>Node2&#45;&gt;Node4</title>
<g id="a_edge4_Node000002_Node000004"><a xlink:title=" ">
<path fill="none" stroke="#63b8ff" d="M239.49,-481.02C257.96,-486.65 282.19,-493.6 304,-498.5 405.81,-521.35 526.06,-539.24 596.39,-548.81"/>
<polygon fill="#63b8ff" stroke="#63b8ff" points="596.02,-552.29 606.39,-550.16 596.95,-545.35 596.02,-552.29"/>
</a>
</g>
</g>
<!-- Node5 -->
<g id="Node000005" class="node">
<title>Node5</title>
<g id="a_Node000005"><a xlink:href="handle__heredoc_8c.html#a922eae1c49290306f7cf811bf65d9ed1" target="_top" xlink:title="Handles the entire input process for a here&#45;document.">
<polygon fill="white" stroke="#666666" points="419.5,-458 325.5,-458 325.5,-439 419.5,-439 419.5,-458"/>
<text text-anchor="middle" x="372.5" y="-446" font-family="Helvetica,sans-Serif" font-size="10.00">handle_heredoc</text>
</a>
</g>
</g>
<!-- Node2&#45;&gt;Node5 -->
<g id="edge5_Node000002_Node000005" class="edge">
<title>Node2&#45;&gt;Node5</title>
<g id="a_edge5_Node000002_Node000005"><a xlink:title=" ">
<path fill="none" stroke="#63b8ff" d="M268.44,-463.13C283.66,-460.97 300,-458.65 315.08,-456.51"/>
<polygon fill="#63b8ff" stroke="#63b8ff" points="315.89,-459.93 325.29,-455.06 314.9,-453 315.89,-459.93"/>
</a>
</g>
</g>
<!-- Node39 -->
<g id="Node000039" class="node">
<title>Node39</title>
<g id="a_Node000039"><a xlink:href="utils__pipes_8c.html#a4112bdd2bc0766ff52195f2ab3a53339" target="_top" xlink:title="Handles input redirection from a file.">
<polygon fill="white" stroke="#666666" points="441,-421 304,-421 304,-402 441,-402 441,-421"/>
<text text-anchor="middle" x="372.5" y="-409" font-family="Helvetica,sans-Serif" font-size="10.00">handle_input_redirection</text>
</a>
</g>
</g>
<!-- Node2&#45;&gt;Node39 -->
<g id="edge58_Node000002_Node000039" class="edge">
<title>Node2&#45;&gt;Node39</title>
<g id="a_edge58_Node000002_Node000039"><a xlink:title=" ">
<path fill="none" stroke="#63b8ff" d="M245.96,-461.95C253.39,-459.54 261.06,-456.71 268,-453.5 285.23,-445.52 286.67,-438.27 304,-430.5 309.27,-428.14 314.9,-426 320.58,-424.08"/>
<polygon fill="#63b8ff" stroke="#63b8ff" points="321.64,-427.42 330.12,-421.07 319.53,-420.74 321.64,-427.42"/>
</a>
</g>
</g>
<!-- Node3&#45;&gt;Node4 -->
<g id="edge3_Node000003_Node000004" class="edge">
<title>Node3&#45;&gt;Node4</title>
<g id="a_edge3_Node000003_Node000004"><a xlink:title=" ">
<path fill="none" stroke="#63b8ff" d="M540.76,-507.17C556.84,-515.96 581.63,-528.98 604,-538.5 607.96,-540.18 612.13,-541.83 616.32,-543.4"/>
<polygon fill="#63b8ff" stroke="#63b8ff" points="615.44,-546.81 626.03,-546.92 617.82,-540.22 615.44,-546.81"/>
</a>
</g>
</g>
<!-- Node6 -->
<g id="Node000006" class="node">
<title>Node6</title>
<g id="a_Node000006"><a xlink:href="utils__fd_8c.html#a9cf70d06db18597b04bb642db7abab4a" target="_top" xlink:title="Checks if a file descriptor is valid.">
<polygon fill="white" stroke="#666666" points="558.5,-417 486.5,-417 486.5,-398 558.5,-398 558.5,-417"/>
<text text-anchor="middle" x="522.5" y="-405" font-family="Helvetica,sans-Serif" font-size="10.00">ft_check_fd</text>
</a>
</g>
</g>
<!-- Node5&#45;&gt;Node6 -->
<g id="edge6_Node000005_Node000006" class="edge">
<title>Node5&#45;&gt;Node6</title>
<g id="a_edge6_Node000005_Node000006"><a xlink:title=" ">
<path fill="none" stroke="#63b8ff" d="M409.61,-439C419.78,-436.29 430.83,-433.31 441,-430.5 453.26,-427.11 466.54,-423.36 478.72,-419.88"/>
<polygon fill="#63b8ff" stroke="#63b8ff" points="479.99,-423.15 488.64,-417.03 478.06,-416.42 479.99,-423.15"/>
</a>
</g>
</g>
<!-- Node7 -->
<g id="Node000007" class="node">
<title>Node7</title>
<g id="a_Node000007"><a xlink:href="handle__heredoc_8c.html#ac5ba13b1edbd22e4a7e0a50fc91f80db" target="_top" xlink:title="Executes a single read&#45;write cycle of the here&#45;document.">
<polygon fill="white" stroke="#666666" points="567.5,-454 477.5,-454 477.5,-435 567.5,-435 567.5,-454"/>
<text text-anchor="middle" x="522.5" y="-442" font-family="Helvetica,sans-Serif" font-size="10.00">ft_exe_heredoc</text>
</a>
</g>
</g>
<!-- Node5&#45;&gt;Node7 -->
<g id="edge7_Node000005_Node000007" class="edge">
<title>Node5&#45;&gt;Node7</title>
<g id="a_edge7_Node000005_Node000007"><a xlink:title=" ">
<path fill="none" stroke="#63b8ff" d="M419.52,-447.26C434.62,-446.85 451.55,-446.39 467.21,-445.97"/>
<polygon fill="#63b8ff" stroke="#63b8ff" points="467.38,-449.46 477.28,-445.7 467.19,-442.47 467.38,-449.46"/>
</a>
</g>
</g>
<!-- Node7&#45;&gt;Node4 -->
<g id="edge30_Node000007_Node000004" class="edge">
<title>Node7&#45;&gt;Node4</title>
<g id="a_edge30_Node000007_Node000004"><a xlink:title=" ">
<path fill="none" stroke="#63b8ff" d="M538.23,-454.06C547.47,-460.52 559.26,-469.65 568,-479.5 588.4,-502.47 580.08,-519.23 604,-538.5 605.59,-539.78 607.28,-540.97 609.03,-542.08"/>
<polygon fill="#63b8ff" stroke="#63b8ff" points="607.8,-545.39 618.27,-546.97 611.07,-539.2 607.8,-545.39"/>
</a>
</g>
</g>
<!-- Node8 -->
<g id="Node000008" class="node">
<title>Node8</title>
<g id="a_Node000008"><a xlink:href="redir__utils_8c.html#aff3d6a56d03d5df38cbb3e1f171eb191" target="_top" xlink:title="Expands environment variables in a line and writes the result to a file descriptor.">
<polygon fill="white" stroke="#666666" points="700,-397 614,-397 614,-378 700,-378 700,-397"/>
<text text-anchor="middle" x="657" y="-385" font-family="Helvetica,sans-Serif" font-size="10.00">ft_for_env_var</text>
</a>
</g>
</g>
<!-- Node7&#45;&gt;Node8 -->
<g id="edge8_Node000007_Node000008" class="edge">
<title>Node7&#45;&gt;Node8</title>
<g id="a_edge8_Node000007_Node000008"><a xlink:title=" ">
<path fill="none" stroke="#63b8ff" d="M547.58,-434.93C554.21,-432.24 561.4,-429.3 568,-426.5 587.16,-418.38 608.51,-408.93 625.38,-401.36"/>
<polygon fill="#63b8ff" stroke="#63b8ff" points="627.06,-404.45 634.75,-397.15 624.19,-398.06 627.06,-404.45"/>
</a>
</g>
</g>
<!-- Node12 -->
<g id="Node000012" class="node">
<title>Node12</title>
<g id="a_Node000012"><a xlink:href="ft__strlen_8c.html#a828402378653640f545a4be2e00e92f9" target="_top" xlink:title="Calculates the length of a null&#45;terminated string.">
<polygon fill="white" stroke="#666666" points="1241.5,-359 1185.5,-359 1185.5,-340 1241.5,-340 1241.5,-359"/>
<text text-anchor="middle" x="1213.5" y="-347" font-family="Helvetica,sans-Serif" font-size="10.00">ft_strlen</text>
</a>
</g>
</g>
<!-- Node7&#45;&gt;Node12 -->
<g id="edge49_Node000007_Node000012" class="edge">
<title>Node7&#45;&gt;Node12</title>
<g id="a_edge49_Node000007_Node000012"><a xlink:title=" ">
<path fill="none" stroke="#63b8ff" d="M567.53,-446.77C700.36,-453.29 1091.16,-470.08 1142,-444.5 1158.43,-436.23 1186.38,-393.03 1201.69,-367.82"/>
<polygon fill="#63b8ff" stroke="#63b8ff" points="1204.75,-369.53 1206.89,-359.15 1198.74,-365.93 1204.75,-369.53"/>
</a>
</g>
</g>
<!-- Node16 -->
<g id="Node000016" class="node">
<title>Node16</title>
<g id="a_Node000016"><a xlink:href="ft__strjoin_8c.html#a91e6e3e428bcc9f2291b700e1829b82b" target="_top" xlink:title="Concatenates two strings into a newly allocated string.">
<polygon fill="white" stroke="#666666" points="1116.5,-209 1057.5,-209 1057.5,-190 1116.5,-190 1116.5,-209"/>
<text text-anchor="middle" x="1087" y="-197" font-family="Helvetica,sans-Serif" font-size="10.00">ft_strjoin</text>
</a>
</g>
</g>
<!-- Node7&#45;&gt;Node16 -->
<g id="edge48_Node000007_Node000016" class="edge">
<title>Node7&#45;&gt;Node16</title>
<g id="a_edge48_Node000007_Node000016"><a xlink:title=" ">
<path fill="none" stroke="#63b8ff" d="M557.25,-434.79C561.25,-432.56 564.98,-429.83 568,-426.5 605.98,-384.63 565.07,-345.49 604,-304.5 723.42,-178.76 955.47,-186.24 1047.27,-194.86"/>
<polygon fill="#63b8ff" stroke="#63b8ff" points="1047.2,-198.37 1057.5,-195.88 1047.9,-191.41 1047.2,-198.37"/>
</a>
</g>
</g>
<!-- Node19 -->
<g id="Node000019" class="node">
<title>Node19</title>
<g id="a_Node000019"><a xlink:href="ft__strdup_8c.html#aebe73f27c70c56ac5053f860ef5436c9" target="_top" xlink:title="Duplicates a null&#45;terminated string by allocating memory.">
<polygon fill="white" stroke="#666666" points="1243,-133 1184,-133 1184,-114 1243,-114 1243,-133"/>
<text text-anchor="middle" x="1213.5" y="-121" font-family="Helvetica,sans-Serif" font-size="10.00">ft_strdup</text>
</a>
</g>
</g>
<!-- Node7&#45;&gt;Node19 -->
<g id="edge47_Node000007_Node000019" class="edge">
<title>Node7&#45;&gt;Node19</title>
<g id="a_edge47_Node000007_Node000019"><a xlink:title=" ">
<path fill="none" stroke="#63b8ff" d="M558.02,-434.82C561.8,-432.59 565.26,-429.86 568,-426.5 623.72,-358.22 562.06,-309.01 604,-231.5 660.39,-127.26 678.49,-47.5 797,-47.5 797,-47.5 797,-47.5 942,-47.5 1032.82,-47.5 1134.6,-87.69 1183.37,-109.62"/>
<polygon fill="#63b8ff" stroke="#63b8ff" points="1182.13,-112.9 1192.68,-113.87 1185.04,-106.53 1182.13,-112.9"/>
</a>
</g>
</g>
<!-- Node23 -->
<g id="Node000023" class="node">
<title>Node23</title>
<g id="a_Node000023"><a xlink:href="handle__heredoc_8c.html#a9a25ed2a488d16a1f121e7803ec7fbf8" target="_top" xlink:title="Returns the value of the token used as the here&#45;document delimiter.">
<polygon fill="white" stroke="#666666" points="710,-19 604,-19 604,0 710,0 710,-19"/>
<text text-anchor="middle" x="657" y="-7" font-family="Helvetica,sans-Serif" font-size="10.00">ft_found_delimiter</text>
</a>
</g>
</g>
<!-- Node7&#45;&gt;Node23 -->
<g id="edge29_Node000007_Node000023" class="edge">
<title>Node7&#45;&gt;Node23</title>
<g id="a_edge29_Node000007_Node000023"><a xlink:title=" ">
<path fill="none" stroke="#63b8ff" d="M558.74,-434.79C562.3,-432.57 565.52,-429.85 568,-426.5 672.59,-285.7 502.82,-176.77 604,-33.5 606.48,-29.98 609.62,-26.97 613.11,-24.39"/>
<polygon fill="#63b8ff" stroke="#63b8ff" points="615.04,-27.31 621.76,-19.12 611.4,-21.33 615.04,-27.31"/>
</a>
</g>
</g>
<!-- Node24 -->
<g id="Node000024" class="node">
<title>Node24</title>
<g id="a_Node000024"><a xlink:href="ft__printf_8c.html#a091532b7f37af84bdecc84dccf4eedb1" target="_top" xlink:title="A simplified printf function that outputs formatted data to a given file descriptor.">
<polygon fill="white" stroke="#666666" points="684.5,-529 629.5,-529 629.5,-510 684.5,-510 684.5,-529"/>
<text text-anchor="middle" x="657" y="-517" font-family="Helvetica,sans-Serif" font-size="10.00">ft_printf</text>
</a>
</g>
</g>
<!-- Node7&#45;&gt;Node24 -->
<g id="edge31_Node000007_Node000024" class="edge">
<title>Node7&#45;&gt;Node24</title>
<g id="a_edge31_Node000007_Node000024"><a xlink:title=" ">
<path fill="none" stroke="#63b8ff" d="M534.83,-454.11C549.83,-466.44 577.5,-487.88 604,-501.5 608.99,-504.07 614.43,-506.4 619.85,-508.48"/>
<polygon fill="#63b8ff" stroke="#63b8ff" points="618.89,-511.85 629.48,-511.93 621.25,-505.26 618.89,-511.85"/>
</a>
</g>
</g>
<!-- Node34 -->
<g id="Node000034" class="node">
<title>Node34</title>
<g id="a_Node000034"><a xlink:href="ft__strcmp_8c.html#a1f2ff2312e5994560c9537cd9173be94" target="_top" xlink:title="Compares two null&#45;terminated strings lexicographically.">
<polygon fill="white" stroke="#666666" points="688,-492 626,-492 626,-473 688,-473 688,-492"/>
<text text-anchor="middle" x="657" y="-480" font-family="Helvetica,sans-Serif" font-size="10.00">ft_strcmp</text>
</a>
</g>
</g>
<!-- Node7&#45;&gt;Node34 -->
<g id="edge46_Node000007_Node000034" class="edge">
<title>Node7&#45;&gt;Node34</title>
<g id="a_edge46_Node000007_Node000034"><a xlink:title=" ">
<path fill="none" stroke="#63b8ff" d="M556.94,-454.09C574.87,-459.23 597.1,-465.61 615.95,-471.01"/>
<polygon fill="#63b8ff" stroke="#63b8ff" points="615.17,-474.43 625.75,-473.82 617.1,-467.7 615.17,-474.43"/>
</a>
</g>
</g>
<!-- Node35 -->
<g id="Node000035" class="node">
<title>Node35</title>
<g id="a_Node000035"><a xlink:href="get__next__line_8c.html#a78d68a5f50a6eec0380ce25b4a1bd5b7" target="_top" xlink:title=" ">
<polygon fill="white" stroke="#666666" points="839.5,-283 756.5,-283 756.5,-264 839.5,-264 839.5,-283"/>
<text text-anchor="middle" x="798" y="-271" font-family="Helvetica,sans-Serif" font-size="10.00">get_next_line</text>
</a>
</g>
</g>
<!-- Node7&#45;&gt;Node35 -->
<g id="edge50_Node000007_Node000035" class="edge">
<title>Node7&#45;&gt;Node35</title>
<g id="a_edge50_Node000007_Node000035"><a xlink:title=" ">
<path fill="none" stroke="#63b8ff" d="M554.62,-434.89C559.4,-432.6 564.05,-429.83 568,-426.5 591.21,-406.96 581.87,-389.26 604,-368.5 656.21,-319.53 680.76,-321.95 746,-292.5 750.4,-290.51 755.07,-288.57 759.73,-286.72"/>
<polygon fill="#63b8ff" stroke="#63b8ff" points="761.12,-289.94 769.2,-283.09 758.61,-283.4 761.12,-289.94"/>
</a>
</g>
</g>
<!-- Node9 -->
<g id="Node000009" class="node">
<title>Node9</title>
<g id="a_Node000009"><a xlink:href="utils__env_8c.html#a78e10627f49df6e904925e22ae6ee15f" target="_top" xlink:title="Performs environment variable expansion in a string.">
<polygon fill="white" stroke="#666666" points="850,-321 746,-321 746,-302 850,-302 850,-321"/>
<text text-anchor="middle" x="798" y="-309" font-family="Helvetica,sans-Serif" font-size="10.00">ft_expand_envvar</text>
</a>
</g>
</g>
<!-- Node8&#45;&gt;Node9 -->
<g id="edge9_Node000008_Node000009" class="edge">
<title>Node8&#45;&gt;Node9</title>
<g id="a_edge9_Node000008_Node000009"><a xlink:title=" ">
<path fill="none" stroke="#63b8ff" d="M675.6,-377.87C699.63,-364.74 742.87,-341.1 770.73,-325.86"/>
<polygon fill="#63b8ff" stroke="#63b8ff" points="772.44,-328.92 779.54,-321.05 769.09,-322.77 772.44,-328.92"/>
</a>
</g>
</g>
<!-- Node8&#45;&gt;Node12 -->
<g id="edge28_Node000008_Node000012" class="edge">
<title>Node8&#45;&gt;Node12</title>
<g id="a_edge28_Node000008_Node000012"><a xlink:title=" ">
<path fill="none" stroke="#63b8ff" d="M700.03,-388.7C784.35,-390.45 979.95,-391.27 1142,-367.5 1152.99,-365.89 1164.74,-363.26 1175.44,-360.51"/>
<polygon fill="#63b8ff" stroke="#63b8ff" points="1176.57,-363.83 1185.32,-357.85 1174.75,-357.07 1176.57,-363.83"/>
</a>
</g>
</g>
<!-- Node10 -->
<g id="Node000010" class="node">
<title>Node10</title>
<g id="a_Node000010"><a xlink:href="utils__env_8c.html#a4ea711c91d64ff7669bf6ac7e6b6b9dd" target="_top" xlink:title="Expands an environment variable found in a string.">
<polygon fill="white" stroke="#666666" points="973.5,-322 908.5,-322 908.5,-303 973.5,-303 973.5,-322"/>
<text text-anchor="middle" x="941" y="-310" font-family="Helvetica,sans-Serif" font-size="10.00">ft_expand</text>
</a>
</g>
</g>
<!-- Node9&#45;&gt;Node10 -->
<g id="edge10_Node000009_Node000010" class="edge">
<title>Node9&#45;&gt;Node10</title>
<g id="a_edge10_Node000009_Node000010"><a xlink:title=" ">
<path fill="none" stroke="#63b8ff" d="M850.3,-311.86C866.04,-311.98 883.16,-312.1 898.19,-312.2"/>
<polygon fill="#63b8ff" stroke="#63b8ff" points="898.19,-315.7 908.21,-312.27 898.24,-308.7 898.19,-315.7"/>
</a>
</g>
</g>
<!-- Node9&#45;&gt;Node19 -->
<g id="edge27_Node000009_Node000019" class="edge">
<title>Node9&#45;&gt;Node19</title>
<g id="a_edge27_Node000009_Node000019"><a xlink:title=" ">
<path fill="none" stroke="#63b8ff" d="M833.7,-301.96C839.6,-299.25 845.32,-295.82 850,-291.5 876.86,-266.68 858.01,-241.04 886,-217.5 897.28,-208.01 1090.05,-156.02 1173.97,-133.69"/>
<polygon fill="#63b8ff" stroke="#63b8ff" points="1175.12,-137.01 1183.89,-131.06 1173.32,-130.24 1175.12,-137.01"/>
</a>
</g>
</g>
<!-- Node22 -->
<g id="Node000022" class="node">
<title>Node22</title>
<g id="a_Node000022"><a xlink:href="utils__env_8c.html#a3323d2c2586349772b23a3eaf1a241c3" target="_top" xlink:title="Concatenates a literal part (non&#45;variable) of the string to the result.">
<polygon fill="white" stroke="#666666" points="980,-246 902,-246 902,-227 980,-227 980,-246"/>
<text text-anchor="middle" x="941" y="-234" font-family="Helvetica,sans-Serif" font-size="10.00">ft_merge_str</text>
</a>
</g>
</g>
<!-- Node9&#45;&gt;Node22 -->
<g id="edge24_Node000009_Node000022" class="edge">
<title>Node9&#45;&gt;Node22</title>
<g id="a_edge24_Node000009_Node000022"><a xlink:title=" ">
<path fill="none" stroke="#63b8ff" d="M829.72,-301.89C836.67,-299.07 843.82,-295.61 850,-291.5 869.11,-278.8 866.57,-266.7 886,-254.5 888.59,-252.87 891.35,-251.37 894.2,-250"/>
<polygon fill="#63b8ff" stroke="#63b8ff" points="895.67,-253.18 903.48,-246.01 892.91,-246.74 895.67,-253.18"/>
</a>
</g>
</g>
<!-- Node11 -->
<g id="Node000011" class="node">
<title>Node11</title>
<g id="a_Node000011"><a xlink:href="utils__env__pt2_8c.html#afac58c53fe53bc538ba19b53efec42e4" target="_top" xlink:title="Finds the value of an environment variable given its name key.">
<polygon fill="white" stroke="#666666" points="1137,-435 1037,-435 1037,-416 1137,-416 1137,-435"/>
<text text-anchor="middle" x="1087" y="-423" font-family="Helvetica,sans-Serif" font-size="10.00">ft_get_env_value</text>
</a>
</g>
</g>
<!-- Node10&#45;&gt;Node11 -->
<g id="edge11_Node000010_Node000011" class="edge">
<title>Node10&#45;&gt;Node11</title>
<g id="a_edge11_Node000010_Node000011"><a xlink:title=" ">
<path fill="none" stroke="#63b8ff" d="M954.28,-322.13C979.04,-341.57 1035.19,-385.63 1065.57,-409.46"/>
<polygon fill="#63b8ff" stroke="#63b8ff" points="1063.73,-412.47 1073.75,-415.89 1068.05,-406.96 1063.73,-412.47"/>
</a>
</g>
</g>
<!-- Node14 -->
<g id="Node000014" class="node">
<title>Node14</title>
<g id="a_Node000014"><a xlink:href="ft__isalnum_8c.html#a9c2c3821ea43ebdf97de07b123503f8b" target="_top" xlink:title="Checks whether a character is alphanumeric.">
<polygon fill="white" stroke="#666666" points="1121,-359 1053,-359 1053,-340 1121,-340 1121,-359"/>
<text text-anchor="middle" x="1087" y="-347" font-family="Helvetica,sans-Serif" font-size="10.00">ft_isalnum</text>
</a>
</g>
</g>
<!-- Node10&#45;&gt;Node14 -->
<g id="edge14_Node000010_Node000014" class="edge">
<title>Node10&#45;&gt;Node14</title>
<g id="a_edge14_Node000010_Node000014"><a xlink:title=" ">
<path fill="none" stroke="#63b8ff" d="M973.6,-320.62C993.99,-325.86 1020.77,-332.74 1043.08,-338.47"/>
<polygon fill="#63b8ff" stroke="#63b8ff" points="1042.42,-341.91 1052.97,-341.01 1044.16,-335.14 1042.42,-341.91"/>
</a>
</g>
</g>
<!-- Node15 -->
<g id="Node000015" class="node">
<title>Node15</title>
<g id="a_Node000015"><a xlink:href="ft__isdigit_8c.html#a2cf15b8a1a277d1e2ce3654101a2003d" target="_top" xlink:title="Checks whether a character is a decimal digit.">
<polygon fill="white" stroke="#666666" points="1116.5,-322 1057.5,-322 1057.5,-303 1116.5,-303 1116.5,-322"/>
<text text-anchor="middle" x="1087" y="-310" font-family="Helvetica,sans-Serif" font-size="10.00">ft_isdigit</text>
</a>
</g>
</g>
<!-- Node10&#45;&gt;Node15 -->
<g id="edge15_Node000010_Node000015" class="edge">
<title>Node10&#45;&gt;Node15</title>
<g id="a_edge15_Node000010_Node000015"><a xlink:title=" ">
<path fill="none" stroke="#63b8ff" d="M973.6,-312.5C995.28,-312.5 1024.19,-312.5 1047.26,-312.5"/>
<polygon fill="#63b8ff" stroke="#63b8ff" points="1047.4,-316 1057.4,-312.5 1047.4,-309 1047.4,-316"/>
</a>
</g>
</g>
<!-- Node10&#45;&gt;Node16 -->
<g id="edge16_Node000010_Node000016" class="edge">
<title>Node10&#45;&gt;Node16</title>
<g id="a_edge16_Node000010_Node000016"><a xlink:title=" ">
<path fill="none" stroke="#63b8ff" d="M973.68,-304.66C981.65,-301.55 989.71,-297.29 996,-291.5 1022.9,-266.72 1004.5,-241.61 1032,-217.5 1036.57,-213.49 1042.06,-210.37 1047.77,-207.94"/>
<polygon fill="#63b8ff" stroke="#63b8ff" points="1049.21,-211.14 1057.44,-204.48 1046.85,-204.55 1049.21,-211.14"/>
</a>
</g>
</g>
<!-- Node18 -->
<g id="Node000018" class="node">
<title>Node18</title>
<g id="a_Node000018"><a xlink:href="ft__substr_8c.html#a78c402cbf3d55b1374693c3b7d34f71d" target="_top" xlink:title="Extracts a substring from a given string.">
<polygon fill="white" stroke="#666666" points="1116.5,-246 1057.5,-246 1057.5,-227 1116.5,-227 1116.5,-246"/>
<text text-anchor="middle" x="1087" y="-234" font-family="Helvetica,sans-Serif" font-size="10.00">ft_substr</text>
</a>
</g>
</g>
<!-- Node10&#45;&gt;Node18 -->
<g id="edge19_Node000010_Node000018" class="edge">
<title>Node10&#45;&gt;Node18</title>
<g id="a_edge19_Node000010_Node000018"><a xlink:title=" ">
<path fill="none" stroke="#63b8ff" d="M969.32,-302.95C977.99,-299.64 987.53,-295.7 996,-291.5 1019.9,-279.67 1045.73,-263.5 1063.56,-251.76"/>
<polygon fill="#63b8ff" stroke="#63b8ff" points="1065.72,-254.53 1072.1,-246.07 1061.84,-248.7 1065.72,-254.53"/>
</a>
</g>
</g>
<!-- Node11&#45;&gt;Node12 -->
<g id="edge12_Node000011_Node000012" class="edge">
<title>Node11&#45;&gt;Node12</title>
<g id="a_edge12_Node000011_Node000012"><a xlink:title=" ">
<path fill="none" stroke="#63b8ff" d="M1112.48,-415.95C1121.93,-411.93 1132.69,-406.92 1142,-401.5 1160.29,-390.86 1179.52,-376.43 1193.27,-365.47"/>
<polygon fill="#63b8ff" stroke="#63b8ff" points="1195.5,-368.17 1201.06,-359.15 1191.09,-362.73 1195.5,-368.17"/>
</a>
</g>
</g>
<!-- Node13 -->
<g id="Node000013" class="node">
<title>Node13</title>
<g id="a_Node000013"><a xlink:href="ft__strncmp_8c.html#a9d2fe792187aa4ed08e5864fb2c4d6dc" target="_top" xlink:title="Compares up to n characters of two strings.">
<polygon fill="white" stroke="#666666" points="1247.5,-435 1179.5,-435 1179.5,-416 1247.5,-416 1247.5,-435"/>
<text text-anchor="middle" x="1213.5" y="-423" font-family="Helvetica,sans-Serif" font-size="10.00">ft_strncmp</text>
</a>
</g>
</g>
<!-- Node11&#45;&gt;Node13 -->
<g id="edge13_Node000011_Node000013" class="edge">
<title>Node11&#45;&gt;Node13</title>
<g id="a_edge13_Node000011_Node000013"><a xlink:title=" ">
<path fill="none" stroke="#63b8ff" d="M1137.21,-425.5C1147.81,-425.5 1158.94,-425.5 1169.29,-425.5"/>
<polygon fill="#63b8ff" stroke="#63b8ff" points="1169.34,-429 1179.34,-425.5 1169.34,-422 1169.34,-429"/>
</a>
</g>
</g>
<!-- Node16&#45;&gt;Node12 -->
<g id="edge18_Node000016_Node000012" class="edge">
<title>Node16&#45;&gt;Node12</title>
<g id="a_edge18_Node000016_Node000012"><a xlink:title=" ">
<path fill="none" stroke="#63b8ff" d="M1116.56,-204.48C1125.49,-207.15 1134.87,-211.25 1142,-217.5 1169.5,-241.61 1160.64,-259.31 1178,-291.5 1185.3,-305.03 1194.18,-319.94 1201.11,-331.25"/>
<polygon fill="#63b8ff" stroke="#63b8ff" points="1198.15,-333.12 1206.39,-339.79 1204.11,-329.44 1198.15,-333.12"/>
</a>
</g>
</g>
<!-- Node17 -->
<g id="Node000017" class="node">
<title>Node17</title>
<g id="a_Node000017"><a xlink:href="ft__memcpy_8c.html#a41a6f05af30cf85ff63a08e383826322" target="_top" xlink:title="Copies &#39;n&#39; bytes from memory area &#39;src&#39; to memory area &#39;dest&#39;.">
<polygon fill="white" stroke="#666666" points="1249,-209 1178,-209 1178,-190 1249,-190 1249,-209"/>
<text text-anchor="middle" x="1213.5" y="-197" font-family="Helvetica,sans-Serif" font-size="10.00">ft_memcpy</text>
</a>
</g>
</g>
<!-- Node16&#45;&gt;Node17 -->
<g id="edge17_Node000016_Node000017" class="edge">
<title>Node16&#45;&gt;Node17</title>
<g id="a_edge17_Node000016_Node000017"><a xlink:title=" ">
<path fill="none" stroke="#63b8ff" d="M1116.56,-199.5C1131.66,-199.5 1150.55,-199.5 1167.56,-199.5"/>
<polygon fill="#63b8ff" stroke="#63b8ff" points="1167.86,-203 1177.86,-199.5 1167.86,-196 1167.86,-203"/>
</a>
</g>
</g>
<!-- Node18&#45;&gt;Node12 -->
<g id="edge22_Node000018_Node000012" class="edge">
<title>Node18&#45;&gt;Node12</title>
<g id="a_edge22_Node000018_Node000012"><a xlink:title=" ">
<path fill="none" stroke="#63b8ff" d="M1116.35,-246.07C1125.07,-249.79 1134.38,-254.59 1142,-260.5 1167.7,-280.43 1189.56,-311.64 1201.85,-331.31"/>
<polygon fill="#63b8ff" stroke="#63b8ff" points="1198.91,-333.21 1207.09,-339.94 1204.89,-329.58 1198.91,-333.21"/>
</a>
</g>
</g>
<!-- Node18&#45;&gt;Node19 -->
<g id="edge20_Node000018_Node000019" class="edge">
<title>Node18&#45;&gt;Node19</title>
<g id="a_edge20_Node000018_Node000019"><a xlink:title=" ">
<path fill="none" stroke="#63b8ff" d="M1116.73,-229.85C1125.38,-226.97 1134.55,-222.97 1142,-217.5 1156.52,-206.85 1184.55,-166.18 1200.54,-141.96"/>
<polygon fill="#63b8ff" stroke="#63b8ff" points="1203.67,-143.58 1206.22,-133.29 1197.81,-139.74 1203.67,-143.58"/>
</a>
</g>
</g>
<!-- Node20 -->
<g id="Node000020" class="node">
<title>Node20</title>
<g id="a_Node000020"><a xlink:href="ft__strlcpy_8c.html#aa053827b3a2ea3d0118783d6fb59d178" target="_top" xlink:title="Copies up to size &#45; 1 characters from the string src to dst, null&#45;terminating the result.">
<polygon fill="white" stroke="#666666" points="1244.5,-283 1182.5,-283 1182.5,-264 1244.5,-264 1244.5,-283"/>
<text text-anchor="middle" x="1213.5" y="-271" font-family="Helvetica,sans-Serif" font-size="10.00">ft_strlcpy</text>
</a>
</g>
</g>
<!-- Node18&#45;&gt;Node20 -->
<g id="edge21_Node000018_Node000020" class="edge">
<title>Node18&#45;&gt;Node20</title>
<g id="a_edge21_Node000018_Node000020"><a xlink:title=" ">
<path fill="none" stroke="#63b8ff" d="M1116.56,-244.99C1133.16,-249.92 1154.33,-256.21 1172.56,-261.63"/>
<polygon fill="#63b8ff" stroke="#63b8ff" points="1171.75,-265.04 1182.33,-264.53 1173.74,-258.33 1171.75,-265.04"/>
</a>
</g>
</g>
<!-- Node21 -->
<g id="Node000021" class="node">
<title>Node21</title>
<g id="a_Node000021"><a xlink:href="ft__strlcat_8c.html#a3ab017dd491d7327d1b4acbf1398b91e" target="_top" xlink:title="Returns the length of a null&#45;terminated string.">
<polygon fill="white" stroke="#666666" points="1229.5,-246 1197.5,-246 1197.5,-227 1229.5,-227 1229.5,-246"/>
<text text-anchor="middle" x="1213.5" y="-234" font-family="Helvetica,sans-Serif" font-size="10.00">len</text>
</a>
</g>
</g>
<!-- Node18&#45;&gt;Node21 -->
<g id="edge23_Node000018_Node000021" class="edge">
<title>Node18&#45;&gt;Node21</title>
<g id="a_edge23_Node000018_Node000021"><a xlink:title=" ">
<path fill="none" stroke="#63b8ff" d="M1116.56,-236.5C1137.86,-236.5 1166.69,-236.5 1187.17,-236.5"/>
<polygon fill="#63b8ff" stroke="#63b8ff" points="1187.31,-240 1197.31,-236.5 1187.31,-233 1187.31,-240"/>
</a>
</g>
</g>
<!-- Node22&#45;&gt;Node16 -->
<g id="edge25_Node000022_Node000016" class="edge">
<title>Node22&#45;&gt;Node16</title>
<g id="a_edge25_Node000022_Node000016"><a xlink:title=" ">
<path fill="none" stroke="#63b8ff" d="M979.08,-226.97C999.99,-221.6 1026.09,-214.89 1047.27,-209.45"/>
<polygon fill="#63b8ff" stroke="#63b8ff" points="1048.41,-212.77 1057.22,-206.89 1046.67,-205.99 1048.41,-212.77"/>
</a>
</g>
</g>
<!-- Node22&#45;&gt;Node18 -->
<g id="edge26_Node000022_Node000018" class="edge">
<title>Node22&#45;&gt;Node18</title>
<g id="a_edge26_Node000022_Node000018"><a xlink:title=" ">
<path fill="none" stroke="#63b8ff" d="M980.21,-236.5C1000.88,-236.5 1026.36,-236.5 1047.13,-236.5"/>
<polygon fill="#63b8ff" stroke="#63b8ff" points="1047.21,-240 1057.21,-236.5 1047.21,-233 1047.21,-240"/>
</a>
</g>
</g>
<!-- Node25 -->
<g id="Node000025" class="node">
<title>Node25</title>
<g id="a_Node000025"><a xlink:href="ft__printf_8c.html#a80c1c206dcd33d07c265581878aaa300" target="_top" xlink:title="Processes a single format specifier and prints the corresponding argument.">
<polygon fill="white" stroke="#666666" points="839.5,-566 756.5,-566 756.5,-547 839.5,-547 839.5,-566"/>
<text text-anchor="middle" x="798" y="-554" font-family="Helvetica,sans-Serif" font-size="10.00">check_format</text>
</a>
</g>
</g>
<!-- Node24&#45;&gt;Node25 -->
<g id="edge32_Node000024_Node000025" class="edge">
<title>Node24&#45;&gt;Node25</title>
<g id="a_edge32_Node000024_Node000025"><a xlink:title=" ">
<path fill="none" stroke="#63b8ff" d="M684.8,-526.63C703.61,-531.64 729.24,-538.46 751.26,-544.32"/>
<polygon fill="#63b8ff" stroke="#63b8ff" points="750.52,-547.75 761.08,-546.94 752.32,-540.98 750.52,-547.75"/>
</a>
</g>
</g>
<!-- Node29 -->
<g id="Node000029" class="node">
<title>Node29</title>
<g id="a_Node000029"><a xlink:href="ft__putchar__fd_8c.html#a03ef80b25dc4a521379fa92ad97bad21" target="_top" xlink:title="Writes a single character to the specified file descriptor.">
<polygon fill="white" stroke="#666666" points="981,-713 901,-713 901,-694 981,-694 981,-713"/>
<text text-anchor="middle" x="941" y="-701" font-family="Helvetica,sans-Serif" font-size="10.00">ft_putchar_fd</text>
</a>
</g>
</g>
<!-- Node24&#45;&gt;Node29 -->
<g id="edge45_Node000024_Node000029" class="edge">
<title>Node24&#45;&gt;Node29</title>
<g id="a_edge45_Node000024_Node000029"><a xlink:title=" ">
<path fill="none" stroke="#63b8ff" d="M684.74,-526.7C693.2,-529.64 702.34,-533.54 710,-538.5 729.26,-550.97 728.94,-560.16 746,-575.5 804.83,-628.42 816.32,-647.99 886,-685.5 889.24,-687.24 892.67,-688.86 896.18,-690.35"/>
<polygon fill="#63b8ff" stroke="#63b8ff" points="894.96,-693.63 905.55,-693.99 897.5,-687.11 894.96,-693.63"/>
</a>
</g>
</g>
<!-- Node26 -->
<g id="Node000026" class="node">
<title>Node26</title>
<g id="a_Node000026"><a xlink:href="ft__forpointer_8c.html#a8e02c77b80406af72327ebf71f537786" target="_top" xlink:title="Prints a pointer in hexadecimal format prefixed with &quot;0x&quot;.">
<polygon fill="white" stroke="#666666" points="979.5,-676 902.5,-676 902.5,-657 979.5,-657 979.5,-676"/>
<text text-anchor="middle" x="941" y="-664" font-family="Helvetica,sans-Serif" font-size="10.00">ft_forpointer</text>
</a>
</g>
</g>
<!-- Node25&#45;&gt;Node26 -->
<g id="edge33_Node000025_Node000026" class="edge">
<title>Node25&#45;&gt;Node26</title>
<g id="a_edge33_Node000025_Node000026"><a xlink:title=" ">
<path fill="none" stroke="#63b8ff" d="M805.51,-566.04C818.62,-584.56 850.04,-625.57 886,-648.5 888.46,-650.07 891.07,-651.52 893.77,-652.85"/>
<polygon fill="#63b8ff" stroke="#63b8ff" points="892.59,-656.15 903.15,-656.94 895.39,-649.73 892.59,-656.15"/>
</a>
</g>
</g>
<!-- Node28 -->
<g id="Node000028" class="node">
<title>Node28</title>
<g id="a_Node000028"><a xlink:href="ft__hexadecimal_8c.html#a39c845e0a4286d3ac1e04c1e64ac734b" target="_top" xlink:title="Prints an unsigned integer in hexadecimal format.">
<polygon fill="white" stroke="#666666" points="987,-621 895,-621 895,-602 987,-602 987,-621"/>
<text text-anchor="middle" x="941" y="-609" font-family="Helvetica,sans-Serif" font-size="10.00">ft_hexadecimal</text>
</a>
</g>
</g>
<!-- Node25&#45;&gt;Node28 -->
<g id="edge36_Node000025_Node000028" class="edge">
<title>Node25&#45;&gt;Node28</title>
<g id="a_edge36_Node000025_Node000028"><a xlink:title=" ">
<path fill="none" stroke="#63b8ff" d="M820.26,-566.11C837.75,-573.88 863.28,-584.9 886,-593.5 890.55,-595.22 895.36,-596.95 900.14,-598.62"/>
<polygon fill="#63b8ff" stroke="#63b8ff" points="899.26,-602.02 909.86,-601.93 901.52,-595.39 899.26,-602.02"/>
</a>
</g>
</g>
<!-- Node25&#45;&gt;Node29 -->
<g id="edge38_Node000025_Node000029" class="edge">
<title>Node25&#45;&gt;Node29</title>
<g id="a_edge38_Node000025_Node000029"><a xlink:title=" ">
<path fill="none" stroke="#63b8ff" d="M805.32,-566.24C824.38,-595.54 880.3,-681.17 886,-685.5 887.82,-686.88 889.76,-688.17 891.77,-689.35"/>
<polygon fill="#63b8ff" stroke="#63b8ff" points="890.46,-692.61 900.97,-693.96 893.59,-686.35 890.46,-692.61"/>
</a>
</g>
</g>
<!-- Node30 -->
<g id="Node000030" class="node">
<title>Node30</title>
<g id="a_Node000030"><a xlink:href="ft__putnbr__fd_8c.html#a1554101ee350c316340c78e19faddaa8" target="_top" xlink:title="Writes an integer to a given file descriptor.">
<polygon fill="white" stroke="#666666" points="978.5,-566 903.5,-566 903.5,-547 978.5,-547 978.5,-566"/>
<text text-anchor="middle" x="941" y="-554" font-family="Helvetica,sans-Serif" font-size="10.00">ft_putnbr_fd</text>
</a>
</g>
</g>
<!-- Node25&#45;&gt;Node30 -->
<g id="edge39_Node000025_Node000030" class="edge">
<title>Node25&#45;&gt;Node30</title>
<g id="a_edge39_Node000025_Node000030"><a xlink:title=" ">
<path fill="none" stroke="#63b8ff" d="M839.78,-556.5C856.35,-556.5 875.6,-556.5 892.78,-556.5"/>
<polygon fill="#63b8ff" stroke="#63b8ff" points="893.16,-560 903.16,-556.5 893.16,-553 893.16,-560"/>
</a>
</g>
</g>
<!-- Node31 -->
<g id="Node000031" class="node">
<title>Node31</title>
<g id="a_Node000031"><a xlink:href="ft__putstr__fd_8c.html#a00b0638f31a75c7a30f77f33888bfb73" target="_top" xlink:title="Writes a null&#45;terminated string to the specified file descriptor.">
<polygon fill="white" stroke="#666666" points="977,-529 905,-529 905,-510 977,-510 977,-529"/>
<text text-anchor="middle" x="941" y="-517" font-family="Helvetica,sans-Serif" font-size="10.00">ft_putstr_fd</text>
</a>
</g>
</g>
<!-- Node25&#45;&gt;Node31 -->
<g id="edge41_Node000025_Node000031" class="edge">
<title>Node25&#45;&gt;Node31</title>
<g id="a_edge41_Node000025_Node000031"><a xlink:title=" ">
<path fill="none" stroke="#63b8ff" d="M835.31,-546.97C853.52,-542.19 875.73,-536.36 895.01,-531.31"/>
<polygon fill="#63b8ff" stroke="#63b8ff" points="896,-534.66 904.79,-528.74 894.23,-527.89 896,-534.66"/>
</a>
</g>
</g>
<!-- Node32 -->
<g id="Node000032" class="node">
<title>Node32</title>
<g id="a_Node000032"><a xlink:href="ft__unsigned__putnbr_8c.html#af9a70f8607b40cf2a7706f9d3725b549" target="_top" xlink:title="Writes an unsigned integer to the given file descriptor.">
<polygon fill="white" stroke="#666666" points="996,-492 886,-492 886,-473 996,-473 996,-492"/>
<text text-anchor="middle" x="941" y="-480" font-family="Helvetica,sans-Serif" font-size="10.00">ft_unsigned_putnbr</text>
</a>
</g>
</g>
<!-- Node25&#45;&gt;Node32 -->
<g id="edge42_Node000025_Node000032" class="edge">
<title>Node25&#45;&gt;Node32</title>
<g id="a_edge42_Node000025_Node000032"><a xlink:title=" ">
<path fill="none" stroke="#63b8ff" d="M812.02,-546.95C828.57,-535.12 858.34,-514.9 886,-501.5 890.3,-499.42 894.89,-497.45 899.51,-495.62"/>
<polygon fill="#63b8ff" stroke="#63b8ff" points="900.82,-498.87 908.95,-492.08 898.36,-492.31 900.82,-498.87"/>
</a>
</g>
</g>
<!-- Node27 -->
<g id="Node000027" class="node">
<title>Node27</title>
<g id="a_Node000027"><a xlink:href="ft__forpointer_8c.html#aded1bf735c8a10e47396170d27c5b6aa" target="_top" xlink:title="Recursively prints a memory address in hexadecimal format.">
<polygon fill="white" stroke="#666666" points="1142,-676 1032,-676 1032,-657 1142,-657 1142,-676"/>
<text text-anchor="middle" x="1087" y="-664" font-family="Helvetica,sans-Serif" font-size="10.00">ft_ricorsive_pointer</text>
</a>
</g>
</g>
<!-- Node26&#45;&gt;Node27 -->
<g id="edge34_Node000026_Node000027" class="edge">
<title>Node26&#45;&gt;Node27</title>
<g id="a_edge34_Node000026_Node000027"><a xlink:title=" ">
<path fill="none" stroke="#63b8ff" d="M979.83,-666.5C992.64,-666.5 1007.33,-666.5 1021.61,-666.5"/>
<polygon fill="#63b8ff" stroke="#63b8ff" points="1021.9,-670 1031.9,-666.5 1021.9,-663 1021.9,-670"/>
</a>
</g>
</g>
<!-- Node27&#45;&gt;Node27 -->
<g id="edge35_Node000027_Node000027" class="edge">
<title>Node27&#45;&gt;Node27</title>
<g id="a_edge35_Node000027_Node000027"><a xlink:title=" ">
<path fill="none" stroke="#63b8ff" d="M1067.58,-676.08C1058.13,-684.73 1064.61,-694 1087,-694 1101,-694 1108.77,-690.38 1110.33,-685.55"/>
<polygon fill="#63b8ff" stroke="#63b8ff" points="1113.47,-683.99 1106.42,-676.08 1107,-686.66 1113.47,-683.99"/>
</a>
</g>
</g>
<!-- Node28&#45;&gt;Node28 -->
<g id="edge37_Node000028_Node000028" class="edge">
<title>Node28&#45;&gt;Node28</title>
<g id="a_edge37_Node000028_Node000028"><a xlink:title=" ">
<path fill="none" stroke="#63b8ff" d="M919.11,-621.08C908.47,-629.73 915.76,-639 941,-639 957.17,-639 965.97,-635.2 967.41,-630.19"/>
<polygon fill="#63b8ff" stroke="#63b8ff" points="970.47,-628.48 962.89,-621.08 964.2,-631.6 970.47,-628.48"/>
</a>
</g>
</g>
<!-- Node30&#45;&gt;Node30 -->
<g id="edge40_Node000030_Node000030" class="edge">
<title>Node30&#45;&gt;Node30</title>
<g id="a_edge40_Node000030_Node000030"><a xlink:title=" ">
<path fill="none" stroke="#63b8ff" d="M919.11,-566.08C908.47,-574.73 915.76,-584 941,-584 957.17,-584 965.97,-580.2 967.41,-575.19"/>
<polygon fill="#63b8ff" stroke="#63b8ff" points="970.47,-573.48 962.89,-566.08 964.2,-576.6 970.47,-573.48"/>
</a>
</g>
</g>
<!-- Node33 -->
<g id="Node000033" class="node">
<title>Node33</title>
<g id="a_Node000033"><a xlink:href="ft__putnbr_8c.html#a2e51f80c9e46e52f4adf94617fb51ada" target="_top" xlink:title="Writes an integer to the standard output (stdout).">
<polygon fill="white" stroke="#666666" points="1117,-511 1057,-511 1057,-492 1117,-492 1117,-511"/>
<text text-anchor="middle" x="1087" y="-499" font-family="Helvetica,sans-Serif" font-size="10.00">ft_putnbr</text>
</a>
</g>
</g>
<!-- Node32&#45;&gt;Node33 -->
<g id="edge43_Node000032_Node000033" class="edge">
<title>Node32&#45;&gt;Node33</title>
<g id="a_edge43_Node000032_Node000033"><a xlink:title=" ">
<path fill="none" stroke="#63b8ff" d="M996.03,-489.63C1012.76,-491.84 1030.87,-494.23 1046.43,-496.28"/>
<polygon fill="#63b8ff" stroke="#63b8ff" points="1046.37,-499.8 1056.74,-497.64 1047.29,-492.86 1046.37,-499.8"/>
</a>
</g>
</g>
<!-- Node33&#45;&gt;Node33 -->
<g id="edge44_Node000033_Node000033" class="edge">
<title>Node33&#45;&gt;Node33</title>
<g id="a_edge44_Node000033_Node000033"><a xlink:title=" ">
<path fill="none" stroke="#63b8ff" d="M1067.58,-511.08C1058.13,-519.73 1064.61,-529 1087,-529 1101,-529 1108.77,-525.38 1110.33,-520.55"/>
<polygon fill="#63b8ff" stroke="#63b8ff" points="1113.47,-518.99 1106.42,-511.08 1107,-521.66 1113.47,-518.99"/>
</a>
</g>
</g>
<!-- Node36 -->
<g id="Node000036" class="node">
<title>Node36</title>
<g id="a_Node000036"><a xlink:href="get__next__line_8c.html#a253f107325777771467d4b92d8ad0def" target="_top" xlink:title=" ">
<polygon fill="white" stroke="#666666" points="972.5,-283 909.5,-283 909.5,-264 972.5,-264 972.5,-283"/>
<text text-anchor="middle" x="941" y="-271" font-family="Helvetica,sans-Serif" font-size="10.00">ft_getrest</text>
</a>
</g>
</g>
<!-- Node35&#45;&gt;Node36 -->
<g id="edge51_Node000035_Node000036" class="edge">
<title>Node35&#45;&gt;Node36</title>
<g id="a_edge51_Node000035_Node000036"><a xlink:title=" ">
<path fill="none" stroke="#63b8ff" d="M839.78,-273.5C858.36,-273.5 880.31,-273.5 898.93,-273.5"/>
<polygon fill="#63b8ff" stroke="#63b8ff" points="899.17,-277 909.17,-273.5 899.17,-270 899.17,-277"/>
</a>
</g>
</g>
<!-- Node37 -->
<g id="Node000037" class="node">
<title>Node37</title>
<g id="a_Node000037"><a xlink:href="get__next__line_8c.html#aad5cee417ca3f1d807d5b1d1c76c6987" target="_top" xlink:title=" ">
<polygon fill="white" stroke="#666666" points="972,-132 910,-132 910,-113 972,-113 972,-132"/>
<text text-anchor="middle" x="941" y="-120" font-family="Helvetica,sans-Serif" font-size="10.00">ft_putline</text>
</a>
</g>
</g>
<!-- Node35&#45;&gt;Node37 -->
<g id="edge54_Node000035_Node000037" class="edge">
<title>Node35&#45;&gt;Node37</title>
<g id="a_edge54_Node000035_Node000037"><a xlink:title=" ">
<path fill="none" stroke="#63b8ff" d="M808.25,-263.59C831.76,-238.42 894.03,-171.73 923.76,-139.89"/>
<polygon fill="#63b8ff" stroke="#63b8ff" points="926.63,-141.95 930.9,-132.25 921.51,-137.17 926.63,-141.95"/>
</a>
</g>
</g>
<!-- Node36&#45;&gt;Node12 -->
<g id="edge52_Node000036_Node000012" class="edge">
<title>Node36&#45;&gt;Node12</title>
<g id="a_edge52_Node000036_Node000012"><a xlink:title=" ">
<path fill="none" stroke="#63b8ff" d="M972.75,-271.33C1013.15,-269.63 1085.58,-270.6 1142,-293.5 1163.35,-302.16 1183.49,-319.42 1196.73,-332.5"/>
<polygon fill="#63b8ff" stroke="#63b8ff" points="1194.55,-335.27 1204.03,-339.99 1199.56,-330.38 1194.55,-335.27"/>
</a>
</g>
</g>
<!-- Node36&#45;&gt;Node18 -->
<g id="edge53_Node000036_Node000018" class="edge">
<title>Node36&#45;&gt;Node18</title>
<g id="a_edge53_Node000036_Node000018"><a xlink:title=" ">
<path fill="none" stroke="#63b8ff" d="M972.54,-265.65C994.4,-260.04 1024,-252.43 1047.48,-246.4"/>
<polygon fill="#63b8ff" stroke="#63b8ff" points="1048.65,-249.71 1057.46,-243.83 1046.91,-242.93 1048.65,-249.71"/>
</a>
</g>
</g>
<!-- Node37&#45;&gt;Node16 -->
<g id="edge57_Node000037_Node000016" class="edge">
<title>Node37&#45;&gt;Node16</title>
<g id="a_edge57_Node000037_Node000016"><a xlink:title=" ">
<path fill="none" stroke="#63b8ff" d="M965.13,-132.09C974.79,-136.27 986.06,-141.38 996,-146.5 1019.07,-158.37 1044.46,-173.52 1062.37,-184.59"/>
<polygon fill="#63b8ff" stroke="#63b8ff" points="1060.67,-187.65 1071.01,-189.96 1064.37,-181.7 1060.67,-187.65"/>
</a>
</g>
</g>
<!-- Node37&#45;&gt;Node19 -->
<g id="edge56_Node000037_Node000019" class="edge">
<title>Node37&#45;&gt;Node19</title>
<g id="a_edge56_Node000037_Node000019"><a xlink:title=" ">
<path fill="none" stroke="#63b8ff" d="M972.19,-114.91C989.55,-110.94 1011.86,-106.49 1032,-104.5 1080.65,-99.68 1093.53,-98.08 1142,-104.5 1152.67,-105.91 1164.01,-108.48 1174.41,-111.27"/>
<polygon fill="#63b8ff" stroke="#63b8ff" points="1173.46,-114.64 1184.03,-114 1175.37,-107.91 1173.46,-114.64"/>
</a>
</g>
</g>
<!-- Node38 -->
<g id="Node000038" class="node">
<title>Node38</title>
<g id="a_Node000038"><a xlink:href="ft__strchr_8c.html#aa6d0c2d180f32ee585485e1a1ce3d55d" target="_top" xlink:title="Locates the first occurrence of a character in a string.">
<polygon fill="white" stroke="#666666" points="1115,-133 1059,-133 1059,-114 1115,-114 1115,-133"/>
<text text-anchor="middle" x="1087" y="-121" font-family="Helvetica,sans-Serif" font-size="10.00">ft_strchr</text>
</a>
</g>
</g>
<!-- Node37&#45;&gt;Node38 -->
<g id="edge55_Node000037_Node000038" class="edge">
<title>Node37&#45;&gt;Node38</title>
<g id="a_edge55_Node000037_Node000038"><a xlink:title=" ">
<path fill="none" stroke="#63b8ff" d="M972.19,-122.71C994.46,-122.86 1024.9,-123.08 1048.69,-123.24"/>
<polygon fill="#63b8ff" stroke="#63b8ff" points="1048.75,-126.74 1058.77,-123.31 1048.8,-119.74 1048.75,-126.74"/>
</a>
</g>
</g>
</g>
</svg>
