<?xml version="1.0" encoding="UTF-8" standalone="no"?>
<!DOCTYPE svg PUBLIC "-//W3C//DTD SVG 1.1//EN"
 "http://www.w3.org/Graphics/SVG/1.1/DTD/svg11.dtd">
<!-- Generated by graphviz version 2.43.0 (0)
 -->
<!-- Title: handle_special_chars Pages: 1 -->
<svg width="480pt" height="140pt"
 viewBox="0.00 0.00 480.00 140.00" xmlns="http://www.w3.org/2000/svg" xmlns:xlink="http://www.w3.org/1999/xlink">
<g id="graph0" class="graph" transform="scale(1 1) rotate(0) translate(4 136)">
<title>handle_special_chars</title>
<!-- Node1 -->
<g id="Node000001" class="node">
<title>Node1</title>
<g id="a_Node000001"><a xlink:title="Handles shell special characters (|, &lt;, &gt;, &lt;&lt;, &gt;&gt;).">
<polygon fill="#999999" stroke="#666666" points="121,-94 0,-94 0,-75 121,-75 121,-94"/>
<text text-anchor="middle" x="60.5" y="-82" font-family="Helvetica,sans-Serif" font-size="10.00">handle_special_chars</text>
</a>
</g>
</g>
<!-- Node2 -->
<g id="Node000002" class="node">
<title>Node2</title>
<g id="a_Node000002"><a xlink:href="utils__token_8c.html#a44faf9bdbfed1c7003733fff20cd6930" target="_top" xlink:title="Adds a token to the end of the linked list of tokens.">
<polygon fill="white" stroke="#666666" points="236.5,-132 169.5,-132 169.5,-113 236.5,-113 236.5,-132"/>
<text text-anchor="middle" x="203" y="-120" font-family="Helvetica,sans-Serif" font-size="10.00">add_token</text>
</a>
</g>
</g>
<!-- Node1&#45;&gt;Node2 -->
<g id="edge1_Node000001_Node000002" class="edge">
<title>Node1&#45;&gt;Node2</title>
<g id="a_edge1_Node000001_Node000002"><a xlink:title=" ">
<path fill="none" stroke="#63b8ff" d="M96.95,-94.09C116.01,-99.24 139.63,-105.63 159.65,-111.05"/>
<polygon fill="#63b8ff" stroke="#63b8ff" points="158.88,-114.46 169.45,-113.7 160.71,-107.71 158.88,-114.46"/>
</a>
</g>
</g>
<!-- Node3 -->
<g id="Node000003" class="node">
<title>Node3</title>
<g id="a_Node000003"><a xlink:href="utils__token_8c.html#ab94cb586647a70372e436ef3214797ad" target="_top" xlink:title="Creates a new token node.">
<polygon fill="white" stroke="#666666" points="365.5,-131 296.5,-131 296.5,-112 365.5,-112 365.5,-131"/>
<text text-anchor="middle" x="331" y="-119" font-family="Helvetica,sans-Serif" font-size="10.00">new_token</text>
</a>
</g>
</g>
<!-- Node1&#45;&gt;Node3 -->
<g id="edge8_Node000001_Node000003" class="edge">
<title>Node1&#45;&gt;Node3</title>
<g id="a_edge8_Node000001_Node000003"><a xlink:title=" ">
<path fill="none" stroke="#63b8ff" d="M121.23,-89.33C158.17,-92.69 206.48,-97.79 249,-104.5 261.2,-106.43 274.33,-108.97 286.4,-111.51"/>
<polygon fill="#63b8ff" stroke="#63b8ff" points="285.74,-114.95 296.25,-113.62 287.21,-108.1 285.74,-114.95"/>
</a>
</g>
</g>
<!-- Node5 -->
<g id="Node000005" class="node">
<title>Node5</title>
<g id="a_Node000005"><a xlink:href="utils__token_8c.html#a611ee3ce2706d68aa376e8222614c6eb" target="_top" xlink:title="Determines the token type based on the value, quote flag, and command flag.">
<polygon fill="white" stroke="#666666" points="249,-56 157,-56 157,-37 249,-37 249,-56"/>
<text text-anchor="middle" x="203" y="-44" font-family="Helvetica,sans-Serif" font-size="10.00">get_token_type</text>
</a>
</g>
</g>
<!-- Node1&#45;&gt;Node5 -->
<g id="edge4_Node000001_Node000005" class="edge">
<title>Node1&#45;&gt;Node5</title>
<g id="a_edge4_Node000001_Node000005"><a xlink:title=" ">
<path fill="none" stroke="#63b8ff" d="M96.95,-74.91C115.09,-70.01 137.37,-63.98 156.73,-58.74"/>
<polygon fill="#63b8ff" stroke="#63b8ff" points="157.82,-62.08 166.56,-56.09 155.99,-55.32 157.82,-62.08"/>
</a>
</g>
</g>
<!-- Node2&#45;&gt;Node3 -->
<g id="edge2_Node000002_Node000003" class="edge">
<title>Node2&#45;&gt;Node3</title>
<g id="a_edge2_Node000002_Node000003"><a xlink:title=" ">
<path fill="none" stroke="#63b8ff" d="M236.78,-122.24C251.73,-122.12 269.66,-121.98 285.78,-121.85"/>
<polygon fill="#63b8ff" stroke="#63b8ff" points="286.1,-125.35 296.07,-121.77 286.04,-118.35 286.1,-125.35"/>
</a>
</g>
</g>
<!-- Node4 -->
<g id="Node000004" class="node">
<title>Node4</title>
<g id="a_Node000004"><a xlink:href="ft__strdup_8c.html#aebe73f27c70c56ac5053f860ef5436c9" target="_top" xlink:title="Duplicates a null&#45;terminated string by allocating memory.">
<polygon fill="white" stroke="#666666" points="472,-131 413,-131 413,-112 472,-112 472,-131"/>
<text text-anchor="middle" x="442.5" y="-119" font-family="Helvetica,sans-Serif" font-size="10.00">ft_strdup</text>
</a>
</g>
</g>
<!-- Node3&#45;&gt;Node4 -->
<g id="edge3_Node000003_Node000004" class="edge">
<title>Node3&#45;&gt;Node4</title>
<g id="a_edge3_Node000003_Node000004"><a xlink:title=" ">
<path fill="none" stroke="#63b8ff" d="M365.75,-121.5C377.41,-121.5 390.58,-121.5 402.62,-121.5"/>
<polygon fill="#63b8ff" stroke="#63b8ff" points="402.85,-125 412.85,-121.5 402.85,-118 402.85,-125"/>
</a>
</g>
</g>
<!-- Node6 -->
<g id="Node000006" class="node">
<title>Node6</title>
<g id="a_Node000006"><a xlink:href="utils__token_8c.html#a51f971c32b38d16d3acd01a9f26a94c9" target="_top" xlink:title="Checks if the string contains the exit status variable &quot;$?&quot;.">
<polygon fill="white" stroke="#666666" points="377,-93 285,-93 285,-74 377,-74 377,-93"/>
<text text-anchor="middle" x="331" y="-81" font-family="Helvetica,sans-Serif" font-size="10.00">exit_status_var</text>
</a>
</g>
</g>
<!-- Node5&#45;&gt;Node6 -->
<g id="edge5_Node000005_Node000006" class="edge">
<title>Node5&#45;&gt;Node6</title>
<g id="a_edge5_Node000005_Node000006"><a xlink:title=" ">
<path fill="none" stroke="#63b8ff" d="M236.45,-56.03C251.91,-60.57 270.6,-66.06 287.2,-70.93"/>
<polygon fill="#63b8ff" stroke="#63b8ff" points="286.64,-74.42 297.22,-73.88 288.62,-67.7 286.64,-74.42"/>
</a>
</g>
</g>
<!-- Node7 -->
<g id="Node000007" class="node">
<title>Node7</title>
<g id="a_Node000007"><a xlink:href="utils__env_8c.html#a43ecaeb2991db8347a59f45f96e8a21f" target="_top" xlink:title="Checks if the string contains the character &#39;$&#39;, indicating an environment variable.">
<polygon fill="white" stroke="#666666" points="376.5,-56 285.5,-56 285.5,-37 376.5,-37 376.5,-56"/>
<text text-anchor="middle" x="331" y="-44" font-family="Helvetica,sans-Serif" font-size="10.00">ft_find_env_var</text>
</a>
</g>
</g>
<!-- Node5&#45;&gt;Node7 -->
<g id="edge6_Node000005_Node000007" class="edge">
<title>Node5&#45;&gt;Node7</title>
<g id="a_edge6_Node000005_Node000007"><a xlink:title=" ">
<path fill="none" stroke="#63b8ff" d="M249.13,-46.5C257.56,-46.5 266.45,-46.5 275.13,-46.5"/>
<polygon fill="#63b8ff" stroke="#63b8ff" points="275.18,-50 285.18,-46.5 275.18,-43 275.18,-50"/>
</a>
</g>
</g>
<!-- Node8 -->
<g id="Node000008" class="node">
<title>Node8</title>
<g id="a_Node000008"><a xlink:href="ft__strcmp_8c.html#a1f2ff2312e5994560c9537cd9173be94" target="_top" xlink:title="Compares two null&#45;terminated strings lexicographically.">
<polygon fill="white" stroke="#666666" points="362,-19 300,-19 300,0 362,0 362,-19"/>
<text text-anchor="middle" x="331" y="-7" font-family="Helvetica,sans-Serif" font-size="10.00">ft_strcmp</text>
</a>
</g>
</g>
<!-- Node5&#45;&gt;Node8 -->
<g id="edge7_Node000005_Node000008" class="edge">
<title>Node5&#45;&gt;Node8</title>
<g id="a_edge7_Node000005_Node000008"><a xlink:title=" ">
<path fill="none" stroke="#63b8ff" d="M236.45,-36.97C252.78,-32.17 272.73,-26.32 290.01,-21.24"/>
<polygon fill="#63b8ff" stroke="#63b8ff" points="291.22,-24.54 299.82,-18.36 289.24,-17.82 291.22,-24.54"/>
</a>
</g>
</g>
</g>
</svg>
