<?xml version="1.0" encoding="UTF-8" standalone="no"?>
<!DOCTYPE svg PUBLIC "-//W3C//DTD SVG 1.1//EN"
 "http://www.w3.org/Graphics/SVG/1.1/DTD/svg11.dtd">
<!-- Generated by graphviz version 2.43.0 (0)
 -->
<!-- Title: ft_handle_infile_redir Pages: 1 -->
<svg width="1108pt" height="721pt"
 viewBox="0.00 0.00 1108.00 721.00" xmlns="http://www.w3.org/2000/svg" xmlns:xlink="http://www.w3.org/1999/xlink">
<g id="graph0" class="graph" transform="scale(1 1) rotate(0) translate(4 717)">
<title>ft_handle_infile_redir</title>
<!-- Node1 -->
<g id="Node000001" class="node">
<title>Node1</title>
<g id="a_Node000001"><a xlink:title="Handles input redirection from file or heredoc.">
<polygon fill="#999999" stroke="#666666" points="119,-477 0,-477 0,-458 119,-458 119,-477"/>
<text text-anchor="middle" x="59.5" y="-465" font-family="Helvetica,sans-Serif" font-size="10.00">ft_handle_infile_redir</text>
</a>
</g>
</g>
<!-- Node2 -->
<g id="Node000002" class="node">
<title>Node2</title>
<g id="a_Node000002"><a xlink:href="redir__utils_8c.html#acd7b4a57306a2984ae26bceaa9d97888" target="_top" xlink:title="Checks for following heredocs in tokens and removes the temporary file.">
<polygon fill="white" stroke="#666666" points="419,-507 328,-507 328,-488 419,-488 419,-507"/>
<text text-anchor="middle" x="373.5" y="-495" font-family="Helvetica,sans-Serif" font-size="10.00">ft_end_heredoc</text>
</a>
</g>
</g>
<!-- Node1&#45;&gt;Node2 -->
<g id="edge1_Node000001_Node000002" class="edge">
<title>Node1&#45;&gt;Node2</title>
<g id="a_edge1_Node000001_Node000002"><a xlink:title=" ">
<path fill="none" stroke="#63b8ff" d="M119.18,-473.14C176.18,-478.62 262.04,-486.88 317.69,-492.23"/>
<polygon fill="#63b8ff" stroke="#63b8ff" points="317.42,-495.72 327.71,-493.19 318.09,-488.75 317.42,-495.72"/>
</a>
</g>
</g>
<!-- Node3 -->
<g id="Node000003" class="node">
<title>Node3</title>
<g id="a_Node000003"><a xlink:href="utils__fd_8c.html#aae58663bcc5fdd74e961d307a7f7f51a" target="_top" xlink:title="Checks if there is at least one HEREDOC token in the token list.">
<polygon fill="white" stroke="#666666" points="558.5,-566 457.5,-566 457.5,-547 558.5,-547 558.5,-566"/>
<text text-anchor="middle" x="508" y="-554" font-family="Helvetica,sans-Serif" font-size="10.00">ft_found_heredoc</text>
</a>
</g>
</g>
<!-- Node1&#45;&gt;Node3 -->
<g id="edge3_Node000001_Node000003" class="edge">
<title>Node1&#45;&gt;Node3</title>
<g id="a_edge3_Node000001_Node000003"><a xlink:title=" ">
<path fill="none" stroke="#63b8ff" d="M88.36,-477.09C107.04,-483.26 132.29,-491.1 155,-496.5 256.61,-520.64 376.92,-538.99 447.32,-548.72"/>
<polygon fill="#63b8ff" stroke="#63b8ff" points="446.95,-552.2 457.33,-550.09 447.9,-545.27 446.95,-552.2"/>
</a>
</g>
</g>
<!-- Node4 -->
<g id="Node000004" class="node">
<title>Node4</title>
<g id="a_Node000004"><a xlink:href="handle__heredoc_8c.html#a922eae1c49290306f7cf811bf65d9ed1" target="_top" xlink:title="Handles the entire input process for a here&#45;document.">
<polygon fill="white" stroke="#666666" points="270.5,-458 176.5,-458 176.5,-439 270.5,-439 270.5,-458"/>
<text text-anchor="middle" x="223.5" y="-446" font-family="Helvetica,sans-Serif" font-size="10.00">handle_heredoc</text>
</a>
</g>
</g>
<!-- Node1&#45;&gt;Node4 -->
<g id="edge4_Node000001_Node000004" class="edge">
<title>Node1&#45;&gt;Node4</title>
<g id="a_edge4_Node000001_Node000004"><a xlink:title=" ">
<path fill="none" stroke="#63b8ff" d="M119.44,-460.59C134.66,-458.8 151,-456.89 166.08,-455.12"/>
<polygon fill="#63b8ff" stroke="#63b8ff" points="166.77,-458.56 176.29,-453.92 165.96,-451.61 166.77,-458.56"/>
</a>
</g>
</g>
<!-- Node38 -->
<g id="Node000038" class="node">
<title>Node38</title>
<g id="a_Node000038"><a xlink:href="utils__pipes_8c.html#a4112bdd2bc0766ff52195f2ab3a53339" target="_top" xlink:title="Handles input redirection from a file.">
<polygon fill="white" stroke="#666666" points="292,-421 155,-421 155,-402 292,-402 292,-421"/>
<text text-anchor="middle" x="223.5" y="-409" font-family="Helvetica,sans-Serif" font-size="10.00">handle_input_redirection</text>
</a>
</g>
</g>
<!-- Node1&#45;&gt;Node38 -->
<g id="edge57_Node000001_Node000038" class="edge">
<title>Node1&#45;&gt;Node38</title>
<g id="a_edge57_Node000001_Node000038"><a xlink:title=" ">
<path fill="none" stroke="#63b8ff" d="M83.18,-457.89C102.18,-450.02 130.11,-438.85 155,-430.5 161.9,-428.18 169.27,-425.91 176.5,-423.79"/>
<polygon fill="#63b8ff" stroke="#63b8ff" points="177.57,-427.12 186.22,-421 175.64,-420.4 177.57,-427.12"/>
</a>
</g>
</g>
<!-- Node2&#45;&gt;Node3 -->
<g id="edge2_Node000002_Node000003" class="edge">
<title>Node2&#45;&gt;Node3</title>
<g id="a_edge2_Node000002_Node000003"><a xlink:title=" ">
<path fill="none" stroke="#63b8ff" d="M391.76,-507.17C407.84,-515.96 432.63,-528.98 455,-538.5 458.96,-540.18 463.13,-541.83 467.32,-543.4"/>
<polygon fill="#63b8ff" stroke="#63b8ff" points="466.44,-546.81 477.03,-546.92 468.82,-540.22 466.44,-546.81"/>
</a>
</g>
</g>
<!-- Node5 -->
<g id="Node000005" class="node">
<title>Node5</title>
<g id="a_Node000005"><a xlink:href="utils__fd_8c.html#a9cf70d06db18597b04bb642db7abab4a" target="_top" xlink:title="Checks if a file descriptor is valid.">
<polygon fill="white" stroke="#666666" points="409.5,-417 337.5,-417 337.5,-398 409.5,-398 409.5,-417"/>
<text text-anchor="middle" x="373.5" y="-405" font-family="Helvetica,sans-Serif" font-size="10.00">ft_check_fd</text>
</a>
</g>
</g>
<!-- Node4&#45;&gt;Node5 -->
<g id="edge5_Node000004_Node000005" class="edge">
<title>Node4&#45;&gt;Node5</title>
<g id="a_edge5_Node000004_Node000005"><a xlink:title=" ">
<path fill="none" stroke="#63b8ff" d="M260.61,-439C270.78,-436.29 281.83,-433.31 292,-430.5 304.26,-427.11 317.54,-423.36 329.72,-419.88"/>
<polygon fill="#63b8ff" stroke="#63b8ff" points="330.99,-423.15 339.64,-417.03 329.06,-416.42 330.99,-423.15"/>
</a>
</g>
</g>
<!-- Node6 -->
<g id="Node000006" class="node">
<title>Node6</title>
<g id="a_Node000006"><a xlink:href="handle__heredoc_8c.html#ac5ba13b1edbd22e4a7e0a50fc91f80db" target="_top" xlink:title="Executes a single read&#45;write cycle of the here&#45;document.">
<polygon fill="white" stroke="#666666" points="418.5,-454 328.5,-454 328.5,-435 418.5,-435 418.5,-454"/>
<text text-anchor="middle" x="373.5" y="-442" font-family="Helvetica,sans-Serif" font-size="10.00">ft_exe_heredoc</text>
</a>
</g>
</g>
<!-- Node4&#45;&gt;Node6 -->
<g id="edge6_Node000004_Node000006" class="edge">
<title>Node4&#45;&gt;Node6</title>
<g id="a_edge6_Node000004_Node000006"><a xlink:title=" ">
<path fill="none" stroke="#63b8ff" d="M270.52,-447.26C285.62,-446.85 302.55,-446.39 318.21,-445.97"/>
<polygon fill="#63b8ff" stroke="#63b8ff" points="318.38,-449.46 328.28,-445.7 318.19,-442.47 318.38,-449.46"/>
</a>
</g>
</g>
<!-- Node6&#45;&gt;Node3 -->
<g id="edge29_Node000006_Node000003" class="edge">
<title>Node6&#45;&gt;Node3</title>
<g id="a_edge29_Node000006_Node000003"><a xlink:title=" ">
<path fill="none" stroke="#63b8ff" d="M389.23,-454.06C398.47,-460.52 410.26,-469.65 419,-479.5 439.4,-502.47 431.08,-519.23 455,-538.5 456.59,-539.78 458.28,-540.97 460.03,-542.08"/>
<polygon fill="#63b8ff" stroke="#63b8ff" points="458.8,-545.39 469.27,-546.97 462.07,-539.2 458.8,-545.39"/>
</a>
</g>
</g>
<!-- Node7 -->
<g id="Node000007" class="node">
<title>Node7</title>
<g id="a_Node000007"><a xlink:href="redir__utils_8c.html#aff3d6a56d03d5df38cbb3e1f171eb191" target="_top" xlink:title="Expands environment variables in a line and writes the result to a file descriptor.">
<polygon fill="white" stroke="#666666" points="551,-397 465,-397 465,-378 551,-378 551,-397"/>
<text text-anchor="middle" x="508" y="-385" font-family="Helvetica,sans-Serif" font-size="10.00">ft_for_env_var</text>
</a>
</g>
</g>
<!-- Node6&#45;&gt;Node7 -->
<g id="edge7_Node000006_Node000007" class="edge">
<title>Node6&#45;&gt;Node7</title>
<g id="a_edge7_Node000006_Node000007"><a xlink:title=" ">
<path fill="none" stroke="#63b8ff" d="M398.58,-434.93C405.21,-432.24 412.4,-429.3 419,-426.5 438.16,-418.38 459.51,-408.93 476.38,-401.36"/>
<polygon fill="#63b8ff" stroke="#63b8ff" points="478.06,-404.45 485.75,-397.15 475.19,-398.06 478.06,-404.45"/>
</a>
</g>
</g>
<!-- Node11 -->
<g id="Node000011" class="node">
<title>Node11</title>
<g id="a_Node000011"><a xlink:href="ft__strlen_8c.html#a828402378653640f545a4be2e00e92f9" target="_top" xlink:title="Calculates the length of a null&#45;terminated string.">
<polygon fill="white" stroke="#666666" points="1092.5,-359 1036.5,-359 1036.5,-340 1092.5,-340 1092.5,-359"/>
<text text-anchor="middle" x="1064.5" y="-347" font-family="Helvetica,sans-Serif" font-size="10.00">ft_strlen</text>
</a>
</g>
</g>
<!-- Node6&#45;&gt;Node11 -->
<g id="edge48_Node000006_Node000011" class="edge">
<title>Node6&#45;&gt;Node11</title>
<g id="a_edge48_Node000006_Node000011"><a xlink:title=" ">
<path fill="none" stroke="#63b8ff" d="M418.53,-446.77C551.36,-453.29 942.16,-470.08 993,-444.5 1009.43,-436.23 1037.38,-393.03 1052.69,-367.82"/>
<polygon fill="#63b8ff" stroke="#63b8ff" points="1055.75,-369.53 1057.89,-359.15 1049.74,-365.93 1055.75,-369.53"/>
</a>
</g>
</g>
<!-- Node15 -->
<g id="Node000015" class="node">
<title>Node15</title>
<g id="a_Node000015"><a xlink:href="ft__strjoin_8c.html#a91e6e3e428bcc9f2291b700e1829b82b" target="_top" xlink:title="Concatenates two strings into a newly allocated string.">
<polygon fill="white" stroke="#666666" points="967.5,-209 908.5,-209 908.5,-190 967.5,-190 967.5,-209"/>
<text text-anchor="middle" x="938" y="-197" font-family="Helvetica,sans-Serif" font-size="10.00">ft_strjoin</text>
</a>
</g>
</g>
<!-- Node6&#45;&gt;Node15 -->
<g id="edge47_Node000006_Node000015" class="edge">
<title>Node6&#45;&gt;Node15</title>
<g id="a_edge47_Node000006_Node000015"><a xlink:title=" ">
<path fill="none" stroke="#63b8ff" d="M408.25,-434.79C412.25,-432.56 415.98,-429.83 419,-426.5 456.98,-384.63 416.07,-345.49 455,-304.5 574.42,-178.76 806.47,-186.24 898.27,-194.86"/>
<polygon fill="#63b8ff" stroke="#63b8ff" points="898.2,-198.37 908.5,-195.88 898.9,-191.41 898.2,-198.37"/>
</a>
</g>
</g>
<!-- Node18 -->
<g id="Node000018" class="node">
<title>Node18</title>
<g id="a_Node000018"><a xlink:href="ft__strdup_8c.html#aebe73f27c70c56ac5053f860ef5436c9" target="_top" xlink:title="Duplicates a null&#45;terminated string by allocating memory.">
<polygon fill="white" stroke="#666666" points="1094,-133 1035,-133 1035,-114 1094,-114 1094,-133"/>
<text text-anchor="middle" x="1064.5" y="-121" font-family="Helvetica,sans-Serif" font-size="10.00">ft_strdup</text>
</a>
</g>
</g>
<!-- Node6&#45;&gt;Node18 -->
<g id="edge46_Node000006_Node000018" class="edge">
<title>Node6&#45;&gt;Node18</title>
<g id="a_edge46_Node000006_Node000018"><a xlink:title=" ">
<path fill="none" stroke="#63b8ff" d="M409.02,-434.82C412.8,-432.59 416.26,-429.86 419,-426.5 474.72,-358.22 413.06,-309.01 455,-231.5 511.39,-127.26 529.49,-47.5 648,-47.5 648,-47.5 648,-47.5 793,-47.5 883.82,-47.5 985.6,-87.69 1034.37,-109.62"/>
<polygon fill="#63b8ff" stroke="#63b8ff" points="1033.13,-112.9 1043.68,-113.87 1036.04,-106.53 1033.13,-112.9"/>
</a>
</g>
</g>
<!-- Node22 -->
<g id="Node000022" class="node">
<title>Node22</title>
<g id="a_Node000022"><a xlink:href="handle__heredoc_8c.html#a9a25ed2a488d16a1f121e7803ec7fbf8" target="_top" xlink:title="Returns the value of the token used as the here&#45;document delimiter.">
<polygon fill="white" stroke="#666666" points="561,-19 455,-19 455,0 561,0 561,-19"/>
<text text-anchor="middle" x="508" y="-7" font-family="Helvetica,sans-Serif" font-size="10.00">ft_found_delimiter</text>
</a>
</g>
</g>
<!-- Node6&#45;&gt;Node22 -->
<g id="edge28_Node000006_Node000022" class="edge">
<title>Node6&#45;&gt;Node22</title>
<g id="a_edge28_Node000006_Node000022"><a xlink:title=" ">
<path fill="none" stroke="#63b8ff" d="M409.74,-434.79C413.3,-432.57 416.52,-429.85 419,-426.5 523.59,-285.7 353.82,-176.77 455,-33.5 457.48,-29.98 460.62,-26.97 464.11,-24.39"/>
<polygon fill="#63b8ff" stroke="#63b8ff" points="466.04,-27.31 472.76,-19.12 462.4,-21.33 466.04,-27.31"/>
</a>
</g>
</g>
<!-- Node23 -->
<g id="Node000023" class="node">
<title>Node23</title>
<g id="a_Node000023"><a xlink:href="ft__printf_8c.html#a091532b7f37af84bdecc84dccf4eedb1" target="_top" xlink:title="A simplified printf function that outputs formatted data to a given file descriptor.">
<polygon fill="white" stroke="#666666" points="535.5,-529 480.5,-529 480.5,-510 535.5,-510 535.5,-529"/>
<text text-anchor="middle" x="508" y="-517" font-family="Helvetica,sans-Serif" font-size="10.00">ft_printf</text>
</a>
</g>
</g>
<!-- Node6&#45;&gt;Node23 -->
<g id="edge30_Node000006_Node000023" class="edge">
<title>Node6&#45;&gt;Node23</title>
<g id="a_edge30_Node000006_Node000023"><a xlink:title=" ">
<path fill="none" stroke="#63b8ff" d="M385.83,-454.11C400.83,-466.44 428.5,-487.88 455,-501.5 459.99,-504.07 465.43,-506.4 470.85,-508.48"/>
<polygon fill="#63b8ff" stroke="#63b8ff" points="469.89,-511.85 480.48,-511.93 472.25,-505.26 469.89,-511.85"/>
</a>
</g>
</g>
<!-- Node33 -->
<g id="Node000033" class="node">
<title>Node33</title>
<g id="a_Node000033"><a xlink:href="ft__strcmp_8c.html#a1f2ff2312e5994560c9537cd9173be94" target="_top" xlink:title="Compares two null&#45;terminated strings lexicographically.">
<polygon fill="white" stroke="#666666" points="539,-492 477,-492 477,-473 539,-473 539,-492"/>
<text text-anchor="middle" x="508" y="-480" font-family="Helvetica,sans-Serif" font-size="10.00">ft_strcmp</text>
</a>
</g>
</g>
<!-- Node6&#45;&gt;Node33 -->
<g id="edge45_Node000006_Node000033" class="edge">
<title>Node6&#45;&gt;Node33</title>
<g id="a_edge45_Node000006_Node000033"><a xlink:title=" ">
<path fill="none" stroke="#63b8ff" d="M407.94,-454.09C425.87,-459.23 448.1,-465.61 466.95,-471.01"/>
<polygon fill="#63b8ff" stroke="#63b8ff" points="466.17,-474.43 476.75,-473.82 468.1,-467.7 466.17,-474.43"/>
</a>
</g>
</g>
<!-- Node34 -->
<g id="Node000034" class="node">
<title>Node34</title>
<g id="a_Node000034"><a xlink:href="get__next__line_8c.html#a78d68a5f50a6eec0380ce25b4a1bd5b7" target="_top" xlink:title=" ">
<polygon fill="white" stroke="#666666" points="690.5,-283 607.5,-283 607.5,-264 690.5,-264 690.5,-283"/>
<text text-anchor="middle" x="649" y="-271" font-family="Helvetica,sans-Serif" font-size="10.00">get_next_line</text>
</a>
</g>
</g>
<!-- Node6&#45;&gt;Node34 -->
<g id="edge49_Node000006_Node000034" class="edge">
<title>Node6&#45;&gt;Node34</title>
<g id="a_edge49_Node000006_Node000034"><a xlink:title=" ">
<path fill="none" stroke="#63b8ff" d="M405.62,-434.89C410.4,-432.6 415.05,-429.83 419,-426.5 442.21,-406.96 432.87,-389.26 455,-368.5 507.21,-319.53 531.76,-321.95 597,-292.5 601.4,-290.51 606.07,-288.57 610.73,-286.72"/>
<polygon fill="#63b8ff" stroke="#63b8ff" points="612.12,-289.94 620.2,-283.09 609.61,-283.4 612.12,-289.94"/>
</a>
</g>
</g>
<!-- Node8 -->
<g id="Node000008" class="node">
<title>Node8</title>
<g id="a_Node000008"><a xlink:href="utils__env_8c.html#a78e10627f49df6e904925e22ae6ee15f" target="_top" xlink:title="Performs environment variable expansion in a string.">
<polygon fill="white" stroke="#666666" points="701,-321 597,-321 597,-302 701,-302 701,-321"/>
<text text-anchor="middle" x="649" y="-309" font-family="Helvetica,sans-Serif" font-size="10.00">ft_expand_envvar</text>
</a>
</g>
</g>
<!-- Node7&#45;&gt;Node8 -->
<g id="edge8_Node000007_Node000008" class="edge">
<title>Node7&#45;&gt;Node8</title>
<g id="a_edge8_Node000007_Node000008"><a xlink:title=" ">
<path fill="none" stroke="#63b8ff" d="M526.6,-377.87C550.63,-364.74 593.87,-341.1 621.73,-325.86"/>
<polygon fill="#63b8ff" stroke="#63b8ff" points="623.44,-328.92 630.54,-321.05 620.09,-322.77 623.44,-328.92"/>
</a>
</g>
</g>
<!-- Node7&#45;&gt;Node11 -->
<g id="edge27_Node000007_Node000011" class="edge">
<title>Node7&#45;&gt;Node11</title>
<g id="a_edge27_Node000007_Node000011"><a xlink:title=" ">
<path fill="none" stroke="#63b8ff" d="M551.03,-388.7C635.35,-390.45 830.95,-391.27 993,-367.5 1003.99,-365.89 1015.74,-363.26 1026.44,-360.51"/>
<polygon fill="#63b8ff" stroke="#63b8ff" points="1027.57,-363.83 1036.32,-357.85 1025.75,-357.07 1027.57,-363.83"/>
</a>
</g>
</g>
<!-- Node9 -->
<g id="Node000009" class="node">
<title>Node9</title>
<g id="a_Node000009"><a xlink:href="utils__env_8c.html#a4ea711c91d64ff7669bf6ac7e6b6b9dd" target="_top" xlink:title="Expands an environment variable found in a string.">
<polygon fill="white" stroke="#666666" points="824.5,-322 759.5,-322 759.5,-303 824.5,-303 824.5,-322"/>
<text text-anchor="middle" x="792" y="-310" font-family="Helvetica,sans-Serif" font-size="10.00">ft_expand</text>
</a>
</g>
</g>
<!-- Node8&#45;&gt;Node9 -->
<g id="edge9_Node000008_Node000009" class="edge">
<title>Node8&#45;&gt;Node9</title>
<g id="a_edge9_Node000008_Node000009"><a xlink:title=" ">
<path fill="none" stroke="#63b8ff" d="M701.3,-311.86C717.04,-311.98 734.16,-312.1 749.19,-312.2"/>
<polygon fill="#63b8ff" stroke="#63b8ff" points="749.19,-315.7 759.21,-312.27 749.24,-308.7 749.19,-315.7"/>
</a>
</g>
</g>
<!-- Node8&#45;&gt;Node18 -->
<g id="edge26_Node000008_Node000018" class="edge">
<title>Node8&#45;&gt;Node18</title>
<g id="a_edge26_Node000008_Node000018"><a xlink:title=" ">
<path fill="none" stroke="#63b8ff" d="M684.7,-301.96C690.6,-299.25 696.32,-295.82 701,-291.5 727.86,-266.68 709.01,-241.04 737,-217.5 748.28,-208.01 941.05,-156.02 1024.97,-133.69"/>
<polygon fill="#63b8ff" stroke="#63b8ff" points="1026.12,-137.01 1034.89,-131.06 1024.32,-130.24 1026.12,-137.01"/>
</a>
</g>
</g>
<!-- Node21 -->
<g id="Node000021" class="node">
<title>Node21</title>
<g id="a_Node000021"><a xlink:href="utils__env_8c.html#a3323d2c2586349772b23a3eaf1a241c3" target="_top" xlink:title="Concatenates a literal part (non&#45;variable) of the string to the result.">
<polygon fill="white" stroke="#666666" points="831,-246 753,-246 753,-227 831,-227 831,-246"/>
<text text-anchor="middle" x="792" y="-234" font-family="Helvetica,sans-Serif" font-size="10.00">ft_merge_str</text>
</a>
</g>
</g>
<!-- Node8&#45;&gt;Node21 -->
<g id="edge23_Node000008_Node000021" class="edge">
<title>Node8&#45;&gt;Node21</title>
<g id="a_edge23_Node000008_Node000021"><a xlink:title=" ">
<path fill="none" stroke="#63b8ff" d="M680.72,-301.89C687.67,-299.07 694.82,-295.61 701,-291.5 720.11,-278.8 717.57,-266.7 737,-254.5 739.59,-252.87 742.35,-251.37 745.2,-250"/>
<polygon fill="#63b8ff" stroke="#63b8ff" points="746.67,-253.18 754.48,-246.01 743.91,-246.74 746.67,-253.18"/>
</a>
</g>
</g>
<!-- Node10 -->
<g id="Node000010" class="node">
<title>Node10</title>
<g id="a_Node000010"><a xlink:href="utils__env__pt2_8c.html#afac58c53fe53bc538ba19b53efec42e4" target="_top" xlink:title="Finds the value of an environment variable given its name key.">
<polygon fill="white" stroke="#666666" points="988,-435 888,-435 888,-416 988,-416 988,-435"/>
<text text-anchor="middle" x="938" y="-423" font-family="Helvetica,sans-Serif" font-size="10.00">ft_get_env_value</text>
</a>
</g>
</g>
<!-- Node9&#45;&gt;Node10 -->
<g id="edge10_Node000009_Node000010" class="edge">
<title>Node9&#45;&gt;Node10</title>
<g id="a_edge10_Node000009_Node000010"><a xlink:title=" ">
<path fill="none" stroke="#63b8ff" d="M805.28,-322.13C830.04,-341.57 886.19,-385.63 916.57,-409.46"/>
<polygon fill="#63b8ff" stroke="#63b8ff" points="914.73,-412.47 924.75,-415.89 919.05,-406.96 914.73,-412.47"/>
</a>
</g>
</g>
<!-- Node13 -->
<g id="Node000013" class="node">
<title>Node13</title>
<g id="a_Node000013"><a xlink:href="ft__isalnum_8c.html#a9c2c3821ea43ebdf97de07b123503f8b" target="_top" xlink:title="Checks whether a character is alphanumeric.">
<polygon fill="white" stroke="#666666" points="972,-359 904,-359 904,-340 972,-340 972,-359"/>
<text text-anchor="middle" x="938" y="-347" font-family="Helvetica,sans-Serif" font-size="10.00">ft_isalnum</text>
</a>
</g>
</g>
<!-- Node9&#45;&gt;Node13 -->
<g id="edge13_Node000009_Node000013" class="edge">
<title>Node9&#45;&gt;Node13</title>
<g id="a_edge13_Node000009_Node000013"><a xlink:title=" ">
<path fill="none" stroke="#63b8ff" d="M824.6,-320.62C844.99,-325.86 871.77,-332.74 894.08,-338.47"/>
<polygon fill="#63b8ff" stroke="#63b8ff" points="893.42,-341.91 903.97,-341.01 895.16,-335.14 893.42,-341.91"/>
</a>
</g>
</g>
<!-- Node14 -->
<g id="Node000014" class="node">
<title>Node14</title>
<g id="a_Node000014"><a xlink:href="ft__isdigit_8c.html#a2cf15b8a1a277d1e2ce3654101a2003d" target="_top" xlink:title="Checks whether a character is a decimal digit.">
<polygon fill="white" stroke="#666666" points="967.5,-322 908.5,-322 908.5,-303 967.5,-303 967.5,-322"/>
<text text-anchor="middle" x="938" y="-310" font-family="Helvetica,sans-Serif" font-size="10.00">ft_isdigit</text>
</a>
</g>
</g>
<!-- Node9&#45;&gt;Node14 -->
<g id="edge14_Node000009_Node000014" class="edge">
<title>Node9&#45;&gt;Node14</title>
<g id="a_edge14_Node000009_Node000014"><a xlink:title=" ">
<path fill="none" stroke="#63b8ff" d="M824.6,-312.5C846.28,-312.5 875.19,-312.5 898.26,-312.5"/>
<polygon fill="#63b8ff" stroke="#63b8ff" points="898.4,-316 908.4,-312.5 898.4,-309 898.4,-316"/>
</a>
</g>
</g>
<!-- Node9&#45;&gt;Node15 -->
<g id="edge15_Node000009_Node000015" class="edge">
<title>Node9&#45;&gt;Node15</title>
<g id="a_edge15_Node000009_Node000015"><a xlink:title=" ">
<path fill="none" stroke="#63b8ff" d="M824.68,-304.66C832.65,-301.55 840.71,-297.29 847,-291.5 873.9,-266.72 855.5,-241.61 883,-217.5 887.57,-213.49 893.06,-210.37 898.77,-207.94"/>
<polygon fill="#63b8ff" stroke="#63b8ff" points="900.21,-211.14 908.44,-204.48 897.85,-204.55 900.21,-211.14"/>
</a>
</g>
</g>
<!-- Node17 -->
<g id="Node000017" class="node">
<title>Node17</title>
<g id="a_Node000017"><a xlink:href="ft__substr_8c.html#a78c402cbf3d55b1374693c3b7d34f71d" target="_top" xlink:title="Extracts a substring from a given string.">
<polygon fill="white" stroke="#666666" points="967.5,-246 908.5,-246 908.5,-227 967.5,-227 967.5,-246"/>
<text text-anchor="middle" x="938" y="-234" font-family="Helvetica,sans-Serif" font-size="10.00">ft_substr</text>
</a>
</g>
</g>
<!-- Node9&#45;&gt;Node17 -->
<g id="edge18_Node000009_Node000017" class="edge">
<title>Node9&#45;&gt;Node17</title>
<g id="a_edge18_Node000009_Node000017"><a xlink:title=" ">
<path fill="none" stroke="#63b8ff" d="M820.32,-302.95C828.99,-299.64 838.53,-295.7 847,-291.5 870.9,-279.67 896.73,-263.5 914.56,-251.76"/>
<polygon fill="#63b8ff" stroke="#63b8ff" points="916.72,-254.53 923.1,-246.07 912.84,-248.7 916.72,-254.53"/>
</a>
</g>
</g>
<!-- Node10&#45;&gt;Node11 -->
<g id="edge11_Node000010_Node000011" class="edge">
<title>Node10&#45;&gt;Node11</title>
<g id="a_edge11_Node000010_Node000011"><a xlink:title=" ">
<path fill="none" stroke="#63b8ff" d="M963.48,-415.95C972.93,-411.93 983.69,-406.92 993,-401.5 1011.29,-390.86 1030.52,-376.43 1044.27,-365.47"/>
<polygon fill="#63b8ff" stroke="#63b8ff" points="1046.5,-368.17 1052.06,-359.15 1042.09,-362.73 1046.5,-368.17"/>
</a>
</g>
</g>
<!-- Node12 -->
<g id="Node000012" class="node">
<title>Node12</title>
<g id="a_Node000012"><a xlink:href="ft__strncmp_8c.html#a9d2fe792187aa4ed08e5864fb2c4d6dc" target="_top" xlink:title="Compares up to n characters of two strings.">
<polygon fill="white" stroke="#666666" points="1098.5,-435 1030.5,-435 1030.5,-416 1098.5,-416 1098.5,-435"/>
<text text-anchor="middle" x="1064.5" y="-423" font-family="Helvetica,sans-Serif" font-size="10.00">ft_strncmp</text>
</a>
</g>
</g>
<!-- Node10&#45;&gt;Node12 -->
<g id="edge12_Node000010_Node000012" class="edge">
<title>Node10&#45;&gt;Node12</title>
<g id="a_edge12_Node000010_Node000012"><a xlink:title=" ">
<path fill="none" stroke="#63b8ff" d="M988.21,-425.5C998.81,-425.5 1009.94,-425.5 1020.29,-425.5"/>
<polygon fill="#63b8ff" stroke="#63b8ff" points="1020.34,-429 1030.34,-425.5 1020.34,-422 1020.34,-429"/>
</a>
</g>
</g>
<!-- Node15&#45;&gt;Node11 -->
<g id="edge17_Node000015_Node000011" class="edge">
<title>Node15&#45;&gt;Node11</title>
<g id="a_edge17_Node000015_Node000011"><a xlink:title=" ">
<path fill="none" stroke="#63b8ff" d="M967.56,-204.48C976.49,-207.15 985.87,-211.25 993,-217.5 1020.5,-241.61 1011.64,-259.31 1029,-291.5 1036.3,-305.03 1045.18,-319.94 1052.11,-331.25"/>
<polygon fill="#63b8ff" stroke="#63b8ff" points="1049.15,-333.12 1057.39,-339.79 1055.11,-329.44 1049.15,-333.12"/>
</a>
</g>
</g>
<!-- Node16 -->
<g id="Node000016" class="node">
<title>Node16</title>
<g id="a_Node000016"><a xlink:href="ft__memcpy_8c.html#a41a6f05af30cf85ff63a08e383826322" target="_top" xlink:title="Copies &#39;n&#39; bytes from memory area &#39;src&#39; to memory area &#39;dest&#39;.">
<polygon fill="white" stroke="#666666" points="1100,-209 1029,-209 1029,-190 1100,-190 1100,-209"/>
<text text-anchor="middle" x="1064.5" y="-197" font-family="Helvetica,sans-Serif" font-size="10.00">ft_memcpy</text>
</a>
</g>
</g>
<!-- Node15&#45;&gt;Node16 -->
<g id="edge16_Node000015_Node000016" class="edge">
<title>Node15&#45;&gt;Node16</title>
<g id="a_edge16_Node000015_Node000016"><a xlink:title=" ">
<path fill="none" stroke="#63b8ff" d="M967.56,-199.5C982.66,-199.5 1001.55,-199.5 1018.56,-199.5"/>
<polygon fill="#63b8ff" stroke="#63b8ff" points="1018.86,-203 1028.86,-199.5 1018.86,-196 1018.86,-203"/>
</a>
</g>
</g>
<!-- Node17&#45;&gt;Node11 -->
<g id="edge21_Node000017_Node000011" class="edge">
<title>Node17&#45;&gt;Node11</title>
<g id="a_edge21_Node000017_Node000011"><a xlink:title=" ">
<path fill="none" stroke="#63b8ff" d="M967.35,-246.07C976.07,-249.79 985.38,-254.59 993,-260.5 1018.7,-280.43 1040.56,-311.64 1052.85,-331.31"/>
<polygon fill="#63b8ff" stroke="#63b8ff" points="1049.91,-333.21 1058.09,-339.94 1055.89,-329.58 1049.91,-333.21"/>
</a>
</g>
</g>
<!-- Node17&#45;&gt;Node18 -->
<g id="edge19_Node000017_Node000018" class="edge">
<title>Node17&#45;&gt;Node18</title>
<g id="a_edge19_Node000017_Node000018"><a xlink:title=" ">
<path fill="none" stroke="#63b8ff" d="M967.73,-229.85C976.38,-226.97 985.55,-222.97 993,-217.5 1007.52,-206.85 1035.55,-166.18 1051.54,-141.96"/>
<polygon fill="#63b8ff" stroke="#63b8ff" points="1054.67,-143.58 1057.22,-133.29 1048.81,-139.74 1054.67,-143.58"/>
</a>
</g>
</g>
<!-- Node19 -->
<g id="Node000019" class="node">
<title>Node19</title>
<g id="a_Node000019"><a xlink:href="ft__strlcpy_8c.html#aa053827b3a2ea3d0118783d6fb59d178" target="_top" xlink:title="Copies up to size &#45; 1 characters from the string src to dst, null&#45;terminating the result.">
<polygon fill="white" stroke="#666666" points="1095.5,-283 1033.5,-283 1033.5,-264 1095.5,-264 1095.5,-283"/>
<text text-anchor="middle" x="1064.5" y="-271" font-family="Helvetica,sans-Serif" font-size="10.00">ft_strlcpy</text>
</a>
</g>
</g>
<!-- Node17&#45;&gt;Node19 -->
<g id="edge20_Node000017_Node000019" class="edge">
<title>Node17&#45;&gt;Node19</title>
<g id="a_edge20_Node000017_Node000019"><a xlink:title=" ">
<path fill="none" stroke="#63b8ff" d="M967.56,-244.99C984.16,-249.92 1005.33,-256.21 1023.56,-261.63"/>
<polygon fill="#63b8ff" stroke="#63b8ff" points="1022.75,-265.04 1033.33,-264.53 1024.74,-258.33 1022.75,-265.04"/>
</a>
</g>
</g>
<!-- Node20 -->
<g id="Node000020" class="node">
<title>Node20</title>
<g id="a_Node000020"><a xlink:href="ft__strlcat_8c.html#a3ab017dd491d7327d1b4acbf1398b91e" target="_top" xlink:title="Returns the length of a null&#45;terminated string.">
<polygon fill="white" stroke="#666666" points="1080.5,-246 1048.5,-246 1048.5,-227 1080.5,-227 1080.5,-246"/>
<text text-anchor="middle" x="1064.5" y="-234" font-family="Helvetica,sans-Serif" font-size="10.00">len</text>
</a>
</g>
</g>
<!-- Node17&#45;&gt;Node20 -->
<g id="edge22_Node000017_Node000020" class="edge">
<title>Node17&#45;&gt;Node20</title>
<g id="a_edge22_Node000017_Node000020"><a xlink:title=" ">
<path fill="none" stroke="#63b8ff" d="M967.56,-236.5C988.86,-236.5 1017.69,-236.5 1038.17,-236.5"/>
<polygon fill="#63b8ff" stroke="#63b8ff" points="1038.31,-240 1048.31,-236.5 1038.31,-233 1038.31,-240"/>
</a>
</g>
</g>
<!-- Node21&#45;&gt;Node15 -->
<g id="edge24_Node000021_Node000015" class="edge">
<title>Node21&#45;&gt;Node15</title>
<g id="a_edge24_Node000021_Node000015"><a xlink:title=" ">
<path fill="none" stroke="#63b8ff" d="M830.08,-226.97C850.99,-221.6 877.09,-214.89 898.27,-209.45"/>
<polygon fill="#63b8ff" stroke="#63b8ff" points="899.41,-212.77 908.22,-206.89 897.67,-205.99 899.41,-212.77"/>
</a>
</g>
</g>
<!-- Node21&#45;&gt;Node17 -->
<g id="edge25_Node000021_Node000017" class="edge">
<title>Node21&#45;&gt;Node17</title>
<g id="a_edge25_Node000021_Node000017"><a xlink:title=" ">
<path fill="none" stroke="#63b8ff" d="M831.21,-236.5C851.88,-236.5 877.36,-236.5 898.13,-236.5"/>
<polygon fill="#63b8ff" stroke="#63b8ff" points="898.21,-240 908.21,-236.5 898.21,-233 898.21,-240"/>
</a>
</g>
</g>
<!-- Node24 -->
<g id="Node000024" class="node">
<title>Node24</title>
<g id="a_Node000024"><a xlink:href="ft__printf_8c.html#a80c1c206dcd33d07c265581878aaa300" target="_top" xlink:title="Processes a single format specifier and prints the corresponding argument.">
<polygon fill="white" stroke="#666666" points="690.5,-566 607.5,-566 607.5,-547 690.5,-547 690.5,-566"/>
<text text-anchor="middle" x="649" y="-554" font-family="Helvetica,sans-Serif" font-size="10.00">check_format</text>
</a>
</g>
</g>
<!-- Node23&#45;&gt;Node24 -->
<g id="edge31_Node000023_Node000024" class="edge">
<title>Node23&#45;&gt;Node24</title>
<g id="a_edge31_Node000023_Node000024"><a xlink:title=" ">
<path fill="none" stroke="#63b8ff" d="M535.8,-526.63C554.61,-531.64 580.24,-538.46 602.26,-544.32"/>
<polygon fill="#63b8ff" stroke="#63b8ff" points="601.52,-547.75 612.08,-546.94 603.32,-540.98 601.52,-547.75"/>
</a>
</g>
</g>
<!-- Node28 -->
<g id="Node000028" class="node">
<title>Node28</title>
<g id="a_Node000028"><a xlink:href="ft__putchar__fd_8c.html#a03ef80b25dc4a521379fa92ad97bad21" target="_top" xlink:title="Writes a single character to the specified file descriptor.">
<polygon fill="white" stroke="#666666" points="832,-713 752,-713 752,-694 832,-694 832,-713"/>
<text text-anchor="middle" x="792" y="-701" font-family="Helvetica,sans-Serif" font-size="10.00">ft_putchar_fd</text>
</a>
</g>
</g>
<!-- Node23&#45;&gt;Node28 -->
<g id="edge44_Node000023_Node000028" class="edge">
<title>Node23&#45;&gt;Node28</title>
<g id="a_edge44_Node000023_Node000028"><a xlink:title=" ">
<path fill="none" stroke="#63b8ff" d="M535.74,-526.7C544.2,-529.64 553.34,-533.54 561,-538.5 580.26,-550.97 579.94,-560.16 597,-575.5 655.83,-628.42 667.32,-647.99 737,-685.5 740.24,-687.24 743.67,-688.86 747.18,-690.35"/>
<polygon fill="#63b8ff" stroke="#63b8ff" points="745.96,-693.63 756.55,-693.99 748.5,-687.11 745.96,-693.63"/>
</a>
</g>
</g>
<!-- Node25 -->
<g id="Node000025" class="node">
<title>Node25</title>
<g id="a_Node000025"><a xlink:href="ft__forpointer_8c.html#a8e02c77b80406af72327ebf71f537786" target="_top" xlink:title="Prints a pointer in hexadecimal format prefixed with &quot;0x&quot;.">
<polygon fill="white" stroke="#666666" points="830.5,-676 753.5,-676 753.5,-657 830.5,-657 830.5,-676"/>
<text text-anchor="middle" x="792" y="-664" font-family="Helvetica,sans-Serif" font-size="10.00">ft_forpointer</text>
</a>
</g>
</g>
<!-- Node24&#45;&gt;Node25 -->
<g id="edge32_Node000024_Node000025" class="edge">
<title>Node24&#45;&gt;Node25</title>
<g id="a_edge32_Node000024_Node000025"><a xlink:title=" ">
<path fill="none" stroke="#63b8ff" d="M656.51,-566.04C669.62,-584.56 701.04,-625.57 737,-648.5 739.46,-650.07 742.07,-651.52 744.77,-652.85"/>
<polygon fill="#63b8ff" stroke="#63b8ff" points="743.59,-656.15 754.15,-656.94 746.39,-649.73 743.59,-656.15"/>
</a>
</g>
</g>
<!-- Node27 -->
<g id="Node000027" class="node">
<title>Node27</title>
<g id="a_Node000027"><a xlink:href="ft__hexadecimal_8c.html#a39c845e0a4286d3ac1e04c1e64ac734b" target="_top" xlink:title="Prints an unsigned integer in hexadecimal format.">
<polygon fill="white" stroke="#666666" points="838,-621 746,-621 746,-602 838,-602 838,-621"/>
<text text-anchor="middle" x="792" y="-609" font-family="Helvetica,sans-Serif" font-size="10.00">ft_hexadecimal</text>
</a>
</g>
</g>
<!-- Node24&#45;&gt;Node27 -->
<g id="edge35_Node000024_Node000027" class="edge">
<title>Node24&#45;&gt;Node27</title>
<g id="a_edge35_Node000024_Node000027"><a xlink:title=" ">
<path fill="none" stroke="#63b8ff" d="M671.26,-566.11C688.75,-573.88 714.28,-584.9 737,-593.5 741.55,-595.22 746.36,-596.95 751.14,-598.62"/>
<polygon fill="#63b8ff" stroke="#63b8ff" points="750.26,-602.02 760.86,-601.93 752.52,-595.39 750.26,-602.02"/>
</a>
</g>
</g>
<!-- Node24&#45;&gt;Node28 -->
<g id="edge37_Node000024_Node000028" class="edge">
<title>Node24&#45;&gt;Node28</title>
<g id="a_edge37_Node000024_Node000028"><a xlink:title=" ">
<path fill="none" stroke="#63b8ff" d="M656.32,-566.24C675.38,-595.54 731.3,-681.17 737,-685.5 738.82,-686.88 740.76,-688.17 742.77,-689.35"/>
<polygon fill="#63b8ff" stroke="#63b8ff" points="741.46,-692.61 751.97,-693.96 744.59,-686.35 741.46,-692.61"/>
</a>
</g>
</g>
<!-- Node29 -->
<g id="Node000029" class="node">
<title>Node29</title>
<g id="a_Node000029"><a xlink:href="ft__putnbr__fd_8c.html#a1554101ee350c316340c78e19faddaa8" target="_top" xlink:title="Writes an integer to a given file descriptor.">
<polygon fill="white" stroke="#666666" points="829.5,-566 754.5,-566 754.5,-547 829.5,-547 829.5,-566"/>
<text text-anchor="middle" x="792" y="-554" font-family="Helvetica,sans-Serif" font-size="10.00">ft_putnbr_fd</text>
</a>
</g>
</g>
<!-- Node24&#45;&gt;Node29 -->
<g id="edge38_Node000024_Node000029" class="edge">
<title>Node24&#45;&gt;Node29</title>
<g id="a_edge38_Node000024_Node000029"><a xlink:title=" ">
<path fill="none" stroke="#63b8ff" d="M690.78,-556.5C707.35,-556.5 726.6,-556.5 743.78,-556.5"/>
<polygon fill="#63b8ff" stroke="#63b8ff" points="744.16,-560 754.16,-556.5 744.16,-553 744.16,-560"/>
</a>
</g>
</g>
<!-- Node30 -->
<g id="Node000030" class="node">
<title>Node30</title>
<g id="a_Node000030"><a xlink:href="ft__putstr__fd_8c.html#a00b0638f31a75c7a30f77f33888bfb73" target="_top" xlink:title="Writes a null&#45;terminated string to the specified file descriptor.">
<polygon fill="white" stroke="#666666" points="828,-529 756,-529 756,-510 828,-510 828,-529"/>
<text text-anchor="middle" x="792" y="-517" font-family="Helvetica,sans-Serif" font-size="10.00">ft_putstr_fd</text>
</a>
</g>
</g>
<!-- Node24&#45;&gt;Node30 -->
<g id="edge40_Node000024_Node000030" class="edge">
<title>Node24&#45;&gt;Node30</title>
<g id="a_edge40_Node000024_Node000030"><a xlink:title=" ">
<path fill="none" stroke="#63b8ff" d="M686.31,-546.97C704.52,-542.19 726.73,-536.36 746.01,-531.31"/>
<polygon fill="#63b8ff" stroke="#63b8ff" points="747,-534.66 755.79,-528.74 745.23,-527.89 747,-534.66"/>
</a>
</g>
</g>
<!-- Node31 -->
<g id="Node000031" class="node">
<title>Node31</title>
<g id="a_Node000031"><a xlink:href="ft__unsigned__putnbr_8c.html#af9a70f8607b40cf2a7706f9d3725b549" target="_top" xlink:title="Writes an unsigned integer to the given file descriptor.">
<polygon fill="white" stroke="#666666" points="847,-492 737,-492 737,-473 847,-473 847,-492"/>
<text text-anchor="middle" x="792" y="-480" font-family="Helvetica,sans-Serif" font-size="10.00">ft_unsigned_putnbr</text>
</a>
</g>
</g>
<!-- Node24&#45;&gt;Node31 -->
<g id="edge41_Node000024_Node000031" class="edge">
<title>Node24&#45;&gt;Node31</title>
<g id="a_edge41_Node000024_Node000031"><a xlink:title=" ">
<path fill="none" stroke="#63b8ff" d="M663.02,-546.95C679.57,-535.12 709.34,-514.9 737,-501.5 741.3,-499.42 745.89,-497.45 750.51,-495.62"/>
<polygon fill="#63b8ff" stroke="#63b8ff" points="751.82,-498.87 759.95,-492.08 749.36,-492.31 751.82,-498.87"/>
</a>
</g>
</g>
<!-- Node26 -->
<g id="Node000026" class="node">
<title>Node26</title>
<g id="a_Node000026"><a xlink:href="ft__forpointer_8c.html#aded1bf735c8a10e47396170d27c5b6aa" target="_top" xlink:title="Recursively prints a memory address in hexadecimal format.">
<polygon fill="white" stroke="#666666" points="993,-676 883,-676 883,-657 993,-657 993,-676"/>
<text text-anchor="middle" x="938" y="-664" font-family="Helvetica,sans-Serif" font-size="10.00">ft_ricorsive_pointer</text>
</a>
</g>
</g>
<!-- Node25&#45;&gt;Node26 -->
<g id="edge33_Node000025_Node000026" class="edge">
<title>Node25&#45;&gt;Node26</title>
<g id="a_edge33_Node000025_Node000026"><a xlink:title=" ">
<path fill="none" stroke="#63b8ff" d="M830.83,-666.5C843.64,-666.5 858.33,-666.5 872.61,-666.5"/>
<polygon fill="#63b8ff" stroke="#63b8ff" points="872.9,-670 882.9,-666.5 872.9,-663 872.9,-670"/>
</a>
</g>
</g>
<!-- Node26&#45;&gt;Node26 -->
<g id="edge34_Node000026_Node000026" class="edge">
<title>Node26&#45;&gt;Node26</title>
<g id="a_edge34_Node000026_Node000026"><a xlink:title=" ">
<path fill="none" stroke="#63b8ff" d="M918.58,-676.08C909.13,-684.73 915.61,-694 938,-694 952,-694 959.77,-690.38 961.33,-685.55"/>
<polygon fill="#63b8ff" stroke="#63b8ff" points="964.47,-683.99 957.42,-676.08 958,-686.66 964.47,-683.99"/>
</a>
</g>
</g>
<!-- Node27&#45;&gt;Node27 -->
<g id="edge36_Node000027_Node000027" class="edge">
<title>Node27&#45;&gt;Node27</title>
<g id="a_edge36_Node000027_Node000027"><a xlink:title=" ">
<path fill="none" stroke="#63b8ff" d="M770.11,-621.08C759.47,-629.73 766.76,-639 792,-639 808.17,-639 816.97,-635.2 818.41,-630.19"/>
<polygon fill="#63b8ff" stroke="#63b8ff" points="821.47,-628.48 813.89,-621.08 815.2,-631.6 821.47,-628.48"/>
</a>
</g>
</g>
<!-- Node29&#45;&gt;Node29 -->
<g id="edge39_Node000029_Node000029" class="edge">
<title>Node29&#45;&gt;Node29</title>
<g id="a_edge39_Node000029_Node000029"><a xlink:title=" ">
<path fill="none" stroke="#63b8ff" d="M770.11,-566.08C759.47,-574.73 766.76,-584 792,-584 808.17,-584 816.97,-580.2 818.41,-575.19"/>
<polygon fill="#63b8ff" stroke="#63b8ff" points="821.47,-573.48 813.89,-566.08 815.2,-576.6 821.47,-573.48"/>
</a>
</g>
</g>
<!-- Node32 -->
<g id="Node000032" class="node">
<title>Node32</title>
<g id="a_Node000032"><a xlink:href="ft__putnbr_8c.html#a2e51f80c9e46e52f4adf94617fb51ada" target="_top" xlink:title="Writes an integer to the standard output (stdout).">
<polygon fill="white" stroke="#666666" points="968,-511 908,-511 908,-492 968,-492 968,-511"/>
<text text-anchor="middle" x="938" y="-499" font-family="Helvetica,sans-Serif" font-size="10.00">ft_putnbr</text>
</a>
</g>
</g>
<!-- Node31&#45;&gt;Node32 -->
<g id="edge42_Node000031_Node000032" class="edge">
<title>Node31&#45;&gt;Node32</title>
<g id="a_edge42_Node000031_Node000032"><a xlink:title=" ">
<path fill="none" stroke="#63b8ff" d="M847.03,-489.63C863.76,-491.84 881.87,-494.23 897.43,-496.28"/>
<polygon fill="#63b8ff" stroke="#63b8ff" points="897.37,-499.8 907.74,-497.64 898.29,-492.86 897.37,-499.8"/>
</a>
</g>
</g>
<!-- Node32&#45;&gt;Node32 -->
<g id="edge43_Node000032_Node000032" class="edge">
<title>Node32&#45;&gt;Node32</title>
<g id="a_edge43_Node000032_Node000032"><a xlink:title=" ">
<path fill="none" stroke="#63b8ff" d="M918.58,-511.08C909.13,-519.73 915.61,-529 938,-529 952,-529 959.77,-525.38 961.33,-520.55"/>
<polygon fill="#63b8ff" stroke="#63b8ff" points="964.47,-518.99 957.42,-511.08 958,-521.66 964.47,-518.99"/>
</a>
</g>
</g>
<!-- Node35 -->
<g id="Node000035" class="node">
<title>Node35</title>
<g id="a_Node000035"><a xlink:href="get__next__line_8c.html#a253f107325777771467d4b92d8ad0def" target="_top" xlink:title=" ">
<polygon fill="white" stroke="#666666" points="823.5,-283 760.5,-283 760.5,-264 823.5,-264 823.5,-283"/>
<text text-anchor="middle" x="792" y="-271" font-family="Helvetica,sans-Serif" font-size="10.00">ft_getrest</text>
</a>
</g>
</g>
<!-- Node34&#45;&gt;Node35 -->
<g id="edge50_Node000034_Node000035" class="edge">
<title>Node34&#45;&gt;Node35</title>
<g id="a_edge50_Node000034_Node000035"><a xlink:title=" ">
<path fill="none" stroke="#63b8ff" d="M690.78,-273.5C709.36,-273.5 731.31,-273.5 749.93,-273.5"/>
<polygon fill="#63b8ff" stroke="#63b8ff" points="750.17,-277 760.17,-273.5 750.17,-270 750.17,-277"/>
</a>
</g>
</g>
<!-- Node36 -->
<g id="Node000036" class="node">
<title>Node36</title>
<g id="a_Node000036"><a xlink:href="get__next__line_8c.html#aad5cee417ca3f1d807d5b1d1c76c6987" target="_top" xlink:title=" ">
<polygon fill="white" stroke="#666666" points="823,-132 761,-132 761,-113 823,-113 823,-132"/>
<text text-anchor="middle" x="792" y="-120" font-family="Helvetica,sans-Serif" font-size="10.00">ft_putline</text>
</a>
</g>
</g>
<!-- Node34&#45;&gt;Node36 -->
<g id="edge53_Node000034_Node000036" class="edge">
<title>Node34&#45;&gt;Node36</title>
<g id="a_edge53_Node000034_Node000036"><a xlink:title=" ">
<path fill="none" stroke="#63b8ff" d="M659.25,-263.59C682.76,-238.42 745.03,-171.73 774.76,-139.89"/>
<polygon fill="#63b8ff" stroke="#63b8ff" points="777.63,-141.95 781.9,-132.25 772.51,-137.17 777.63,-141.95"/>
</a>
</g>
</g>
<!-- Node35&#45;&gt;Node11 -->
<g id="edge51_Node000035_Node000011" class="edge">
<title>Node35&#45;&gt;Node11</title>
<g id="a_edge51_Node000035_Node000011"><a xlink:title=" ">
<path fill="none" stroke="#63b8ff" d="M823.75,-271.33C864.15,-269.63 936.58,-270.6 993,-293.5 1014.35,-302.16 1034.49,-319.42 1047.73,-332.5"/>
<polygon fill="#63b8ff" stroke="#63b8ff" points="1045.55,-335.27 1055.03,-339.99 1050.56,-330.38 1045.55,-335.27"/>
</a>
</g>
</g>
<!-- Node35&#45;&gt;Node17 -->
<g id="edge52_Node000035_Node000017" class="edge">
<title>Node35&#45;&gt;Node17</title>
<g id="a_edge52_Node000035_Node000017"><a xlink:title=" ">
<path fill="none" stroke="#63b8ff" d="M823.54,-265.65C845.4,-260.04 875,-252.43 898.48,-246.4"/>
<polygon fill="#63b8ff" stroke="#63b8ff" points="899.65,-249.71 908.46,-243.83 897.91,-242.93 899.65,-249.71"/>
</a>
</g>
</g>
<!-- Node36&#45;&gt;Node15 -->
<g id="edge56_Node000036_Node000015" class="edge">
<title>Node36&#45;&gt;Node15</title>
<g id="a_edge56_Node000036_Node000015"><a xlink:title=" ">
<path fill="none" stroke="#63b8ff" d="M816.13,-132.09C825.79,-136.27 837.06,-141.38 847,-146.5 870.07,-158.37 895.46,-173.52 913.37,-184.59"/>
<polygon fill="#63b8ff" stroke="#63b8ff" points="911.67,-187.65 922.01,-189.96 915.37,-181.7 911.67,-187.65"/>
</a>
</g>
</g>
<!-- Node36&#45;&gt;Node18 -->
<g id="edge55_Node000036_Node000018" class="edge">
<title>Node36&#45;&gt;Node18</title>
<g id="a_edge55_Node000036_Node000018"><a xlink:title=" ">
<path fill="none" stroke="#63b8ff" d="M823.19,-114.91C840.55,-110.94 862.86,-106.49 883,-104.5 931.65,-99.68 944.53,-98.08 993,-104.5 1003.67,-105.91 1015.01,-108.48 1025.41,-111.27"/>
<polygon fill="#63b8ff" stroke="#63b8ff" points="1024.46,-114.64 1035.03,-114 1026.37,-107.91 1024.46,-114.64"/>
</a>
</g>
</g>
<!-- Node37 -->
<g id="Node000037" class="node">
<title>Node37</title>
<g id="a_Node000037"><a xlink:href="ft__strchr_8c.html#aa6d0c2d180f32ee585485e1a1ce3d55d" target="_top" xlink:title="Locates the first occurrence of a character in a string.">
<polygon fill="white" stroke="#666666" points="966,-133 910,-133 910,-114 966,-114 966,-133"/>
<text text-anchor="middle" x="938" y="-121" font-family="Helvetica,sans-Serif" font-size="10.00">ft_strchr</text>
</a>
</g>
</g>
<!-- Node36&#45;&gt;Node37 -->
<g id="edge54_Node000036_Node000037" class="edge">
<title>Node36&#45;&gt;Node37</title>
<g id="a_edge54_Node000036_Node000037"><a xlink:title=" ">
<path fill="none" stroke="#63b8ff" d="M823.19,-122.71C845.46,-122.86 875.9,-123.08 899.69,-123.24"/>
<polygon fill="#63b8ff" stroke="#63b8ff" points="899.75,-126.74 909.77,-123.31 899.8,-119.74 899.75,-126.74"/>
</a>
</g>
</g>
</g>
</svg>
