<?xml version="1.0" encoding="UTF-8" standalone="no"?>
<!DOCTYPE svg PUBLIC "-//W3C//DTD SVG 1.1//EN"
 "http://www.w3.org/Graphics/SVG/1.1/DTD/svg11.dtd">
<!-- Generated by graphviz version 2.43.0 (0)
 -->
<!-- Title: ft_lstlast Pages: 1 -->
<svg width="288pt" height="27pt"
 viewBox="0.00 0.00 288.00 27.00" xmlns="http://www.w3.org/2000/svg" xmlns:xlink="http://www.w3.org/1999/xlink">
<g id="graph0" class="graph" transform="scale(1 1) rotate(0) translate(4 23)">
<title>ft_lstlast</title>
<!-- Node1 -->
<g id="Node000001" class="node">
<title>Node1</title>
<g id="a_Node000001"><a xlink:title="Returns the last node of a linked list.">
<polygon fill="#999999" stroke="#666666" points="280,-19 221,-19 221,0 280,0 280,-19"/>
<text text-anchor="middle" x="250.5" y="-7" font-family="Helvetica,sans-Serif" font-size="10.00">ft_lstlast</text>
</a>
</g>
</g>
<!-- Node2 -->
<g id="Node000002" class="node">
<title>Node2</title>
<g id="a_Node000002"><a xlink:href="ft__lstadd__back_8c.html#a4c10e88fffc3c9467eb16e6debd227a4" target="_top" xlink:title="Adds a new node at the end of a linked list.">
<polygon fill="white" stroke="#666666" points="185,-19 98,-19 98,0 185,0 185,-19"/>
<text text-anchor="middle" x="141.5" y="-7" font-family="Helvetica,sans-Serif" font-size="10.00">ft_lstadd_back</text>
</a>
</g>
</g>
<!-- Node1&#45;&gt;Node2 -->
<g id="edge1_Node000001_Node000002" class="edge">
<title>Node1&#45;&gt;Node2</title>
<g id="a_edge1_Node000001_Node000002"><a xlink:title=" ">
<path fill="none" stroke="#63b8ff" d="M210.72,-9.5C202.48,-9.5 193.73,-9.5 185.35,-9.5"/>
<polygon fill="#63b8ff" stroke="#63b8ff" points="210.83,-13 220.83,-9.5 210.83,-6 210.83,-13"/>
</a>
</g>
</g>
<!-- Node3 -->
<g id="Node000003" class="node">
<title>Node3</title>
<g id="a_Node000003"><a xlink:href="ft__lstmap_8c.html#a8198d1837ffbba05823f5e85afebf9c6" target="_top" xlink:title="Creates a new list by applying a function to each element of an existing list.">
<polygon fill="white" stroke="#666666" points="62,-19 0,-19 0,0 62,0 62,-19"/>
<text text-anchor="middle" x="31" y="-7" font-family="Helvetica,sans-Serif" font-size="10.00">ft_lstmap</text>
</a>
</g>
</g>
<!-- Node2&#45;&gt;Node3 -->
<g id="edge2_Node000002_Node000003" class="edge">
<title>Node2&#45;&gt;Node3</title>
<g id="a_edge2_Node000002_Node000003"><a xlink:title=" ">
<path fill="none" stroke="#63b8ff" d="M87.68,-9.5C78.88,-9.5 70.02,-9.5 62.05,-9.5"/>
<polygon fill="#63b8ff" stroke="#63b8ff" points="87.93,-13 97.93,-9.5 87.93,-6 87.93,-13"/>
</a>
</g>
</g>
</g>
</svg>
