<?xml version="1.0" encoding="UTF-8" standalone="no"?>
<!DOCTYPE svg PUBLIC "-//W3C//DTD SVG 1.1//EN"
 "http://www.w3.org/Graphics/SVG/1.1/DTD/svg11.dtd">
<!-- Generated by graphviz version 2.43.0 (0)
 -->
<!-- Title: ft_strtrim Pages: 1 -->
<svg width="234pt" height="77pt"
 viewBox="0.00 0.00 234.00 76.80" xmlns="http://www.w3.org/2000/svg" xmlns:xlink="http://www.w3.org/1999/xlink">
<g id="graph0" class="graph" transform="scale(1 1) rotate(0) translate(4 72.8)">
<title>ft_strtrim</title>
<!-- Node1 -->
<g id="Node000001" class="node">
<title>Node1</title>
<g id="a_Node000001"><a xlink:title="Trims characters from the start and end of a string.">
<polygon fill="#999999" stroke="#666666" points="62,-56 0,-56 0,-37 62,-37 62,-56"/>
<text text-anchor="middle" x="31" y="-44" font-family="Helvetica,sans-Serif" font-size="10.00">ft_strtrim</text>
</a>
</g>
</g>
<!-- Node2 -->
<g id="Node000002" class="node">
<title>Node2</title>
<g id="a_Node000002"><a xlink:href="ft__strlcat_8c.html#a3ab017dd491d7327d1b4acbf1398b91e" target="_top" xlink:title="Returns the length of a null&#45;terminated string.">
<polygon fill="white" stroke="#666666" points="226,-56 194,-56 194,-37 226,-37 226,-56"/>
<text text-anchor="middle" x="210" y="-44" font-family="Helvetica,sans-Serif" font-size="10.00">len</text>
</a>
</g>
</g>
<!-- Node1&#45;&gt;Node2 -->
<g id="edge1_Node000001_Node000002" class="edge">
<title>Node1&#45;&gt;Node2</title>
<g id="a_edge1_Node000001_Node000002"><a xlink:title=" ">
<path fill="none" stroke="#63b8ff" d="M58.6,-56C70.49,-59.76 84.78,-63.63 98,-65.5 124.41,-69.23 131.76,-70.23 158,-65.5 166.86,-63.9 176.19,-60.86 184.41,-57.68"/>
<polygon fill="#63b8ff" stroke="#63b8ff" points="185.88,-60.86 193.78,-53.8 183.2,-54.39 185.88,-60.86"/>
</a>
</g>
</g>
<!-- Node3 -->
<g id="Node000003" class="node">
<title>Node3</title>
<g id="a_Node000003"><a xlink:href="ft__strtrim_8c.html#ae29783e854ce412e51113eeae09415e2" target="_top" xlink:title=" ">
<polygon fill="white" stroke="#666666" points="158,-56 98,-56 98,-37 158,-37 158,-56"/>
<text text-anchor="middle" x="128" y="-44" font-family="Helvetica,sans-Serif" font-size="10.00">tft_strchr</text>
</a>
</g>
</g>
<!-- Node1&#45;&gt;Node3 -->
<g id="edge2_Node000001_Node000003" class="edge">
<title>Node1&#45;&gt;Node3</title>
<g id="a_edge2_Node000001_Node000003"><a xlink:title=" ">
<path fill="none" stroke="#63b8ff" d="M62.06,-46.5C70.17,-46.5 79.08,-46.5 87.62,-46.5"/>
<polygon fill="#63b8ff" stroke="#63b8ff" points="87.79,-50 97.79,-46.5 87.79,-43 87.79,-50"/>
</a>
</g>
</g>
<!-- Node4 -->
<g id="Node000004" class="node">
<title>Node4</title>
<g id="a_Node000004"><a xlink:href="ft__strtrim_8c.html#a71d563401eb940329d5dd4c7c3fbdd35" target="_top" xlink:title=" ">
<polygon fill="white" stroke="#666666" points="158,-19 98,-19 98,0 158,0 158,-19"/>
<text text-anchor="middle" x="128" y="-7" font-family="Helvetica,sans-Serif" font-size="10.00">tft_strlen</text>
</a>
</g>
</g>
<!-- Node1&#45;&gt;Node4 -->
<g id="edge3_Node000001_Node000004" class="edge">
<title>Node1&#45;&gt;Node4</title>
<g id="a_edge3_Node000001_Node000004"><a xlink:title=" ">
<path fill="none" stroke="#63b8ff" d="M56.46,-36.97C67.57,-32.65 80.89,-27.46 92.95,-22.76"/>
<polygon fill="#63b8ff" stroke="#63b8ff" points="94.24,-26.02 102.29,-19.12 91.7,-19.49 94.24,-26.02"/>
</a>
</g>
</g>
<!-- Node4&#45;&gt;Node2 -->
<g id="edge4_Node000004_Node000002" class="edge">
<title>Node4&#45;&gt;Node2</title>
<g id="a_edge4_Node000004_Node000002"><a xlink:title=" ">
<path fill="none" stroke="#63b8ff" d="M149.6,-19.03C160.27,-23.96 173.37,-30.02 184.55,-35.19"/>
<polygon fill="#63b8ff" stroke="#63b8ff" points="183.23,-38.44 193.77,-39.46 186.17,-32.08 183.23,-38.44"/>
</a>
</g>
</g>
</g>
</svg>
