<?xml version="1.0" encoding="UTF-8" standalone="no"?>
<!DOCTYPE svg PUBLIC "-//W3C//DTD SVG 1.1//EN"
 "http://www.w3.org/Graphics/SVG/1.1/DTD/svg11.dtd">
<!-- Generated by graphviz version 2.43.0 (0)
 -->
<!-- Title: ft_printf Pages: 1 -->
<svg width="474pt" height="248pt"
 viewBox="0.00 0.00 474.00 248.00" xmlns="http://www.w3.org/2000/svg" xmlns:xlink="http://www.w3.org/1999/xlink">
<g id="graph0" class="graph" transform="scale(1 1) rotate(0) translate(4 244)">
<title>ft_printf</title>
<!-- Node1 -->
<g id="Node000001" class="node">
<title>Node1</title>
<g id="a_Node000001"><a xlink:title="A simplified printf function that outputs formatted data to a given file descriptor.">
<polygon fill="#999999" stroke="#666666" points="55,-167 0,-167 0,-148 55,-148 55,-167"/>
<text text-anchor="middle" x="27.5" y="-155" font-family="Helvetica,sans-Serif" font-size="10.00">ft_printf</text>
</a>
</g>
</g>
<!-- Node2 -->
<g id="Node000002" class="node">
<title>Node2</title>
<g id="a_Node000002"><a xlink:href="ft__printf_8c.html#a80c1c206dcd33d07c265581878aaa300" target="_top" xlink:title="Processes a single format specifier and prints the corresponding argument.">
<polygon fill="white" stroke="#666666" points="174,-148 91,-148 91,-129 174,-129 174,-148"/>
<text text-anchor="middle" x="132.5" y="-136" font-family="Helvetica,sans-Serif" font-size="10.00">check_format</text>
</a>
</g>
</g>
<!-- Node1&#45;&gt;Node2 -->
<g id="edge1_Node000001_Node000002" class="edge">
<title>Node1&#45;&gt;Node2</title>
<g id="a_edge1_Node000001_Node000002"><a xlink:title=" ">
<path fill="none" stroke="#63b8ff" d="M55.03,-152.61C62.91,-151.15 71.82,-149.51 80.7,-147.87"/>
<polygon fill="#63b8ff" stroke="#63b8ff" points="81.47,-151.29 90.66,-146.03 80.2,-144.4 81.47,-151.29"/>
</a>
</g>
</g>
<!-- Node6 -->
<g id="Node000006" class="node">
<title>Node6</title>
<g id="a_Node000006"><a xlink:href="ft__putchar__fd_8c.html#a03ef80b25dc4a521379fa92ad97bad21" target="_top" xlink:title="Writes a single character to the specified file descriptor.">
<polygon fill="white" stroke="#666666" points="305,-240 225,-240 225,-221 305,-221 305,-240"/>
<text text-anchor="middle" x="265" y="-228" font-family="Helvetica,sans-Serif" font-size="10.00">ft_putchar_fd</text>
</a>
</g>
</g>
<!-- Node1&#45;&gt;Node6 -->
<g id="edge14_Node000001_Node000006" class="edge">
<title>Node1&#45;&gt;Node6</title>
<g id="a_edge14_Node000001_Node000006"><a xlink:title=" ">
<path fill="none" stroke="#63b8ff" d="M55.06,-165.73C96.05,-178.44 175.03,-202.92 223.27,-217.88"/>
<polygon fill="#63b8ff" stroke="#63b8ff" points="222.49,-221.3 233.08,-220.91 224.56,-214.61 222.49,-221.3"/>
</a>
</g>
</g>
<!-- Node3 -->
<g id="Node000003" class="node">
<title>Node3</title>
<g id="a_Node000003"><a xlink:href="ft__forpointer_8c.html#a8e02c77b80406af72327ebf71f537786" target="_top" xlink:title="Prints a pointer in hexadecimal format prefixed with &quot;0x&quot;.">
<polygon fill="white" stroke="#666666" points="303.5,-203 226.5,-203 226.5,-184 303.5,-184 303.5,-203"/>
<text text-anchor="middle" x="265" y="-191" font-family="Helvetica,sans-Serif" font-size="10.00">ft_forpointer</text>
</a>
</g>
</g>
<!-- Node2&#45;&gt;Node3 -->
<g id="edge2_Node000002_Node000003" class="edge">
<title>Node2&#45;&gt;Node3</title>
<g id="a_edge2_Node000002_Node000003"><a xlink:title=" ">
<path fill="none" stroke="#63b8ff" d="M151.75,-148.15C167.06,-156.05 189.64,-167.22 210,-175.5 214.4,-177.29 219.06,-179.04 223.71,-180.71"/>
<polygon fill="#63b8ff" stroke="#63b8ff" points="222.6,-184.03 233.19,-183.99 224.89,-177.41 222.6,-184.03"/>
</a>
</g>
</g>
<!-- Node5 -->
<g id="Node000005" class="node">
<title>Node5</title>
<g id="a_Node000005"><a xlink:href="ft__hexadecimal_8c.html#a39c845e0a4286d3ac1e04c1e64ac734b" target="_top" xlink:title="Prints an unsigned integer in hexadecimal format.">
<polygon fill="white" stroke="#666666" points="311,-148 219,-148 219,-129 311,-129 311,-148"/>
<text text-anchor="middle" x="265" y="-136" font-family="Helvetica,sans-Serif" font-size="10.00">ft_hexadecimal</text>
</a>
</g>
</g>
<!-- Node2&#45;&gt;Node5 -->
<g id="edge5_Node000002_Node000005" class="edge">
<title>Node2&#45;&gt;Node5</title>
<g id="a_edge5_Node000002_Node000005"><a xlink:title=" ">
<path fill="none" stroke="#63b8ff" d="M174.08,-138.5C185.07,-138.5 197.16,-138.5 208.82,-138.5"/>
<polygon fill="#63b8ff" stroke="#63b8ff" points="208.9,-142 218.9,-138.5 208.9,-135 208.9,-142"/>
</a>
</g>
</g>
<!-- Node2&#45;&gt;Node6 -->
<g id="edge7_Node000002_Node000006" class="edge">
<title>Node2&#45;&gt;Node6</title>
<g id="a_edge7_Node000002_Node000006"><a xlink:title=" ">
<path fill="none" stroke="#63b8ff" d="M140.94,-148.07C153.55,-163.69 180.61,-194.67 210,-212.5 212.66,-214.11 215.48,-215.6 218.39,-216.97"/>
<polygon fill="#63b8ff" stroke="#63b8ff" points="217.27,-220.3 227.85,-220.96 219.99,-213.85 217.27,-220.3"/>
</a>
</g>
</g>
<!-- Node7 -->
<g id="Node000007" class="node">
<title>Node7</title>
<g id="a_Node000007"><a xlink:href="ft__putnbr__fd_8c.html#a1554101ee350c316340c78e19faddaa8" target="_top" xlink:title="Writes an integer to a given file descriptor.">
<polygon fill="white" stroke="#666666" points="302.5,-93 227.5,-93 227.5,-74 302.5,-74 302.5,-93"/>
<text text-anchor="middle" x="265" y="-81" font-family="Helvetica,sans-Serif" font-size="10.00">ft_putnbr_fd</text>
</a>
</g>
</g>
<!-- Node2&#45;&gt;Node7 -->
<g id="edge8_Node000002_Node000007" class="edge">
<title>Node2&#45;&gt;Node7</title>
<g id="a_edge8_Node000002_Node000007"><a xlink:title=" ">
<path fill="none" stroke="#63b8ff" d="M156.23,-128.92C177.06,-120.14 208.13,-107.05 231.57,-97.17"/>
<polygon fill="#63b8ff" stroke="#63b8ff" points="233.24,-100.26 241.09,-93.16 230.52,-93.81 233.24,-100.26"/>
</a>
</g>
</g>
<!-- Node8 -->
<g id="Node000008" class="node">
<title>Node8</title>
<g id="a_Node000008"><a xlink:href="ft__putstr__fd_8c.html#a00b0638f31a75c7a30f77f33888bfb73" target="_top" xlink:title="Writes a null&#45;terminated string to the specified file descriptor.">
<polygon fill="white" stroke="#666666" points="301,-56 229,-56 229,-37 301,-37 301,-56"/>
<text text-anchor="middle" x="265" y="-44" font-family="Helvetica,sans-Serif" font-size="10.00">ft_putstr_fd</text>
</a>
</g>
</g>
<!-- Node2&#45;&gt;Node8 -->
<g id="edge10_Node000002_Node000008" class="edge">
<title>Node2&#45;&gt;Node8</title>
<g id="a_edge10_Node000002_Node000008"><a xlink:title=" ">
<path fill="none" stroke="#63b8ff" d="M141.42,-128.62C154.28,-113.15 181.21,-83.16 210,-65.5 213.34,-63.45 216.92,-61.59 220.61,-59.89"/>
<polygon fill="#63b8ff" stroke="#63b8ff" points="221.98,-63.11 229.87,-56.04 219.29,-56.65 221.98,-63.11"/>
</a>
</g>
</g>
<!-- Node9 -->
<g id="Node000009" class="node">
<title>Node9</title>
<g id="a_Node000009"><a xlink:href="ft__unsigned__putnbr_8c.html#af9a70f8607b40cf2a7706f9d3725b549" target="_top" xlink:title="Writes an unsigned integer to the given file descriptor.">
<polygon fill="white" stroke="#666666" points="320,-19 210,-19 210,0 320,0 320,-19"/>
<text text-anchor="middle" x="265" y="-7" font-family="Helvetica,sans-Serif" font-size="10.00">ft_unsigned_putnbr</text>
</a>
</g>
</g>
<!-- Node2&#45;&gt;Node9 -->
<g id="edge11_Node000002_Node000009" class="edge">
<title>Node2&#45;&gt;Node9</title>
<g id="a_edge11_Node000002_Node000009"><a xlink:title=" ">
<path fill="none" stroke="#63b8ff" d="M137.51,-128.93C146.94,-107.55 172.58,-55.62 210,-27.5 211.83,-26.13 213.77,-24.85 215.79,-23.67"/>
<polygon fill="#63b8ff" stroke="#63b8ff" points="217.61,-26.67 225,-19.09 214.49,-20.41 217.61,-26.67"/>
</a>
</g>
</g>
<!-- Node4 -->
<g id="Node000004" class="node">
<title>Node4</title>
<g id="a_Node000004"><a xlink:href="ft__forpointer_8c.html#aded1bf735c8a10e47396170d27c5b6aa" target="_top" xlink:title="Recursively prints a memory address in hexadecimal format.">
<polygon fill="white" stroke="#666666" points="466,-203 356,-203 356,-184 466,-184 466,-203"/>
<text text-anchor="middle" x="411" y="-191" font-family="Helvetica,sans-Serif" font-size="10.00">ft_ricorsive_pointer</text>
</a>
</g>
</g>
<!-- Node3&#45;&gt;Node4 -->
<g id="edge3_Node000003_Node000004" class="edge">
<title>Node3&#45;&gt;Node4</title>
<g id="a_edge3_Node000003_Node000004"><a xlink:title=" ">
<path fill="none" stroke="#63b8ff" d="M303.83,-193.5C316.64,-193.5 331.33,-193.5 345.61,-193.5"/>
<polygon fill="#63b8ff" stroke="#63b8ff" points="345.9,-197 355.9,-193.5 345.9,-190 345.9,-197"/>
</a>
</g>
</g>
<!-- Node4&#45;&gt;Node4 -->
<g id="edge4_Node000004_Node000004" class="edge">
<title>Node4&#45;&gt;Node4</title>
<g id="a_edge4_Node000004_Node000004"><a xlink:title=" ">
<path fill="none" stroke="#63b8ff" d="M388.5,-203.08C377.55,-211.73 385.05,-221 411,-221 427.62,-221 436.68,-217.2 438.16,-212.19"/>
<polygon fill="#63b8ff" stroke="#63b8ff" points="441.17,-210.39 433.5,-203.08 434.94,-213.58 441.17,-210.39"/>
</a>
</g>
</g>
<!-- Node5&#45;&gt;Node5 -->
<g id="edge6_Node000005_Node000005" class="edge">
<title>Node5&#45;&gt;Node5</title>
<g id="a_edge6_Node000005_Node000005"><a xlink:title=" ">
<path fill="none" stroke="#63b8ff" d="M244.65,-148.08C234.76,-156.73 241.54,-166 265,-166 280.03,-166 288.21,-162.2 289.55,-157.19"/>
<polygon fill="#63b8ff" stroke="#63b8ff" points="292.72,-155.69 285.35,-148.08 286.36,-158.63 292.72,-155.69"/>
</a>
</g>
</g>
<!-- Node7&#45;&gt;Node7 -->
<g id="edge9_Node000007_Node000007" class="edge">
<title>Node7&#45;&gt;Node7</title>
<g id="a_edge9_Node000007_Node000007"><a xlink:title=" ">
<path fill="none" stroke="#63b8ff" d="M244.65,-93.08C234.76,-101.73 241.54,-111 265,-111 280.03,-111 288.21,-107.2 289.55,-102.19"/>
<polygon fill="#63b8ff" stroke="#63b8ff" points="292.72,-100.69 285.35,-93.08 286.36,-103.63 292.72,-100.69"/>
</a>
</g>
</g>
<!-- Node10 -->
<g id="Node000010" class="node">
<title>Node10</title>
<g id="a_Node000010"><a xlink:href="ft__putnbr_8c.html#a2e51f80c9e46e52f4adf94617fb51ada" target="_top" xlink:title="Writes an integer to the standard output (stdout).">
<polygon fill="white" stroke="#666666" points="441,-19 381,-19 381,0 441,0 441,-19"/>
<text text-anchor="middle" x="411" y="-7" font-family="Helvetica,sans-Serif" font-size="10.00">ft_putnbr</text>
</a>
</g>
</g>
<!-- Node9&#45;&gt;Node10 -->
<g id="edge12_Node000009_Node000010" class="edge">
<title>Node9&#45;&gt;Node10</title>
<g id="a_edge12_Node000009_Node000010"><a xlink:title=" ">
<path fill="none" stroke="#63b8ff" d="M320.03,-9.5C336.76,-9.5 354.87,-9.5 370.43,-9.5"/>
<polygon fill="#63b8ff" stroke="#63b8ff" points="370.74,-13 380.74,-9.5 370.74,-6 370.74,-13"/>
</a>
</g>
</g>
<!-- Node10&#45;&gt;Node10 -->
<g id="edge13_Node000010_Node000010" class="edge">
<title>Node10&#45;&gt;Node10</title>
<g id="a_edge13_Node000010_Node000010"><a xlink:title=" ">
<path fill="none" stroke="#63b8ff" d="M388.5,-19.08C377.55,-27.73 385.05,-37 411,-37 427.62,-37 436.68,-33.2 438.16,-28.19"/>
<polygon fill="#63b8ff" stroke="#63b8ff" points="441.17,-26.39 433.5,-19.08 434.94,-29.58 441.17,-26.39"/>
</a>
</g>
</g>
</g>
</svg>
