<?xml version="1.0" encoding="UTF-8" standalone="no"?>
<!DOCTYPE svg PUBLIC "-//W3C//DTD SVG 1.1//EN"
 "http://www.w3.org/Graphics/SVG/1.1/DTD/svg11.dtd">
<!-- Generated by graphviz version 2.43.0 (0)
 -->
<!-- Title: get_next_line Pages: 1 -->
<svg width="392pt" height="215pt"
 viewBox="0.00 0.00 392.00 215.00" xmlns="http://www.w3.org/2000/svg" xmlns:xlink="http://www.w3.org/1999/xlink">
<g id="graph0" class="graph" transform="scale(1 1) rotate(0) translate(4 211)">
<title>get_next_line</title>
<!-- Node1 -->
<g id="Node000001" class="node">
<title>Node1</title>
<g id="a_Node000001"><a xlink:title=" ">
<polygon fill="#999999" stroke="#666666" points="83,-103 0,-103 0,-84 83,-84 83,-103"/>
<text text-anchor="middle" x="41.5" y="-91" font-family="Helvetica,sans-Serif" font-size="10.00">get_next_line</text>
</a>
</g>
</g>
<!-- Node2 -->
<g id="Node000002" class="node">
<title>Node2</title>
<g id="a_Node000002"><a xlink:href="get__next__line_8c.html#a253f107325777771467d4b92d8ad0def" target="_top" xlink:title=" ">
<polygon fill="white" stroke="#666666" points="182,-132 119,-132 119,-113 182,-113 182,-132"/>
<text text-anchor="middle" x="150.5" y="-120" font-family="Helvetica,sans-Serif" font-size="10.00">ft_getrest</text>
</a>
</g>
</g>
<!-- Node1&#45;&gt;Node2 -->
<g id="edge1_Node000001_Node000002" class="edge">
<title>Node1&#45;&gt;Node2</title>
<g id="a_edge1_Node000001_Node000002"><a xlink:title=" ">
<path fill="none" stroke="#63b8ff" d="M77.83,-103.08C87.79,-105.77 98.69,-108.73 108.92,-111.5"/>
<polygon fill="#63b8ff" stroke="#63b8ff" points="108.31,-114.96 118.87,-114.2 110.14,-108.21 108.31,-114.96"/>
</a>
</g>
</g>
<!-- Node8 -->
<g id="Node000008" class="node">
<title>Node8</title>
<g id="a_Node000008"><a xlink:href="get__next__line_8c.html#aad5cee417ca3f1d807d5b1d1c76c6987" target="_top" xlink:title=" ">
<polygon fill="white" stroke="#666666" points="181.5,-75 119.5,-75 119.5,-56 181.5,-56 181.5,-75"/>
<text text-anchor="middle" x="150.5" y="-63" font-family="Helvetica,sans-Serif" font-size="10.00">ft_putline</text>
</a>
</g>
</g>
<!-- Node1&#45;&gt;Node8 -->
<g id="edge8_Node000001_Node000008" class="edge">
<title>Node1&#45;&gt;Node8</title>
<g id="a_edge8_Node000001_Node000008"><a xlink:title=" ">
<path fill="none" stroke="#63b8ff" d="M79.02,-83.94C88.83,-81.38 99.49,-78.59 109.48,-75.97"/>
<polygon fill="#63b8ff" stroke="#63b8ff" points="110.39,-79.35 119.18,-73.43 108.62,-72.58 110.39,-79.35"/>
</a>
</g>
</g>
<!-- Node3 -->
<g id="Node000003" class="node">
<title>Node3</title>
<g id="a_Node000003"><a xlink:href="ft__strlen_8c.html#a828402378653640f545a4be2e00e92f9" target="_top" xlink:title="Calculates the length of a null&#45;terminated string.">
<polygon fill="white" stroke="#666666" points="376.5,-96 320.5,-96 320.5,-77 376.5,-77 376.5,-96"/>
<text text-anchor="middle" x="348.5" y="-84" font-family="Helvetica,sans-Serif" font-size="10.00">ft_strlen</text>
</a>
</g>
</g>
<!-- Node2&#45;&gt;Node3 -->
<g id="edge2_Node000002_Node000003" class="edge">
<title>Node2&#45;&gt;Node3</title>
<g id="a_edge2_Node000002_Node000003"><a xlink:title=" ">
<path fill="none" stroke="#63b8ff" d="M182.12,-116.88C216.77,-110.51 273.18,-100.15 310.32,-93.33"/>
<polygon fill="#63b8ff" stroke="#63b8ff" points="311.04,-96.75 320.25,-91.51 309.78,-89.87 311.04,-96.75"/>
</a>
</g>
</g>
<!-- Node4 -->
<g id="Node000004" class="node">
<title>Node4</title>
<g id="a_Node000004"><a xlink:href="ft__substr_8c.html#a78c402cbf3d55b1374693c3b7d34f71d" target="_top" xlink:title="Extracts a substring from a given string.">
<polygon fill="white" stroke="#666666" points="277,-170 218,-170 218,-151 277,-151 277,-170"/>
<text text-anchor="middle" x="247.5" y="-158" font-family="Helvetica,sans-Serif" font-size="10.00">ft_substr</text>
</a>
</g>
</g>
<!-- Node2&#45;&gt;Node4 -->
<g id="edge3_Node000002_Node000004" class="edge">
<title>Node2&#45;&gt;Node4</title>
<g id="a_edge3_Node000002_Node000004"><a xlink:title=" ">
<path fill="none" stroke="#63b8ff" d="M175.47,-132.09C186.84,-136.63 200.6,-142.14 212.98,-147.09"/>
<polygon fill="#63b8ff" stroke="#63b8ff" points="211.95,-150.45 222.54,-150.91 214.55,-143.95 211.95,-150.45"/>
</a>
</g>
</g>
<!-- Node4&#45;&gt;Node3 -->
<g id="edge6_Node000004_Node000003" class="edge">
<title>Node4&#45;&gt;Node3</title>
<g id="a_edge6_Node000004_Node000003"><a xlink:title=" ">
<path fill="none" stroke="#63b8ff" d="M259.9,-150.95C265.12,-146.56 271.39,-141.28 277,-136.5 293.08,-122.81 295.66,-117.55 313,-105.5 315.11,-104.03 317.35,-102.59 319.63,-101.19"/>
<polygon fill="#63b8ff" stroke="#63b8ff" points="321.56,-104.11 328.45,-96.07 318.05,-98.06 321.56,-104.11"/>
</a>
</g>
</g>
<!-- Node5 -->
<g id="Node000005" class="node">
<title>Node5</title>
<g id="a_Node000005"><a xlink:href="ft__strdup_8c.html#aebe73f27c70c56ac5053f860ef5436c9" target="_top" xlink:title="Duplicates a null&#45;terminated string by allocating memory.">
<polygon fill="white" stroke="#666666" points="378,-133 319,-133 319,-114 378,-114 378,-133"/>
<text text-anchor="middle" x="348.5" y="-121" font-family="Helvetica,sans-Serif" font-size="10.00">ft_strdup</text>
</a>
</g>
</g>
<!-- Node4&#45;&gt;Node5 -->
<g id="edge4_Node000004_Node000005" class="edge">
<title>Node4&#45;&gt;Node5</title>
<g id="a_edge4_Node000004_Node000005"><a xlink:title=" ">
<path fill="none" stroke="#63b8ff" d="M273.99,-150.97C285.57,-146.65 299.45,-141.46 312.02,-136.76"/>
<polygon fill="#63b8ff" stroke="#63b8ff" points="313.61,-139.9 321.75,-133.12 311.15,-133.35 313.61,-139.9"/>
</a>
</g>
</g>
<!-- Node6 -->
<g id="Node000006" class="node">
<title>Node6</title>
<g id="a_Node000006"><a xlink:href="ft__strlcpy_8c.html#aa053827b3a2ea3d0118783d6fb59d178" target="_top" xlink:title="Copies up to size &#45; 1 characters from the string src to dst, null&#45;terminating the result.">
<polygon fill="white" stroke="#666666" points="379.5,-170 317.5,-170 317.5,-151 379.5,-151 379.5,-170"/>
<text text-anchor="middle" x="348.5" y="-158" font-family="Helvetica,sans-Serif" font-size="10.00">ft_strlcpy</text>
</a>
</g>
</g>
<!-- Node4&#45;&gt;Node6 -->
<g id="edge5_Node000004_Node000006" class="edge">
<title>Node4&#45;&gt;Node6</title>
<g id="a_edge5_Node000004_Node000006"><a xlink:title=" ">
<path fill="none" stroke="#63b8ff" d="M277.13,-160.5C286.46,-160.5 296.99,-160.5 307.02,-160.5"/>
<polygon fill="#63b8ff" stroke="#63b8ff" points="307.2,-164 317.2,-160.5 307.2,-157 307.2,-164"/>
</a>
</g>
</g>
<!-- Node7 -->
<g id="Node000007" class="node">
<title>Node7</title>
<g id="a_Node000007"><a xlink:href="ft__strlcat_8c.html#a3ab017dd491d7327d1b4acbf1398b91e" target="_top" xlink:title="Returns the length of a null&#45;terminated string.">
<polygon fill="white" stroke="#666666" points="364.5,-207 332.5,-207 332.5,-188 364.5,-188 364.5,-207"/>
<text text-anchor="middle" x="348.5" y="-195" font-family="Helvetica,sans-Serif" font-size="10.00">len</text>
</a>
</g>
</g>
<!-- Node4&#45;&gt;Node7 -->
<g id="edge7_Node000004_Node000007" class="edge">
<title>Node4&#45;&gt;Node7</title>
<g id="a_edge7_Node000004_Node000007"><a xlink:title=" ">
<path fill="none" stroke="#63b8ff" d="M273.99,-170.03C288.98,-175.63 307.85,-182.68 322.71,-188.24"/>
<polygon fill="#63b8ff" stroke="#63b8ff" points="321.67,-191.58 332.27,-191.81 324.12,-185.03 321.67,-191.58"/>
</a>
</g>
</g>
<!-- Node8&#45;&gt;Node5 -->
<g id="edge10_Node000008_Node000005" class="edge">
<title>Node8&#45;&gt;Node5</title>
<g id="a_edge10_Node000008_Node000005"><a xlink:title=" ">
<path fill="none" stroke="#63b8ff" d="M181.7,-74.44C215.85,-84.54 271.57,-101.03 308.87,-112.07"/>
<polygon fill="#63b8ff" stroke="#63b8ff" points="308.28,-115.55 318.87,-115.03 310.27,-108.83 308.28,-115.55"/>
</a>
</g>
</g>
<!-- Node9 -->
<g id="Node000009" class="node">
<title>Node9</title>
<g id="a_Node000009"><a xlink:href="ft__strchr_8c.html#aa6d0c2d180f32ee585485e1a1ce3d55d" target="_top" xlink:title="Locates the first occurrence of a character in a string.">
<polygon fill="white" stroke="#666666" points="275.5,-19 219.5,-19 219.5,0 275.5,0 275.5,-19"/>
<text text-anchor="middle" x="247.5" y="-7" font-family="Helvetica,sans-Serif" font-size="10.00">ft_strchr</text>
</a>
</g>
</g>
<!-- Node8&#45;&gt;Node9 -->
<g id="edge9_Node000008_Node000009" class="edge">
<title>Node8&#45;&gt;Node9</title>
<g id="a_edge9_Node000008_Node000009"><a xlink:title=" ">
<path fill="none" stroke="#63b8ff" d="M168.05,-55.75C182.76,-47.07 204.49,-34.26 221.35,-24.32"/>
<polygon fill="#63b8ff" stroke="#63b8ff" points="223.3,-27.24 230.14,-19.14 219.75,-21.21 223.3,-27.24"/>
</a>
</g>
</g>
<!-- Node10 -->
<g id="Node000010" class="node">
<title>Node10</title>
<g id="a_Node000010"><a xlink:href="ft__strjoin_8c.html#a91e6e3e428bcc9f2291b700e1829b82b" target="_top" xlink:title="Concatenates two strings into a newly allocated string.">
<polygon fill="white" stroke="#666666" points="277,-56 218,-56 218,-37 277,-37 277,-56"/>
<text text-anchor="middle" x="247.5" y="-44" font-family="Helvetica,sans-Serif" font-size="10.00">ft_strjoin</text>
</a>
</g>
</g>
<!-- Node8&#45;&gt;Node10 -->
<g id="edge11_Node000008_Node000010" class="edge">
<title>Node8&#45;&gt;Node10</title>
<g id="a_edge11_Node000008_Node000010"><a xlink:title=" ">
<path fill="none" stroke="#63b8ff" d="M181.56,-59.49C189.92,-57.82 199.12,-55.98 207.9,-54.22"/>
<polygon fill="#63b8ff" stroke="#63b8ff" points="208.81,-57.61 217.93,-52.21 207.44,-50.74 208.81,-57.61"/>
</a>
</g>
</g>
<!-- Node10&#45;&gt;Node3 -->
<g id="edge13_Node000010_Node000003" class="edge">
<title>Node10&#45;&gt;Node3</title>
<g id="a_edge13_Node000010_Node000003"><a xlink:title=" ">
<path fill="none" stroke="#63b8ff" d="M272.21,-56.08C284.83,-61.18 300.54,-67.52 314.34,-73.1"/>
<polygon fill="#63b8ff" stroke="#63b8ff" points="313.4,-76.5 323.98,-77 316.02,-70.01 313.4,-76.5"/>
</a>
</g>
</g>
<!-- Node11 -->
<g id="Node000011" class="node">
<title>Node11</title>
<g id="a_Node000011"><a xlink:href="ft__memcpy_8c.html#a41a6f05af30cf85ff63a08e383826322" target="_top" xlink:title="Copies &#39;n&#39; bytes from memory area &#39;src&#39; to memory area &#39;dest&#39;.">
<polygon fill="white" stroke="#666666" points="384,-56 313,-56 313,-37 384,-37 384,-56"/>
<text text-anchor="middle" x="348.5" y="-44" font-family="Helvetica,sans-Serif" font-size="10.00">ft_memcpy</text>
</a>
</g>
</g>
<!-- Node10&#45;&gt;Node11 -->
<g id="edge12_Node000010_Node000011" class="edge">
<title>Node10&#45;&gt;Node11</title>
<g id="a_edge12_Node000010_Node000011"><a xlink:title=" ">
<path fill="none" stroke="#63b8ff" d="M277.13,-46.5C285.18,-46.5 294.12,-46.5 302.87,-46.5"/>
<polygon fill="#63b8ff" stroke="#63b8ff" points="302.97,-50 312.97,-46.5 302.97,-43 302.97,-50"/>
</a>
</g>
</g>
</g>
</svg>
