<?xml version="1.0" encoding="UTF-8" standalone="no"?>
<!DOCTYPE svg PUBLIC "-//W3C//DTD SVG 1.1//EN"
 "http://www.w3.org/Graphics/SVG/1.1/DTD/svg11.dtd">
<!-- Generated by graphviz version 2.43.0 (0)
 -->
<!-- Title: ft_isalpha Pages: 1 -->
<svg width="1503pt" height="65pt"
 viewBox="0.00 0.00 1503.00 65.00" xmlns="http://www.w3.org/2000/svg" xmlns:xlink="http://www.w3.org/1999/xlink">
<g id="graph0" class="graph" transform="scale(1 1) rotate(0) translate(4 61)">
<title>ft_isalpha</title>
<!-- Node1 -->
<g id="Node000001" class="node">
<title>Node1</title>
<g id="a_Node000001"><a xlink:title="Checks whether a character is an alphabetic letter.">
<polygon fill="#999999" stroke="#666666" points="1495,-37 1431,-37 1431,-18 1495,-18 1495,-37"/>
<text text-anchor="middle" x="1463" y="-25" font-family="Helvetica,sans-Serif" font-size="10.00">ft_isalpha</text>
</a>
</g>
</g>
<!-- Node2 -->
<g id="Node000002" class="node">
<title>Node2</title>
<g id="a_Node000002"><a xlink:href="utils__export__unset_8c.html#a054fceec4fb7c4bdd5f9d5d958d1b535" target="_top" xlink:title="Checks if a string is a valid identifier for environment variables.">
<polygon fill="white" stroke="#666666" points="1393,-56 1290,-56 1290,-37 1393,-37 1393,-56"/>
<text text-anchor="middle" x="1341.5" y="-44" font-family="Helvetica,sans-Serif" font-size="10.00">is_valid_identifier</text>
</a>
</g>
</g>
<!-- Node1&#45;&gt;Node2 -->
<g id="edge1_Node000001_Node000002" class="edge">
<title>Node1&#45;&gt;Node2</title>
<g id="a_edge1_Node000001_Node000002"><a xlink:title=" ">
<path fill="none" stroke="#63b8ff" d="M1420.84,-34.04C1411.98,-35.45 1402.51,-36.96 1393.33,-38.42"/>
<polygon fill="#63b8ff" stroke="#63b8ff" points="1421.59,-37.47 1430.91,-32.44 1420.49,-30.56 1421.59,-37.47"/>
</a>
</g>
</g>
<!-- Node15 -->
<g id="Node000015" class="node">
<title>Node15</title>
<g id="a_Node000015"><a xlink:href="utils__export__unset_8c.html#ad79b1c3a9dc66c11e0066ba43dcb0eb2" target="_top" xlink:title="Checks if the argument passed to unset is valid.">
<polygon fill="white" stroke="#666666" points="1395,-19 1288,-19 1288,0 1395,0 1395,-19"/>
<text text-anchor="middle" x="1341.5" y="-7" font-family="Helvetica,sans-Serif" font-size="10.00">is_valid_unset_arg</text>
</a>
</g>
</g>
<!-- Node1&#45;&gt;Node15 -->
<g id="edge15_Node000001_Node000015" class="edge">
<title>Node1&#45;&gt;Node15</title>
<g id="a_edge15_Node000001_Node000015"><a xlink:title=" ">
<path fill="none" stroke="#63b8ff" d="M1420.79,-21.29C1412.54,-20.05 1403.76,-18.73 1395.18,-17.44"/>
<polygon fill="#63b8ff" stroke="#63b8ff" points="1420.5,-24.79 1430.91,-22.82 1421.55,-17.87 1420.5,-24.79"/>
</a>
</g>
</g>
<!-- Node3 -->
<g id="Node000003" class="node">
<title>Node3</title>
<g id="a_Node000003"><a xlink:href="export_8c.html#aa1462300aee0c9091833b58ece6c6506" target="_top" xlink:title="Executes export on a single argument.">
<polygon fill="white" stroke="#666666" points="1252,-56 1169,-56 1169,-37 1252,-37 1252,-56"/>
<text text-anchor="middle" x="1210.5" y="-44" font-family="Helvetica,sans-Serif" font-size="10.00">ft_exe_export</text>
</a>
</g>
</g>
<!-- Node2&#45;&gt;Node3 -->
<g id="edge2_Node000002_Node000003" class="edge">
<title>Node2&#45;&gt;Node3</title>
<g id="a_edge2_Node000002_Node000003"><a xlink:title=" ">
<path fill="none" stroke="#63b8ff" d="M1279.76,-46.5C1270.35,-46.5 1260.83,-46.5 1252.01,-46.5"/>
<polygon fill="#63b8ff" stroke="#63b8ff" points="1279.89,-50 1289.89,-46.5 1279.89,-43 1279.89,-50"/>
</a>
</g>
</g>
<!-- Node4 -->
<g id="Node000004" class="node">
<title>Node4</title>
<g id="a_Node000004"><a xlink:href="export_8c.html#a962491ce27455342a86cefa998c352fd" target="_top" xlink:title="Handles the export command with arguments.">
<polygon fill="white" stroke="#666666" points="1133,-57 1020,-57 1020,-38 1133,-38 1133,-57"/>
<text text-anchor="middle" x="1076.5" y="-45" font-family="Helvetica,sans-Serif" font-size="10.00">ft_export_with_args</text>
</a>
</g>
</g>
<!-- Node3&#45;&gt;Node4 -->
<g id="edge3_Node000003_Node000004" class="edge">
<title>Node3&#45;&gt;Node4</title>
<g id="a_edge3_Node000003_Node000004"><a xlink:title=" ">
<path fill="none" stroke="#63b8ff" d="M1158.57,-46.89C1150.31,-46.95 1141.71,-47.01 1133.34,-47.08"/>
<polygon fill="#63b8ff" stroke="#63b8ff" points="1158.85,-50.38 1168.82,-46.81 1158.79,-43.38 1158.85,-50.38"/>
</a>
</g>
</g>
<!-- Node5 -->
<g id="Node000005" class="node">
<title>Node5</title>
<g id="a_Node000005"><a xlink:href="export_8c.html#a2b0f2ba2e9188c7b4f6ca5a44c1d0c8e" target="_top" xlink:title="Builtin function for the export command.">
<polygon fill="white" stroke="#666666" points="984,-56 924,-56 924,-37 984,-37 984,-56"/>
<text text-anchor="middle" x="954" y="-44" font-family="Helvetica,sans-Serif" font-size="10.00">ft_export</text>
</a>
</g>
</g>
<!-- Node4&#45;&gt;Node5 -->
<g id="edge4_Node000004_Node000005" class="edge">
<title>Node4&#45;&gt;Node5</title>
<g id="a_edge4_Node000004_Node000005"><a xlink:title=" ">
<path fill="none" stroke="#63b8ff" d="M1009.7,-46.95C1000.75,-46.88 991.97,-46.81 984.15,-46.74"/>
<polygon fill="#63b8ff" stroke="#63b8ff" points="1009.81,-50.45 1019.84,-47.04 1009.86,-43.46 1009.81,-50.45"/>
</a>
</g>
</g>
<!-- Node6 -->
<g id="Node000006" class="node">
<title>Node6</title>
<g id="a_Node000006"><a xlink:href="cmd__execution_8c.html#a5ce7231f800cbacea6350cc1a32a59bd" target="_top" xlink:title="Executes a list of non&#45;pipelined commands.">
<polygon fill="white" stroke="#666666" points="875,-56 803,-56 803,-37 875,-37 875,-56"/>
<text text-anchor="middle" x="839" y="-44" font-family="Helvetica,sans-Serif" font-size="10.00">ft_exe_cmd</text>
</a>
</g>
</g>
<!-- Node5&#45;&gt;Node6 -->
<g id="edge5_Node000005_Node000006" class="edge">
<title>Node5&#45;&gt;Node6</title>
<g id="a_edge5_Node000005_Node000006"><a xlink:title=" ">
<path fill="none" stroke="#63b8ff" d="M913.7,-46.5C901.12,-46.5 887.29,-46.5 875.04,-46.5"/>
<polygon fill="#63b8ff" stroke="#63b8ff" points="913.9,-50 923.9,-46.5 913.9,-43 913.9,-50"/>
</a>
</g>
</g>
<!-- Node10 -->
<g id="Node000010" class="node">
<title>Node10</title>
<g id="a_Node000010"><a xlink:href="cmd__execution_8c.html#a50e59fa2e4621831a415d4038f697c56" target="_top" xlink:title="Executes a command within a pipeline.">
<polygon fill="white" stroke="#666666" points="888,-19 790,-19 790,0 888,0 888,-19"/>
<text text-anchor="middle" x="839" y="-7" font-family="Helvetica,sans-Serif" font-size="10.00">ft_exe_pipe_cmd</text>
</a>
</g>
</g>
<!-- Node5&#45;&gt;Node10 -->
<g id="edge9_Node000005_Node000010" class="edge">
<title>Node5&#45;&gt;Node10</title>
<g id="a_edge9_Node000005_Node000010"><a xlink:title=" ">
<path fill="none" stroke="#63b8ff" d="M914.09,-33.76C899.44,-28.96 883.04,-23.59 869.39,-19.12"/>
<polygon fill="#63b8ff" stroke="#63b8ff" points="913.31,-37.19 923.9,-36.97 915.49,-30.53 913.31,-37.19"/>
</a>
</g>
</g>
<!-- Node7 -->
<g id="Node000007" class="node">
<title>Node7</title>
<g id="a_Node000007"><a xlink:href="main__utils_8c.html#a7e8f478480ab6ab34d6f5eadaf6acdb9" target="_top" xlink:title="Handles parsing and execution of tokens.">
<polygon fill="white" stroke="#666666" points="273,-38 192,-38 192,-19 273,-19 273,-38"/>
<text text-anchor="middle" x="232.5" y="-26" font-family="Helvetica,sans-Serif" font-size="10.00">ft_token_flow</text>
</a>
</g>
</g>
<!-- Node6&#45;&gt;Node7 -->
<g id="edge6_Node000006_Node000007" class="edge">
<title>Node6&#45;&gt;Node7</title>
<g id="a_edge6_Node000006_Node000007"><a xlink:title=" ">
<path fill="none" stroke="#63b8ff" d="M792.83,-46.78C741.77,-47.08 656.16,-47.5 582.5,-47.5 582.5,-47.5 582.5,-47.5 459.5,-47.5 393.94,-47.5 318.06,-39.46 273.02,-33.84"/>
<polygon fill="#63b8ff" stroke="#63b8ff" points="792.89,-50.28 802.87,-46.72 792.85,-43.28 792.89,-50.28"/>
</a>
</g>
</g>
<!-- Node8 -->
<g id="Node000008" class="node">
<title>Node8</title>
<g id="a_Node000008"><a xlink:href="main__utils_8c.html#ae35edfb8f1339d6f77f53c28eb2a2ed6" target="_top" xlink:title="Handles a complete cycle of input → parsing → execution.">
<polygon fill="white" stroke="#666666" points="156,-38 77,-38 77,-19 156,-19 156,-38"/>
<text text-anchor="middle" x="116.5" y="-26" font-family="Helvetica,sans-Serif" font-size="10.00">ft_main_flow</text>
</a>
</g>
</g>
<!-- Node7&#45;&gt;Node8 -->
<g id="edge7_Node000007_Node000008" class="edge">
<title>Node7&#45;&gt;Node8</title>
<g id="a_edge7_Node000007_Node000008"><a xlink:title=" ">
<path fill="none" stroke="#63b8ff" d="M181.7,-28.5C173.16,-28.5 164.4,-28.5 156.21,-28.5"/>
<polygon fill="#63b8ff" stroke="#63b8ff" points="181.95,-32 191.95,-28.5 181.95,-25 181.95,-32"/>
</a>
</g>
</g>
<!-- Node9 -->
<g id="Node000009" class="node">
<title>Node9</title>
<g id="a_Node000009"><a xlink:href="main_8c.html#ab3862b46d6a8d13c2d884a297e6b05b5" target="_top" xlink:title="Main function of the minishell.">
<polygon fill="white" stroke="#666666" points="41,-38 0,-38 0,-19 41,-19 41,-38"/>
<text text-anchor="middle" x="20.5" y="-26" font-family="Helvetica,sans-Serif" font-size="10.00">main</text>
</a>
</g>
</g>
<!-- Node8&#45;&gt;Node9 -->
<g id="edge8_Node000008_Node000009" class="edge">
<title>Node8&#45;&gt;Node9</title>
<g id="a_edge8_Node000008_Node000009"><a xlink:title=" ">
<path fill="none" stroke="#63b8ff" d="M66.74,-28.5C57.62,-28.5 48.59,-28.5 41.03,-28.5"/>
<polygon fill="#63b8ff" stroke="#63b8ff" points="67,-32 77,-28.5 67,-25 67,-32"/>
</a>
</g>
</g>
<!-- Node11 -->
<g id="Node000011" class="node">
<title>Node11</title>
<g id="a_Node000011"><a xlink:href="pipes_8c.html#a36a2d91a0566ad253efe3833b05e69d1" target="_top" xlink:title="Routine executed by the child process for each command in the pipe.">
<polygon fill="white" stroke="#666666" points="754,-19 662,-19 662,0 754,0 754,-19"/>
<text text-anchor="middle" x="708" y="-7" font-family="Helvetica,sans-Serif" font-size="10.00">ft_child_routine</text>
</a>
</g>
</g>
<!-- Node10&#45;&gt;Node11 -->
<g id="edge10_Node000010_Node000011" class="edge">
<title>Node10&#45;&gt;Node11</title>
<g id="a_edge10_Node000010_Node000011"><a xlink:title=" ">
<path fill="none" stroke="#63b8ff" d="M779.91,-9.5C771.24,-9.5 762.42,-9.5 754.08,-9.5"/>
<polygon fill="#63b8ff" stroke="#63b8ff" points="779.97,-13 789.97,-9.5 779.97,-6 779.97,-13"/>
</a>
</g>
</g>
<!-- Node12 -->
<g id="Node000012" class="node">
<title>Node12</title>
<g id="a_Node000012"><a xlink:href="pipes_8c.html#aa17e847997e7266a0a111ab3572756bb" target="_top" xlink:title="Manages pipe creation and fork to execute the current command.">
<polygon fill="white" stroke="#666666" points="626,-19 537,-19 537,0 626,0 626,-19"/>
<text text-anchor="middle" x="581.5" y="-7" font-family="Helvetica,sans-Serif" font-size="10.00">ft_pipe_routine</text>
</a>
</g>
</g>
<!-- Node11&#45;&gt;Node12 -->
<g id="edge11_Node000011_Node000012" class="edge">
<title>Node11&#45;&gt;Node12</title>
<g id="a_edge11_Node000011_Node000012"><a xlink:title=" ">
<path fill="none" stroke="#63b8ff" d="M651.52,-9.5C643.08,-9.5 634.46,-9.5 626.31,-9.5"/>
<polygon fill="#63b8ff" stroke="#63b8ff" points="651.7,-13 661.7,-9.5 651.7,-6 651.7,-13"/>
</a>
</g>
</g>
<!-- Node13 -->
<g id="Node000013" class="node">
<title>Node13</title>
<g id="a_Node000013"><a xlink:href="pipes_8c.html#a7a3b0de1a88a243da741f748881e14f0" target="_top" xlink:title="Executes a list of commands connected via pipes.">
<polygon fill="white" stroke="#666666" points="501,-19 420,-19 420,0 501,0 501,-19"/>
<text text-anchor="middle" x="460.5" y="-7" font-family="Helvetica,sans-Serif" font-size="10.00">execute_pipe</text>
</a>
</g>
</g>
<!-- Node12&#45;&gt;Node13 -->
<g id="edge12_Node000012_Node000013" class="edge">
<title>Node12&#45;&gt;Node13</title>
<g id="a_edge12_Node000012_Node000013"><a xlink:title=" ">
<path fill="none" stroke="#63b8ff" d="M526.85,-9.5C518.22,-9.5 509.42,-9.5 501.19,-9.5"/>
<polygon fill="#63b8ff" stroke="#63b8ff" points="526.86,-13 536.86,-9.5 526.86,-6 526.86,-13"/>
</a>
</g>
</g>
<!-- Node14 -->
<g id="Node000014" class="node">
<title>Node14</title>
<g id="a_Node000014"><a xlink:href="main__utils_8c.html#ad0183732909ae6e7c52e7b086c2e5642" target="_top" xlink:title="Manages the execution flow of commands with pipes.">
<polygon fill="white" stroke="#666666" points="384,-19 309,-19 309,0 384,0 384,-19"/>
<text text-anchor="middle" x="346.5" y="-7" font-family="Helvetica,sans-Serif" font-size="10.00">ft_pipe_flow</text>
</a>
</g>
</g>
<!-- Node13&#45;&gt;Node14 -->
<g id="edge13_Node000013_Node000014" class="edge">
<title>Node13&#45;&gt;Node14</title>
<g id="a_edge13_Node000013_Node000014"><a xlink:title=" ">
<path fill="none" stroke="#63b8ff" d="M409.47,-9.5C400.96,-9.5 392.26,-9.5 384.18,-9.5"/>
<polygon fill="#63b8ff" stroke="#63b8ff" points="409.7,-13 419.7,-9.5 409.7,-6 409.7,-13"/>
</a>
</g>
</g>
<!-- Node14&#45;&gt;Node7 -->
<g id="edge14_Node000014_Node000007" class="edge">
<title>Node14&#45;&gt;Node7</title>
<g id="a_edge14_Node000014_Node000007"><a xlink:title=" ">
<path fill="none" stroke="#63b8ff" d="M298.73,-17.43C290.29,-18.87 281.57,-20.35 273.35,-21.74"/>
<polygon fill="#63b8ff" stroke="#63b8ff" points="299.55,-20.84 308.83,-15.72 298.38,-13.94 299.55,-20.84"/>
</a>
</g>
</g>
<!-- Node16 -->
<g id="Node000016" class="node">
<title>Node16</title>
<g id="a_Node000016"><a xlink:href="unset_8c.html#aabf1b9c17103a2c429513f9b4c84bccd" target="_top" xlink:title="Executes the unset operation on a single argument.">
<polygon fill="white" stroke="#666666" points="1243.5,-19 1177.5,-19 1177.5,0 1243.5,0 1243.5,-19"/>
<text text-anchor="middle" x="1210.5" y="-7" font-family="Helvetica,sans-Serif" font-size="10.00">exe_unset</text>
</a>
</g>
</g>
<!-- Node15&#45;&gt;Node16 -->
<g id="edge16_Node000015_Node000016" class="edge">
<title>Node15&#45;&gt;Node16</title>
<g id="a_edge16_Node000015_Node000016"><a xlink:title=" ">
<path fill="none" stroke="#63b8ff" d="M1277.44,-9.5C1265.76,-9.5 1254.01,-9.5 1243.73,-9.5"/>
<polygon fill="#63b8ff" stroke="#63b8ff" points="1277.66,-13 1287.66,-9.5 1277.66,-6 1277.66,-13"/>
</a>
</g>
</g>
<!-- Node17 -->
<g id="Node000017" class="node">
<title>Node17</title>
<g id="a_Node000017"><a xlink:href="unset_8c.html#afc37f76bba8f618bcf9eaafa7ee23618" target="_top" xlink:title="Builtin function for the unset command.">
<polygon fill="white" stroke="#666666" points="982,-19 926,-19 926,0 982,0 982,-19"/>
<text text-anchor="middle" x="954" y="-7" font-family="Helvetica,sans-Serif" font-size="10.00">ft_unset</text>
</a>
</g>
</g>
<!-- Node16&#45;&gt;Node17 -->
<g id="edge17_Node000016_Node000017" class="edge">
<title>Node16&#45;&gt;Node17</title>
<g id="a_edge17_Node000016_Node000017"><a xlink:title=" ">
<path fill="none" stroke="#63b8ff" d="M1167.27,-9.5C1114.77,-9.5 1026.7,-9.5 982.32,-9.5"/>
<polygon fill="#63b8ff" stroke="#63b8ff" points="1167.27,-13 1177.27,-9.5 1167.27,-6 1167.27,-13"/>
</a>
</g>
</g>
<!-- Node17&#45;&gt;Node6 -->
<g id="edge18_Node000017_Node000006" class="edge">
<title>Node17&#45;&gt;Node6</title>
<g id="a_edge18_Node000017_Node000006"><a xlink:title=" ">
<path fill="none" stroke="#63b8ff" d="M916.28,-21.52C901.03,-26.52 883.58,-32.23 869.22,-36.93"/>
<polygon fill="#63b8ff" stroke="#63b8ff" points="917.52,-24.8 925.93,-18.36 915.34,-18.15 917.52,-24.8"/>
</a>
</g>
</g>
<!-- Node17&#45;&gt;Node10 -->
<g id="edge19_Node000017_Node000010" class="edge">
<title>Node17&#45;&gt;Node10</title>
<g id="a_edge19_Node000017_Node000010"><a xlink:title=" ">
<path fill="none" stroke="#63b8ff" d="M915.89,-9.5C906.99,-9.5 897.36,-9.5 888.05,-9.5"/>
<polygon fill="#63b8ff" stroke="#63b8ff" points="915.93,-13 925.93,-9.5 915.93,-6 915.93,-13"/>
</a>
</g>
</g>
</g>
</svg>
