<?xml version="1.0" encoding="UTF-8" standalone="no"?>
<!DOCTYPE svg PUBLIC "-//W3C//DTD SVG 1.1//EN"
 "http://www.w3.org/Graphics/SVG/1.1/DTD/svg11.dtd">
<!-- Generated by graphviz version 2.43.0 (0)
 -->
<!-- Title: ft_strjoin Pages: 1 -->
<svg width="1804pt" height="365pt"
 viewBox="0.00 0.00 1804.00 365.00" xmlns="http://www.w3.org/2000/svg" xmlns:xlink="http://www.w3.org/1999/xlink">
<g id="graph0" class="graph" transform="scale(1 1) rotate(0) translate(4 361)">
<title>ft_strjoin</title>
<!-- Node1 -->
<g id="Node000001" class="node">
<title>Node1</title>
<g id="a_Node000001"><a xlink:title="Concatenates two strings into a newly allocated string.">
<polygon fill="#999999" stroke="#666666" points="1796,-151 1737,-151 1737,-132 1796,-132 1796,-151"/>
<text text-anchor="middle" x="1766.5" y="-139" font-family="Helvetica,sans-Serif" font-size="10.00">ft_strjoin</text>
</a>
</g>
</g>
<!-- Node2 -->
<g id="Node000002" class="node">
<title>Node2</title>
<g id="a_Node000002"><a xlink:href="handle__heredoc_8c.html#ac5ba13b1edbd22e4a7e0a50fc91f80db" target="_top" xlink:title="Executes a single read&#45;write cycle of the here&#45;document.">
<polygon fill="white" stroke="#666666" points="1213,-170 1123,-170 1123,-151 1213,-151 1213,-170"/>
<text text-anchor="middle" x="1168" y="-158" font-family="Helvetica,sans-Serif" font-size="10.00">ft_exe_heredoc</text>
</a>
</g>
</g>
<!-- Node1&#45;&gt;Node2 -->
<g id="edge1_Node000001_Node000002" class="edge">
<title>Node1&#45;&gt;Node2</title>
<g id="a_edge1_Node000001_Node000002"><a xlink:title=" ">
<path fill="none" stroke="#63b8ff" d="M1745.15,-157.32C1733.05,-165.7 1716.99,-175.14 1701,-179.5 1508.9,-231.88 1450.88,-201.6 1253,-179.5 1236.36,-177.64 1218.2,-173.77 1203.04,-170.01"/>
<polygon fill="#63b8ff" stroke="#63b8ff" points="1747.52,-159.92 1753.56,-151.22 1743.41,-154.25 1747.52,-159.92"/>
</a>
</g>
</g>
<!-- Node12 -->
<g id="Node000012" class="node">
<title>Node12</title>
<g id="a_Node000012"><a xlink:href="utils__env_8c.html#a4ea711c91d64ff7669bf6ac7e6b6b9dd" target="_top" xlink:title="Expands an environment variable found in a string.">
<polygon fill="white" stroke="#666666" points="1679,-170 1614,-170 1614,-151 1679,-151 1679,-170"/>
<text text-anchor="middle" x="1646.5" y="-158" font-family="Helvetica,sans-Serif" font-size="10.00">ft_expand</text>
</a>
</g>
</g>
<!-- Node1&#45;&gt;Node12 -->
<g id="edge11_Node000001_Node000012" class="edge">
<title>Node1&#45;&gt;Node12</title>
<g id="a_edge11_Node000001_Node000012"><a xlink:title=" ">
<path fill="none" stroke="#63b8ff" d="M1726.66,-147.75C1711.24,-150.24 1693.74,-153.05 1679.12,-155.41"/>
<polygon fill="#63b8ff" stroke="#63b8ff" points="1727.62,-151.14 1736.94,-146.1 1726.51,-144.23 1727.62,-151.14"/>
</a>
</g>
</g>
<!-- Node17 -->
<g id="Node000017" class="node">
<title>Node17</title>
<g id="a_Node000017"><a xlink:href="for__merge__echo_8c.html#a1e7a6d749fc26b1a0848360c666ea945" target="_top" xlink:title="Merges two tokens by concatenating their values.">
<polygon fill="white" stroke="#666666" points="1701,-58 1592,-58 1592,-39 1701,-39 1701,-58"/>
<text text-anchor="middle" x="1646.5" y="-46" font-family="Helvetica,sans-Serif" font-size="10.00">ft_merge_n_tokens</text>
</a>
</g>
</g>
<!-- Node1&#45;&gt;Node17 -->
<g id="edge19_Node000001_Node000017" class="edge">
<title>Node1&#45;&gt;Node17</title>
<g id="a_edge19_Node000001_Node000017"><a xlink:title=" ">
<path fill="none" stroke="#63b8ff" d="M1753.93,-123.59C1742.35,-106.96 1723.11,-82.55 1701,-67.5 1695.46,-63.73 1689.09,-60.62 1682.72,-58.09"/>
<polygon fill="#63b8ff" stroke="#63b8ff" points="1751.06,-125.59 1759.55,-131.93 1756.86,-121.68 1751.06,-125.59"/>
</a>
</g>
</g>
<!-- Node22 -->
<g id="Node000022" class="node">
<title>Node22</title>
<g id="a_Node000022"><a xlink:href="utils__env_8c.html#a3323d2c2586349772b23a3eaf1a241c3" target="_top" xlink:title="Concatenates a literal part (non&#45;variable) of the string to the result.">
<polygon fill="white" stroke="#666666" points="1685.5,-133 1607.5,-133 1607.5,-114 1685.5,-114 1685.5,-133"/>
<text text-anchor="middle" x="1646.5" y="-121" font-family="Helvetica,sans-Serif" font-size="10.00">ft_merge_str</text>
</a>
</g>
</g>
<!-- Node1&#45;&gt;Node22 -->
<g id="edge25_Node000001_Node000022" class="edge">
<title>Node1&#45;&gt;Node22</title>
<g id="a_edge25_Node000001_Node000022"><a xlink:title=" ">
<path fill="none" stroke="#63b8ff" d="M1726.73,-135.59C1713.52,-133.57 1698.77,-131.32 1685.61,-129.31"/>
<polygon fill="#63b8ff" stroke="#63b8ff" points="1726.52,-139.09 1736.94,-137.14 1727.58,-132.17 1726.52,-139.09"/>
</a>
</g>
</g>
<!-- Node23 -->
<g id="Node000023" class="node">
<title>Node23</title>
<g id="a_Node000023"><a xlink:href="for__merge__export_8c.html#a8badee2557e8867921cbb0dc2873317b" target="_top" xlink:title="Merges the current token&#39;s value with the next token&#39;s value.">
<polygon fill="white" stroke="#666666" points="1678.5,-21 1614.5,-21 1614.5,-2 1678.5,-2 1678.5,-21"/>
<text text-anchor="middle" x="1646.5" y="-9" font-family="Helvetica,sans-Serif" font-size="10.00">ft_merger</text>
</a>
</g>
</g>
<!-- Node1&#45;&gt;Node23 -->
<g id="edge27_Node000001_Node000023" class="edge">
<title>Node1&#45;&gt;Node23</title>
<g id="a_edge27_Node000001_Node000023"><a xlink:title=" ">
<path fill="none" stroke="#63b8ff" d="M1759.22,-122.1C1750.19,-97.2 1731.24,-54.28 1701,-29.5 1694.56,-24.22 1686.49,-20.46 1678.6,-17.8"/>
<polygon fill="#63b8ff" stroke="#63b8ff" points="1756.01,-123.53 1762.57,-131.85 1762.63,-121.25 1756.01,-123.53"/>
</a>
</g>
</g>
<!-- Node26 -->
<g id="Node000026" class="node">
<title>Node26</title>
<g id="a_Node000026"><a xlink:href="get__next__line_8c.html#aad5cee417ca3f1d807d5b1d1c76c6987" target="_top" xlink:title=" ">
<polygon fill="white" stroke="#666666" points="1677.5,-96 1615.5,-96 1615.5,-77 1677.5,-77 1677.5,-96"/>
<text text-anchor="middle" x="1646.5" y="-84" font-family="Helvetica,sans-Serif" font-size="10.00">ft_putline</text>
</a>
</g>
</g>
<!-- Node1&#45;&gt;Node26 -->
<g id="edge31_Node000001_Node000026" class="edge">
<title>Node1&#45;&gt;Node26</title>
<g id="a_edge31_Node000001_Node000026"><a xlink:title=" ">
<path fill="none" stroke="#63b8ff" d="M1741.13,-126.62C1729.26,-119.71 1714.64,-111.68 1701,-105.5 1693.46,-102.08 1685.1,-98.87 1677.29,-96.08"/>
<polygon fill="#63b8ff" stroke="#63b8ff" points="1739.59,-129.78 1749.98,-131.86 1743.16,-123.76 1739.59,-129.78"/>
</a>
</g>
</g>
<!-- Node28 -->
<g id="Node000028" class="node">
<title>Node28</title>
<g id="a_Node000028"><a xlink:href="ft__cd_8c.html#a1e12354e1572c211f19189669c16b7b7" target="_top" xlink:title="Sets or updates an environment variable.">
<polygon fill="white" stroke="#666666" points="1677.5,-301 1615.5,-301 1615.5,-282 1677.5,-282 1677.5,-301"/>
<text text-anchor="middle" x="1646.5" y="-289" font-family="Helvetica,sans-Serif" font-size="10.00">ft_setenv</text>
</a>
</g>
</g>
<!-- Node1&#45;&gt;Node28 -->
<g id="edge34_Node000001_Node000028" class="edge">
<title>Node1&#45;&gt;Node28</title>
<g id="a_edge34_Node000001_Node000028"><a xlink:title=" ">
<path fill="none" stroke="#63b8ff" d="M1757.89,-160.79C1747.66,-184.97 1727.64,-226.71 1701,-255.5 1690.96,-266.35 1677.05,-275.58 1665.93,-281.98"/>
<polygon fill="#63b8ff" stroke="#63b8ff" points="1761.22,-161.89 1761.78,-151.31 1754.74,-159.24 1761.22,-161.89"/>
</a>
</g>
</g>
<!-- Node37 -->
<g id="Node000037" class="node">
<title>Node37</title>
<g id="a_Node000037"><a xlink:href="ft__strjoin__three_8c.html#a516b013da6ff6065d18005f321670a5b" target="_top" xlink:title="Concatenates three strings into a newly allocated string.">
<polygon fill="white" stroke="#666666" points="1691.5,-246 1601.5,-246 1601.5,-227 1691.5,-227 1691.5,-246"/>
<text text-anchor="middle" x="1646.5" y="-234" font-family="Helvetica,sans-Serif" font-size="10.00">ft_strjoin_three</text>
</a>
</g>
</g>
<!-- Node1&#45;&gt;Node37 -->
<g id="edge45_Node000001_Node000037" class="edge">
<title>Node1&#45;&gt;Node37</title>
<g id="a_edge45_Node000001_Node000037"><a xlink:title=" ">
<path fill="none" stroke="#63b8ff" d="M1752.39,-159.73C1740.42,-175.35 1721.51,-197.62 1701,-212.5 1693.01,-218.3 1683.39,-223.15 1674.53,-226.94"/>
<polygon fill="#63b8ff" stroke="#63b8ff" points="1755.43,-161.52 1758.6,-151.41 1749.81,-157.33 1755.43,-161.52"/>
</a>
</g>
</g>
<!-- Node3 -->
<g id="Node000003" class="node">
<title>Node3</title>
<g id="a_Node000003"><a xlink:href="handle__heredoc_8c.html#a922eae1c49290306f7cf811bf65d9ed1" target="_top" xlink:title="Handles the entire input process for a here&#45;document.">
<polygon fill="white" stroke="#666666" points="1083,-171 989,-171 989,-152 1083,-152 1083,-171"/>
<text text-anchor="middle" x="1036" y="-159" font-family="Helvetica,sans-Serif" font-size="10.00">handle_heredoc</text>
</a>
</g>
</g>
<!-- Node2&#45;&gt;Node3 -->
<g id="edge2_Node000002_Node000003" class="edge">
<title>Node2&#45;&gt;Node3</title>
<g id="a_edge2_Node000002_Node000003"><a xlink:title=" ">
<path fill="none" stroke="#63b8ff" d="M1112.87,-160.92C1103.01,-160.99 1092.8,-161.07 1083.19,-161.14"/>
<polygon fill="#63b8ff" stroke="#63b8ff" points="1113.02,-164.42 1122.99,-160.84 1112.96,-157.42 1113.02,-164.42"/>
</a>
</g>
</g>
<!-- Node4 -->
<g id="Node000004" class="node">
<title>Node4</title>
<g id="a_Node000004"><a xlink:href="handle__redirections_8c.html#a2834314002a1f4ef4af82f95159b0a34" target="_top" xlink:title="Handles input redirection from file or heredoc.">
<polygon fill="white" stroke="#666666" points="953,-175 834,-175 834,-156 953,-156 953,-175"/>
<text text-anchor="middle" x="893.5" y="-163" font-family="Helvetica,sans-Serif" font-size="10.00">ft_handle_infile_redir</text>
</a>
</g>
</g>
<!-- Node3&#45;&gt;Node4 -->
<g id="edge3_Node000003_Node000004" class="edge">
<title>Node3&#45;&gt;Node4</title>
<g id="a_edge3_Node000003_Node000004"><a xlink:title=" ">
<path fill="none" stroke="#63b8ff" d="M978.86,-163.1C970.41,-163.34 961.67,-163.59 953.17,-163.83"/>
<polygon fill="#63b8ff" stroke="#63b8ff" points="979.1,-166.59 989,-162.81 978.9,-159.6 979.1,-166.59"/>
</a>
</g>
</g>
<!-- Node5 -->
<g id="Node000005" class="node">
<title>Node5</title>
<g id="a_Node000005"><a xlink:href="handle__redirections_8c.html#aa4509a43f47ed881eb2d81fb81458466" target="_top" xlink:title="Handles redirections without an associated command.">
<polygon fill="white" stroke="#666666" points="798,-180.5 685,-180.5 685,-150.5 798,-150.5 798,-180.5"/>
<text text-anchor="start" x="693" y="-168.5" font-family="Helvetica,sans-Serif" font-size="10.00">handle_redirection</text>
<text text-anchor="middle" x="741.5" y="-157.5" font-family="Helvetica,sans-Serif" font-size="10.00">_without_command</text>
</a>
</g>
</g>
<!-- Node4&#45;&gt;Node5 -->
<g id="edge4_Node000004_Node000005" class="edge">
<title>Node4&#45;&gt;Node5</title>
<g id="a_edge4_Node000004_Node000005"><a xlink:title=" ">
<path fill="none" stroke="#63b8ff" d="M823.43,-165.5C814.99,-165.5 806.45,-165.5 798.24,-165.5"/>
<polygon fill="#63b8ff" stroke="#63b8ff" points="823.65,-169 833.65,-165.5 823.65,-162 823.65,-169"/>
</a>
</g>
</g>
<!-- Node6 -->
<g id="Node000006" class="node">
<title>Node6</title>
<g id="a_Node000006"><a xlink:href="handle__redirections_8c.html#ab2c37fefb1291d3f8d0dc91e8c096334" target="_top" xlink:title="Handles redirection associated with a command.">
<polygon fill="white" stroke="#666666" points="649,-181 542,-181 542,-162 649,-162 649,-181"/>
<text text-anchor="middle" x="595.5" y="-169" font-family="Helvetica,sans-Serif" font-size="10.00">handle_redirection</text>
</a>
</g>
</g>
<!-- Node5&#45;&gt;Node6 -->
<g id="edge5_Node000005_Node000006" class="edge">
<title>Node5&#45;&gt;Node6</title>
<g id="a_edge5_Node000005_Node000006"><a xlink:title=" ">
<path fill="none" stroke="#63b8ff" d="M674.83,-168.24C666.24,-168.59 657.53,-168.96 649.19,-169.3"/>
<polygon fill="#63b8ff" stroke="#63b8ff" points="674.98,-171.73 684.83,-167.82 674.69,-164.74 674.98,-171.73"/>
</a>
</g>
</g>
<!-- Node7 -->
<g id="Node000007" class="node">
<title>Node7</title>
<g id="a_Node000007"><a xlink:href="create__command__list_8c.html#ae2006bf82a70d4753ffdca65847316ca" target="_top" xlink:title="Executes a redirection for the current command.">
<polygon fill="white" stroke="#666666" points="496.5,-184 422.5,-184 422.5,-165 496.5,-165 496.5,-184"/>
<text text-anchor="middle" x="459.5" y="-172" font-family="Helvetica,sans-Serif" font-size="10.00">ft_exe_redir</text>
</a>
</g>
</g>
<!-- Node6&#45;&gt;Node7 -->
<g id="edge6_Node000006_Node000007" class="edge">
<title>Node6&#45;&gt;Node7</title>
<g id="a_edge6_Node000006_Node000007"><a xlink:title=" ">
<path fill="none" stroke="#63b8ff" d="M531.9,-172.9C519.87,-173.17 507.65,-173.44 496.8,-173.69"/>
<polygon fill="#63b8ff" stroke="#63b8ff" points="532.01,-176.4 541.92,-172.68 531.85,-169.4 532.01,-176.4"/>
</a>
</g>
</g>
<!-- Node8 -->
<g id="Node000008" class="node">
<title>Node8</title>
<g id="a_Node000008"><a xlink:href="create__command__list_8c.html#ad16d74756b107a98677124008c71d23b" target="_top" xlink:title="Creates a command list from tokens.">
<polygon fill="white" stroke="#666666" points="377,-196 309,-196 309,-177 377,-177 377,-196"/>
<text text-anchor="middle" x="343" y="-184" font-family="Helvetica,sans-Serif" font-size="10.00">create_list</text>
</a>
</g>
</g>
<!-- Node7&#45;&gt;Node8 -->
<g id="edge7_Node000007_Node000008" class="edge">
<title>Node7&#45;&gt;Node8</title>
<g id="a_edge7_Node000007_Node000008"><a xlink:title=" ">
<path fill="none" stroke="#63b8ff" d="M412.21,-179.35C400.51,-180.58 388.18,-181.87 377.27,-183.01"/>
<polygon fill="#63b8ff" stroke="#63b8ff" points="412.69,-182.82 422.27,-178.3 411.96,-175.86 412.69,-182.82"/>
</a>
</g>
</g>
<!-- Node9 -->
<g id="Node000009" class="node">
<title>Node9</title>
<g id="a_Node000009"><a xlink:href="main__utils_8c.html#a7e8f478480ab6ab34d6f5eadaf6acdb9" target="_top" xlink:title="Handles parsing and execution of tokens.">
<polygon fill="white" stroke="#666666" points="273,-196 192,-196 192,-177 273,-177 273,-196"/>
<text text-anchor="middle" x="232.5" y="-184" font-family="Helvetica,sans-Serif" font-size="10.00">ft_token_flow</text>
</a>
</g>
</g>
<!-- Node8&#45;&gt;Node9 -->
<g id="edge8_Node000008_Node000009" class="edge">
<title>Node8&#45;&gt;Node9</title>
<g id="a_edge8_Node000008_Node000009"><a xlink:title=" ">
<path fill="none" stroke="#63b8ff" d="M298.83,-186.5C290.41,-186.5 281.62,-186.5 273.31,-186.5"/>
<polygon fill="#63b8ff" stroke="#63b8ff" points="298.86,-190 308.86,-186.5 298.86,-183 298.86,-190"/>
</a>
</g>
</g>
<!-- Node10 -->
<g id="Node000010" class="node">
<title>Node10</title>
<g id="a_Node000010"><a xlink:href="main__utils_8c.html#ae35edfb8f1339d6f77f53c28eb2a2ed6" target="_top" xlink:title="Handles a complete cycle of input → parsing → execution.">
<polygon fill="white" stroke="#666666" points="156,-158 77,-158 77,-139 156,-139 156,-158"/>
<text text-anchor="middle" x="116.5" y="-146" font-family="Helvetica,sans-Serif" font-size="10.00">ft_main_flow</text>
</a>
</g>
</g>
<!-- Node9&#45;&gt;Node10 -->
<g id="edge9_Node000009_Node000010" class="edge">
<title>Node9&#45;&gt;Node10</title>
<g id="a_edge9_Node000009_Node000010"><a xlink:title=" ">
<path fill="none" stroke="#63b8ff" d="M193.02,-173.67C177.73,-168.58 160.43,-162.81 146.26,-158.09"/>
<polygon fill="#63b8ff" stroke="#63b8ff" points="192.14,-177.07 202.73,-176.91 194.35,-170.43 192.14,-177.07"/>
</a>
</g>
</g>
<!-- Node11 -->
<g id="Node000011" class="node">
<title>Node11</title>
<g id="a_Node000011"><a xlink:href="main_8c.html#ab3862b46d6a8d13c2d884a297e6b05b5" target="_top" xlink:title="Main function of the minishell.">
<polygon fill="white" stroke="#666666" points="41,-158 0,-158 0,-139 41,-139 41,-158"/>
<text text-anchor="middle" x="20.5" y="-146" font-family="Helvetica,sans-Serif" font-size="10.00">main</text>
</a>
</g>
</g>
<!-- Node10&#45;&gt;Node11 -->
<g id="edge10_Node000010_Node000011" class="edge">
<title>Node10&#45;&gt;Node11</title>
<g id="a_edge10_Node000010_Node000011"><a xlink:title=" ">
<path fill="none" stroke="#63b8ff" d="M66.74,-148.5C57.62,-148.5 48.59,-148.5 41.03,-148.5"/>
<polygon fill="#63b8ff" stroke="#63b8ff" points="67,-152 77,-148.5 67,-145 67,-152"/>
</a>
</g>
</g>
<!-- Node13 -->
<g id="Node000013" class="node">
<title>Node13</title>
<g id="a_Node000013"><a xlink:href="utils__env_8c.html#a78e10627f49df6e904925e22ae6ee15f" target="_top" xlink:title="Performs environment variable expansion in a string.">
<polygon fill="white" stroke="#666666" points="1541.5,-170 1437.5,-170 1437.5,-151 1541.5,-151 1541.5,-170"/>
<text text-anchor="middle" x="1489.5" y="-158" font-family="Helvetica,sans-Serif" font-size="10.00">ft_expand_envvar</text>
</a>
</g>
</g>
<!-- Node12&#45;&gt;Node13 -->
<g id="edge12_Node000012_Node000013" class="edge">
<title>Node12&#45;&gt;Node13</title>
<g id="a_edge12_Node000012_Node000013"><a xlink:title=" ">
<path fill="none" stroke="#63b8ff" d="M1603.59,-160.5C1584.52,-160.5 1561.79,-160.5 1541.72,-160.5"/>
<polygon fill="#63b8ff" stroke="#63b8ff" points="1603.76,-164 1613.76,-160.5 1603.76,-157 1603.76,-164"/>
</a>
</g>
</g>
<!-- Node14 -->
<g id="Node000014" class="node">
<title>Node14</title>
<g id="a_Node000014"><a xlink:href="create__command__list_8c.html#a9fb2e7501277f2f93e5c7042fec32429" target="_top" xlink:title="Adds an argument to the command’s argument list.">
<polygon fill="white" stroke="#666666" points="1350.5,-246 1289.5,-246 1289.5,-227 1350.5,-227 1350.5,-246"/>
<text text-anchor="middle" x="1320" y="-234" font-family="Helvetica,sans-Serif" font-size="10.00">add_args</text>
</a>
</g>
</g>
<!-- Node13&#45;&gt;Node14 -->
<g id="edge13_Node000013_Node000014" class="edge">
<title>Node13&#45;&gt;Node14</title>
<g id="a_edge13_Node000013_Node000014"><a xlink:title=" ">
<path fill="none" stroke="#63b8ff" d="M1457.95,-174.36C1424.35,-189.6 1371.27,-213.69 1342.04,-226.95"/>
<polygon fill="#63b8ff" stroke="#63b8ff" points="1459.63,-177.44 1467.29,-170.13 1456.73,-171.07 1459.63,-177.44"/>
</a>
</g>
</g>
<!-- Node15 -->
<g id="Node000015" class="node">
<title>Node15</title>
<g id="a_Node000015"><a xlink:href="main__utils_8c.html#a5aeae9d23b7c4e831229866f395977e7" target="_top" xlink:title="Handles printing of a single environment variable.">
<polygon fill="white" stroke="#666666" points="506,-135 413,-135 413,-116 506,-116 506,-135"/>
<text text-anchor="middle" x="459.5" y="-123" font-family="Helvetica,sans-Serif" font-size="10.00">ft_env_var_flow</text>
</a>
</g>
</g>
<!-- Node13&#45;&gt;Node15 -->
<g id="edge15_Node000013_Node000015" class="edge">
<title>Node13&#45;&gt;Node15</title>
<g id="a_edge15_Node000013_Node000015"><a xlink:title=" ">
<path fill="none" stroke="#63b8ff" d="M1455.29,-147.17C1397.9,-125.37 1276.04,-84.5 1169,-84.5 1169,-84.5 1169,-84.5 740.5,-84.5 654.03,-84.5 554.11,-103.88 500.11,-115.99"/>
<polygon fill="#63b8ff" stroke="#63b8ff" points="1454.32,-150.55 1464.91,-150.87 1456.84,-144.01 1454.32,-150.55"/>
</a>
</g>
</g>
<!-- Node16 -->
<g id="Node000016" class="node">
<title>Node16</title>
<g id="a_Node000016"><a xlink:href="redir__utils_8c.html#aff3d6a56d03d5df38cbb3e1f171eb191" target="_top" xlink:title="Expands environment variables in a line and writes the result to a file descriptor.">
<polygon fill="white" stroke="#666666" points="1363,-170 1277,-170 1277,-151 1363,-151 1363,-170"/>
<text text-anchor="middle" x="1320" y="-158" font-family="Helvetica,sans-Serif" font-size="10.00">ft_for_env_var</text>
</a>
</g>
</g>
<!-- Node13&#45;&gt;Node16 -->
<g id="edge17_Node000013_Node000016" class="edge">
<title>Node13&#45;&gt;Node16</title>
<g id="a_edge17_Node000013_Node000016"><a xlink:title=" ">
<path fill="none" stroke="#63b8ff" d="M1427.09,-160.5C1405.83,-160.5 1382.49,-160.5 1363.14,-160.5"/>
<polygon fill="#63b8ff" stroke="#63b8ff" points="1427.33,-164 1437.33,-160.5 1427.33,-157 1427.33,-164"/>
</a>
</g>
</g>
<!-- Node14&#45;&gt;Node8 -->
<g id="edge14_Node000014_Node000008" class="edge">
<title>Node14&#45;&gt;Node8</title>
<g id="a_edge14_Node000014_Node000008"><a xlink:title=" ">
<path fill="none" stroke="#63b8ff" d="M1279.13,-231.89C1224.57,-225.98 1123.51,-216.5 1037,-216.5 1037,-216.5 1037,-216.5 594.5,-216.5 516.1,-216.5 424.86,-201.83 377.08,-193.01"/>
<polygon fill="#63b8ff" stroke="#63b8ff" points="1279.09,-235.4 1289.41,-233.02 1279.85,-228.44 1279.09,-235.4"/>
</a>
</g>
</g>
<!-- Node15&#45;&gt;Node9 -->
<g id="edge16_Node000015_Node000009" class="edge">
<title>Node15&#45;&gt;Node9</title>
<g id="a_edge16_Node000015_Node000009"><a xlink:title=" ">
<path fill="none" stroke="#63b8ff" d="M413.52,-137.69C370.93,-149.24 307.85,-166.34 268.78,-176.94"/>
<polygon fill="#63b8ff" stroke="#63b8ff" points="414.61,-141.03 423.34,-135.03 412.78,-134.27 414.61,-141.03"/>
</a>
</g>
</g>
<!-- Node16&#45;&gt;Node2 -->
<g id="edge18_Node000016_Node000002" class="edge">
<title>Node16&#45;&gt;Node2</title>
<g id="a_edge18_Node000016_Node000002"><a xlink:title=" ">
<path fill="none" stroke="#63b8ff" d="M1266.78,-160.5C1249.31,-160.5 1230.02,-160.5 1213.22,-160.5"/>
<polygon fill="#63b8ff" stroke="#63b8ff" points="1266.82,-164 1276.82,-160.5 1266.82,-157 1266.82,-164"/>
</a>
</g>
</g>
<!-- Node18 -->
<g id="Node000018" class="node">
<title>Node18</title>
<g id="a_Node000018"><a xlink:href="for__merge__echo_8c.html#a9a9e603a3cf06f996da02d8b076da2c7" target="_top" xlink:title="Finds and merges all consecutive tokens like &#45;n, &#45;nn, etc. after the initial valid &#45;n token.">
<polygon fill="white" stroke="#666666" points="1556,-58 1423,-58 1423,-39 1556,-39 1556,-58"/>
<text text-anchor="middle" x="1489.5" y="-46" font-family="Helvetica,sans-Serif" font-size="10.00">ft_merge_subsequent_n</text>
</a>
</g>
</g>
<!-- Node17&#45;&gt;Node18 -->
<g id="edge20_Node000017_Node000018" class="edge">
<title>Node17&#45;&gt;Node18</title>
<g id="a_edge20_Node000017_Node000018"><a xlink:title=" ">
<path fill="none" stroke="#63b8ff" d="M1581.63,-48.5C1573.24,-48.5 1564.63,-48.5 1556.21,-48.5"/>
<polygon fill="#63b8ff" stroke="#63b8ff" points="1581.72,-52 1591.72,-48.5 1581.72,-45 1581.72,-52"/>
</a>
</g>
</g>
<!-- Node19 -->
<g id="Node000019" class="node">
<title>Node19</title>
<g id="a_Node000019"><a xlink:href="for__merge__echo_8c.html#a5326da08ceca8e15b2ceca38c9930e08" target="_top" xlink:title="Handles merging multiple &#45;n, &#45;nn, etc. tokens for the echo command.">
<polygon fill="white" stroke="#666666" points="1383,-56 1257,-56 1257,-37 1383,-37 1383,-56"/>
<text text-anchor="middle" x="1320" y="-44" font-family="Helvetica,sans-Serif" font-size="10.00">ft_merge_tokens_echo</text>
</a>
</g>
</g>
<!-- Node18&#45;&gt;Node19 -->
<g id="edge21_Node000018_Node000019" class="edge">
<title>Node18&#45;&gt;Node19</title>
<g id="a_edge21_Node000018_Node000019"><a xlink:title=" ">
<path fill="none" stroke="#63b8ff" d="M1412.62,-47.59C1402.79,-47.48 1392.82,-47.36 1383.25,-47.24"/>
<polygon fill="#63b8ff" stroke="#63b8ff" points="1412.74,-51.1 1422.78,-47.72 1412.82,-44.1 1412.74,-51.1"/>
</a>
</g>
</g>
<!-- Node20 -->
<g id="Node000020" class="node">
<title>Node20</title>
<g id="a_Node000020"><a xlink:href="tokenize__input_8c.html#a040acaabf04da0b8d7ce5da9c1d210d8" target="_top" xlink:title="Assigns types to tokens and applies command&#45;specific rules.">
<polygon fill="white" stroke="#666666" points="1216,-56 1120,-56 1120,-37 1216,-37 1216,-56"/>
<text text-anchor="middle" x="1168" y="-44" font-family="Helvetica,sans-Serif" font-size="10.00">ft_define_tokens</text>
</a>
</g>
</g>
<!-- Node19&#45;&gt;Node20 -->
<g id="edge22_Node000019_Node000020" class="edge">
<title>Node19&#45;&gt;Node20</title>
<g id="a_edge22_Node000019_Node000020"><a xlink:title=" ">
<path fill="none" stroke="#63b8ff" d="M1246.47,-46.5C1236.2,-46.5 1225.87,-46.5 1216.25,-46.5"/>
<polygon fill="#63b8ff" stroke="#63b8ff" points="1246.69,-50 1256.69,-46.5 1246.69,-43 1246.69,-50"/>
</a>
</g>
</g>
<!-- Node21 -->
<g id="Node000021" class="node">
<title>Node21</title>
<g id="a_Node000021"><a xlink:href="tokenize__input_8c.html#a4e40c3f57ab2488a2b49f37846785b2e" target="_top" xlink:title="Tokenizes the entire user input string.">
<polygon fill="white" stroke="#666666" points="372,-92 314,-92 314,-73 372,-73 372,-92"/>
<text text-anchor="middle" x="343" y="-80" font-family="Helvetica,sans-Serif" font-size="10.00">tokenize</text>
</a>
</g>
</g>
<!-- Node20&#45;&gt;Node21 -->
<g id="edge23_Node000020_Node000021" class="edge">
<title>Node20&#45;&gt;Node21</title>
<g id="a_edge23_Node000020_Node000021"><a xlink:title=" ">
<path fill="none" stroke="#63b8ff" d="M1109.47,-46.5C1054.32,-46.5 968.72,-46.5 894.5,-46.5 894.5,-46.5 894.5,-46.5 594.5,-46.5 513.22,-46.5 418.59,-65.3 372.36,-75.73"/>
<polygon fill="#63b8ff" stroke="#63b8ff" points="1109.74,-50 1119.74,-46.5 1109.74,-43 1109.74,-50"/>
</a>
</g>
</g>
<!-- Node21&#45;&gt;Node10 -->
<g id="edge24_Node000021_Node000010" class="edge">
<title>Node21&#45;&gt;Node10</title>
<g id="a_edge24_Node000021_Node000010"><a xlink:title=" ">
<path fill="none" stroke="#63b8ff" d="M303.7,-93.76C260.45,-106.48 190.79,-126.95 150.06,-138.93"/>
<polygon fill="#63b8ff" stroke="#63b8ff" points="304.96,-97.04 313.57,-90.86 302.99,-90.32 304.96,-97.04"/>
</a>
</g>
</g>
<!-- Node22&#45;&gt;Node13 -->
<g id="edge26_Node000022_Node000013" class="edge">
<title>Node22&#45;&gt;Node13</title>
<g id="a_edge26_Node000022_Node000013"><a xlink:title=" ">
<path fill="none" stroke="#63b8ff" d="M1597.3,-135.01C1575.86,-140.12 1550.92,-146.08 1530.54,-150.94"/>
<polygon fill="#63b8ff" stroke="#63b8ff" points="1598.27,-138.37 1607.19,-132.65 1596.65,-131.56 1598.27,-138.37"/>
</a>
</g>
</g>
<!-- Node24 -->
<g id="Node000024" class="node">
<title>Node24</title>
<g id="a_Node000024"><a xlink:href="for__merge__export_8c.html#ae1468c1b7b66228b739b08940a389e42" target="_top" xlink:title="Merges consecutive ARGUMENT tokens into a single token, used for the export command.">
<polygon fill="white" stroke="#666666" points="1552.5,-20 1426.5,-20 1426.5,-1 1552.5,-1 1552.5,-20"/>
<text text-anchor="middle" x="1489.5" y="-8" font-family="Helvetica,sans-Serif" font-size="10.00">ft_merge_word_export</text>
</a>
</g>
</g>
<!-- Node23&#45;&gt;Node24 -->
<g id="edge28_Node000023_Node000024" class="edge">
<title>Node23&#45;&gt;Node24</title>
<g id="a_edge28_Node000023_Node000024"><a xlink:title=" ">
<path fill="none" stroke="#63b8ff" d="M1603.69,-11.23C1587.97,-11.13 1569.74,-11.01 1552.57,-10.9"/>
<polygon fill="#63b8ff" stroke="#63b8ff" points="1604.11,-14.73 1614.13,-11.3 1604.16,-7.73 1604.11,-14.73"/>
</a>
</g>
</g>
<!-- Node25 -->
<g id="Node000025" class="node">
<title>Node25</title>
<g id="a_Node000025"><a xlink:href="for__merge__export_8c.html#a94cce59efbc71ee79944cf7e061d8104" target="_top" xlink:title="Checks if the current command is export and, if so, merges the following ARGUMENT tokens.">
<polygon fill="white" stroke="#666666" points="1387,-19 1253,-19 1253,0 1387,0 1387,-19"/>
<text text-anchor="middle" x="1320" y="-7" font-family="Helvetica,sans-Serif" font-size="10.00">ft_merge_tokens_export</text>
</a>
</g>
</g>
<!-- Node24&#45;&gt;Node25 -->
<g id="edge29_Node000024_Node000025" class="edge">
<title>Node24&#45;&gt;Node25</title>
<g id="a_edge29_Node000024_Node000025"><a xlink:title=" ">
<path fill="none" stroke="#63b8ff" d="M1415.85,-10.07C1406.28,-10.01 1396.52,-9.95 1387.07,-9.89"/>
<polygon fill="#63b8ff" stroke="#63b8ff" points="1416.11,-13.57 1426.13,-10.13 1416.15,-6.57 1416.11,-13.57"/>
</a>
</g>
</g>
<!-- Node25&#45;&gt;Node20 -->
<g id="edge30_Node000025_Node000020" class="edge">
<title>Node25&#45;&gt;Node20</title>
<g id="a_edge30_Node000025_Node000020"><a xlink:title=" ">
<path fill="none" stroke="#63b8ff" d="M1270.66,-21.43C1250.31,-26.44 1226.95,-32.21 1207.76,-36.94"/>
<polygon fill="#63b8ff" stroke="#63b8ff" points="1271.5,-24.82 1280.37,-19.03 1269.82,-18.03 1271.5,-24.82"/>
</a>
</g>
</g>
<!-- Node27 -->
<g id="Node000027" class="node">
<title>Node27</title>
<g id="a_Node000027"><a xlink:href="get__next__line_8c.html#a78d68a5f50a6eec0380ce25b4a1bd5b7" target="_top" xlink:title=" ">
<polygon fill="white" stroke="#666666" points="1531,-114 1448,-114 1448,-95 1531,-95 1531,-114"/>
<text text-anchor="middle" x="1489.5" y="-102" font-family="Helvetica,sans-Serif" font-size="10.00">get_next_line</text>
</a>
</g>
</g>
<!-- Node26&#45;&gt;Node27 -->
<g id="edge32_Node000026_Node000027" class="edge">
<title>Node26&#45;&gt;Node27</title>
<g id="a_edge32_Node000026_Node000027"><a xlink:title=" ">
<path fill="none" stroke="#63b8ff" d="M1605.22,-91.18C1582.46,-93.82 1554.08,-97.12 1531.24,-99.77"/>
<polygon fill="#63b8ff" stroke="#63b8ff" points="1605.72,-94.64 1615.25,-90.01 1604.91,-87.69 1605.72,-94.64"/>
</a>
</g>
</g>
<!-- Node27&#45;&gt;Node2 -->
<g id="edge33_Node000027_Node000002" class="edge">
<title>Node27&#45;&gt;Node2</title>
<g id="a_edge33_Node000027_Node000002"><a xlink:title=" ">
<path fill="none" stroke="#63b8ff" d="M1437.88,-111.9C1390.1,-119.07 1316.52,-130.58 1253,-142.5 1239.51,-145.03 1224.87,-148.07 1211.65,-150.92"/>
<polygon fill="#63b8ff" stroke="#63b8ff" points="1438.6,-115.33 1447.97,-110.4 1437.56,-108.41 1438.6,-115.33"/>
</a>
</g>
</g>
<!-- Node29 -->
<g id="Node000029" class="node">
<title>Node29</title>
<g id="a_Node000029"><a xlink:href="ft__cd_8c.html#abe3ef0d9243dfb9deb0adcf20cf26db5" target="_top" xlink:title="Changes the current directory and updates PWD and OLDPWD environment variables.">
<polygon fill="white" stroke="#666666" points="1523,-320 1456,-320 1456,-301 1523,-301 1523,-320"/>
<text text-anchor="middle" x="1489.5" y="-308" font-family="Helvetica,sans-Serif" font-size="10.00">ft_set_env</text>
</a>
</g>
</g>
<!-- Node28&#45;&gt;Node29 -->
<g id="edge35_Node000028_Node000029" class="edge">
<title>Node28&#45;&gt;Node29</title>
<g id="a_edge35_Node000028_Node000029"><a xlink:title=" ">
<path fill="none" stroke="#63b8ff" d="M1605.13,-296.45C1579.58,-299.58 1546.98,-303.58 1523.09,-306.51"/>
<polygon fill="#63b8ff" stroke="#63b8ff" points="1605.75,-299.9 1615.25,-295.21 1604.89,-292.95 1605.75,-299.9"/>
</a>
</g>
</g>
<!-- Node30 -->
<g id="Node000030" class="node">
<title>Node30</title>
<g id="a_Node000030"><a xlink:href="ft__cd_8c.html#af438919e376d2d0df3830120118ea526" target="_top" xlink:title="Builtin function for the cd (change directory) command.">
<polygon fill="white" stroke="#666666" points="1340,-320 1300,-320 1300,-301 1340,-301 1340,-320"/>
<text text-anchor="middle" x="1320" y="-308" font-family="Helvetica,sans-Serif" font-size="10.00">ft_cd</text>
</a>
</g>
</g>
<!-- Node29&#45;&gt;Node30 -->
<g id="edge36_Node000029_Node000030" class="edge">
<title>Node29&#45;&gt;Node30</title>
<g id="a_edge36_Node000029_Node000030"><a xlink:title=" ">
<path fill="none" stroke="#63b8ff" d="M1445.66,-310.5C1411.6,-310.5 1365.58,-310.5 1340.06,-310.5"/>
<polygon fill="#63b8ff" stroke="#63b8ff" points="1445.81,-314 1455.81,-310.5 1445.81,-307 1445.81,-314"/>
</a>
</g>
</g>
<!-- Node31 -->
<g id="Node000031" class="node">
<title>Node31</title>
<g id="a_Node000031"><a xlink:href="cmd__execution_8c.html#a5ce7231f800cbacea6350cc1a32a59bd" target="_top" xlink:title="Executes a list of non&#45;pipelined commands.">
<polygon fill="white" stroke="#666666" points="1204,-320 1132,-320 1132,-301 1204,-301 1204,-320"/>
<text text-anchor="middle" x="1168" y="-308" font-family="Helvetica,sans-Serif" font-size="10.00">ft_exe_cmd</text>
</a>
</g>
</g>
<!-- Node30&#45;&gt;Node31 -->
<g id="edge37_Node000030_Node000031" class="edge">
<title>Node30&#45;&gt;Node31</title>
<g id="a_edge37_Node000030_Node000031"><a xlink:title=" ">
<path fill="none" stroke="#63b8ff" d="M1289.58,-310.5C1265.12,-310.5 1230.24,-310.5 1204.27,-310.5"/>
<polygon fill="#63b8ff" stroke="#63b8ff" points="1289.7,-314 1299.7,-310.5 1289.7,-307 1289.7,-314"/>
</a>
</g>
</g>
<!-- Node32 -->
<g id="Node000032" class="node">
<title>Node32</title>
<g id="a_Node000032"><a xlink:href="cmd__execution_8c.html#a50e59fa2e4621831a415d4038f697c56" target="_top" xlink:title="Executes a command within a pipeline.">
<polygon fill="white" stroke="#666666" points="1217,-283 1119,-283 1119,-264 1217,-264 1217,-283"/>
<text text-anchor="middle" x="1168" y="-271" font-family="Helvetica,sans-Serif" font-size="10.00">ft_exe_pipe_cmd</text>
</a>
</g>
</g>
<!-- Node30&#45;&gt;Node32 -->
<g id="edge39_Node000030_Node000032" class="edge">
<title>Node30&#45;&gt;Node32</title>
<g id="a_edge39_Node000030_Node000032"><a xlink:title=" ">
<path fill="none" stroke="#63b8ff" d="M1289.98,-303.34C1266.51,-297.55 1233.26,-289.35 1207.55,-283.01"/>
<polygon fill="#63b8ff" stroke="#63b8ff" points="1289.15,-306.74 1299.7,-305.74 1290.83,-299.95 1289.15,-306.74"/>
</a>
</g>
</g>
<!-- Node31&#45;&gt;Node9 -->
<g id="edge38_Node000031_Node000009" class="edge">
<title>Node31&#45;&gt;Node9</title>
<g id="a_edge38_Node000031_Node000009"><a xlink:title=" ">
<path fill="none" stroke="#63b8ff" d="M1121.44,-310.5C1067.32,-310.5 974.33,-310.5 894.5,-310.5 894.5,-310.5 894.5,-310.5 458.5,-310.5 363.94,-310.5 271.69,-225.46 242.78,-196.23"/>
<polygon fill="#63b8ff" stroke="#63b8ff" points="1121.73,-314 1131.73,-310.5 1121.73,-307 1121.73,-314"/>
</a>
</g>
</g>
<!-- Node33 -->
<g id="Node000033" class="node">
<title>Node33</title>
<g id="a_Node000033"><a xlink:href="pipes_8c.html#a36a2d91a0566ad253efe3833b05e69d1" target="_top" xlink:title="Routine executed by the child process for each command in the pipe.">
<polygon fill="white" stroke="#666666" points="1082,-282 990,-282 990,-263 1082,-263 1082,-282"/>
<text text-anchor="middle" x="1036" y="-270" font-family="Helvetica,sans-Serif" font-size="10.00">ft_child_routine</text>
</a>
</g>
</g>
<!-- Node32&#45;&gt;Node33 -->
<g id="edge40_Node000032_Node000033" class="edge">
<title>Node32&#45;&gt;Node33</title>
<g id="a_edge40_Node000032_Node000033"><a xlink:title=" ">
<path fill="none" stroke="#63b8ff" d="M1108.67,-273.05C1099.81,-272.98 1090.78,-272.91 1082.25,-272.85"/>
<polygon fill="#63b8ff" stroke="#63b8ff" points="1108.94,-276.55 1118.96,-273.13 1108.99,-269.55 1108.94,-276.55"/>
</a>
</g>
</g>
<!-- Node34 -->
<g id="Node000034" class="node">
<title>Node34</title>
<g id="a_Node000034"><a xlink:href="pipes_8c.html#aa17e847997e7266a0a111ab3572756bb" target="_top" xlink:title="Manages pipe creation and fork to execute the current command.">
<polygon fill="white" stroke="#666666" points="938,-282 849,-282 849,-263 938,-263 938,-282"/>
<text text-anchor="middle" x="893.5" y="-270" font-family="Helvetica,sans-Serif" font-size="10.00">ft_pipe_routine</text>
</a>
</g>
</g>
<!-- Node33&#45;&gt;Node34 -->
<g id="edge41_Node000033_Node000034" class="edge">
<title>Node33&#45;&gt;Node34</title>
<g id="a_edge41_Node000033_Node000034"><a xlink:title=" ">
<path fill="none" stroke="#63b8ff" d="M979.48,-272.5C965.76,-272.5 951.27,-272.5 938.21,-272.5"/>
<polygon fill="#63b8ff" stroke="#63b8ff" points="979.77,-276 989.77,-272.5 979.77,-269 979.77,-276"/>
</a>
</g>
</g>
<!-- Node35 -->
<g id="Node000035" class="node">
<title>Node35</title>
<g id="a_Node000035"><a xlink:href="pipes_8c.html#a7a3b0de1a88a243da741f748881e14f0" target="_top" xlink:title="Executes a list of commands connected via pipes.">
<polygon fill="white" stroke="#666666" points="782,-282 701,-282 701,-263 782,-263 782,-282"/>
<text text-anchor="middle" x="741.5" y="-270" font-family="Helvetica,sans-Serif" font-size="10.00">execute_pipe</text>
</a>
</g>
</g>
<!-- Node34&#45;&gt;Node35 -->
<g id="edge42_Node000034_Node000035" class="edge">
<title>Node34&#45;&gt;Node35</title>
<g id="a_edge42_Node000034_Node000035"><a xlink:title=" ">
<path fill="none" stroke="#63b8ff" d="M838.6,-272.5C820,-272.5 799.51,-272.5 782.25,-272.5"/>
<polygon fill="#63b8ff" stroke="#63b8ff" points="838.71,-276 848.71,-272.5 838.71,-269 838.71,-276"/>
</a>
</g>
</g>
<!-- Node36 -->
<g id="Node000036" class="node">
<title>Node36</title>
<g id="a_Node000036"><a xlink:href="main__utils_8c.html#ad0183732909ae6e7c52e7b086c2e5642" target="_top" xlink:title="Manages the execution flow of commands with pipes.">
<polygon fill="white" stroke="#666666" points="633,-280 558,-280 558,-261 633,-261 633,-280"/>
<text text-anchor="middle" x="595.5" y="-268" font-family="Helvetica,sans-Serif" font-size="10.00">ft_pipe_flow</text>
</a>
</g>
</g>
<!-- Node35&#45;&gt;Node36 -->
<g id="edge43_Node000035_Node000036" class="edge">
<title>Node35&#45;&gt;Node36</title>
<g id="a_edge43_Node000035_Node000036"><a xlink:title=" ">
<path fill="none" stroke="#63b8ff" d="M690.55,-271.81C671.68,-271.54 650.57,-271.25 633.14,-271.01"/>
<polygon fill="#63b8ff" stroke="#63b8ff" points="690.72,-275.31 700.77,-271.95 690.82,-268.31 690.72,-275.31"/>
</a>
</g>
</g>
<!-- Node36&#45;&gt;Node9 -->
<g id="edge44_Node000036_Node000009" class="edge">
<title>Node36&#45;&gt;Node9</title>
<g id="a_edge44_Node000036_Node000009"><a xlink:title=" ">
<path fill="none" stroke="#63b8ff" d="M548.04,-260.51C511.34,-252.57 458.84,-241.06 413,-230.5 366.67,-219.83 355.16,-216.86 309,-205.5 296.66,-202.46 283.21,-199.1 271.12,-196.05"/>
<polygon fill="#63b8ff" stroke="#63b8ff" points="547.44,-263.97 557.95,-262.66 548.92,-257.12 547.44,-263.97"/>
</a>
</g>
</g>
<!-- Node38 -->
<g id="Node000038" class="node">
<title>Node38</title>
<g id="a_Node000038"><a xlink:href="create__command__list_8c.html#a6823bdba32af9d583d3b6ad55969f4e7" target="_top" xlink:title="Expands the exit status variable $? in a string.">
<polygon fill="white" stroke="#666666" points="1538.5,-246 1440.5,-246 1440.5,-227 1538.5,-227 1538.5,-246"/>
<text text-anchor="middle" x="1489.5" y="-234" font-family="Helvetica,sans-Serif" font-size="10.00">ft_estatus_to_str</text>
</a>
</g>
</g>
<!-- Node37&#45;&gt;Node38 -->
<g id="edge46_Node000037_Node000038" class="edge">
<title>Node37&#45;&gt;Node38</title>
<g id="a_edge46_Node000037_Node000038"><a xlink:title=" ">
<path fill="none" stroke="#63b8ff" d="M1591.11,-236.5C1574.03,-236.5 1555.31,-236.5 1538.69,-236.5"/>
<polygon fill="#63b8ff" stroke="#63b8ff" points="1591.5,-240 1601.5,-236.5 1591.5,-233 1591.5,-240"/>
</a>
</g>
</g>
<!-- Node39 -->
<g id="Node000039" class="node">
<title>Node39</title>
<g id="a_Node000039"><a xlink:href="system__commands_8c.html#aaaa4228e08342bbace615a9eeea465bd" target="_top" xlink:title="Searches for the executable path of a command.">
<polygon fill="white" stroke="#666666" points="1531,-283 1448,-283 1448,-264 1531,-264 1531,-283"/>
<text text-anchor="middle" x="1489.5" y="-271" font-family="Helvetica,sans-Serif" font-size="10.00">ft_path_finder</text>
</a>
</g>
</g>
<!-- Node37&#45;&gt;Node39 -->
<g id="edge48_Node000037_Node000039" class="edge">
<title>Node37&#45;&gt;Node39</title>
<g id="a_edge48_Node000037_Node000039"><a xlink:title=" ">
<path fill="none" stroke="#63b8ff" d="M1595.83,-248.36C1574.74,-253.39 1550.47,-259.18 1530.55,-263.94"/>
<polygon fill="#63b8ff" stroke="#63b8ff" points="1596.67,-251.75 1605.58,-246.03 1595.04,-244.95 1596.67,-251.75"/>
</a>
</g>
</g>
<!-- Node38&#45;&gt;Node14 -->
<g id="edge47_Node000038_Node000014" class="edge">
<title>Node38&#45;&gt;Node14</title>
<g id="a_edge47_Node000038_Node000014"><a xlink:title=" ">
<path fill="none" stroke="#63b8ff" d="M1430.03,-236.5C1403.33,-236.5 1372.85,-236.5 1350.92,-236.5"/>
<polygon fill="#63b8ff" stroke="#63b8ff" points="1430.05,-240 1440.05,-236.5 1430.05,-233 1430.05,-240"/>
</a>
</g>
</g>
<!-- Node40 -->
<g id="Node000040" class="node">
<title>Node40</title>
<g id="a_Node000040"><a xlink:href="system__commands_8c.html#a6d8647dce4277e848c613bd0cc3df5bb" target="_top" xlink:title="Executes a system command by creating a child process.">
<polygon fill="white" stroke="#666666" points="1364.5,-357 1275.5,-357 1275.5,-338 1364.5,-338 1364.5,-357"/>
<text text-anchor="middle" x="1320" y="-345" font-family="Helvetica,sans-Serif" font-size="10.00">ft_exe_syscmd</text>
</a>
</g>
</g>
<!-- Node39&#45;&gt;Node40 -->
<g id="edge49_Node000039_Node000040" class="edge">
<title>Node39&#45;&gt;Node40</title>
<g id="a_edge49_Node000039_Node000040"><a xlink:title=" ">
<path fill="none" stroke="#63b8ff" d="M1438.31,-285.1C1432.97,-287.2 1427.76,-289.64 1423,-292.5 1403.33,-304.31 1406.77,-317.85 1387,-329.5 1380.15,-333.54 1372.36,-336.7 1364.59,-339.16"/>
<polygon fill="#63b8ff" stroke="#63b8ff" points="1439.71,-288.32 1447.99,-281.71 1437.39,-281.71 1439.71,-288.32"/>
</a>
</g>
</g>
<!-- Node41 -->
<g id="Node000041" class="node">
<title>Node41</title>
<g id="a_Node000041"><a xlink:href="pipes_8c.html#ac1cb08fe66e7823c939af4fab981e93c" target="_top" xlink:title="Executes a system command inside a pipe.">
<polygon fill="white" stroke="#666666" points="1384.5,-283 1255.5,-283 1255.5,-264 1384.5,-264 1384.5,-283"/>
<text text-anchor="middle" x="1320" y="-271" font-family="Helvetica,sans-Serif" font-size="10.00">ft_exe_syscmd_in_pipe</text>
</a>
</g>
</g>
<!-- Node39&#45;&gt;Node41 -->
<g id="edge51_Node000039_Node000041" class="edge">
<title>Node39&#45;&gt;Node41</title>
<g id="a_edge51_Node000039_Node000041"><a xlink:title=" ">
<path fill="none" stroke="#63b8ff" d="M1437.84,-273.5C1421.11,-273.5 1402.28,-273.5 1384.7,-273.5"/>
<polygon fill="#63b8ff" stroke="#63b8ff" points="1437.95,-277 1447.95,-273.5 1437.95,-270 1437.95,-277"/>
</a>
</g>
</g>
<!-- Node40&#45;&gt;Node31 -->
<g id="edge50_Node000040_Node000031" class="edge">
<title>Node40&#45;&gt;Node31</title>
<g id="a_edge50_Node000040_Node000031"><a xlink:title=" ">
<path fill="none" stroke="#63b8ff" d="M1270.4,-335.51C1248.82,-330.19 1223.9,-324.04 1204.16,-319.17"/>
<polygon fill="#63b8ff" stroke="#63b8ff" points="1269.82,-338.97 1280.37,-337.97 1271.5,-332.18 1269.82,-338.97"/>
</a>
</g>
</g>
<!-- Node41&#45;&gt;Node32 -->
<g id="edge52_Node000041_Node000032" class="edge">
<title>Node41&#45;&gt;Node32</title>
<g id="a_edge52_Node000041_Node000032"><a xlink:title=" ">
<path fill="none" stroke="#63b8ff" d="M1245.14,-273.5C1235.66,-273.5 1226.16,-273.5 1217.23,-273.5"/>
<polygon fill="#63b8ff" stroke="#63b8ff" points="1245.39,-277 1255.39,-273.5 1245.39,-270 1245.39,-277"/>
</a>
</g>
</g>
</g>
</svg>
