<?xml version="1.0" encoding="UTF-8" standalone="no"?>
<!DOCTYPE svg PUBLIC "-//W3C//DTD SVG 1.1//EN"
 "http://www.w3.org/Graphics/SVG/1.1/DTD/svg11.dtd">
<!-- Generated by graphviz version 2.43.0 (0)
 -->
<!-- Title: ft_env_var_flow Pages: 1 -->
<svg width="652pt" height="480pt"
 viewBox="0.00 0.00 652.00 480.00" xmlns="http://www.w3.org/2000/svg" xmlns:xlink="http://www.w3.org/1999/xlink">
<g id="graph0" class="graph" transform="scale(1 1) rotate(0) translate(4 476)">
<title>ft_env_var_flow</title>
<!-- Node1 -->
<g id="Node000001" class="node">
<title>Node1</title>
<g id="a_Node000001"><a xlink:title="Handles printing of a single environment variable.">
<polygon fill="#999999" stroke="#666666" points="93,-186 0,-186 0,-167 93,-167 93,-186"/>
<text text-anchor="middle" x="46.5" y="-174" font-family="Helvetica,sans-Serif" font-size="10.00">ft_env_var_flow</text>
</a>
</g>
</g>
<!-- Node2 -->
<g id="Node000002" class="node">
<title>Node2</title>
<g id="a_Node000002"><a xlink:href="utils__env_8c.html#a78e10627f49df6e904925e22ae6ee15f" target="_top" xlink:title="Performs environment variable expansion in a string.">
<polygon fill="white" stroke="#666666" points="233,-305 129,-305 129,-286 233,-286 233,-305"/>
<text text-anchor="middle" x="181" y="-293" font-family="Helvetica,sans-Serif" font-size="10.00">ft_expand_envvar</text>
</a>
</g>
</g>
<!-- Node1&#45;&gt;Node2 -->
<g id="edge1_Node000001_Node000002" class="edge">
<title>Node1&#45;&gt;Node2</title>
<g id="a_edge1_Node000001_Node000002"><a xlink:title=" ">
<path fill="none" stroke="#63b8ff" d="M58.34,-186.24C81.07,-206.65 133.9,-254.1 161.87,-279.22"/>
<polygon fill="#63b8ff" stroke="#63b8ff" points="159.6,-281.88 169.38,-285.96 164.28,-276.67 159.6,-281.88"/>
</a>
</g>
</g>
<!-- Node16 -->
<g id="Node000016" class="node">
<title>Node16</title>
<g id="a_Node000016"><a xlink:href="ft__printf_8c.html#a091532b7f37af84bdecc84dccf4eedb1" target="_top" xlink:title="A simplified printf function that outputs formatted data to a given file descriptor.">
<polygon fill="white" stroke="#666666" points="208.5,-112 153.5,-112 153.5,-93 208.5,-93 208.5,-112"/>
<text text-anchor="middle" x="181" y="-100" font-family="Helvetica,sans-Serif" font-size="10.00">ft_printf</text>
</a>
</g>
</g>
<!-- Node1&#45;&gt;Node16 -->
<g id="edge20_Node000001_Node000016" class="edge">
<title>Node1&#45;&gt;Node16</title>
<g id="a_edge20_Node000001_Node000016"><a xlink:title=" ">
<path fill="none" stroke="#63b8ff" d="M64.55,-166.98C87.18,-154.34 127.37,-131.89 153.85,-117.1"/>
<polygon fill="#63b8ff" stroke="#63b8ff" points="155.57,-120.15 162.59,-112.22 152.16,-114.04 155.57,-120.15"/>
</a>
</g>
</g>
<!-- Node3 -->
<g id="Node000003" class="node">
<title>Node3</title>
<g id="a_Node000003"><a xlink:href="utils__env_8c.html#a4ea711c91d64ff7669bf6ac7e6b6b9dd" target="_top" xlink:title="Expands an environment variable found in a string.">
<polygon fill="white" stroke="#666666" points="343,-379 278,-379 278,-360 343,-360 343,-379"/>
<text text-anchor="middle" x="310.5" y="-367" font-family="Helvetica,sans-Serif" font-size="10.00">ft_expand</text>
</a>
</g>
</g>
<!-- Node2&#45;&gt;Node3 -->
<g id="edge2_Node000002_Node000003" class="edge">
<title>Node2&#45;&gt;Node3</title>
<g id="a_edge2_Node000002_Node000003"><a xlink:title=" ">
<path fill="none" stroke="#63b8ff" d="M198.41,-305.02C220.09,-317.61 258.52,-339.91 284,-354.7"/>
<polygon fill="#63b8ff" stroke="#63b8ff" points="282.34,-357.79 292.75,-359.78 285.86,-351.73 282.34,-357.79"/>
</a>
</g>
</g>
<!-- Node12 -->
<g id="Node000012" class="node">
<title>Node12</title>
<g id="a_Node000012"><a xlink:href="ft__strdup_8c.html#aebe73f27c70c56ac5053f860ef5436c9" target="_top" xlink:title="Duplicates a null&#45;terminated string by allocating memory.">
<polygon fill="white" stroke="#666666" points="618.5,-286 559.5,-286 559.5,-267 618.5,-267 618.5,-286"/>
<text text-anchor="middle" x="589" y="-274" font-family="Helvetica,sans-Serif" font-size="10.00">ft_strdup</text>
</a>
</g>
</g>
<!-- Node2&#45;&gt;Node12 -->
<g id="edge19_Node000002_Node000012" class="edge">
<title>Node2&#45;&gt;Node12</title>
<g id="a_edge19_Node000002_Node000012"><a xlink:title=" ">
<path fill="none" stroke="#63b8ff" d="M233.01,-293.11C315.22,-289.27 475.25,-281.78 549.03,-278.32"/>
<polygon fill="#63b8ff" stroke="#63b8ff" points="549.44,-281.81 559.27,-277.84 549.12,-274.82 549.44,-281.81"/>
</a>
</g>
</g>
<!-- Node15 -->
<g id="Node000015" class="node">
<title>Node15</title>
<g id="a_Node000015"><a xlink:href="utils__env_8c.html#a3323d2c2586349772b23a3eaf1a241c3" target="_top" xlink:title="Concatenates a literal part (non&#45;variable) of the string to the result.">
<polygon fill="white" stroke="#666666" points="349.5,-324 271.5,-324 271.5,-305 349.5,-305 349.5,-324"/>
<text text-anchor="middle" x="310.5" y="-312" font-family="Helvetica,sans-Serif" font-size="10.00">ft_merge_str</text>
</a>
</g>
</g>
<!-- Node2&#45;&gt;Node15 -->
<g id="edge16_Node000002_Node000015" class="edge">
<title>Node2&#45;&gt;Node15</title>
<g id="a_edge16_Node000002_Node000015"><a xlink:title=" ">
<path fill="none" stroke="#63b8ff" d="M233.12,-303.12C242.39,-304.5 252.02,-305.93 261.2,-307.3"/>
<polygon fill="#63b8ff" stroke="#63b8ff" points="260.91,-310.8 271.32,-308.81 261.95,-303.87 260.91,-310.8"/>
</a>
</g>
</g>
<!-- Node4 -->
<g id="Node000004" class="node">
<title>Node4</title>
<g id="a_Node000004"><a xlink:href="utils__env__pt2_8c.html#afac58c53fe53bc538ba19b53efec42e4" target="_top" xlink:title="Finds the value of an environment variable given its name key.">
<polygon fill="white" stroke="#666666" points="493,-472 393,-472 393,-453 493,-453 493,-472"/>
<text text-anchor="middle" x="443" y="-460" font-family="Helvetica,sans-Serif" font-size="10.00">ft_get_env_value</text>
</a>
</g>
</g>
<!-- Node3&#45;&gt;Node4 -->
<g id="edge3_Node000003_Node000004" class="edge">
<title>Node3&#45;&gt;Node4</title>
<g id="a_edge3_Node000003_Node000004"><a xlink:title=" ">
<path fill="none" stroke="#63b8ff" d="M318.91,-379.21C331.47,-395.04 358.48,-426.46 388,-444.5 390.65,-446.12 393.47,-447.62 396.38,-448.99"/>
<polygon fill="#63b8ff" stroke="#63b8ff" points="395.25,-452.32 405.83,-452.99 397.98,-445.87 395.25,-452.32"/>
</a>
</g>
</g>
<!-- Node7 -->
<g id="Node000007" class="node">
<title>Node7</title>
<g id="a_Node000007"><a xlink:href="ft__isalnum_8c.html#a9c2c3821ea43ebdf97de07b123503f8b" target="_top" xlink:title="Checks whether a character is alphanumeric.">
<polygon fill="white" stroke="#666666" points="477,-435 409,-435 409,-416 477,-416 477,-435"/>
<text text-anchor="middle" x="443" y="-423" font-family="Helvetica,sans-Serif" font-size="10.00">ft_isalnum</text>
</a>
</g>
</g>
<!-- Node3&#45;&gt;Node7 -->
<g id="edge6_Node000003_Node000007" class="edge">
<title>Node3&#45;&gt;Node7</title>
<g id="a_edge6_Node000003_Node000007"><a xlink:title=" ">
<path fill="none" stroke="#63b8ff" d="M329.1,-379.12C344.4,-387.27 367.3,-398.96 388,-407.5 392.22,-409.24 396.69,-410.94 401.16,-412.56"/>
<polygon fill="#63b8ff" stroke="#63b8ff" points="400.29,-415.97 410.89,-415.95 402.6,-409.36 400.29,-415.97"/>
</a>
</g>
</g>
<!-- Node8 -->
<g id="Node000008" class="node">
<title>Node8</title>
<g id="a_Node000008"><a xlink:href="ft__isdigit_8c.html#a2cf15b8a1a277d1e2ce3654101a2003d" target="_top" xlink:title="Checks whether a character is a decimal digit.">
<polygon fill="white" stroke="#666666" points="472.5,-398 413.5,-398 413.5,-379 472.5,-379 472.5,-398"/>
<text text-anchor="middle" x="443" y="-386" font-family="Helvetica,sans-Serif" font-size="10.00">ft_isdigit</text>
</a>
</g>
</g>
<!-- Node3&#45;&gt;Node8 -->
<g id="edge7_Node000003_Node000008" class="edge">
<title>Node3&#45;&gt;Node8</title>
<g id="a_edge7_Node000003_Node000008"><a xlink:title=" ">
<path fill="none" stroke="#63b8ff" d="M343.09,-374.1C361.25,-376.74 384.2,-380.08 403.42,-382.88"/>
<polygon fill="#63b8ff" stroke="#63b8ff" points="402.97,-386.35 413.37,-384.33 403.98,-379.43 402.97,-386.35"/>
</a>
</g>
</g>
<!-- Node9 -->
<g id="Node000009" class="node">
<title>Node9</title>
<g id="a_Node000009"><a xlink:href="ft__strjoin_8c.html#a91e6e3e428bcc9f2291b700e1829b82b" target="_top" xlink:title="Concatenates two strings into a newly allocated string.">
<polygon fill="white" stroke="#666666" points="472.5,-361 413.5,-361 413.5,-342 472.5,-342 472.5,-361"/>
<text text-anchor="middle" x="443" y="-349" font-family="Helvetica,sans-Serif" font-size="10.00">ft_strjoin</text>
</a>
</g>
</g>
<!-- Node3&#45;&gt;Node9 -->
<g id="edge8_Node000003_Node000009" class="edge">
<title>Node3&#45;&gt;Node9</title>
<g id="a_edge8_Node000003_Node000009"><a xlink:title=" ">
<path fill="none" stroke="#63b8ff" d="M343.09,-365.14C361.25,-362.64 384.2,-359.47 403.42,-356.82"/>
<polygon fill="#63b8ff" stroke="#63b8ff" points="403.94,-360.28 413.37,-355.45 402.99,-353.35 403.94,-360.28"/>
</a>
</g>
</g>
<!-- Node11 -->
<g id="Node000011" class="node">
<title>Node11</title>
<g id="a_Node000011"><a xlink:href="ft__substr_8c.html#a78c402cbf3d55b1374693c3b7d34f71d" target="_top" xlink:title="Extracts a substring from a given string.">
<polygon fill="white" stroke="#666666" points="472.5,-324 413.5,-324 413.5,-305 472.5,-305 472.5,-324"/>
<text text-anchor="middle" x="443" y="-312" font-family="Helvetica,sans-Serif" font-size="10.00">ft_substr</text>
</a>
</g>
</g>
<!-- Node3&#45;&gt;Node11 -->
<g id="edge11_Node000003_Node000011" class="edge">
<title>Node3&#45;&gt;Node11</title>
<g id="a_edge11_Node000003_Node000011"><a xlink:title=" ">
<path fill="none" stroke="#63b8ff" d="M330.44,-359.93C345.77,-352.34 368.04,-341.69 388,-333.5 393.12,-331.4 398.56,-329.32 403.94,-327.34"/>
<polygon fill="#63b8ff" stroke="#63b8ff" points="405.26,-330.59 413.49,-323.92 402.9,-324 405.26,-330.59"/>
</a>
</g>
</g>
<!-- Node5 -->
<g id="Node000005" class="node">
<title>Node5</title>
<g id="a_Node000005"><a xlink:href="ft__strlen_8c.html#a828402378653640f545a4be2e00e92f9" target="_top" xlink:title="Calculates the length of a null&#45;terminated string.">
<polygon fill="white" stroke="#666666" points="617,-434 561,-434 561,-415 617,-415 617,-434"/>
<text text-anchor="middle" x="589" y="-422" font-family="Helvetica,sans-Serif" font-size="10.00">ft_strlen</text>
</a>
</g>
</g>
<!-- Node4&#45;&gt;Node5 -->
<g id="edge4_Node000004_Node000005" class="edge">
<title>Node4&#45;&gt;Node5</title>
<g id="a_edge4_Node000004_Node000005"><a xlink:title=" ">
<path fill="none" stroke="#63b8ff" d="M480.34,-452.91C501.92,-447.22 529.21,-440.01 550.92,-434.29"/>
<polygon fill="#63b8ff" stroke="#63b8ff" points="551.99,-437.62 560.77,-431.69 550.2,-430.85 551.99,-437.62"/>
</a>
</g>
</g>
<!-- Node6 -->
<g id="Node000006" class="node">
<title>Node6</title>
<g id="a_Node000006"><a xlink:href="ft__strncmp_8c.html#a9d2fe792187aa4ed08e5864fb2c4d6dc" target="_top" xlink:title="Compares up to n characters of two strings.">
<polygon fill="white" stroke="#666666" points="623,-472 555,-472 555,-453 623,-453 623,-472"/>
<text text-anchor="middle" x="589" y="-460" font-family="Helvetica,sans-Serif" font-size="10.00">ft_strncmp</text>
</a>
</g>
</g>
<!-- Node4&#45;&gt;Node6 -->
<g id="edge5_Node000004_Node000006" class="edge">
<title>Node4&#45;&gt;Node6</title>
<g id="a_edge5_Node000004_Node000006"><a xlink:title=" ">
<path fill="none" stroke="#63b8ff" d="M493.15,-462.5C509.86,-462.5 528.4,-462.5 544.63,-462.5"/>
<polygon fill="#63b8ff" stroke="#63b8ff" points="544.91,-466 554.91,-462.5 544.91,-459 544.91,-466"/>
</a>
</g>
</g>
<!-- Node9&#45;&gt;Node5 -->
<g id="edge10_Node000009_Node000005" class="edge">
<title>Node9&#45;&gt;Node5</title>
<g id="a_edge10_Node000009_Node000005"><a xlink:title=" ">
<path fill="none" stroke="#63b8ff" d="M472.56,-358.9C481.11,-361.8 490.26,-365.63 498,-370.5 517.15,-382.56 514.75,-394.6 534,-406.5 539.22,-409.73 545.09,-412.45 550.99,-414.72"/>
<polygon fill="#63b8ff" stroke="#63b8ff" points="550.22,-418.16 560.82,-418.13 552.52,-411.55 550.22,-418.16"/>
</a>
</g>
</g>
<!-- Node10 -->
<g id="Node000010" class="node">
<title>Node10</title>
<g id="a_Node000010"><a xlink:href="ft__memcpy_8c.html#a41a6f05af30cf85ff63a08e383826322" target="_top" xlink:title="Copies &#39;n&#39; bytes from memory area &#39;src&#39; to memory area &#39;dest&#39;.">
<polygon fill="white" stroke="#666666" points="624.5,-397 553.5,-397 553.5,-378 624.5,-378 624.5,-397"/>
<text text-anchor="middle" x="589" y="-385" font-family="Helvetica,sans-Serif" font-size="10.00">ft_memcpy</text>
</a>
</g>
</g>
<!-- Node9&#45;&gt;Node10 -->
<g id="edge9_Node000009_Node000010" class="edge">
<title>Node9&#45;&gt;Node10</title>
<g id="a_edge9_Node000009_Node000010"><a xlink:title=" ">
<path fill="none" stroke="#63b8ff" d="M472.79,-358.7C493.03,-363.76 520.48,-370.62 543.52,-376.38"/>
<polygon fill="#63b8ff" stroke="#63b8ff" points="542.87,-379.82 553.42,-378.85 544.56,-373.03 542.87,-379.82"/>
</a>
</g>
</g>
<!-- Node11&#45;&gt;Node5 -->
<g id="edge14_Node000011_Node000005" class="edge">
<title>Node11&#45;&gt;Node5</title>
<g id="a_edge14_Node000011_Node000005"><a xlink:title=" ">
<path fill="none" stroke="#63b8ff" d="M472.55,-320.07C481.48,-322.92 490.86,-327.17 498,-333.5 525.07,-357.5 506.74,-382.72 534,-406.5 538.94,-410.81 544.94,-414.09 551.12,-416.59"/>
<polygon fill="#63b8ff" stroke="#63b8ff" points="550.26,-419.99 560.86,-419.91 552.52,-413.37 550.26,-419.99"/>
</a>
</g>
</g>
<!-- Node11&#45;&gt;Node12 -->
<g id="edge12_Node000011_Node000012" class="edge">
<title>Node11&#45;&gt;Node12</title>
<g id="a_edge12_Node000011_Node000012"><a xlink:title=" ">
<path fill="none" stroke="#63b8ff" d="M472.79,-306.9C494.77,-301.1 525.27,-293.05 549.36,-286.7"/>
<polygon fill="#63b8ff" stroke="#63b8ff" points="550.48,-290.02 559.26,-284.09 548.69,-283.25 550.48,-290.02"/>
</a>
</g>
</g>
<!-- Node13 -->
<g id="Node000013" class="node">
<title>Node13</title>
<g id="a_Node000013"><a xlink:href="ft__strlcpy_8c.html#aa053827b3a2ea3d0118783d6fb59d178" target="_top" xlink:title="Copies up to size &#45; 1 characters from the string src to dst, null&#45;terminating the result.">
<polygon fill="white" stroke="#666666" points="620,-360 558,-360 558,-341 620,-341 620,-360"/>
<text text-anchor="middle" x="589" y="-348" font-family="Helvetica,sans-Serif" font-size="10.00">ft_strlcpy</text>
</a>
</g>
</g>
<!-- Node11&#45;&gt;Node13 -->
<g id="edge13_Node000011_Node000013" class="edge">
<title>Node11&#45;&gt;Node13</title>
<g id="a_edge13_Node000011_Node000013"><a xlink:title=" ">
<path fill="none" stroke="#63b8ff" d="M472.79,-321.7C494.34,-327.08 524.07,-334.52 547.94,-340.48"/>
<polygon fill="#63b8ff" stroke="#63b8ff" points="547.22,-343.91 557.77,-342.94 548.91,-337.12 547.22,-343.91"/>
</a>
</g>
</g>
<!-- Node14 -->
<g id="Node000014" class="node">
<title>Node14</title>
<g id="a_Node000014"><a xlink:href="ft__strlcat_8c.html#a3ab017dd491d7327d1b4acbf1398b91e" target="_top" xlink:title="Returns the length of a null&#45;terminated string.">
<polygon fill="white" stroke="#666666" points="605,-323 573,-323 573,-304 605,-304 605,-323"/>
<text text-anchor="middle" x="589" y="-311" font-family="Helvetica,sans-Serif" font-size="10.00">len</text>
</a>
</g>
</g>
<!-- Node11&#45;&gt;Node14 -->
<g id="edge15_Node000011_Node000014" class="edge">
<title>Node11&#45;&gt;Node14</title>
<g id="a_edge15_Node000011_Node000014"><a xlink:title=" ">
<path fill="none" stroke="#63b8ff" d="M472.79,-314.3C499.1,-314.12 537.63,-313.85 562.76,-313.68"/>
<polygon fill="#63b8ff" stroke="#63b8ff" points="562.98,-317.17 572.95,-313.6 562.93,-310.17 562.98,-317.17"/>
</a>
</g>
</g>
<!-- Node15&#45;&gt;Node9 -->
<g id="edge17_Node000015_Node000009" class="edge">
<title>Node15&#45;&gt;Node9</title>
<g id="a_edge17_Node000015_Node000009"><a xlink:title=" ">
<path fill="none" stroke="#63b8ff" d="M345.11,-324.03C363.03,-329.11 385.16,-335.38 403.74,-340.65"/>
<polygon fill="#63b8ff" stroke="#63b8ff" points="402.8,-344.02 413.37,-343.38 404.71,-337.29 402.8,-344.02"/>
</a>
</g>
</g>
<!-- Node15&#45;&gt;Node11 -->
<g id="edge18_Node000015_Node000011" class="edge">
<title>Node15&#45;&gt;Node11</title>
<g id="a_edge18_Node000015_Node000011"><a xlink:title=" ">
<path fill="none" stroke="#63b8ff" d="M349.6,-314.5C366.42,-314.5 386.17,-314.5 403.08,-314.5"/>
<polygon fill="#63b8ff" stroke="#63b8ff" points="403.2,-318 413.2,-314.5 403.2,-311 403.2,-318"/>
</a>
</g>
</g>
<!-- Node17 -->
<g id="Node000017" class="node">
<title>Node17</title>
<g id="a_Node000017"><a xlink:href="ft__printf_8c.html#a80c1c206dcd33d07c265581878aaa300" target="_top" xlink:title="Processes a single format specifier and prints the corresponding argument.">
<polygon fill="white" stroke="#666666" points="352,-112 269,-112 269,-93 352,-93 352,-112"/>
<text text-anchor="middle" x="310.5" y="-100" font-family="Helvetica,sans-Serif" font-size="10.00">check_format</text>
</a>
</g>
</g>
<!-- Node16&#45;&gt;Node17 -->
<g id="edge21_Node000016_Node000017" class="edge">
<title>Node16&#45;&gt;Node17</title>
<g id="a_edge21_Node000016_Node000017"><a xlink:title=" ">
<path fill="none" stroke="#63b8ff" d="M208.73,-102.5C223.12,-102.5 241.36,-102.5 258.36,-102.5"/>
<polygon fill="#63b8ff" stroke="#63b8ff" points="258.74,-106 268.74,-102.5 258.74,-99 258.74,-106"/>
</a>
</g>
</g>
<!-- Node21 -->
<g id="Node000021" class="node">
<title>Node21</title>
<g id="a_Node000021"><a xlink:href="ft__putchar__fd_8c.html#a03ef80b25dc4a521379fa92ad97bad21" target="_top" xlink:title="Writes a single character to the specified file descriptor.">
<polygon fill="white" stroke="#666666" points="483,-19 403,-19 403,0 483,0 483,-19"/>
<text text-anchor="middle" x="443" y="-7" font-family="Helvetica,sans-Serif" font-size="10.00">ft_putchar_fd</text>
</a>
</g>
</g>
<!-- Node16&#45;&gt;Node21 -->
<g id="edge34_Node000016_Node000021" class="edge">
<title>Node16&#45;&gt;Node21</title>
<g id="a_edge34_Node000016_Node000021"><a xlink:title=" ">
<path fill="none" stroke="#63b8ff" d="M208.32,-92.98C247.47,-78.84 323.37,-51.48 388,-28.5 393.58,-26.52 399.49,-24.43 405.27,-22.39"/>
<polygon fill="#63b8ff" stroke="#63b8ff" points="406.52,-25.66 414.79,-19.03 404.2,-19.05 406.52,-25.66"/>
</a>
</g>
</g>
<!-- Node18 -->
<g id="Node000018" class="node">
<title>Node18</title>
<g id="a_Node000018"><a xlink:href="ft__forpointer_8c.html#a8e02c77b80406af72327ebf71f537786" target="_top" xlink:title="Prints a pointer in hexadecimal format prefixed with &quot;0x&quot;.">
<polygon fill="white" stroke="#666666" points="481.5,-240 404.5,-240 404.5,-221 481.5,-221 481.5,-240"/>
<text text-anchor="middle" x="443" y="-228" font-family="Helvetica,sans-Serif" font-size="10.00">ft_forpointer</text>
</a>
</g>
</g>
<!-- Node17&#45;&gt;Node18 -->
<g id="edge22_Node000017_Node000018" class="edge">
<title>Node17&#45;&gt;Node18</title>
<g id="a_edge22_Node000017_Node000018"><a xlink:title=" ">
<path fill="none" stroke="#63b8ff" d="M315.68,-112.31C325.27,-133.68 350.94,-184.77 388,-212.5 390.3,-214.22 392.77,-215.78 395.35,-217.2"/>
<polygon fill="#63b8ff" stroke="#63b8ff" points="393.88,-220.38 404.42,-221.48 396.87,-214.05 393.88,-220.38"/>
</a>
</g>
</g>
<!-- Node20 -->
<g id="Node000020" class="node">
<title>Node20</title>
<g id="a_Node000020"><a xlink:href="ft__hexadecimal_8c.html#a39c845e0a4286d3ac1e04c1e64ac734b" target="_top" xlink:title="Prints an unsigned integer in hexadecimal format.">
<polygon fill="white" stroke="#666666" points="489,-185 397,-185 397,-166 489,-166 489,-185"/>
<text text-anchor="middle" x="443" y="-173" font-family="Helvetica,sans-Serif" font-size="10.00">ft_hexadecimal</text>
</a>
</g>
</g>
<!-- Node17&#45;&gt;Node20 -->
<g id="edge25_Node000017_Node000020" class="edge">
<title>Node17&#45;&gt;Node20</title>
<g id="a_edge25_Node000017_Node000020"><a xlink:title=" ">
<path fill="none" stroke="#63b8ff" d="M322.71,-112.24C337.03,-124.27 362.95,-144.69 388,-157.5 391.37,-159.22 394.93,-160.83 398.56,-162.32"/>
<polygon fill="#63b8ff" stroke="#63b8ff" points="397.64,-165.71 408.23,-165.99 400.12,-159.17 397.64,-165.71"/>
</a>
</g>
</g>
<!-- Node17&#45;&gt;Node21 -->
<g id="edge27_Node000017_Node000021" class="edge">
<title>Node17&#45;&gt;Node21</title>
<g id="a_edge27_Node000017_Node000021"><a xlink:title=" ">
<path fill="none" stroke="#63b8ff" d="M318.97,-92.98C331.63,-77.45 358.76,-46.57 388,-28.5 391.33,-26.44 394.91,-24.57 398.59,-22.87"/>
<polygon fill="#63b8ff" stroke="#63b8ff" points="399.97,-26.09 407.85,-19.01 397.27,-19.63 399.97,-26.09"/>
</a>
</g>
</g>
<!-- Node22 -->
<g id="Node000022" class="node">
<title>Node22</title>
<g id="a_Node000022"><a xlink:href="ft__putnbr__fd_8c.html#a1554101ee350c316340c78e19faddaa8" target="_top" xlink:title="Writes an integer to a given file descriptor.">
<polygon fill="white" stroke="#666666" points="480.5,-130 405.5,-130 405.5,-111 480.5,-111 480.5,-130"/>
<text text-anchor="middle" x="443" y="-118" font-family="Helvetica,sans-Serif" font-size="10.00">ft_putnbr_fd</text>
</a>
</g>
</g>
<!-- Node17&#45;&gt;Node22 -->
<g id="edge28_Node000017_Node000022" class="edge">
<title>Node17&#45;&gt;Node22</title>
<g id="a_edge28_Node000017_Node000022"><a xlink:title=" ">
<path fill="none" stroke="#63b8ff" d="M352.08,-108.1C365.8,-109.99 381.24,-112.12 395.4,-114.07"/>
<polygon fill="#63b8ff" stroke="#63b8ff" points="395.05,-117.56 405.44,-115.46 396.01,-110.62 395.05,-117.56"/>
</a>
</g>
</g>
<!-- Node23 -->
<g id="Node000023" class="node">
<title>Node23</title>
<g id="a_Node000023"><a xlink:href="ft__putstr__fd_8c.html#a00b0638f31a75c7a30f77f33888bfb73" target="_top" xlink:title="Writes a null&#45;terminated string to the specified file descriptor.">
<polygon fill="white" stroke="#666666" points="479,-93 407,-93 407,-74 479,-74 479,-93"/>
<text text-anchor="middle" x="443" y="-81" font-family="Helvetica,sans-Serif" font-size="10.00">ft_putstr_fd</text>
</a>
</g>
</g>
<!-- Node17&#45;&gt;Node23 -->
<g id="edge30_Node000017_Node000023" class="edge">
<title>Node17&#45;&gt;Node23</title>
<g id="a_edge30_Node000017_Node000023"><a xlink:title=" ">
<path fill="none" stroke="#63b8ff" d="M352.08,-96.59C366.16,-94.54 382.05,-92.23 396.51,-90.12"/>
<polygon fill="#63b8ff" stroke="#63b8ff" points="397.35,-93.54 406.74,-88.63 396.34,-86.61 397.35,-93.54"/>
</a>
</g>
</g>
<!-- Node24 -->
<g id="Node000024" class="node">
<title>Node24</title>
<g id="a_Node000024"><a xlink:href="ft__unsigned__putnbr_8c.html#af9a70f8607b40cf2a7706f9d3725b549" target="_top" xlink:title="Writes an unsigned integer to the given file descriptor.">
<polygon fill="white" stroke="#666666" points="498,-56 388,-56 388,-37 498,-37 498,-56"/>
<text text-anchor="middle" x="443" y="-44" font-family="Helvetica,sans-Serif" font-size="10.00">ft_unsigned_putnbr</text>
</a>
</g>
</g>
<!-- Node17&#45;&gt;Node24 -->
<g id="edge31_Node000017_Node000024" class="edge">
<title>Node17&#45;&gt;Node24</title>
<g id="a_edge31_Node000017_Node000024"><a xlink:title=" ">
<path fill="none" stroke="#63b8ff" d="M329.79,-92.94C345.12,-85.1 367.71,-73.95 388,-65.5 392.86,-63.48 398.03,-61.47 403.16,-59.57"/>
<polygon fill="#63b8ff" stroke="#63b8ff" points="404.69,-62.75 412.91,-56.06 402.31,-56.16 404.69,-62.75"/>
</a>
</g>
</g>
<!-- Node19 -->
<g id="Node000019" class="node">
<title>Node19</title>
<g id="a_Node000019"><a xlink:href="ft__forpointer_8c.html#aded1bf735c8a10e47396170d27c5b6aa" target="_top" xlink:title="Recursively prints a memory address in hexadecimal format.">
<polygon fill="white" stroke="#666666" points="644,-231 534,-231 534,-212 644,-212 644,-231"/>
<text text-anchor="middle" x="589" y="-219" font-family="Helvetica,sans-Serif" font-size="10.00">ft_ricorsive_pointer</text>
</a>
</g>
</g>
<!-- Node18&#45;&gt;Node19 -->
<g id="edge23_Node000018_Node000019" class="edge">
<title>Node18&#45;&gt;Node19</title>
<g id="a_edge23_Node000018_Node000019"><a xlink:title=" ">
<path fill="none" stroke="#63b8ff" d="M481.83,-228.14C494.64,-227.33 509.33,-226.42 523.61,-225.52"/>
<polygon fill="#63b8ff" stroke="#63b8ff" points="524.14,-229 533.9,-224.88 523.7,-222.01 524.14,-229"/>
</a>
</g>
</g>
<!-- Node19&#45;&gt;Node19 -->
<g id="edge24_Node000019_Node000019" class="edge">
<title>Node19&#45;&gt;Node19</title>
<g id="a_edge24_Node000019_Node000019"><a xlink:title=" ">
<path fill="none" stroke="#63b8ff" d="M566.5,-231.08C555.55,-239.73 563.05,-249 589,-249 605.62,-249 614.68,-245.2 616.16,-240.19"/>
<polygon fill="#63b8ff" stroke="#63b8ff" points="619.17,-238.39 611.5,-231.08 612.94,-241.58 619.17,-238.39"/>
</a>
</g>
</g>
<!-- Node20&#45;&gt;Node20 -->
<g id="edge26_Node000020_Node000020" class="edge">
<title>Node20&#45;&gt;Node20</title>
<g id="a_edge26_Node000020_Node000020"><a xlink:title=" ">
<path fill="none" stroke="#63b8ff" d="M422.65,-185.08C412.76,-193.73 419.54,-203 443,-203 458.03,-203 466.21,-199.2 467.55,-194.19"/>
<polygon fill="#63b8ff" stroke="#63b8ff" points="470.72,-192.69 463.35,-185.08 464.36,-195.63 470.72,-192.69"/>
</a>
</g>
</g>
<!-- Node22&#45;&gt;Node22 -->
<g id="edge29_Node000022_Node000022" class="edge">
<title>Node22&#45;&gt;Node22</title>
<g id="a_edge29_Node000022_Node000022"><a xlink:title=" ">
<path fill="none" stroke="#63b8ff" d="M422.65,-130.08C412.76,-138.73 419.54,-148 443,-148 458.03,-148 466.21,-144.2 467.55,-139.19"/>
<polygon fill="#63b8ff" stroke="#63b8ff" points="470.72,-137.69 463.35,-130.08 464.36,-140.63 470.72,-137.69"/>
</a>
</g>
</g>
<!-- Node25 -->
<g id="Node000025" class="node">
<title>Node25</title>
<g id="a_Node000025"><a xlink:href="ft__putnbr_8c.html#a2e51f80c9e46e52f4adf94617fb51ada" target="_top" xlink:title="Writes an integer to the standard output (stdout).">
<polygon fill="white" stroke="#666666" points="619,-56 559,-56 559,-37 619,-37 619,-56"/>
<text text-anchor="middle" x="589" y="-44" font-family="Helvetica,sans-Serif" font-size="10.00">ft_putnbr</text>
</a>
</g>
</g>
<!-- Node24&#45;&gt;Node25 -->
<g id="edge32_Node000024_Node000025" class="edge">
<title>Node24&#45;&gt;Node25</title>
<g id="a_edge32_Node000024_Node000025"><a xlink:title=" ">
<path fill="none" stroke="#63b8ff" d="M498.03,-46.5C514.76,-46.5 532.87,-46.5 548.43,-46.5"/>
<polygon fill="#63b8ff" stroke="#63b8ff" points="548.74,-50 558.74,-46.5 548.74,-43 548.74,-50"/>
</a>
</g>
</g>
<!-- Node25&#45;&gt;Node25 -->
<g id="edge33_Node000025_Node000025" class="edge">
<title>Node25&#45;&gt;Node25</title>
<g id="a_edge33_Node000025_Node000025"><a xlink:title=" ">
<path fill="none" stroke="#63b8ff" d="M566.5,-56.08C555.55,-64.73 563.05,-74 589,-74 605.62,-74 614.68,-70.2 616.16,-65.19"/>
<polygon fill="#63b8ff" stroke="#63b8ff" points="619.17,-63.39 611.5,-56.08 612.94,-66.58 619.17,-63.39"/>
</a>
</g>
</g>
</g>
</svg>
