<?xml version="1.0" encoding="UTF-8" standalone="no"?>
<!DOCTYPE svg PUBLIC "-//W3C//DTD SVG 1.1//EN"
 "http://www.w3.org/Graphics/SVG/1.1/DTD/svg11.dtd">
<!-- Generated by graphviz version 2.43.0 (0)
 -->
<!-- Title: main/main.c Pages: 1 -->
<svg width="1014pt" height="434pt"
 viewBox="0.00 0.00 1013.84 434.00" xmlns="http://www.w3.org/2000/svg" xmlns:xlink="http://www.w3.org/1999/xlink">
<g id="graph0" class="graph" transform="scale(1 1) rotate(0) translate(4 430)">
<title>main/main.c</title>
<!-- Node1 -->
<g id="Node000001" class="node">
<title>Node1</title>
<g id="a_Node000001"><a xlink:title=" ">
<polygon fill="#999999" stroke="#666666" points="558,-426 481,-426 481,-407 558,-407 558,-426"/>
<text text-anchor="middle" x="519.5" y="-414" font-family="Helvetica,sans-Serif" font-size="10.00">main/main.c</text>
</a>
</g>
</g>
<!-- Node2 -->
<g id="Node000002" class="node">
<title>Node2</title>
<g id="a_Node000002"><a xlink:href="minishell_8h.html" target="_top" xlink:title=" ">
<polygon fill="white" stroke="#666666" points="555,-371 484,-371 484,-352 555,-352 555,-371"/>
<text text-anchor="middle" x="519.5" y="-359" font-family="Helvetica,sans-Serif" font-size="10.00">minishell.h</text>
</a>
</g>
</g>
<!-- Node1&#45;&gt;Node2 -->
<g id="edge1_Node000001_Node000002" class="edge">
<title>Node1&#45;&gt;Node2</title>
<g id="a_edge1_Node000001_Node000002"><a xlink:title=" ">
<path fill="none" stroke="#63b8ff" d="M519.5,-406.75C519.5,-399.8 519.5,-389.85 519.5,-381.13"/>
<polygon fill="#63b8ff" stroke="#63b8ff" points="523,-381.09 519.5,-371.09 516,-381.09 523,-381.09"/>
</a>
</g>
</g>
<!-- Node3 -->
<g id="Node000003" class="node">
<title>Node3</title>
<g id="a_Node000003"><a xlink:href="libft_8h.html" target="_top" xlink:title=" ">
<polygon fill="white" stroke="#666666" points="224,-74 149,-74 149,-55 224,-55 224,-74"/>
<text text-anchor="middle" x="186.5" y="-62" font-family="Helvetica,sans-Serif" font-size="10.00">../libft/libft.h</text>
</a>
</g>
</g>
<!-- Node2&#45;&gt;Node3 -->
<g id="edge2_Node000002_Node000003" class="edge">
<title>Node2&#45;&gt;Node3</title>
<g id="a_edge2_Node000002_Node000003"><a xlink:title=" ">
<path fill="none" stroke="#63b8ff" d="M483.97,-357.67C388.66,-349.1 134.5,-319.47 134.5,-247 134.5,-247 134.5,-247 134.5,-184.5 134.5,-145.44 158.32,-104.75 173.71,-82.52"/>
<polygon fill="#63b8ff" stroke="#63b8ff" points="176.71,-84.35 179.7,-74.18 171.02,-80.26 176.71,-84.35"/>
</a>
</g>
</g>
<!-- Node13 -->
<g id="Node000013" class="node">
<title>Node13</title>
<g id="a_Node000013"><a xlink:href="builtin_8h.html" target="_top" xlink:title=" ">
<polygon fill="white" stroke="#666666" points="511,-255.5 412,-255.5 412,-236.5 511,-236.5 511,-255.5"/>
<text text-anchor="middle" x="461.5" y="-243.5" font-family="Helvetica,sans-Serif" font-size="10.00">../builtin/builtin.h</text>
</a>
</g>
</g>
<!-- Node2&#45;&gt;Node13 -->
<g id="edge12_Node000002_Node000013" class="edge">
<title>Node2&#45;&gt;Node13</title>
<g id="a_edge12_Node000002_Node000013"><a xlink:title=" ">
<path fill="none" stroke="#63b8ff" d="M515.14,-351.97C505.69,-333.48 483.17,-289.4 470.52,-264.64"/>
<polygon fill="#63b8ff" stroke="#63b8ff" points="473.58,-262.94 465.91,-255.63 467.34,-266.13 473.58,-262.94"/>
</a>
</g>
</g>
<!-- Node14 -->
<g id="Node000014" class="node">
<title>Node14</title>
<g id="a_Node000014"><a xlink:href="common__utils_8h.html" target="_top" xlink:title=" ">
<polygon fill="white" stroke="#666666" points="613.5,-140 473.5,-140 473.5,-110 613.5,-110 613.5,-140"/>
<text text-anchor="start" x="481.5" y="-128" font-family="Helvetica,sans-Serif" font-size="10.00">../common_utils/common</text>
<text text-anchor="middle" x="543.5" y="-117" font-family="Helvetica,sans-Serif" font-size="10.00">_utils.h</text>
</a>
</g>
</g>
<!-- Node2&#45;&gt;Node14 -->
<g id="edge31_Node000002_Node000014" class="edge">
<title>Node2&#45;&gt;Node14</title>
<g id="a_edge31_Node000002_Node000014"><a xlink:title=" ">
<path fill="none" stroke="#63b8ff" d="M555.29,-360.87C590.01,-359.08 641.08,-350.26 666.5,-316 691.97,-281.68 745.29,-322.91 628.5,-176 618.19,-163.03 603.52,-152.72 589.27,-144.91"/>
<polygon fill="#63b8ff" stroke="#63b8ff" points="590.5,-141.61 580.01,-140.14 587.3,-147.83 590.5,-141.61"/>
</a>
</g>
</g>
<!-- Node21 -->
<g id="Node000021" class="node">
<title>Node21</title>
<g id="a_Node000021"><a xlink:href="redirections_8h.html" target="_top" xlink:title=" ">
<polygon fill="white" stroke="#666666" points="602,-195 449,-195 449,-176 602,-176 602,-195"/>
<text text-anchor="middle" x="525.5" y="-183" font-family="Helvetica,sans-Serif" font-size="10.00">../redirections/redirections.h</text>
</a>
</g>
</g>
<!-- Node2&#45;&gt;Node21 -->
<g id="edge30_Node000002_Node000021" class="edge">
<title>Node2&#45;&gt;Node21</title>
<g id="a_edge30_Node000002_Node000021"><a xlink:title=" ">
<path fill="none" stroke="#63b8ff" d="M519.81,-351.63C520.74,-324.64 523.55,-243.03 524.84,-205.61"/>
<polygon fill="#63b8ff" stroke="#63b8ff" points="528.36,-205.26 525.2,-195.14 521.36,-205.02 528.36,-205.26"/>
</a>
</g>
</g>
<!-- Node22 -->
<g id="Node000022" class="node">
<title>Node22</title>
<g id="a_Node000022"><a xlink:href="tokens_8h.html" target="_top" xlink:title=" ">
<polygon fill="white" stroke="#666666" points="316.5,-195 214.5,-195 214.5,-176 316.5,-176 316.5,-195"/>
<text text-anchor="middle" x="265.5" y="-183" font-family="Helvetica,sans-Serif" font-size="10.00">../tokens/tokens.h</text>
</a>
</g>
</g>
<!-- Node2&#45;&gt;Node22 -->
<g id="edge28_Node000002_Node000022" class="edge">
<title>Node2&#45;&gt;Node22</title>
<g id="a_edge28_Node000002_Node000022"><a xlink:title=" ">
<path fill="none" stroke="#63b8ff" d="M483.83,-360.5C420.24,-358.32 288.43,-343.52 229.5,-261 216.28,-242.48 233.2,-218.36 248.02,-202.66"/>
<polygon fill="#63b8ff" stroke="#63b8ff" points="250.8,-204.83 255.41,-195.29 245.86,-199.87 250.8,-204.83"/>
</a>
</g>
</g>
<!-- Node23 -->
<g id="Node000023" class="node">
<title>Node23</title>
<g id="a_Node000023"><a xlink:href="command_8h.html" target="_top" xlink:title=" ">
<polygon fill="white" stroke="#666666" points="394,-255.5 239,-255.5 239,-236.5 394,-236.5 394,-255.5"/>
<text text-anchor="middle" x="316.5" y="-243.5" font-family="Helvetica,sans-Serif" font-size="10.00">../command_list/command.h</text>
</a>
</g>
</g>
<!-- Node2&#45;&gt;Node23 -->
<g id="edge32_Node000002_Node000023" class="edge">
<title>Node2&#45;&gt;Node23</title>
<g id="a_edge32_Node000002_Node000023"><a xlink:title=" ">
<path fill="none" stroke="#63b8ff" d="M504.24,-351.97C469.27,-332.41 383.07,-284.22 340.74,-260.56"/>
<polygon fill="#63b8ff" stroke="#63b8ff" points="342.37,-257.46 331.94,-255.63 338.96,-263.57 342.37,-257.46"/>
</a>
</g>
</g>
<!-- Node24 -->
<g id="Node000024" class="node">
<title>Node24</title>
<g id="a_Node000024"><a xlink:href="system__commands_8h.html" target="_top" xlink:title=" ">
<polygon fill="white" stroke="#666666" points="858.5,-261 734.5,-261 734.5,-231 858.5,-231 858.5,-261"/>
<text text-anchor="start" x="742.5" y="-249" font-family="Helvetica,sans-Serif" font-size="10.00">../system_commands</text>
<text text-anchor="middle" x="796.5" y="-238" font-family="Helvetica,sans-Serif" font-size="10.00">/system_commands.h</text>
</a>
</g>
</g>
<!-- Node2&#45;&gt;Node24 -->
<g id="edge36_Node000002_Node000024" class="edge">
<title>Node2&#45;&gt;Node24</title>
<g id="a_edge36_Node000002_Node000024"><a xlink:title=" ">
<path fill="none" stroke="#63b8ff" d="M555.15,-358.16C596.86,-354.2 667.01,-343.68 720.5,-316 743.01,-304.35 763.96,-284.35 778.14,-268.87"/>
<polygon fill="#63b8ff" stroke="#63b8ff" points="780.88,-271.06 784.91,-261.26 775.65,-266.41 780.88,-271.06"/>
</a>
</g>
</g>
<!-- Node25 -->
<g id="Node000025" class="node">
<title>Node25</title>
<g id="a_Node000025"><a xlink:href="pipes_8h.html" target="_top" xlink:title=" ">
<polygon fill="white" stroke="#666666" points="657.5,-316 567.5,-316 567.5,-297 657.5,-297 657.5,-316"/>
<text text-anchor="middle" x="612.5" y="-304" font-family="Helvetica,sans-Serif" font-size="10.00">../pipes/pipes.h</text>
</a>
</g>
</g>
<!-- Node2&#45;&gt;Node25 -->
<g id="edge45_Node000002_Node000025" class="edge">
<title>Node2&#45;&gt;Node25</title>
<g id="a_edge45_Node000002_Node000025"><a xlink:title=" ">
<path fill="none" stroke="#63b8ff" d="M534.44,-351.98C549,-343.69 571.37,-330.94 588.43,-321.22"/>
<polygon fill="#63b8ff" stroke="#63b8ff" points="590.33,-324.16 597.29,-316.17 586.86,-318.08 590.33,-324.16"/>
</a>
</g>
</g>
<!-- Node4 -->
<g id="Node000004" class="node">
<title>Node4</title>
<g id="a_Node000004"><a xlink:title=" ">
<polygon fill="#e0e0e0" stroke="#999999" points="727.5,-19 671.5,-19 671.5,0 727.5,0 727.5,-19"/>
<text text-anchor="middle" x="699.5" y="-7" font-family="Helvetica,sans-Serif" font-size="10.00">unistd.h</text>
</a>
</g>
</g>
<!-- Node3&#45;&gt;Node4 -->
<g id="edge3_Node000003_Node000004" class="edge">
<title>Node3&#45;&gt;Node4</title>
<g id="a_edge3_Node000003_Node000004"><a xlink:title=" ">
<path fill="none" stroke="#63b8ff" d="M224.16,-56.36C227.31,-55.87 230.46,-55.4 233.5,-55 422.75,-29.99 472.81,-47.9 661.5,-19 661.6,-18.98 661.7,-18.97 661.8,-18.95"/>
<polygon fill="#63b8ff" stroke="#63b8ff" points="662.13,-22.45 671.36,-17.24 660.9,-15.56 662.13,-22.45"/>
</a>
</g>
</g>
<!-- Node5 -->
<g id="Node000005" class="node">
<title>Node5</title>
<g id="a_Node000005"><a xlink:title=" ">
<polygon fill="#e0e0e0" stroke="#999999" points="580,-19 527,-19 527,0 580,0 580,-19"/>
<text text-anchor="middle" x="553.5" y="-7" font-family="Helvetica,sans-Serif" font-size="10.00">stdlib.h</text>
</a>
</g>
</g>
<!-- Node3&#45;&gt;Node5 -->
<g id="edge4_Node000003_Node000005" class="edge">
<title>Node3&#45;&gt;Node5</title>
<g id="a_edge4_Node000003_Node000005"><a xlink:title=" ">
<path fill="none" stroke="#63b8ff" d="M224.19,-56.54C227.33,-56.01 230.47,-55.48 233.5,-55 335.91,-38.63 457.32,-22.69 516.86,-15.1"/>
<polygon fill="#63b8ff" stroke="#63b8ff" points="517.42,-18.56 526.9,-13.83 516.53,-11.62 517.42,-18.56"/>
</a>
</g>
</g>
<!-- Node6 -->
<g id="Node000006" class="node">
<title>Node6</title>
<g id="a_Node000006"><a xlink:title=" ">
<polygon fill="#e0e0e0" stroke="#999999" points="53,-19 0,-19 0,0 53,0 53,-19"/>
<text text-anchor="middle" x="26.5" y="-7" font-family="Helvetica,sans-Serif" font-size="10.00">string.h</text>
</a>
</g>
</g>
<!-- Node3&#45;&gt;Node6 -->
<g id="edge5_Node000003_Node000006" class="edge">
<title>Node3&#45;&gt;Node6</title>
<g id="a_edge5_Node000003_Node000006"><a xlink:title=" ">
<path fill="none" stroke="#63b8ff" d="M160.79,-54.98C134.05,-46.13 91.97,-32.19 62.05,-22.28"/>
<polygon fill="#63b8ff" stroke="#63b8ff" points="63,-18.9 52.41,-19.08 60.8,-25.55 63,-18.9"/>
</a>
</g>
</g>
<!-- Node7 -->
<g id="Node000007" class="node">
<title>Node7</title>
<g id="a_Node000007"><a xlink:title=" ">
<polygon fill="#e0e0e0" stroke="#999999" points="469.5,-19 419.5,-19 419.5,0 469.5,0 469.5,-19"/>
<text text-anchor="middle" x="444.5" y="-7" font-family="Helvetica,sans-Serif" font-size="10.00">stdio.h</text>
</a>
</g>
</g>
<!-- Node3&#45;&gt;Node7 -->
<g id="edge6_Node000003_Node000007" class="edge">
<title>Node3&#45;&gt;Node7</title>
<g id="a_edge6_Node000003_Node000007"><a xlink:title=" ">
<path fill="none" stroke="#63b8ff" d="M224.08,-56.49C268.49,-48.1 344.55,-33.36 409.5,-19 409.6,-18.98 409.7,-18.96 409.8,-18.93"/>
<polygon fill="#63b8ff" stroke="#63b8ff" points="410.33,-22.4 419.29,-16.75 408.76,-15.58 410.33,-22.4"/>
</a>
</g>
</g>
<!-- Node8 -->
<g id="Node000008" class="node">
<title>Node8</title>
<g id="a_Node000008"><a xlink:title=" ">
<polygon fill="#e0e0e0" stroke="#999999" points="653,-19 598,-19 598,0 653,0 653,-19"/>
<text text-anchor="middle" x="625.5" y="-7" font-family="Helvetica,sans-Serif" font-size="10.00">signal.h</text>
</a>
</g>
</g>
<!-- Node3&#45;&gt;Node8 -->
<g id="edge7_Node000003_Node000008" class="edge">
<title>Node3&#45;&gt;Node8</title>
<g id="a_edge7_Node000003_Node000008"><a xlink:title=" ">
<path fill="none" stroke="#63b8ff" d="M224.17,-56.42C227.32,-55.91 230.46,-55.43 233.5,-55 387.32,-33.33 430.28,-44.33 587.66,-18.92"/>
<polygon fill="#63b8ff" stroke="#63b8ff" points="588.39,-22.35 597.69,-17.28 587.26,-15.44 588.39,-22.35"/>
</a>
</g>
</g>
<!-- Node9 -->
<g id="Node000009" class="node">
<title>Node9</title>
<g id="a_Node000009"><a xlink:title=" ">
<polygon fill="#e0e0e0" stroke="#999999" points="118,-19 71,-19 71,0 118,0 118,-19"/>
<text text-anchor="middle" x="94.5" y="-7" font-family="Helvetica,sans-Serif" font-size="10.00">fcntl.h</text>
</a>
</g>
</g>
<!-- Node3&#45;&gt;Node9 -->
<g id="edge8_Node000003_Node000009" class="edge">
<title>Node3&#45;&gt;Node9</title>
<g id="a_edge8_Node000003_Node000009"><a xlink:title=" ">
<path fill="none" stroke="#63b8ff" d="M171.72,-54.98C157.32,-46.69 135.19,-33.94 118.31,-24.22"/>
<polygon fill="#63b8ff" stroke="#63b8ff" points="119.96,-21.13 109.55,-19.17 116.47,-27.19 119.96,-21.13"/>
</a>
</g>
</g>
<!-- Node10 -->
<g id="Node000010" class="node">
<title>Node10</title>
<g id="a_Node000010"><a xlink:title=" ">
<polygon fill="#e0e0e0" stroke="#999999" points="255,-19 136,-19 136,0 255,0 255,-19"/>
<text text-anchor="middle" x="195.5" y="-7" font-family="Helvetica,sans-Serif" font-size="10.00">bits/types/siginfo_t.h</text>
</a>
</g>
</g>
<!-- Node3&#45;&gt;Node10 -->
<g id="edge9_Node000003_Node000010" class="edge">
<title>Node3&#45;&gt;Node10</title>
<g id="a_edge9_Node000003_Node000010"><a xlink:title=" ">
<path fill="none" stroke="#63b8ff" d="M187.99,-54.75C189.17,-47.8 190.86,-37.85 192.34,-29.13"/>
<polygon fill="#63b8ff" stroke="#63b8ff" points="195.82,-29.53 194.04,-19.09 188.92,-28.36 195.82,-29.53"/>
</a>
</g>
</g>
<!-- Node11 -->
<g id="Node000011" class="node">
<title>Node11</title>
<g id="a_Node000011"><a xlink:title=" ">
<polygon fill="#e0e0e0" stroke="#999999" points="329.5,-19 273.5,-19 273.5,0 329.5,0 329.5,-19"/>
<text text-anchor="middle" x="301.5" y="-7" font-family="Helvetica,sans-Serif" font-size="10.00">stdarg.h</text>
</a>
</g>
</g>
<!-- Node3&#45;&gt;Node11 -->
<g id="edge10_Node000003_Node000011" class="edge">
<title>Node3&#45;&gt;Node11</title>
<g id="a_edge10_Node000003_Node000011"><a xlink:title=" ">
<path fill="none" stroke="#63b8ff" d="M204.98,-54.98C223.48,-46.46 252.18,-33.23 273.48,-23.41"/>
<polygon fill="#63b8ff" stroke="#63b8ff" points="275.07,-26.53 282.69,-19.17 272.14,-20.18 275.07,-26.53"/>
</a>
</g>
</g>
<!-- Node12 -->
<g id="Node000012" class="node">
<title>Node12</title>
<g id="a_Node000012"><a xlink:title=" ">
<polygon fill="#e0e0e0" stroke="#999999" points="401,-19 348,-19 348,0 401,0 401,-19"/>
<text text-anchor="middle" x="374.5" y="-7" font-family="Helvetica,sans-Serif" font-size="10.00">limits.h</text>
</a>
</g>
</g>
<!-- Node3&#45;&gt;Node12 -->
<g id="edge11_Node000003_Node000012" class="edge">
<title>Node3&#45;&gt;Node12</title>
<g id="a_edge11_Node000003_Node000012"><a xlink:title=" ">
<path fill="none" stroke="#63b8ff" d="M216.71,-54.98C249.68,-45.69 302.47,-30.81 337.8,-20.85"/>
<polygon fill="#63b8ff" stroke="#63b8ff" points="339.04,-24.13 347.72,-18.05 337.14,-17.39 339.04,-24.13"/>
</a>
</g>
</g>
<!-- Node13&#45;&gt;Node3 -->
<g id="edge13_Node000013_Node000003" class="edge">
<title>Node13&#45;&gt;Node3</title>
<g id="a_edge13_Node000013_Node000003"><a xlink:title=" ">
<path fill="none" stroke="#63b8ff" d="M448.24,-236.34C404.22,-207.61 262.69,-115.23 208.18,-79.65"/>
<polygon fill="#63b8ff" stroke="#63b8ff" points="209.92,-76.61 199.63,-74.07 206.09,-82.47 209.92,-76.61"/>
</a>
</g>
</g>
<!-- Node13&#45;&gt;Node14 -->
<g id="edge14_Node000013_Node000014" class="edge">
<title>Node13&#45;&gt;Node14</title>
<g id="a_edge14_Node000013_Node000014"><a xlink:title=" ">
<path fill="none" stroke="#63b8ff" d="M454.34,-236.34C443.94,-222.66 427.19,-195.58 439.5,-176 448.38,-161.89 462.47,-151.66 477.46,-144.29"/>
<polygon fill="#63b8ff" stroke="#63b8ff" points="479.18,-147.36 486.86,-140.07 476.31,-140.97 479.18,-147.36"/>
</a>
</g>
</g>
<!-- Node13&#45;&gt;Node21 -->
<g id="edge26_Node000013_Node000021" class="edge">
<title>Node13&#45;&gt;Node21</title>
<g id="a_edge26_Node000013_Node000021"><a xlink:title=" ">
<path fill="none" stroke="#63b8ff" d="M470.94,-236.37C480.77,-227.38 496.39,-213.11 508.39,-202.14"/>
<polygon fill="#63b8ff" stroke="#63b8ff" points="511,-204.5 516.02,-195.17 506.28,-199.33 511,-204.5"/>
</a>
</g>
</g>
<!-- Node14&#45;&gt;Node3 -->
<g id="edge15_Node000014_Node000003" class="edge">
<title>Node14&#45;&gt;Node3</title>
<g id="a_edge15_Node000014_Node000003"><a xlink:title=" ">
<path fill="none" stroke="#63b8ff" d="M473.38,-112.27C468.68,-111.5 464.02,-110.74 459.5,-110 362.25,-94.15 335.43,-91.23 234.23,-74.09"/>
<polygon fill="#63b8ff" stroke="#63b8ff" points="234.64,-70.61 224.2,-72.39 233.47,-77.51 234.64,-70.61"/>
</a>
</g>
</g>
<!-- Node14&#45;&gt;Node4 -->
<g id="edge25_Node000014_Node000004" class="edge">
<title>Node14&#45;&gt;Node4</title>
<g id="a_edge25_Node000014_Node000004"><a xlink:title=" ">
<path fill="none" stroke="#63b8ff" d="M562.94,-109.85C592.68,-88.22 649.17,-47.12 679.33,-25.17"/>
<polygon fill="#63b8ff" stroke="#63b8ff" points="681.42,-27.98 687.45,-19.27 677.3,-22.32 681.42,-27.98"/>
</a>
</g>
</g>
<!-- Node14&#45;&gt;Node5 -->
<g id="edge23_Node000014_Node000005" class="edge">
<title>Node14&#45;&gt;Node5</title>
<g id="a_edge23_Node000014_Node000005"><a xlink:title=" ">
<path fill="none" stroke="#63b8ff" d="M559.14,-109.92C568.16,-100.71 578.64,-87.85 583.5,-74 589.27,-57.55 579.23,-39.66 569.25,-27.08"/>
<polygon fill="#63b8ff" stroke="#63b8ff" points="571.72,-24.58 562.54,-19.3 566.42,-29.15 571.72,-24.58"/>
</a>
</g>
</g>
<!-- Node14&#45;&gt;Node6 -->
<g id="edge24_Node000014_Node000006" class="edge">
<title>Node14&#45;&gt;Node6</title>
<g id="a_edge24_Node000014_Node000006"><a xlink:title=" ">
<path fill="none" stroke="#63b8ff" d="M473.24,-120.05C369.07,-113.47 179.11,-98.53 115.5,-74 87.45,-63.18 60.04,-41.44 43.22,-26.44"/>
<polygon fill="#63b8ff" stroke="#63b8ff" points="45.17,-23.48 35.44,-19.3 40.44,-28.64 45.17,-23.48"/>
</a>
</g>
</g>
<!-- Node14&#45;&gt;Node9 -->
<g id="edge19_Node000014_Node000009" class="edge">
<title>Node14&#45;&gt;Node9</title>
<g id="a_edge19_Node000014_Node000009"><a xlink:title=" ">
<path fill="none" stroke="#63b8ff" d="M473.09,-122.06C372.64,-118.16 194.25,-106.72 139.5,-74 121.97,-63.52 109.46,-43.29 102.14,-28.47"/>
<polygon fill="#63b8ff" stroke="#63b8ff" points="105.27,-26.88 97.91,-19.25 98.91,-29.8 105.27,-26.88"/>
</a>
</g>
</g>
<!-- Node15 -->
<g id="Node000015" class="node">
<title>Node15</title>
<g id="a_Node000015"><a xlink:href="signal__flag_8h.html" target="_top" xlink:title=" ">
<polygon fill="white" stroke="#666666" points="320.5,-74 242.5,-74 242.5,-55 320.5,-55 320.5,-74"/>
<text text-anchor="middle" x="281.5" y="-62" font-family="Helvetica,sans-Serif" font-size="10.00">signal_flag.h</text>
</a>
</g>
</g>
<!-- Node14&#45;&gt;Node15 -->
<g id="edge16_Node000014_Node000015" class="edge">
<title>Node14&#45;&gt;Node15</title>
<g id="a_edge16_Node000014_Node000015"><a xlink:title=" ">
<path fill="none" stroke="#63b8ff" d="M480.74,-109.99C434.35,-99.63 372.12,-85.73 329.63,-76.25"/>
<polygon fill="#63b8ff" stroke="#63b8ff" points="330.33,-72.82 319.81,-74.05 328.81,-79.65 330.33,-72.82"/>
</a>
</g>
</g>
<!-- Node16 -->
<g id="Node000016" class="node">
<title>Node16</title>
<g id="a_Node000016"><a xlink:title=" ">
<polygon fill="#e0e0e0" stroke="#999999" points="776.5,-74 668.5,-74 668.5,-55 776.5,-55 776.5,-74"/>
<text text-anchor="middle" x="722.5" y="-62" font-family="Helvetica,sans-Serif" font-size="10.00">readline/readline.h</text>
</a>
</g>
</g>
<!-- Node14&#45;&gt;Node16 -->
<g id="edge17_Node000014_Node000016" class="edge">
<title>Node14&#45;&gt;Node16</title>
<g id="a_edge17_Node000014_Node000016"><a xlink:title=" ">
<path fill="none" stroke="#63b8ff" d="M586.37,-109.99C617,-99.98 657.73,-86.67 686.63,-77.22"/>
<polygon fill="#63b8ff" stroke="#63b8ff" points="687.91,-80.49 696.33,-74.05 685.73,-73.83 687.91,-80.49"/>
</a>
</g>
</g>
<!-- Node17 -->
<g id="Node000017" class="node">
<title>Node17</title>
<g id="a_Node000017"><a xlink:title=" ">
<polygon fill="#e0e0e0" stroke="#999999" points="896,-74 795,-74 795,-55 896,-55 896,-74"/>
<text text-anchor="middle" x="845.5" y="-62" font-family="Helvetica,sans-Serif" font-size="10.00">readline/history.h</text>
</a>
</g>
</g>
<!-- Node14&#45;&gt;Node17 -->
<g id="edge18_Node000014_Node000017" class="edge">
<title>Node14&#45;&gt;Node17</title>
<g id="a_edge18_Node000014_Node000017"><a xlink:title=" ">
<path fill="none" stroke="#63b8ff" d="M613.54,-110.43C667.83,-99.92 741.93,-85.56 791.64,-75.93"/>
<polygon fill="#63b8ff" stroke="#63b8ff" points="792.39,-79.35 801.55,-74.01 791.06,-72.48 792.39,-79.35"/>
</a>
</g>
</g>
<!-- Node18 -->
<g id="Node000018" class="node">
<title>Node18</title>
<g id="a_Node000018"><a xlink:title=" ">
<polygon fill="#e0e0e0" stroke="#999999" points="410.5,-74 338.5,-74 338.5,-55 410.5,-55 410.5,-74"/>
<text text-anchor="middle" x="374.5" y="-62" font-family="Helvetica,sans-Serif" font-size="10.00">sys/types.h</text>
</a>
</g>
</g>
<!-- Node14&#45;&gt;Node18 -->
<g id="edge20_Node000014_Node000018" class="edge">
<title>Node14&#45;&gt;Node18</title>
<g id="a_edge20_Node000014_Node000018"><a xlink:title=" ">
<path fill="none" stroke="#63b8ff" d="M503.02,-109.99C474.32,-100.05 436.22,-86.86 408.97,-77.43"/>
<polygon fill="#63b8ff" stroke="#63b8ff" points="410.05,-74.1 399.46,-74.14 407.76,-80.72 410.05,-74.1"/>
</a>
</g>
</g>
<!-- Node19 -->
<g id="Node000019" class="node">
<title>Node19</title>
<g id="a_Node000019"><a xlink:title=" ">
<polygon fill="#e0e0e0" stroke="#999999" points="494.5,-74 428.5,-74 428.5,-55 494.5,-55 494.5,-74"/>
<text text-anchor="middle" x="461.5" y="-62" font-family="Helvetica,sans-Serif" font-size="10.00">sys/wait.h</text>
</a>
</g>
</g>
<!-- Node14&#45;&gt;Node19 -->
<g id="edge21_Node000014_Node000019" class="edge">
<title>Node14&#45;&gt;Node19</title>
<g id="a_edge21_Node000014_Node000019"><a xlink:title=" ">
<path fill="none" stroke="#63b8ff" d="M523.65,-109.84C511.02,-100.83 494.7,-89.18 481.95,-80.09"/>
<polygon fill="#63b8ff" stroke="#63b8ff" points="483.96,-77.22 473.79,-74.27 479.9,-82.92 483.96,-77.22"/>
</a>
</g>
</g>
<!-- Node20 -->
<g id="Node000020" class="node">
<title>Node20</title>
<g id="a_Node000020"><a xlink:title=" ">
<polygon fill="#e0e0e0" stroke="#999999" points="574.5,-74 512.5,-74 512.5,-55 574.5,-55 574.5,-74"/>
<text text-anchor="middle" x="543.5" y="-62" font-family="Helvetica,sans-Serif" font-size="10.00">stdbool.h</text>
</a>
</g>
</g>
<!-- Node14&#45;&gt;Node20 -->
<g id="edge22_Node000014_Node000020" class="edge">
<title>Node14&#45;&gt;Node20</title>
<g id="a_edge22_Node000014_Node000020"><a xlink:title=" ">
<path fill="none" stroke="#63b8ff" d="M543.5,-109.84C543.5,-102.21 543.5,-92.7 543.5,-84.45"/>
<polygon fill="#63b8ff" stroke="#63b8ff" points="547,-84.27 543.5,-74.27 540,-84.27 547,-84.27"/>
</a>
</g>
</g>
<!-- Node21&#45;&gt;Node14 -->
<g id="edge27_Node000021_Node000014" class="edge">
<title>Node21&#45;&gt;Node14</title>
<g id="a_edge27_Node000021_Node000014"><a xlink:title=" ">
<path fill="none" stroke="#63b8ff" d="M528.16,-175.87C530.26,-169.03 533.3,-159.14 536.13,-149.97"/>
<polygon fill="#63b8ff" stroke="#63b8ff" points="539.56,-150.7 539.16,-140.11 532.87,-148.64 539.56,-150.7"/>
</a>
</g>
</g>
<!-- Node22&#45;&gt;Node14 -->
<g id="edge29_Node000022_Node000014" class="edge">
<title>Node22&#45;&gt;Node14</title>
<g id="a_edge29_Node000022_Node000014"><a xlink:title=" ">
<path fill="none" stroke="#63b8ff" d="M305.92,-175.99C348.01,-167.14 414.94,-153.05 467.05,-142.09"/>
<polygon fill="#63b8ff" stroke="#63b8ff" points="467.87,-145.49 476.93,-140.01 466.43,-138.64 467.87,-145.49"/>
</a>
</g>
</g>
<!-- Node23&#45;&gt;Node14 -->
<g id="edge33_Node000023_Node000014" class="edge">
<title>Node23&#45;&gt;Node14</title>
<g id="a_edge33_Node000023_Node000014"><a xlink:title=" ">
<path fill="none" stroke="#63b8ff" d="M329.66,-236.39C350.72,-222.78 393.5,-195.79 431.5,-176 453.61,-164.48 478.92,-153.05 499.88,-144.02"/>
<polygon fill="#63b8ff" stroke="#63b8ff" points="501.35,-147.2 509.18,-140.05 498.61,-140.76 501.35,-147.2"/>
</a>
</g>
</g>
<!-- Node23&#45;&gt;Node21 -->
<g id="edge35_Node000023_Node000021" class="edge">
<title>Node23&#45;&gt;Node21</title>
<g id="a_edge35_Node000023_Node000021"><a xlink:title=" ">
<path fill="none" stroke="#63b8ff" d="M346.89,-236.49C383.42,-226.27 444.84,-209.08 485.27,-197.76"/>
<polygon fill="#63b8ff" stroke="#63b8ff" points="486.39,-201.08 495.07,-195.02 484.5,-194.34 486.39,-201.08"/>
</a>
</g>
</g>
<!-- Node23&#45;&gt;Node22 -->
<g id="edge34_Node000023_Node000022" class="edge">
<title>Node23&#45;&gt;Node22</title>
<g id="a_edge34_Node000023_Node000022"><a xlink:title=" ">
<path fill="none" stroke="#63b8ff" d="M308.97,-236.37C301.29,-227.55 289.18,-213.66 279.69,-202.77"/>
<polygon fill="#63b8ff" stroke="#63b8ff" points="282.27,-200.41 273.06,-195.17 276.99,-205.01 282.27,-200.41"/>
</a>
</g>
</g>
<!-- Node24&#45;&gt;Node3 -->
<g id="edge37_Node000024_Node000003" class="edge">
<title>Node24&#45;&gt;Node3</title>
<g id="a_edge37_Node000024_Node000003"><a xlink:title=" ">
<path fill="none" stroke="#63b8ff" d="M762.28,-230.97C725.26,-216.11 664.32,-192.56 610.5,-176 546.62,-156.35 529.22,-156.65 464.5,-140 380.17,-118.31 281.83,-91.62 227.63,-76.8"/>
<polygon fill="#63b8ff" stroke="#63b8ff" points="228.28,-73.35 217.71,-74.08 226.44,-80.1 228.28,-73.35"/>
</a>
</g>
</g>
<!-- Node24&#45;&gt;Node4 -->
<g id="edge44_Node000024_Node000004" class="edge">
<title>Node24&#45;&gt;Node4</title>
<g id="a_edge44_Node000024_Node000004"><a xlink:title=" ">
<path fill="none" stroke="#63b8ff" d="M858.76,-235.85C904.87,-227.65 962.07,-213.98 976.5,-195 1014.15,-145.46 1016.86,-102.36 976.5,-55 946.3,-19.56 806.71,-12.24 737.97,-10.8"/>
<polygon fill="#63b8ff" stroke="#63b8ff" points="738.03,-7.3 727.97,-10.62 737.9,-14.3 738.03,-7.3"/>
</a>
</g>
</g>
<!-- Node24&#45;&gt;Node5 -->
<g id="edge43_Node000024_Node000005" class="edge">
<title>Node24&#45;&gt;Node5</title>
<g id="a_edge43_Node000024_Node000005"><a xlink:title=" ">
<path fill="none" stroke="#63b8ff" d="M815.7,-230.84C858.79,-197.42 955.54,-112.18 904.5,-55 859.32,-4.38 673.81,-29.17 590.1,-18.83"/>
<polygon fill="#63b8ff" stroke="#63b8ff" points="590.59,-15.36 580.18,-17.34 589.55,-22.28 590.59,-15.36"/>
</a>
</g>
</g>
<!-- Node24&#45;&gt;Node8 -->
<g id="edge42_Node000024_Node000008" class="edge">
<title>Node24&#45;&gt;Node8</title>
<g id="a_edge42_Node000024_Node000008"><a xlink:title=" ">
<path fill="none" stroke="#63b8ff" d="M858.8,-239.33C888.04,-233.18 920.38,-220.6 938.5,-195 974.46,-144.22 979.55,-101.76 938.5,-55 899.52,-10.61 738.77,-28.15 663.37,-18.71"/>
<polygon fill="#63b8ff" stroke="#63b8ff" points="663.73,-15.23 653.32,-17.19 662.69,-22.15 663.73,-15.23"/>
</a>
</g>
</g>
<!-- Node24&#45;&gt;Node14 -->
<g id="edge38_Node000024_Node000014" class="edge">
<title>Node24&#45;&gt;Node14</title>
<g id="a_edge38_Node000024_Node000014"><a xlink:title=" ">
<path fill="none" stroke="#63b8ff" d="M784.52,-230.73C770.65,-215.1 746.37,-190.34 720.5,-176 690.76,-159.51 655.14,-148.09 623.68,-140.37"/>
<polygon fill="#63b8ff" stroke="#63b8ff" points="624.16,-136.89 613.62,-138 622.55,-143.7 624.16,-136.89"/>
</a>
</g>
</g>
<!-- Node24&#45;&gt;Node16 -->
<g id="edge40_Node000024_Node000016" class="edge">
<title>Node24&#45;&gt;Node16</title>
<g id="a_edge40_Node000024_Node000016"><a xlink:title=" ">
<path fill="none" stroke="#63b8ff" d="M790.69,-230.91C777.42,-198.71 744.85,-119.7 730.04,-83.8"/>
<polygon fill="#63b8ff" stroke="#63b8ff" points="733.11,-82.05 726.06,-74.13 726.64,-84.71 733.11,-82.05"/>
</a>
</g>
</g>
<!-- Node24&#45;&gt;Node17 -->
<g id="edge41_Node000024_Node000017" class="edge">
<title>Node24&#45;&gt;Node17</title>
<g id="a_edge41_Node000024_Node000017"><a xlink:title=" ">
<path fill="none" stroke="#63b8ff" d="M800.34,-230.91C809.14,-198.71 830.7,-119.7 840.51,-83.8"/>
<polygon fill="#63b8ff" stroke="#63b8ff" points="843.89,-84.7 843.14,-74.13 837.13,-82.86 843.89,-84.7"/>
</a>
</g>
</g>
<!-- Node24&#45;&gt;Node21 -->
<g id="edge39_Node000024_Node000021" class="edge">
<title>Node24&#45;&gt;Node21</title>
<g id="a_edge39_Node000024_Node000021"><a xlink:title=" ">
<path fill="none" stroke="#63b8ff" d="M734.33,-231.58C685.95,-221.14 619.73,-206.84 574.93,-197.17"/>
<polygon fill="#63b8ff" stroke="#63b8ff" points="575.66,-193.75 565.14,-195.06 574.18,-200.59 575.66,-193.75"/>
</a>
</g>
</g>
<!-- Node25&#45;&gt;Node3 -->
<g id="edge47_Node000025_Node000003" class="edge">
<title>Node25&#45;&gt;Node3</title>
<g id="a_edge47_Node000025_Node000003"><a xlink:title=" ">
<path fill="none" stroke="#63b8ff" d="M567.38,-306.02C477.63,-306.14 280.9,-301.63 229.5,-261 175.29,-218.15 179.35,-123.92 183.87,-83.98"/>
<polygon fill="#63b8ff" stroke="#63b8ff" points="187.34,-84.4 185.13,-74.04 180.4,-83.52 187.34,-84.4"/>
</a>
</g>
</g>
<!-- Node25&#45;&gt;Node13 -->
<g id="edge48_Node000025_Node000013" class="edge">
<title>Node25&#45;&gt;Node13</title>
<g id="a_edge48_Node000025_Node000013"><a xlink:title=" ">
<path fill="none" stroke="#63b8ff" d="M590.54,-296.99C564.82,-287.03 522.02,-270.45 492.82,-259.13"/>
<polygon fill="#63b8ff" stroke="#63b8ff" points="494.07,-255.87 483.48,-255.52 491.54,-262.39 494.07,-255.87"/>
</a>
</g>
</g>
<!-- Node25&#45;&gt;Node14 -->
<g id="edge46_Node000025_Node000014" class="edge">
<title>Node25&#45;&gt;Node14</title>
<g id="a_edge46_Node000025_Node000014"><a xlink:title=" ">
<path fill="none" stroke="#63b8ff" d="M614.87,-296.7C620.25,-274.83 631.38,-216.84 610.5,-176 604.13,-163.54 593.05,-153.37 581.72,-145.54"/>
<polygon fill="#63b8ff" stroke="#63b8ff" points="583.39,-142.45 573.08,-140 579.61,-148.34 583.39,-142.45"/>
</a>
</g>
</g>
<!-- Node25&#45;&gt;Node21 -->
<g id="edge49_Node000025_Node000021" class="edge">
<title>Node25&#45;&gt;Node21</title>
<g id="a_edge49_Node000025_Node000021"><a xlink:title=" ">
<path fill="none" stroke="#63b8ff" d="M606.24,-296.94C591.95,-277.4 556.71,-229.18 537.86,-203.4"/>
<polygon fill="#63b8ff" stroke="#63b8ff" points="540.66,-201.31 531.93,-195.3 535.01,-205.44 540.66,-201.31"/>
</a>
</g>
</g>
<!-- Node25&#45;&gt;Node24 -->
<g id="edge50_Node000025_Node000024" class="edge">
<title>Node25&#45;&gt;Node24</title>
<g id="a_edge50_Node000025_Node000024"><a xlink:title=" ">
<path fill="none" stroke="#63b8ff" d="M639.26,-296.99C666.2,-288.43 708.52,-274.97 742.48,-264.18"/>
<polygon fill="#63b8ff" stroke="#63b8ff" points="743.79,-267.43 752.26,-261.06 741.67,-260.76 743.79,-267.43"/>
</a>
</g>
</g>
</g>
</svg>
