<?xml version="1.0" encoding="UTF-8" standalone="no"?>
<!DOCTYPE svg PUBLIC "-//W3C//DTD SVG 1.1//EN"
 "http://www.w3.org/Graphics/SVG/1.1/DTD/svg11.dtd">
<!-- Generated by graphviz version 2.43.0 (0)
 -->
<!-- Title: pipes/pipes.h Pages: 1 -->
<svg width="488pt" height="137pt"
 viewBox="0.00 0.00 488.00 137.00" xmlns="http://www.w3.org/2000/svg" xmlns:xlink="http://www.w3.org/1999/xlink">
<g id="graph0" class="graph" transform="scale(1 1) rotate(0) translate(4 133)">
<title>pipes/pipes.h</title>
<!-- Node1 -->
<g id="Node000001" class="node">
<title>Node1</title>
<g id="a_Node000001"><a xlink:title=" ">
<polygon fill="#999999" stroke="#666666" points="356.5,-129 275.5,-129 275.5,-110 356.5,-110 356.5,-129"/>
<text text-anchor="middle" x="316" y="-117" font-family="Helvetica,sans-Serif" font-size="10.00">pipes/pipes.h</text>
</a>
</g>
</g>
<!-- Node2 -->
<g id="Node000002" class="node">
<title>Node2</title>
<g id="a_Node000002"><a xlink:href="minishell_8h.html" target="_top" xlink:title=" ">
<polygon fill="white" stroke="#666666" points="232,-74 134,-74 134,-55 232,-55 232,-74"/>
<text text-anchor="middle" x="183" y="-62" font-family="Helvetica,sans-Serif" font-size="10.00">main/minishell.h</text>
</a>
</g>
</g>
<!-- Node1&#45;&gt;Node2 -->
<g id="edge1_Node000001_Node000002" class="edge">
<title>Node1&#45;&gt;Node2</title>
<g id="a_edge1_Node000001_Node000002"><a xlink:title=" ">
<path fill="none" stroke="#63b8ff" d="M285.03,-106.16C260.41,-96.35 226.59,-82.87 204.76,-74.17"/>
<polygon fill="#63b8ff" stroke="#63b8ff" points="284.05,-109.53 294.63,-109.98 286.64,-103.03 284.05,-109.53"/>
</a>
</g>
</g>
<!-- Node6 -->
<g id="Node000006" class="node">
<title>Node6</title>
<g id="a_Node000006"><a xlink:href="create__pipe__list_8c.html" target="_top" xlink:title=" ">
<polygon fill="white" stroke="#666666" points="381.5,-74 250.5,-74 250.5,-55 381.5,-55 381.5,-74"/>
<text text-anchor="middle" x="316" y="-62" font-family="Helvetica,sans-Serif" font-size="10.00">pipes/create_pipe_list.c</text>
</a>
</g>
</g>
<!-- Node1&#45;&gt;Node6 -->
<g id="edge5_Node000001_Node000006" class="edge">
<title>Node1&#45;&gt;Node6</title>
<g id="a_edge5_Node000001_Node000006"><a xlink:title=" ">
<path fill="none" stroke="#63b8ff" d="M316,-99.66C316,-90.93 316,-80.99 316,-74.09"/>
<polygon fill="#63b8ff" stroke="#63b8ff" points="312.5,-99.75 316,-109.75 319.5,-99.75 312.5,-99.75"/>
</a>
</g>
</g>
<!-- Node7 -->
<g id="Node000007" class="node">
<title>Node7</title>
<g id="a_Node000007"><a xlink:href="pipes_8c.html" target="_top" xlink:title=" ">
<polygon fill="white" stroke="#666666" points="480,-74 400,-74 400,-55 480,-55 480,-74"/>
<text text-anchor="middle" x="440" y="-62" font-family="Helvetica,sans-Serif" font-size="10.00">pipes/pipes.c</text>
</a>
</g>
</g>
<!-- Node1&#45;&gt;Node7 -->
<g id="edge6_Node000001_Node000007" class="edge">
<title>Node1&#45;&gt;Node7</title>
<g id="a_edge6_Node000001_Node000007"><a xlink:title=" ">
<path fill="none" stroke="#63b8ff" d="M345.18,-106.03C368.11,-96.23 399.45,-82.83 419.71,-74.17"/>
<polygon fill="#63b8ff" stroke="#63b8ff" points="343.74,-102.84 335.92,-109.98 346.49,-109.27 343.74,-102.84"/>
</a>
</g>
</g>
<!-- Node3 -->
<g id="Node000003" class="node">
<title>Node3</title>
<g id="a_Node000003"><a xlink:href="cmd__execution_8c.html" target="_top" xlink:title=" ">
<polygon fill="white" stroke="#666666" points="126,-19 0,-19 0,0 126,0 126,-19"/>
<text text-anchor="middle" x="63" y="-7" font-family="Helvetica,sans-Serif" font-size="10.00">main/cmd_execution.c</text>
</a>
</g>
</g>
<!-- Node2&#45;&gt;Node3 -->
<g id="edge2_Node000002_Node000003" class="edge">
<title>Node2&#45;&gt;Node3</title>
<g id="a_edge2_Node000002_Node000003"><a xlink:title=" ">
<path fill="none" stroke="#63b8ff" d="M154.47,-50.9C132.3,-41.11 102.15,-27.79 82.63,-19.17"/>
<polygon fill="#63b8ff" stroke="#63b8ff" points="153.16,-54.15 163.72,-54.98 155.99,-47.74 153.16,-54.15"/>
</a>
</g>
</g>
<!-- Node4 -->
<g id="Node000004" class="node">
<title>Node4</title>
<g id="a_Node000004"><a xlink:href="main_8c.html" target="_top" xlink:title=" ">
<polygon fill="white" stroke="#666666" points="221.5,-19 144.5,-19 144.5,0 221.5,0 221.5,-19"/>
<text text-anchor="middle" x="183" y="-7" font-family="Helvetica,sans-Serif" font-size="10.00">main/main.c</text>
</a>
</g>
</g>
<!-- Node2&#45;&gt;Node4 -->
<g id="edge3_Node000002_Node000004" class="edge">
<title>Node2&#45;&gt;Node4</title>
<g id="a_edge3_Node000002_Node000004"><a xlink:title=" ">
<path fill="none" stroke="#63b8ff" d="M183,-44.66C183,-35.93 183,-25.99 183,-19.09"/>
<polygon fill="#63b8ff" stroke="#63b8ff" points="179.5,-44.75 183,-54.75 186.5,-44.75 179.5,-44.75"/>
</a>
</g>
</g>
<!-- Node5 -->
<g id="Node000005" class="node">
<title>Node5</title>
<g id="a_Node000005"><a xlink:href="main__utils_8c.html" target="_top" xlink:title=" ">
<polygon fill="white" stroke="#666666" points="344,-19 240,-19 240,0 344,0 344,-19"/>
<text text-anchor="middle" x="292" y="-7" font-family="Helvetica,sans-Serif" font-size="10.00">main/main_utils.c</text>
</a>
</g>
</g>
<!-- Node2&#45;&gt;Node5 -->
<g id="edge4_Node000002_Node000005" class="edge">
<title>Node2&#45;&gt;Node5</title>
<g id="a_edge4_Node000002_Node000005"><a xlink:title=" ">
<path fill="none" stroke="#63b8ff" d="M209.73,-50.5C229.79,-40.75 256.68,-27.68 274.17,-19.17"/>
<polygon fill="#63b8ff" stroke="#63b8ff" points="207.98,-47.46 200.51,-54.98 211.04,-53.76 207.98,-47.46"/>
</a>
</g>
</g>
</g>
</svg>
