<?xml version="1.0" encoding="UTF-8" standalone="no"?>
<!DOCTYPE svg PUBLIC "-//W3C//DTD SVG 1.1//EN"
 "http://www.w3.org/Graphics/SVG/1.1/DTD/svg11.dtd">
<!-- Generated by graphviz version 2.43.0 (0)
 -->
<!-- Title: create_pipe_list Pages: 1 -->
<svg width="241pt" height="64pt"
 viewBox="0.00 0.00 241.00 64.00" xmlns="http://www.w3.org/2000/svg" xmlns:xlink="http://www.w3.org/1999/xlink">
<g id="graph0" class="graph" transform="scale(1 1) rotate(0) translate(4 60)">
<title>create_pipe_list</title>
<!-- Node1 -->
<g id="Node000001" class="node">
<title>Node1</title>
<g id="a_Node000001"><a xlink:title="Creates a linked list of pipes from the command list.">
<polygon fill="#999999" stroke="#666666" points="94,-37 0,-37 0,-18 94,-18 94,-37"/>
<text text-anchor="middle" x="47" y="-25" font-family="Helvetica,sans-Serif" font-size="10.00">create_pipe_list</text>
</a>
</g>
</g>
<!-- Node2 -->
<g id="Node000002" class="node">
<title>Node2</title>
<g id="a_Node000002"><a xlink:href="utils__pipes_8c.html#aec23416027c77c6dfccb9f5f1c09ad90" target="_top" xlink:title="Adds a pipe element to the linked list of pipes.">
<polygon fill="white" stroke="#666666" points="212,-56 151,-56 151,-37 212,-37 212,-56"/>
<text text-anchor="middle" x="181.5" y="-44" font-family="Helvetica,sans-Serif" font-size="10.00">add_pipe</text>
</a>
</g>
</g>
<!-- Node1&#45;&gt;Node2 -->
<g id="edge1_Node000001_Node000002" class="edge">
<title>Node1&#45;&gt;Node2</title>
<g id="a_edge1_Node000001_Node000002"><a xlink:title=" ">
<path fill="none" stroke="#63b8ff" d="M94.34,-34.15C109.48,-36.32 126.14,-38.7 140.74,-40.8"/>
<polygon fill="#63b8ff" stroke="#63b8ff" points="140.56,-44.31 150.96,-42.26 141.56,-37.38 140.56,-44.31"/>
</a>
</g>
</g>
<!-- Node3 -->
<g id="Node000003" class="node">
<title>Node3</title>
<g id="a_Node000003"><a xlink:href="create__pipe__list_8c.html#aa774a62cb541bb9d30d0ba93ee73ff92" target="_top" xlink:title="Creates a pipeline node containing a command.">
<polygon fill="white" stroke="#666666" points="233,-19 130,-19 130,0 233,0 233,-19"/>
<text text-anchor="middle" x="181.5" y="-7" font-family="Helvetica,sans-Serif" font-size="10.00">create_pipe_node</text>
</a>
</g>
</g>
<!-- Node1&#45;&gt;Node3 -->
<g id="edge2_Node000001_Node000003" class="edge">
<title>Node1&#45;&gt;Node3</title>
<g id="a_edge2_Node000001_Node000003"><a xlink:title=" ">
<path fill="none" stroke="#63b8ff" d="M94.34,-21.2C102.6,-20.08 111.32,-18.9 119.91,-17.73"/>
<polygon fill="#63b8ff" stroke="#63b8ff" points="120.46,-21.19 129.89,-16.37 119.51,-14.25 120.46,-21.19"/>
</a>
</g>
</g>
</g>
</svg>
