<?xml version="1.0" encoding="UTF-8" standalone="no"?>
<!DOCTYPE svg PUBLIC "-//W3C//DTD SVG 1.1//EN"
 "http://www.w3.org/Graphics/SVG/1.1/DTD/svg11.dtd">
<!-- Generated by graphviz version 2.43.0 (0)
 -->
<!-- Title: pipes/pipes.c Pages: 1 -->
<svg width="1003pt" height="379pt"
 viewBox="0.00 0.00 1003.10 379.00" xmlns="http://www.w3.org/2000/svg" xmlns:xlink="http://www.w3.org/1999/xlink">
<g id="graph0" class="graph" transform="scale(1 1) rotate(0) translate(4 375)">
<title>pipes/pipes.c</title>
<!-- Node1 -->
<g id="Node000001" class="node">
<title>Node1</title>
<g id="a_Node000001"><a xlink:title=" ">
<polygon fill="#999999" stroke="#666666" points="436,-371 356,-371 356,-352 436,-352 436,-371"/>
<text text-anchor="middle" x="396" y="-359" font-family="Helvetica,sans-Serif" font-size="10.00">pipes/pipes.c</text>
</a>
</g>
</g>
<!-- Node2 -->
<g id="Node000002" class="node">
<title>Node2</title>
<g id="a_Node000002"><a xlink:href="pipes_8h.html" target="_top" xlink:title=" ">
<polygon fill="white" stroke="#666666" points="422,-316 370,-316 370,-297 422,-297 422,-316"/>
<text text-anchor="middle" x="396" y="-304" font-family="Helvetica,sans-Serif" font-size="10.00">pipes.h</text>
</a>
</g>
</g>
<!-- Node1&#45;&gt;Node2 -->
<g id="edge1_Node000001_Node000002" class="edge">
<title>Node1&#45;&gt;Node2</title>
<g id="a_edge1_Node000001_Node000002"><a xlink:title=" ">
<path fill="none" stroke="#63b8ff" d="M396,-351.75C396,-344.8 396,-334.85 396,-326.13"/>
<polygon fill="#63b8ff" stroke="#63b8ff" points="399.5,-326.09 396,-316.09 392.5,-326.09 399.5,-326.09"/>
</a>
</g>
</g>
<!-- Node5 -->
<g id="Node000005" class="node">
<title>Node5</title>
<g id="a_Node000005"><a xlink:title=" ">
<polygon fill="#e0e0e0" stroke="#999999" points="103,-19 47,-19 47,0 103,0 103,-19"/>
<text text-anchor="middle" x="75" y="-7" font-family="Helvetica,sans-Serif" font-size="10.00">unistd.h</text>
</a>
</g>
</g>
<!-- Node1&#45;&gt;Node5 -->
<g id="edge40_Node000001_Node000005" class="edge">
<title>Node1&#45;&gt;Node5</title>
<g id="a_edge40_Node000001_Node000005"><a xlink:title=" ">
<path fill="none" stroke="#63b8ff" d="M355.85,-357.57C255.18,-349.13 0,-320.48 0,-247 0,-247 0,-247 0,-124 0,-83.19 34.16,-45.77 56.38,-25.75"/>
<polygon fill="#63b8ff" stroke="#63b8ff" points="58.68,-28.38 63.93,-19.18 54.09,-23.1 58.68,-28.38"/>
</a>
</g>
</g>
<!-- Node10 -->
<g id="Node000010" class="node">
<title>Node10</title>
<g id="a_Node000010"><a xlink:title=" ">
<polygon fill="#e0e0e0" stroke="#999999" points="762.5,-19 715.5,-19 715.5,0 762.5,0 762.5,-19"/>
<text text-anchor="middle" x="739" y="-7" font-family="Helvetica,sans-Serif" font-size="10.00">fcntl.h</text>
</a>
</g>
</g>
<!-- Node1&#45;&gt;Node10 -->
<g id="edge39_Node000001_Node000010" class="edge">
<title>Node1&#45;&gt;Node10</title>
<g id="a_edge39_Node000001_Node000010"><a xlink:title=" ">
<path fill="none" stroke="#63b8ff" d="M436.17,-357.15C570.24,-345.44 994,-303.93 994,-247 994,-247 994,-247 994,-124 994,-92.19 998.4,-76.55 975,-55 945.98,-28.28 830.92,-16.75 772.87,-12.55"/>
<polygon fill="#63b8ff" stroke="#63b8ff" points="772.95,-9.05 762.73,-11.85 772.47,-16.03 772.95,-9.05"/>
</a>
</g>
</g>
<!-- Node3 -->
<g id="Node000003" class="node">
<title>Node3</title>
<g id="a_Node000003"><a xlink:href="common__utils_8h.html" target="_top" xlink:title=" ">
<polygon fill="white" stroke="#666666" points="572,-140 432,-140 432,-110 572,-110 572,-140"/>
<text text-anchor="start" x="440" y="-128" font-family="Helvetica,sans-Serif" font-size="10.00">../common_utils/common</text>
<text text-anchor="middle" x="502" y="-117" font-family="Helvetica,sans-Serif" font-size="10.00">_utils.h</text>
</a>
</g>
</g>
<!-- Node2&#45;&gt;Node3 -->
<g id="edge2_Node000002_Node000003" class="edge">
<title>Node2&#45;&gt;Node3</title>
<g id="a_edge2_Node000002_Node000003"><a xlink:title=" ">
<path fill="none" stroke="#63b8ff" d="M394.94,-296.72C392.7,-274.39 389.72,-214.52 416,-176 425.1,-162.66 439.03,-152.39 453.04,-144.73"/>
<polygon fill="#63b8ff" stroke="#63b8ff" points="454.89,-147.72 462.22,-140.07 451.71,-141.48 454.89,-147.72"/>
</a>
</g>
</g>
<!-- Node4 -->
<g id="Node000004" class="node">
<title>Node4</title>
<g id="a_Node000004"><a xlink:href="libft_8h.html" target="_top" xlink:title=" ">
<polygon fill="white" stroke="#666666" points="539.5,-74 464.5,-74 464.5,-55 539.5,-55 539.5,-74"/>
<text text-anchor="middle" x="502" y="-62" font-family="Helvetica,sans-Serif" font-size="10.00">../libft/libft.h</text>
</a>
</g>
</g>
<!-- Node2&#45;&gt;Node4 -->
<g id="edge23_Node000002_Node000004" class="edge">
<title>Node2&#45;&gt;Node4</title>
<g id="a_edge23_Node000002_Node000004"><a xlink:title=" ">
<path fill="none" stroke="#63b8ff" d="M394.35,-296.88C389.18,-267.12 376.3,-167.41 423,-110 434.52,-95.84 451.81,-85.38 467.28,-78.17"/>
<polygon fill="#63b8ff" stroke="#63b8ff" points="468.84,-81.31 476.61,-74.1 466.04,-74.89 468.84,-81.31"/>
</a>
</g>
</g>
<!-- Node20 -->
<g id="Node000020" class="node">
<title>Node20</title>
<g id="a_Node000020"><a xlink:href="builtin_8h.html" target="_top" xlink:title=" ">
<polygon fill="white" stroke="#666666" points="625.5,-255.5 526.5,-255.5 526.5,-236.5 625.5,-236.5 625.5,-255.5"/>
<text text-anchor="middle" x="576" y="-243.5" font-family="Helvetica,sans-Serif" font-size="10.00">../builtin/builtin.h</text>
</a>
</g>
</g>
<!-- Node2&#45;&gt;Node20 -->
<g id="edge24_Node000002_Node000020" class="edge">
<title>Node2&#45;&gt;Node20</title>
<g id="a_edge24_Node000002_Node000020"><a xlink:title=" ">
<path fill="none" stroke="#63b8ff" d="M422.17,-296.99C453.23,-286.9 505.19,-270.01 540.02,-258.69"/>
<polygon fill="#63b8ff" stroke="#63b8ff" points="541.37,-261.94 549.79,-255.52 539.2,-255.28 541.37,-261.94"/>
</a>
</g>
</g>
<!-- Node21 -->
<g id="Node000021" class="node">
<title>Node21</title>
<g id="a_Node000021"><a xlink:href="redirections_8h.html" target="_top" xlink:title=" ">
<polygon fill="white" stroke="#666666" points="577.5,-195 424.5,-195 424.5,-176 577.5,-176 577.5,-195"/>
<text text-anchor="middle" x="501" y="-183" font-family="Helvetica,sans-Serif" font-size="10.00">../redirections/redirections.h</text>
</a>
</g>
</g>
<!-- Node2&#45;&gt;Node21 -->
<g id="edge29_Node000002_Node000021" class="edge">
<title>Node2&#45;&gt;Node21</title>
<g id="a_edge29_Node000002_Node000021"><a xlink:title=" ">
<path fill="none" stroke="#63b8ff" d="M403.55,-296.94C420.87,-277.31 463.71,-228.76 486.38,-203.07"/>
<polygon fill="#63b8ff" stroke="#63b8ff" points="489.24,-205.12 493.23,-195.3 483.99,-200.48 489.24,-205.12"/>
</a>
</g>
</g>
<!-- Node22 -->
<g id="Node000022" class="node">
<title>Node22</title>
<g id="a_Node000022"><a xlink:href="system__commands_8h.html" target="_top" xlink:title=" ">
<polygon fill="white" stroke="#666666" points="292,-261 168,-261 168,-231 292,-231 292,-261"/>
<text text-anchor="start" x="176" y="-249" font-family="Helvetica,sans-Serif" font-size="10.00">../system_commands</text>
<text text-anchor="middle" x="230" y="-238" font-family="Helvetica,sans-Serif" font-size="10.00">/system_commands.h</text>
</a>
</g>
</g>
<!-- Node2&#45;&gt;Node22 -->
<g id="edge30_Node000002_Node000022" class="edge">
<title>Node2&#45;&gt;Node22</title>
<g id="a_edge30_Node000002_Node000022"><a xlink:title=" ">
<path fill="none" stroke="#63b8ff" d="M371.86,-296.99C347.76,-288.5 310.03,-275.2 279.53,-264.45"/>
<polygon fill="#63b8ff" stroke="#63b8ff" points="280.5,-261.09 269.91,-261.06 278.18,-267.69 280.5,-261.09"/>
</a>
</g>
</g>
<!-- Node3&#45;&gt;Node4 -->
<g id="edge3_Node000003_Node000004" class="edge">
<title>Node3&#45;&gt;Node4</title>
<g id="a_edge3_Node000003_Node000004"><a xlink:title=" ">
<path fill="none" stroke="#63b8ff" d="M502,-109.84C502,-102.21 502,-92.7 502,-84.45"/>
<polygon fill="#63b8ff" stroke="#63b8ff" points="505.5,-84.27 502,-74.27 498.5,-84.27 505.5,-84.27"/>
</a>
</g>
</g>
<!-- Node3&#45;&gt;Node5 -->
<g id="edge22_Node000003_Node000005" class="edge">
<title>Node3&#45;&gt;Node5</title>
<g id="a_edge22_Node000003_Node000005"><a xlink:title=" ">
<path fill="none" stroke="#63b8ff" d="M476.39,-109.79C458.37,-99.79 433.7,-86.09 412,-74 396.88,-65.57 394.39,-60.56 378,-55 272.52,-19.24 240.15,-35.51 130,-19 124.57,-18.19 118.83,-17.31 113.2,-16.45"/>
<polygon fill="#63b8ff" stroke="#63b8ff" points="113.67,-12.98 103.26,-14.92 112.61,-19.9 113.67,-12.98"/>
</a>
</g>
</g>
<!-- Node6 -->
<g id="Node000006" class="node">
<title>Node6</title>
<g id="a_Node000006"><a xlink:title=" ">
<polygon fill="#e0e0e0" stroke="#999999" points="274.5,-19 221.5,-19 221.5,0 274.5,0 274.5,-19"/>
<text text-anchor="middle" x="248" y="-7" font-family="Helvetica,sans-Serif" font-size="10.00">stdlib.h</text>
</a>
</g>
</g>
<!-- Node3&#45;&gt;Node6 -->
<g id="edge20_Node000003_Node000006" class="edge">
<title>Node3&#45;&gt;Node6</title>
<g id="a_edge20_Node000003_Node000006"><a xlink:title=" ">
<path fill="none" stroke="#63b8ff" d="M487.31,-109.79C470.44,-94.2 441.29,-69.5 412,-55 400.53,-49.32 329.29,-30.9 284.56,-19.62"/>
<polygon fill="#63b8ff" stroke="#63b8ff" points="285.18,-16.17 274.63,-17.12 283.47,-22.96 285.18,-16.17"/>
</a>
</g>
</g>
<!-- Node7 -->
<g id="Node000007" class="node">
<title>Node7</title>
<g id="a_Node000007"><a xlink:title=" ">
<polygon fill="#e0e0e0" stroke="#999999" points="697.5,-19 644.5,-19 644.5,0 697.5,0 697.5,-19"/>
<text text-anchor="middle" x="671" y="-7" font-family="Helvetica,sans-Serif" font-size="10.00">string.h</text>
</a>
</g>
</g>
<!-- Node3&#45;&gt;Node7 -->
<g id="edge21_Node000003_Node000007" class="edge">
<title>Node3&#45;&gt;Node7</title>
<g id="a_edge21_Node000003_Node000007"><a xlink:title=" ">
<path fill="none" stroke="#63b8ff" d="M519.05,-109.76C536.77,-95.25 565.55,-72.47 592,-55 609.19,-43.65 629.44,-32.28 645.14,-23.87"/>
<polygon fill="#63b8ff" stroke="#63b8ff" points="647.06,-26.82 654.26,-19.05 643.78,-20.63 647.06,-26.82"/>
</a>
</g>
</g>
<!-- Node3&#45;&gt;Node10 -->
<g id="edge16_Node000003_Node000010" class="edge">
<title>Node3&#45;&gt;Node10</title>
<g id="a_edge16_Node000003_Node000010"><a xlink:title=" ">
<path fill="none" stroke="#63b8ff" d="M527.66,-109.88C545.7,-99.92 570.37,-86.23 592,-74 606.73,-65.67 609.74,-62.32 625,-55 651.53,-42.27 682.72,-30.29 705.77,-21.97"/>
<polygon fill="#63b8ff" stroke="#63b8ff" points="707.18,-25.19 715.42,-18.53 704.83,-18.59 707.18,-25.19"/>
</a>
</g>
</g>
<!-- Node14 -->
<g id="Node000014" class="node">
<title>Node14</title>
<g id="a_Node000014"><a xlink:href="signal__flag_8h.html" target="_top" xlink:title=" ">
<polygon fill="white" stroke="#666666" points="712,-74 634,-74 634,-55 712,-55 712,-74"/>
<text text-anchor="middle" x="673" y="-62" font-family="Helvetica,sans-Serif" font-size="10.00">signal_flag.h</text>
</a>
</g>
</g>
<!-- Node3&#45;&gt;Node14 -->
<g id="edge13_Node000003_Node000014" class="edge">
<title>Node3&#45;&gt;Node14</title>
<g id="a_edge13_Node000003_Node000014"><a xlink:title=" ">
<path fill="none" stroke="#63b8ff" d="M542.96,-109.99C572,-100.05 610.55,-86.86 638.12,-77.43"/>
<polygon fill="#63b8ff" stroke="#63b8ff" points="639.42,-80.69 647.75,-74.14 637.15,-74.06 639.42,-80.69"/>
</a>
</g>
</g>
<!-- Node15 -->
<g id="Node000015" class="node">
<title>Node15</title>
<g id="a_Node000015"><a xlink:title=" ">
<polygon fill="#e0e0e0" stroke="#999999" points="250,-74 142,-74 142,-55 250,-55 250,-74"/>
<text text-anchor="middle" x="196" y="-62" font-family="Helvetica,sans-Serif" font-size="10.00">readline/readline.h</text>
</a>
</g>
</g>
<!-- Node3&#45;&gt;Node15 -->
<g id="edge14_Node000003_Node000015" class="edge">
<title>Node3&#45;&gt;Node15</title>
<g id="a_edge14_Node000003_Node000015"><a xlink:title=" ">
<path fill="none" stroke="#63b8ff" d="M431.8,-110.58C376.83,-100.07 301.45,-85.66 250.85,-75.99"/>
<polygon fill="#63b8ff" stroke="#63b8ff" points="251.24,-72.5 240.77,-74.06 249.93,-79.37 251.24,-72.5"/>
</a>
</g>
</g>
<!-- Node16 -->
<g id="Node000016" class="node">
<title>Node16</title>
<g id="a_Node000016"><a xlink:title=" ">
<polygon fill="#e0e0e0" stroke="#999999" points="369.5,-74 268.5,-74 268.5,-55 369.5,-55 369.5,-74"/>
<text text-anchor="middle" x="319" y="-62" font-family="Helvetica,sans-Serif" font-size="10.00">readline/history.h</text>
</a>
</g>
</g>
<!-- Node3&#45;&gt;Node16 -->
<g id="edge15_Node000003_Node000016" class="edge">
<title>Node3&#45;&gt;Node16</title>
<g id="a_edge15_Node000003_Node000016"><a xlink:title=" ">
<path fill="none" stroke="#63b8ff" d="M458.17,-109.99C426.86,-99.98 385.22,-86.67 355.67,-77.22"/>
<polygon fill="#63b8ff" stroke="#63b8ff" points="356.35,-73.76 345.76,-74.05 354.22,-80.43 356.35,-73.76"/>
</a>
</g>
</g>
<!-- Node17 -->
<g id="Node000017" class="node">
<title>Node17</title>
<g id="a_Node000017"><a xlink:title=" ">
<polygon fill="#e0e0e0" stroke="#999999" points="802,-74 730,-74 730,-55 802,-55 802,-74"/>
<text text-anchor="middle" x="766" y="-62" font-family="Helvetica,sans-Serif" font-size="10.00">sys/types.h</text>
</a>
</g>
</g>
<!-- Node3&#45;&gt;Node17 -->
<g id="edge17_Node000003_Node000017" class="edge">
<title>Node3&#45;&gt;Node17</title>
<g id="a_edge17_Node000003_Node000017"><a xlink:title=" ">
<path fill="none" stroke="#63b8ff" d="M565.23,-109.99C612.83,-99.44 676.96,-85.23 719.81,-75.73"/>
<polygon fill="#63b8ff" stroke="#63b8ff" points="720.68,-79.13 729.69,-73.55 719.17,-72.29 720.68,-79.13"/>
</a>
</g>
</g>
<!-- Node18 -->
<g id="Node000018" class="node">
<title>Node18</title>
<g id="a_Node000018"><a xlink:title=" ">
<polygon fill="#e0e0e0" stroke="#999999" points="886,-74 820,-74 820,-55 886,-55 886,-74"/>
<text text-anchor="middle" x="853" y="-62" font-family="Helvetica,sans-Serif" font-size="10.00">sys/wait.h</text>
</a>
</g>
</g>
<!-- Node3&#45;&gt;Node18 -->
<g id="edge18_Node000003_Node000018" class="edge">
<title>Node3&#45;&gt;Node18</title>
<g id="a_edge18_Node000003_Node000018"><a xlink:title=" ">
<path fill="none" stroke="#63b8ff" d="M572.09,-113.46C632.48,-104.2 722.24,-89.99 809.48,-74.22"/>
<polygon fill="#63b8ff" stroke="#63b8ff" points="810.34,-77.62 819.55,-72.39 809.09,-70.74 810.34,-77.62"/>
</a>
</g>
</g>
<!-- Node19 -->
<g id="Node000019" class="node">
<title>Node19</title>
<g id="a_Node000019"><a xlink:title=" ">
<polygon fill="#e0e0e0" stroke="#999999" points="966,-74 904,-74 904,-55 966,-55 966,-74"/>
<text text-anchor="middle" x="935" y="-62" font-family="Helvetica,sans-Serif" font-size="10.00">stdbool.h</text>
</a>
</g>
</g>
<!-- Node3&#45;&gt;Node19 -->
<g id="edge19_Node000003_Node000019" class="edge">
<title>Node3&#45;&gt;Node19</title>
<g id="a_edge19_Node000003_Node000019"><a xlink:title=" ">
<path fill="none" stroke="#63b8ff" d="M572.18,-116.84C648.85,-108.63 775.45,-93.89 893.66,-74.11"/>
<polygon fill="#63b8ff" stroke="#63b8ff" points="894.33,-77.55 903.6,-72.43 893.16,-70.64 894.33,-77.55"/>
</a>
</g>
</g>
<!-- Node4&#45;&gt;Node5 -->
<g id="edge4_Node000004_Node000005" class="edge">
<title>Node4&#45;&gt;Node5</title>
<g id="a_edge4_Node000004_Node000005"><a xlink:title=" ">
<path fill="none" stroke="#63b8ff" d="M464.46,-59.44C397.28,-52.08 252.12,-35.74 130,-19 124.56,-18.25 118.82,-17.42 113.18,-16.57"/>
<polygon fill="#63b8ff" stroke="#63b8ff" points="113.65,-13.1 103.24,-15.05 112.59,-20.02 113.65,-13.1"/>
</a>
</g>
</g>
<!-- Node4&#45;&gt;Node6 -->
<g id="edge5_Node000004_Node000006" class="edge">
<title>Node4&#45;&gt;Node6</title>
<g id="a_edge5_Node000004_Node000006"><a xlink:title=" ">
<path fill="none" stroke="#63b8ff" d="M464.32,-56.29C422.66,-48.22 353.32,-34.5 284.82,-19.35"/>
<polygon fill="#63b8ff" stroke="#63b8ff" points="285.25,-15.86 274.73,-17.1 283.73,-22.69 285.25,-15.86"/>
</a>
</g>
</g>
<!-- Node4&#45;&gt;Node7 -->
<g id="edge6_Node000004_Node000007" class="edge">
<title>Node4&#45;&gt;Node7</title>
<g id="a_edge6_Node000004_Node000007"><a xlink:title=" ">
<path fill="none" stroke="#63b8ff" d="M529.15,-54.98C557.78,-46.01 603.03,-31.82 634.7,-21.88"/>
<polygon fill="#63b8ff" stroke="#63b8ff" points="635.98,-25.15 644.47,-18.82 633.88,-18.47 635.98,-25.15"/>
</a>
</g>
</g>
<!-- Node8 -->
<g id="Node000008" class="node">
<title>Node8</title>
<g id="a_Node000008"><a xlink:title=" ">
<polygon fill="#e0e0e0" stroke="#999999" points="414,-19 364,-19 364,0 414,0 414,-19"/>
<text text-anchor="middle" x="389" y="-7" font-family="Helvetica,sans-Serif" font-size="10.00">stdio.h</text>
</a>
</g>
</g>
<!-- Node4&#45;&gt;Node8 -->
<g id="edge7_Node000004_Node000008" class="edge">
<title>Node4&#45;&gt;Node8</title>
<g id="a_edge7_Node000004_Node000008"><a xlink:title=" ">
<path fill="none" stroke="#63b8ff" d="M483.84,-54.98C465.75,-46.5 437.72,-33.35 416.81,-23.54"/>
<polygon fill="#63b8ff" stroke="#63b8ff" points="418.03,-20.25 407.49,-19.17 415.05,-26.59 418.03,-20.25"/>
</a>
</g>
</g>
<!-- Node9 -->
<g id="Node000009" class="node">
<title>Node9</title>
<g id="a_Node000009"><a xlink:title=" ">
<polygon fill="#e0e0e0" stroke="#999999" points="194.5,-19 139.5,-19 139.5,0 194.5,0 194.5,-19"/>
<text text-anchor="middle" x="167" y="-7" font-family="Helvetica,sans-Serif" font-size="10.00">signal.h</text>
</a>
</g>
</g>
<!-- Node4&#45;&gt;Node9 -->
<g id="edge8_Node000004_Node000009" class="edge">
<title>Node4&#45;&gt;Node9</title>
<g id="a_edge8_Node000004_Node000009"><a xlink:title=" ">
<path fill="none" stroke="#63b8ff" d="M464.39,-58.15C409.03,-50.18 302.37,-34.46 212,-19 209.53,-18.58 206.99,-18.13 204.43,-17.67"/>
<polygon fill="#63b8ff" stroke="#63b8ff" points="205.05,-14.23 194.58,-15.86 203.78,-21.11 205.05,-14.23"/>
</a>
</g>
</g>
<!-- Node4&#45;&gt;Node10 -->
<g id="edge9_Node000004_Node000010" class="edge">
<title>Node4&#45;&gt;Node10</title>
<g id="a_edge9_Node000004_Node000010"><a xlink:title=" ">
<path fill="none" stroke="#63b8ff" d="M539.53,-55.89C578.71,-47.83 642.18,-34.44 705.52,-19.28"/>
<polygon fill="#63b8ff" stroke="#63b8ff" points="706.36,-22.68 715.27,-16.93 704.72,-15.87 706.36,-22.68"/>
</a>
</g>
</g>
<!-- Node11 -->
<g id="Node000011" class="node">
<title>Node11</title>
<g id="a_Node000011"><a xlink:title=" ">
<polygon fill="#e0e0e0" stroke="#999999" points="551.5,-19 432.5,-19 432.5,0 551.5,0 551.5,-19"/>
<text text-anchor="middle" x="492" y="-7" font-family="Helvetica,sans-Serif" font-size="10.00">bits/types/siginfo_t.h</text>
</a>
</g>
</g>
<!-- Node4&#45;&gt;Node11 -->
<g id="edge10_Node000004_Node000011" class="edge">
<title>Node4&#45;&gt;Node11</title>
<g id="a_edge10_Node000004_Node000011"><a xlink:title=" ">
<path fill="none" stroke="#63b8ff" d="M500.35,-54.75C499.04,-47.8 497.16,-37.85 495.52,-29.13"/>
<polygon fill="#63b8ff" stroke="#63b8ff" points="498.91,-28.27 493.62,-19.09 492.04,-29.56 498.91,-28.27"/>
</a>
</g>
</g>
<!-- Node12 -->
<g id="Node000012" class="node">
<title>Node12</title>
<g id="a_Node000012"><a xlink:title=" ">
<polygon fill="#e0e0e0" stroke="#999999" points="626,-19 570,-19 570,0 626,0 626,-19"/>
<text text-anchor="middle" x="598" y="-7" font-family="Helvetica,sans-Serif" font-size="10.00">stdarg.h</text>
</a>
</g>
</g>
<!-- Node4&#45;&gt;Node12 -->
<g id="edge11_Node000004_Node000012" class="edge">
<title>Node4&#45;&gt;Node12</title>
<g id="a_edge11_Node000004_Node000012"><a xlink:title=" ">
<path fill="none" stroke="#63b8ff" d="M517.42,-54.98C532.45,-46.69 555.54,-33.94 573.16,-24.22"/>
<polygon fill="#63b8ff" stroke="#63b8ff" points="575.23,-27.07 582.3,-19.17 571.85,-20.94 575.23,-27.07"/>
</a>
</g>
</g>
<!-- Node13 -->
<g id="Node000013" class="node">
<title>Node13</title>
<g id="a_Node000013"><a xlink:title=" ">
<polygon fill="#e0e0e0" stroke="#999999" points="345.5,-19 292.5,-19 292.5,0 345.5,0 345.5,-19"/>
<text text-anchor="middle" x="319" y="-7" font-family="Helvetica,sans-Serif" font-size="10.00">limits.h</text>
</a>
</g>
</g>
<!-- Node4&#45;&gt;Node13 -->
<g id="edge12_Node000004_Node000013" class="edge">
<title>Node4&#45;&gt;Node13</title>
<g id="a_edge12_Node000004_Node000013"><a xlink:title=" ">
<path fill="none" stroke="#63b8ff" d="M472.6,-54.98C440.69,-45.74 389.7,-30.98 355.31,-21.02"/>
<polygon fill="#63b8ff" stroke="#63b8ff" points="356.23,-17.64 345.65,-18.22 354.28,-24.36 356.23,-17.64"/>
</a>
</g>
</g>
<!-- Node20&#45;&gt;Node3 -->
<g id="edge26_Node000020_Node000003" class="edge">
<title>Node20&#45;&gt;Node3</title>
<g id="a_edge26_Node000020_Node000003"><a xlink:title=" ">
<path fill="none" stroke="#63b8ff" d="M580.75,-236.29C587.55,-222.54 598.08,-195.37 587,-176 579.26,-162.47 566.27,-152.24 552.75,-144.67"/>
<polygon fill="#63b8ff" stroke="#63b8ff" points="554.33,-141.55 543.84,-140.07 551.12,-147.77 554.33,-141.55"/>
</a>
</g>
</g>
<!-- Node20&#45;&gt;Node4 -->
<g id="edge25_Node000020_Node000004" class="edge">
<title>Node20&#45;&gt;Node4</title>
<g id="a_edge25_Node000020_Node000004"><a xlink:title=" ">
<path fill="none" stroke="#63b8ff" d="M582.42,-236.35C589.07,-226.79 599.04,-210.69 603,-195 612.56,-157.17 605.83,-140.1 581,-110 569.3,-95.82 551.84,-85.32 536.31,-78.09"/>
<polygon fill="#63b8ff" stroke="#63b8ff" points="537.52,-74.8 526.95,-74.01 534.72,-81.21 537.52,-74.8"/>
</a>
</g>
</g>
<!-- Node20&#45;&gt;Node21 -->
<g id="edge27_Node000020_Node000021" class="edge">
<title>Node20&#45;&gt;Node21</title>
<g id="a_edge27_Node000020_Node000021"><a xlink:title=" ">
<path fill="none" stroke="#63b8ff" d="M564.93,-236.37C553.19,-227.21 534.41,-212.56 520.24,-201.51"/>
<polygon fill="#63b8ff" stroke="#63b8ff" points="522.15,-198.56 512.11,-195.17 517.84,-204.08 522.15,-198.56"/>
</a>
</g>
</g>
<!-- Node21&#45;&gt;Node3 -->
<g id="edge28_Node000021_Node000003" class="edge">
<title>Node21&#45;&gt;Node3</title>
<g id="a_edge28_Node000021_Node000003"><a xlink:title=" ">
<path fill="none" stroke="#63b8ff" d="M501.15,-175.87C501.26,-169.11 501.43,-159.35 501.59,-150.26"/>
<polygon fill="#63b8ff" stroke="#63b8ff" points="505.09,-150.17 501.76,-140.11 498.09,-150.05 505.09,-150.17"/>
</a>
</g>
</g>
<!-- Node22&#45;&gt;Node3 -->
<g id="edge32_Node000022_Node000003" class="edge">
<title>Node22&#45;&gt;Node3</title>
<g id="a_edge32_Node000022_Node000003"><a xlink:title=" ">
<path fill="none" stroke="#63b8ff" d="M260.16,-230.97C290.74,-216.83 339.48,-194.5 382,-176 407.08,-165.09 435.31,-153.3 458.08,-143.91"/>
<polygon fill="#63b8ff" stroke="#63b8ff" points="459.56,-147.09 467.48,-140.05 456.9,-140.61 459.56,-147.09"/>
</a>
</g>
</g>
<!-- Node22&#45;&gt;Node4 -->
<g id="edge31_Node000022_Node000004" class="edge">
<title>Node22&#45;&gt;Node4</title>
<g id="a_edge31_Node000022_Node000004"><a xlink:title=" ">
<path fill="none" stroke="#63b8ff" d="M237.26,-230.6C254.09,-197.48 295.11,-118.12 306,-110 349.16,-77.82 411.48,-68.27 454.2,-65.75"/>
<polygon fill="#63b8ff" stroke="#63b8ff" points="454.52,-69.24 464.34,-65.27 454.19,-62.25 454.52,-69.24"/>
</a>
</g>
</g>
<!-- Node22&#45;&gt;Node5 -->
<g id="edge38_Node000022_Node000005" class="edge">
<title>Node22&#45;&gt;Node5</title>
<g id="a_edge38_Node000022_Node000005"><a xlink:title=" ">
<path fill="none" stroke="#63b8ff" d="M188.23,-230.8C169.84,-222.75 149.22,-211.04 135,-195 91.64,-146.11 79.54,-65.36 76.22,-29.12"/>
<polygon fill="#63b8ff" stroke="#63b8ff" points="79.7,-28.71 75.43,-19.01 72.72,-29.26 79.7,-28.71"/>
</a>
</g>
</g>
<!-- Node22&#45;&gt;Node6 -->
<g id="edge37_Node000022_Node000006" class="edge">
<title>Node22&#45;&gt;Node6</title>
<g id="a_edge37_Node000022_Node000006"><a xlink:title=" ">
<path fill="none" stroke="#63b8ff" d="M212.66,-230.96C174.72,-198.52 90.92,-116.41 133,-55 142.24,-41.51 181.39,-28.28 211.47,-19.8"/>
<polygon fill="#63b8ff" stroke="#63b8ff" points="212.55,-23.13 221.27,-17.11 210.7,-16.38 212.55,-23.13"/>
</a>
</g>
</g>
<!-- Node22&#45;&gt;Node9 -->
<g id="edge36_Node000022_Node000009" class="edge">
<title>Node22&#45;&gt;Node9</title>
<g id="a_edge36_Node000022_Node000009"><a xlink:title=" ">
<path fill="none" stroke="#63b8ff" d="M203.8,-230.81C188.72,-221.83 170.04,-209.25 156,-195 135.49,-174.19 128.35,-168 120,-140 116.61,-128.63 116.36,-65.67 121,-55 126.09,-43.3 135.87,-33.14 145.11,-25.49"/>
<polygon fill="#63b8ff" stroke="#63b8ff" points="147.49,-28.08 153.29,-19.21 143.23,-22.52 147.49,-28.08"/>
</a>
</g>
</g>
<!-- Node22&#45;&gt;Node15 -->
<g id="edge34_Node000022_Node000015" class="edge">
<title>Node22&#45;&gt;Node15</title>
<g id="a_edge34_Node000022_Node000015"><a xlink:title=" ">
<path fill="none" stroke="#63b8ff" d="M227.33,-230.91C221.26,-198.85 206.4,-120.38 199.55,-84.26"/>
<polygon fill="#63b8ff" stroke="#63b8ff" points="202.94,-83.31 197.64,-74.13 196.06,-84.61 202.94,-83.31"/>
</a>
</g>
</g>
<!-- Node22&#45;&gt;Node16 -->
<g id="edge35_Node000022_Node000016" class="edge">
<title>Node22&#45;&gt;Node16</title>
<g id="a_edge35_Node000022_Node000016"><a xlink:title=" ">
<path fill="none" stroke="#63b8ff" d="M231.14,-230.89C233.78,-205.05 242.14,-149.2 267,-110 274.56,-98.08 286.29,-87.65 296.7,-79.88"/>
<polygon fill="#63b8ff" stroke="#63b8ff" points="298.87,-82.64 305.02,-74.01 294.83,-76.92 298.87,-82.64"/>
</a>
</g>
</g>
<!-- Node22&#45;&gt;Node21 -->
<g id="edge33_Node000022_Node000021" class="edge">
<title>Node22&#45;&gt;Node21</title>
<g id="a_edge33_Node000022_Node000021"><a xlink:title=" ">
<path fill="none" stroke="#63b8ff" d="M292.17,-231.58C340.55,-221.14 406.77,-206.84 451.57,-197.17"/>
<polygon fill="#63b8ff" stroke="#63b8ff" points="452.32,-200.59 461.36,-195.06 450.84,-193.75 452.32,-200.59"/>
</a>
</g>
</g>
</g>
</svg>
