<?xml version="1.0" encoding="UTF-8" standalone="no"?>
<!DOCTYPE svg PUBLIC "-//W3C//DTD SVG 1.1//EN"
 "http://www.w3.org/Graphics/SVG/1.1/DTD/svg11.dtd">
<!-- Generated by graphviz version 2.43.0 (0)
 -->
<!-- Title: pipes/pipes.h Pages: 1 -->
<svg width="1213pt" height="324pt"
 viewBox="0.00 0.00 1213.22 324.00" xmlns="http://www.w3.org/2000/svg" xmlns:xlink="http://www.w3.org/1999/xlink">
<g id="graph0" class="graph" transform="scale(1 1) rotate(0) translate(4 320)">
<title>pipes/pipes.h</title>
<!-- Node1 -->
<g id="Node000001" class="node">
<title>Node1</title>
<g id="a_Node000001"><a xlink:title=" ">
<polygon fill="#999999" stroke="#666666" points="575.5,-316 494.5,-316 494.5,-297 575.5,-297 575.5,-316"/>
<text text-anchor="middle" x="535" y="-304" font-family="Helvetica,sans-Serif" font-size="10.00">pipes/pipes.h</text>
</a>
</g>
</g>
<!-- Node2 -->
<g id="Node000002" class="node">
<title>Node2</title>
<g id="a_Node000002"><a xlink:href="common__utils_8h.html" target="_top" xlink:title=" ">
<polygon fill="white" stroke="#666666" points="765,-140 625,-140 625,-110 765,-110 765,-140"/>
<text text-anchor="start" x="633" y="-128" font-family="Helvetica,sans-Serif" font-size="10.00">../common_utils/common</text>
<text text-anchor="middle" x="695" y="-117" font-family="Helvetica,sans-Serif" font-size="10.00">_utils.h</text>
</a>
</g>
</g>
<!-- Node1&#45;&gt;Node2 -->
<g id="edge1_Node000001_Node000002" class="edge">
<title>Node1&#45;&gt;Node2</title>
<g id="a_edge1_Node000001_Node000002"><a xlink:title=" ">
<path fill="none" stroke="#63b8ff" d="M516.33,-296.97C502.67,-289.59 485.14,-277.5 477,-261 458.53,-223.55 482.73,-199.85 517,-176 545.77,-155.98 582.39,-143.94 614.92,-136.72"/>
<polygon fill="#63b8ff" stroke="#63b8ff" points="615.8,-140.11 624.87,-134.63 614.36,-133.26 615.8,-140.11"/>
</a>
</g>
</g>
<!-- Node3 -->
<g id="Node000003" class="node">
<title>Node3</title>
<g id="a_Node000003"><a xlink:href="libft_8h.html" target="_top" xlink:title=" ">
<polygon fill="white" stroke="#666666" points="346.5,-74 271.5,-74 271.5,-55 346.5,-55 346.5,-74"/>
<text text-anchor="middle" x="309" y="-62" font-family="Helvetica,sans-Serif" font-size="10.00">../libft/libft.h</text>
</a>
</g>
</g>
<!-- Node1&#45;&gt;Node3 -->
<g id="edge22_Node000001_Node000003" class="edge">
<title>Node1&#45;&gt;Node3</title>
<g id="a_edge22_Node000001_Node000003"><a xlink:title=" ">
<path fill="none" stroke="#63b8ff" d="M519.02,-296.98C504.41,-288.8 482.62,-275.56 466,-261 401.36,-204.4 343.07,-118.87 319.76,-82.66"/>
<polygon fill="#63b8ff" stroke="#63b8ff" points="322.7,-80.75 314.37,-74.19 316.79,-84.51 322.7,-80.75"/>
</a>
</g>
</g>
<!-- Node19 -->
<g id="Node000019" class="node">
<title>Node19</title>
<g id="a_Node000019"><a xlink:href="builtin_8h.html" target="_top" xlink:title=" ">
<polygon fill="white" stroke="#666666" points="584.5,-255.5 485.5,-255.5 485.5,-236.5 584.5,-236.5 584.5,-255.5"/>
<text text-anchor="middle" x="535" y="-243.5" font-family="Helvetica,sans-Serif" font-size="10.00">../builtin/builtin.h</text>
</a>
</g>
</g>
<!-- Node1&#45;&gt;Node19 -->
<g id="edge23_Node000001_Node000019" class="edge">
<title>Node1&#45;&gt;Node19</title>
<g id="a_edge23_Node000001_Node000019"><a xlink:title=" ">
<path fill="none" stroke="#63b8ff" d="M535,-296.87C535,-288.75 535,-276.31 535,-265.89"/>
<polygon fill="#63b8ff" stroke="#63b8ff" points="538.5,-265.67 535,-255.67 531.5,-265.67 538.5,-265.67"/>
</a>
</g>
</g>
<!-- Node20 -->
<g id="Node000020" class="node">
<title>Node20</title>
<g id="a_Node000020"><a xlink:href="redirections_8h.html" target="_top" xlink:title=" ">
<polygon fill="white" stroke="#666666" points="689.5,-195 536.5,-195 536.5,-176 689.5,-176 689.5,-195"/>
<text text-anchor="middle" x="613" y="-183" font-family="Helvetica,sans-Serif" font-size="10.00">../redirections/redirections.h</text>
</a>
</g>
</g>
<!-- Node1&#45;&gt;Node20 -->
<g id="edge28_Node000001_Node000020" class="edge">
<title>Node1&#45;&gt;Node20</title>
<g id="a_edge28_Node000001_Node000020"><a xlink:title=" ">
<path fill="none" stroke="#63b8ff" d="M552.03,-296.86C565.4,-289.21 583.48,-276.81 594,-261 605.19,-244.19 609.79,-221.23 611.68,-205.26"/>
<polygon fill="#63b8ff" stroke="#63b8ff" points="615.19,-205.34 612.63,-195.05 608.22,-204.69 615.19,-205.34"/>
</a>
</g>
</g>
<!-- Node21 -->
<g id="Node000021" class="node">
<title>Node21</title>
<g id="a_Node000021"><a xlink:href="system__commands_8h.html" target="_top" xlink:title=" ">
<polygon fill="white" stroke="#666666" points="983,-261 859,-261 859,-231 983,-231 983,-261"/>
<text text-anchor="start" x="867" y="-249" font-family="Helvetica,sans-Serif" font-size="10.00">../system_commands</text>
<text text-anchor="middle" x="921" y="-238" font-family="Helvetica,sans-Serif" font-size="10.00">/system_commands.h</text>
</a>
</g>
</g>
<!-- Node1&#45;&gt;Node21 -->
<g id="edge29_Node000001_Node000021" class="edge">
<title>Node1&#45;&gt;Node21</title>
<g id="a_edge29_Node000001_Node000021"><a xlink:title=" ">
<path fill="none" stroke="#63b8ff" d="M575.58,-299.35C640.36,-289.53 768.05,-270.18 848.72,-257.95"/>
<polygon fill="#63b8ff" stroke="#63b8ff" points="849.44,-261.39 858.8,-256.43 848.39,-254.46 849.44,-261.39"/>
</a>
</g>
</g>
<!-- Node2&#45;&gt;Node3 -->
<g id="edge2_Node000002_Node000003" class="edge">
<title>Node2&#45;&gt;Node3</title>
<g id="a_edge2_Node000002_Node000003"><a xlink:title=" ">
<path fill="none" stroke="#63b8ff" d="M624.89,-112.2C620.19,-111.44 615.53,-110.7 611,-110 500.07,-92.77 471.95,-91.06 361,-74 359.7,-73.8 358.39,-73.6 357.06,-73.39"/>
<polygon fill="#63b8ff" stroke="#63b8ff" points="357.18,-69.87 346.76,-71.76 356.09,-76.78 357.18,-69.87"/>
</a>
</g>
</g>
<!-- Node4 -->
<g id="Node000004" class="node">
<title>Node4</title>
<g id="a_Node000004"><a xlink:title=" ">
<polygon fill="#e0e0e0" stroke="#999999" points="873,-19 817,-19 817,0 873,0 873,-19"/>
<text text-anchor="middle" x="845" y="-7" font-family="Helvetica,sans-Serif" font-size="10.00">unistd.h</text>
</a>
</g>
</g>
<!-- Node2&#45;&gt;Node4 -->
<g id="edge21_Node000002_Node000004" class="edge">
<title>Node2&#45;&gt;Node4</title>
<g id="a_edge21_Node000002_Node000004"><a xlink:title=" ">
<path fill="none" stroke="#63b8ff" d="M757.71,-109.95C779.7,-102.39 803.11,-90.99 820,-74 832.13,-61.8 838.54,-43.02 841.82,-29.04"/>
<polygon fill="#63b8ff" stroke="#63b8ff" points="845.28,-29.57 843.83,-19.08 838.42,-28.19 845.28,-29.57"/>
</a>
</g>
</g>
<!-- Node5 -->
<g id="Node000005" class="node">
<title>Node5</title>
<g id="a_Node000005"><a xlink:title=" ">
<polygon fill="#e0e0e0" stroke="#999999" points="725.5,-19 672.5,-19 672.5,0 725.5,0 725.5,-19"/>
<text text-anchor="middle" x="699" y="-7" font-family="Helvetica,sans-Serif" font-size="10.00">stdlib.h</text>
</a>
</g>
</g>
<!-- Node2&#45;&gt;Node5 -->
<g id="edge19_Node000002_Node000005" class="edge">
<title>Node2&#45;&gt;Node5</title>
<g id="a_edge19_Node000002_Node000005"><a xlink:title=" ">
<path fill="none" stroke="#63b8ff" d="M695.51,-109.63C696.23,-89.21 697.54,-51.81 698.34,-29.24"/>
<polygon fill="#63b8ff" stroke="#63b8ff" points="701.84,-29.35 698.69,-19.23 694.84,-29.1 701.84,-29.35"/>
</a>
</g>
</g>
<!-- Node6 -->
<g id="Node000006" class="node">
<title>Node6</title>
<g id="a_Node000006"><a xlink:title=" ">
<polygon fill="#e0e0e0" stroke="#999999" points="404.5,-19 351.5,-19 351.5,0 404.5,0 404.5,-19"/>
<text text-anchor="middle" x="378" y="-7" font-family="Helvetica,sans-Serif" font-size="10.00">string.h</text>
</a>
</g>
</g>
<!-- Node2&#45;&gt;Node6 -->
<g id="edge20_Node000002_Node000006" class="edge">
<title>Node2&#45;&gt;Node6</title>
<g id="a_edge20_Node000002_Node000006"><a xlink:title=" ">
<path fill="none" stroke="#63b8ff" d="M624.73,-111.8C545.28,-97.91 426.3,-76.78 422,-74 405.13,-63.12 392.95,-43.25 385.74,-28.63"/>
<polygon fill="#63b8ff" stroke="#63b8ff" points="388.72,-26.74 381.37,-19.11 382.36,-29.66 388.72,-26.74"/>
</a>
</g>
</g>
<!-- Node9 -->
<g id="Node000009" class="node">
<title>Node9</title>
<g id="a_Node000009"><a xlink:title=" ">
<polygon fill="#e0e0e0" stroke="#999999" points="469.5,-19 422.5,-19 422.5,0 469.5,0 469.5,-19"/>
<text text-anchor="middle" x="446" y="-7" font-family="Helvetica,sans-Serif" font-size="10.00">fcntl.h</text>
</a>
</g>
</g>
<!-- Node2&#45;&gt;Node9 -->
<g id="edge15_Node000002_Node000009" class="edge">
<title>Node2&#45;&gt;Node9</title>
<g id="a_edge15_Node000002_Node000009"><a xlink:title=" ">
<path fill="none" stroke="#63b8ff" d="M624.92,-111.79C548.07,-98.24 435.12,-77.77 432,-74 421.46,-61.26 427.56,-42.32 434.71,-28.44"/>
<polygon fill="#63b8ff" stroke="#63b8ff" points="437.96,-29.8 439.88,-19.38 431.88,-26.33 437.96,-29.8"/>
</a>
</g>
</g>
<!-- Node13 -->
<g id="Node000013" class="node">
<title>Node13</title>
<g id="a_Node000013"><a xlink:href="signal__flag_8h.html" target="_top" xlink:title=" ">
<polygon fill="white" stroke="#666666" points="811,-74 733,-74 733,-55 811,-55 811,-74"/>
<text text-anchor="middle" x="772" y="-62" font-family="Helvetica,sans-Serif" font-size="10.00">signal_flag.h</text>
</a>
</g>
</g>
<!-- Node2&#45;&gt;Node13 -->
<g id="edge12_Node000002_Node000013" class="edge">
<title>Node2&#45;&gt;Node13</title>
<g id="a_edge12_Node000002_Node000013"><a xlink:title=" ">
<path fill="none" stroke="#63b8ff" d="M713.64,-109.84C725.39,-100.91 740.53,-89.41 752.45,-80.35"/>
<polygon fill="#63b8ff" stroke="#63b8ff" points="754.62,-83.1 760.46,-74.27 750.38,-77.53 754.62,-83.1"/>
</a>
</g>
</g>
<!-- Node14 -->
<g id="Node000014" class="node">
<title>Node14</title>
<g id="a_Node000014"><a xlink:title=" ">
<polygon fill="#e0e0e0" stroke="#999999" points="975,-74 867,-74 867,-55 975,-55 975,-74"/>
<text text-anchor="middle" x="921" y="-62" font-family="Helvetica,sans-Serif" font-size="10.00">readline/readline.h</text>
</a>
</g>
</g>
<!-- Node2&#45;&gt;Node14 -->
<g id="edge13_Node000002_Node000014" class="edge">
<title>Node2&#45;&gt;Node14</title>
<g id="a_edge13_Node000002_Node000014"><a xlink:title=" ">
<path fill="none" stroke="#63b8ff" d="M749.13,-109.99C788.64,-99.76 841.47,-86.09 878.08,-76.61"/>
<polygon fill="#63b8ff" stroke="#63b8ff" points="879.15,-79.95 887.96,-74.05 877.4,-73.17 879.15,-79.95"/>
</a>
</g>
</g>
<!-- Node15 -->
<g id="Node000015" class="node">
<title>Node15</title>
<g id="a_Node000015"><a xlink:title=" ">
<polygon fill="#e0e0e0" stroke="#999999" points="1094.5,-74 993.5,-74 993.5,-55 1094.5,-55 1094.5,-74"/>
<text text-anchor="middle" x="1044" y="-62" font-family="Helvetica,sans-Serif" font-size="10.00">readline/history.h</text>
</a>
</g>
</g>
<!-- Node2&#45;&gt;Node15 -->
<g id="edge14_Node000002_Node000015" class="edge">
<title>Node2&#45;&gt;Node15</title>
<g id="a_edge14_Node000002_Node000015"><a xlink:title=" ">
<path fill="none" stroke="#63b8ff" d="M765.21,-112.23C829.09,-101.52 922.42,-85.88 983.19,-75.69"/>
<polygon fill="#63b8ff" stroke="#63b8ff" points="984.11,-79.09 993.4,-73.98 982.96,-72.18 984.11,-79.09"/>
</a>
</g>
</g>
<!-- Node16 -->
<g id="Node000016" class="node">
<title>Node16</title>
<g id="a_Node000016"><a xlink:title=" ">
<polygon fill="#e0e0e0" stroke="#999999" points="513,-74 441,-74 441,-55 513,-55 513,-74"/>
<text text-anchor="middle" x="477" y="-62" font-family="Helvetica,sans-Serif" font-size="10.00">sys/types.h</text>
</a>
</g>
</g>
<!-- Node2&#45;&gt;Node16 -->
<g id="edge16_Node000002_Node000016" class="edge">
<title>Node2&#45;&gt;Node16</title>
<g id="a_edge16_Node000002_Node000016"><a xlink:title=" ">
<path fill="none" stroke="#63b8ff" d="M642.78,-109.99C604.84,-99.8 554.15,-86.2 518.85,-76.73"/>
<polygon fill="#63b8ff" stroke="#63b8ff" points="519.44,-73.27 508.88,-74.05 517.63,-80.03 519.44,-73.27"/>
</a>
</g>
</g>
<!-- Node17 -->
<g id="Node000017" class="node">
<title>Node17</title>
<g id="a_Node000017"><a xlink:title=" ">
<polygon fill="#e0e0e0" stroke="#999999" points="597,-74 531,-74 531,-55 597,-55 597,-74"/>
<text text-anchor="middle" x="564" y="-62" font-family="Helvetica,sans-Serif" font-size="10.00">sys/wait.h</text>
</a>
</g>
</g>
<!-- Node2&#45;&gt;Node17 -->
<g id="edge17_Node000002_Node000017" class="edge">
<title>Node2&#45;&gt;Node17</title>
<g id="a_edge17_Node000002_Node000017"><a xlink:title=" ">
<path fill="none" stroke="#63b8ff" d="M663.62,-109.99C642.06,-100.36 613.65,-87.67 592.69,-78.31"/>
<polygon fill="#63b8ff" stroke="#63b8ff" points="593.9,-75.02 583.35,-74.14 591.05,-81.41 593.9,-75.02"/>
</a>
</g>
</g>
<!-- Node18 -->
<g id="Node000018" class="node">
<title>Node18</title>
<g id="a_Node000018"><a xlink:title=" ">
<polygon fill="#e0e0e0" stroke="#999999" points="677,-74 615,-74 615,-55 677,-55 677,-74"/>
<text text-anchor="middle" x="646" y="-62" font-family="Helvetica,sans-Serif" font-size="10.00">stdbool.h</text>
</a>
</g>
</g>
<!-- Node2&#45;&gt;Node18 -->
<g id="edge18_Node000002_Node000018" class="edge">
<title>Node2&#45;&gt;Node18</title>
<g id="a_edge18_Node000002_Node000018"><a xlink:title=" ">
<path fill="none" stroke="#63b8ff" d="M683.14,-109.84C676.1,-101.43 667.14,-90.74 659.79,-81.96"/>
<polygon fill="#63b8ff" stroke="#63b8ff" points="662.45,-79.68 653.34,-74.27 657.08,-84.18 662.45,-79.68"/>
</a>
</g>
</g>
<!-- Node3&#45;&gt;Node4 -->
<g id="edge3_Node000003_Node000004" class="edge">
<title>Node3&#45;&gt;Node4</title>
<g id="a_edge3_Node000003_Node000004"><a xlink:title=" ">
<path fill="none" stroke="#63b8ff" d="M346.71,-60.81C443.82,-53.78 701.64,-34.43 806.81,-18.93"/>
<polygon fill="#63b8ff" stroke="#63b8ff" points="807.44,-22.38 816.8,-17.4 806.38,-15.46 807.44,-22.38"/>
</a>
</g>
</g>
<!-- Node3&#45;&gt;Node5 -->
<g id="edge4_Node000003_Node000005" class="edge">
<title>Node3&#45;&gt;Node5</title>
<g id="a_edge4_Node000003_Node000005"><a xlink:title=" ">
<path fill="none" stroke="#63b8ff" d="M346.75,-58.37C421.63,-48.19 588.13,-25.57 662.22,-15.5"/>
<polygon fill="#63b8ff" stroke="#63b8ff" points="663.02,-18.92 672.46,-14.11 662.08,-11.99 663.02,-18.92"/>
</a>
</g>
</g>
<!-- Node3&#45;&gt;Node6 -->
<g id="edge5_Node000003_Node000006" class="edge">
<title>Node3&#45;&gt;Node6</title>
<g id="a_edge5_Node000003_Node000006"><a xlink:title=" ">
<path fill="none" stroke="#63b8ff" d="M320.09,-54.98C330.49,-47 346.26,-34.88 358.72,-25.31"/>
<polygon fill="#63b8ff" stroke="#63b8ff" points="360.91,-28.04 366.71,-19.17 356.65,-22.49 360.91,-28.04"/>
</a>
</g>
</g>
<!-- Node7 -->
<g id="Node000007" class="node">
<title>Node7</title>
<g id="a_Node000007"><a xlink:title=" ">
<polygon fill="#e0e0e0" stroke="#999999" points="50,-19 0,-19 0,0 50,0 50,-19"/>
<text text-anchor="middle" x="25" y="-7" font-family="Helvetica,sans-Serif" font-size="10.00">stdio.h</text>
</a>
</g>
</g>
<!-- Node3&#45;&gt;Node7 -->
<g id="edge6_Node000003_Node000007" class="edge">
<title>Node3&#45;&gt;Node7</title>
<g id="a_edge6_Node000003_Node000007"><a xlink:title=" ">
<path fill="none" stroke="#63b8ff" d="M271.15,-57.6C223.96,-50.05 140.63,-36.13 60.02,-19.1"/>
<polygon fill="#63b8ff" stroke="#63b8ff" points="60.72,-15.67 50.21,-17.01 59.26,-22.51 60.72,-15.67"/>
</a>
</g>
</g>
<!-- Node8 -->
<g id="Node000008" class="node">
<title>Node8</title>
<g id="a_Node000008"><a xlink:title=" ">
<polygon fill="#e0e0e0" stroke="#999999" points="798.5,-19 743.5,-19 743.5,0 798.5,0 798.5,-19"/>
<text text-anchor="middle" x="771" y="-7" font-family="Helvetica,sans-Serif" font-size="10.00">signal.h</text>
</a>
</g>
</g>
<!-- Node3&#45;&gt;Node8 -->
<g id="edge7_Node000003_Node000008" class="edge">
<title>Node3&#45;&gt;Node8</title>
<g id="a_edge7_Node000003_Node000008"><a xlink:title=" ">
<path fill="none" stroke="#63b8ff" d="M346.54,-61.2C419.35,-56.38 584.93,-43.73 732.99,-19.16"/>
<polygon fill="#63b8ff" stroke="#63b8ff" points="733.88,-22.55 743.16,-17.44 732.72,-15.65 733.88,-22.55"/>
</a>
</g>
</g>
<!-- Node3&#45;&gt;Node9 -->
<g id="edge8_Node000003_Node000009" class="edge">
<title>Node3&#45;&gt;Node9</title>
<g id="a_edge8_Node000003_Node000009"><a xlink:title=" ">
<path fill="none" stroke="#63b8ff" d="M331.01,-54.98C353.45,-46.3 388.48,-32.75 413.99,-22.88"/>
<polygon fill="#63b8ff" stroke="#63b8ff" points="415.52,-26.04 423.59,-19.17 413,-19.51 415.52,-26.04"/>
</a>
</g>
</g>
<!-- Node10 -->
<g id="Node000010" class="node">
<title>Node10</title>
<g id="a_Node000010"><a xlink:title=" ">
<polygon fill="#e0e0e0" stroke="#999999" points="187.5,-19 68.5,-19 68.5,0 187.5,0 187.5,-19"/>
<text text-anchor="middle" x="128" y="-7" font-family="Helvetica,sans-Serif" font-size="10.00">bits/types/siginfo_t.h</text>
</a>
</g>
</g>
<!-- Node3&#45;&gt;Node10 -->
<g id="edge9_Node000003_Node000010" class="edge">
<title>Node3&#45;&gt;Node10</title>
<g id="a_edge9_Node000003_Node000010"><a xlink:title=" ">
<path fill="none" stroke="#63b8ff" d="M279.92,-54.98C249.4,-46.05 201.24,-31.94 167.34,-22.02"/>
<polygon fill="#63b8ff" stroke="#63b8ff" points="167.89,-18.53 157.31,-19.08 165.92,-25.25 167.89,-18.53"/>
</a>
</g>
</g>
<!-- Node11 -->
<g id="Node000011" class="node">
<title>Node11</title>
<g id="a_Node000011"><a xlink:title=" ">
<polygon fill="#e0e0e0" stroke="#999999" points="262,-19 206,-19 206,0 262,0 262,-19"/>
<text text-anchor="middle" x="234" y="-7" font-family="Helvetica,sans-Serif" font-size="10.00">stdarg.h</text>
</a>
</g>
</g>
<!-- Node3&#45;&gt;Node11 -->
<g id="edge10_Node000003_Node000011" class="edge">
<title>Node3&#45;&gt;Node11</title>
<g id="a_edge10_Node000003_Node000011"><a xlink:title=" ">
<path fill="none" stroke="#63b8ff" d="M296.95,-54.98C285.54,-46.92 268.17,-34.65 254.57,-25.03"/>
<polygon fill="#63b8ff" stroke="#63b8ff" points="256.46,-22.08 246.27,-19.17 252.42,-27.8 256.46,-22.08"/>
</a>
</g>
</g>
<!-- Node12 -->
<g id="Node000012" class="node">
<title>Node12</title>
<g id="a_Node000012"><a xlink:title=" ">
<polygon fill="#e0e0e0" stroke="#999999" points="333.5,-19 280.5,-19 280.5,0 333.5,0 333.5,-19"/>
<text text-anchor="middle" x="307" y="-7" font-family="Helvetica,sans-Serif" font-size="10.00">limits.h</text>
</a>
</g>
</g>
<!-- Node3&#45;&gt;Node12 -->
<g id="edge11_Node000003_Node000012" class="edge">
<title>Node3&#45;&gt;Node12</title>
<g id="a_edge11_Node000003_Node000012"><a xlink:title=" ">
<path fill="none" stroke="#63b8ff" d="M308.67,-54.75C308.41,-47.8 308.03,-37.85 307.7,-29.13"/>
<polygon fill="#63b8ff" stroke="#63b8ff" points="311.2,-28.95 307.32,-19.09 304.2,-29.21 311.2,-28.95"/>
</a>
</g>
</g>
<!-- Node19&#45;&gt;Node2 -->
<g id="edge25_Node000019_Node000002" class="edge">
<title>Node19&#45;&gt;Node2</title>
<g id="a_edge25_Node000019_Node000002"><a xlink:title=" ">
<path fill="none" stroke="#63b8ff" d="M530.72,-236.37C524.38,-222.25 514.63,-193.96 528,-176 548.15,-148.94 582.41,-135.97 614.68,-129.94"/>
<polygon fill="#63b8ff" stroke="#63b8ff" points="615.32,-133.38 624.61,-128.29 614.17,-126.48 615.32,-133.38"/>
</a>
</g>
</g>
<!-- Node19&#45;&gt;Node3 -->
<g id="edge24_Node000019_Node000003" class="edge">
<title>Node19&#45;&gt;Node3</title>
<g id="a_edge24_Node000019_Node000003"><a xlink:title=" ">
<path fill="none" stroke="#63b8ff" d="M524.1,-236.34C488.15,-207.79 373.05,-116.37 327.66,-80.32"/>
<polygon fill="#63b8ff" stroke="#63b8ff" points="329.8,-77.55 319.79,-74.07 325.44,-83.03 329.8,-77.55"/>
</a>
</g>
</g>
<!-- Node19&#45;&gt;Node20 -->
<g id="edge26_Node000019_Node000020" class="edge">
<title>Node19&#45;&gt;Node20</title>
<g id="a_edge26_Node000019_Node000020"><a xlink:title=" ">
<path fill="none" stroke="#63b8ff" d="M546.51,-236.37C558.84,-227.12 578.62,-212.28 593.41,-201.19"/>
<polygon fill="#63b8ff" stroke="#63b8ff" points="595.54,-203.97 601.44,-195.17 591.34,-198.37 595.54,-203.97"/>
</a>
</g>
</g>
<!-- Node20&#45;&gt;Node2 -->
<g id="edge27_Node000020_Node000002" class="edge">
<title>Node20&#45;&gt;Node2</title>
<g id="a_edge27_Node000020_Node000002"><a xlink:title=" ">
<path fill="none" stroke="#63b8ff" d="M625.1,-175.87C636.02,-168.08 652.51,-156.32 666.72,-146.17"/>
<polygon fill="#63b8ff" stroke="#63b8ff" points="669.11,-148.77 675.22,-140.11 665.04,-143.07 669.11,-148.77"/>
</a>
</g>
</g>
<!-- Node21&#45;&gt;Node2 -->
<g id="edge31_Node000021_Node000002" class="edge">
<title>Node21&#45;&gt;Node2</title>
<g id="a_edge31_Node000021_Node000002"><a xlink:title=" ">
<path fill="none" stroke="#63b8ff" d="M894.19,-230.88C853.5,-209.46 776.09,-168.7 730.68,-144.79"/>
<polygon fill="#63b8ff" stroke="#63b8ff" points="732.26,-141.66 721.78,-140.1 729,-147.86 732.26,-141.66"/>
</a>
</g>
</g>
<!-- Node21&#45;&gt;Node3 -->
<g id="edge30_Node000021_Node000003" class="edge">
<title>Node21&#45;&gt;Node3</title>
<g id="a_edge30_Node000021_Node000003"><a xlink:title=" ">
<path fill="none" stroke="#63b8ff" d="M876.87,-230.92C832.15,-216.74 760.9,-194.39 699,-176 572.17,-138.33 421.29,-96.39 350.08,-76.77"/>
<polygon fill="#63b8ff" stroke="#63b8ff" points="350.74,-73.32 340.17,-74.04 348.88,-80.07 350.74,-73.32"/>
</a>
</g>
</g>
<!-- Node21&#45;&gt;Node4 -->
<g id="edge37_Node000021_Node000004" class="edge">
<title>Node21&#45;&gt;Node4</title>
<g id="a_edge37_Node000021_Node000004"><a xlink:title=" ">
<path fill="none" stroke="#63b8ff" d="M983.11,-241.58C1050.34,-236.43 1151.16,-223.99 1175,-195 1214.52,-146.94 1215.95,-101.85 1175,-55 1137.52,-12.13 962.33,-8.89 883.55,-9.67"/>
<polygon fill="#63b8ff" stroke="#63b8ff" points="883.05,-6.18 873.1,-9.8 883.14,-13.18 883.05,-6.18"/>
</a>
</g>
</g>
<!-- Node21&#45;&gt;Node5 -->
<g id="edge36_Node000021_Node000005" class="edge">
<title>Node21&#45;&gt;Node5</title>
<g id="a_edge36_Node000021_Node000005"><a xlink:title=" ">
<path fill="none" stroke="#63b8ff" d="M953.28,-230.98C1020.69,-199.87 1165.24,-122.5 1104,-55 1050.59,3.88 832.4,-29.91 735.72,-18.63"/>
<polygon fill="#63b8ff" stroke="#63b8ff" points="736.05,-15.15 725.66,-17.22 735.07,-22.08 736.05,-15.15"/>
</a>
</g>
</g>
<!-- Node21&#45;&gt;Node8 -->
<g id="edge35_Node000021_Node000008" class="edge">
<title>Node21&#45;&gt;Node8</title>
<g id="a_edge35_Node000021_Node000008"><a xlink:title=" ">
<path fill="none" stroke="#63b8ff" d="M983.14,-239.13C1039.99,-232.31 1118.05,-218.84 1137,-195 1175.72,-146.29 1178.54,-101.33 1137,-55 1089.82,-2.38 896.48,-28.96 808.94,-18.7"/>
<polygon fill="#63b8ff" stroke="#63b8ff" points="809.2,-15.2 798.81,-17.26 808.22,-22.13 809.2,-15.2"/>
</a>
</g>
</g>
<!-- Node21&#45;&gt;Node14 -->
<g id="edge33_Node000021_Node000014" class="edge">
<title>Node21&#45;&gt;Node14</title>
<g id="a_edge33_Node000021_Node000014"><a xlink:title=" ">
<path fill="none" stroke="#63b8ff" d="M921,-230.91C921,-198.85 921,-120.38 921,-84.26"/>
<polygon fill="#63b8ff" stroke="#63b8ff" points="924.5,-84.13 921,-74.13 917.5,-84.13 924.5,-84.13"/>
</a>
</g>
</g>
<!-- Node21&#45;&gt;Node15 -->
<g id="edge34_Node000021_Node000015" class="edge">
<title>Node21&#45;&gt;Node15</title>
<g id="a_edge34_Node000021_Node000015"><a xlink:title=" ">
<path fill="none" stroke="#63b8ff" d="M930.65,-230.91C953.01,-198.29 1008.26,-117.65 1032.4,-82.42"/>
<polygon fill="#63b8ff" stroke="#63b8ff" points="1035.32,-84.36 1038.08,-74.13 1029.54,-80.41 1035.32,-84.36"/>
</a>
</g>
</g>
<!-- Node21&#45;&gt;Node20 -->
<g id="edge32_Node000021_Node000020" class="edge">
<title>Node21&#45;&gt;Node20</title>
<g id="a_edge32_Node000021_Node000020"><a xlink:title=" ">
<path fill="none" stroke="#63b8ff" d="M858.67,-233.16C802.69,-222.53 721.3,-207.07 667.77,-196.9"/>
<polygon fill="#63b8ff" stroke="#63b8ff" points="668.26,-193.43 657.78,-195.01 666.95,-200.31 668.26,-193.43"/>
</a>
</g>
</g>
</g>
</svg>
