<?xml version="1.0" encoding="UTF-8" standalone="no"?>
<!DOCTYPE svg PUBLIC "-//W3C//DTD SVG 1.1//EN"
 "http://www.w3.org/Graphics/SVG/1.1/DTD/svg11.dtd">
<!-- Generated by graphviz version 2.43.0 (0)
 -->
<!-- Title: ft_exe_syscmd_in_pipe Pages: 1 -->
<svg width="873pt" height="520pt"
 viewBox="0.00 0.00 873.00 520.00" xmlns="http://www.w3.org/2000/svg" xmlns:xlink="http://www.w3.org/1999/xlink">
<g id="graph0" class="graph" transform="scale(1 1) rotate(0) translate(4 516)">
<title>ft_exe_syscmd_in_pipe</title>
<!-- Node1 -->
<g id="Node000001" class="node">
<title>Node1</title>
<g id="a_Node000001"><a xlink:title="Executes a system command inside a pipe.">
<polygon fill="#999999" stroke="#666666" points="129,-314 0,-314 0,-295 129,-295 129,-314"/>
<text text-anchor="middle" x="64.5" y="-302" font-family="Helvetica,sans-Serif" font-size="10.00">ft_exe_syscmd_in_pipe</text>
</a>
</g>
</g>
<!-- Node2 -->
<g id="Node000002" class="node">
<title>Node2</title>
<g id="a_Node000002"><a xlink:href="create__pipe__list_8c.html#a6b9b8784ad35c4e2836f71eb62937940" target="_top" xlink:title="Executes an external command with execve, redirecting stdout if needed.">
<polygon fill="white" stroke="#666666" points="281,-371 165,-371 165,-352 281,-352 281,-371"/>
<text text-anchor="middle" x="223" y="-359" font-family="Helvetica,sans-Serif" font-size="10.00">ft_execution_execve</text>
</a>
</g>
</g>
<!-- Node1&#45;&gt;Node2 -->
<g id="edge1_Node000001_Node000002" class="edge">
<title>Node1&#45;&gt;Node2</title>
<g id="a_edge1_Node000001_Node000002"><a xlink:title=" ">
<path fill="none" stroke="#63b8ff" d="M91.69,-314.04C117.54,-323.45 157.24,-337.91 186.03,-348.4"/>
<polygon fill="#63b8ff" stroke="#63b8ff" points="185.13,-351.79 195.72,-351.93 187.52,-345.22 185.13,-351.79"/>
</a>
</g>
</g>
<!-- Node3 -->
<g id="Node000003" class="node">
<title>Node3</title>
<g id="a_Node000003"><a xlink:href="ft__free__matrix_8c.html#a1ea6d1f3b50d1c23d4f0faddd1a13448" target="_top" xlink:title="Frees a NULL&#45;terminated matrix of strings.">
<polygon fill="white" stroke="#666666" points="428.5,-389 342.5,-389 342.5,-370 428.5,-370 428.5,-389"/>
<text text-anchor="middle" x="385.5" y="-377" font-family="Helvetica,sans-Serif" font-size="10.00">ft_free_matrix</text>
</a>
</g>
</g>
<!-- Node1&#45;&gt;Node3 -->
<g id="edge8_Node000001_Node000003" class="edge">
<title>Node1&#45;&gt;Node3</title>
<g id="a_edge8_Node000001_Node000003"><a xlink:title=" ">
<path fill="none" stroke="#63b8ff" d="M73.88,-314.14C89.64,-331.44 125.67,-367.2 165,-380.5 219.87,-399.06 286.97,-395.23 332.43,-389.05"/>
<polygon fill="#63b8ff" stroke="#63b8ff" points="332.96,-392.51 342.35,-387.62 331.96,-385.58 332.96,-392.51"/>
</a>
</g>
</g>
<!-- Node4 -->
<g id="Node000004" class="node">
<title>Node4</title>
<g id="a_Node000004"><a xlink:href="utils__fd_8c.html#a184b4852a6ca5544cc056e7a8e20e4ad" target="_top" xlink:title="Handles opening and validating file descriptors for command input/output.">
<polygon fill="white" stroke="#666666" points="251.5,-75 194.5,-75 194.5,-56 251.5,-56 251.5,-75"/>
<text text-anchor="middle" x="223" y="-63" font-family="Helvetica,sans-Serif" font-size="10.00">ft_for_fd</text>
</a>
</g>
</g>
<!-- Node1&#45;&gt;Node4 -->
<g id="edge3_Node000001_Node000004" class="edge">
<title>Node1&#45;&gt;Node4</title>
<g id="a_edge3_Node000001_Node000004"><a xlink:title=" ">
<path fill="none" stroke="#63b8ff" d="M71.83,-294.83C95.48,-258.72 178.88,-131.35 210.09,-83.68"/>
<polygon fill="#63b8ff" stroke="#63b8ff" points="213.21,-85.31 215.76,-75.02 207.36,-81.47 213.21,-85.31"/>
</a>
</g>
</g>
<!-- Node8 -->
<g id="Node000008" class="node">
<title>Node8</title>
<g id="a_Node000008"><a xlink:href="system__commands_8c.html#ad7151ee21a852e1430f0616b06cf56d4" target="_top" xlink:title="Creates an argument matrix for command execution.">
<polygon fill="white" stroke="#666666" points="260,-295 186,-295 186,-276 260,-276 260,-295"/>
<text text-anchor="middle" x="223" y="-283" font-family="Helvetica,sans-Serif" font-size="10.00">ft_mtx_cmd</text>
</a>
</g>
</g>
<!-- Node1&#45;&gt;Node8 -->
<g id="edge9_Node000001_Node000008" class="edge">
<title>Node1&#45;&gt;Node8</title>
<g id="a_edge9_Node000001_Node000008"><a xlink:title=" ">
<path fill="none" stroke="#63b8ff" d="M129.15,-296.77C144.68,-294.89 161,-292.91 175.55,-291.14"/>
<polygon fill="#63b8ff" stroke="#63b8ff" points="176.3,-294.57 185.8,-289.89 175.45,-287.63 176.3,-294.57"/>
</a>
</g>
</g>
<!-- Node10 -->
<g id="Node000010" class="node">
<title>Node10</title>
<g id="a_Node000010"><a xlink:href="ft__printf_8c.html#a091532b7f37af84bdecc84dccf4eedb1" target="_top" xlink:title="A simplified printf function that outputs formatted data to a given file descriptor.">
<polygon fill="white" stroke="#666666" points="413,-352 358,-352 358,-333 413,-333 413,-352"/>
<text text-anchor="middle" x="385.5" y="-340" font-family="Helvetica,sans-Serif" font-size="10.00">ft_printf</text>
</a>
</g>
</g>
<!-- Node1&#45;&gt;Node10 -->
<g id="edge41_Node000001_Node000010" class="edge">
<title>Node1&#45;&gt;Node10</title>
<g id="a_edge41_Node000001_Node000010"><a xlink:title=" ">
<path fill="none" stroke="#63b8ff" d="M129.29,-312.1C194.74,-319.9 294.33,-331.76 347.68,-338.11"/>
<polygon fill="#63b8ff" stroke="#63b8ff" points="347.37,-341.6 357.71,-339.31 348.2,-334.65 347.37,-341.6"/>
</a>
</g>
</g>
<!-- Node21 -->
<g id="Node000021" class="node">
<title>Node21</title>
<g id="a_Node000021"><a xlink:href="system__commands_8c.html#aaaa4228e08342bbace615a9eeea465bd" target="_top" xlink:title="Searches for the executable path of a command.">
<polygon fill="white" stroke="#666666" points="264.5,-241 181.5,-241 181.5,-222 264.5,-222 264.5,-241"/>
<text text-anchor="middle" x="223" y="-229" font-family="Helvetica,sans-Serif" font-size="10.00">ft_path_finder</text>
</a>
</g>
</g>
<!-- Node1&#45;&gt;Node21 -->
<g id="edge27_Node000001_Node000021" class="edge">
<title>Node1&#45;&gt;Node21</title>
<g id="a_edge27_Node000001_Node000021"><a xlink:title=" ">
<path fill="none" stroke="#63b8ff" d="M85.96,-294.96C113.14,-282.28 161.34,-259.79 192.47,-245.28"/>
<polygon fill="#63b8ff" stroke="#63b8ff" points="193.95,-248.45 201.54,-241.05 190.99,-242.1 193.95,-248.45"/>
</a>
</g>
</g>
<!-- Node2&#45;&gt;Node3 -->
<g id="edge2_Node000002_Node000003" class="edge">
<title>Node2&#45;&gt;Node3</title>
<g id="a_edge2_Node000002_Node000003"><a xlink:title=" ">
<path fill="none" stroke="#63b8ff" d="M281.04,-367.9C297.75,-369.77 315.94,-371.81 332.33,-373.65"/>
<polygon fill="#63b8ff" stroke="#63b8ff" points="331.95,-377.13 342.28,-374.76 332.73,-370.17 331.95,-377.13"/>
</a>
</g>
</g>
<!-- Node5 -->
<g id="Node000005" class="node">
<title>Node5</title>
<g id="a_Node000005"><a xlink:href="utils__fd_8c.html#ae6ad7aa33393749b9dc5eac6b61cdf74" target="_top" xlink:title="Returns the correct file descriptor based on append flag and file.">
<polygon fill="white" stroke="#666666" points="431.5,-56 339.5,-56 339.5,-37 431.5,-37 431.5,-56"/>
<text text-anchor="middle" x="385.5" y="-44" font-family="Helvetica,sans-Serif" font-size="10.00">check_value_fd</text>
</a>
</g>
</g>
<!-- Node4&#45;&gt;Node5 -->
<g id="edge4_Node000004_Node000005" class="edge">
<title>Node4&#45;&gt;Node5</title>
<g id="a_edge4_Node000004_Node000005"><a xlink:title=" ">
<path fill="none" stroke="#63b8ff" d="M251.59,-62.23C272.88,-59.71 303.01,-56.15 329.2,-53.05"/>
<polygon fill="#63b8ff" stroke="#63b8ff" points="329.88,-56.49 339.4,-51.84 329.05,-49.54 329.88,-56.49"/>
</a>
</g>
</g>
<!-- Node6 -->
<g id="Node000006" class="node">
<title>Node6</title>
<g id="a_Node000006"><a xlink:href="utils__fd_8c.html#a9cf70d06db18597b04bb642db7abab4a" target="_top" xlink:title="Checks if a file descriptor is valid.">
<polygon fill="white" stroke="#666666" points="567.5,-56 495.5,-56 495.5,-37 567.5,-37 567.5,-56"/>
<text text-anchor="middle" x="531.5" y="-44" font-family="Helvetica,sans-Serif" font-size="10.00">ft_check_fd</text>
</a>
</g>
</g>
<!-- Node4&#45;&gt;Node6 -->
<g id="edge6_Node000004_Node000006" class="edge">
<title>Node4&#45;&gt;Node6</title>
<g id="a_edge6_Node000004_Node000006"><a xlink:title=" ">
<path fill="none" stroke="#63b8ff" d="M251.75,-67.66C295.1,-70.56 381.47,-74.37 454,-65.5 465.77,-64.06 478.33,-61.42 489.8,-58.56"/>
<polygon fill="#63b8ff" stroke="#63b8ff" points="490.77,-61.92 499.56,-56.01 489,-55.15 490.77,-61.92"/>
</a>
</g>
</g>
<!-- Node7 -->
<g id="Node000007" class="node">
<title>Node7</title>
<g id="a_Node000007"><a xlink:href="utils__pipes_8c.html#a4112bdd2bc0766ff52195f2ab3a53339" target="_top" xlink:title="Handles input redirection from a file.">
<polygon fill="white" stroke="#666666" points="454,-19 317,-19 317,0 454,0 454,-19"/>
<text text-anchor="middle" x="385.5" y="-7" font-family="Helvetica,sans-Serif" font-size="10.00">handle_input_redirection</text>
</a>
</g>
</g>
<!-- Node4&#45;&gt;Node7 -->
<g id="edge7_Node000004_Node000007" class="edge">
<title>Node4&#45;&gt;Node7</title>
<g id="a_edge7_Node000004_Node000007"><a xlink:title=" ">
<path fill="none" stroke="#63b8ff" d="M245.13,-55.96C263.8,-47.76 291.87,-35.95 317,-27.5 322.96,-25.5 329.27,-23.57 335.56,-21.76"/>
<polygon fill="#63b8ff" stroke="#63b8ff" points="336.65,-25.09 345.34,-19.04 334.77,-18.35 336.65,-25.09"/>
</a>
</g>
</g>
<!-- Node5&#45;&gt;Node6 -->
<g id="edge5_Node000005_Node000006" class="edge">
<title>Node5&#45;&gt;Node6</title>
<g id="a_edge5_Node000005_Node000006"><a xlink:title=" ">
<path fill="none" stroke="#63b8ff" d="M431.67,-46.5C448.61,-46.5 467.86,-46.5 484.84,-46.5"/>
<polygon fill="#63b8ff" stroke="#63b8ff" points="485.08,-50 495.08,-46.5 485.08,-43 485.08,-50"/>
</a>
</g>
</g>
<!-- Node9 -->
<g id="Node000009" class="node">
<title>Node9</title>
<g id="a_Node000009"><a xlink:href="ft__matrix__len_8c.html#a8a061c92b4f7c01468c1907282d5a53d" target="_top" xlink:title="Calculates the length of a NULL&#45;terminated matrix of strings.">
<polygon fill="white" stroke="#666666" points="426,-315 345,-315 345,-296 426,-296 426,-315"/>
<text text-anchor="middle" x="385.5" y="-303" font-family="Helvetica,sans-Serif" font-size="10.00">ft_matrix_len</text>
</a>
</g>
</g>
<!-- Node8&#45;&gt;Node9 -->
<g id="edge10_Node000008_Node000009" class="edge">
<title>Node8&#45;&gt;Node9</title>
<g id="a_edge10_Node000008_Node000009"><a xlink:title=" ">
<path fill="none" stroke="#63b8ff" d="M260.02,-289.99C282.1,-292.74 310.67,-296.3 334.87,-299.32"/>
<polygon fill="#63b8ff" stroke="#63b8ff" points="334.59,-302.81 344.94,-300.57 335.45,-295.86 334.59,-302.81"/>
</a>
</g>
</g>
<!-- Node8&#45;&gt;Node10 -->
<g id="edge11_Node000008_Node000010" class="edge">
<title>Node8&#45;&gt;Node10</title>
<g id="a_edge11_Node000008_Node000010"><a xlink:title=" ">
<path fill="none" stroke="#63b8ff" d="M246.89,-295.15C273.85,-306.5 315.22,-323.89 317,-324.5 326.99,-327.91 337.98,-331.08 348.14,-333.78"/>
<polygon fill="#63b8ff" stroke="#63b8ff" points="347.41,-337.2 357.96,-336.31 349.16,-330.43 347.41,-337.2"/>
</a>
</g>
</g>
<!-- Node20 -->
<g id="Node000020" class="node">
<title>Node20</title>
<g id="a_Node000020"><a xlink:href="ft__strdup_8c.html#aebe73f27c70c56ac5053f860ef5436c9" target="_top" xlink:title="Duplicates a null&#45;terminated string by allocating memory.">
<polygon fill="white" stroke="#666666" points="415,-278 356,-278 356,-259 415,-259 415,-278"/>
<text text-anchor="middle" x="385.5" y="-266" font-family="Helvetica,sans-Serif" font-size="10.00">ft_strdup</text>
</a>
</g>
</g>
<!-- Node8&#45;&gt;Node20 -->
<g id="edge26_Node000008_Node000020" class="edge">
<title>Node8&#45;&gt;Node20</title>
<g id="a_edge26_Node000008_Node000020"><a xlink:title=" ">
<path fill="none" stroke="#63b8ff" d="M260.02,-281.68C285.44,-278.99 319.48,-275.39 345.54,-272.63"/>
<polygon fill="#63b8ff" stroke="#63b8ff" points="346.24,-276.07 355.81,-271.54 345.5,-269.11 346.24,-276.07"/>
</a>
</g>
</g>
<!-- Node11 -->
<g id="Node000011" class="node">
<title>Node11</title>
<g id="a_Node000011"><a xlink:href="ft__printf_8c.html#a80c1c206dcd33d07c265581878aaa300" target="_top" xlink:title="Processes a single format specifier and prints the corresponding argument.">
<polygon fill="white" stroke="#666666" points="573,-383 490,-383 490,-364 573,-364 573,-383"/>
<text text-anchor="middle" x="531.5" y="-371" font-family="Helvetica,sans-Serif" font-size="10.00">check_format</text>
</a>
</g>
</g>
<!-- Node10&#45;&gt;Node11 -->
<g id="edge12_Node000010_Node000011" class="edge">
<title>Node10&#45;&gt;Node11</title>
<g id="a_edge12_Node000010_Node000011"><a xlink:title=" ">
<path fill="none" stroke="#63b8ff" d="M413.25,-348.26C431.87,-352.27 457.28,-357.74 479.69,-362.56"/>
<polygon fill="#63b8ff" stroke="#63b8ff" points="479.22,-366.04 489.73,-364.72 480.7,-359.2 479.22,-366.04"/>
</a>
</g>
</g>
<!-- Node15 -->
<g id="Node000015" class="node">
<title>Node15</title>
<g id="a_Node000015"><a xlink:href="ft__putchar__fd_8c.html#a03ef80b25dc4a521379fa92ad97bad21" target="_top" xlink:title="Writes a single character to the specified file descriptor.">
<polygon fill="white" stroke="#666666" points="704,-291 624,-291 624,-272 704,-272 704,-291"/>
<text text-anchor="middle" x="664" y="-279" font-family="Helvetica,sans-Serif" font-size="10.00">ft_putchar_fd</text>
</a>
</g>
</g>
<!-- Node10&#45;&gt;Node15 -->
<g id="edge25_Node000010_Node000015" class="edge">
<title>Node10&#45;&gt;Node15</title>
<g id="a_edge25_Node000010_Node000015"><a xlink:title=" ">
<path fill="none" stroke="#63b8ff" d="M413.01,-336.65C459.27,-326.45 555.36,-305.25 614.02,-292.31"/>
<polygon fill="#63b8ff" stroke="#63b8ff" points="614.79,-295.72 623.8,-290.15 613.28,-288.88 614.79,-295.72"/>
</a>
</g>
</g>
<!-- Node12 -->
<g id="Node000012" class="node">
<title>Node12</title>
<g id="a_Node000012"><a xlink:href="ft__forpointer_8c.html#a8e02c77b80406af72327ebf71f537786" target="_top" xlink:title="Prints a pointer in hexadecimal format prefixed with &quot;0x&quot;.">
<polygon fill="white" stroke="#666666" points="702.5,-383 625.5,-383 625.5,-364 702.5,-364 702.5,-383"/>
<text text-anchor="middle" x="664" y="-371" font-family="Helvetica,sans-Serif" font-size="10.00">ft_forpointer</text>
</a>
</g>
</g>
<!-- Node11&#45;&gt;Node12 -->
<g id="edge13_Node000011_Node000012" class="edge">
<title>Node11&#45;&gt;Node12</title>
<g id="a_edge13_Node000011_Node000012"><a xlink:title=" ">
<path fill="none" stroke="#63b8ff" d="M573.08,-373.5C586.31,-373.5 601.14,-373.5 614.87,-373.5"/>
<polygon fill="#63b8ff" stroke="#63b8ff" points="615.12,-377 625.12,-373.5 615.12,-370 615.12,-377"/>
</a>
</g>
</g>
<!-- Node14 -->
<g id="Node000014" class="node">
<title>Node14</title>
<g id="a_Node000014"><a xlink:href="ft__hexadecimal_8c.html#a39c845e0a4286d3ac1e04c1e64ac734b" target="_top" xlink:title="Prints an unsigned integer in hexadecimal format.">
<polygon fill="white" stroke="#666666" points="710,-328 618,-328 618,-309 710,-309 710,-328"/>
<text text-anchor="middle" x="664" y="-316" font-family="Helvetica,sans-Serif" font-size="10.00">ft_hexadecimal</text>
</a>
</g>
</g>
<!-- Node11&#45;&gt;Node14 -->
<g id="edge16_Node000011_Node000014" class="edge">
<title>Node11&#45;&gt;Node14</title>
<g id="a_edge16_Node000011_Node000014"><a xlink:title=" ">
<path fill="none" stroke="#63b8ff" d="M555.23,-363.92C576.06,-355.14 607.13,-342.05 630.57,-332.17"/>
<polygon fill="#63b8ff" stroke="#63b8ff" points="632.24,-335.26 640.09,-328.16 629.52,-328.81 632.24,-335.26"/>
</a>
</g>
</g>
<!-- Node11&#45;&gt;Node15 -->
<g id="edge18_Node000011_Node000015" class="edge">
<title>Node11&#45;&gt;Node15</title>
<g id="a_edge18_Node000011_Node000015"><a xlink:title=" ">
<path fill="none" stroke="#63b8ff" d="M546.58,-363.84C554.64,-358.04 564.77,-350.29 573,-342.5 590.86,-325.6 588.71,-314.39 609,-300.5 611.88,-298.53 614.98,-296.75 618.19,-295.13"/>
<polygon fill="#63b8ff" stroke="#63b8ff" points="619.72,-298.28 627.43,-291.01 616.87,-291.89 619.72,-298.28"/>
</a>
</g>
</g>
<!-- Node16 -->
<g id="Node000016" class="node">
<title>Node16</title>
<g id="a_Node000016"><a xlink:href="ft__putnbr__fd_8c.html#a1554101ee350c316340c78e19faddaa8" target="_top" xlink:title="Writes an integer to a given file descriptor.">
<polygon fill="white" stroke="#666666" points="701.5,-494 626.5,-494 626.5,-475 701.5,-475 701.5,-494"/>
<text text-anchor="middle" x="664" y="-482" font-family="Helvetica,sans-Serif" font-size="10.00">ft_putnbr_fd</text>
</a>
</g>
</g>
<!-- Node11&#45;&gt;Node16 -->
<g id="edge19_Node000011_Node000016" class="edge">
<title>Node11&#45;&gt;Node16</title>
<g id="a_edge19_Node000011_Node000016"><a xlink:title=" ">
<path fill="none" stroke="#63b8ff" d="M537.91,-383.18C548.88,-401.97 575.57,-443.53 609,-466.5 611.52,-468.24 614.23,-469.81 617.03,-471.25"/>
<polygon fill="#63b8ff" stroke="#63b8ff" points="615.68,-474.47 626.23,-475.36 618.53,-468.08 615.68,-474.47"/>
</a>
</g>
</g>
<!-- Node17 -->
<g id="Node000017" class="node">
<title>Node17</title>
<g id="a_Node000017"><a xlink:href="ft__putstr__fd_8c.html#a00b0638f31a75c7a30f77f33888bfb73" target="_top" xlink:title="Writes a null&#45;terminated string to the specified file descriptor.">
<polygon fill="white" stroke="#666666" points="700,-457 628,-457 628,-438 700,-438 700,-457"/>
<text text-anchor="middle" x="664" y="-445" font-family="Helvetica,sans-Serif" font-size="10.00">ft_putstr_fd</text>
</a>
</g>
</g>
<!-- Node11&#45;&gt;Node17 -->
<g id="edge21_Node000011_Node000017" class="edge">
<title>Node11&#45;&gt;Node17</title>
<g id="a_edge21_Node000011_Node000017"><a xlink:title=" ">
<path fill="none" stroke="#63b8ff" d="M543.19,-383.01C557.36,-395.21 583.56,-416.36 609,-429.5 612.31,-431.21 615.82,-432.81 619.39,-434.29"/>
<polygon fill="#63b8ff" stroke="#63b8ff" points="618.33,-437.63 628.92,-437.93 620.83,-431.09 618.33,-437.63"/>
</a>
</g>
</g>
<!-- Node18 -->
<g id="Node000018" class="node">
<title>Node18</title>
<g id="a_Node000018"><a xlink:href="ft__unsigned__putnbr_8c.html#af9a70f8607b40cf2a7706f9d3725b549" target="_top" xlink:title="Writes an unsigned integer to the given file descriptor.">
<polygon fill="white" stroke="#666666" points="719,-420 609,-420 609,-401 719,-401 719,-420"/>
<text text-anchor="middle" x="664" y="-408" font-family="Helvetica,sans-Serif" font-size="10.00">ft_unsigned_putnbr</text>
</a>
</g>
</g>
<!-- Node11&#45;&gt;Node18 -->
<g id="edge22_Node000011_Node000018" class="edge">
<title>Node11&#45;&gt;Node18</title>
<g id="a_edge22_Node000011_Node000018"><a xlink:title=" ">
<path fill="none" stroke="#63b8ff" d="M566.11,-383.03C582.27,-387.61 601.85,-393.16 619.16,-398.07"/>
<polygon fill="#63b8ff" stroke="#63b8ff" points="618.48,-401.51 629.05,-400.88 620.39,-394.78 618.48,-401.51"/>
</a>
</g>
</g>
<!-- Node13 -->
<g id="Node000013" class="node">
<title>Node13</title>
<g id="a_Node000013"><a xlink:href="ft__forpointer_8c.html#aded1bf735c8a10e47396170d27c5b6aa" target="_top" xlink:title="Recursively prints a memory address in hexadecimal format.">
<polygon fill="white" stroke="#666666" points="865,-374 755,-374 755,-355 865,-355 865,-374"/>
<text text-anchor="middle" x="810" y="-362" font-family="Helvetica,sans-Serif" font-size="10.00">ft_ricorsive_pointer</text>
</a>
</g>
</g>
<!-- Node12&#45;&gt;Node13 -->
<g id="edge14_Node000012_Node000013" class="edge">
<title>Node12&#45;&gt;Node13</title>
<g id="a_edge14_Node000012_Node000013"><a xlink:title=" ">
<path fill="none" stroke="#63b8ff" d="M702.83,-371.14C715.64,-370.33 730.33,-369.42 744.61,-368.52"/>
<polygon fill="#63b8ff" stroke="#63b8ff" points="745.14,-372 754.9,-367.88 744.7,-365.01 745.14,-372"/>
</a>
</g>
</g>
<!-- Node13&#45;&gt;Node13 -->
<g id="edge15_Node000013_Node000013" class="edge">
<title>Node13&#45;&gt;Node13</title>
<g id="a_edge15_Node000013_Node000013"><a xlink:title=" ">
<path fill="none" stroke="#63b8ff" d="M787.5,-374.08C776.55,-382.73 784.05,-392 810,-392 826.62,-392 835.68,-388.2 837.16,-383.19"/>
<polygon fill="#63b8ff" stroke="#63b8ff" points="840.17,-381.39 832.5,-374.08 833.94,-384.58 840.17,-381.39"/>
</a>
</g>
</g>
<!-- Node14&#45;&gt;Node14 -->
<g id="edge17_Node000014_Node000014" class="edge">
<title>Node14&#45;&gt;Node14</title>
<g id="a_edge17_Node000014_Node000014"><a xlink:title=" ">
<path fill="none" stroke="#63b8ff" d="M643.65,-328.08C633.76,-336.73 640.54,-346 664,-346 679.03,-346 687.21,-342.2 688.55,-337.19"/>
<polygon fill="#63b8ff" stroke="#63b8ff" points="691.72,-335.69 684.35,-328.08 685.36,-338.63 691.72,-335.69"/>
</a>
</g>
</g>
<!-- Node16&#45;&gt;Node16 -->
<g id="edge20_Node000016_Node000016" class="edge">
<title>Node16&#45;&gt;Node16</title>
<g id="a_edge20_Node000016_Node000016"><a xlink:title=" ">
<path fill="none" stroke="#63b8ff" d="M643.65,-494.08C633.76,-502.73 640.54,-512 664,-512 679.03,-512 687.21,-508.2 688.55,-503.19"/>
<polygon fill="#63b8ff" stroke="#63b8ff" points="691.72,-501.69 684.35,-494.08 685.36,-504.63 691.72,-501.69"/>
</a>
</g>
</g>
<!-- Node19 -->
<g id="Node000019" class="node">
<title>Node19</title>
<g id="a_Node000019"><a xlink:href="ft__putnbr_8c.html#a2e51f80c9e46e52f4adf94617fb51ada" target="_top" xlink:title="Writes an integer to the standard output (stdout).">
<polygon fill="white" stroke="#666666" points="840,-429 780,-429 780,-410 840,-410 840,-429"/>
<text text-anchor="middle" x="810" y="-417" font-family="Helvetica,sans-Serif" font-size="10.00">ft_putnbr</text>
</a>
</g>
</g>
<!-- Node18&#45;&gt;Node19 -->
<g id="edge23_Node000018_Node000019" class="edge">
<title>Node18&#45;&gt;Node19</title>
<g id="a_edge23_Node000018_Node000019"><a xlink:title=" ">
<path fill="none" stroke="#63b8ff" d="M719.03,-413.88C735.76,-414.92 753.87,-416.05 769.43,-417.03"/>
<polygon fill="#63b8ff" stroke="#63b8ff" points="769.55,-420.54 779.74,-417.67 769.98,-413.55 769.55,-420.54"/>
</a>
</g>
</g>
<!-- Node19&#45;&gt;Node19 -->
<g id="edge24_Node000019_Node000019" class="edge">
<title>Node19&#45;&gt;Node19</title>
<g id="a_edge24_Node000019_Node000019"><a xlink:title=" ">
<path fill="none" stroke="#63b8ff" d="M787.5,-429.08C776.55,-437.73 784.05,-447 810,-447 826.62,-447 835.68,-443.2 837.16,-438.19"/>
<polygon fill="#63b8ff" stroke="#63b8ff" points="840.17,-436.39 832.5,-429.08 833.94,-439.58 840.17,-436.39"/>
</a>
</g>
</g>
<!-- Node21&#45;&gt;Node3 -->
<g id="edge28_Node000021_Node000003" class="edge">
<title>Node21&#45;&gt;Node3</title>
<g id="a_edge28_Node000021_Node000003"><a xlink:title=" ">
<path fill="none" stroke="#63b8ff" d="M245.94,-241.1C257.7,-247.2 271.65,-256.09 281,-267.5 309.36,-302.1 283.75,-331.57 317,-361.5 321.5,-365.55 326.82,-368.71 332.46,-371.17"/>
<polygon fill="#63b8ff" stroke="#63b8ff" points="331.58,-374.57 342.18,-374.67 333.96,-367.99 331.58,-374.57"/>
</a>
</g>
</g>
<!-- Node21&#45;&gt;Node20 -->
<g id="edge36_Node000021_Node000020" class="edge">
<title>Node21&#45;&gt;Node20</title>
<g id="a_edge36_Node000021_Node000020"><a xlink:title=" ">
<path fill="none" stroke="#63b8ff" d="M264.5,-240.84C289.37,-246.57 321.04,-253.87 345.6,-259.53"/>
<polygon fill="#63b8ff" stroke="#63b8ff" points="345.12,-263.01 355.66,-261.85 346.7,-256.19 345.12,-263.01"/>
</a>
</g>
</g>
<!-- Node22 -->
<g id="Node000022" class="node">
<title>Node22</title>
<g id="a_Node000022"><a xlink:href="utils__env__pt2_8c.html#afac58c53fe53bc538ba19b53efec42e4" target="_top" xlink:title="Finds the value of an environment variable given its name key.">
<polygon fill="white" stroke="#666666" points="435.5,-241 335.5,-241 335.5,-222 435.5,-222 435.5,-241"/>
<text text-anchor="middle" x="385.5" y="-229" font-family="Helvetica,sans-Serif" font-size="10.00">ft_get_env_value</text>
</a>
</g>
</g>
<!-- Node21&#45;&gt;Node22 -->
<g id="edge29_Node000021_Node000022" class="edge">
<title>Node21&#45;&gt;Node22</title>
<g id="a_edge29_Node000021_Node000022"><a xlink:title=" ">
<path fill="none" stroke="#63b8ff" d="M264.5,-231.5C282.93,-231.5 305.1,-231.5 325.35,-231.5"/>
<polygon fill="#63b8ff" stroke="#63b8ff" points="325.42,-235 335.42,-231.5 325.42,-228 325.42,-235"/>
</a>
</g>
</g>
<!-- Node25 -->
<g id="Node000025" class="node">
<title>Node25</title>
<g id="a_Node000025"><a xlink:href="ft__split_8c.html#ae1a89a91dd877cfb2caf85d6f1786f94" target="_top" xlink:title="Splits a string into an array of strings based on a delimiter.">
<polygon fill="white" stroke="#666666" points="410.5,-150 360.5,-150 360.5,-131 410.5,-131 410.5,-150"/>
<text text-anchor="middle" x="385.5" y="-138" font-family="Helvetica,sans-Serif" font-size="10.00">ft_split</text>
</a>
</g>
</g>
<!-- Node21&#45;&gt;Node25 -->
<g id="edge32_Node000021_Node000025" class="edge">
<title>Node21&#45;&gt;Node25</title>
<g id="a_edge32_Node000021_Node000025"><a xlink:title=" ">
<path fill="none" stroke="#63b8ff" d="M239.67,-221.94C258.06,-210.8 289.53,-191.94 317,-176.5 330.1,-169.14 344.81,-161.25 357.14,-154.74"/>
<polygon fill="#63b8ff" stroke="#63b8ff" points="358.82,-157.81 366.05,-150.06 355.57,-151.61 358.82,-157.81"/>
</a>
</g>
</g>
<!-- Node29 -->
<g id="Node000029" class="node">
<title>Node29</title>
<g id="a_Node000029"><a xlink:href="ft__strjoin__three_8c.html#a516b013da6ff6065d18005f321670a5b" target="_top" xlink:title="Concatenates three strings into a newly allocated string.">
<polygon fill="white" stroke="#666666" points="430.5,-204 340.5,-204 340.5,-185 430.5,-185 430.5,-204"/>
<text text-anchor="middle" x="385.5" y="-192" font-family="Helvetica,sans-Serif" font-size="10.00">ft_strjoin_three</text>
</a>
</g>
</g>
<!-- Node21&#45;&gt;Node29 -->
<g id="edge37_Node000021_Node000029" class="edge">
<title>Node21&#45;&gt;Node29</title>
<g id="a_edge37_Node000021_Node000029"><a xlink:title=" ">
<path fill="none" stroke="#63b8ff" d="M264.5,-222.16C285.36,-217.36 311.01,-211.44 333.23,-206.32"/>
<polygon fill="#63b8ff" stroke="#63b8ff" points="334.22,-209.68 343.17,-204.03 332.64,-202.86 334.22,-209.68"/>
</a>
</g>
</g>
<!-- Node23 -->
<g id="Node000023" class="node">
<title>Node23</title>
<g id="a_Node000023"><a xlink:href="ft__strlen_8c.html#a828402378653640f545a4be2e00e92f9" target="_top" xlink:title="Calculates the length of a null&#45;terminated string.">
<polygon fill="white" stroke="#666666" points="692,-241 636,-241 636,-222 692,-222 692,-241"/>
<text text-anchor="middle" x="664" y="-229" font-family="Helvetica,sans-Serif" font-size="10.00">ft_strlen</text>
</a>
</g>
</g>
<!-- Node22&#45;&gt;Node23 -->
<g id="edge30_Node000022_Node000023" class="edge">
<title>Node22&#45;&gt;Node23</title>
<g id="a_edge30_Node000022_Node000023"><a xlink:title=" ">
<path fill="none" stroke="#63b8ff" d="M435.61,-231.5C489.98,-231.5 576.39,-231.5 625.55,-231.5"/>
<polygon fill="#63b8ff" stroke="#63b8ff" points="625.74,-235 635.74,-231.5 625.74,-228 625.74,-235"/>
</a>
</g>
</g>
<!-- Node24 -->
<g id="Node000024" class="node">
<title>Node24</title>
<g id="a_Node000024"><a xlink:href="ft__strncmp_8c.html#a9d2fe792187aa4ed08e5864fb2c4d6dc" target="_top" xlink:title="Compares up to n characters of two strings.">
<polygon fill="white" stroke="#666666" points="565.5,-280 497.5,-280 497.5,-261 565.5,-261 565.5,-280"/>
<text text-anchor="middle" x="531.5" y="-268" font-family="Helvetica,sans-Serif" font-size="10.00">ft_strncmp</text>
</a>
</g>
</g>
<!-- Node22&#45;&gt;Node24 -->
<g id="edge31_Node000022_Node000024" class="edge">
<title>Node22&#45;&gt;Node24</title>
<g id="a_edge31_Node000022_Node000024"><a xlink:title=" ">
<path fill="none" stroke="#63b8ff" d="M421.73,-241.04C441.48,-246.39 466.27,-253.1 487.2,-258.77"/>
<polygon fill="#63b8ff" stroke="#63b8ff" points="486.55,-262.22 497.12,-261.46 488.38,-255.47 486.55,-262.22"/>
</a>
</g>
</g>
<!-- Node26 -->
<g id="Node000026" class="node">
<title>Node26</title>
<g id="a_Node000026"><a xlink:href="ft__split_8c.html#aa7bb0a2499cd7e833a5b655f1ba32e7e" target="_top" xlink:title="Copies a substring (word) from the input string.">
<polygon fill="white" stroke="#666666" points="558,-167 505,-167 505,-148 558,-148 558,-167"/>
<text text-anchor="middle" x="531.5" y="-155" font-family="Helvetica,sans-Serif" font-size="10.00">copy_w</text>
</a>
</g>
</g>
<!-- Node25&#45;&gt;Node26 -->
<g id="edge33_Node000025_Node000026" class="edge">
<title>Node25&#45;&gt;Node26</title>
<g id="a_edge33_Node000025_Node000026"><a xlink:title=" ">
<path fill="none" stroke="#63b8ff" d="M410.6,-143.35C433.64,-146.07 468.67,-150.2 494.92,-153.3"/>
<polygon fill="#63b8ff" stroke="#63b8ff" points="494.52,-156.78 504.86,-154.47 495.34,-149.82 494.52,-156.78"/>
</a>
</g>
</g>
<!-- Node27 -->
<g id="Node000027" class="node">
<title>Node27</title>
<g id="a_Node000027"><a xlink:href="ft__split_8c.html#a894f4b1af0e002219975b3835f6306b6" target="_top" xlink:title="Counts the number of words in a string separated by a delimiter.">
<polygon fill="white" stroke="#666666" points="570.5,-130 492.5,-130 492.5,-111 570.5,-111 570.5,-130"/>
<text text-anchor="middle" x="531.5" y="-118" font-family="Helvetica,sans-Serif" font-size="10.00">count_words</text>
</a>
</g>
</g>
<!-- Node25&#45;&gt;Node27 -->
<g id="edge34_Node000025_Node000027" class="edge">
<title>Node25&#45;&gt;Node27</title>
<g id="a_edge34_Node000025_Node000027"><a xlink:title=" ">
<path fill="none" stroke="#63b8ff" d="M410.6,-137.15C430.15,-134.44 458.31,-130.53 482.43,-127.18"/>
<polygon fill="#63b8ff" stroke="#63b8ff" points="483.06,-130.62 492.49,-125.78 482.1,-123.69 483.06,-130.62"/>
</a>
</g>
</g>
<!-- Node28 -->
<g id="Node000028" class="node">
<title>Node28</title>
<g id="a_Node000028"><a xlink:href="ft__split_8c.html#a7927713e5f2fed5cee8ec1ac2bcadb2c" target="_top" xlink:title="Frees an array of strings up to a given index.">
<polygon fill="white" stroke="#666666" points="555,-93 508,-93 508,-74 555,-74 555,-93"/>
<text text-anchor="middle" x="531.5" y="-81" font-family="Helvetica,sans-Serif" font-size="10.00">fclean</text>
</a>
</g>
</g>
<!-- Node25&#45;&gt;Node28 -->
<g id="edge35_Node000025_Node000028" class="edge">
<title>Node25&#45;&gt;Node28</title>
<g id="a_edge35_Node000025_Node000028"><a xlink:title=" ">
<path fill="none" stroke="#63b8ff" d="M410.6,-130.96C434.6,-121.46 471.59,-106.82 498.13,-96.31"/>
<polygon fill="#63b8ff" stroke="#63b8ff" points="499.74,-99.44 507.75,-92.51 497.16,-92.93 499.74,-99.44"/>
</a>
</g>
</g>
<!-- Node30 -->
<g id="Node000030" class="node">
<title>Node30</title>
<g id="a_Node000030"><a xlink:href="ft__strjoin_8c.html#a91e6e3e428bcc9f2291b700e1829b82b" target="_top" xlink:title="Concatenates two strings into a newly allocated string.">
<polygon fill="white" stroke="#666666" points="561,-204 502,-204 502,-185 561,-185 561,-204"/>
<text text-anchor="middle" x="531.5" y="-192" font-family="Helvetica,sans-Serif" font-size="10.00">ft_strjoin</text>
</a>
</g>
</g>
<!-- Node29&#45;&gt;Node30 -->
<g id="edge38_Node000029_Node000030" class="edge">
<title>Node29&#45;&gt;Node30</title>
<g id="a_edge38_Node000029_Node000030"><a xlink:title=" ">
<path fill="none" stroke="#63b8ff" d="M430.88,-194.5C450.4,-194.5 473.12,-194.5 491.93,-194.5"/>
<polygon fill="#63b8ff" stroke="#63b8ff" points="491.93,-198 501.93,-194.5 491.93,-191 491.93,-198"/>
</a>
</g>
</g>
<!-- Node30&#45;&gt;Node23 -->
<g id="edge40_Node000030_Node000023" class="edge">
<title>Node30&#45;&gt;Node23</title>
<g id="a_edge40_Node000030_Node000023"><a xlink:title=" ">
<path fill="none" stroke="#63b8ff" d="M561.14,-202.62C580.22,-208.03 605.49,-215.19 626.08,-221.03"/>
<polygon fill="#63b8ff" stroke="#63b8ff" points="625.19,-224.42 635.77,-223.78 627.1,-217.68 625.19,-224.42"/>
</a>
</g>
</g>
<!-- Node31 -->
<g id="Node000031" class="node">
<title>Node31</title>
<g id="a_Node000031"><a xlink:href="ft__memcpy_8c.html#a41a6f05af30cf85ff63a08e383826322" target="_top" xlink:title="Copies &#39;n&#39; bytes from memory area &#39;src&#39; to memory area &#39;dest&#39;.">
<polygon fill="white" stroke="#666666" points="699.5,-204 628.5,-204 628.5,-185 699.5,-185 699.5,-204"/>
<text text-anchor="middle" x="664" y="-192" font-family="Helvetica,sans-Serif" font-size="10.00">ft_memcpy</text>
</a>
</g>
</g>
<!-- Node30&#45;&gt;Node31 -->
<g id="edge39_Node000030_Node000031" class="edge">
<title>Node30&#45;&gt;Node31</title>
<g id="a_edge39_Node000030_Node000031"><a xlink:title=" ">
<path fill="none" stroke="#63b8ff" d="M561.14,-194.5C577.85,-194.5 599.3,-194.5 618.2,-194.5"/>
<polygon fill="#63b8ff" stroke="#63b8ff" points="618.4,-198 628.4,-194.5 618.4,-191 618.4,-198"/>
</a>
</g>
</g>
</g>
</svg>
