<?xml version="1.0" encoding="UTF-8" standalone="no"?>
<!DOCTYPE svg PUBLIC "-//W3C//DTD SVG 1.1//EN"
 "http://www.w3.org/Graphics/SVG/1.1/DTD/svg11.dtd">
<!-- Generated by graphviz version 2.43.0 (0)
 -->
<!-- Title: builtin/pwd.c Pages: 1 -->
<svg width="1196pt" height="313pt"
 viewBox="0.00 0.00 1196.00 313.00" xmlns="http://www.w3.org/2000/svg" xmlns:xlink="http://www.w3.org/1999/xlink">
<g id="graph0" class="graph" transform="scale(1 1) rotate(0) translate(4 309)">
<title>builtin/pwd.c</title>
<!-- Node1 -->
<g id="Node000001" class="node">
<title>Node1</title>
<g id="a_Node000001"><a xlink:title=" ">
<polygon fill="#999999" stroke="#666666" points="828.5,-305 749.5,-305 749.5,-286 828.5,-286 828.5,-305"/>
<text text-anchor="middle" x="789" y="-293" font-family="Helvetica,sans-Serif" font-size="10.00">builtin/pwd.c</text>
</a>
</g>
</g>
<!-- Node2 -->
<g id="Node000002" class="node">
<title>Node2</title>
<g id="a_Node000002"><a xlink:href="builtin_8h.html" target="_top" xlink:title=" ">
<polygon fill="white" stroke="#666666" points="775,-250 719,-250 719,-231 775,-231 775,-250"/>
<text text-anchor="middle" x="747" y="-238" font-family="Helvetica,sans-Serif" font-size="10.00">builtin.h</text>
</a>
</g>
</g>
<!-- Node1&#45;&gt;Node2 -->
<g id="edge1_Node000001_Node000002" class="edge">
<title>Node1&#45;&gt;Node2</title>
<g id="a_edge1_Node000001_Node000002"><a xlink:title=" ">
<path fill="none" stroke="#63b8ff" d="M782.06,-285.75C776.13,-278.26 767.43,-267.28 760.18,-258.13"/>
<polygon fill="#63b8ff" stroke="#63b8ff" points="762.76,-255.75 753.81,-250.09 757.27,-260.1 762.76,-255.75"/>
</a>
</g>
</g>
<!-- Node7 -->
<g id="Node000007" class="node">
<title>Node7</title>
<g id="a_Node000007"><a xlink:title=" ">
<polygon fill="#e0e0e0" stroke="#999999" points="1188,-19 1138,-19 1138,0 1188,0 1188,-19"/>
<text text-anchor="middle" x="1163" y="-7" font-family="Helvetica,sans-Serif" font-size="10.00">stdio.h</text>
</a>
</g>
</g>
<!-- Node1&#45;&gt;Node7 -->
<g id="edge26_Node000001_Node000007" class="edge">
<title>Node1&#45;&gt;Node7</title>
<g id="a_edge26_Node000001_Node000007"><a xlink:title=" ">
<path fill="none" stroke="#63b8ff" d="M828.99,-291.63C889.92,-284.85 999,-262.14 999,-186.5 999,-186.5 999,-186.5 999,-124 999,-91.44 1087.49,-45.48 1134.47,-23.36"/>
<polygon fill="#63b8ff" stroke="#63b8ff" points="1135.95,-26.54 1143.54,-19.15 1133,-20.19 1135.95,-26.54"/>
</a>
</g>
</g>
<!-- Node3 -->
<g id="Node000003" class="node">
<title>Node3</title>
<g id="a_Node000003"><a xlink:href="libft_8h.html" target="_top" xlink:title=" ">
<polygon fill="white" stroke="#666666" points="823.5,-74 748.5,-74 748.5,-55 823.5,-55 823.5,-74"/>
<text text-anchor="middle" x="786" y="-62" font-family="Helvetica,sans-Serif" font-size="10.00">../libft/libft.h</text>
</a>
</g>
</g>
<!-- Node2&#45;&gt;Node3 -->
<g id="edge2_Node000002_Node000003" class="edge">
<title>Node2&#45;&gt;Node3</title>
<g id="a_edge2_Node000002_Node000003"><a xlink:title=" ">
<path fill="none" stroke="#63b8ff" d="M748.99,-230.63C755.06,-203.52 773.49,-121.32 781.82,-84.13"/>
<polygon fill="#63b8ff" stroke="#63b8ff" points="785.29,-84.67 784.06,-74.14 778.46,-83.14 785.29,-84.67"/>
</a>
</g>
</g>
<!-- Node13 -->
<g id="Node000013" class="node">
<title>Node13</title>
<g id="a_Node000013"><a xlink:href="common__utils_8h.html" target="_top" xlink:title=" ">
<polygon fill="white" stroke="#666666" points="676,-140 536,-140 536,-110 676,-110 676,-140"/>
<text text-anchor="start" x="544" y="-128" font-family="Helvetica,sans-Serif" font-size="10.00">../common_utils/common</text>
<text text-anchor="middle" x="606" y="-117" font-family="Helvetica,sans-Serif" font-size="10.00">_utils.h</text>
</a>
</g>
</g>
<!-- Node2&#45;&gt;Node13 -->
<g id="edge12_Node000002_Node000013" class="edge">
<title>Node2&#45;&gt;Node13</title>
<g id="a_edge12_Node000002_Node000013"><a xlink:title=" ">
<path fill="none" stroke="#63b8ff" d="M741.61,-230.81C733.15,-217.69 715.67,-192.59 696,-176 681.49,-163.77 663.54,-153.08 647.5,-144.76"/>
<polygon fill="#63b8ff" stroke="#63b8ff" points="648.81,-141.51 638.31,-140.14 645.67,-147.76 648.81,-141.51"/>
</a>
</g>
</g>
<!-- Node20 -->
<g id="Node000020" class="node">
<title>Node20</title>
<g id="a_Node000020"><a xlink:href="redirections_8h.html" target="_top" xlink:title=" ">
<polygon fill="white" stroke="#666666" points="687.5,-195 534.5,-195 534.5,-176 687.5,-176 687.5,-195"/>
<text text-anchor="middle" x="611" y="-183" font-family="Helvetica,sans-Serif" font-size="10.00">../redirections/redirections.h</text>
</a>
</g>
</g>
<!-- Node2&#45;&gt;Node20 -->
<g id="edge24_Node000002_Node000020" class="edge">
<title>Node2&#45;&gt;Node20</title>
<g id="a_edge24_Node000002_Node000020"><a xlink:title=" ">
<path fill="none" stroke="#63b8ff" d="M725.15,-230.98C702.88,-222.3 668.1,-208.75 642.78,-198.88"/>
<polygon fill="#63b8ff" stroke="#63b8ff" points="643.84,-195.54 633.25,-195.17 641.29,-202.06 643.84,-195.54"/>
</a>
</g>
</g>
<!-- Node4 -->
<g id="Node000004" class="node">
<title>Node4</title>
<g id="a_Node000004"><a xlink:title=" ">
<polygon fill="#e0e0e0" stroke="#999999" points="764,-19 708,-19 708,0 764,0 764,-19"/>
<text text-anchor="middle" x="736" y="-7" font-family="Helvetica,sans-Serif" font-size="10.00">unistd.h</text>
</a>
</g>
</g>
<!-- Node3&#45;&gt;Node4 -->
<g id="edge3_Node000003_Node000004" class="edge">
<title>Node3&#45;&gt;Node4</title>
<g id="a_edge3_Node000003_Node000004"><a xlink:title=" ">
<path fill="none" stroke="#63b8ff" d="M777.74,-54.75C770.54,-47.11 759.89,-35.82 751.15,-26.56"/>
<polygon fill="#63b8ff" stroke="#63b8ff" points="753.51,-23.96 744.1,-19.09 748.42,-28.76 753.51,-23.96"/>
</a>
</g>
</g>
<!-- Node5 -->
<g id="Node000005" class="node">
<title>Node5</title>
<g id="a_Node000005"><a xlink:title=" ">
<polygon fill="#e0e0e0" stroke="#999999" points="553.5,-19 500.5,-19 500.5,0 553.5,0 553.5,-19"/>
<text text-anchor="middle" x="527" y="-7" font-family="Helvetica,sans-Serif" font-size="10.00">stdlib.h</text>
</a>
</g>
</g>
<!-- Node3&#45;&gt;Node5 -->
<g id="edge4_Node000003_Node000005" class="edge">
<title>Node3&#45;&gt;Node5</title>
<g id="a_edge4_Node000003_Node000005"><a xlink:title=" ">
<path fill="none" stroke="#63b8ff" d="M748.25,-56.5C705.64,-48.5 634.04,-34.71 563.65,-19.3"/>
<polygon fill="#63b8ff" stroke="#63b8ff" points="564.24,-15.85 553.73,-17.11 562.74,-22.68 564.24,-15.85"/>
</a>
</g>
</g>
<!-- Node6 -->
<g id="Node000006" class="node">
<title>Node6</title>
<g id="a_Node000006"><a xlink:title=" ">
<polygon fill="#e0e0e0" stroke="#999999" points="624.5,-19 571.5,-19 571.5,0 624.5,0 624.5,-19"/>
<text text-anchor="middle" x="598" y="-7" font-family="Helvetica,sans-Serif" font-size="10.00">string.h</text>
</a>
</g>
</g>
<!-- Node3&#45;&gt;Node6 -->
<g id="edge5_Node000003_Node000006" class="edge">
<title>Node3&#45;&gt;Node6</title>
<g id="a_edge5_Node000003_Node000006"><a xlink:title=" ">
<path fill="none" stroke="#63b8ff" d="M755.79,-54.98C722.82,-45.69 670.03,-30.81 634.7,-20.85"/>
<polygon fill="#63b8ff" stroke="#63b8ff" points="635.36,-17.39 624.78,-18.05 633.46,-24.13 635.36,-17.39"/>
</a>
</g>
</g>
<!-- Node3&#45;&gt;Node7 -->
<g id="edge6_Node000003_Node000007" class="edge">
<title>Node3&#45;&gt;Node7</title>
<g id="a_edge6_Node000003_Node000007"><a xlink:title=" ">
<path fill="none" stroke="#63b8ff" d="M823.53,-60.07C885.06,-54.13 1011.4,-40.64 1127.68,-19.05"/>
<polygon fill="#63b8ff" stroke="#63b8ff" points="1128.64,-22.43 1137.82,-17.14 1127.35,-15.55 1128.64,-22.43"/>
</a>
</g>
</g>
<!-- Node8 -->
<g id="Node000008" class="node">
<title>Node8</title>
<g id="a_Node000008"><a xlink:title=" ">
<polygon fill="#e0e0e0" stroke="#999999" points="908.5,-19 853.5,-19 853.5,0 908.5,0 908.5,-19"/>
<text text-anchor="middle" x="881" y="-7" font-family="Helvetica,sans-Serif" font-size="10.00">signal.h</text>
</a>
</g>
</g>
<!-- Node3&#45;&gt;Node8 -->
<g id="edge7_Node000003_Node000008" class="edge">
<title>Node3&#45;&gt;Node8</title>
<g id="a_edge7_Node000003_Node000008"><a xlink:title=" ">
<path fill="none" stroke="#63b8ff" d="M801.26,-54.98C816.13,-46.69 838.98,-33.94 856.42,-24.22"/>
<polygon fill="#63b8ff" stroke="#63b8ff" points="858.43,-27.1 865.46,-19.17 855.02,-20.99 858.43,-27.1"/>
</a>
</g>
</g>
<!-- Node9 -->
<g id="Node000009" class="node">
<title>Node9</title>
<g id="a_Node000009"><a xlink:title=" ">
<polygon fill="#e0e0e0" stroke="#999999" points="689.5,-19 642.5,-19 642.5,0 689.5,0 689.5,-19"/>
<text text-anchor="middle" x="666" y="-7" font-family="Helvetica,sans-Serif" font-size="10.00">fcntl.h</text>
</a>
</g>
</g>
<!-- Node3&#45;&gt;Node9 -->
<g id="edge8_Node000003_Node000009" class="edge">
<title>Node3&#45;&gt;Node9</title>
<g id="a_edge8_Node000003_Node000009"><a xlink:title=" ">
<path fill="none" stroke="#63b8ff" d="M766.72,-54.98C747.33,-46.42 717.19,-33.11 694.93,-23.28"/>
<polygon fill="#63b8ff" stroke="#63b8ff" points="696.19,-20.01 685.63,-19.17 693.36,-26.41 696.19,-20.01"/>
</a>
</g>
</g>
<!-- Node10 -->
<g id="Node000010" class="node">
<title>Node10</title>
<g id="a_Node000010"><a xlink:title=" ">
<polygon fill="#e0e0e0" stroke="#999999" points="1045.5,-19 926.5,-19 926.5,0 1045.5,0 1045.5,-19"/>
<text text-anchor="middle" x="986" y="-7" font-family="Helvetica,sans-Serif" font-size="10.00">bits/types/siginfo_t.h</text>
</a>
</g>
</g>
<!-- Node3&#45;&gt;Node10 -->
<g id="edge9_Node000003_Node000010" class="edge">
<title>Node3&#45;&gt;Node10</title>
<g id="a_edge9_Node000003_Node000010"><a xlink:title=" ">
<path fill="none" stroke="#63b8ff" d="M818.13,-54.98C852.15,-45.97 906,-31.7 943.5,-21.76"/>
<polygon fill="#63b8ff" stroke="#63b8ff" points="944.84,-25.03 953.61,-19.08 943.05,-18.26 944.84,-25.03"/>
</a>
</g>
</g>
<!-- Node11 -->
<g id="Node000011" class="node">
<title>Node11</title>
<g id="a_Node000011"><a xlink:title=" ">
<polygon fill="#e0e0e0" stroke="#999999" points="1120,-19 1064,-19 1064,0 1120,0 1120,-19"/>
<text text-anchor="middle" x="1092" y="-7" font-family="Helvetica,sans-Serif" font-size="10.00">stdarg.h</text>
</a>
</g>
</g>
<!-- Node3&#45;&gt;Node11 -->
<g id="edge10_Node000003_Node000011" class="edge">
<title>Node3&#45;&gt;Node11</title>
<g id="a_edge10_Node000003_Node000011"><a xlink:title=" ">
<path fill="none" stroke="#63b8ff" d="M823.84,-57.89C875.86,-50.03 972.29,-34.91 1054,-19 1054.1,-18.98 1054.2,-18.96 1054.3,-18.94"/>
<polygon fill="#63b8ff" stroke="#63b8ff" points="1054.72,-22.43 1063.81,-16.99 1053.32,-15.57 1054.72,-22.43"/>
</a>
</g>
</g>
<!-- Node12 -->
<g id="Node000012" class="node">
<title>Node12</title>
<g id="a_Node000012"><a xlink:title=" ">
<polygon fill="#e0e0e0" stroke="#999999" points="835.5,-19 782.5,-19 782.5,0 835.5,0 835.5,-19"/>
<text text-anchor="middle" x="809" y="-7" font-family="Helvetica,sans-Serif" font-size="10.00">limits.h</text>
</a>
</g>
</g>
<!-- Node3&#45;&gt;Node12 -->
<g id="edge11_Node000003_Node000012" class="edge">
<title>Node3&#45;&gt;Node12</title>
<g id="a_edge11_Node000003_Node000012"><a xlink:title=" ">
<path fill="none" stroke="#63b8ff" d="M789.8,-54.75C792.91,-47.57 797.42,-37.18 801.29,-28.27"/>
<polygon fill="#63b8ff" stroke="#63b8ff" points="804.5,-29.66 805.27,-19.09 798.08,-26.87 804.5,-29.66"/>
</a>
</g>
</g>
<!-- Node13&#45;&gt;Node3 -->
<g id="edge13_Node000013_Node000003" class="edge">
<title>Node13&#45;&gt;Node3</title>
<g id="a_edge13_Node000013_Node000003"><a xlink:title=" ">
<path fill="none" stroke="#63b8ff" d="M649.11,-109.99C679.91,-99.98 720.87,-86.67 749.93,-77.22"/>
<polygon fill="#63b8ff" stroke="#63b8ff" points="751.25,-80.47 759.68,-74.05 749.09,-73.82 751.25,-80.47"/>
</a>
</g>
</g>
<!-- Node13&#45;&gt;Node4 -->
<g id="edge23_Node000013_Node000004" class="edge">
<title>Node13&#45;&gt;Node4</title>
<g id="a_edge23_Node000013_Node000004"><a xlink:title=" ">
<path fill="none" stroke="#63b8ff" d="M622.2,-109.85C646.66,-88.5 692.85,-48.17 718.21,-26.03"/>
<polygon fill="#63b8ff" stroke="#63b8ff" points="720.72,-28.48 725.95,-19.27 716.12,-23.21 720.72,-28.48"/>
</a>
</g>
</g>
<!-- Node13&#45;&gt;Node5 -->
<g id="edge21_Node000013_Node000005" class="edge">
<title>Node13&#45;&gt;Node5</title>
<g id="a_edge21_Node000013_Node000005"><a xlink:title=" ">
<path fill="none" stroke="#63b8ff" d="M604.83,-109.91C603.02,-95.11 598.45,-71.71 587,-55 578.36,-42.38 564.94,-31.95 552.99,-24.36"/>
<polygon fill="#63b8ff" stroke="#63b8ff" points="554.61,-21.25 544.23,-19.12 551.02,-27.26 554.61,-21.25"/>
</a>
</g>
</g>
<!-- Node13&#45;&gt;Node6 -->
<g id="edge22_Node000013_Node000006" class="edge">
<title>Node13&#45;&gt;Node6</title>
<g id="a_edge22_Node000013_Node000006"><a xlink:title=" ">
<path fill="none" stroke="#63b8ff" d="M612.41,-109.94C617.95,-95.96 624.42,-73.93 620,-55 617.8,-45.57 613.29,-35.85 608.93,-27.91"/>
<polygon fill="#63b8ff" stroke="#63b8ff" points="611.92,-26.09 603.84,-19.24 605.88,-29.64 611.92,-26.09"/>
</a>
</g>
</g>
<!-- Node13&#45;&gt;Node9 -->
<g id="edge17_Node000013_Node000009" class="edge">
<title>Node13&#45;&gt;Node9</title>
<g id="a_edge17_Node000013_Node000009"><a xlink:title=" ">
<path fill="none" stroke="#63b8ff" d="M614.65,-109.71C620.57,-99.79 628.48,-86.22 635,-74 643.11,-58.8 651.65,-41.16 657.71,-28.34"/>
<polygon fill="#63b8ff" stroke="#63b8ff" points="660.91,-29.77 661.98,-19.23 654.57,-26.8 660.91,-29.77"/>
</a>
</g>
</g>
<!-- Node14 -->
<g id="Node000014" class="node">
<title>Node14</title>
<g id="a_Node000014"><a xlink:href="signal__flag_8h.html" target="_top" xlink:title=" ">
<polygon fill="white" stroke="#666666" points="78,-74 0,-74 0,-55 78,-55 78,-74"/>
<text text-anchor="middle" x="39" y="-62" font-family="Helvetica,sans-Serif" font-size="10.00">signal_flag.h</text>
</a>
</g>
</g>
<!-- Node13&#45;&gt;Node14 -->
<g id="edge14_Node000013_Node000014" class="edge">
<title>Node13&#45;&gt;Node14</title>
<g id="a_edge14_Node000013_Node000014"><a xlink:title=" ">
<path fill="none" stroke="#63b8ff" d="M535.7,-119C437.78,-111.65 254.58,-96.46 88.65,-74.12"/>
<polygon fill="#63b8ff" stroke="#63b8ff" points="88.63,-70.59 78.25,-72.71 87.69,-77.53 88.63,-70.59"/>
</a>
</g>
</g>
<!-- Node15 -->
<g id="Node000015" class="node">
<title>Node15</title>
<g id="a_Node000015"><a xlink:title=" ">
<polygon fill="#e0e0e0" stroke="#999999" points="204,-74 96,-74 96,-55 204,-55 204,-74"/>
<text text-anchor="middle" x="150" y="-62" font-family="Helvetica,sans-Serif" font-size="10.00">readline/readline.h</text>
</a>
</g>
</g>
<!-- Node13&#45;&gt;Node15 -->
<g id="edge15_Node000013_Node000015" class="edge">
<title>Node13&#45;&gt;Node15</title>
<g id="a_edge15_Node000013_Node000015"><a xlink:title=" ">
<path fill="none" stroke="#63b8ff" d="M535.7,-115.22C459.2,-105.63 333,-89.69 214.29,-74.16"/>
<polygon fill="#63b8ff" stroke="#63b8ff" points="214.66,-70.68 204.29,-72.85 213.75,-77.62 214.66,-70.68"/>
</a>
</g>
</g>
<!-- Node16 -->
<g id="Node000016" class="node">
<title>Node16</title>
<g id="a_Node000016"><a xlink:title=" ">
<polygon fill="#e0e0e0" stroke="#999999" points="323.5,-74 222.5,-74 222.5,-55 323.5,-55 323.5,-74"/>
<text text-anchor="middle" x="273" y="-62" font-family="Helvetica,sans-Serif" font-size="10.00">readline/history.h</text>
</a>
</g>
</g>
<!-- Node13&#45;&gt;Node16 -->
<g id="edge16_Node000013_Node000016" class="edge">
<title>Node13&#45;&gt;Node16</title>
<g id="a_edge16_Node000013_Node000016"><a xlink:title=" ">
<path fill="none" stroke="#63b8ff" d="M535.79,-111.67C475.12,-101.01 388.48,-85.79 331.51,-75.78"/>
<polygon fill="#63b8ff" stroke="#63b8ff" points="332.03,-72.32 321.58,-74.03 330.82,-79.21 332.03,-72.32"/>
</a>
</g>
</g>
<!-- Node17 -->
<g id="Node000017" class="node">
<title>Node17</title>
<g id="a_Node000017"><a xlink:title=" ">
<polygon fill="#e0e0e0" stroke="#999999" points="414,-74 342,-74 342,-55 414,-55 414,-74"/>
<text text-anchor="middle" x="378" y="-62" font-family="Helvetica,sans-Serif" font-size="10.00">sys/types.h</text>
</a>
</g>
</g>
<!-- Node13&#45;&gt;Node17 -->
<g id="edge18_Node000013_Node000017" class="edge">
<title>Node13&#45;&gt;Node17</title>
<g id="a_edge18_Node000013_Node000017"><a xlink:title=" ">
<path fill="none" stroke="#63b8ff" d="M551.39,-109.99C511.53,-99.76 458.23,-86.09 421.3,-76.61"/>
<polygon fill="#63b8ff" stroke="#63b8ff" points="421.89,-73.15 411.34,-74.05 420.15,-79.93 421.89,-73.15"/>
</a>
</g>
</g>
<!-- Node18 -->
<g id="Node000018" class="node">
<title>Node18</title>
<g id="a_Node000018"><a xlink:title=" ">
<polygon fill="#e0e0e0" stroke="#999999" points="498,-74 432,-74 432,-55 498,-55 498,-74"/>
<text text-anchor="middle" x="465" y="-62" font-family="Helvetica,sans-Serif" font-size="10.00">sys/wait.h</text>
</a>
</g>
</g>
<!-- Node13&#45;&gt;Node18 -->
<g id="edge19_Node000013_Node000018" class="edge">
<title>Node13&#45;&gt;Node18</title>
<g id="a_edge19_Node000013_Node000018"><a xlink:title=" ">
<path fill="none" stroke="#63b8ff" d="M572.23,-109.99C548.81,-100.27 517.88,-87.44 495.27,-78.06"/>
<polygon fill="#63b8ff" stroke="#63b8ff" points="496.4,-74.74 485.82,-74.14 493.72,-81.2 496.4,-74.74"/>
</a>
</g>
</g>
<!-- Node19 -->
<g id="Node000019" class="node">
<title>Node19</title>
<g id="a_Node000019"><a xlink:title=" ">
<polygon fill="#e0e0e0" stroke="#999999" points="578,-74 516,-74 516,-55 578,-55 578,-74"/>
<text text-anchor="middle" x="547" y="-62" font-family="Helvetica,sans-Serif" font-size="10.00">stdbool.h</text>
</a>
</g>
</g>
<!-- Node13&#45;&gt;Node19 -->
<g id="edge20_Node000013_Node000019" class="edge">
<title>Node13&#45;&gt;Node19</title>
<g id="a_edge20_Node000013_Node000019"><a xlink:title=" ">
<path fill="none" stroke="#63b8ff" d="M591.72,-109.84C583.07,-101.26 572.01,-90.3 563.06,-81.42"/>
<polygon fill="#63b8ff" stroke="#63b8ff" points="565.41,-78.82 555.84,-74.27 560.48,-83.79 565.41,-78.82"/>
</a>
</g>
</g>
<!-- Node20&#45;&gt;Node13 -->
<g id="edge25_Node000020_Node000013" class="edge">
<title>Node20&#45;&gt;Node13</title>
<g id="a_edge25_Node000020_Node000013"><a xlink:title=" ">
<path fill="none" stroke="#63b8ff" d="M610.26,-175.87C609.68,-169.11 608.85,-159.35 608.07,-150.26"/>
<polygon fill="#63b8ff" stroke="#63b8ff" points="611.55,-149.78 607.21,-140.11 604.57,-150.38 611.55,-149.78"/>
</a>
</g>
</g>
</g>
</svg>
