<?xml version="1.0" encoding="UTF-8" standalone="no"?>
<!DOCTYPE svg PUBLIC "-//W3C//DTD SVG 1.1//EN"
 "http://www.w3.org/Graphics/SVG/1.1/DTD/svg11.dtd">
<!-- Generated by graphviz version 2.43.0 (0)
 -->
<!-- Title: ft_pwd Pages: 1 -->
<svg width="638pt" height="458pt"
 viewBox="0.00 0.00 638.00 458.00" xmlns="http://www.w3.org/2000/svg" xmlns:xlink="http://www.w3.org/1999/xlink">
<g id="graph0" class="graph" transform="scale(1 1) rotate(0) translate(4 454)">
<title>ft_pwd</title>
<!-- Node1 -->
<g id="Node000001" class="node">
<title>Node1</title>
<g id="a_Node000001"><a xlink:title="Implements the builtin pwd command.">
<polygon fill="#999999" stroke="#666666" points="49,-205 0,-205 0,-186 49,-186 49,-205"/>
<text text-anchor="middle" x="24.5" y="-193" font-family="Helvetica,sans-Serif" font-size="10.00">ft_pwd</text>
</a>
</g>
</g>
<!-- Node2 -->
<g id="Node000002" class="node">
<title>Node2</title>
<g id="a_Node000002"><a xlink:href="free__functions_8c.html#a451c65e7c59e947c1880d1f75d866e3a" target="_top" xlink:title="Frees all resources associated with a list of pipes and the environment.">
<polygon fill="white" stroke="#666666" points="165,-374 85,-374 85,-355 165,-355 165,-374"/>
<text text-anchor="middle" x="125" y="-362" font-family="Helvetica,sans-Serif" font-size="10.00">free_all_pipe</text>
</a>
</g>
</g>
<!-- Node1&#45;&gt;Node2 -->
<g id="edge1_Node000001_Node000002" class="edge">
<title>Node1&#45;&gt;Node2</title>
<g id="a_edge1_Node000001_Node000002"><a xlink:title=" ">
<path fill="none" stroke="#63b8ff" d="M31.08,-205.07C46.85,-232.13 91.99,-309.58 113,-345.62"/>
<polygon fill="#63b8ff" stroke="#63b8ff" points="110.18,-347.74 118.24,-354.61 116.23,-344.21 110.18,-347.74"/>
</a>
</g>
</g>
<!-- Node7 -->
<g id="Node000007" class="node">
<title>Node7</title>
<g id="a_Node000007"><a xlink:href="utils__fd_8c.html#a184b4852a6ca5544cc056e7a8e20e4ad" target="_top" xlink:title="Handles opening and validating file descriptors for command input/output.">
<polygon fill="white" stroke="#666666" points="153.5,-243 96.5,-243 96.5,-224 153.5,-224 153.5,-243"/>
<text text-anchor="middle" x="125" y="-231" font-family="Helvetica,sans-Serif" font-size="10.00">ft_for_fd</text>
</a>
</g>
</g>
<!-- Node1&#45;&gt;Node7 -->
<g id="edge7_Node000001_Node000007" class="edge">
<title>Node1&#45;&gt;Node7</title>
<g id="a_edge7_Node000001_Node000007"><a xlink:title=" ">
<path fill="none" stroke="#63b8ff" d="M49.09,-204.6C61.28,-209.3 76.36,-215.12 89.8,-220.31"/>
<polygon fill="#63b8ff" stroke="#63b8ff" points="88.64,-223.61 99.22,-223.94 91.15,-217.08 88.64,-223.61"/>
</a>
</g>
</g>
<!-- Node11 -->
<g id="Node000011" class="node">
<title>Node11</title>
<g id="a_Node000011"><a xlink:href="ft__printf_8c.html#a091532b7f37af84bdecc84dccf4eedb1" target="_top" xlink:title="A simplified printf function that outputs formatted data to a given file descriptor.">
<polygon fill="white" stroke="#666666" points="152.5,-186 97.5,-186 97.5,-167 152.5,-167 152.5,-186"/>
<text text-anchor="middle" x="125" y="-174" font-family="Helvetica,sans-Serif" font-size="10.00">ft_printf</text>
</a>
</g>
</g>
<!-- Node1&#45;&gt;Node11 -->
<g id="edge12_Node000001_Node000011" class="edge">
<title>Node1&#45;&gt;Node11</title>
<g id="a_edge12_Node000001_Node000011"><a xlink:title=" ">
<path fill="none" stroke="#63b8ff" d="M49.09,-190.95C60.59,-188.73 74.67,-186.01 87.52,-183.54"/>
<polygon fill="#63b8ff" stroke="#63b8ff" points="88.32,-186.95 97.47,-181.62 86.99,-180.07 88.32,-186.95"/>
</a>
</g>
</g>
<!-- Node21 -->
<g id="Node000021" class="node">
<title>Node21</title>
<g id="a_Node000021"><a xlink:href="pwd_8c.html#a6d8d7124ea802d0543b2934adff70bd7" target="_top" xlink:title="Closes the file descriptor if different from 1 and restores stdin if necessary.">
<polygon fill="white" stroke="#666666" points="162.5,-130 87.5,-130 87.5,-111 162.5,-111 162.5,-130"/>
<text text-anchor="middle" x="125" y="-118" font-family="Helvetica,sans-Serif" font-size="10.00">ft_too_close</text>
</a>
</g>
</g>
<!-- Node1&#45;&gt;Node21 -->
<g id="edge27_Node000001_Node000021" class="edge">
<title>Node1&#45;&gt;Node21</title>
<g id="a_edge27_Node000001_Node000021"><a xlink:title=" ">
<path fill="none" stroke="#63b8ff" d="M38.38,-185.7C54.91,-173.11 83.81,-151.1 103.41,-136.18"/>
<polygon fill="#63b8ff" stroke="#63b8ff" points="105.6,-138.91 111.43,-130.07 101.35,-133.34 105.6,-138.91"/>
</a>
</g>
</g>
<!-- Node3 -->
<g id="Node000003" class="node">
<title>Node3</title>
<g id="a_Node000003"><a xlink:href="free__functions_8c.html#a32c72055f1119062342fcdf42527c05c" target="_top" xlink:title="Frees a list of commands.">
<polygon fill="white" stroke="#666666" points="300.5,-450 238.5,-450 238.5,-431 300.5,-431 300.5,-450"/>
<text text-anchor="middle" x="269.5" y="-438" font-family="Helvetica,sans-Serif" font-size="10.00">free_cmd</text>
</a>
</g>
</g>
<!-- Node2&#45;&gt;Node3 -->
<g id="edge2_Node000002_Node000003" class="edge">
<title>Node2&#45;&gt;Node3</title>
<g id="a_edge2_Node000002_Node000003"><a xlink:title=" ">
<path fill="none" stroke="#63b8ff" d="M137.59,-374C151.82,-385.31 177.03,-404.21 201,-416.5 209.71,-420.97 219.44,-424.95 228.74,-428.33"/>
<polygon fill="#63b8ff" stroke="#63b8ff" points="227.62,-431.65 238.22,-431.63 229.92,-425.04 227.62,-431.65"/>
</a>
</g>
</g>
<!-- Node4 -->
<g id="Node000004" class="node">
<title>Node4</title>
<g id="a_Node000004"><a xlink:href="ft__free__matrix_8c.html#a1ea6d1f3b50d1c23d4f0faddd1a13448" target="_top" xlink:title="Frees a NULL&#45;terminated matrix of strings.">
<polygon fill="white" stroke="#666666" points="472,-431 386,-431 386,-412 472,-412 472,-431"/>
<text text-anchor="middle" x="429" y="-419" font-family="Helvetica,sans-Serif" font-size="10.00">ft_free_matrix</text>
</a>
</g>
</g>
<!-- Node2&#45;&gt;Node4 -->
<g id="edge6_Node000002_Node000004" class="edge">
<title>Node2&#45;&gt;Node4</title>
<g id="a_edge6_Node000002_Node000004"><a xlink:title=" ">
<path fill="none" stroke="#63b8ff" d="M161.34,-374.09C173.82,-377.31 187.99,-380.77 201,-383.5 260.62,-396.02 329.75,-407.11 375.9,-414.03"/>
<polygon fill="#63b8ff" stroke="#63b8ff" points="375.56,-417.51 385.97,-415.52 376.59,-410.59 375.56,-417.51"/>
</a>
</g>
</g>
<!-- Node5 -->
<g id="Node000005" class="node">
<title>Node5</title>
<g id="a_Node000005"><a xlink:href="free__functions_8c.html#a87de2a27d0e0e99f3de0b477731181e0" target="_top" xlink:title="Frees a list of pipes.">
<polygon fill="white" stroke="#666666" points="300.5,-374 238.5,-374 238.5,-355 300.5,-355 300.5,-374"/>
<text text-anchor="middle" x="269.5" y="-362" font-family="Helvetica,sans-Serif" font-size="10.00">free_pipe</text>
</a>
</g>
</g>
<!-- Node2&#45;&gt;Node5 -->
<g id="edge4_Node000002_Node000005" class="edge">
<title>Node2&#45;&gt;Node5</title>
<g id="a_edge4_Node000002_Node000005"><a xlink:title=" ">
<path fill="none" stroke="#63b8ff" d="M165.32,-364.5C184.87,-364.5 208.47,-364.5 228.16,-364.5"/>
<polygon fill="#63b8ff" stroke="#63b8ff" points="228.35,-368 238.35,-364.5 228.35,-361 228.35,-368"/>
</a>
</g>
</g>
<!-- Node6 -->
<g id="Node000006" class="node">
<title>Node6</title>
<g id="a_Node000006"><a xlink:href="free__functions_8c.html#a4f32f08947270b8aec54f43ddd8b02d4" target="_top" xlink:title="Frees a list of tokens.">
<polygon fill="white" stroke="#666666" points="303.5,-337 235.5,-337 235.5,-318 303.5,-318 303.5,-337"/>
<text text-anchor="middle" x="269.5" y="-325" font-family="Helvetica,sans-Serif" font-size="10.00">free_token</text>
</a>
</g>
</g>
<!-- Node2&#45;&gt;Node6 -->
<g id="edge5_Node000002_Node000006" class="edge">
<title>Node2&#45;&gt;Node6</title>
<g id="a_edge5_Node000002_Node000006"><a xlink:title=" ">
<path fill="none" stroke="#63b8ff" d="M162.7,-354.97C181.89,-349.99 205.49,-343.86 225.52,-338.66"/>
<polygon fill="#63b8ff" stroke="#63b8ff" points="226.54,-342.01 235.34,-336.11 224.78,-335.24 226.54,-342.01"/>
</a>
</g>
</g>
<!-- Node3&#45;&gt;Node4 -->
<g id="edge3_Node000003_Node000004" class="edge">
<title>Node3&#45;&gt;Node4</title>
<g id="a_edge3_Node000003_Node000004"><a xlink:title=" ">
<path fill="none" stroke="#63b8ff" d="M300.87,-436.84C322.08,-434.28 350.94,-430.8 375.8,-427.8"/>
<polygon fill="#63b8ff" stroke="#63b8ff" points="376.31,-431.26 385.82,-426.59 375.47,-424.31 376.31,-431.26"/>
</a>
</g>
</g>
<!-- Node8 -->
<g id="Node000008" class="node">
<title>Node8</title>
<g id="a_Node000008"><a xlink:href="utils__fd_8c.html#ae6ad7aa33393749b9dc5eac6b61cdf74" target="_top" xlink:title="Returns the correct file descriptor based on append flag and file.">
<polygon fill="white" stroke="#666666" points="315.5,-300 223.5,-300 223.5,-281 315.5,-281 315.5,-300"/>
<text text-anchor="middle" x="269.5" y="-288" font-family="Helvetica,sans-Serif" font-size="10.00">check_value_fd</text>
</a>
</g>
</g>
<!-- Node7&#45;&gt;Node8 -->
<g id="edge8_Node000007_Node000008" class="edge">
<title>Node7&#45;&gt;Node8</title>
<g id="a_edge8_Node000007_Node000008"><a xlink:title=" ">
<path fill="none" stroke="#63b8ff" d="M146.52,-243.01C161.5,-249.84 182.36,-259.1 201,-266.5 210.44,-270.25 220.72,-274.05 230.35,-277.48"/>
<polygon fill="#63b8ff" stroke="#63b8ff" points="229.49,-280.89 240.08,-280.91 231.82,-274.29 229.49,-280.89"/>
</a>
</g>
</g>
<!-- Node9 -->
<g id="Node000009" class="node">
<title>Node9</title>
<g id="a_Node000009"><a xlink:href="utils__fd_8c.html#a9cf70d06db18597b04bb642db7abab4a" target="_top" xlink:title="Checks if a file descriptor is valid.">
<polygon fill="white" stroke="#666666" points="465,-289 393,-289 393,-270 465,-270 465,-289"/>
<text text-anchor="middle" x="429" y="-277" font-family="Helvetica,sans-Serif" font-size="10.00">ft_check_fd</text>
</a>
</g>
</g>
<!-- Node7&#45;&gt;Node9 -->
<g id="edge10_Node000007_Node000009" class="edge">
<title>Node7&#45;&gt;Node9</title>
<g id="a_edge10_Node000007_Node000009"><a xlink:title=" ">
<path fill="none" stroke="#63b8ff" d="M153.6,-237.7C205.74,-245.65 319.16,-262.92 382.64,-272.59"/>
<polygon fill="#63b8ff" stroke="#63b8ff" points="382.35,-276.09 392.76,-274.13 383.4,-269.17 382.35,-276.09"/>
</a>
</g>
</g>
<!-- Node10 -->
<g id="Node000010" class="node">
<title>Node10</title>
<g id="a_Node000010"><a xlink:href="utils__pipes_8c.html#a4112bdd2bc0766ff52195f2ab3a53339" target="_top" xlink:title="Handles input redirection from a file.">
<polygon fill="white" stroke="#666666" points="338,-224 201,-224 201,-205 338,-205 338,-224"/>
<text text-anchor="middle" x="269.5" y="-212" font-family="Helvetica,sans-Serif" font-size="10.00">handle_input_redirection</text>
</a>
</g>
</g>
<!-- Node7&#45;&gt;Node10 -->
<g id="edge11_Node000007_Node000010" class="edge">
<title>Node7&#45;&gt;Node10</title>
<g id="a_edge11_Node000007_Node000010"><a xlink:title=" ">
<path fill="none" stroke="#63b8ff" d="M153.81,-229.79C164.59,-228.35 177.52,-226.63 190.74,-224.87"/>
<polygon fill="#63b8ff" stroke="#63b8ff" points="191.43,-228.31 200.88,-223.52 190.51,-221.37 191.43,-228.31"/>
</a>
</g>
</g>
<!-- Node8&#45;&gt;Node9 -->
<g id="edge9_Node000008_Node000009" class="edge">
<title>Node8&#45;&gt;Node9</title>
<g id="a_edge9_Node000008_Node000009"><a xlink:title=" ">
<path fill="none" stroke="#63b8ff" d="M315.63,-287.35C336.72,-285.87 361.78,-284.13 382.87,-282.65"/>
<polygon fill="#63b8ff" stroke="#63b8ff" points="383.14,-286.14 392.87,-281.95 382.65,-279.16 383.14,-286.14"/>
</a>
</g>
</g>
<!-- Node12 -->
<g id="Node000012" class="node">
<title>Node12</title>
<g id="a_Node000012"><a xlink:href="ft__printf_8c.html#a80c1c206dcd33d07c265581878aaa300" target="_top" xlink:title="Processes a single format specifier and prints the corresponding argument.">
<polygon fill="white" stroke="#666666" points="311,-148 228,-148 228,-129 311,-129 311,-148"/>
<text text-anchor="middle" x="269.5" y="-136" font-family="Helvetica,sans-Serif" font-size="10.00">check_format</text>
</a>
</g>
</g>
<!-- Node11&#45;&gt;Node12 -->
<g id="edge13_Node000011_Node000012" class="edge">
<title>Node11&#45;&gt;Node12</title>
<g id="a_edge13_Node000011_Node000012"><a xlink:title=" ">
<path fill="none" stroke="#63b8ff" d="M152.8,-169.35C172.47,-164.11 199.65,-156.86 222.73,-150.71"/>
<polygon fill="#63b8ff" stroke="#63b8ff" points="223.91,-154.01 232.67,-148.06 222.1,-147.25 223.91,-154.01"/>
</a>
</g>
</g>
<!-- Node16 -->
<g id="Node000016" class="node">
<title>Node16</title>
<g id="a_Node000016"><a xlink:href="ft__putchar__fd_8c.html#a03ef80b25dc4a521379fa92ad97bad21" target="_top" xlink:title="Writes a single character to the specified file descriptor.">
<polygon fill="white" stroke="#666666" points="469,-240 389,-240 389,-221 469,-221 469,-240"/>
<text text-anchor="middle" x="429" y="-228" font-family="Helvetica,sans-Serif" font-size="10.00">ft_putchar_fd</text>
</a>
</g>
</g>
<!-- Node11&#45;&gt;Node16 -->
<g id="edge26_Node000011_Node000016" class="edge">
<title>Node11&#45;&gt;Node16</title>
<g id="a_edge26_Node000011_Node000016"><a xlink:title=" ">
<path fill="none" stroke="#63b8ff" d="M152.59,-176.27C193.22,-176.54 272.91,-179.45 338,-196.5 354.94,-200.94 357.68,-206.17 374,-212.5 378.49,-214.24 383.22,-215.97 387.94,-217.63"/>
<polygon fill="#63b8ff" stroke="#63b8ff" points="386.95,-220.99 397.54,-220.92 389.22,-214.37 386.95,-220.99"/>
</a>
</g>
</g>
<!-- Node13 -->
<g id="Node000013" class="node">
<title>Node13</title>
<g id="a_Node000013"><a xlink:href="ft__forpointer_8c.html#a8e02c77b80406af72327ebf71f537786" target="_top" xlink:title="Prints a pointer in hexadecimal format prefixed with &quot;0x&quot;.">
<polygon fill="white" stroke="#666666" points="467.5,-203 390.5,-203 390.5,-184 467.5,-184 467.5,-203"/>
<text text-anchor="middle" x="429" y="-191" font-family="Helvetica,sans-Serif" font-size="10.00">ft_forpointer</text>
</a>
</g>
</g>
<!-- Node12&#45;&gt;Node13 -->
<g id="edge14_Node000012_Node000013" class="edge">
<title>Node12&#45;&gt;Node13</title>
<g id="a_edge14_Node000012_Node000013"><a xlink:title=" ">
<path fill="none" stroke="#63b8ff" d="M297.44,-148.05C309.81,-152.43 324.65,-157.72 338,-162.5 354.01,-168.24 357.93,-169.92 374,-175.5 378.89,-177.2 384.04,-178.96 389.15,-180.68"/>
<polygon fill="#63b8ff" stroke="#63b8ff" points="388.22,-184.06 398.81,-183.92 390.44,-177.42 388.22,-184.06"/>
</a>
</g>
</g>
<!-- Node15 -->
<g id="Node000015" class="node">
<title>Node15</title>
<g id="a_Node000015"><a xlink:href="ft__hexadecimal_8c.html#a39c845e0a4286d3ac1e04c1e64ac734b" target="_top" xlink:title="Prints an unsigned integer in hexadecimal format.">
<polygon fill="white" stroke="#666666" points="475,-148 383,-148 383,-129 475,-129 475,-148"/>
<text text-anchor="middle" x="429" y="-136" font-family="Helvetica,sans-Serif" font-size="10.00">ft_hexadecimal</text>
</a>
</g>
</g>
<!-- Node12&#45;&gt;Node15 -->
<g id="edge17_Node000012_Node000015" class="edge">
<title>Node12&#45;&gt;Node15</title>
<g id="a_edge17_Node000012_Node000015"><a xlink:title=" ">
<path fill="none" stroke="#63b8ff" d="M311.06,-138.5C329.85,-138.5 352.47,-138.5 372.79,-138.5"/>
<polygon fill="#63b8ff" stroke="#63b8ff" points="372.86,-142 382.86,-138.5 372.86,-135 372.86,-142"/>
</a>
</g>
</g>
<!-- Node12&#45;&gt;Node16 -->
<g id="edge19_Node000012_Node000016" class="edge">
<title>Node12&#45;&gt;Node16</title>
<g id="a_edge19_Node000012_Node000016"><a xlink:title=" ">
<path fill="none" stroke="#63b8ff" d="M310.01,-148.07C319.75,-151.6 329.75,-156.3 338,-162.5 359.89,-178.94 351.94,-196.27 374,-212.5 375.88,-213.88 377.86,-215.16 379.93,-216.34"/>
<polygon fill="#63b8ff" stroke="#63b8ff" points="378.82,-219.7 389.35,-220.95 381.9,-213.41 378.82,-219.7"/>
</a>
</g>
</g>
<!-- Node17 -->
<g id="Node000017" class="node">
<title>Node17</title>
<g id="a_Node000017"><a xlink:href="ft__putnbr__fd_8c.html#a1554101ee350c316340c78e19faddaa8" target="_top" xlink:title="Writes an integer to a given file descriptor.">
<polygon fill="white" stroke="#666666" points="466.5,-93 391.5,-93 391.5,-74 466.5,-74 466.5,-93"/>
<text text-anchor="middle" x="429" y="-81" font-family="Helvetica,sans-Serif" font-size="10.00">ft_putnbr_fd</text>
</a>
</g>
</g>
<!-- Node12&#45;&gt;Node17 -->
<g id="edge20_Node000012_Node000017" class="edge">
<title>Node12&#45;&gt;Node17</title>
<g id="a_edge20_Node000012_Node000017"><a xlink:title=" ">
<path fill="none" stroke="#63b8ff" d="M309.66,-128.98C319.02,-126.45 328.92,-123.56 338,-120.5 358.07,-113.73 380.07,-104.71 397.3,-97.28"/>
<polygon fill="#63b8ff" stroke="#63b8ff" points="399.07,-100.32 406.84,-93.11 396.27,-93.91 399.07,-100.32"/>
</a>
</g>
</g>
<!-- Node18 -->
<g id="Node000018" class="node">
<title>Node18</title>
<g id="a_Node000018"><a xlink:href="ft__putstr__fd_8c.html#a00b0638f31a75c7a30f77f33888bfb73" target="_top" xlink:title="Writes a null&#45;terminated string to the specified file descriptor.">
<polygon fill="white" stroke="#666666" points="465,-56 393,-56 393,-37 465,-37 465,-56"/>
<text text-anchor="middle" x="429" y="-44" font-family="Helvetica,sans-Serif" font-size="10.00">ft_putstr_fd</text>
</a>
</g>
</g>
<!-- Node12&#45;&gt;Node18 -->
<g id="edge22_Node000012_Node000018" class="edge">
<title>Node12&#45;&gt;Node18</title>
<g id="a_edge22_Node000012_Node000018"><a xlink:title=" ">
<path fill="none" stroke="#63b8ff" d="M311.23,-132.78C320.63,-130.12 330.16,-126.22 338,-120.5 361.91,-103.07 350.64,-82.66 374,-64.5 376.94,-62.21 380.19,-60.21 383.59,-58.45"/>
<polygon fill="#63b8ff" stroke="#63b8ff" points="385.1,-61.61 392.84,-54.37 382.28,-55.21 385.1,-61.61"/>
</a>
</g>
</g>
<!-- Node19 -->
<g id="Node000019" class="node">
<title>Node19</title>
<g id="a_Node000019"><a xlink:href="ft__unsigned__putnbr_8c.html#af9a70f8607b40cf2a7706f9d3725b549" target="_top" xlink:title="Writes an unsigned integer to the given file descriptor.">
<polygon fill="white" stroke="#666666" points="484,-19 374,-19 374,0 484,0 484,-19"/>
<text text-anchor="middle" x="429" y="-7" font-family="Helvetica,sans-Serif" font-size="10.00">ft_unsigned_putnbr</text>
</a>
</g>
</g>
<!-- Node12&#45;&gt;Node19 -->
<g id="edge23_Node000012_Node000019" class="edge">
<title>Node12&#45;&gt;Node19</title>
<g id="a_edge23_Node000012_Node000019"><a xlink:title=" ">
<path fill="none" stroke="#63b8ff" d="M311.05,-134.16C320.78,-131.48 330.51,-127.22 338,-120.5 371,-90.91 341.92,-58.09 374,-27.5 375.12,-26.43 376.3,-25.43 377.53,-24.49"/>
<polygon fill="#63b8ff" stroke="#63b8ff" points="379.64,-27.3 386.32,-19.08 375.97,-21.34 379.64,-27.3"/>
</a>
</g>
</g>
<!-- Node14 -->
<g id="Node000014" class="node">
<title>Node14</title>
<g id="a_Node000014"><a xlink:href="ft__forpointer_8c.html#aded1bf735c8a10e47396170d27c5b6aa" target="_top" xlink:title="Recursively prints a memory address in hexadecimal format.">
<polygon fill="white" stroke="#666666" points="630,-203 520,-203 520,-184 630,-184 630,-203"/>
<text text-anchor="middle" x="575" y="-191" font-family="Helvetica,sans-Serif" font-size="10.00">ft_ricorsive_pointer</text>
</a>
</g>
</g>
<!-- Node13&#45;&gt;Node14 -->
<g id="edge15_Node000013_Node000014" class="edge">
<title>Node13&#45;&gt;Node14</title>
<g id="a_edge15_Node000013_Node000014"><a xlink:title=" ">
<path fill="none" stroke="#63b8ff" d="M467.83,-193.5C480.64,-193.5 495.33,-193.5 509.61,-193.5"/>
<polygon fill="#63b8ff" stroke="#63b8ff" points="509.9,-197 519.9,-193.5 509.9,-190 509.9,-197"/>
</a>
</g>
</g>
<!-- Node14&#45;&gt;Node14 -->
<g id="edge16_Node000014_Node000014" class="edge">
<title>Node14&#45;&gt;Node14</title>
<g id="a_edge16_Node000014_Node000014"><a xlink:title=" ">
<path fill="none" stroke="#63b8ff" d="M552.5,-203.08C541.55,-211.73 549.05,-221 575,-221 591.62,-221 600.68,-217.2 602.16,-212.19"/>
<polygon fill="#63b8ff" stroke="#63b8ff" points="605.17,-210.39 597.5,-203.08 598.94,-213.58 605.17,-210.39"/>
</a>
</g>
</g>
<!-- Node15&#45;&gt;Node15 -->
<g id="edge18_Node000015_Node000015" class="edge">
<title>Node15&#45;&gt;Node15</title>
<g id="a_edge18_Node000015_Node000015"><a xlink:title=" ">
<path fill="none" stroke="#63b8ff" d="M406.5,-148.08C395.55,-156.73 403.05,-166 429,-166 445.62,-166 454.68,-162.2 456.16,-157.19"/>
<polygon fill="#63b8ff" stroke="#63b8ff" points="459.17,-155.39 451.5,-148.08 452.94,-158.58 459.17,-155.39"/>
</a>
</g>
</g>
<!-- Node17&#45;&gt;Node17 -->
<g id="edge21_Node000017_Node000017" class="edge">
<title>Node17&#45;&gt;Node17</title>
<g id="a_edge21_Node000017_Node000017"><a xlink:title=" ">
<path fill="none" stroke="#63b8ff" d="M406.5,-93.08C395.55,-101.73 403.05,-111 429,-111 445.62,-111 454.68,-107.2 456.16,-102.19"/>
<polygon fill="#63b8ff" stroke="#63b8ff" points="459.17,-100.39 451.5,-93.08 452.94,-103.58 459.17,-100.39"/>
</a>
</g>
</g>
<!-- Node20 -->
<g id="Node000020" class="node">
<title>Node20</title>
<g id="a_Node000020"><a xlink:href="ft__putnbr_8c.html#a2e51f80c9e46e52f4adf94617fb51ada" target="_top" xlink:title="Writes an integer to the standard output (stdout).">
<polygon fill="white" stroke="#666666" points="605,-19 545,-19 545,0 605,0 605,-19"/>
<text text-anchor="middle" x="575" y="-7" font-family="Helvetica,sans-Serif" font-size="10.00">ft_putnbr</text>
</a>
</g>
</g>
<!-- Node19&#45;&gt;Node20 -->
<g id="edge24_Node000019_Node000020" class="edge">
<title>Node19&#45;&gt;Node20</title>
<g id="a_edge24_Node000019_Node000020"><a xlink:title=" ">
<path fill="none" stroke="#63b8ff" d="M484.03,-9.5C500.76,-9.5 518.87,-9.5 534.43,-9.5"/>
<polygon fill="#63b8ff" stroke="#63b8ff" points="534.74,-13 544.74,-9.5 534.74,-6 534.74,-13"/>
</a>
</g>
</g>
<!-- Node20&#45;&gt;Node20 -->
<g id="edge25_Node000020_Node000020" class="edge">
<title>Node20&#45;&gt;Node20</title>
<g id="a_edge25_Node000020_Node000020"><a xlink:title=" ">
<path fill="none" stroke="#63b8ff" d="M552.5,-19.08C541.55,-27.73 549.05,-37 575,-37 591.62,-37 600.68,-33.2 602.16,-28.19"/>
<polygon fill="#63b8ff" stroke="#63b8ff" points="605.17,-26.39 597.5,-19.08 598.94,-29.58 605.17,-26.39"/>
</a>
</g>
</g>
<!-- Node22 -->
<g id="Node000022" class="node">
<title>Node22</title>
<g id="a_Node000022"><a xlink:href="utils__pipes_8c.html#aa5bc406fd1d5aadd2018c5c2061d31ba" target="_top" xlink:title="Restores the previously duplicated standard input.">
<polygon fill="white" stroke="#666666" points="308,-111 231,-111 231,-92 308,-92 308,-111"/>
<text text-anchor="middle" x="269.5" y="-99" font-family="Helvetica,sans-Serif" font-size="10.00">restore_sdin</text>
</a>
</g>
</g>
<!-- Node21&#45;&gt;Node22 -->
<g id="edge28_Node000021_Node000022" class="edge">
<title>Node21&#45;&gt;Node22</title>
<g id="a_edge28_Node000021_Node000022"><a xlink:title=" ">
<path fill="none" stroke="#63b8ff" d="M162.7,-115.61C180.45,-113.24 201.98,-110.37 220.98,-107.84"/>
<polygon fill="#63b8ff" stroke="#63b8ff" points="221.48,-111.3 230.93,-106.51 220.56,-104.36 221.48,-111.3"/>
</a>
</g>
</g>
</g>
</svg>
