<?xml version="1.0" encoding="UTF-8" standalone="no"?>
<!DOCTYPE svg PUBLIC "-//W3C//DTD SVG 1.1//EN"
 "http://www.w3.org/Graphics/SVG/1.1/DTD/svg11.dtd">
<!-- Generated by graphviz version 2.43.0 (0)
 -->
<!-- Title: handle_redirection Pages: 1 -->
<svg width="1400pt" height="786pt"
 viewBox="0.00 0.00 1400.00 785.50" xmlns="http://www.w3.org/2000/svg" xmlns:xlink="http://www.w3.org/1999/xlink">
<g id="graph0" class="graph" transform="scale(1 1) rotate(0) translate(4 781.5)">
<title>handle_redirection</title>
<!-- Node1 -->
<g id="Node000001" class="node">
<title>Node1</title>
<g id="a_Node000001"><a xlink:title="Handles a redirection inside a command.">
<polygon fill="#999999" stroke="#666666" points="107,-749 0,-749 0,-730 107,-730 107,-749"/>
<text text-anchor="middle" x="53.5" y="-737" font-family="Helvetica,sans-Serif" font-size="10.00">handle_redirection</text>
</a>
</g>
</g>
<!-- Node2 -->
<g id="Node000002" class="node">
<title>Node2</title>
<g id="a_Node000002"><a xlink:href="redir__utils_8c.html#ad4b61aab1ceefdbef3527f934f78618d" target="_top" xlink:title="Assigns the output file name and append flag based on redirection type.">
<polygon fill="white" stroke="#666666" points="256,-749 143,-749 143,-730 256,-730 256,-749"/>
<text text-anchor="middle" x="199.5" y="-737" font-family="Helvetica,sans-Serif" font-size="10.00">ft_get_outfile_name</text>
</a>
</g>
</g>
<!-- Node1&#45;&gt;Node2 -->
<g id="edge1_Node000001_Node000002" class="edge">
<title>Node1&#45;&gt;Node2</title>
<g id="a_edge1_Node000001_Node000002"><a xlink:title=" ">
<path fill="none" stroke="#63b8ff" d="M107.3,-739.5C115.52,-739.5 124.1,-739.5 132.56,-739.5"/>
<polygon fill="#63b8ff" stroke="#63b8ff" points="132.8,-743 142.8,-739.5 132.8,-736 132.8,-743"/>
</a>
</g>
</g>
<!-- Node3 -->
<g id="Node000003" class="node">
<title>Node3</title>
<g id="a_Node000003"><a xlink:href="ft__strdup_8c.html#aebe73f27c70c56ac5053f860ef5436c9" target="_top" xlink:title="Duplicates a null&#45;terminated string by allocating memory.">
<polygon fill="white" stroke="#666666" points="1386,-692 1327,-692 1327,-673 1386,-673 1386,-692"/>
<text text-anchor="middle" x="1356.5" y="-680" font-family="Helvetica,sans-Serif" font-size="10.00">ft_strdup</text>
</a>
</g>
</g>
<!-- Node1&#45;&gt;Node3 -->
<g id="edge3_Node000001_Node000003" class="edge">
<title>Node1&#45;&gt;Node3</title>
<g id="a_edge3_Node000001_Node000003"><a xlink:title=" ">
<path fill="none" stroke="#63b8ff" d="M93.96,-749.03C109.21,-752.44 126.84,-756.04 143,-758.5 234.55,-772.47 257.89,-777.5 350.5,-777.5 350.5,-777.5 350.5,-777.5 1085,-777.5 1176.11,-777.5 1201.77,-769.58 1285,-732.5 1304.11,-723.98 1323.32,-709.91 1336.85,-698.86"/>
<polygon fill="#63b8ff" stroke="#63b8ff" points="1339.46,-701.24 1344.87,-692.12 1334.96,-695.88 1339.46,-701.24"/>
</a>
</g>
</g>
<!-- Node4 -->
<g id="Node000004" class="node">
<title>Node4</title>
<g id="a_Node000004"><a xlink:href="handle__redirections_8c.html#aa4509a43f47ed881eb2d81fb81458466" target="_top" xlink:title="Handles redirections without an associated command.">
<polygon fill="white" stroke="#666666" points="256,-678.5 143,-678.5 143,-648.5 256,-648.5 256,-678.5"/>
<text text-anchor="start" x="151" y="-666.5" font-family="Helvetica,sans-Serif" font-size="10.00">handle_redirection</text>
<text text-anchor="middle" x="199.5" y="-655.5" font-family="Helvetica,sans-Serif" font-size="10.00">_without_command</text>
</a>
</g>
</g>
<!-- Node1&#45;&gt;Node4 -->
<g id="edge4_Node000001_Node000004" class="edge">
<title>Node1&#45;&gt;Node4</title>
<g id="a_edge4_Node000001_Node000004"><a xlink:title=" ">
<path fill="none" stroke="#63b8ff" d="M72.74,-729.87C94.86,-718.2 132.73,-698.21 161.14,-683.22"/>
<polygon fill="#63b8ff" stroke="#63b8ff" points="162.79,-686.3 170,-678.54 159.52,-680.11 162.79,-686.3"/>
</a>
</g>
</g>
<!-- Node2&#45;&gt;Node3 -->
<g id="edge2_Node000002_Node000003" class="edge">
<title>Node2&#45;&gt;Node3</title>
<g id="a_edge2_Node000002_Node000003"><a xlink:title=" ">
<path fill="none" stroke="#63b8ff" d="M256.09,-739.5C318.84,-739.5 424.01,-739.5 514.5,-739.5 514.5,-739.5 514.5,-739.5 1085,-739.5 1170.26,-739.5 1267.46,-712.05 1318.96,-695.25"/>
<polygon fill="#63b8ff" stroke="#63b8ff" points="1320.24,-698.51 1328.64,-692.04 1318.04,-691.86 1320.24,-698.51"/>
</a>
</g>
</g>
<!-- Node5 -->
<g id="Node000005" class="node">
<title>Node5</title>
<g id="a_Node000005"><a xlink:href="handle__redirections_8c.html#a2834314002a1f4ef4af82f95159b0a34" target="_top" xlink:title="Handles input redirection from file or heredoc.">
<polygon fill="white" stroke="#666666" points="411,-673 292,-673 292,-654 411,-654 411,-673"/>
<text text-anchor="middle" x="351.5" y="-661" font-family="Helvetica,sans-Serif" font-size="10.00">ft_handle_infile_redir</text>
</a>
</g>
</g>
<!-- Node4&#45;&gt;Node5 -->
<g id="edge5_Node000004_Node000005" class="edge">
<title>Node4&#45;&gt;Node5</title>
<g id="a_edge5_Node000004_Node000005"><a xlink:title=" ">
<path fill="none" stroke="#63b8ff" d="M256.35,-663.5C264.59,-663.5 273.15,-663.5 281.6,-663.5"/>
<polygon fill="#63b8ff" stroke="#63b8ff" points="281.84,-667 291.84,-663.5 281.84,-660 281.84,-667"/>
</a>
</g>
</g>
<!-- Node42 -->
<g id="Node000042" class="node">
<title>Node42</title>
<g id="a_Node000042"><a xlink:href="utils__pipes_8c.html#aa5bc406fd1d5aadd2018c5c2061d31ba" target="_top" xlink:title="Restores the previously duplicated standard input.">
<polygon fill="white" stroke="#666666" points="390,-636 313,-636 313,-617 390,-617 390,-636"/>
<text text-anchor="middle" x="351.5" y="-624" font-family="Helvetica,sans-Serif" font-size="10.00">restore_sdin</text>
</a>
</g>
</g>
<!-- Node4&#45;&gt;Node42 -->
<g id="edge63_Node000004_Node000042" class="edge">
<title>Node4&#45;&gt;Node42</title>
<g id="a_edge63_Node000004_Node000042"><a xlink:title=" ">
<path fill="none" stroke="#63b8ff" d="M256.35,-649.72C271.65,-645.95 288.08,-641.9 302.87,-638.25"/>
<polygon fill="#63b8ff" stroke="#63b8ff" points="303.94,-641.59 312.81,-635.8 302.26,-634.79 303.94,-641.59"/>
</a>
</g>
</g>
<!-- Node6 -->
<g id="Node000006" class="node">
<title>Node6</title>
<g id="a_Node000006"><a xlink:href="redir__utils_8c.html#acd7b4a57306a2984ae26bceaa9d97888" target="_top" xlink:title="Checks for following heredocs in tokens and removes the temporary file.">
<polygon fill="white" stroke="#666666" points="711,-711 620,-711 620,-692 711,-692 711,-711"/>
<text text-anchor="middle" x="665.5" y="-699" font-family="Helvetica,sans-Serif" font-size="10.00">ft_end_heredoc</text>
</a>
</g>
</g>
<!-- Node5&#45;&gt;Node6 -->
<g id="edge6_Node000005_Node000006" class="edge">
<title>Node5&#45;&gt;Node6</title>
<g id="a_edge6_Node000005_Node000006"><a xlink:title=" ">
<path fill="none" stroke="#63b8ff" d="M394.66,-673.02C410.95,-676.42 429.77,-680.02 447,-682.5 502.05,-690.41 565.45,-695.5 609.54,-698.4"/>
<polygon fill="#63b8ff" stroke="#63b8ff" points="609.56,-701.9 619.76,-699.05 610.01,-694.92 609.56,-701.9"/>
</a>
</g>
</g>
<!-- Node7 -->
<g id="Node000007" class="node">
<title>Node7</title>
<g id="a_Node000007"><a xlink:href="utils__fd_8c.html#aae58663bcc5fdd74e961d307a7f7f51a" target="_top" xlink:title="Checks if there is at least one HEREDOC token in the token list.">
<polygon fill="white" stroke="#666666" points="850.5,-711 749.5,-711 749.5,-692 850.5,-692 850.5,-711"/>
<text text-anchor="middle" x="800" y="-699" font-family="Helvetica,sans-Serif" font-size="10.00">ft_found_heredoc</text>
</a>
</g>
</g>
<!-- Node5&#45;&gt;Node7 -->
<g id="edge8_Node000005_Node000007" class="edge">
<title>Node5&#45;&gt;Node7</title>
<g id="a_edge8_Node000005_Node000007"><a xlink:title=" ">
<path fill="none" stroke="#63b8ff" d="M393.66,-653.92C410.14,-650.54 429.38,-647.16 447,-645.5 507.62,-639.78 523.6,-637.76 584,-645.5 647.76,-653.67 719.61,-674.93 762,-688.78"/>
<polygon fill="#63b8ff" stroke="#63b8ff" points="761.02,-692.14 771.61,-691.96 763.22,-685.49 761.02,-692.14"/>
</a>
</g>
</g>
<!-- Node8 -->
<g id="Node000008" class="node">
<title>Node8</title>
<g id="a_Node000008"><a xlink:href="handle__heredoc_8c.html#a922eae1c49290306f7cf811bf65d9ed1" target="_top" xlink:title="Handles the entire input process for a here&#45;document.">
<polygon fill="white" stroke="#666666" points="562.5,-563 468.5,-563 468.5,-544 562.5,-544 562.5,-563"/>
<text text-anchor="middle" x="515.5" y="-551" font-family="Helvetica,sans-Serif" font-size="10.00">handle_heredoc</text>
</a>
</g>
</g>
<!-- Node5&#45;&gt;Node8 -->
<g id="edge9_Node000005_Node000008" class="edge">
<title>Node5&#45;&gt;Node8</title>
<g id="a_edge9_Node000005_Node000008"><a xlink:title=" ">
<path fill="none" stroke="#63b8ff" d="M392.25,-653.98C398.74,-651.67 405.22,-648.87 411,-645.5 430.01,-634.42 430.65,-626.23 447,-611.5 462.97,-597.11 481.52,-581.23 495.12,-569.73"/>
<polygon fill="#63b8ff" stroke="#63b8ff" points="497.5,-572.31 502.89,-563.19 492.99,-566.96 497.5,-572.31"/>
</a>
</g>
</g>
<!-- Node41 -->
<g id="Node000041" class="node">
<title>Node41</title>
<g id="a_Node000041"><a xlink:href="utils__pipes_8c.html#a4112bdd2bc0766ff52195f2ab3a53339" target="_top" xlink:title="Handles input redirection from a file.">
<polygon fill="white" stroke="#666666" points="584,-673 447,-673 447,-654 584,-654 584,-673"/>
<text text-anchor="middle" x="515.5" y="-661" font-family="Helvetica,sans-Serif" font-size="10.00">handle_input_redirection</text>
</a>
</g>
</g>
<!-- Node5&#45;&gt;Node41 -->
<g id="edge62_Node000005_Node000041" class="edge">
<title>Node5&#45;&gt;Node41</title>
<g id="a_edge62_Node000005_Node000041"><a xlink:title=" ">
<path fill="none" stroke="#63b8ff" d="M411.44,-663.5C419.61,-663.5 428.1,-663.5 436.55,-663.5"/>
<polygon fill="#63b8ff" stroke="#63b8ff" points="436.81,-667 446.81,-663.5 436.81,-660 436.81,-667"/>
</a>
</g>
</g>
<!-- Node6&#45;&gt;Node7 -->
<g id="edge7_Node000006_Node000007" class="edge">
<title>Node6&#45;&gt;Node7</title>
<g id="a_edge7_Node000006_Node000007"><a xlink:title=" ">
<path fill="none" stroke="#63b8ff" d="M711.36,-701.5C720.29,-701.5 729.8,-701.5 739.14,-701.5"/>
<polygon fill="#63b8ff" stroke="#63b8ff" points="739.18,-705 749.18,-701.5 739.18,-698 739.18,-705"/>
</a>
</g>
</g>
<!-- Node9 -->
<g id="Node000009" class="node">
<title>Node9</title>
<g id="a_Node000009"><a xlink:href="utils__fd_8c.html#a9cf70d06db18597b04bb642db7abab4a" target="_top" xlink:title="Checks if a file descriptor is valid.">
<polygon fill="white" stroke="#666666" points="701.5,-563 629.5,-563 629.5,-544 701.5,-544 701.5,-563"/>
<text text-anchor="middle" x="665.5" y="-551" font-family="Helvetica,sans-Serif" font-size="10.00">ft_check_fd</text>
</a>
</g>
</g>
<!-- Node8&#45;&gt;Node9 -->
<g id="edge10_Node000008_Node000009" class="edge">
<title>Node8&#45;&gt;Node9</title>
<g id="a_edge10_Node000008_Node000009"><a xlink:title=" ">
<path fill="none" stroke="#63b8ff" d="M562.52,-553.5C580.53,-553.5 601.15,-553.5 619.1,-553.5"/>
<polygon fill="#63b8ff" stroke="#63b8ff" points="619.33,-557 629.33,-553.5 619.33,-550 619.33,-557"/>
</a>
</g>
</g>
<!-- Node10 -->
<g id="Node000010" class="node">
<title>Node10</title>
<g id="a_Node000010"><a xlink:href="handle__heredoc_8c.html#ac5ba13b1edbd22e4a7e0a50fc91f80db" target="_top" xlink:title="Executes a single read&#45;write cycle of the here&#45;document.">
<polygon fill="white" stroke="#666666" points="710.5,-474 620.5,-474 620.5,-455 710.5,-455 710.5,-474"/>
<text text-anchor="middle" x="665.5" y="-462" font-family="Helvetica,sans-Serif" font-size="10.00">ft_exe_heredoc</text>
</a>
</g>
</g>
<!-- Node8&#45;&gt;Node10 -->
<g id="edge11_Node000008_Node000010" class="edge">
<title>Node8&#45;&gt;Node10</title>
<g id="a_edge11_Node000008_Node000010"><a xlink:title=" ">
<path fill="none" stroke="#63b8ff" d="M532.34,-543.98C558.02,-528.53 608.94,-497.91 639.54,-479.51"/>
<polygon fill="#63b8ff" stroke="#63b8ff" points="641.56,-482.38 648.33,-474.23 637.95,-476.38 641.56,-482.38"/>
</a>
</g>
</g>
<!-- Node10&#45;&gt;Node3 -->
<g id="edge51_Node000010_Node000003" class="edge">
<title>Node10&#45;&gt;Node3</title>
<g id="a_edge51_Node000010_Node000003"><a xlink:title=" ">
<path fill="none" stroke="#63b8ff" d="M682.34,-474.02C698.43,-483.59 724.17,-498.58 747,-510.5 869.99,-574.75 896.71,-602.62 1029,-644.5 1091.76,-664.37 1109.65,-661.57 1175,-669.5 1223.68,-675.41 1280.1,-678.94 1316.73,-680.8"/>
<polygon fill="#63b8ff" stroke="#63b8ff" points="1316.81,-684.31 1326.97,-681.31 1317.15,-677.32 1316.81,-684.31"/>
</a>
</g>
</g>
<!-- Node10&#45;&gt;Node7 -->
<g id="edge34_Node000010_Node000007" class="edge">
<title>Node10&#45;&gt;Node7</title>
<g id="a_edge34_Node000010_Node000007"><a xlink:title=" ">
<path fill="none" stroke="#63b8ff" d="M673.91,-474.06C683.75,-487.2 701.05,-511.91 711,-535.5 737.31,-597.87 701.45,-633.42 747,-683.5 747.77,-684.35 748.58,-685.16 749.43,-685.93"/>
<polygon fill="#63b8ff" stroke="#63b8ff" points="747.71,-689 757.91,-691.88 751.74,-683.27 747.71,-689"/>
</a>
</g>
</g>
<!-- Node11 -->
<g id="Node000011" class="node">
<title>Node11</title>
<g id="a_Node000011"><a xlink:href="redir__utils_8c.html#aff3d6a56d03d5df38cbb3e1f171eb191" target="_top" xlink:title="Expands environment variables in a line and writes the result to a file descriptor.">
<polygon fill="white" stroke="#666666" points="843,-352 757,-352 757,-333 843,-333 843,-352"/>
<text text-anchor="middle" x="800" y="-340" font-family="Helvetica,sans-Serif" font-size="10.00">ft_for_env_var</text>
</a>
</g>
</g>
<!-- Node10&#45;&gt;Node11 -->
<g id="edge12_Node000010_Node000011" class="edge">
<title>Node10&#45;&gt;Node11</title>
<g id="a_edge12_Node000010_Node000011"><a xlink:title=" ">
<path fill="none" stroke="#63b8ff" d="M672.25,-454.93C684.1,-435.87 713.02,-392.75 747,-366.5 751.84,-362.76 757.35,-359.43 762.94,-356.54"/>
<polygon fill="#63b8ff" stroke="#63b8ff" points="764.79,-359.53 772.31,-352.07 761.77,-353.22 764.79,-359.53"/>
</a>
</g>
</g>
<!-- Node15 -->
<g id="Node000015" class="node">
<title>Node15</title>
<g id="a_Node000015"><a xlink:href="ft__strlen_8c.html#a828402378653640f545a4be2e00e92f9" target="_top" xlink:title="Calculates the length of a null&#45;terminated string.">
<polygon fill="white" stroke="#666666" points="1384.5,-390 1328.5,-390 1328.5,-371 1384.5,-371 1384.5,-390"/>
<text text-anchor="middle" x="1356.5" y="-378" font-family="Helvetica,sans-Serif" font-size="10.00">ft_strlen</text>
</a>
</g>
</g>
<!-- Node10&#45;&gt;Node15 -->
<g id="edge53_Node000010_Node000015" class="edge">
<title>Node10&#45;&gt;Node15</title>
<g id="a_edge53_Node000010_Node000015"><a xlink:title=" ">
<path fill="none" stroke="#63b8ff" d="M669.03,-454.79C676.31,-428.97 699.82,-358.3 747,-324.5 818.07,-273.58 852.58,-286.5 940,-286.5 940,-286.5 940,-286.5 1085,-286.5 1175.32,-286.5 1206.09,-278.56 1285,-322.5 1305.9,-334.14 1302.1,-347.85 1321,-362.5 1322.39,-363.58 1323.86,-364.63 1325.38,-365.64"/>
<polygon fill="#63b8ff" stroke="#63b8ff" points="1323.95,-368.87 1334.34,-370.98 1327.54,-362.85 1323.95,-368.87"/>
</a>
</g>
</g>
<!-- Node19 -->
<g id="Node000019" class="node">
<title>Node19</title>
<g id="a_Node000019"><a xlink:href="ft__strjoin_8c.html#a91e6e3e428bcc9f2291b700e1829b82b" target="_top" xlink:title="Concatenates two strings into a newly allocated string.">
<polygon fill="white" stroke="#666666" points="1259.5,-372 1200.5,-372 1200.5,-353 1259.5,-353 1259.5,-372"/>
<text text-anchor="middle" x="1230" y="-360" font-family="Helvetica,sans-Serif" font-size="10.00">ft_strjoin</text>
</a>
</g>
</g>
<!-- Node10&#45;&gt;Node19 -->
<g id="edge52_Node000010_Node000019" class="edge">
<title>Node10&#45;&gt;Node19</title>
<g id="a_edge52_Node000010_Node000019"><a xlink:title=" ">
<path fill="none" stroke="#63b8ff" d="M710.74,-455.1C755.58,-445.68 826.99,-430.96 889,-419.5 997.99,-399.35 1127.22,-378.52 1190.37,-368.54"/>
<polygon fill="#63b8ff" stroke="#63b8ff" points="1190.95,-372 1200.29,-366.98 1189.86,-365.08 1190.95,-372"/>
</a>
</g>
</g>
<!-- Node25 -->
<g id="Node000025" class="node">
<title>Node25</title>
<g id="a_Node000025"><a xlink:href="handle__heredoc_8c.html#a9a25ed2a488d16a1f121e7803ec7fbf8" target="_top" xlink:title="Returns the value of the token used as the here&#45;document delimiter.">
<polygon fill="white" stroke="#666666" points="853,-258 747,-258 747,-239 853,-239 853,-258"/>
<text text-anchor="middle" x="800" y="-246" font-family="Helvetica,sans-Serif" font-size="10.00">ft_found_delimiter</text>
</a>
</g>
</g>
<!-- Node10&#45;&gt;Node25 -->
<g id="edge33_Node000010_Node000025" class="edge">
<title>Node10&#45;&gt;Node25</title>
<g id="a_edge33_Node000010_Node000025"><a xlink:title=" ">
<path fill="none" stroke="#63b8ff" d="M668.03,-454.76C673.31,-424.03 693.53,-327.89 747,-272.5 750.62,-268.75 754.94,-265.53 759.51,-262.78"/>
<polygon fill="#63b8ff" stroke="#63b8ff" points="761.29,-265.8 768.52,-258.05 758.04,-259.6 761.29,-265.8"/>
</a>
</g>
</g>
<!-- Node26 -->
<g id="Node000026" class="node">
<title>Node26</title>
<g id="a_Node000026"><a xlink:href="ft__printf_8c.html#a091532b7f37af84bdecc84dccf4eedb1" target="_top" xlink:title="A simplified printf function that outputs formatted data to a given file descriptor.">
<polygon fill="white" stroke="#666666" points="827.5,-221 772.5,-221 772.5,-202 827.5,-202 827.5,-221"/>
<text text-anchor="middle" x="800" y="-209" font-family="Helvetica,sans-Serif" font-size="10.00">ft_printf</text>
</a>
</g>
</g>
<!-- Node10&#45;&gt;Node26 -->
<g id="edge35_Node000010_Node000026" class="edge">
<title>Node10&#45;&gt;Node26</title>
<g id="a_edge35_Node000010_Node000026"><a xlink:title=" ">
<path fill="none" stroke="#63b8ff" d="M666.96,-454.98C669.15,-420.03 681.41,-297.35 747,-230.5 751.46,-225.95 757.1,-222.49 763,-219.85"/>
<polygon fill="#63b8ff" stroke="#63b8ff" points="764.23,-223.12 772.37,-216.34 761.78,-216.57 764.23,-223.12"/>
</a>
</g>
</g>
<!-- Node36 -->
<g id="Node000036" class="node">
<title>Node36</title>
<g id="a_Node000036"><a xlink:href="ft__strcmp_8c.html#a1f2ff2312e5994560c9537cd9173be94" target="_top" xlink:title="Compares two null&#45;terminated strings lexicographically.">
<polygon fill="white" stroke="#666666" points="831,-674 769,-674 769,-655 831,-655 831,-674"/>
<text text-anchor="middle" x="800" y="-662" font-family="Helvetica,sans-Serif" font-size="10.00">ft_strcmp</text>
</a>
</g>
</g>
<!-- Node10&#45;&gt;Node36 -->
<g id="edge50_Node000010_Node000036" class="edge">
<title>Node10&#45;&gt;Node36</title>
<g id="a_edge50_Node000010_Node000036"><a xlink:title=" ">
<path fill="none" stroke="#63b8ff" d="M673.59,-474.2C683.08,-487.5 699.98,-512.39 711,-535.5 732.24,-580.03 713.94,-603.88 747,-640.5 750.57,-644.46 754.93,-647.81 759.59,-650.64"/>
<polygon fill="#63b8ff" stroke="#63b8ff" points="758.3,-653.92 768.78,-655.45 761.55,-647.71 758.3,-653.92"/>
</a>
</g>
</g>
<!-- Node37 -->
<g id="Node000037" class="node">
<title>Node37</title>
<g id="a_Node000037"><a xlink:href="get__next__line_8c.html#a78d68a5f50a6eec0380ce25b4a1bd5b7" target="_top" xlink:title=" ">
<polygon fill="white" stroke="#666666" points="982.5,-540 899.5,-540 899.5,-521 982.5,-521 982.5,-540"/>
<text text-anchor="middle" x="941" y="-528" font-family="Helvetica,sans-Serif" font-size="10.00">get_next_line</text>
</a>
</g>
</g>
<!-- Node10&#45;&gt;Node37 -->
<g id="edge54_Node000010_Node000037" class="edge">
<title>Node10&#45;&gt;Node37</title>
<g id="a_edge54_Node000010_Node000037"><a xlink:title=" ">
<path fill="none" stroke="#63b8ff" d="M705.98,-474.03C754.76,-485.8 837.77,-505.83 890.69,-518.6"/>
<polygon fill="#63b8ff" stroke="#63b8ff" points="889.99,-522.03 900.53,-520.98 891.63,-515.23 889.99,-522.03"/>
</a>
</g>
</g>
<!-- Node12 -->
<g id="Node000012" class="node">
<title>Node12</title>
<g id="a_Node000012"><a xlink:href="utils__env_8c.html#a78e10627f49df6e904925e22ae6ee15f" target="_top" xlink:title="Performs environment variable expansion in a string.">
<polygon fill="white" stroke="#666666" points="993,-447 889,-447 889,-428 993,-428 993,-447"/>
<text text-anchor="middle" x="941" y="-435" font-family="Helvetica,sans-Serif" font-size="10.00">ft_expand_envvar</text>
</a>
</g>
</g>
<!-- Node11&#45;&gt;Node12 -->
<g id="edge13_Node000011_Node000012" class="edge">
<title>Node11&#45;&gt;Node12</title>
<g id="a_edge13_Node000011_Node000012"><a xlink:title=" ">
<path fill="none" stroke="#63b8ff" d="M815.09,-352.13C839.24,-368.63 888.7,-402.44 917.61,-422.2"/>
<polygon fill="#63b8ff" stroke="#63b8ff" points="915.64,-425.09 925.87,-427.84 919.59,-419.31 915.64,-425.09"/>
</a>
</g>
</g>
<!-- Node11&#45;&gt;Node15 -->
<g id="edge32_Node000011_Node000015" class="edge">
<title>Node11&#45;&gt;Node15</title>
<g id="a_edge32_Node000011_Node000015"><a xlink:title=" ">
<path fill="none" stroke="#63b8ff" d="M843.22,-336.2C928.29,-324.92 1125.77,-305.85 1285,-344.5 1286.21,-344.79 1308.74,-356.34 1328.01,-366.28"/>
<polygon fill="#63b8ff" stroke="#63b8ff" points="1326.6,-369.49 1337.1,-370.97 1329.82,-363.27 1326.6,-369.49"/>
</a>
</g>
</g>
<!-- Node12&#45;&gt;Node3 -->
<g id="edge31_Node000012_Node000003" class="edge">
<title>Node12&#45;&gt;Node3</title>
<g id="a_edge31_Node000012_Node000003"><a xlink:title=" ">
<path fill="none" stroke="#63b8ff" d="M948.21,-447.09C964.31,-471.66 1007.6,-535.89 1029,-549.5 1127.43,-612.12 1183.73,-549.58 1285,-607.5 1309.61,-621.57 1330.79,-647 1343.34,-664.31"/>
<polygon fill="#63b8ff" stroke="#63b8ff" points="1340.79,-666.78 1349.39,-672.97 1346.53,-662.77 1340.79,-666.78"/>
</a>
</g>
</g>
<!-- Node13 -->
<g id="Node000013" class="node">
<title>Node13</title>
<g id="a_Node000013"><a xlink:href="utils__env_8c.html#a4ea711c91d64ff7669bf6ac7e6b6b9dd" target="_top" xlink:title="Expands an environment variable found in a string.">
<polygon fill="white" stroke="#666666" points="1116.5,-465 1051.5,-465 1051.5,-446 1116.5,-446 1116.5,-465"/>
<text text-anchor="middle" x="1084" y="-453" font-family="Helvetica,sans-Serif" font-size="10.00">ft_expand</text>
</a>
</g>
</g>
<!-- Node12&#45;&gt;Node13 -->
<g id="edge14_Node000012_Node000013" class="edge">
<title>Node12&#45;&gt;Node13</title>
<g id="a_edge14_Node000012_Node000013"><a xlink:title=" ">
<path fill="none" stroke="#63b8ff" d="M993.3,-444.05C1009.04,-446.06 1026.16,-448.24 1041.19,-450.16"/>
<polygon fill="#63b8ff" stroke="#63b8ff" points="1040.85,-453.65 1051.21,-451.44 1041.73,-446.7 1040.85,-453.65"/>
</a>
</g>
</g>
<!-- Node24 -->
<g id="Node000024" class="node">
<title>Node24</title>
<g id="a_Node000024"><a xlink:href="utils__env_8c.html#a3323d2c2586349772b23a3eaf1a241c3" target="_top" xlink:title="Concatenates a literal part (non&#45;variable) of the string to the result.">
<polygon fill="white" stroke="#666666" points="1123,-428 1045,-428 1045,-409 1123,-409 1123,-428"/>
<text text-anchor="middle" x="1084" y="-416" font-family="Helvetica,sans-Serif" font-size="10.00">ft_merge_str</text>
</a>
</g>
</g>
<!-- Node12&#45;&gt;Node24 -->
<g id="edge28_Node000012_Node000024" class="edge">
<title>Node12&#45;&gt;Node24</title>
<g id="a_edge28_Node000012_Node000024"><a xlink:title=" ">
<path fill="none" stroke="#63b8ff" d="M993.3,-430.59C1006.86,-428.76 1021.43,-426.8 1034.82,-424.99"/>
<polygon fill="#63b8ff" stroke="#63b8ff" points="1035.34,-428.45 1044.78,-423.65 1034.4,-421.52 1035.34,-428.45"/>
</a>
</g>
</g>
<!-- Node14 -->
<g id="Node000014" class="node">
<title>Node14</title>
<g id="a_Node000014"><a xlink:href="utils__env__pt2_8c.html#afac58c53fe53bc538ba19b53efec42e4" target="_top" xlink:title="Finds the value of an environment variable given its name key.">
<polygon fill="white" stroke="#666666" points="1280,-409 1180,-409 1180,-390 1280,-390 1280,-409"/>
<text text-anchor="middle" x="1230" y="-397" font-family="Helvetica,sans-Serif" font-size="10.00">ft_get_env_value</text>
</a>
</g>
</g>
<!-- Node13&#45;&gt;Node14 -->
<g id="edge15_Node000013_Node000014" class="edge">
<title>Node13&#45;&gt;Node14</title>
<g id="a_edge15_Node000013_Node000014"><a xlink:title=" ">
<path fill="none" stroke="#63b8ff" d="M1116.45,-445.98C1123.93,-443.45 1131.82,-440.57 1139,-437.5 1155.64,-430.39 1158.42,-425.74 1175,-418.5 1179.72,-416.44 1184.74,-414.43 1189.74,-412.55"/>
<polygon fill="#63b8ff" stroke="#63b8ff" points="1191.07,-415.79 1199.27,-409.08 1188.67,-409.21 1191.07,-415.79"/>
</a>
</g>
</g>
<!-- Node17 -->
<g id="Node000017" class="node">
<title>Node17</title>
<g id="a_Node000017"><a xlink:href="ft__isalnum_8c.html#a9c2c3821ea43ebdf97de07b123503f8b" target="_top" xlink:title="Checks whether a character is alphanumeric.">
<polygon fill="white" stroke="#666666" points="1264,-483 1196,-483 1196,-464 1264,-464 1264,-483"/>
<text text-anchor="middle" x="1230" y="-471" font-family="Helvetica,sans-Serif" font-size="10.00">ft_isalnum</text>
</a>
</g>
</g>
<!-- Node13&#45;&gt;Node17 -->
<g id="edge18_Node000013_Node000017" class="edge">
<title>Node13&#45;&gt;Node17</title>
<g id="a_edge18_Node000013_Node000017"><a xlink:title=" ">
<path fill="none" stroke="#63b8ff" d="M1116.6,-459.45C1136.9,-461.99 1163.53,-465.32 1185.78,-468.1"/>
<polygon fill="#63b8ff" stroke="#63b8ff" points="1185.62,-471.6 1195.97,-469.37 1186.48,-464.66 1185.62,-471.6"/>
</a>
</g>
</g>
<!-- Node18 -->
<g id="Node000018" class="node">
<title>Node18</title>
<g id="a_Node000018"><a xlink:href="ft__isdigit_8c.html#a2cf15b8a1a277d1e2ce3654101a2003d" target="_top" xlink:title="Checks whether a character is a decimal digit.">
<polygon fill="white" stroke="#666666" points="1259.5,-446 1200.5,-446 1200.5,-427 1259.5,-427 1259.5,-446"/>
<text text-anchor="middle" x="1230" y="-434" font-family="Helvetica,sans-Serif" font-size="10.00">ft_isdigit</text>
</a>
</g>
</g>
<!-- Node13&#45;&gt;Node18 -->
<g id="edge19_Node000013_Node000018" class="edge">
<title>Node13&#45;&gt;Node18</title>
<g id="a_edge19_Node000013_Node000018"><a xlink:title=" ">
<path fill="none" stroke="#63b8ff" d="M1116.6,-451.33C1138.28,-448.47 1167.19,-444.66 1190.26,-441.61"/>
<polygon fill="#63b8ff" stroke="#63b8ff" points="1190.95,-445.05 1200.4,-440.27 1190.03,-438.11 1190.95,-445.05"/>
</a>
</g>
</g>
<!-- Node13&#45;&gt;Node19 -->
<g id="edge20_Node000013_Node000019" class="edge">
<title>Node13&#45;&gt;Node19</title>
<g id="a_edge20_Node000013_Node000019"><a xlink:title=" ">
<path fill="none" stroke="#63b8ff" d="M1116.78,-448.84C1124.57,-446.19 1132.52,-442.53 1139,-437.5 1162.36,-419.34 1151.79,-399.85 1175,-381.5 1179.7,-377.79 1185.17,-374.77 1190.8,-372.33"/>
<polygon fill="#63b8ff" stroke="#63b8ff" points="1192.18,-375.55 1200.3,-368.74 1189.71,-369 1192.18,-375.55"/>
</a>
</g>
</g>
<!-- Node21 -->
<g id="Node000021" class="node">
<title>Node21</title>
<g id="a_Node000021"><a xlink:href="ft__substr_8c.html#a78c402cbf3d55b1374693c3b7d34f71d" target="_top" xlink:title="Extracts a substring from a given string.">
<polygon fill="white" stroke="#666666" points="1259.5,-559 1200.5,-559 1200.5,-540 1259.5,-540 1259.5,-559"/>
<text text-anchor="middle" x="1230" y="-547" font-family="Helvetica,sans-Serif" font-size="10.00">ft_substr</text>
</a>
</g>
</g>
<!-- Node13&#45;&gt;Node21 -->
<g id="edge23_Node000013_Node000021" class="edge">
<title>Node13&#45;&gt;Node21</title>
<g id="a_edge23_Node000013_Node000021"><a xlink:title=" ">
<path fill="none" stroke="#63b8ff" d="M1099.6,-465.03C1124.61,-481.36 1175.85,-514.81 1205.8,-534.36"/>
<polygon fill="#63b8ff" stroke="#63b8ff" points="1204.07,-537.41 1214.36,-539.94 1207.9,-531.55 1204.07,-537.41"/>
</a>
</g>
</g>
<!-- Node14&#45;&gt;Node15 -->
<g id="edge16_Node000014_Node000015" class="edge">
<title>Node14&#45;&gt;Node15</title>
<g id="a_edge16_Node000014_Node000015"><a xlink:title=" ">
<path fill="none" stroke="#63b8ff" d="M1280.21,-391.99C1292.93,-390.05 1306.41,-387.99 1318.4,-386.16"/>
<polygon fill="#63b8ff" stroke="#63b8ff" points="1319.13,-389.59 1328.49,-384.62 1318.08,-382.67 1319.13,-389.59"/>
</a>
</g>
</g>
<!-- Node16 -->
<g id="Node000016" class="node">
<title>Node16</title>
<g id="a_Node000016"><a xlink:href="ft__strncmp_8c.html#a9d2fe792187aa4ed08e5864fb2c4d6dc" target="_top" xlink:title="Compares up to n characters of two strings.">
<polygon fill="white" stroke="#666666" points="1390.5,-427 1322.5,-427 1322.5,-408 1390.5,-408 1390.5,-427"/>
<text text-anchor="middle" x="1356.5" y="-415" font-family="Helvetica,sans-Serif" font-size="10.00">ft_strncmp</text>
</a>
</g>
</g>
<!-- Node14&#45;&gt;Node16 -->
<g id="edge17_Node000014_Node000016" class="edge">
<title>Node14&#45;&gt;Node16</title>
<g id="a_edge17_Node000014_Node000016"><a xlink:title=" ">
<path fill="none" stroke="#63b8ff" d="M1280.21,-406.61C1290.81,-408.15 1301.94,-409.76 1312.29,-411.25"/>
<polygon fill="#63b8ff" stroke="#63b8ff" points="1311.94,-414.74 1322.34,-412.71 1312.94,-407.81 1311.94,-414.74"/>
</a>
</g>
</g>
<!-- Node19&#45;&gt;Node15 -->
<g id="edge22_Node000019_Node000015" class="edge">
<title>Node19&#45;&gt;Node15</title>
<g id="a_edge22_Node000019_Node000015"><a xlink:title=" ">
<path fill="none" stroke="#63b8ff" d="M1259.56,-366.63C1277.01,-369.15 1299.5,-372.4 1318.33,-375.13"/>
<polygon fill="#63b8ff" stroke="#63b8ff" points="1317.95,-378.61 1328.35,-376.57 1318.95,-371.68 1317.95,-378.61"/>
</a>
</g>
</g>
<!-- Node20 -->
<g id="Node000020" class="node">
<title>Node20</title>
<g id="a_Node000020"><a xlink:href="ft__memcpy_8c.html#a41a6f05af30cf85ff63a08e383826322" target="_top" xlink:title="Copies &#39;n&#39; bytes from memory area &#39;src&#39; to memory area &#39;dest&#39;.">
<polygon fill="white" stroke="#666666" points="1392,-353 1321,-353 1321,-334 1392,-334 1392,-353"/>
<text text-anchor="middle" x="1356.5" y="-341" font-family="Helvetica,sans-Serif" font-size="10.00">ft_memcpy</text>
</a>
</g>
</g>
<!-- Node19&#45;&gt;Node20 -->
<g id="edge21_Node000019_Node000020" class="edge">
<title>Node19&#45;&gt;Node20</title>
<g id="a_edge21_Node000019_Node000020"><a xlink:title=" ">
<path fill="none" stroke="#63b8ff" d="M1259.56,-358.14C1274.66,-355.84 1293.55,-352.95 1310.56,-350.36"/>
<polygon fill="#63b8ff" stroke="#63b8ff" points="1311.5,-353.76 1320.86,-348.79 1310.45,-346.84 1311.5,-353.76"/>
</a>
</g>
</g>
<!-- Node21&#45;&gt;Node3 -->
<g id="edge24_Node000021_Node000003" class="edge">
<title>Node21&#45;&gt;Node3</title>
<g id="a_edge24_Node000021_Node000003"><a xlink:title=" ">
<path fill="none" stroke="#63b8ff" d="M1259.7,-558.64C1268.44,-562.33 1277.67,-567.23 1285,-573.5 1314.54,-598.76 1336.28,-639.46 1347.32,-663.33"/>
<polygon fill="#63b8ff" stroke="#63b8ff" points="1344.23,-665.01 1351.51,-672.72 1350.63,-662.16 1344.23,-665.01"/>
</a>
</g>
</g>
<!-- Node21&#45;&gt;Node15 -->
<g id="edge26_Node000021_Node000015" class="edge">
<title>Node21&#45;&gt;Node15</title>
<g id="a_edge26_Node000021_Node000015"><a xlink:title=" ">
<path fill="none" stroke="#63b8ff" d="M1259.5,-542.14C1268.75,-538.49 1278.34,-533.17 1285,-525.5 1323.2,-481.54 1284.7,-445.05 1321,-399.5 1321.93,-398.33 1322.96,-397.22 1324.05,-396.17"/>
<polygon fill="#63b8ff" stroke="#63b8ff" points="1326.21,-398.93 1332.05,-390.09 1321.97,-393.36 1326.21,-398.93"/>
</a>
</g>
</g>
<!-- Node22 -->
<g id="Node000022" class="node">
<title>Node22</title>
<g id="a_Node000022"><a xlink:href="ft__strlcpy_8c.html#aa053827b3a2ea3d0118783d6fb59d178" target="_top" xlink:title="Copies up to size &#45; 1 characters from the string src to dst, null&#45;terminating the result.">
<polygon fill="white" stroke="#666666" points="1387.5,-577 1325.5,-577 1325.5,-558 1387.5,-558 1387.5,-577"/>
<text text-anchor="middle" x="1356.5" y="-565" font-family="Helvetica,sans-Serif" font-size="10.00">ft_strlcpy</text>
</a>
</g>
</g>
<!-- Node21&#45;&gt;Node22 -->
<g id="edge25_Node000021_Node000022" class="edge">
<title>Node21&#45;&gt;Node22</title>
<g id="a_edge25_Node000021_Node000022"><a xlink:title=" ">
<path fill="none" stroke="#63b8ff" d="M1259.56,-553.63C1276.08,-556.02 1297.13,-559.06 1315.3,-561.69"/>
<polygon fill="#63b8ff" stroke="#63b8ff" points="1314.94,-565.17 1325.33,-563.14 1315.94,-558.24 1314.94,-565.17"/>
</a>
</g>
</g>
<!-- Node23 -->
<g id="Node000023" class="node">
<title>Node23</title>
<g id="a_Node000023"><a xlink:href="ft__strlcat_8c.html#a3ab017dd491d7327d1b4acbf1398b91e" target="_top" xlink:title="Returns the length of a null&#45;terminated string.">
<polygon fill="white" stroke="#666666" points="1372.5,-540 1340.5,-540 1340.5,-521 1372.5,-521 1372.5,-540"/>
<text text-anchor="middle" x="1356.5" y="-528" font-family="Helvetica,sans-Serif" font-size="10.00">len</text>
</a>
</g>
</g>
<!-- Node21&#45;&gt;Node23 -->
<g id="edge27_Node000021_Node000023" class="edge">
<title>Node21&#45;&gt;Node23</title>
<g id="a_edge27_Node000021_Node000023"><a xlink:title=" ">
<path fill="none" stroke="#63b8ff" d="M1259.56,-545.14C1280.86,-541.89 1309.69,-537.49 1330.17,-534.37"/>
<polygon fill="#63b8ff" stroke="#63b8ff" points="1330.95,-537.79 1340.31,-532.82 1329.9,-530.87 1330.95,-537.79"/>
</a>
</g>
</g>
<!-- Node24&#45;&gt;Node19 -->
<g id="edge29_Node000024_Node000019" class="edge">
<title>Node24&#45;&gt;Node19</title>
<g id="a_edge29_Node000024_Node000019"><a xlink:title=" ">
<path fill="none" stroke="#63b8ff" d="M1107.43,-408.9C1125.56,-401.23 1151.79,-390.35 1175,-381.5 1180.22,-379.51 1185.76,-377.48 1191.22,-375.51"/>
<polygon fill="#63b8ff" stroke="#63b8ff" points="1192.62,-378.73 1200.87,-372.09 1190.28,-372.13 1192.62,-378.73"/>
</a>
</g>
</g>
<!-- Node24&#45;&gt;Node21 -->
<g id="edge30_Node000024_Node000021" class="edge">
<title>Node24&#45;&gt;Node21</title>
<g id="a_edge30_Node000024_Node000021"><a xlink:title=" ">
<path fill="none" stroke="#63b8ff" d="M1122.4,-428.03C1128.3,-430.53 1134.07,-433.64 1139,-437.5 1161.99,-455.52 1156.88,-469.58 1175,-492.5 1186.29,-506.78 1200.5,-521.68 1211.51,-532.66"/>
<polygon fill="#63b8ff" stroke="#63b8ff" points="1209.29,-535.39 1218.87,-539.9 1214.2,-530.39 1209.29,-535.39"/>
</a>
</g>
</g>
<!-- Node27 -->
<g id="Node000027" class="node">
<title>Node27</title>
<g id="a_Node000027"><a xlink:href="ft__printf_8c.html#a80c1c206dcd33d07c265581878aaa300" target="_top" xlink:title="Processes a single format specifier and prints the corresponding argument.">
<polygon fill="white" stroke="#666666" points="982.5,-166 899.5,-166 899.5,-147 982.5,-147 982.5,-166"/>
<text text-anchor="middle" x="941" y="-154" font-family="Helvetica,sans-Serif" font-size="10.00">check_format</text>
</a>
</g>
</g>
<!-- Node26&#45;&gt;Node27 -->
<g id="edge36_Node000026_Node000027" class="edge">
<title>Node26&#45;&gt;Node27</title>
<g id="a_edge36_Node000026_Node000027"><a xlink:title=" ">
<path fill="none" stroke="#63b8ff" d="M825.21,-201.92C847.6,-193.06 881.09,-179.81 906.12,-169.91"/>
<polygon fill="#63b8ff" stroke="#63b8ff" points="907.59,-173.09 915.6,-166.16 905.01,-166.58 907.59,-173.09"/>
</a>
</g>
</g>
<!-- Node31 -->
<g id="Node000031" class="node">
<title>Node31</title>
<g id="a_Node000031"><a xlink:href="ft__putchar__fd_8c.html#a03ef80b25dc4a521379fa92ad97bad21" target="_top" xlink:title="Writes a single character to the specified file descriptor.">
<polygon fill="white" stroke="#666666" points="1124,-240 1044,-240 1044,-221 1124,-221 1124,-240"/>
<text text-anchor="middle" x="1084" y="-228" font-family="Helvetica,sans-Serif" font-size="10.00">ft_putchar_fd</text>
</a>
</g>
</g>
<!-- Node26&#45;&gt;Node31 -->
<g id="edge49_Node000026_Node000031" class="edge">
<title>Node26&#45;&gt;Node31</title>
<g id="a_edge49_Node000026_Node000031"><a xlink:title=" ">
<path fill="none" stroke="#63b8ff" d="M827.53,-213.29C874.71,-216.47 973.86,-223.15 1033.82,-227.19"/>
<polygon fill="#63b8ff" stroke="#63b8ff" points="1033.6,-230.68 1043.81,-227.86 1034.07,-223.7 1033.6,-230.68"/>
</a>
</g>
</g>
<!-- Node28 -->
<g id="Node000028" class="node">
<title>Node28</title>
<g id="a_Node000028"><a xlink:href="ft__forpointer_8c.html#a8e02c77b80406af72327ebf71f537786" target="_top" xlink:title="Prints a pointer in hexadecimal format prefixed with &quot;0x&quot;.">
<polygon fill="white" stroke="#666666" points="1122.5,-129 1045.5,-129 1045.5,-110 1122.5,-110 1122.5,-129"/>
<text text-anchor="middle" x="1084" y="-117" font-family="Helvetica,sans-Serif" font-size="10.00">ft_forpointer</text>
</a>
</g>
</g>
<!-- Node27&#45;&gt;Node28 -->
<g id="edge37_Node000027_Node000028" class="edge">
<title>Node27&#45;&gt;Node28</title>
<g id="a_edge37_Node000027_Node000028"><a xlink:title=" ">
<path fill="none" stroke="#63b8ff" d="M978.31,-146.97C996.02,-142.33 1017.52,-136.68 1036.42,-131.72"/>
<polygon fill="#63b8ff" stroke="#63b8ff" points="1037.54,-135.05 1046.32,-129.12 1035.76,-128.28 1037.54,-135.05"/>
</a>
</g>
</g>
<!-- Node30 -->
<g id="Node000030" class="node">
<title>Node30</title>
<g id="a_Node000030"><a xlink:href="ft__hexadecimal_8c.html#a39c845e0a4286d3ac1e04c1e64ac734b" target="_top" xlink:title="Prints an unsigned integer in hexadecimal format.">
<polygon fill="white" stroke="#666666" points="1130,-74 1038,-74 1038,-55 1130,-55 1130,-74"/>
<text text-anchor="middle" x="1084" y="-62" font-family="Helvetica,sans-Serif" font-size="10.00">ft_hexadecimal</text>
</a>
</g>
</g>
<!-- Node27&#45;&gt;Node30 -->
<g id="edge40_Node000027_Node000030" class="edge">
<title>Node27&#45;&gt;Node30</title>
<g id="a_edge40_Node000027_Node000030"><a xlink:title=" ">
<path fill="none" stroke="#63b8ff" d="M956.82,-146.83C981.32,-130.84 1030.45,-98.79 1059.65,-79.73"/>
<polygon fill="#63b8ff" stroke="#63b8ff" points="1061.91,-82.44 1068.38,-74.04 1058.09,-76.58 1061.91,-82.44"/>
</a>
</g>
</g>
<!-- Node27&#45;&gt;Node31 -->
<g id="edge42_Node000027_Node000031" class="edge">
<title>Node27&#45;&gt;Node31</title>
<g id="a_edge42_Node000027_Node000031"><a xlink:title=" ">
<path fill="none" stroke="#63b8ff" d="M954.67,-166.11C971.1,-178.22 1000.98,-199.07 1029,-212.5 1032.61,-214.23 1036.42,-215.86 1040.29,-217.38"/>
<polygon fill="#63b8ff" stroke="#63b8ff" points="1039.33,-220.76 1049.93,-220.93 1041.75,-214.19 1039.33,-220.76"/>
</a>
</g>
</g>
<!-- Node32 -->
<g id="Node000032" class="node">
<title>Node32</title>
<g id="a_Node000032"><a xlink:href="ft__putnbr__fd_8c.html#a1554101ee350c316340c78e19faddaa8" target="_top" xlink:title="Writes an integer to a given file descriptor.">
<polygon fill="white" stroke="#666666" points="1121.5,-19 1046.5,-19 1046.5,0 1121.5,0 1121.5,-19"/>
<text text-anchor="middle" x="1084" y="-7" font-family="Helvetica,sans-Serif" font-size="10.00">ft_putnbr_fd</text>
</a>
</g>
</g>
<!-- Node27&#45;&gt;Node32 -->
<g id="edge43_Node000027_Node000032" class="edge">
<title>Node27&#45;&gt;Node32</title>
<g id="a_edge43_Node000027_Node000032"><a xlink:title=" ">
<path fill="none" stroke="#63b8ff" d="M948.09,-146.75C961.17,-126.34 993.61,-78.27 1029,-45.5 1037.39,-37.73 1047.63,-30.45 1056.92,-24.51"/>
<polygon fill="#63b8ff" stroke="#63b8ff" points="1058.77,-27.48 1065.44,-19.25 1055.1,-21.52 1058.77,-27.48"/>
</a>
</g>
</g>
<!-- Node33 -->
<g id="Node000033" class="node">
<title>Node33</title>
<g id="a_Node000033"><a xlink:href="ft__putstr__fd_8c.html#a00b0638f31a75c7a30f77f33888bfb73" target="_top" xlink:title="Writes a null&#45;terminated string to the specified file descriptor.">
<polygon fill="white" stroke="#666666" points="1120,-203 1048,-203 1048,-184 1120,-184 1120,-203"/>
<text text-anchor="middle" x="1084" y="-191" font-family="Helvetica,sans-Serif" font-size="10.00">ft_putstr_fd</text>
</a>
</g>
</g>
<!-- Node27&#45;&gt;Node33 -->
<g id="edge45_Node000027_Node000033" class="edge">
<title>Node27&#45;&gt;Node33</title>
<g id="a_edge45_Node000027_Node000033"><a xlink:title=" ">
<path fill="none" stroke="#63b8ff" d="M978.31,-166.03C996.52,-170.81 1018.73,-176.64 1038.01,-181.69"/>
<polygon fill="#63b8ff" stroke="#63b8ff" points="1037.23,-185.11 1047.79,-184.26 1039,-178.34 1037.23,-185.11"/>
</a>
</g>
</g>
<!-- Node34 -->
<g id="Node000034" class="node">
<title>Node34</title>
<g id="a_Node000034"><a xlink:href="ft__unsigned__putnbr_8c.html#af9a70f8607b40cf2a7706f9d3725b549" target="_top" xlink:title="Writes an unsigned integer to the given file descriptor.">
<polygon fill="white" stroke="#666666" points="1139,-166 1029,-166 1029,-147 1139,-147 1139,-166"/>
<text text-anchor="middle" x="1084" y="-154" font-family="Helvetica,sans-Serif" font-size="10.00">ft_unsigned_putnbr</text>
</a>
</g>
</g>
<!-- Node27&#45;&gt;Node34 -->
<g id="edge46_Node000027_Node000034" class="edge">
<title>Node27&#45;&gt;Node34</title>
<g id="a_edge46_Node000027_Node000034"><a xlink:title=" ">
<path fill="none" stroke="#63b8ff" d="M982.78,-156.5C994.03,-156.5 1006.51,-156.5 1018.74,-156.5"/>
<polygon fill="#63b8ff" stroke="#63b8ff" points="1018.92,-160 1028.92,-156.5 1018.92,-153 1018.92,-160"/>
</a>
</g>
</g>
<!-- Node29 -->
<g id="Node000029" class="node">
<title>Node29</title>
<g id="a_Node000029"><a xlink:href="ft__forpointer_8c.html#aded1bf735c8a10e47396170d27c5b6aa" target="_top" xlink:title="Recursively prints a memory address in hexadecimal format.">
<polygon fill="white" stroke="#666666" points="1285,-120 1175,-120 1175,-101 1285,-101 1285,-120"/>
<text text-anchor="middle" x="1230" y="-108" font-family="Helvetica,sans-Serif" font-size="10.00">ft_ricorsive_pointer</text>
</a>
</g>
</g>
<!-- Node28&#45;&gt;Node29 -->
<g id="edge38_Node000028_Node000029" class="edge">
<title>Node28&#45;&gt;Node29</title>
<g id="a_edge38_Node000028_Node000029"><a xlink:title=" ">
<path fill="none" stroke="#63b8ff" d="M1122.83,-117.14C1135.64,-116.33 1150.33,-115.42 1164.61,-114.52"/>
<polygon fill="#63b8ff" stroke="#63b8ff" points="1165.14,-118 1174.9,-113.88 1164.7,-111.01 1165.14,-118"/>
</a>
</g>
</g>
<!-- Node29&#45;&gt;Node29 -->
<g id="edge39_Node000029_Node000029" class="edge">
<title>Node29&#45;&gt;Node29</title>
<g id="a_edge39_Node000029_Node000029"><a xlink:title=" ">
<path fill="none" stroke="#63b8ff" d="M1210.58,-120.08C1201.13,-128.73 1207.61,-138 1230,-138 1244,-138 1251.77,-134.38 1253.33,-129.55"/>
<polygon fill="#63b8ff" stroke="#63b8ff" points="1256.47,-127.99 1249.42,-120.08 1250,-130.66 1256.47,-127.99"/>
</a>
</g>
</g>
<!-- Node30&#45;&gt;Node30 -->
<g id="edge41_Node000030_Node000030" class="edge">
<title>Node30&#45;&gt;Node30</title>
<g id="a_edge41_Node000030_Node000030"><a xlink:title=" ">
<path fill="none" stroke="#63b8ff" d="M1062.11,-74.08C1051.47,-82.73 1058.76,-92 1084,-92 1100.17,-92 1108.97,-88.2 1110.41,-83.19"/>
<polygon fill="#63b8ff" stroke="#63b8ff" points="1113.47,-81.48 1105.89,-74.08 1107.2,-84.6 1113.47,-81.48"/>
</a>
</g>
</g>
<!-- Node32&#45;&gt;Node32 -->
<g id="edge44_Node000032_Node000032" class="edge">
<title>Node32&#45;&gt;Node32</title>
<g id="a_edge44_Node000032_Node000032"><a xlink:title=" ">
<path fill="none" stroke="#63b8ff" d="M1062.11,-19.08C1051.47,-27.73 1058.76,-37 1084,-37 1100.17,-37 1108.97,-33.2 1110.41,-28.19"/>
<polygon fill="#63b8ff" stroke="#63b8ff" points="1113.47,-26.48 1105.89,-19.08 1107.2,-29.6 1113.47,-26.48"/>
</a>
</g>
</g>
<!-- Node35 -->
<g id="Node000035" class="node">
<title>Node35</title>
<g id="a_Node000035"><a xlink:href="ft__putnbr_8c.html#a2e51f80c9e46e52f4adf94617fb51ada" target="_top" xlink:title="Writes an integer to the standard output (stdout).">
<polygon fill="white" stroke="#666666" points="1260,-175 1200,-175 1200,-156 1260,-156 1260,-175"/>
<text text-anchor="middle" x="1230" y="-163" font-family="Helvetica,sans-Serif" font-size="10.00">ft_putnbr</text>
</a>
</g>
</g>
<!-- Node34&#45;&gt;Node35 -->
<g id="edge47_Node000034_Node000035" class="edge">
<title>Node34&#45;&gt;Node35</title>
<g id="a_edge47_Node000034_Node000035"><a xlink:title=" ">
<path fill="none" stroke="#63b8ff" d="M1139.03,-159.88C1155.76,-160.92 1173.87,-162.05 1189.43,-163.03"/>
<polygon fill="#63b8ff" stroke="#63b8ff" points="1189.55,-166.54 1199.74,-163.67 1189.98,-159.55 1189.55,-166.54"/>
</a>
</g>
</g>
<!-- Node35&#45;&gt;Node35 -->
<g id="edge48_Node000035_Node000035" class="edge">
<title>Node35&#45;&gt;Node35</title>
<g id="a_edge48_Node000035_Node000035"><a xlink:title=" ">
<path fill="none" stroke="#63b8ff" d="M1210.58,-175.08C1201.13,-183.73 1207.61,-193 1230,-193 1244,-193 1251.77,-189.38 1253.33,-184.55"/>
<polygon fill="#63b8ff" stroke="#63b8ff" points="1256.47,-182.99 1249.42,-175.08 1250,-185.66 1256.47,-182.99"/>
</a>
</g>
</g>
<!-- Node38 -->
<g id="Node000038" class="node">
<title>Node38</title>
<g id="a_Node000038"><a xlink:href="get__next__line_8c.html#a253f107325777771467d4b92d8ad0def" target="_top" xlink:title=" ">
<polygon fill="white" stroke="#666666" points="1115.5,-540 1052.5,-540 1052.5,-521 1115.5,-521 1115.5,-540"/>
<text text-anchor="middle" x="1084" y="-528" font-family="Helvetica,sans-Serif" font-size="10.00">ft_getrest</text>
</a>
</g>
</g>
<!-- Node37&#45;&gt;Node38 -->
<g id="edge55_Node000037_Node000038" class="edge">
<title>Node37&#45;&gt;Node38</title>
<g id="a_edge55_Node000037_Node000038"><a xlink:title=" ">
<path fill="none" stroke="#63b8ff" d="M982.78,-530.5C1001.36,-530.5 1023.31,-530.5 1041.93,-530.5"/>
<polygon fill="#63b8ff" stroke="#63b8ff" points="1042.17,-534 1052.17,-530.5 1042.17,-527 1042.17,-534"/>
</a>
</g>
</g>
<!-- Node39 -->
<g id="Node000039" class="node">
<title>Node39</title>
<g id="a_Node000039"><a xlink:href="get__next__line_8c.html#aad5cee417ca3f1d807d5b1d1c76c6987" target="_top" xlink:title=" ">
<polygon fill="white" stroke="#666666" points="1115,-635 1053,-635 1053,-616 1115,-616 1115,-635"/>
<text text-anchor="middle" x="1084" y="-623" font-family="Helvetica,sans-Serif" font-size="10.00">ft_putline</text>
</a>
</g>
</g>
<!-- Node37&#45;&gt;Node39 -->
<g id="edge58_Node000037_Node000039" class="edge">
<title>Node37&#45;&gt;Node39</title>
<g id="a_edge58_Node000037_Node000039"><a xlink:title=" ">
<path fill="none" stroke="#63b8ff" d="M952.03,-540.21C967.55,-554.87 998.78,-582.91 1029,-601.5 1035.05,-605.22 1041.77,-608.68 1048.36,-611.75"/>
<polygon fill="#63b8ff" stroke="#63b8ff" points="1047.28,-615.1 1057.84,-615.96 1050.12,-608.7 1047.28,-615.1"/>
</a>
</g>
</g>
<!-- Node38&#45;&gt;Node15 -->
<g id="edge56_Node000038_Node000015" class="edge">
<title>Node38&#45;&gt;Node15</title>
<g id="a_edge56_Node000038_Node000015"><a xlink:title=" ">
<path fill="none" stroke="#63b8ff" d="M1115.62,-528.28C1165.1,-524.12 1259.68,-513.6 1285,-492.5 1319.05,-464.13 1291.83,-432.87 1321,-399.5 1322.01,-398.34 1323.11,-397.24 1324.28,-396.19"/>
<polygon fill="#63b8ff" stroke="#63b8ff" points="1326.64,-398.8 1332.67,-390.09 1322.53,-393.14 1326.64,-398.8"/>
</a>
</g>
</g>
<!-- Node38&#45;&gt;Node21 -->
<g id="edge57_Node000038_Node000021" class="edge">
<title>Node38&#45;&gt;Node21</title>
<g id="a_edge57_Node000038_Node000021"><a xlink:title=" ">
<path fill="none" stroke="#63b8ff" d="M1115.54,-534.53C1137.4,-537.41 1167,-541.32 1190.48,-544.42"/>
<polygon fill="#63b8ff" stroke="#63b8ff" points="1190.09,-547.9 1200.46,-545.73 1191.01,-540.96 1190.09,-547.9"/>
</a>
</g>
</g>
<!-- Node39&#45;&gt;Node3 -->
<g id="edge60_Node000039_Node000003" class="edge">
<title>Node39&#45;&gt;Node3</title>
<g id="a_edge60_Node000039_Node000003"><a xlink:title=" ">
<path fill="none" stroke="#63b8ff" d="M1115.41,-631.92C1132.85,-635.61 1155.16,-640.32 1175,-644.5 1223.77,-654.78 1279.95,-666.61 1316.51,-674.3"/>
<polygon fill="#63b8ff" stroke="#63b8ff" points="1316.23,-677.82 1326.74,-676.45 1317.67,-670.97 1316.23,-677.82"/>
</a>
</g>
</g>
<!-- Node39&#45;&gt;Node19 -->
<g id="edge61_Node000039_Node000019" class="edge">
<title>Node39&#45;&gt;Node19</title>
<g id="a_edge61_Node000039_Node000019"><a xlink:title=" ">
<path fill="none" stroke="#63b8ff" d="M1093.75,-615.98C1105.82,-602.31 1127.4,-575.87 1139,-549.5 1169.75,-479.6 1124.55,-438.82 1175,-381.5 1179.27,-376.65 1184.84,-373.04 1190.8,-370.35"/>
<polygon fill="#63b8ff" stroke="#63b8ff" points="1192.15,-373.59 1200.32,-366.84 1189.72,-367.02 1192.15,-373.59"/>
</a>
</g>
</g>
<!-- Node40 -->
<g id="Node000040" class="node">
<title>Node40</title>
<g id="a_Node000040"><a xlink:href="ft__strchr_8c.html#aa6d0c2d180f32ee585485e1a1ce3d55d" target="_top" xlink:title="Locates the first occurrence of a character in a string.">
<polygon fill="white" stroke="#666666" points="1258,-635 1202,-635 1202,-616 1258,-616 1258,-635"/>
<text text-anchor="middle" x="1230" y="-623" font-family="Helvetica,sans-Serif" font-size="10.00">ft_strchr</text>
</a>
</g>
</g>
<!-- Node39&#45;&gt;Node40 -->
<g id="edge59_Node000039_Node000040" class="edge">
<title>Node39&#45;&gt;Node40</title>
<g id="a_edge59_Node000039_Node000040"><a xlink:title=" ">
<path fill="none" stroke="#63b8ff" d="M1115.19,-625.5C1137.46,-625.5 1167.9,-625.5 1191.69,-625.5"/>
<polygon fill="#63b8ff" stroke="#63b8ff" points="1191.77,-629 1201.77,-625.5 1191.77,-622 1191.77,-629"/>
</a>
</g>
</g>
</g>
</svg>
