<?xml version="1.0" encoding="UTF-8" standalone="no"?>
<!DOCTYPE svg PUBLIC "-//W3C//DTD SVG 1.1//EN"
 "http://www.w3.org/Graphics/SVG/1.1/DTD/svg11.dtd">
<!-- Generated by graphviz version 2.43.0 (0)
 -->
<!-- Title: ft_exe_heredoc Pages: 1 -->
<svg width="779pt" height="715pt"
 viewBox="0.00 0.00 779.00 715.00" xmlns="http://www.w3.org/2000/svg" xmlns:xlink="http://www.w3.org/1999/xlink">
<g id="graph0" class="graph" transform="scale(1 1) rotate(0) translate(4 711)">
<title>ft_exe_heredoc</title>
<!-- Node1 -->
<g id="Node000001" class="node">
<title>Node1</title>
<g id="a_Node000001"><a xlink:title="Executes a single read&#45;write cycle of the here&#45;document.">
<polygon fill="#999999" stroke="#666666" points="90,-340 0,-340 0,-321 90,-321 90,-340"/>
<text text-anchor="middle" x="45" y="-328" font-family="Helvetica,sans-Serif" font-size="10.00">ft_exe_heredoc</text>
</a>
</g>
</g>
<!-- Node2 -->
<g id="Node000002" class="node">
<title>Node2</title>
<g id="a_Node000002"><a xlink:href="redir__utils_8c.html#aff3d6a56d03d5df38cbb3e1f171eb191" target="_top" xlink:title="Expands environment variables in a line and writes the result to a file descriptor.">
<polygon fill="white" stroke="#666666" points="222,-519 136,-519 136,-500 222,-500 222,-519"/>
<text text-anchor="middle" x="179" y="-507" font-family="Helvetica,sans-Serif" font-size="10.00">ft_for_env_var</text>
</a>
</g>
</g>
<!-- Node1&#45;&gt;Node2 -->
<g id="edge1_Node000001_Node000002" class="edge">
<title>Node1&#45;&gt;Node2</title>
<g id="a_edge1_Node000001_Node000002"><a xlink:title=" ">
<path fill="none" stroke="#63b8ff" d="M48.58,-340.21C56.12,-366.85 80.49,-441.95 126,-485.5 130,-489.32 134.71,-492.62 139.64,-495.43"/>
<polygon fill="#63b8ff" stroke="#63b8ff" points="138.14,-498.6 148.65,-500 141.31,-492.35 138.14,-498.6"/>
</a>
</g>
</g>
<!-- Node6 -->
<g id="Node000006" class="node">
<title>Node6</title>
<g id="a_Node000006"><a xlink:href="ft__strlen_8c.html#a828402378653640f545a4be2e00e92f9" target="_top" xlink:title="Calculates the length of a null&#45;terminated string.">
<polygon fill="white" stroke="#666666" points="763.5,-593 707.5,-593 707.5,-574 763.5,-574 763.5,-593"/>
<text text-anchor="middle" x="735.5" y="-581" font-family="Helvetica,sans-Serif" font-size="10.00">ft_strlen</text>
</a>
</g>
</g>
<!-- Node1&#45;&gt;Node6 -->
<g id="edge42_Node000001_Node000006" class="edge">
<title>Node1&#45;&gt;Node6</title>
<g id="a_edge42_Node000001_Node000006"><a xlink:title=" ">
<path fill="none" stroke="#63b8ff" d="M47.81,-340.18C53.95,-370.79 76.39,-467.06 126,-528.5 191.13,-609.16 215.33,-659.5 319,-659.5 319,-659.5 319,-659.5 464,-659.5 554.74,-659.5 578.2,-648.03 664,-618.5 679.6,-613.13 696.16,-605.04 709.31,-598"/>
<polygon fill="#63b8ff" stroke="#63b8ff" points="711.14,-600.98 718.22,-593.1 707.77,-594.85 711.14,-600.98"/>
</a>
</g>
</g>
<!-- Node10 -->
<g id="Node000010" class="node">
<title>Node10</title>
<g id="a_Node000010"><a xlink:href="ft__strjoin_8c.html#a91e6e3e428bcc9f2291b700e1829b82b" target="_top" xlink:title="Concatenates two strings into a newly allocated string.">
<polygon fill="white" stroke="#666666" points="638.5,-443 579.5,-443 579.5,-424 638.5,-424 638.5,-443"/>
<text text-anchor="middle" x="609" y="-431" font-family="Helvetica,sans-Serif" font-size="10.00">ft_strjoin</text>
</a>
</g>
</g>
<!-- Node1&#45;&gt;Node10 -->
<g id="edge41_Node000001_Node000010" class="edge">
<title>Node1&#45;&gt;Node10</title>
<g id="a_edge41_Node000001_Node000010"><a xlink:title=" ">
<path fill="none" stroke="#63b8ff" d="M90.1,-338.58C196.94,-358.16 468.26,-407.89 569.3,-426.41"/>
<polygon fill="#63b8ff" stroke="#63b8ff" points="568.91,-429.89 579.38,-428.25 570.17,-423.01 568.91,-429.89"/>
</a>
</g>
</g>
<!-- Node13 -->
<g id="Node000013" class="node">
<title>Node13</title>
<g id="a_Node000013"><a xlink:href="ft__strdup_8c.html#aebe73f27c70c56ac5053f860ef5436c9" target="_top" xlink:title="Duplicates a null&#45;terminated string by allocating memory.">
<polygon fill="white" stroke="#666666" points="765,-367 706,-367 706,-348 765,-348 765,-367"/>
<text text-anchor="middle" x="735.5" y="-355" font-family="Helvetica,sans-Serif" font-size="10.00">ft_strdup</text>
</a>
</g>
</g>
<!-- Node1&#45;&gt;Node13 -->
<g id="edge40_Node000001_Node000013" class="edge">
<title>Node1&#45;&gt;Node13</title>
<g id="a_edge40_Node000001_Node000013"><a xlink:title=" ">
<path fill="none" stroke="#63b8ff" d="M90.34,-325.03C192.55,-313.59 452.2,-291.33 664,-330.5 678.24,-333.13 693.31,-338.52 705.86,-343.8"/>
<polygon fill="#63b8ff" stroke="#63b8ff" points="704.74,-347.13 715.31,-347.95 707.56,-340.72 704.74,-347.13"/>
</a>
</g>
</g>
<!-- Node17 -->
<g id="Node000017" class="node">
<title>Node17</title>
<g id="a_Node000017"><a xlink:href="handle__heredoc_8c.html#a9a25ed2a488d16a1f121e7803ec7fbf8" target="_top" xlink:title="Returns the value of the token used as the here&#45;document delimiter.">
<polygon fill="white" stroke="#666666" points="232,-302 126,-302 126,-283 232,-283 232,-302"/>
<text text-anchor="middle" x="179" y="-290" font-family="Helvetica,sans-Serif" font-size="10.00">ft_found_delimiter</text>
</a>
</g>
</g>
<!-- Node1&#45;&gt;Node17 -->
<g id="edge22_Node000001_Node000017" class="edge">
<title>Node1&#45;&gt;Node17</title>
<g id="a_edge22_Node000001_Node000017"><a xlink:title=" ">
<path fill="none" stroke="#63b8ff" d="M79.31,-320.91C96.19,-316.05 116.89,-310.09 134.97,-304.89"/>
<polygon fill="#63b8ff" stroke="#63b8ff" points="136.06,-308.22 144.7,-302.09 134.12,-301.49 136.06,-308.22"/>
</a>
</g>
</g>
<!-- Node18 -->
<g id="Node000018" class="node">
<title>Node18</title>
<g id="a_Node000018"><a xlink:href="utils__fd_8c.html#aae58663bcc5fdd74e961d307a7f7f51a" target="_top" xlink:title="Checks if there is at least one HEREDOC token in the token list.">
<polygon fill="white" stroke="#666666" points="229.5,-265 128.5,-265 128.5,-246 229.5,-246 229.5,-265"/>
<text text-anchor="middle" x="179" y="-253" font-family="Helvetica,sans-Serif" font-size="10.00">ft_found_heredoc</text>
</a>
</g>
</g>
<!-- Node1&#45;&gt;Node18 -->
<g id="edge23_Node000001_Node000018" class="edge">
<title>Node1&#45;&gt;Node18</title>
<g id="a_edge23_Node000001_Node000018"><a xlink:title=" ">
<path fill="none" stroke="#63b8ff" d="M57.57,-320.93C72.6,-308.87 99.99,-288.06 126,-274.5 129.94,-272.45 134.16,-270.51 138.42,-268.73"/>
<polygon fill="#63b8ff" stroke="#63b8ff" points="139.71,-271.98 147.73,-265.05 137.14,-265.47 139.71,-271.98"/>
</a>
</g>
</g>
<!-- Node19 -->
<g id="Node000019" class="node">
<title>Node19</title>
<g id="a_Node000019"><a xlink:href="ft__printf_8c.html#a091532b7f37af84bdecc84dccf4eedb1" target="_top" xlink:title="A simplified printf function that outputs formatted data to a given file descriptor.">
<polygon fill="white" stroke="#666666" points="206.5,-228 151.5,-228 151.5,-209 206.5,-209 206.5,-228"/>
<text text-anchor="middle" x="179" y="-216" font-family="Helvetica,sans-Serif" font-size="10.00">ft_printf</text>
</a>
</g>
</g>
<!-- Node1&#45;&gt;Node19 -->
<g id="edge24_Node000001_Node000019" class="edge">
<title>Node1&#45;&gt;Node19</title>
<g id="a_edge24_Node000001_Node000019"><a xlink:title=" ">
<path fill="none" stroke="#63b8ff" d="M51.83,-320.91C63.6,-302.3 92.02,-261.01 126,-237.5 130.86,-234.14 136.39,-231.29 141.98,-228.91"/>
<polygon fill="#63b8ff" stroke="#63b8ff" points="143.25,-232.17 151.34,-225.34 140.75,-225.63 143.25,-232.17"/>
</a>
</g>
</g>
<!-- Node29 -->
<g id="Node000029" class="node">
<title>Node29</title>
<g id="a_Node000029"><a xlink:href="ft__strcmp_8c.html#a1f2ff2312e5994560c9537cd9173be94" target="_top" xlink:title="Compares two null&#45;terminated strings lexicographically.">
<polygon fill="white" stroke="#666666" points="210,-191 148,-191 148,-172 210,-172 210,-191"/>
<text text-anchor="middle" x="179" y="-179" font-family="Helvetica,sans-Serif" font-size="10.00">ft_strcmp</text>
</a>
</g>
</g>
<!-- Node1&#45;&gt;Node29 -->
<g id="edge39_Node000001_Node000029" class="edge">
<title>Node1&#45;&gt;Node29</title>
<g id="a_edge39_Node000001_Node000029"><a xlink:title=" ">
<path fill="none" stroke="#63b8ff" d="M49.38,-320.82C58.19,-296.94 84.12,-234.69 126,-200.5 129.76,-197.43 134.05,-194.84 138.53,-192.64"/>
<polygon fill="#63b8ff" stroke="#63b8ff" points="140.02,-195.81 147.86,-188.69 137.29,-189.37 140.02,-195.81"/>
</a>
</g>
</g>
<!-- Node30 -->
<g id="Node000030" class="node">
<title>Node30</title>
<g id="a_Node000030"><a xlink:href="get__next__line_8c.html#a78d68a5f50a6eec0380ce25b4a1bd5b7" target="_top" xlink:title=" ">
<polygon fill="white" stroke="#666666" points="361.5,-481 278.5,-481 278.5,-462 361.5,-462 361.5,-481"/>
<text text-anchor="middle" x="320" y="-469" font-family="Helvetica,sans-Serif" font-size="10.00">get_next_line</text>
</a>
</g>
</g>
<!-- Node1&#45;&gt;Node30 -->
<g id="edge43_Node000001_Node000030" class="edge">
<title>Node1&#45;&gt;Node30</title>
<g id="a_edge43_Node000001_Node000030"><a xlink:title=" ">
<path fill="none" stroke="#63b8ff" d="M49.38,-340.13C58.03,-363.17 83.35,-421.5 126,-447.5 168.79,-473.58 226.84,-477.49 268.07,-476.17"/>
<polygon fill="#63b8ff" stroke="#63b8ff" points="268.33,-479.66 278.17,-475.73 268.03,-472.66 268.33,-479.66"/>
</a>
</g>
</g>
<!-- Node3 -->
<g id="Node000003" class="node">
<title>Node3</title>
<g id="a_Node000003"><a xlink:href="utils__env_8c.html#a78e10627f49df6e904925e22ae6ee15f" target="_top" xlink:title="Performs environment variable expansion in a string.">
<polygon fill="white" stroke="#666666" points="372,-519 268,-519 268,-500 372,-500 372,-519"/>
<text text-anchor="middle" x="320" y="-507" font-family="Helvetica,sans-Serif" font-size="10.00">ft_expand_envvar</text>
</a>
</g>
</g>
<!-- Node2&#45;&gt;Node3 -->
<g id="edge2_Node000002_Node000003" class="edge">
<title>Node2&#45;&gt;Node3</title>
<g id="a_edge2_Node000002_Node000003"><a xlink:title=" ">
<path fill="none" stroke="#63b8ff" d="M222.08,-509.5C233.38,-509.5 245.83,-509.5 257.94,-509.5"/>
<polygon fill="#63b8ff" stroke="#63b8ff" points="257.99,-513 267.99,-509.5 257.99,-506 257.99,-513"/>
</a>
</g>
</g>
<!-- Node2&#45;&gt;Node6 -->
<g id="edge21_Node000002_Node000006" class="edge">
<title>Node2&#45;&gt;Node6</title>
<g id="a_edge21_Node000002_Node000006"><a xlink:title=" ">
<path fill="none" stroke="#63b8ff" d="M208.18,-519.02C269.92,-539.33 422.17,-586.36 554,-602.5 602.53,-608.44 615.53,-608.92 664,-602.5 675.05,-601.04 686.82,-598.34 697.52,-595.43"/>
<polygon fill="#63b8ff" stroke="#63b8ff" points="698.74,-598.72 707.39,-592.6 696.81,-591.99 698.74,-598.72"/>
</a>
</g>
</g>
<!-- Node4 -->
<g id="Node000004" class="node">
<title>Node4</title>
<g id="a_Node000004"><a xlink:href="utils__env_8c.html#a4ea711c91d64ff7669bf6ac7e6b6b9dd" target="_top" xlink:title="Expands an environment variable found in a string.">
<polygon fill="white" stroke="#666666" points="495.5,-556 430.5,-556 430.5,-537 495.5,-537 495.5,-556"/>
<text text-anchor="middle" x="463" y="-544" font-family="Helvetica,sans-Serif" font-size="10.00">ft_expand</text>
</a>
</g>
</g>
<!-- Node3&#45;&gt;Node4 -->
<g id="edge3_Node000003_Node000004" class="edge">
<title>Node3&#45;&gt;Node4</title>
<g id="a_edge3_Node000003_Node000004"><a xlink:title=" ">
<path fill="none" stroke="#63b8ff" d="M357.31,-519.03C376.58,-524.08 400.34,-530.32 420.35,-535.57"/>
<polygon fill="#63b8ff" stroke="#63b8ff" points="419.57,-538.98 430.13,-538.14 421.35,-532.21 419.57,-538.98"/>
</a>
</g>
</g>
<!-- Node3&#45;&gt;Node13 -->
<g id="edge20_Node000003_Node000013" class="edge">
<title>Node3&#45;&gt;Node13</title>
<g id="a_edge20_Node000003_Node000013"><a xlink:title=" ">
<path fill="none" stroke="#63b8ff" d="M353.34,-499.92C359.77,-497.34 366.3,-494.22 372,-490.5 391.22,-477.97 388.35,-465.35 408,-453.5 420.64,-445.88 612.57,-391.64 696.12,-368.22"/>
<polygon fill="#63b8ff" stroke="#63b8ff" points="697.07,-371.59 705.76,-365.52 695.18,-364.85 697.07,-371.59"/>
</a>
</g>
</g>
<!-- Node16 -->
<g id="Node000016" class="node">
<title>Node16</title>
<g id="a_Node000016"><a xlink:href="utils__env_8c.html#a3323d2c2586349772b23a3eaf1a241c3" target="_top" xlink:title="Concatenates a literal part (non&#45;variable) of the string to the result.">
<polygon fill="white" stroke="#666666" points="502,-481 424,-481 424,-462 502,-462 502,-481"/>
<text text-anchor="middle" x="463" y="-469" font-family="Helvetica,sans-Serif" font-size="10.00">ft_merge_str</text>
</a>
</g>
</g>
<!-- Node3&#45;&gt;Node16 -->
<g id="edge17_Node000003_Node000016" class="edge">
<title>Node3&#45;&gt;Node16</title>
<g id="a_edge17_Node000003_Node000016"><a xlink:title=" ">
<path fill="none" stroke="#63b8ff" d="M356.58,-499.91C374.78,-495.01 397.14,-488.98 416.57,-483.74"/>
<polygon fill="#63b8ff" stroke="#63b8ff" points="417.69,-487.07 426.43,-481.09 415.86,-480.31 417.69,-487.07"/>
</a>
</g>
</g>
<!-- Node5 -->
<g id="Node000005" class="node">
<title>Node5</title>
<g id="a_Node000005"><a xlink:href="utils__env__pt2_8c.html#afac58c53fe53bc538ba19b53efec42e4" target="_top" xlink:title="Finds the value of an environment variable given its name key.">
<polygon fill="white" stroke="#666666" points="659,-707 559,-707 559,-688 659,-688 659,-707"/>
<text text-anchor="middle" x="609" y="-695" font-family="Helvetica,sans-Serif" font-size="10.00">ft_get_env_value</text>
</a>
</g>
</g>
<!-- Node4&#45;&gt;Node5 -->
<g id="edge4_Node000004_Node000005" class="edge">
<title>Node4&#45;&gt;Node5</title>
<g id="a_edge4_Node000004_Node000005"><a xlink:title=" ">
<path fill="none" stroke="#63b8ff" d="M473.45,-556.41C497.56,-581.69 561.59,-648.84 591.8,-680.51"/>
<polygon fill="#63b8ff" stroke="#63b8ff" points="589.27,-682.93 598.7,-687.75 594.34,-678.1 589.27,-682.93"/>
</a>
</g>
</g>
<!-- Node8 -->
<g id="Node000008" class="node">
<title>Node8</title>
<g id="a_Node000008"><a xlink:href="ft__isalnum_8c.html#a9c2c3821ea43ebdf97de07b123503f8b" target="_top" xlink:title="Checks whether a character is alphanumeric.">
<polygon fill="white" stroke="#666666" points="643,-593 575,-593 575,-574 643,-574 643,-593"/>
<text text-anchor="middle" x="609" y="-581" font-family="Helvetica,sans-Serif" font-size="10.00">ft_isalnum</text>
</a>
</g>
</g>
<!-- Node4&#45;&gt;Node8 -->
<g id="edge7_Node000004_Node000008" class="edge">
<title>Node4&#45;&gt;Node8</title>
<g id="a_edge7_Node000004_Node000008"><a xlink:title=" ">
<path fill="none" stroke="#63b8ff" d="M495.6,-554.62C515.99,-559.86 542.77,-566.74 565.08,-572.47"/>
<polygon fill="#63b8ff" stroke="#63b8ff" points="564.42,-575.91 574.97,-575.01 566.16,-569.14 564.42,-575.91"/>
</a>
</g>
</g>
<!-- Node9 -->
<g id="Node000009" class="node">
<title>Node9</title>
<g id="a_Node000009"><a xlink:href="ft__isdigit_8c.html#a2cf15b8a1a277d1e2ce3654101a2003d" target="_top" xlink:title="Checks whether a character is a decimal digit.">
<polygon fill="white" stroke="#666666" points="638.5,-556 579.5,-556 579.5,-537 638.5,-537 638.5,-556"/>
<text text-anchor="middle" x="609" y="-544" font-family="Helvetica,sans-Serif" font-size="10.00">ft_isdigit</text>
</a>
</g>
</g>
<!-- Node4&#45;&gt;Node9 -->
<g id="edge8_Node000004_Node000009" class="edge">
<title>Node4&#45;&gt;Node9</title>
<g id="a_edge8_Node000004_Node000009"><a xlink:title=" ">
<path fill="none" stroke="#63b8ff" d="M495.6,-546.5C517.28,-546.5 546.19,-546.5 569.26,-546.5"/>
<polygon fill="#63b8ff" stroke="#63b8ff" points="569.4,-550 579.4,-546.5 569.4,-543 569.4,-550"/>
</a>
</g>
</g>
<!-- Node4&#45;&gt;Node10 -->
<g id="edge9_Node000004_Node000010" class="edge">
<title>Node4&#45;&gt;Node10</title>
<g id="a_edge9_Node000004_Node000010"><a xlink:title=" ">
<path fill="none" stroke="#63b8ff" d="M495.67,-539.94C503.64,-537.13 511.71,-533.14 518,-527.5 545.53,-502.82 526.47,-477.18 554,-452.5 558.55,-448.42 564.03,-445.2 569.73,-442.67"/>
<polygon fill="#63b8ff" stroke="#63b8ff" points="571.29,-445.83 579.41,-439.03 568.82,-439.28 571.29,-445.83"/>
</a>
</g>
</g>
<!-- Node12 -->
<g id="Node000012" class="node">
<title>Node12</title>
<g id="a_Node000012"><a xlink:href="ft__substr_8c.html#a78c402cbf3d55b1374693c3b7d34f71d" target="_top" xlink:title="Extracts a substring from a given string.">
<polygon fill="white" stroke="#666666" points="638.5,-480 579.5,-480 579.5,-461 638.5,-461 638.5,-480"/>
<text text-anchor="middle" x="609" y="-468" font-family="Helvetica,sans-Serif" font-size="10.00">ft_substr</text>
</a>
</g>
</g>
<!-- Node4&#45;&gt;Node12 -->
<g id="edge12_Node000004_Node000012" class="edge">
<title>Node4&#45;&gt;Node12</title>
<g id="a_edge12_Node000004_Node000012"><a xlink:title=" ">
<path fill="none" stroke="#63b8ff" d="M495.05,-536.93C502.69,-534.2 510.76,-531.01 518,-527.5 542.52,-515.61 568.62,-498.53 586.37,-486.17"/>
<polygon fill="#63b8ff" stroke="#63b8ff" points="588.68,-488.82 594.83,-480.19 584.65,-483.1 588.68,-488.82"/>
</a>
</g>
</g>
<!-- Node5&#45;&gt;Node6 -->
<g id="edge5_Node000005_Node000006" class="edge">
<title>Node5&#45;&gt;Node6</title>
<g id="a_edge5_Node000005_Node000006"><a xlink:title=" ">
<path fill="none" stroke="#63b8ff" d="M638.37,-687.96C647.09,-684.24 656.39,-679.43 664,-673.5 689.83,-653.36 711.65,-621.8 723.9,-601.9"/>
<polygon fill="#63b8ff" stroke="#63b8ff" points="726.99,-603.55 729.12,-593.17 720.98,-599.95 726.99,-603.55"/>
</a>
</g>
</g>
<!-- Node7 -->
<g id="Node000007" class="node">
<title>Node7</title>
<g id="a_Node000007"><a xlink:href="ft__strncmp_8c.html#a9d2fe792187aa4ed08e5864fb2c4d6dc" target="_top" xlink:title="Compares up to n characters of two strings.">
<polygon fill="white" stroke="#666666" points="769.5,-707 701.5,-707 701.5,-688 769.5,-688 769.5,-707"/>
<text text-anchor="middle" x="735.5" y="-695" font-family="Helvetica,sans-Serif" font-size="10.00">ft_strncmp</text>
</a>
</g>
</g>
<!-- Node5&#45;&gt;Node7 -->
<g id="edge6_Node000005_Node000007" class="edge">
<title>Node5&#45;&gt;Node7</title>
<g id="a_edge6_Node000005_Node000007"><a xlink:title=" ">
<path fill="none" stroke="#63b8ff" d="M659.21,-697.5C669.81,-697.5 680.94,-697.5 691.29,-697.5"/>
<polygon fill="#63b8ff" stroke="#63b8ff" points="691.34,-701 701.34,-697.5 691.34,-694 691.34,-701"/>
</a>
</g>
</g>
<!-- Node10&#45;&gt;Node6 -->
<g id="edge11_Node000010_Node000006" class="edge">
<title>Node10&#45;&gt;Node6</title>
<g id="a_edge11_Node000010_Node000006"><a xlink:title=" ">
<path fill="none" stroke="#63b8ff" d="M638.57,-439.05C647.5,-441.89 656.88,-446.15 664,-452.5 691.3,-476.84 682.51,-494.38 700,-526.5 707.19,-539.7 715.97,-554.19 722.87,-565.25"/>
<polygon fill="#63b8ff" stroke="#63b8ff" points="720.07,-567.38 728.37,-573.97 726,-563.65 720.07,-567.38"/>
</a>
</g>
</g>
<!-- Node11 -->
<g id="Node000011" class="node">
<title>Node11</title>
<g id="a_Node000011"><a xlink:href="ft__memcpy_8c.html#a41a6f05af30cf85ff63a08e383826322" target="_top" xlink:title="Copies &#39;n&#39; bytes from memory area &#39;src&#39; to memory area &#39;dest&#39;.">
<polygon fill="white" stroke="#666666" points="771,-443 700,-443 700,-424 771,-424 771,-443"/>
<text text-anchor="middle" x="735.5" y="-431" font-family="Helvetica,sans-Serif" font-size="10.00">ft_memcpy</text>
</a>
</g>
</g>
<!-- Node10&#45;&gt;Node11 -->
<g id="edge10_Node000010_Node000011" class="edge">
<title>Node10&#45;&gt;Node11</title>
<g id="a_edge10_Node000010_Node000011"><a xlink:title=" ">
<path fill="none" stroke="#63b8ff" d="M638.56,-433.5C653.66,-433.5 672.55,-433.5 689.56,-433.5"/>
<polygon fill="#63b8ff" stroke="#63b8ff" points="689.86,-437 699.86,-433.5 689.86,-430 689.86,-437"/>
</a>
</g>
</g>
<!-- Node12&#45;&gt;Node6 -->
<g id="edge15_Node000012_Node000006" class="edge">
<title>Node12&#45;&gt;Node6</title>
<g id="a_edge15_Node000012_Node000006"><a xlink:title=" ">
<path fill="none" stroke="#63b8ff" d="M638.35,-480.07C647.07,-483.79 656.38,-488.59 664,-494.5 689.7,-514.43 711.56,-545.64 723.85,-565.31"/>
<polygon fill="#63b8ff" stroke="#63b8ff" points="720.91,-567.21 729.09,-573.94 726.89,-563.58 720.91,-567.21"/>
</a>
</g>
</g>
<!-- Node12&#45;&gt;Node13 -->
<g id="edge13_Node000012_Node000013" class="edge">
<title>Node12&#45;&gt;Node13</title>
<g id="a_edge13_Node000012_Node000013"><a xlink:title=" ">
<path fill="none" stroke="#63b8ff" d="M638.75,-464.46C647.4,-461.74 656.56,-457.89 664,-452.5 678.76,-441.81 706.93,-400.3 722.83,-375.83"/>
<polygon fill="#63b8ff" stroke="#63b8ff" points="725.98,-377.4 728.45,-367.09 720.09,-373.61 725.98,-377.4"/>
</a>
</g>
</g>
<!-- Node14 -->
<g id="Node000014" class="node">
<title>Node14</title>
<g id="a_Node000014"><a xlink:href="ft__strlcpy_8c.html#aa053827b3a2ea3d0118783d6fb59d178" target="_top" xlink:title="Copies up to size &#45; 1 characters from the string src to dst, null&#45;terminating the result.">
<polygon fill="white" stroke="#666666" points="766.5,-517 704.5,-517 704.5,-498 766.5,-498 766.5,-517"/>
<text text-anchor="middle" x="735.5" y="-505" font-family="Helvetica,sans-Serif" font-size="10.00">ft_strlcpy</text>
</a>
</g>
</g>
<!-- Node12&#45;&gt;Node14 -->
<g id="edge14_Node000012_Node000014" class="edge">
<title>Node12&#45;&gt;Node14</title>
<g id="a_edge14_Node000012_Node000014"><a xlink:title=" ">
<path fill="none" stroke="#63b8ff" d="M638.56,-478.99C655.16,-483.92 676.33,-490.21 694.56,-495.63"/>
<polygon fill="#63b8ff" stroke="#63b8ff" points="693.75,-499.04 704.33,-498.53 695.74,-492.33 693.75,-499.04"/>
</a>
</g>
</g>
<!-- Node15 -->
<g id="Node000015" class="node">
<title>Node15</title>
<g id="a_Node000015"><a xlink:href="ft__strlcat_8c.html#a3ab017dd491d7327d1b4acbf1398b91e" target="_top" xlink:title="Returns the length of a null&#45;terminated string.">
<polygon fill="white" stroke="#666666" points="751.5,-480 719.5,-480 719.5,-461 751.5,-461 751.5,-480"/>
<text text-anchor="middle" x="735.5" y="-468" font-family="Helvetica,sans-Serif" font-size="10.00">len</text>
</a>
</g>
</g>
<!-- Node12&#45;&gt;Node15 -->
<g id="edge16_Node000012_Node000015" class="edge">
<title>Node12&#45;&gt;Node15</title>
<g id="a_edge16_Node000012_Node000015"><a xlink:title=" ">
<path fill="none" stroke="#63b8ff" d="M638.56,-470.5C659.86,-470.5 688.69,-470.5 709.17,-470.5"/>
<polygon fill="#63b8ff" stroke="#63b8ff" points="709.31,-474 719.31,-470.5 709.31,-467 709.31,-474"/>
</a>
</g>
</g>
<!-- Node16&#45;&gt;Node10 -->
<g id="edge18_Node000016_Node000010" class="edge">
<title>Node16&#45;&gt;Node10</title>
<g id="a_edge18_Node000016_Node000010"><a xlink:title=" ">
<path fill="none" stroke="#63b8ff" d="M500.34,-461.91C521.48,-456.33 548.12,-449.3 569.61,-443.63"/>
<polygon fill="#63b8ff" stroke="#63b8ff" points="570.61,-446.99 579.39,-441.05 568.83,-440.22 570.61,-446.99"/>
</a>
</g>
</g>
<!-- Node16&#45;&gt;Node12 -->
<g id="edge19_Node000016_Node000012" class="edge">
<title>Node16&#45;&gt;Node12</title>
<g id="a_edge19_Node000016_Node000012"><a xlink:title=" ">
<path fill="none" stroke="#63b8ff" d="M502.21,-471.23C522.88,-471.09 548.36,-470.91 569.13,-470.77"/>
<polygon fill="#63b8ff" stroke="#63b8ff" points="569.23,-474.27 579.21,-470.7 569.19,-467.27 569.23,-474.27"/>
</a>
</g>
</g>
<!-- Node20 -->
<g id="Node000020" class="node">
<title>Node20</title>
<g id="a_Node000020"><a xlink:href="ft__printf_8c.html#a80c1c206dcd33d07c265581878aaa300" target="_top" xlink:title="Processes a single format specifier and prints the corresponding argument.">
<polygon fill="white" stroke="#666666" points="361.5,-148 278.5,-148 278.5,-129 361.5,-129 361.5,-148"/>
<text text-anchor="middle" x="320" y="-136" font-family="Helvetica,sans-Serif" font-size="10.00">check_format</text>
</a>
</g>
</g>
<!-- Node19&#45;&gt;Node20 -->
<g id="edge25_Node000019_Node000020" class="edge">
<title>Node19&#45;&gt;Node20</title>
<g id="a_edge25_Node000019_Node000020"><a xlink:title=" ">
<path fill="none" stroke="#63b8ff" d="M206.53,-210.94C214.89,-208.14 224.02,-204.62 232,-200.5 256.99,-187.61 282.88,-168.25 299.85,-154.6"/>
<polygon fill="#63b8ff" stroke="#63b8ff" points="302.34,-157.09 307.86,-148.04 297.91,-151.67 302.34,-157.09"/>
</a>
</g>
</g>
<!-- Node24 -->
<g id="Node000024" class="node">
<title>Node24</title>
<g id="a_Node000024"><a xlink:href="ft__putchar__fd_8c.html#a03ef80b25dc4a521379fa92ad97bad21" target="_top" xlink:title="Writes a single character to the specified file descriptor.">
<polygon fill="white" stroke="#666666" points="503,-240 423,-240 423,-221 503,-221 503,-240"/>
<text text-anchor="middle" x="463" y="-228" font-family="Helvetica,sans-Serif" font-size="10.00">ft_putchar_fd</text>
</a>
</g>
</g>
<!-- Node19&#45;&gt;Node24 -->
<g id="edge38_Node000019_Node000024" class="edge">
<title>Node19&#45;&gt;Node24</title>
<g id="a_edge38_Node000019_Node000024"><a xlink:title=" ">
<path fill="none" stroke="#63b8ff" d="M206.53,-219.63C253.71,-221.64 352.86,-225.86 412.82,-228.41"/>
<polygon fill="#63b8ff" stroke="#63b8ff" points="412.67,-231.9 422.81,-228.83 412.97,-224.91 412.67,-231.9"/>
</a>
</g>
</g>
<!-- Node21 -->
<g id="Node000021" class="node">
<title>Node21</title>
<g id="a_Node000021"><a xlink:href="ft__forpointer_8c.html#a8e02c77b80406af72327ebf71f537786" target="_top" xlink:title="Prints a pointer in hexadecimal format prefixed with &quot;0x&quot;.">
<polygon fill="white" stroke="#666666" points="501.5,-203 424.5,-203 424.5,-184 501.5,-184 501.5,-203"/>
<text text-anchor="middle" x="463" y="-191" font-family="Helvetica,sans-Serif" font-size="10.00">ft_forpointer</text>
</a>
</g>
</g>
<!-- Node20&#45;&gt;Node21 -->
<g id="edge26_Node000020_Node000021" class="edge">
<title>Node20&#45;&gt;Node21</title>
<g id="a_edge26_Node000020_Node000021"><a xlink:title=" ">
<path fill="none" stroke="#63b8ff" d="M342.26,-148.11C359.75,-155.88 385.28,-166.9 408,-175.5 412.55,-177.22 417.36,-178.95 422.14,-180.62"/>
<polygon fill="#63b8ff" stroke="#63b8ff" points="421.26,-184.02 431.86,-183.93 423.52,-177.39 421.26,-184.02"/>
</a>
</g>
</g>
<!-- Node23 -->
<g id="Node000023" class="node">
<title>Node23</title>
<g id="a_Node000023"><a xlink:href="ft__hexadecimal_8c.html#a39c845e0a4286d3ac1e04c1e64ac734b" target="_top" xlink:title="Prints an unsigned integer in hexadecimal format.">
<polygon fill="white" stroke="#666666" points="509,-148 417,-148 417,-129 509,-129 509,-148"/>
<text text-anchor="middle" x="463" y="-136" font-family="Helvetica,sans-Serif" font-size="10.00">ft_hexadecimal</text>
</a>
</g>
</g>
<!-- Node20&#45;&gt;Node23 -->
<g id="edge29_Node000020_Node000023" class="edge">
<title>Node20&#45;&gt;Node23</title>
<g id="a_edge29_Node000020_Node000023"><a xlink:title=" ">
<path fill="none" stroke="#63b8ff" d="M361.78,-138.5C375.79,-138.5 391.72,-138.5 406.69,-138.5"/>
<polygon fill="#63b8ff" stroke="#63b8ff" points="406.86,-142 416.86,-138.5 406.86,-135 406.86,-142"/>
</a>
</g>
</g>
<!-- Node20&#45;&gt;Node24 -->
<g id="edge31_Node000020_Node000024" class="edge">
<title>Node20&#45;&gt;Node24</title>
<g id="a_edge31_Node000020_Node000024"><a xlink:title=" ">
<path fill="none" stroke="#63b8ff" d="M329.75,-148.01C344.5,-163.53 375.87,-194.39 408,-212.5 411.02,-214.2 414.22,-215.77 417.51,-217.22"/>
<polygon fill="#63b8ff" stroke="#63b8ff" points="416.29,-220.51 426.88,-220.97 418.89,-214.01 416.29,-220.51"/>
</a>
</g>
</g>
<!-- Node25 -->
<g id="Node000025" class="node">
<title>Node25</title>
<g id="a_Node000025"><a xlink:href="ft__putnbr__fd_8c.html#a1554101ee350c316340c78e19faddaa8" target="_top" xlink:title="Writes an integer to a given file descriptor.">
<polygon fill="white" stroke="#666666" points="500.5,-93 425.5,-93 425.5,-74 500.5,-74 500.5,-93"/>
<text text-anchor="middle" x="463" y="-81" font-family="Helvetica,sans-Serif" font-size="10.00">ft_putnbr_fd</text>
</a>
</g>
</g>
<!-- Node20&#45;&gt;Node25 -->
<g id="edge32_Node000020_Node000025" class="edge">
<title>Node20&#45;&gt;Node25</title>
<g id="a_edge32_Node000020_Node000025"><a xlink:title=" ">
<path fill="none" stroke="#63b8ff" d="M345.56,-128.92C368.27,-120.06 402.24,-106.81 427.63,-96.91"/>
<polygon fill="#63b8ff" stroke="#63b8ff" points="429.2,-100.05 437.25,-93.16 426.66,-93.53 429.2,-100.05"/>
</a>
</g>
</g>
<!-- Node26 -->
<g id="Node000026" class="node">
<title>Node26</title>
<g id="a_Node000026"><a xlink:href="ft__putstr__fd_8c.html#a00b0638f31a75c7a30f77f33888bfb73" target="_top" xlink:title="Writes a null&#45;terminated string to the specified file descriptor.">
<polygon fill="white" stroke="#666666" points="499,-56 427,-56 427,-37 499,-37 499,-56"/>
<text text-anchor="middle" x="463" y="-44" font-family="Helvetica,sans-Serif" font-size="10.00">ft_putstr_fd</text>
</a>
</g>
</g>
<!-- Node20&#45;&gt;Node26 -->
<g id="edge34_Node000020_Node000026" class="edge">
<title>Node20&#45;&gt;Node26</title>
<g id="a_edge34_Node000020_Node000026"><a xlink:title=" ">
<path fill="none" stroke="#63b8ff" d="M330.3,-128.69C345.33,-113.32 376.48,-83.47 408,-65.5 411.64,-63.42 415.55,-61.51 419.54,-59.78"/>
<polygon fill="#63b8ff" stroke="#63b8ff" points="420.92,-62.99 428.9,-56.03 418.31,-56.5 420.92,-62.99"/>
</a>
</g>
</g>
<!-- Node27 -->
<g id="Node000027" class="node">
<title>Node27</title>
<g id="a_Node000027"><a xlink:href="ft__unsigned__putnbr_8c.html#af9a70f8607b40cf2a7706f9d3725b549" target="_top" xlink:title="Writes an unsigned integer to the given file descriptor.">
<polygon fill="white" stroke="#666666" points="518,-19 408,-19 408,0 518,0 518,-19"/>
<text text-anchor="middle" x="463" y="-7" font-family="Helvetica,sans-Serif" font-size="10.00">ft_unsigned_putnbr</text>
</a>
</g>
</g>
<!-- Node20&#45;&gt;Node27 -->
<g id="edge35_Node000020_Node000027" class="edge">
<title>Node20&#45;&gt;Node27</title>
<g id="a_edge35_Node000020_Node000027"><a xlink:title=" ">
<path fill="none" stroke="#63b8ff" d="M325.92,-128.94C337.39,-107.59 367.97,-55.71 408,-27.5 410.09,-26.03 412.3,-24.67 414.59,-23.42"/>
<polygon fill="#63b8ff" stroke="#63b8ff" points="416.2,-26.54 423.75,-19.11 413.21,-20.21 416.2,-26.54"/>
</a>
</g>
</g>
<!-- Node22 -->
<g id="Node000022" class="node">
<title>Node22</title>
<g id="a_Node000022"><a xlink:href="ft__forpointer_8c.html#aded1bf735c8a10e47396170d27c5b6aa" target="_top" xlink:title="Recursively prints a memory address in hexadecimal format.">
<polygon fill="white" stroke="#666666" points="664,-203 554,-203 554,-184 664,-184 664,-203"/>
<text text-anchor="middle" x="609" y="-191" font-family="Helvetica,sans-Serif" font-size="10.00">ft_ricorsive_pointer</text>
</a>
</g>
</g>
<!-- Node21&#45;&gt;Node22 -->
<g id="edge27_Node000021_Node000022" class="edge">
<title>Node21&#45;&gt;Node22</title>
<g id="a_edge27_Node000021_Node000022"><a xlink:title=" ">
<path fill="none" stroke="#63b8ff" d="M501.83,-193.5C514.64,-193.5 529.33,-193.5 543.61,-193.5"/>
<polygon fill="#63b8ff" stroke="#63b8ff" points="543.9,-197 553.9,-193.5 543.9,-190 543.9,-197"/>
</a>
</g>
</g>
<!-- Node22&#45;&gt;Node22 -->
<g id="edge28_Node000022_Node000022" class="edge">
<title>Node22&#45;&gt;Node22</title>
<g id="a_edge28_Node000022_Node000022"><a xlink:title=" ">
<path fill="none" stroke="#63b8ff" d="M589.58,-203.08C580.13,-211.73 586.61,-221 609,-221 623,-221 630.77,-217.38 632.33,-212.55"/>
<polygon fill="#63b8ff" stroke="#63b8ff" points="635.47,-210.99 628.42,-203.08 629,-213.66 635.47,-210.99"/>
</a>
</g>
</g>
<!-- Node23&#45;&gt;Node23 -->
<g id="edge30_Node000023_Node000023" class="edge">
<title>Node23&#45;&gt;Node23</title>
<g id="a_edge30_Node000023_Node000023"><a xlink:title=" ">
<path fill="none" stroke="#63b8ff" d="M441.11,-148.08C430.47,-156.73 437.76,-166 463,-166 479.17,-166 487.97,-162.2 489.41,-157.19"/>
<polygon fill="#63b8ff" stroke="#63b8ff" points="492.47,-155.48 484.89,-148.08 486.2,-158.6 492.47,-155.48"/>
</a>
</g>
</g>
<!-- Node25&#45;&gt;Node25 -->
<g id="edge33_Node000025_Node000025" class="edge">
<title>Node25&#45;&gt;Node25</title>
<g id="a_edge33_Node000025_Node000025"><a xlink:title=" ">
<path fill="none" stroke="#63b8ff" d="M441.11,-93.08C430.47,-101.73 437.76,-111 463,-111 479.17,-111 487.97,-107.2 489.41,-102.19"/>
<polygon fill="#63b8ff" stroke="#63b8ff" points="492.47,-100.48 484.89,-93.08 486.2,-103.6 492.47,-100.48"/>
</a>
</g>
</g>
<!-- Node28 -->
<g id="Node000028" class="node">
<title>Node28</title>
<g id="a_Node000028"><a xlink:href="ft__putnbr_8c.html#a2e51f80c9e46e52f4adf94617fb51ada" target="_top" xlink:title="Writes an integer to the standard output (stdout).">
<polygon fill="white" stroke="#666666" points="639,-19 579,-19 579,0 639,0 639,-19"/>
<text text-anchor="middle" x="609" y="-7" font-family="Helvetica,sans-Serif" font-size="10.00">ft_putnbr</text>
</a>
</g>
</g>
<!-- Node27&#45;&gt;Node28 -->
<g id="edge36_Node000027_Node000028" class="edge">
<title>Node27&#45;&gt;Node28</title>
<g id="a_edge36_Node000027_Node000028"><a xlink:title=" ">
<path fill="none" stroke="#63b8ff" d="M518.03,-9.5C534.76,-9.5 552.87,-9.5 568.43,-9.5"/>
<polygon fill="#63b8ff" stroke="#63b8ff" points="568.74,-13 578.74,-9.5 568.74,-6 568.74,-13"/>
</a>
</g>
</g>
<!-- Node28&#45;&gt;Node28 -->
<g id="edge37_Node000028_Node000028" class="edge">
<title>Node28&#45;&gt;Node28</title>
<g id="a_edge37_Node000028_Node000028"><a xlink:title=" ">
<path fill="none" stroke="#63b8ff" d="M589.58,-19.08C580.13,-27.73 586.61,-37 609,-37 623,-37 630.77,-33.38 632.33,-28.55"/>
<polygon fill="#63b8ff" stroke="#63b8ff" points="635.47,-26.99 628.42,-19.08 629,-29.66 635.47,-26.99"/>
</a>
</g>
</g>
<!-- Node31 -->
<g id="Node000031" class="node">
<title>Node31</title>
<g id="a_Node000031"><a xlink:href="get__next__line_8c.html#a253f107325777771467d4b92d8ad0def" target="_top" xlink:title=" ">
<polygon fill="white" stroke="#666666" points="494.5,-518 431.5,-518 431.5,-499 494.5,-499 494.5,-518"/>
<text text-anchor="middle" x="463" y="-506" font-family="Helvetica,sans-Serif" font-size="10.00">ft_getrest</text>
</a>
</g>
</g>
<!-- Node30&#45;&gt;Node31 -->
<g id="edge44_Node000030_Node000031" class="edge">
<title>Node30&#45;&gt;Node31</title>
<g id="a_edge44_Node000030_Node000031"><a xlink:title=" ">
<path fill="none" stroke="#63b8ff" d="M357.31,-481.03C376.86,-486.16 401.03,-492.5 421.22,-497.8"/>
<polygon fill="#63b8ff" stroke="#63b8ff" points="420.51,-501.23 431.07,-500.38 422.28,-494.46 420.51,-501.23"/>
</a>
</g>
</g>
<!-- Node32 -->
<g id="Node000032" class="node">
<title>Node32</title>
<g id="a_Node000032"><a xlink:href="get__next__line_8c.html#aad5cee417ca3f1d807d5b1d1c76c6987" target="_top" xlink:title=" ">
<polygon fill="white" stroke="#666666" points="494,-367 432,-367 432,-348 494,-348 494,-367"/>
<text text-anchor="middle" x="463" y="-355" font-family="Helvetica,sans-Serif" font-size="10.00">ft_putline</text>
</a>
</g>
</g>
<!-- Node30&#45;&gt;Node32 -->
<g id="edge47_Node000030_Node000032" class="edge">
<title>Node30&#45;&gt;Node32</title>
<g id="a_edge47_Node000030_Node000032"><a xlink:title=" ">
<path fill="none" stroke="#63b8ff" d="M328.18,-461.92C341.97,-444.08 373.81,-405.41 408,-381.5 413.41,-377.72 419.51,-374.32 425.61,-371.36"/>
<polygon fill="#63b8ff" stroke="#63b8ff" points="427.43,-374.37 435.1,-367.06 424.54,-368 427.43,-374.37"/>
</a>
</g>
</g>
<!-- Node31&#45;&gt;Node6 -->
<g id="edge45_Node000031_Node000006" class="edge">
<title>Node31&#45;&gt;Node6</title>
<g id="a_edge45_Node000031_Node000006"><a xlink:title=" ">
<path fill="none" stroke="#63b8ff" d="M494.72,-506.4C535.08,-504.79 607.48,-505.85 664,-528.5 685,-536.92 704.94,-553.58 718.22,-566.37"/>
<polygon fill="#63b8ff" stroke="#63b8ff" points="716.03,-569.13 725.58,-573.72 720.98,-564.18 716.03,-569.13"/>
</a>
</g>
</g>
<!-- Node31&#45;&gt;Node12 -->
<g id="edge46_Node000031_Node000012" class="edge">
<title>Node31&#45;&gt;Node12</title>
<g id="a_edge46_Node000031_Node000012"><a xlink:title=" ">
<path fill="none" stroke="#63b8ff" d="M494.54,-500.44C516.4,-494.67 546,-486.86 569.48,-480.66"/>
<polygon fill="#63b8ff" stroke="#63b8ff" points="570.69,-483.97 579.46,-478.03 568.9,-477.2 570.69,-483.97"/>
</a>
</g>
</g>
<!-- Node32&#45;&gt;Node10 -->
<g id="edge50_Node000032_Node000010" class="edge">
<title>Node32&#45;&gt;Node10</title>
<g id="a_edge50_Node000032_Node000010"><a xlink:title=" ">
<path fill="none" stroke="#63b8ff" d="M482.24,-367.13C507.12,-380.26 551.92,-403.9 580.78,-419.14"/>
<polygon fill="#63b8ff" stroke="#63b8ff" points="579.43,-422.38 589.91,-423.95 582.7,-416.19 579.43,-422.38"/>
</a>
</g>
</g>
<!-- Node32&#45;&gt;Node13 -->
<g id="edge49_Node000032_Node000013" class="edge">
<title>Node32&#45;&gt;Node13</title>
<g id="a_edge49_Node000032_Node000013"><a xlink:title=" ">
<path fill="none" stroke="#63b8ff" d="M494.19,-349.91C511.55,-345.94 533.86,-341.49 554,-339.5 602.65,-334.68 615.49,-333.41 664,-339.5 674.53,-340.82 685.74,-343.22 696.05,-345.83"/>
<polygon fill="#63b8ff" stroke="#63b8ff" points="695.44,-349.29 706,-348.5 697.24,-342.53 695.44,-349.29"/>
</a>
</g>
</g>
<!-- Node33 -->
<g id="Node000033" class="node">
<title>Node33</title>
<g id="a_Node000033"><a xlink:href="ft__strchr_8c.html#aa6d0c2d180f32ee585485e1a1ce3d55d" target="_top" xlink:title="Locates the first occurrence of a character in a string.">
<polygon fill="white" stroke="#666666" points="637,-367 581,-367 581,-348 637,-348 637,-367"/>
<text text-anchor="middle" x="609" y="-355" font-family="Helvetica,sans-Serif" font-size="10.00">ft_strchr</text>
</a>
</g>
</g>
<!-- Node32&#45;&gt;Node33 -->
<g id="edge48_Node000032_Node000033" class="edge">
<title>Node32&#45;&gt;Node33</title>
<g id="a_edge48_Node000032_Node000033"><a xlink:title=" ">
<path fill="none" stroke="#63b8ff" d="M494.19,-357.5C516.46,-357.5 546.9,-357.5 570.69,-357.5"/>
<polygon fill="#63b8ff" stroke="#63b8ff" points="570.77,-361 580.77,-357.5 570.77,-354 570.77,-361"/>
</a>
</g>
</g>
</g>
</svg>
