<?xml version="1.0" encoding="UTF-8" standalone="no"?>
<!DOCTYPE svg PUBLIC "-//W3C//DTD SVG 1.1//EN"
 "http://www.w3.org/Graphics/SVG/1.1/DTD/svg11.dtd">
<!-- Generated by graphviz version 2.43.0 (0)
 -->
<!-- Title: ft_get_file_name Pages: 1 -->
<svg width="350pt" height="46pt"
 viewBox="0.00 0.00 350.00 46.00" xmlns="http://www.w3.org/2000/svg" xmlns:xlink="http://www.w3.org/1999/xlink">
<g id="graph0" class="graph" transform="scale(1 1) rotate(0) translate(4 42)">
<title>ft_get_file_name</title>
<!-- Node1 -->
<g id="Node000001" class="node">
<title>Node1</title>
<g id="a_Node000001"><a xlink:title="Gets the filename from a token based on redirection type and assigns it to the command.">
<polygon fill="#999999" stroke="#666666" points="98,-19 0,-19 0,0 98,0 98,-19"/>
<text text-anchor="middle" x="49" y="-7" font-family="Helvetica,sans-Serif" font-size="10.00">ft_get_file_name</text>
</a>
</g>
</g>
<!-- Node2 -->
<g id="Node000002" class="node">
<title>Node2</title>
<g id="a_Node000002"><a xlink:href="redir__utils_8c.html#ad4b61aab1ceefdbef3527f934f78618d" target="_top" xlink:title="Assigns the output file name and append flag based on redirection type.">
<polygon fill="white" stroke="#666666" points="247,-38 134,-38 134,-19 247,-19 247,-38"/>
<text text-anchor="middle" x="190.5" y="-26" font-family="Helvetica,sans-Serif" font-size="10.00">ft_get_outfile_name</text>
</a>
</g>
</g>
<!-- Node1&#45;&gt;Node2 -->
<g id="edge1_Node000001_Node000002" class="edge">
<title>Node1&#45;&gt;Node2</title>
<g id="a_edge1_Node000001_Node000002"><a xlink:title=" ">
<path fill="none" stroke="#63b8ff" d="M98.01,-16.04C106.28,-17.17 115,-18.35 123.65,-19.53"/>
<polygon fill="#63b8ff" stroke="#63b8ff" points="123.34,-23.02 133.72,-20.9 124.29,-16.09 123.34,-23.02"/>
</a>
</g>
</g>
<!-- Node3 -->
<g id="Node000003" class="node">
<title>Node3</title>
<g id="a_Node000003"><a xlink:href="ft__strdup_8c.html#aebe73f27c70c56ac5053f860ef5436c9" target="_top" xlink:title="Duplicates a null&#45;terminated string by allocating memory.">
<polygon fill="white" stroke="#666666" points="342,-19 283,-19 283,0 342,0 342,-19"/>
<text text-anchor="middle" x="312.5" y="-7" font-family="Helvetica,sans-Serif" font-size="10.00">ft_strdup</text>
</a>
</g>
</g>
<!-- Node1&#45;&gt;Node3 -->
<g id="edge3_Node000001_Node000003" class="edge">
<title>Node1&#45;&gt;Node3</title>
<g id="a_edge3_Node000001_Node000003"><a xlink:title=" ">
<path fill="none" stroke="#63b8ff" d="M98.27,-9.5C148.51,-9.5 226.23,-9.5 272.66,-9.5"/>
<polygon fill="#63b8ff" stroke="#63b8ff" points="272.91,-13 282.91,-9.5 272.91,-6 272.91,-13"/>
</a>
</g>
</g>
<!-- Node2&#45;&gt;Node3 -->
<g id="edge2_Node000002_Node000003" class="edge">
<title>Node2&#45;&gt;Node3</title>
<g id="a_edge2_Node000002_Node000003"><a xlink:title=" ">
<path fill="none" stroke="#63b8ff" d="M247.28,-19.67C255.98,-18.29 264.79,-16.9 272.98,-15.6"/>
<polygon fill="#63b8ff" stroke="#63b8ff" points="273.65,-19.04 282.98,-14.02 272.56,-12.12 273.65,-19.04"/>
</a>
</g>
</g>
</g>
</svg>
