<?xml version="1.0" encoding="UTF-8" standalone="no"?>
<!DOCTYPE svg PUBLIC "-//W3C//DTD SVG 1.1//EN"
 "http://www.w3.org/Graphics/SVG/1.1/DTD/svg11.dtd">
<!-- Generated by graphviz version 2.43.0 (0)
 -->
<!-- Title: redirections/redirections.h Pages: 1 -->
<svg width="1425pt" height="269pt"
 viewBox="0.00 0.00 1425.00 269.00" xmlns="http://www.w3.org/2000/svg" xmlns:xlink="http://www.w3.org/1999/xlink">
<g id="graph0" class="graph" transform="scale(1 1) rotate(0) translate(4 265)">
<title>redirections/redirections.h</title>
<!-- Node1 -->
<g id="Node000001" class="node">
<title>Node1</title>
<g id="a_Node000001"><a xlink:title=" ">
<polygon fill="#999999" stroke="#666666" points="1043,-261 899,-261 899,-242 1043,-242 1043,-261"/>
<text text-anchor="middle" x="971" y="-249" font-family="Helvetica,sans-Serif" font-size="10.00">redirections/redirections.h</text>
</a>
</g>
</g>
<!-- Node2 -->
<g id="Node000002" class="node">
<title>Node2</title>
<g id="a_Node000002"><a xlink:href="builtin_8h.html" target="_top" xlink:title=" ">
<polygon fill="white" stroke="#666666" points="474,-200.5 384,-200.5 384,-181.5 474,-181.5 474,-200.5"/>
<text text-anchor="middle" x="429" y="-188.5" font-family="Helvetica,sans-Serif" font-size="10.00">builtin/builtin.h</text>
</a>
</g>
</g>
<!-- Node1&#45;&gt;Node2 -->
<g id="edge1_Node000001_Node000002" class="edge">
<title>Node1&#45;&gt;Node2</title>
<g id="a_edge1_Node000001_Node000002"><a xlink:title=" ">
<path fill="none" stroke="#63b8ff" d="M888.51,-241.6C772.59,-229.08 565.48,-206.73 474.26,-196.88"/>
<polygon fill="#63b8ff" stroke="#63b8ff" points="888.43,-245.11 898.75,-242.7 889.18,-238.15 888.43,-245.11"/>
</a>
</g>
</g>
<!-- Node10 -->
<g id="Node000010" class="node">
<title>Node10</title>
<g id="a_Node000010"><a xlink:href="minishell_8h.html" target="_top" xlink:title=" ">
<polygon fill="white" stroke="#666666" points="809,-74 711,-74 711,-55 809,-55 809,-74"/>
<text text-anchor="middle" x="760" y="-62" font-family="Helvetica,sans-Serif" font-size="10.00">main/minishell.h</text>
</a>
</g>
</g>
<!-- Node1&#45;&gt;Node10 -->
<g id="edge21_Node000001_Node000010" class="edge">
<title>Node1&#45;&gt;Node10</title>
<g id="a_edge21_Node000001_Node000010"><a xlink:title=" ">
<path fill="none" stroke="#63b8ff" d="M889.22,-240.4C845.17,-233.24 796.86,-222.03 782,-206 746.92,-168.15 754.46,-98.46 758.41,-74.14"/>
<polygon fill="#63b8ff" stroke="#63b8ff" points="888.71,-243.86 899.13,-241.95 889.79,-236.95 888.71,-243.86"/>
</a>
</g>
</g>
<!-- Node14 -->
<g id="Node000014" class="node">
<title>Node14</title>
<g id="a_Node000014"><a xlink:href="pipes_8h.html" target="_top" xlink:title=" ">
<polygon fill="white" stroke="#666666" points="907.5,-134.5 826.5,-134.5 826.5,-115.5 907.5,-115.5 907.5,-134.5"/>
<text text-anchor="middle" x="867" y="-122.5" font-family="Helvetica,sans-Serif" font-size="10.00">pipes/pipes.h</text>
</a>
</g>
</g>
<!-- Node1&#45;&gt;Node14 -->
<g id="edge22_Node000001_Node000014" class="edge">
<title>Node1&#45;&gt;Node14</title>
<g id="a_edge22_Node000001_Node000014"><a xlink:title=" ">
<path fill="none" stroke="#63b8ff" d="M969.84,-231.41C967.99,-215.23 963.23,-192.15 951,-176 935.94,-156.11 910.48,-142.58 891.53,-134.66"/>
<polygon fill="#63b8ff" stroke="#63b8ff" points="966.38,-232.11 970.73,-241.77 973.36,-231.51 966.38,-232.11"/>
</a>
</g>
</g>
<!-- Node17 -->
<g id="Node000017" class="node">
<title>Node17</title>
<g id="a_Node000017"><a xlink:href="command_8h.html" target="_top" xlink:title=" ">
<polygon fill="white" stroke="#666666" points="1161,-200.5 1015,-200.5 1015,-181.5 1161,-181.5 1161,-200.5"/>
<text text-anchor="middle" x="1088" y="-188.5" font-family="Helvetica,sans-Serif" font-size="10.00">command_list/command.h</text>
</a>
</g>
</g>
<!-- Node1&#45;&gt;Node17 -->
<g id="edge17_Node000001_Node000017" class="edge">
<title>Node1&#45;&gt;Node17</title>
<g id="a_edge17_Node000001_Node000017"><a xlink:title=" ">
<path fill="none" stroke="#63b8ff" d="M997.04,-237.48C1019.58,-226.21 1051.55,-210.23 1070.97,-200.52"/>
<polygon fill="#63b8ff" stroke="#63b8ff" points="995.39,-234.39 988.01,-241.99 998.52,-240.65 995.39,-234.39"/>
</a>
</g>
</g>
<!-- Node20 -->
<g id="Node000020" class="node">
<title>Node20</title>
<g id="a_Node000020"><a xlink:href="handle__heredoc_8c.html" target="_top" xlink:title=" ">
<polygon fill="white" stroke="#666666" points="1289,-206 1179,-206 1179,-176 1289,-176 1289,-206"/>
<text text-anchor="start" x="1187" y="-194" font-family="Helvetica,sans-Serif" font-size="10.00">redirections/handle</text>
<text text-anchor="middle" x="1234" y="-183" font-family="Helvetica,sans-Serif" font-size="10.00">_heredoc.c</text>
</a>
</g>
</g>
<!-- Node1&#45;&gt;Node20 -->
<g id="edge23_Node000001_Node000020" class="edge">
<title>Node1&#45;&gt;Node20</title>
<g id="a_edge23_Node000001_Node000020"><a xlink:title=" ">
<path fill="none" stroke="#63b8ff" d="M1019.07,-239.81C1064.14,-229.78 1131.48,-214.8 1178.74,-204.29"/>
<polygon fill="#63b8ff" stroke="#63b8ff" points="1018.24,-236.41 1009.24,-241.99 1019.76,-243.24 1018.24,-236.41"/>
</a>
</g>
</g>
<!-- Node21 -->
<g id="Node000021" class="node">
<title>Node21</title>
<g id="a_Node000021"><a xlink:href="handle__redirections_8c.html" target="_top" xlink:title=" ">
<polygon fill="white" stroke="#666666" points="1417,-206 1307,-206 1307,-176 1417,-176 1417,-206"/>
<text text-anchor="start" x="1315" y="-194" font-family="Helvetica,sans-Serif" font-size="10.00">redirections/handle</text>
<text text-anchor="middle" x="1362" y="-183" font-family="Helvetica,sans-Serif" font-size="10.00">_redirections.c</text>
</a>
</g>
</g>
<!-- Node1&#45;&gt;Node21 -->
<g id="edge24_Node000001_Node000021" class="edge">
<title>Node1&#45;&gt;Node21</title>
<g id="a_edge24_Node000001_Node000021"><a xlink:title=" ">
<path fill="none" stroke="#63b8ff" d="M1053,-241.19C1119.31,-233.21 1214.96,-220.71 1298,-206 1300.91,-205.48 1303.89,-204.93 1306.9,-204.35"/>
<polygon fill="#63b8ff" stroke="#63b8ff" points="1052.54,-237.72 1043.02,-242.38 1053.37,-244.67 1052.54,-237.72"/>
</a>
</g>
</g>
<!-- Node22 -->
<g id="Node000022" class="node">
<title>Node22</title>
<g id="a_Node000022"><a xlink:href="system__commands_8h.html" target="_top" xlink:title=" ">
<polygon fill="white" stroke="#666666" points="942.5,-206 791.5,-206 791.5,-176 942.5,-176 942.5,-206"/>
<text text-anchor="start" x="799.5" y="-194" font-family="Helvetica,sans-Serif" font-size="10.00">system_commands/system</text>
<text text-anchor="middle" x="867" y="-183" font-family="Helvetica,sans-Serif" font-size="10.00">_commands.h</text>
</a>
</g>
</g>
<!-- Node1&#45;&gt;Node22 -->
<g id="edge25_Node000001_Node000022" class="edge">
<title>Node1&#45;&gt;Node22</title>
<g id="a_edge25_Node000001_Node000022"><a xlink:title=" ">
<path fill="none" stroke="#63b8ff" d="M946.67,-236.81C930.26,-227.58 908.66,-215.43 892.09,-206.11"/>
<polygon fill="#63b8ff" stroke="#63b8ff" points="945.22,-240.02 955.65,-241.87 948.65,-233.91 945.22,-240.02"/>
</a>
</g>
</g>
<!-- Node3 -->
<g id="Node000003" class="node">
<title>Node3</title>
<g id="a_Node000003"><a xlink:href="env_8c.html" target="_top" xlink:title=" ">
<polygon fill="white" stroke="#666666" points="218,-134.5 142,-134.5 142,-115.5 218,-115.5 218,-134.5"/>
<text text-anchor="middle" x="180" y="-122.5" font-family="Helvetica,sans-Serif" font-size="10.00">builtin/env.c</text>
</a>
</g>
</g>
<!-- Node2&#45;&gt;Node3 -->
<g id="edge2_Node000002_Node000003" class="edge">
<title>Node2&#45;&gt;Node3</title>
<g id="a_edge2_Node000002_Node000003"><a xlink:title=" ">
<path fill="none" stroke="#63b8ff" d="M382.39,-179.12C341.35,-169.38 280.02,-154.45 227,-140 220.76,-138.3 214.08,-136.37 207.77,-134.51"/>
<polygon fill="#63b8ff" stroke="#63b8ff" points="381.84,-182.58 392.37,-181.48 383.45,-175.77 381.84,-182.58"/>
</a>
</g>
</g>
<!-- Node4 -->
<g id="Node000004" class="node">
<title>Node4</title>
<g id="a_Node000004"><a xlink:href="exit_8c.html" target="_top" xlink:title=" ">
<polygon fill="white" stroke="#666666" points="313.5,-134.5 236.5,-134.5 236.5,-115.5 313.5,-115.5 313.5,-134.5"/>
<text text-anchor="middle" x="275" y="-122.5" font-family="Helvetica,sans-Serif" font-size="10.00">builtin/exit.c</text>
</a>
</g>
</g>
<!-- Node2&#45;&gt;Node4 -->
<g id="edge3_Node000002_Node000004" class="edge">
<title>Node2&#45;&gt;Node4</title>
<g id="a_edge3_Node000002_Node000004"><a xlink:title=" ">
<path fill="none" stroke="#63b8ff" d="M398.98,-177.52C368.63,-164.91 322.53,-145.75 295.93,-134.7"/>
<polygon fill="#63b8ff" stroke="#63b8ff" points="397.65,-180.76 408.23,-181.37 400.34,-174.3 397.65,-180.76"/>
</a>
</g>
</g>
<!-- Node5 -->
<g id="Node000005" class="node">
<title>Node5</title>
<g id="a_Node000005"><a xlink:href="export_8c.html" target="_top" xlink:title=" ">
<polygon fill="white" stroke="#666666" points="422,-134.5 332,-134.5 332,-115.5 422,-115.5 422,-134.5"/>
<text text-anchor="middle" x="377" y="-122.5" font-family="Helvetica,sans-Serif" font-size="10.00">builtin/export.c</text>
</a>
</g>
</g>
<!-- Node2&#45;&gt;Node5 -->
<g id="edge4_Node000002_Node000005" class="edge">
<title>Node2&#45;&gt;Node5</title>
<g id="a_edge4_Node000002_Node000005"><a xlink:title=" ">
<path fill="none" stroke="#63b8ff" d="M415.4,-173.27C405.43,-160.99 392.27,-144.8 384.24,-134.91"/>
<polygon fill="#63b8ff" stroke="#63b8ff" points="412.96,-175.81 421.99,-181.37 418.4,-171.4 412.96,-175.81"/>
</a>
</g>
</g>
<!-- Node6 -->
<g id="Node000006" class="node">
<title>Node6</title>
<g id="a_Node000006"><a xlink:href="ft__cd_8c.html" target="_top" xlink:title=" ">
<polygon fill="white" stroke="#666666" points="522,-134.5 440,-134.5 440,-115.5 522,-115.5 522,-134.5"/>
<text text-anchor="middle" x="481" y="-122.5" font-family="Helvetica,sans-Serif" font-size="10.00">builtin/ft_cd.c</text>
</a>
</g>
</g>
<!-- Node2&#45;&gt;Node6 -->
<g id="edge5_Node000002_Node000006" class="edge">
<title>Node2&#45;&gt;Node6</title>
<g id="a_edge5_Node000002_Node000006"><a xlink:title=" ">
<path fill="none" stroke="#63b8ff" d="M442.6,-173.27C452.57,-160.99 465.73,-144.8 473.76,-134.91"/>
<polygon fill="#63b8ff" stroke="#63b8ff" points="439.6,-171.4 436.01,-181.37 445.04,-175.81 439.6,-171.4"/>
</a>
</g>
</g>
<!-- Node7 -->
<g id="Node000007" class="node">
<title>Node7</title>
<g id="a_Node000007"><a xlink:href="ft__echo_8c.html" target="_top" xlink:title=" ">
<polygon fill="white" stroke="#666666" points="634,-134.5 540,-134.5 540,-115.5 634,-115.5 634,-134.5"/>
<text text-anchor="middle" x="587" y="-122.5" font-family="Helvetica,sans-Serif" font-size="10.00">builtin/ft_echo.c</text>
</a>
</g>
</g>
<!-- Node2&#45;&gt;Node7 -->
<g id="edge6_Node000002_Node000007" class="edge">
<title>Node2&#45;&gt;Node7</title>
<g id="a_edge6_Node000002_Node000007"><a xlink:title=" ">
<path fill="none" stroke="#63b8ff" d="M459.83,-177.51C491.06,-164.86 538.53,-145.63 565.78,-134.6"/>
<polygon fill="#63b8ff" stroke="#63b8ff" points="458.26,-174.37 450.31,-181.37 460.89,-180.86 458.26,-174.37"/>
</a>
</g>
</g>
<!-- Node8 -->
<g id="Node000008" class="node">
<title>Node8</title>
<g id="a_Node000008"><a xlink:href="pwd_8c.html" target="_top" xlink:title=" ">
<polygon fill="white" stroke="#666666" points="731.5,-134.5 652.5,-134.5 652.5,-115.5 731.5,-115.5 731.5,-134.5"/>
<text text-anchor="middle" x="692" y="-122.5" font-family="Helvetica,sans-Serif" font-size="10.00">builtin/pwd.c</text>
</a>
</g>
</g>
<!-- Node2&#45;&gt;Node8 -->
<g id="edge7_Node000002_Node000008" class="edge">
<title>Node2&#45;&gt;Node8</title>
<g id="a_edge7_Node000002_Node000008"><a xlink:title=" ">
<path fill="none" stroke="#63b8ff" d="M478.22,-179.22C521.7,-169.52 586.76,-154.6 643,-140 649.51,-138.31 656.47,-136.39 663.04,-134.53"/>
<polygon fill="#63b8ff" stroke="#63b8ff" points="477.19,-175.86 468.19,-181.45 478.71,-182.69 477.19,-175.86"/>
</a>
</g>
</g>
<!-- Node9 -->
<g id="Node000009" class="node">
<title>Node9</title>
<g id="a_Node000009"><a xlink:href="unset_8c.html" target="_top" xlink:title=" ">
<polygon fill="white" stroke="#666666" points="86,-134.5 0,-134.5 0,-115.5 86,-115.5 86,-134.5"/>
<text text-anchor="middle" x="43" y="-122.5" font-family="Helvetica,sans-Serif" font-size="10.00">builtin/unset.c</text>
</a>
</g>
</g>
<!-- Node2&#45;&gt;Node9 -->
<g id="edge8_Node000002_Node000009" class="edge">
<title>Node2&#45;&gt;Node9</title>
<g id="a_edge8_Node000002_Node000009"><a xlink:title=" ">
<path fill="none" stroke="#63b8ff" d="M373.7,-183.14C308.11,-174.65 195.62,-158.97 100,-140 92,-138.41 83.44,-136.45 75.44,-134.5"/>
<polygon fill="#63b8ff" stroke="#63b8ff" points="373.44,-186.64 383.81,-184.44 374.34,-179.7 373.44,-186.64"/>
</a>
</g>
</g>
<!-- Node2&#45;&gt;Node10 -->
<g id="edge9_Node000002_Node000010" class="edge">
<title>Node2&#45;&gt;Node10</title>
<g id="a_edge9_Node000002_Node000010"><a xlink:title=" ">
<path fill="none" stroke="#63b8ff" d="M373.82,-188.85C296.84,-185.95 163.23,-175.76 133,-140 124.39,-129.82 123.91,-119.76 133,-110 172.1,-68.03 569.9,-64.98 710.83,-65.23"/>
<polygon fill="#63b8ff" stroke="#63b8ff" points="373.72,-192.35 383.84,-189.2 373.96,-185.36 373.72,-192.35"/>
</a>
</g>
</g>
<!-- Node2&#45;&gt;Node14 -->
<g id="edge13_Node000002_Node000014" class="edge">
<title>Node2&#45;&gt;Node14</title>
<g id="a_edge13_Node000002_Node000014"><a xlink:title=" ">
<path fill="none" stroke="#63b8ff" d="M484.15,-181.94C573.34,-168.91 747.2,-143.51 826.19,-131.96"/>
<polygon fill="#63b8ff" stroke="#63b8ff" points="483.61,-178.48 474.22,-183.39 484.62,-185.41 483.61,-178.48"/>
</a>
</g>
</g>
<!-- Node11 -->
<g id="Node000011" class="node">
<title>Node11</title>
<g id="a_Node000011"><a xlink:href="cmd__execution_8c.html" target="_top" xlink:title=" ">
<polygon fill="white" stroke="#666666" points="703,-19 577,-19 577,0 703,0 703,-19"/>
<text text-anchor="middle" x="640" y="-7" font-family="Helvetica,sans-Serif" font-size="10.00">main/cmd_execution.c</text>
</a>
</g>
</g>
<!-- Node10&#45;&gt;Node11 -->
<g id="edge10_Node000010_Node000011" class="edge">
<title>Node10&#45;&gt;Node11</title>
<g id="a_edge10_Node000010_Node000011"><a xlink:title=" ">
<path fill="none" stroke="#63b8ff" d="M731.47,-50.9C709.3,-41.11 679.15,-27.79 659.63,-19.17"/>
<polygon fill="#63b8ff" stroke="#63b8ff" points="730.16,-54.15 740.72,-54.98 732.99,-47.74 730.16,-54.15"/>
</a>
</g>
</g>
<!-- Node12 -->
<g id="Node000012" class="node">
<title>Node12</title>
<g id="a_Node000012"><a xlink:href="main_8c.html" target="_top" xlink:title=" ">
<polygon fill="white" stroke="#666666" points="798.5,-19 721.5,-19 721.5,0 798.5,0 798.5,-19"/>
<text text-anchor="middle" x="760" y="-7" font-family="Helvetica,sans-Serif" font-size="10.00">main/main.c</text>
</a>
</g>
</g>
<!-- Node10&#45;&gt;Node12 -->
<g id="edge11_Node000010_Node000012" class="edge">
<title>Node10&#45;&gt;Node12</title>
<g id="a_edge11_Node000010_Node000012"><a xlink:title=" ">
<path fill="none" stroke="#63b8ff" d="M760,-44.66C760,-35.93 760,-25.99 760,-19.09"/>
<polygon fill="#63b8ff" stroke="#63b8ff" points="756.5,-44.75 760,-54.75 763.5,-44.75 756.5,-44.75"/>
</a>
</g>
</g>
<!-- Node13 -->
<g id="Node000013" class="node">
<title>Node13</title>
<g id="a_Node000013"><a xlink:href="main__utils_8c.html" target="_top" xlink:title=" ">
<polygon fill="white" stroke="#666666" points="921,-19 817,-19 817,0 921,0 921,-19"/>
<text text-anchor="middle" x="869" y="-7" font-family="Helvetica,sans-Serif" font-size="10.00">main/main_utils.c</text>
</a>
</g>
</g>
<!-- Node10&#45;&gt;Node13 -->
<g id="edge12_Node000010_Node000013" class="edge">
<title>Node10&#45;&gt;Node13</title>
<g id="a_edge12_Node000010_Node000013"><a xlink:title=" ">
<path fill="none" stroke="#63b8ff" d="M786.73,-50.5C806.79,-40.75 833.68,-27.68 851.17,-19.17"/>
<polygon fill="#63b8ff" stroke="#63b8ff" points="784.98,-47.46 777.51,-54.98 788.04,-53.76 784.98,-47.46"/>
</a>
</g>
</g>
<!-- Node14&#45;&gt;Node10 -->
<g id="edge14_Node000014_Node000010" class="edge">
<title>Node14&#45;&gt;Node10</title>
<g id="a_edge14_Node000014_Node000010"><a xlink:title=" ">
<path fill="none" stroke="#63b8ff" d="M842.17,-110.42C821.72,-99.24 793.34,-83.73 775.85,-74.17"/>
<polygon fill="#63b8ff" stroke="#63b8ff" points="840.76,-113.64 851.21,-115.37 844.12,-107.5 840.76,-113.64"/>
</a>
</g>
</g>
<!-- Node15 -->
<g id="Node000015" class="node">
<title>Node15</title>
<g id="a_Node000015"><a xlink:href="create__pipe__list_8c.html" target="_top" xlink:title=" ">
<polygon fill="white" stroke="#666666" points="958.5,-74 827.5,-74 827.5,-55 958.5,-55 958.5,-74"/>
<text text-anchor="middle" x="893" y="-62" font-family="Helvetica,sans-Serif" font-size="10.00">pipes/create_pipe_list.c</text>
</a>
</g>
</g>
<!-- Node14&#45;&gt;Node15 -->
<g id="edge15_Node000014_Node000015" class="edge">
<title>Node14&#45;&gt;Node15</title>
<g id="a_edge15_Node000014_Node000015"><a xlink:title=" ">
<path fill="none" stroke="#63b8ff" d="M874.93,-106.15C879.65,-95.54 885.42,-82.56 889.15,-74.17"/>
<polygon fill="#63b8ff" stroke="#63b8ff" points="871.7,-104.81 870.84,-115.37 878.1,-107.65 871.7,-104.81"/>
</a>
</g>
</g>
<!-- Node16 -->
<g id="Node000016" class="node">
<title>Node16</title>
<g id="a_Node000016"><a xlink:href="pipes_8c.html" target="_top" xlink:title=" ">
<polygon fill="white" stroke="#666666" points="1057,-74 977,-74 977,-55 1057,-55 1057,-74"/>
<text text-anchor="middle" x="1017" y="-62" font-family="Helvetica,sans-Serif" font-size="10.00">pipes/pipes.c</text>
</a>
</g>
</g>
<!-- Node14&#45;&gt;Node16 -->
<g id="edge16_Node000014_Node000016" class="edge">
<title>Node14&#45;&gt;Node16</title>
<g id="a_edge16_Node000014_Node000016"><a xlink:title=" ">
<path fill="none" stroke="#63b8ff" d="M898.46,-111.73C927.45,-100.42 969.71,-83.94 995.16,-74.02"/>
<polygon fill="#63b8ff" stroke="#63b8ff" points="896.86,-108.6 888.81,-115.49 899.4,-115.12 896.86,-108.6"/>
</a>
</g>
</g>
<!-- Node17&#45;&gt;Node10 -->
<g id="edge20_Node000017_Node000010" class="edge">
<title>Node17&#45;&gt;Node10</title>
<g id="a_edge20_Node000017_Node000010"><a xlink:title=" ">
<path fill="none" stroke="#63b8ff" d="M1093.43,-171.29C1097.41,-153.26 1099.85,-126.36 1085,-110 1044.76,-65.67 877.29,-82.34 818,-74 815.08,-73.59 812.07,-73.16 809.04,-72.73"/>
<polygon fill="#63b8ff" stroke="#63b8ff" points="1089.98,-170.65 1090.89,-181.2 1096.77,-172.39 1089.98,-170.65"/>
</a>
</g>
</g>
<!-- Node18 -->
<g id="Node000018" class="node">
<title>Node18</title>
<g id="a_Node000018"><a xlink:href="create__command__list_8c.html" target="_top" xlink:title=" ">
<polygon fill="white" stroke="#666666" points="1252.5,-140 1133.5,-140 1133.5,-110 1252.5,-110 1252.5,-140"/>
<text text-anchor="start" x="1141.5" y="-128" font-family="Helvetica,sans-Serif" font-size="10.00">command_list/create</text>
<text text-anchor="middle" x="1193" y="-117" font-family="Helvetica,sans-Serif" font-size="10.00">_command_list.c</text>
</a>
</g>
</g>
<!-- Node17&#45;&gt;Node18 -->
<g id="edge18_Node000017_Node000018" class="edge">
<title>Node17&#45;&gt;Node18</title>
<g id="a_edge18_Node000017_Node000018"><a xlink:title=" ">
<path fill="none" stroke="#63b8ff" d="M1111.11,-175.91C1128.56,-165.28 1152.39,-150.75 1169.84,-140.12"/>
<polygon fill="#63b8ff" stroke="#63b8ff" points="1108.88,-173.18 1102.16,-181.37 1112.52,-179.15 1108.88,-173.18"/>
</a>
</g>
</g>
<!-- Node19 -->
<g id="Node000019" class="node">
<title>Node19</title>
<g id="a_Node000019"><a xlink:href="utils__cmd__list_8c.html" target="_top" xlink:title=" ">
<polygon fill="white" stroke="#666666" points="1381,-140 1271,-140 1271,-110 1381,-110 1381,-140"/>
<text text-anchor="start" x="1279" y="-128" font-family="Helvetica,sans-Serif" font-size="10.00">command_list/utils</text>
<text text-anchor="middle" x="1326" y="-117" font-family="Helvetica,sans-Serif" font-size="10.00">_cmd_list.c</text>
</a>
</g>
</g>
<!-- Node17&#45;&gt;Node19 -->
<g id="edge19_Node000017_Node000019" class="edge">
<title>Node17&#45;&gt;Node19</title>
<g id="a_edge19_Node000017_Node000019"><a xlink:title=" ">
<path fill="none" stroke="#63b8ff" d="M1129.8,-178.76C1169.81,-168 1230.28,-151.74 1273.51,-140.12"/>
<polygon fill="#63b8ff" stroke="#63b8ff" points="1128.85,-175.39 1120.1,-181.37 1130.66,-182.15 1128.85,-175.39"/>
</a>
</g>
</g>
<!-- Node22&#45;&gt;Node10 -->
<g id="edge26_Node000022_Node000010" class="edge">
<title>Node22&#45;&gt;Node10</title>
<g id="a_edge26_Node000022_Node000010"><a xlink:title=" ">
<path fill="none" stroke="#63b8ff" d="M844.24,-168.5C835.46,-159.89 825.51,-149.71 817,-140 797.04,-117.21 776,-88.21 765.98,-74.05"/>
<polygon fill="#63b8ff" stroke="#63b8ff" points="841.97,-171.17 851.59,-175.62 846.85,-166.15 841.97,-171.17"/>
</a>
</g>
</g>
<!-- Node22&#45;&gt;Node14 -->
<g id="edge27_Node000022_Node000014" class="edge">
<title>Node22&#45;&gt;Node14</title>
<g id="a_edge27_Node000022_Node000014"><a xlink:title=" ">
<path fill="none" stroke="#63b8ff" d="M867,-165.6C867,-154.8 867,-142.78 867,-134.84"/>
<polygon fill="#63b8ff" stroke="#63b8ff" points="863.5,-165.8 867,-175.8 870.5,-165.8 863.5,-165.8"/>
</a>
</g>
</g>
<!-- Node23 -->
<g id="Node000023" class="node">
<title>Node23</title>
<g id="a_Node000023"><a xlink:href="system__commands_8c.html" target="_top" xlink:title=" ">
<polygon fill="white" stroke="#666666" points="1076.5,-140 925.5,-140 925.5,-110 1076.5,-110 1076.5,-140"/>
<text text-anchor="start" x="933.5" y="-128" font-family="Helvetica,sans-Serif" font-size="10.00">system_commands/system</text>
<text text-anchor="middle" x="1001" y="-117" font-family="Helvetica,sans-Serif" font-size="10.00">_commands.c</text>
</a>
</g>
</g>
<!-- Node22&#45;&gt;Node23 -->
<g id="edge28_Node000022_Node000023" class="edge">
<title>Node22&#45;&gt;Node23</title>
<g id="a_edge28_Node000022_Node000023"><a xlink:title=" ">
<path fill="none" stroke="#63b8ff" d="M905.71,-171.51C926.73,-161.47 952.3,-149.26 971.66,-140.01"/>
<polygon fill="#63b8ff" stroke="#63b8ff" points="903.92,-168.49 896.41,-175.95 906.94,-174.8 903.92,-168.49"/>
</a>
</g>
</g>
</g>
</svg>
