<?xml version="1.0" encoding="UTF-8" standalone="no"?>
<!DOCTYPE svg PUBLIC "-//W3C//DTD SVG 1.1//EN"
 "http://www.w3.org/Graphics/SVG/1.1/DTD/svg11.dtd">
<!-- Generated by graphviz version 2.43.0 (0)
 -->
<!-- Title: ft_get_outfile_name Pages: 1 -->
<svg width="821pt" height="64pt"
 viewBox="0.00 0.00 821.00 64.00" xmlns="http://www.w3.org/2000/svg" xmlns:xlink="http://www.w3.org/1999/xlink">
<g id="graph0" class="graph" transform="scale(1 1) rotate(0) translate(4 60)">
<title>ft_get_outfile_name</title>
<!-- Node1 -->
<g id="Node000001" class="node">
<title>Node1</title>
<g id="a_Node000001"><a xlink:title="Assigns the output file name and append flag based on redirection type.">
<polygon fill="#999999" stroke="#666666" points="813,-37 700,-37 700,-18 813,-18 813,-37"/>
<text text-anchor="middle" x="756.5" y="-25" font-family="Helvetica,sans-Serif" font-size="10.00">ft_get_outfile_name</text>
</a>
</g>
</g>
<!-- Node2 -->
<g id="Node000002" class="node">
<title>Node2</title>
<g id="a_Node000002"><a xlink:href="redir__utils_8c.html#a9cc0cbe67ea65ccbbc4a191a0b76e863" target="_top" xlink:title="Gets the filename from a token based on redirection type and assigns it to the command.">
<polygon fill="white" stroke="#666666" points="659.5,-56 561.5,-56 561.5,-37 659.5,-37 659.5,-56"/>
<text text-anchor="middle" x="610.5" y="-44" font-family="Helvetica,sans-Serif" font-size="10.00">ft_get_file_name</text>
</a>
</g>
</g>
<!-- Node1&#45;&gt;Node2 -->
<g id="edge1_Node000001_Node000002" class="edge">
<title>Node1&#45;&gt;Node2</title>
<g id="a_edge1_Node000001_Node000002"><a xlink:title=" ">
<path fill="none" stroke="#63b8ff" d="M689.74,-36.18C679.56,-37.52 669.22,-38.88 659.53,-40.16"/>
<polygon fill="#63b8ff" stroke="#63b8ff" points="690.37,-39.62 699.83,-34.85 689.45,-32.68 690.37,-39.62"/>
</a>
</g>
</g>
<!-- Node8 -->
<g id="Node000008" class="node">
<title>Node8</title>
<g id="a_Node000008"><a xlink:href="handle__redirections_8c.html#ab2c37fefb1291d3f8d0dc91e8c096334" target="_top" xlink:title="Handles redirection associated with a command.">
<polygon fill="white" stroke="#666666" points="664,-19 557,-19 557,0 664,0 664,-19"/>
<text text-anchor="middle" x="610.5" y="-7" font-family="Helvetica,sans-Serif" font-size="10.00">handle_redirection</text>
</a>
</g>
</g>
<!-- Node1&#45;&gt;Node8 -->
<g id="edge7_Node000001_Node000008" class="edge">
<title>Node1&#45;&gt;Node8</title>
<g id="a_edge7_Node000001_Node000008"><a xlink:title=" ">
<path fill="none" stroke="#63b8ff" d="M689.83,-19.29C681.24,-18.22 672.53,-17.13 664.19,-16.09"/>
<polygon fill="#63b8ff" stroke="#63b8ff" points="689.47,-22.77 699.83,-20.54 690.34,-15.83 689.47,-22.77"/>
</a>
</g>
</g>
<!-- Node3 -->
<g id="Node000003" class="node">
<title>Node3</title>
<g id="a_Node000003"><a xlink:href="utils__cmd__list_8c.html#ad6de7454925bb78cc9488c934183e8f2" target="_top" xlink:title="Processes a command token and handles any associated redirections.">
<polygon fill="white" stroke="#666666" points="521,-56 413,-56 413,-37 521,-37 521,-56"/>
<text text-anchor="middle" x="467" y="-44" font-family="Helvetica,sans-Serif" font-size="10.00">process_command</text>
</a>
</g>
</g>
<!-- Node2&#45;&gt;Node3 -->
<g id="edge2_Node000002_Node000003" class="edge">
<title>Node2&#45;&gt;Node3</title>
<g id="a_edge2_Node000002_Node000003"><a xlink:title=" ">
<path fill="none" stroke="#63b8ff" d="M551.11,-46.5C541.28,-46.5 531.12,-46.5 521.42,-46.5"/>
<polygon fill="#63b8ff" stroke="#63b8ff" points="551.2,-50 561.2,-46.5 551.2,-43 551.2,-50"/>
</a>
</g>
</g>
<!-- Node4 -->
<g id="Node000004" class="node">
<title>Node4</title>
<g id="a_Node000004"><a xlink:href="create__command__list_8c.html#ad16d74756b107a98677124008c71d23b" target="_top" xlink:title="Creates a command list from tokens.">
<polygon fill="white" stroke="#666666" points="377,-37 309,-37 309,-18 377,-18 377,-37"/>
<text text-anchor="middle" x="343" y="-25" font-family="Helvetica,sans-Serif" font-size="10.00">create_list</text>
</a>
</g>
</g>
<!-- Node3&#45;&gt;Node4 -->
<g id="edge3_Node000003_Node000004" class="edge">
<title>Node3&#45;&gt;Node4</title>
<g id="a_edge3_Node000003_Node000004"><a xlink:title=" ">
<path fill="none" stroke="#63b8ff" d="M402.89,-36.67C394.06,-35.3 385.28,-33.93 377.31,-32.69"/>
<polygon fill="#63b8ff" stroke="#63b8ff" points="402.42,-40.14 412.84,-38.22 403.5,-33.22 402.42,-40.14"/>
</a>
</g>
</g>
<!-- Node5 -->
<g id="Node000005" class="node">
<title>Node5</title>
<g id="a_Node000005"><a xlink:href="main__utils_8c.html#a7e8f478480ab6ab34d6f5eadaf6acdb9" target="_top" xlink:title="Handles parsing and execution of tokens.">
<polygon fill="white" stroke="#666666" points="273,-37 192,-37 192,-18 273,-18 273,-37"/>
<text text-anchor="middle" x="232.5" y="-25" font-family="Helvetica,sans-Serif" font-size="10.00">ft_token_flow</text>
</a>
</g>
</g>
<!-- Node4&#45;&gt;Node5 -->
<g id="edge4_Node000004_Node000005" class="edge">
<title>Node4&#45;&gt;Node5</title>
<g id="a_edge4_Node000004_Node000005"><a xlink:title=" ">
<path fill="none" stroke="#63b8ff" d="M298.83,-27.5C290.41,-27.5 281.62,-27.5 273.31,-27.5"/>
<polygon fill="#63b8ff" stroke="#63b8ff" points="298.86,-31 308.86,-27.5 298.86,-24 298.86,-31"/>
</a>
</g>
</g>
<!-- Node6 -->
<g id="Node000006" class="node">
<title>Node6</title>
<g id="a_Node000006"><a xlink:href="main__utils_8c.html#ae35edfb8f1339d6f77f53c28eb2a2ed6" target="_top" xlink:title="Handles a complete cycle of input → parsing → execution.">
<polygon fill="white" stroke="#666666" points="156,-37 77,-37 77,-18 156,-18 156,-37"/>
<text text-anchor="middle" x="116.5" y="-25" font-family="Helvetica,sans-Serif" font-size="10.00">ft_main_flow</text>
</a>
</g>
</g>
<!-- Node5&#45;&gt;Node6 -->
<g id="edge5_Node000005_Node000006" class="edge">
<title>Node5&#45;&gt;Node6</title>
<g id="a_edge5_Node000005_Node000006"><a xlink:title=" ">
<path fill="none" stroke="#63b8ff" d="M181.7,-27.5C173.16,-27.5 164.4,-27.5 156.21,-27.5"/>
<polygon fill="#63b8ff" stroke="#63b8ff" points="181.95,-31 191.95,-27.5 181.95,-24 181.95,-31"/>
</a>
</g>
</g>
<!-- Node7 -->
<g id="Node000007" class="node">
<title>Node7</title>
<g id="a_Node000007"><a xlink:href="main_8c.html#ab3862b46d6a8d13c2d884a297e6b05b5" target="_top" xlink:title="Main function of the minishell.">
<polygon fill="white" stroke="#666666" points="41,-37 0,-37 0,-18 41,-18 41,-37"/>
<text text-anchor="middle" x="20.5" y="-25" font-family="Helvetica,sans-Serif" font-size="10.00">main</text>
</a>
</g>
</g>
<!-- Node6&#45;&gt;Node7 -->
<g id="edge6_Node000006_Node000007" class="edge">
<title>Node6&#45;&gt;Node7</title>
<g id="a_edge6_Node000006_Node000007"><a xlink:title=" ">
<path fill="none" stroke="#63b8ff" d="M66.74,-27.5C57.62,-27.5 48.59,-27.5 41.03,-27.5"/>
<polygon fill="#63b8ff" stroke="#63b8ff" points="67,-31 77,-27.5 67,-24 67,-31"/>
</a>
</g>
</g>
<!-- Node9 -->
<g id="Node000009" class="node">
<title>Node9</title>
<g id="a_Node000009"><a xlink:href="create__command__list_8c.html#ae2006bf82a70d4753ffdca65847316ca" target="_top" xlink:title="Executes a redirection for the current command.">
<polygon fill="white" stroke="#666666" points="504,-19 430,-19 430,0 504,0 504,-19"/>
<text text-anchor="middle" x="467" y="-7" font-family="Helvetica,sans-Serif" font-size="10.00">ft_exe_redir</text>
</a>
</g>
</g>
<!-- Node8&#45;&gt;Node9 -->
<g id="edge8_Node000008_Node000009" class="edge">
<title>Node8&#45;&gt;Node9</title>
<g id="a_edge8_Node000008_Node000009"><a xlink:title=" ">
<path fill="none" stroke="#63b8ff" d="M546.44,-9.5C532.06,-9.5 517.24,-9.5 504.41,-9.5"/>
<polygon fill="#63b8ff" stroke="#63b8ff" points="546.81,-13 556.81,-9.5 546.81,-6 546.81,-13"/>
</a>
</g>
</g>
<!-- Node9&#45;&gt;Node4 -->
<g id="edge9_Node000009_Node000004" class="edge">
<title>Node9&#45;&gt;Node4</title>
<g id="a_edge9_Node000009_Node000004"><a xlink:title=" ">
<path fill="none" stroke="#63b8ff" d="M419.64,-16.34C405.44,-18.43 390.13,-20.69 377.01,-22.63"/>
<polygon fill="#63b8ff" stroke="#63b8ff" points="420.34,-19.77 429.73,-14.85 419.32,-12.85 420.34,-19.77"/>
</a>
</g>
</g>
</g>
</svg>
