<?xml version="1.0" encoding="UTF-8" standalone="no"?>
<!DOCTYPE svg PUBLIC "-//W3C//DTD SVG 1.1//EN"
 "http://www.w3.org/Graphics/SVG/1.1/DTD/svg11.dtd">
<!-- Generated by graphviz version 2.43.0 (0)
 -->
<!-- Title: ft_for_env_var Pages: 1 -->
<svg width="591pt" height="246pt"
 viewBox="0.00 0.00 591.00 246.27" xmlns="http://www.w3.org/2000/svg" xmlns:xlink="http://www.w3.org/1999/xlink">
<g id="graph0" class="graph" transform="scale(1 1) rotate(0) translate(4 242.27)">
<title>ft_for_env_var</title>
<!-- Node1 -->
<g id="Node000001" class="node">
<title>Node1</title>
<g id="a_Node000001"><a xlink:title="Expands environment variables in a line and writes the result to a file descriptor.">
<polygon fill="#999999" stroke="#666666" points="86,-169 0,-169 0,-150 86,-150 86,-169"/>
<text text-anchor="middle" x="43" y="-157" font-family="Helvetica,sans-Serif" font-size="10.00">ft_for_env_var</text>
</a>
</g>
</g>
<!-- Node2 -->
<g id="Node000002" class="node">
<title>Node2</title>
<g id="a_Node000002"><a xlink:href="utils__env_8c.html#a78e10627f49df6e904925e22ae6ee15f" target="_top" xlink:title="Performs environment variable expansion in a string.">
<polygon fill="white" stroke="#666666" points="226,-113 122,-113 122,-94 226,-94 226,-113"/>
<text text-anchor="middle" x="174" y="-101" font-family="Helvetica,sans-Serif" font-size="10.00">ft_expand_envvar</text>
</a>
</g>
</g>
<!-- Node1&#45;&gt;Node2 -->
<g id="edge1_Node000001_Node000002" class="edge">
<title>Node1&#45;&gt;Node2</title>
<g id="a_edge1_Node000001_Node000002"><a xlink:title=" ">
<path fill="none" stroke="#63b8ff" d="M66.18,-149.87C86.98,-140.84 118.29,-127.25 141.65,-117.11"/>
<polygon fill="#63b8ff" stroke="#63b8ff" points="143.33,-120.19 151.11,-113 140.55,-113.77 143.33,-120.19"/>
</a>
</g>
</g>
<!-- Node5 -->
<g id="Node000005" class="node">
<title>Node5</title>
<g id="a_Node000005"><a xlink:href="ft__strlen_8c.html#a828402378653640f545a4be2e00e92f9" target="_top" xlink:title="Calculates the length of a null&#45;terminated string.">
<polygon fill="white" stroke="#666666" points="575.5,-168 519.5,-168 519.5,-149 575.5,-149 575.5,-168"/>
<text text-anchor="middle" x="547.5" y="-156" font-family="Helvetica,sans-Serif" font-size="10.00">ft_strlen</text>
</a>
</g>
</g>
<!-- Node1&#45;&gt;Node5 -->
<g id="edge20_Node000001_Node000005" class="edge">
<title>Node1&#45;&gt;Node5</title>
<g id="a_edge20_Node000001_Node000005"><a xlink:title=" ">
<path fill="none" stroke="#63b8ff" d="M64.36,-169.14C128.04,-197.84 327.99,-277 476,-214.5 497.14,-205.57 493.75,-191.41 512,-177.5 513.81,-176.12 515.74,-174.78 517.71,-173.48"/>
<polygon fill="#63b8ff" stroke="#63b8ff" points="519.76,-176.34 526.53,-168.19 516.16,-170.34 519.76,-176.34"/>
</a>
</g>
</g>
<!-- Node3 -->
<g id="Node000003" class="node">
<title>Node3</title>
<g id="a_Node000003"><a xlink:href="utils__env_8c.html#a4ea711c91d64ff7669bf6ac7e6b6b9dd" target="_top" xlink:title="Expands an environment variable found in a string.">
<polygon fill="white" stroke="#666666" points="333.5,-131 268.5,-131 268.5,-112 333.5,-112 333.5,-131"/>
<text text-anchor="middle" x="301" y="-119" font-family="Helvetica,sans-Serif" font-size="10.00">ft_expand</text>
</a>
</g>
</g>
<!-- Node2&#45;&gt;Node3 -->
<g id="edge2_Node000002_Node000003" class="edge">
<title>Node2&#45;&gt;Node3</title>
<g id="a_edge2_Node000002_Node000003"><a xlink:title=" ">
<path fill="none" stroke="#63b8ff" d="M226.2,-110.87C236.92,-112.42 248.1,-114.03 258.42,-115.51"/>
<polygon fill="#63b8ff" stroke="#63b8ff" points="258.01,-118.99 268.4,-116.95 259.01,-112.06 258.01,-118.99"/>
</a>
</g>
</g>
<!-- Node12 -->
<g id="Node000012" class="node">
<title>Node12</title>
<g id="a_Node000012"><a xlink:href="ft__strdup_8c.html#aebe73f27c70c56ac5053f860ef5436c9" target="_top" xlink:title="Duplicates a null&#45;terminated string by allocating memory.">
<polygon fill="white" stroke="#666666" points="577,-19 518,-19 518,0 577,0 577,-19"/>
<text text-anchor="middle" x="547.5" y="-7" font-family="Helvetica,sans-Serif" font-size="10.00">ft_strdup</text>
</a>
</g>
</g>
<!-- Node2&#45;&gt;Node12 -->
<g id="edge19_Node000002_Node000012" class="edge">
<title>Node2&#45;&gt;Node12</title>
<g id="a_edge19_Node000002_Node000012"><a xlink:title=" ">
<path fill="none" stroke="#63b8ff" d="M196.26,-93.89C213.75,-86.12 239.28,-75.1 262,-66.5 311.95,-47.59 323.84,-39.97 376,-28.5 420.55,-18.71 472.82,-13.83 507.63,-11.49"/>
<polygon fill="#63b8ff" stroke="#63b8ff" points="508.08,-14.97 517.84,-10.85 507.64,-7.99 508.08,-14.97"/>
</a>
</g>
</g>
<!-- Node15 -->
<g id="Node000015" class="node">
<title>Node15</title>
<g id="a_Node000015"><a xlink:href="utils__env_8c.html#a3323d2c2586349772b23a3eaf1a241c3" target="_top" xlink:title="Concatenates a literal part (non&#45;variable) of the string to the result.">
<polygon fill="white" stroke="#666666" points="340,-94 262,-94 262,-75 340,-75 340,-94"/>
<text text-anchor="middle" x="301" y="-82" font-family="Helvetica,sans-Serif" font-size="10.00">ft_merge_str</text>
</a>
</g>
</g>
<!-- Node2&#45;&gt;Node15 -->
<g id="edge16_Node000002_Node000015" class="edge">
<title>Node2&#45;&gt;Node15</title>
<g id="a_edge16_Node000002_Node000015"><a xlink:title=" ">
<path fill="none" stroke="#63b8ff" d="M226.2,-95.72C234.64,-94.43 243.36,-93.11 251.72,-91.84"/>
<polygon fill="#63b8ff" stroke="#63b8ff" points="252.34,-95.28 261.7,-90.32 251.29,-88.36 252.34,-95.28"/>
</a>
</g>
</g>
<!-- Node4 -->
<g id="Node000004" class="node">
<title>Node4</title>
<g id="a_Node000004"><a xlink:href="utils__env__pt2_8c.html#afac58c53fe53bc538ba19b53efec42e4" target="_top" xlink:title="Finds the value of an environment variable given its name key.">
<polygon fill="white" stroke="#666666" points="476,-205 376,-205 376,-186 476,-186 476,-205"/>
<text text-anchor="middle" x="426" y="-193" font-family="Helvetica,sans-Serif" font-size="10.00">ft_get_env_value</text>
</a>
</g>
</g>
<!-- Node3&#45;&gt;Node4 -->
<g id="edge3_Node000003_Node000004" class="edge">
<title>Node3&#45;&gt;Node4</title>
<g id="a_edge3_Node000003_Node000004"><a xlink:title=" ">
<path fill="none" stroke="#63b8ff" d="M312.82,-131.34C326.64,-143.5 351.68,-164.22 376,-177.5 378.9,-179.09 381.97,-180.59 385.11,-181.99"/>
<polygon fill="#63b8ff" stroke="#63b8ff" points="384,-185.32 394.58,-185.92 386.68,-178.86 384,-185.32"/>
</a>
</g>
</g>
<!-- Node7 -->
<g id="Node000007" class="node">
<title>Node7</title>
<g id="a_Node000007"><a xlink:href="ft__isalnum_8c.html#a9c2c3821ea43ebdf97de07b123503f8b" target="_top" xlink:title="Checks whether a character is alphanumeric.">
<polygon fill="white" stroke="#666666" points="460,-131 392,-131 392,-112 460,-112 460,-131"/>
<text text-anchor="middle" x="426" y="-119" font-family="Helvetica,sans-Serif" font-size="10.00">ft_isalnum</text>
</a>
</g>
</g>
<!-- Node3&#45;&gt;Node7 -->
<g id="edge6_Node000003_Node000007" class="edge">
<title>Node3&#45;&gt;Node7</title>
<g id="a_edge6_Node000003_Node000007"><a xlink:title=" ">
<path fill="none" stroke="#63b8ff" d="M333.68,-121.5C348.27,-121.5 365.83,-121.5 381.63,-121.5"/>
<polygon fill="#63b8ff" stroke="#63b8ff" points="381.71,-125 391.71,-121.5 381.71,-118 381.71,-125"/>
</a>
</g>
</g>
<!-- Node8 -->
<g id="Node000008" class="node">
<title>Node8</title>
<g id="a_Node000008"><a xlink:href="ft__isdigit_8c.html#a2cf15b8a1a277d1e2ce3654101a2003d" target="_top" xlink:title="Checks whether a character is a decimal digit.">
<polygon fill="white" stroke="#666666" points="455.5,-168 396.5,-168 396.5,-149 455.5,-149 455.5,-168"/>
<text text-anchor="middle" x="426" y="-156" font-family="Helvetica,sans-Serif" font-size="10.00">ft_isdigit</text>
</a>
</g>
</g>
<!-- Node3&#45;&gt;Node8 -->
<g id="edge7_Node000003_Node000008" class="edge">
<title>Node3&#45;&gt;Node8</title>
<g id="a_edge7_Node000003_Node000008"><a xlink:title=" ">
<path fill="none" stroke="#63b8ff" d="M333.68,-131.03C349.86,-135.9 369.68,-141.86 386.72,-146.98"/>
<polygon fill="#63b8ff" stroke="#63b8ff" points="385.79,-150.36 396.38,-149.89 387.81,-143.66 385.79,-150.36"/>
</a>
</g>
</g>
<!-- Node9 -->
<g id="Node000009" class="node">
<title>Node9</title>
<g id="a_Node000009"><a xlink:href="ft__strjoin_8c.html#a91e6e3e428bcc9f2291b700e1829b82b" target="_top" xlink:title="Concatenates two strings into a newly allocated string.">
<polygon fill="white" stroke="#666666" points="455.5,-94 396.5,-94 396.5,-75 455.5,-75 455.5,-94"/>
<text text-anchor="middle" x="426" y="-82" font-family="Helvetica,sans-Serif" font-size="10.00">ft_strjoin</text>
</a>
</g>
</g>
<!-- Node3&#45;&gt;Node9 -->
<g id="edge8_Node000003_Node000009" class="edge">
<title>Node3&#45;&gt;Node9</title>
<g id="a_edge8_Node000003_Node000009"><a xlink:title=" ">
<path fill="none" stroke="#63b8ff" d="M333.68,-111.97C349.86,-107.1 369.68,-101.14 386.72,-96.02"/>
<polygon fill="#63b8ff" stroke="#63b8ff" points="387.81,-99.34 396.38,-93.11 385.79,-92.64 387.81,-99.34"/>
</a>
</g>
</g>
<!-- Node11 -->
<g id="Node000011" class="node">
<title>Node11</title>
<g id="a_Node000011"><a xlink:href="ft__substr_8c.html#a78c402cbf3d55b1374693c3b7d34f71d" target="_top" xlink:title="Extracts a substring from a given string.">
<polygon fill="white" stroke="#666666" points="455.5,-57 396.5,-57 396.5,-38 455.5,-38 455.5,-57"/>
<text text-anchor="middle" x="426" y="-45" font-family="Helvetica,sans-Serif" font-size="10.00">ft_substr</text>
</a>
</g>
</g>
<!-- Node3&#45;&gt;Node11 -->
<g id="edge11_Node000003_Node000011" class="edge">
<title>Node3&#45;&gt;Node11</title>
<g id="a_edge11_Node000003_Node000011"><a xlink:title=" ">
<path fill="none" stroke="#63b8ff" d="M325.65,-111.91C330.58,-109.47 335.61,-106.64 340,-103.5 358.66,-90.16 356.87,-79.16 376,-66.5 379.37,-64.27 383.04,-62.24 386.81,-60.41"/>
<polygon fill="#63b8ff" stroke="#63b8ff" points="388.5,-63.5 396.25,-56.28 385.69,-57.08 388.5,-63.5"/>
</a>
</g>
</g>
<!-- Node4&#45;&gt;Node5 -->
<g id="edge4_Node000004_Node000005" class="edge">
<title>Node4&#45;&gt;Node5</title>
<g id="a_edge4_Node000004_Node000005"><a xlink:title=" ">
<path fill="none" stroke="#63b8ff" d="M457.77,-185.97C473.58,-181.08 492.96,-175.08 509.56,-169.94"/>
<polygon fill="#63b8ff" stroke="#63b8ff" points="510.97,-173.16 519.49,-166.86 508.9,-166.48 510.97,-173.16"/>
</a>
</g>
</g>
<!-- Node6 -->
<g id="Node000006" class="node">
<title>Node6</title>
<g id="a_Node000006"><a xlink:href="ft__strncmp_8c.html#a9d2fe792187aa4ed08e5864fb2c4d6dc" target="_top" xlink:title="Compares up to n characters of two strings.">
<polygon fill="white" stroke="#666666" points="581.5,-205 513.5,-205 513.5,-186 581.5,-186 581.5,-205"/>
<text text-anchor="middle" x="547.5" y="-193" font-family="Helvetica,sans-Serif" font-size="10.00">ft_strncmp</text>
</a>
</g>
</g>
<!-- Node4&#45;&gt;Node6 -->
<g id="edge5_Node000004_Node000006" class="edge">
<title>Node4&#45;&gt;Node6</title>
<g id="a_edge5_Node000004_Node000006"><a xlink:title=" ">
<path fill="none" stroke="#63b8ff" d="M476.3,-195.5C485.26,-195.5 494.55,-195.5 503.32,-195.5"/>
<polygon fill="#63b8ff" stroke="#63b8ff" points="503.33,-199 513.33,-195.5 503.33,-192 503.33,-199"/>
</a>
</g>
</g>
<!-- Node9&#45;&gt;Node5 -->
<g id="edge10_Node000009_Node000005" class="edge">
<title>Node9&#45;&gt;Node5</title>
<g id="a_edge10_Node000009_Node000005"><a xlink:title=" ">
<path fill="none" stroke="#63b8ff" d="M455.71,-93.34C462.63,-96.08 469.81,-99.46 476,-103.5 494.96,-115.86 493.91,-125.91 512,-139.5 513.87,-140.9 515.85,-142.27 517.88,-143.58"/>
<polygon fill="#63b8ff" stroke="#63b8ff" points="516.54,-146.86 526.92,-148.97 520.12,-140.84 516.54,-146.86"/>
</a>
</g>
</g>
<!-- Node10 -->
<g id="Node000010" class="node">
<title>Node10</title>
<g id="a_Node000010"><a xlink:href="ft__memcpy_8c.html#a41a6f05af30cf85ff63a08e383826322" target="_top" xlink:title="Copies &#39;n&#39; bytes from memory area &#39;src&#39; to memory area &#39;dest&#39;.">
<polygon fill="white" stroke="#666666" points="583,-130 512,-130 512,-111 583,-111 583,-130"/>
<text text-anchor="middle" x="547.5" y="-118" font-family="Helvetica,sans-Serif" font-size="10.00">ft_memcpy</text>
</a>
</g>
</g>
<!-- Node9&#45;&gt;Node10 -->
<g id="edge9_Node000009_Node000010" class="edge">
<title>Node9&#45;&gt;Node10</title>
<g id="a_edge9_Node000009_Node000010"><a xlink:title=" ">
<path fill="none" stroke="#63b8ff" d="M455.62,-93.12C470.38,-97.57 488.64,-103.07 504.92,-107.97"/>
<polygon fill="#63b8ff" stroke="#63b8ff" points="504.16,-111.4 514.75,-110.93 506.18,-104.7 504.16,-111.4"/>
</a>
</g>
</g>
<!-- Node11&#45;&gt;Node5 -->
<g id="edge14_Node000011_Node000005" class="edge">
<title>Node11&#45;&gt;Node5</title>
<g id="a_edge14_Node000011_Node000005"><a xlink:title=" ">
<path fill="none" stroke="#63b8ff" d="M455.72,-54.6C462.96,-57.41 470.28,-61.26 476,-66.5 502.68,-90.93 487.01,-113.35 512,-139.5 513.2,-140.76 514.51,-141.95 515.88,-143.09"/>
<polygon fill="#63b8ff" stroke="#63b8ff" points="514.07,-146.09 524.28,-148.89 518.04,-140.33 514.07,-146.09"/>
</a>
</g>
</g>
<!-- Node11&#45;&gt;Node12 -->
<g id="edge12_Node000011_Node000012" class="edge">
<title>Node11&#45;&gt;Node12</title>
<g id="a_edge12_Node000011_Node000012"><a xlink:title=" ">
<path fill="none" stroke="#63b8ff" d="M455.62,-38.4C471.32,-33.41 491,-27.15 508.03,-21.73"/>
<polygon fill="#63b8ff" stroke="#63b8ff" points="509.23,-25.03 517.7,-18.66 507.11,-18.35 509.23,-25.03"/>
</a>
</g>
</g>
<!-- Node13 -->
<g id="Node000013" class="node">
<title>Node13</title>
<g id="a_Node000013"><a xlink:href="ft__strlcpy_8c.html#aa053827b3a2ea3d0118783d6fb59d178" target="_top" xlink:title="Copies up to size &#45; 1 characters from the string src to dst, null&#45;terminating the result.">
<polygon fill="white" stroke="#666666" points="578.5,-56 516.5,-56 516.5,-37 578.5,-37 578.5,-56"/>
<text text-anchor="middle" x="547.5" y="-44" font-family="Helvetica,sans-Serif" font-size="10.00">ft_strlcpy</text>
</a>
</g>
</g>
<!-- Node11&#45;&gt;Node13 -->
<g id="edge13_Node000011_Node000013" class="edge">
<title>Node11&#45;&gt;Node13</title>
<g id="a_edge13_Node000011_Node000013"><a xlink:title=" ">
<path fill="none" stroke="#63b8ff" d="M455.62,-47.26C470.83,-47.13 489.78,-46.97 506.43,-46.84"/>
<polygon fill="#63b8ff" stroke="#63b8ff" points="506.47,-50.34 516.44,-46.75 506.41,-43.34 506.47,-50.34"/>
</a>
</g>
</g>
<!-- Node14 -->
<g id="Node000014" class="node">
<title>Node14</title>
<g id="a_Node000014"><a xlink:href="ft__strlcat_8c.html#a3ab017dd491d7327d1b4acbf1398b91e" target="_top" xlink:title="Returns the length of a null&#45;terminated string.">
<polygon fill="white" stroke="#666666" points="563.5,-93 531.5,-93 531.5,-74 563.5,-74 563.5,-93"/>
<text text-anchor="middle" x="547.5" y="-81" font-family="Helvetica,sans-Serif" font-size="10.00">len</text>
</a>
</g>
</g>
<!-- Node11&#45;&gt;Node14 -->
<g id="edge15_Node000011_Node000014" class="edge">
<title>Node11&#45;&gt;Node14</title>
<g id="a_edge15_Node000011_Node000014"><a xlink:title=" ">
<path fill="none" stroke="#63b8ff" d="M455.62,-56.12C475.66,-62.16 502.19,-70.15 521.4,-75.94"/>
<polygon fill="#63b8ff" stroke="#63b8ff" points="520.66,-79.37 531.24,-78.9 522.67,-72.67 520.66,-79.37"/>
</a>
</g>
</g>
<!-- Node15&#45;&gt;Node9 -->
<g id="edge17_Node000015_Node000009" class="edge">
<title>Node15&#45;&gt;Node9</title>
<g id="a_edge17_Node000015_Node000009"><a xlink:title=" ">
<path fill="none" stroke="#63b8ff" d="M340.24,-84.5C354.77,-84.5 371.33,-84.5 385.93,-84.5"/>
<polygon fill="#63b8ff" stroke="#63b8ff" points="386.16,-88 396.16,-84.5 386.16,-81 386.16,-88"/>
</a>
</g>
</g>
<!-- Node15&#45;&gt;Node11 -->
<g id="edge18_Node000015_Node000011" class="edge">
<title>Node15&#45;&gt;Node11</title>
<g id="a_edge18_Node000015_Node000011"><a xlink:title=" ">
<path fill="none" stroke="#63b8ff" d="M333.68,-74.97C349.86,-70.1 369.68,-64.14 386.72,-59.02"/>
<polygon fill="#63b8ff" stroke="#63b8ff" points="387.81,-62.34 396.38,-56.11 385.79,-55.64 387.81,-62.34"/>
</a>
</g>
</g>
</g>
</svg>
