<?xml version="1.0" encoding="UTF-8" standalone="no"?>
<!DOCTYPE svg PUBLIC "-//W3C//DTD SVG 1.1//EN"
 "http://www.w3.org/Graphics/SVG/1.1/DTD/svg11.dtd">
<!-- Generated by graphviz version 2.43.0 (0)
 -->
<!-- Title: handle_sigint Pages: 1 -->
<svg width="763pt" height="93pt"
 viewBox="0.00 0.00 763.00 92.50" xmlns="http://www.w3.org/2000/svg" xmlns:xlink="http://www.w3.org/1999/xlink">
<g id="graph0" class="graph" transform="scale(1 1) rotate(0) translate(4 88.5)">
<title>handle_sigint</title>
<!-- Node1 -->
<g id="Node000001" class="node">
<title>Node1</title>
<g id="a_Node000001"><a xlink:title="Signal handler for SIGINT (Ctrl&#45;C).">
<polygon fill="#999999" stroke="#666666" points="755,-28.5 673,-28.5 673,-9.5 755,-9.5 755,-28.5"/>
<text text-anchor="middle" x="714" y="-16.5" font-family="Helvetica,sans-Serif" font-size="10.00">handle_sigint</text>
</a>
</g>
</g>
<!-- Node2 -->
<g id="Node000002" class="node">
<title>Node2</title>
<g id="a_Node000002"><a xlink:href="signal__flag_8c.html#a8d44a858d92b832ce42bf419c783f2f9" target="_top" xlink:title="Updates the child process exit status in the env struct.">
<polygon fill="white" stroke="#666666" points="637,-47.5 545,-47.5 545,-28.5 637,-28.5 637,-47.5"/>
<text text-anchor="middle" x="591" y="-35.5" font-family="Helvetica,sans-Serif" font-size="10.00">get_exit_status</text>
</a>
</g>
</g>
<!-- Node1&#45;&gt;Node2 -->
<g id="edge1_Node000001_Node000002" class="edge">
<title>Node1&#45;&gt;Node2</title>
<g id="a_edge1_Node000001_Node000002"><a xlink:title=" ">
<path fill="none" stroke="#63b8ff" d="M662.59,-26.92C654.14,-28.24 645.43,-29.61 637.12,-30.91"/>
<polygon fill="#63b8ff" stroke="#63b8ff" points="663.37,-30.34 672.71,-25.33 662.29,-23.42 663.37,-30.34"/>
</a>
</g>
</g>
<!-- Node7 -->
<g id="Node000007" class="node">
<title>Node7</title>
<g id="a_Node000007"><a xlink:href="main_8c.html#ab3862b46d6a8d13c2d884a297e6b05b5" target="_top" xlink:title="Main function of the minishell.">
<polygon fill="white" stroke="#666666" points="41,-28.5 0,-28.5 0,-9.5 41,-9.5 41,-28.5"/>
<text text-anchor="middle" x="20.5" y="-16.5" font-family="Helvetica,sans-Serif" font-size="10.00">main</text>
</a>
</g>
</g>
<!-- Node1&#45;&gt;Node7 -->
<g id="edge10_Node000001_Node000007" class="edge">
<title>Node1&#45;&gt;Node7</title>
<g id="a_edge10_Node000001_Node000007"><a xlink:title=" ">
<path fill="none" stroke="#63b8ff" d="M662.57,-12.85C612.61,-7.3 533.9,0 465.5,0 465.5,0 465.5,0 231.5,0 161.21,0 78.23,-10.69 41.13,-16.03"/>
<polygon fill="#63b8ff" stroke="#63b8ff" points="662.45,-16.36 672.78,-14.01 663.23,-9.41 662.45,-16.36"/>
</a>
</g>
</g>
<!-- Node3 -->
<g id="Node000003" class="node">
<title>Node3</title>
<g id="a_Node000003"><a xlink:href="pipes_8c.html#a7a3b0de1a88a243da741f748881e14f0" target="_top" xlink:title="Executes a list of commands connected via pipes.">
<polygon fill="white" stroke="#666666" points="505,-84.5 424,-84.5 424,-65.5 505,-65.5 505,-84.5"/>
<text text-anchor="middle" x="464.5" y="-72.5" font-family="Helvetica,sans-Serif" font-size="10.00">execute_pipe</text>
</a>
</g>
</g>
<!-- Node2&#45;&gt;Node3 -->
<g id="edge2_Node000002_Node000003" class="edge">
<title>Node2&#45;&gt;Node3</title>
<g id="a_edge2_Node000002_Node000003"><a xlink:title=" ">
<path fill="none" stroke="#63b8ff" d="M548.06,-50.46C531.69,-55.33 513.2,-60.82 497.89,-65.38"/>
<polygon fill="#63b8ff" stroke="#63b8ff" points="549.35,-53.73 557.94,-47.53 547.36,-47.02 549.35,-53.73"/>
</a>
</g>
</g>
<!-- Node8 -->
<g id="Node000008" class="node">
<title>Node8</title>
<g id="a_Node000008"><a xlink:href="system__commands_8c.html#a6d8647dce4277e848c613bd0cc3df5bb" target="_top" xlink:title="Executes a system command by creating a child process.">
<polygon fill="white" stroke="#666666" points="509,-47.5 420,-47.5 420,-28.5 509,-28.5 509,-47.5"/>
<text text-anchor="middle" x="464.5" y="-35.5" font-family="Helvetica,sans-Serif" font-size="10.00">ft_exe_syscmd</text>
</a>
</g>
</g>
<!-- Node2&#45;&gt;Node8 -->
<g id="edge7_Node000002_Node000008" class="edge">
<title>Node2&#45;&gt;Node8</title>
<g id="a_edge7_Node000002_Node000008"><a xlink:title=" ">
<path fill="none" stroke="#63b8ff" d="M534.52,-38C526.08,-38 517.46,-38 509.31,-38"/>
<polygon fill="#63b8ff" stroke="#63b8ff" points="534.7,-41.5 544.7,-38 534.7,-34.5 534.7,-41.5"/>
</a>
</g>
</g>
<!-- Node4 -->
<g id="Node000004" class="node">
<title>Node4</title>
<g id="a_Node000004"><a xlink:href="main__utils_8c.html#ad0183732909ae6e7c52e7b086c2e5642" target="_top" xlink:title="Manages the execution flow of commands with pipes.">
<polygon fill="white" stroke="#666666" points="384,-84.5 309,-84.5 309,-65.5 384,-65.5 384,-84.5"/>
<text text-anchor="middle" x="346.5" y="-72.5" font-family="Helvetica,sans-Serif" font-size="10.00">ft_pipe_flow</text>
</a>
</g>
</g>
<!-- Node3&#45;&gt;Node4 -->
<g id="edge3_Node000003_Node000004" class="edge">
<title>Node3&#45;&gt;Node4</title>
<g id="a_edge3_Node000003_Node000004"><a xlink:title=" ">
<path fill="none" stroke="#63b8ff" d="M413.74,-75C403.82,-75 393.57,-75 384.19,-75"/>
<polygon fill="#63b8ff" stroke="#63b8ff" points="413.9,-78.5 423.9,-75 413.9,-71.5 413.9,-78.5"/>
</a>
</g>
</g>
<!-- Node5 -->
<g id="Node000005" class="node">
<title>Node5</title>
<g id="a_Node000005"><a xlink:href="main__utils_8c.html#a7e8f478480ab6ab34d6f5eadaf6acdb9" target="_top" xlink:title="Handles parsing and execution of tokens.">
<polygon fill="white" stroke="#666666" points="273,-47.5 192,-47.5 192,-28.5 273,-28.5 273,-47.5"/>
<text text-anchor="middle" x="232.5" y="-35.5" font-family="Helvetica,sans-Serif" font-size="10.00">ft_token_flow</text>
</a>
</g>
</g>
<!-- Node4&#45;&gt;Node5 -->
<g id="edge4_Node000004_Node000005" class="edge">
<title>Node4&#45;&gt;Node5</title>
<g id="a_edge4_Node000004_Node000005"><a xlink:title=" ">
<path fill="none" stroke="#63b8ff" d="M306.94,-62.26C292.41,-57.46 276.16,-52.09 262.63,-47.62"/>
<polygon fill="#63b8ff" stroke="#63b8ff" points="306.06,-65.66 316.66,-65.47 308.26,-59.01 306.06,-65.66"/>
</a>
</g>
</g>
<!-- Node6 -->
<g id="Node000006" class="node">
<title>Node6</title>
<g id="a_Node000006"><a xlink:href="main__utils_8c.html#ae35edfb8f1339d6f77f53c28eb2a2ed6" target="_top" xlink:title="Handles a complete cycle of input → parsing → execution.">
<polygon fill="white" stroke="#666666" points="156,-47.5 77,-47.5 77,-28.5 156,-28.5 156,-47.5"/>
<text text-anchor="middle" x="116.5" y="-35.5" font-family="Helvetica,sans-Serif" font-size="10.00">ft_main_flow</text>
</a>
</g>
</g>
<!-- Node5&#45;&gt;Node6 -->
<g id="edge5_Node000005_Node000006" class="edge">
<title>Node5&#45;&gt;Node6</title>
<g id="a_edge5_Node000005_Node000006"><a xlink:title=" ">
<path fill="none" stroke="#63b8ff" d="M181.7,-38C173.16,-38 164.4,-38 156.21,-38"/>
<polygon fill="#63b8ff" stroke="#63b8ff" points="181.95,-41.5 191.95,-38 181.95,-34.5 181.95,-41.5"/>
</a>
</g>
</g>
<!-- Node6&#45;&gt;Node7 -->
<g id="edge6_Node000006_Node000007" class="edge">
<title>Node6&#45;&gt;Node7</title>
<g id="a_edge6_Node000006_Node000007"><a xlink:title=" ">
<path fill="none" stroke="#63b8ff" d="M67.03,-28.2C57.82,-26.34 48.67,-24.49 41.03,-22.95"/>
<polygon fill="#63b8ff" stroke="#63b8ff" points="66.5,-31.67 77,-30.22 67.89,-24.81 66.5,-31.67"/>
</a>
</g>
</g>
<!-- Node9 -->
<g id="Node000009" class="node">
<title>Node9</title>
<g id="a_Node000009"><a xlink:href="cmd__execution_8c.html#a5ce7231f800cbacea6350cc1a32a59bd" target="_top" xlink:title="Executes a list of non&#45;pipelined commands.">
<polygon fill="white" stroke="#666666" points="382.5,-47.5 310.5,-47.5 310.5,-28.5 382.5,-28.5 382.5,-47.5"/>
<text text-anchor="middle" x="346.5" y="-35.5" font-family="Helvetica,sans-Serif" font-size="10.00">ft_exe_cmd</text>
</a>
</g>
</g>
<!-- Node8&#45;&gt;Node9 -->
<g id="edge8_Node000008_Node000009" class="edge">
<title>Node8&#45;&gt;Node9</title>
<g id="a_edge8_Node000008_Node000009"><a xlink:title=" ">
<path fill="none" stroke="#63b8ff" d="M409.69,-38C400.48,-38 391.13,-38 382.58,-38"/>
<polygon fill="#63b8ff" stroke="#63b8ff" points="409.98,-41.5 419.98,-38 409.98,-34.5 409.98,-41.5"/>
</a>
</g>
</g>
<!-- Node9&#45;&gt;Node5 -->
<g id="edge9_Node000009_Node000005" class="edge">
<title>Node9&#45;&gt;Node5</title>
<g id="a_edge9_Node000009_Node000005"><a xlink:title=" ">
<path fill="none" stroke="#63b8ff" d="M300.12,-38C291.2,-38 281.91,-38 273.19,-38"/>
<polygon fill="#63b8ff" stroke="#63b8ff" points="300.37,-41.5 310.37,-38 300.37,-34.5 300.37,-41.5"/>
</a>
</g>
</g>
</g>
</svg>
