<?xml version="1.0" encoding="UTF-8" standalone="no"?>
<!DOCTYPE svg PUBLIC "-//W3C//DTD SVG 1.1//EN"
 "http://www.w3.org/Graphics/SVG/1.1/DTD/svg11.dtd">
<!-- Generated by graphviz version 2.43.0 (0)
 -->
<!-- Title: s_redir_data Pages: 1 -->
<svg width="117pt" height="93pt"
 viewBox="0.00 0.00 116.50 93.00" xmlns="http://www.w3.org/2000/svg" xmlns:xlink="http://www.w3.org/1999/xlink">
<g id="graph0" class="graph" transform="scale(1 1) rotate(0) translate(4 89)">
<title>s_redir_data</title>
<!-- Node1 -->
<g id="Node000001" class="node">
<title>Node1</title>
<g id="a_Node000001"><a xlink:title="Structure to temporarily store redirection data.">
<polygon fill="#999999" stroke="#666666" points="77,-19 0,-19 0,0 77,0 77,-19"/>
<text text-anchor="middle" x="38.5" y="-7" font-family="Helvetica,sans-Serif" font-size="10.00">s_redir_data</text>
</a>
</g>
</g>
<!-- Node2 -->
<g id="Node000002" class="node">
<title>Node2</title>
<g id="a_Node000002"><a xlink:href="structs__token.html" target="_top" xlink:title="Linked list node for shell tokens.">
<polygon fill="white" stroke="#666666" points="65.5,-85 11.5,-85 11.5,-66 65.5,-66 65.5,-85"/>
<text text-anchor="middle" x="38.5" y="-73" font-family="Helvetica,sans-Serif" font-size="10.00">s_token</text>
</a>
</g>
</g>
<!-- Node2&#45;&gt;Node1 -->
<g id="edge1_Node000001_Node000002" class="edge">
<title>Node2&#45;&gt;Node1</title>
<g id="a_edge1_Node000001_Node000002"><a xlink:title=" ">
<path fill="none" stroke="#9a32cd" stroke-dasharray="5,2" d="M38.5,-55.58C38.5,-43.63 38.5,-28.72 38.5,-19.41"/>
<polygon fill="#9a32cd" stroke="#9a32cd" points="35,-55.87 38.5,-65.87 42,-55.87 35,-55.87"/>
</a>
</g>
<text text-anchor="middle" x="54" y="-40" font-family="Helvetica,sans-Serif" font-size="10.00" fill="grey"> token</text>
</g>
<!-- Node2&#45;&gt;Node2 -->
<g id="edge2_Node000002_Node000002" class="edge">
<title>Node2&#45;&gt;Node2</title>
<g id="a_edge2_Node000002_Node000002"><a xlink:title=" ">
<path fill="none" stroke="#9a32cd" stroke-dasharray="5,2" d="M76.01,-80.67C80.54,-79.74 83.5,-78.01 83.5,-75.5 83.5,-71.38 75.52,-69.38 65.74,-69.51"/>
<polygon fill="#9a32cd" stroke="#9a32cd" points="75.43,-77.21 65.74,-81.49 75.99,-84.18 75.43,-77.21"/>
</a>
</g>
<text text-anchor="middle" x="96" y="-73" font-family="Helvetica,sans-Serif" font-size="10.00" fill="grey"> next</text>
</g>
</g>
</svg>
