<?xml version="1.0" encoding="UTF-8" standalone="no"?>
<!DOCTYPE svg PUBLIC "-//W3C//DTD SVG 1.1//EN"
 "http://www.w3.org/Graphics/SVG/1.1/DTD/svg11.dtd">
<!-- Generated by graphviz version 2.43.0 (0)
 -->
<!-- Title: s_pipe Pages: 1 -->
<svg width="192pt" height="159pt"
 viewBox="0.00 0.00 192.00 159.00" xmlns="http://www.w3.org/2000/svg" xmlns:xlink="http://www.w3.org/1999/xlink">
<g id="graph0" class="graph" transform="scale(1 1) rotate(0) translate(4 155)">
<title>s_pipe</title>
<!-- Node1 -->
<g id="Node000001" class="node">
<title>Node1</title>
<g id="a_Node000001"><a xlink:title="Linked list node for pipes, with PID and file descriptors.">
<polygon fill="#999999" stroke="#666666" points="66,-19 18,-19 18,0 66,0 66,-19"/>
<text text-anchor="middle" x="42" y="-7" font-family="Helvetica,sans-Serif" font-size="10.00">s_pipe</text>
</a>
</g>
</g>
<!-- Node1&#45;&gt;Node1 -->
<g id="edge6_Node000001_Node000001" class="edge">
<title>Node1&#45;&gt;Node1</title>
<g id="a_edge6_Node000001_Node000001"><a xlink:title=" ">
<path fill="none" stroke="#9a32cd" stroke-dasharray="5,2" d="M76.42,-14.79C80.98,-13.89 84,-12.13 84,-9.5 84,-5.19 75.86,-3.2 66.17,-3.54"/>
<polygon fill="#9a32cd" stroke="#9a32cd" points="75.92,-11.32 66.17,-15.46 76.38,-18.3 75.92,-11.32"/>
</a>
</g>
<text text-anchor="middle" x="96.5" y="-7" font-family="Helvetica,sans-Serif" font-size="10.00" fill="grey"> next</text>
</g>
<!-- Node2 -->
<g id="Node000002" class="node">
<title>Node2</title>
<g id="a_Node000002"><a xlink:href="structs__command.html" target="_top" xlink:title="Linked list node for commands with arguments and redirections.">
<polygon fill="white" stroke="#666666" points="141,-85 65,-85 65,-66 141,-66 141,-85"/>
<text text-anchor="middle" x="103" y="-73" font-family="Helvetica,sans-Serif" font-size="10.00">s_command</text>
</a>
</g>
</g>
<!-- Node2&#45;&gt;Node1 -->
<g id="edge1_Node000001_Node000002" class="edge">
<title>Node2&#45;&gt;Node1</title>
<g id="a_edge1_Node000001_Node000002"><a xlink:title=" ">
<path fill="none" stroke="#9a32cd" stroke-dasharray="5,2" d="M87.73,-58.48C75.95,-46.12 60.1,-29.49 50.49,-19.41"/>
<polygon fill="#9a32cd" stroke="#9a32cd" points="85.34,-61.04 94.77,-65.87 90.41,-56.22 85.34,-61.04"/>
</a>
</g>
<text text-anchor="middle" x="88.5" y="-40" font-family="Helvetica,sans-Serif" font-size="10.00" fill="grey"> cmd</text>
</g>
<!-- Node2&#45;&gt;Node2 -->
<g id="edge4_Node000002_Node000002" class="edge">
<title>Node2&#45;&gt;Node2</title>
<g id="a_edge4_Node000002_Node000002"><a xlink:title=" ">
<path fill="none" stroke="#9a32cd" stroke-dasharray="5,2" d="M151.29,-80.37C156.01,-79.39 159,-77.77 159,-75.5 159,-71.88 151.33,-69.89 141.21,-69.55"/>
<polygon fill="#9a32cd" stroke="#9a32cd" points="150.79,-76.91 141.21,-81.45 151.53,-83.87 150.79,-76.91"/>
</a>
</g>
<text text-anchor="middle" x="171.5" y="-73" font-family="Helvetica,sans-Serif" font-size="10.00" fill="grey"> next</text>
</g>
<!-- Node3 -->
<g id="Node000003" class="node">
<title>Node3</title>
<g id="a_Node000003"><a xlink:href="structs__token.html" target="_top" xlink:title="Linked list node for shell tokens.">
<polygon fill="white" stroke="#666666" points="54,-151 0,-151 0,-132 54,-132 54,-151"/>
<text text-anchor="middle" x="27" y="-139" font-family="Helvetica,sans-Serif" font-size="10.00">s_token</text>
</a>
</g>
</g>
<!-- Node3&#45;&gt;Node1 -->
<g id="edge5_Node000001_Node000003" class="edge">
<title>Node3&#45;&gt;Node1</title>
<g id="a_edge5_Node000001_Node000003"><a xlink:title=" ">
<path fill="none" stroke="#9a32cd" stroke-dasharray="5,2" d="M22.3,-121.57C19.24,-106.43 16.43,-84.71 20,-66 23.31,-48.69 31.92,-29.9 37.34,-19.22"/>
<polygon fill="#9a32cd" stroke="#9a32cd" points="18.97,-122.72 24.59,-131.71 25.8,-121.18 18.97,-122.72"/>
</a>
</g>
<text text-anchor="middle" x="38" y="-73" font-family="Helvetica,sans-Serif" font-size="10.00" fill="grey"> tokens</text>
</g>
<!-- Node3&#45;&gt;Node2 -->
<g id="edge2_Node000002_Node000003" class="edge">
<title>Node3&#45;&gt;Node2</title>
<g id="a_edge2_Node000002_Node000003"><a xlink:title=" ">
<path fill="none" stroke="#9a32cd" stroke-dasharray="5,2" d="M45.19,-125.18C59.94,-112.76 80.22,-95.68 92.43,-85.41"/>
<polygon fill="#9a32cd" stroke="#9a32cd" points="42.64,-122.75 37.25,-131.87 47.15,-128.1 42.64,-122.75"/>
</a>
</g>
<text text-anchor="middle" x="87" y="-106" font-family="Helvetica,sans-Serif" font-size="10.00" fill="grey"> tokens</text>
</g>
<!-- Node3&#45;&gt;Node3 -->
<g id="edge3_Node000003_Node000003" class="edge">
<title>Node3&#45;&gt;Node3</title>
<g id="a_edge3_Node000003_Node000003"><a xlink:title=" ">
<path fill="none" stroke="#9a32cd" stroke-dasharray="5,2" d="M64.51,-146.67C69.04,-145.74 72,-144.01 72,-141.5 72,-137.38 64.02,-135.38 54.24,-135.51"/>
<polygon fill="#9a32cd" stroke="#9a32cd" points="63.93,-143.21 54.24,-147.49 64.49,-150.18 63.93,-143.21"/>
</a>
</g>
<text text-anchor="middle" x="84.5" y="-139" font-family="Helvetica,sans-Serif" font-size="10.00" fill="grey"> next</text>
</g>
</g>
</svg>
