<?xml version="1.0" encoding="UTF-8" standalone="no"?>
<!DOCTYPE svg PUBLIC "-//W3C//DTD SVG 1.1//EN"
 "http://www.w3.org/Graphics/SVG/1.1/DTD/svg11.dtd">
<!-- Generated by graphviz version 2.43.0 (0)
 -->
<!-- Title: s_command Pages: 1 -->
<svg width="127pt" height="93pt"
 viewBox="0.00 0.00 127.00 93.00" xmlns="http://www.w3.org/2000/svg" xmlns:xlink="http://www.w3.org/1999/xlink">
<g id="graph0" class="graph" transform="scale(1 1) rotate(0) translate(4 89)">
<title>s_command</title>
<!-- Node1 -->
<g id="Node000001" class="node">
<title>Node1</title>
<g id="a_Node000001"><a xlink:title="Linked list node for commands with arguments and redirections.">
<polygon fill="#999999" stroke="#666666" points="76,-19 0,-19 0,0 76,0 76,-19"/>
<text text-anchor="middle" x="38" y="-7" font-family="Helvetica,sans-Serif" font-size="10.00">s_command</text>
</a>
</g>
</g>
<!-- Node1&#45;&gt;Node1 -->
<g id="edge3_Node000001_Node000001" class="edge">
<title>Node1&#45;&gt;Node1</title>
<g id="a_edge3_Node000001_Node000001"><a xlink:title=" ">
<path fill="none" stroke="#9a32cd" stroke-dasharray="5,2" d="M86.29,-14.37C91.01,-13.39 94,-11.77 94,-9.5 94,-5.88 86.33,-3.89 76.21,-3.55"/>
<polygon fill="#9a32cd" stroke="#9a32cd" points="85.79,-10.91 76.21,-15.45 86.53,-17.87 85.79,-10.91"/>
</a>
</g>
<text text-anchor="middle" x="106.5" y="-7" font-family="Helvetica,sans-Serif" font-size="10.00" fill="grey"> next</text>
</g>
<!-- Node2 -->
<g id="Node000002" class="node">
<title>Node2</title>
<g id="a_Node000002"><a xlink:href="structs__token.html" target="_top" xlink:title="Linked list node for shell tokens.">
<polygon fill="white" stroke="#666666" points="65,-85 11,-85 11,-66 65,-66 65,-85"/>
<text text-anchor="middle" x="38" y="-73" font-family="Helvetica,sans-Serif" font-size="10.00">s_token</text>
</a>
</g>
</g>
<!-- Node2&#45;&gt;Node1 -->
<g id="edge1_Node000001_Node000002" class="edge">
<title>Node2&#45;&gt;Node1</title>
<g id="a_edge1_Node000001_Node000002"><a xlink:title=" ">
<path fill="none" stroke="#9a32cd" stroke-dasharray="5,2" d="M38,-55.58C38,-43.63 38,-28.72 38,-19.41"/>
<polygon fill="#9a32cd" stroke="#9a32cd" points="34.5,-55.87 38,-65.87 41.5,-55.87 34.5,-55.87"/>
</a>
</g>
<text text-anchor="middle" x="56" y="-40" font-family="Helvetica,sans-Serif" font-size="10.00" fill="grey"> tokens</text>
</g>
<!-- Node2&#45;&gt;Node2 -->
<g id="edge2_Node000002_Node000002" class="edge">
<title>Node2&#45;&gt;Node2</title>
<g id="a_edge2_Node000002_Node000002"><a xlink:title=" ">
<path fill="none" stroke="#9a32cd" stroke-dasharray="5,2" d="M75.51,-80.67C80.04,-79.74 83,-78.01 83,-75.5 83,-71.38 75.02,-69.38 65.24,-69.51"/>
<polygon fill="#9a32cd" stroke="#9a32cd" points="74.93,-77.21 65.24,-81.49 75.49,-84.18 74.93,-77.21"/>
</a>
</g>
<text text-anchor="middle" x="95.5" y="-73" font-family="Helvetica,sans-Serif" font-size="10.00" fill="grey"> next</text>
</g>
</g>
</svg>
