<?xml version="1.0" encoding="UTF-8" standalone="no"?>
<!DOCTYPE svg PUBLIC "-//W3C//DTD SVG 1.1//EN"
 "http://www.w3.org/Graphics/SVG/1.1/DTD/svg11.dtd">
<!-- Generated by graphviz version 2.43.0 (0)
 -->
<!-- Title: ft_mtx_cmd Pages: 1 -->
<svg width="1171pt" height="65pt"
 viewBox="0.00 0.00 1171.00 65.00" xmlns="http://www.w3.org/2000/svg" xmlns:xlink="http://www.w3.org/1999/xlink">
<g id="graph0" class="graph" transform="scale(1 1) rotate(0) translate(4 61)">
<title>ft_mtx_cmd</title>
<!-- Node1 -->
<g id="Node000001" class="node">
<title>Node1</title>
<g id="a_Node000001"><a xlink:title="Prepares the argument matrix for execve.">
<polygon fill="#999999" stroke="#666666" points="1163,-37 1089,-37 1089,-18 1163,-18 1163,-37"/>
<text text-anchor="middle" x="1126" y="-25" font-family="Helvetica,sans-Serif" font-size="10.00">ft_mtx_cmd</text>
</a>
</g>
</g>
<!-- Node2 -->
<g id="Node000002" class="node">
<title>Node2</title>
<g id="a_Node000002"><a xlink:href="system__commands_8c.html#a6dfb68d4eb4b73539a6d36f36d23d093" target="_top" xlink:title="Function executed by the child process to run a command.">
<polygon fill="white" stroke="#666666" points="1014.5,-56 962.5,-56 962.5,-37 1014.5,-37 1014.5,-56"/>
<text text-anchor="middle" x="988.5" y="-44" font-family="Helvetica,sans-Serif" font-size="10.00">ft_child</text>
</a>
</g>
</g>
<!-- Node1&#45;&gt;Node2 -->
<g id="edge1_Node000001_Node000002" class="edge">
<title>Node1&#45;&gt;Node2</title>
<g id="a_edge1_Node000001_Node000002"><a xlink:title=" ">
<path fill="none" stroke="#63b8ff" d="M1078.5,-34.02C1057.13,-37.02 1032.63,-40.45 1014.76,-42.96"/>
<polygon fill="#63b8ff" stroke="#63b8ff" points="1079.27,-37.45 1088.69,-32.59 1078.3,-30.51 1079.27,-37.45"/>
</a>
</g>
</g>
<!-- Node8 -->
<g id="Node000008" class="node">
<title>Node8</title>
<g id="a_Node000008"><a xlink:href="pipes_8c.html#ac1cb08fe66e7823c939af4fab981e93c" target="_top" xlink:title="Executes a system command inside a pipe.">
<polygon fill="white" stroke="#666666" points="1053,-19 924,-19 924,0 1053,0 1053,-19"/>
<text text-anchor="middle" x="988.5" y="-7" font-family="Helvetica,sans-Serif" font-size="10.00">ft_exe_syscmd_in_pipe</text>
</a>
</g>
</g>
<!-- Node1&#45;&gt;Node8 -->
<g id="edge7_Node000001_Node000008" class="edge">
<title>Node1&#45;&gt;Node8</title>
<g id="a_edge7_Node000001_Node000008"><a xlink:title=" ">
<path fill="none" stroke="#63b8ff" d="M1078.58,-21.33C1070.37,-20.24 1061.7,-19.09 1053.12,-17.95"/>
<polygon fill="#63b8ff" stroke="#63b8ff" points="1078.31,-24.83 1088.69,-22.68 1079.24,-17.89 1078.31,-24.83"/>
</a>
</g>
</g>
<!-- Node3 -->
<g id="Node000003" class="node">
<title>Node3</title>
<g id="a_Node000003"><a xlink:href="system__commands_8c.html#a6d8647dce4277e848c613bd0cc3df5bb" target="_top" xlink:title="Executes a system command by creating a child process.">
<polygon fill="white" stroke="#666666" points="883.5,-56 794.5,-56 794.5,-37 883.5,-37 883.5,-56"/>
<text text-anchor="middle" x="839" y="-44" font-family="Helvetica,sans-Serif" font-size="10.00">ft_exe_syscmd</text>
</a>
</g>
</g>
<!-- Node2&#45;&gt;Node3 -->
<g id="edge2_Node000002_Node000003" class="edge">
<title>Node2&#45;&gt;Node3</title>
<g id="a_edge2_Node000002_Node000003"><a xlink:title=" ">
<path fill="none" stroke="#63b8ff" d="M952.28,-46.5C931.7,-46.5 905.56,-46.5 883.68,-46.5"/>
<polygon fill="#63b8ff" stroke="#63b8ff" points="952.48,-50 962.48,-46.5 952.48,-43 952.48,-50"/>
</a>
</g>
</g>
<!-- Node4 -->
<g id="Node000004" class="node">
<title>Node4</title>
<g id="a_Node000004"><a xlink:href="cmd__execution_8c.html#a5ce7231f800cbacea6350cc1a32a59bd" target="_top" xlink:title="Executes a list of non&#45;pipelined commands.">
<polygon fill="white" stroke="#666666" points="617.5,-57 545.5,-57 545.5,-38 617.5,-38 617.5,-57"/>
<text text-anchor="middle" x="581.5" y="-45" font-family="Helvetica,sans-Serif" font-size="10.00">ft_exe_cmd</text>
</a>
</g>
</g>
<!-- Node3&#45;&gt;Node4 -->
<g id="edge3_Node000003_Node000004" class="edge">
<title>Node3&#45;&gt;Node4</title>
<g id="a_edge3_Node000003_Node000004"><a xlink:title=" ">
<path fill="none" stroke="#63b8ff" d="M784.36,-46.71C734.23,-46.91 660.83,-47.19 617.73,-47.36"/>
<polygon fill="#63b8ff" stroke="#63b8ff" points="784.38,-50.21 794.37,-46.67 784.35,-43.21 784.38,-50.21"/>
</a>
</g>
</g>
<!-- Node5 -->
<g id="Node000005" class="node">
<title>Node5</title>
<g id="a_Node000005"><a xlink:href="main__utils_8c.html#a7e8f478480ab6ab34d6f5eadaf6acdb9" target="_top" xlink:title="Handles parsing and execution of tokens.">
<polygon fill="white" stroke="#666666" points="273,-38 192,-38 192,-19 273,-19 273,-38"/>
<text text-anchor="middle" x="232.5" y="-26" font-family="Helvetica,sans-Serif" font-size="10.00">ft_token_flow</text>
</a>
</g>
</g>
<!-- Node4&#45;&gt;Node5 -->
<g id="edge4_Node000004_Node000005" class="edge">
<title>Node4&#45;&gt;Node5</title>
<g id="a_edge4_Node000004_Node000005"><a xlink:title=" ">
<path fill="none" stroke="#63b8ff" d="M535.27,-45.02C466.79,-41.27 337.93,-34.22 273.01,-30.66"/>
<polygon fill="#63b8ff" stroke="#63b8ff" points="535.14,-48.52 545.32,-45.57 535.52,-41.53 535.14,-48.52"/>
</a>
</g>
</g>
<!-- Node6 -->
<g id="Node000006" class="node">
<title>Node6</title>
<g id="a_Node000006"><a xlink:href="main__utils_8c.html#ae35edfb8f1339d6f77f53c28eb2a2ed6" target="_top" xlink:title="Handles a complete cycle of input → parsing → execution.">
<polygon fill="white" stroke="#666666" points="156,-38 77,-38 77,-19 156,-19 156,-38"/>
<text text-anchor="middle" x="116.5" y="-26" font-family="Helvetica,sans-Serif" font-size="10.00">ft_main_flow</text>
</a>
</g>
</g>
<!-- Node5&#45;&gt;Node6 -->
<g id="edge5_Node000005_Node000006" class="edge">
<title>Node5&#45;&gt;Node6</title>
<g id="a_edge5_Node000005_Node000006"><a xlink:title=" ">
<path fill="none" stroke="#63b8ff" d="M181.7,-28.5C173.16,-28.5 164.4,-28.5 156.21,-28.5"/>
<polygon fill="#63b8ff" stroke="#63b8ff" points="181.95,-32 191.95,-28.5 181.95,-25 181.95,-32"/>
</a>
</g>
</g>
<!-- Node7 -->
<g id="Node000007" class="node">
<title>Node7</title>
<g id="a_Node000007"><a xlink:href="main_8c.html#ab3862b46d6a8d13c2d884a297e6b05b5" target="_top" xlink:title="Main function of the minishell.">
<polygon fill="white" stroke="#666666" points="41,-38 0,-38 0,-19 41,-19 41,-38"/>
<text text-anchor="middle" x="20.5" y="-26" font-family="Helvetica,sans-Serif" font-size="10.00">main</text>
</a>
</g>
</g>
<!-- Node6&#45;&gt;Node7 -->
<g id="edge6_Node000006_Node000007" class="edge">
<title>Node6&#45;&gt;Node7</title>
<g id="a_edge6_Node000006_Node000007"><a xlink:title=" ">
<path fill="none" stroke="#63b8ff" d="M66.74,-28.5C57.62,-28.5 48.59,-28.5 41.03,-28.5"/>
<polygon fill="#63b8ff" stroke="#63b8ff" points="67,-32 77,-28.5 67,-25 67,-32"/>
</a>
</g>
</g>
<!-- Node9 -->
<g id="Node000009" class="node">
<title>Node9</title>
<g id="a_Node000009"><a xlink:href="cmd__execution_8c.html#a50e59fa2e4621831a415d4038f697c56" target="_top" xlink:title="Executes a command within a pipeline.">
<polygon fill="white" stroke="#666666" points="888,-19 790,-19 790,0 888,0 888,-19"/>
<text text-anchor="middle" x="839" y="-7" font-family="Helvetica,sans-Serif" font-size="10.00">ft_exe_pipe_cmd</text>
</a>
</g>
</g>
<!-- Node8&#45;&gt;Node9 -->
<g id="edge8_Node000008_Node000009" class="edge">
<title>Node8&#45;&gt;Node9</title>
<g id="a_edge8_Node000008_Node000009"><a xlink:title=" ">
<path fill="none" stroke="#63b8ff" d="M913.62,-9.5C905.05,-9.5 896.47,-9.5 888.37,-9.5"/>
<polygon fill="#63b8ff" stroke="#63b8ff" points="913.66,-13 923.66,-9.5 913.66,-6 913.66,-13"/>
</a>
</g>
</g>
<!-- Node10 -->
<g id="Node000010" class="node">
<title>Node10</title>
<g id="a_Node000010"><a xlink:href="pipes_8c.html#a36a2d91a0566ad253efe3833b05e69d1" target="_top" xlink:title="Routine executed by the child process for each command in the pipe.">
<polygon fill="white" stroke="#666666" points="754,-19 662,-19 662,0 754,0 754,-19"/>
<text text-anchor="middle" x="708" y="-7" font-family="Helvetica,sans-Serif" font-size="10.00">ft_child_routine</text>
</a>
</g>
</g>
<!-- Node9&#45;&gt;Node10 -->
<g id="edge9_Node000009_Node000010" class="edge">
<title>Node9&#45;&gt;Node10</title>
<g id="a_edge9_Node000009_Node000010"><a xlink:title=" ">
<path fill="none" stroke="#63b8ff" d="M779.91,-9.5C771.24,-9.5 762.42,-9.5 754.08,-9.5"/>
<polygon fill="#63b8ff" stroke="#63b8ff" points="779.97,-13 789.97,-9.5 779.97,-6 779.97,-13"/>
</a>
</g>
</g>
<!-- Node11 -->
<g id="Node000011" class="node">
<title>Node11</title>
<g id="a_Node000011"><a xlink:href="pipes_8c.html#aa17e847997e7266a0a111ab3572756bb" target="_top" xlink:title="Manages pipe creation and fork to execute the current command.">
<polygon fill="white" stroke="#666666" points="626,-19 537,-19 537,0 626,0 626,-19"/>
<text text-anchor="middle" x="581.5" y="-7" font-family="Helvetica,sans-Serif" font-size="10.00">ft_pipe_routine</text>
</a>
</g>
</g>
<!-- Node10&#45;&gt;Node11 -->
<g id="edge10_Node000010_Node000011" class="edge">
<title>Node10&#45;&gt;Node11</title>
<g id="a_edge10_Node000010_Node000011"><a xlink:title=" ">
<path fill="none" stroke="#63b8ff" d="M651.52,-9.5C643.08,-9.5 634.46,-9.5 626.31,-9.5"/>
<polygon fill="#63b8ff" stroke="#63b8ff" points="651.7,-13 661.7,-9.5 651.7,-6 651.7,-13"/>
</a>
</g>
</g>
<!-- Node12 -->
<g id="Node000012" class="node">
<title>Node12</title>
<g id="a_Node000012"><a xlink:href="pipes_8c.html#a7a3b0de1a88a243da741f748881e14f0" target="_top" xlink:title="Executes a list of commands connected via pipes.">
<polygon fill="white" stroke="#666666" points="501,-19 420,-19 420,0 501,0 501,-19"/>
<text text-anchor="middle" x="460.5" y="-7" font-family="Helvetica,sans-Serif" font-size="10.00">execute_pipe</text>
</a>
</g>
</g>
<!-- Node11&#45;&gt;Node12 -->
<g id="edge11_Node000011_Node000012" class="edge">
<title>Node11&#45;&gt;Node12</title>
<g id="a_edge11_Node000011_Node000012"><a xlink:title=" ">
<path fill="none" stroke="#63b8ff" d="M526.85,-9.5C518.22,-9.5 509.42,-9.5 501.19,-9.5"/>
<polygon fill="#63b8ff" stroke="#63b8ff" points="526.86,-13 536.86,-9.5 526.86,-6 526.86,-13"/>
</a>
</g>
</g>
<!-- Node13 -->
<g id="Node000013" class="node">
<title>Node13</title>
<g id="a_Node000013"><a xlink:href="main__utils_8c.html#ad0183732909ae6e7c52e7b086c2e5642" target="_top" xlink:title="Manages the execution flow of commands with pipes.">
<polygon fill="white" stroke="#666666" points="384,-19 309,-19 309,0 384,0 384,-19"/>
<text text-anchor="middle" x="346.5" y="-7" font-family="Helvetica,sans-Serif" font-size="10.00">ft_pipe_flow</text>
</a>
</g>
</g>
<!-- Node12&#45;&gt;Node13 -->
<g id="edge12_Node000012_Node000013" class="edge">
<title>Node12&#45;&gt;Node13</title>
<g id="a_edge12_Node000012_Node000013"><a xlink:title=" ">
<path fill="none" stroke="#63b8ff" d="M409.47,-9.5C400.96,-9.5 392.26,-9.5 384.18,-9.5"/>
<polygon fill="#63b8ff" stroke="#63b8ff" points="409.7,-13 419.7,-9.5 409.7,-6 409.7,-13"/>
</a>
</g>
</g>
<!-- Node13&#45;&gt;Node5 -->
<g id="edge13_Node000013_Node000005" class="edge">
<title>Node13&#45;&gt;Node5</title>
<g id="a_edge13_Node000013_Node000005"><a xlink:title=" ">
<path fill="none" stroke="#63b8ff" d="M298.73,-17.43C290.29,-18.87 281.57,-20.35 273.35,-21.74"/>
<polygon fill="#63b8ff" stroke="#63b8ff" points="299.55,-20.84 308.83,-15.72 298.38,-13.94 299.55,-20.84"/>
</a>
</g>
</g>
</g>
</svg>
