<?xml version="1.0" encoding="UTF-8" standalone="no"?>
<!DOCTYPE svg PUBLIC "-//W3C//DTD SVG 1.1//EN"
 "http://www.w3.org/Graphics/SVG/1.1/DTD/svg11.dtd">
<!-- Generated by graphviz version 2.43.0 (0)
 -->
<!-- Title: system_commands/system_commands.h Pages: 1 -->
<svg width="518pt" height="214pt"
 viewBox="0.00 0.00 517.50 214.00" xmlns="http://www.w3.org/2000/svg" xmlns:xlink="http://www.w3.org/1999/xlink">
<g id="graph0" class="graph" transform="scale(1 1) rotate(0) translate(4 210)">
<title>system_commands/system_commands.h</title>
<!-- Node1 -->
<g id="Node000001" class="node">
<title>Node1</title>
<g id="a_Node000001"><a xlink:title=" ">
<polygon fill="#999999" stroke="#666666" points="375.5,-206 224.5,-206 224.5,-176 375.5,-176 375.5,-206"/>
<text text-anchor="start" x="232.5" y="-194" font-family="Helvetica,sans-Serif" font-size="10.00">system_commands/system</text>
<text text-anchor="middle" x="300" y="-183" font-family="Helvetica,sans-Serif" font-size="10.00">_commands.h</text>
</a>
</g>
</g>
<!-- Node2 -->
<g id="Node000002" class="node">
<title>Node2</title>
<g id="a_Node000002"><a xlink:href="minishell_8h.html" target="_top" xlink:title=" ">
<polygon fill="white" stroke="#666666" points="232,-74 134,-74 134,-55 232,-55 232,-74"/>
<text text-anchor="middle" x="183" y="-62" font-family="Helvetica,sans-Serif" font-size="10.00">main/minishell.h</text>
</a>
</g>
</g>
<!-- Node1&#45;&gt;Node2 -->
<g id="edge1_Node000001_Node000002" class="edge">
<title>Node1&#45;&gt;Node2</title>
<g id="a_edge1_Node000001_Node000002"><a xlink:title=" ">
<path fill="none" stroke="#63b8ff" d="M278.02,-168.52C269.21,-159.78 259.02,-149.51 250,-140 227.97,-116.78 203,-88.45 190.69,-74.35"/>
<polygon fill="#63b8ff" stroke="#63b8ff" points="275.78,-171.23 285.35,-175.76 280.7,-166.24 275.78,-171.23"/>
</a>
</g>
</g>
<!-- Node6 -->
<g id="Node000006" class="node">
<title>Node6</title>
<g id="a_Node000006"><a xlink:href="pipes_8h.html" target="_top" xlink:title=" ">
<polygon fill="white" stroke="#666666" points="340.5,-134.5 259.5,-134.5 259.5,-115.5 340.5,-115.5 340.5,-134.5"/>
<text text-anchor="middle" x="300" y="-122.5" font-family="Helvetica,sans-Serif" font-size="10.00">pipes/pipes.h</text>
</a>
</g>
</g>
<!-- Node1&#45;&gt;Node6 -->
<g id="edge5_Node000001_Node000006" class="edge">
<title>Node1&#45;&gt;Node6</title>
<g id="a_edge5_Node000001_Node000006"><a xlink:title=" ">
<path fill="none" stroke="#63b8ff" d="M300,-165.6C300,-154.8 300,-142.78 300,-134.84"/>
<polygon fill="#63b8ff" stroke="#63b8ff" points="296.5,-165.8 300,-175.8 303.5,-165.8 296.5,-165.8"/>
</a>
</g>
</g>
<!-- Node9 -->
<g id="Node000009" class="node">
<title>Node9</title>
<g id="a_Node000009"><a xlink:href="system__commands_8c.html" target="_top" xlink:title=" ">
<polygon fill="white" stroke="#666666" points="509.5,-140 358.5,-140 358.5,-110 509.5,-110 509.5,-140"/>
<text text-anchor="start" x="366.5" y="-128" font-family="Helvetica,sans-Serif" font-size="10.00">system_commands/system</text>
<text text-anchor="middle" x="434" y="-117" font-family="Helvetica,sans-Serif" font-size="10.00">_commands.c</text>
</a>
</g>
</g>
<!-- Node1&#45;&gt;Node9 -->
<g id="edge9_Node000001_Node000009" class="edge">
<title>Node1&#45;&gt;Node9</title>
<g id="a_edge9_Node000001_Node000009"><a xlink:title=" ">
<path fill="none" stroke="#63b8ff" d="M338.71,-171.51C359.73,-161.47 385.3,-149.26 404.66,-140.01"/>
<polygon fill="#63b8ff" stroke="#63b8ff" points="336.92,-168.49 329.41,-175.95 339.94,-174.8 336.92,-168.49"/>
</a>
</g>
</g>
<!-- Node3 -->
<g id="Node000003" class="node">
<title>Node3</title>
<g id="a_Node000003"><a xlink:href="cmd__execution_8c.html" target="_top" xlink:title=" ">
<polygon fill="white" stroke="#666666" points="126,-19 0,-19 0,0 126,0 126,-19"/>
<text text-anchor="middle" x="63" y="-7" font-family="Helvetica,sans-Serif" font-size="10.00">main/cmd_execution.c</text>
</a>
</g>
</g>
<!-- Node2&#45;&gt;Node3 -->
<g id="edge2_Node000002_Node000003" class="edge">
<title>Node2&#45;&gt;Node3</title>
<g id="a_edge2_Node000002_Node000003"><a xlink:title=" ">
<path fill="none" stroke="#63b8ff" d="M154.47,-50.9C132.3,-41.11 102.15,-27.79 82.63,-19.17"/>
<polygon fill="#63b8ff" stroke="#63b8ff" points="153.16,-54.15 163.72,-54.98 155.99,-47.74 153.16,-54.15"/>
</a>
</g>
</g>
<!-- Node4 -->
<g id="Node000004" class="node">
<title>Node4</title>
<g id="a_Node000004"><a xlink:href="main_8c.html" target="_top" xlink:title=" ">
<polygon fill="white" stroke="#666666" points="221.5,-19 144.5,-19 144.5,0 221.5,0 221.5,-19"/>
<text text-anchor="middle" x="183" y="-7" font-family="Helvetica,sans-Serif" font-size="10.00">main/main.c</text>
</a>
</g>
</g>
<!-- Node2&#45;&gt;Node4 -->
<g id="edge3_Node000002_Node000004" class="edge">
<title>Node2&#45;&gt;Node4</title>
<g id="a_edge3_Node000002_Node000004"><a xlink:title=" ">
<path fill="none" stroke="#63b8ff" d="M183,-44.66C183,-35.93 183,-25.99 183,-19.09"/>
<polygon fill="#63b8ff" stroke="#63b8ff" points="179.5,-44.75 183,-54.75 186.5,-44.75 179.5,-44.75"/>
</a>
</g>
</g>
<!-- Node5 -->
<g id="Node000005" class="node">
<title>Node5</title>
<g id="a_Node000005"><a xlink:href="main__utils_8c.html" target="_top" xlink:title=" ">
<polygon fill="white" stroke="#666666" points="344,-19 240,-19 240,0 344,0 344,-19"/>
<text text-anchor="middle" x="292" y="-7" font-family="Helvetica,sans-Serif" font-size="10.00">main/main_utils.c</text>
</a>
</g>
</g>
<!-- Node2&#45;&gt;Node5 -->
<g id="edge4_Node000002_Node000005" class="edge">
<title>Node2&#45;&gt;Node5</title>
<g id="a_edge4_Node000002_Node000005"><a xlink:title=" ">
<path fill="none" stroke="#63b8ff" d="M209.73,-50.5C229.79,-40.75 256.68,-27.68 274.17,-19.17"/>
<polygon fill="#63b8ff" stroke="#63b8ff" points="207.98,-47.46 200.51,-54.98 211.04,-53.76 207.98,-47.46"/>
</a>
</g>
</g>
<!-- Node6&#45;&gt;Node2 -->
<g id="edge6_Node000006_Node000002" class="edge">
<title>Node6&#45;&gt;Node2</title>
<g id="a_edge6_Node000006_Node000002"><a xlink:title=" ">
<path fill="none" stroke="#63b8ff" d="M273.96,-110.98C251.42,-99.71 219.45,-83.73 200.03,-74.02"/>
<polygon fill="#63b8ff" stroke="#63b8ff" points="272.48,-114.15 282.99,-115.49 275.61,-107.89 272.48,-114.15"/>
</a>
</g>
</g>
<!-- Node7 -->
<g id="Node000007" class="node">
<title>Node7</title>
<g id="a_Node000007"><a xlink:href="create__pipe__list_8c.html" target="_top" xlink:title=" ">
<polygon fill="white" stroke="#666666" points="381.5,-74 250.5,-74 250.5,-55 381.5,-55 381.5,-74"/>
<text text-anchor="middle" x="316" y="-62" font-family="Helvetica,sans-Serif" font-size="10.00">pipes/create_pipe_list.c</text>
</a>
</g>
</g>
<!-- Node6&#45;&gt;Node7 -->
<g id="edge7_Node000006_Node000007" class="edge">
<title>Node6&#45;&gt;Node7</title>
<g id="a_edge7_Node000006_Node000007"><a xlink:title=" ">
<path fill="none" stroke="#63b8ff" d="M305.06,-105.49C307.93,-95.01 311.38,-82.39 313.63,-74.17"/>
<polygon fill="#63b8ff" stroke="#63b8ff" points="301.62,-104.8 302.36,-115.37 308.38,-106.65 301.62,-104.8"/>
</a>
</g>
</g>
<!-- Node8 -->
<g id="Node000008" class="node">
<title>Node8</title>
<g id="a_Node000008"><a xlink:href="pipes_8c.html" target="_top" xlink:title=" ">
<polygon fill="white" stroke="#666666" points="480,-74 400,-74 400,-55 480,-55 480,-74"/>
<text text-anchor="middle" x="440" y="-62" font-family="Helvetica,sans-Serif" font-size="10.00">pipes/pipes.c</text>
</a>
</g>
</g>
<!-- Node6&#45;&gt;Node8 -->
<g id="edge8_Node000006_Node000008" class="edge">
<title>Node6&#45;&gt;Node8</title>
<g id="a_edge8_Node000006_Node000008"><a xlink:title=" ">
<path fill="none" stroke="#63b8ff" d="M329.72,-111.58C356.76,-100.28 395.97,-83.9 419.62,-74.02"/>
<polygon fill="#63b8ff" stroke="#63b8ff" points="328.23,-108.41 320.36,-115.49 330.93,-114.87 328.23,-108.41"/>
</a>
</g>
</g>
</g>
</svg>
