<?xml version="1.0" encoding="UTF-8" standalone="no"?>
<!DOCTYPE svg PUBLIC "-//W3C//DTD SVG 1.1//EN"
 "http://www.w3.org/Graphics/SVG/1.1/DTD/svg11.dtd">
<!-- Generated by graphviz version 2.43.0 (0)
 -->
<!-- Title: system_commands/system_commands.h Pages: 1 -->
<svg width="910pt" height="269pt"
 viewBox="0.00 0.00 910.00 269.00" xmlns="http://www.w3.org/2000/svg" xmlns:xlink="http://www.w3.org/1999/xlink">
<g id="graph0" class="graph" transform="scale(1 1) rotate(0) translate(4 265)">
<title>system_commands/system_commands.h</title>
<!-- Node1 -->
<g id="Node000001" class="node">
<title>Node1</title>
<g id="a_Node000001"><a xlink:title=" ">
<polygon fill="#999999" stroke="#666666" points="635,-261 484,-261 484,-231 635,-231 635,-261"/>
<text text-anchor="start" x="492" y="-249" font-family="Helvetica,sans-Serif" font-size="10.00">system_commands/system</text>
<text text-anchor="middle" x="559.5" y="-238" font-family="Helvetica,sans-Serif" font-size="10.00">_commands.h</text>
</a>
</g>
</g>
<!-- Node2 -->
<g id="Node000002" class="node">
<title>Node2</title>
<g id="a_Node000002"><a xlink:href="libft_8h.html" target="_top" xlink:title=" ">
<polygon fill="white" stroke="#666666" points="632,-74 557,-74 557,-55 632,-55 632,-74"/>
<text text-anchor="middle" x="594.5" y="-62" font-family="Helvetica,sans-Serif" font-size="10.00">../libft/libft.h</text>
</a>
</g>
</g>
<!-- Node1&#45;&gt;Node2 -->
<g id="edge1_Node000001_Node000002" class="edge">
<title>Node1&#45;&gt;Node2</title>
<g id="a_edge1_Node000001_Node000002"><a xlink:title=" ">
<path fill="none" stroke="#63b8ff" d="M562.25,-230.91C568.5,-198.85 583.8,-120.38 590.84,-84.26"/>
<polygon fill="#63b8ff" stroke="#63b8ff" points="594.34,-84.62 592.82,-74.13 587.47,-83.28 594.34,-84.62"/>
</a>
</g>
</g>
<!-- Node3 -->
<g id="Node000003" class="node">
<title>Node3</title>
<g id="a_Node000003"><a xlink:title=" ">
<polygon fill="#e0e0e0" stroke="#999999" points="294.5,-19 238.5,-19 238.5,0 294.5,0 294.5,-19"/>
<text text-anchor="middle" x="266.5" y="-7" font-family="Helvetica,sans-Serif" font-size="10.00">unistd.h</text>
</a>
</g>
</g>
<!-- Node1&#45;&gt;Node3 -->
<g id="edge29_Node000001_Node000003" class="edge">
<title>Node1&#45;&gt;Node3</title>
<g id="a_edge29_Node000001_Node000003"><a xlink:title=" ">
<path fill="none" stroke="#63b8ff" d="M483.86,-244.4C372.29,-238.82 167.74,-209.55 83.5,-74 50.04,-20.16 165.08,-11.18 228.07,-10.19"/>
<polygon fill="#63b8ff" stroke="#63b8ff" points="228.1,-13.69 238.07,-10.09 228.04,-6.69 228.1,-13.69"/>
</a>
</g>
</g>
<!-- Node4 -->
<g id="Node000004" class="node">
<title>Node4</title>
<g id="a_Node000004"><a xlink:title=" ">
<polygon fill="#e0e0e0" stroke="#999999" points="53,-19 0,-19 0,0 53,0 53,-19"/>
<text text-anchor="middle" x="26.5" y="-7" font-family="Helvetica,sans-Serif" font-size="10.00">stdlib.h</text>
</a>
</g>
</g>
<!-- Node1&#45;&gt;Node4 -->
<g id="edge28_Node000001_Node000004" class="edge">
<title>Node1&#45;&gt;Node4</title>
<g id="a_edge28_Node000001_Node000004"><a xlink:title=" ">
<path fill="none" stroke="#63b8ff" d="M483.7,-244.39C408.15,-241.55 289.95,-231 194.5,-195 118.18,-166.21 100.38,-142.76 56.5,-74 47.18,-59.4 38.97,-41.46 33.5,-28.37"/>
<polygon fill="#63b8ff" stroke="#63b8ff" points="36.74,-27.03 29.74,-19.08 30.25,-29.66 36.74,-27.03"/>
</a>
</g>
</g>
<!-- Node7 -->
<g id="Node000007" class="node">
<title>Node7</title>
<g id="a_Node000007"><a xlink:title=" ">
<polygon fill="#e0e0e0" stroke="#999999" points="902,-19 847,-19 847,0 902,0 902,-19"/>
<text text-anchor="middle" x="874.5" y="-7" font-family="Helvetica,sans-Serif" font-size="10.00">signal.h</text>
</a>
</g>
</g>
<!-- Node1&#45;&gt;Node7 -->
<g id="edge27_Node000001_Node000007" class="edge">
<title>Node1&#45;&gt;Node7</title>
<g id="a_edge27_Node000001_Node000007"><a xlink:title=" ">
<path fill="none" stroke="#63b8ff" d="M629.69,-230.97C708.2,-211.1 831.54,-166.35 886.5,-74 894.73,-60.17 889.97,-41.9 884.19,-28.51"/>
<polygon fill="#63b8ff" stroke="#63b8ff" points="887.28,-26.86 879.78,-19.38 880.98,-29.9 887.28,-26.86"/>
</a>
</g>
</g>
<!-- Node12 -->
<g id="Node000012" class="node">
<title>Node12</title>
<g id="a_Node000012"><a xlink:href="common__utils_8h.html" target="_top" xlink:title=" ">
<polygon fill="white" stroke="#666666" points="479.5,-140 339.5,-140 339.5,-110 479.5,-110 479.5,-140"/>
<text text-anchor="start" x="347.5" y="-128" font-family="Helvetica,sans-Serif" font-size="10.00">../common_utils/common</text>
<text text-anchor="middle" x="409.5" y="-117" font-family="Helvetica,sans-Serif" font-size="10.00">_utils.h</text>
</a>
</g>
</g>
<!-- Node1&#45;&gt;Node12 -->
<g id="edge11_Node000001_Node000012" class="edge">
<title>Node1&#45;&gt;Node12</title>
<g id="a_edge11_Node000001_Node000012"><a xlink:title=" ">
<path fill="none" stroke="#63b8ff" d="M549.46,-230.75C538.43,-215.81 519.6,-192.29 499.5,-176 484.64,-163.96 466.48,-153.25 450.37,-144.86"/>
<polygon fill="#63b8ff" stroke="#63b8ff" points="451.67,-141.59 441.17,-140.2 448.51,-147.84 451.67,-141.59"/>
</a>
</g>
</g>
<!-- Node14 -->
<g id="Node000014" class="node">
<title>Node14</title>
<g id="a_Node000014"><a xlink:title=" ">
<polygon fill="#e0e0e0" stroke="#999999" points="758.5,-74 650.5,-74 650.5,-55 758.5,-55 758.5,-74"/>
<text text-anchor="middle" x="704.5" y="-62" font-family="Helvetica,sans-Serif" font-size="10.00">readline/readline.h</text>
</a>
</g>
</g>
<!-- Node1&#45;&gt;Node14 -->
<g id="edge25_Node000001_Node000014" class="edge">
<title>Node1&#45;&gt;Node14</title>
<g id="a_edge25_Node000001_Node000014"><a xlink:title=" ">
<path fill="none" stroke="#63b8ff" d="M570.88,-230.91C597.34,-198.15 662.93,-116.97 691.19,-81.98"/>
<polygon fill="#63b8ff" stroke="#63b8ff" points="693.96,-84.11 697.52,-74.13 688.52,-79.71 693.96,-84.11"/>
</a>
</g>
</g>
<!-- Node15 -->
<g id="Node000015" class="node">
<title>Node15</title>
<g id="a_Node000015"><a xlink:title=" ">
<polygon fill="#e0e0e0" stroke="#999999" points="878,-74 777,-74 777,-55 878,-55 878,-74"/>
<text text-anchor="middle" x="827.5" y="-62" font-family="Helvetica,sans-Serif" font-size="10.00">readline/history.h</text>
</a>
</g>
</g>
<!-- Node1&#45;&gt;Node15 -->
<g id="edge26_Node000001_Node000015" class="edge">
<title>Node1&#45;&gt;Node15</title>
<g id="a_edge26_Node000001_Node000015"><a xlink:title=" ">
<path fill="none" stroke="#63b8ff" d="M580.53,-230.91C630.48,-197.46 755.83,-113.5 806.12,-79.82"/>
<polygon fill="#63b8ff" stroke="#63b8ff" points="808.25,-82.61 814.61,-74.13 804.35,-76.79 808.25,-82.61"/>
</a>
</g>
</g>
<!-- Node19 -->
<g id="Node000019" class="node">
<title>Node19</title>
<g id="a_Node000019"><a xlink:href="redirections_8h.html" target="_top" xlink:title=" ">
<polygon fill="white" stroke="#666666" points="491,-195 338,-195 338,-176 491,-176 491,-195"/>
<text text-anchor="middle" x="414.5" y="-183" font-family="Helvetica,sans-Serif" font-size="10.00">../redirections/redirections.h</text>
</a>
</g>
</g>
<!-- Node1&#45;&gt;Node19 -->
<g id="edge23_Node000001_Node000019" class="edge">
<title>Node1&#45;&gt;Node19</title>
<g id="a_edge23_Node000001_Node000019"><a xlink:title=" ">
<path fill="none" stroke="#63b8ff" d="M524.77,-230.99C500.58,-221.23 468.6,-208.33 445.31,-198.93"/>
<polygon fill="#63b8ff" stroke="#63b8ff" points="446.5,-195.63 435.91,-195.14 443.88,-202.13 446.5,-195.63"/>
</a>
</g>
</g>
<!-- Node2&#45;&gt;Node3 -->
<g id="edge2_Node000002_Node000003" class="edge">
<title>Node2&#45;&gt;Node3</title>
<g id="a_edge2_Node000002_Node000003"><a xlink:title=" ">
<path fill="none" stroke="#63b8ff" d="M556.81,-56.59C553.66,-56.04 550.53,-55.5 547.5,-55 442.84,-37.56 416.09,-36.85 311.5,-19 309.19,-18.61 306.81,-18.19 304.41,-17.76"/>
<polygon fill="#63b8ff" stroke="#63b8ff" points="305.02,-14.31 294.56,-15.96 303.77,-21.2 305.02,-14.31"/>
</a>
</g>
</g>
<!-- Node2&#45;&gt;Node4 -->
<g id="edge3_Node000002_Node000004" class="edge">
<title>Node2&#45;&gt;Node4</title>
<g id="a_edge3_Node000002_Node000004"><a xlink:title=" ">
<path fill="none" stroke="#63b8ff" d="M556.84,-56.37C553.69,-55.87 550.54,-55.4 547.5,-55 366.7,-30.98 148.8,-17.26 63.38,-12.46"/>
<polygon fill="#63b8ff" stroke="#63b8ff" points="63.34,-8.95 53.16,-11.89 62.95,-15.94 63.34,-8.95"/>
</a>
</g>
</g>
<!-- Node5 -->
<g id="Node000005" class="node">
<title>Node5</title>
<g id="a_Node000005"><a xlink:title=" ">
<polygon fill="#e0e0e0" stroke="#999999" points="374,-19 321,-19 321,0 374,0 374,-19"/>
<text text-anchor="middle" x="347.5" y="-7" font-family="Helvetica,sans-Serif" font-size="10.00">string.h</text>
</a>
</g>
</g>
<!-- Node2&#45;&gt;Node5 -->
<g id="edge4_Node000002_Node000005" class="edge">
<title>Node2&#45;&gt;Node5</title>
<g id="a_edge4_Node000002_Node000005"><a xlink:title=" ">
<path fill="none" stroke="#63b8ff" d="M556.91,-55.5C515.25,-46.63 446.06,-31.86 386.5,-19 385.76,-18.84 385.02,-18.68 384.27,-18.52"/>
<polygon fill="#63b8ff" stroke="#63b8ff" points="384.87,-15.07 374.35,-16.37 383.38,-21.91 384.87,-15.07"/>
</a>
</g>
</g>
<!-- Node6 -->
<g id="Node000006" class="node">
<title>Node6</title>
<g id="a_Node000006"><a xlink:title=" ">
<polygon fill="#e0e0e0" stroke="#999999" points="513.5,-19 463.5,-19 463.5,0 513.5,0 513.5,-19"/>
<text text-anchor="middle" x="488.5" y="-7" font-family="Helvetica,sans-Serif" font-size="10.00">stdio.h</text>
</a>
</g>
</g>
<!-- Node2&#45;&gt;Node6 -->
<g id="edge5_Node000002_Node000006" class="edge">
<title>Node2&#45;&gt;Node6</title>
<g id="a_edge5_Node000002_Node000006"><a xlink:title=" ">
<path fill="none" stroke="#63b8ff" d="M577.47,-54.98C560.57,-46.54 534.44,-33.47 514.86,-23.68"/>
<polygon fill="#63b8ff" stroke="#63b8ff" points="516.35,-20.51 505.84,-19.17 513.22,-26.77 516.35,-20.51"/>
</a>
</g>
</g>
<!-- Node2&#45;&gt;Node7 -->
<g id="edge6_Node000002_Node000007" class="edge">
<title>Node2&#45;&gt;Node7</title>
<g id="a_edge6_Node000002_Node000007"><a xlink:title=" ">
<path fill="none" stroke="#63b8ff" d="M632.26,-56.35C685.72,-46.23 782.91,-27.84 836.5,-17.69"/>
<polygon fill="#63b8ff" stroke="#63b8ff" points="837.43,-21.08 846.61,-15.78 836.13,-14.2 837.43,-21.08"/>
</a>
</g>
</g>
<!-- Node8 -->
<g id="Node000008" class="node">
<title>Node8</title>
<g id="a_Node000008"><a xlink:title=" ">
<polygon fill="#e0e0e0" stroke="#999999" points="443,-19 396,-19 396,0 443,0 443,-19"/>
<text text-anchor="middle" x="419.5" y="-7" font-family="Helvetica,sans-Serif" font-size="10.00">fcntl.h</text>
</a>
</g>
</g>
<!-- Node2&#45;&gt;Node8 -->
<g id="edge7_Node000002_Node000008" class="edge">
<title>Node2&#45;&gt;Node8</title>
<g id="a_edge7_Node000002_Node000008"><a xlink:title=" ">
<path fill="none" stroke="#63b8ff" d="M566.38,-54.98C535.39,-45.6 485.57,-30.51 452.68,-20.55"/>
<polygon fill="#63b8ff" stroke="#63b8ff" points="453.64,-17.18 443.06,-17.63 451.61,-23.88 453.64,-17.18"/>
</a>
</g>
</g>
<!-- Node9 -->
<g id="Node000009" class="node">
<title>Node9</title>
<g id="a_Node000009"><a xlink:title=" ">
<polygon fill="#e0e0e0" stroke="#999999" points="651,-19 532,-19 532,0 651,0 651,-19"/>
<text text-anchor="middle" x="591.5" y="-7" font-family="Helvetica,sans-Serif" font-size="10.00">bits/types/siginfo_t.h</text>
</a>
</g>
</g>
<!-- Node2&#45;&gt;Node9 -->
<g id="edge8_Node000002_Node000009" class="edge">
<title>Node2&#45;&gt;Node9</title>
<g id="a_edge8_Node000002_Node000009"><a xlink:title=" ">
<path fill="none" stroke="#63b8ff" d="M594,-54.75C593.61,-47.8 593.05,-37.85 592.55,-29.13"/>
<polygon fill="#63b8ff" stroke="#63b8ff" points="596.05,-28.88 591.99,-19.09 589.06,-29.27 596.05,-28.88"/>
</a>
</g>
</g>
<!-- Node10 -->
<g id="Node000010" class="node">
<title>Node10</title>
<g id="a_Node000010"><a xlink:title=" ">
<polygon fill="#e0e0e0" stroke="#999999" points="725.5,-19 669.5,-19 669.5,0 725.5,0 725.5,-19"/>
<text text-anchor="middle" x="697.5" y="-7" font-family="Helvetica,sans-Serif" font-size="10.00">stdarg.h</text>
</a>
</g>
</g>
<!-- Node2&#45;&gt;Node10 -->
<g id="edge9_Node000002_Node000010" class="edge">
<title>Node2&#45;&gt;Node10</title>
<g id="a_edge9_Node000002_Node000010"><a xlink:title=" ">
<path fill="none" stroke="#63b8ff" d="M611.05,-54.98C627.39,-46.57 652.63,-33.59 671.63,-23.81"/>
<polygon fill="#63b8ff" stroke="#63b8ff" points="673.36,-26.86 680.65,-19.17 670.16,-20.63 673.36,-26.86"/>
</a>
</g>
</g>
<!-- Node11 -->
<g id="Node000011" class="node">
<title>Node11</title>
<g id="a_Node000011"><a xlink:title=" ">
<polygon fill="#e0e0e0" stroke="#999999" points="797,-19 744,-19 744,0 797,0 797,-19"/>
<text text-anchor="middle" x="770.5" y="-7" font-family="Helvetica,sans-Serif" font-size="10.00">limits.h</text>
</a>
</g>
</g>
<!-- Node2&#45;&gt;Node11 -->
<g id="edge10_Node000002_Node000011" class="edge">
<title>Node2&#45;&gt;Node11</title>
<g id="a_edge10_Node000002_Node000011"><a xlink:title=" ">
<path fill="none" stroke="#63b8ff" d="M622.78,-54.98C652.98,-45.89 700.96,-31.44 734,-21.49"/>
<polygon fill="#63b8ff" stroke="#63b8ff" points="735.17,-24.79 743.74,-18.56 733.15,-18.09 735.17,-24.79"/>
</a>
</g>
</g>
<!-- Node12&#45;&gt;Node2 -->
<g id="edge12_Node000012_Node000002" class="edge">
<title>Node12&#45;&gt;Node2</title>
<g id="a_edge12_Node000012_Node000002"><a xlink:title=" ">
<path fill="none" stroke="#63b8ff" d="M453.81,-109.99C485.6,-99.94 527.92,-86.55 557.82,-77.1"/>
<polygon fill="#63b8ff" stroke="#63b8ff" points="558.97,-80.41 567.45,-74.05 556.86,-73.73 558.97,-80.41"/>
</a>
</g>
</g>
<!-- Node12&#45;&gt;Node3 -->
<g id="edge22_Node000012_Node000003" class="edge">
<title>Node12&#45;&gt;Node3</title>
<g id="a_edge22_Node000012_Node000003"><a xlink:title=" ">
<path fill="none" stroke="#63b8ff" d="M391.24,-109.84C378.41,-99.87 360.86,-86.17 345.5,-74 324.79,-57.59 301.19,-38.58 285.22,-25.66"/>
<polygon fill="#63b8ff" stroke="#63b8ff" points="287.17,-22.74 277.2,-19.17 282.77,-28.19 287.17,-22.74"/>
</a>
</g>
</g>
<!-- Node12&#45;&gt;Node4 -->
<g id="edge20_Node000012_Node000004" class="edge">
<title>Node12&#45;&gt;Node4</title>
<g id="a_edge20_Node000012_Node000004"><a xlink:title=" ">
<path fill="none" stroke="#63b8ff" d="M339.43,-118.79C257.17,-111.73 126.5,-97.25 83.5,-74 63.62,-63.25 47.19,-42.76 37.16,-27.95"/>
<polygon fill="#63b8ff" stroke="#63b8ff" points="39.88,-25.71 31.52,-19.21 34,-29.51 39.88,-25.71"/>
</a>
</g>
</g>
<!-- Node12&#45;&gt;Node5 -->
<g id="edge21_Node000012_Node000005" class="edge">
<title>Node12&#45;&gt;Node5</title>
<g id="a_edge21_Node000012_Node000005"><a xlink:title=" ">
<path fill="none" stroke="#63b8ff" d="M388.1,-109.91C376.47,-101.05 362.97,-88.55 355.5,-74 348.43,-60.24 346.68,-42.67 346.56,-29.5"/>
<polygon fill="#63b8ff" stroke="#63b8ff" points="350.07,-29.34 346.78,-19.26 343.07,-29.19 350.07,-29.34"/>
</a>
</g>
</g>
<!-- Node12&#45;&gt;Node8 -->
<g id="edge16_Node000012_Node000008" class="edge">
<title>Node12&#45;&gt;Node8</title>
<g id="a_edge16_Node000012_Node000008"><a xlink:title=" ">
<path fill="none" stroke="#63b8ff" d="M388.64,-109.99C371.46,-96.57 351.43,-75.42 361.5,-55 367.99,-41.85 380.43,-31.5 392.14,-24.11"/>
<polygon fill="#63b8ff" stroke="#63b8ff" points="393.96,-27.1 400.83,-19.03 390.43,-21.05 393.96,-27.1"/>
</a>
</g>
</g>
<!-- Node13 -->
<g id="Node000013" class="node">
<title>Node13</title>
<g id="a_Node000013"><a xlink:href="signal__flag_8h.html" target="_top" xlink:title=" ">
<polygon fill="white" stroke="#666666" points="448.5,-74 370.5,-74 370.5,-55 448.5,-55 448.5,-74"/>
<text text-anchor="middle" x="409.5" y="-62" font-family="Helvetica,sans-Serif" font-size="10.00">signal_flag.h</text>
</a>
</g>
</g>
<!-- Node12&#45;&gt;Node13 -->
<g id="edge13_Node000012_Node000013" class="edge">
<title>Node12&#45;&gt;Node13</title>
<g id="a_edge13_Node000012_Node000013"><a xlink:title=" ">
<path fill="none" stroke="#63b8ff" d="M409.5,-109.84C409.5,-102.21 409.5,-92.7 409.5,-84.45"/>
<polygon fill="#63b8ff" stroke="#63b8ff" points="413,-84.27 409.5,-74.27 406,-84.27 413,-84.27"/>
</a>
</g>
</g>
<!-- Node12&#45;&gt;Node14 -->
<g id="edge14_Node000012_Node000014" class="edge">
<title>Node12&#45;&gt;Node14</title>
<g id="a_edge14_Node000012_Node000014"><a xlink:title=" ">
<path fill="none" stroke="#63b8ff" d="M479.79,-110.06C532.45,-99.62 603.4,-85.55 651.38,-76.03"/>
<polygon fill="#63b8ff" stroke="#63b8ff" points="652.13,-79.45 661.25,-74.08 650.76,-72.59 652.13,-79.45"/>
</a>
</g>
</g>
<!-- Node12&#45;&gt;Node15 -->
<g id="edge15_Node000012_Node000015" class="edge">
<title>Node12&#45;&gt;Node15</title>
<g id="a_edge15_Node000012_Node000015"><a xlink:title=" ">
<path fill="none" stroke="#63b8ff" d="M479.81,-114.22C549.82,-104.48 660.64,-89.02 766.83,-74.09"/>
<polygon fill="#63b8ff" stroke="#63b8ff" points="767.35,-77.55 776.76,-72.7 766.37,-70.62 767.35,-77.55"/>
</a>
</g>
</g>
<!-- Node16 -->
<g id="Node000016" class="node">
<title>Node16</title>
<g id="a_Node000016"><a xlink:title=" ">
<polygon fill="#e0e0e0" stroke="#999999" points="538.5,-74 466.5,-74 466.5,-55 538.5,-55 538.5,-74"/>
<text text-anchor="middle" x="502.5" y="-62" font-family="Helvetica,sans-Serif" font-size="10.00">sys/types.h</text>
</a>
</g>
</g>
<!-- Node12&#45;&gt;Node16 -->
<g id="edge17_Node000012_Node000016" class="edge">
<title>Node12&#45;&gt;Node16</title>
<g id="a_edge17_Node000012_Node000016"><a xlink:title=" ">
<path fill="none" stroke="#63b8ff" d="M432.01,-109.84C446.56,-100.68 465.43,-88.82 479.99,-79.66"/>
<polygon fill="#63b8ff" stroke="#63b8ff" points="482.24,-82.38 488.84,-74.09 478.51,-76.46 482.24,-82.38"/>
</a>
</g>
</g>
<!-- Node17 -->
<g id="Node000017" class="node">
<title>Node17</title>
<g id="a_Node000017"><a xlink:title=" ">
<polygon fill="#e0e0e0" stroke="#999999" points="158.5,-74 92.5,-74 92.5,-55 158.5,-55 158.5,-74"/>
<text text-anchor="middle" x="125.5" y="-62" font-family="Helvetica,sans-Serif" font-size="10.00">sys/wait.h</text>
</a>
</g>
</g>
<!-- Node12&#45;&gt;Node17 -->
<g id="edge18_Node000012_Node000017" class="edge">
<title>Node12&#45;&gt;Node17</title>
<g id="a_edge18_Node000012_Node000017"><a xlink:title=" ">
<path fill="none" stroke="#63b8ff" d="M341.47,-109.99C287.77,-98.93 214.49,-83.83 168.59,-74.38"/>
<polygon fill="#63b8ff" stroke="#63b8ff" points="169.17,-70.92 158.67,-72.33 167.76,-77.78 169.17,-70.92"/>
</a>
</g>
</g>
<!-- Node18 -->
<g id="Node000018" class="node">
<title>Node18</title>
<g id="a_Node000018"><a xlink:title=" ">
<polygon fill="#e0e0e0" stroke="#999999" points="238.5,-74 176.5,-74 176.5,-55 238.5,-55 238.5,-74"/>
<text text-anchor="middle" x="207.5" y="-62" font-family="Helvetica,sans-Serif" font-size="10.00">stdbool.h</text>
</a>
</g>
</g>
<!-- Node12&#45;&gt;Node18 -->
<g id="edge19_Node000012_Node000018" class="edge">
<title>Node12&#45;&gt;Node18</title>
<g id="a_edge19_Node000012_Node000018"><a xlink:title=" ">
<path fill="none" stroke="#63b8ff" d="M361.12,-109.99C326.1,-99.85 279.39,-86.32 246.7,-76.85"/>
<polygon fill="#63b8ff" stroke="#63b8ff" points="247.61,-73.47 237.04,-74.05 245.67,-80.2 247.61,-73.47"/>
</a>
</g>
</g>
<!-- Node19&#45;&gt;Node12 -->
<g id="edge24_Node000019_Node000012" class="edge">
<title>Node19&#45;&gt;Node12</title>
<g id="a_edge24_Node000019_Node000012"><a xlink:title=" ">
<path fill="none" stroke="#63b8ff" d="M413.76,-175.87C413.18,-169.11 412.35,-159.35 411.57,-150.26"/>
<polygon fill="#63b8ff" stroke="#63b8ff" points="415.05,-149.78 410.71,-140.11 408.07,-150.38 415.05,-149.78"/>
</a>
</g>
</g>
</g>
</svg>
