<?xml version="1.0" encoding="UTF-8" standalone="no"?>
<!DOCTYPE svg PUBLIC "-//W3C//DTD SVG 1.1//EN"
 "http://www.w3.org/Graphics/SVG/1.1/DTD/svg11.dtd">
<!-- Generated by graphviz version 2.43.0 (0)
 -->
<!-- Title: ft_path_finder Pages: 1 -->
<svg width="448pt" height="207pt"
 viewBox="0.00 0.00 448.00 207.00" xmlns="http://www.w3.org/2000/svg" xmlns:xlink="http://www.w3.org/1999/xlink">
<g id="graph0" class="graph" transform="scale(1 1) rotate(0) translate(4 203)">
<title>ft_path_finder</title>
<!-- Node1 -->
<g id="Node000001" class="node">
<title>Node1</title>
<g id="a_Node000001"><a xlink:title="Searches for the executable path of a command.">
<polygon fill="#999999" stroke="#666666" points="83,-120 0,-120 0,-101 83,-101 83,-120"/>
<text text-anchor="middle" x="41.5" y="-108" font-family="Helvetica,sans-Serif" font-size="10.00">ft_path_finder</text>
</a>
</g>
</g>
<!-- Node2 -->
<g id="Node000002" class="node">
<title>Node2</title>
<g id="a_Node000002"><a xlink:href="ft__free__matrix_8c.html#a1ea6d1f3b50d1c23d4f0faddd1a13448" target="_top" xlink:title="Frees a NULL&#45;terminated matrix of strings.">
<polygon fill="white" stroke="#666666" points="212,-199 126,-199 126,-180 212,-180 212,-199"/>
<text text-anchor="middle" x="169" y="-187" font-family="Helvetica,sans-Serif" font-size="10.00">ft_free_matrix</text>
</a>
</g>
</g>
<!-- Node1&#45;&gt;Node2 -->
<g id="edge1_Node000001_Node000002" class="edge">
<title>Node1&#45;&gt;Node2</title>
<g id="a_edge1_Node000001_Node000002"><a xlink:title=" ">
<path fill="none" stroke="#63b8ff" d="M52.61,-120.35C66.56,-133.5 92.95,-156.84 119,-171.5 121.84,-173.1 124.86,-174.61 127.93,-176.01"/>
<polygon fill="#63b8ff" stroke="#63b8ff" points="126.69,-179.28 137.26,-179.93 129.4,-172.83 126.69,-179.28"/>
</a>
</g>
</g>
<!-- Node3 -->
<g id="Node000003" class="node">
<title>Node3</title>
<g id="a_Node000003"><a xlink:href="utils__env__pt2_8c.html#afac58c53fe53bc538ba19b53efec42e4" target="_top" xlink:title="Finds the value of an environment variable given its name key.">
<polygon fill="white" stroke="#666666" points="219,-162 119,-162 119,-143 219,-143 219,-162"/>
<text text-anchor="middle" x="169" y="-150" font-family="Helvetica,sans-Serif" font-size="10.00">ft_get_env_value</text>
</a>
</g>
</g>
<!-- Node1&#45;&gt;Node3 -->
<g id="edge2_Node000001_Node000003" class="edge">
<title>Node1&#45;&gt;Node3</title>
<g id="a_edge2_Node000001_Node000003"><a xlink:title=" ">
<path fill="none" stroke="#63b8ff" d="M70.98,-120.03C88.34,-125.84 110.76,-133.35 129.68,-139.67"/>
<polygon fill="#63b8ff" stroke="#63b8ff" points="128.61,-143.01 139.2,-142.86 130.83,-136.37 128.61,-143.01"/>
</a>
</g>
</g>
<!-- Node6 -->
<g id="Node000006" class="node">
<title>Node6</title>
<g id="a_Node000006"><a xlink:href="ft__split_8c.html#ae1a89a91dd877cfb2caf85d6f1786f94" target="_top" xlink:title="Splits a string into an array of strings based on a delimiter.">
<polygon fill="white" stroke="#666666" points="194,-120 144,-120 144,-101 194,-101 194,-120"/>
<text text-anchor="middle" x="169" y="-108" font-family="Helvetica,sans-Serif" font-size="10.00">ft_split</text>
</a>
</g>
</g>
<!-- Node1&#45;&gt;Node6 -->
<g id="edge5_Node000001_Node000006" class="edge">
<title>Node1&#45;&gt;Node6</title>
<g id="a_edge5_Node000001_Node000006"><a xlink:title=" ">
<path fill="none" stroke="#63b8ff" d="M83.25,-110.5C99.53,-110.5 118.08,-110.5 133.66,-110.5"/>
<polygon fill="#63b8ff" stroke="#63b8ff" points="133.91,-114 143.91,-110.5 133.91,-107 133.91,-114"/>
</a>
</g>
</g>
<!-- Node10 -->
<g id="Node000010" class="node">
<title>Node10</title>
<g id="a_Node000010"><a xlink:href="ft__strdup_8c.html#aebe73f27c70c56ac5053f860ef5436c9" target="_top" xlink:title="Duplicates a null&#45;terminated string by allocating memory.">
<polygon fill="white" stroke="#666666" points="198.5,-83 139.5,-83 139.5,-64 198.5,-64 198.5,-83"/>
<text text-anchor="middle" x="169" y="-71" font-family="Helvetica,sans-Serif" font-size="10.00">ft_strdup</text>
</a>
</g>
</g>
<!-- Node1&#45;&gt;Node10 -->
<g id="edge9_Node000001_Node000010" class="edge">
<title>Node1&#45;&gt;Node10</title>
<g id="a_edge9_Node000001_Node000010"><a xlink:title=" ">
<path fill="none" stroke="#63b8ff" d="M74.82,-100.97C91.45,-96.07 111.85,-90.05 129.32,-84.9"/>
<polygon fill="#63b8ff" stroke="#63b8ff" points="130.61,-88.17 139.22,-81.99 128.63,-81.46 130.61,-88.17"/>
</a>
</g>
</g>
<!-- Node11 -->
<g id="Node000011" class="node">
<title>Node11</title>
<g id="a_Node000011"><a xlink:href="ft__strjoin__three_8c.html#a516b013da6ff6065d18005f321670a5b" target="_top" xlink:title="Concatenates three strings into a newly allocated string.">
<polygon fill="white" stroke="#666666" points="214,-37 124,-37 124,-18 214,-18 214,-37"/>
<text text-anchor="middle" x="169" y="-25" font-family="Helvetica,sans-Serif" font-size="10.00">ft_strjoin_three</text>
</a>
</g>
</g>
<!-- Node1&#45;&gt;Node11 -->
<g id="edge10_Node000001_Node000011" class="edge">
<title>Node1&#45;&gt;Node11</title>
<g id="a_edge10_Node000001_Node000011"><a xlink:title=" ">
<path fill="none" stroke="#63b8ff" d="M54.61,-100.88C69.41,-89.3 95.41,-69.55 119,-54.5 125.64,-50.26 133,-46 139.94,-42.15"/>
<polygon fill="#63b8ff" stroke="#63b8ff" points="141.94,-45.05 149.06,-37.21 138.6,-38.9 141.94,-45.05"/>
</a>
</g>
</g>
<!-- Node4 -->
<g id="Node000004" class="node">
<title>Node4</title>
<g id="a_Node000004"><a xlink:href="ft__strlen_8c.html#a828402378653640f545a4be2e00e92f9" target="_top" xlink:title="Calculates the length of a null&#45;terminated string.">
<polygon fill="white" stroke="#666666" points="432.5,-130 376.5,-130 376.5,-111 432.5,-111 432.5,-130"/>
<text text-anchor="middle" x="404.5" y="-118" font-family="Helvetica,sans-Serif" font-size="10.00">ft_strlen</text>
</a>
</g>
</g>
<!-- Node3&#45;&gt;Node4 -->
<g id="edge3_Node000003_Node000004" class="edge">
<title>Node3&#45;&gt;Node4</title>
<g id="a_edge3_Node000003_Node000004"><a xlink:title=" ">
<path fill="none" stroke="#63b8ff" d="M196.77,-162.11C213.31,-167.52 235.1,-173.74 255,-176.5 289.34,-181.25 300.27,-187.92 333,-176.5 354.96,-168.84 375.21,-151.17 388.32,-137.71"/>
<polygon fill="#63b8ff" stroke="#63b8ff" points="390.9,-140.07 395.17,-130.38 385.78,-135.29 390.9,-140.07"/>
</a>
</g>
</g>
<!-- Node5 -->
<g id="Node000005" class="node">
<title>Node5</title>
<g id="a_Node000005"><a xlink:href="ft__strncmp_8c.html#a9d2fe792187aa4ed08e5864fb2c4d6dc" target="_top" xlink:title="Compares up to n characters of two strings.">
<polygon fill="white" stroke="#666666" points="328,-167 260,-167 260,-148 328,-148 328,-167"/>
<text text-anchor="middle" x="294" y="-155" font-family="Helvetica,sans-Serif" font-size="10.00">ft_strncmp</text>
</a>
</g>
</g>
<!-- Node3&#45;&gt;Node5 -->
<g id="edge4_Node000003_Node000005" class="edge">
<title>Node3&#45;&gt;Node5</title>
<g id="a_edge4_Node000003_Node000005"><a xlink:title=" ">
<path fill="none" stroke="#63b8ff" d="M219.32,-154.5C229.44,-154.92 240.02,-155.35 249.9,-155.75"/>
<polygon fill="#63b8ff" stroke="#63b8ff" points="249.76,-159.24 259.89,-156.15 250.04,-152.25 249.76,-159.24"/>
</a>
</g>
</g>
<!-- Node7 -->
<g id="Node000007" class="node">
<title>Node7</title>
<g id="a_Node000007"><a xlink:href="ft__split_8c.html#aa7bb0a2499cd7e833a5b655f1ba32e7e" target="_top" xlink:title="Copies a substring (word) from the input string.">
<polygon fill="white" stroke="#666666" points="320.5,-130 267.5,-130 267.5,-111 320.5,-111 320.5,-130"/>
<text text-anchor="middle" x="294" y="-118" font-family="Helvetica,sans-Serif" font-size="10.00">copy_w</text>
</a>
</g>
</g>
<!-- Node6&#45;&gt;Node7 -->
<g id="edge6_Node000006_Node000007" class="edge">
<title>Node6&#45;&gt;Node7</title>
<g id="a_edge6_Node000006_Node000007"><a xlink:title=" ">
<path fill="none" stroke="#63b8ff" d="M194.01,-112.45C211.99,-113.91 236.88,-115.94 257.21,-117.59"/>
<polygon fill="#63b8ff" stroke="#63b8ff" points="257.11,-121.09 267.36,-118.42 257.67,-114.12 257.11,-121.09"/>
</a>
</g>
</g>
<!-- Node8 -->
<g id="Node000008" class="node">
<title>Node8</title>
<g id="a_Node000008"><a xlink:href="ft__split_8c.html#a894f4b1af0e002219975b3835f6306b6" target="_top" xlink:title="Counts the number of words in a string separated by a delimiter.">
<polygon fill="white" stroke="#666666" points="333,-93 255,-93 255,-74 333,-74 333,-93"/>
<text text-anchor="middle" x="294" y="-81" font-family="Helvetica,sans-Serif" font-size="10.00">count_words</text>
</a>
</g>
</g>
<!-- Node6&#45;&gt;Node8 -->
<g id="edge7_Node000006_Node000008" class="edge">
<title>Node6&#45;&gt;Node8</title>
<g id="a_edge7_Node000006_Node000008"><a xlink:title=" ">
<path fill="none" stroke="#63b8ff" d="M194.01,-105.23C208.38,-102.07 227.18,-97.95 244.53,-94.14"/>
<polygon fill="#63b8ff" stroke="#63b8ff" points="245.51,-97.51 254.53,-91.94 244.01,-90.67 245.51,-97.51"/>
</a>
</g>
</g>
<!-- Node9 -->
<g id="Node000009" class="node">
<title>Node9</title>
<g id="a_Node000009"><a xlink:href="ft__split_8c.html#a7927713e5f2fed5cee8ec1ac2bcadb2c" target="_top" xlink:title="Frees an array of strings up to a given index.">
<polygon fill="white" stroke="#666666" points="317.5,-56 270.5,-56 270.5,-37 317.5,-37 317.5,-56"/>
<text text-anchor="middle" x="294" y="-44" font-family="Helvetica,sans-Serif" font-size="10.00">fclean</text>
</a>
</g>
</g>
<!-- Node6&#45;&gt;Node9 -->
<g id="edge8_Node000006_Node000009" class="edge">
<title>Node6&#45;&gt;Node9</title>
<g id="a_edge8_Node000006_Node000009"><a xlink:title=" ">
<path fill="none" stroke="#63b8ff" d="M194.08,-103.32C202.23,-100.46 211.23,-96.81 219,-92.5 236.72,-82.67 237.74,-75.12 255,-64.5 256.97,-63.29 259.03,-62.1 261.14,-60.95"/>
<polygon fill="#63b8ff" stroke="#63b8ff" points="263.16,-63.85 270.47,-56.18 259.97,-57.62 263.16,-63.85"/>
</a>
</g>
</g>
<!-- Node12 -->
<g id="Node000012" class="node">
<title>Node12</title>
<g id="a_Node000012"><a xlink:href="ft__strjoin_8c.html#a91e6e3e428bcc9f2291b700e1829b82b" target="_top" xlink:title="Concatenates two strings into a newly allocated string.">
<polygon fill="white" stroke="#666666" points="323.5,-19 264.5,-19 264.5,0 323.5,0 323.5,-19"/>
<text text-anchor="middle" x="294" y="-7" font-family="Helvetica,sans-Serif" font-size="10.00">ft_strjoin</text>
</a>
</g>
</g>
<!-- Node11&#45;&gt;Node12 -->
<g id="edge11_Node000011_Node000012" class="edge">
<title>Node11&#45;&gt;Node12</title>
<g id="a_edge11_Node000011_Node000012"><a xlink:title=" ">
<path fill="none" stroke="#63b8ff" d="M214.06,-21.05C227.09,-19.15 241.26,-17.07 253.96,-15.21"/>
<polygon fill="#63b8ff" stroke="#63b8ff" points="254.82,-18.62 264.21,-13.71 253.81,-11.7 254.82,-18.62"/>
</a>
</g>
</g>
<!-- Node12&#45;&gt;Node4 -->
<g id="edge13_Node000012_Node000004" class="edge">
<title>Node12&#45;&gt;Node4</title>
<g id="a_edge13_Node000012_Node000004"><a xlink:title=" ">
<path fill="none" stroke="#63b8ff" d="M319.75,-19.1C324.4,-21.47 329.03,-24.28 333,-27.5 359.2,-48.79 381.16,-81.76 393.3,-102.19"/>
<polygon fill="#63b8ff" stroke="#63b8ff" points="390.27,-103.95 398.31,-110.86 396.33,-100.45 390.27,-103.95"/>
</a>
</g>
</g>
<!-- Node13 -->
<g id="Node000013" class="node">
<title>Node13</title>
<g id="a_Node000013"><a xlink:href="ft__memcpy_8c.html#a41a6f05af30cf85ff63a08e383826322" target="_top" xlink:title="Copies &#39;n&#39; bytes from memory area &#39;src&#39; to memory area &#39;dest&#39;.">
<polygon fill="white" stroke="#666666" points="440,-19 369,-19 369,0 440,0 440,-19"/>
<text text-anchor="middle" x="404.5" y="-7" font-family="Helvetica,sans-Serif" font-size="10.00">ft_memcpy</text>
</a>
</g>
</g>
<!-- Node12&#45;&gt;Node13 -->
<g id="edge12_Node000012_Node000013" class="edge">
<title>Node12&#45;&gt;Node13</title>
<g id="a_edge12_Node000012_Node000013"><a xlink:title=" ">
<path fill="none" stroke="#63b8ff" d="M323.51,-9.5C334.29,-9.5 346.83,-9.5 358.75,-9.5"/>
<polygon fill="#63b8ff" stroke="#63b8ff" points="359,-13 369,-9.5 359,-6 359,-13"/>
</a>
</g>
</g>
</g>
</svg>
