<?xml version="1.0" encoding="UTF-8" standalone="no"?>
<!DOCTYPE svg PUBLIC "-//W3C//DTD SVG 1.1//EN"
 "http://www.w3.org/Graphics/SVG/1.1/DTD/svg11.dtd">
<!-- Generated by graphviz version 2.43.0 (0)
 -->
<!-- Title: ft_exe_syscmd Pages: 1 -->
<svg width="931pt" height="667pt"
 viewBox="0.00 0.00 931.00 667.00" xmlns="http://www.w3.org/2000/svg" xmlns:xlink="http://www.w3.org/1999/xlink">
<g id="graph0" class="graph" transform="scale(1 1) rotate(0) translate(4 663)">
<title>ft_exe_syscmd</title>
<!-- Node1 -->
<g id="Node000001" class="node">
<title>Node1</title>
<g id="a_Node000001"><a xlink:title="Executes a system command by creating a child process.">
<polygon fill="#999999" stroke="#666666" points="89,-263 0,-263 0,-244 89,-244 89,-263"/>
<text text-anchor="middle" x="44.5" y="-251" font-family="Helvetica,sans-Serif" font-size="10.00">ft_exe_syscmd</text>
</a>
</g>
</g>
<!-- Node2 -->
<g id="Node000002" class="node">
<title>Node2</title>
<g id="a_Node000002"><a xlink:href="system__commands_8c.html#a6dfb68d4eb4b73539a6d36f36d23d093" target="_top" xlink:title="Function executed by the child process to run a command.">
<polygon fill="white" stroke="#666666" points="197,-413 145,-413 145,-394 197,-394 197,-413"/>
<text text-anchor="middle" x="171" y="-401" font-family="Helvetica,sans-Serif" font-size="10.00">ft_child</text>
</a>
</g>
</g>
<!-- Node1&#45;&gt;Node2 -->
<g id="edge1_Node000001_Node000002" class="edge">
<title>Node1&#45;&gt;Node2</title>
<g id="a_edge1_Node000001_Node000002"><a xlink:title=" ">
<path fill="none" stroke="#63b8ff" d="M53.67,-263.34C74.34,-288.24 128.94,-354.03 155.32,-385.82"/>
<polygon fill="#63b8ff" stroke="#63b8ff" points="152.88,-388.36 161.96,-393.82 158.27,-383.89 152.88,-388.36"/>
</a>
</g>
</g>
<!-- Node14 -->
<g id="Node000014" class="node">
<title>Node14</title>
<g id="a_Node000014"><a xlink:href="ft__printf_8c.html#a091532b7f37af84bdecc84dccf4eedb1" target="_top" xlink:title="A simplified printf function that outputs formatted data to a given file descriptor.">
<polygon fill="white" stroke="#666666" points="468,-319 413,-319 413,-300 468,-300 468,-319"/>
<text text-anchor="middle" x="440.5" y="-307" font-family="Helvetica,sans-Serif" font-size="10.00">ft_printf</text>
</a>
</g>
</g>
<!-- Node1&#45;&gt;Node14 -->
<g id="edge47_Node000001_Node000014" class="edge">
<title>Node1&#45;&gt;Node14</title>
<g id="a_edge47_Node000001_Node000014"><a xlink:title=" ">
<path fill="none" stroke="#63b8ff" d="M89.32,-251.11C124.05,-249.79 173.74,-249.18 217,-253.5 270.69,-258.86 284.04,-262.96 336,-277.5 352.38,-282.08 355.8,-285.3 372,-290.5 382,-293.71 392.92,-296.91 403.01,-299.75"/>
<polygon fill="#63b8ff" stroke="#63b8ff" points="402.19,-303.15 412.76,-302.45 404.06,-296.41 402.19,-303.15"/>
</a>
</g>
</g>
<!-- Node25 -->
<g id="Node000025" class="node">
<title>Node25</title>
<g id="a_Node000025"><a xlink:href="system__commands_8c.html#aaaa4228e08342bbace615a9eeea465bd" target="_top" xlink:title="Searches for the executable path of a command.">
<polygon fill="white" stroke="#666666" points="336,-206 253,-206 253,-187 336,-187 336,-206"/>
<text text-anchor="middle" x="294.5" y="-194" font-family="Helvetica,sans-Serif" font-size="10.00">ft_path_finder</text>
</a>
</g>
</g>
<!-- Node1&#45;&gt;Node25 -->
<g id="edge33_Node000001_Node000025" class="edge">
<title>Node1&#45;&gt;Node25</title>
<g id="a_edge33_Node000001_Node000025"><a xlink:title=" ">
<path fill="none" stroke="#63b8ff" d="M64.62,-243.96C80.43,-236.46 103.67,-226.35 125,-220.5 163.74,-209.88 208.85,-203.78 242.64,-200.38"/>
<polygon fill="#63b8ff" stroke="#63b8ff" points="243.12,-203.85 252.74,-199.41 242.46,-196.88 243.12,-203.85"/>
</a>
</g>
</g>
<!-- Node36 -->
<g id="Node000036" class="node">
<title>Node36</title>
<g id="a_Node000036"><a xlink:href="signal__flag_8c.html#a8d44a858d92b832ce42bf419c783f2f9" target="_top" xlink:title="Updates the child process exit status in the env struct.">
<polygon fill="white" stroke="#666666" points="217,-282 125,-282 125,-263 217,-263 217,-282"/>
<text text-anchor="middle" x="171" y="-270" font-family="Helvetica,sans-Serif" font-size="10.00">get_exit_status</text>
</a>
</g>
</g>
<!-- Node1&#45;&gt;Node36 -->
<g id="edge48_Node000001_Node000036" class="edge">
<title>Node1&#45;&gt;Node36</title>
<g id="a_edge48_Node000001_Node000036"><a xlink:title=" ">
<path fill="none" stroke="#63b8ff" d="M89.04,-260.15C97.31,-261.41 106.06,-262.74 114.63,-264.05"/>
<polygon fill="#63b8ff" stroke="#63b8ff" points="114.17,-267.52 124.58,-265.57 115.22,-260.6 114.17,-267.52"/>
</a>
</g>
</g>
<!-- Node3 -->
<g id="Node000003" class="node">
<title>Node3</title>
<g id="a_Node000003"><a xlink:href="free__functions_8c.html#af29ea604c324eb3b9934ef9d6a34aa1d" target="_top" xlink:title="Frees all allocated resources associated with the command list and environment.">
<polygon fill="white" stroke="#666666" points="321,-489 268,-489 268,-470 321,-470 321,-489"/>
<text text-anchor="middle" x="294.5" y="-477" font-family="Helvetica,sans-Serif" font-size="10.00">free_all</text>
</a>
</g>
</g>
<!-- Node2&#45;&gt;Node3 -->
<g id="edge2_Node000002_Node000003" class="edge">
<title>Node2&#45;&gt;Node3</title>
<g id="a_edge2_Node000002_Node000003"><a xlink:title=" ">
<path fill="none" stroke="#63b8ff" d="M187.39,-413.13C208.11,-426.09 245.2,-449.29 269.58,-464.54"/>
<polygon fill="#63b8ff" stroke="#63b8ff" points="267.9,-467.62 278.24,-469.95 271.61,-461.68 267.9,-467.62"/>
</a>
</g>
</g>
<!-- Node5 -->
<g id="Node000005" class="node">
<title>Node5</title>
<g id="a_Node000005"><a xlink:href="ft__free__matrix_8c.html#a1ea6d1f3b50d1c23d4f0faddd1a13448" target="_top" xlink:title="Frees a NULL&#45;terminated matrix of strings.">
<polygon fill="white" stroke="#666666" points="631,-432 545,-432 545,-413 631,-413 631,-432"/>
<text text-anchor="middle" x="588" y="-420" font-family="Helvetica,sans-Serif" font-size="10.00">ft_free_matrix</text>
</a>
</g>
</g>
<!-- Node2&#45;&gt;Node5 -->
<g id="edge14_Node000002_Node000005" class="edge">
<title>Node2&#45;&gt;Node5</title>
<g id="a_edge14_Node000002_Node000005"><a xlink:title=" ">
<path fill="none" stroke="#63b8ff" d="M197.03,-404.65C263.34,-407.68 444.66,-415.98 534.76,-420.11"/>
<polygon fill="#63b8ff" stroke="#63b8ff" points="534.6,-423.6 544.75,-420.57 534.92,-416.61 534.6,-423.6"/>
</a>
</g>
</g>
<!-- Node7 -->
<g id="Node000007" class="node">
<title>Node7</title>
<g id="a_Node000007"><a xlink:href="system__commands_8c.html#aaa2f26386194311298eac807b68a6224" target="_top" xlink:title="Executes an external command with execve, redirecting stdout if needed.">
<polygon fill="white" stroke="#666666" points="332.5,-394 256.5,-394 256.5,-375 332.5,-375 332.5,-394"/>
<text text-anchor="middle" x="294.5" y="-382" font-family="Helvetica,sans-Serif" font-size="10.00">ft_execution</text>
</a>
</g>
</g>
<!-- Node2&#45;&gt;Node7 -->
<g id="edge7_Node000002_Node000007" class="edge">
<title>Node2&#45;&gt;Node7</title>
<g id="a_edge7_Node000002_Node000007"><a xlink:title=" ">
<path fill="none" stroke="#63b8ff" d="M197.17,-399.56C211.33,-397.35 229.48,-394.51 246.19,-391.9"/>
<polygon fill="#63b8ff" stroke="#63b8ff" points="247.02,-395.31 256.36,-390.31 245.94,-388.39 247.02,-395.31"/>
</a>
</g>
</g>
<!-- Node8 -->
<g id="Node000008" class="node">
<title>Node8</title>
<g id="a_Node000008"><a xlink:href="utils__fd_8c.html#a184b4852a6ca5544cc056e7a8e20e4ad" target="_top" xlink:title="Handles opening and validating file descriptors for command input/output.">
<polygon fill="white" stroke="#666666" points="323,-602 266,-602 266,-583 323,-583 323,-602"/>
<text text-anchor="middle" x="294.5" y="-590" font-family="Helvetica,sans-Serif" font-size="10.00">ft_for_fd</text>
</a>
</g>
</g>
<!-- Node2&#45;&gt;Node8 -->
<g id="edge9_Node000002_Node000008" class="edge">
<title>Node2&#45;&gt;Node8</title>
<g id="a_edge9_Node000002_Node000008"><a xlink:title=" ">
<path fill="none" stroke="#63b8ff" d="M178.19,-413.13C197.36,-442.95 255.97,-534.12 281.45,-573.76"/>
<polygon fill="#63b8ff" stroke="#63b8ff" points="278.82,-576.14 287.17,-582.66 284.71,-572.36 278.82,-576.14"/>
</a>
</g>
</g>
<!-- Node12 -->
<g id="Node000012" class="node">
<title>Node12</title>
<g id="a_Node000012"><a xlink:href="system__commands_8c.html#ad7151ee21a852e1430f0616b06cf56d4" target="_top" xlink:title="Creates an argument matrix for command execution.">
<polygon fill="white" stroke="#666666" points="331.5,-357 257.5,-357 257.5,-338 331.5,-338 331.5,-357"/>
<text text-anchor="middle" x="294.5" y="-345" font-family="Helvetica,sans-Serif" font-size="10.00">ft_mtx_cmd</text>
</a>
</g>
</g>
<!-- Node2&#45;&gt;Node12 -->
<g id="edge15_Node000002_Node000012" class="edge">
<title>Node2&#45;&gt;Node12</title>
<g id="a_edge15_Node000002_Node000012"><a xlink:title=" ">
<path fill="none" stroke="#63b8ff" d="M192.25,-393.86C208.61,-386.11 232.23,-374.99 253,-365.5 256.01,-364.13 259.15,-362.7 262.29,-361.29"/>
<polygon fill="#63b8ff" stroke="#63b8ff" points="263.9,-364.41 271.6,-357.13 261.05,-358.02 263.9,-364.41"/>
</a>
</g>
</g>
<!-- Node4 -->
<g id="Node000004" class="node">
<title>Node4</title>
<g id="a_Node000004"><a xlink:href="free__functions_8c.html#a32c72055f1119062342fcdf42527c05c" target="_top" xlink:title="Frees a list of commands.">
<polygon fill="white" stroke="#666666" points="471.5,-546 409.5,-546 409.5,-527 471.5,-527 471.5,-546"/>
<text text-anchor="middle" x="440.5" y="-534" font-family="Helvetica,sans-Serif" font-size="10.00">free_cmd</text>
</a>
</g>
</g>
<!-- Node3&#45;&gt;Node4 -->
<g id="edge3_Node000003_Node000004" class="edge">
<title>Node3&#45;&gt;Node4</title>
<g id="a_edge3_Node000003_Node000004"><a xlink:title=" ">
<path fill="none" stroke="#63b8ff" d="M316.78,-489.12C332.04,-495.92 353.15,-505.09 372,-512.5 381.64,-516.29 392.14,-520.15 401.94,-523.64"/>
<polygon fill="#63b8ff" stroke="#63b8ff" points="400.84,-526.96 411.43,-526.98 403.16,-520.36 400.84,-526.96"/>
</a>
</g>
</g>
<!-- Node3&#45;&gt;Node5 -->
<g id="edge6_Node000003_Node000005" class="edge">
<title>Node3&#45;&gt;Node5</title>
<g id="a_edge6_Node000003_Node000005"><a xlink:title=" ">
<path fill="none" stroke="#63b8ff" d="M321.27,-484.3C362.21,-490.85 444.13,-499.54 509,-478.5 532.82,-470.77 555.53,-452.84 570.24,-439.33"/>
<polygon fill="#63b8ff" stroke="#63b8ff" points="572.72,-441.81 577.55,-432.38 567.89,-436.74 572.72,-441.81"/>
</a>
</g>
</g>
<!-- Node6 -->
<g id="Node000006" class="node">
<title>Node6</title>
<g id="a_Node000006"><a xlink:href="free__functions_8c.html#a4f32f08947270b8aec54f43ddd8b02d4" target="_top" xlink:title="Frees a list of tokens.">
<polygon fill="white" stroke="#666666" points="474.5,-470 406.5,-470 406.5,-451 474.5,-451 474.5,-470"/>
<text text-anchor="middle" x="440.5" y="-458" font-family="Helvetica,sans-Serif" font-size="10.00">free_token</text>
</a>
</g>
</g>
<!-- Node3&#45;&gt;Node6 -->
<g id="edge5_Node000003_Node000006" class="edge">
<title>Node3&#45;&gt;Node6</title>
<g id="a_edge5_Node000003_Node000006"><a xlink:title=" ">
<path fill="none" stroke="#63b8ff" d="M321.24,-476.1C342.06,-473.36 371.81,-469.43 396.26,-466.21"/>
<polygon fill="#63b8ff" stroke="#63b8ff" points="396.92,-469.65 406.38,-464.87 396,-462.71 396.92,-469.65"/>
</a>
</g>
</g>
<!-- Node4&#45;&gt;Node5 -->
<g id="edge4_Node000004_Node000005" class="edge">
<title>Node4&#45;&gt;Node5</title>
<g id="a_edge4_Node000004_Node000005"><a xlink:title=" ">
<path fill="none" stroke="#63b8ff" d="M471.64,-529.41C483.91,-525.63 497.8,-520.15 509,-512.5 537.45,-493.07 561.91,-460.81 575.52,-440.65"/>
<polygon fill="#63b8ff" stroke="#63b8ff" points="578.58,-442.36 581.14,-432.08 572.73,-438.52 578.58,-442.36"/>
</a>
</g>
</g>
<!-- Node7&#45;&gt;Node5 -->
<g id="edge8_Node000007_Node000005" class="edge">
<title>Node7&#45;&gt;Node5</title>
<g id="a_edge8_Node000007_Node000005"><a xlink:title=" ">
<path fill="none" stroke="#63b8ff" d="M332.62,-387.93C375.29,-392.04 447.36,-399.51 509,-408.5 517.42,-409.73 526.31,-411.18 534.97,-412.67"/>
<polygon fill="#63b8ff" stroke="#63b8ff" points="534.53,-416.15 544.98,-414.44 535.74,-409.25 534.53,-416.15"/>
</a>
</g>
</g>
<!-- Node9 -->
<g id="Node000009" class="node">
<title>Node9</title>
<g id="a_Node000009"><a xlink:href="utils__fd_8c.html#ae6ad7aa33393749b9dc5eac6b61cdf74" target="_top" xlink:title="Returns the correct file descriptor based on append flag and file.">
<polygon fill="white" stroke="#666666" points="486.5,-659 394.5,-659 394.5,-640 486.5,-640 486.5,-659"/>
<text text-anchor="middle" x="440.5" y="-647" font-family="Helvetica,sans-Serif" font-size="10.00">check_value_fd</text>
</a>
</g>
</g>
<!-- Node8&#45;&gt;Node9 -->
<g id="edge10_Node000008_Node000009" class="edge">
<title>Node8&#45;&gt;Node9</title>
<g id="a_edge10_Node000008_Node000009"><a xlink:title=" ">
<path fill="none" stroke="#63b8ff" d="M316.78,-602.12C332.04,-608.92 353.15,-618.09 372,-625.5 381.64,-629.29 392.14,-633.15 401.94,-636.64"/>
<polygon fill="#63b8ff" stroke="#63b8ff" points="400.84,-639.96 411.43,-639.98 403.16,-633.36 400.84,-639.96"/>
</a>
</g>
</g>
<!-- Node10 -->
<g id="Node000010" class="node">
<title>Node10</title>
<g id="a_Node000010"><a xlink:href="utils__fd_8c.html#a9cf70d06db18597b04bb642db7abab4a" target="_top" xlink:title="Checks if a file descriptor is valid.">
<polygon fill="white" stroke="#666666" points="624,-640 552,-640 552,-621 624,-621 624,-640"/>
<text text-anchor="middle" x="588" y="-628" font-family="Helvetica,sans-Serif" font-size="10.00">ft_check_fd</text>
</a>
</g>
</g>
<!-- Node8&#45;&gt;Node10 -->
<g id="edge12_Node000008_Node000010" class="edge">
<title>Node8&#45;&gt;Node10</title>
<g id="a_edge12_Node000008_Node000010"><a xlink:title=" ">
<path fill="none" stroke="#63b8ff" d="M323.19,-596.11C373.57,-602.68 480.65,-616.64 541.76,-624.6"/>
<polygon fill="#63b8ff" stroke="#63b8ff" points="541.52,-628.1 551.89,-625.92 542.43,-621.16 541.52,-628.1"/>
</a>
</g>
</g>
<!-- Node11 -->
<g id="Node000011" class="node">
<title>Node11</title>
<g id="a_Node000011"><a xlink:href="utils__pipes_8c.html#a4112bdd2bc0766ff52195f2ab3a53339" target="_top" xlink:title="Handles input redirection from a file.">
<polygon fill="white" stroke="#666666" points="509,-583 372,-583 372,-564 509,-564 509,-583"/>
<text text-anchor="middle" x="440.5" y="-571" font-family="Helvetica,sans-Serif" font-size="10.00">handle_input_redirection</text>
</a>
</g>
</g>
<!-- Node8&#45;&gt;Node11 -->
<g id="edge13_Node000008_Node000011" class="edge">
<title>Node8&#45;&gt;Node11</title>
<g id="a_edge13_Node000008_Node000011"><a xlink:title=" ">
<path fill="none" stroke="#63b8ff" d="M323.26,-588.84C334.44,-587.36 347.95,-585.58 361.74,-583.76"/>
<polygon fill="#63b8ff" stroke="#63b8ff" points="362.34,-587.21 371.8,-582.43 361.42,-580.27 362.34,-587.21"/>
</a>
</g>
</g>
<!-- Node9&#45;&gt;Node10 -->
<g id="edge11_Node000009_Node000010" class="edge">
<title>Node9&#45;&gt;Node10</title>
<g id="a_edge11_Node000009_Node000010"><a xlink:title=" ">
<path fill="none" stroke="#63b8ff" d="M486.74,-643.59C504.31,-641.3 524.4,-638.67 541.95,-636.38"/>
<polygon fill="#63b8ff" stroke="#63b8ff" points="542.5,-639.84 551.96,-635.08 541.59,-632.9 542.5,-639.84"/>
</a>
</g>
</g>
<!-- Node13 -->
<g id="Node000013" class="node">
<title>Node13</title>
<g id="a_Node000013"><a xlink:href="ft__matrix__len_8c.html#a8a061c92b4f7c01468c1907282d5a53d" target="_top" xlink:title="Calculates the length of a NULL&#45;terminated matrix of strings.">
<polygon fill="white" stroke="#666666" points="481,-356 400,-356 400,-337 481,-337 481,-356"/>
<text text-anchor="middle" x="440.5" y="-344" font-family="Helvetica,sans-Serif" font-size="10.00">ft_matrix_len</text>
</a>
</g>
</g>
<!-- Node12&#45;&gt;Node13 -->
<g id="edge16_Node000012_Node000013" class="edge">
<title>Node12&#45;&gt;Node13</title>
<g id="a_edge16_Node000012_Node000013"><a xlink:title=" ">
<path fill="none" stroke="#63b8ff" d="M331.84,-347.25C349.42,-347.13 370.81,-346.98 389.87,-346.84"/>
<polygon fill="#63b8ff" stroke="#63b8ff" points="389.91,-350.34 399.88,-346.78 389.86,-343.34 389.91,-350.34"/>
</a>
</g>
</g>
<!-- Node12&#45;&gt;Node14 -->
<g id="edge17_Node000012_Node000014" class="edge">
<title>Node12&#45;&gt;Node14</title>
<g id="a_edge17_Node000012_Node000014"><a xlink:title=" ">
<path fill="none" stroke="#63b8ff" d="M331.84,-337.91C353.56,-332.18 381.07,-324.92 402.85,-319.17"/>
<polygon fill="#63b8ff" stroke="#63b8ff" points="403.94,-322.5 412.72,-316.57 402.16,-315.73 403.94,-322.5"/>
</a>
</g>
</g>
<!-- Node24 -->
<g id="Node000024" class="node">
<title>Node24</title>
<g id="a_Node000024"><a xlink:href="ft__strdup_8c.html#aebe73f27c70c56ac5053f860ef5436c9" target="_top" xlink:title="Duplicates a null&#45;terminated string by allocating memory.">
<polygon fill="white" stroke="#666666" points="470,-282 411,-282 411,-263 470,-263 470,-282"/>
<text text-anchor="middle" x="440.5" y="-270" font-family="Helvetica,sans-Serif" font-size="10.00">ft_strdup</text>
</a>
</g>
</g>
<!-- Node12&#45;&gt;Node24 -->
<g id="edge32_Node000012_Node000024" class="edge">
<title>Node12&#45;&gt;Node24</title>
<g id="a_edge32_Node000012_Node000024"><a xlink:title=" ">
<path fill="none" stroke="#63b8ff" d="M319.89,-337.86C325.41,-335.2 331.09,-332.05 336,-328.5 354.86,-314.88 352,-302.39 372,-290.5 380.74,-285.3 391,-281.58 400.84,-278.92"/>
<polygon fill="#63b8ff" stroke="#63b8ff" points="401.96,-282.25 410.87,-276.52 400.33,-275.44 401.96,-282.25"/>
</a>
</g>
</g>
<!-- Node15 -->
<g id="Node000015" class="node">
<title>Node15</title>
<g id="a_Node000015"><a xlink:href="ft__printf_8c.html#a80c1c206dcd33d07c265581878aaa300" target="_top" xlink:title="Processes a single format specifier and prints the corresponding argument.">
<polygon fill="white" stroke="#666666" points="629.5,-319 546.5,-319 546.5,-300 629.5,-300 629.5,-319"/>
<text text-anchor="middle" x="588" y="-307" font-family="Helvetica,sans-Serif" font-size="10.00">check_format</text>
</a>
</g>
</g>
<!-- Node14&#45;&gt;Node15 -->
<g id="edge18_Node000014_Node000015" class="edge">
<title>Node14&#45;&gt;Node15</title>
<g id="a_edge18_Node000014_Node000015"><a xlink:title=" ">
<path fill="none" stroke="#63b8ff" d="M468.19,-309.5C487.18,-309.5 513.3,-309.5 536.2,-309.5"/>
<polygon fill="#63b8ff" stroke="#63b8ff" points="536.47,-313 546.47,-309.5 536.47,-306 536.47,-313"/>
</a>
</g>
</g>
<!-- Node19 -->
<g id="Node000019" class="node">
<title>Node19</title>
<g id="a_Node000019"><a xlink:href="ft__putchar__fd_8c.html#a03ef80b25dc4a521379fa92ad97bad21" target="_top" xlink:title="Writes a single character to the specified file descriptor.">
<polygon fill="white" stroke="#666666" points="762,-446 682,-446 682,-427 762,-427 762,-446"/>
<text text-anchor="middle" x="722" y="-434" font-family="Helvetica,sans-Serif" font-size="10.00">ft_putchar_fd</text>
</a>
</g>
</g>
<!-- Node14&#45;&gt;Node19 -->
<g id="edge31_Node000014_Node000019" class="edge">
<title>Node14&#45;&gt;Node19</title>
<g id="a_edge31_Node000014_Node000019"><a xlink:title=" ">
<path fill="none" stroke="#63b8ff" d="M468.3,-314.97C480.9,-317.97 495.98,-322.16 509,-327.5 583.77,-358.16 593.48,-383.95 667,-417.5 671.63,-419.61 676.56,-421.64 681.5,-423.53"/>
<polygon fill="#63b8ff" stroke="#63b8ff" points="680.32,-426.82 690.91,-426.99 682.73,-420.25 680.32,-426.82"/>
</a>
</g>
</g>
<!-- Node16 -->
<g id="Node000016" class="node">
<title>Node16</title>
<g id="a_Node000016"><a xlink:href="ft__forpointer_8c.html#a8e02c77b80406af72327ebf71f537786" target="_top" xlink:title="Prints a pointer in hexadecimal format prefixed with &quot;0x&quot;.">
<polygon fill="white" stroke="#666666" points="760.5,-225 683.5,-225 683.5,-206 760.5,-206 760.5,-225"/>
<text text-anchor="middle" x="722" y="-213" font-family="Helvetica,sans-Serif" font-size="10.00">ft_forpointer</text>
</a>
</g>
</g>
<!-- Node15&#45;&gt;Node16 -->
<g id="edge19_Node000015_Node000016" class="edge">
<title>Node15&#45;&gt;Node16</title>
<g id="a_edge19_Node000015_Node000016"><a xlink:title=" ">
<path fill="none" stroke="#63b8ff" d="M596.36,-299.92C609.1,-283.97 636.8,-251.89 667,-233.5 669.66,-231.88 672.48,-230.39 675.38,-229.02"/>
<polygon fill="#63b8ff" stroke="#63b8ff" points="676.98,-232.14 684.84,-225.03 674.26,-225.69 676.98,-232.14"/>
</a>
</g>
</g>
<!-- Node18 -->
<g id="Node000018" class="node">
<title>Node18</title>
<g id="a_Node000018"><a xlink:href="ft__hexadecimal_8c.html#a39c845e0a4286d3ac1e04c1e64ac734b" target="_top" xlink:title="Prints an unsigned integer in hexadecimal format.">
<polygon fill="white" stroke="#666666" points="768,-391 676,-391 676,-372 768,-372 768,-391"/>
<text text-anchor="middle" x="722" y="-379" font-family="Helvetica,sans-Serif" font-size="10.00">ft_hexadecimal</text>
</a>
</g>
</g>
<!-- Node15&#45;&gt;Node18 -->
<g id="edge22_Node000015_Node000018" class="edge">
<title>Node15&#45;&gt;Node18</title>
<g id="a_edge22_Node000015_Node000018"><a xlink:title=" ">
<path fill="none" stroke="#63b8ff" d="M601.08,-319.18C615.91,-330.7 642.16,-349.96 667,-362.5 671.1,-364.57 675.49,-366.52 679.91,-368.31"/>
<polygon fill="#63b8ff" stroke="#63b8ff" points="679,-371.7 689.59,-371.99 681.49,-365.16 679,-371.7"/>
</a>
</g>
</g>
<!-- Node15&#45;&gt;Node19 -->
<g id="edge24_Node000015_Node000019" class="edge">
<title>Node15&#45;&gt;Node19</title>
<g id="a_edge24_Node000015_Node000019"><a xlink:title=" ">
<path fill="none" stroke="#63b8ff" d="M599.83,-319.05C608.84,-327.34 621.66,-339.94 631,-352.5 650.71,-378.99 641.78,-396.18 667,-417.5 668.99,-419.18 671.14,-420.72 673.4,-422.13"/>
<polygon fill="#63b8ff" stroke="#63b8ff" points="672.04,-425.36 682.52,-426.91 675.29,-419.16 672.04,-425.36"/>
</a>
</g>
</g>
<!-- Node20 -->
<g id="Node000020" class="node">
<title>Node20</title>
<g id="a_Node000020"><a xlink:href="ft__putnbr__fd_8c.html#a1554101ee350c316340c78e19faddaa8" target="_top" xlink:title="Writes an integer to a given file descriptor.">
<polygon fill="white" stroke="#666666" points="759.5,-336 684.5,-336 684.5,-317 759.5,-317 759.5,-336"/>
<text text-anchor="middle" x="722" y="-324" font-family="Helvetica,sans-Serif" font-size="10.00">ft_putnbr_fd</text>
</a>
</g>
</g>
<!-- Node15&#45;&gt;Node20 -->
<g id="edge25_Node000015_Node000020" class="edge">
<title>Node15&#45;&gt;Node20</title>
<g id="a_edge25_Node000015_Node000020"><a xlink:title=" ">
<path fill="none" stroke="#63b8ff" d="M629.68,-314.74C643.7,-316.54 659.52,-318.58 674,-320.45"/>
<polygon fill="#63b8ff" stroke="#63b8ff" points="673.9,-323.96 684.26,-321.77 674.79,-317.02 673.9,-323.96"/>
</a>
</g>
</g>
<!-- Node21 -->
<g id="Node000021" class="node">
<title>Node21</title>
<g id="a_Node000021"><a xlink:href="ft__putstr__fd_8c.html#a00b0638f31a75c7a30f77f33888bfb73" target="_top" xlink:title="Writes a null&#45;terminated string to the specified file descriptor.">
<polygon fill="white" stroke="#666666" points="758,-299 686,-299 686,-280 758,-280 758,-299"/>
<text text-anchor="middle" x="722" y="-287" font-family="Helvetica,sans-Serif" font-size="10.00">ft_putstr_fd</text>
</a>
</g>
</g>
<!-- Node15&#45;&gt;Node21 -->
<g id="edge27_Node000015_Node000021" class="edge">
<title>Node15&#45;&gt;Node21</title>
<g id="a_edge27_Node000015_Node000021"><a xlink:title=" ">
<path fill="none" stroke="#63b8ff" d="M629.68,-303.34C644.21,-301.14 660.66,-298.64 675.56,-296.38"/>
<polygon fill="#63b8ff" stroke="#63b8ff" points="676.22,-299.82 685.59,-294.87 675.17,-292.9 676.22,-299.82"/>
</a>
</g>
</g>
<!-- Node22 -->
<g id="Node000022" class="node">
<title>Node22</title>
<g id="a_Node000022"><a xlink:href="ft__unsigned__putnbr_8c.html#af9a70f8607b40cf2a7706f9d3725b549" target="_top" xlink:title="Writes an unsigned integer to the given file descriptor.">
<polygon fill="white" stroke="#666666" points="777,-262 667,-262 667,-243 777,-243 777,-262"/>
<text text-anchor="middle" x="722" y="-250" font-family="Helvetica,sans-Serif" font-size="10.00">ft_unsigned_putnbr</text>
</a>
</g>
</g>
<!-- Node15&#45;&gt;Node22 -->
<g id="edge28_Node000015_Node000022" class="edge">
<title>Node15&#45;&gt;Node22</title>
<g id="a_edge28_Node000015_Node000022"><a xlink:title=" ">
<path fill="none" stroke="#63b8ff" d="M606.33,-299.95C621.92,-291.56 645.6,-279.36 667,-270.5 671.22,-268.75 675.68,-267.05 680.15,-265.43"/>
<polygon fill="#63b8ff" stroke="#63b8ff" points="681.59,-268.63 689.88,-262.04 679.29,-262.02 681.59,-268.63"/>
</a>
</g>
</g>
<!-- Node17 -->
<g id="Node000017" class="node">
<title>Node17</title>
<g id="a_Node000017"><a xlink:href="ft__forpointer_8c.html#aded1bf735c8a10e47396170d27c5b6aa" target="_top" xlink:title="Recursively prints a memory address in hexadecimal format.">
<polygon fill="white" stroke="#666666" points="923,-216 813,-216 813,-197 923,-197 923,-216"/>
<text text-anchor="middle" x="868" y="-204" font-family="Helvetica,sans-Serif" font-size="10.00">ft_ricorsive_pointer</text>
</a>
</g>
</g>
<!-- Node16&#45;&gt;Node17 -->
<g id="edge20_Node000016_Node000017" class="edge">
<title>Node16&#45;&gt;Node17</title>
<g id="a_edge20_Node000016_Node000017"><a xlink:title=" ">
<path fill="none" stroke="#63b8ff" d="M760.83,-213.14C773.64,-212.33 788.33,-211.42 802.61,-210.52"/>
<polygon fill="#63b8ff" stroke="#63b8ff" points="803.14,-214 812.9,-209.88 802.7,-207.01 803.14,-214"/>
</a>
</g>
</g>
<!-- Node17&#45;&gt;Node17 -->
<g id="edge21_Node000017_Node000017" class="edge">
<title>Node17&#45;&gt;Node17</title>
<g id="a_edge21_Node000017_Node000017"><a xlink:title=" ">
<path fill="none" stroke="#63b8ff" d="M845.5,-216.08C834.55,-224.73 842.05,-234 868,-234 884.62,-234 893.68,-230.2 895.16,-225.19"/>
<polygon fill="#63b8ff" stroke="#63b8ff" points="898.17,-223.39 890.5,-216.08 891.94,-226.58 898.17,-223.39"/>
</a>
</g>
</g>
<!-- Node18&#45;&gt;Node18 -->
<g id="edge23_Node000018_Node000018" class="edge">
<title>Node18&#45;&gt;Node18</title>
<g id="a_edge23_Node000018_Node000018"><a xlink:title=" ">
<path fill="none" stroke="#63b8ff" d="M701.35,-391.08C691.3,-399.73 698.18,-409 722,-409 737.26,-409 745.57,-405.2 746.93,-400.19"/>
<polygon fill="#63b8ff" stroke="#63b8ff" points="750.07,-398.65 742.65,-391.08 743.73,-401.62 750.07,-398.65"/>
</a>
</g>
</g>
<!-- Node20&#45;&gt;Node20 -->
<g id="edge26_Node000020_Node000020" class="edge">
<title>Node20&#45;&gt;Node20</title>
<g id="a_edge26_Node000020_Node000020"><a xlink:title=" ">
<path fill="none" stroke="#63b8ff" d="M701.35,-336.08C691.3,-344.73 698.18,-354 722,-354 737.26,-354 745.57,-350.2 746.93,-345.19"/>
<polygon fill="#63b8ff" stroke="#63b8ff" points="750.07,-343.65 742.65,-336.08 743.73,-346.62 750.07,-343.65"/>
</a>
</g>
</g>
<!-- Node23 -->
<g id="Node000023" class="node">
<title>Node23</title>
<g id="a_Node000023"><a xlink:href="ft__putnbr_8c.html#a2e51f80c9e46e52f4adf94617fb51ada" target="_top" xlink:title="Writes an integer to the standard output (stdout).">
<polygon fill="white" stroke="#666666" points="898,-271 838,-271 838,-252 898,-252 898,-271"/>
<text text-anchor="middle" x="868" y="-259" font-family="Helvetica,sans-Serif" font-size="10.00">ft_putnbr</text>
</a>
</g>
</g>
<!-- Node22&#45;&gt;Node23 -->
<g id="edge29_Node000022_Node000023" class="edge">
<title>Node22&#45;&gt;Node23</title>
<g id="a_edge29_Node000022_Node000023"><a xlink:title=" ">
<path fill="none" stroke="#63b8ff" d="M777.03,-255.88C793.76,-256.92 811.87,-258.05 827.43,-259.03"/>
<polygon fill="#63b8ff" stroke="#63b8ff" points="827.55,-262.54 837.74,-259.67 827.98,-255.55 827.55,-262.54"/>
</a>
</g>
</g>
<!-- Node23&#45;&gt;Node23 -->
<g id="edge30_Node000023_Node000023" class="edge">
<title>Node23&#45;&gt;Node23</title>
<g id="a_edge30_Node000023_Node000023"><a xlink:title=" ">
<path fill="none" stroke="#63b8ff" d="M845.5,-271.08C834.55,-279.73 842.05,-289 868,-289 884.62,-289 893.68,-285.2 895.16,-280.19"/>
<polygon fill="#63b8ff" stroke="#63b8ff" points="898.17,-278.39 890.5,-271.08 891.94,-281.58 898.17,-278.39"/>
</a>
</g>
</g>
<!-- Node25&#45;&gt;Node5 -->
<g id="edge34_Node000025_Node000005" class="edge">
<title>Node25&#45;&gt;Node5</title>
<g id="a_edge34_Node000025_Node000005"><a xlink:title=" ">
<path fill="none" stroke="#63b8ff" d="M334.58,-206.02C394.32,-220.71 502.23,-247.8 509,-253.5 512.12,-256.12 558.8,-359.65 578.42,-403.35"/>
<polygon fill="#63b8ff" stroke="#63b8ff" points="575.29,-404.93 582.58,-412.62 581.68,-402.07 575.29,-404.93"/>
</a>
</g>
</g>
<!-- Node25&#45;&gt;Node24 -->
<g id="edge42_Node000025_Node000024" class="edge">
<title>Node25&#45;&gt;Node24</title>
<g id="a_edge42_Node000025_Node000024"><a xlink:title=" ">
<path fill="none" stroke="#63b8ff" d="M312.74,-206.08C320.05,-210.3 328.57,-215.44 336,-220.5 352.75,-231.91 354.22,-238.76 372,-248.5 381.08,-253.48 391.39,-257.75 401.18,-261.26"/>
<polygon fill="#63b8ff" stroke="#63b8ff" points="400.12,-264.6 410.72,-264.51 402.38,-257.97 400.12,-264.6"/>
</a>
</g>
</g>
<!-- Node26 -->
<g id="Node000026" class="node">
<title>Node26</title>
<g id="a_Node000026"><a xlink:href="utils__env__pt2_8c.html#afac58c53fe53bc538ba19b53efec42e4" target="_top" xlink:title="Finds the value of an environment variable given its name key.">
<polygon fill="white" stroke="#666666" points="490.5,-169 390.5,-169 390.5,-150 490.5,-150 490.5,-169"/>
<text text-anchor="middle" x="440.5" y="-157" font-family="Helvetica,sans-Serif" font-size="10.00">ft_get_env_value</text>
</a>
</g>
</g>
<!-- Node25&#45;&gt;Node26 -->
<g id="edge35_Node000025_Node000026" class="edge">
<title>Node25&#45;&gt;Node26</title>
<g id="a_edge35_Node000025_Node000026"><a xlink:title=" ">
<path fill="none" stroke="#63b8ff" d="M332.58,-186.97C350.75,-182.3 372.83,-176.63 392.2,-171.65"/>
<polygon fill="#63b8ff" stroke="#63b8ff" points="393.23,-175 402.04,-169.12 391.49,-168.22 393.23,-175"/>
</a>
</g>
</g>
<!-- Node29 -->
<g id="Node000029" class="node">
<title>Node29</title>
<g id="a_Node000029"><a xlink:href="ft__split_8c.html#ae1a89a91dd877cfb2caf85d6f1786f94" target="_top" xlink:title="Splits a string into an array of strings based on a delimiter.">
<polygon fill="white" stroke="#666666" points="465.5,-75 415.5,-75 415.5,-56 465.5,-56 465.5,-75"/>
<text text-anchor="middle" x="440.5" y="-63" font-family="Helvetica,sans-Serif" font-size="10.00">ft_split</text>
</a>
</g>
</g>
<!-- Node25&#45;&gt;Node29 -->
<g id="edge38_Node000025_Node000029" class="edge">
<title>Node25&#45;&gt;Node29</title>
<g id="a_edge38_Node000025_Node000029"><a xlink:title=" ">
<path fill="none" stroke="#63b8ff" d="M306.32,-186.65C330.84,-164.35 390.82,-109.79 421.21,-82.14"/>
<polygon fill="#63b8ff" stroke="#63b8ff" points="423.9,-84.42 428.94,-75.1 419.19,-79.24 423.9,-84.42"/>
</a>
</g>
</g>
<!-- Node33 -->
<g id="Node000033" class="node">
<title>Node33</title>
<g id="a_Node000033"><a xlink:href="ft__strjoin__three_8c.html#a516b013da6ff6065d18005f321670a5b" target="_top" xlink:title="Concatenates three strings into a newly allocated string.">
<polygon fill="white" stroke="#666666" points="485.5,-206 395.5,-206 395.5,-187 485.5,-187 485.5,-206"/>
<text text-anchor="middle" x="440.5" y="-194" font-family="Helvetica,sans-Serif" font-size="10.00">ft_strjoin_three</text>
</a>
</g>
</g>
<!-- Node25&#45;&gt;Node33 -->
<g id="edge43_Node000025_Node000033" class="edge">
<title>Node25&#45;&gt;Node33</title>
<g id="a_edge43_Node000025_Node000033"><a xlink:title=" ">
<path fill="none" stroke="#63b8ff" d="M336.38,-196.5C351.52,-196.5 368.94,-196.5 385.1,-196.5"/>
<polygon fill="#63b8ff" stroke="#63b8ff" points="385.49,-200 395.49,-196.5 385.49,-193 385.49,-200"/>
</a>
</g>
</g>
<!-- Node27 -->
<g id="Node000027" class="node">
<title>Node27</title>
<g id="a_Node000027"><a xlink:href="ft__strlen_8c.html#a828402378653640f545a4be2e00e92f9" target="_top" xlink:title="Calculates the length of a null&#45;terminated string.">
<polygon fill="white" stroke="#666666" points="750,-150 694,-150 694,-131 750,-131 750,-150"/>
<text text-anchor="middle" x="722" y="-138" font-family="Helvetica,sans-Serif" font-size="10.00">ft_strlen</text>
</a>
</g>
</g>
<!-- Node26&#45;&gt;Node27 -->
<g id="edge36_Node000026_Node000027" class="edge">
<title>Node26&#45;&gt;Node27</title>
<g id="a_edge36_Node000026_Node000027"><a xlink:title=" ">
<path fill="none" stroke="#63b8ff" d="M483.56,-149.99C502.27,-146.22 524.62,-142.35 545,-140.5 592.57,-136.17 647.67,-137.13 683.37,-138.53"/>
<polygon fill="#63b8ff" stroke="#63b8ff" points="683.66,-142.05 693.8,-138.97 683.95,-135.05 683.66,-142.05"/>
</a>
</g>
</g>
<!-- Node28 -->
<g id="Node000028" class="node">
<title>Node28</title>
<g id="a_Node000028"><a xlink:href="ft__strncmp_8c.html#a9d2fe792187aa4ed08e5864fb2c4d6dc" target="_top" xlink:title="Compares up to n characters of two strings.">
<polygon fill="white" stroke="#666666" points="622,-169 554,-169 554,-150 622,-150 622,-169"/>
<text text-anchor="middle" x="588" y="-157" font-family="Helvetica,sans-Serif" font-size="10.00">ft_strncmp</text>
</a>
</g>
</g>
<!-- Node26&#45;&gt;Node28 -->
<g id="edge37_Node000026_Node000028" class="edge">
<title>Node26&#45;&gt;Node28</title>
<g id="a_edge37_Node000026_Node000028"><a xlink:title=" ">
<path fill="none" stroke="#63b8ff" d="M490.76,-159.5C507.96,-159.5 527.13,-159.5 543.81,-159.5"/>
<polygon fill="#63b8ff" stroke="#63b8ff" points="543.82,-163 553.82,-159.5 543.82,-156 543.82,-163"/>
</a>
</g>
</g>
<!-- Node30 -->
<g id="Node000030" class="node">
<title>Node30</title>
<g id="a_Node000030"><a xlink:href="ft__split_8c.html#aa7bb0a2499cd7e833a5b655f1ba32e7e" target="_top" xlink:title="Copies a substring (word) from the input string.">
<polygon fill="white" stroke="#666666" points="614.5,-19 561.5,-19 561.5,0 614.5,0 614.5,-19"/>
<text text-anchor="middle" x="588" y="-7" font-family="Helvetica,sans-Serif" font-size="10.00">copy_w</text>
</a>
</g>
</g>
<!-- Node29&#45;&gt;Node30 -->
<g id="edge39_Node000029_Node000030" class="edge">
<title>Node29&#45;&gt;Node30</title>
<g id="a_edge39_Node000029_Node000030"><a xlink:title=" ">
<path fill="none" stroke="#63b8ff" d="M465.53,-56.25C489.25,-47.12 525.76,-33.07 552.57,-22.75"/>
<polygon fill="#63b8ff" stroke="#63b8ff" points="553.89,-26 561.96,-19.14 551.37,-19.46 553.89,-26"/>
</a>
</g>
</g>
<!-- Node31 -->
<g id="Node000031" class="node">
<title>Node31</title>
<g id="a_Node000031"><a xlink:href="ft__split_8c.html#a894f4b1af0e002219975b3835f6306b6" target="_top" xlink:title="Counts the number of words in a string separated by a delimiter.">
<polygon fill="white" stroke="#666666" points="627,-93 549,-93 549,-74 627,-74 627,-93"/>
<text text-anchor="middle" x="588" y="-81" font-family="Helvetica,sans-Serif" font-size="10.00">count_words</text>
</a>
</g>
</g>
<!-- Node29&#45;&gt;Node31 -->
<g id="edge40_Node000029_Node000031" class="edge">
<title>Node29&#45;&gt;Node31</title>
<g id="a_edge40_Node000029_Node000031"><a xlink:title=" ">
<path fill="none" stroke="#63b8ff" d="M465.53,-68.47C485.37,-70.93 514.17,-74.49 538.75,-77.53"/>
<polygon fill="#63b8ff" stroke="#63b8ff" points="538.63,-81.04 548.98,-78.8 539.49,-74.1 538.63,-81.04"/>
</a>
</g>
</g>
<!-- Node32 -->
<g id="Node000032" class="node">
<title>Node32</title>
<g id="a_Node000032"><a xlink:href="ft__split_8c.html#a7927713e5f2fed5cee8ec1ac2bcadb2c" target="_top" xlink:title="Frees an array of strings up to a given index.">
<polygon fill="white" stroke="#666666" points="611.5,-56 564.5,-56 564.5,-37 611.5,-37 611.5,-56"/>
<text text-anchor="middle" x="588" y="-44" font-family="Helvetica,sans-Serif" font-size="10.00">fclean</text>
</a>
</g>
</g>
<!-- Node29&#45;&gt;Node32 -->
<g id="edge41_Node000029_Node000032" class="edge">
<title>Node29&#45;&gt;Node32</title>
<g id="a_edge41_Node000029_Node000032"><a xlink:title=" ">
<path fill="none" stroke="#63b8ff" d="M465.53,-62.36C489.75,-59.2 527.32,-54.29 554.26,-50.77"/>
<polygon fill="#63b8ff" stroke="#63b8ff" points="554.91,-54.22 564.38,-49.45 554.01,-47.28 554.91,-54.22"/>
</a>
</g>
</g>
<!-- Node34 -->
<g id="Node000034" class="node">
<title>Node34</title>
<g id="a_Node000034"><a xlink:href="ft__strjoin_8c.html#a91e6e3e428bcc9f2291b700e1829b82b" target="_top" xlink:title="Concatenates two strings into a newly allocated string.">
<polygon fill="white" stroke="#666666" points="617.5,-206 558.5,-206 558.5,-187 617.5,-187 617.5,-206"/>
<text text-anchor="middle" x="588" y="-194" font-family="Helvetica,sans-Serif" font-size="10.00">ft_strjoin</text>
</a>
</g>
</g>
<!-- Node33&#45;&gt;Node34 -->
<g id="edge44_Node000033_Node000034" class="edge">
<title>Node33&#45;&gt;Node34</title>
<g id="a_edge44_Node000033_Node000034"><a xlink:title=" ">
<path fill="none" stroke="#63b8ff" d="M485.55,-196.5C505.45,-196.5 528.77,-196.5 548.02,-196.5"/>
<polygon fill="#63b8ff" stroke="#63b8ff" points="548.26,-200 558.26,-196.5 548.26,-193 548.26,-200"/>
</a>
</g>
</g>
<!-- Node34&#45;&gt;Node27 -->
<g id="edge46_Node000034_Node000027" class="edge">
<title>Node34&#45;&gt;Node27</title>
<g id="a_edge46_Node000034_Node000027"><a xlink:title=" ">
<path fill="none" stroke="#63b8ff" d="M610.44,-186.99C617.06,-184.01 624.35,-180.66 631,-177.5 647.15,-169.81 650.53,-166.48 667,-159.5 672.51,-157.16 678.42,-154.88 684.23,-152.74"/>
<polygon fill="#63b8ff" stroke="#63b8ff" points="685.59,-155.97 693.83,-149.32 683.23,-149.38 685.59,-155.97"/>
</a>
</g>
</g>
<!-- Node35 -->
<g id="Node000035" class="node">
<title>Node35</title>
<g id="a_Node000035"><a xlink:href="ft__memcpy_8c.html#a41a6f05af30cf85ff63a08e383826322" target="_top" xlink:title="Copies &#39;n&#39; bytes from memory area &#39;src&#39; to memory area &#39;dest&#39;.">
<polygon fill="white" stroke="#666666" points="757.5,-188 686.5,-188 686.5,-169 757.5,-169 757.5,-188"/>
<text text-anchor="middle" x="722" y="-176" font-family="Helvetica,sans-Serif" font-size="10.00">ft_memcpy</text>
</a>
</g>
</g>
<!-- Node34&#45;&gt;Node35 -->
<g id="edge45_Node000034_Node000035" class="edge">
<title>Node34&#45;&gt;Node35</title>
<g id="a_edge45_Node000034_Node000035"><a xlink:title=" ">
<path fill="none" stroke="#63b8ff" d="M617.64,-192.59C634.74,-190.26 656.82,-187.25 676.18,-184.61"/>
<polygon fill="#63b8ff" stroke="#63b8ff" points="676.88,-188.05 686.32,-183.23 675.93,-181.11 676.88,-188.05"/>
</a>
</g>
</g>
<!-- Node36&#45;&gt;Node14 -->
<g id="edge49_Node000036_Node000014" class="edge">
<title>Node36&#45;&gt;Node14</title>
<g id="a_edge49_Node000036_Node000014"><a xlink:title=" ">
<path fill="none" stroke="#63b8ff" d="M217.34,-277.05C250.31,-280.53 296,-285.71 336,-291.5 358.19,-294.71 382.93,-298.99 402.65,-302.57"/>
<polygon fill="#63b8ff" stroke="#63b8ff" points="402.29,-306.06 412.76,-304.42 403.56,-299.17 402.29,-306.06"/>
</a>
</g>
</g>
<!-- Node37 -->
<g id="Node000037" class="node">
<title>Node37</title>
<g id="a_Node000037"><a xlink:href="signal__flag_8c.html#a8bfc90b3fb9344e9caafec953baacc0b" target="_top" xlink:title="Signal handler for SIGINT (Ctrl&#45;C).">
<polygon fill="white" stroke="#666666" points="335.5,-320 253.5,-320 253.5,-301 335.5,-301 335.5,-320"/>
<text text-anchor="middle" x="294.5" y="-308" font-family="Helvetica,sans-Serif" font-size="10.00">handle_sigint</text>
</a>
</g>
</g>
<!-- Node36&#45;&gt;Node37 -->
<g id="edge50_Node000036_Node000037" class="edge">
<title>Node36&#45;&gt;Node37</title>
<g id="a_edge50_Node000036_Node000037"><a xlink:title=" ">
<path fill="none" stroke="#63b8ff" d="M202.66,-282.09C217.91,-286.86 236.55,-292.69 252.97,-297.82"/>
<polygon fill="#63b8ff" stroke="#63b8ff" points="252.26,-301.27 262.85,-300.91 254.35,-294.59 252.26,-301.27"/>
</a>
</g>
</g>
</g>
</svg>
