<?xml version="1.0" encoding="UTF-8" standalone="no"?>
<!DOCTYPE svg PUBLIC "-//W3C//DTD SVG 1.1//EN"
 "http://www.w3.org/Graphics/SVG/1.1/DTD/svg11.dtd">
<!-- Generated by graphviz version 2.43.0 (0)
 -->
<!-- Title: ft_mtx_cmd Pages: 1 -->
<svg width="610pt" height="248pt"
 viewBox="0.00 0.00 610.00 248.00" xmlns="http://www.w3.org/2000/svg" xmlns:xlink="http://www.w3.org/1999/xlink">
<g id="graph0" class="graph" transform="scale(1 1) rotate(0) translate(4 244)">
<title>ft_mtx_cmd</title>
<!-- Node1 -->
<g id="Node000001" class="node">
<title>Node1</title>
<g id="a_Node000001"><a xlink:title="Creates an argument matrix for command execution.">
<polygon fill="#999999" stroke="#666666" points="74,-180 0,-180 0,-161 74,-161 74,-180"/>
<text text-anchor="middle" x="37" y="-168" font-family="Helvetica,sans-Serif" font-size="10.00">ft_mtx_cmd</text>
</a>
</g>
</g>
<!-- Node2 -->
<g id="Node000002" class="node">
<title>Node2</title>
<g id="a_Node000002"><a xlink:href="ft__matrix__len_8c.html#a8a061c92b4f7c01468c1907282d5a53d" target="_top" xlink:title="Calculates the length of a NULL&#45;terminated matrix of strings.">
<polygon fill="white" stroke="#666666" points="191,-217 110,-217 110,-198 191,-198 191,-217"/>
<text text-anchor="middle" x="150.5" y="-205" font-family="Helvetica,sans-Serif" font-size="10.00">ft_matrix_len</text>
</a>
</g>
</g>
<!-- Node1&#45;&gt;Node2 -->
<g id="edge1_Node000001_Node000002" class="edge">
<title>Node1&#45;&gt;Node2</title>
<g id="a_edge1_Node000001_Node000002"><a xlink:title=" ">
<path fill="none" stroke="#63b8ff" d="M66.71,-180.03C80.14,-184.48 96.31,-189.85 110.8,-194.66"/>
<polygon fill="#63b8ff" stroke="#63b8ff" points="109.9,-198.05 120.5,-197.88 112.11,-191.4 109.9,-198.05"/>
</a>
</g>
</g>
<!-- Node3 -->
<g id="Node000003" class="node">
<title>Node3</title>
<g id="a_Node000003"><a xlink:href="ft__printf_8c.html#a091532b7f37af84bdecc84dccf4eedb1" target="_top" xlink:title="A simplified printf function that outputs formatted data to a given file descriptor.">
<polygon fill="white" stroke="#666666" points="178,-180 123,-180 123,-161 178,-161 178,-180"/>
<text text-anchor="middle" x="150.5" y="-168" font-family="Helvetica,sans-Serif" font-size="10.00">ft_printf</text>
</a>
</g>
</g>
<!-- Node1&#45;&gt;Node3 -->
<g id="edge2_Node000001_Node000003" class="edge">
<title>Node1&#45;&gt;Node3</title>
<g id="a_edge2_Node000001_Node000003"><a xlink:title=" ">
<path fill="none" stroke="#63b8ff" d="M74.2,-170.5C86.4,-170.5 100.02,-170.5 112.3,-170.5"/>
<polygon fill="#63b8ff" stroke="#63b8ff" points="112.66,-174 122.66,-170.5 112.66,-167 112.66,-174"/>
</a>
</g>
</g>
<!-- Node13 -->
<g id="Node000013" class="node">
<title>Node13</title>
<g id="a_Node000013"><a xlink:href="ft__strdup_8c.html#aebe73f27c70c56ac5053f860ef5436c9" target="_top" xlink:title="Duplicates a null&#45;terminated string by allocating memory.">
<polygon fill="white" stroke="#666666" points="180,-143 121,-143 121,-124 180,-124 180,-143"/>
<text text-anchor="middle" x="150.5" y="-131" font-family="Helvetica,sans-Serif" font-size="10.00">ft_strdup</text>
</a>
</g>
</g>
<!-- Node1&#45;&gt;Node13 -->
<g id="edge17_Node000001_Node000013" class="edge">
<title>Node1&#45;&gt;Node13</title>
<g id="a_edge17_Node000001_Node000013"><a xlink:title=" ">
<path fill="none" stroke="#63b8ff" d="M66.71,-160.97C80.24,-156.48 96.57,-151.07 111.14,-146.23"/>
<polygon fill="#63b8ff" stroke="#63b8ff" points="112.49,-149.47 120.88,-143 110.29,-142.82 112.49,-149.47"/>
</a>
</g>
</g>
<!-- Node4 -->
<g id="Node000004" class="node">
<title>Node4</title>
<g id="a_Node000004"><a xlink:href="ft__printf_8c.html#a80c1c206dcd33d07c265581878aaa300" target="_top" xlink:title="Processes a single format specifier and prints the corresponding argument.">
<polygon fill="white" stroke="#666666" points="310,-148 227,-148 227,-129 310,-129 310,-148"/>
<text text-anchor="middle" x="268.5" y="-136" font-family="Helvetica,sans-Serif" font-size="10.00">check_format</text>
</a>
</g>
</g>
<!-- Node3&#45;&gt;Node4 -->
<g id="edge3_Node000003_Node000004" class="edge">
<title>Node3&#45;&gt;Node4</title>
<g id="a_edge3_Node000003_Node000004"><a xlink:title=" ">
<path fill="none" stroke="#63b8ff" d="M178.11,-163.16C191.39,-159.5 207.81,-154.97 222.94,-150.79"/>
<polygon fill="#63b8ff" stroke="#63b8ff" points="223.94,-154.15 232.65,-148.11 222.08,-147.4 223.94,-154.15"/>
</a>
</g>
</g>
<!-- Node8 -->
<g id="Node000008" class="node">
<title>Node8</title>
<g id="a_Node000008"><a xlink:href="ft__putchar__fd_8c.html#a03ef80b25dc4a521379fa92ad97bad21" target="_top" xlink:title="Writes a single character to the specified file descriptor.">
<polygon fill="white" stroke="#666666" points="441,-240 361,-240 361,-221 441,-221 441,-240"/>
<text text-anchor="middle" x="401" y="-228" font-family="Helvetica,sans-Serif" font-size="10.00">ft_putchar_fd</text>
</a>
</g>
</g>
<!-- Node3&#45;&gt;Node8 -->
<g id="edge16_Node000003_Node000008" class="edge">
<title>Node3&#45;&gt;Node8</title>
<g id="a_edge16_Node000003_Node000008"><a xlink:title=" ">
<path fill="none" stroke="#63b8ff" d="M178.09,-176.92C219.18,-186.84 298.74,-206.05 350.59,-218.57"/>
<polygon fill="#63b8ff" stroke="#63b8ff" points="350.03,-222.04 360.57,-220.98 351.67,-215.23 350.03,-222.04"/>
</a>
</g>
</g>
<!-- Node5 -->
<g id="Node000005" class="node">
<title>Node5</title>
<g id="a_Node000005"><a xlink:href="ft__forpointer_8c.html#a8e02c77b80406af72327ebf71f537786" target="_top" xlink:title="Prints a pointer in hexadecimal format prefixed with &quot;0x&quot;.">
<polygon fill="white" stroke="#666666" points="439.5,-203 362.5,-203 362.5,-184 439.5,-184 439.5,-203"/>
<text text-anchor="middle" x="401" y="-191" font-family="Helvetica,sans-Serif" font-size="10.00">ft_forpointer</text>
</a>
</g>
</g>
<!-- Node4&#45;&gt;Node5 -->
<g id="edge4_Node000004_Node000005" class="edge">
<title>Node4&#45;&gt;Node5</title>
<g id="a_edge4_Node000004_Node000005"><a xlink:title=" ">
<path fill="none" stroke="#63b8ff" d="M287.75,-148.15C303.06,-156.05 325.64,-167.22 346,-175.5 350.4,-177.29 355.06,-179.04 359.71,-180.71"/>
<polygon fill="#63b8ff" stroke="#63b8ff" points="358.6,-184.03 369.19,-183.99 360.89,-177.41 358.6,-184.03"/>
</a>
</g>
</g>
<!-- Node7 -->
<g id="Node000007" class="node">
<title>Node7</title>
<g id="a_Node000007"><a xlink:href="ft__hexadecimal_8c.html#a39c845e0a4286d3ac1e04c1e64ac734b" target="_top" xlink:title="Prints an unsigned integer in hexadecimal format.">
<polygon fill="white" stroke="#666666" points="447,-148 355,-148 355,-129 447,-129 447,-148"/>
<text text-anchor="middle" x="401" y="-136" font-family="Helvetica,sans-Serif" font-size="10.00">ft_hexadecimal</text>
</a>
</g>
</g>
<!-- Node4&#45;&gt;Node7 -->
<g id="edge7_Node000004_Node000007" class="edge">
<title>Node4&#45;&gt;Node7</title>
<g id="a_edge7_Node000004_Node000007"><a xlink:title=" ">
<path fill="none" stroke="#63b8ff" d="M310.08,-138.5C321.07,-138.5 333.16,-138.5 344.82,-138.5"/>
<polygon fill="#63b8ff" stroke="#63b8ff" points="344.9,-142 354.9,-138.5 344.9,-135 344.9,-142"/>
</a>
</g>
</g>
<!-- Node4&#45;&gt;Node8 -->
<g id="edge9_Node000004_Node000008" class="edge">
<title>Node4&#45;&gt;Node8</title>
<g id="a_edge9_Node000004_Node000008"><a xlink:title=" ">
<path fill="none" stroke="#63b8ff" d="M276.94,-148.07C289.55,-163.69 316.61,-194.67 346,-212.5 348.66,-214.11 351.48,-215.6 354.39,-216.97"/>
<polygon fill="#63b8ff" stroke="#63b8ff" points="353.27,-220.3 363.85,-220.96 355.99,-213.85 353.27,-220.3"/>
</a>
</g>
</g>
<!-- Node9 -->
<g id="Node000009" class="node">
<title>Node9</title>
<g id="a_Node000009"><a xlink:href="ft__putnbr__fd_8c.html#a1554101ee350c316340c78e19faddaa8" target="_top" xlink:title="Writes an integer to a given file descriptor.">
<polygon fill="white" stroke="#666666" points="438.5,-93 363.5,-93 363.5,-74 438.5,-74 438.5,-93"/>
<text text-anchor="middle" x="401" y="-81" font-family="Helvetica,sans-Serif" font-size="10.00">ft_putnbr_fd</text>
</a>
</g>
</g>
<!-- Node4&#45;&gt;Node9 -->
<g id="edge10_Node000004_Node000009" class="edge">
<title>Node4&#45;&gt;Node9</title>
<g id="a_edge10_Node000004_Node000009"><a xlink:title=" ">
<path fill="none" stroke="#63b8ff" d="M292.23,-128.92C313.06,-120.14 344.13,-107.05 367.57,-97.17"/>
<polygon fill="#63b8ff" stroke="#63b8ff" points="369.24,-100.26 377.09,-93.16 366.52,-93.81 369.24,-100.26"/>
</a>
</g>
</g>
<!-- Node10 -->
<g id="Node000010" class="node">
<title>Node10</title>
<g id="a_Node000010"><a xlink:href="ft__putstr__fd_8c.html#a00b0638f31a75c7a30f77f33888bfb73" target="_top" xlink:title="Writes a null&#45;terminated string to the specified file descriptor.">
<polygon fill="white" stroke="#666666" points="437,-56 365,-56 365,-37 437,-37 437,-56"/>
<text text-anchor="middle" x="401" y="-44" font-family="Helvetica,sans-Serif" font-size="10.00">ft_putstr_fd</text>
</a>
</g>
</g>
<!-- Node4&#45;&gt;Node10 -->
<g id="edge12_Node000004_Node000010" class="edge">
<title>Node4&#45;&gt;Node10</title>
<g id="a_edge12_Node000004_Node000010"><a xlink:title=" ">
<path fill="none" stroke="#63b8ff" d="M277.42,-128.62C290.28,-113.15 317.21,-83.16 346,-65.5 349.34,-63.45 352.92,-61.59 356.61,-59.89"/>
<polygon fill="#63b8ff" stroke="#63b8ff" points="357.98,-63.11 365.87,-56.04 355.29,-56.65 357.98,-63.11"/>
</a>
</g>
</g>
<!-- Node11 -->
<g id="Node000011" class="node">
<title>Node11</title>
<g id="a_Node000011"><a xlink:href="ft__unsigned__putnbr_8c.html#af9a70f8607b40cf2a7706f9d3725b549" target="_top" xlink:title="Writes an unsigned integer to the given file descriptor.">
<polygon fill="white" stroke="#666666" points="456,-19 346,-19 346,0 456,0 456,-19"/>
<text text-anchor="middle" x="401" y="-7" font-family="Helvetica,sans-Serif" font-size="10.00">ft_unsigned_putnbr</text>
</a>
</g>
</g>
<!-- Node4&#45;&gt;Node11 -->
<g id="edge13_Node000004_Node000011" class="edge">
<title>Node4&#45;&gt;Node11</title>
<g id="a_edge13_Node000004_Node000011"><a xlink:title=" ">
<path fill="none" stroke="#63b8ff" d="M273.51,-128.93C282.94,-107.55 308.58,-55.62 346,-27.5 347.83,-26.13 349.77,-24.85 351.79,-23.67"/>
<polygon fill="#63b8ff" stroke="#63b8ff" points="353.61,-26.67 361,-19.09 350.49,-20.41 353.61,-26.67"/>
</a>
</g>
</g>
<!-- Node6 -->
<g id="Node000006" class="node">
<title>Node6</title>
<g id="a_Node000006"><a xlink:href="ft__forpointer_8c.html#aded1bf735c8a10e47396170d27c5b6aa" target="_top" xlink:title="Recursively prints a memory address in hexadecimal format.">
<polygon fill="white" stroke="#666666" points="602,-203 492,-203 492,-184 602,-184 602,-203"/>
<text text-anchor="middle" x="547" y="-191" font-family="Helvetica,sans-Serif" font-size="10.00">ft_ricorsive_pointer</text>
</a>
</g>
</g>
<!-- Node5&#45;&gt;Node6 -->
<g id="edge5_Node000005_Node000006" class="edge">
<title>Node5&#45;&gt;Node6</title>
<g id="a_edge5_Node000005_Node000006"><a xlink:title=" ">
<path fill="none" stroke="#63b8ff" d="M439.83,-193.5C452.64,-193.5 467.33,-193.5 481.61,-193.5"/>
<polygon fill="#63b8ff" stroke="#63b8ff" points="481.9,-197 491.9,-193.5 481.9,-190 481.9,-197"/>
</a>
</g>
</g>
<!-- Node6&#45;&gt;Node6 -->
<g id="edge6_Node000006_Node000006" class="edge">
<title>Node6&#45;&gt;Node6</title>
<g id="a_edge6_Node000006_Node000006"><a xlink:title=" ">
<path fill="none" stroke="#63b8ff" d="M524.5,-203.08C513.55,-211.73 521.05,-221 547,-221 563.62,-221 572.68,-217.2 574.16,-212.19"/>
<polygon fill="#63b8ff" stroke="#63b8ff" points="577.17,-210.39 569.5,-203.08 570.94,-213.58 577.17,-210.39"/>
</a>
</g>
</g>
<!-- Node7&#45;&gt;Node7 -->
<g id="edge8_Node000007_Node000007" class="edge">
<title>Node7&#45;&gt;Node7</title>
<g id="a_edge8_Node000007_Node000007"><a xlink:title=" ">
<path fill="none" stroke="#63b8ff" d="M380.65,-148.08C370.76,-156.73 377.54,-166 401,-166 416.03,-166 424.21,-162.2 425.55,-157.19"/>
<polygon fill="#63b8ff" stroke="#63b8ff" points="428.72,-155.69 421.35,-148.08 422.36,-158.63 428.72,-155.69"/>
</a>
</g>
</g>
<!-- Node9&#45;&gt;Node9 -->
<g id="edge11_Node000009_Node000009" class="edge">
<title>Node9&#45;&gt;Node9</title>
<g id="a_edge11_Node000009_Node000009"><a xlink:title=" ">
<path fill="none" stroke="#63b8ff" d="M380.65,-93.08C370.76,-101.73 377.54,-111 401,-111 416.03,-111 424.21,-107.2 425.55,-102.19"/>
<polygon fill="#63b8ff" stroke="#63b8ff" points="428.72,-100.69 421.35,-93.08 422.36,-103.63 428.72,-100.69"/>
</a>
</g>
</g>
<!-- Node12 -->
<g id="Node000012" class="node">
<title>Node12</title>
<g id="a_Node000012"><a xlink:href="ft__putnbr_8c.html#a2e51f80c9e46e52f4adf94617fb51ada" target="_top" xlink:title="Writes an integer to the standard output (stdout).">
<polygon fill="white" stroke="#666666" points="577,-19 517,-19 517,0 577,0 577,-19"/>
<text text-anchor="middle" x="547" y="-7" font-family="Helvetica,sans-Serif" font-size="10.00">ft_putnbr</text>
</a>
</g>
</g>
<!-- Node11&#45;&gt;Node12 -->
<g id="edge14_Node000011_Node000012" class="edge">
<title>Node11&#45;&gt;Node12</title>
<g id="a_edge14_Node000011_Node000012"><a xlink:title=" ">
<path fill="none" stroke="#63b8ff" d="M456.03,-9.5C472.76,-9.5 490.87,-9.5 506.43,-9.5"/>
<polygon fill="#63b8ff" stroke="#63b8ff" points="506.74,-13 516.74,-9.5 506.74,-6 506.74,-13"/>
</a>
</g>
</g>
<!-- Node12&#45;&gt;Node12 -->
<g id="edge15_Node000012_Node000012" class="edge">
<title>Node12&#45;&gt;Node12</title>
<g id="a_edge15_Node000012_Node000012"><a xlink:title=" ">
<path fill="none" stroke="#63b8ff" d="M524.5,-19.08C513.55,-27.73 521.05,-37 547,-37 563.62,-37 572.68,-33.2 574.16,-28.19"/>
<polygon fill="#63b8ff" stroke="#63b8ff" points="577.17,-26.39 569.5,-19.08 570.94,-29.58 577.17,-26.39"/>
</a>
</g>
</g>
</g>
</svg>
