<?xml version="1.0" encoding="UTF-8" standalone="no"?>
<!DOCTYPE svg PUBLIC "-//W3C//DTD SVG 1.1//EN"
 "http://www.w3.org/Graphics/SVG/1.1/DTD/svg11.dtd">
<!-- Generated by graphviz version 2.43.0 (0)
 -->
<!-- Title: ft_child Pages: 1 -->
<svg width="759pt" height="514pt"
 viewBox="0.00 0.00 759.00 514.00" xmlns="http://www.w3.org/2000/svg" xmlns:xlink="http://www.w3.org/1999/xlink">
<g id="graph0" class="graph" transform="scale(1 1) rotate(0) translate(4 510)">
<title>ft_child</title>
<!-- Node1 -->
<g id="Node000001" class="node">
<title>Node1</title>
<g id="a_Node000001"><a xlink:title="Function executed by the child process to run a command.">
<polygon fill="#999999" stroke="#666666" points="52,-354 0,-354 0,-335 52,-335 52,-354"/>
<text text-anchor="middle" x="26" y="-342" font-family="Helvetica,sans-Serif" font-size="10.00">ft_child</text>
</a>
</g>
</g>
<!-- Node2 -->
<g id="Node000002" class="node">
<title>Node2</title>
<g id="a_Node000002"><a xlink:href="free__functions_8c.html#af29ea604c324eb3b9934ef9d6a34aa1d" target="_top" xlink:title="Frees all allocated resources associated with the command list and environment.">
<polygon fill="white" stroke="#666666" points="152.5,-449 99.5,-449 99.5,-430 152.5,-430 152.5,-449"/>
<text text-anchor="middle" x="126" y="-437" font-family="Helvetica,sans-Serif" font-size="10.00">free_all</text>
</a>
</g>
</g>
<!-- Node1&#45;&gt;Node2 -->
<g id="edge1_Node000001_Node000002" class="edge">
<title>Node1&#45;&gt;Node2</title>
<g id="a_edge1_Node000001_Node000002"><a xlink:title=" ">
<path fill="none" stroke="#63b8ff" d="M37.12,-354.31C53.78,-370.46 87.19,-402.85 107.68,-422.71"/>
<polygon fill="#63b8ff" stroke="#63b8ff" points="105.47,-425.44 115.08,-429.89 110.34,-420.41 105.47,-425.44"/>
</a>
</g>
</g>
<!-- Node4 -->
<g id="Node000004" class="node">
<title>Node4</title>
<g id="a_Node000004"><a xlink:href="ft__free__matrix_8c.html#a1ea6d1f3b50d1c23d4f0faddd1a13448" target="_top" xlink:title="Frees a NULL&#45;terminated matrix of strings.">
<polygon fill="white" stroke="#666666" points="459,-430 373,-430 373,-411 459,-411 459,-430"/>
<text text-anchor="middle" x="416" y="-418" font-family="Helvetica,sans-Serif" font-size="10.00">ft_free_matrix</text>
</a>
</g>
</g>
<!-- Node1&#45;&gt;Node4 -->
<g id="edge13_Node000001_Node000004" class="edge">
<title>Node1&#45;&gt;Node4</title>
<g id="a_edge13_Node000001_Node000004"><a xlink:title=" ">
<path fill="none" stroke="#63b8ff" d="M52.3,-353.29C63.18,-356.84 76.12,-360.73 88,-363.5 197.1,-388.89 227.02,-381.23 337,-402.5 346.52,-404.34 356.64,-406.52 366.33,-408.71"/>
<polygon fill="#63b8ff" stroke="#63b8ff" points="365.71,-412.15 376.23,-410.98 367.27,-405.33 365.71,-412.15"/>
</a>
</g>
</g>
<!-- Node6 -->
<g id="Node000006" class="node">
<title>Node6</title>
<g id="a_Node000006"><a xlink:href="system__commands_8c.html#aaa2f26386194311298eac807b68a6224" target="_top" xlink:title="Executes an external command with execve, redirecting stdout if needed.">
<polygon fill="white" stroke="#666666" points="164,-354 88,-354 88,-335 164,-335 164,-354"/>
<text text-anchor="middle" x="126" y="-342" font-family="Helvetica,sans-Serif" font-size="10.00">ft_execution</text>
</a>
</g>
</g>
<!-- Node1&#45;&gt;Node6 -->
<g id="edge6_Node000001_Node000006" class="edge">
<title>Node1&#45;&gt;Node6</title>
<g id="a_edge6_Node000001_Node000006"><a xlink:title=" ">
<path fill="none" stroke="#63b8ff" d="M52.24,-344.5C59.98,-344.5 68.77,-344.5 77.5,-344.5"/>
<polygon fill="#63b8ff" stroke="#63b8ff" points="77.65,-348 87.65,-344.5 77.65,-341 77.65,-348"/>
</a>
</g>
</g>
<!-- Node7 -->
<g id="Node000007" class="node">
<title>Node7</title>
<g id="a_Node000007"><a xlink:href="utils__fd_8c.html#a184b4852a6ca5544cc056e7a8e20e4ad" target="_top" xlink:title="Handles opening and validating file descriptors for command input/output.">
<polygon fill="white" stroke="#666666" points="154.5,-297 97.5,-297 97.5,-278 154.5,-278 154.5,-297"/>
<text text-anchor="middle" x="126" y="-285" font-family="Helvetica,sans-Serif" font-size="10.00">ft_for_fd</text>
</a>
</g>
</g>
<!-- Node1&#45;&gt;Node7 -->
<g id="edge8_Node000001_Node000007" class="edge">
<title>Node1&#45;&gt;Node7</title>
<g id="a_edge8_Node000001_Node000007"><a xlink:title=" ">
<path fill="none" stroke="#63b8ff" d="M43.62,-334.83C59.06,-325.85 82.26,-312.36 99.95,-302.07"/>
<polygon fill="#63b8ff" stroke="#63b8ff" points="101.74,-305.08 108.62,-297.03 98.22,-299.03 101.74,-305.08"/>
</a>
</g>
</g>
<!-- Node11 -->
<g id="Node000011" class="node">
<title>Node11</title>
<g id="a_Node000011"><a xlink:href="system__commands_8c.html#ad7151ee21a852e1430f0616b06cf56d4" target="_top" xlink:title="Creates an argument matrix for command execution.">
<polygon fill="white" stroke="#666666" points="163,-185 89,-185 89,-166 163,-166 163,-185"/>
<text text-anchor="middle" x="126" y="-173" font-family="Helvetica,sans-Serif" font-size="10.00">ft_mtx_cmd</text>
</a>
</g>
</g>
<!-- Node1&#45;&gt;Node11 -->
<g id="edge14_Node000001_Node000011" class="edge">
<title>Node1&#45;&gt;Node11</title>
<g id="a_edge14_Node000001_Node000011"><a xlink:title=" ">
<path fill="none" stroke="#63b8ff" d="M32.55,-334.93C48.24,-307.87 93.15,-230.42 114.05,-194.38"/>
<polygon fill="#63b8ff" stroke="#63b8ff" points="117.28,-195.79 119.27,-185.39 111.22,-192.28 117.28,-195.79"/>
</a>
</g>
</g>
<!-- Node3 -->
<g id="Node000003" class="node">
<title>Node3</title>
<g id="a_Node000003"><a xlink:href="free__functions_8c.html#a32c72055f1119062342fcdf42527c05c" target="_top" xlink:title="Frees a list of commands.">
<polygon fill="white" stroke="#666666" points="299.5,-506 237.5,-506 237.5,-487 299.5,-487 299.5,-506"/>
<text text-anchor="middle" x="268.5" y="-494" font-family="Helvetica,sans-Serif" font-size="10.00">free_cmd</text>
</a>
</g>
</g>
<!-- Node2&#45;&gt;Node3 -->
<g id="edge2_Node000002_Node000003" class="edge">
<title>Node2&#45;&gt;Node3</title>
<g id="a_edge2_Node000002_Node000003"><a xlink:title=" ">
<path fill="none" stroke="#63b8ff" d="M146.95,-449.06C161.51,-455.9 181.81,-465.17 200,-472.5 209.52,-476.34 219.91,-480.19 229.63,-483.66"/>
<polygon fill="#63b8ff" stroke="#63b8ff" points="228.46,-486.96 239.06,-486.98 230.79,-480.35 228.46,-486.96"/>
</a>
</g>
</g>
<!-- Node2&#45;&gt;Node4 -->
<g id="edge5_Node000002_Node000004" class="edge">
<title>Node2&#45;&gt;Node4</title>
<g id="a_edge5_Node000002_Node000004"><a xlink:title=" ">
<path fill="none" stroke="#63b8ff" d="M152.66,-441.46C192.34,-444.05 270.94,-447.43 337,-439.5 348.99,-438.06 361.79,-435.42 373.49,-432.56"/>
<polygon fill="#63b8ff" stroke="#63b8ff" points="374.62,-435.88 383.44,-430.01 372.88,-429.1 374.62,-435.88"/>
</a>
</g>
</g>
<!-- Node5 -->
<g id="Node000005" class="node">
<title>Node5</title>
<g id="a_Node000005"><a xlink:href="free__functions_8c.html#a4f32f08947270b8aec54f43ddd8b02d4" target="_top" xlink:title="Frees a list of tokens.">
<polygon fill="white" stroke="#666666" points="302.5,-430 234.5,-430 234.5,-411 302.5,-411 302.5,-430"/>
<text text-anchor="middle" x="268.5" y="-418" font-family="Helvetica,sans-Serif" font-size="10.00">free_token</text>
</a>
</g>
</g>
<!-- Node2&#45;&gt;Node5 -->
<g id="edge4_Node000002_Node000005" class="edge">
<title>Node2&#45;&gt;Node5</title>
<g id="a_edge4_Node000002_Node000005"><a xlink:title=" ">
<path fill="none" stroke="#63b8ff" d="M152.77,-436.02C172.78,-433.31 200.98,-429.5 224.41,-426.33"/>
<polygon fill="#63b8ff" stroke="#63b8ff" points="225.01,-429.78 234.45,-424.97 224.07,-422.84 225.01,-429.78"/>
</a>
</g>
</g>
<!-- Node3&#45;&gt;Node4 -->
<g id="edge3_Node000003_Node000004" class="edge">
<title>Node3&#45;&gt;Node4</title>
<g id="a_edge3_Node000003_Node000004"><a xlink:title=" ">
<path fill="none" stroke="#63b8ff" d="M299.73,-487.52C311.62,-483.54 325.21,-478.41 337,-472.5 357.55,-462.19 379.18,-447.43 394.43,-436.26"/>
<polygon fill="#63b8ff" stroke="#63b8ff" points="396.69,-438.94 402.62,-430.16 392.51,-433.33 396.69,-438.94"/>
</a>
</g>
</g>
<!-- Node6&#45;&gt;Node4 -->
<g id="edge7_Node000006_Node000004" class="edge">
<title>Node6&#45;&gt;Node4</title>
<g id="a_edge7_Node000006_Node000004"><a xlink:title=" ">
<path fill="none" stroke="#63b8ff" d="M164.24,-343.55C207.19,-343.62 279.28,-347.37 337,-368.5 359.23,-376.64 381.38,-392.31 396.36,-404.34"/>
<polygon fill="#63b8ff" stroke="#63b8ff" points="394.37,-407.23 404.3,-410.91 398.83,-401.84 394.37,-407.23"/>
</a>
</g>
</g>
<!-- Node8 -->
<g id="Node000008" class="node">
<title>Node8</title>
<g id="a_Node000008"><a xlink:href="utils__fd_8c.html#ae6ad7aa33393749b9dc5eac6b61cdf74" target="_top" xlink:title="Returns the correct file descriptor based on append flag and file.">
<polygon fill="white" stroke="#666666" points="314.5,-316 222.5,-316 222.5,-297 314.5,-297 314.5,-316"/>
<text text-anchor="middle" x="268.5" y="-304" font-family="Helvetica,sans-Serif" font-size="10.00">check_value_fd</text>
</a>
</g>
</g>
<!-- Node7&#45;&gt;Node8 -->
<g id="edge9_Node000007_Node000008" class="edge">
<title>Node7&#45;&gt;Node8</title>
<g id="a_edge9_Node000007_Node000008"><a xlink:title=" ">
<path fill="none" stroke="#63b8ff" d="M154.76,-291.25C171.17,-293.47 192.54,-296.36 212.25,-299.03"/>
<polygon fill="#63b8ff" stroke="#63b8ff" points="212,-302.53 222.38,-300.4 212.94,-295.59 212,-302.53"/>
</a>
</g>
</g>
<!-- Node9 -->
<g id="Node000009" class="node">
<title>Node9</title>
<g id="a_Node000009"><a xlink:href="utils__fd_8c.html#a9cf70d06db18597b04bb642db7abab4a" target="_top" xlink:title="Checks if a file descriptor is valid.">
<polygon fill="white" stroke="#666666" points="452,-287 380,-287 380,-268 452,-268 452,-287"/>
<text text-anchor="middle" x="416" y="-275" font-family="Helvetica,sans-Serif" font-size="10.00">ft_check_fd</text>
</a>
</g>
</g>
<!-- Node7&#45;&gt;Node9 -->
<g id="edge11_Node000007_Node000009" class="edge">
<title>Node7&#45;&gt;Node9</title>
<g id="a_edge11_Node000007_Node000009"><a xlink:title=" ">
<path fill="none" stroke="#63b8ff" d="M154.61,-286.54C204.39,-284.81 309.58,-281.16 369.92,-279.07"/>
<polygon fill="#63b8ff" stroke="#63b8ff" points="370.05,-282.56 379.92,-278.72 369.81,-275.57 370.05,-282.56"/>
</a>
</g>
</g>
<!-- Node10 -->
<g id="Node000010" class="node">
<title>Node10</title>
<g id="a_Node000010"><a xlink:href="utils__pipes_8c.html#a4112bdd2bc0766ff52195f2ab3a53339" target="_top" xlink:title="Handles input redirection from a file.">
<polygon fill="white" stroke="#666666" points="337,-240 200,-240 200,-221 337,-221 337,-240"/>
<text text-anchor="middle" x="268.5" y="-228" font-family="Helvetica,sans-Serif" font-size="10.00">handle_input_redirection</text>
</a>
</g>
</g>
<!-- Node7&#45;&gt;Node10 -->
<g id="edge12_Node000007_Node000010" class="edge">
<title>Node7&#45;&gt;Node10</title>
<g id="a_edge12_Node000007_Node000010"><a xlink:title=" ">
<path fill="none" stroke="#63b8ff" d="M146.95,-277.94C161.51,-271.1 181.81,-261.83 200,-254.5 209.52,-250.66 219.91,-246.81 229.63,-243.34"/>
<polygon fill="#63b8ff" stroke="#63b8ff" points="230.79,-246.65 239.06,-240.02 228.46,-240.04 230.79,-246.65"/>
</a>
</g>
</g>
<!-- Node8&#45;&gt;Node9 -->
<g id="edge10_Node000008_Node000009" class="edge">
<title>Node8&#45;&gt;Node9</title>
<g id="a_edge10_Node000008_Node000009"><a xlink:title=" ">
<path fill="none" stroke="#63b8ff" d="M314.74,-297.48C332.31,-293.98 352.4,-289.98 369.95,-286.48"/>
<polygon fill="#63b8ff" stroke="#63b8ff" points="370.84,-289.87 379.96,-284.48 369.47,-283.01 370.84,-289.87"/>
</a>
</g>
</g>
<!-- Node12 -->
<g id="Node000012" class="node">
<title>Node12</title>
<g id="a_Node000012"><a xlink:href="ft__matrix__len_8c.html#a8a061c92b4f7c01468c1907282d5a53d" target="_top" xlink:title="Calculates the length of a NULL&#45;terminated matrix of strings.">
<polygon fill="white" stroke="#666666" points="309,-203 228,-203 228,-184 309,-184 309,-203"/>
<text text-anchor="middle" x="268.5" y="-191" font-family="Helvetica,sans-Serif" font-size="10.00">ft_matrix_len</text>
</a>
</g>
</g>
<!-- Node11&#45;&gt;Node12 -->
<g id="edge15_Node000011_Node000012" class="edge">
<title>Node11&#45;&gt;Node12</title>
<g id="a_edge15_Node000011_Node000012"><a xlink:title=" ">
<path fill="none" stroke="#63b8ff" d="M163.18,-180.14C179.84,-182.27 199.88,-184.84 217.92,-187.15"/>
<polygon fill="#63b8ff" stroke="#63b8ff" points="217.62,-190.64 227.98,-188.44 218.51,-183.69 217.62,-190.64"/>
</a>
</g>
</g>
<!-- Node13 -->
<g id="Node000013" class="node">
<title>Node13</title>
<g id="a_Node000013"><a xlink:href="ft__printf_8c.html#a091532b7f37af84bdecc84dccf4eedb1" target="_top" xlink:title="A simplified printf function that outputs formatted data to a given file descriptor.">
<polygon fill="white" stroke="#666666" points="296,-166 241,-166 241,-147 296,-147 296,-166"/>
<text text-anchor="middle" x="268.5" y="-154" font-family="Helvetica,sans-Serif" font-size="10.00">ft_printf</text>
</a>
</g>
</g>
<!-- Node11&#45;&gt;Node13 -->
<g id="edge16_Node000011_Node000013" class="edge">
<title>Node11&#45;&gt;Node13</title>
<g id="a_edge16_Node000011_Node000013"><a xlink:title=" ">
<path fill="none" stroke="#63b8ff" d="M163.18,-170.61C183.91,-167.8 209.86,-164.29 230.69,-161.48"/>
<polygon fill="#63b8ff" stroke="#63b8ff" points="231.32,-164.92 240.76,-160.12 230.38,-157.99 231.32,-164.92"/>
</a>
</g>
</g>
<!-- Node23 -->
<g id="Node000023" class="node">
<title>Node23</title>
<g id="a_Node000023"><a xlink:href="ft__strdup_8c.html#aebe73f27c70c56ac5053f860ef5436c9" target="_top" xlink:title="Duplicates a null&#45;terminated string by allocating memory.">
<polygon fill="white" stroke="#666666" points="298,-129 239,-129 239,-110 298,-110 298,-129"/>
<text text-anchor="middle" x="268.5" y="-117" font-family="Helvetica,sans-Serif" font-size="10.00">ft_strdup</text>
</a>
</g>
</g>
<!-- Node11&#45;&gt;Node23 -->
<g id="edge31_Node000011_Node000023" class="edge">
<title>Node11&#45;&gt;Node23</title>
<g id="a_edge31_Node000011_Node000023"><a xlink:title=" ">
<path fill="none" stroke="#63b8ff" d="M143.68,-165.87C158.2,-157.77 180.01,-146.29 200,-138.5 209.26,-134.89 219.48,-131.65 229.1,-128.91"/>
<polygon fill="#63b8ff" stroke="#63b8ff" points="230.13,-132.26 238.85,-126.24 228.28,-125.51 230.13,-132.26"/>
</a>
</g>
</g>
<!-- Node14 -->
<g id="Node000014" class="node">
<title>Node14</title>
<g id="a_Node000014"><a xlink:href="ft__printf_8c.html#a80c1c206dcd33d07c265581878aaa300" target="_top" xlink:title="Processes a single format specifier and prints the corresponding argument.">
<polygon fill="white" stroke="#666666" points="457.5,-148 374.5,-148 374.5,-129 457.5,-129 457.5,-148"/>
<text text-anchor="middle" x="416" y="-136" font-family="Helvetica,sans-Serif" font-size="10.00">check_format</text>
</a>
</g>
</g>
<!-- Node13&#45;&gt;Node14 -->
<g id="edge17_Node000013_Node000014" class="edge">
<title>Node13&#45;&gt;Node14</title>
<g id="a_edge17_Node000013_Node000014"><a xlink:title=" ">
<path fill="none" stroke="#63b8ff" d="M296.19,-153.2C315.27,-150.84 341.53,-147.59 364.51,-144.75"/>
<polygon fill="#63b8ff" stroke="#63b8ff" points="364.97,-148.22 374.47,-143.51 364.11,-141.27 364.97,-148.22"/>
</a>
</g>
</g>
<!-- Node18 -->
<g id="Node000018" class="node">
<title>Node18</title>
<g id="a_Node000018"><a xlink:href="ft__putchar__fd_8c.html#a03ef80b25dc4a521379fa92ad97bad21" target="_top" xlink:title="Writes a single character to the specified file descriptor.">
<polygon fill="white" stroke="#666666" points="590,-240 510,-240 510,-221 590,-221 590,-240"/>
<text text-anchor="middle" x="550" y="-228" font-family="Helvetica,sans-Serif" font-size="10.00">ft_putchar_fd</text>
</a>
</g>
</g>
<!-- Node13&#45;&gt;Node18 -->
<g id="edge30_Node000013_Node000018" class="edge">
<title>Node13&#45;&gt;Node18</title>
<g id="a_edge30_Node000013_Node000018"><a xlink:title=" ">
<path fill="none" stroke="#63b8ff" d="M296.05,-163.53C343.71,-176.15 444.3,-202.78 503.26,-218.39"/>
<polygon fill="#63b8ff" stroke="#63b8ff" points="502.49,-221.81 513.06,-220.98 504.28,-215.04 502.49,-221.81"/>
</a>
</g>
</g>
<!-- Node15 -->
<g id="Node000015" class="node">
<title>Node15</title>
<g id="a_Node000015"><a xlink:href="ft__forpointer_8c.html#a8e02c77b80406af72327ebf71f537786" target="_top" xlink:title="Prints a pointer in hexadecimal format prefixed with &quot;0x&quot;.">
<polygon fill="white" stroke="#666666" points="588.5,-203 511.5,-203 511.5,-184 588.5,-184 588.5,-203"/>
<text text-anchor="middle" x="550" y="-191" font-family="Helvetica,sans-Serif" font-size="10.00">ft_forpointer</text>
</a>
</g>
</g>
<!-- Node14&#45;&gt;Node15 -->
<g id="edge18_Node000014_Node000015" class="edge">
<title>Node14&#45;&gt;Node15</title>
<g id="a_edge18_Node000014_Node000015"><a xlink:title=" ">
<path fill="none" stroke="#63b8ff" d="M435.63,-148.12C451.26,-156 474.28,-167.17 495,-175.5 499.41,-177.27 504.07,-179.02 508.73,-180.68"/>
<polygon fill="#63b8ff" stroke="#63b8ff" points="507.61,-183.99 518.21,-183.95 509.9,-177.38 507.61,-183.99"/>
</a>
</g>
</g>
<!-- Node17 -->
<g id="Node000017" class="node">
<title>Node17</title>
<g id="a_Node000017"><a xlink:href="ft__hexadecimal_8c.html#a39c845e0a4286d3ac1e04c1e64ac734b" target="_top" xlink:title="Prints an unsigned integer in hexadecimal format.">
<polygon fill="white" stroke="#666666" points="596,-148 504,-148 504,-129 596,-129 596,-148"/>
<text text-anchor="middle" x="550" y="-136" font-family="Helvetica,sans-Serif" font-size="10.00">ft_hexadecimal</text>
</a>
</g>
</g>
<!-- Node14&#45;&gt;Node17 -->
<g id="edge21_Node000014_Node000017" class="edge">
<title>Node14&#45;&gt;Node17</title>
<g id="a_edge21_Node000014_Node000017"><a xlink:title=" ">
<path fill="none" stroke="#63b8ff" d="M457.68,-138.5C468.93,-138.5 481.34,-138.5 493.28,-138.5"/>
<polygon fill="#63b8ff" stroke="#63b8ff" points="493.62,-142 503.62,-138.5 493.62,-135 493.62,-142"/>
</a>
</g>
</g>
<!-- Node14&#45;&gt;Node18 -->
<g id="edge23_Node000014_Node000018" class="edge">
<title>Node14&#45;&gt;Node18</title>
<g id="a_edge23_Node000014_Node000018"><a xlink:title=" ">
<path fill="none" stroke="#63b8ff" d="M424.63,-148.07C437.54,-163.67 465.23,-194.64 495,-212.5 497.67,-214.1 500.5,-215.58 503.41,-216.94"/>
<polygon fill="#63b8ff" stroke="#63b8ff" points="502.3,-220.27 512.87,-220.91 505,-213.82 502.3,-220.27"/>
</a>
</g>
</g>
<!-- Node19 -->
<g id="Node000019" class="node">
<title>Node19</title>
<g id="a_Node000019"><a xlink:href="ft__putnbr__fd_8c.html#a1554101ee350c316340c78e19faddaa8" target="_top" xlink:title="Writes an integer to a given file descriptor.">
<polygon fill="white" stroke="#666666" points="587.5,-93 512.5,-93 512.5,-74 587.5,-74 587.5,-93"/>
<text text-anchor="middle" x="550" y="-81" font-family="Helvetica,sans-Serif" font-size="10.00">ft_putnbr_fd</text>
</a>
</g>
</g>
<!-- Node14&#45;&gt;Node19 -->
<g id="edge24_Node000014_Node000019" class="edge">
<title>Node14&#45;&gt;Node19</title>
<g id="a_edge24_Node000014_Node000019"><a xlink:title=" ">
<path fill="none" stroke="#63b8ff" d="M439.99,-128.92C461.16,-120.1 492.77,-106.93 516.51,-97.04"/>
<polygon fill="#63b8ff" stroke="#63b8ff" points="517.94,-100.23 525.83,-93.16 515.25,-93.77 517.94,-100.23"/>
</a>
</g>
</g>
<!-- Node20 -->
<g id="Node000020" class="node">
<title>Node20</title>
<g id="a_Node000020"><a xlink:href="ft__putstr__fd_8c.html#a00b0638f31a75c7a30f77f33888bfb73" target="_top" xlink:title="Writes a null&#45;terminated string to the specified file descriptor.">
<polygon fill="white" stroke="#666666" points="586,-56 514,-56 514,-37 586,-37 586,-56"/>
<text text-anchor="middle" x="550" y="-44" font-family="Helvetica,sans-Serif" font-size="10.00">ft_putstr_fd</text>
</a>
</g>
</g>
<!-- Node14&#45;&gt;Node20 -->
<g id="edge26_Node000014_Node000020" class="edge">
<title>Node14&#45;&gt;Node20</title>
<g id="a_edge26_Node000014_Node000020"><a xlink:title=" ">
<path fill="none" stroke="#63b8ff" d="M425.12,-128.63C438.29,-113.17 465.82,-83.2 495,-65.5 498.35,-63.47 501.94,-61.62 505.63,-59.93"/>
<polygon fill="#63b8ff" stroke="#63b8ff" points="507,-63.15 514.89,-56.08 504.32,-56.68 507,-63.15"/>
</a>
</g>
</g>
<!-- Node21 -->
<g id="Node000021" class="node">
<title>Node21</title>
<g id="a_Node000021"><a xlink:href="ft__unsigned__putnbr_8c.html#af9a70f8607b40cf2a7706f9d3725b549" target="_top" xlink:title="Writes an unsigned integer to the given file descriptor.">
<polygon fill="white" stroke="#666666" points="605,-19 495,-19 495,0 605,0 605,-19"/>
<text text-anchor="middle" x="550" y="-7" font-family="Helvetica,sans-Serif" font-size="10.00">ft_unsigned_putnbr</text>
</a>
</g>
</g>
<!-- Node14&#45;&gt;Node21 -->
<g id="edge27_Node000014_Node000021" class="edge">
<title>Node14&#45;&gt;Node21</title>
<g id="a_edge27_Node000014_Node000021"><a xlink:title=" ">
<path fill="none" stroke="#63b8ff" d="M421.14,-128.93C430.86,-107.56 457.22,-55.63 495,-27.5 496.87,-26.11 498.85,-24.82 500.91,-23.63"/>
<polygon fill="#63b8ff" stroke="#63b8ff" points="502.88,-26.56 510.31,-19 499.79,-20.28 502.88,-26.56"/>
</a>
</g>
</g>
<!-- Node16 -->
<g id="Node000016" class="node">
<title>Node16</title>
<g id="a_Node000016"><a xlink:href="ft__forpointer_8c.html#aded1bf735c8a10e47396170d27c5b6aa" target="_top" xlink:title="Recursively prints a memory address in hexadecimal format.">
<polygon fill="white" stroke="#666666" points="751,-203 641,-203 641,-184 751,-184 751,-203"/>
<text text-anchor="middle" x="696" y="-191" font-family="Helvetica,sans-Serif" font-size="10.00">ft_ricorsive_pointer</text>
</a>
</g>
</g>
<!-- Node15&#45;&gt;Node16 -->
<g id="edge19_Node000015_Node000016" class="edge">
<title>Node15&#45;&gt;Node16</title>
<g id="a_edge19_Node000015_Node000016"><a xlink:title=" ">
<path fill="none" stroke="#63b8ff" d="M588.83,-193.5C601.64,-193.5 616.33,-193.5 630.61,-193.5"/>
<polygon fill="#63b8ff" stroke="#63b8ff" points="630.9,-197 640.9,-193.5 630.9,-190 630.9,-197"/>
</a>
</g>
</g>
<!-- Node16&#45;&gt;Node16 -->
<g id="edge20_Node000016_Node000016" class="edge">
<title>Node16&#45;&gt;Node16</title>
<g id="a_edge20_Node000016_Node000016"><a xlink:title=" ">
<path fill="none" stroke="#63b8ff" d="M673.5,-203.08C662.55,-211.73 670.05,-221 696,-221 712.62,-221 721.68,-217.2 723.16,-212.19"/>
<polygon fill="#63b8ff" stroke="#63b8ff" points="726.17,-210.39 718.5,-203.08 719.94,-213.58 726.17,-210.39"/>
</a>
</g>
</g>
<!-- Node17&#45;&gt;Node17 -->
<g id="edge22_Node000017_Node000017" class="edge">
<title>Node17&#45;&gt;Node17</title>
<g id="a_edge22_Node000017_Node000017"><a xlink:title=" ">
<path fill="none" stroke="#63b8ff" d="M529.35,-148.08C519.3,-156.73 526.18,-166 550,-166 565.26,-166 573.57,-162.2 574.93,-157.19"/>
<polygon fill="#63b8ff" stroke="#63b8ff" points="578.07,-155.65 570.65,-148.08 571.73,-158.62 578.07,-155.65"/>
</a>
</g>
</g>
<!-- Node19&#45;&gt;Node19 -->
<g id="edge25_Node000019_Node000019" class="edge">
<title>Node19&#45;&gt;Node19</title>
<g id="a_edge25_Node000019_Node000019"><a xlink:title=" ">
<path fill="none" stroke="#63b8ff" d="M529.35,-93.08C519.3,-101.73 526.18,-111 550,-111 565.26,-111 573.57,-107.2 574.93,-102.19"/>
<polygon fill="#63b8ff" stroke="#63b8ff" points="578.07,-100.65 570.65,-93.08 571.73,-103.62 578.07,-100.65"/>
</a>
</g>
</g>
<!-- Node22 -->
<g id="Node000022" class="node">
<title>Node22</title>
<g id="a_Node000022"><a xlink:href="ft__putnbr_8c.html#a2e51f80c9e46e52f4adf94617fb51ada" target="_top" xlink:title="Writes an integer to the standard output (stdout).">
<polygon fill="white" stroke="#666666" points="726,-19 666,-19 666,0 726,0 726,-19"/>
<text text-anchor="middle" x="696" y="-7" font-family="Helvetica,sans-Serif" font-size="10.00">ft_putnbr</text>
</a>
</g>
</g>
<!-- Node21&#45;&gt;Node22 -->
<g id="edge28_Node000021_Node000022" class="edge">
<title>Node21&#45;&gt;Node22</title>
<g id="a_edge28_Node000021_Node000022"><a xlink:title=" ">
<path fill="none" stroke="#63b8ff" d="M605.03,-9.5C621.76,-9.5 639.87,-9.5 655.43,-9.5"/>
<polygon fill="#63b8ff" stroke="#63b8ff" points="655.74,-13 665.74,-9.5 655.74,-6 655.74,-13"/>
</a>
</g>
</g>
<!-- Node22&#45;&gt;Node22 -->
<g id="edge29_Node000022_Node000022" class="edge">
<title>Node22&#45;&gt;Node22</title>
<g id="a_edge29_Node000022_Node000022"><a xlink:title=" ">
<path fill="none" stroke="#63b8ff" d="M673.5,-19.08C662.55,-27.73 670.05,-37 696,-37 712.62,-37 721.68,-33.2 723.16,-28.19"/>
<polygon fill="#63b8ff" stroke="#63b8ff" points="726.17,-26.39 718.5,-19.08 719.94,-29.58 726.17,-26.39"/>
</a>
</g>
</g>
</g>
</svg>
