<?xml version="1.0" encoding="UTF-8" standalone="no"?>
<!DOCTYPE svg PUBLIC "-//W3C//DTD SVG 1.1//EN"
 "http://www.w3.org/Graphics/SVG/1.1/DTD/svg11.dtd">
<!-- Generated by graphviz version 2.43.0 (0)
 -->
<!-- Title: tokens/tokenize_input.c Pages: 1 -->
<svg width="962pt" height="258pt"
 viewBox="0.00 0.00 961.50 258.00" xmlns="http://www.w3.org/2000/svg" xmlns:xlink="http://www.w3.org/1999/xlink">
<g id="graph0" class="graph" transform="scale(1 1) rotate(0) translate(4 254)">
<title>tokens/tokenize_input.c</title>
<!-- Node1 -->
<g id="Node000001" class="node">
<title>Node1</title>
<g id="a_Node000001"><a xlink:title=" ">
<polygon fill="#999999" stroke="#666666" points="850,-250 719,-250 719,-231 850,-231 850,-250"/>
<text text-anchor="middle" x="784.5" y="-238" font-family="Helvetica,sans-Serif" font-size="10.00">tokens/tokenize_input.c</text>
</a>
</g>
</g>
<!-- Node2 -->
<g id="Node000002" class="node">
<title>Node2</title>
<g id="a_Node000002"><a xlink:href="tokens_8h.html" target="_top" xlink:title=" ">
<polygon fill="white" stroke="#666666" points="736.5,-195 678.5,-195 678.5,-176 736.5,-176 736.5,-195"/>
<text text-anchor="middle" x="707.5" y="-183" font-family="Helvetica,sans-Serif" font-size="10.00">tokens.h</text>
</a>
</g>
</g>
<!-- Node1&#45;&gt;Node2 -->
<g id="edge1_Node000001_Node000002" class="edge">
<title>Node1&#45;&gt;Node2</title>
<g id="a_edge1_Node000001_Node000002"><a xlink:title=" ">
<path fill="none" stroke="#63b8ff" d="M772.13,-230.98C760.41,-222.92 742.58,-210.65 728.61,-201.03"/>
<polygon fill="#63b8ff" stroke="#63b8ff" points="730.32,-197.96 720.1,-195.17 726.35,-203.72 730.32,-197.96"/>
</a>
</g>
</g>
<!-- Node19 -->
<g id="Node000019" class="node">
<title>Node19</title>
<g id="a_Node000019"><a xlink:title=" ">
<polygon fill="#e0e0e0" stroke="#999999" points="953.5,-74 891.5,-74 891.5,-55 953.5,-55 953.5,-74"/>
<text text-anchor="middle" x="922.5" y="-62" font-family="Helvetica,sans-Serif" font-size="10.00">stdbool.h</text>
</a>
</g>
</g>
<!-- Node1&#45;&gt;Node19 -->
<g id="edge24_Node000001_Node000019" class="edge">
<title>Node1&#45;&gt;Node19</title>
<g id="a_edge24_Node000001_Node000019"><a xlink:title=" ">
<path fill="none" stroke="#63b8ff" d="M785.64,-230.68C787.61,-217.84 792.56,-193.59 803.5,-176 829.19,-134.71 874.29,-98.89 900.98,-79.92"/>
<polygon fill="#63b8ff" stroke="#63b8ff" points="903.06,-82.73 909.27,-74.15 899.06,-76.99 903.06,-82.73"/>
</a>
</g>
</g>
<!-- Node20 -->
<g id="Node000020" class="node">
<title>Node20</title>
<g id="a_Node000020"><a xlink:title=" ">
<polygon fill="#e0e0e0" stroke="#999999" points="922.5,-195 812.5,-195 812.5,-176 922.5,-176 922.5,-195"/>
<text text-anchor="middle" x="867.5" y="-183" font-family="Helvetica,sans-Serif" font-size="10.00">readline/chardefs.h</text>
</a>
</g>
</g>
<!-- Node1&#45;&gt;Node20 -->
<g id="edge23_Node000001_Node000020" class="edge">
<title>Node1&#45;&gt;Node20</title>
<g id="a_edge23_Node000001_Node000020"><a xlink:title=" ">
<path fill="none" stroke="#63b8ff" d="M797.84,-230.98C810.59,-222.84 830.05,-210.41 845.17,-200.76"/>
<polygon fill="#63b8ff" stroke="#63b8ff" points="847.38,-203.5 853.92,-195.17 843.61,-197.6 847.38,-203.5"/>
</a>
</g>
</g>
<!-- Node3 -->
<g id="Node000003" class="node">
<title>Node3</title>
<g id="a_Node000003"><a xlink:href="common__utils_8h.html" target="_top" xlink:title=" ">
<polygon fill="white" stroke="#666666" points="618.5,-140 478.5,-140 478.5,-110 618.5,-110 618.5,-140"/>
<text text-anchor="start" x="486.5" y="-128" font-family="Helvetica,sans-Serif" font-size="10.00">../common_utils/common</text>
<text text-anchor="middle" x="548.5" y="-117" font-family="Helvetica,sans-Serif" font-size="10.00">_utils.h</text>
</a>
</g>
</g>
<!-- Node2&#45;&gt;Node3 -->
<g id="edge2_Node000002_Node000003" class="edge">
<title>Node2&#45;&gt;Node3</title>
<g id="a_edge2_Node000002_Node000003"><a xlink:title=" ">
<path fill="none" stroke="#63b8ff" d="M684.38,-175.99C661.4,-167.54 625.46,-154.32 596.32,-143.59"/>
<polygon fill="#63b8ff" stroke="#63b8ff" points="597.32,-140.23 586.73,-140.06 594.9,-146.8 597.32,-140.23"/>
</a>
</g>
</g>
<!-- Node4 -->
<g id="Node000004" class="node">
<title>Node4</title>
<g id="a_Node000004"><a xlink:href="libft_8h.html" target="_top" xlink:title=" ">
<polygon fill="white" stroke="#666666" points="281,-74 206,-74 206,-55 281,-55 281,-74"/>
<text text-anchor="middle" x="243.5" y="-62" font-family="Helvetica,sans-Serif" font-size="10.00">../libft/libft.h</text>
</a>
</g>
</g>
<!-- Node3&#45;&gt;Node4 -->
<g id="edge3_Node000003_Node000004" class="edge">
<title>Node3&#45;&gt;Node4</title>
<g id="a_edge3_Node000003_Node000004"><a xlink:title=" ">
<path fill="none" stroke="#63b8ff" d="M478.14,-110.51C420.7,-99.49 341.1,-84.22 290.96,-74.6"/>
<polygon fill="#63b8ff" stroke="#63b8ff" points="291.51,-71.15 281.03,-72.7 290.2,-78.02 291.51,-71.15"/>
</a>
</g>
</g>
<!-- Node5 -->
<g id="Node000005" class="node">
<title>Node5</title>
<g id="a_Node000005"><a xlink:title=" ">
<polygon fill="#e0e0e0" stroke="#999999" points="789.5,-19 733.5,-19 733.5,0 789.5,0 789.5,-19"/>
<text text-anchor="middle" x="761.5" y="-7" font-family="Helvetica,sans-Serif" font-size="10.00">unistd.h</text>
</a>
</g>
</g>
<!-- Node3&#45;&gt;Node5 -->
<g id="edge22_Node000003_Node000005" class="edge">
<title>Node3&#45;&gt;Node5</title>
<g id="a_edge22_Node000003_Node000005"><a xlink:title=" ">
<path fill="none" stroke="#63b8ff" d="M618.67,-122.22C696.89,-118.59 816.16,-107.53 844.5,-74 862.57,-52.62 828.71,-33.94 798.95,-22.48"/>
<polygon fill="#63b8ff" stroke="#63b8ff" points="800.09,-19.17 789.5,-19.02 797.68,-25.74 800.09,-19.17"/>
</a>
</g>
</g>
<!-- Node6 -->
<g id="Node000006" class="node">
<title>Node6</title>
<g id="a_Node000006"><a xlink:title=" ">
<polygon fill="#e0e0e0" stroke="#999999" points="53,-19 0,-19 0,0 53,0 53,-19"/>
<text text-anchor="middle" x="26.5" y="-7" font-family="Helvetica,sans-Serif" font-size="10.00">stdlib.h</text>
</a>
</g>
</g>
<!-- Node3&#45;&gt;Node6 -->
<g id="edge20_Node000003_Node000006" class="edge">
<title>Node3&#45;&gt;Node6</title>
<g id="a_edge20_Node000003_Node000006"><a xlink:title=" ">
<path fill="none" stroke="#63b8ff" d="M478.2,-122.03C398.43,-118.2 265.17,-106.96 155.5,-74 116.07,-62.15 73.9,-39.21 48.89,-24.39"/>
<polygon fill="#63b8ff" stroke="#63b8ff" points="50.56,-21.31 40.19,-19.15 46.95,-27.31 50.56,-21.31"/>
</a>
</g>
</g>
<!-- Node7 -->
<g id="Node000007" class="node">
<title>Node7</title>
<g id="a_Node000007"><a xlink:title=" ">
<polygon fill="#e0e0e0" stroke="#999999" points="124,-19 71,-19 71,0 124,0 124,-19"/>
<text text-anchor="middle" x="97.5" y="-7" font-family="Helvetica,sans-Serif" font-size="10.00">string.h</text>
</a>
</g>
</g>
<!-- Node3&#45;&gt;Node7 -->
<g id="edge21_Node000003_Node000007" class="edge">
<title>Node3&#45;&gt;Node7</title>
<g id="a_edge21_Node000003_Node000007"><a xlink:title=" ">
<path fill="none" stroke="#63b8ff" d="M478.22,-122.78C405.58,-119.53 289.94,-108.72 196.5,-74 165.77,-62.58 134.64,-40.51 115.7,-25.63"/>
<polygon fill="#63b8ff" stroke="#63b8ff" points="117.66,-22.72 107.67,-19.18 113.27,-28.17 117.66,-22.72"/>
</a>
</g>
</g>
<!-- Node10 -->
<g id="Node000010" class="node">
<title>Node10</title>
<g id="a_Node000010"><a xlink:title=" ">
<polygon fill="#e0e0e0" stroke="#999999" points="614,-19 567,-19 567,0 614,0 614,-19"/>
<text text-anchor="middle" x="590.5" y="-7" font-family="Helvetica,sans-Serif" font-size="10.00">fcntl.h</text>
</a>
</g>
</g>
<!-- Node3&#45;&gt;Node10 -->
<g id="edge16_Node000003_Node000010" class="edge">
<title>Node3&#45;&gt;Node10</title>
<g id="a_edge16_Node000003_Node000010"><a xlink:title=" ">
<path fill="none" stroke="#63b8ff" d="M478.18,-123.48C398.11,-120.45 283.82,-107.25 328.5,-55 360.21,-17.91 492.06,-28.15 556.64,-18.68"/>
<polygon fill="#63b8ff" stroke="#63b8ff" points="557.53,-22.08 566.77,-16.9 556.32,-15.18 557.53,-22.08"/>
</a>
</g>
</g>
<!-- Node14 -->
<g id="Node000014" class="node">
<title>Node14</title>
<g id="a_Node000014"><a xlink:href="signal__flag_8h.html" target="_top" xlink:title=" ">
<polygon fill="white" stroke="#666666" points="415.5,-74 337.5,-74 337.5,-55 415.5,-55 415.5,-74"/>
<text text-anchor="middle" x="376.5" y="-62" font-family="Helvetica,sans-Serif" font-size="10.00">signal_flag.h</text>
</a>
</g>
</g>
<!-- Node3&#45;&gt;Node14 -->
<g id="edge13_Node000003_Node000014" class="edge">
<title>Node3&#45;&gt;Node14</title>
<g id="a_edge13_Node000003_Node000014"><a xlink:title=" ">
<path fill="none" stroke="#63b8ff" d="M507.3,-109.99C478,-100.02 439.08,-86.78 411.33,-77.35"/>
<polygon fill="#63b8ff" stroke="#63b8ff" points="412.24,-73.96 401.65,-74.05 409.99,-80.59 412.24,-73.96"/>
</a>
</g>
</g>
<!-- Node15 -->
<g id="Node000015" class="node">
<title>Node15</title>
<g id="a_Node000015"><a xlink:title=" ">
<polygon fill="#e0e0e0" stroke="#999999" points="541.5,-74 433.5,-74 433.5,-55 541.5,-55 541.5,-74"/>
<text text-anchor="middle" x="487.5" y="-62" font-family="Helvetica,sans-Serif" font-size="10.00">readline/readline.h</text>
</a>
</g>
</g>
<!-- Node3&#45;&gt;Node15 -->
<g id="edge14_Node000003_Node000015" class="edge">
<title>Node3&#45;&gt;Node15</title>
<g id="a_edge14_Node000003_Node000015"><a xlink:title=" ">
<path fill="none" stroke="#63b8ff" d="M533.73,-109.84C524.79,-101.26 513.36,-90.3 504.1,-81.42"/>
<polygon fill="#63b8ff" stroke="#63b8ff" points="506.28,-78.66 496.64,-74.27 501.44,-83.71 506.28,-78.66"/>
</a>
</g>
</g>
<!-- Node16 -->
<g id="Node000016" class="node">
<title>Node16</title>
<g id="a_Node000016"><a xlink:title=" ">
<polygon fill="#e0e0e0" stroke="#999999" points="661,-74 560,-74 560,-55 661,-55 661,-74"/>
<text text-anchor="middle" x="610.5" y="-62" font-family="Helvetica,sans-Serif" font-size="10.00">readline/history.h</text>
</a>
</g>
</g>
<!-- Node3&#45;&gt;Node16 -->
<g id="edge15_Node000003_Node000016" class="edge">
<title>Node3&#45;&gt;Node16</title>
<g id="a_edge15_Node000003_Node000016"><a xlink:title=" ">
<path fill="none" stroke="#63b8ff" d="M563.51,-109.84C572.69,-101.17 584.45,-90.08 593.91,-81.15"/>
<polygon fill="#63b8ff" stroke="#63b8ff" points="596.34,-83.67 601.21,-74.27 591.53,-78.58 596.34,-83.67"/>
</a>
</g>
</g>
<!-- Node17 -->
<g id="Node000017" class="node">
<title>Node17</title>
<g id="a_Node000017"><a xlink:title=" ">
<polygon fill="#e0e0e0" stroke="#999999" points="751.5,-74 679.5,-74 679.5,-55 751.5,-55 751.5,-74"/>
<text text-anchor="middle" x="715.5" y="-62" font-family="Helvetica,sans-Serif" font-size="10.00">sys/types.h</text>
</a>
</g>
</g>
<!-- Node3&#45;&gt;Node17 -->
<g id="edge17_Node000003_Node000017" class="edge">
<title>Node3&#45;&gt;Node17</title>
<g id="a_edge17_Node000003_Node000017"><a xlink:title=" ">
<path fill="none" stroke="#63b8ff" d="M588.5,-109.99C616.74,-100.1 654.18,-86.98 681.08,-77.56"/>
<polygon fill="#63b8ff" stroke="#63b8ff" points="682.56,-80.75 690.84,-74.14 680.24,-74.14 682.56,-80.75"/>
</a>
</g>
</g>
<!-- Node18 -->
<g id="Node000018" class="node">
<title>Node18</title>
<g id="a_Node000018"><a xlink:title=" ">
<polygon fill="#e0e0e0" stroke="#999999" points="835.5,-74 769.5,-74 769.5,-55 835.5,-55 835.5,-74"/>
<text text-anchor="middle" x="802.5" y="-62" font-family="Helvetica,sans-Serif" font-size="10.00">sys/wait.h</text>
</a>
</g>
</g>
<!-- Node3&#45;&gt;Node18 -->
<g id="edge18_Node000003_Node000018" class="edge">
<title>Node3&#45;&gt;Node18</title>
<g id="a_edge18_Node000003_Node000018"><a xlink:title=" ">
<path fill="none" stroke="#63b8ff" d="M609.34,-109.99C655.61,-99.33 718.14,-84.93 759.36,-75.44"/>
<polygon fill="#63b8ff" stroke="#63b8ff" points="760.4,-78.79 769.36,-73.13 758.83,-71.97 760.4,-78.79"/>
</a>
</g>
</g>
<!-- Node3&#45;&gt;Node19 -->
<g id="edge19_Node000003_Node000019" class="edge">
<title>Node3&#45;&gt;Node19</title>
<g id="a_edge19_Node000003_Node000019"><a xlink:title=" ">
<path fill="none" stroke="#63b8ff" d="M618.57,-114.09C685.26,-104.49 788.37,-89.19 877.5,-74 878.6,-73.81 879.71,-73.62 880.83,-73.43"/>
<polygon fill="#63b8ff" stroke="#63b8ff" points="881.83,-76.8 891.05,-71.59 880.59,-69.91 881.83,-76.8"/>
</a>
</g>
</g>
<!-- Node4&#45;&gt;Node5 -->
<g id="edge4_Node000004_Node000005" class="edge">
<title>Node4&#45;&gt;Node5</title>
<g id="a_edge4_Node000004_Node000005"><a xlink:title=" ">
<path fill="none" stroke="#63b8ff" d="M281.17,-59.65C376.65,-49.88 627.37,-24.22 723.36,-14.4"/>
<polygon fill="#63b8ff" stroke="#63b8ff" points="723.89,-17.87 733.49,-13.37 723.18,-10.9 723.89,-17.87"/>
</a>
</g>
</g>
<!-- Node4&#45;&gt;Node6 -->
<g id="edge5_Node000004_Node000006" class="edge">
<title>Node4&#45;&gt;Node6</title>
<g id="a_edge5_Node000004_Node000006"><a xlink:title=" ">
<path fill="none" stroke="#63b8ff" d="M208.64,-54.98C168.65,-45.22 103.41,-29.29 62.83,-19.37"/>
<polygon fill="#63b8ff" stroke="#63b8ff" points="63.62,-15.96 53.07,-16.99 61.96,-22.76 63.62,-15.96"/>
</a>
</g>
</g>
<!-- Node4&#45;&gt;Node7 -->
<g id="edge6_Node000004_Node000007" class="edge">
<title>Node4&#45;&gt;Node7</title>
<g id="a_edge6_Node000004_Node000007"><a xlink:title=" ">
<path fill="none" stroke="#63b8ff" d="M220.04,-54.98C195.92,-46.23 158.13,-32.51 130.9,-22.62"/>
<polygon fill="#63b8ff" stroke="#63b8ff" points="131.98,-19.29 121.38,-19.17 129.59,-25.87 131.98,-19.29"/>
</a>
</g>
</g>
<!-- Node8 -->
<g id="Node000008" class="node">
<title>Node8</title>
<g id="a_Node000008"><a xlink:title=" ">
<polygon fill="#e0e0e0" stroke="#999999" points="338.5,-19 288.5,-19 288.5,0 338.5,0 338.5,-19"/>
<text text-anchor="middle" x="313.5" y="-7" font-family="Helvetica,sans-Serif" font-size="10.00">stdio.h</text>
</a>
</g>
</g>
<!-- Node4&#45;&gt;Node8 -->
<g id="edge7_Node000004_Node000008" class="edge">
<title>Node4&#45;&gt;Node8</title>
<g id="a_edge7_Node000004_Node000008"><a xlink:title=" ">
<path fill="none" stroke="#63b8ff" d="M254.75,-54.98C265.3,-47 281.3,-34.88 293.94,-25.31"/>
<polygon fill="#63b8ff" stroke="#63b8ff" points="296.19,-28 302.05,-19.17 291.96,-22.42 296.19,-28"/>
</a>
</g>
</g>
<!-- Node9 -->
<g id="Node000009" class="node">
<title>Node9</title>
<g id="a_Node000009"><a xlink:title=" ">
<polygon fill="#e0e0e0" stroke="#999999" points="412,-19 357,-19 357,0 412,0 412,-19"/>
<text text-anchor="middle" x="384.5" y="-7" font-family="Helvetica,sans-Serif" font-size="10.00">signal.h</text>
</a>
</g>
</g>
<!-- Node4&#45;&gt;Node9 -->
<g id="edge8_Node000004_Node000009" class="edge">
<title>Node4&#45;&gt;Node9</title>
<g id="a_edge8_Node000004_Node000009"><a xlink:title=" ">
<path fill="none" stroke="#63b8ff" d="M266.15,-54.98C289.35,-46.27 325.62,-32.63 351.9,-22.75"/>
<polygon fill="#63b8ff" stroke="#63b8ff" points="353.3,-25.97 361.43,-19.17 350.84,-19.41 353.3,-25.97"/>
</a>
</g>
</g>
<!-- Node4&#45;&gt;Node10 -->
<g id="edge9_Node000004_Node000010" class="edge">
<title>Node4&#45;&gt;Node10</title>
<g id="a_edge9_Node000004_Node000010"><a xlink:title=" ">
<path fill="none" stroke="#63b8ff" d="M281.26,-57.21C286.05,-56.45 290.89,-55.69 295.5,-55 408.55,-38 440.44,-41.48 556.77,-18.92"/>
<polygon fill="#63b8ff" stroke="#63b8ff" points="557.64,-22.32 566.78,-16.96 556.3,-15.45 557.64,-22.32"/>
</a>
</g>
</g>
<!-- Node11 -->
<g id="Node000011" class="node">
<title>Node11</title>
<g id="a_Node000011"><a xlink:title=" ">
<polygon fill="#e0e0e0" stroke="#999999" points="549,-19 430,-19 430,0 549,0 549,-19"/>
<text text-anchor="middle" x="489.5" y="-7" font-family="Helvetica,sans-Serif" font-size="10.00">bits/types/siginfo_t.h</text>
</a>
</g>
</g>
<!-- Node4&#45;&gt;Node11 -->
<g id="edge10_Node000004_Node000011" class="edge">
<title>Node4&#45;&gt;Node11</title>
<g id="a_edge10_Node000004_Node000011"><a xlink:title=" ">
<path fill="none" stroke="#63b8ff" d="M281.13,-55.39C323.64,-46.23 392.99,-31.29 439.89,-21.19"/>
<polygon fill="#63b8ff" stroke="#63b8ff" points="440.8,-24.57 449.84,-19.05 439.32,-17.73 440.8,-24.57"/>
</a>
</g>
</g>
<!-- Node12 -->
<g id="Node000012" class="node">
<title>Node12</title>
<g id="a_Node000012"><a xlink:title=" ">
<polygon fill="#e0e0e0" stroke="#999999" points="198.5,-19 142.5,-19 142.5,0 198.5,0 198.5,-19"/>
<text text-anchor="middle" x="170.5" y="-7" font-family="Helvetica,sans-Serif" font-size="10.00">stdarg.h</text>
</a>
</g>
</g>
<!-- Node4&#45;&gt;Node12 -->
<g id="edge11_Node000004_Node000012" class="edge">
<title>Node4&#45;&gt;Node12</title>
<g id="a_edge11_Node000004_Node000012"><a xlink:title=" ">
<path fill="none" stroke="#63b8ff" d="M231.77,-54.98C220.77,-47 204.08,-34.88 190.9,-25.31"/>
<polygon fill="#63b8ff" stroke="#63b8ff" points="192.59,-22.21 182.44,-19.17 188.48,-27.88 192.59,-22.21"/>
</a>
</g>
</g>
<!-- Node13 -->
<g id="Node000013" class="node">
<title>Node13</title>
<g id="a_Node000013"><a xlink:title=" ">
<polygon fill="#e0e0e0" stroke="#999999" points="270,-19 217,-19 217,0 270,0 270,-19"/>
<text text-anchor="middle" x="243.5" y="-7" font-family="Helvetica,sans-Serif" font-size="10.00">limits.h</text>
</a>
</g>
</g>
<!-- Node4&#45;&gt;Node13 -->
<g id="edge12_Node000004_Node000013" class="edge">
<title>Node4&#45;&gt;Node13</title>
<g id="a_edge12_Node000004_Node000013"><a xlink:title=" ">
<path fill="none" stroke="#63b8ff" d="M243.5,-54.75C243.5,-47.8 243.5,-37.85 243.5,-29.13"/>
<polygon fill="#63b8ff" stroke="#63b8ff" points="247,-29.09 243.5,-19.09 240,-29.09 247,-29.09"/>
</a>
</g>
</g>
</g>
</svg>
