<?xml version="1.0" encoding="UTF-8" standalone="no"?>
<!DOCTYPE svg PUBLIC "-//W3C//DTD SVG 1.1//EN"
 "http://www.w3.org/Graphics/SVG/1.1/DTD/svg11.dtd">
<!-- Generated by graphviz version 2.43.0 (0)
 -->
<!-- Title: handle_quotes Pages: 1 -->
<svg width="763pt" height="288pt"
 viewBox="0.00 0.00 763.00 288.00" xmlns="http://www.w3.org/2000/svg" xmlns:xlink="http://www.w3.org/1999/xlink">
<g id="graph0" class="graph" transform="scale(1 1) rotate(0) translate(4 284)">
<title>handle_quotes</title>
<!-- Node1 -->
<g id="Node000001" class="node">
<title>Node1</title>
<g id="a_Node000001"><a xlink:title="Handles tokens enclosed in quotes and adds them to the list.">
<polygon fill="#999999" stroke="#666666" points="88,-185 0,-185 0,-166 88,-166 88,-185"/>
<text text-anchor="middle" x="44" y="-173" font-family="Helvetica,sans-Serif" font-size="10.00">handle_quotes</text>
</a>
</g>
</g>
<!-- Node2 -->
<g id="Node000002" class="node">
<title>Node2</title>
<g id="a_Node000002"><a xlink:href="utils__token_8c.html#a44faf9bdbfed1c7003733fff20cd6930" target="_top" xlink:title="Adds a token to the end of the linked list of tokens.">
<polygon fill="white" stroke="#666666" points="203.5,-280 136.5,-280 136.5,-261 203.5,-261 203.5,-280"/>
<text text-anchor="middle" x="170" y="-268" font-family="Helvetica,sans-Serif" font-size="10.00">add_token</text>
</a>
</g>
</g>
<!-- Node1&#45;&gt;Node2 -->
<g id="edge1_Node000001_Node000002" class="edge">
<title>Node1&#45;&gt;Node2</title>
<g id="a_edge1_Node000001_Node000002"><a xlink:title=" ">
<path fill="none" stroke="#63b8ff" d="M54.1,-185.04C68.18,-199.48 96.51,-227.25 124,-246.5 128.92,-249.95 134.4,-253.26 139.79,-256.26"/>
<polygon fill="#63b8ff" stroke="#63b8ff" points="138.2,-259.37 148.67,-260.98 141.49,-253.19 138.2,-259.37"/>
</a>
</g>
</g>
<!-- Node3 -->
<g id="Node000003" class="node">
<title>Node3</title>
<g id="a_Node000003"><a xlink:href="utils__token_8c.html#ab94cb586647a70372e436ef3214797ad" target="_top" xlink:title="Creates a new token node.">
<polygon fill="white" stroke="#666666" points="332.5,-261 263.5,-261 263.5,-242 332.5,-242 332.5,-261"/>
<text text-anchor="middle" x="298" y="-249" font-family="Helvetica,sans-Serif" font-size="10.00">new_token</text>
</a>
</g>
</g>
<!-- Node1&#45;&gt;Node3 -->
<g id="edge27_Node000001_Node000003" class="edge">
<title>Node1&#45;&gt;Node3</title>
<g id="a_edge27_Node000001_Node000003"><a xlink:title=" ">
<path fill="none" stroke="#63b8ff" d="M62.08,-185.15C77.76,-193.66 101.84,-205.85 124,-213.5 166.86,-228.29 217.74,-238.65 253.18,-244.77"/>
<polygon fill="#63b8ff" stroke="#63b8ff" points="252.76,-248.25 263.2,-246.47 253.92,-241.35 252.76,-248.25"/>
</a>
</g>
</g>
<!-- Node5 -->
<g id="Node000005" class="node">
<title>Node5</title>
<g id="a_Node000005"><a xlink:href="write__errors_8c.html#a0c76a459d59d98c5e92eb1333d6d9858" target="_top" xlink:title="Prints an error message to standard error.">
<polygon fill="white" stroke="#666666" points="198.5,-204 141.5,-204 141.5,-185 198.5,-185 198.5,-204"/>
<text text-anchor="middle" x="170" y="-192" font-family="Helvetica,sans-Serif" font-size="10.00">error_ex</text>
</a>
</g>
</g>
<!-- Node1&#45;&gt;Node5 -->
<g id="edge4_Node000001_Node000005" class="edge">
<title>Node1&#45;&gt;Node5</title>
<g id="a_edge4_Node000001_Node000005"><a xlink:title=" ">
<path fill="none" stroke="#63b8ff" d="M88.02,-182.09C102.07,-184.24 117.55,-186.62 131.19,-188.71"/>
<polygon fill="#63b8ff" stroke="#63b8ff" points="130.78,-192.19 141.2,-190.24 131.84,-185.27 130.78,-192.19"/>
</a>
</g>
</g>
<!-- Node16 -->
<g id="Node000016" class="node">
<title>Node16</title>
<g id="a_Node000016"><a xlink:href="free__functions_8c.html#a4f32f08947270b8aec54f43ddd8b02d4" target="_top" xlink:title="Frees a list of tokens.">
<polygon fill="white" stroke="#666666" points="204,-167 136,-167 136,-148 204,-148 204,-167"/>
<text text-anchor="middle" x="170" y="-155" font-family="Helvetica,sans-Serif" font-size="10.00">free_token</text>
</a>
</g>
</g>
<!-- Node1&#45;&gt;Node16 -->
<g id="edge20_Node000001_Node000016" class="edge">
<title>Node1&#45;&gt;Node16</title>
<g id="a_edge20_Node000001_Node000016"><a xlink:title=" ">
<path fill="none" stroke="#63b8ff" d="M88.02,-169.25C100.26,-167.48 113.6,-165.54 125.84,-163.76"/>
<polygon fill="#63b8ff" stroke="#63b8ff" points="126.44,-167.22 135.83,-162.31 125.43,-160.29 126.44,-167.22"/>
</a>
</g>
</g>
<!-- Node17 -->
<g id="Node000017" class="node">
<title>Node17</title>
<g id="a_Node000017"><a xlink:href="handle__tokens_8c.html#ae7f7697d03ed4a73a1e374155380e209" target="_top" xlink:title="Processes a quoted string and copies it into the buffer.">
<polygon fill="white" stroke="#666666" points="210,-130 130,-130 130,-111 210,-111 210,-130"/>
<text text-anchor="middle" x="170" y="-118" font-family="Helvetica,sans-Serif" font-size="10.00">ft_for_quotes</text>
</a>
</g>
</g>
<!-- Node1&#45;&gt;Node17 -->
<g id="edge21_Node000001_Node000017" class="edge">
<title>Node1&#45;&gt;Node17</title>
<g id="a_edge21_Node000001_Node000017"><a xlink:title=" ">
<path fill="none" stroke="#63b8ff" d="M65.72,-165.87C81.61,-158.52 104.13,-148.22 124,-139.5 128.13,-137.69 132.49,-135.81 136.8,-133.97"/>
<polygon fill="#63b8ff" stroke="#63b8ff" points="138.21,-137.17 146.05,-130.04 135.48,-130.72 138.21,-137.17"/>
</a>
</g>
</g>
<!-- Node19 -->
<g id="Node000019" class="node">
<title>Node19</title>
<g id="a_Node000019"><a xlink:href="utils__token_8c.html#a611ee3ce2706d68aa376e8222614c6eb" target="_top" xlink:title="Determines the token type based on the value, quote flag, and command flag.">
<polygon fill="white" stroke="#666666" points="216,-93 124,-93 124,-74 216,-74 216,-93"/>
<text text-anchor="middle" x="170" y="-81" font-family="Helvetica,sans-Serif" font-size="10.00">get_token_type</text>
</a>
</g>
</g>
<!-- Node1&#45;&gt;Node19 -->
<g id="edge23_Node000001_Node000019" class="edge">
<title>Node1&#45;&gt;Node19</title>
<g id="a_edge23_Node000001_Node000019"><a xlink:title=" ">
<path fill="none" stroke="#63b8ff" d="M53.38,-165.84C66.94,-150.69 95.12,-121.12 124,-102.5 126.78,-100.71 129.76,-99.02 132.81,-97.45"/>
<polygon fill="#63b8ff" stroke="#63b8ff" points="134.5,-100.52 142.05,-93.08 131.51,-94.19 134.5,-100.52"/>
</a>
</g>
</g>
<!-- Node2&#45;&gt;Node3 -->
<g id="edge2_Node000002_Node000003" class="edge">
<title>Node2&#45;&gt;Node3</title>
<g id="a_edge2_Node000002_Node000003"><a xlink:title=" ">
<path fill="none" stroke="#63b8ff" d="M203.78,-265.56C218.73,-263.3 236.66,-260.6 252.78,-258.17"/>
<polygon fill="#63b8ff" stroke="#63b8ff" points="253.7,-261.57 263.07,-256.62 252.66,-254.65 253.7,-261.57"/>
</a>
</g>
</g>
<!-- Node4 -->
<g id="Node000004" class="node">
<title>Node4</title>
<g id="a_Node000004"><a xlink:href="ft__strdup_8c.html#aebe73f27c70c56ac5053f860ef5436c9" target="_top" xlink:title="Duplicates a null&#45;terminated string by allocating memory.">
<polygon fill="white" stroke="#666666" points="451,-261 392,-261 392,-242 451,-242 451,-261"/>
<text text-anchor="middle" x="421.5" y="-249" font-family="Helvetica,sans-Serif" font-size="10.00">ft_strdup</text>
</a>
</g>
</g>
<!-- Node3&#45;&gt;Node4 -->
<g id="edge3_Node000003_Node000004" class="edge">
<title>Node3&#45;&gt;Node4</title>
<g id="a_edge3_Node000003_Node000004"><a xlink:title=" ">
<path fill="none" stroke="#63b8ff" d="M332.52,-251.5C347.73,-251.5 365.82,-251.5 381.62,-251.5"/>
<polygon fill="#63b8ff" stroke="#63b8ff" points="381.62,-255 391.62,-251.5 381.62,-248 381.62,-255"/>
</a>
</g>
</g>
<!-- Node6 -->
<g id="Node000006" class="node">
<title>Node6</title>
<g id="a_Node000006"><a xlink:href="ft__printf_8c.html#a091532b7f37af84bdecc84dccf4eedb1" target="_top" xlink:title="A simplified printf function that outputs formatted data to a given file descriptor.">
<polygon fill="white" stroke="#666666" points="325.5,-204 270.5,-204 270.5,-185 325.5,-185 325.5,-204"/>
<text text-anchor="middle" x="298" y="-192" font-family="Helvetica,sans-Serif" font-size="10.00">ft_printf</text>
</a>
</g>
</g>
<!-- Node5&#45;&gt;Node6 -->
<g id="edge5_Node000005_Node000006" class="edge">
<title>Node5&#45;&gt;Node6</title>
<g id="a_edge5_Node000005_Node000006"><a xlink:title=" ">
<path fill="none" stroke="#63b8ff" d="M198.65,-194.5C216.7,-194.5 240.48,-194.5 260.14,-194.5"/>
<polygon fill="#63b8ff" stroke="#63b8ff" points="260.28,-198 270.28,-194.5 260.28,-191 260.28,-198"/>
</a>
</g>
</g>
<!-- Node7 -->
<g id="Node000007" class="node">
<title>Node7</title>
<g id="a_Node000007"><a xlink:href="ft__printf_8c.html#a80c1c206dcd33d07c265581878aaa300" target="_top" xlink:title="Processes a single format specifier and prints the corresponding argument.">
<polygon fill="white" stroke="#666666" points="463,-148 380,-148 380,-129 463,-129 463,-148"/>
<text text-anchor="middle" x="421.5" y="-136" font-family="Helvetica,sans-Serif" font-size="10.00">check_format</text>
</a>
</g>
</g>
<!-- Node6&#45;&gt;Node7 -->
<g id="edge6_Node000006_Node000007" class="edge">
<title>Node6&#45;&gt;Node7</title>
<g id="a_edge6_Node000006_Node000007"><a xlink:title=" ">
<path fill="none" stroke="#63b8ff" d="M319.89,-184.87C339.39,-175.88 368.71,-162.37 390.67,-152.25"/>
<polygon fill="#63b8ff" stroke="#63b8ff" points="392.27,-155.37 399.89,-148 389.34,-149.01 392.27,-155.37"/>
</a>
</g>
</g>
<!-- Node11 -->
<g id="Node000011" class="node">
<title>Node11</title>
<g id="a_Node000011"><a xlink:href="ft__putchar__fd_8c.html#a03ef80b25dc4a521379fa92ad97bad21" target="_top" xlink:title="Writes a single character to the specified file descriptor.">
<polygon fill="white" stroke="#666666" points="594,-240 514,-240 514,-221 594,-221 594,-240"/>
<text text-anchor="middle" x="554" y="-228" font-family="Helvetica,sans-Serif" font-size="10.00">ft_putchar_fd</text>
</a>
</g>
</g>
<!-- Node6&#45;&gt;Node11 -->
<g id="edge19_Node000006_Node000011" class="edge">
<title>Node6&#45;&gt;Node11</title>
<g id="a_edge19_Node000006_Node000011"><a xlink:title=" ">
<path fill="none" stroke="#63b8ff" d="M325.7,-198.28C367.85,-204.26 450.48,-215.97 503.64,-223.5"/>
<polygon fill="#63b8ff" stroke="#63b8ff" points="503.47,-227.01 513.86,-224.95 504.45,-220.08 503.47,-227.01"/>
</a>
</g>
</g>
<!-- Node8 -->
<g id="Node000008" class="node">
<title>Node8</title>
<g id="a_Node000008"><a xlink:href="ft__forpointer_8c.html#a8e02c77b80406af72327ebf71f537786" target="_top" xlink:title="Prints a pointer in hexadecimal format prefixed with &quot;0x&quot;.">
<polygon fill="white" stroke="#666666" points="592.5,-203 515.5,-203 515.5,-184 592.5,-184 592.5,-203"/>
<text text-anchor="middle" x="554" y="-191" font-family="Helvetica,sans-Serif" font-size="10.00">ft_forpointer</text>
</a>
</g>
</g>
<!-- Node7&#45;&gt;Node8 -->
<g id="edge7_Node000007_Node000008" class="edge">
<title>Node7&#45;&gt;Node8</title>
<g id="a_edge7_Node000007_Node000008"><a xlink:title=" ">
<path fill="none" stroke="#63b8ff" d="M440.75,-148.15C456.06,-156.05 478.64,-167.22 499,-175.5 503.4,-177.29 508.06,-179.04 512.71,-180.71"/>
<polygon fill="#63b8ff" stroke="#63b8ff" points="511.6,-184.03 522.19,-183.99 513.89,-177.41 511.6,-184.03"/>
</a>
</g>
</g>
<!-- Node10 -->
<g id="Node000010" class="node">
<title>Node10</title>
<g id="a_Node000010"><a xlink:href="ft__hexadecimal_8c.html#a39c845e0a4286d3ac1e04c1e64ac734b" target="_top" xlink:title="Prints an unsigned integer in hexadecimal format.">
<polygon fill="white" stroke="#666666" points="600,-148 508,-148 508,-129 600,-129 600,-148"/>
<text text-anchor="middle" x="554" y="-136" font-family="Helvetica,sans-Serif" font-size="10.00">ft_hexadecimal</text>
</a>
</g>
</g>
<!-- Node7&#45;&gt;Node10 -->
<g id="edge10_Node000007_Node000010" class="edge">
<title>Node7&#45;&gt;Node10</title>
<g id="a_edge10_Node000007_Node000010"><a xlink:title=" ">
<path fill="none" stroke="#63b8ff" d="M463.08,-138.5C474.07,-138.5 486.16,-138.5 497.82,-138.5"/>
<polygon fill="#63b8ff" stroke="#63b8ff" points="497.9,-142 507.9,-138.5 497.9,-135 497.9,-142"/>
</a>
</g>
</g>
<!-- Node7&#45;&gt;Node11 -->
<g id="edge12_Node000007_Node000011" class="edge">
<title>Node7&#45;&gt;Node11</title>
<g id="a_edge12_Node000007_Node000011"><a xlink:title=" ">
<path fill="none" stroke="#63b8ff" d="M429.94,-148.07C442.55,-163.69 469.61,-194.67 499,-212.5 501.66,-214.11 504.48,-215.6 507.39,-216.97"/>
<polygon fill="#63b8ff" stroke="#63b8ff" points="506.27,-220.3 516.85,-220.96 508.99,-213.85 506.27,-220.3"/>
</a>
</g>
</g>
<!-- Node12 -->
<g id="Node000012" class="node">
<title>Node12</title>
<g id="a_Node000012"><a xlink:href="ft__putnbr__fd_8c.html#a1554101ee350c316340c78e19faddaa8" target="_top" xlink:title="Writes an integer to a given file descriptor.">
<polygon fill="white" stroke="#666666" points="591.5,-93 516.5,-93 516.5,-74 591.5,-74 591.5,-93"/>
<text text-anchor="middle" x="554" y="-81" font-family="Helvetica,sans-Serif" font-size="10.00">ft_putnbr_fd</text>
</a>
</g>
</g>
<!-- Node7&#45;&gt;Node12 -->
<g id="edge13_Node000007_Node000012" class="edge">
<title>Node7&#45;&gt;Node12</title>
<g id="a_edge13_Node000007_Node000012"><a xlink:title=" ">
<path fill="none" stroke="#63b8ff" d="M445.23,-128.92C466.06,-120.14 497.13,-107.05 520.57,-97.17"/>
<polygon fill="#63b8ff" stroke="#63b8ff" points="522.24,-100.26 530.09,-93.16 519.52,-93.81 522.24,-100.26"/>
</a>
</g>
</g>
<!-- Node13 -->
<g id="Node000013" class="node">
<title>Node13</title>
<g id="a_Node000013"><a xlink:href="ft__putstr__fd_8c.html#a00b0638f31a75c7a30f77f33888bfb73" target="_top" xlink:title="Writes a null&#45;terminated string to the specified file descriptor.">
<polygon fill="white" stroke="#666666" points="590,-56 518,-56 518,-37 590,-37 590,-56"/>
<text text-anchor="middle" x="554" y="-44" font-family="Helvetica,sans-Serif" font-size="10.00">ft_putstr_fd</text>
</a>
</g>
</g>
<!-- Node7&#45;&gt;Node13 -->
<g id="edge15_Node000007_Node000013" class="edge">
<title>Node7&#45;&gt;Node13</title>
<g id="a_edge15_Node000007_Node000013"><a xlink:title=" ">
<path fill="none" stroke="#63b8ff" d="M430.42,-128.62C443.28,-113.15 470.21,-83.16 499,-65.5 502.34,-63.45 505.92,-61.59 509.61,-59.89"/>
<polygon fill="#63b8ff" stroke="#63b8ff" points="510.98,-63.11 518.87,-56.04 508.29,-56.65 510.98,-63.11"/>
</a>
</g>
</g>
<!-- Node14 -->
<g id="Node000014" class="node">
<title>Node14</title>
<g id="a_Node000014"><a xlink:href="ft__unsigned__putnbr_8c.html#af9a70f8607b40cf2a7706f9d3725b549" target="_top" xlink:title="Writes an unsigned integer to the given file descriptor.">
<polygon fill="white" stroke="#666666" points="609,-19 499,-19 499,0 609,0 609,-19"/>
<text text-anchor="middle" x="554" y="-7" font-family="Helvetica,sans-Serif" font-size="10.00">ft_unsigned_putnbr</text>
</a>
</g>
</g>
<!-- Node7&#45;&gt;Node14 -->
<g id="edge16_Node000007_Node000014" class="edge">
<title>Node7&#45;&gt;Node14</title>
<g id="a_edge16_Node000007_Node000014"><a xlink:title=" ">
<path fill="none" stroke="#63b8ff" d="M426.51,-128.93C435.94,-107.55 461.58,-55.62 499,-27.5 500.83,-26.13 502.77,-24.85 504.79,-23.67"/>
<polygon fill="#63b8ff" stroke="#63b8ff" points="506.61,-26.67 514,-19.09 503.49,-20.41 506.61,-26.67"/>
</a>
</g>
</g>
<!-- Node9 -->
<g id="Node000009" class="node">
<title>Node9</title>
<g id="a_Node000009"><a xlink:href="ft__forpointer_8c.html#aded1bf735c8a10e47396170d27c5b6aa" target="_top" xlink:title="Recursively prints a memory address in hexadecimal format.">
<polygon fill="white" stroke="#666666" points="755,-203 645,-203 645,-184 755,-184 755,-203"/>
<text text-anchor="middle" x="700" y="-191" font-family="Helvetica,sans-Serif" font-size="10.00">ft_ricorsive_pointer</text>
</a>
</g>
</g>
<!-- Node8&#45;&gt;Node9 -->
<g id="edge8_Node000008_Node000009" class="edge">
<title>Node8&#45;&gt;Node9</title>
<g id="a_edge8_Node000008_Node000009"><a xlink:title=" ">
<path fill="none" stroke="#63b8ff" d="M592.83,-193.5C605.64,-193.5 620.33,-193.5 634.61,-193.5"/>
<polygon fill="#63b8ff" stroke="#63b8ff" points="634.9,-197 644.9,-193.5 634.9,-190 634.9,-197"/>
</a>
</g>
</g>
<!-- Node9&#45;&gt;Node9 -->
<g id="edge9_Node000009_Node000009" class="edge">
<title>Node9&#45;&gt;Node9</title>
<g id="a_edge9_Node000009_Node000009"><a xlink:title=" ">
<path fill="none" stroke="#63b8ff" d="M677.5,-203.08C666.55,-211.73 674.05,-221 700,-221 716.62,-221 725.68,-217.2 727.16,-212.19"/>
<polygon fill="#63b8ff" stroke="#63b8ff" points="730.17,-210.39 722.5,-203.08 723.94,-213.58 730.17,-210.39"/>
</a>
</g>
</g>
<!-- Node10&#45;&gt;Node10 -->
<g id="edge11_Node000010_Node000010" class="edge">
<title>Node10&#45;&gt;Node10</title>
<g id="a_edge11_Node000010_Node000010"><a xlink:title=" ">
<path fill="none" stroke="#63b8ff" d="M533.65,-148.08C523.76,-156.73 530.54,-166 554,-166 569.03,-166 577.21,-162.2 578.55,-157.19"/>
<polygon fill="#63b8ff" stroke="#63b8ff" points="581.72,-155.69 574.35,-148.08 575.36,-158.63 581.72,-155.69"/>
</a>
</g>
</g>
<!-- Node12&#45;&gt;Node12 -->
<g id="edge14_Node000012_Node000012" class="edge">
<title>Node12&#45;&gt;Node12</title>
<g id="a_edge14_Node000012_Node000012"><a xlink:title=" ">
<path fill="none" stroke="#63b8ff" d="M533.65,-93.08C523.76,-101.73 530.54,-111 554,-111 569.03,-111 577.21,-107.2 578.55,-102.19"/>
<polygon fill="#63b8ff" stroke="#63b8ff" points="581.72,-100.69 574.35,-93.08 575.36,-103.63 581.72,-100.69"/>
</a>
</g>
</g>
<!-- Node15 -->
<g id="Node000015" class="node">
<title>Node15</title>
<g id="a_Node000015"><a xlink:href="ft__putnbr_8c.html#a2e51f80c9e46e52f4adf94617fb51ada" target="_top" xlink:title="Writes an integer to the standard output (stdout).">
<polygon fill="white" stroke="#666666" points="730,-19 670,-19 670,0 730,0 730,-19"/>
<text text-anchor="middle" x="700" y="-7" font-family="Helvetica,sans-Serif" font-size="10.00">ft_putnbr</text>
</a>
</g>
</g>
<!-- Node14&#45;&gt;Node15 -->
<g id="edge17_Node000014_Node000015" class="edge">
<title>Node14&#45;&gt;Node15</title>
<g id="a_edge17_Node000014_Node000015"><a xlink:title=" ">
<path fill="none" stroke="#63b8ff" d="M609.03,-9.5C625.76,-9.5 643.87,-9.5 659.43,-9.5"/>
<polygon fill="#63b8ff" stroke="#63b8ff" points="659.74,-13 669.74,-9.5 659.74,-6 659.74,-13"/>
</a>
</g>
</g>
<!-- Node15&#45;&gt;Node15 -->
<g id="edge18_Node000015_Node000015" class="edge">
<title>Node15&#45;&gt;Node15</title>
<g id="a_edge18_Node000015_Node000015"><a xlink:title=" ">
<path fill="none" stroke="#63b8ff" d="M677.5,-19.08C666.55,-27.73 674.05,-37 700,-37 716.62,-37 725.68,-33.2 727.16,-28.19"/>
<polygon fill="#63b8ff" stroke="#63b8ff" points="730.17,-26.39 722.5,-19.08 723.94,-29.58 730.17,-26.39"/>
</a>
</g>
</g>
<!-- Node18 -->
<g id="Node000018" class="node">
<title>Node18</title>
<g id="a_Node000018"><a xlink:href="handle__tokens_8c.html#ab9034fcc1e006dc98dfc000f28f1aab8" target="_top" xlink:title="Sets the quote type and corresponding flag.">
<polygon fill="white" stroke="#666666" points="331.5,-149 264.5,-149 264.5,-130 331.5,-130 331.5,-149"/>
<text text-anchor="middle" x="298" y="-137" font-family="Helvetica,sans-Serif" font-size="10.00">ft_set_flag</text>
</a>
</g>
</g>
<!-- Node17&#45;&gt;Node18 -->
<g id="edge22_Node000017_Node000018" class="edge">
<title>Node17&#45;&gt;Node18</title>
<g id="a_edge22_Node000017_Node000018"><a xlink:title=" ">
<path fill="none" stroke="#63b8ff" d="M210.18,-126.41C224.13,-128.51 239.91,-130.89 254.15,-133.04"/>
<polygon fill="#63b8ff" stroke="#63b8ff" points="253.79,-136.52 264.2,-134.55 254.84,-129.6 253.79,-136.52"/>
</a>
</g>
</g>
<!-- Node20 -->
<g id="Node000020" class="node">
<title>Node20</title>
<g id="a_Node000020"><a xlink:href="utils__token_8c.html#a51f971c32b38d16d3acd01a9f26a94c9" target="_top" xlink:title="Checks if the string contains the exit status variable &quot;$?&quot;.">
<polygon fill="white" stroke="#666666" points="344,-112 252,-112 252,-93 344,-93 344,-112"/>
<text text-anchor="middle" x="298" y="-100" font-family="Helvetica,sans-Serif" font-size="10.00">exit_status_var</text>
</a>
</g>
</g>
<!-- Node19&#45;&gt;Node20 -->
<g id="edge24_Node000019_Node000020" class="edge">
<title>Node19&#45;&gt;Node20</title>
<g id="a_edge24_Node000019_Node000020"><a xlink:title=" ">
<path fill="none" stroke="#63b8ff" d="M216.13,-90.31C224.46,-91.56 233.23,-92.88 241.81,-94.18"/>
<polygon fill="#63b8ff" stroke="#63b8ff" points="241.35,-97.65 251.76,-95.68 242.39,-90.73 241.35,-97.65"/>
</a>
</g>
</g>
<!-- Node21 -->
<g id="Node000021" class="node">
<title>Node21</title>
<g id="a_Node000021"><a xlink:href="utils__env_8c.html#a43ecaeb2991db8347a59f45f96e8a21f" target="_top" xlink:title="Checks if the string contains the character &#39;$&#39;, indicating an environment variable.">
<polygon fill="white" stroke="#666666" points="343.5,-75 252.5,-75 252.5,-56 343.5,-56 343.5,-75"/>
<text text-anchor="middle" x="298" y="-63" font-family="Helvetica,sans-Serif" font-size="10.00">ft_find_env_var</text>
</a>
</g>
</g>
<!-- Node19&#45;&gt;Node21 -->
<g id="edge25_Node000019_Node000021" class="edge">
<title>Node19&#45;&gt;Node21</title>
<g id="a_edge25_Node000019_Node000021"><a xlink:title=" ">
<path fill="none" stroke="#63b8ff" d="M216.13,-77.05C224.56,-75.85 233.45,-74.58 242.13,-73.34"/>
<polygon fill="#63b8ff" stroke="#63b8ff" points="242.78,-76.78 252.18,-71.9 241.79,-69.85 242.78,-76.78"/>
</a>
</g>
</g>
<!-- Node22 -->
<g id="Node000022" class="node">
<title>Node22</title>
<g id="a_Node000022"><a xlink:href="ft__strcmp_8c.html#a1f2ff2312e5994560c9537cd9173be94" target="_top" xlink:title="Compares two null&#45;terminated strings lexicographically.">
<polygon fill="white" stroke="#666666" points="329,-38 267,-38 267,-19 329,-19 329,-38"/>
<text text-anchor="middle" x="298" y="-26" font-family="Helvetica,sans-Serif" font-size="10.00">ft_strcmp</text>
</a>
</g>
</g>
<!-- Node19&#45;&gt;Node22 -->
<g id="edge26_Node000019_Node000022" class="edge">
<title>Node19&#45;&gt;Node22</title>
<g id="a_edge26_Node000019_Node000022"><a xlink:title=" ">
<path fill="none" stroke="#63b8ff" d="M191.19,-73.95C207.5,-66.32 231.11,-55.44 252,-46.5 255.64,-44.94 259.46,-43.35 263.27,-41.79"/>
<polygon fill="#63b8ff" stroke="#63b8ff" points="264.67,-45 272.62,-38 262.04,-38.51 264.67,-45"/>
</a>
</g>
</g>
</g>
</svg>
