<?xml version="1.0" encoding="UTF-8" standalone="no"?>
<!DOCTYPE svg PUBLIC "-//W3C//DTD SVG 1.1//EN"
 "http://www.w3.org/Graphics/SVG/1.1/DTD/svg11.dtd">
<!-- Generated by graphviz version 2.43.0 (0)
 -->
<!-- Title: ft_get_tokens Pages: 1 -->
<svg width="914pt" height="448pt"
 viewBox="0.00 0.00 914.00 448.00" xmlns="http://www.w3.org/2000/svg" xmlns:xlink="http://www.w3.org/1999/xlink">
<g id="graph0" class="graph" transform="scale(1 1) rotate(0) translate(4 444)">
<title>ft_get_tokens</title>
<!-- Node1 -->
<g id="Node000001" class="node">
<title>Node1</title>
<g id="a_Node000001"><a xlink:title="Extracts and builds a single token from the user input.">
<polygon fill="#999999" stroke="#666666" points="82,-151 0,-151 0,-132 82,-132 82,-151"/>
<text text-anchor="middle" x="41" y="-139" font-family="Helvetica,sans-Serif" font-size="10.00">ft_get_tokens</text>
</a>
</g>
</g>
<!-- Node2 -->
<g id="Node000002" class="node">
<title>Node2</title>
<g id="a_Node000002"><a xlink:href="utils__token_8c.html#a44faf9bdbfed1c7003733fff20cd6930" target="_top" xlink:title="Adds a token to the end of the linked list of tokens.">
<polygon fill="white" stroke="#666666" points="354.5,-170 287.5,-170 287.5,-151 354.5,-151 354.5,-170"/>
<text text-anchor="middle" x="321" y="-158" font-family="Helvetica,sans-Serif" font-size="10.00">add_token</text>
</a>
</g>
</g>
<!-- Node1&#45;&gt;Node2 -->
<g id="edge1_Node000001_Node000002" class="edge">
<title>Node1&#45;&gt;Node2</title>
<g id="a_edge1_Node000001_Node000002"><a xlink:title=" ">
<path fill="none" stroke="#63b8ff" d="M82.13,-144.24C134,-147.79 223.97,-153.94 277.15,-157.57"/>
<polygon fill="#63b8ff" stroke="#63b8ff" points="277.05,-161.07 287.27,-158.26 277.53,-154.09 277.05,-161.07"/>
</a>
</g>
</g>
<!-- Node3 -->
<g id="Node000003" class="node">
<title>Node3</title>
<g id="a_Node000003"><a xlink:href="utils__token_8c.html#ab94cb586647a70372e436ef3214797ad" target="_top" xlink:title="Creates a new token node.">
<polygon fill="white" stroke="#666666" points="483.5,-170 414.5,-170 414.5,-151 483.5,-151 483.5,-170"/>
<text text-anchor="middle" x="449" y="-158" font-family="Helvetica,sans-Serif" font-size="10.00">new_token</text>
</a>
</g>
</g>
<!-- Node1&#45;&gt;Node3 -->
<g id="edge40_Node000001_Node000003" class="edge">
<title>Node1&#45;&gt;Node3</title>
<g id="a_edge40_Node000001_Node000003"><a xlink:title=" ">
<path fill="none" stroke="#63b8ff" d="M68.75,-151.02C83.17,-155.78 101.36,-161.22 118,-164.5 226.78,-185.93 256.87,-192.24 367,-179.5 379.55,-178.05 392.99,-175.37 405.24,-172.47"/>
<polygon fill="#63b8ff" stroke="#63b8ff" points="406.33,-175.8 415.2,-170.01 404.65,-169.01 406.33,-175.8"/>
</a>
</g>
</g>
<!-- Node5 -->
<g id="Node000005" class="node">
<title>Node5</title>
<g id="a_Node000005"><a xlink:href="ft__isspace_8c.html#ac7978b309e3e11366ba16643e447528c" target="_top" xlink:title="Checks whether a character is a whitespace character.">
<polygon fill="white" stroke="#666666" points="353.5,-19 288.5,-19 288.5,0 353.5,0 353.5,-19"/>
<text text-anchor="middle" x="321" y="-7" font-family="Helvetica,sans-Serif" font-size="10.00">ft_isspace</text>
</a>
</g>
</g>
<!-- Node1&#45;&gt;Node5 -->
<g id="edge4_Node000001_Node000005" class="edge">
<title>Node1&#45;&gt;Node5</title>
<g id="a_edge4_Node000001_Node000005"><a xlink:title=" ">
<path fill="none" stroke="#63b8ff" d="M49.02,-131.74C61.2,-115.53 87.86,-83.08 118,-65.5 168.68,-35.95 235.63,-21.41 278.27,-14.69"/>
<polygon fill="#63b8ff" stroke="#63b8ff" points="278.93,-18.13 288.3,-13.19 277.89,-11.21 278.93,-18.13"/>
</a>
</g>
</g>
<!-- Node6 -->
<g id="Node000006" class="node">
<title>Node6</title>
<g id="a_Node000006"><a xlink:href="handle__tokens_8c.html#aa2c36964d13c3cd524d41408f386eed9" target="_top" xlink:title="Handles tokens enclosed in quotes and adds them to the list.">
<polygon fill="white" stroke="#666666" points="222.5,-246 134.5,-246 134.5,-227 222.5,-227 222.5,-246"/>
<text text-anchor="middle" x="178.5" y="-234" font-family="Helvetica,sans-Serif" font-size="10.00">handle_quotes</text>
</a>
</g>
</g>
<!-- Node1&#45;&gt;Node6 -->
<g id="edge5_Node000001_Node000006" class="edge">
<title>Node1&#45;&gt;Node6</title>
<g id="a_edge5_Node000001_Node000006"><a xlink:title=" ">
<path fill="none" stroke="#63b8ff" d="M50.43,-151.44C63.57,-166.4 90.29,-194.84 118,-212.5 124.26,-216.49 131.3,-220.03 138.29,-223.09"/>
<polygon fill="#63b8ff" stroke="#63b8ff" points="137.12,-226.39 147.7,-226.95 139.77,-219.91 137.12,-226.39"/>
</a>
</g>
</g>
<!-- Node25 -->
<g id="Node000025" class="node">
<title>Node25</title>
<g id="a_Node000025"><a xlink:href="handle__tokens_8c.html#a0d1a76ff74d96055e21dbd045c471793" target="_top" xlink:title="Handles shell special characters (|, &lt;, &gt;, &lt;&lt;, &gt;&gt;).">
<polygon fill="white" stroke="#666666" points="239,-132 118,-132 118,-113 239,-113 239,-132"/>
<text text-anchor="middle" x="178.5" y="-120" font-family="Helvetica,sans-Serif" font-size="10.00">handle_special_chars</text>
</a>
</g>
</g>
<!-- Node1&#45;&gt;Node25 -->
<g id="edge31_Node000001_Node000025" class="edge">
<title>Node1&#45;&gt;Node25</title>
<g id="a_edge31_Node000001_Node000025"><a xlink:title=" ">
<path fill="none" stroke="#63b8ff" d="M82.29,-135.85C90.31,-134.73 98.94,-133.52 107.62,-132.3"/>
<polygon fill="#63b8ff" stroke="#63b8ff" points="108.39,-135.73 117.8,-130.87 107.41,-128.79 108.39,-135.73"/>
</a>
</g>
</g>
<!-- Node26 -->
<g id="Node000026" class="node">
<title>Node26</title>
<g id="a_Node000026"><a xlink:href="handle__tokens_8c.html#a4435ee7ff5bdf5ceb09137c12fd49ccd" target="_top" xlink:title="Handles creation of a normal token (words, commands, arguments).">
<polygon fill="white" stroke="#666666" points="218,-94 139,-94 139,-75 218,-75 218,-94"/>
<text text-anchor="middle" x="178.5" y="-82" font-family="Helvetica,sans-Serif" font-size="10.00">handle_word</text>
</a>
</g>
</g>
<!-- Node1&#45;&gt;Node26 -->
<g id="edge35_Node000001_Node000026" class="edge">
<title>Node1&#45;&gt;Node26</title>
<g id="a_edge35_Node000001_Node000026"><a xlink:title=" ">
<path fill="none" stroke="#63b8ff" d="M60.13,-131.85C75.34,-123.96 97.77,-112.79 118,-104.5 124.02,-102.03 130.47,-99.63 136.82,-97.39"/>
<polygon fill="#63b8ff" stroke="#63b8ff" points="138.32,-100.58 146.65,-94.03 136.05,-93.96 138.32,-100.58"/>
</a>
</g>
</g>
<!-- Node2&#45;&gt;Node3 -->
<g id="edge2_Node000002_Node000003" class="edge">
<title>Node2&#45;&gt;Node3</title>
<g id="a_edge2_Node000002_Node000003"><a xlink:title=" ">
<path fill="none" stroke="#63b8ff" d="M354.78,-160.5C369.73,-160.5 387.66,-160.5 403.78,-160.5"/>
<polygon fill="#63b8ff" stroke="#63b8ff" points="404.07,-164 414.07,-160.5 404.07,-157 404.07,-164"/>
</a>
</g>
</g>
<!-- Node4 -->
<g id="Node000004" class="node">
<title>Node4</title>
<g id="a_Node000004"><a xlink:href="ft__strdup_8c.html#aebe73f27c70c56ac5053f860ef5436c9" target="_top" xlink:title="Duplicates a null&#45;terminated string by allocating memory.">
<polygon fill="white" stroke="#666666" points="602,-170 543,-170 543,-151 602,-151 602,-170"/>
<text text-anchor="middle" x="572.5" y="-158" font-family="Helvetica,sans-Serif" font-size="10.00">ft_strdup</text>
</a>
</g>
</g>
<!-- Node3&#45;&gt;Node4 -->
<g id="edge3_Node000003_Node000004" class="edge">
<title>Node3&#45;&gt;Node4</title>
<g id="a_edge3_Node000003_Node000004"><a xlink:title=" ">
<path fill="none" stroke="#63b8ff" d="M483.52,-160.5C498.73,-160.5 516.82,-160.5 532.62,-160.5"/>
<polygon fill="#63b8ff" stroke="#63b8ff" points="532.62,-164 542.62,-160.5 532.62,-157 532.62,-164"/>
</a>
</g>
</g>
<!-- Node6&#45;&gt;Node2 -->
<g id="edge6_Node000006_Node000002" class="edge">
<title>Node6&#45;&gt;Node2</title>
<g id="a_edge6_Node000006_Node000002"><a xlink:title=" ">
<path fill="none" stroke="#63b8ff" d="M197.29,-226.87C221.58,-213.74 265.28,-190.1 293.45,-174.86"/>
<polygon fill="#63b8ff" stroke="#63b8ff" points="295.22,-177.88 302.35,-170.05 291.89,-171.73 295.22,-177.88"/>
</a>
</g>
</g>
<!-- Node6&#45;&gt;Node3 -->
<g id="edge30_Node000006_Node000003" class="edge">
<title>Node6&#45;&gt;Node3</title>
<g id="a_edge30_Node000006_Node000003"><a xlink:title=" ">
<path fill="none" stroke="#63b8ff" d="M222.84,-236.32C261.68,-234.92 319.66,-229.73 367,-212.5 390.05,-204.11 413.31,-188.24 428.95,-176.23"/>
<polygon fill="#63b8ff" stroke="#63b8ff" points="431.12,-178.97 436.8,-170.03 426.79,-173.48 431.12,-178.97"/>
</a>
</g>
</g>
<!-- Node7 -->
<g id="Node000007" class="node">
<title>Node7</title>
<g id="a_Node000007"><a xlink:href="write__errors_8c.html#a0c76a459d59d98c5e92eb1333d6d9858" target="_top" xlink:title="Prints an error message to standard error.">
<polygon fill="white" stroke="#666666" points="349.5,-284 292.5,-284 292.5,-265 349.5,-265 349.5,-284"/>
<text text-anchor="middle" x="321" y="-272" font-family="Helvetica,sans-Serif" font-size="10.00">error_ex</text>
</a>
</g>
</g>
<!-- Node6&#45;&gt;Node7 -->
<g id="edge7_Node000006_Node000007" class="edge">
<title>Node6&#45;&gt;Node7</title>
<g id="a_edge7_Node000006_Node000007"><a xlink:title=" ">
<path fill="none" stroke="#63b8ff" d="M214.95,-246.09C235.49,-251.64 261.34,-258.64 282.26,-264.29"/>
<polygon fill="#63b8ff" stroke="#63b8ff" points="281.52,-267.72 292.08,-266.95 283.34,-260.96 281.52,-267.72"/>
</a>
</g>
</g>
<!-- Node18 -->
<g id="Node000018" class="node">
<title>Node18</title>
<g id="a_Node000018"><a xlink:href="free__functions_8c.html#a4f32f08947270b8aec54f43ddd8b02d4" target="_top" xlink:title="Frees a list of tokens.">
<polygon fill="white" stroke="#666666" points="355,-321 287,-321 287,-302 355,-302 355,-321"/>
<text text-anchor="middle" x="321" y="-309" font-family="Helvetica,sans-Serif" font-size="10.00">free_token</text>
</a>
</g>
</g>
<!-- Node6&#45;&gt;Node18 -->
<g id="edge23_Node000006_Node000018" class="edge">
<title>Node6&#45;&gt;Node18</title>
<g id="a_edge23_Node000006_Node000018"><a xlink:title=" ">
<path fill="none" stroke="#63b8ff" d="M193.98,-246.13C212.35,-258.11 245.23,-278.78 275,-293.5 278.11,-295.04 281.39,-296.55 284.7,-298"/>
<polygon fill="#63b8ff" stroke="#63b8ff" points="283.42,-301.26 293.99,-301.91 286.13,-294.81 283.42,-301.26"/>
</a>
</g>
</g>
<!-- Node19 -->
<g id="Node000019" class="node">
<title>Node19</title>
<g id="a_Node000019"><a xlink:href="handle__tokens_8c.html#ae7f7697d03ed4a73a1e374155380e209" target="_top" xlink:title="Processes a quoted string and copies it into the buffer.">
<polygon fill="white" stroke="#666666" points="361,-358 281,-358 281,-339 361,-339 361,-358"/>
<text text-anchor="middle" x="321" y="-346" font-family="Helvetica,sans-Serif" font-size="10.00">ft_for_quotes</text>
</a>
</g>
</g>
<!-- Node6&#45;&gt;Node19 -->
<g id="edge24_Node000006_Node000019" class="edge">
<title>Node6&#45;&gt;Node19</title>
<g id="a_edge24_Node000006_Node000019"><a xlink:title=" ">
<path fill="none" stroke="#63b8ff" d="M186.94,-246.02C201.86,-264.56 237.22,-305.8 275,-330.5 277.16,-331.91 279.44,-333.24 281.79,-334.49"/>
<polygon fill="#63b8ff" stroke="#63b8ff" points="280.53,-337.76 291.06,-338.91 283.54,-331.44 280.53,-337.76"/>
</a>
</g>
</g>
<!-- Node21 -->
<g id="Node000021" class="node">
<title>Node21</title>
<g id="a_Node000021"><a xlink:href="utils__token_8c.html#a611ee3ce2706d68aa376e8222614c6eb" target="_top" xlink:title="Determines the token type based on the value, quote flag, and command flag.">
<polygon fill="white" stroke="#666666" points="367,-56 275,-56 275,-37 367,-37 367,-56"/>
<text text-anchor="middle" x="321" y="-44" font-family="Helvetica,sans-Serif" font-size="10.00">get_token_type</text>
</a>
</g>
</g>
<!-- Node6&#45;&gt;Node21 -->
<g id="edge26_Node000006_Node000021" class="edge">
<title>Node6&#45;&gt;Node21</title>
<g id="a_edge26_Node000006_Node000021"><a xlink:title=" ">
<path fill="none" stroke="#63b8ff" d="M186.66,-226.82C208.92,-196.71 277.17,-104.42 306.44,-64.84"/>
<polygon fill="#63b8ff" stroke="#63b8ff" points="309.55,-66.51 312.69,-56.39 303.93,-62.35 309.55,-66.51"/>
</a>
</g>
</g>
<!-- Node8 -->
<g id="Node000008" class="node">
<title>Node8</title>
<g id="a_Node000008"><a xlink:href="ft__printf_8c.html#a091532b7f37af84bdecc84dccf4eedb1" target="_top" xlink:title="A simplified printf function that outputs formatted data to a given file descriptor.">
<polygon fill="white" stroke="#666666" points="476.5,-284 421.5,-284 421.5,-265 476.5,-265 476.5,-284"/>
<text text-anchor="middle" x="449" y="-272" font-family="Helvetica,sans-Serif" font-size="10.00">ft_printf</text>
</a>
</g>
</g>
<!-- Node7&#45;&gt;Node8 -->
<g id="edge8_Node000007_Node000008" class="edge">
<title>Node7&#45;&gt;Node8</title>
<g id="a_edge8_Node000007_Node000008"><a xlink:title=" ">
<path fill="none" stroke="#63b8ff" d="M349.65,-274.5C367.7,-274.5 391.48,-274.5 411.14,-274.5"/>
<polygon fill="#63b8ff" stroke="#63b8ff" points="411.28,-278 421.28,-274.5 411.28,-271 411.28,-278"/>
</a>
</g>
</g>
<!-- Node9 -->
<g id="Node000009" class="node">
<title>Node9</title>
<g id="a_Node000009"><a xlink:href="ft__printf_8c.html#a80c1c206dcd33d07c265581878aaa300" target="_top" xlink:title="Processes a single format specifier and prints the corresponding argument.">
<polygon fill="white" stroke="#666666" points="614,-311 531,-311 531,-292 614,-292 614,-311"/>
<text text-anchor="middle" x="572.5" y="-299" font-family="Helvetica,sans-Serif" font-size="10.00">check_format</text>
</a>
</g>
</g>
<!-- Node8&#45;&gt;Node9 -->
<g id="edge9_Node000008_Node000009" class="edge">
<title>Node8&#45;&gt;Node9</title>
<g id="a_edge9_Node000008_Node000009"><a xlink:title=" ">
<path fill="none" stroke="#63b8ff" d="M476.66,-280.43C489.61,-283.3 505.62,-286.86 520.77,-290.23"/>
<polygon fill="#63b8ff" stroke="#63b8ff" points="520.04,-293.65 530.56,-292.4 521.56,-286.82 520.04,-293.65"/>
</a>
</g>
</g>
<!-- Node13 -->
<g id="Node000013" class="node">
<title>Node13</title>
<g id="a_Node000013"><a xlink:href="ft__putchar__fd_8c.html#a03ef80b25dc4a521379fa92ad97bad21" target="_top" xlink:title="Writes a single character to the specified file descriptor.">
<polygon fill="white" stroke="#666666" points="745,-219 665,-219 665,-200 745,-200 745,-219"/>
<text text-anchor="middle" x="705" y="-207" font-family="Helvetica,sans-Serif" font-size="10.00">ft_putchar_fd</text>
</a>
</g>
</g>
<!-- Node8&#45;&gt;Node13 -->
<g id="edge22_Node000008_Node000013" class="edge">
<title>Node8&#45;&gt;Node13</title>
<g id="a_edge22_Node000008_Node000013"><a xlink:title=" ">
<path fill="none" stroke="#63b8ff" d="M476.7,-267.67C519.42,-256.73 603.7,-235.17 656.77,-221.59"/>
<polygon fill="#63b8ff" stroke="#63b8ff" points="657.8,-224.94 666.62,-219.07 656.07,-218.15 657.8,-224.94"/>
</a>
</g>
</g>
<!-- Node10 -->
<g id="Node000010" class="node">
<title>Node10</title>
<g id="a_Node000010"><a xlink:href="ft__forpointer_8c.html#a8e02c77b80406af72327ebf71f537786" target="_top" xlink:title="Prints a pointer in hexadecimal format prefixed with &quot;0x&quot;.">
<polygon fill="white" stroke="#666666" points="743.5,-311 666.5,-311 666.5,-292 743.5,-292 743.5,-311"/>
<text text-anchor="middle" x="705" y="-299" font-family="Helvetica,sans-Serif" font-size="10.00">ft_forpointer</text>
</a>
</g>
</g>
<!-- Node9&#45;&gt;Node10 -->
<g id="edge10_Node000009_Node000010" class="edge">
<title>Node9&#45;&gt;Node10</title>
<g id="a_edge10_Node000009_Node000010"><a xlink:title=" ">
<path fill="none" stroke="#63b8ff" d="M614.08,-301.5C627.31,-301.5 642.14,-301.5 655.87,-301.5"/>
<polygon fill="#63b8ff" stroke="#63b8ff" points="656.12,-305 666.12,-301.5 656.12,-298 656.12,-305"/>
</a>
</g>
</g>
<!-- Node12 -->
<g id="Node000012" class="node">
<title>Node12</title>
<g id="a_Node000012"><a xlink:href="ft__hexadecimal_8c.html#a39c845e0a4286d3ac1e04c1e64ac734b" target="_top" xlink:title="Prints an unsigned integer in hexadecimal format.">
<polygon fill="white" stroke="#666666" points="751,-256 659,-256 659,-237 751,-237 751,-256"/>
<text text-anchor="middle" x="705" y="-244" font-family="Helvetica,sans-Serif" font-size="10.00">ft_hexadecimal</text>
</a>
</g>
</g>
<!-- Node9&#45;&gt;Node12 -->
<g id="edge13_Node000009_Node000012" class="edge">
<title>Node9&#45;&gt;Node12</title>
<g id="a_edge13_Node000009_Node000012"><a xlink:title=" ">
<path fill="none" stroke="#63b8ff" d="M596.23,-291.92C617.06,-283.14 648.13,-270.05 671.57,-260.17"/>
<polygon fill="#63b8ff" stroke="#63b8ff" points="673.24,-263.26 681.09,-256.16 670.52,-256.81 673.24,-263.26"/>
</a>
</g>
</g>
<!-- Node9&#45;&gt;Node13 -->
<g id="edge15_Node000009_Node000013" class="edge">
<title>Node9&#45;&gt;Node13</title>
<g id="a_edge15_Node000009_Node000013"><a xlink:title=" ">
<path fill="none" stroke="#63b8ff" d="M581.42,-291.62C594.28,-276.15 621.21,-246.16 650,-228.5 653.34,-226.45 656.92,-224.59 660.61,-222.89"/>
<polygon fill="#63b8ff" stroke="#63b8ff" points="661.98,-226.11 669.87,-219.04 659.29,-219.65 661.98,-226.11"/>
</a>
</g>
</g>
<!-- Node14 -->
<g id="Node000014" class="node">
<title>Node14</title>
<g id="a_Node000014"><a xlink:href="ft__putnbr__fd_8c.html#a1554101ee350c316340c78e19faddaa8" target="_top" xlink:title="Writes an integer to a given file descriptor.">
<polygon fill="white" stroke="#666666" points="742.5,-422 667.5,-422 667.5,-403 742.5,-403 742.5,-422"/>
<text text-anchor="middle" x="705" y="-410" font-family="Helvetica,sans-Serif" font-size="10.00">ft_putnbr_fd</text>
</a>
</g>
</g>
<!-- Node9&#45;&gt;Node14 -->
<g id="edge16_Node000009_Node000014" class="edge">
<title>Node9&#45;&gt;Node14</title>
<g id="a_edge16_Node000009_Node000014"><a xlink:title=" ">
<path fill="none" stroke="#63b8ff" d="M578.91,-311.18C589.88,-329.97 616.57,-371.53 650,-394.5 652.52,-396.24 655.23,-397.81 658.03,-399.25"/>
<polygon fill="#63b8ff" stroke="#63b8ff" points="656.68,-402.47 667.23,-403.36 659.53,-396.08 656.68,-402.47"/>
</a>
</g>
</g>
<!-- Node15 -->
<g id="Node000015" class="node">
<title>Node15</title>
<g id="a_Node000015"><a xlink:href="ft__putstr__fd_8c.html#a00b0638f31a75c7a30f77f33888bfb73" target="_top" xlink:title="Writes a null&#45;terminated string to the specified file descriptor.">
<polygon fill="white" stroke="#666666" points="741,-385 669,-385 669,-366 741,-366 741,-385"/>
<text text-anchor="middle" x="705" y="-373" font-family="Helvetica,sans-Serif" font-size="10.00">ft_putstr_fd</text>
</a>
</g>
</g>
<!-- Node9&#45;&gt;Node15 -->
<g id="edge18_Node000009_Node000015" class="edge">
<title>Node9&#45;&gt;Node15</title>
<g id="a_edge18_Node000009_Node000015"><a xlink:title=" ">
<path fill="none" stroke="#63b8ff" d="M584.19,-311.01C598.36,-323.21 624.56,-344.36 650,-357.5 653.31,-359.21 656.82,-360.81 660.39,-362.29"/>
<polygon fill="#63b8ff" stroke="#63b8ff" points="659.33,-365.63 669.92,-365.93 661.83,-359.09 659.33,-365.63"/>
</a>
</g>
</g>
<!-- Node16 -->
<g id="Node000016" class="node">
<title>Node16</title>
<g id="a_Node000016"><a xlink:href="ft__unsigned__putnbr_8c.html#af9a70f8607b40cf2a7706f9d3725b549" target="_top" xlink:title="Writes an unsigned integer to the given file descriptor.">
<polygon fill="white" stroke="#666666" points="760,-348 650,-348 650,-329 760,-329 760,-348"/>
<text text-anchor="middle" x="705" y="-336" font-family="Helvetica,sans-Serif" font-size="10.00">ft_unsigned_putnbr</text>
</a>
</g>
</g>
<!-- Node9&#45;&gt;Node16 -->
<g id="edge19_Node000009_Node000016" class="edge">
<title>Node9&#45;&gt;Node16</title>
<g id="a_edge19_Node000009_Node000016"><a xlink:title=" ">
<path fill="none" stroke="#63b8ff" d="M607.11,-311.03C623.27,-315.61 642.85,-321.16 660.16,-326.07"/>
<polygon fill="#63b8ff" stroke="#63b8ff" points="659.48,-329.51 670.05,-328.88 661.39,-322.78 659.48,-329.51"/>
</a>
</g>
</g>
<!-- Node11 -->
<g id="Node000011" class="node">
<title>Node11</title>
<g id="a_Node000011"><a xlink:href="ft__forpointer_8c.html#aded1bf735c8a10e47396170d27c5b6aa" target="_top" xlink:title="Recursively prints a memory address in hexadecimal format.">
<polygon fill="white" stroke="#666666" points="906,-302 796,-302 796,-283 906,-283 906,-302"/>
<text text-anchor="middle" x="851" y="-290" font-family="Helvetica,sans-Serif" font-size="10.00">ft_ricorsive_pointer</text>
</a>
</g>
</g>
<!-- Node10&#45;&gt;Node11 -->
<g id="edge11_Node000010_Node000011" class="edge">
<title>Node10&#45;&gt;Node11</title>
<g id="a_edge11_Node000010_Node000011"><a xlink:title=" ">
<path fill="none" stroke="#63b8ff" d="M743.83,-299.14C756.64,-298.33 771.33,-297.42 785.61,-296.52"/>
<polygon fill="#63b8ff" stroke="#63b8ff" points="786.14,-300 795.9,-295.88 785.7,-293.01 786.14,-300"/>
</a>
</g>
</g>
<!-- Node11&#45;&gt;Node11 -->
<g id="edge12_Node000011_Node000011" class="edge">
<title>Node11&#45;&gt;Node11</title>
<g id="a_edge12_Node000011_Node000011"><a xlink:title=" ">
<path fill="none" stroke="#63b8ff" d="M828.5,-302.08C817.55,-310.73 825.05,-320 851,-320 867.62,-320 876.68,-316.2 878.16,-311.19"/>
<polygon fill="#63b8ff" stroke="#63b8ff" points="881.17,-309.39 873.5,-302.08 874.94,-312.58 881.17,-309.39"/>
</a>
</g>
</g>
<!-- Node12&#45;&gt;Node12 -->
<g id="edge14_Node000012_Node000012" class="edge">
<title>Node12&#45;&gt;Node12</title>
<g id="a_edge14_Node000012_Node000012"><a xlink:title=" ">
<path fill="none" stroke="#63b8ff" d="M684.65,-256.08C674.76,-264.73 681.54,-274 705,-274 720.03,-274 728.21,-270.2 729.55,-265.19"/>
<polygon fill="#63b8ff" stroke="#63b8ff" points="732.72,-263.69 725.35,-256.08 726.36,-266.63 732.72,-263.69"/>
</a>
</g>
</g>
<!-- Node14&#45;&gt;Node14 -->
<g id="edge17_Node000014_Node000014" class="edge">
<title>Node14&#45;&gt;Node14</title>
<g id="a_edge17_Node000014_Node000014"><a xlink:title=" ">
<path fill="none" stroke="#63b8ff" d="M684.65,-422.08C674.76,-430.73 681.54,-440 705,-440 720.03,-440 728.21,-436.2 729.55,-431.19"/>
<polygon fill="#63b8ff" stroke="#63b8ff" points="732.72,-429.69 725.35,-422.08 726.36,-432.63 732.72,-429.69"/>
</a>
</g>
</g>
<!-- Node17 -->
<g id="Node000017" class="node">
<title>Node17</title>
<g id="a_Node000017"><a xlink:href="ft__putnbr_8c.html#a2e51f80c9e46e52f4adf94617fb51ada" target="_top" xlink:title="Writes an integer to the standard output (stdout).">
<polygon fill="white" stroke="#666666" points="881,-357 821,-357 821,-338 881,-338 881,-357"/>
<text text-anchor="middle" x="851" y="-345" font-family="Helvetica,sans-Serif" font-size="10.00">ft_putnbr</text>
</a>
</g>
</g>
<!-- Node16&#45;&gt;Node17 -->
<g id="edge20_Node000016_Node000017" class="edge">
<title>Node16&#45;&gt;Node17</title>
<g id="a_edge20_Node000016_Node000017"><a xlink:title=" ">
<path fill="none" stroke="#63b8ff" d="M760.03,-341.88C776.76,-342.92 794.87,-344.05 810.43,-345.03"/>
<polygon fill="#63b8ff" stroke="#63b8ff" points="810.55,-348.54 820.74,-345.67 810.98,-341.55 810.55,-348.54"/>
</a>
</g>
</g>
<!-- Node17&#45;&gt;Node17 -->
<g id="edge21_Node000017_Node000017" class="edge">
<title>Node17&#45;&gt;Node17</title>
<g id="a_edge21_Node000017_Node000017"><a xlink:title=" ">
<path fill="none" stroke="#63b8ff" d="M828.5,-357.08C817.55,-365.73 825.05,-375 851,-375 867.62,-375 876.68,-371.2 878.16,-366.19"/>
<polygon fill="#63b8ff" stroke="#63b8ff" points="881.17,-364.39 873.5,-357.08 874.94,-367.58 881.17,-364.39"/>
</a>
</g>
</g>
<!-- Node20 -->
<g id="Node000020" class="node">
<title>Node20</title>
<g id="a_Node000020"><a xlink:href="handle__tokens_8c.html#ab9034fcc1e006dc98dfc000f28f1aab8" target="_top" xlink:title="Sets the quote type and corresponding flag.">
<polygon fill="white" stroke="#666666" points="482.5,-358 415.5,-358 415.5,-339 482.5,-339 482.5,-358"/>
<text text-anchor="middle" x="449" y="-346" font-family="Helvetica,sans-Serif" font-size="10.00">ft_set_flag</text>
</a>
</g>
</g>
<!-- Node19&#45;&gt;Node20 -->
<g id="edge25_Node000019_Node000020" class="edge">
<title>Node19&#45;&gt;Node20</title>
<g id="a_edge25_Node000019_Node000020"><a xlink:title=" ">
<path fill="none" stroke="#63b8ff" d="M361.18,-348.5C375.13,-348.5 390.91,-348.5 405.15,-348.5"/>
<polygon fill="#63b8ff" stroke="#63b8ff" points="405.2,-352 415.2,-348.5 405.2,-345 405.2,-352"/>
</a>
</g>
</g>
<!-- Node22 -->
<g id="Node000022" class="node">
<title>Node22</title>
<g id="a_Node000022"><a xlink:href="utils__token_8c.html#a51f971c32b38d16d3acd01a9f26a94c9" target="_top" xlink:title="Checks if the string contains the exit status variable &quot;$?&quot;.">
<polygon fill="white" stroke="#666666" points="495,-93 403,-93 403,-74 495,-74 495,-93"/>
<text text-anchor="middle" x="449" y="-81" font-family="Helvetica,sans-Serif" font-size="10.00">exit_status_var</text>
</a>
</g>
</g>
<!-- Node21&#45;&gt;Node22 -->
<g id="edge27_Node000021_Node000022" class="edge">
<title>Node21&#45;&gt;Node22</title>
<g id="a_edge27_Node000021_Node000022"><a xlink:title=" ">
<path fill="none" stroke="#63b8ff" d="M354.45,-56.03C369.91,-60.57 388.6,-66.06 405.2,-70.93"/>
<polygon fill="#63b8ff" stroke="#63b8ff" points="404.64,-74.42 415.22,-73.88 406.62,-67.7 404.64,-74.42"/>
</a>
</g>
</g>
<!-- Node23 -->
<g id="Node000023" class="node">
<title>Node23</title>
<g id="a_Node000023"><a xlink:href="utils__env_8c.html#a43ecaeb2991db8347a59f45f96e8a21f" target="_top" xlink:title="Checks if the string contains the character &#39;$&#39;, indicating an environment variable.">
<polygon fill="white" stroke="#666666" points="494.5,-56 403.5,-56 403.5,-37 494.5,-37 494.5,-56"/>
<text text-anchor="middle" x="449" y="-44" font-family="Helvetica,sans-Serif" font-size="10.00">ft_find_env_var</text>
</a>
</g>
</g>
<!-- Node21&#45;&gt;Node23 -->
<g id="edge28_Node000021_Node000023" class="edge">
<title>Node21&#45;&gt;Node23</title>
<g id="a_edge28_Node000021_Node000023"><a xlink:title=" ">
<path fill="none" stroke="#63b8ff" d="M367.13,-46.5C375.56,-46.5 384.45,-46.5 393.13,-46.5"/>
<polygon fill="#63b8ff" stroke="#63b8ff" points="393.18,-50 403.18,-46.5 393.18,-43 393.18,-50"/>
</a>
</g>
</g>
<!-- Node24 -->
<g id="Node000024" class="node">
<title>Node24</title>
<g id="a_Node000024"><a xlink:href="ft__strcmp_8c.html#a1f2ff2312e5994560c9537cd9173be94" target="_top" xlink:title="Compares two null&#45;terminated strings lexicographically.">
<polygon fill="white" stroke="#666666" points="480,-19 418,-19 418,0 480,0 480,-19"/>
<text text-anchor="middle" x="449" y="-7" font-family="Helvetica,sans-Serif" font-size="10.00">ft_strcmp</text>
</a>
</g>
</g>
<!-- Node21&#45;&gt;Node24 -->
<g id="edge29_Node000021_Node000024" class="edge">
<title>Node21&#45;&gt;Node24</title>
<g id="a_edge29_Node000021_Node000024"><a xlink:title=" ">
<path fill="none" stroke="#63b8ff" d="M354.45,-36.97C370.78,-32.17 390.73,-26.32 408.01,-21.24"/>
<polygon fill="#63b8ff" stroke="#63b8ff" points="409.22,-24.54 417.82,-18.36 407.24,-17.82 409.22,-24.54"/>
</a>
</g>
</g>
<!-- Node25&#45;&gt;Node2 -->
<g id="edge32_Node000025_Node000002" class="edge">
<title>Node25&#45;&gt;Node2</title>
<g id="a_edge32_Node000025_Node000002"><a xlink:title=" ">
<path fill="none" stroke="#63b8ff" d="M214.95,-132.09C234.01,-137.24 257.63,-143.63 277.65,-149.05"/>
<polygon fill="#63b8ff" stroke="#63b8ff" points="276.88,-152.46 287.45,-151.7 278.71,-145.71 276.88,-152.46"/>
</a>
</g>
</g>
<!-- Node25&#45;&gt;Node3 -->
<g id="edge34_Node000025_Node000003" class="edge">
<title>Node25&#45;&gt;Node3</title>
<g id="a_edge34_Node000025_Node000003"><a xlink:title=" ">
<path fill="none" stroke="#63b8ff" d="M239.26,-127.15C276.21,-130.45 324.52,-135.54 367,-142.5 379.22,-144.5 392.36,-147.19 404.43,-149.87"/>
<polygon fill="#63b8ff" stroke="#63b8ff" points="403.74,-153.31 414.27,-152.12 405.3,-146.48 403.74,-153.31"/>
</a>
</g>
</g>
<!-- Node25&#45;&gt;Node21 -->
<g id="edge33_Node000025_Node000021" class="edge">
<title>Node25&#45;&gt;Node21</title>
<g id="a_edge33_Node000025_Node000021"><a xlink:title=" ">
<path fill="none" stroke="#63b8ff" d="M215.44,-112.97C223.38,-110.33 231.62,-107.17 239,-103.5 261.61,-92.27 284.92,-75.17 300.7,-62.63"/>
<polygon fill="#63b8ff" stroke="#63b8ff" points="303.07,-65.22 308.64,-56.2 298.67,-59.78 303.07,-65.22"/>
</a>
</g>
</g>
<!-- Node26&#45;&gt;Node2 -->
<g id="edge36_Node000026_Node000002" class="edge">
<title>Node26&#45;&gt;Node2</title>
<g id="a_edge36_Node000026_Node000002"><a xlink:title=" ">
<path fill="none" stroke="#63b8ff" d="M213.21,-94C221.82,-96.92 230.91,-100.45 239,-104.5 261.31,-115.68 284.51,-132.32 300.34,-144.55"/>
<polygon fill="#63b8ff" stroke="#63b8ff" points="298.29,-147.4 308.32,-150.84 302.62,-141.9 298.29,-147.4"/>
</a>
</g>
</g>
<!-- Node26&#45;&gt;Node3 -->
<g id="edge39_Node000026_Node000003" class="edge">
<title>Node26&#45;&gt;Node3</title>
<g id="a_edge39_Node000026_Node000003"><a xlink:title=" ">
<path fill="none" stroke="#63b8ff" d="M218.09,-91.08C256.38,-98.08 316.47,-110.38 367,-126.5 384.52,-132.09 403.51,-139.96 418.69,-146.72"/>
<polygon fill="#63b8ff" stroke="#63b8ff" points="417.51,-150.03 428.07,-150.96 420.4,-143.65 417.51,-150.03"/>
</a>
</g>
</g>
<!-- Node26&#45;&gt;Node5 -->
<g id="edge37_Node000026_Node000005" class="edge">
<title>Node26&#45;&gt;Node5</title>
<g id="a_edge37_Node000026_Node000005"><a xlink:title=" ">
<path fill="none" stroke="#63b8ff" d="M193.98,-74.87C212.35,-62.89 245.23,-42.22 275,-27.5 278.11,-25.96 281.39,-24.45 284.7,-23"/>
<polygon fill="#63b8ff" stroke="#63b8ff" points="286.13,-26.19 293.99,-19.09 283.42,-19.74 286.13,-26.19"/>
</a>
</g>
</g>
<!-- Node26&#45;&gt;Node21 -->
<g id="edge38_Node000026_Node000021" class="edge">
<title>Node26&#45;&gt;Node21</title>
<g id="a_edge38_Node000026_Node000021"><a xlink:title=" ">
<path fill="none" stroke="#63b8ff" d="M214.95,-74.91C233.09,-70.01 255.37,-63.98 274.73,-58.74"/>
<polygon fill="#63b8ff" stroke="#63b8ff" points="275.82,-62.08 284.56,-56.09 273.99,-55.32 275.82,-62.08"/>
</a>
</g>
</g>
</g>
</svg>
