<?xml version="1.0" encoding="UTF-8" standalone="no"?>
<!DOCTYPE svg PUBLIC "-//W3C//DTD SVG 1.1//EN"
 "http://www.w3.org/Graphics/SVG/1.1/DTD/svg11.dtd">
<!-- Generated by graphviz version 2.43.0 (0)
 -->
<!-- Title: check_redir Pages: 1 -->
<svg width="676pt" height="248pt"
 viewBox="0.00 0.00 676.00 248.00" xmlns="http://www.w3.org/2000/svg" xmlns:xlink="http://www.w3.org/1999/xlink">
<g id="graph0" class="graph" transform="scale(1 1) rotate(0) translate(4 244)">
<title>check_redir</title>
<!-- Node1 -->
<g id="Node000001" class="node">
<title>Node1</title>
<g id="a_Node000001"><a xlink:title="Checks the syntactic correctness of a redirection.">
<polygon fill="#999999" stroke="#666666" points="73,-167 0,-167 0,-148 73,-148 73,-167"/>
<text text-anchor="middle" x="36.5" y="-155" font-family="Helvetica,sans-Serif" font-size="10.00">check_redir</text>
</a>
</g>
</g>
<!-- Node2 -->
<g id="Node000002" class="node">
<title>Node2</title>
<g id="a_Node000002"><a xlink:href="write__errors_8c.html#a0c76a459d59d98c5e92eb1333d6d9858" target="_top" xlink:title="Prints an error message to standard error.">
<polygon fill="white" stroke="#666666" points="166,-167 109,-167 109,-148 166,-148 166,-167"/>
<text text-anchor="middle" x="137.5" y="-155" font-family="Helvetica,sans-Serif" font-size="10.00">error_ex</text>
</a>
</g>
</g>
<!-- Node1&#45;&gt;Node2 -->
<g id="edge1_Node000001_Node000002" class="edge">
<title>Node1&#45;&gt;Node2</title>
<g id="a_edge1_Node000001_Node000002"><a xlink:title=" ">
<path fill="none" stroke="#63b8ff" d="M73.24,-157.5C81.5,-157.5 90.31,-157.5 98.65,-157.5"/>
<polygon fill="#63b8ff" stroke="#63b8ff" points="98.89,-161 108.89,-157.5 98.89,-154 98.89,-161"/>
</a>
</g>
</g>
<!-- Node3 -->
<g id="Node000003" class="node">
<title>Node3</title>
<g id="a_Node000003"><a xlink:href="ft__printf_8c.html#a091532b7f37af84bdecc84dccf4eedb1" target="_top" xlink:title="A simplified printf function that outputs formatted data to a given file descriptor.">
<polygon fill="white" stroke="#666666" points="257,-167 202,-167 202,-148 257,-148 257,-167"/>
<text text-anchor="middle" x="229.5" y="-155" font-family="Helvetica,sans-Serif" font-size="10.00">ft_printf</text>
</a>
</g>
</g>
<!-- Node2&#45;&gt;Node3 -->
<g id="edge2_Node000002_Node000003" class="edge">
<title>Node2&#45;&gt;Node3</title>
<g id="a_edge2_Node000002_Node000003"><a xlink:title=" ">
<path fill="none" stroke="#63b8ff" d="M166.48,-157.5C174.48,-157.5 183.32,-157.5 191.76,-157.5"/>
<polygon fill="#63b8ff" stroke="#63b8ff" points="191.77,-161 201.77,-157.5 191.77,-154 191.77,-161"/>
</a>
</g>
</g>
<!-- Node4 -->
<g id="Node000004" class="node">
<title>Node4</title>
<g id="a_Node000004"><a xlink:href="ft__printf_8c.html#a80c1c206dcd33d07c265581878aaa300" target="_top" xlink:title="Processes a single format specifier and prints the corresponding argument.">
<polygon fill="white" stroke="#666666" points="376,-148 293,-148 293,-129 376,-129 376,-148"/>
<text text-anchor="middle" x="334.5" y="-136" font-family="Helvetica,sans-Serif" font-size="10.00">check_format</text>
</a>
</g>
</g>
<!-- Node3&#45;&gt;Node4 -->
<g id="edge3_Node000003_Node000004" class="edge">
<title>Node3&#45;&gt;Node4</title>
<g id="a_edge3_Node000003_Node000004"><a xlink:title=" ">
<path fill="none" stroke="#63b8ff" d="M257.03,-152.61C264.91,-151.15 273.82,-149.51 282.7,-147.87"/>
<polygon fill="#63b8ff" stroke="#63b8ff" points="283.47,-151.29 292.66,-146.03 282.2,-144.4 283.47,-151.29"/>
</a>
</g>
</g>
<!-- Node8 -->
<g id="Node000008" class="node">
<title>Node8</title>
<g id="a_Node000008"><a xlink:href="ft__putchar__fd_8c.html#a03ef80b25dc4a521379fa92ad97bad21" target="_top" xlink:title="Writes a single character to the specified file descriptor.">
<polygon fill="white" stroke="#666666" points="507,-240 427,-240 427,-221 507,-221 507,-240"/>
<text text-anchor="middle" x="467" y="-228" font-family="Helvetica,sans-Serif" font-size="10.00">ft_putchar_fd</text>
</a>
</g>
</g>
<!-- Node3&#45;&gt;Node8 -->
<g id="edge16_Node000003_Node000008" class="edge">
<title>Node3&#45;&gt;Node8</title>
<g id="a_edge16_Node000003_Node000008"><a xlink:title=" ">
<path fill="none" stroke="#63b8ff" d="M257.06,-165.73C298.05,-178.44 377.03,-202.92 425.27,-217.88"/>
<polygon fill="#63b8ff" stroke="#63b8ff" points="424.49,-221.3 435.08,-220.91 426.56,-214.61 424.49,-221.3"/>
</a>
</g>
</g>
<!-- Node5 -->
<g id="Node000005" class="node">
<title>Node5</title>
<g id="a_Node000005"><a xlink:href="ft__forpointer_8c.html#a8e02c77b80406af72327ebf71f537786" target="_top" xlink:title="Prints a pointer in hexadecimal format prefixed with &quot;0x&quot;.">
<polygon fill="white" stroke="#666666" points="505.5,-203 428.5,-203 428.5,-184 505.5,-184 505.5,-203"/>
<text text-anchor="middle" x="467" y="-191" font-family="Helvetica,sans-Serif" font-size="10.00">ft_forpointer</text>
</a>
</g>
</g>
<!-- Node4&#45;&gt;Node5 -->
<g id="edge4_Node000004_Node000005" class="edge">
<title>Node4&#45;&gt;Node5</title>
<g id="a_edge4_Node000004_Node000005"><a xlink:title=" ">
<path fill="none" stroke="#63b8ff" d="M353.75,-148.15C369.06,-156.05 391.64,-167.22 412,-175.5 416.4,-177.29 421.06,-179.04 425.71,-180.71"/>
<polygon fill="#63b8ff" stroke="#63b8ff" points="424.6,-184.03 435.19,-183.99 426.89,-177.41 424.6,-184.03"/>
</a>
</g>
</g>
<!-- Node7 -->
<g id="Node000007" class="node">
<title>Node7</title>
<g id="a_Node000007"><a xlink:href="ft__hexadecimal_8c.html#a39c845e0a4286d3ac1e04c1e64ac734b" target="_top" xlink:title="Prints an unsigned integer in hexadecimal format.">
<polygon fill="white" stroke="#666666" points="513,-148 421,-148 421,-129 513,-129 513,-148"/>
<text text-anchor="middle" x="467" y="-136" font-family="Helvetica,sans-Serif" font-size="10.00">ft_hexadecimal</text>
</a>
</g>
</g>
<!-- Node4&#45;&gt;Node7 -->
<g id="edge7_Node000004_Node000007" class="edge">
<title>Node4&#45;&gt;Node7</title>
<g id="a_edge7_Node000004_Node000007"><a xlink:title=" ">
<path fill="none" stroke="#63b8ff" d="M376.08,-138.5C387.07,-138.5 399.16,-138.5 410.82,-138.5"/>
<polygon fill="#63b8ff" stroke="#63b8ff" points="410.9,-142 420.9,-138.5 410.9,-135 410.9,-142"/>
</a>
</g>
</g>
<!-- Node4&#45;&gt;Node8 -->
<g id="edge9_Node000004_Node000008" class="edge">
<title>Node4&#45;&gt;Node8</title>
<g id="a_edge9_Node000004_Node000008"><a xlink:title=" ">
<path fill="none" stroke="#63b8ff" d="M342.94,-148.07C355.55,-163.69 382.61,-194.67 412,-212.5 414.66,-214.11 417.48,-215.6 420.39,-216.97"/>
<polygon fill="#63b8ff" stroke="#63b8ff" points="419.27,-220.3 429.85,-220.96 421.99,-213.85 419.27,-220.3"/>
</a>
</g>
</g>
<!-- Node9 -->
<g id="Node000009" class="node">
<title>Node9</title>
<g id="a_Node000009"><a xlink:href="ft__putnbr__fd_8c.html#a1554101ee350c316340c78e19faddaa8" target="_top" xlink:title="Writes an integer to a given file descriptor.">
<polygon fill="white" stroke="#666666" points="504.5,-93 429.5,-93 429.5,-74 504.5,-74 504.5,-93"/>
<text text-anchor="middle" x="467" y="-81" font-family="Helvetica,sans-Serif" font-size="10.00">ft_putnbr_fd</text>
</a>
</g>
</g>
<!-- Node4&#45;&gt;Node9 -->
<g id="edge10_Node000004_Node000009" class="edge">
<title>Node4&#45;&gt;Node9</title>
<g id="a_edge10_Node000004_Node000009"><a xlink:title=" ">
<path fill="none" stroke="#63b8ff" d="M358.23,-128.92C379.06,-120.14 410.13,-107.05 433.57,-97.17"/>
<polygon fill="#63b8ff" stroke="#63b8ff" points="435.24,-100.26 443.09,-93.16 432.52,-93.81 435.24,-100.26"/>
</a>
</g>
</g>
<!-- Node10 -->
<g id="Node000010" class="node">
<title>Node10</title>
<g id="a_Node000010"><a xlink:href="ft__putstr__fd_8c.html#a00b0638f31a75c7a30f77f33888bfb73" target="_top" xlink:title="Writes a null&#45;terminated string to the specified file descriptor.">
<polygon fill="white" stroke="#666666" points="503,-56 431,-56 431,-37 503,-37 503,-56"/>
<text text-anchor="middle" x="467" y="-44" font-family="Helvetica,sans-Serif" font-size="10.00">ft_putstr_fd</text>
</a>
</g>
</g>
<!-- Node4&#45;&gt;Node10 -->
<g id="edge12_Node000004_Node000010" class="edge">
<title>Node4&#45;&gt;Node10</title>
<g id="a_edge12_Node000004_Node000010"><a xlink:title=" ">
<path fill="none" stroke="#63b8ff" d="M343.42,-128.62C356.28,-113.15 383.21,-83.16 412,-65.5 415.34,-63.45 418.92,-61.59 422.61,-59.89"/>
<polygon fill="#63b8ff" stroke="#63b8ff" points="423.98,-63.11 431.87,-56.04 421.29,-56.65 423.98,-63.11"/>
</a>
</g>
</g>
<!-- Node11 -->
<g id="Node000011" class="node">
<title>Node11</title>
<g id="a_Node000011"><a xlink:href="ft__unsigned__putnbr_8c.html#af9a70f8607b40cf2a7706f9d3725b549" target="_top" xlink:title="Writes an unsigned integer to the given file descriptor.">
<polygon fill="white" stroke="#666666" points="522,-19 412,-19 412,0 522,0 522,-19"/>
<text text-anchor="middle" x="467" y="-7" font-family="Helvetica,sans-Serif" font-size="10.00">ft_unsigned_putnbr</text>
</a>
</g>
</g>
<!-- Node4&#45;&gt;Node11 -->
<g id="edge13_Node000004_Node000011" class="edge">
<title>Node4&#45;&gt;Node11</title>
<g id="a_edge13_Node000004_Node000011"><a xlink:title=" ">
<path fill="none" stroke="#63b8ff" d="M339.51,-128.93C348.94,-107.55 374.58,-55.62 412,-27.5 413.83,-26.13 415.77,-24.85 417.79,-23.67"/>
<polygon fill="#63b8ff" stroke="#63b8ff" points="419.61,-26.67 427,-19.09 416.49,-20.41 419.61,-26.67"/>
</a>
</g>
</g>
<!-- Node6 -->
<g id="Node000006" class="node">
<title>Node6</title>
<g id="a_Node000006"><a xlink:href="ft__forpointer_8c.html#aded1bf735c8a10e47396170d27c5b6aa" target="_top" xlink:title="Recursively prints a memory address in hexadecimal format.">
<polygon fill="white" stroke="#666666" points="668,-203 558,-203 558,-184 668,-184 668,-203"/>
<text text-anchor="middle" x="613" y="-191" font-family="Helvetica,sans-Serif" font-size="10.00">ft_ricorsive_pointer</text>
</a>
</g>
</g>
<!-- Node5&#45;&gt;Node6 -->
<g id="edge5_Node000005_Node000006" class="edge">
<title>Node5&#45;&gt;Node6</title>
<g id="a_edge5_Node000005_Node000006"><a xlink:title=" ">
<path fill="none" stroke="#63b8ff" d="M505.83,-193.5C518.64,-193.5 533.33,-193.5 547.61,-193.5"/>
<polygon fill="#63b8ff" stroke="#63b8ff" points="547.9,-197 557.9,-193.5 547.9,-190 547.9,-197"/>
</a>
</g>
</g>
<!-- Node6&#45;&gt;Node6 -->
<g id="edge6_Node000006_Node000006" class="edge">
<title>Node6&#45;&gt;Node6</title>
<g id="a_edge6_Node000006_Node000006"><a xlink:title=" ">
<path fill="none" stroke="#63b8ff" d="M590.5,-203.08C579.55,-211.73 587.05,-221 613,-221 629.62,-221 638.68,-217.2 640.16,-212.19"/>
<polygon fill="#63b8ff" stroke="#63b8ff" points="643.17,-210.39 635.5,-203.08 636.94,-213.58 643.17,-210.39"/>
</a>
</g>
</g>
<!-- Node7&#45;&gt;Node7 -->
<g id="edge8_Node000007_Node000007" class="edge">
<title>Node7&#45;&gt;Node7</title>
<g id="a_edge8_Node000007_Node000007"><a xlink:title=" ">
<path fill="none" stroke="#63b8ff" d="M446.65,-148.08C436.76,-156.73 443.54,-166 467,-166 482.03,-166 490.21,-162.2 491.55,-157.19"/>
<polygon fill="#63b8ff" stroke="#63b8ff" points="494.72,-155.69 487.35,-148.08 488.36,-158.63 494.72,-155.69"/>
</a>
</g>
</g>
<!-- Node9&#45;&gt;Node9 -->
<g id="edge11_Node000009_Node000009" class="edge">
<title>Node9&#45;&gt;Node9</title>
<g id="a_edge11_Node000009_Node000009"><a xlink:title=" ">
<path fill="none" stroke="#63b8ff" d="M446.65,-93.08C436.76,-101.73 443.54,-111 467,-111 482.03,-111 490.21,-107.2 491.55,-102.19"/>
<polygon fill="#63b8ff" stroke="#63b8ff" points="494.72,-100.69 487.35,-93.08 488.36,-103.63 494.72,-100.69"/>
</a>
</g>
</g>
<!-- Node12 -->
<g id="Node000012" class="node">
<title>Node12</title>
<g id="a_Node000012"><a xlink:href="ft__putnbr_8c.html#a2e51f80c9e46e52f4adf94617fb51ada" target="_top" xlink:title="Writes an integer to the standard output (stdout).">
<polygon fill="white" stroke="#666666" points="643,-19 583,-19 583,0 643,0 643,-19"/>
<text text-anchor="middle" x="613" y="-7" font-family="Helvetica,sans-Serif" font-size="10.00">ft_putnbr</text>
</a>
</g>
</g>
<!-- Node11&#45;&gt;Node12 -->
<g id="edge14_Node000011_Node000012" class="edge">
<title>Node11&#45;&gt;Node12</title>
<g id="a_edge14_Node000011_Node000012"><a xlink:title=" ">
<path fill="none" stroke="#63b8ff" d="M522.03,-9.5C538.76,-9.5 556.87,-9.5 572.43,-9.5"/>
<polygon fill="#63b8ff" stroke="#63b8ff" points="572.74,-13 582.74,-9.5 572.74,-6 572.74,-13"/>
</a>
</g>
</g>
<!-- Node12&#45;&gt;Node12 -->
<g id="edge15_Node000012_Node000012" class="edge">
<title>Node12&#45;&gt;Node12</title>
<g id="a_edge15_Node000012_Node000012"><a xlink:title=" ">
<path fill="none" stroke="#63b8ff" d="M590.5,-19.08C579.55,-27.73 587.05,-37 613,-37 629.62,-37 638.68,-33.2 640.16,-28.19"/>
<polygon fill="#63b8ff" stroke="#63b8ff" points="643.17,-26.39 635.5,-19.08 636.94,-29.58 643.17,-26.39"/>
</a>
</g>
</g>
</g>
</svg>
