<?xml version="1.0" encoding="UTF-8" standalone="no"?>
<!DOCTYPE svg PUBLIC "-//W3C//DTD SVG 1.1//EN"
 "http://www.w3.org/Graphics/SVG/1.1/DTD/svg11.dtd">
<!-- Generated by graphviz version 2.43.0 (0)
 -->
<!-- Title: check_heredoc Pages: 1 -->
<svg width="703pt" height="248pt"
 viewBox="0.00 0.00 703.00 248.00" xmlns="http://www.w3.org/2000/svg" xmlns:xlink="http://www.w3.org/1999/xlink">
<g id="graph0" class="graph" transform="scale(1 1) rotate(0) translate(4 244)">
<title>check_heredoc</title>
<!-- Node1 -->
<g id="Node000001" class="node">
<title>Node1</title>
<g id="a_Node000001"><a xlink:title="Checks the syntactic correctness of a here&#45;document.">
<polygon fill="#999999" stroke="#666666" points="89,-130 0,-130 0,-111 89,-111 89,-130"/>
<text text-anchor="middle" x="44.5" y="-118" font-family="Helvetica,sans-Serif" font-size="10.00">check_heredoc</text>
</a>
</g>
</g>
<!-- Node2 -->
<g id="Node000002" class="node">
<title>Node2</title>
<g id="a_Node000002"><a xlink:href="write__errors_8c.html#a0c76a459d59d98c5e92eb1333d6d9858" target="_top" xlink:title="Prints an error message to standard error.">
<polygon fill="white" stroke="#666666" points="187.5,-167 130.5,-167 130.5,-148 187.5,-148 187.5,-167"/>
<text text-anchor="middle" x="159" y="-155" font-family="Helvetica,sans-Serif" font-size="10.00">error_ex</text>
</a>
</g>
</g>
<!-- Node1&#45;&gt;Node2 -->
<g id="edge1_Node000001_Node000002" class="edge">
<title>Node1&#45;&gt;Node2</title>
<g id="a_edge1_Node000001_Node000002"><a xlink:title=" ">
<path fill="none" stroke="#63b8ff" d="M74.47,-130.03C88.57,-134.67 105.69,-140.29 120.74,-145.25"/>
<polygon fill="#63b8ff" stroke="#63b8ff" points="119.7,-148.59 130.29,-148.39 121.88,-141.94 119.7,-148.59"/>
</a>
</g>
</g>
<!-- Node13 -->
<g id="Node000013" class="node">
<title>Node13</title>
<g id="a_Node000013"><a xlink:href="ft__isalnum_8c.html#a9c2c3821ea43ebdf97de07b123503f8b" target="_top" xlink:title="Checks whether a character is alphanumeric.">
<polygon fill="white" stroke="#666666" points="193,-130 125,-130 125,-111 193,-111 193,-130"/>
<text text-anchor="middle" x="159" y="-118" font-family="Helvetica,sans-Serif" font-size="10.00">ft_isalnum</text>
</a>
</g>
</g>
<!-- Node1&#45;&gt;Node13 -->
<g id="edge17_Node000001_Node000013" class="edge">
<title>Node1&#45;&gt;Node13</title>
<g id="a_edge17_Node000001_Node000013"><a xlink:title=" ">
<path fill="none" stroke="#63b8ff" d="M89.32,-120.5C97.65,-120.5 106.36,-120.5 114.67,-120.5"/>
<polygon fill="#63b8ff" stroke="#63b8ff" points="114.93,-124 124.93,-120.5 114.93,-117 114.93,-124"/>
</a>
</g>
</g>
<!-- Node14 -->
<g id="Node000014" class="node">
<title>Node14</title>
<g id="a_Node000014"><a xlink:href="ft__strncmp_8c.html#a9d2fe792187aa4ed08e5864fb2c4d6dc" target="_top" xlink:title="Compares up to n characters of two strings.">
<polygon fill="white" stroke="#666666" points="193,-93 125,-93 125,-74 193,-74 193,-93"/>
<text text-anchor="middle" x="159" y="-81" font-family="Helvetica,sans-Serif" font-size="10.00">ft_strncmp</text>
</a>
</g>
</g>
<!-- Node1&#45;&gt;Node14 -->
<g id="edge18_Node000001_Node000014" class="edge">
<title>Node1&#45;&gt;Node14</title>
<g id="a_edge18_Node000001_Node000014"><a xlink:title=" ">
<path fill="none" stroke="#63b8ff" d="M74.47,-110.97C88.01,-106.52 104.34,-101.15 118.95,-96.34"/>
<polygon fill="#63b8ff" stroke="#63b8ff" points="120.33,-99.57 128.74,-93.12 118.14,-92.92 120.33,-99.57"/>
</a>
</g>
</g>
<!-- Node3 -->
<g id="Node000003" class="node">
<title>Node3</title>
<g id="a_Node000003"><a xlink:href="ft__printf_8c.html#a091532b7f37af84bdecc84dccf4eedb1" target="_top" xlink:title="A simplified printf function that outputs formatted data to a given file descriptor.">
<polygon fill="white" stroke="#666666" points="284,-167 229,-167 229,-148 284,-148 284,-167"/>
<text text-anchor="middle" x="256.5" y="-155" font-family="Helvetica,sans-Serif" font-size="10.00">ft_printf</text>
</a>
</g>
</g>
<!-- Node2&#45;&gt;Node3 -->
<g id="edge2_Node000002_Node000003" class="edge">
<title>Node2&#45;&gt;Node3</title>
<g id="a_edge2_Node000002_Node000003"><a xlink:title=" ">
<path fill="none" stroke="#63b8ff" d="M187.62,-157.5C197.37,-157.5 208.49,-157.5 218.87,-157.5"/>
<polygon fill="#63b8ff" stroke="#63b8ff" points="218.93,-161 228.93,-157.5 218.93,-154 218.93,-161"/>
</a>
</g>
</g>
<!-- Node4 -->
<g id="Node000004" class="node">
<title>Node4</title>
<g id="a_Node000004"><a xlink:href="ft__printf_8c.html#a80c1c206dcd33d07c265581878aaa300" target="_top" xlink:title="Processes a single format specifier and prints the corresponding argument.">
<polygon fill="white" stroke="#666666" points="403,-148 320,-148 320,-129 403,-129 403,-148"/>
<text text-anchor="middle" x="361.5" y="-136" font-family="Helvetica,sans-Serif" font-size="10.00">check_format</text>
</a>
</g>
</g>
<!-- Node3&#45;&gt;Node4 -->
<g id="edge3_Node000003_Node000004" class="edge">
<title>Node3&#45;&gt;Node4</title>
<g id="a_edge3_Node000003_Node000004"><a xlink:title=" ">
<path fill="none" stroke="#63b8ff" d="M284.03,-152.61C291.91,-151.15 300.82,-149.51 309.7,-147.87"/>
<polygon fill="#63b8ff" stroke="#63b8ff" points="310.47,-151.29 319.66,-146.03 309.2,-144.4 310.47,-151.29"/>
</a>
</g>
</g>
<!-- Node8 -->
<g id="Node000008" class="node">
<title>Node8</title>
<g id="a_Node000008"><a xlink:href="ft__putchar__fd_8c.html#a03ef80b25dc4a521379fa92ad97bad21" target="_top" xlink:title="Writes a single character to the specified file descriptor.">
<polygon fill="white" stroke="#666666" points="534,-240 454,-240 454,-221 534,-221 534,-240"/>
<text text-anchor="middle" x="494" y="-228" font-family="Helvetica,sans-Serif" font-size="10.00">ft_putchar_fd</text>
</a>
</g>
</g>
<!-- Node3&#45;&gt;Node8 -->
<g id="edge16_Node000003_Node000008" class="edge">
<title>Node3&#45;&gt;Node8</title>
<g id="a_edge16_Node000003_Node000008"><a xlink:title=" ">
<path fill="none" stroke="#63b8ff" d="M284.06,-165.73C325.05,-178.44 404.03,-202.92 452.27,-217.88"/>
<polygon fill="#63b8ff" stroke="#63b8ff" points="451.49,-221.3 462.08,-220.91 453.56,-214.61 451.49,-221.3"/>
</a>
</g>
</g>
<!-- Node5 -->
<g id="Node000005" class="node">
<title>Node5</title>
<g id="a_Node000005"><a xlink:href="ft__forpointer_8c.html#a8e02c77b80406af72327ebf71f537786" target="_top" xlink:title="Prints a pointer in hexadecimal format prefixed with &quot;0x&quot;.">
<polygon fill="white" stroke="#666666" points="532.5,-203 455.5,-203 455.5,-184 532.5,-184 532.5,-203"/>
<text text-anchor="middle" x="494" y="-191" font-family="Helvetica,sans-Serif" font-size="10.00">ft_forpointer</text>
</a>
</g>
</g>
<!-- Node4&#45;&gt;Node5 -->
<g id="edge4_Node000004_Node000005" class="edge">
<title>Node4&#45;&gt;Node5</title>
<g id="a_edge4_Node000004_Node000005"><a xlink:title=" ">
<path fill="none" stroke="#63b8ff" d="M380.75,-148.15C396.06,-156.05 418.64,-167.22 439,-175.5 443.4,-177.29 448.06,-179.04 452.71,-180.71"/>
<polygon fill="#63b8ff" stroke="#63b8ff" points="451.6,-184.03 462.19,-183.99 453.89,-177.41 451.6,-184.03"/>
</a>
</g>
</g>
<!-- Node7 -->
<g id="Node000007" class="node">
<title>Node7</title>
<g id="a_Node000007"><a xlink:href="ft__hexadecimal_8c.html#a39c845e0a4286d3ac1e04c1e64ac734b" target="_top" xlink:title="Prints an unsigned integer in hexadecimal format.">
<polygon fill="white" stroke="#666666" points="540,-148 448,-148 448,-129 540,-129 540,-148"/>
<text text-anchor="middle" x="494" y="-136" font-family="Helvetica,sans-Serif" font-size="10.00">ft_hexadecimal</text>
</a>
</g>
</g>
<!-- Node4&#45;&gt;Node7 -->
<g id="edge7_Node000004_Node000007" class="edge">
<title>Node4&#45;&gt;Node7</title>
<g id="a_edge7_Node000004_Node000007"><a xlink:title=" ">
<path fill="none" stroke="#63b8ff" d="M403.08,-138.5C414.07,-138.5 426.16,-138.5 437.82,-138.5"/>
<polygon fill="#63b8ff" stroke="#63b8ff" points="437.9,-142 447.9,-138.5 437.9,-135 437.9,-142"/>
</a>
</g>
</g>
<!-- Node4&#45;&gt;Node8 -->
<g id="edge9_Node000004_Node000008" class="edge">
<title>Node4&#45;&gt;Node8</title>
<g id="a_edge9_Node000004_Node000008"><a xlink:title=" ">
<path fill="none" stroke="#63b8ff" d="M369.94,-148.07C382.55,-163.69 409.61,-194.67 439,-212.5 441.66,-214.11 444.48,-215.6 447.39,-216.97"/>
<polygon fill="#63b8ff" stroke="#63b8ff" points="446.27,-220.3 456.85,-220.96 448.99,-213.85 446.27,-220.3"/>
</a>
</g>
</g>
<!-- Node9 -->
<g id="Node000009" class="node">
<title>Node9</title>
<g id="a_Node000009"><a xlink:href="ft__putnbr__fd_8c.html#a1554101ee350c316340c78e19faddaa8" target="_top" xlink:title="Writes an integer to a given file descriptor.">
<polygon fill="white" stroke="#666666" points="531.5,-93 456.5,-93 456.5,-74 531.5,-74 531.5,-93"/>
<text text-anchor="middle" x="494" y="-81" font-family="Helvetica,sans-Serif" font-size="10.00">ft_putnbr_fd</text>
</a>
</g>
</g>
<!-- Node4&#45;&gt;Node9 -->
<g id="edge10_Node000004_Node000009" class="edge">
<title>Node4&#45;&gt;Node9</title>
<g id="a_edge10_Node000004_Node000009"><a xlink:title=" ">
<path fill="none" stroke="#63b8ff" d="M385.23,-128.92C406.06,-120.14 437.13,-107.05 460.57,-97.17"/>
<polygon fill="#63b8ff" stroke="#63b8ff" points="462.24,-100.26 470.09,-93.16 459.52,-93.81 462.24,-100.26"/>
</a>
</g>
</g>
<!-- Node10 -->
<g id="Node000010" class="node">
<title>Node10</title>
<g id="a_Node000010"><a xlink:href="ft__putstr__fd_8c.html#a00b0638f31a75c7a30f77f33888bfb73" target="_top" xlink:title="Writes a null&#45;terminated string to the specified file descriptor.">
<polygon fill="white" stroke="#666666" points="530,-56 458,-56 458,-37 530,-37 530,-56"/>
<text text-anchor="middle" x="494" y="-44" font-family="Helvetica,sans-Serif" font-size="10.00">ft_putstr_fd</text>
</a>
</g>
</g>
<!-- Node4&#45;&gt;Node10 -->
<g id="edge12_Node000004_Node000010" class="edge">
<title>Node4&#45;&gt;Node10</title>
<g id="a_edge12_Node000004_Node000010"><a xlink:title=" ">
<path fill="none" stroke="#63b8ff" d="M370.42,-128.62C383.28,-113.15 410.21,-83.16 439,-65.5 442.34,-63.45 445.92,-61.59 449.61,-59.89"/>
<polygon fill="#63b8ff" stroke="#63b8ff" points="450.98,-63.11 458.87,-56.04 448.29,-56.65 450.98,-63.11"/>
</a>
</g>
</g>
<!-- Node11 -->
<g id="Node000011" class="node">
<title>Node11</title>
<g id="a_Node000011"><a xlink:href="ft__unsigned__putnbr_8c.html#af9a70f8607b40cf2a7706f9d3725b549" target="_top" xlink:title="Writes an unsigned integer to the given file descriptor.">
<polygon fill="white" stroke="#666666" points="549,-19 439,-19 439,0 549,0 549,-19"/>
<text text-anchor="middle" x="494" y="-7" font-family="Helvetica,sans-Serif" font-size="10.00">ft_unsigned_putnbr</text>
</a>
</g>
</g>
<!-- Node4&#45;&gt;Node11 -->
<g id="edge13_Node000004_Node000011" class="edge">
<title>Node4&#45;&gt;Node11</title>
<g id="a_edge13_Node000004_Node000011"><a xlink:title=" ">
<path fill="none" stroke="#63b8ff" d="M366.51,-128.93C375.94,-107.55 401.58,-55.62 439,-27.5 440.83,-26.13 442.77,-24.85 444.79,-23.67"/>
<polygon fill="#63b8ff" stroke="#63b8ff" points="446.61,-26.67 454,-19.09 443.49,-20.41 446.61,-26.67"/>
</a>
</g>
</g>
<!-- Node6 -->
<g id="Node000006" class="node">
<title>Node6</title>
<g id="a_Node000006"><a xlink:href="ft__forpointer_8c.html#aded1bf735c8a10e47396170d27c5b6aa" target="_top" xlink:title="Recursively prints a memory address in hexadecimal format.">
<polygon fill="white" stroke="#666666" points="695,-203 585,-203 585,-184 695,-184 695,-203"/>
<text text-anchor="middle" x="640" y="-191" font-family="Helvetica,sans-Serif" font-size="10.00">ft_ricorsive_pointer</text>
</a>
</g>
</g>
<!-- Node5&#45;&gt;Node6 -->
<g id="edge5_Node000005_Node000006" class="edge">
<title>Node5&#45;&gt;Node6</title>
<g id="a_edge5_Node000005_Node000006"><a xlink:title=" ">
<path fill="none" stroke="#63b8ff" d="M532.83,-193.5C545.64,-193.5 560.33,-193.5 574.61,-193.5"/>
<polygon fill="#63b8ff" stroke="#63b8ff" points="574.9,-197 584.9,-193.5 574.9,-190 574.9,-197"/>
</a>
</g>
</g>
<!-- Node6&#45;&gt;Node6 -->
<g id="edge6_Node000006_Node000006" class="edge">
<title>Node6&#45;&gt;Node6</title>
<g id="a_edge6_Node000006_Node000006"><a xlink:title=" ">
<path fill="none" stroke="#63b8ff" d="M617.5,-203.08C606.55,-211.73 614.05,-221 640,-221 656.62,-221 665.68,-217.2 667.16,-212.19"/>
<polygon fill="#63b8ff" stroke="#63b8ff" points="670.17,-210.39 662.5,-203.08 663.94,-213.58 670.17,-210.39"/>
</a>
</g>
</g>
<!-- Node7&#45;&gt;Node7 -->
<g id="edge8_Node000007_Node000007" class="edge">
<title>Node7&#45;&gt;Node7</title>
<g id="a_edge8_Node000007_Node000007"><a xlink:title=" ">
<path fill="none" stroke="#63b8ff" d="M473.65,-148.08C463.76,-156.73 470.54,-166 494,-166 509.03,-166 517.21,-162.2 518.55,-157.19"/>
<polygon fill="#63b8ff" stroke="#63b8ff" points="521.72,-155.69 514.35,-148.08 515.36,-158.63 521.72,-155.69"/>
</a>
</g>
</g>
<!-- Node9&#45;&gt;Node9 -->
<g id="edge11_Node000009_Node000009" class="edge">
<title>Node9&#45;&gt;Node9</title>
<g id="a_edge11_Node000009_Node000009"><a xlink:title=" ">
<path fill="none" stroke="#63b8ff" d="M473.65,-93.08C463.76,-101.73 470.54,-111 494,-111 509.03,-111 517.21,-107.2 518.55,-102.19"/>
<polygon fill="#63b8ff" stroke="#63b8ff" points="521.72,-100.69 514.35,-93.08 515.36,-103.63 521.72,-100.69"/>
</a>
</g>
</g>
<!-- Node12 -->
<g id="Node000012" class="node">
<title>Node12</title>
<g id="a_Node000012"><a xlink:href="ft__putnbr_8c.html#a2e51f80c9e46e52f4adf94617fb51ada" target="_top" xlink:title="Writes an integer to the standard output (stdout).">
<polygon fill="white" stroke="#666666" points="670,-19 610,-19 610,0 670,0 670,-19"/>
<text text-anchor="middle" x="640" y="-7" font-family="Helvetica,sans-Serif" font-size="10.00">ft_putnbr</text>
</a>
</g>
</g>
<!-- Node11&#45;&gt;Node12 -->
<g id="edge14_Node000011_Node000012" class="edge">
<title>Node11&#45;&gt;Node12</title>
<g id="a_edge14_Node000011_Node000012"><a xlink:title=" ">
<path fill="none" stroke="#63b8ff" d="M549.03,-9.5C565.76,-9.5 583.87,-9.5 599.43,-9.5"/>
<polygon fill="#63b8ff" stroke="#63b8ff" points="599.74,-13 609.74,-9.5 599.74,-6 599.74,-13"/>
</a>
</g>
</g>
<!-- Node12&#45;&gt;Node12 -->
<g id="edge15_Node000012_Node000012" class="edge">
<title>Node12&#45;&gt;Node12</title>
<g id="a_edge15_Node000012_Node000012"><a xlink:title=" ">
<path fill="none" stroke="#63b8ff" d="M617.5,-19.08C606.55,-27.73 614.05,-37 640,-37 656.62,-37 665.68,-33.2 667.16,-28.19"/>
<polygon fill="#63b8ff" stroke="#63b8ff" points="670.17,-26.39 662.5,-19.08 663.94,-29.58 670.17,-26.39"/>
</a>
</g>
</g>
</g>
</svg>
