<?xml version="1.0" encoding="UTF-8" standalone="no"?>
<!DOCTYPE svg PUBLIC "-//W3C//DTD SVG 1.1//EN"
 "http://www.w3.org/Graphics/SVG/1.1/DTD/svg11.dtd">
<!-- Generated by graphviz version 2.43.0 (0)
 -->
<!-- Title: check_pipe Pages: 1 -->
<svg width="674pt" height="248pt"
 viewBox="0.00 0.00 674.00 248.00" xmlns="http://www.w3.org/2000/svg" xmlns:xlink="http://www.w3.org/1999/xlink">
<g id="graph0" class="graph" transform="scale(1 1) rotate(0) translate(4 244)">
<title>check_pipe</title>
<!-- Node1 -->
<g id="Node000001" class="node">
<title>Node1</title>
<g id="a_Node000001"><a xlink:title="Checks the syntactic correctness of a pipe.">
<polygon fill="#999999" stroke="#666666" points="71,-148 0,-148 0,-129 71,-129 71,-148"/>
<text text-anchor="middle" x="35.5" y="-136" font-family="Helvetica,sans-Serif" font-size="10.00">check_pipe</text>
</a>
</g>
</g>
<!-- Node2 -->
<g id="Node000002" class="node">
<title>Node2</title>
<g id="a_Node000002"><a xlink:href="write__errors_8c.html#a0c76a459d59d98c5e92eb1333d6d9858" target="_top" xlink:title="Prints an error message to standard error.">
<polygon fill="white" stroke="#666666" points="164,-167 107,-167 107,-148 164,-148 164,-167"/>
<text text-anchor="middle" x="135.5" y="-155" font-family="Helvetica,sans-Serif" font-size="10.00">error_ex</text>
</a>
</g>
</g>
<!-- Node1&#45;&gt;Node2 -->
<g id="edge1_Node000001_Node000002" class="edge">
<title>Node1&#45;&gt;Node2</title>
<g id="a_edge1_Node000001_Node000002"><a xlink:title=" ">
<path fill="none" stroke="#63b8ff" d="M71.05,-145.2C79.36,-146.81 88.27,-148.54 96.72,-150.17"/>
<polygon fill="#63b8ff" stroke="#63b8ff" points="96.23,-153.64 106.71,-152.11 97.56,-146.77 96.23,-153.64"/>
</a>
</g>
</g>
<!-- Node13 -->
<g id="Node000013" class="node">
<title>Node13</title>
<g id="a_Node000013"><a xlink:href="utils__token__pt2_8c.html#a80ff8a93c96a15856a12c406efa61cf7" target="_top" xlink:title="Checks if the token represents a redirection.">
<polygon fill="white" stroke="#666666" points="162,-130 109,-130 109,-111 162,-111 162,-130"/>
<text text-anchor="middle" x="135.5" y="-118" font-family="Helvetica,sans-Serif" font-size="10.00">is_redir</text>
</a>
</g>
</g>
<!-- Node1&#45;&gt;Node13 -->
<g id="edge17_Node000001_Node000013" class="edge">
<title>Node1&#45;&gt;Node13</title>
<g id="a_edge17_Node000001_Node000013"><a xlink:title=" ">
<path fill="none" stroke="#63b8ff" d="M71.05,-132.15C80.1,-130.49 89.87,-128.7 98.97,-127.03"/>
<polygon fill="#63b8ff" stroke="#63b8ff" points="99.68,-130.45 108.88,-125.21 98.41,-123.57 99.68,-130.45"/>
</a>
</g>
</g>
<!-- Node3 -->
<g id="Node000003" class="node">
<title>Node3</title>
<g id="a_Node000003"><a xlink:href="ft__printf_8c.html#a091532b7f37af84bdecc84dccf4eedb1" target="_top" xlink:title="A simplified printf function that outputs formatted data to a given file descriptor.">
<polygon fill="white" stroke="#666666" points="255,-167 200,-167 200,-148 255,-148 255,-167"/>
<text text-anchor="middle" x="227.5" y="-155" font-family="Helvetica,sans-Serif" font-size="10.00">ft_printf</text>
</a>
</g>
</g>
<!-- Node2&#45;&gt;Node3 -->
<g id="edge2_Node000002_Node000003" class="edge">
<title>Node2&#45;&gt;Node3</title>
<g id="a_edge2_Node000002_Node000003"><a xlink:title=" ">
<path fill="none" stroke="#63b8ff" d="M164.48,-157.5C172.48,-157.5 181.32,-157.5 189.76,-157.5"/>
<polygon fill="#63b8ff" stroke="#63b8ff" points="189.77,-161 199.77,-157.5 189.77,-154 189.77,-161"/>
</a>
</g>
</g>
<!-- Node4 -->
<g id="Node000004" class="node">
<title>Node4</title>
<g id="a_Node000004"><a xlink:href="ft__printf_8c.html#a80c1c206dcd33d07c265581878aaa300" target="_top" xlink:title="Processes a single format specifier and prints the corresponding argument.">
<polygon fill="white" stroke="#666666" points="374,-148 291,-148 291,-129 374,-129 374,-148"/>
<text text-anchor="middle" x="332.5" y="-136" font-family="Helvetica,sans-Serif" font-size="10.00">check_format</text>
</a>
</g>
</g>
<!-- Node3&#45;&gt;Node4 -->
<g id="edge3_Node000003_Node000004" class="edge">
<title>Node3&#45;&gt;Node4</title>
<g id="a_edge3_Node000003_Node000004"><a xlink:title=" ">
<path fill="none" stroke="#63b8ff" d="M255.03,-152.61C262.91,-151.15 271.82,-149.51 280.7,-147.87"/>
<polygon fill="#63b8ff" stroke="#63b8ff" points="281.47,-151.29 290.66,-146.03 280.2,-144.4 281.47,-151.29"/>
</a>
</g>
</g>
<!-- Node8 -->
<g id="Node000008" class="node">
<title>Node8</title>
<g id="a_Node000008"><a xlink:href="ft__putchar__fd_8c.html#a03ef80b25dc4a521379fa92ad97bad21" target="_top" xlink:title="Writes a single character to the specified file descriptor.">
<polygon fill="white" stroke="#666666" points="505,-240 425,-240 425,-221 505,-221 505,-240"/>
<text text-anchor="middle" x="465" y="-228" font-family="Helvetica,sans-Serif" font-size="10.00">ft_putchar_fd</text>
</a>
</g>
</g>
<!-- Node3&#45;&gt;Node8 -->
<g id="edge16_Node000003_Node000008" class="edge">
<title>Node3&#45;&gt;Node8</title>
<g id="a_edge16_Node000003_Node000008"><a xlink:title=" ">
<path fill="none" stroke="#63b8ff" d="M255.06,-165.73C296.05,-178.44 375.03,-202.92 423.27,-217.88"/>
<polygon fill="#63b8ff" stroke="#63b8ff" points="422.49,-221.3 433.08,-220.91 424.56,-214.61 422.49,-221.3"/>
</a>
</g>
</g>
<!-- Node5 -->
<g id="Node000005" class="node">
<title>Node5</title>
<g id="a_Node000005"><a xlink:href="ft__forpointer_8c.html#a8e02c77b80406af72327ebf71f537786" target="_top" xlink:title="Prints a pointer in hexadecimal format prefixed with &quot;0x&quot;.">
<polygon fill="white" stroke="#666666" points="503.5,-203 426.5,-203 426.5,-184 503.5,-184 503.5,-203"/>
<text text-anchor="middle" x="465" y="-191" font-family="Helvetica,sans-Serif" font-size="10.00">ft_forpointer</text>
</a>
</g>
</g>
<!-- Node4&#45;&gt;Node5 -->
<g id="edge4_Node000004_Node000005" class="edge">
<title>Node4&#45;&gt;Node5</title>
<g id="a_edge4_Node000004_Node000005"><a xlink:title=" ">
<path fill="none" stroke="#63b8ff" d="M351.75,-148.15C367.06,-156.05 389.64,-167.22 410,-175.5 414.4,-177.29 419.06,-179.04 423.71,-180.71"/>
<polygon fill="#63b8ff" stroke="#63b8ff" points="422.6,-184.03 433.19,-183.99 424.89,-177.41 422.6,-184.03"/>
</a>
</g>
</g>
<!-- Node7 -->
<g id="Node000007" class="node">
<title>Node7</title>
<g id="a_Node000007"><a xlink:href="ft__hexadecimal_8c.html#a39c845e0a4286d3ac1e04c1e64ac734b" target="_top" xlink:title="Prints an unsigned integer in hexadecimal format.">
<polygon fill="white" stroke="#666666" points="511,-148 419,-148 419,-129 511,-129 511,-148"/>
<text text-anchor="middle" x="465" y="-136" font-family="Helvetica,sans-Serif" font-size="10.00">ft_hexadecimal</text>
</a>
</g>
</g>
<!-- Node4&#45;&gt;Node7 -->
<g id="edge7_Node000004_Node000007" class="edge">
<title>Node4&#45;&gt;Node7</title>
<g id="a_edge7_Node000004_Node000007"><a xlink:title=" ">
<path fill="none" stroke="#63b8ff" d="M374.08,-138.5C385.07,-138.5 397.16,-138.5 408.82,-138.5"/>
<polygon fill="#63b8ff" stroke="#63b8ff" points="408.9,-142 418.9,-138.5 408.9,-135 408.9,-142"/>
</a>
</g>
</g>
<!-- Node4&#45;&gt;Node8 -->
<g id="edge9_Node000004_Node000008" class="edge">
<title>Node4&#45;&gt;Node8</title>
<g id="a_edge9_Node000004_Node000008"><a xlink:title=" ">
<path fill="none" stroke="#63b8ff" d="M340.94,-148.07C353.55,-163.69 380.61,-194.67 410,-212.5 412.66,-214.11 415.48,-215.6 418.39,-216.97"/>
<polygon fill="#63b8ff" stroke="#63b8ff" points="417.27,-220.3 427.85,-220.96 419.99,-213.85 417.27,-220.3"/>
</a>
</g>
</g>
<!-- Node9 -->
<g id="Node000009" class="node">
<title>Node9</title>
<g id="a_Node000009"><a xlink:href="ft__putnbr__fd_8c.html#a1554101ee350c316340c78e19faddaa8" target="_top" xlink:title="Writes an integer to a given file descriptor.">
<polygon fill="white" stroke="#666666" points="502.5,-93 427.5,-93 427.5,-74 502.5,-74 502.5,-93"/>
<text text-anchor="middle" x="465" y="-81" font-family="Helvetica,sans-Serif" font-size="10.00">ft_putnbr_fd</text>
</a>
</g>
</g>
<!-- Node4&#45;&gt;Node9 -->
<g id="edge10_Node000004_Node000009" class="edge">
<title>Node4&#45;&gt;Node9</title>
<g id="a_edge10_Node000004_Node000009"><a xlink:title=" ">
<path fill="none" stroke="#63b8ff" d="M356.23,-128.92C377.06,-120.14 408.13,-107.05 431.57,-97.17"/>
<polygon fill="#63b8ff" stroke="#63b8ff" points="433.24,-100.26 441.09,-93.16 430.52,-93.81 433.24,-100.26"/>
</a>
</g>
</g>
<!-- Node10 -->
<g id="Node000010" class="node">
<title>Node10</title>
<g id="a_Node000010"><a xlink:href="ft__putstr__fd_8c.html#a00b0638f31a75c7a30f77f33888bfb73" target="_top" xlink:title="Writes a null&#45;terminated string to the specified file descriptor.">
<polygon fill="white" stroke="#666666" points="501,-56 429,-56 429,-37 501,-37 501,-56"/>
<text text-anchor="middle" x="465" y="-44" font-family="Helvetica,sans-Serif" font-size="10.00">ft_putstr_fd</text>
</a>
</g>
</g>
<!-- Node4&#45;&gt;Node10 -->
<g id="edge12_Node000004_Node000010" class="edge">
<title>Node4&#45;&gt;Node10</title>
<g id="a_edge12_Node000004_Node000010"><a xlink:title=" ">
<path fill="none" stroke="#63b8ff" d="M341.42,-128.62C354.28,-113.15 381.21,-83.16 410,-65.5 413.34,-63.45 416.92,-61.59 420.61,-59.89"/>
<polygon fill="#63b8ff" stroke="#63b8ff" points="421.98,-63.11 429.87,-56.04 419.29,-56.65 421.98,-63.11"/>
</a>
</g>
</g>
<!-- Node11 -->
<g id="Node000011" class="node">
<title>Node11</title>
<g id="a_Node000011"><a xlink:href="ft__unsigned__putnbr_8c.html#af9a70f8607b40cf2a7706f9d3725b549" target="_top" xlink:title="Writes an unsigned integer to the given file descriptor.">
<polygon fill="white" stroke="#666666" points="520,-19 410,-19 410,0 520,0 520,-19"/>
<text text-anchor="middle" x="465" y="-7" font-family="Helvetica,sans-Serif" font-size="10.00">ft_unsigned_putnbr</text>
</a>
</g>
</g>
<!-- Node4&#45;&gt;Node11 -->
<g id="edge13_Node000004_Node000011" class="edge">
<title>Node4&#45;&gt;Node11</title>
<g id="a_edge13_Node000004_Node000011"><a xlink:title=" ">
<path fill="none" stroke="#63b8ff" d="M337.51,-128.93C346.94,-107.55 372.58,-55.62 410,-27.5 411.83,-26.13 413.77,-24.85 415.79,-23.67"/>
<polygon fill="#63b8ff" stroke="#63b8ff" points="417.61,-26.67 425,-19.09 414.49,-20.41 417.61,-26.67"/>
</a>
</g>
</g>
<!-- Node6 -->
<g id="Node000006" class="node">
<title>Node6</title>
<g id="a_Node000006"><a xlink:href="ft__forpointer_8c.html#aded1bf735c8a10e47396170d27c5b6aa" target="_top" xlink:title="Recursively prints a memory address in hexadecimal format.">
<polygon fill="white" stroke="#666666" points="666,-203 556,-203 556,-184 666,-184 666,-203"/>
<text text-anchor="middle" x="611" y="-191" font-family="Helvetica,sans-Serif" font-size="10.00">ft_ricorsive_pointer</text>
</a>
</g>
</g>
<!-- Node5&#45;&gt;Node6 -->
<g id="edge5_Node000005_Node000006" class="edge">
<title>Node5&#45;&gt;Node6</title>
<g id="a_edge5_Node000005_Node000006"><a xlink:title=" ">
<path fill="none" stroke="#63b8ff" d="M503.83,-193.5C516.64,-193.5 531.33,-193.5 545.61,-193.5"/>
<polygon fill="#63b8ff" stroke="#63b8ff" points="545.9,-197 555.9,-193.5 545.9,-190 545.9,-197"/>
</a>
</g>
</g>
<!-- Node6&#45;&gt;Node6 -->
<g id="edge6_Node000006_Node000006" class="edge">
<title>Node6&#45;&gt;Node6</title>
<g id="a_edge6_Node000006_Node000006"><a xlink:title=" ">
<path fill="none" stroke="#63b8ff" d="M588.5,-203.08C577.55,-211.73 585.05,-221 611,-221 627.62,-221 636.68,-217.2 638.16,-212.19"/>
<polygon fill="#63b8ff" stroke="#63b8ff" points="641.17,-210.39 633.5,-203.08 634.94,-213.58 641.17,-210.39"/>
</a>
</g>
</g>
<!-- Node7&#45;&gt;Node7 -->
<g id="edge8_Node000007_Node000007" class="edge">
<title>Node7&#45;&gt;Node7</title>
<g id="a_edge8_Node000007_Node000007"><a xlink:title=" ">
<path fill="none" stroke="#63b8ff" d="M444.65,-148.08C434.76,-156.73 441.54,-166 465,-166 480.03,-166 488.21,-162.2 489.55,-157.19"/>
<polygon fill="#63b8ff" stroke="#63b8ff" points="492.72,-155.69 485.35,-148.08 486.36,-158.63 492.72,-155.69"/>
</a>
</g>
</g>
<!-- Node9&#45;&gt;Node9 -->
<g id="edge11_Node000009_Node000009" class="edge">
<title>Node9&#45;&gt;Node9</title>
<g id="a_edge11_Node000009_Node000009"><a xlink:title=" ">
<path fill="none" stroke="#63b8ff" d="M444.65,-93.08C434.76,-101.73 441.54,-111 465,-111 480.03,-111 488.21,-107.2 489.55,-102.19"/>
<polygon fill="#63b8ff" stroke="#63b8ff" points="492.72,-100.69 485.35,-93.08 486.36,-103.63 492.72,-100.69"/>
</a>
</g>
</g>
<!-- Node12 -->
<g id="Node000012" class="node">
<title>Node12</title>
<g id="a_Node000012"><a xlink:href="ft__putnbr_8c.html#a2e51f80c9e46e52f4adf94617fb51ada" target="_top" xlink:title="Writes an integer to the standard output (stdout).">
<polygon fill="white" stroke="#666666" points="641,-19 581,-19 581,0 641,0 641,-19"/>
<text text-anchor="middle" x="611" y="-7" font-family="Helvetica,sans-Serif" font-size="10.00">ft_putnbr</text>
</a>
</g>
</g>
<!-- Node11&#45;&gt;Node12 -->
<g id="edge14_Node000011_Node000012" class="edge">
<title>Node11&#45;&gt;Node12</title>
<g id="a_edge14_Node000011_Node000012"><a xlink:title=" ">
<path fill="none" stroke="#63b8ff" d="M520.03,-9.5C536.76,-9.5 554.87,-9.5 570.43,-9.5"/>
<polygon fill="#63b8ff" stroke="#63b8ff" points="570.74,-13 580.74,-9.5 570.74,-6 570.74,-13"/>
</a>
</g>
</g>
<!-- Node12&#45;&gt;Node12 -->
<g id="edge15_Node000012_Node000012" class="edge">
<title>Node12&#45;&gt;Node12</title>
<g id="a_edge15_Node000012_Node000012"><a xlink:title=" ">
<path fill="none" stroke="#63b8ff" d="M588.5,-19.08C577.55,-27.73 585.05,-37 611,-37 627.62,-37 636.68,-33.2 638.16,-28.19"/>
<polygon fill="#63b8ff" stroke="#63b8ff" points="641.17,-26.39 633.5,-19.08 634.94,-29.58 641.17,-26.39"/>
</a>
</g>
</g>
</g>
</svg>
