<?xml version="1.0" encoding="UTF-8" standalone="no"?>
<!DOCTYPE svg PUBLIC "-//W3C//DTD SVG 1.1//EN"
 "http://www.w3.org/Graphics/SVG/1.1/DTD/svg11.dtd">
<!-- Generated by graphviz version 2.43.0 (0)
 -->
<!-- Title: check_command Pages: 1 -->
<svg width="613pt" height="248pt"
 viewBox="0.00 0.00 613.00 248.00" xmlns="http://www.w3.org/2000/svg" xmlns:xlink="http://www.w3.org/1999/xlink">
<g id="graph0" class="graph" transform="scale(1 1) rotate(0) translate(4 244)">
<title>check_command</title>
<!-- Node1 -->
<g id="Node000001" class="node">
<title>Node1</title>
<g id="a_Node000001"><a xlink:title="Checks the syntax related to a command.">
<polygon fill="#999999" stroke="#666666" points="99,-161 0,-161 0,-142 99,-142 99,-161"/>
<text text-anchor="middle" x="49.5" y="-149" font-family="Helvetica,sans-Serif" font-size="10.00">check_command</text>
</a>
</g>
</g>
<!-- Node2 -->
<g id="Node000002" class="node">
<title>Node2</title>
<g id="a_Node000002"><a xlink:href="ft__printf_8c.html#a091532b7f37af84bdecc84dccf4eedb1" target="_top" xlink:title="A simplified printf function that outputs formatted data to a given file descriptor.">
<polygon fill="white" stroke="#666666" points="192,-180 137,-180 137,-161 192,-161 192,-180"/>
<text text-anchor="middle" x="164.5" y="-168" font-family="Helvetica,sans-Serif" font-size="10.00">ft_printf</text>
</a>
</g>
</g>
<!-- Node1&#45;&gt;Node2 -->
<g id="edge1_Node000001_Node000002" class="edge">
<title>Node1&#45;&gt;Node2</title>
<g id="a_edge1_Node000001_Node000002"><a xlink:title=" ">
<path fill="none" stroke="#63b8ff" d="M99.08,-159.67C108.36,-161.23 117.94,-162.84 126.78,-164.33"/>
<polygon fill="#63b8ff" stroke="#63b8ff" points="126.31,-167.8 136.76,-166 127.48,-160.89 126.31,-167.8"/>
</a>
</g>
</g>
<!-- Node12 -->
<g id="Node000012" class="node">
<title>Node12</title>
<g id="a_Node000012"><a xlink:href="utils__token__pt2_8c.html#a10926033b2c368f9697d5725d8416844" target="_top" xlink:title="Checks if the token represents whitespace or invalid characters (garbage).">
<polygon fill="white" stroke="#666666" points="194,-143 135,-143 135,-124 194,-124 194,-143"/>
<text text-anchor="middle" x="164.5" y="-131" font-family="Helvetica,sans-Serif" font-size="10.00">is_space</text>
</a>
</g>
</g>
<!-- Node1&#45;&gt;Node12 -->
<g id="edge16_Node000001_Node000012" class="edge">
<title>Node1&#45;&gt;Node12</title>
<g id="a_edge16_Node000001_Node000012"><a xlink:title=" ">
<path fill="none" stroke="#63b8ff" d="M99.08,-143.76C107.66,-142.4 116.49,-140.99 124.75,-139.67"/>
<polygon fill="#63b8ff" stroke="#63b8ff" points="125.53,-143.09 134.86,-138.06 124.43,-136.18 125.53,-143.09"/>
</a>
</g>
</g>
<!-- Node3 -->
<g id="Node000003" class="node">
<title>Node3</title>
<g id="a_Node000003"><a xlink:href="ft__printf_8c.html#a80c1c206dcd33d07c265581878aaa300" target="_top" xlink:title="Processes a single format specifier and prints the corresponding argument.">
<polygon fill="white" stroke="#666666" points="313,-148 230,-148 230,-129 313,-129 313,-148"/>
<text text-anchor="middle" x="271.5" y="-136" font-family="Helvetica,sans-Serif" font-size="10.00">check_format</text>
</a>
</g>
</g>
<!-- Node2&#45;&gt;Node3 -->
<g id="edge2_Node000002_Node000003" class="edge">
<title>Node2&#45;&gt;Node3</title>
<g id="a_edge2_Node000002_Node000003"><a xlink:title=" ">
<path fill="none" stroke="#63b8ff" d="M192.27,-162.34C203.58,-158.89 217.02,-154.8 229.53,-150.99"/>
<polygon fill="#63b8ff" stroke="#63b8ff" points="230.76,-154.27 239.31,-148.01 228.72,-147.57 230.76,-154.27"/>
</a>
</g>
</g>
<!-- Node7 -->
<g id="Node000007" class="node">
<title>Node7</title>
<g id="a_Node000007"><a xlink:href="ft__putchar__fd_8c.html#a03ef80b25dc4a521379fa92ad97bad21" target="_top" xlink:title="Writes a single character to the specified file descriptor.">
<polygon fill="white" stroke="#666666" points="444,-240 364,-240 364,-221 444,-221 444,-240"/>
<text text-anchor="middle" x="404" y="-228" font-family="Helvetica,sans-Serif" font-size="10.00">ft_putchar_fd</text>
</a>
</g>
</g>
<!-- Node2&#45;&gt;Node7 -->
<g id="edge15_Node000002_Node000007" class="edge">
<title>Node2&#45;&gt;Node7</title>
<g id="a_edge15_Node000002_Node000007"><a xlink:title=" ">
<path fill="none" stroke="#63b8ff" d="M192.28,-177.27C231.78,-187.24 306.25,-206.06 355.24,-218.43"/>
<polygon fill="#63b8ff" stroke="#63b8ff" points="354.43,-221.84 364.99,-220.9 356.15,-215.05 354.43,-221.84"/>
</a>
</g>
</g>
<!-- Node4 -->
<g id="Node000004" class="node">
<title>Node4</title>
<g id="a_Node000004"><a xlink:href="ft__forpointer_8c.html#a8e02c77b80406af72327ebf71f537786" target="_top" xlink:title="Prints a pointer in hexadecimal format prefixed with &quot;0x&quot;.">
<polygon fill="white" stroke="#666666" points="442.5,-203 365.5,-203 365.5,-184 442.5,-184 442.5,-203"/>
<text text-anchor="middle" x="404" y="-191" font-family="Helvetica,sans-Serif" font-size="10.00">ft_forpointer</text>
</a>
</g>
</g>
<!-- Node3&#45;&gt;Node4 -->
<g id="edge3_Node000003_Node000004" class="edge">
<title>Node3&#45;&gt;Node4</title>
<g id="a_edge3_Node000003_Node000004"><a xlink:title=" ">
<path fill="none" stroke="#63b8ff" d="M290.75,-148.15C306.06,-156.05 328.64,-167.22 349,-175.5 353.4,-177.29 358.06,-179.04 362.71,-180.71"/>
<polygon fill="#63b8ff" stroke="#63b8ff" points="361.6,-184.03 372.19,-183.99 363.89,-177.41 361.6,-184.03"/>
</a>
</g>
</g>
<!-- Node6 -->
<g id="Node000006" class="node">
<title>Node6</title>
<g id="a_Node000006"><a xlink:href="ft__hexadecimal_8c.html#a39c845e0a4286d3ac1e04c1e64ac734b" target="_top" xlink:title="Prints an unsigned integer in hexadecimal format.">
<polygon fill="white" stroke="#666666" points="450,-148 358,-148 358,-129 450,-129 450,-148"/>
<text text-anchor="middle" x="404" y="-136" font-family="Helvetica,sans-Serif" font-size="10.00">ft_hexadecimal</text>
</a>
</g>
</g>
<!-- Node3&#45;&gt;Node6 -->
<g id="edge6_Node000003_Node000006" class="edge">
<title>Node3&#45;&gt;Node6</title>
<g id="a_edge6_Node000003_Node000006"><a xlink:title=" ">
<path fill="none" stroke="#63b8ff" d="M313.08,-138.5C324.07,-138.5 336.16,-138.5 347.82,-138.5"/>
<polygon fill="#63b8ff" stroke="#63b8ff" points="347.9,-142 357.9,-138.5 347.9,-135 347.9,-142"/>
</a>
</g>
</g>
<!-- Node3&#45;&gt;Node7 -->
<g id="edge8_Node000003_Node000007" class="edge">
<title>Node3&#45;&gt;Node7</title>
<g id="a_edge8_Node000003_Node000007"><a xlink:title=" ">
<path fill="none" stroke="#63b8ff" d="M279.94,-148.07C292.55,-163.69 319.61,-194.67 349,-212.5 351.66,-214.11 354.48,-215.6 357.39,-216.97"/>
<polygon fill="#63b8ff" stroke="#63b8ff" points="356.27,-220.3 366.85,-220.96 358.99,-213.85 356.27,-220.3"/>
</a>
</g>
</g>
<!-- Node8 -->
<g id="Node000008" class="node">
<title>Node8</title>
<g id="a_Node000008"><a xlink:href="ft__putnbr__fd_8c.html#a1554101ee350c316340c78e19faddaa8" target="_top" xlink:title="Writes an integer to a given file descriptor.">
<polygon fill="white" stroke="#666666" points="441.5,-93 366.5,-93 366.5,-74 441.5,-74 441.5,-93"/>
<text text-anchor="middle" x="404" y="-81" font-family="Helvetica,sans-Serif" font-size="10.00">ft_putnbr_fd</text>
</a>
</g>
</g>
<!-- Node3&#45;&gt;Node8 -->
<g id="edge9_Node000003_Node000008" class="edge">
<title>Node3&#45;&gt;Node8</title>
<g id="a_edge9_Node000003_Node000008"><a xlink:title=" ">
<path fill="none" stroke="#63b8ff" d="M295.23,-128.92C316.06,-120.14 347.13,-107.05 370.57,-97.17"/>
<polygon fill="#63b8ff" stroke="#63b8ff" points="372.24,-100.26 380.09,-93.16 369.52,-93.81 372.24,-100.26"/>
</a>
</g>
</g>
<!-- Node9 -->
<g id="Node000009" class="node">
<title>Node9</title>
<g id="a_Node000009"><a xlink:href="ft__putstr__fd_8c.html#a00b0638f31a75c7a30f77f33888bfb73" target="_top" xlink:title="Writes a null&#45;terminated string to the specified file descriptor.">
<polygon fill="white" stroke="#666666" points="440,-56 368,-56 368,-37 440,-37 440,-56"/>
<text text-anchor="middle" x="404" y="-44" font-family="Helvetica,sans-Serif" font-size="10.00">ft_putstr_fd</text>
</a>
</g>
</g>
<!-- Node3&#45;&gt;Node9 -->
<g id="edge11_Node000003_Node000009" class="edge">
<title>Node3&#45;&gt;Node9</title>
<g id="a_edge11_Node000003_Node000009"><a xlink:title=" ">
<path fill="none" stroke="#63b8ff" d="M280.42,-128.62C293.28,-113.15 320.21,-83.16 349,-65.5 352.34,-63.45 355.92,-61.59 359.61,-59.89"/>
<polygon fill="#63b8ff" stroke="#63b8ff" points="360.98,-63.11 368.87,-56.04 358.29,-56.65 360.98,-63.11"/>
</a>
</g>
</g>
<!-- Node10 -->
<g id="Node000010" class="node">
<title>Node10</title>
<g id="a_Node000010"><a xlink:href="ft__unsigned__putnbr_8c.html#af9a70f8607b40cf2a7706f9d3725b549" target="_top" xlink:title="Writes an unsigned integer to the given file descriptor.">
<polygon fill="white" stroke="#666666" points="459,-19 349,-19 349,0 459,0 459,-19"/>
<text text-anchor="middle" x="404" y="-7" font-family="Helvetica,sans-Serif" font-size="10.00">ft_unsigned_putnbr</text>
</a>
</g>
</g>
<!-- Node3&#45;&gt;Node10 -->
<g id="edge12_Node000003_Node000010" class="edge">
<title>Node3&#45;&gt;Node10</title>
<g id="a_edge12_Node000003_Node000010"><a xlink:title=" ">
<path fill="none" stroke="#63b8ff" d="M276.51,-128.93C285.94,-107.55 311.58,-55.62 349,-27.5 350.83,-26.13 352.77,-24.85 354.79,-23.67"/>
<polygon fill="#63b8ff" stroke="#63b8ff" points="356.61,-26.67 364,-19.09 353.49,-20.41 356.61,-26.67"/>
</a>
</g>
</g>
<!-- Node5 -->
<g id="Node000005" class="node">
<title>Node5</title>
<g id="a_Node000005"><a xlink:href="ft__forpointer_8c.html#aded1bf735c8a10e47396170d27c5b6aa" target="_top" xlink:title="Recursively prints a memory address in hexadecimal format.">
<polygon fill="white" stroke="#666666" points="605,-203 495,-203 495,-184 605,-184 605,-203"/>
<text text-anchor="middle" x="550" y="-191" font-family="Helvetica,sans-Serif" font-size="10.00">ft_ricorsive_pointer</text>
</a>
</g>
</g>
<!-- Node4&#45;&gt;Node5 -->
<g id="edge4_Node000004_Node000005" class="edge">
<title>Node4&#45;&gt;Node5</title>
<g id="a_edge4_Node000004_Node000005"><a xlink:title=" ">
<path fill="none" stroke="#63b8ff" d="M442.83,-193.5C455.64,-193.5 470.33,-193.5 484.61,-193.5"/>
<polygon fill="#63b8ff" stroke="#63b8ff" points="484.9,-197 494.9,-193.5 484.9,-190 484.9,-197"/>
</a>
</g>
</g>
<!-- Node5&#45;&gt;Node5 -->
<g id="edge5_Node000005_Node000005" class="edge">
<title>Node5&#45;&gt;Node5</title>
<g id="a_edge5_Node000005_Node000005"><a xlink:title=" ">
<path fill="none" stroke="#63b8ff" d="M527.5,-203.08C516.55,-211.73 524.05,-221 550,-221 566.62,-221 575.68,-217.2 577.16,-212.19"/>
<polygon fill="#63b8ff" stroke="#63b8ff" points="580.17,-210.39 572.5,-203.08 573.94,-213.58 580.17,-210.39"/>
</a>
</g>
</g>
<!-- Node6&#45;&gt;Node6 -->
<g id="edge7_Node000006_Node000006" class="edge">
<title>Node6&#45;&gt;Node6</title>
<g id="a_edge7_Node000006_Node000006"><a xlink:title=" ">
<path fill="none" stroke="#63b8ff" d="M383.65,-148.08C373.76,-156.73 380.54,-166 404,-166 419.03,-166 427.21,-162.2 428.55,-157.19"/>
<polygon fill="#63b8ff" stroke="#63b8ff" points="431.72,-155.69 424.35,-148.08 425.36,-158.63 431.72,-155.69"/>
</a>
</g>
</g>
<!-- Node8&#45;&gt;Node8 -->
<g id="edge10_Node000008_Node000008" class="edge">
<title>Node8&#45;&gt;Node8</title>
<g id="a_edge10_Node000008_Node000008"><a xlink:title=" ">
<path fill="none" stroke="#63b8ff" d="M383.65,-93.08C373.76,-101.73 380.54,-111 404,-111 419.03,-111 427.21,-107.2 428.55,-102.19"/>
<polygon fill="#63b8ff" stroke="#63b8ff" points="431.72,-100.69 424.35,-93.08 425.36,-103.63 431.72,-100.69"/>
</a>
</g>
</g>
<!-- Node11 -->
<g id="Node000011" class="node">
<title>Node11</title>
<g id="a_Node000011"><a xlink:href="ft__putnbr_8c.html#a2e51f80c9e46e52f4adf94617fb51ada" target="_top" xlink:title="Writes an integer to the standard output (stdout).">
<polygon fill="white" stroke="#666666" points="580,-19 520,-19 520,0 580,0 580,-19"/>
<text text-anchor="middle" x="550" y="-7" font-family="Helvetica,sans-Serif" font-size="10.00">ft_putnbr</text>
</a>
</g>
</g>
<!-- Node10&#45;&gt;Node11 -->
<g id="edge13_Node000010_Node000011" class="edge">
<title>Node10&#45;&gt;Node11</title>
<g id="a_edge13_Node000010_Node000011"><a xlink:title=" ">
<path fill="none" stroke="#63b8ff" d="M459.03,-9.5C475.76,-9.5 493.87,-9.5 509.43,-9.5"/>
<polygon fill="#63b8ff" stroke="#63b8ff" points="509.74,-13 519.74,-9.5 509.74,-6 509.74,-13"/>
</a>
</g>
</g>
<!-- Node11&#45;&gt;Node11 -->
<g id="edge14_Node000011_Node000011" class="edge">
<title>Node11&#45;&gt;Node11</title>
<g id="a_edge14_Node000011_Node000011"><a xlink:title=" ">
<path fill="none" stroke="#63b8ff" d="M527.5,-19.08C516.55,-27.73 524.05,-37 550,-37 566.62,-37 575.68,-33.2 577.16,-28.19"/>
<polygon fill="#63b8ff" stroke="#63b8ff" points="580.17,-26.39 572.5,-19.08 573.94,-29.58 580.17,-26.39"/>
</a>
</g>
</g>
</g>
</svg>
