<?xml version="1.0" encoding="UTF-8" standalone="no"?>
<!DOCTYPE svg PUBLIC "-//W3C//DTD SVG 1.1//EN"
 "http://www.w3.org/Graphics/SVG/1.1/DTD/svg11.dtd">
<!-- Generated by graphviz version 2.43.0 (0)
 -->
<!-- Title: tokens/tokens.h Pages: 1 -->
<svg width="1357pt" height="214pt"
 viewBox="0.00 0.00 1357.00 214.00" xmlns="http://www.w3.org/2000/svg" xmlns:xlink="http://www.w3.org/1999/xlink">
<g id="graph0" class="graph" transform="scale(1 1) rotate(0) translate(4 210)">
<title>tokens/tokens.h</title>
<!-- Node1 -->
<g id="Node000001" class="node">
<title>Node1</title>
<g id="a_Node000001"><a xlink:title=" ">
<polygon fill="#999999" stroke="#666666" points="717,-206 624,-206 624,-187 717,-187 717,-206"/>
<text text-anchor="middle" x="670.5" y="-194" font-family="Helvetica,sans-Serif" font-size="10.00">tokens/tokens.h</text>
</a>
</g>
</g>
<!-- Node2 -->
<g id="Node000002" class="node">
<title>Node2</title>
<g id="a_Node000002"><a xlink:href="command_8h.html" target="_top" xlink:title=" ">
<polygon fill="white" stroke="#666666" points="275.5,-145.5 129.5,-145.5 129.5,-126.5 275.5,-126.5 275.5,-145.5"/>
<text text-anchor="middle" x="202.5" y="-133.5" font-family="Helvetica,sans-Serif" font-size="10.00">command_list/command.h</text>
</a>
</g>
</g>
<!-- Node1&#45;&gt;Node2 -->
<g id="edge1_Node000001_Node000002" class="edge">
<title>Node1&#45;&gt;Node2</title>
<g id="a_edge1_Node000001_Node000002"><a xlink:title=" ">
<path fill="none" stroke="#63b8ff" d="M613.84,-189.39C540.18,-181.31 407.57,-166.29 294.5,-151 282.17,-149.33 268.94,-147.4 256.46,-145.52"/>
<polygon fill="#63b8ff" stroke="#63b8ff" points="613.51,-192.87 623.84,-190.48 614.28,-185.91 613.51,-192.87"/>
</a>
</g>
</g>
<!-- Node5 -->
<g id="Node000005" class="node">
<title>Node5</title>
<g id="a_Node000005"><a xlink:href="minishell_8h.html" target="_top" xlink:title=" ">
<polygon fill="white" stroke="#666666" points="363.5,-79.5 265.5,-79.5 265.5,-60.5 363.5,-60.5 363.5,-79.5"/>
<text text-anchor="middle" x="314.5" y="-67.5" font-family="Helvetica,sans-Serif" font-size="10.00">main/minishell.h</text>
</a>
</g>
</g>
<!-- Node1&#45;&gt;Node5 -->
<g id="edge8_Node000001_Node000005" class="edge">
<title>Node1&#45;&gt;Node5</title>
<g id="a_edge8_Node000001_Node000005"><a xlink:title=" ">
<path fill="none" stroke="#63b8ff" d="M613.47,-196.04C526.63,-195.59 367.14,-189.39 327.5,-151 307.99,-132.11 310.51,-96.23 312.93,-79.72"/>
<polygon fill="#63b8ff" stroke="#63b8ff" points="613.68,-199.54 623.69,-196.07 613.7,-192.54 613.68,-199.54"/>
</a>
</g>
</g>
<!-- Node9 -->
<g id="Node000009" class="node">
<title>Node9</title>
<g id="a_Node000009"><a xlink:href="assign__token__type_8c.html" target="_top" xlink:title=" ">
<polygon fill="white" stroke="#666666" points="452.5,-151 336.5,-151 336.5,-121 452.5,-121 452.5,-151"/>
<text text-anchor="start" x="344.5" y="-139" font-family="Helvetica,sans-Serif" font-size="10.00">tokens/assign_token</text>
<text text-anchor="middle" x="394.5" y="-128" font-family="Helvetica,sans-Serif" font-size="10.00">_type.c</text>
</a>
</g>
</g>
<!-- Node1&#45;&gt;Node9 -->
<g id="edge9_Node000001_Node000009" class="edge">
<title>Node1&#45;&gt;Node9</title>
<g id="a_edge9_Node000001_Node000009"><a xlink:title=" ">
<path fill="none" stroke="#63b8ff" d="M620.37,-184.87C573.16,-174.87 502.44,-159.88 452.74,-149.35"/>
<polygon fill="#63b8ff" stroke="#63b8ff" points="619.86,-188.34 630.37,-186.99 621.31,-181.5 619.86,-188.34"/>
</a>
</g>
</g>
<!-- Node10 -->
<g id="Node000010" class="node">
<title>Node10</title>
<g id="a_Node000010"><a xlink:href="check__sintax_8c.html" target="_top" xlink:title=" ">
<polygon fill="white" stroke="#666666" points="594.5,-145.5 470.5,-145.5 470.5,-126.5 594.5,-126.5 594.5,-145.5"/>
<text text-anchor="middle" x="532.5" y="-133.5" font-family="Helvetica,sans-Serif" font-size="10.00">tokens/check_sintax.c</text>
</a>
</g>
</g>
<!-- Node1&#45;&gt;Node10 -->
<g id="edge10_Node000001_Node000010" class="edge">
<title>Node1&#45;&gt;Node10</title>
<g id="a_edge10_Node000001_Node000010"><a xlink:title=" ">
<path fill="none" stroke="#63b8ff" d="M641.21,-183.08C614.55,-171.78 575.9,-155.4 552.59,-145.52"/>
<polygon fill="#63b8ff" stroke="#63b8ff" points="639.86,-186.31 650.43,-186.99 642.59,-179.87 639.86,-186.31"/>
</a>
</g>
</g>
<!-- Node11 -->
<g id="Node000011" class="node">
<title>Node11</title>
<g id="a_Node000011"><a xlink:href="check__sintax__utils_8c.html" target="_top" xlink:title=" ">
<polygon fill="white" stroke="#666666" points="728.5,-151 612.5,-151 612.5,-121 728.5,-121 728.5,-151"/>
<text text-anchor="start" x="620.5" y="-139" font-family="Helvetica,sans-Serif" font-size="10.00">tokens/check_sintax</text>
<text text-anchor="middle" x="670.5" y="-128" font-family="Helvetica,sans-Serif" font-size="10.00">_utils.c</text>
</a>
</g>
</g>
<!-- Node1&#45;&gt;Node11 -->
<g id="edge11_Node000001_Node000011" class="edge">
<title>Node1&#45;&gt;Node11</title>
<g id="a_edge11_Node000001_Node000011"><a xlink:title=" ">
<path fill="none" stroke="#63b8ff" d="M670.5,-176.65C670.5,-168.36 670.5,-158.78 670.5,-151.11"/>
<polygon fill="#63b8ff" stroke="#63b8ff" points="667,-176.87 670.5,-186.87 674,-176.87 667,-176.87"/>
</a>
</g>
</g>
<!-- Node12 -->
<g id="Node000012" class="node">
<title>Node12</title>
<g id="a_Node000012"><a xlink:href="for__merge__echo_8c.html" target="_top" xlink:title=" ">
<polygon fill="white" stroke="#666666" points="886,-145.5 747,-145.5 747,-126.5 886,-126.5 886,-145.5"/>
<text text-anchor="middle" x="816.5" y="-133.5" font-family="Helvetica,sans-Serif" font-size="10.00">tokens/for_merge_echo.c</text>
</a>
</g>
</g>
<!-- Node1&#45;&gt;Node12 -->
<g id="edge12_Node000001_Node000012" class="edge">
<title>Node1&#45;&gt;Node12</title>
<g id="a_edge12_Node000001_Node000012"><a xlink:title=" ">
<path fill="none" stroke="#63b8ff" d="M701.12,-183.23C729.34,-171.92 770.47,-155.44 795.24,-145.52"/>
<polygon fill="#63b8ff" stroke="#63b8ff" points="699.71,-180.03 691.73,-186.99 702.31,-186.52 699.71,-180.03"/>
</a>
</g>
</g>
<!-- Node13 -->
<g id="Node000013" class="node">
<title>Node13</title>
<g id="a_Node000013"><a xlink:href="for__merge__export_8c.html" target="_top" xlink:title=" ">
<polygon fill="white" stroke="#666666" points="1051,-145.5 904,-145.5 904,-126.5 1051,-126.5 1051,-145.5"/>
<text text-anchor="middle" x="977.5" y="-133.5" font-family="Helvetica,sans-Serif" font-size="10.00">tokens/for_merge_export.c</text>
</a>
</g>
</g>
<!-- Node1&#45;&gt;Node13 -->
<g id="edge13_Node000001_Node000013" class="edge">
<title>Node1&#45;&gt;Node13</title>
<g id="a_edge13_Node000001_Node000013"><a xlink:title=" ">
<path fill="none" stroke="#63b8ff" d="M725.06,-185.1C784.29,-173.82 877.76,-156.01 932.81,-145.52"/>
<polygon fill="#63b8ff" stroke="#63b8ff" points="724.31,-181.68 715.14,-186.99 725.62,-188.56 724.31,-181.68"/>
</a>
</g>
</g>
<!-- Node14 -->
<g id="Node000014" class="node">
<title>Node14</title>
<g id="a_Node000014"><a xlink:href="handle__tokens_8c.html" target="_top" xlink:title=" ">
<polygon fill="white" stroke="#666666" points="1200,-145.5 1069,-145.5 1069,-126.5 1200,-126.5 1200,-145.5"/>
<text text-anchor="middle" x="1134.5" y="-133.5" font-family="Helvetica,sans-Serif" font-size="10.00">tokens/handle_tokens.c</text>
</a>
</g>
</g>
<!-- Node1&#45;&gt;Node14 -->
<g id="edge14_Node000001_Node000014" class="edge">
<title>Node1&#45;&gt;Node14</title>
<g id="a_edge14_Node000001_Node000014"><a xlink:title=" ">
<path fill="none" stroke="#63b8ff" d="M727.49,-190.32C803.61,-183.1 942.57,-168.86 1060.5,-151 1070.84,-149.43 1081.95,-147.48 1092.33,-145.53"/>
<polygon fill="#63b8ff" stroke="#63b8ff" points="726.8,-186.87 717.17,-191.29 727.46,-193.84 726.8,-186.87"/>
</a>
</g>
</g>
<!-- Node15 -->
<g id="Node000015" class="node">
<title>Node15</title>
<g id="a_Node000015"><a xlink:href="tokenize__input_8c.html" target="_top" xlink:title=" ">
<polygon fill="white" stroke="#666666" points="1349,-145.5 1218,-145.5 1218,-126.5 1349,-126.5 1349,-145.5"/>
<text text-anchor="middle" x="1283.5" y="-133.5" font-family="Helvetica,sans-Serif" font-size="10.00">tokens/tokenize_input.c</text>
</a>
</g>
</g>
<!-- Node1&#45;&gt;Node15 -->
<g id="edge15_Node000001_Node000015" class="edge">
<title>Node1&#45;&gt;Node15</title>
<g id="a_edge15_Node000001_Node000015"><a xlink:title=" ">
<path fill="none" stroke="#63b8ff" d="M727.21,-192.77C825.68,-187.6 1034.49,-174.71 1209.5,-151 1220.25,-149.54 1231.81,-147.56 1242.53,-145.54"/>
<polygon fill="#63b8ff" stroke="#63b8ff" points="726.99,-189.28 717.18,-193.29 727.35,-196.27 726.99,-189.28"/>
</a>
</g>
</g>
<!-- Node3 -->
<g id="Node000003" class="node">
<title>Node3</title>
<g id="a_Node000003"><a xlink:href="create__command__list_8c.html" target="_top" xlink:title=" ">
<polygon fill="white" stroke="#666666" points="119,-85 0,-85 0,-55 119,-55 119,-85"/>
<text text-anchor="start" x="8" y="-73" font-family="Helvetica,sans-Serif" font-size="10.00">command_list/create</text>
<text text-anchor="middle" x="59.5" y="-62" font-family="Helvetica,sans-Serif" font-size="10.00">_command_list.c</text>
</a>
</g>
</g>
<!-- Node2&#45;&gt;Node3 -->
<g id="edge2_Node000002_Node000003" class="edge">
<title>Node2&#45;&gt;Node3</title>
<g id="a_edge2_Node000002_Node000003"><a xlink:title=" ">
<path fill="none" stroke="#63b8ff" d="M173.94,-122.22C149.98,-111.5 115.8,-96.2 91.04,-85.12"/>
<polygon fill="#63b8ff" stroke="#63b8ff" points="172.66,-125.48 183.21,-126.37 175.52,-119.09 172.66,-125.48"/>
</a>
</g>
</g>
<!-- Node4 -->
<g id="Node000004" class="node">
<title>Node4</title>
<g id="a_Node000004"><a xlink:href="utils__cmd__list_8c.html" target="_top" xlink:title=" ">
<polygon fill="white" stroke="#666666" points="247.5,-85 137.5,-85 137.5,-55 247.5,-55 247.5,-85"/>
<text text-anchor="start" x="145.5" y="-73" font-family="Helvetica,sans-Serif" font-size="10.00">command_list/utils</text>
<text text-anchor="middle" x="192.5" y="-62" font-family="Helvetica,sans-Serif" font-size="10.00">_cmd_list.c</text>
</a>
</g>
</g>
<!-- Node2&#45;&gt;Node4 -->
<g id="edge3_Node000002_Node000004" class="edge">
<title>Node2&#45;&gt;Node4</title>
<g id="a_edge3_Node000002_Node000004"><a xlink:title=" ">
<path fill="none" stroke="#63b8ff" d="M199.59,-116.35C198.04,-106.47 196.17,-94.51 194.74,-85.36"/>
<polygon fill="#63b8ff" stroke="#63b8ff" points="196.15,-117.03 201.15,-126.37 203.07,-115.95 196.15,-117.03"/>
</a>
</g>
</g>
<!-- Node2&#45;&gt;Node5 -->
<g id="edge4_Node000002_Node000005" class="edge">
<title>Node2&#45;&gt;Node5</title>
<g id="a_edge4_Node000002_Node000005"><a xlink:title=" ">
<path fill="none" stroke="#63b8ff" d="M226.37,-121.36C248.42,-108.76 280.52,-90.42 299.28,-79.7"/>
<polygon fill="#63b8ff" stroke="#63b8ff" points="224.55,-118.37 217.6,-126.37 228.02,-124.45 224.55,-118.37"/>
</a>
</g>
</g>
<!-- Node6 -->
<g id="Node000006" class="node">
<title>Node6</title>
<g id="a_Node000006"><a xlink:href="cmd__execution_8c.html" target="_top" xlink:title=" ">
<polygon fill="white" stroke="#666666" points="257.5,-19 131.5,-19 131.5,0 257.5,0 257.5,-19"/>
<text text-anchor="middle" x="194.5" y="-7" font-family="Helvetica,sans-Serif" font-size="10.00">main/cmd_execution.c</text>
</a>
</g>
</g>
<!-- Node5&#45;&gt;Node6 -->
<g id="edge5_Node000005_Node000006" class="edge">
<title>Node5&#45;&gt;Node6</title>
<g id="a_edge5_Node000005_Node000006"><a xlink:title=" ">
<path fill="none" stroke="#63b8ff" d="M287.8,-55.98C264.67,-44.71 231.89,-28.73 211.97,-19.02"/>
<polygon fill="#63b8ff" stroke="#63b8ff" points="286.53,-59.26 297.05,-60.49 289.6,-52.97 286.53,-59.26"/>
</a>
</g>
</g>
<!-- Node7 -->
<g id="Node000007" class="node">
<title>Node7</title>
<g id="a_Node000007"><a xlink:href="main_8c.html" target="_top" xlink:title=" ">
<polygon fill="white" stroke="#666666" points="353,-19 276,-19 276,0 353,0 353,-19"/>
<text text-anchor="middle" x="314.5" y="-7" font-family="Helvetica,sans-Serif" font-size="10.00">main/main.c</text>
</a>
</g>
</g>
<!-- Node5&#45;&gt;Node7 -->
<g id="edge6_Node000005_Node000007" class="edge">
<title>Node5&#45;&gt;Node7</title>
<g id="a_edge6_Node000005_Node000007"><a xlink:title=" ">
<path fill="none" stroke="#63b8ff" d="M314.5,-50.16C314.5,-39.74 314.5,-27.3 314.5,-19.17"/>
<polygon fill="#63b8ff" stroke="#63b8ff" points="311,-50.37 314.5,-60.37 318,-50.37 311,-50.37"/>
</a>
</g>
</g>
<!-- Node8 -->
<g id="Node000008" class="node">
<title>Node8</title>
<g id="a_Node000008"><a xlink:href="main__utils_8c.html" target="_top" xlink:title=" ">
<polygon fill="white" stroke="#666666" points="475.5,-19 371.5,-19 371.5,0 475.5,0 475.5,-19"/>
<text text-anchor="middle" x="423.5" y="-7" font-family="Helvetica,sans-Serif" font-size="10.00">main/main_utils.c</text>
</a>
</g>
</g>
<!-- Node5&#45;&gt;Node8 -->
<g id="edge7_Node000005_Node000008" class="edge">
<title>Node5&#45;&gt;Node8</title>
<g id="a_edge7_Node000005_Node000008"><a xlink:title=" ">
<path fill="none" stroke="#63b8ff" d="M339.51,-55.58C360.36,-44.38 389.45,-28.77 407.35,-19.17"/>
<polygon fill="#63b8ff" stroke="#63b8ff" points="337.74,-52.56 330.58,-60.37 341.05,-58.72 337.74,-52.56"/>
</a>
</g>
</g>
</g>
</svg>
