<?xml version="1.0" encoding="UTF-8" standalone="no"?>
<!DOCTYPE svg PUBLIC "-//W3C//DTD SVG 1.1//EN"
 "http://www.w3.org/Graphics/SVG/1.1/DTD/svg11.dtd">
<!-- Generated by graphviz version 2.43.0 (0)
 -->
<!-- Title: ft_define_tokens Pages: 1 -->
<svg width="847pt" height="362pt"
 viewBox="0.00 0.00 847.00 362.00" xmlns="http://www.w3.org/2000/svg" xmlns:xlink="http://www.w3.org/1999/xlink">
<g id="graph0" class="graph" transform="scale(1 1) rotate(0) translate(4 358)">
<title>ft_define_tokens</title>
<!-- Node1 -->
<g id="Node000001" class="node">
<title>Node1</title>
<g id="a_Node000001"><a xlink:title="Assigns types to tokens and applies command&#45;specific rules.">
<polygon fill="#999999" stroke="#666666" points="96,-150 0,-150 0,-131 96,-131 96,-150"/>
<text text-anchor="middle" x="48" y="-138" font-family="Helvetica,sans-Serif" font-size="10.00">ft_define_tokens</text>
</a>
</g>
</g>
<!-- Node2 -->
<g id="Node000002" class="node">
<title>Node2</title>
<g id="a_Node000002"><a xlink:href="assign__token__type_8c.html#a51e5006d1819ae97939773490b75ffaa" target="_top" xlink:title="Assigns correct types to the tokens in the list (COMMAND, ARGUMENT, FILE_, DELIMITER,...">
<polygon fill="white" stroke="#666666" points="255.5,-317 142.5,-317 142.5,-298 255.5,-298 255.5,-317"/>
<text text-anchor="middle" x="199" y="-305" font-family="Helvetica,sans-Serif" font-size="10.00">assign_token_types</text>
</a>
</g>
</g>
<!-- Node1&#45;&gt;Node2 -->
<g id="edge1_Node000001_Node000002" class="edge">
<title>Node1&#45;&gt;Node2</title>
<g id="a_edge1_Node000001_Node000002"><a xlink:title=" ">
<path fill="none" stroke="#63b8ff" d="M57.87,-150.45C82.47,-178.01 151.71,-255.62 182.69,-290.34"/>
<polygon fill="#63b8ff" stroke="#63b8ff" points="180.09,-292.68 189.36,-297.81 185.31,-288.02 180.09,-292.68"/>
</a>
</g>
</g>
<!-- Node8 -->
<g id="Node000008" class="node">
<title>Node8</title>
<g id="a_Node000008"><a xlink:href="for__merge__echo_8c.html#a5326da08ceca8e15b2ceca38c9930e08" target="_top" xlink:title="Handles merging multiple &#45;n, &#45;nn, etc. tokens for the echo command.">
<polygon fill="white" stroke="#666666" points="262,-169 136,-169 136,-150 262,-150 262,-169"/>
<text text-anchor="middle" x="199" y="-157" font-family="Helvetica,sans-Serif" font-size="10.00">ft_merge_tokens_echo</text>
</a>
</g>
</g>
<!-- Node1&#45;&gt;Node8 -->
<g id="edge8_Node000001_Node000008" class="edge">
<title>Node1&#45;&gt;Node8</title>
<g id="a_edge8_Node000001_Node000008"><a xlink:title=" ">
<path fill="none" stroke="#63b8ff" d="M96.14,-146.51C105.61,-147.72 115.76,-149.01 125.85,-150.3"/>
<polygon fill="#63b8ff" stroke="#63b8ff" points="125.53,-153.79 135.89,-151.58 126.41,-146.84 125.53,-153.79"/>
</a>
</g>
</g>
<!-- Node19 -->
<g id="Node000019" class="node">
<title>Node19</title>
<g id="a_Node000019"><a xlink:href="for__merge__export_8c.html#a94cce59efbc71ee79944cf7e061d8104" target="_top" xlink:title="Checks if the current command is export and, if so, merges the following ARGUMENT tokens.">
<polygon fill="white" stroke="#666666" points="266,-132 132,-132 132,-113 266,-113 266,-132"/>
<text text-anchor="middle" x="199" y="-120" font-family="Helvetica,sans-Serif" font-size="10.00">ft_merge_tokens_export</text>
</a>
</g>
</g>
<!-- Node1&#45;&gt;Node19 -->
<g id="edge20_Node000001_Node000019" class="edge">
<title>Node1&#45;&gt;Node19</title>
<g id="a_edge20_Node000001_Node000019"><a xlink:title=" ">
<path fill="none" stroke="#63b8ff" d="M96.14,-134.8C104.29,-133.82 112.95,-132.77 121.64,-131.72"/>
<polygon fill="#63b8ff" stroke="#63b8ff" points="122.32,-135.17 131.83,-130.49 121.49,-128.22 122.32,-135.17"/>
</a>
</g>
</g>
<!-- Node23 -->
<g id="Node000023" class="node">
<title>Node23</title>
<g id="a_Node000023"><a xlink:href="assign__token__type_8c.html#a4e34d5621dc56a530a077b6fd2770a66" target="_top" xlink:title="Marks and manages SPACES tokens in relation to ARGUMENT, COMMAND, QUOTE, ENV_VAR, and PIPE tokens.">
<polygon fill="white" stroke="#666666" points="252.5,-76 145.5,-76 145.5,-57 252.5,-57 252.5,-76"/>
<text text-anchor="middle" x="199" y="-64" font-family="Helvetica,sans-Serif" font-size="10.00">mark_sign_spaces</text>
</a>
</g>
</g>
<!-- Node1&#45;&gt;Node23 -->
<g id="edge27_Node000001_Node000023" class="edge">
<title>Node1&#45;&gt;Node23</title>
<g id="a_edge27_Node000001_Node000023"><a xlink:title=" ">
<path fill="none" stroke="#63b8ff" d="M68.17,-130.98C93.85,-118.23 139.61,-95.5 169.37,-80.72"/>
<polygon fill="#63b8ff" stroke="#63b8ff" points="171.03,-83.8 178.43,-76.22 167.91,-77.53 171.03,-83.8"/>
</a>
</g>
</g>
<!-- Node3 -->
<g id="Node000003" class="node">
<title>Node3</title>
<g id="a_Node000003"><a xlink:href="assign__token__type_8c.html#a49da08d963b46b3158a79a9fc120a759" target="_top" xlink:title="Assigns COMMAND or ARGUMENT type to a token.">
<polygon fill="white" stroke="#666666" points="405.5,-354 331.5,-354 331.5,-335 405.5,-335 405.5,-354"/>
<text text-anchor="middle" x="368.5" y="-342" font-family="Helvetica,sans-Serif" font-size="10.00">assign_cmd</text>
</a>
</g>
</g>
<!-- Node2&#45;&gt;Node3 -->
<g id="edge2_Node000002_Node000003" class="edge">
<title>Node2&#45;&gt;Node3</title>
<g id="a_edge2_Node000002_Node000003"><a xlink:title=" ">
<path fill="none" stroke="#63b8ff" d="M243.14,-317.03C267.16,-322.34 297.07,-328.94 321.53,-334.35"/>
<polygon fill="#63b8ff" stroke="#63b8ff" points="320.79,-337.77 331.31,-336.51 322.3,-330.93 320.79,-337.77"/>
</a>
</g>
</g>
<!-- Node4 -->
<g id="Node000004" class="node">
<title>Node4</title>
<g id="a_Node000004"><a xlink:href="assign__token__type_8c.html#a3a4c4ac34c8fb944f7cdc8889dd7d356" target="_top" xlink:title="Handles the type assignment for PIPE tokens.">
<polygon fill="white" stroke="#666666" points="405.5,-317 331.5,-317 331.5,-298 405.5,-298 405.5,-317"/>
<text text-anchor="middle" x="368.5" y="-305" font-family="Helvetica,sans-Serif" font-size="10.00">assign_pipe</text>
</a>
</g>
</g>
<!-- Node2&#45;&gt;Node4 -->
<g id="edge3_Node000002_Node000004" class="edge">
<title>Node2&#45;&gt;Node4</title>
<g id="a_edge3_Node000002_Node000004"><a xlink:title=" ">
<path fill="none" stroke="#63b8ff" d="M255.78,-301.1C277.01,-300.55 300.95,-300.65 321.21,-301.39"/>
<polygon fill="#63b8ff" stroke="#63b8ff" points="321.29,-304.9 331.44,-301.84 321.6,-297.9 321.29,-304.9"/>
</a>
</g>
</g>
<!-- Node5 -->
<g id="Node000005" class="node">
<title>Node5</title>
<g id="a_Node000005"><a xlink:href="assign__token__type_8c.html#afe8f8f4301ccbcd33344e893f665c442" target="_top" xlink:title="Correctly assigns types to tokens related to redirections and here&#45;documents.">
<polygon fill="white" stroke="#666666" points="406.5,-280 330.5,-280 330.5,-261 406.5,-261 406.5,-280"/>
<text text-anchor="middle" x="368.5" y="-268" font-family="Helvetica,sans-Serif" font-size="10.00">assign_redir</text>
</a>
</g>
</g>
<!-- Node2&#45;&gt;Node5 -->
<g id="edge5_Node000002_Node000005" class="edge">
<title>Node2&#45;&gt;Node5</title>
<g id="a_edge5_Node000002_Node000005"><a xlink:title=" ">
<path fill="none" stroke="#63b8ff" d="M243.14,-297.97C266.8,-292.74 296.17,-286.26 320.43,-280.9"/>
<polygon fill="#63b8ff" stroke="#63b8ff" points="321.47,-284.25 330.48,-278.68 319.96,-277.42 321.47,-284.25"/>
</a>
</g>
</g>
<!-- Node4&#45;&gt;Node2 -->
<g id="edge4_Node000004_Node000002" class="edge">
<title>Node4&#45;&gt;Node2</title>
<g id="a_edge4_Node000004_Node000002"><a xlink:title=" ">
<path fill="none" stroke="#63b8ff" d="M331.44,-313.16C312.31,-314.15 288.21,-314.46 265.88,-314.11"/>
<polygon fill="#63b8ff" stroke="#63b8ff" points="265.85,-310.61 255.78,-313.9 265.7,-317.61 265.85,-310.61"/>
</a>
</g>
</g>
<!-- Node6 -->
<g id="Node000006" class="node">
<title>Node6</title>
<g id="a_Node000006"><a xlink:href="utils__token__pt2_8c.html#a80ff8a93c96a15856a12c406efa61cf7" target="_top" xlink:title="Checks if the token represents a redirection.">
<polygon fill="white" stroke="#666666" points="552,-280 499,-280 499,-261 552,-261 552,-280"/>
<text text-anchor="middle" x="525.5" y="-268" font-family="Helvetica,sans-Serif" font-size="10.00">is_redir</text>
</a>
</g>
</g>
<!-- Node5&#45;&gt;Node6 -->
<g id="edge6_Node000005_Node000006" class="edge">
<title>Node5&#45;&gt;Node6</title>
<g id="a_edge6_Node000005_Node000006"><a xlink:title=" ">
<path fill="none" stroke="#63b8ff" d="M406.63,-270.5C431.55,-270.5 464.19,-270.5 488.81,-270.5"/>
<polygon fill="#63b8ff" stroke="#63b8ff" points="488.82,-274 498.82,-270.5 488.82,-267 488.82,-274"/>
</a>
</g>
</g>
<!-- Node7 -->
<g id="Node000007" class="node">
<title>Node7</title>
<g id="a_Node000007"><a xlink:href="utils__token__pt2_8c.html#a10926033b2c368f9697d5725d8416844" target="_top" xlink:title="Checks if the token represents whitespace or invalid characters (garbage).">
<polygon fill="white" stroke="#666666" points="555,-317 496,-317 496,-298 555,-298 555,-317"/>
<text text-anchor="middle" x="525.5" y="-305" font-family="Helvetica,sans-Serif" font-size="10.00">is_space</text>
</a>
</g>
</g>
<!-- Node5&#45;&gt;Node7 -->
<g id="edge7_Node000005_Node000007" class="edge">
<title>Node5&#45;&gt;Node7</title>
<g id="a_edge7_Node000005_Node000007"><a xlink:title=" ">
<path fill="none" stroke="#63b8ff" d="M406.63,-279.36C430.61,-285.09 461.74,-292.52 485.99,-298.31"/>
<polygon fill="#63b8ff" stroke="#63b8ff" points="485.38,-301.76 495.92,-300.68 487.01,-294.95 485.38,-301.76"/>
</a>
</g>
</g>
<!-- Node9 -->
<g id="Node000009" class="node">
<title>Node9</title>
<g id="a_Node000009"><a xlink:href="for__merge__echo_8c.html#a93ec1dc7360b83d8ce076dc54bd68e6a" target="_top" xlink:title="Checks if a token represents a valid &#45;n option for the echo command.">
<polygon fill="white" stroke="#666666" points="420.5,-206 316.5,-206 316.5,-187 420.5,-187 420.5,-206"/>
<text text-anchor="middle" x="368.5" y="-194" font-family="Helvetica,sans-Serif" font-size="10.00">ft_check_n_option</text>
</a>
</g>
</g>
<!-- Node8&#45;&gt;Node9 -->
<g id="edge9_Node000008_Node000009" class="edge">
<title>Node8&#45;&gt;Node9</title>
<g id="a_edge9_Node000008_Node000009"><a xlink:title=" ">
<path fill="none" stroke="#63b8ff" d="M243.14,-169.03C264.84,-173.82 291.34,-179.68 314.29,-184.75"/>
<polygon fill="#63b8ff" stroke="#63b8ff" points="313.7,-188.2 324.22,-186.94 315.21,-181.36 313.7,-188.2"/>
</a>
</g>
</g>
<!-- Node12 -->
<g id="Node000012" class="node">
<title>Node12</title>
<g id="a_Node000012"><a xlink:href="for__merge__echo_8c.html#a9a9e603a3cf06f996da02d8b076da2c7" target="_top" xlink:title="Finds and merges all consecutive tokens like &#45;n, &#45;nn, etc. after the initial valid &#45;n token.">
<polygon fill="white" stroke="#666666" points="435,-169 302,-169 302,-150 435,-150 435,-169"/>
<text text-anchor="middle" x="368.5" y="-157" font-family="Helvetica,sans-Serif" font-size="10.00">ft_merge_subsequent_n</text>
</a>
</g>
</g>
<!-- Node8&#45;&gt;Node12 -->
<g id="edge12_Node000008_Node000012" class="edge">
<title>Node8&#45;&gt;Node12</title>
<g id="a_edge12_Node000008_Node000012"><a xlink:title=" ">
<path fill="none" stroke="#63b8ff" d="M262.37,-159.5C271.97,-159.5 281.96,-159.5 291.81,-159.5"/>
<polygon fill="#63b8ff" stroke="#63b8ff" points="291.99,-163 301.99,-159.5 291.99,-156 291.99,-163"/>
</a>
</g>
</g>
<!-- Node18 -->
<g id="Node000018" class="node">
<title>Node18</title>
<g id="a_Node000018"><a xlink:href="ft__strcmp_8c.html#a1f2ff2312e5994560c9537cd9173be94" target="_top" xlink:title="Compares two null&#45;terminated strings lexicographically.">
<polygon fill="white" stroke="#666666" points="399.5,-132 337.5,-132 337.5,-113 399.5,-113 399.5,-132"/>
<text text-anchor="middle" x="368.5" y="-120" font-family="Helvetica,sans-Serif" font-size="10.00">ft_strcmp</text>
</a>
</g>
</g>
<!-- Node8&#45;&gt;Node18 -->
<g id="edge19_Node000008_Node000018" class="edge">
<title>Node8&#45;&gt;Node18</title>
<g id="a_edge19_Node000008_Node000018"><a xlink:title=" ">
<path fill="none" stroke="#63b8ff" d="M243.14,-149.97C269.12,-144.23 301.99,-136.97 327.41,-131.36"/>
<polygon fill="#63b8ff" stroke="#63b8ff" points="328.44,-134.71 337.45,-129.14 326.93,-127.88 328.44,-134.71"/>
</a>
</g>
</g>
<!-- Node10 -->
<g id="Node000010" class="node">
<title>Node10</title>
<g id="a_Node000010"><a xlink:href="for__merge__echo_8c.html#a474f909992d6b44cb96736e899e0b1c4" target="_top" xlink:title="Checks if a string consists only of &#39;n&#39; characters.">
<polygon fill="white" stroke="#666666" points="562.5,-206 488.5,-206 488.5,-187 562.5,-187 562.5,-206"/>
<text text-anchor="middle" x="525.5" y="-194" font-family="Helvetica,sans-Serif" font-size="10.00">ft_is_only_n</text>
</a>
</g>
</g>
<!-- Node9&#45;&gt;Node10 -->
<g id="edge10_Node000009_Node000010" class="edge">
<title>Node9&#45;&gt;Node10</title>
<g id="a_edge10_Node000009_Node000010"><a xlink:title=" ">
<path fill="none" stroke="#63b8ff" d="M420.68,-196.5C439.2,-196.5 459.98,-196.5 478.07,-196.5"/>
<polygon fill="#63b8ff" stroke="#63b8ff" points="478.08,-200 488.08,-196.5 478.08,-193 478.08,-200"/>
</a>
</g>
</g>
<!-- Node11 -->
<g id="Node000011" class="node">
<title>Node11</title>
<g id="a_Node000011"><a xlink:href="ft__strncmp_8c.html#a9d2fe792187aa4ed08e5864fb2c4d6dc" target="_top" xlink:title="Compares up to n characters of two strings.">
<polygon fill="white" stroke="#666666" points="559.5,-243 491.5,-243 491.5,-224 559.5,-224 559.5,-243"/>
<text text-anchor="middle" x="525.5" y="-231" font-family="Helvetica,sans-Serif" font-size="10.00">ft_strncmp</text>
</a>
</g>
</g>
<!-- Node9&#45;&gt;Node11 -->
<g id="edge11_Node000009_Node000011" class="edge">
<title>Node9&#45;&gt;Node11</title>
<g id="a_edge11_Node000009_Node000011"><a xlink:title=" ">
<path fill="none" stroke="#63b8ff" d="M409.42,-206.03C431.43,-211.28 458.78,-217.81 481.29,-223.19"/>
<polygon fill="#63b8ff" stroke="#63b8ff" points="480.72,-226.65 491.26,-225.57 482.35,-219.84 480.72,-226.65"/>
</a>
</g>
</g>
<!-- Node12&#45;&gt;Node10 -->
<g id="edge13_Node000012_Node000010" class="edge">
<title>Node12&#45;&gt;Node10</title>
<g id="a_edge13_Node000012_Node000010"><a xlink:title=" ">
<path fill="none" stroke="#63b8ff" d="M409.42,-169.03C430.57,-174.08 456.66,-180.31 478.65,-185.55"/>
<polygon fill="#63b8ff" stroke="#63b8ff" points="477.89,-188.97 488.43,-187.89 479.51,-182.16 477.89,-188.97"/>
</a>
</g>
</g>
<!-- Node13 -->
<g id="Node000013" class="node">
<title>Node13</title>
<g id="a_Node000013"><a xlink:href="for__merge__echo_8c.html#a1e7a6d749fc26b1a0848360c666ea945" target="_top" xlink:title="Merges two tokens by concatenating their values.">
<polygon fill="white" stroke="#666666" points="580,-169 471,-169 471,-150 580,-150 580,-169"/>
<text text-anchor="middle" x="525.5" y="-157" font-family="Helvetica,sans-Serif" font-size="10.00">ft_merge_n_tokens</text>
</a>
</g>
</g>
<!-- Node12&#45;&gt;Node13 -->
<g id="edge14_Node000012_Node000013" class="edge">
<title>Node12&#45;&gt;Node13</title>
<g id="a_edge14_Node000012_Node000013"><a xlink:title=" ">
<path fill="none" stroke="#63b8ff" d="M435.23,-159.5C443.68,-159.5 452.32,-159.5 460.73,-159.5"/>
<polygon fill="#63b8ff" stroke="#63b8ff" points="460.86,-163 470.86,-159.5 460.86,-156 460.86,-163"/>
</a>
</g>
</g>
<!-- Node14 -->
<g id="Node000014" class="node">
<title>Node14</title>
<g id="a_Node000014"><a xlink:href="ft__strjoin_8c.html#a91e6e3e428bcc9f2291b700e1829b82b" target="_top" xlink:title="Concatenates two strings into a newly allocated string.">
<polygon fill="white" stroke="#666666" points="703.5,-150 644.5,-150 644.5,-131 703.5,-131 703.5,-150"/>
<text text-anchor="middle" x="674" y="-138" font-family="Helvetica,sans-Serif" font-size="10.00">ft_strjoin</text>
</a>
</g>
</g>
<!-- Node13&#45;&gt;Node14 -->
<g id="edge15_Node000013_Node000014" class="edge">
<title>Node13&#45;&gt;Node14</title>
<g id="a_edge15_Node000013_Node000014"><a xlink:title=" ">
<path fill="none" stroke="#63b8ff" d="M580.22,-152.53C598.04,-150.22 617.52,-147.7 634.01,-145.56"/>
<polygon fill="#63b8ff" stroke="#63b8ff" points="634.9,-148.97 644.37,-144.21 634,-142.03 634.9,-148.97"/>
</a>
</g>
</g>
<!-- Node17 -->
<g id="Node000017" class="node">
<title>Node17</title>
<g id="a_Node000017"><a xlink:href="utils__token_8c.html#af9e2ea59c99233265f752bf7fb34a4a5" target="_top" xlink:title="Removes a specific token node from the linked list.">
<polygon fill="white" stroke="#666666" points="732,-113 616,-113 616,-94 732,-94 732,-113"/>
<text text-anchor="middle" x="674" y="-101" font-family="Helvetica,sans-Serif" font-size="10.00">remove_token_node</text>
</a>
</g>
</g>
<!-- Node13&#45;&gt;Node17 -->
<g id="edge18_Node000013_Node000017" class="edge">
<title>Node13&#45;&gt;Node17</title>
<g id="a_edge18_Node000013_Node000017"><a xlink:title=" ">
<path fill="none" stroke="#63b8ff" d="M557.66,-149.96C565.07,-147.43 572.88,-144.55 580,-141.5 596.63,-134.37 599.36,-129.61 616,-122.5 621.04,-120.35 626.4,-118.28 631.76,-116.35"/>
<polygon fill="#63b8ff" stroke="#63b8ff" points="632.99,-119.63 641.3,-113.04 630.7,-113.01 632.99,-119.63"/>
</a>
</g>
</g>
<!-- Node15 -->
<g id="Node000015" class="node">
<title>Node15</title>
<g id="a_Node000015"><a xlink:href="ft__memcpy_8c.html#a41a6f05af30cf85ff63a08e383826322" target="_top" xlink:title="Copies &#39;n&#39; bytes from memory area &#39;src&#39; to memory area &#39;dest&#39;.">
<polygon fill="white" stroke="#666666" points="839,-168 768,-168 768,-149 839,-149 839,-168"/>
<text text-anchor="middle" x="803.5" y="-156" font-family="Helvetica,sans-Serif" font-size="10.00">ft_memcpy</text>
</a>
</g>
</g>
<!-- Node14&#45;&gt;Node15 -->
<g id="edge16_Node000014_Node000015" class="edge">
<title>Node14&#45;&gt;Node15</title>
<g id="a_edge16_Node000014_Node000015"><a xlink:title=" ">
<path fill="none" stroke="#63b8ff" d="M703.61,-144.54C719.52,-146.79 739.68,-149.63 757.63,-152.17"/>
<polygon fill="#63b8ff" stroke="#63b8ff" points="757.23,-155.64 767.62,-153.58 758.21,-148.71 757.23,-155.64"/>
</a>
</g>
</g>
<!-- Node16 -->
<g id="Node000016" class="node">
<title>Node16</title>
<g id="a_Node000016"><a xlink:href="ft__strlen_8c.html#a828402378653640f545a4be2e00e92f9" target="_top" xlink:title="Calculates the length of a null&#45;terminated string.">
<polygon fill="white" stroke="#666666" points="831.5,-131 775.5,-131 775.5,-112 831.5,-112 831.5,-131"/>
<text text-anchor="middle" x="803.5" y="-119" font-family="Helvetica,sans-Serif" font-size="10.00">ft_strlen</text>
</a>
</g>
</g>
<!-- Node14&#45;&gt;Node16 -->
<g id="edge17_Node000014_Node000016" class="edge">
<title>Node14&#45;&gt;Node16</title>
<g id="a_edge17_Node000014_Node000016"><a xlink:title=" ">
<path fill="none" stroke="#63b8ff" d="M703.61,-136.24C721.79,-133.53 745.5,-129.99 765.15,-127.07"/>
<polygon fill="#63b8ff" stroke="#63b8ff" points="765.92,-130.49 775.29,-125.55 764.89,-123.57 765.92,-130.49"/>
</a>
</g>
</g>
<!-- Node19&#45;&gt;Node18 -->
<g id="edge26_Node000019_Node000018" class="edge">
<title>Node19&#45;&gt;Node18</title>
<g id="a_edge26_Node000019_Node000018"><a xlink:title=" ">
<path fill="none" stroke="#63b8ff" d="M266.2,-122.5C286.69,-122.5 308.64,-122.5 326.85,-122.5"/>
<polygon fill="#63b8ff" stroke="#63b8ff" points="327.11,-126 337.11,-122.5 327.11,-119 327.11,-126"/>
</a>
</g>
</g>
<!-- Node20 -->
<g id="Node000020" class="node">
<title>Node20</title>
<g id="a_Node000020"><a xlink:href="for__merge__export_8c.html#ae1468c1b7b66228b739b08940a389e42" target="_top" xlink:title="Merges consecutive ARGUMENT tokens into a single token, used for the export command.">
<polygon fill="white" stroke="#666666" points="431.5,-94 305.5,-94 305.5,-75 431.5,-75 431.5,-94"/>
<text text-anchor="middle" x="368.5" y="-82" font-family="Helvetica,sans-Serif" font-size="10.00">ft_merge_word_export</text>
</a>
</g>
</g>
<!-- Node19&#45;&gt;Node20 -->
<g id="edge21_Node000019_Node000020" class="edge">
<title>Node19&#45;&gt;Node20</title>
<g id="a_edge21_Node000019_Node000020"><a xlink:title=" ">
<path fill="none" stroke="#63b8ff" d="M242.27,-112.91C264.57,-107.85 292.12,-101.6 315.7,-96.25"/>
<polygon fill="#63b8ff" stroke="#63b8ff" points="316.56,-99.65 325.54,-94.02 315.01,-92.82 316.56,-99.65"/>
</a>
</g>
</g>
<!-- Node20&#45;&gt;Node17 -->
<g id="edge25_Node000020_Node000017" class="edge">
<title>Node20&#45;&gt;Node17</title>
<g id="a_edge25_Node000020_Node000017"><a xlink:title=" ">
<path fill="none" stroke="#63b8ff" d="M431.65,-88.39C482.3,-91.56 553.68,-96.03 605.68,-99.29"/>
<polygon fill="#63b8ff" stroke="#63b8ff" points="605.61,-102.79 615.81,-99.92 606.04,-95.8 605.61,-102.79"/>
</a>
</g>
</g>
<!-- Node21 -->
<g id="Node000021" class="node">
<title>Node21</title>
<g id="a_Node000021"><a xlink:href="for__merge__export_8c.html#a8badee2557e8867921cbb0dc2873317b" target="_top" xlink:title="Merges the current token&#39;s value with the next token&#39;s value.">
<polygon fill="white" stroke="#666666" points="557.5,-132 493.5,-132 493.5,-113 557.5,-113 557.5,-132"/>
<text text-anchor="middle" x="525.5" y="-120" font-family="Helvetica,sans-Serif" font-size="10.00">ft_merger</text>
</a>
</g>
</g>
<!-- Node20&#45;&gt;Node21 -->
<g id="edge22_Node000020_Node000021" class="edge">
<title>Node20&#45;&gt;Node21</title>
<g id="a_edge22_Node000020_Node000021"><a xlink:title=" ">
<path fill="none" stroke="#63b8ff" d="M408.61,-94.09C431.42,-99.68 460.17,-106.73 483.33,-112.41"/>
<polygon fill="#63b8ff" stroke="#63b8ff" points="482.66,-115.85 493.2,-114.83 484.32,-109.05 482.66,-115.85"/>
</a>
</g>
</g>
<!-- Node22 -->
<g id="Node000022" class="node">
<title>Node22</title>
<g id="a_Node000022"><a xlink:href="ft__strdup_8c.html#aebe73f27c70c56ac5053f860ef5436c9" target="_top" xlink:title="Duplicates a null&#45;terminated string by allocating memory.">
<polygon fill="white" stroke="#666666" points="555,-56 496,-56 496,-37 555,-37 555,-56"/>
<text text-anchor="middle" x="525.5" y="-44" font-family="Helvetica,sans-Serif" font-size="10.00">ft_strdup</text>
</a>
</g>
</g>
<!-- Node20&#45;&gt;Node22 -->
<g id="edge24_Node000020_Node000022" class="edge">
<title>Node20&#45;&gt;Node22</title>
<g id="a_edge24_Node000020_Node000022"><a xlink:title=" ">
<path fill="none" stroke="#63b8ff" d="M408.61,-74.91C432.21,-69.13 462.15,-61.79 485.69,-56.02"/>
<polygon fill="#63b8ff" stroke="#63b8ff" points="486.8,-59.35 495.67,-53.57 485.13,-52.55 486.8,-59.35"/>
</a>
</g>
</g>
<!-- Node21&#45;&gt;Node14 -->
<g id="edge23_Node000021_Node000014" class="edge">
<title>Node21&#45;&gt;Node14</title>
<g id="a_edge23_Node000021_Node000014"><a xlink:title=" ">
<path fill="none" stroke="#63b8ff" d="M557.57,-126.32C579.96,-129.07 610.32,-132.8 634.29,-135.74"/>
<polygon fill="#63b8ff" stroke="#63b8ff" points="634.11,-139.25 644.46,-136.99 634.96,-132.3 634.11,-139.25"/>
</a>
</g>
</g>
<!-- Node24 -->
<g id="Node000024" class="node">
<title>Node24</title>
<g id="a_Node000024"><a xlink:href="utils__token__pt2_8c.html#a3604e297db5e07dd328d7bea99faca19" target="_top" xlink:title="Assigns the token type for space tokens based on surrounding context.">
<polygon fill="white" stroke="#666666" points="418,-38 319,-38 319,-19 418,-19 418,-38"/>
<text text-anchor="middle" x="368.5" y="-26" font-family="Helvetica,sans-Serif" font-size="10.00">ft_assign_spaces</text>
</a>
</g>
</g>
<!-- Node23&#45;&gt;Node24 -->
<g id="edge28_Node000023_Node000024" class="edge">
<title>Node23&#45;&gt;Node24</title>
<g id="a_edge28_Node000023_Node000024"><a xlink:title=" ">
<path fill="none" stroke="#63b8ff" d="M242.27,-56.91C264.57,-51.85 292.12,-45.6 315.7,-40.25"/>
<polygon fill="#63b8ff" stroke="#63b8ff" points="316.56,-43.65 325.54,-38.02 315.01,-36.82 316.56,-43.65"/>
</a>
</g>
</g>
<!-- Node25 -->
<g id="Node000025" class="node">
<title>Node25</title>
<g id="a_Node000025"><a xlink:href="utils__token__pt2_8c.html#a4b9fd6f04c0b37820d575167acc78f59" target="_top" xlink:title="Checks if a string is a valid sequence of &#39;&#45;n&#39; for the echo command.">
<polygon fill="white" stroke="#666666" points="569.5,-19 481.5,-19 481.5,0 569.5,0 569.5,-19"/>
<text text-anchor="middle" x="525.5" y="-7" font-family="Helvetica,sans-Serif" font-size="10.00">is_n_sequence</text>
</a>
</g>
</g>
<!-- Node24&#45;&gt;Node25 -->
<g id="edge29_Node000024_Node000025" class="edge">
<title>Node24&#45;&gt;Node25</title>
<g id="a_edge29_Node000024_Node000025"><a xlink:title=" ">
<path fill="none" stroke="#63b8ff" d="M418.12,-22.54C435.04,-20.47 454.1,-18.13 471.37,-16.01"/>
<polygon fill="#63b8ff" stroke="#63b8ff" points="471.8,-19.49 481.3,-14.8 470.95,-12.54 471.8,-19.49"/>
</a>
</g>
</g>
</g>
</svg>
