<?xml version="1.0" encoding="UTF-8" standalone="no"?>
<!DOCTYPE svg PUBLIC "-//W3C//DTD SVG 1.1//EN"
 "http://www.w3.org/Graphics/SVG/1.1/DTD/svg11.dtd">
<!-- Generated by graphviz version 2.43.0 (0)
 -->
<!-- Title: ft_unset Pages: 1 -->
<svg width="876pt" height="549pt"
 viewBox="0.00 0.00 876.00 549.00" xmlns="http://www.w3.org/2000/svg" xmlns:xlink="http://www.w3.org/1999/xlink">
<g id="graph0" class="graph" transform="scale(1 1) rotate(0) translate(4 545)">
<title>ft_unset</title>
<!-- Node1 -->
<g id="Node000001" class="node">
<title>Node1</title>
<g id="a_Node000001"><a xlink:title="Implements the builtin unset command.">
<polygon fill="#999999" stroke="#666666" points="56,-203 0,-203 0,-184 56,-184 56,-203"/>
<text text-anchor="middle" x="28" y="-191" font-family="Helvetica,sans-Serif" font-size="10.00">ft_unset</text>
</a>
</g>
</g>
<!-- Node2 -->
<g id="Node000002" class="node">
<title>Node2</title>
<g id="a_Node000002"><a xlink:href="unset_8c.html#aabf1b9c17103a2c429513f9b4c84bccd" target="_top" xlink:title="Executes the unset operation on a single argument.">
<polygon fill="white" stroke="#666666" points="163.5,-240 97.5,-240 97.5,-221 163.5,-221 163.5,-240"/>
<text text-anchor="middle" x="130.5" y="-228" font-family="Helvetica,sans-Serif" font-size="10.00">exe_unset</text>
</a>
</g>
</g>
<!-- Node1&#45;&gt;Node2 -->
<g id="edge1_Node000001_Node000002" class="edge">
<title>Node1&#45;&gt;Node2</title>
<g id="a_edge1_Node000001_Node000002"><a xlink:title=" ">
<path fill="none" stroke="#63b8ff" d="M54.88,-203.03C66.75,-207.4 81,-212.64 93.86,-217.38"/>
<polygon fill="#63b8ff" stroke="#63b8ff" points="92.76,-220.7 103.36,-220.88 95.18,-214.14 92.76,-220.7"/>
</a>
</g>
</g>
<!-- Node27 -->
<g id="Node000027" class="node">
<title>Node27</title>
<g id="a_Node000027"><a xlink:href="free__functions_8c.html#a451c65e7c59e947c1880d1f75d866e3a" target="_top" xlink:title="Frees all resources associated with a list of pipes and the environment.">
<polygon fill="white" stroke="#666666" points="313.5,-467 233.5,-467 233.5,-448 313.5,-448 313.5,-467"/>
<text text-anchor="middle" x="273.5" y="-455" font-family="Helvetica,sans-Serif" font-size="10.00">free_all_pipe</text>
</a>
</g>
</g>
<!-- Node1&#45;&gt;Node27 -->
<g id="edge36_Node000001_Node000027" class="edge">
<title>Node1&#45;&gt;Node27</title>
<g id="a_edge36_Node000001_Node000027"><a xlink:title=" ">
<path fill="none" stroke="#63b8ff" d="M37.96,-203.21C74.2,-242.51 210.33,-390.09 256.82,-440.5"/>
<polygon fill="#63b8ff" stroke="#63b8ff" points="254.37,-443 263.72,-447.98 259.51,-438.26 254.37,-443"/>
</a>
</g>
</g>
<!-- Node31 -->
<g id="Node000031" class="node">
<title>Node31</title>
<g id="a_Node000031"><a xlink:href="utils__fd_8c.html#a184b4852a6ca5544cc056e7a8e20e4ad" target="_top" xlink:title="Handles opening and validating file descriptors for command input/output.">
<polygon fill="white" stroke="#666666" points="159,-166 102,-166 102,-147 159,-147 159,-166"/>
<text text-anchor="middle" x="130.5" y="-154" font-family="Helvetica,sans-Serif" font-size="10.00">ft_for_fd</text>
</a>
</g>
</g>
<!-- Node1&#45;&gt;Node31 -->
<g id="edge42_Node000001_Node000031" class="edge">
<title>Node1&#45;&gt;Node31</title>
<g id="a_edge42_Node000001_Node000031"><a xlink:title=" ">
<path fill="none" stroke="#63b8ff" d="M54.88,-183.97C66.75,-179.6 81,-174.36 93.86,-169.62"/>
<polygon fill="#63b8ff" stroke="#63b8ff" points="95.18,-172.86 103.36,-166.12 92.76,-166.3 95.18,-172.86"/>
</a>
</g>
</g>
<!-- Node35 -->
<g id="Node000035" class="node">
<title>Node35</title>
<g id="a_Node000035"><a xlink:href="utils__pipes_8c.html#aa5bc406fd1d5aadd2018c5c2061d31ba" target="_top" xlink:title="Restores the previously duplicated standard input.">
<polygon fill="white" stroke="#666666" points="169,-129 92,-129 92,-110 169,-110 169,-129"/>
<text text-anchor="middle" x="130.5" y="-117" font-family="Helvetica,sans-Serif" font-size="10.00">restore_sdin</text>
</a>
</g>
</g>
<!-- Node1&#45;&gt;Node35 -->
<g id="edge47_Node000001_Node000035" class="edge">
<title>Node1&#45;&gt;Node35</title>
<g id="a_edge47_Node000001_Node000035"><a xlink:title=" ">
<path fill="none" stroke="#63b8ff" d="M38.62,-183.72C50.47,-172.03 71.54,-152.3 92,-138.5 94.38,-136.89 96.92,-135.33 99.51,-133.84"/>
<polygon fill="#63b8ff" stroke="#63b8ff" points="101.21,-136.9 108.35,-129.06 97.88,-130.74 101.21,-136.9"/>
</a>
</g>
</g>
<!-- Node3 -->
<g id="Node000003" class="node">
<title>Node3</title>
<g id="a_Node000003"><a xlink:href="unset_8c.html#a6a5b46a0f90a47ceea95d80b8605ad87" target="_top" xlink:title="Removes a variable from the environment.">
<polygon fill="white" stroke="#666666" points="313.5,-335 233.5,-335 233.5,-316 313.5,-316 313.5,-335"/>
<text text-anchor="middle" x="273.5" y="-323" font-family="Helvetica,sans-Serif" font-size="10.00">ft_delete_var</text>
</a>
</g>
</g>
<!-- Node2&#45;&gt;Node3 -->
<g id="edge2_Node000002_Node000003" class="edge">
<title>Node2&#45;&gt;Node3</title>
<g id="a_edge2_Node000002_Node000003"><a xlink:title=" ">
<path fill="none" stroke="#63b8ff" d="M141.34,-240.18C154.88,-253.17 180.39,-276.45 205,-292.5 216.01,-299.68 228.82,-306.32 240.29,-311.73"/>
<polygon fill="#63b8ff" stroke="#63b8ff" points="239,-314.99 249.55,-315.98 241.92,-308.63 239,-314.99"/>
</a>
</g>
</g>
<!-- Node13 -->
<g id="Node000013" class="node">
<title>Node13</title>
<g id="a_Node000013"><a xlink:href="unset_8c.html#a1f4492a754a8735a053adc61c57f6692" target="_top" xlink:title="Finds the index of a variable in the environment.">
<polygon fill="white" stroke="#666666" points="478,-316 378,-316 378,-297 478,-297 478,-316"/>
<text text-anchor="middle" x="428" y="-304" font-family="Helvetica,sans-Serif" font-size="10.00">ft_find_unset_var</text>
</a>
</g>
</g>
<!-- Node2&#45;&gt;Node13 -->
<g id="edge15_Node000002_Node000013" class="edge">
<title>Node2&#45;&gt;Node13</title>
<g id="a_edge15_Node000002_Node000013"><a xlink:title=" ">
<path fill="none" stroke="#63b8ff" d="M163.7,-238.84C176.54,-242.16 191.47,-246.01 205,-249.5 265.36,-265.05 334.98,-282.91 379.92,-294.44"/>
<polygon fill="#63b8ff" stroke="#63b8ff" points="379.12,-297.84 389.68,-296.94 380.86,-291.06 379.12,-297.84"/>
</a>
</g>
</g>
<!-- Node14 -->
<g id="Node000014" class="node">
<title>Node14</title>
<g id="a_Node000014"><a xlink:href="ft__printf_8c.html#a091532b7f37af84bdecc84dccf4eedb1" target="_top" xlink:title="A simplified printf function that outputs formatted data to a given file descriptor.">
<polygon fill="white" stroke="#666666" points="301,-240 246,-240 246,-221 301,-221 301,-240"/>
<text text-anchor="middle" x="273.5" y="-228" font-family="Helvetica,sans-Serif" font-size="10.00">ft_printf</text>
</a>
</g>
</g>
<!-- Node2&#45;&gt;Node14 -->
<g id="edge18_Node000002_Node000014" class="edge">
<title>Node2&#45;&gt;Node14</title>
<g id="a_edge18_Node000002_Node000014"><a xlink:title=" ">
<path fill="none" stroke="#63b8ff" d="M163.85,-230.5C185.33,-230.5 213.56,-230.5 235.87,-230.5"/>
<polygon fill="#63b8ff" stroke="#63b8ff" points="235.97,-234 245.97,-230.5 235.97,-227 235.97,-234"/>
</a>
</g>
</g>
<!-- Node24 -->
<g id="Node000024" class="node">
<title>Node24</title>
<g id="a_Node000024"><a xlink:href="utils__export__unset_8c.html#ad79b1c3a9dc66c11e0066ba43dcb0eb2" target="_top" xlink:title="Checks if the argument passed to unset is valid.">
<polygon fill="white" stroke="#666666" points="327,-203 220,-203 220,-184 327,-184 327,-203"/>
<text text-anchor="middle" x="273.5" y="-191" font-family="Helvetica,sans-Serif" font-size="10.00">is_valid_unset_arg</text>
</a>
</g>
</g>
<!-- Node2&#45;&gt;Node24 -->
<g id="edge33_Node000002_Node000024" class="edge">
<title>Node2&#45;&gt;Node24</title>
<g id="a_edge33_Node000002_Node000024"><a xlink:title=" ">
<path fill="none" stroke="#63b8ff" d="M163.85,-222.01C182.36,-217.15 205.9,-210.98 226.34,-205.61"/>
<polygon fill="#63b8ff" stroke="#63b8ff" points="227.3,-208.98 236.08,-203.06 225.52,-202.21 227.3,-208.98"/>
</a>
</g>
</g>
<!-- Node4 -->
<g id="Node000004" class="node">
<title>Node4</title>
<g id="a_Node000004"><a xlink:href="unset_8c.html#ad9c56b69ee719b3000b39b3c873b4c44" target="_top" xlink:title="Copies all environment variables except the one to remove into new_env array.">
<polygon fill="white" stroke="#666666" points="467,-353 389,-353 389,-334 467,-334 467,-353"/>
<text text-anchor="middle" x="428" y="-341" font-family="Helvetica,sans-Serif" font-size="10.00">ft_for_delete</text>
</a>
</g>
</g>
<!-- Node3&#45;&gt;Node4 -->
<g id="edge3_Node000003_Node000004" class="edge">
<title>Node3&#45;&gt;Node4</title>
<g id="a_edge3_Node000003_Node000004"><a xlink:title=" ">
<path fill="none" stroke="#63b8ff" d="M313.77,-330.14C333.64,-332.48 357.93,-335.35 378.91,-337.82"/>
<polygon fill="#63b8ff" stroke="#63b8ff" points="378.57,-341.31 388.91,-339 379.39,-334.36 378.57,-341.31"/>
</a>
</g>
</g>
<!-- Node5 -->
<g id="Node000005" class="node">
<title>Node5</title>
<g id="a_Node000005"><a xlink:href="ft__free__matrix_8c.html#a1ea6d1f3b50d1c23d4f0faddd1a13448" target="_top" xlink:title="Frees a NULL&#45;terminated matrix of strings.">
<polygon fill="white" stroke="#666666" points="612,-429 526,-429 526,-410 612,-410 612,-429"/>
<text text-anchor="middle" x="569" y="-417" font-family="Helvetica,sans-Serif" font-size="10.00">ft_free_matrix</text>
</a>
</g>
</g>
<!-- Node3&#45;&gt;Node5 -->
<g id="edge13_Node000003_Node000005" class="edge">
<title>Node3&#45;&gt;Node5</title>
<g id="a_edge13_Node000003_Node000005"><a xlink:title=" ">
<path fill="none" stroke="#63b8ff" d="M300.32,-335.15C321.18,-342.85 351.35,-353.75 378,-362.5 427.86,-378.88 485.68,-395.95 524.32,-407.09"/>
<polygon fill="#63b8ff" stroke="#63b8ff" points="523.62,-410.54 534.2,-409.93 525.56,-403.81 523.62,-410.54"/>
</a>
</g>
</g>
<!-- Node12 -->
<g id="Node000012" class="node">
<title>Node12</title>
<g id="a_Node000012"><a xlink:href="ft__strlcat_8c.html#a3ab017dd491d7327d1b4acbf1398b91e" target="_top" xlink:title="Returns the length of a null&#45;terminated string.">
<polygon fill="white" stroke="#666666" points="853,-278 821,-278 821,-259 853,-259 853,-278"/>
<text text-anchor="middle" x="837" y="-266" font-family="Helvetica,sans-Serif" font-size="10.00">len</text>
</a>
</g>
</g>
<!-- Node3&#45;&gt;Node12 -->
<g id="edge14_Node000003_Node000012" class="edge">
<title>Node3&#45;&gt;Node12</title>
<g id="a_edge14_Node000003_Node000012"><a xlink:title=" ">
<path fill="none" stroke="#63b8ff" d="M295.38,-315.93C315.92,-307.03 348.41,-294.3 378,-288.5 540.36,-256.69 741.04,-263.35 810.75,-266.98"/>
<polygon fill="#63b8ff" stroke="#63b8ff" points="810.61,-270.48 820.78,-267.53 810.99,-263.49 810.61,-270.48"/>
</a>
</g>
</g>
<!-- Node4&#45;&gt;Node5 -->
<g id="edge4_Node000004_Node000005" class="edge">
<title>Node4&#45;&gt;Node5</title>
<g id="a_edge4_Node000004_Node000005"><a xlink:title=" ">
<path fill="none" stroke="#63b8ff" d="M450.98,-353.09C459.62,-357.15 469.48,-362.18 478,-367.5 495.19,-378.24 496.61,-385.08 514,-395.5 520.15,-399.18 526.97,-402.64 533.63,-405.73"/>
<polygon fill="#63b8ff" stroke="#63b8ff" points="532.62,-409.11 543.18,-409.96 535.45,-402.71 532.62,-409.11"/>
</a>
</g>
</g>
<!-- Node6 -->
<g id="Node000006" class="node">
<title>Node6</title>
<g id="a_Node000006"><a xlink:href="ft__strcmp_8c.html#a1f2ff2312e5994560c9537cd9173be94" target="_top" xlink:title="Compares two null&#45;terminated strings lexicographically.">
<polygon fill="white" stroke="#666666" points="600,-353 538,-353 538,-334 600,-334 600,-353"/>
<text text-anchor="middle" x="569" y="-341" font-family="Helvetica,sans-Serif" font-size="10.00">ft_strcmp</text>
</a>
</g>
</g>
<!-- Node4&#45;&gt;Node6 -->
<g id="edge5_Node000004_Node000006" class="edge">
<title>Node4&#45;&gt;Node6</title>
<g id="a_edge5_Node000004_Node000006"><a xlink:title=" ">
<path fill="none" stroke="#63b8ff" d="M467.35,-343.5C486.06,-343.5 508.58,-343.5 527.56,-343.5"/>
<polygon fill="#63b8ff" stroke="#63b8ff" points="527.7,-347 537.7,-343.5 527.7,-340 527.7,-347"/>
</a>
</g>
</g>
<!-- Node7 -->
<g id="Node000007" class="node">
<title>Node7</title>
<g id="a_Node000007"><a xlink:href="ft__strdup_8c.html#aebe73f27c70c56ac5053f860ef5436c9" target="_top" xlink:title="Duplicates a null&#45;terminated string by allocating memory.">
<polygon fill="white" stroke="#666666" points="866.5,-390 807.5,-390 807.5,-371 866.5,-371 866.5,-390"/>
<text text-anchor="middle" x="837" y="-378" font-family="Helvetica,sans-Serif" font-size="10.00">ft_strdup</text>
</a>
</g>
</g>
<!-- Node4&#45;&gt;Node7 -->
<g id="edge6_Node000004_Node000007" class="edge">
<title>Node4&#45;&gt;Node7</title>
<g id="a_edge6_Node000004_Node000007"><a xlink:title=" ">
<path fill="none" stroke="#63b8ff" d="M465.58,-353.06C480.5,-356.59 497.97,-360.28 514,-362.5 615.5,-376.58 736.44,-379.73 797.15,-380.38"/>
<polygon fill="#63b8ff" stroke="#63b8ff" points="797.39,-383.88 807.42,-380.47 797.45,-376.88 797.39,-383.88"/>
</a>
</g>
</g>
<!-- Node8 -->
<g id="Node000008" class="node">
<title>Node8</title>
<g id="a_Node000008"><a xlink:href="utils__env__pt2_8c.html#a347832cde8b1beaad47f03caa3af78f0" target="_top" xlink:title="Extracts the variable name from a &quot;KEY=VALUE&quot; string.">
<polygon fill="white" stroke="#666666" points="612,-316 526,-316 526,-297 612,-297 612,-316"/>
<text text-anchor="middle" x="569" y="-304" font-family="Helvetica,sans-Serif" font-size="10.00">get_var_name</text>
</a>
</g>
</g>
<!-- Node4&#45;&gt;Node8 -->
<g id="edge7_Node000004_Node000008" class="edge">
<title>Node4&#45;&gt;Node8</title>
<g id="a_edge7_Node000004_Node000008"><a xlink:title=" ">
<path fill="none" stroke="#63b8ff" d="M464.8,-333.97C482.25,-329.33 503.45,-323.68 522.08,-318.72"/>
<polygon fill="#63b8ff" stroke="#63b8ff" points="523.08,-322.08 531.84,-316.12 521.28,-315.31 523.08,-322.08"/>
</a>
</g>
</g>
<!-- Node9 -->
<g id="Node000009" class="node">
<title>Node9</title>
<g id="a_Node000009"><a xlink:href="ft__substr_8c.html#a78c402cbf3d55b1374693c3b7d34f71d" target="_top" xlink:title="Extracts a substring from a given string.">
<polygon fill="white" stroke="#666666" points="744.5,-316 685.5,-316 685.5,-297 744.5,-297 744.5,-316"/>
<text text-anchor="middle" x="715" y="-304" font-family="Helvetica,sans-Serif" font-size="10.00">ft_substr</text>
</a>
</g>
</g>
<!-- Node8&#45;&gt;Node9 -->
<g id="edge8_Node000008_Node000009" class="edge">
<title>Node8&#45;&gt;Node9</title>
<g id="a_edge8_Node000008_Node000009"><a xlink:title=" ">
<path fill="none" stroke="#63b8ff" d="M612.04,-306.5C632.02,-306.5 655.76,-306.5 675.29,-306.5"/>
<polygon fill="#63b8ff" stroke="#63b8ff" points="675.38,-310 685.38,-306.5 675.38,-303 675.38,-310"/>
</a>
</g>
</g>
<!-- Node9&#45;&gt;Node7 -->
<g id="edge9_Node000009_Node000007" class="edge">
<title>Node9&#45;&gt;Node7</title>
<g id="a_edge9_Node000009_Node000007"><a xlink:title=" ">
<path fill="none" stroke="#63b8ff" d="M731.69,-316.17C752.08,-328.75 787.9,-350.84 811.79,-365.57"/>
<polygon fill="#63b8ff" stroke="#63b8ff" points="809.96,-368.55 820.31,-370.82 813.63,-362.6 809.96,-368.55"/>
</a>
</g>
</g>
<!-- Node10 -->
<g id="Node000010" class="node">
<title>Node10</title>
<g id="a_Node000010"><a xlink:href="ft__strlcpy_8c.html#aa053827b3a2ea3d0118783d6fb59d178" target="_top" xlink:title="Copies up to size &#45; 1 characters from the string src to dst, null&#45;terminating the result.">
<polygon fill="white" stroke="#666666" points="868,-315 806,-315 806,-296 868,-296 868,-315"/>
<text text-anchor="middle" x="837" y="-303" font-family="Helvetica,sans-Serif" font-size="10.00">ft_strlcpy</text>
</a>
</g>
</g>
<!-- Node9&#45;&gt;Node10 -->
<g id="edge10_Node000009_Node000010" class="edge">
<title>Node9&#45;&gt;Node10</title>
<g id="a_edge10_Node000009_Node000010"><a xlink:title=" ">
<path fill="none" stroke="#63b8ff" d="M744.74,-306.26C760.02,-306.13 779.04,-305.97 795.76,-305.84"/>
<polygon fill="#63b8ff" stroke="#63b8ff" points="795.85,-309.33 805.82,-305.75 795.79,-302.34 795.85,-309.33"/>
</a>
</g>
</g>
<!-- Node11 -->
<g id="Node000011" class="node">
<title>Node11</title>
<g id="a_Node000011"><a xlink:href="ft__strlen_8c.html#a828402378653640f545a4be2e00e92f9" target="_top" xlink:title="Calculates the length of a null&#45;terminated string.">
<polygon fill="white" stroke="#666666" points="865,-352 809,-352 809,-333 865,-333 865,-352"/>
<text text-anchor="middle" x="837" y="-340" font-family="Helvetica,sans-Serif" font-size="10.00">ft_strlen</text>
</a>
</g>
</g>
<!-- Node9&#45;&gt;Node11 -->
<g id="edge11_Node000009_Node000011" class="edge">
<title>Node9&#45;&gt;Node11</title>
<g id="a_edge11_Node000009_Node000011"><a xlink:title=" ">
<path fill="none" stroke="#63b8ff" d="M744.74,-315.12C760.97,-319.99 781.43,-326.13 798.87,-331.36"/>
<polygon fill="#63b8ff" stroke="#63b8ff" points="798.14,-334.8 808.73,-334.32 800.16,-328.09 798.14,-334.8"/>
</a>
</g>
</g>
<!-- Node9&#45;&gt;Node12 -->
<g id="edge12_Node000009_Node000012" class="edge">
<title>Node9&#45;&gt;Node12</title>
<g id="a_edge12_Node000009_Node000012"><a xlink:title=" ">
<path fill="none" stroke="#63b8ff" d="M744.74,-297.4C764.96,-291 791.75,-282.51 811.07,-276.4"/>
<polygon fill="#63b8ff" stroke="#63b8ff" points="812.2,-279.71 820.68,-273.35 810.09,-273.03 812.2,-279.71"/>
</a>
</g>
</g>
<!-- Node13&#45;&gt;Node6 -->
<g id="edge16_Node000013_Node000006" class="edge">
<title>Node13&#45;&gt;Node6</title>
<g id="a_edge16_Node000013_Node000006"><a xlink:title=" ">
<path fill="none" stroke="#63b8ff" d="M464.8,-316.03C484.2,-321.19 508.23,-327.59 528.22,-332.91"/>
<polygon fill="#63b8ff" stroke="#63b8ff" points="527.4,-336.31 537.96,-335.51 529.2,-329.55 527.4,-336.31"/>
</a>
</g>
</g>
<!-- Node13&#45;&gt;Node8 -->
<g id="edge17_Node000013_Node000008" class="edge">
<title>Node13&#45;&gt;Node8</title>
<g id="a_edge17_Node000013_Node000008"><a xlink:title=" ">
<path fill="none" stroke="#63b8ff" d="M478.01,-306.5C490.22,-306.5 503.36,-306.5 515.72,-306.5"/>
<polygon fill="#63b8ff" stroke="#63b8ff" points="515.89,-310 525.89,-306.5 515.89,-303 515.89,-310"/>
</a>
</g>
</g>
<!-- Node15 -->
<g id="Node000015" class="node">
<title>Node15</title>
<g id="a_Node000015"><a xlink:href="ft__printf_8c.html#a80c1c206dcd33d07c265581878aaa300" target="_top" xlink:title="Processes a single format specifier and prints the corresponding argument.">
<polygon fill="white" stroke="#666666" points="469.5,-202 386.5,-202 386.5,-183 469.5,-183 469.5,-202"/>
<text text-anchor="middle" x="428" y="-190" font-family="Helvetica,sans-Serif" font-size="10.00">check_format</text>
</a>
</g>
</g>
<!-- Node14&#45;&gt;Node15 -->
<g id="edge19_Node000014_Node000015" class="edge">
<title>Node14&#45;&gt;Node15</title>
<g id="a_edge19_Node000014_Node000015"><a xlink:title=" ">
<path fill="none" stroke="#63b8ff" d="M301.06,-223.88C322.46,-218.55 353.1,-210.91 378.8,-204.51"/>
<polygon fill="#63b8ff" stroke="#63b8ff" points="379.88,-207.85 388.74,-202.03 378.19,-201.06 379.88,-207.85"/>
</a>
</g>
</g>
<!-- Node19 -->
<g id="Node000019" class="node">
<title>Node19</title>
<g id="a_Node000019"><a xlink:href="ft__putchar__fd_8c.html#a03ef80b25dc4a521379fa92ad97bad21" target="_top" xlink:title="Writes a single character to the specified file descriptor.">
<polygon fill="white" stroke="#666666" points="609,-240 529,-240 529,-221 609,-221 609,-240"/>
<text text-anchor="middle" x="569" y="-228" font-family="Helvetica,sans-Serif" font-size="10.00">ft_putchar_fd</text>
</a>
</g>
</g>
<!-- Node14&#45;&gt;Node19 -->
<g id="edge32_Node000014_Node000019" class="edge">
<title>Node14&#45;&gt;Node19</title>
<g id="a_edge32_Node000014_Node000019"><a xlink:title=" ">
<path fill="none" stroke="#63b8ff" d="M301.06,-230.5C350.25,-230.5 456.2,-230.5 518.82,-230.5"/>
<polygon fill="#63b8ff" stroke="#63b8ff" points="518.85,-234 528.85,-230.5 518.85,-227 518.85,-234"/>
</a>
</g>
</g>
<!-- Node16 -->
<g id="Node000016" class="node">
<title>Node16</title>
<g id="a_Node000016"><a xlink:href="ft__forpointer_8c.html#a8e02c77b80406af72327ebf71f537786" target="_top" xlink:title="Prints a pointer in hexadecimal format prefixed with &quot;0x&quot;.">
<polygon fill="white" stroke="#666666" points="607.5,-166 530.5,-166 530.5,-147 607.5,-147 607.5,-166"/>
<text text-anchor="middle" x="569" y="-154" font-family="Helvetica,sans-Serif" font-size="10.00">ft_forpointer</text>
</a>
</g>
</g>
<!-- Node15&#45;&gt;Node16 -->
<g id="edge20_Node000015_Node000016" class="edge">
<title>Node15&#45;&gt;Node16</title>
<g id="a_edge20_Node000015_Node000016"><a xlink:title=" ">
<path fill="none" stroke="#63b8ff" d="M465.88,-182.95C482.85,-178.55 503.17,-173.29 521.2,-168.62"/>
<polygon fill="#63b8ff" stroke="#63b8ff" points="522.14,-171.99 530.94,-166.1 520.38,-165.22 522.14,-171.99"/>
</a>
</g>
</g>
<!-- Node18 -->
<g id="Node000018" class="node">
<title>Node18</title>
<g id="a_Node000018"><a xlink:href="ft__hexadecimal_8c.html#a39c845e0a4286d3ac1e04c1e64ac734b" target="_top" xlink:title="Prints an unsigned integer in hexadecimal format.">
<polygon fill="white" stroke="#666666" points="615,-111 523,-111 523,-92 615,-92 615,-111"/>
<text text-anchor="middle" x="569" y="-99" font-family="Helvetica,sans-Serif" font-size="10.00">ft_hexadecimal</text>
</a>
</g>
</g>
<!-- Node15&#45;&gt;Node18 -->
<g id="edge23_Node000015_Node000018" class="edge">
<title>Node15&#45;&gt;Node18</title>
<g id="a_edge23_Node000015_Node000018"><a xlink:title=" ">
<path fill="none" stroke="#63b8ff" d="M461.32,-182.9C467.09,-180.56 472.88,-177.77 478,-174.5 497.07,-162.31 496.59,-152.96 514,-138.5 523.28,-130.8 534.14,-123.12 543.68,-116.78"/>
<polygon fill="#63b8ff" stroke="#63b8ff" points="545.86,-119.54 552.33,-111.14 542.04,-113.67 545.86,-119.54"/>
</a>
</g>
</g>
<!-- Node15&#45;&gt;Node19 -->
<g id="edge25_Node000015_Node000019" class="edge">
<title>Node15&#45;&gt;Node19</title>
<g id="a_edge25_Node000015_Node000019"><a xlink:title=" ">
<path fill="none" stroke="#63b8ff" d="M464.08,-202.09C482.02,-206.99 504.06,-213.02 523.22,-218.26"/>
<polygon fill="#63b8ff" stroke="#63b8ff" points="522.37,-221.65 532.94,-220.91 524.21,-214.9 522.37,-221.65"/>
</a>
</g>
</g>
<!-- Node20 -->
<g id="Node000020" class="node">
<title>Node20</title>
<g id="a_Node000020"><a xlink:href="ft__putnbr__fd_8c.html#a1554101ee350c316340c78e19faddaa8" target="_top" xlink:title="Writes an integer to a given file descriptor.">
<polygon fill="white" stroke="#666666" points="606.5,-56 531.5,-56 531.5,-37 606.5,-37 606.5,-56"/>
<text text-anchor="middle" x="569" y="-44" font-family="Helvetica,sans-Serif" font-size="10.00">ft_putnbr_fd</text>
</a>
</g>
</g>
<!-- Node15&#45;&gt;Node20 -->
<g id="edge26_Node000015_Node000020" class="edge">
<title>Node15&#45;&gt;Node20</title>
<g id="a_edge26_Node000015_Node000020"><a xlink:title=" ">
<path fill="none" stroke="#63b8ff" d="M465.85,-182.96C470.3,-180.7 474.5,-177.92 478,-174.5 509.37,-143.78 486.46,-116.7 514,-82.5 520.78,-74.07 530.07,-66.91 539.04,-61.24"/>
<polygon fill="#63b8ff" stroke="#63b8ff" points="540.95,-64.17 547.78,-56.07 537.39,-58.14 540.95,-64.17"/>
</a>
</g>
</g>
<!-- Node21 -->
<g id="Node000021" class="node">
<title>Node21</title>
<g id="a_Node000021"><a xlink:href="ft__putstr__fd_8c.html#a00b0638f31a75c7a30f77f33888bfb73" target="_top" xlink:title="Writes a null&#45;terminated string to the specified file descriptor.">
<polygon fill="white" stroke="#666666" points="605,-19 533,-19 533,0 605,0 605,-19"/>
<text text-anchor="middle" x="569" y="-7" font-family="Helvetica,sans-Serif" font-size="10.00">ft_putstr_fd</text>
</a>
</g>
</g>
<!-- Node15&#45;&gt;Node21 -->
<g id="edge28_Node000015_Node000021" class="edge">
<title>Node15&#45;&gt;Node21</title>
<g id="a_edge28_Node000015_Node000021"><a xlink:title=" ">
<path fill="none" stroke="#63b8ff" d="M467.26,-182.85C471.27,-180.62 474.98,-177.88 478,-174.5 522.83,-124.35 468.42,-76.96 514,-27.5 516.75,-24.52 520,-22.03 523.53,-19.96"/>
<polygon fill="#63b8ff" stroke="#63b8ff" points="525.18,-23.04 532.72,-15.6 522.19,-16.72 525.18,-23.04"/>
</a>
</g>
</g>
<!-- Node22 -->
<g id="Node000022" class="node">
<title>Node22</title>
<g id="a_Node000022"><a xlink:href="ft__unsigned__putnbr_8c.html#af9a70f8607b40cf2a7706f9d3725b549" target="_top" xlink:title="Writes an unsigned integer to the given file descriptor.">
<polygon fill="white" stroke="#666666" points="624,-203 514,-203 514,-184 624,-184 624,-203"/>
<text text-anchor="middle" x="569" y="-191" font-family="Helvetica,sans-Serif" font-size="10.00">ft_unsigned_putnbr</text>
</a>
</g>
</g>
<!-- Node15&#45;&gt;Node22 -->
<g id="edge29_Node000015_Node000022" class="edge">
<title>Node15&#45;&gt;Node22</title>
<g id="a_edge29_Node000015_Node000022"><a xlink:title=" ">
<path fill="none" stroke="#63b8ff" d="M469.58,-192.79C480.3,-192.87 492.14,-192.95 503.78,-193.04"/>
<polygon fill="#63b8ff" stroke="#63b8ff" points="503.9,-196.54 513.93,-193.11 503.95,-189.54 503.9,-196.54"/>
</a>
</g>
</g>
<!-- Node17 -->
<g id="Node000017" class="node">
<title>Node17</title>
<g id="a_Node000017"><a xlink:href="ft__forpointer_8c.html#aded1bf735c8a10e47396170d27c5b6aa" target="_top" xlink:title="Recursively prints a memory address in hexadecimal format.">
<polygon fill="white" stroke="#666666" points="770,-157 660,-157 660,-138 770,-138 770,-157"/>
<text text-anchor="middle" x="715" y="-145" font-family="Helvetica,sans-Serif" font-size="10.00">ft_ricorsive_pointer</text>
</a>
</g>
</g>
<!-- Node16&#45;&gt;Node17 -->
<g id="edge21_Node000016_Node000017" class="edge">
<title>Node16&#45;&gt;Node17</title>
<g id="a_edge21_Node000016_Node000017"><a xlink:title=" ">
<path fill="none" stroke="#63b8ff" d="M607.83,-154.14C620.64,-153.33 635.33,-152.42 649.61,-151.52"/>
<polygon fill="#63b8ff" stroke="#63b8ff" points="650.14,-155 659.9,-150.88 649.7,-148.01 650.14,-155"/>
</a>
</g>
</g>
<!-- Node17&#45;&gt;Node17 -->
<g id="edge22_Node000017_Node000017" class="edge">
<title>Node17&#45;&gt;Node17</title>
<g id="a_edge22_Node000017_Node000017"><a xlink:title=" ">
<path fill="none" stroke="#63b8ff" d="M696.2,-157.08C687.05,-165.73 693.32,-175 715,-175 728.55,-175 736.08,-171.38 737.59,-166.55"/>
<polygon fill="#63b8ff" stroke="#63b8ff" points="740.77,-165.07 733.8,-157.08 734.27,-167.67 740.77,-165.07"/>
</a>
</g>
</g>
<!-- Node18&#45;&gt;Node18 -->
<g id="edge24_Node000018_Node000018" class="edge">
<title>Node18&#45;&gt;Node18</title>
<g id="a_edge24_Node000018_Node000018"><a xlink:title=" ">
<path fill="none" stroke="#63b8ff" d="M547.42,-111.08C536.92,-119.73 544.12,-129 569,-129 584.94,-129 593.62,-125.2 595.04,-120.19"/>
<polygon fill="#63b8ff" stroke="#63b8ff" points="598.12,-118.52 590.58,-111.08 591.84,-121.6 598.12,-118.52"/>
</a>
</g>
</g>
<!-- Node20&#45;&gt;Node20 -->
<g id="edge27_Node000020_Node000020" class="edge">
<title>Node20&#45;&gt;Node20</title>
<g id="a_edge27_Node000020_Node000020"><a xlink:title=" ">
<path fill="none" stroke="#63b8ff" d="M547.42,-56.08C536.92,-64.73 544.12,-74 569,-74 584.94,-74 593.62,-70.2 595.04,-65.19"/>
<polygon fill="#63b8ff" stroke="#63b8ff" points="598.12,-63.52 590.58,-56.08 591.84,-66.6 598.12,-63.52"/>
</a>
</g>
</g>
<!-- Node23 -->
<g id="Node000023" class="node">
<title>Node23</title>
<g id="a_Node000023"><a xlink:href="ft__putnbr_8c.html#a2e51f80c9e46e52f4adf94617fb51ada" target="_top" xlink:title="Writes an integer to the standard output (stdout).">
<polygon fill="white" stroke="#666666" points="745,-212 685,-212 685,-193 745,-193 745,-212"/>
<text text-anchor="middle" x="715" y="-200" font-family="Helvetica,sans-Serif" font-size="10.00">ft_putnbr</text>
</a>
</g>
</g>
<!-- Node22&#45;&gt;Node23 -->
<g id="edge30_Node000022_Node000023" class="edge">
<title>Node22&#45;&gt;Node23</title>
<g id="a_edge30_Node000022_Node000023"><a xlink:title=" ">
<path fill="none" stroke="#63b8ff" d="M624.03,-196.88C640.76,-197.92 658.87,-199.05 674.43,-200.03"/>
<polygon fill="#63b8ff" stroke="#63b8ff" points="674.55,-203.54 684.74,-200.67 674.98,-196.55 674.55,-203.54"/>
</a>
</g>
</g>
<!-- Node23&#45;&gt;Node23 -->
<g id="edge31_Node000023_Node000023" class="edge">
<title>Node23&#45;&gt;Node23</title>
<g id="a_edge31_Node000023_Node000023"><a xlink:title=" ">
<path fill="none" stroke="#63b8ff" d="M696.2,-212.08C687.05,-220.73 693.32,-230 715,-230 728.55,-230 736.08,-226.38 737.59,-221.55"/>
<polygon fill="#63b8ff" stroke="#63b8ff" points="740.77,-220.07 733.8,-212.08 734.27,-222.67 740.77,-220.07"/>
</a>
</g>
</g>
<!-- Node25 -->
<g id="Node000025" class="node">
<title>Node25</title>
<g id="a_Node000025"><a xlink:href="ft__isalnum_8c.html#a9c2c3821ea43ebdf97de07b123503f8b" target="_top" xlink:title="Checks whether a character is alphanumeric.">
<polygon fill="white" stroke="#666666" points="462,-165 394,-165 394,-146 462,-146 462,-165"/>
<text text-anchor="middle" x="428" y="-153" font-family="Helvetica,sans-Serif" font-size="10.00">ft_isalnum</text>
</a>
</g>
</g>
<!-- Node24&#45;&gt;Node25 -->
<g id="edge34_Node000024_Node000025" class="edge">
<title>Node24&#45;&gt;Node25</title>
<g id="a_edge34_Node000024_Node000025"><a xlink:title=" ">
<path fill="none" stroke="#63b8ff" d="M312.98,-183.91C334.64,-178.52 361.73,-171.76 384.07,-166.2"/>
<polygon fill="#63b8ff" stroke="#63b8ff" points="385.11,-169.55 393.96,-163.73 383.41,-162.75 385.11,-169.55"/>
</a>
</g>
</g>
<!-- Node26 -->
<g id="Node000026" class="node">
<title>Node26</title>
<g id="a_Node000026"><a xlink:href="ft__isalpha_8c.html#ac283963beaa3b8c7d09b78851cda297e" target="_top" xlink:title="Checks whether a character is an alphabetic letter.">
<polygon fill="white" stroke="#666666" points="460,-128 396,-128 396,-109 460,-109 460,-128"/>
<text text-anchor="middle" x="428" y="-116" font-family="Helvetica,sans-Serif" font-size="10.00">ft_isalpha</text>
</a>
</g>
</g>
<!-- Node24&#45;&gt;Node26 -->
<g id="edge35_Node000024_Node000026" class="edge">
<title>Node24&#45;&gt;Node26</title>
<g id="a_edge35_Node000024_Node000026"><a xlink:title=" ">
<path fill="none" stroke="#63b8ff" d="M323.39,-183.94C329.88,-181.68 336.27,-178.91 342,-175.5 362,-163.61 358.68,-150.47 378,-137.5 380.77,-135.64 383.74,-133.93 386.8,-132.36"/>
<polygon fill="#63b8ff" stroke="#63b8ff" points="388.54,-135.41 396.16,-128.06 385.61,-129.05 388.54,-135.41"/>
</a>
</g>
</g>
<!-- Node27&#45;&gt;Node5 -->
<g id="edge41_Node000027_Node000005" class="edge">
<title>Node27&#45;&gt;Node5</title>
<g id="a_edge41_Node000027_Node000005"><a xlink:title=" ">
<path fill="none" stroke="#63b8ff" d="M313.72,-450.04C333.03,-446.53 356.68,-442.47 378,-439.5 424.24,-433.05 477.08,-427.65 515.27,-424.09"/>
<polygon fill="#63b8ff" stroke="#63b8ff" points="516,-427.54 525.64,-423.14 515.36,-420.57 516,-427.54"/>
</a>
</g>
</g>
<!-- Node28 -->
<g id="Node000028" class="node">
<title>Node28</title>
<g id="a_Node000028"><a xlink:href="free__functions_8c.html#a32c72055f1119062342fcdf42527c05c" target="_top" xlink:title="Frees a list of commands.">
<polygon fill="white" stroke="#666666" points="459,-504 397,-504 397,-485 459,-485 459,-504"/>
<text text-anchor="middle" x="428" y="-492" font-family="Helvetica,sans-Serif" font-size="10.00">free_cmd</text>
</a>
</g>
</g>
<!-- Node27&#45;&gt;Node28 -->
<g id="edge37_Node000027_Node000028" class="edge">
<title>Node27&#45;&gt;Node28</title>
<g id="a_edge37_Node000027_Node000028"><a xlink:title=" ">
<path fill="none" stroke="#63b8ff" d="M313.77,-467.03C336.12,-472.45 364.06,-479.23 386.59,-484.7"/>
<polygon fill="#63b8ff" stroke="#63b8ff" points="385.98,-488.15 396.52,-487.11 387.63,-481.35 385.98,-488.15"/>
</a>
</g>
</g>
<!-- Node29 -->
<g id="Node000029" class="node">
<title>Node29</title>
<g id="a_Node000029"><a xlink:href="free__functions_8c.html#a87de2a27d0e0e99f3de0b477731181e0" target="_top" xlink:title="Frees a list of pipes.">
<polygon fill="white" stroke="#666666" points="459,-467 397,-467 397,-448 459,-448 459,-467"/>
<text text-anchor="middle" x="428" y="-455" font-family="Helvetica,sans-Serif" font-size="10.00">free_pipe</text>
</a>
</g>
</g>
<!-- Node27&#45;&gt;Node29 -->
<g id="edge39_Node000027_Node000029" class="edge">
<title>Node27&#45;&gt;Node29</title>
<g id="a_edge39_Node000027_Node000029"><a xlink:title=" ">
<path fill="none" stroke="#63b8ff" d="M313.77,-457.5C336.02,-457.5 363.81,-457.5 386.29,-457.5"/>
<polygon fill="#63b8ff" stroke="#63b8ff" points="386.52,-461 396.52,-457.5 386.52,-454 386.52,-461"/>
</a>
</g>
</g>
<!-- Node30 -->
<g id="Node000030" class="node">
<title>Node30</title>
<g id="a_Node000030"><a xlink:href="free__functions_8c.html#a4f32f08947270b8aec54f43ddd8b02d4" target="_top" xlink:title="Frees a list of tokens.">
<polygon fill="white" stroke="#666666" points="462,-541 394,-541 394,-522 462,-522 462,-541"/>
<text text-anchor="middle" x="428" y="-529" font-family="Helvetica,sans-Serif" font-size="10.00">free_token</text>
</a>
</g>
</g>
<!-- Node27&#45;&gt;Node30 -->
<g id="edge40_Node000027_Node000030" class="edge">
<title>Node27&#45;&gt;Node30</title>
<g id="a_edge40_Node000027_Node000030"><a xlink:title=" ">
<path fill="none" stroke="#63b8ff" d="M290.62,-467.17C310.67,-478.97 346.16,-499.13 378,-513.5 381.66,-515.15 385.52,-516.77 389.4,-518.32"/>
<polygon fill="#63b8ff" stroke="#63b8ff" points="388.4,-521.68 398.99,-522 390.91,-515.15 388.4,-521.68"/>
</a>
</g>
</g>
<!-- Node28&#45;&gt;Node5 -->
<g id="edge38_Node000028_Node000005" class="edge">
<title>Node28&#45;&gt;Node5</title>
<g id="a_edge38_Node000028_Node000005"><a xlink:title=" ">
<path fill="none" stroke="#63b8ff" d="M458.19,-484.93C464.82,-482.45 471.74,-479.59 478,-476.5 502.44,-464.45 528.55,-447.39 546.32,-435.08"/>
<polygon fill="#63b8ff" stroke="#63b8ff" points="548.63,-437.74 554.8,-429.13 544.61,-432.01 548.63,-437.74"/>
</a>
</g>
</g>
<!-- Node32 -->
<g id="Node000032" class="node">
<title>Node32</title>
<g id="a_Node000032"><a xlink:href="utils__fd_8c.html#ae6ad7aa33393749b9dc5eac6b61cdf74" target="_top" xlink:title="Returns the correct file descriptor based on append flag and file.">
<polygon fill="white" stroke="#666666" points="319.5,-90 227.5,-90 227.5,-71 319.5,-71 319.5,-90"/>
<text text-anchor="middle" x="273.5" y="-78" font-family="Helvetica,sans-Serif" font-size="10.00">check_value_fd</text>
</a>
</g>
</g>
<!-- Node31&#45;&gt;Node32 -->
<g id="edge43_Node000031_Node000032" class="edge">
<title>Node31&#45;&gt;Node32</title>
<g id="a_edge43_Node000031_Node000032"><a xlink:title=" ">
<path fill="none" stroke="#63b8ff" d="M154.34,-146.93C159.33,-144.46 164.48,-141.61 169,-138.5 187.14,-126.03 186.23,-115.99 205,-104.5 211.94,-100.25 219.74,-96.61 227.5,-93.54"/>
<polygon fill="#63b8ff" stroke="#63b8ff" points="228.73,-96.82 236.9,-90.07 226.31,-90.25 228.73,-96.82"/>
</a>
</g>
</g>
<!-- Node33 -->
<g id="Node000033" class="node">
<title>Node33</title>
<g id="a_Node000033"><a xlink:href="utils__fd_8c.html#a9cf70d06db18597b04bb642db7abab4a" target="_top" xlink:title="Checks if a file descriptor is valid.">
<polygon fill="white" stroke="#666666" points="464,-91 392,-91 392,-72 464,-72 464,-91"/>
<text text-anchor="middle" x="428" y="-79" font-family="Helvetica,sans-Serif" font-size="10.00">ft_check_fd</text>
</a>
</g>
</g>
<!-- Node31&#45;&gt;Node33 -->
<g id="edge45_Node000031_Node000033" class="edge">
<title>Node31&#45;&gt;Node33</title>
<g id="a_edge45_Node000031_Node000033"><a xlink:title=" ">
<path fill="none" stroke="#63b8ff" d="M159.03,-149.51C210.07,-136.56 319.77,-108.71 381.83,-92.97"/>
<polygon fill="#63b8ff" stroke="#63b8ff" points="382.9,-96.31 391.73,-90.45 381.17,-89.52 382.9,-96.31"/>
</a>
</g>
</g>
<!-- Node34 -->
<g id="Node000034" class="node">
<title>Node34</title>
<g id="a_Node000034"><a xlink:href="utils__pipes_8c.html#a4112bdd2bc0766ff52195f2ab3a53339" target="_top" xlink:title="Handles input redirection from a file.">
<polygon fill="white" stroke="#666666" points="342,-166 205,-166 205,-147 342,-147 342,-166"/>
<text text-anchor="middle" x="273.5" y="-154" font-family="Helvetica,sans-Serif" font-size="10.00">handle_input_redirection</text>
</a>
</g>
</g>
<!-- Node31&#45;&gt;Node34 -->
<g id="edge46_Node000031_Node000034" class="edge">
<title>Node31&#45;&gt;Node34</title>
<g id="a_edge46_Node000031_Node000034"><a xlink:title=" ">
<path fill="none" stroke="#63b8ff" d="M159.02,-156.5C169.39,-156.5 181.77,-156.5 194.48,-156.5"/>
<polygon fill="#63b8ff" stroke="#63b8ff" points="194.71,-160 204.71,-156.5 194.71,-153 194.71,-160"/>
</a>
</g>
</g>
<!-- Node32&#45;&gt;Node33 -->
<g id="edge44_Node000032_Node000033" class="edge">
<title>Node32&#45;&gt;Node33</title>
<g id="a_edge44_Node000032_Node000033"><a xlink:title=" ">
<path fill="none" stroke="#63b8ff" d="M319.84,-80.8C339.34,-80.93 362.09,-81.07 381.59,-81.2"/>
<polygon fill="#63b8ff" stroke="#63b8ff" points="381.73,-84.7 391.76,-81.27 381.78,-77.7 381.73,-84.7"/>
</a>
</g>
</g>
</g>
</svg>
