<?xml version="1.0" encoding="UTF-8" standalone="no"?>
<!DOCTYPE svg PUBLIC "-//W3C//DTD SVG 1.1//EN"
 "http://www.w3.org/Graphics/SVG/1.1/DTD/svg11.dtd">
<!-- Generated by graphviz version 2.43.0 (0)
 -->
<!-- Title: ft_delete_var Pages: 1 -->
<svg width="517pt" height="204pt"
 viewBox="0.00 0.00 517.00 204.00" xmlns="http://www.w3.org/2000/svg" xmlns:xlink="http://www.w3.org/1999/xlink">
<g id="graph0" class="graph" transform="scale(1 1) rotate(0) translate(4 200)">
<title>ft_delete_var</title>
<!-- Node1 -->
<g id="Node000001" class="node">
<title>Node1</title>
<g id="a_Node000001"><a xlink:title="Removes a variable from the environment.">
<polygon fill="#999999" stroke="#666666" points="80,-130 0,-130 0,-111 80,-111 80,-130"/>
<text text-anchor="middle" x="40" y="-118" font-family="Helvetica,sans-Serif" font-size="10.00">ft_delete_var</text>
</a>
</g>
</g>
<!-- Node2 -->
<g id="Node000002" class="node">
<title>Node2</title>
<g id="a_Node000002"><a xlink:href="unset_8c.html#ad9c56b69ee719b3000b39b3c873b4c44" target="_top" xlink:title="Copies all environment variables except the one to remove into new_env array.">
<polygon fill="white" stroke="#666666" points="194,-130 116,-130 116,-111 194,-111 194,-130"/>
<text text-anchor="middle" x="155" y="-118" font-family="Helvetica,sans-Serif" font-size="10.00">ft_for_delete</text>
</a>
</g>
</g>
<!-- Node1&#45;&gt;Node2 -->
<g id="edge1_Node000001_Node000002" class="edge">
<title>Node1&#45;&gt;Node2</title>
<g id="a_edge1_Node000001_Node000002"><a xlink:title=" ">
<path fill="none" stroke="#63b8ff" d="M80.2,-120.5C88.36,-120.5 97.05,-120.5 105.5,-120.5"/>
<polygon fill="#63b8ff" stroke="#63b8ff" points="105.63,-124 115.63,-120.5 105.63,-117 105.63,-124"/>
</a>
</g>
</g>
<!-- Node3 -->
<g id="Node000003" class="node">
<title>Node3</title>
<g id="a_Node000003"><a xlink:href="ft__free__matrix_8c.html#a1ea6d1f3b50d1c23d4f0faddd1a13448" target="_top" xlink:title="Frees a NULL&#45;terminated matrix of strings.">
<polygon fill="white" stroke="#666666" points="316,-196 230,-196 230,-177 316,-177 316,-196"/>
<text text-anchor="middle" x="273" y="-184" font-family="Helvetica,sans-Serif" font-size="10.00">ft_free_matrix</text>
</a>
</g>
</g>
<!-- Node1&#45;&gt;Node3 -->
<g id="edge11_Node000001_Node000003" class="edge">
<title>Node1&#45;&gt;Node3</title>
<g id="a_edge11_Node000001_Node000003"><a xlink:title=" ">
<path fill="none" stroke="#63b8ff" d="M74.59,-130.1C115.42,-141.76 184.4,-161.47 229.05,-174.23"/>
<polygon fill="#63b8ff" stroke="#63b8ff" points="228.17,-177.62 238.74,-177 230.09,-170.89 228.17,-177.62"/>
</a>
</g>
</g>
<!-- Node10 -->
<g id="Node000010" class="node">
<title>Node10</title>
<g id="a_Node000010"><a xlink:href="ft__strlcat_8c.html#a3ab017dd491d7327d1b4acbf1398b91e" target="_top" xlink:title="Returns the length of a null&#45;terminated string.">
<polygon fill="white" stroke="#666666" points="494,-19 462,-19 462,0 494,0 494,-19"/>
<text text-anchor="middle" x="478" y="-7" font-family="Helvetica,sans-Serif" font-size="10.00">len</text>
</a>
</g>
</g>
<!-- Node1&#45;&gt;Node10 -->
<g id="edge12_Node000001_Node000010" class="edge">
<title>Node1&#45;&gt;Node10</title>
<g id="a_edge12_Node000001_Node000010"><a xlink:title=" ">
<path fill="none" stroke="#63b8ff" d="M65.11,-110.92C100.7,-97.09 169.6,-71.42 230,-55.5 309.88,-34.45 406.75,-19.37 451.76,-12.95"/>
<polygon fill="#63b8ff" stroke="#63b8ff" points="452.38,-16.39 461.79,-11.54 451.4,-9.46 452.38,-16.39"/>
</a>
</g>
</g>
<!-- Node2&#45;&gt;Node3 -->
<g id="edge2_Node000002_Node000003" class="edge">
<title>Node2&#45;&gt;Node3</title>
<g id="a_edge2_Node000002_Node000003"><a xlink:title=" ">
<path fill="none" stroke="#63b8ff" d="M169.22,-130.06C183.71,-140.3 207.84,-156.68 230,-168.5 232.71,-169.95 235.57,-171.37 238.46,-172.74"/>
<polygon fill="#63b8ff" stroke="#63b8ff" points="237.13,-175.98 247.68,-176.91 240.01,-169.6 237.13,-175.98"/>
</a>
</g>
</g>
<!-- Node4 -->
<g id="Node000004" class="node">
<title>Node4</title>
<g id="a_Node000004"><a xlink:href="ft__strcmp_8c.html#a1f2ff2312e5994560c9537cd9173be94" target="_top" xlink:title="Compares two null&#45;terminated strings lexicographically.">
<polygon fill="white" stroke="#666666" points="304,-159 242,-159 242,-140 304,-140 304,-159"/>
<text text-anchor="middle" x="273" y="-147" font-family="Helvetica,sans-Serif" font-size="10.00">ft_strcmp</text>
</a>
</g>
</g>
<!-- Node2&#45;&gt;Node4 -->
<g id="edge3_Node000002_Node000004" class="edge">
<title>Node2&#45;&gt;Node4</title>
<g id="a_edge3_Node000002_Node000004"><a xlink:title=" ">
<path fill="none" stroke="#63b8ff" d="M194.3,-130.08C206.37,-133.09 219.72,-136.43 231.91,-139.48"/>
<polygon fill="#63b8ff" stroke="#63b8ff" points="231.26,-142.92 241.81,-141.95 232.96,-136.13 231.26,-142.92"/>
</a>
</g>
</g>
<!-- Node5 -->
<g id="Node000005" class="node">
<title>Node5</title>
<g id="a_Node000005"><a xlink:href="ft__strdup_8c.html#aebe73f27c70c56ac5053f860ef5436c9" target="_top" xlink:title="Duplicates a null&#45;terminated string by allocating memory.">
<polygon fill="white" stroke="#666666" points="507.5,-130 448.5,-130 448.5,-111 507.5,-111 507.5,-130"/>
<text text-anchor="middle" x="478" y="-118" font-family="Helvetica,sans-Serif" font-size="10.00">ft_strdup</text>
</a>
</g>
</g>
<!-- Node2&#45;&gt;Node5 -->
<g id="edge4_Node000002_Node000005" class="edge">
<title>Node2&#45;&gt;Node5</title>
<g id="a_edge4_Node000002_Node000005"><a xlink:title=" ">
<path fill="none" stroke="#63b8ff" d="M194.08,-120.5C255.62,-120.5 376.28,-120.5 438.25,-120.5"/>
<polygon fill="#63b8ff" stroke="#63b8ff" points="438.39,-124 448.39,-120.5 438.39,-117 438.39,-124"/>
</a>
</g>
</g>
<!-- Node6 -->
<g id="Node000006" class="node">
<title>Node6</title>
<g id="a_Node000006"><a xlink:href="utils__env__pt2_8c.html#a347832cde8b1beaad47f03caa3af78f0" target="_top" xlink:title="Extracts the variable name from a &quot;KEY=VALUE&quot; string.">
<polygon fill="white" stroke="#666666" points="316,-83 230,-83 230,-64 316,-64 316,-83"/>
<text text-anchor="middle" x="273" y="-71" font-family="Helvetica,sans-Serif" font-size="10.00">get_var_name</text>
</a>
</g>
</g>
<!-- Node2&#45;&gt;Node6 -->
<g id="edge5_Node000002_Node000006" class="edge">
<title>Node2&#45;&gt;Node6</title>
<g id="a_edge5_Node000002_Node000006"><a xlink:title=" ">
<path fill="none" stroke="#63b8ff" d="M179.47,-110.99C196.5,-104.09 219.77,-94.66 238.71,-86.99"/>
<polygon fill="#63b8ff" stroke="#63b8ff" points="240.21,-90.16 248.16,-83.16 237.58,-83.67 240.21,-90.16"/>
</a>
</g>
</g>
<!-- Node7 -->
<g id="Node000007" class="node">
<title>Node7</title>
<g id="a_Node000007"><a xlink:href="ft__substr_8c.html#a78c402cbf3d55b1374693c3b7d34f71d" target="_top" xlink:title="Extracts a substring from a given string.">
<polygon fill="white" stroke="#666666" points="411,-83 352,-83 352,-64 411,-64 411,-83"/>
<text text-anchor="middle" x="381.5" y="-71" font-family="Helvetica,sans-Serif" font-size="10.00">ft_substr</text>
</a>
</g>
</g>
<!-- Node6&#45;&gt;Node7 -->
<g id="edge6_Node000006_Node000007" class="edge">
<title>Node6&#45;&gt;Node7</title>
<g id="a_edge6_Node000006_Node000007"><a xlink:title=" ">
<path fill="none" stroke="#63b8ff" d="M316.09,-73.5C324.51,-73.5 333.32,-73.5 341.63,-73.5"/>
<polygon fill="#63b8ff" stroke="#63b8ff" points="341.82,-77 351.82,-73.5 341.82,-70 341.82,-77"/>
</a>
</g>
</g>
<!-- Node7&#45;&gt;Node5 -->
<g id="edge7_Node000007_Node000005" class="edge">
<title>Node7&#45;&gt;Node5</title>
<g id="a_edge7_Node000007_Node000005"><a xlink:title=" ">
<path fill="none" stroke="#63b8ff" d="M401.62,-83.01C415.11,-89.72 433.41,-98.82 448.6,-106.37"/>
<polygon fill="#63b8ff" stroke="#63b8ff" points="447.07,-109.52 457.58,-110.84 450.19,-103.25 447.07,-109.52"/>
</a>
</g>
</g>
<!-- Node8 -->
<g id="Node000008" class="node">
<title>Node8</title>
<g id="a_Node000008"><a xlink:href="ft__strlcpy_8c.html#aa053827b3a2ea3d0118783d6fb59d178" target="_top" xlink:title="Copies up to size &#45; 1 characters from the string src to dst, null&#45;terminating the result.">
<polygon fill="white" stroke="#666666" points="509,-93 447,-93 447,-74 509,-74 509,-93"/>
<text text-anchor="middle" x="478" y="-81" font-family="Helvetica,sans-Serif" font-size="10.00">ft_strlcpy</text>
</a>
</g>
</g>
<!-- Node7&#45;&gt;Node8 -->
<g id="edge8_Node000007_Node000008" class="edge">
<title>Node7&#45;&gt;Node8</title>
<g id="a_edge8_Node000007_Node000008"><a xlink:title=" ">
<path fill="none" stroke="#63b8ff" d="M411.11,-76.53C419.23,-77.39 428.23,-78.34 436.9,-79.26"/>
<polygon fill="#63b8ff" stroke="#63b8ff" points="436.54,-82.74 446.85,-80.31 437.27,-75.78 436.54,-82.74"/>
</a>
</g>
</g>
<!-- Node9 -->
<g id="Node000009" class="node">
<title>Node9</title>
<g id="a_Node000009"><a xlink:href="ft__strlen_8c.html#a828402378653640f545a4be2e00e92f9" target="_top" xlink:title="Calculates the length of a null&#45;terminated string.">
<polygon fill="white" stroke="#666666" points="506,-56 450,-56 450,-37 506,-37 506,-56"/>
<text text-anchor="middle" x="478" y="-44" font-family="Helvetica,sans-Serif" font-size="10.00">ft_strlen</text>
</a>
</g>
</g>
<!-- Node7&#45;&gt;Node9 -->
<g id="edge9_Node000007_Node000009" class="edge">
<title>Node7&#45;&gt;Node9</title>
<g id="a_edge9_Node000007_Node000009"><a xlink:title=" ">
<path fill="none" stroke="#63b8ff" d="M411.11,-65.33C420.22,-62.72 430.43,-59.8 440.05,-57.06"/>
<polygon fill="#63b8ff" stroke="#63b8ff" points="441.13,-60.39 449.78,-54.28 439.21,-53.66 441.13,-60.39"/>
</a>
</g>
</g>
<!-- Node7&#45;&gt;Node10 -->
<g id="edge10_Node000007_Node000010" class="edge">
<title>Node7&#45;&gt;Node10</title>
<g id="a_edge10_Node000007_Node000010"><a xlink:title=" ">
<path fill="none" stroke="#63b8ff" d="M395.63,-63.67C408.51,-54.14 428.82,-39.41 447,-27.5 448.94,-26.23 450.97,-24.94 453.02,-23.66"/>
<polygon fill="#63b8ff" stroke="#63b8ff" points="455.18,-26.44 461.9,-18.24 451.54,-20.46 455.18,-26.44"/>
</a>
</g>
</g>
</g>
</svg>
