<?xml version="1.0" encoding="UTF-8" standalone="no"?>
<!DOCTYPE svg PUBLIC "-//W3C//DTD SVG 1.1//EN"
 "http://www.w3.org/Graphics/SVG/1.1/DTD/svg11.dtd">
<!-- Generated by graphviz version 2.43.0 (0)
 -->
<!-- Title: ft_find_unset_var Pages: 1 -->
<svg width="423pt" height="138pt"
 viewBox="0.00 0.00 423.00 138.00" xmlns="http://www.w3.org/2000/svg" xmlns:xlink="http://www.w3.org/1999/xlink">
<g id="graph0" class="graph" transform="scale(1 1) rotate(0) translate(4 134)">
<title>ft_find_unset_var</title>
<!-- Node1 -->
<g id="Node000001" class="node">
<title>Node1</title>
<g id="a_Node000001"><a xlink:title="Finds the index of a variable in the environment.">
<polygon fill="#999999" stroke="#666666" points="100,-92 0,-92 0,-73 100,-73 100,-92"/>
<text text-anchor="middle" x="50" y="-80" font-family="Helvetica,sans-Serif" font-size="10.00">ft_find_unset_var</text>
</a>
</g>
</g>
<!-- Node2 -->
<g id="Node000002" class="node">
<title>Node2</title>
<g id="a_Node000002"><a xlink:href="ft__strcmp_8c.html#a1f2ff2312e5994560c9537cd9173be94" target="_top" xlink:title="Compares two null&#45;terminated strings lexicographically.">
<polygon fill="white" stroke="#666666" points="210,-111 148,-111 148,-92 210,-92 210,-111"/>
<text text-anchor="middle" x="179" y="-99" font-family="Helvetica,sans-Serif" font-size="10.00">ft_strcmp</text>
</a>
</g>
</g>
<!-- Node1&#45;&gt;Node2 -->
<g id="edge1_Node000001_Node000002" class="edge">
<title>Node1&#45;&gt;Node2</title>
<g id="a_edge1_Node000001_Node000002"><a xlink:title=" ">
<path fill="none" stroke="#63b8ff" d="M100.1,-89.85C112.52,-91.7 125.71,-93.68 137.64,-95.46"/>
<polygon fill="#63b8ff" stroke="#63b8ff" points="137.34,-98.96 147.75,-96.97 138.38,-92.03 137.34,-98.96"/>
</a>
</g>
</g>
<!-- Node3 -->
<g id="Node000003" class="node">
<title>Node3</title>
<g id="a_Node000003"><a xlink:href="utils__env__pt2_8c.html#a347832cde8b1beaad47f03caa3af78f0" target="_top" xlink:title="Extracts the variable name from a &quot;KEY=VALUE&quot; string.">
<polygon fill="white" stroke="#666666" points="222,-74 136,-74 136,-55 222,-55 222,-74"/>
<text text-anchor="middle" x="179" y="-62" font-family="Helvetica,sans-Serif" font-size="10.00">get_var_name</text>
</a>
</g>
</g>
<!-- Node1&#45;&gt;Node3 -->
<g id="edge2_Node000001_Node000003" class="edge">
<title>Node1&#45;&gt;Node3</title>
<g id="a_edge2_Node000001_Node000003"><a xlink:title=" ">
<path fill="none" stroke="#63b8ff" d="M100.1,-75.54C108.44,-74.36 117.12,-73.13 125.54,-71.93"/>
<polygon fill="#63b8ff" stroke="#63b8ff" points="126.23,-75.37 135.64,-70.5 125.25,-68.44 126.23,-75.37"/>
</a>
</g>
</g>
<!-- Node4 -->
<g id="Node000004" class="node">
<title>Node4</title>
<g id="a_Node000004"><a xlink:href="ft__substr_8c.html#a78c402cbf3d55b1374693c3b7d34f71d" target="_top" xlink:title="Extracts a substring from a given string.">
<polygon fill="white" stroke="#666666" points="317,-74 258,-74 258,-55 317,-55 317,-74"/>
<text text-anchor="middle" x="287.5" y="-62" font-family="Helvetica,sans-Serif" font-size="10.00">ft_substr</text>
</a>
</g>
</g>
<!-- Node3&#45;&gt;Node4 -->
<g id="edge3_Node000003_Node000004" class="edge">
<title>Node3&#45;&gt;Node4</title>
<g id="a_edge3_Node000003_Node000004"><a xlink:title=" ">
<path fill="none" stroke="#63b8ff" d="M222.09,-64.5C230.51,-64.5 239.32,-64.5 247.63,-64.5"/>
<polygon fill="#63b8ff" stroke="#63b8ff" points="247.82,-68 257.82,-64.5 247.82,-61 247.82,-68"/>
</a>
</g>
</g>
<!-- Node5 -->
<g id="Node000005" class="node">
<title>Node5</title>
<g id="a_Node000005"><a xlink:href="ft__strdup_8c.html#aebe73f27c70c56ac5053f860ef5436c9" target="_top" xlink:title="Duplicates a null&#45;terminated string by allocating memory.">
<polygon fill="white" stroke="#666666" points="413.5,-130 354.5,-130 354.5,-111 413.5,-111 413.5,-130"/>
<text text-anchor="middle" x="384" y="-118" font-family="Helvetica,sans-Serif" font-size="10.00">ft_strdup</text>
</a>
</g>
</g>
<!-- Node4&#45;&gt;Node5 -->
<g id="edge4_Node000004_Node000005" class="edge">
<title>Node4&#45;&gt;Node5</title>
<g id="a_edge4_Node000004_Node000005"><a xlink:title=" ">
<path fill="none" stroke="#63b8ff" d="M304.96,-74.25C319.6,-82.93 341.21,-95.74 357.98,-105.68"/>
<polygon fill="#63b8ff" stroke="#63b8ff" points="356.34,-108.77 366.73,-110.86 359.91,-102.75 356.34,-108.77"/>
</a>
</g>
</g>
<!-- Node6 -->
<g id="Node000006" class="node">
<title>Node6</title>
<g id="a_Node000006"><a xlink:href="ft__strlcpy_8c.html#aa053827b3a2ea3d0118783d6fb59d178" target="_top" xlink:title="Copies up to size &#45; 1 characters from the string src to dst, null&#45;terminating the result.">
<polygon fill="white" stroke="#666666" points="415,-93 353,-93 353,-74 415,-74 415,-93"/>
<text text-anchor="middle" x="384" y="-81" font-family="Helvetica,sans-Serif" font-size="10.00">ft_strlcpy</text>
</a>
</g>
</g>
<!-- Node4&#45;&gt;Node6 -->
<g id="edge5_Node000004_Node000006" class="edge">
<title>Node4&#45;&gt;Node6</title>
<g id="a_edge5_Node000004_Node000006"><a xlink:title=" ">
<path fill="none" stroke="#63b8ff" d="M317.11,-70.25C325.23,-71.89 334.23,-73.69 342.9,-75.44"/>
<polygon fill="#63b8ff" stroke="#63b8ff" points="342.35,-78.9 352.85,-77.44 343.73,-72.04 342.35,-78.9"/>
</a>
</g>
</g>
<!-- Node7 -->
<g id="Node000007" class="node">
<title>Node7</title>
<g id="a_Node000007"><a xlink:href="ft__strlen_8c.html#a828402378653640f545a4be2e00e92f9" target="_top" xlink:title="Calculates the length of a null&#45;terminated string.">
<polygon fill="white" stroke="#666666" points="412,-56 356,-56 356,-37 412,-37 412,-56"/>
<text text-anchor="middle" x="384" y="-44" font-family="Helvetica,sans-Serif" font-size="10.00">ft_strlen</text>
</a>
</g>
</g>
<!-- Node4&#45;&gt;Node7 -->
<g id="edge6_Node000004_Node000007" class="edge">
<title>Node4&#45;&gt;Node7</title>
<g id="a_edge6_Node000004_Node000007"><a xlink:title=" ">
<path fill="none" stroke="#63b8ff" d="M317.11,-59.05C326.13,-57.33 336.22,-55.41 345.75,-53.6"/>
<polygon fill="#63b8ff" stroke="#63b8ff" points="346.61,-56.99 355.78,-51.68 345.3,-50.12 346.61,-56.99"/>
</a>
</g>
</g>
<!-- Node8 -->
<g id="Node000008" class="node">
<title>Node8</title>
<g id="a_Node000008"><a xlink:href="ft__strlcat_8c.html#a3ab017dd491d7327d1b4acbf1398b91e" target="_top" xlink:title="Returns the length of a null&#45;terminated string.">
<polygon fill="white" stroke="#666666" points="400,-19 368,-19 368,0 400,0 400,-19"/>
<text text-anchor="middle" x="384" y="-7" font-family="Helvetica,sans-Serif" font-size="10.00">len</text>
</a>
</g>
</g>
<!-- Node4&#45;&gt;Node8 -->
<g id="edge7_Node000004_Node000008" class="edge">
<title>Node4&#45;&gt;Node8</title>
<g id="a_edge7_Node000004_Node000008"><a xlink:title=" ">
<path fill="none" stroke="#63b8ff" d="M304.96,-54.92C319.95,-46.19 342.27,-33.21 359.2,-23.35"/>
<polygon fill="#63b8ff" stroke="#63b8ff" points="361.09,-26.3 367.97,-18.25 357.57,-20.25 361.09,-26.3"/>
</a>
</g>
</g>
</g>
</svg>
