<?xml version="1.0" encoding="UTF-8" standalone="no"?>
<!DOCTYPE svg PUBLIC "-//W3C//DTD SVG 1.1//EN"
 "http://www.w3.org/Graphics/SVG/1.1/DTD/svg11.dtd">
<!-- Generated by graphviz version 2.43.0 (0)
 -->
<!-- Title: exe_unset Pages: 1 -->
<svg width="743pt" height="416pt"
 viewBox="0.00 0.00 743.00 416.00" xmlns="http://www.w3.org/2000/svg" xmlns:xlink="http://www.w3.org/1999/xlink">
<g id="graph0" class="graph" transform="scale(1 1) rotate(0) translate(4 412)">
<title>exe_unset</title>
<!-- Node1 -->
<g id="Node000001" class="node">
<title>Node1</title>
<g id="a_Node000001"><a xlink:title="Executes the unset operation on a single argument.">
<polygon fill="#999999" stroke="#666666" points="66,-258 0,-258 0,-239 66,-239 66,-258"/>
<text text-anchor="middle" x="33" y="-246" font-family="Helvetica,sans-Serif" font-size="10.00">exe_unset</text>
</a>
</g>
</g>
<!-- Node2 -->
<g id="Node000002" class="node">
<title>Node2</title>
<g id="a_Node000002"><a xlink:href="unset_8c.html#a6a5b46a0f90a47ceea95d80b8605ad87" target="_top" xlink:title="Removes a variable from the environment.">
<polygon fill="white" stroke="#666666" points="195.5,-371 115.5,-371 115.5,-352 195.5,-352 195.5,-371"/>
<text text-anchor="middle" x="155.5" y="-359" font-family="Helvetica,sans-Serif" font-size="10.00">ft_delete_var</text>
</a>
</g>
</g>
<!-- Node1&#45;&gt;Node2 -->
<g id="edge1_Node000001_Node000002" class="edge">
<title>Node1&#45;&gt;Node2</title>
<g id="a_edge1_Node000001_Node000002"><a xlink:title=" ">
<path fill="none" stroke="#63b8ff" d="M44.27,-258.13C64.82,-277.4 111.17,-320.87 136.74,-344.85"/>
<polygon fill="#63b8ff" stroke="#63b8ff" points="134.56,-347.6 144.25,-351.89 139.35,-342.5 134.56,-347.6"/>
</a>
</g>
</g>
<!-- Node12 -->
<g id="Node000012" class="node">
<title>Node12</title>
<g id="a_Node000012"><a xlink:href="unset_8c.html#a1f4492a754a8735a053adc61c57f6692" target="_top" xlink:title="Finds the index of a variable in the environment.">
<polygon fill="white" stroke="#666666" points="345,-277 245,-277 245,-258 345,-258 345,-277"/>
<text text-anchor="middle" x="295" y="-265" font-family="Helvetica,sans-Serif" font-size="10.00">ft_find_unset_var</text>
</a>
</g>
</g>
<!-- Node1&#45;&gt;Node12 -->
<g id="edge14_Node000001_Node000012" class="edge">
<title>Node1&#45;&gt;Node12</title>
<g id="a_edge14_Node000001_Node000012"><a xlink:title=" ">
<path fill="none" stroke="#63b8ff" d="M66.14,-250.85C108.05,-253.91 182.16,-259.33 234.46,-263.15"/>
<polygon fill="#63b8ff" stroke="#63b8ff" points="234.38,-266.65 244.61,-263.89 234.89,-259.67 234.38,-266.65"/>
</a>
</g>
</g>
<!-- Node13 -->
<g id="Node000013" class="node">
<title>Node13</title>
<g id="a_Node000013"><a xlink:href="ft__printf_8c.html#a091532b7f37af84bdecc84dccf4eedb1" target="_top" xlink:title="A simplified printf function that outputs formatted data to a given file descriptor.">
<polygon fill="white" stroke="#666666" points="183,-239 128,-239 128,-220 183,-220 183,-239"/>
<text text-anchor="middle" x="155.5" y="-227" font-family="Helvetica,sans-Serif" font-size="10.00">ft_printf</text>
</a>
</g>
</g>
<!-- Node1&#45;&gt;Node13 -->
<g id="edge17_Node000001_Node000013" class="edge">
<title>Node1&#45;&gt;Node13</title>
<g id="a_edge17_Node000001_Node000013"><a xlink:title=" ">
<path fill="none" stroke="#63b8ff" d="M66.29,-243.41C82.08,-240.92 101.15,-237.91 117.52,-235.33"/>
<polygon fill="#63b8ff" stroke="#63b8ff" points="118.49,-238.72 127.82,-233.71 117.39,-231.81 118.49,-238.72"/>
</a>
</g>
</g>
<!-- Node23 -->
<g id="Node000023" class="node">
<title>Node23</title>
<g id="a_Node000023"><a xlink:href="utils__export__unset_8c.html#ad79b1c3a9dc66c11e0066ba43dcb0eb2" target="_top" xlink:title="Checks if the argument passed to unset is valid.">
<polygon fill="white" stroke="#666666" points="209,-130 102,-130 102,-111 209,-111 209,-130"/>
<text text-anchor="middle" x="155.5" y="-118" font-family="Helvetica,sans-Serif" font-size="10.00">is_valid_unset_arg</text>
</a>
</g>
</g>
<!-- Node1&#45;&gt;Node23 -->
<g id="edge32_Node000001_Node000023" class="edge">
<title>Node1&#45;&gt;Node23</title>
<g id="a_edge32_Node000001_Node000023"><a xlink:title=" ">
<path fill="none" stroke="#63b8ff" d="M43.06,-238.88C63.29,-217.38 112.42,-165.2 138.16,-137.86"/>
<polygon fill="#63b8ff" stroke="#63b8ff" points="141.03,-139.91 145.34,-130.23 135.93,-135.11 141.03,-139.91"/>
</a>
</g>
</g>
<!-- Node3 -->
<g id="Node000003" class="node">
<title>Node3</title>
<g id="a_Node000003"><a xlink:href="unset_8c.html#ad9c56b69ee719b3000b39b3c873b4c44" target="_top" xlink:title="Copies all environment variables except the one to remove into new_env array.">
<polygon fill="white" stroke="#666666" points="334,-352 256,-352 256,-333 334,-333 334,-352"/>
<text text-anchor="middle" x="295" y="-340" font-family="Helvetica,sans-Serif" font-size="10.00">ft_for_delete</text>
</a>
</g>
</g>
<!-- Node2&#45;&gt;Node3 -->
<g id="edge2_Node000002_Node000003" class="edge">
<title>Node2&#45;&gt;Node3</title>
<g id="a_edge2_Node000002_Node000003"><a xlink:title=" ">
<path fill="none" stroke="#63b8ff" d="M195.53,-356.11C211.18,-353.94 229.37,-351.43 245.83,-349.16"/>
<polygon fill="#63b8ff" stroke="#63b8ff" points="246.39,-352.61 255.82,-347.78 245.43,-345.68 246.39,-352.61"/>
</a>
</g>
</g>
<!-- Node4 -->
<g id="Node000004" class="node">
<title>Node4</title>
<g id="a_Node000004"><a xlink:href="ft__free__matrix_8c.html#a1ea6d1f3b50d1c23d4f0faddd1a13448" target="_top" xlink:title="Frees a NULL&#45;terminated matrix of strings.">
<polygon fill="white" stroke="#666666" points="479,-390 393,-390 393,-371 479,-371 479,-390"/>
<text text-anchor="middle" x="436" y="-378" font-family="Helvetica,sans-Serif" font-size="10.00">ft_free_matrix</text>
</a>
</g>
</g>
<!-- Node2&#45;&gt;Node4 -->
<g id="edge12_Node000002_Node000004" class="edge">
<title>Node2&#45;&gt;Node4</title>
<g id="a_edge12_Node000002_Node000004"><a xlink:title=" ">
<path fill="none" stroke="#63b8ff" d="M195.52,-364.16C244.32,-367.49 328.06,-373.2 382.46,-376.92"/>
<polygon fill="#63b8ff" stroke="#63b8ff" points="382.39,-380.42 392.6,-377.61 382.86,-373.43 382.39,-380.42"/>
</a>
</g>
</g>
<!-- Node11 -->
<g id="Node000011" class="node">
<title>Node11</title>
<g id="a_Node000011"><a xlink:href="ft__strlcat_8c.html#a3ab017dd491d7327d1b4acbf1398b91e" target="_top" xlink:title="Returns the length of a null&#45;terminated string.">
<polygon fill="white" stroke="#666666" points="720,-408 688,-408 688,-389 720,-389 720,-408"/>
<text text-anchor="middle" x="704" y="-396" font-family="Helvetica,sans-Serif" font-size="10.00">len</text>
</a>
</g>
</g>
<!-- Node2&#45;&gt;Node11 -->
<g id="edge13_Node000002_Node000011" class="edge">
<title>Node2&#45;&gt;Node11</title>
<g id="a_edge13_Node000002_Node000011"><a xlink:title=" ">
<path fill="none" stroke="#63b8ff" d="M188.62,-371.04C205.3,-375.69 226.11,-381.02 245,-384.5 407.64,-414.44 608.14,-404.99 677.77,-400.38"/>
<polygon fill="#63b8ff" stroke="#63b8ff" points="678.07,-403.86 687.8,-399.68 677.58,-396.88 678.07,-403.86"/>
</a>
</g>
</g>
<!-- Node3&#45;&gt;Node4 -->
<g id="edge3_Node000003_Node000004" class="edge">
<title>Node3&#45;&gt;Node4</title>
<g id="a_edge3_Node000003_Node000004"><a xlink:title=" ">
<path fill="none" stroke="#63b8ff" d="M331.08,-352.09C349.02,-356.99 371.06,-363.02 390.22,-368.26"/>
<polygon fill="#63b8ff" stroke="#63b8ff" points="389.37,-371.65 399.94,-370.91 391.21,-364.9 389.37,-371.65"/>
</a>
</g>
</g>
<!-- Node5 -->
<g id="Node000005" class="node">
<title>Node5</title>
<g id="a_Node000005"><a xlink:href="ft__strcmp_8c.html#a1f2ff2312e5994560c9537cd9173be94" target="_top" xlink:title="Compares two null&#45;terminated strings lexicographically.">
<polygon fill="white" stroke="#666666" points="467,-314 405,-314 405,-295 467,-295 467,-314"/>
<text text-anchor="middle" x="436" y="-302" font-family="Helvetica,sans-Serif" font-size="10.00">ft_strcmp</text>
</a>
</g>
</g>
<!-- Node3&#45;&gt;Node5 -->
<g id="edge4_Node000003_Node000005" class="edge">
<title>Node3&#45;&gt;Node5</title>
<g id="a_edge4_Node000003_Node000005"><a xlink:title=" ">
<path fill="none" stroke="#63b8ff" d="M331.08,-332.91C350.48,-327.61 374.67,-320.99 394.83,-315.48"/>
<polygon fill="#63b8ff" stroke="#63b8ff" points="395.93,-318.81 404.66,-312.8 394.09,-312.06 395.93,-318.81"/>
</a>
</g>
</g>
<!-- Node6 -->
<g id="Node000006" class="node">
<title>Node6</title>
<g id="a_Node000006"><a xlink:href="ft__strdup_8c.html#aebe73f27c70c56ac5053f860ef5436c9" target="_top" xlink:title="Duplicates a null&#45;terminated string by allocating memory.">
<polygon fill="white" stroke="#666666" points="733.5,-351 674.5,-351 674.5,-332 733.5,-332 733.5,-351"/>
<text text-anchor="middle" x="704" y="-339" font-family="Helvetica,sans-Serif" font-size="10.00">ft_strdup</text>
</a>
</g>
</g>
<!-- Node3&#45;&gt;Node6 -->
<g id="edge5_Node000003_Node000006" class="edge">
<title>Node3&#45;&gt;Node6</title>
<g id="a_edge5_Node000003_Node000006"><a xlink:title=" ">
<path fill="none" stroke="#63b8ff" d="M334.29,-342.41C411.68,-342.22 585.98,-341.79 663.98,-341.6"/>
<polygon fill="#63b8ff" stroke="#63b8ff" points="664.34,-345.1 674.33,-341.57 664.32,-338.1 664.34,-345.1"/>
</a>
</g>
</g>
<!-- Node7 -->
<g id="Node000007" class="node">
<title>Node7</title>
<g id="a_Node000007"><a xlink:href="utils__env__pt2_8c.html#a347832cde8b1beaad47f03caa3af78f0" target="_top" xlink:title="Extracts the variable name from a &quot;KEY=VALUE&quot; string.">
<polygon fill="white" stroke="#666666" points="479,-277 393,-277 393,-258 479,-258 479,-277"/>
<text text-anchor="middle" x="436" y="-265" font-family="Helvetica,sans-Serif" font-size="10.00">get_var_name</text>
</a>
</g>
</g>
<!-- Node3&#45;&gt;Node7 -->
<g id="edge6_Node000003_Node000007" class="edge">
<title>Node3&#45;&gt;Node7</title>
<g id="a_edge6_Node000003_Node000007"><a xlink:title=" ">
<path fill="none" stroke="#63b8ff" d="M308.37,-332.94C324.42,-320.88 353.61,-300.08 381,-286.5 385.12,-284.46 389.51,-282.53 393.94,-280.75"/>
<polygon fill="#63b8ff" stroke="#63b8ff" points="395.51,-283.9 403.62,-277.08 393.03,-277.35 395.51,-283.9"/>
</a>
</g>
</g>
<!-- Node8 -->
<g id="Node000008" class="node">
<title>Node8</title>
<g id="a_Node000008"><a xlink:href="ft__substr_8c.html#a78c402cbf3d55b1374693c3b7d34f71d" target="_top" xlink:title="Extracts a substring from a given string.">
<polygon fill="white" stroke="#666666" points="611.5,-314 552.5,-314 552.5,-295 611.5,-295 611.5,-314"/>
<text text-anchor="middle" x="582" y="-302" font-family="Helvetica,sans-Serif" font-size="10.00">ft_substr</text>
</a>
</g>
</g>
<!-- Node7&#45;&gt;Node8 -->
<g id="edge7_Node000007_Node000008" class="edge">
<title>Node7&#45;&gt;Node8</title>
<g id="a_edge7_Node000007_Node000008"><a xlink:title=" ">
<path fill="none" stroke="#63b8ff" d="M474.08,-277.03C494.99,-282.4 521.09,-289.11 542.27,-294.55"/>
<polygon fill="#63b8ff" stroke="#63b8ff" points="541.67,-298.01 552.22,-297.11 543.41,-291.23 541.67,-298.01"/>
</a>
</g>
</g>
<!-- Node8&#45;&gt;Node6 -->
<g id="edge8_Node000008_Node000006" class="edge">
<title>Node8&#45;&gt;Node6</title>
<g id="a_edge8_Node000008_Node000006"><a xlink:title=" ">
<path fill="none" stroke="#63b8ff" d="M611.74,-313.36C627.62,-318.26 647.56,-324.41 664.74,-329.7"/>
<polygon fill="#63b8ff" stroke="#63b8ff" points="663.9,-333.11 674.49,-332.71 665.97,-326.42 663.9,-333.11"/>
</a>
</g>
</g>
<!-- Node9 -->
<g id="Node000009" class="node">
<title>Node9</title>
<g id="a_Node000009"><a xlink:href="ft__strlcpy_8c.html#aa053827b3a2ea3d0118783d6fb59d178" target="_top" xlink:title="Copies up to size &#45; 1 characters from the string src to dst, null&#45;terminating the result.">
<polygon fill="white" stroke="#666666" points="735,-277 673,-277 673,-258 735,-258 735,-277"/>
<text text-anchor="middle" x="704" y="-265" font-family="Helvetica,sans-Serif" font-size="10.00">ft_strlcpy</text>
</a>
</g>
</g>
<!-- Node8&#45;&gt;Node9 -->
<g id="edge9_Node000008_Node000009" class="edge">
<title>Node8&#45;&gt;Node9</title>
<g id="a_edge9_Node000008_Node000009"><a xlink:title=" ">
<path fill="none" stroke="#63b8ff" d="M611.74,-295.64C627.16,-290.88 646.4,-284.95 663.23,-279.76"/>
<polygon fill="#63b8ff" stroke="#63b8ff" points="664.29,-283.1 672.82,-276.81 662.23,-276.41 664.29,-283.1"/>
</a>
</g>
</g>
<!-- Node10 -->
<g id="Node000010" class="node">
<title>Node10</title>
<g id="a_Node000010"><a xlink:href="ft__strlen_8c.html#a828402378653640f545a4be2e00e92f9" target="_top" xlink:title="Calculates the length of a null&#45;terminated string.">
<polygon fill="white" stroke="#666666" points="732,-314 676,-314 676,-295 732,-295 732,-314"/>
<text text-anchor="middle" x="704" y="-302" font-family="Helvetica,sans-Serif" font-size="10.00">ft_strlen</text>
</a>
</g>
</g>
<!-- Node8&#45;&gt;Node10 -->
<g id="edge10_Node000008_Node000010" class="edge">
<title>Node8&#45;&gt;Node10</title>
<g id="a_edge10_Node000008_Node000010"><a xlink:title=" ">
<path fill="none" stroke="#63b8ff" d="M611.74,-304.5C627.82,-304.5 648.05,-304.5 665.38,-304.5"/>
<polygon fill="#63b8ff" stroke="#63b8ff" points="665.73,-308 675.73,-304.5 665.73,-301 665.73,-308"/>
</a>
</g>
</g>
<!-- Node8&#45;&gt;Node11 -->
<g id="edge11_Node000008_Node000011" class="edge">
<title>Node8&#45;&gt;Node11</title>
<g id="a_edge11_Node000008_Node000011"><a xlink:title=" ">
<path fill="none" stroke="#63b8ff" d="M595.39,-314.21C616.07,-330.4 657.8,-363.09 682.78,-382.66"/>
<polygon fill="#63b8ff" stroke="#63b8ff" points="680.83,-385.58 690.86,-388.99 685.14,-380.07 680.83,-385.58"/>
</a>
</g>
</g>
<!-- Node12&#45;&gt;Node5 -->
<g id="edge15_Node000012_Node000005" class="edge">
<title>Node12&#45;&gt;Node5</title>
<g id="a_edge15_Node000012_Node000005"><a xlink:title=" ">
<path fill="none" stroke="#63b8ff" d="M331.8,-277.03C351.2,-282.19 375.23,-288.59 395.22,-293.91"/>
<polygon fill="#63b8ff" stroke="#63b8ff" points="394.4,-297.31 404.96,-296.51 396.2,-290.55 394.4,-297.31"/>
</a>
</g>
</g>
<!-- Node12&#45;&gt;Node7 -->
<g id="edge16_Node000012_Node000007" class="edge">
<title>Node12&#45;&gt;Node7</title>
<g id="a_edge16_Node000012_Node000007"><a xlink:title=" ">
<path fill="none" stroke="#63b8ff" d="M345.01,-267.5C357.22,-267.5 370.36,-267.5 382.72,-267.5"/>
<polygon fill="#63b8ff" stroke="#63b8ff" points="382.89,-271 392.89,-267.5 382.89,-264 382.89,-271"/>
</a>
</g>
</g>
<!-- Node14 -->
<g id="Node000014" class="node">
<title>Node14</title>
<g id="a_Node000014"><a xlink:href="ft__printf_8c.html#a80c1c206dcd33d07c265581878aaa300" target="_top" xlink:title="Processes a single format specifier and prints the corresponding argument.">
<polygon fill="white" stroke="#666666" points="336.5,-167 253.5,-167 253.5,-148 336.5,-148 336.5,-167"/>
<text text-anchor="middle" x="295" y="-155" font-family="Helvetica,sans-Serif" font-size="10.00">check_format</text>
</a>
</g>
</g>
<!-- Node13&#45;&gt;Node14 -->
<g id="edge18_Node000013_Node000014" class="edge">
<title>Node13&#45;&gt;Node14</title>
<g id="a_edge18_Node000013_Node000014"><a xlink:title=" ">
<path fill="none" stroke="#63b8ff" d="M174.76,-219.94C198.28,-207.62 239.39,-186.1 266.65,-171.82"/>
<polygon fill="#63b8ff" stroke="#63b8ff" points="268.43,-174.84 275.67,-167.1 265.18,-168.64 268.43,-174.84"/>
</a>
</g>
</g>
<!-- Node18 -->
<g id="Node000018" class="node">
<title>Node18</title>
<g id="a_Node000018"><a xlink:href="ft__putchar__fd_8c.html#a03ef80b25dc4a521379fa92ad97bad21" target="_top" xlink:title="Writes a single character to the specified file descriptor.">
<polygon fill="white" stroke="#666666" points="476,-240 396,-240 396,-221 476,-221 476,-240"/>
<text text-anchor="middle" x="436" y="-228" font-family="Helvetica,sans-Serif" font-size="10.00">ft_putchar_fd</text>
</a>
</g>
</g>
<!-- Node13&#45;&gt;Node18 -->
<g id="edge31_Node000013_Node000018" class="edge">
<title>Node13&#45;&gt;Node18</title>
<g id="a_edge31_Node000013_Node000018"><a xlink:title=" ">
<path fill="none" stroke="#63b8ff" d="M183.2,-229.6C229.83,-229.76 326.72,-230.11 385.78,-230.32"/>
<polygon fill="#63b8ff" stroke="#63b8ff" points="385.98,-233.82 395.99,-230.36 386.01,-226.82 385.98,-233.82"/>
</a>
</g>
</g>
<!-- Node15 -->
<g id="Node000015" class="node">
<title>Node15</title>
<g id="a_Node000015"><a xlink:href="ft__forpointer_8c.html#a8e02c77b80406af72327ebf71f537786" target="_top" xlink:title="Prints a pointer in hexadecimal format prefixed with &quot;0x&quot;.">
<polygon fill="white" stroke="#666666" points="474.5,-74 397.5,-74 397.5,-55 474.5,-55 474.5,-74"/>
<text text-anchor="middle" x="436" y="-62" font-family="Helvetica,sans-Serif" font-size="10.00">ft_forpointer</text>
</a>
</g>
</g>
<!-- Node14&#45;&gt;Node15 -->
<g id="edge19_Node000014_Node000015" class="edge">
<title>Node14&#45;&gt;Node15</title>
<g id="a_edge19_Node000014_Node000015"><a xlink:title=" ">
<path fill="none" stroke="#63b8ff" d="M329.2,-147.93C334.82,-145.42 340.34,-142.31 345,-138.5 367.92,-119.79 357.64,-100.66 381,-82.5 383.27,-80.74 385.72,-79.14 388.28,-77.7"/>
<polygon fill="#63b8ff" stroke="#63b8ff" points="389.8,-80.85 397.3,-73.37 386.77,-74.54 389.8,-80.85"/>
</a>
</g>
</g>
<!-- Node17 -->
<g id="Node000017" class="node">
<title>Node17</title>
<g id="a_Node000017"><a xlink:href="ft__hexadecimal_8c.html#a39c845e0a4286d3ac1e04c1e64ac734b" target="_top" xlink:title="Prints an unsigned integer in hexadecimal format.">
<polygon fill="white" stroke="#666666" points="482,-19 390,-19 390,0 482,0 482,-19"/>
<text text-anchor="middle" x="436" y="-7" font-family="Helvetica,sans-Serif" font-size="10.00">ft_hexadecimal</text>
</a>
</g>
</g>
<!-- Node14&#45;&gt;Node17 -->
<g id="edge22_Node000014_Node000017" class="edge">
<title>Node14&#45;&gt;Node17</title>
<g id="a_edge22_Node000014_Node000017"><a xlink:title=" ">
<path fill="none" stroke="#63b8ff" d="M331.38,-147.95C336.38,-145.47 341.13,-142.37 345,-138.5 376.33,-107.15 353.27,-80.07 381,-45.5 387.77,-37.06 397.05,-29.89 406.02,-24.22"/>
<polygon fill="#63b8ff" stroke="#63b8ff" points="407.93,-27.16 414.77,-19.06 404.38,-21.13 407.93,-27.16"/>
</a>
</g>
</g>
<!-- Node14&#45;&gt;Node18 -->
<g id="edge24_Node000014_Node000018" class="edge">
<title>Node14&#45;&gt;Node18</title>
<g id="a_edge24_Node000014_Node000018"><a xlink:title=" ">
<path fill="none" stroke="#63b8ff" d="M309,-167.09C325.22,-178.73 354.11,-198.44 381,-211.5 385.3,-213.59 389.89,-215.56 394.51,-217.39"/>
<polygon fill="#63b8ff" stroke="#63b8ff" points="393.36,-220.7 403.95,-220.93 395.82,-214.14 393.36,-220.7"/>
</a>
</g>
</g>
<!-- Node19 -->
<g id="Node000019" class="node">
<title>Node19</title>
<g id="a_Node000019"><a xlink:href="ft__putnbr__fd_8c.html#a1554101ee350c316340c78e19faddaa8" target="_top" xlink:title="Writes an integer to a given file descriptor.">
<polygon fill="white" stroke="#666666" points="473.5,-185 398.5,-185 398.5,-166 473.5,-166 473.5,-185"/>
<text text-anchor="middle" x="436" y="-173" font-family="Helvetica,sans-Serif" font-size="10.00">ft_putnbr_fd</text>
</a>
</g>
</g>
<!-- Node14&#45;&gt;Node19 -->
<g id="edge25_Node000014_Node000019" class="edge">
<title>Node14&#45;&gt;Node19</title>
<g id="a_edge25_Node000014_Node000019"><a xlink:title=" ">
<path fill="none" stroke="#63b8ff" d="M336.58,-162.75C352.77,-164.85 371.51,-167.28 388.27,-169.45"/>
<polygon fill="#63b8ff" stroke="#63b8ff" points="388.04,-172.95 398.4,-170.76 388.94,-166.01 388.04,-172.95"/>
</a>
</g>
</g>
<!-- Node20 -->
<g id="Node000020" class="node">
<title>Node20</title>
<g id="a_Node000020"><a xlink:href="ft__putstr__fd_8c.html#a00b0638f31a75c7a30f77f33888bfb73" target="_top" xlink:title="Writes a null&#45;terminated string to the specified file descriptor.">
<polygon fill="white" stroke="#666666" points="472,-148 400,-148 400,-129 472,-129 472,-148"/>
<text text-anchor="middle" x="436" y="-136" font-family="Helvetica,sans-Serif" font-size="10.00">ft_putstr_fd</text>
</a>
</g>
</g>
<!-- Node14&#45;&gt;Node20 -->
<g id="edge27_Node000014_Node000020" class="edge">
<title>Node14&#45;&gt;Node20</title>
<g id="a_edge27_Node000014_Node000020"><a xlink:title=" ">
<path fill="none" stroke="#63b8ff" d="M336.58,-151.95C353.17,-149.69 372.43,-147.05 389.5,-144.72"/>
<polygon fill="#63b8ff" stroke="#63b8ff" points="390.36,-148.13 399.8,-143.31 389.41,-141.2 390.36,-148.13"/>
</a>
</g>
</g>
<!-- Node21 -->
<g id="Node000021" class="node">
<title>Node21</title>
<g id="a_Node000021"><a xlink:href="ft__unsigned__putnbr_8c.html#af9a70f8607b40cf2a7706f9d3725b549" target="_top" xlink:title="Writes an unsigned integer to the given file descriptor.">
<polygon fill="white" stroke="#666666" points="491,-111 381,-111 381,-92 491,-92 491,-111"/>
<text text-anchor="middle" x="436" y="-99" font-family="Helvetica,sans-Serif" font-size="10.00">ft_unsigned_putnbr</text>
</a>
</g>
</g>
<!-- Node14&#45;&gt;Node21 -->
<g id="edge28_Node000014_Node000021" class="edge">
<title>Node14&#45;&gt;Node21</title>
<g id="a_edge28_Node000014_Node000021"><a xlink:title=" ">
<path fill="none" stroke="#63b8ff" d="M322.17,-148C329.62,-145.12 337.69,-141.83 345,-138.5 361.46,-130.99 364.36,-126.61 381,-119.5 385.15,-117.73 389.54,-116.01 393.95,-114.4"/>
<polygon fill="#63b8ff" stroke="#63b8ff" points="395.28,-117.64 403.55,-111.02 392.95,-111.03 395.28,-117.64"/>
</a>
</g>
</g>
<!-- Node16 -->
<g id="Node000016" class="node">
<title>Node16</title>
<g id="a_Node000016"><a xlink:href="ft__forpointer_8c.html#aded1bf735c8a10e47396170d27c5b6aa" target="_top" xlink:title="Recursively prints a memory address in hexadecimal format.">
<polygon fill="white" stroke="#666666" points="637,-65 527,-65 527,-46 637,-46 637,-65"/>
<text text-anchor="middle" x="582" y="-53" font-family="Helvetica,sans-Serif" font-size="10.00">ft_ricorsive_pointer</text>
</a>
</g>
</g>
<!-- Node15&#45;&gt;Node16 -->
<g id="edge20_Node000015_Node000016" class="edge">
<title>Node15&#45;&gt;Node16</title>
<g id="a_edge20_Node000015_Node000016"><a xlink:title=" ">
<path fill="none" stroke="#63b8ff" d="M474.83,-62.14C487.64,-61.33 502.33,-60.42 516.61,-59.52"/>
<polygon fill="#63b8ff" stroke="#63b8ff" points="517.14,-63 526.9,-58.88 516.7,-56.01 517.14,-63"/>
</a>
</g>
</g>
<!-- Node16&#45;&gt;Node16 -->
<g id="edge21_Node000016_Node000016" class="edge">
<title>Node16&#45;&gt;Node16</title>
<g id="a_edge21_Node000016_Node000016"><a xlink:title=" ">
<path fill="none" stroke="#63b8ff" d="M563.2,-65.08C554.05,-73.73 560.32,-83 582,-83 595.55,-83 603.08,-79.38 604.59,-74.55"/>
<polygon fill="#63b8ff" stroke="#63b8ff" points="607.77,-73.07 600.8,-65.08 601.27,-75.67 607.77,-73.07"/>
</a>
</g>
</g>
<!-- Node17&#45;&gt;Node17 -->
<g id="edge23_Node000017_Node000017" class="edge">
<title>Node17&#45;&gt;Node17</title>
<g id="a_edge23_Node000017_Node000017"><a xlink:title=" ">
<path fill="none" stroke="#63b8ff" d="M414.42,-19.08C403.92,-27.73 411.12,-37 436,-37 451.94,-37 460.62,-33.2 462.04,-28.19"/>
<polygon fill="#63b8ff" stroke="#63b8ff" points="465.12,-26.52 457.58,-19.08 458.84,-29.6 465.12,-26.52"/>
</a>
</g>
</g>
<!-- Node19&#45;&gt;Node19 -->
<g id="edge26_Node000019_Node000019" class="edge">
<title>Node19&#45;&gt;Node19</title>
<g id="a_edge26_Node000019_Node000019"><a xlink:title=" ">
<path fill="none" stroke="#63b8ff" d="M414.42,-185.08C403.92,-193.73 411.12,-203 436,-203 451.94,-203 460.62,-199.2 462.04,-194.19"/>
<polygon fill="#63b8ff" stroke="#63b8ff" points="465.12,-192.52 457.58,-185.08 458.84,-195.6 465.12,-192.52"/>
</a>
</g>
</g>
<!-- Node22 -->
<g id="Node000022" class="node">
<title>Node22</title>
<g id="a_Node000022"><a xlink:href="ft__putnbr_8c.html#a2e51f80c9e46e52f4adf94617fb51ada" target="_top" xlink:title="Writes an integer to the standard output (stdout).">
<polygon fill="white" stroke="#666666" points="612,-120 552,-120 552,-101 612,-101 612,-120"/>
<text text-anchor="middle" x="582" y="-108" font-family="Helvetica,sans-Serif" font-size="10.00">ft_putnbr</text>
</a>
</g>
</g>
<!-- Node21&#45;&gt;Node22 -->
<g id="edge29_Node000021_Node000022" class="edge">
<title>Node21&#45;&gt;Node22</title>
<g id="a_edge29_Node000021_Node000022"><a xlink:title=" ">
<path fill="none" stroke="#63b8ff" d="M491.03,-104.88C507.76,-105.92 525.87,-107.05 541.43,-108.03"/>
<polygon fill="#63b8ff" stroke="#63b8ff" points="541.55,-111.54 551.74,-108.67 541.98,-104.55 541.55,-111.54"/>
</a>
</g>
</g>
<!-- Node22&#45;&gt;Node22 -->
<g id="edge30_Node000022_Node000022" class="edge">
<title>Node22&#45;&gt;Node22</title>
<g id="a_edge30_Node000022_Node000022"><a xlink:title=" ">
<path fill="none" stroke="#63b8ff" d="M563.2,-120.08C554.05,-128.73 560.32,-138 582,-138 595.55,-138 603.08,-134.38 604.59,-129.55"/>
<polygon fill="#63b8ff" stroke="#63b8ff" points="607.77,-128.07 600.8,-120.08 601.27,-130.67 607.77,-128.07"/>
</a>
</g>
</g>
<!-- Node24 -->
<g id="Node000024" class="node">
<title>Node24</title>
<g id="a_Node000024"><a xlink:href="ft__isalnum_8c.html#a9c2c3821ea43ebdf97de07b123503f8b" target="_top" xlink:title="Checks whether a character is alphanumeric.">
<polygon fill="white" stroke="#666666" points="329,-130 261,-130 261,-111 329,-111 329,-130"/>
<text text-anchor="middle" x="295" y="-118" font-family="Helvetica,sans-Serif" font-size="10.00">ft_isalnum</text>
</a>
</g>
</g>
<!-- Node23&#45;&gt;Node24 -->
<g id="edge33_Node000023_Node000024" class="edge">
<title>Node23&#45;&gt;Node24</title>
<g id="a_edge33_Node000023_Node000024"><a xlink:title=" ">
<path fill="none" stroke="#63b8ff" d="M209.27,-120.5C222.89,-120.5 237.4,-120.5 250.5,-120.5"/>
<polygon fill="#63b8ff" stroke="#63b8ff" points="250.65,-124 260.65,-120.5 250.65,-117 250.65,-124"/>
</a>
</g>
</g>
<!-- Node25 -->
<g id="Node000025" class="node">
<title>Node25</title>
<g id="a_Node000025"><a xlink:href="ft__isalpha_8c.html#ac283963beaa3b8c7d09b78851cda297e" target="_top" xlink:title="Checks whether a character is an alphabetic letter.">
<polygon fill="white" stroke="#666666" points="327,-93 263,-93 263,-74 327,-74 327,-93"/>
<text text-anchor="middle" x="295" y="-81" font-family="Helvetica,sans-Serif" font-size="10.00">ft_isalpha</text>
</a>
</g>
</g>
<!-- Node23&#45;&gt;Node25 -->
<g id="edge34_Node000023_Node000025" class="edge">
<title>Node23&#45;&gt;Node25</title>
<g id="a_edge34_Node000023_Node000025"><a xlink:title=" ">
<path fill="none" stroke="#63b8ff" d="M191.91,-110.97C210.61,-105.94 233.66,-99.74 253.12,-94.5"/>
<polygon fill="#63b8ff" stroke="#63b8ff" points="254.18,-97.84 262.92,-91.86 252.36,-91.08 254.18,-97.84"/>
</a>
</g>
</g>
</g>
</svg>
