<?xml version="1.0" encoding="UTF-8" standalone="no"?>
<!DOCTYPE svg PUBLIC "-//W3C//DTD SVG 1.1//EN"
 "http://www.w3.org/Graphics/SVG/1.1/DTD/svg11.dtd">
<!-- Generated by graphviz version 2.43.0 (0)
 -->
<!-- Title: get_token_type Pages: 1 -->
<svg width="228pt" height="101pt"
 viewBox="0.00 0.00 228.00 101.00" xmlns="http://www.w3.org/2000/svg" xmlns:xlink="http://www.w3.org/1999/xlink">
<g id="graph0" class="graph" transform="scale(1 1) rotate(0) translate(4 97)">
<title>get_token_type</title>
<!-- Node1 -->
<g id="Node000001" class="node">
<title>Node1</title>
<g id="a_Node000001"><a xlink:title="Determines the token type based on the value, quote flag, and command flag.">
<polygon fill="#999999" stroke="#666666" points="92,-56 0,-56 0,-37 92,-37 92,-56"/>
<text text-anchor="middle" x="46" y="-44" font-family="Helvetica,sans-Serif" font-size="10.00">get_token_type</text>
</a>
</g>
</g>
<!-- Node2 -->
<g id="Node000002" class="node">
<title>Node2</title>
<g id="a_Node000002"><a xlink:href="utils__token_8c.html#a51f971c32b38d16d3acd01a9f26a94c9" target="_top" xlink:title="Checks if the string contains the exit status variable &quot;$?&quot;.">
<polygon fill="white" stroke="#666666" points="220,-93 128,-93 128,-74 220,-74 220,-93"/>
<text text-anchor="middle" x="174" y="-81" font-family="Helvetica,sans-Serif" font-size="10.00">exit_status_var</text>
</a>
</g>
</g>
<!-- Node1&#45;&gt;Node2 -->
<g id="edge1_Node000001_Node000002" class="edge">
<title>Node1&#45;&gt;Node2</title>
<g id="a_edge1_Node000001_Node000002"><a xlink:title=" ">
<path fill="none" stroke="#63b8ff" d="M79.45,-56.03C94.91,-60.57 113.6,-66.06 130.2,-70.93"/>
<polygon fill="#63b8ff" stroke="#63b8ff" points="129.64,-74.42 140.22,-73.88 131.62,-67.7 129.64,-74.42"/>
</a>
</g>
</g>
<!-- Node3 -->
<g id="Node000003" class="node">
<title>Node3</title>
<g id="a_Node000003"><a xlink:href="utils__env_8c.html#a43ecaeb2991db8347a59f45f96e8a21f" target="_top" xlink:title="Checks if the string contains the character &#39;$&#39;, indicating an environment variable.">
<polygon fill="white" stroke="#666666" points="219.5,-56 128.5,-56 128.5,-37 219.5,-37 219.5,-56"/>
<text text-anchor="middle" x="174" y="-44" font-family="Helvetica,sans-Serif" font-size="10.00">ft_find_env_var</text>
</a>
</g>
</g>
<!-- Node1&#45;&gt;Node3 -->
<g id="edge2_Node000001_Node000003" class="edge">
<title>Node1&#45;&gt;Node3</title>
<g id="a_edge2_Node000001_Node000003"><a xlink:title=" ">
<path fill="none" stroke="#63b8ff" d="M92.13,-46.5C100.56,-46.5 109.45,-46.5 118.13,-46.5"/>
<polygon fill="#63b8ff" stroke="#63b8ff" points="118.18,-50 128.18,-46.5 118.18,-43 118.18,-50"/>
</a>
</g>
</g>
<!-- Node4 -->
<g id="Node000004" class="node">
<title>Node4</title>
<g id="a_Node000004"><a xlink:href="ft__strcmp_8c.html#a1f2ff2312e5994560c9537cd9173be94" target="_top" xlink:title="Compares two null&#45;terminated strings lexicographically.">
<polygon fill="white" stroke="#666666" points="205,-19 143,-19 143,0 205,0 205,-19"/>
<text text-anchor="middle" x="174" y="-7" font-family="Helvetica,sans-Serif" font-size="10.00">ft_strcmp</text>
</a>
</g>
</g>
<!-- Node1&#45;&gt;Node4 -->
<g id="edge3_Node000001_Node000004" class="edge">
<title>Node1&#45;&gt;Node4</title>
<g id="a_edge3_Node000001_Node000004"><a xlink:title=" ">
<path fill="none" stroke="#63b8ff" d="M79.45,-36.97C95.78,-32.17 115.73,-26.32 133.01,-21.24"/>
<polygon fill="#63b8ff" stroke="#63b8ff" points="134.22,-24.54 142.82,-18.36 132.24,-17.82 134.22,-24.54"/>
</a>
</g>
</g>
</g>
</svg>
