<?xml version="1.0" encoding="UTF-8" standalone="no"?>
<!DOCTYPE svg PUBLIC "-//W3C//DTD SVG 1.1//EN"
 "http://www.w3.org/Graphics/SVG/1.1/DTD/svg11.dtd">
<!-- Generated by graphviz version 2.43.0 (0)
 -->
<!-- Title: ft_expand_envvar Pages: 1 -->
<svg width="469pt" height="240pt"
 viewBox="0.00 0.00 469.00 240.00" xmlns="http://www.w3.org/2000/svg" xmlns:xlink="http://www.w3.org/1999/xlink">
<g id="graph0" class="graph" transform="scale(1 1) rotate(0) translate(4 236)">
<title>ft_expand_envvar</title>
<!-- Node1 -->
<g id="Node000001" class="node">
<title>Node1</title>
<g id="a_Node000001"><a xlink:title="Performs environment variable expansion in a string.">
<polygon fill="#999999" stroke="#666666" points="104,-93 0,-93 0,-74 104,-74 104,-93"/>
<text text-anchor="middle" x="52" y="-81" font-family="Helvetica,sans-Serif" font-size="10.00">ft_expand_envvar</text>
</a>
</g>
</g>
<!-- Node2 -->
<g id="Node000002" class="node">
<title>Node2</title>
<g id="a_Node000002"><a xlink:href="utils__env_8c.html#a4ea711c91d64ff7669bf6ac7e6b6b9dd" target="_top" xlink:title="Expands an environment variable found in a string.">
<polygon fill="white" stroke="#666666" points="211.5,-148 146.5,-148 146.5,-129 211.5,-129 211.5,-148"/>
<text text-anchor="middle" x="179" y="-136" font-family="Helvetica,sans-Serif" font-size="10.00">ft_expand</text>
</a>
</g>
</g>
<!-- Node1&#45;&gt;Node2 -->
<g id="edge1_Node000001_Node000002" class="edge">
<title>Node1&#45;&gt;Node2</title>
<g id="a_edge1_Node000001_Node000002"><a xlink:title=" ">
<path fill="none" stroke="#63b8ff" d="M74.77,-93.08C94.64,-101.82 124.22,-114.84 146.63,-124.7"/>
<polygon fill="#63b8ff" stroke="#63b8ff" points="145.49,-128.02 156.06,-128.84 148.31,-121.61 145.49,-128.02"/>
</a>
</g>
</g>
<!-- Node11 -->
<g id="Node000011" class="node">
<title>Node11</title>
<g id="a_Node000011"><a xlink:href="ft__strdup_8c.html#aebe73f27c70c56ac5053f860ef5436c9" target="_top" xlink:title="Duplicates a null&#45;terminated string by allocating memory.">
<polygon fill="white" stroke="#666666" points="455,-19 396,-19 396,0 455,0 455,-19"/>
<text text-anchor="middle" x="425.5" y="-7" font-family="Helvetica,sans-Serif" font-size="10.00">ft_strdup</text>
</a>
</g>
</g>
<!-- Node1&#45;&gt;Node11 -->
<g id="edge18_Node000001_Node000011" class="edge">
<title>Node1&#45;&gt;Node11</title>
<g id="a_edge18_Node000001_Node000011"><a xlink:title=" ">
<path fill="none" stroke="#63b8ff" d="M98.59,-73.98C111.93,-71.22 126.54,-68.22 140,-65.5 227.85,-47.77 331.1,-27.62 385.85,-16.99"/>
<polygon fill="#63b8ff" stroke="#63b8ff" points="386.66,-20.39 395.81,-15.05 385.33,-13.52 386.66,-20.39"/>
</a>
</g>
</g>
<!-- Node14 -->
<g id="Node000014" class="node">
<title>Node14</title>
<g id="a_Node000014"><a xlink:href="utils__env_8c.html#a3323d2c2586349772b23a3eaf1a241c3" target="_top" xlink:title="Concatenates a literal part (non&#45;variable) of the string to the result.">
<polygon fill="white" stroke="#666666" points="218,-93 140,-93 140,-74 218,-74 218,-93"/>
<text text-anchor="middle" x="179" y="-81" font-family="Helvetica,sans-Serif" font-size="10.00">ft_merge_str</text>
</a>
</g>
</g>
<!-- Node1&#45;&gt;Node14 -->
<g id="edge15_Node000001_Node000014" class="edge">
<title>Node1&#45;&gt;Node14</title>
<g id="a_edge15_Node000001_Node000014"><a xlink:title=" ">
<path fill="none" stroke="#63b8ff" d="M104.2,-83.5C112.55,-83.5 121.17,-83.5 129.45,-83.5"/>
<polygon fill="#63b8ff" stroke="#63b8ff" points="129.7,-87 139.7,-83.5 129.7,-80 129.7,-87"/>
</a>
</g>
</g>
<!-- Node3 -->
<g id="Node000003" class="node">
<title>Node3</title>
<g id="a_Node000003"><a xlink:href="utils__env__pt2_8c.html#afac58c53fe53bc538ba19b53efec42e4" target="_top" xlink:title="Finds the value of an environment variable given its name key.">
<polygon fill="white" stroke="#666666" points="354,-232 254,-232 254,-213 354,-213 354,-232"/>
<text text-anchor="middle" x="304" y="-220" font-family="Helvetica,sans-Serif" font-size="10.00">ft_get_env_value</text>
</a>
</g>
</g>
<!-- Node2&#45;&gt;Node3 -->
<g id="edge2_Node000002_Node000003" class="edge">
<title>Node2&#45;&gt;Node3</title>
<g id="a_edge2_Node000002_Node000003"><a xlink:title=" ">
<path fill="none" stroke="#63b8ff" d="M188.67,-148.28C201.64,-162.41 227.43,-188.56 254,-204.5 256.64,-206.08 259.43,-207.56 262.3,-208.93"/>
<polygon fill="#63b8ff" stroke="#63b8ff" points="261.04,-212.2 271.6,-212.97 263.82,-205.78 261.04,-212.2"/>
</a>
</g>
</g>
<!-- Node6 -->
<g id="Node000006" class="node">
<title>Node6</title>
<g id="a_Node000006"><a xlink:href="ft__isalnum_8c.html#a9c2c3821ea43ebdf97de07b123503f8b" target="_top" xlink:title="Checks whether a character is alphanumeric.">
<polygon fill="white" stroke="#666666" points="338,-195 270,-195 270,-176 338,-176 338,-195"/>
<text text-anchor="middle" x="304" y="-183" font-family="Helvetica,sans-Serif" font-size="10.00">ft_isalnum</text>
</a>
</g>
</g>
<!-- Node2&#45;&gt;Node6 -->
<g id="edge5_Node000002_Node000006" class="edge">
<title>Node2&#45;&gt;Node6</title>
<g id="a_edge5_Node000002_Node000006"><a xlink:title=" ">
<path fill="none" stroke="#63b8ff" d="M203.94,-148.03C218.41,-153.76 237.23,-161.13 254,-167.5 258.26,-169.12 262.74,-170.79 267.19,-172.44"/>
<polygon fill="#63b8ff" stroke="#63b8ff" points="266.18,-175.8 276.77,-175.98 268.6,-169.24 266.18,-175.8"/>
</a>
</g>
</g>
<!-- Node7 -->
<g id="Node000007" class="node">
<title>Node7</title>
<g id="a_Node000007"><a xlink:href="ft__isdigit_8c.html#a2cf15b8a1a277d1e2ce3654101a2003d" target="_top" xlink:title="Checks whether a character is a decimal digit.">
<polygon fill="white" stroke="#666666" points="333.5,-158 274.5,-158 274.5,-139 333.5,-139 333.5,-158"/>
<text text-anchor="middle" x="304" y="-146" font-family="Helvetica,sans-Serif" font-size="10.00">ft_isdigit</text>
</a>
</g>
</g>
<!-- Node2&#45;&gt;Node7 -->
<g id="edge6_Node000002_Node000007" class="edge">
<title>Node2&#45;&gt;Node7</title>
<g id="a_edge6_Node000002_Node000007"><a xlink:title=" ">
<path fill="none" stroke="#63b8ff" d="M211.68,-141.08C227.71,-142.38 247.31,-143.97 264.24,-145.35"/>
<polygon fill="#63b8ff" stroke="#63b8ff" points="264.12,-148.85 274.38,-146.17 264.69,-141.87 264.12,-148.85"/>
</a>
</g>
</g>
<!-- Node8 -->
<g id="Node000008" class="node">
<title>Node8</title>
<g id="a_Node000008"><a xlink:href="ft__strjoin_8c.html#a91e6e3e428bcc9f2291b700e1829b82b" target="_top" xlink:title="Concatenates two strings into a newly allocated string.">
<polygon fill="white" stroke="#666666" points="333.5,-121 274.5,-121 274.5,-102 333.5,-102 333.5,-121"/>
<text text-anchor="middle" x="304" y="-109" font-family="Helvetica,sans-Serif" font-size="10.00">ft_strjoin</text>
</a>
</g>
</g>
<!-- Node2&#45;&gt;Node8 -->
<g id="edge7_Node000002_Node000008" class="edge">
<title>Node2&#45;&gt;Node8</title>
<g id="a_edge7_Node000002_Node000008"><a xlink:title=" ">
<path fill="none" stroke="#63b8ff" d="M211.68,-131.55C227.71,-128.03 247.31,-123.72 264.24,-120.01"/>
<polygon fill="#63b8ff" stroke="#63b8ff" points="265.36,-123.35 274.38,-117.78 263.86,-116.51 265.36,-123.35"/>
</a>
</g>
</g>
<!-- Node10 -->
<g id="Node000010" class="node">
<title>Node10</title>
<g id="a_Node000010"><a xlink:href="ft__substr_8c.html#a78c402cbf3d55b1374693c3b7d34f71d" target="_top" xlink:title="Extracts a substring from a given string.">
<polygon fill="white" stroke="#666666" points="333.5,-84 274.5,-84 274.5,-65 333.5,-65 333.5,-84"/>
<text text-anchor="middle" x="304" y="-72" font-family="Helvetica,sans-Serif" font-size="10.00">ft_substr</text>
</a>
</g>
</g>
<!-- Node2&#45;&gt;Node10 -->
<g id="edge10_Node000002_Node000010" class="edge">
<title>Node2&#45;&gt;Node10</title>
<g id="a_edge10_Node000002_Node000010"><a xlink:title=" ">
<path fill="none" stroke="#63b8ff" d="M194.04,-128.93C208.62,-119.24 232.29,-104.21 254,-93.5 258.02,-91.52 262.3,-89.6 266.6,-87.78"/>
<polygon fill="#63b8ff" stroke="#63b8ff" points="267.97,-91.01 275.93,-84.02 265.35,-84.52 267.97,-91.01"/>
</a>
</g>
</g>
<!-- Node4 -->
<g id="Node000004" class="node">
<title>Node4</title>
<g id="a_Node000004"><a xlink:href="ft__strlen_8c.html#a828402378653640f545a4be2e00e92f9" target="_top" xlink:title="Calculates the length of a null&#45;terminated string.">
<polygon fill="white" stroke="#666666" points="453.5,-167 397.5,-167 397.5,-148 453.5,-148 453.5,-167"/>
<text text-anchor="middle" x="425.5" y="-155" font-family="Helvetica,sans-Serif" font-size="10.00">ft_strlen</text>
</a>
</g>
</g>
<!-- Node3&#45;&gt;Node4 -->
<g id="edge3_Node000003_Node000004" class="edge">
<title>Node3&#45;&gt;Node4</title>
<g id="a_edge3_Node000003_Node000004"><a xlink:title=" ">
<path fill="none" stroke="#63b8ff" d="M334.5,-212.94C341.05,-210.47 347.86,-207.62 354,-204.5 371.64,-195.54 390.21,-183.01 403.86,-173.15"/>
<polygon fill="#63b8ff" stroke="#63b8ff" points="406.08,-175.86 412.06,-167.11 401.93,-170.22 406.08,-175.86"/>
</a>
</g>
</g>
<!-- Node5 -->
<g id="Node000005" class="node">
<title>Node5</title>
<g id="a_Node000005"><a xlink:href="ft__strncmp_8c.html#a9d2fe792187aa4ed08e5864fb2c4d6dc" target="_top" xlink:title="Compares up to n characters of two strings.">
<polygon fill="white" stroke="#666666" points="459.5,-232 391.5,-232 391.5,-213 459.5,-213 459.5,-232"/>
<text text-anchor="middle" x="425.5" y="-220" font-family="Helvetica,sans-Serif" font-size="10.00">ft_strncmp</text>
</a>
</g>
</g>
<!-- Node3&#45;&gt;Node5 -->
<g id="edge4_Node000003_Node000005" class="edge">
<title>Node3&#45;&gt;Node5</title>
<g id="a_edge4_Node000003_Node000005"><a xlink:title=" ">
<path fill="none" stroke="#63b8ff" d="M354.3,-222.5C363.26,-222.5 372.55,-222.5 381.32,-222.5"/>
<polygon fill="#63b8ff" stroke="#63b8ff" points="381.33,-226 391.33,-222.5 381.33,-219 381.33,-226"/>
</a>
</g>
</g>
<!-- Node8&#45;&gt;Node4 -->
<g id="edge9_Node000008_Node000004" class="edge">
<title>Node8&#45;&gt;Node4</title>
<g id="a_edge9_Node000008_Node000004"><a xlink:title=" ">
<path fill="none" stroke="#63b8ff" d="M329.76,-121.03C347.31,-127.78 371.07,-136.93 390.4,-144.37"/>
<polygon fill="#63b8ff" stroke="#63b8ff" points="389.18,-147.65 399.77,-147.98 391.7,-141.12 389.18,-147.65"/>
</a>
</g>
</g>
<!-- Node9 -->
<g id="Node000009" class="node">
<title>Node9</title>
<g id="a_Node000009"><a xlink:href="ft__memcpy_8c.html#a41a6f05af30cf85ff63a08e383826322" target="_top" xlink:title="Copies &#39;n&#39; bytes from memory area &#39;src&#39; to memory area &#39;dest&#39;.">
<polygon fill="white" stroke="#666666" points="461,-130 390,-130 390,-111 461,-111 461,-130"/>
<text text-anchor="middle" x="425.5" y="-118" font-family="Helvetica,sans-Serif" font-size="10.00">ft_memcpy</text>
</a>
</g>
</g>
<!-- Node8&#45;&gt;Node9 -->
<g id="edge8_Node000008_Node000009" class="edge">
<title>Node8&#45;&gt;Node9</title>
<g id="a_edge8_Node000008_Node000009"><a xlink:title=" ">
<path fill="none" stroke="#63b8ff" d="M333.62,-113.66C347.31,-114.69 364.03,-115.95 379.37,-117.1"/>
<polygon fill="#63b8ff" stroke="#63b8ff" points="379.48,-120.62 389.72,-117.88 380.01,-113.64 379.48,-120.62"/>
</a>
</g>
</g>
<!-- Node10&#45;&gt;Node4 -->
<g id="edge13_Node000010_Node000004" class="edge">
<title>Node10&#45;&gt;Node4</title>
<g id="a_edge13_Node000010_Node000004"><a xlink:title=" ">
<path fill="none" stroke="#63b8ff" d="M333.56,-82.62C340.63,-85.4 347.92,-88.99 354,-93.5 374.85,-108.97 370.04,-122.9 390,-139.5 391.32,-140.6 392.72,-141.66 394.17,-142.67"/>
<polygon fill="#63b8ff" stroke="#63b8ff" points="392.46,-145.73 402.81,-147.99 396.13,-139.77 392.46,-145.73"/>
</a>
</g>
</g>
<!-- Node10&#45;&gt;Node11 -->
<g id="edge11_Node000010_Node000011" class="edge">
<title>Node10&#45;&gt;Node11</title>
<g id="a_edge11_Node000010_Node000011"><a xlink:title=" ">
<path fill="none" stroke="#63b8ff" d="M322.19,-64.84C339.31,-55.25 366.38,-40.19 390,-27.5 392.24,-26.3 394.57,-25.06 396.9,-23.82"/>
<polygon fill="#63b8ff" stroke="#63b8ff" points="398.61,-26.88 405.84,-19.13 395.35,-20.68 398.61,-26.88"/>
</a>
</g>
</g>
<!-- Node12 -->
<g id="Node000012" class="node">
<title>Node12</title>
<g id="a_Node000012"><a xlink:href="ft__strlcpy_8c.html#aa053827b3a2ea3d0118783d6fb59d178" target="_top" xlink:title="Copies up to size &#45; 1 characters from the string src to dst, null&#45;terminating the result.">
<polygon fill="white" stroke="#666666" points="456.5,-93 394.5,-93 394.5,-74 456.5,-74 456.5,-93"/>
<text text-anchor="middle" x="425.5" y="-81" font-family="Helvetica,sans-Serif" font-size="10.00">ft_strlcpy</text>
</a>
</g>
</g>
<!-- Node10&#45;&gt;Node12 -->
<g id="edge12_Node000010_Node000012" class="edge">
<title>Node10&#45;&gt;Node12</title>
<g id="a_edge12_Node000010_Node000012"><a xlink:title=" ">
<path fill="none" stroke="#63b8ff" d="M333.62,-76.66C348.83,-77.8 367.78,-79.23 384.43,-80.48"/>
<polygon fill="#63b8ff" stroke="#63b8ff" points="384.21,-83.98 394.44,-81.24 384.73,-77 384.21,-83.98"/>
</a>
</g>
</g>
<!-- Node13 -->
<g id="Node000013" class="node">
<title>Node13</title>
<g id="a_Node000013"><a xlink:href="ft__strlcat_8c.html#a3ab017dd491d7327d1b4acbf1398b91e" target="_top" xlink:title="Returns the length of a null&#45;terminated string.">
<polygon fill="white" stroke="#666666" points="441.5,-56 409.5,-56 409.5,-37 441.5,-37 441.5,-56"/>
<text text-anchor="middle" x="425.5" y="-44" font-family="Helvetica,sans-Serif" font-size="10.00">len</text>
</a>
</g>
</g>
<!-- Node10&#45;&gt;Node13 -->
<g id="edge14_Node000010_Node000013" class="edge">
<title>Node10&#45;&gt;Node13</title>
<g id="a_edge14_Node000010_Node000013"><a xlink:title=" ">
<path fill="none" stroke="#63b8ff" d="M333.62,-67.79C353.66,-63.1 380.19,-56.88 399.4,-52.38"/>
<polygon fill="#63b8ff" stroke="#63b8ff" points="400.3,-55.76 409.24,-50.08 398.71,-48.95 400.3,-55.76"/>
</a>
</g>
</g>
<!-- Node14&#45;&gt;Node8 -->
<g id="edge16_Node000014_Node000008" class="edge">
<title>Node14&#45;&gt;Node8</title>
<g id="a_edge16_Node000014_Node000008"><a xlink:title=" ">
<path fill="none" stroke="#63b8ff" d="M218.24,-92.21C232.91,-95.55 249.65,-99.36 264.36,-102.7"/>
<polygon fill="#63b8ff" stroke="#63b8ff" points="263.63,-106.13 274.16,-104.94 265.19,-99.3 263.63,-106.13"/>
</a>
</g>
</g>
<!-- Node14&#45;&gt;Node10 -->
<g id="edge17_Node000014_Node000010" class="edge">
<title>Node14&#45;&gt;Node10</title>
<g id="a_edge17_Node000014_Node000010"><a xlink:title=" ">
<path fill="none" stroke="#63b8ff" d="M218.24,-80.7C232.77,-79.64 249.33,-78.43 263.93,-77.36"/>
<polygon fill="#63b8ff" stroke="#63b8ff" points="264.44,-80.83 274.16,-76.61 263.93,-73.85 264.44,-80.83"/>
</a>
</g>
</g>
</g>
</svg>
