<?xml version="1.0" encoding="UTF-8" standalone="no"?>
<!DOCTYPE svg PUBLIC "-//W3C//DTD SVG 1.1//EN"
 "http://www.w3.org/Graphics/SVG/1.1/DTD/svg11.dtd">
<!-- Generated by graphviz version 2.43.0 (0)
 -->
<!-- Title: ft_expand Pages: 1 -->
<svg width="1561pt" height="114pt"
 viewBox="0.00 0.00 1561.00 113.50" xmlns="http://www.w3.org/2000/svg" xmlns:xlink="http://www.w3.org/1999/xlink">
<g id="graph0" class="graph" transform="scale(1 1) rotate(0) translate(4 109.5)">
<title>ft_expand</title>
<!-- Node1 -->
<g id="Node000001" class="node">
<title>Node1</title>
<g id="a_Node000001"><a xlink:title="Expands an environment variable found in a string.">
<polygon fill="#999999" stroke="#666666" points="1553,-57 1488,-57 1488,-38 1553,-38 1553,-57"/>
<text text-anchor="middle" x="1520.5" y="-45" font-family="Helvetica,sans-Serif" font-size="10.00">ft_expand</text>
</a>
</g>
</g>
<!-- Node2 -->
<g id="Node000002" class="node">
<title>Node2</title>
<g id="a_Node000002"><a xlink:href="utils__env_8c.html#a78e10627f49df6e904925e22ae6ee15f" target="_top" xlink:title="Performs environment variable expansion in a string.">
<polygon fill="white" stroke="#666666" points="1452,-57 1348,-57 1348,-38 1452,-38 1452,-57"/>
<text text-anchor="middle" x="1400" y="-45" font-family="Helvetica,sans-Serif" font-size="10.00">ft_expand_envvar</text>
</a>
</g>
</g>
<!-- Node1&#45;&gt;Node2 -->
<g id="edge1_Node000001_Node000002" class="edge">
<title>Node1&#45;&gt;Node2</title>
<g id="a_edge1_Node000001_Node000002"><a xlink:title=" ">
<path fill="none" stroke="#63b8ff" d="M1477.6,-47.5C1469.34,-47.5 1460.59,-47.5 1452.07,-47.5"/>
<polygon fill="#63b8ff" stroke="#63b8ff" points="1477.74,-51 1487.74,-47.5 1477.74,-44 1477.74,-51"/>
</a>
</g>
</g>
<!-- Node3 -->
<g id="Node000003" class="node">
<title>Node3</title>
<g id="a_Node000003"><a xlink:href="create__command__list_8c.html#a9fb2e7501277f2f93e5c7042fec32429" target="_top" xlink:title="Adds an argument to the command’s argument list.">
<polygon fill="white" stroke="#666666" points="1175.5,-57 1114.5,-57 1114.5,-38 1175.5,-38 1175.5,-57"/>
<text text-anchor="middle" x="1145" y="-45" font-family="Helvetica,sans-Serif" font-size="10.00">add_args</text>
</a>
</g>
</g>
<!-- Node2&#45;&gt;Node3 -->
<g id="edge2_Node000002_Node000003" class="edge">
<title>Node2&#45;&gt;Node3</title>
<g id="a_edge2_Node000002_Node000003"><a xlink:title=" ">
<path fill="none" stroke="#63b8ff" d="M1337.49,-47.5C1286.2,-47.5 1215.32,-47.5 1175.76,-47.5"/>
<polygon fill="#63b8ff" stroke="#63b8ff" points="1337.8,-51 1347.8,-47.5 1337.8,-44 1337.8,-51"/>
</a>
</g>
</g>
<!-- Node8 -->
<g id="Node000008" class="node">
<title>Node8</title>
<g id="a_Node000008"><a xlink:href="main__utils_8c.html#a5aeae9d23b7c4e831229866f395977e7" target="_top" xlink:title="Handles printing of a single environment variable.">
<polygon fill="white" stroke="#666666" points="1063.5,-19 970.5,-19 970.5,0 1063.5,0 1063.5,-19"/>
<text text-anchor="middle" x="1017" y="-7" font-family="Helvetica,sans-Serif" font-size="10.00">ft_env_var_flow</text>
</a>
</g>
</g>
<!-- Node2&#45;&gt;Node8 -->
<g id="edge7_Node000002_Node000008" class="edge">
<title>Node2&#45;&gt;Node8</title>
<g id="a_edge7_Node000002_Node000008"><a xlink:title=" ">
<path fill="none" stroke="#63b8ff" d="M1337.63,-41.38C1261.04,-33.74 1131.85,-20.86 1063.52,-14.04"/>
<polygon fill="#63b8ff" stroke="#63b8ff" points="1337.32,-44.87 1347.62,-42.38 1338.01,-37.9 1337.32,-44.87"/>
</a>
</g>
</g>
<!-- Node9 -->
<g id="Node000009" class="node">
<title>Node9</title>
<g id="a_Node000009"><a xlink:href="redir__utils_8c.html#aff3d6a56d03d5df38cbb3e1f171eb191" target="_top" xlink:title="Expands environment variables in a line and writes the result to a file descriptor.">
<polygon fill="white" stroke="#666666" points="1312,-95 1226,-95 1226,-76 1312,-76 1312,-95"/>
<text text-anchor="middle" x="1269" y="-83" font-family="Helvetica,sans-Serif" font-size="10.00">ft_for_env_var</text>
</a>
</g>
</g>
<!-- Node2&#45;&gt;Node9 -->
<g id="edge9_Node000002_Node000009" class="edge">
<title>Node2&#45;&gt;Node9</title>
<g id="a_edge9_Node000002_Node000009"><a xlink:title=" ">
<path fill="none" stroke="#63b8ff" d="M1356.45,-60.04C1338.9,-65.2 1318.89,-71.1 1302.54,-75.91"/>
<polygon fill="#63b8ff" stroke="#63b8ff" points="1357.84,-63.27 1366.45,-57.09 1355.87,-56.56 1357.84,-63.27"/>
</a>
</g>
</g>
<!-- Node4 -->
<g id="Node000004" class="node">
<title>Node4</title>
<g id="a_Node000004"><a xlink:href="create__command__list_8c.html#ad16d74756b107a98677124008c71d23b" target="_top" xlink:title="Creates a command list from tokens.">
<polygon fill="white" stroke="#666666" points="377,-57 309,-57 309,-38 377,-38 377,-57"/>
<text text-anchor="middle" x="343" y="-45" font-family="Helvetica,sans-Serif" font-size="10.00">create_list</text>
</a>
</g>
</g>
<!-- Node3&#45;&gt;Node4 -->
<g id="edge3_Node000003_Node000004" class="edge">
<title>Node3&#45;&gt;Node4</title>
<g id="a_edge3_Node000003_Node000004"><a xlink:title=" ">
<path fill="none" stroke="#63b8ff" d="M1103.98,-47.5C1051.51,-47.5 956.61,-47.5 875.5,-47.5 875.5,-47.5 875.5,-47.5 575.5,-47.5 504.96,-47.5 422.34,-47.5 377.35,-47.5"/>
<polygon fill="#63b8ff" stroke="#63b8ff" points="1104.2,-51 1114.2,-47.5 1104.2,-44 1104.2,-51"/>
</a>
</g>
</g>
<!-- Node5 -->
<g id="Node000005" class="node">
<title>Node5</title>
<g id="a_Node000005"><a xlink:href="main__utils_8c.html#a7e8f478480ab6ab34d6f5eadaf6acdb9" target="_top" xlink:title="Handles parsing and execution of tokens.">
<polygon fill="white" stroke="#666666" points="273,-38 192,-38 192,-19 273,-19 273,-38"/>
<text text-anchor="middle" x="232.5" y="-26" font-family="Helvetica,sans-Serif" font-size="10.00">ft_token_flow</text>
</a>
</g>
</g>
<!-- Node4&#45;&gt;Node5 -->
<g id="edge4_Node000004_Node000005" class="edge">
<title>Node4&#45;&gt;Node5</title>
<g id="a_edge4_Node000004_Node000005"><a xlink:title=" ">
<path fill="none" stroke="#63b8ff" d="M298.83,-39.94C290.41,-38.47 281.62,-36.93 273.31,-35.47"/>
<polygon fill="#63b8ff" stroke="#63b8ff" points="298.4,-43.42 308.86,-41.7 299.61,-36.52 298.4,-43.42"/>
</a>
</g>
</g>
<!-- Node6 -->
<g id="Node000006" class="node">
<title>Node6</title>
<g id="a_Node000006"><a xlink:href="main__utils_8c.html#ae35edfb8f1339d6f77f53c28eb2a2ed6" target="_top" xlink:title="Handles a complete cycle of input → parsing → execution.">
<polygon fill="white" stroke="#666666" points="156,-38 77,-38 77,-19 156,-19 156,-38"/>
<text text-anchor="middle" x="116.5" y="-26" font-family="Helvetica,sans-Serif" font-size="10.00">ft_main_flow</text>
</a>
</g>
</g>
<!-- Node5&#45;&gt;Node6 -->
<g id="edge5_Node000005_Node000006" class="edge">
<title>Node5&#45;&gt;Node6</title>
<g id="a_edge5_Node000005_Node000006"><a xlink:title=" ">
<path fill="none" stroke="#63b8ff" d="M181.7,-28.5C173.16,-28.5 164.4,-28.5 156.21,-28.5"/>
<polygon fill="#63b8ff" stroke="#63b8ff" points="181.95,-32 191.95,-28.5 181.95,-25 181.95,-32"/>
</a>
</g>
</g>
<!-- Node7 -->
<g id="Node000007" class="node">
<title>Node7</title>
<g id="a_Node000007"><a xlink:href="main_8c.html#ab3862b46d6a8d13c2d884a297e6b05b5" target="_top" xlink:title="Main function of the minishell.">
<polygon fill="white" stroke="#666666" points="41,-38 0,-38 0,-19 41,-19 41,-38"/>
<text text-anchor="middle" x="20.5" y="-26" font-family="Helvetica,sans-Serif" font-size="10.00">main</text>
</a>
</g>
</g>
<!-- Node6&#45;&gt;Node7 -->
<g id="edge6_Node000006_Node000007" class="edge">
<title>Node6&#45;&gt;Node7</title>
<g id="a_edge6_Node000006_Node000007"><a xlink:title=" ">
<path fill="none" stroke="#63b8ff" d="M66.74,-28.5C57.62,-28.5 48.59,-28.5 41.03,-28.5"/>
<polygon fill="#63b8ff" stroke="#63b8ff" points="67,-32 77,-28.5 67,-25 67,-32"/>
</a>
</g>
</g>
<!-- Node8&#45;&gt;Node5 -->
<g id="edge8_Node000008_Node000005" class="edge">
<title>Node8&#45;&gt;Node5</title>
<g id="a_edge8_Node000008_Node000005"><a xlink:title=" ">
<path fill="none" stroke="#63b8ff" d="M960.21,-9.5C901.35,-9.5 805.9,-9.5 723.5,-9.5 723.5,-9.5 723.5,-9.5 449,-9.5 387.4,-9.5 316.29,-17.3 273.13,-22.9"/>
<polygon fill="#63b8ff" stroke="#63b8ff" points="960.4,-13 970.4,-9.5 960.4,-6 960.4,-13"/>
</a>
</g>
</g>
<!-- Node10 -->
<g id="Node000010" class="node">
<title>Node10</title>
<g id="a_Node000010"><a xlink:href="handle__heredoc_8c.html#ac5ba13b1edbd22e4a7e0a50fc91f80db" target="_top" xlink:title="Executes a single read&#45;write cycle of the here&#45;document.">
<polygon fill="white" stroke="#666666" points="1190,-95 1100,-95 1100,-76 1190,-76 1190,-95"/>
<text text-anchor="middle" x="1145" y="-83" font-family="Helvetica,sans-Serif" font-size="10.00">ft_exe_heredoc</text>
</a>
</g>
</g>
<!-- Node9&#45;&gt;Node10 -->
<g id="edge10_Node000009_Node000010" class="edge">
<title>Node9&#45;&gt;Node10</title>
<g id="a_edge10_Node000009_Node000010"><a xlink:title=" ">
<path fill="none" stroke="#63b8ff" d="M1215.57,-85.5C1207.16,-85.5 1198.52,-85.5 1190.33,-85.5"/>
<polygon fill="#63b8ff" stroke="#63b8ff" points="1215.67,-89 1225.67,-85.5 1215.67,-82 1215.67,-89"/>
</a>
</g>
</g>
<!-- Node11 -->
<g id="Node000011" class="node">
<title>Node11</title>
<g id="a_Node000011"><a xlink:href="handle__heredoc_8c.html#a922eae1c49290306f7cf811bf65d9ed1" target="_top" xlink:title="Handles the entire input process for a here&#45;document.">
<polygon fill="white" stroke="#666666" points="1064,-96 970,-96 970,-77 1064,-77 1064,-96"/>
<text text-anchor="middle" x="1017" y="-84" font-family="Helvetica,sans-Serif" font-size="10.00">handle_heredoc</text>
</a>
</g>
</g>
<!-- Node10&#45;&gt;Node11 -->
<g id="edge11_Node000010_Node000011" class="edge">
<title>Node10&#45;&gt;Node11</title>
<g id="a_edge11_Node000010_Node000011"><a xlink:title=" ">
<path fill="none" stroke="#63b8ff" d="M1089.77,-85.93C1081.32,-86 1072.65,-86.07 1064.4,-86.13"/>
<polygon fill="#63b8ff" stroke="#63b8ff" points="1089.96,-89.43 1099.93,-85.85 1089.9,-82.43 1089.96,-89.43"/>
</a>
</g>
</g>
<!-- Node12 -->
<g id="Node000012" class="node">
<title>Node12</title>
<g id="a_Node000012"><a xlink:href="handle__redirections_8c.html#a2834314002a1f4ef4af82f95159b0a34" target="_top" xlink:title="Handles input redirection from file or heredoc.">
<polygon fill="white" stroke="#666666" points="934,-97 815,-97 815,-78 934,-78 934,-97"/>
<text text-anchor="middle" x="874.5" y="-85" font-family="Helvetica,sans-Serif" font-size="10.00">ft_handle_infile_redir</text>
</a>
</g>
</g>
<!-- Node11&#45;&gt;Node12 -->
<g id="edge12_Node000011_Node000012" class="edge">
<title>Node11&#45;&gt;Node12</title>
<g id="a_edge12_Node000011_Node000012"><a xlink:title=" ">
<path fill="none" stroke="#63b8ff" d="M959.86,-86.9C951.41,-86.96 942.67,-87.02 934.17,-87.08"/>
<polygon fill="#63b8ff" stroke="#63b8ff" points="960.02,-90.4 970,-86.83 959.97,-83.4 960.02,-90.4"/>
</a>
</g>
</g>
<!-- Node13 -->
<g id="Node000013" class="node">
<title>Node13</title>
<g id="a_Node000013"><a xlink:href="handle__redirections_8c.html#aa4509a43f47ed881eb2d81fb81458466" target="_top" xlink:title="Handles redirections without an associated command.">
<polygon fill="white" stroke="#666666" points="779,-105.5 666,-105.5 666,-75.5 779,-75.5 779,-105.5"/>
<text text-anchor="start" x="674" y="-93.5" font-family="Helvetica,sans-Serif" font-size="10.00">handle_redirection</text>
<text text-anchor="middle" x="722.5" y="-82.5" font-family="Helvetica,sans-Serif" font-size="10.00">_without_command</text>
</a>
</g>
</g>
<!-- Node12&#45;&gt;Node13 -->
<g id="edge13_Node000012_Node000013" class="edge">
<title>Node12&#45;&gt;Node13</title>
<g id="a_edge13_Node000012_Node000013"><a xlink:title=" ">
<path fill="none" stroke="#63b8ff" d="M804.43,-88.88C795.99,-89.05 787.45,-89.22 779.24,-89.39"/>
<polygon fill="#63b8ff" stroke="#63b8ff" points="804.72,-92.38 814.65,-88.68 804.58,-85.38 804.72,-92.38"/>
</a>
</g>
</g>
<!-- Node14 -->
<g id="Node000014" class="node">
<title>Node14</title>
<g id="a_Node000014"><a xlink:href="handle__redirections_8c.html#ab2c37fefb1291d3f8d0dc91e8c096334" target="_top" xlink:title="Handles redirection associated with a command.">
<polygon fill="white" stroke="#666666" points="630,-97 523,-97 523,-78 630,-78 630,-97"/>
<text text-anchor="middle" x="576.5" y="-85" font-family="Helvetica,sans-Serif" font-size="10.00">handle_redirection</text>
</a>
</g>
</g>
<!-- Node13&#45;&gt;Node14 -->
<g id="edge14_Node000013_Node000014" class="edge">
<title>Node13&#45;&gt;Node14</title>
<g id="a_edge14_Node000013_Node000014"><a xlink:title=" ">
<path fill="none" stroke="#63b8ff" d="M655.83,-89.13C647.24,-88.95 638.53,-88.77 630.19,-88.6"/>
<polygon fill="#63b8ff" stroke="#63b8ff" points="655.76,-92.63 665.83,-89.34 655.9,-85.63 655.76,-92.63"/>
</a>
</g>
</g>
<!-- Node15 -->
<g id="Node000015" class="node">
<title>Node15</title>
<g id="a_Node000015"><a xlink:href="create__command__list_8c.html#ae2006bf82a70d4753ffdca65847316ca" target="_top" xlink:title="Executes a redirection for the current command.">
<polygon fill="white" stroke="#666666" points="487,-96 413,-96 413,-77 487,-77 487,-96"/>
<text text-anchor="middle" x="450" y="-84" font-family="Helvetica,sans-Serif" font-size="10.00">ft_exe_redir</text>
</a>
</g>
</g>
<!-- Node14&#45;&gt;Node15 -->
<g id="edge15_Node000014_Node000015" class="edge">
<title>Node14&#45;&gt;Node15</title>
<g id="a_edge15_Node000014_Node000015"><a xlink:title=" ">
<path fill="none" stroke="#63b8ff" d="M512.56,-86.99C503.9,-86.92 495.25,-86.86 487.3,-86.79"/>
<polygon fill="#63b8ff" stroke="#63b8ff" points="512.67,-90.5 522.7,-87.08 512.73,-83.5 512.67,-90.5"/>
</a>
</g>
</g>
<!-- Node15&#45;&gt;Node4 -->
<g id="edge16_Node000015_Node000004" class="edge">
<title>Node15&#45;&gt;Node4</title>
<g id="a_edge16_Node000015_Node000004"><a xlink:title=" ">
<path fill="none" stroke="#63b8ff" d="M413.73,-73.4C399.34,-68.06 383.02,-61.99 369.78,-57.08"/>
<polygon fill="#63b8ff" stroke="#63b8ff" points="412.72,-76.76 423.31,-76.96 415.16,-70.2 412.72,-76.76"/>
</a>
</g>
</g>
</g>
</svg>
