<?xml version="1.0" encoding="UTF-8" standalone="no"?>
<!DOCTYPE svg PUBLIC "-//W3C//DTD SVG 1.1//EN"
 "http://www.w3.org/Graphics/SVG/1.1/DTD/svg11.dtd">
<!-- Generated by graphviz version 2.43.0 (0)
 -->
<!-- Title: common_utils/utils_token.c Pages: 1 -->
<svg width="962pt" height="203pt"
 viewBox="0.00 0.00 961.50 203.00" xmlns="http://www.w3.org/2000/svg" xmlns:xlink="http://www.w3.org/1999/xlink">
<g id="graph0" class="graph" transform="scale(1 1) rotate(0) translate(4 199)">
<title>common_utils/utils_token.c</title>
<!-- Node1 -->
<g id="Node000001" class="node">
<title>Node1</title>
<g id="a_Node000001"><a xlink:title=" ">
<polygon fill="#999999" stroke="#666666" points="641.5,-195 531.5,-195 531.5,-165 641.5,-165 641.5,-195"/>
<text text-anchor="start" x="539.5" y="-183" font-family="Helvetica,sans-Serif" font-size="10.00">common_utils/utils</text>
<text text-anchor="middle" x="586.5" y="-172" font-family="Helvetica,sans-Serif" font-size="10.00">_token.c</text>
</a>
</g>
</g>
<!-- Node2 -->
<g id="Node000002" class="node">
<title>Node2</title>
<g id="a_Node000002"><a xlink:href="common__utils_8h.html" target="_top" xlink:title=" ">
<polygon fill="white" stroke="#666666" points="596,-129 501,-129 501,-110 596,-110 596,-129"/>
<text text-anchor="middle" x="548.5" y="-117" font-family="Helvetica,sans-Serif" font-size="10.00">common_utils.h</text>
</a>
</g>
</g>
<!-- Node1&#45;&gt;Node2 -->
<g id="edge1_Node000001_Node000002" class="edge">
<title>Node1&#45;&gt;Node2</title>
<g id="a_edge1_Node000001_Node000002"><a xlink:title=" ">
<path fill="none" stroke="#63b8ff" d="M577.3,-164.84C572.01,-156.69 565.32,-146.4 559.72,-137.78"/>
<polygon fill="#63b8ff" stroke="#63b8ff" points="562.58,-135.75 554.19,-129.27 556.71,-139.56 562.58,-135.75"/>
</a>
</g>
</g>
<!-- Node18 -->
<g id="Node000018" class="node">
<title>Node18</title>
<g id="a_Node000018"><a xlink:title=" ">
<polygon fill="#e0e0e0" stroke="#999999" points="953.5,-74 891.5,-74 891.5,-55 953.5,-55 953.5,-74"/>
<text text-anchor="middle" x="922.5" y="-62" font-family="Helvetica,sans-Serif" font-size="10.00">stdbool.h</text>
</a>
</g>
</g>
<!-- Node1&#45;&gt;Node18 -->
<g id="edge22_Node000001_Node000018" class="edge">
<title>Node1&#45;&gt;Node18</title>
<g id="a_edge22_Node000001_Node000018"><a xlink:title=" ">
<path fill="none" stroke="#63b8ff" d="M628.04,-164.97C694.73,-142.44 824.54,-98.59 887.11,-77.46"/>
<polygon fill="#63b8ff" stroke="#63b8ff" points="888.55,-80.66 896.91,-74.14 886.31,-74.03 888.55,-80.66"/>
</a>
</g>
</g>
<!-- Node3 -->
<g id="Node000003" class="node">
<title>Node3</title>
<g id="a_Node000003"><a xlink:href="libft_8h.html" target="_top" xlink:title=" ">
<polygon fill="white" stroke="#666666" points="281,-74 206,-74 206,-55 281,-55 281,-74"/>
<text text-anchor="middle" x="243.5" y="-62" font-family="Helvetica,sans-Serif" font-size="10.00">../libft/libft.h</text>
</a>
</g>
</g>
<!-- Node2&#45;&gt;Node3 -->
<g id="edge2_Node000002_Node000003" class="edge">
<title>Node2&#45;&gt;Node3</title>
<g id="a_edge2_Node000002_Node000003"><a xlink:title=" ">
<path fill="none" stroke="#63b8ff" d="M500.84,-110.22C443.63,-100.28 348.25,-83.7 291.07,-73.77"/>
<polygon fill="#63b8ff" stroke="#63b8ff" points="291.66,-70.32 281.2,-72.05 290.46,-77.21 291.66,-70.32"/>
</a>
</g>
</g>
<!-- Node4 -->
<g id="Node000004" class="node">
<title>Node4</title>
<g id="a_Node000004"><a xlink:title=" ">
<polygon fill="#e0e0e0" stroke="#999999" points="789.5,-19 733.5,-19 733.5,0 789.5,0 789.5,-19"/>
<text text-anchor="middle" x="761.5" y="-7" font-family="Helvetica,sans-Serif" font-size="10.00">unistd.h</text>
</a>
</g>
</g>
<!-- Node2&#45;&gt;Node4 -->
<g id="edge21_Node000002_Node000004" class="edge">
<title>Node2&#45;&gt;Node4</title>
<g id="a_edge21_Node000002_Node000004"><a xlink:title=" ">
<path fill="none" stroke="#63b8ff" d="M596.02,-118.55C671.38,-117.5 813.01,-110.58 844.5,-74 862.76,-52.78 828.86,-34.07 799.04,-22.56"/>
<polygon fill="#63b8ff" stroke="#63b8ff" points="800.16,-19.24 789.57,-19.08 797.75,-25.81 800.16,-19.24"/>
</a>
</g>
</g>
<!-- Node5 -->
<g id="Node000005" class="node">
<title>Node5</title>
<g id="a_Node000005"><a xlink:title=" ">
<polygon fill="#e0e0e0" stroke="#999999" points="53,-19 0,-19 0,0 53,0 53,-19"/>
<text text-anchor="middle" x="26.5" y="-7" font-family="Helvetica,sans-Serif" font-size="10.00">stdlib.h</text>
</a>
</g>
</g>
<!-- Node2&#45;&gt;Node5 -->
<g id="edge19_Node000002_Node000005" class="edge">
<title>Node2&#45;&gt;Node5</title>
<g id="a_edge19_Node000002_Node000005"><a xlink:title=" ">
<path fill="none" stroke="#63b8ff" d="M500.89,-118.34C425.91,-116.94 276.41,-109.44 155.5,-74 115.99,-62.42 73.85,-39.41 48.86,-24.49"/>
<polygon fill="#63b8ff" stroke="#63b8ff" points="50.53,-21.41 40.17,-19.22 46.9,-27.4 50.53,-21.41"/>
</a>
</g>
</g>
<!-- Node6 -->
<g id="Node000006" class="node">
<title>Node6</title>
<g id="a_Node000006"><a xlink:title=" ">
<polygon fill="#e0e0e0" stroke="#999999" points="124,-19 71,-19 71,0 124,0 124,-19"/>
<text text-anchor="middle" x="97.5" y="-7" font-family="Helvetica,sans-Serif" font-size="10.00">string.h</text>
</a>
</g>
</g>
<!-- Node2&#45;&gt;Node6 -->
<g id="edge20_Node000002_Node000006" class="edge">
<title>Node2&#45;&gt;Node6</title>
<g id="a_edge20_Node000002_Node000006"><a xlink:title=" ">
<path fill="none" stroke="#63b8ff" d="M500.83,-119.06C431.68,-118.42 300.44,-111.71 196.5,-74 165.51,-62.76 134.24,-40.44 115.36,-25.49"/>
<polygon fill="#63b8ff" stroke="#63b8ff" points="117.35,-22.6 107.38,-19.01 112.94,-28.03 117.35,-22.6"/>
</a>
</g>
</g>
<!-- Node9 -->
<g id="Node000009" class="node">
<title>Node9</title>
<g id="a_Node000009"><a xlink:title=" ">
<polygon fill="#e0e0e0" stroke="#999999" points="614,-19 567,-19 567,0 614,0 614,-19"/>
<text text-anchor="middle" x="590.5" y="-7" font-family="Helvetica,sans-Serif" font-size="10.00">fcntl.h</text>
</a>
</g>
</g>
<!-- Node2&#45;&gt;Node9 -->
<g id="edge15_Node000002_Node000009" class="edge">
<title>Node2&#45;&gt;Node9</title>
<g id="a_edge15_Node000002_Node000009"><a xlink:title=" ">
<path fill="none" stroke="#63b8ff" d="M500.84,-119.46C422.48,-119.48 279.74,-112.03 328.5,-55 360.21,-17.91 492.06,-28.15 556.64,-18.68"/>
<polygon fill="#63b8ff" stroke="#63b8ff" points="557.53,-22.08 566.77,-16.9 556.32,-15.18 557.53,-22.08"/>
</a>
</g>
</g>
<!-- Node13 -->
<g id="Node000013" class="node">
<title>Node13</title>
<g id="a_Node000013"><a xlink:href="signal__flag_8h.html" target="_top" xlink:title=" ">
<polygon fill="white" stroke="#666666" points="415.5,-74 337.5,-74 337.5,-55 415.5,-55 415.5,-74"/>
<text text-anchor="middle" x="376.5" y="-62" font-family="Helvetica,sans-Serif" font-size="10.00">signal_flag.h</text>
</a>
</g>
</g>
<!-- Node2&#45;&gt;Node13 -->
<g id="edge12_Node000002_Node000013" class="edge">
<title>Node2&#45;&gt;Node13</title>
<g id="a_edge12_Node000002_Node000013"><a xlink:title=" ">
<path fill="none" stroke="#63b8ff" d="M520.87,-109.98C491.99,-101.09 446.49,-87.07 414.3,-77.15"/>
<polygon fill="#63b8ff" stroke="#63b8ff" points="414.94,-73.68 404.35,-74.08 412.88,-80.37 414.94,-73.68"/>
</a>
</g>
</g>
<!-- Node14 -->
<g id="Node000014" class="node">
<title>Node14</title>
<g id="a_Node000014"><a xlink:title=" ">
<polygon fill="#e0e0e0" stroke="#999999" points="541.5,-74 433.5,-74 433.5,-55 541.5,-55 541.5,-74"/>
<text text-anchor="middle" x="487.5" y="-62" font-family="Helvetica,sans-Serif" font-size="10.00">readline/readline.h</text>
</a>
</g>
</g>
<!-- Node2&#45;&gt;Node14 -->
<g id="edge13_Node000002_Node000014" class="edge">
<title>Node2&#45;&gt;Node14</title>
<g id="a_edge13_Node000002_Node000014"><a xlink:title=" ">
<path fill="none" stroke="#63b8ff" d="M538.7,-109.98C529.68,-102.15 516.09,-90.34 505.18,-80.86"/>
<polygon fill="#63b8ff" stroke="#63b8ff" points="507.32,-78.09 497.48,-74.17 502.73,-83.37 507.32,-78.09"/>
</a>
</g>
</g>
<!-- Node15 -->
<g id="Node000015" class="node">
<title>Node15</title>
<g id="a_Node000015"><a xlink:title=" ">
<polygon fill="#e0e0e0" stroke="#999999" points="661,-74 560,-74 560,-55 661,-55 661,-74"/>
<text text-anchor="middle" x="610.5" y="-62" font-family="Helvetica,sans-Serif" font-size="10.00">readline/history.h</text>
</a>
</g>
</g>
<!-- Node2&#45;&gt;Node15 -->
<g id="edge14_Node000002_Node000015" class="edge">
<title>Node2&#45;&gt;Node15</title>
<g id="a_edge14_Node000002_Node000015"><a xlink:title=" ">
<path fill="none" stroke="#63b8ff" d="M558.46,-109.98C567.63,-102.15 581.44,-90.34 592.53,-80.86"/>
<polygon fill="#63b8ff" stroke="#63b8ff" points="595.03,-83.33 600.36,-74.17 590.48,-78.01 595.03,-83.33"/>
</a>
</g>
</g>
<!-- Node16 -->
<g id="Node000016" class="node">
<title>Node16</title>
<g id="a_Node000016"><a xlink:title=" ">
<polygon fill="#e0e0e0" stroke="#999999" points="751.5,-74 679.5,-74 679.5,-55 751.5,-55 751.5,-74"/>
<text text-anchor="middle" x="715.5" y="-62" font-family="Helvetica,sans-Serif" font-size="10.00">sys/types.h</text>
</a>
</g>
</g>
<!-- Node2&#45;&gt;Node16 -->
<g id="edge16_Node000002_Node000016" class="edge">
<title>Node2&#45;&gt;Node16</title>
<g id="a_edge16_Node000002_Node000016"><a xlink:title=" ">
<path fill="none" stroke="#63b8ff" d="M575.33,-109.98C603.37,-101.09 647.55,-87.07 678.8,-77.15"/>
<polygon fill="#63b8ff" stroke="#63b8ff" points="679.99,-80.44 688.46,-74.08 677.87,-73.77 679.99,-80.44"/>
</a>
</g>
</g>
<!-- Node17 -->
<g id="Node000017" class="node">
<title>Node17</title>
<g id="a_Node000017"><a xlink:title=" ">
<polygon fill="#e0e0e0" stroke="#999999" points="835.5,-74 769.5,-74 769.5,-55 835.5,-55 835.5,-74"/>
<text text-anchor="middle" x="802.5" y="-62" font-family="Helvetica,sans-Serif" font-size="10.00">sys/wait.h</text>
</a>
</g>
</g>
<!-- Node2&#45;&gt;Node17 -->
<g id="edge17_Node000002_Node000017" class="edge">
<title>Node2&#45;&gt;Node17</title>
<g id="a_edge17_Node000002_Node000017"><a xlink:title=" ">
<path fill="none" stroke="#63b8ff" d="M589.31,-109.98C635.95,-100.25 711.96,-84.39 759.5,-74.47"/>
<polygon fill="#63b8ff" stroke="#63b8ff" points="760.4,-77.86 769.48,-72.39 758.98,-71.01 760.4,-77.86"/>
</a>
</g>
</g>
<!-- Node2&#45;&gt;Node18 -->
<g id="edge18_Node000002_Node000018" class="edge">
<title>Node2&#45;&gt;Node18</title>
<g id="a_edge18_Node000002_Node000018"><a xlink:title=" ">
<path fill="none" stroke="#63b8ff" d="M596.02,-112.86C660.08,-105.08 777.65,-90.17 877.5,-74 878.6,-73.82 879.71,-73.64 880.83,-73.45"/>
<polygon fill="#63b8ff" stroke="#63b8ff" points="881.82,-76.83 891.07,-71.65 880.61,-69.94 881.82,-76.83"/>
</a>
</g>
</g>
<!-- Node3&#45;&gt;Node4 -->
<g id="edge3_Node000003_Node000004" class="edge">
<title>Node3&#45;&gt;Node4</title>
<g id="a_edge3_Node000003_Node000004"><a xlink:title=" ">
<path fill="none" stroke="#63b8ff" d="M281.17,-59.65C376.65,-49.88 627.37,-24.22 723.36,-14.4"/>
<polygon fill="#63b8ff" stroke="#63b8ff" points="723.89,-17.87 733.49,-13.37 723.18,-10.9 723.89,-17.87"/>
</a>
</g>
</g>
<!-- Node3&#45;&gt;Node5 -->
<g id="edge4_Node000003_Node000005" class="edge">
<title>Node3&#45;&gt;Node5</title>
<g id="a_edge4_Node000003_Node000005"><a xlink:title=" ">
<path fill="none" stroke="#63b8ff" d="M208.64,-54.98C168.65,-45.22 103.41,-29.29 62.83,-19.37"/>
<polygon fill="#63b8ff" stroke="#63b8ff" points="63.62,-15.96 53.07,-16.99 61.96,-22.76 63.62,-15.96"/>
</a>
</g>
</g>
<!-- Node3&#45;&gt;Node6 -->
<g id="edge5_Node000003_Node000006" class="edge">
<title>Node3&#45;&gt;Node6</title>
<g id="a_edge5_Node000003_Node000006"><a xlink:title=" ">
<path fill="none" stroke="#63b8ff" d="M220.04,-54.98C195.92,-46.23 158.13,-32.51 130.9,-22.62"/>
<polygon fill="#63b8ff" stroke="#63b8ff" points="131.98,-19.29 121.38,-19.17 129.59,-25.87 131.98,-19.29"/>
</a>
</g>
</g>
<!-- Node7 -->
<g id="Node000007" class="node">
<title>Node7</title>
<g id="a_Node000007"><a xlink:title=" ">
<polygon fill="#e0e0e0" stroke="#999999" points="338.5,-19 288.5,-19 288.5,0 338.5,0 338.5,-19"/>
<text text-anchor="middle" x="313.5" y="-7" font-family="Helvetica,sans-Serif" font-size="10.00">stdio.h</text>
</a>
</g>
</g>
<!-- Node3&#45;&gt;Node7 -->
<g id="edge6_Node000003_Node000007" class="edge">
<title>Node3&#45;&gt;Node7</title>
<g id="a_edge6_Node000003_Node000007"><a xlink:title=" ">
<path fill="none" stroke="#63b8ff" d="M254.75,-54.98C265.3,-47 281.3,-34.88 293.94,-25.31"/>
<polygon fill="#63b8ff" stroke="#63b8ff" points="296.19,-28 302.05,-19.17 291.96,-22.42 296.19,-28"/>
</a>
</g>
</g>
<!-- Node8 -->
<g id="Node000008" class="node">
<title>Node8</title>
<g id="a_Node000008"><a xlink:title=" ">
<polygon fill="#e0e0e0" stroke="#999999" points="412,-19 357,-19 357,0 412,0 412,-19"/>
<text text-anchor="middle" x="384.5" y="-7" font-family="Helvetica,sans-Serif" font-size="10.00">signal.h</text>
</a>
</g>
</g>
<!-- Node3&#45;&gt;Node8 -->
<g id="edge7_Node000003_Node000008" class="edge">
<title>Node3&#45;&gt;Node8</title>
<g id="a_edge7_Node000003_Node000008"><a xlink:title=" ">
<path fill="none" stroke="#63b8ff" d="M266.15,-54.98C289.35,-46.27 325.62,-32.63 351.9,-22.75"/>
<polygon fill="#63b8ff" stroke="#63b8ff" points="353.3,-25.97 361.43,-19.17 350.84,-19.41 353.3,-25.97"/>
</a>
</g>
</g>
<!-- Node3&#45;&gt;Node9 -->
<g id="edge8_Node000003_Node000009" class="edge">
<title>Node3&#45;&gt;Node9</title>
<g id="a_edge8_Node000003_Node000009"><a xlink:title=" ">
<path fill="none" stroke="#63b8ff" d="M281.26,-57.21C286.05,-56.45 290.89,-55.69 295.5,-55 408.55,-38 440.44,-41.48 556.77,-18.92"/>
<polygon fill="#63b8ff" stroke="#63b8ff" points="557.64,-22.32 566.78,-16.96 556.3,-15.45 557.64,-22.32"/>
</a>
</g>
</g>
<!-- Node10 -->
<g id="Node000010" class="node">
<title>Node10</title>
<g id="a_Node000010"><a xlink:title=" ">
<polygon fill="#e0e0e0" stroke="#999999" points="549,-19 430,-19 430,0 549,0 549,-19"/>
<text text-anchor="middle" x="489.5" y="-7" font-family="Helvetica,sans-Serif" font-size="10.00">bits/types/siginfo_t.h</text>
</a>
</g>
</g>
<!-- Node3&#45;&gt;Node10 -->
<g id="edge9_Node000003_Node000010" class="edge">
<title>Node3&#45;&gt;Node10</title>
<g id="a_edge9_Node000003_Node000010"><a xlink:title=" ">
<path fill="none" stroke="#63b8ff" d="M281.13,-55.39C323.64,-46.23 392.99,-31.29 439.89,-21.19"/>
<polygon fill="#63b8ff" stroke="#63b8ff" points="440.8,-24.57 449.84,-19.05 439.32,-17.73 440.8,-24.57"/>
</a>
</g>
</g>
<!-- Node11 -->
<g id="Node000011" class="node">
<title>Node11</title>
<g id="a_Node000011"><a xlink:title=" ">
<polygon fill="#e0e0e0" stroke="#999999" points="198.5,-19 142.5,-19 142.5,0 198.5,0 198.5,-19"/>
<text text-anchor="middle" x="170.5" y="-7" font-family="Helvetica,sans-Serif" font-size="10.00">stdarg.h</text>
</a>
</g>
</g>
<!-- Node3&#45;&gt;Node11 -->
<g id="edge10_Node000003_Node000011" class="edge">
<title>Node3&#45;&gt;Node11</title>
<g id="a_edge10_Node000003_Node000011"><a xlink:title=" ">
<path fill="none" stroke="#63b8ff" d="M231.77,-54.98C220.77,-47 204.08,-34.88 190.9,-25.31"/>
<polygon fill="#63b8ff" stroke="#63b8ff" points="192.59,-22.21 182.44,-19.17 188.48,-27.88 192.59,-22.21"/>
</a>
</g>
</g>
<!-- Node12 -->
<g id="Node000012" class="node">
<title>Node12</title>
<g id="a_Node000012"><a xlink:title=" ">
<polygon fill="#e0e0e0" stroke="#999999" points="270,-19 217,-19 217,0 270,0 270,-19"/>
<text text-anchor="middle" x="243.5" y="-7" font-family="Helvetica,sans-Serif" font-size="10.00">limits.h</text>
</a>
</g>
</g>
<!-- Node3&#45;&gt;Node12 -->
<g id="edge11_Node000003_Node000012" class="edge">
<title>Node3&#45;&gt;Node12</title>
<g id="a_edge11_Node000003_Node000012"><a xlink:title=" ">
<path fill="none" stroke="#63b8ff" d="M243.5,-54.75C243.5,-47.8 243.5,-37.85 243.5,-29.13"/>
<polygon fill="#63b8ff" stroke="#63b8ff" points="247,-29.09 243.5,-19.09 240,-29.09 247,-29.09"/>
</a>
</g>
</g>
</g>
</svg>
