<?xml version="1.0" encoding="UTF-8" standalone="no"?>
<!DOCTYPE svg PUBLIC "-//W3C//DTD SVG 1.1//EN"
 "http://www.w3.org/Graphics/SVG/1.1/DTD/svg11.dtd">
<!-- Generated by graphviz version 2.43.0 (0)
 -->
<!-- Title: is_redir Pages: 1 -->
<svg width="763pt" height="140pt"
 viewBox="0.00 0.00 763.00 140.00" xmlns="http://www.w3.org/2000/svg" xmlns:xlink="http://www.w3.org/1999/xlink">
<g id="graph0" class="graph" transform="scale(1 1) rotate(0) translate(4 136)">
<title>is_redir</title>
<!-- Node1 -->
<g id="Node000001" class="node">
<title>Node1</title>
<g id="a_Node000001"><a xlink:title="Checks if the token represents a redirection.">
<polygon fill="#999999" stroke="#666666" points="755,-76 702,-76 702,-57 755,-57 755,-76"/>
<text text-anchor="middle" x="728.5" y="-64" font-family="Helvetica,sans-Serif" font-size="10.00">is_redir</text>
</a>
</g>
</g>
<!-- Node2 -->
<g id="Node000002" class="node">
<title>Node2</title>
<g id="a_Node000002"><a xlink:href="assign__token__type_8c.html#afe8f8f4301ccbcd33344e893f665c442" target="_top" xlink:title="Correctly assigns types to tokens related to redirections and here&#45;documents.">
<polygon fill="white" stroke="#666666" points="666,-132 590,-132 590,-113 666,-113 666,-132"/>
<text text-anchor="middle" x="628" y="-120" font-family="Helvetica,sans-Serif" font-size="10.00">assign_redir</text>
</a>
</g>
</g>
<!-- Node1&#45;&gt;Node2 -->
<g id="edge1_Node000001_Node000002" class="edge">
<title>Node1&#45;&gt;Node2</title>
<g id="a_edge1_Node000001_Node000002"><a xlink:title=" ">
<path fill="none" stroke="#63b8ff" d="M704.11,-81.72C692.76,-88.91 678.84,-97.43 666,-104.5 660.74,-107.39 654.95,-110.33 649.54,-112.96"/>
<polygon fill="#63b8ff" stroke="#63b8ff" points="706.05,-84.64 712.59,-76.3 702.28,-78.74 706.05,-84.64"/>
</a>
</g>
</g>
<!-- Node9 -->
<g id="Node000009" class="node">
<title>Node9</title>
<g id="a_Node000009"><a xlink:href="check__sintax__utils_8c.html#a2ce60b5e74342ed1a7442aed0a3a72ab" target="_top" xlink:title="Checks the syntactic correctness of a pipe.">
<polygon fill="white" stroke="#666666" points="663.5,-95 592.5,-95 592.5,-76 663.5,-76 663.5,-95"/>
<text text-anchor="middle" x="628" y="-83" font-family="Helvetica,sans-Serif" font-size="10.00">check_pipe</text>
</a>
</g>
</g>
<!-- Node1&#45;&gt;Node9 -->
<g id="edge9_Node000001_Node000009" class="edge">
<title>Node1&#45;&gt;Node9</title>
<g id="a_edge9_Node000001_Node000009"><a xlink:title=" ">
<path fill="none" stroke="#63b8ff" d="M691.9,-73.37C682.73,-75.14 672.88,-77.03 663.76,-78.79"/>
<polygon fill="#63b8ff" stroke="#63b8ff" points="692.72,-76.77 701.88,-71.44 691.4,-69.9 692.72,-76.77"/>
</a>
</g>
</g>
<!-- Node10 -->
<g id="Node000010" class="node">
<title>Node10</title>
<g id="a_Node000010"><a xlink:href="check__sintax_8c.html#a3dadca8fc2261c0e335299829d01f84b" target="_top" xlink:title="Checks for syntax errors on a single token.">
<polygon fill="white" stroke="#666666" points="543.5,-57 451.5,-57 451.5,-38 543.5,-38 543.5,-57"/>
<text text-anchor="middle" x="497.5" y="-45" font-family="Helvetica,sans-Serif" font-size="10.00">ft_sintax_errors</text>
</a>
</g>
</g>
<!-- Node1&#45;&gt;Node10 -->
<g id="edge16_Node000001_Node000010" class="edge">
<title>Node1&#45;&gt;Node10</title>
<g id="a_edge16_Node000001_Node000010"><a xlink:title=" ">
<path fill="none" stroke="#63b8ff" d="M691.61,-63.52C651.74,-60.21 587.28,-54.87 543.93,-51.27"/>
<polygon fill="#63b8ff" stroke="#63b8ff" points="691.42,-67.02 701.68,-64.36 692,-60.04 691.42,-67.02"/>
</a>
</g>
</g>
<!-- Node13 -->
<g id="Node000013" class="node">
<title>Node13</title>
<g id="a_Node000013"><a xlink:href="create__command__list_8c.html#ad16d74756b107a98677124008c71d23b" target="_top" xlink:title="Creates a command list from tokens.">
<polygon fill="white" stroke="#666666" points="531.5,-19 463.5,-19 463.5,0 531.5,0 531.5,-19"/>
<text text-anchor="middle" x="497.5" y="-7" font-family="Helvetica,sans-Serif" font-size="10.00">create_list</text>
</a>
</g>
</g>
<!-- Node1&#45;&gt;Node13 -->
<g id="edge14_Node000001_Node000013" class="edge">
<title>Node1&#45;&gt;Node13</title>
<g id="a_edge14_Node000001_Node000013"><a xlink:title=" ">
<path fill="none" stroke="#63b8ff" d="M692.09,-57.2C683.56,-54.98 674.46,-52.64 666,-50.5 619.41,-38.74 565.4,-25.61 531.59,-17.45"/>
<polygon fill="#63b8ff" stroke="#63b8ff" points="691.23,-60.59 701.79,-59.72 692.99,-53.81 691.23,-60.59"/>
</a>
</g>
</g>
<!-- Node3 -->
<g id="Node000003" class="node">
<title>Node3</title>
<g id="a_Node000003"><a xlink:href="assign__token__type_8c.html#a51e5006d1819ae97939773490b75ffaa" target="_top" xlink:title="Assigns correct types to the tokens in the list (COMMAND, ARGUMENT, FILE_, DELIMITER,...">
<polygon fill="white" stroke="#666666" points="554,-131 441,-131 441,-112 554,-112 554,-131"/>
<text text-anchor="middle" x="497.5" y="-119" font-family="Helvetica,sans-Serif" font-size="10.00">assign_token_types</text>
</a>
</g>
</g>
<!-- Node2&#45;&gt;Node3 -->
<g id="edge2_Node000002_Node000003" class="edge">
<title>Node2&#45;&gt;Node3</title>
<g id="a_edge2_Node000002_Node000003"><a xlink:title=" ">
<path fill="none" stroke="#63b8ff" d="M579.63,-122.13C571.36,-122.07 562.7,-122 554.23,-121.93"/>
<polygon fill="#63b8ff" stroke="#63b8ff" points="579.81,-125.63 589.83,-122.21 579.86,-118.63 579.81,-125.63"/>
</a>
</g>
</g>
<!-- Node4 -->
<g id="Node000004" class="node">
<title>Node4</title>
<g id="a_Node000004"><a xlink:href="assign__token__type_8c.html#a3a4c4ac34c8fb944f7cdc8889dd7d356" target="_top" xlink:title="Handles the type assignment for PIPE tokens.">
<polygon fill="white" stroke="#666666" points="394,-131 320,-131 320,-112 394,-112 394,-131"/>
<text text-anchor="middle" x="357" y="-119" font-family="Helvetica,sans-Serif" font-size="10.00">assign_pipe</text>
</a>
</g>
</g>
<!-- Node3&#45;&gt;Node4 -->
<g id="edge3_Node000003_Node000004" class="edge">
<title>Node3&#45;&gt;Node4</title>
<g id="a_edge3_Node000003_Node000004"><a xlink:title=" ">
<path fill="none" stroke="#63b8ff" d="M430.86,-114.76C418.18,-114.7 405.34,-114.95 394.05,-115.49"/>
<polygon fill="#63b8ff" stroke="#63b8ff" points="430.93,-118.26 440.96,-114.87 431,-111.26 430.93,-118.26"/>
</a>
</g>
</g>
<!-- Node5 -->
<g id="Node000005" class="node">
<title>Node5</title>
<g id="a_Node000005"><a xlink:href="tokenize__input_8c.html#a040acaabf04da0b8d7ce5da9c1d210d8" target="_top" xlink:title="Assigns types to tokens and applies command&#45;specific rules.">
<polygon fill="white" stroke="#666666" points="405,-94 309,-94 309,-75 405,-75 405,-94"/>
<text text-anchor="middle" x="357" y="-82" font-family="Helvetica,sans-Serif" font-size="10.00">ft_define_tokens</text>
</a>
</g>
</g>
<!-- Node3&#45;&gt;Node5 -->
<g id="edge5_Node000003_Node000005" class="edge">
<title>Node3&#45;&gt;Node5</title>
<g id="a_edge5_Node000003_Node000005"><a xlink:title=" ">
<path fill="none" stroke="#63b8ff" d="M451.13,-109.38C432.6,-104.43 411.47,-98.78 394.03,-94.12"/>
<polygon fill="#63b8ff" stroke="#63b8ff" points="450.27,-112.77 460.83,-111.97 452.07,-106.01 450.27,-112.77"/>
</a>
</g>
</g>
<!-- Node4&#45;&gt;Node3 -->
<g id="edge4_Node000004_Node000003" class="edge">
<title>Node4&#45;&gt;Node3</title>
<g id="a_edge4_Node000004_Node000003"><a xlink:title=" ">
<path fill="none" stroke="#63b8ff" d="M404.12,-127.9C415.92,-128.27 428.74,-128.35 440.96,-128.13"/>
<polygon fill="#63b8ff" stroke="#63b8ff" points="404.18,-124.4 394.05,-127.51 403.9,-131.4 404.18,-124.4"/>
</a>
</g>
</g>
<!-- Node6 -->
<g id="Node000006" class="node">
<title>Node6</title>
<g id="a_Node000006"><a xlink:href="tokenize__input_8c.html#a4e40c3f57ab2488a2b49f37846785b2e" target="_top" xlink:title="Tokenizes the entire user input string.">
<polygon fill="white" stroke="#666666" points="261.5,-94 203.5,-94 203.5,-75 261.5,-75 261.5,-94"/>
<text text-anchor="middle" x="232.5" y="-82" font-family="Helvetica,sans-Serif" font-size="10.00">tokenize</text>
</a>
</g>
</g>
<!-- Node5&#45;&gt;Node6 -->
<g id="edge6_Node000005_Node000006" class="edge">
<title>Node5&#45;&gt;Node6</title>
<g id="a_edge6_Node000005_Node000006"><a xlink:title=" ">
<path fill="none" stroke="#63b8ff" d="M298.77,-84.5C285.92,-84.5 272.83,-84.5 261.78,-84.5"/>
<polygon fill="#63b8ff" stroke="#63b8ff" points="298.99,-88 308.99,-84.5 298.99,-81 298.99,-88"/>
</a>
</g>
</g>
<!-- Node7 -->
<g id="Node000007" class="node">
<title>Node7</title>
<g id="a_Node000007"><a xlink:href="main__utils_8c.html#ae35edfb8f1339d6f77f53c28eb2a2ed6" target="_top" xlink:title="Handles a complete cycle of input → parsing → execution.">
<polygon fill="white" stroke="#666666" points="156,-75 77,-75 77,-56 156,-56 156,-75"/>
<text text-anchor="middle" x="116.5" y="-63" font-family="Helvetica,sans-Serif" font-size="10.00">ft_main_flow</text>
</a>
</g>
</g>
<!-- Node6&#45;&gt;Node7 -->
<g id="edge7_Node000006_Node000007" class="edge">
<title>Node6&#45;&gt;Node7</title>
<g id="a_edge7_Node000006_Node000007"><a xlink:title=" ">
<path fill="none" stroke="#63b8ff" d="M193.2,-78.12C181.25,-76.13 168.07,-73.93 156.11,-71.93"/>
<polygon fill="#63b8ff" stroke="#63b8ff" points="192.88,-81.61 203.32,-79.8 194.03,-74.71 192.88,-81.61"/>
</a>
</g>
</g>
<!-- Node8 -->
<g id="Node000008" class="node">
<title>Node8</title>
<g id="a_Node000008"><a xlink:href="main_8c.html#ab3862b46d6a8d13c2d884a297e6b05b5" target="_top" xlink:title="Main function of the minishell.">
<polygon fill="white" stroke="#666666" points="41,-75 0,-75 0,-56 41,-56 41,-75"/>
<text text-anchor="middle" x="20.5" y="-63" font-family="Helvetica,sans-Serif" font-size="10.00">main</text>
</a>
</g>
</g>
<!-- Node7&#45;&gt;Node8 -->
<g id="edge8_Node000007_Node000008" class="edge">
<title>Node7&#45;&gt;Node8</title>
<g id="a_edge8_Node000007_Node000008"><a xlink:title=" ">
<path fill="none" stroke="#63b8ff" d="M66.74,-65.5C57.62,-65.5 48.59,-65.5 41.03,-65.5"/>
<polygon fill="#63b8ff" stroke="#63b8ff" points="67,-69 77,-65.5 67,-62 67,-69"/>
</a>
</g>
</g>
<!-- Node9&#45;&gt;Node10 -->
<g id="edge10_Node000009_Node000010" class="edge">
<title>Node9&#45;&gt;Node10</title>
<g id="a_edge10_Node000009_Node000010"><a xlink:title=" ">
<path fill="none" stroke="#63b8ff" d="M584.61,-72.96C567.13,-67.8 547.2,-61.9 530.92,-57.09"/>
<polygon fill="#63b8ff" stroke="#63b8ff" points="583.99,-76.43 594.57,-75.91 585.98,-69.72 583.99,-76.43"/>
</a>
</g>
</g>
<!-- Node11 -->
<g id="Node000011" class="node">
<title>Node11</title>
<g id="a_Node000011"><a xlink:href="check__sintax_8c.html#a8ed15b7dba2bb1e02a43dae2f00459af" target="_top" xlink:title="Checks the syntax of the entire token list.">
<polygon fill="white" stroke="#666666" points="397,-57 317,-57 317,-38 397,-38 397,-57"/>
<text text-anchor="middle" x="357" y="-45" font-family="Helvetica,sans-Serif" font-size="10.00">check_sintax</text>
</a>
</g>
</g>
<!-- Node10&#45;&gt;Node11 -->
<g id="edge11_Node000010_Node000011" class="edge">
<title>Node10&#45;&gt;Node11</title>
<g id="a_edge11_Node000010_Node000011"><a xlink:title=" ">
<path fill="none" stroke="#63b8ff" d="M440.76,-47.5C426.23,-47.5 410.88,-47.5 397.4,-47.5"/>
<polygon fill="#63b8ff" stroke="#63b8ff" points="441.15,-51 451.15,-47.5 441.15,-44 441.15,-51"/>
</a>
</g>
</g>
<!-- Node12 -->
<g id="Node000012" class="node">
<title>Node12</title>
<g id="a_Node000012"><a xlink:href="main__utils_8c.html#a7e8f478480ab6ab34d6f5eadaf6acdb9" target="_top" xlink:title="Handles parsing and execution of tokens.">
<polygon fill="white" stroke="#666666" points="273,-57 192,-57 192,-38 273,-38 273,-57"/>
<text text-anchor="middle" x="232.5" y="-45" font-family="Helvetica,sans-Serif" font-size="10.00">ft_token_flow</text>
</a>
</g>
</g>
<!-- Node11&#45;&gt;Node12 -->
<g id="edge12_Node000011_Node000012" class="edge">
<title>Node11&#45;&gt;Node12</title>
<g id="a_edge12_Node000011_Node000012"><a xlink:title=" ">
<path fill="none" stroke="#63b8ff" d="M306.81,-47.5C295.59,-47.5 283.82,-47.5 273.07,-47.5"/>
<polygon fill="#63b8ff" stroke="#63b8ff" points="306.9,-51 316.9,-47.5 306.9,-44 306.9,-51"/>
</a>
</g>
</g>
<!-- Node12&#45;&gt;Node7 -->
<g id="edge13_Node000012_Node000007" class="edge">
<title>Node12&#45;&gt;Node7</title>
<g id="a_edge13_Node000012_Node000007"><a xlink:title=" ">
<path fill="none" stroke="#63b8ff" d="M181.98,-55.32C173.35,-56.68 164.49,-58.08 156.21,-59.39"/>
<polygon fill="#63b8ff" stroke="#63b8ff" points="182.62,-58.76 191.95,-53.75 181.52,-51.85 182.62,-58.76"/>
</a>
</g>
</g>
<!-- Node13&#45;&gt;Node12 -->
<g id="edge15_Node000013_Node000012" class="edge">
<title>Node13&#45;&gt;Node12</title>
<g id="a_edge15_Node000013_Node000012"><a xlink:title=" ">
<path fill="none" stroke="#63b8ff" d="M453.2,-12.09C415.04,-14.8 358.05,-19.89 309,-28.5 295.15,-30.93 280.1,-34.52 267.1,-37.93"/>
<polygon fill="#63b8ff" stroke="#63b8ff" points="453.71,-15.57 463.45,-11.39 453.23,-8.58 453.71,-15.57"/>
</a>
</g>
</g>
</g>
</svg>
