<?xml version="1.0" encoding="UTF-8" standalone="no"?>
<!DOCTYPE svg PUBLIC "-//W3C//DTD SVG 1.1//EN"
 "http://www.w3.org/Graphics/SVG/1.1/DTD/svg11.dtd">
<!-- Generated by graphviz version 2.43.0 (0)
 -->
<!-- Title: ft_for_fd Pages: 1 -->
<svg width="1154pt" height="291pt"
 viewBox="0.00 0.00 1154.00 291.00" xmlns="http://www.w3.org/2000/svg" xmlns:xlink="http://www.w3.org/1999/xlink">
<g id="graph0" class="graph" transform="scale(1 1) rotate(0) translate(4 287)">
<title>ft_for_fd</title>
<!-- Node1 -->
<g id="Node000001" class="node">
<title>Node1</title>
<g id="a_Node000001"><a xlink:title="Handles opening and validating file descriptors for command input/output.">
<polygon fill="#999999" stroke="#666666" points="1146,-148 1089,-148 1089,-129 1146,-129 1146,-148"/>
<text text-anchor="middle" x="1117.5" y="-136" font-family="Helvetica,sans-Serif" font-size="10.00">ft_for_fd</text>
</a>
</g>
</g>
<!-- Node2 -->
<g id="Node000002" class="node">
<title>Node2</title>
<g id="a_Node000002"><a xlink:href="ft__cd_8c.html#af438919e376d2d0df3830120118ea526" target="_top" xlink:title="Builtin function for the cd (change directory) command.">
<polygon fill="white" stroke="#666666" points="1008.5,-130 968.5,-130 968.5,-111 1008.5,-111 1008.5,-130"/>
<text text-anchor="middle" x="988.5" y="-118" font-family="Helvetica,sans-Serif" font-size="10.00">ft_cd</text>
</a>
</g>
</g>
<!-- Node1&#45;&gt;Node2 -->
<g id="edge1_Node000001_Node000002" class="edge">
<title>Node1&#45;&gt;Node2</title>
<g id="a_edge1_Node000001_Node000002"><a xlink:title=" ">
<path fill="none" stroke="#63b8ff" d="M1078.8,-133.16C1055.76,-129.89 1027.26,-125.85 1008.75,-123.23"/>
<polygon fill="#63b8ff" stroke="#63b8ff" points="1078.55,-136.66 1088.94,-134.59 1079.53,-129.73 1078.55,-136.66"/>
</a>
</g>
</g>
<!-- Node12 -->
<g id="Node000012" class="node">
<title>Node12</title>
<g id="a_Node000012"><a xlink:href="system__commands_8c.html#a6dfb68d4eb4b73539a6d36f36d23d093" target="_top" xlink:title="Function executed by the child process to run a command.">
<polygon fill="white" stroke="#666666" points="1014.5,-280 962.5,-280 962.5,-261 1014.5,-261 1014.5,-280"/>
<text text-anchor="middle" x="988.5" y="-268" font-family="Helvetica,sans-Serif" font-size="10.00">ft_child</text>
</a>
</g>
</g>
<!-- Node1&#45;&gt;Node12 -->
<g id="edge12_Node000001_Node000012" class="edge">
<title>Node1&#45;&gt;Node12</title>
<g id="a_edge12_Node000001_Node000012"><a xlink:title=" ">
<path fill="none" stroke="#63b8ff" d="M1110.47,-157.99C1101.75,-182.98 1083.28,-226.01 1053,-250.5 1042.13,-259.29 1027.35,-264.24 1014.78,-267.02"/>
<polygon fill="#63b8ff" stroke="#63b8ff" points="1113.89,-158.79 1113.7,-148.2 1107.24,-156.6 1113.89,-158.79"/>
</a>
</g>
</g>
<!-- Node14 -->
<g id="Node000014" class="node">
<title>Node14</title>
<g id="a_Node000014"><a xlink:href="ft__echo_8c.html#a177f72f5eedf5cdf35c113ae47966c4b" target="_top" xlink:title="Builtin function for the echo command.">
<polygon fill="white" stroke="#666666" points="1014.5,-56 962.5,-56 962.5,-37 1014.5,-37 1014.5,-56"/>
<text text-anchor="middle" x="988.5" y="-44" font-family="Helvetica,sans-Serif" font-size="10.00">ft_echo</text>
</a>
</g>
</g>
<!-- Node1&#45;&gt;Node14 -->
<g id="edge15_Node000001_Node000014" class="edge">
<title>Node1&#45;&gt;Node14</title>
<g id="a_edge15_Node000001_Node000014"><a xlink:title=" ">
<path fill="none" stroke="#63b8ff" d="M1104.97,-120.12C1093.66,-103.54 1074.95,-79.66 1053,-65.5 1041.49,-58.08 1026.96,-53.45 1014.71,-50.62"/>
<polygon fill="#63b8ff" stroke="#63b8ff" points="1102.33,-122.47 1110.74,-128.91 1108.18,-118.63 1102.33,-122.47"/>
</a>
</g>
</g>
<!-- Node15 -->
<g id="Node000015" class="node">
<title>Node15</title>
<g id="a_Node000015"><a xlink:href="env_8c.html#a6a15443c9c0b34afef3d21f19e385995" target="_top" xlink:title="Builtin function for the env command.">
<polygon fill="white" stroke="#666666" points="1012,-19 965,-19 965,0 1012,0 1012,-19"/>
<text text-anchor="middle" x="988.5" y="-7" font-family="Helvetica,sans-Serif" font-size="10.00">ft_env</text>
</a>
</g>
</g>
<!-- Node1&#45;&gt;Node15 -->
<g id="edge18_Node000001_Node000015" class="edge">
<title>Node1&#45;&gt;Node15</title>
<g id="a_edge18_Node000001_Node000015"><a xlink:title=" ">
<path fill="none" stroke="#63b8ff" d="M1110.43,-119.29C1101.66,-94.67 1083.14,-52.33 1053,-28.5 1041.36,-19.29 1025.32,-14.54 1012.28,-12.09"/>
<polygon fill="#63b8ff" stroke="#63b8ff" points="1107.17,-120.58 1113.68,-128.94 1113.8,-118.34 1107.17,-120.58"/>
</a>
</g>
</g>
<!-- Node16 -->
<g id="Node000016" class="node">
<title>Node16</title>
<g id="a_Node000016"><a xlink:href="pipes_8c.html#ac1cb08fe66e7823c939af4fab981e93c" target="_top" xlink:title="Executes a system command inside a pipe.">
<polygon fill="white" stroke="#666666" points="1053,-93 924,-93 924,-74 1053,-74 1053,-93"/>
<text text-anchor="middle" x="988.5" y="-81" font-family="Helvetica,sans-Serif" font-size="10.00">ft_exe_syscmd_in_pipe</text>
</a>
</g>
</g>
<!-- Node1&#45;&gt;Node16 -->
<g id="edge21_Node000001_Node000016" class="edge">
<title>Node1&#45;&gt;Node16</title>
<g id="a_edge21_Node000001_Node000016"><a xlink:title=" ">
<path fill="none" stroke="#63b8ff" d="M1093.13,-123.57C1081.41,-116.52 1066.8,-108.39 1053,-102.5 1044.64,-98.93 1035.39,-95.76 1026.6,-93.07"/>
<polygon fill="#63b8ff" stroke="#63b8ff" points="1091.5,-126.68 1101.85,-128.93 1095.16,-120.71 1091.5,-126.68"/>
</a>
</g>
</g>
<!-- Node17 -->
<g id="Node000017" class="node">
<title>Node17</title>
<g id="a_Node000017"><a xlink:href="export_8c.html#a2b0f2ba2e9188c7b4f6ca5a44c1d0c8e" target="_top" xlink:title="Builtin function for the export command.">
<polygon fill="white" stroke="#666666" points="1018.5,-241 958.5,-241 958.5,-222 1018.5,-222 1018.5,-241"/>
<text text-anchor="middle" x="988.5" y="-229" font-family="Helvetica,sans-Serif" font-size="10.00">ft_export</text>
</a>
</g>
</g>
<!-- Node1&#45;&gt;Node17 -->
<g id="edge23_Node000001_Node000017" class="edge">
<title>Node1&#45;&gt;Node17</title>
<g id="a_edge23_Node000001_Node000017"><a xlink:title=" ">
<path fill="none" stroke="#63b8ff" d="M1105.62,-156.71C1094.49,-173.82 1075.63,-198.92 1053,-213.5 1042.69,-220.14 1029.91,-224.37 1018.52,-227.05"/>
<polygon fill="#63b8ff" stroke="#63b8ff" points="1108.65,-158.48 1110.99,-148.14 1102.72,-154.76 1108.65,-158.48"/>
</a>
</g>
</g>
<!-- Node18 -->
<g id="Node000018" class="node">
<title>Node18</title>
<g id="a_Node000018"><a xlink:href="pwd_8c.html#a445dbcbb87f52cdbb07a078f21b198c4" target="_top" xlink:title="Builtin function for the pwd (print working directory) command.">
<polygon fill="white" stroke="#666666" points="1013,-204 964,-204 964,-185 1013,-185 1013,-204"/>
<text text-anchor="middle" x="988.5" y="-192" font-family="Helvetica,sans-Serif" font-size="10.00">ft_pwd</text>
</a>
</g>
</g>
<!-- Node1&#45;&gt;Node18 -->
<g id="edge26_Node000001_Node000018" class="edge">
<title>Node1&#45;&gt;Node18</title>
<g id="a_edge26_Node000001_Node000018"><a xlink:title=" ">
<path fill="none" stroke="#63b8ff" d="M1094.56,-153.59C1082.66,-161.26 1067.47,-170.25 1053,-176.5 1040.27,-182 1025.39,-186.32 1013.23,-189.35"/>
<polygon fill="#63b8ff" stroke="#63b8ff" points="1096.53,-156.49 1102.94,-148.05 1092.67,-150.64 1096.53,-156.49"/>
</a>
</g>
</g>
<!-- Node19 -->
<g id="Node000019" class="node">
<title>Node19</title>
<g id="a_Node000019"><a xlink:href="unset_8c.html#afc37f76bba8f618bcf9eaafa7ee23618" target="_top" xlink:title="Builtin function for the unset command.">
<polygon fill="white" stroke="#666666" points="1016.5,-167 960.5,-167 960.5,-148 1016.5,-148 1016.5,-167"/>
<text text-anchor="middle" x="988.5" y="-155" font-family="Helvetica,sans-Serif" font-size="10.00">ft_unset</text>
</a>
</g>
</g>
<!-- Node1&#45;&gt;Node19 -->
<g id="edge29_Node000001_Node000019" class="edge">
<title>Node1&#45;&gt;Node19</title>
<g id="a_edge29_Node000001_Node000019"><a xlink:title=" ">
<path fill="none" stroke="#63b8ff" d="M1078.91,-144.12C1058.89,-147.12 1034.72,-150.73 1016.57,-153.45"/>
<polygon fill="#63b8ff" stroke="#63b8ff" points="1079.57,-147.56 1088.94,-142.62 1078.54,-140.64 1079.57,-147.56"/>
</a>
</g>
</g>
<!-- Node3 -->
<g id="Node000003" class="node">
<title>Node3</title>
<g id="a_Node000003"><a xlink:href="cmd__execution_8c.html#a5ce7231f800cbacea6350cc1a32a59bd" target="_top" xlink:title="Executes a list of non&#45;pipelined commands.">
<polygon fill="white" stroke="#666666" points="744,-168 672,-168 672,-149 744,-149 744,-168"/>
<text text-anchor="middle" x="708" y="-156" font-family="Helvetica,sans-Serif" font-size="10.00">ft_exe_cmd</text>
</a>
</g>
</g>
<!-- Node2&#45;&gt;Node3 -->
<g id="edge2_Node000002_Node000003" class="edge">
<title>Node2&#45;&gt;Node3</title>
<g id="a_edge2_Node000002_Node000003"><a xlink:title=" ">
<path fill="none" stroke="#63b8ff" d="M958.24,-124.49C906.71,-131.52 799.98,-146.09 744.4,-153.67"/>
<polygon fill="#63b8ff" stroke="#63b8ff" points="958.92,-127.93 968.36,-123.11 957.98,-121 958.92,-127.93"/>
</a>
</g>
</g>
<!-- Node7 -->
<g id="Node000007" class="node">
<title>Node7</title>
<g id="a_Node000007"><a xlink:href="cmd__execution_8c.html#a50e59fa2e4621831a415d4038f697c56" target="_top" xlink:title="Executes a command within a pipeline.">
<polygon fill="white" stroke="#666666" points="888,-93 790,-93 790,-74 888,-74 888,-93"/>
<text text-anchor="middle" x="839" y="-81" font-family="Helvetica,sans-Serif" font-size="10.00">ft_exe_pipe_cmd</text>
</a>
</g>
</g>
<!-- Node2&#45;&gt;Node7 -->
<g id="edge6_Node000002_Node000007" class="edge">
<title>Node2&#45;&gt;Node7</title>
<g id="a_edge6_Node000002_Node000007"><a xlink:title=" ">
<path fill="none" stroke="#63b8ff" d="M958.36,-113.19C935.36,-107.42 903.08,-99.32 878.04,-93.04"/>
<polygon fill="#63b8ff" stroke="#63b8ff" points="957.67,-116.62 968.22,-115.66 959.37,-109.83 957.67,-116.62"/>
</a>
</g>
</g>
<!-- Node4 -->
<g id="Node000004" class="node">
<title>Node4</title>
<g id="a_Node000004"><a xlink:href="main__utils_8c.html#a7e8f478480ab6ab34d6f5eadaf6acdb9" target="_top" xlink:title="Handles parsing and execution of tokens.">
<polygon fill="white" stroke="#666666" points="273,-147 192,-147 192,-128 273,-128 273,-147"/>
<text text-anchor="middle" x="232.5" y="-135" font-family="Helvetica,sans-Serif" font-size="10.00">ft_token_flow</text>
</a>
</g>
</g>
<!-- Node3&#45;&gt;Node4 -->
<g id="edge3_Node000003_Node000004" class="edge">
<title>Node3&#45;&gt;Node4</title>
<g id="a_edge3_Node000003_Node000004"><a xlink:title=" ">
<path fill="none" stroke="#63b8ff" d="M661.65,-156.49C569.27,-152.39 360.66,-143.14 273.23,-139.26"/>
<polygon fill="#63b8ff" stroke="#63b8ff" points="661.65,-159.99 671.8,-156.94 661.96,-153 661.65,-159.99"/>
</a>
</g>
</g>
<!-- Node5 -->
<g id="Node000005" class="node">
<title>Node5</title>
<g id="a_Node000005"><a xlink:href="main__utils_8c.html#ae35edfb8f1339d6f77f53c28eb2a2ed6" target="_top" xlink:title="Handles a complete cycle of input → parsing → execution.">
<polygon fill="white" stroke="#666666" points="156,-147 77,-147 77,-128 156,-128 156,-147"/>
<text text-anchor="middle" x="116.5" y="-135" font-family="Helvetica,sans-Serif" font-size="10.00">ft_main_flow</text>
</a>
</g>
</g>
<!-- Node4&#45;&gt;Node5 -->
<g id="edge4_Node000004_Node000005" class="edge">
<title>Node4&#45;&gt;Node5</title>
<g id="a_edge4_Node000004_Node000005"><a xlink:title=" ">
<path fill="none" stroke="#63b8ff" d="M181.7,-137.5C173.16,-137.5 164.4,-137.5 156.21,-137.5"/>
<polygon fill="#63b8ff" stroke="#63b8ff" points="181.95,-141 191.95,-137.5 181.95,-134 181.95,-141"/>
</a>
</g>
</g>
<!-- Node6 -->
<g id="Node000006" class="node">
<title>Node6</title>
<g id="a_Node000006"><a xlink:href="main_8c.html#ab3862b46d6a8d13c2d884a297e6b05b5" target="_top" xlink:title="Main function of the minishell.">
<polygon fill="white" stroke="#666666" points="41,-147 0,-147 0,-128 41,-128 41,-147"/>
<text text-anchor="middle" x="20.5" y="-135" font-family="Helvetica,sans-Serif" font-size="10.00">main</text>
</a>
</g>
</g>
<!-- Node5&#45;&gt;Node6 -->
<g id="edge5_Node000005_Node000006" class="edge">
<title>Node5&#45;&gt;Node6</title>
<g id="a_edge5_Node000005_Node000006"><a xlink:title=" ">
<path fill="none" stroke="#63b8ff" d="M66.74,-137.5C57.62,-137.5 48.59,-137.5 41.03,-137.5"/>
<polygon fill="#63b8ff" stroke="#63b8ff" points="67,-141 77,-137.5 67,-134 67,-141"/>
</a>
</g>
</g>
<!-- Node8 -->
<g id="Node000008" class="node">
<title>Node8</title>
<g id="a_Node000008"><a xlink:href="pipes_8c.html#a36a2d91a0566ad253efe3833b05e69d1" target="_top" xlink:title="Routine executed by the child process for each command in the pipe.">
<polygon fill="white" stroke="#666666" points="754,-112 662,-112 662,-93 754,-93 754,-112"/>
<text text-anchor="middle" x="708" y="-100" font-family="Helvetica,sans-Serif" font-size="10.00">ft_child_routine</text>
</a>
</g>
</g>
<!-- Node7&#45;&gt;Node8 -->
<g id="edge7_Node000007_Node000008" class="edge">
<title>Node7&#45;&gt;Node8</title>
<g id="a_edge7_Node000007_Node000008"><a xlink:title=" ">
<path fill="none" stroke="#63b8ff" d="M779.91,-92.06C771.24,-93.33 762.42,-94.63 754.08,-95.86"/>
<polygon fill="#63b8ff" stroke="#63b8ff" points="780.58,-95.49 789.97,-90.57 779.56,-88.57 780.58,-95.49"/>
</a>
</g>
</g>
<!-- Node9 -->
<g id="Node000009" class="node">
<title>Node9</title>
<g id="a_Node000009"><a xlink:href="pipes_8c.html#aa17e847997e7266a0a111ab3572756bb" target="_top" xlink:title="Manages pipe creation and fork to execute the current command.">
<polygon fill="white" stroke="#666666" points="626,-121 537,-121 537,-102 626,-102 626,-121"/>
<text text-anchor="middle" x="581.5" y="-109" font-family="Helvetica,sans-Serif" font-size="10.00">ft_pipe_routine</text>
</a>
</g>
</g>
<!-- Node8&#45;&gt;Node9 -->
<g id="edge8_Node000008_Node000009" class="edge">
<title>Node8&#45;&gt;Node9</title>
<g id="a_edge8_Node000008_Node000009"><a xlink:title=" ">
<path fill="none" stroke="#63b8ff" d="M651.52,-106.51C643.08,-107.12 634.46,-107.74 626.31,-108.33"/>
<polygon fill="#63b8ff" stroke="#63b8ff" points="651.98,-109.99 661.7,-105.77 651.47,-103 651.98,-109.99"/>
</a>
</g>
</g>
<!-- Node10 -->
<g id="Node000010" class="node">
<title>Node10</title>
<g id="a_Node000010"><a xlink:href="pipes_8c.html#a7a3b0de1a88a243da741f748881e14f0" target="_top" xlink:title="Executes a list of commands connected via pipes.">
<polygon fill="white" stroke="#666666" points="501,-126 420,-126 420,-107 501,-107 501,-126"/>
<text text-anchor="middle" x="460.5" y="-114" font-family="Helvetica,sans-Serif" font-size="10.00">execute_pipe</text>
</a>
</g>
</g>
<!-- Node9&#45;&gt;Node10 -->
<g id="edge9_Node000009_Node000010" class="edge">
<title>Node9&#45;&gt;Node10</title>
<g id="a_edge9_Node000009_Node000010"><a xlink:title=" ">
<path fill="none" stroke="#63b8ff" d="M526.85,-113.75C518.22,-114.12 509.42,-114.49 501.19,-114.83"/>
<polygon fill="#63b8ff" stroke="#63b8ff" points="527.02,-117.25 536.86,-113.33 526.73,-110.26 527.02,-117.25"/>
</a>
</g>
</g>
<!-- Node11 -->
<g id="Node000011" class="node">
<title>Node11</title>
<g id="a_Node000011"><a xlink:href="main__utils_8c.html#ad0183732909ae6e7c52e7b086c2e5642" target="_top" xlink:title="Manages the execution flow of commands with pipes.">
<polygon fill="white" stroke="#666666" points="384,-128 309,-128 309,-109 384,-109 384,-128"/>
<text text-anchor="middle" x="346.5" y="-116" font-family="Helvetica,sans-Serif" font-size="10.00">ft_pipe_flow</text>
</a>
</g>
</g>
<!-- Node10&#45;&gt;Node11 -->
<g id="edge10_Node000010_Node000011" class="edge">
<title>Node10&#45;&gt;Node11</title>
<g id="a_edge10_Node000010_Node000011"><a xlink:title=" ">
<path fill="none" stroke="#63b8ff" d="M409.47,-117.39C400.96,-117.55 392.26,-117.7 384.18,-117.84"/>
<polygon fill="#63b8ff" stroke="#63b8ff" points="409.76,-120.89 419.7,-117.21 409.64,-113.89 409.76,-120.89"/>
</a>
</g>
</g>
<!-- Node11&#45;&gt;Node4 -->
<g id="edge11_Node000011_Node000004" class="edge">
<title>Node11&#45;&gt;Node4</title>
<g id="a_edge11_Node000011_Node000004"><a xlink:title=" ">
<path fill="none" stroke="#63b8ff" d="M298.73,-126.43C290.29,-127.87 281.57,-129.35 273.35,-130.74"/>
<polygon fill="#63b8ff" stroke="#63b8ff" points="299.55,-129.84 308.83,-124.72 298.38,-122.94 299.55,-129.84"/>
</a>
</g>
</g>
<!-- Node13 -->
<g id="Node000013" class="node">
<title>Node13</title>
<g id="a_Node000013"><a xlink:href="system__commands_8c.html#a6d8647dce4277e848c613bd0cc3df5bb" target="_top" xlink:title="Executes a system command by creating a child process.">
<polygon fill="white" stroke="#666666" points="883.5,-283 794.5,-283 794.5,-264 883.5,-264 883.5,-283"/>
<text text-anchor="middle" x="839" y="-271" font-family="Helvetica,sans-Serif" font-size="10.00">ft_exe_syscmd</text>
</a>
</g>
</g>
<!-- Node12&#45;&gt;Node13 -->
<g id="edge13_Node000012_Node000013" class="edge">
<title>Node12&#45;&gt;Node13</title>
<g id="a_edge13_Node000012_Node000013"><a xlink:title=" ">
<path fill="none" stroke="#63b8ff" d="M952.28,-271.22C931.7,-271.63 905.56,-272.17 883.68,-272.61"/>
<polygon fill="#63b8ff" stroke="#63b8ff" points="952.55,-274.71 962.48,-271.01 952.41,-267.71 952.55,-274.71"/>
</a>
</g>
</g>
<!-- Node13&#45;&gt;Node3 -->
<g id="edge14_Node000013_Node000003" class="edge">
<title>Node13&#45;&gt;Node3</title>
<g id="a_edge14_Node000013_Node000003"><a xlink:title=" ">
<path fill="none" stroke="#63b8ff" d="M805.5,-259.38C800.11,-256.44 794.74,-253.13 790,-249.5 757.76,-224.81 728.32,-185.97 715.61,-168.09"/>
<polygon fill="#63b8ff" stroke="#63b8ff" points="803.99,-262.53 814.49,-263.94 807.16,-256.29 803.99,-262.53"/>
</a>
</g>
</g>
<!-- Node14&#45;&gt;Node3 -->
<g id="edge16_Node000014_Node000003" class="edge">
<title>Node14&#45;&gt;Node3</title>
<g id="a_edge16_Node000014_Node000003"><a xlink:title=" ">
<path fill="none" stroke="#63b8ff" d="M952.26,-41.14C910.37,-36.63 839.88,-35.07 790,-65.5 764.74,-80.91 773.67,-99.39 754,-121.5 744.72,-131.93 732.37,-141.87 722.96,-148.81"/>
<polygon fill="#63b8ff" stroke="#63b8ff" points="951.92,-44.62 962.26,-42.33 952.75,-37.67 951.92,-44.62"/>
</a>
</g>
</g>
<!-- Node14&#45;&gt;Node7 -->
<g id="edge17_Node000014_Node000007" class="edge">
<title>Node14&#45;&gt;Node7</title>
<g id="a_edge17_Node000014_Node000007"><a xlink:title=" ">
<path fill="none" stroke="#63b8ff" d="M952.67,-55.24C930.2,-60.87 900.97,-68.21 877.91,-73.99"/>
<polygon fill="#63b8ff" stroke="#63b8ff" points="953.63,-58.6 962.48,-52.78 951.93,-51.81 953.63,-58.6"/>
</a>
</g>
</g>
<!-- Node15&#45;&gt;Node3 -->
<g id="edge19_Node000015_Node000003" class="edge">
<title>Node15&#45;&gt;Node3</title>
<g id="a_edge19_Node000015_Node000003"><a xlink:title=" ">
<path fill="none" stroke="#63b8ff" d="M954.91,-4.37C912.45,0.42 837.99,2.14 790,-34.5 756.74,-59.9 778.91,-87.87 754,-121.5 745.93,-132.39 733.98,-142.02 724.42,-148.72"/>
<polygon fill="#63b8ff" stroke="#63b8ff" points="954.62,-7.87 964.98,-5.64 955.49,-0.92 954.62,-7.87"/>
</a>
</g>
</g>
<!-- Node15&#45;&gt;Node7 -->
<g id="edge20_Node000015_Node000007" class="edge">
<title>Node15&#45;&gt;Node7</title>
<g id="a_edge20_Node000015_Node000007"><a xlink:title=" ">
<path fill="none" stroke="#63b8ff" d="M955.1,-17.24C944.92,-20.19 933.78,-23.95 924,-28.5 896.66,-41.21 867.91,-61.86 852.14,-73.91"/>
<polygon fill="#63b8ff" stroke="#63b8ff" points="956.16,-20.58 964.88,-14.57 954.31,-13.83 956.16,-20.58"/>
</a>
</g>
</g>
<!-- Node16&#45;&gt;Node7 -->
<g id="edge22_Node000016_Node000007" class="edge">
<title>Node16&#45;&gt;Node7</title>
<g id="a_edge22_Node000016_Node000007"><a xlink:title=" ">
<path fill="none" stroke="#63b8ff" d="M913.62,-83.5C905.05,-83.5 896.47,-83.5 888.37,-83.5"/>
<polygon fill="#63b8ff" stroke="#63b8ff" points="913.66,-87 923.66,-83.5 913.66,-80 913.66,-87"/>
</a>
</g>
</g>
<!-- Node17&#45;&gt;Node3 -->
<g id="edge24_Node000017_Node000003" class="edge">
<title>Node17&#45;&gt;Node3</title>
<g id="a_edge24_Node000017_Node000003"><a xlink:title=" ">
<path fill="none" stroke="#63b8ff" d="M948.36,-225.79C908.12,-219.41 843.91,-207.79 790,-191.5 768.92,-185.13 745.74,-175.39 729.59,-168.14"/>
<polygon fill="#63b8ff" stroke="#63b8ff" points="947.88,-229.26 958.3,-227.34 948.95,-222.34 947.88,-229.26"/>
</a>
</g>
</g>
<!-- Node17&#45;&gt;Node7 -->
<g id="edge25_Node000017_Node000007" class="edge">
<title>Node17&#45;&gt;Node7</title>
<g id="a_edge25_Node000017_Node000007"><a xlink:title=" ">
<path fill="none" stroke="#63b8ff" d="M948.67,-225.25C939.99,-222.61 931.23,-218.85 924,-213.5 879.71,-180.75 852.49,-117.09 843.4,-93.02"/>
<polygon fill="#63b8ff" stroke="#63b8ff" points="947.79,-228.64 958.35,-227.79 949.56,-221.86 947.79,-228.64"/>
</a>
</g>
</g>
<!-- Node18&#45;&gt;Node3 -->
<g id="edge27_Node000018_Node000003" class="edge">
<title>Node18&#45;&gt;Node3</title>
<g id="a_edge27_Node000018_Node000003"><a xlink:title=" ">
<path fill="none" stroke="#63b8ff" d="M953.64,-191.01C914.26,-186.84 847.32,-179.43 790,-171.5 774.9,-169.41 758.28,-166.8 744.04,-164.46"/>
<polygon fill="#63b8ff" stroke="#63b8ff" points="953.43,-194.5 963.75,-192.07 954.17,-187.54 953.43,-194.5"/>
</a>
</g>
</g>
<!-- Node18&#45;&gt;Node7 -->
<g id="edge28_Node000018_Node000007" class="edge">
<title>Node18&#45;&gt;Node7</title>
<g id="a_edge28_Node000018_Node000007"><a xlink:title=" ">
<path fill="none" stroke="#63b8ff" d="M954.06,-188.74C943.91,-186.04 933.05,-182.13 924,-176.5 887.97,-154.1 858.09,-111.87 845.9,-93.01"/>
<polygon fill="#63b8ff" stroke="#63b8ff" points="953.35,-192.17 963.89,-191.06 954.96,-185.36 953.35,-192.17"/>
</a>
</g>
</g>
<!-- Node19&#45;&gt;Node3 -->
<g id="edge30_Node000019_Node000003" class="edge">
<title>Node19&#45;&gt;Node3</title>
<g id="a_edge30_Node000019_Node000003"><a xlink:title=" ">
<path fill="none" stroke="#63b8ff" d="M950.11,-157.63C896.08,-157.83 796.86,-158.18 744.12,-158.37"/>
<polygon fill="#63b8ff" stroke="#63b8ff" points="950.3,-161.13 960.29,-157.6 950.28,-154.13 950.3,-161.13"/>
</a>
</g>
</g>
<!-- Node19&#45;&gt;Node7 -->
<g id="edge31_Node000019_Node000007" class="edge">
<title>Node19&#45;&gt;Node7</title>
<g id="a_edge31_Node000019_Node000007"><a xlink:title=" ">
<path fill="none" stroke="#63b8ff" d="M950.51,-149.11C941.63,-146.53 932.32,-143.34 924,-139.5 896.31,-126.73 867.45,-105.45 851.81,-93.12"/>
<polygon fill="#63b8ff" stroke="#63b8ff" points="949.7,-152.52 960.27,-151.76 951.53,-145.76 949.7,-152.52"/>
</a>
</g>
</g>
</g>
</svg>
