<?xml version="1.0" encoding="UTF-8" standalone="no"?>
<!DOCTYPE svg PUBLIC "-//W3C//DTD SVG 1.1//EN"
 "http://www.w3.org/Graphics/SVG/1.1/DTD/svg11.dtd">
<!-- Generated by graphviz version 2.43.0 (0)
 -->
<!-- Title: add_token Pages: 1 -->
<svg width="636pt" height="120pt"
 viewBox="0.00 0.00 636.00 120.26" xmlns="http://www.w3.org/2000/svg" xmlns:xlink="http://www.w3.org/1999/xlink">
<g id="graph0" class="graph" transform="scale(1 1) rotate(0) translate(4 116.26)">
<title>add_token</title>
<!-- Node1 -->
<g id="Node000001" class="node">
<title>Node1</title>
<g id="a_Node000001"><a xlink:title="Adds a token to the end of the linked list of tokens.">
<polygon fill="#999999" stroke="#666666" points="628,-74 561,-74 561,-55 628,-55 628,-74"/>
<text text-anchor="middle" x="594.5" y="-62" font-family="Helvetica,sans-Serif" font-size="10.00">add_token</text>
</a>
</g>
</g>
<!-- Node2 -->
<g id="Node000002" class="node">
<title>Node2</title>
<g id="a_Node000002"><a xlink:href="tokenize__input_8c.html#a4ec55df7b6b0c546095f50475f610fb1" target="_top" xlink:title="Extracts and builds a single token from the user input.">
<polygon fill="white" stroke="#666666" points="368,-74 286,-74 286,-55 368,-55 368,-74"/>
<text text-anchor="middle" x="327" y="-62" font-family="Helvetica,sans-Serif" font-size="10.00">ft_get_tokens</text>
</a>
</g>
</g>
<!-- Node1&#45;&gt;Node2 -->
<g id="edge1_Node000001_Node000002" class="edge">
<title>Node1&#45;&gt;Node2</title>
<g id="a_edge1_Node000001_Node000002"><a xlink:title=" ">
<path fill="none" stroke="#63b8ff" d="M572.12,-80.08C559.18,-88.53 541.95,-98.11 525,-102.5 472.94,-115.97 456.34,-114.86 404,-102.5 380.88,-97.04 356.78,-83.42 342.08,-74.06"/>
<polygon fill="#63b8ff" stroke="#63b8ff" points="574.42,-82.75 580.71,-74.22 570.48,-76.96 574.42,-82.75"/>
</a>
</g>
</g>
<!-- Node6 -->
<g id="Node000006" class="node">
<title>Node6</title>
<g id="a_Node000006"><a xlink:href="handle__tokens_8c.html#aa2c36964d13c3cd524d41408f386eed9" target="_top" xlink:title="Handles tokens enclosed in quotes and adds them to the list.">
<polygon fill="white" stroke="#666666" points="508.5,-93 420.5,-93 420.5,-74 508.5,-74 508.5,-93"/>
<text text-anchor="middle" x="464.5" y="-81" font-family="Helvetica,sans-Serif" font-size="10.00">handle_quotes</text>
</a>
</g>
</g>
<!-- Node1&#45;&gt;Node6 -->
<g id="edge5_Node000001_Node000006" class="edge">
<title>Node1&#45;&gt;Node6</title>
<g id="a_edge5_Node000001_Node000006"><a xlink:title=" ">
<path fill="none" stroke="#63b8ff" d="M550.83,-70.83C537.28,-72.84 522.29,-75.07 508.71,-77.09"/>
<polygon fill="#63b8ff" stroke="#63b8ff" points="551.49,-74.27 560.87,-69.34 550.46,-67.35 551.49,-74.27"/>
</a>
</g>
</g>
<!-- Node7 -->
<g id="Node000007" class="node">
<title>Node7</title>
<g id="a_Node000007"><a xlink:href="handle__tokens_8c.html#a0d1a76ff74d96055e21dbd045c471793" target="_top" xlink:title="Handles shell special characters (|, &lt;, &gt;, &lt;&lt;, &gt;&gt;).">
<polygon fill="white" stroke="#666666" points="525,-56 404,-56 404,-37 525,-37 525,-56"/>
<text text-anchor="middle" x="464.5" y="-44" font-family="Helvetica,sans-Serif" font-size="10.00">handle_special_chars</text>
</a>
</g>
</g>
<!-- Node1&#45;&gt;Node7 -->
<g id="edge7_Node000001_Node000007" class="edge">
<title>Node1&#45;&gt;Node7</title>
<g id="a_edge7_Node000001_Node000007"><a xlink:title=" ">
<path fill="none" stroke="#63b8ff" d="M550.79,-58.49C542.58,-57.34 533.84,-56.11 525.2,-54.9"/>
<polygon fill="#63b8ff" stroke="#63b8ff" points="550.48,-61.98 560.87,-59.91 551.45,-55.05 550.48,-61.98"/>
</a>
</g>
</g>
<!-- Node8 -->
<g id="Node000008" class="node">
<title>Node8</title>
<g id="a_Node000008"><a xlink:href="handle__tokens_8c.html#a4435ee7ff5bdf5ceb09137c12fd49ccd" target="_top" xlink:title="Handles creation of a normal token (words, commands, arguments).">
<polygon fill="white" stroke="#666666" points="504,-19 425,-19 425,0 504,0 504,-19"/>
<text text-anchor="middle" x="464.5" y="-7" font-family="Helvetica,sans-Serif" font-size="10.00">handle_word</text>
</a>
</g>
</g>
<!-- Node1&#45;&gt;Node8 -->
<g id="edge9_Node000001_Node000008" class="edge">
<title>Node1&#45;&gt;Node8</title>
<g id="a_edge9_Node000001_Node000008"><a xlink:title=" ">
<path fill="none" stroke="#63b8ff" d="M568.23,-49.86C555.51,-42.85 539.71,-34.66 525,-28.5 516.7,-25.02 507.52,-21.81 498.92,-19.04"/>
<polygon fill="#63b8ff" stroke="#63b8ff" points="566.85,-53.1 577.28,-54.94 570.27,-47 566.85,-53.1"/>
</a>
</g>
</g>
<!-- Node3 -->
<g id="Node000003" class="node">
<title>Node3</title>
<g id="a_Node000003"><a xlink:href="tokenize__input_8c.html#a4e40c3f57ab2488a2b49f37846785b2e" target="_top" xlink:title="Tokenizes the entire user input string.">
<polygon fill="white" stroke="#666666" points="250,-74 192,-74 192,-55 250,-55 250,-74"/>
<text text-anchor="middle" x="221" y="-62" font-family="Helvetica,sans-Serif" font-size="10.00">tokenize</text>
</a>
</g>
</g>
<!-- Node2&#45;&gt;Node3 -->
<g id="edge2_Node000002_Node000003" class="edge">
<title>Node2&#45;&gt;Node3</title>
<g id="a_edge2_Node000002_Node000003"><a xlink:title=" ">
<path fill="none" stroke="#63b8ff" d="M275.61,-64.5C266.87,-64.5 258.06,-64.5 250.19,-64.5"/>
<polygon fill="#63b8ff" stroke="#63b8ff" points="275.79,-68 285.79,-64.5 275.79,-61 275.79,-68"/>
</a>
</g>
</g>
<!-- Node4 -->
<g id="Node000004" class="node">
<title>Node4</title>
<g id="a_Node000004"><a xlink:href="main__utils_8c.html#ae35edfb8f1339d6f77f53c28eb2a2ed6" target="_top" xlink:title="Handles a complete cycle of input → parsing → execution.">
<polygon fill="white" stroke="#666666" points="156,-74 77,-74 77,-55 156,-55 156,-74"/>
<text text-anchor="middle" x="116.5" y="-62" font-family="Helvetica,sans-Serif" font-size="10.00">ft_main_flow</text>
</a>
</g>
</g>
<!-- Node3&#45;&gt;Node4 -->
<g id="edge3_Node000003_Node000004" class="edge">
<title>Node3&#45;&gt;Node4</title>
<g id="a_edge3_Node000003_Node000004"><a xlink:title=" ">
<path fill="none" stroke="#63b8ff" d="M181.76,-64.5C173.42,-64.5 164.59,-64.5 156.23,-64.5"/>
<polygon fill="#63b8ff" stroke="#63b8ff" points="181.99,-68 191.99,-64.5 181.99,-61 181.99,-68"/>
</a>
</g>
</g>
<!-- Node5 -->
<g id="Node000005" class="node">
<title>Node5</title>
<g id="a_Node000005"><a xlink:href="main_8c.html#ab3862b46d6a8d13c2d884a297e6b05b5" target="_top" xlink:title="Main function of the minishell.">
<polygon fill="white" stroke="#666666" points="41,-74 0,-74 0,-55 41,-55 41,-74"/>
<text text-anchor="middle" x="20.5" y="-62" font-family="Helvetica,sans-Serif" font-size="10.00">main</text>
</a>
</g>
</g>
<!-- Node4&#45;&gt;Node5 -->
<g id="edge4_Node000004_Node000005" class="edge">
<title>Node4&#45;&gt;Node5</title>
<g id="a_edge4_Node000004_Node000005"><a xlink:title=" ">
<path fill="none" stroke="#63b8ff" d="M66.74,-64.5C57.62,-64.5 48.59,-64.5 41.03,-64.5"/>
<polygon fill="#63b8ff" stroke="#63b8ff" points="67,-68 77,-64.5 67,-61 67,-68"/>
</a>
</g>
</g>
<!-- Node6&#45;&gt;Node2 -->
<g id="edge6_Node000006_Node000002" class="edge">
<title>Node6&#45;&gt;Node2</title>
<g id="a_edge6_Node000006_Node000002"><a xlink:title=" ">
<path fill="none" stroke="#63b8ff" d="M410.23,-76.03C396.19,-74.06 381.29,-71.97 368.08,-70.12"/>
<polygon fill="#63b8ff" stroke="#63b8ff" points="409.87,-79.51 420.25,-77.44 410.84,-72.58 409.87,-79.51"/>
</a>
</g>
</g>
<!-- Node7&#45;&gt;Node2 -->
<g id="edge8_Node000007_Node000002" class="edge">
<title>Node7&#45;&gt;Node2</title>
<g id="a_edge8_Node000007_Node000002"><a xlink:title=" ">
<path fill="none" stroke="#63b8ff" d="M393.74,-55.77C384.94,-56.94 376.17,-58.1 368.05,-59.18"/>
<polygon fill="#63b8ff" stroke="#63b8ff" points="394.22,-59.23 403.67,-54.45 393.3,-52.29 394.22,-59.23"/>
</a>
</g>
</g>
<!-- Node8&#45;&gt;Node2 -->
<g id="edge10_Node000008_Node000002" class="edge">
<title>Node8&#45;&gt;Node2</title>
<g id="a_edge10_Node000008_Node000002"><a xlink:title=" ">
<path fill="none" stroke="#63b8ff" d="M421.14,-22.26C415.34,-24.23 409.49,-26.33 404,-28.5 383.9,-36.43 361.64,-47.22 346.43,-54.92"/>
<polygon fill="#63b8ff" stroke="#63b8ff" points="422.4,-25.53 430.8,-19.08 420.21,-18.88 422.4,-25.53"/>
</a>
</g>
</g>
</g>
</svg>
