<?xml version="1.0" encoding="UTF-8" standalone="no"?>
<!DOCTYPE svg PUBLIC "-//W3C//DTD SVG 1.1//EN"
 "http://www.w3.org/Graphics/SVG/1.1/DTD/svg11.dtd">
<!-- Generated by graphviz version 2.43.0 (0)
 -->
<!-- Title: get_var_name Pages: 1 -->
<svg width="287pt" height="138pt"
 viewBox="0.00 0.00 287.00 138.00" xmlns="http://www.w3.org/2000/svg" xmlns:xlink="http://www.w3.org/1999/xlink">
<g id="graph0" class="graph" transform="scale(1 1) rotate(0) translate(4 134)">
<title>get_var_name</title>
<!-- Node1 -->
<g id="Node000001" class="node">
<title>Node1</title>
<g id="a_Node000001"><a xlink:title="Extracts the variable name from a &quot;KEY=VALUE&quot; string.">
<polygon fill="#999999" stroke="#666666" points="86,-74 0,-74 0,-55 86,-55 86,-74"/>
<text text-anchor="middle" x="43" y="-62" font-family="Helvetica,sans-Serif" font-size="10.00">get_var_name</text>
</a>
</g>
</g>
<!-- Node2 -->
<g id="Node000002" class="node">
<title>Node2</title>
<g id="a_Node000002"><a xlink:href="ft__substr_8c.html#a78c402cbf3d55b1374693c3b7d34f71d" target="_top" xlink:title="Extracts a substring from a given string.">
<polygon fill="white" stroke="#666666" points="181,-74 122,-74 122,-55 181,-55 181,-74"/>
<text text-anchor="middle" x="151.5" y="-62" font-family="Helvetica,sans-Serif" font-size="10.00">ft_substr</text>
</a>
</g>
</g>
<!-- Node1&#45;&gt;Node2 -->
<g id="edge1_Node000001_Node000002" class="edge">
<title>Node1&#45;&gt;Node2</title>
<g id="a_edge1_Node000001_Node000002"><a xlink:title=" ">
<path fill="none" stroke="#63b8ff" d="M86.09,-64.5C94.51,-64.5 103.32,-64.5 111.63,-64.5"/>
<polygon fill="#63b8ff" stroke="#63b8ff" points="111.82,-68 121.82,-64.5 111.82,-61 111.82,-68"/>
</a>
</g>
</g>
<!-- Node3 -->
<g id="Node000003" class="node">
<title>Node3</title>
<g id="a_Node000003"><a xlink:href="ft__strdup_8c.html#aebe73f27c70c56ac5053f860ef5436c9" target="_top" xlink:title="Duplicates a null&#45;terminated string by allocating memory.">
<polygon fill="white" stroke="#666666" points="277.5,-130 218.5,-130 218.5,-111 277.5,-111 277.5,-130"/>
<text text-anchor="middle" x="248" y="-118" font-family="Helvetica,sans-Serif" font-size="10.00">ft_strdup</text>
</a>
</g>
</g>
<!-- Node2&#45;&gt;Node3 -->
<g id="edge2_Node000002_Node000003" class="edge">
<title>Node2&#45;&gt;Node3</title>
<g id="a_edge2_Node000002_Node000003"><a xlink:title=" ">
<path fill="none" stroke="#63b8ff" d="M168.96,-74.25C183.6,-82.93 205.21,-95.74 221.98,-105.68"/>
<polygon fill="#63b8ff" stroke="#63b8ff" points="220.34,-108.77 230.73,-110.86 223.91,-102.75 220.34,-108.77"/>
</a>
</g>
</g>
<!-- Node4 -->
<g id="Node000004" class="node">
<title>Node4</title>
<g id="a_Node000004"><a xlink:href="ft__strlcpy_8c.html#aa053827b3a2ea3d0118783d6fb59d178" target="_top" xlink:title="Copies up to size &#45; 1 characters from the string src to dst, null&#45;terminating the result.">
<polygon fill="white" stroke="#666666" points="279,-93 217,-93 217,-74 279,-74 279,-93"/>
<text text-anchor="middle" x="248" y="-81" font-family="Helvetica,sans-Serif" font-size="10.00">ft_strlcpy</text>
</a>
</g>
</g>
<!-- Node2&#45;&gt;Node4 -->
<g id="edge3_Node000002_Node000004" class="edge">
<title>Node2&#45;&gt;Node4</title>
<g id="a_edge3_Node000002_Node000004"><a xlink:title=" ">
<path fill="none" stroke="#63b8ff" d="M181.11,-70.25C189.23,-71.89 198.23,-73.69 206.9,-75.44"/>
<polygon fill="#63b8ff" stroke="#63b8ff" points="206.35,-78.9 216.85,-77.44 207.73,-72.04 206.35,-78.9"/>
</a>
</g>
</g>
<!-- Node5 -->
<g id="Node000005" class="node">
<title>Node5</title>
<g id="a_Node000005"><a xlink:href="ft__strlen_8c.html#a828402378653640f545a4be2e00e92f9" target="_top" xlink:title="Calculates the length of a null&#45;terminated string.">
<polygon fill="white" stroke="#666666" points="276,-56 220,-56 220,-37 276,-37 276,-56"/>
<text text-anchor="middle" x="248" y="-44" font-family="Helvetica,sans-Serif" font-size="10.00">ft_strlen</text>
</a>
</g>
</g>
<!-- Node2&#45;&gt;Node5 -->
<g id="edge4_Node000002_Node000005" class="edge">
<title>Node2&#45;&gt;Node5</title>
<g id="a_edge4_Node000002_Node000005"><a xlink:title=" ">
<path fill="none" stroke="#63b8ff" d="M181.11,-59.05C190.13,-57.33 200.22,-55.41 209.75,-53.6"/>
<polygon fill="#63b8ff" stroke="#63b8ff" points="210.61,-56.99 219.78,-51.68 209.3,-50.12 210.61,-56.99"/>
</a>
</g>
</g>
<!-- Node6 -->
<g id="Node000006" class="node">
<title>Node6</title>
<g id="a_Node000006"><a xlink:href="ft__strlcat_8c.html#a3ab017dd491d7327d1b4acbf1398b91e" target="_top" xlink:title="Returns the length of a null&#45;terminated string.">
<polygon fill="white" stroke="#666666" points="264,-19 232,-19 232,0 264,0 264,-19"/>
<text text-anchor="middle" x="248" y="-7" font-family="Helvetica,sans-Serif" font-size="10.00">len</text>
</a>
</g>
</g>
<!-- Node2&#45;&gt;Node6 -->
<g id="edge5_Node000002_Node000006" class="edge">
<title>Node2&#45;&gt;Node6</title>
<g id="a_edge5_Node000002_Node000006"><a xlink:title=" ">
<path fill="none" stroke="#63b8ff" d="M168.96,-54.92C183.95,-46.19 206.27,-33.21 223.2,-23.35"/>
<polygon fill="#63b8ff" stroke="#63b8ff" points="225.09,-26.3 231.97,-18.25 221.57,-20.25 225.09,-26.3"/>
</a>
</g>
</g>
</g>
</svg>
