<?xml version="1.0" encoding="UTF-8" standalone="no"?>
<!DOCTYPE svg PUBLIC "-//W3C//DTD SVG 1.1//EN"
 "http://www.w3.org/Graphics/SVG/1.1/DTD/svg11.dtd">
<!-- Generated by graphviz version 2.43.0 (0)
 -->
<!-- Title: restore_sdin Pages: 1 -->
<svg width="1301pt" height="263pt"
 viewBox="0.00 0.00 1301.00 262.50" xmlns="http://www.w3.org/2000/svg" xmlns:xlink="http://www.w3.org/1999/xlink">
<g id="graph0" class="graph" transform="scale(1 1) rotate(0) translate(4 258.5)">
<title>restore_sdin</title>
<!-- Node1 -->
<g id="Node000001" class="node">
<title>Node1</title>
<g id="a_Node000001"><a xlink:title="Restores the previously duplicated standard input.">
<polygon fill="#999999" stroke="#666666" points="1293,-143.5 1216,-143.5 1216,-124.5 1293,-124.5 1293,-143.5"/>
<text text-anchor="middle" x="1254.5" y="-131.5" font-family="Helvetica,sans-Serif" font-size="10.00">restore_sdin</text>
</a>
</g>
</g>
<!-- Node2 -->
<g id="Node000002" class="node">
<title>Node2</title>
<g id="a_Node000002"><a xlink:href="ft__cd_8c.html#ad77d8c01768899312d5dbc506a30f83d" target="_top" xlink:title="Restores standard input and closes file descriptor if needed.">
<polygon fill="white" stroke="#666666" points="1163,-143.5 1084,-143.5 1084,-124.5 1163,-124.5 1163,-143.5"/>
<text text-anchor="middle" x="1123.5" y="-131.5" font-family="Helvetica,sans-Serif" font-size="10.00">ft_clean_exit</text>
</a>
</g>
</g>
<!-- Node1&#45;&gt;Node2 -->
<g id="edge1_Node000001_Node000002" class="edge">
<title>Node1&#45;&gt;Node2</title>
<g id="a_edge1_Node000001_Node000002"><a xlink:title=" ">
<path fill="none" stroke="#63b8ff" d="M1205.47,-134C1191.58,-134 1176.59,-134 1163.33,-134"/>
<polygon fill="#63b8ff" stroke="#63b8ff" points="1205.84,-137.5 1215.84,-134 1205.84,-130.5 1205.84,-137.5"/>
</a>
</g>
</g>
<!-- Node13 -->
<g id="Node000013" class="node">
<title>Node13</title>
<g id="a_Node000013"><a xlink:href="ft__echo_8c.html#a177f72f5eedf5cdf35c113ae47966c4b" target="_top" xlink:title="Builtin function for the echo command.">
<polygon fill="white" stroke="#666666" points="1003.5,-106.5 951.5,-106.5 951.5,-87.5 1003.5,-87.5 1003.5,-106.5"/>
<text text-anchor="middle" x="977.5" y="-94.5" font-family="Helvetica,sans-Serif" font-size="10.00">ft_echo</text>
</a>
</g>
</g>
<!-- Node1&#45;&gt;Node13 -->
<g id="edge13_Node000001_Node000013" class="edge">
<title>Node1&#45;&gt;Node13</title>
<g id="a_edge13_Node000001_Node000013"><a xlink:title=" ">
<path fill="none" stroke="#63b8ff" d="M1211.3,-121.83C1201.12,-119.24 1190.23,-116.77 1180,-115 1117.18,-104.15 1042.15,-99.64 1003.8,-97.93"/>
<polygon fill="#63b8ff" stroke="#63b8ff" points="1210.62,-125.27 1221.18,-124.43 1212.4,-118.5 1210.62,-125.27"/>
</a>
</g>
</g>
<!-- Node14 -->
<g id="Node000014" class="node">
<title>Node14</title>
<g id="a_Node000014"><a xlink:href="env_8c.html#a6a15443c9c0b34afef3d21f19e385995" target="_top" xlink:title="Builtin function for the env command.">
<polygon fill="white" stroke="#666666" points="1001,-69.5 954,-69.5 954,-50.5 1001,-50.5 1001,-69.5"/>
<text text-anchor="middle" x="977.5" y="-57.5" font-family="Helvetica,sans-Serif" font-size="10.00">ft_env</text>
</a>
</g>
</g>
<!-- Node1&#45;&gt;Node14 -->
<g id="edge16_Node000001_Node000014" class="edge">
<title>Node1&#45;&gt;Node14</title>
<g id="a_edge16_Node000001_Node000014"><a xlink:title=" ">
<path fill="none" stroke="#63b8ff" d="M1227.59,-119.68C1213.8,-112.57 1196.36,-104.38 1180,-99 1116.87,-78.23 1038.78,-67.03 1001.03,-62.47"/>
<polygon fill="#63b8ff" stroke="#63b8ff" points="1226.01,-122.8 1236.49,-124.37 1229.28,-116.61 1226.01,-122.8"/>
</a>
</g>
</g>
<!-- Node15 -->
<g id="Node000015" class="node">
<title>Node15</title>
<g id="a_Node000015"><a xlink:href="export_8c.html#a2b0f2ba2e9188c7b4f6ca5a44c1d0c8e" target="_top" xlink:title="Builtin function for the export command.">
<polygon fill="white" stroke="#666666" points="1007.5,-254.5 947.5,-254.5 947.5,-235.5 1007.5,-235.5 1007.5,-254.5"/>
<text text-anchor="middle" x="977.5" y="-242.5" font-family="Helvetica,sans-Serif" font-size="10.00">ft_export</text>
</a>
</g>
</g>
<!-- Node1&#45;&gt;Node15 -->
<g id="edge19_Node000001_Node000015" class="edge">
<title>Node1&#45;&gt;Node15</title>
<g id="a_edge19_Node000001_Node000015"><a xlink:title=" ">
<path fill="none" stroke="#63b8ff" d="M1244.91,-152.92C1233.58,-175.42 1211.34,-212.05 1180,-229 1124.9,-258.8 1048.67,-254.82 1007.57,-249.68"/>
<polygon fill="#63b8ff" stroke="#63b8ff" points="1248.17,-154.23 1249.35,-143.7 1241.86,-151.19 1248.17,-154.23"/>
</a>
</g>
</g>
<!-- Node16 -->
<g id="Node000016" class="node">
<title>Node16</title>
<g id="a_Node000016"><a xlink:href="pwd_8c.html#a6d8d7124ea802d0543b2934adff70bd7" target="_top" xlink:title="Closes the file descriptor if different from 1 and restores stdin if necessary.">
<polygon fill="white" stroke="#666666" points="1161,-219.5 1086,-219.5 1086,-200.5 1161,-200.5 1161,-219.5"/>
<text text-anchor="middle" x="1123.5" y="-207.5" font-family="Helvetica,sans-Serif" font-size="10.00">ft_too_close</text>
</a>
</g>
</g>
<!-- Node1&#45;&gt;Node16 -->
<g id="edge22_Node000001_Node000016" class="edge">
<title>Node1&#45;&gt;Node16</title>
<g id="a_edge22_Node000001_Node000016"><a xlink:title=" ">
<path fill="none" stroke="#63b8ff" d="M1233.38,-149.96C1219.02,-160.91 1198.96,-175.35 1180,-186 1170.39,-191.4 1159.33,-196.41 1149.62,-200.44"/>
<polygon fill="#63b8ff" stroke="#63b8ff" points="1235.77,-152.54 1241.53,-143.65 1231.48,-147 1235.77,-152.54"/>
</a>
</g>
</g>
<!-- Node18 -->
<g id="Node000018" class="node">
<title>Node18</title>
<g id="a_Node000018"><a xlink:href="unset_8c.html#afc37f76bba8f618bcf9eaafa7ee23618" target="_top" xlink:title="Builtin function for the unset command.">
<polygon fill="white" stroke="#666666" points="1005.5,-180.5 949.5,-180.5 949.5,-161.5 1005.5,-161.5 1005.5,-180.5"/>
<text text-anchor="middle" x="977.5" y="-168.5" font-family="Helvetica,sans-Serif" font-size="10.00">ft_unset</text>
</a>
</g>
</g>
<!-- Node1&#45;&gt;Node18 -->
<g id="edge26_Node000001_Node000018" class="edge">
<title>Node1&#45;&gt;Node18</title>
<g id="a_edge26_Node000001_Node000018"><a xlink:title=" ">
<path fill="none" stroke="#63b8ff" d="M1209.2,-145.95C1199.63,-148.23 1189.52,-150.39 1180,-152 1118.15,-162.43 1044.59,-167.55 1005.72,-169.7"/>
<polygon fill="#63b8ff" stroke="#63b8ff" points="1210.07,-149.35 1218.95,-143.57 1208.4,-142.55 1210.07,-149.35"/>
</a>
</g>
</g>
<!-- Node19 -->
<g id="Node000019" class="node">
<title>Node19</title>
<g id="a_Node000019"><a xlink:href="handle__redirections_8c.html#aa4509a43f47ed881eb2d81fb81458466" target="_top" xlink:title="Handles redirections without an associated command.">
<polygon fill="white" stroke="#666666" points="1180,-30 1067,-30 1067,0 1180,0 1180,-30"/>
<text text-anchor="start" x="1075" y="-18" font-family="Helvetica,sans-Serif" font-size="10.00">handle_redirection</text>
<text text-anchor="middle" x="1123.5" y="-7" font-family="Helvetica,sans-Serif" font-size="10.00">_without_command</text>
</a>
</g>
</g>
<!-- Node1&#45;&gt;Node19 -->
<g id="edge29_Node000001_Node000019" class="edge">
<title>Node1&#45;&gt;Node19</title>
<g id="a_edge29_Node000001_Node000019"><a xlink:title=" ">
<path fill="none" stroke="#63b8ff" d="M1241.82,-115.63C1228.64,-96.01 1205.67,-64.92 1180,-44 1173.59,-38.78 1166.1,-34.1 1158.73,-30.11"/>
<polygon fill="#63b8ff" stroke="#63b8ff" points="1239.06,-117.81 1247.47,-124.25 1244.91,-113.97 1239.06,-117.81"/>
</a>
</g>
</g>
<!-- Node3 -->
<g id="Node000003" class="node">
<title>Node3</title>
<g id="a_Node000003"><a xlink:href="ft__cd_8c.html#af438919e376d2d0df3830120118ea526" target="_top" xlink:title="Builtin function for the cd (change directory) command.">
<polygon fill="white" stroke="#666666" points="997.5,-143.5 957.5,-143.5 957.5,-124.5 997.5,-124.5 997.5,-143.5"/>
<text text-anchor="middle" x="977.5" y="-131.5" font-family="Helvetica,sans-Serif" font-size="10.00">ft_cd</text>
</a>
</g>
</g>
<!-- Node2&#45;&gt;Node3 -->
<g id="edge2_Node000002_Node000003" class="edge">
<title>Node2&#45;&gt;Node3</title>
<g id="a_edge2_Node000002_Node000003"><a xlink:title=" ">
<path fill="none" stroke="#63b8ff" d="M1073.81,-134C1047.76,-134 1017.14,-134 997.77,-134"/>
<polygon fill="#63b8ff" stroke="#63b8ff" points="1073.91,-137.5 1083.91,-134 1073.91,-130.5 1073.91,-137.5"/>
</a>
</g>
</g>
<!-- Node4 -->
<g id="Node000004" class="node">
<title>Node4</title>
<g id="a_Node000004"><a xlink:href="cmd__execution_8c.html#a5ce7231f800cbacea6350cc1a32a59bd" target="_top" xlink:title="Executes a list of non&#45;pipelined commands.">
<polygon fill="white" stroke="#666666" points="875,-143.5 803,-143.5 803,-124.5 875,-124.5 875,-143.5"/>
<text text-anchor="middle" x="839" y="-131.5" font-family="Helvetica,sans-Serif" font-size="10.00">ft_exe_cmd</text>
</a>
</g>
</g>
<!-- Node3&#45;&gt;Node4 -->
<g id="edge3_Node000003_Node000004" class="edge">
<title>Node3&#45;&gt;Node4</title>
<g id="a_edge3_Node000003_Node000004"><a xlink:title=" ">
<path fill="none" stroke="#63b8ff" d="M946.96,-134C925.91,-134 897.5,-134 875.26,-134"/>
<polygon fill="#63b8ff" stroke="#63b8ff" points="947.23,-137.5 957.23,-134 947.23,-130.5 947.23,-137.5"/>
</a>
</g>
</g>
<!-- Node8 -->
<g id="Node000008" class="node">
<title>Node8</title>
<g id="a_Node000008"><a xlink:href="cmd__execution_8c.html#a50e59fa2e4621831a415d4038f697c56" target="_top" xlink:title="Executes a command within a pipeline.">
<polygon fill="white" stroke="#666666" points="888,-180.5 790,-180.5 790,-161.5 888,-161.5 888,-180.5"/>
<text text-anchor="middle" x="839" y="-168.5" font-family="Helvetica,sans-Serif" font-size="10.00">ft_exe_pipe_cmd</text>
</a>
</g>
</g>
<!-- Node3&#45;&gt;Node8 -->
<g id="edge7_Node000003_Node000008" class="edge">
<title>Node3&#45;&gt;Node8</title>
<g id="a_edge7_Node000003_Node000008"><a xlink:title=" ">
<path fill="none" stroke="#63b8ff" d="M947.54,-141.85C926.43,-147.57 897.71,-155.36 875.26,-161.44"/>
<polygon fill="#63b8ff" stroke="#63b8ff" points="948.5,-145.22 957.23,-139.22 946.66,-138.46 948.5,-145.22"/>
</a>
</g>
</g>
<!-- Node5 -->
<g id="Node000005" class="node">
<title>Node5</title>
<g id="a_Node000005"><a xlink:href="main__utils_8c.html#a7e8f478480ab6ab34d6f5eadaf6acdb9" target="_top" xlink:title="Handles parsing and execution of tokens.">
<polygon fill="white" stroke="#666666" points="273,-142.5 192,-142.5 192,-123.5 273,-123.5 273,-142.5"/>
<text text-anchor="middle" x="232.5" y="-130.5" font-family="Helvetica,sans-Serif" font-size="10.00">ft_token_flow</text>
</a>
</g>
</g>
<!-- Node4&#45;&gt;Node5 -->
<g id="edge4_Node000004_Node000005" class="edge">
<title>Node4&#45;&gt;Node5</title>
<g id="a_edge4_Node000004_Node000005"><a xlink:title=" ">
<path fill="none" stroke="#63b8ff" d="M792.83,-133.72C741.77,-133.42 656.16,-133 582.5,-133 582.5,-133 582.5,-133 459.5,-133 394.17,-133 318.22,-133 273.1,-133"/>
<polygon fill="#63b8ff" stroke="#63b8ff" points="792.85,-137.22 802.87,-133.78 792.89,-130.22 792.85,-137.22"/>
</a>
</g>
</g>
<!-- Node6 -->
<g id="Node000006" class="node">
<title>Node6</title>
<g id="a_Node000006"><a xlink:href="main__utils_8c.html#ae35edfb8f1339d6f77f53c28eb2a2ed6" target="_top" xlink:title="Handles a complete cycle of input → parsing → execution.">
<polygon fill="white" stroke="#666666" points="156,-142.5 77,-142.5 77,-123.5 156,-123.5 156,-142.5"/>
<text text-anchor="middle" x="116.5" y="-130.5" font-family="Helvetica,sans-Serif" font-size="10.00">ft_main_flow</text>
</a>
</g>
</g>
<!-- Node5&#45;&gt;Node6 -->
<g id="edge5_Node000005_Node000006" class="edge">
<title>Node5&#45;&gt;Node6</title>
<g id="a_edge5_Node000005_Node000006"><a xlink:title=" ">
<path fill="none" stroke="#63b8ff" d="M181.7,-133C173.16,-133 164.4,-133 156.21,-133"/>
<polygon fill="#63b8ff" stroke="#63b8ff" points="181.95,-136.5 191.95,-133 181.95,-129.5 181.95,-136.5"/>
</a>
</g>
</g>
<!-- Node7 -->
<g id="Node000007" class="node">
<title>Node7</title>
<g id="a_Node000007"><a xlink:href="main_8c.html#ab3862b46d6a8d13c2d884a297e6b05b5" target="_top" xlink:title="Main function of the minishell.">
<polygon fill="white" stroke="#666666" points="41,-142.5 0,-142.5 0,-123.5 41,-123.5 41,-142.5"/>
<text text-anchor="middle" x="20.5" y="-130.5" font-family="Helvetica,sans-Serif" font-size="10.00">main</text>
</a>
</g>
</g>
<!-- Node6&#45;&gt;Node7 -->
<g id="edge6_Node000006_Node000007" class="edge">
<title>Node6&#45;&gt;Node7</title>
<g id="a_edge6_Node000006_Node000007"><a xlink:title=" ">
<path fill="none" stroke="#63b8ff" d="M66.74,-133C57.62,-133 48.59,-133 41.03,-133"/>
<polygon fill="#63b8ff" stroke="#63b8ff" points="67,-136.5 77,-133 67,-129.5 67,-136.5"/>
</a>
</g>
</g>
<!-- Node9 -->
<g id="Node000009" class="node">
<title>Node9</title>
<g id="a_Node000009"><a xlink:href="pipes_8c.html#a36a2d91a0566ad253efe3833b05e69d1" target="_top" xlink:title="Routine executed by the child process for each command in the pipe.">
<polygon fill="white" stroke="#666666" points="754,-180.5 662,-180.5 662,-161.5 754,-161.5 754,-180.5"/>
<text text-anchor="middle" x="708" y="-168.5" font-family="Helvetica,sans-Serif" font-size="10.00">ft_child_routine</text>
</a>
</g>
</g>
<!-- Node8&#45;&gt;Node9 -->
<g id="edge8_Node000008_Node000009" class="edge">
<title>Node8&#45;&gt;Node9</title>
<g id="a_edge8_Node000008_Node000009"><a xlink:title=" ">
<path fill="none" stroke="#63b8ff" d="M779.91,-171C771.24,-171 762.42,-171 754.08,-171"/>
<polygon fill="#63b8ff" stroke="#63b8ff" points="779.97,-174.5 789.97,-171 779.97,-167.5 779.97,-174.5"/>
</a>
</g>
</g>
<!-- Node10 -->
<g id="Node000010" class="node">
<title>Node10</title>
<g id="a_Node000010"><a xlink:href="pipes_8c.html#aa17e847997e7266a0a111ab3572756bb" target="_top" xlink:title="Manages pipe creation and fork to execute the current command.">
<polygon fill="white" stroke="#666666" points="626,-180.5 537,-180.5 537,-161.5 626,-161.5 626,-180.5"/>
<text text-anchor="middle" x="581.5" y="-168.5" font-family="Helvetica,sans-Serif" font-size="10.00">ft_pipe_routine</text>
</a>
</g>
</g>
<!-- Node9&#45;&gt;Node10 -->
<g id="edge9_Node000009_Node000010" class="edge">
<title>Node9&#45;&gt;Node10</title>
<g id="a_edge9_Node000009_Node000010"><a xlink:title=" ">
<path fill="none" stroke="#63b8ff" d="M651.52,-171C643.08,-171 634.46,-171 626.31,-171"/>
<polygon fill="#63b8ff" stroke="#63b8ff" points="651.7,-174.5 661.7,-171 651.7,-167.5 651.7,-174.5"/>
</a>
</g>
</g>
<!-- Node11 -->
<g id="Node000011" class="node">
<title>Node11</title>
<g id="a_Node000011"><a xlink:href="pipes_8c.html#a7a3b0de1a88a243da741f748881e14f0" target="_top" xlink:title="Executes a list of commands connected via pipes.">
<polygon fill="white" stroke="#666666" points="501,-180.5 420,-180.5 420,-161.5 501,-161.5 501,-180.5"/>
<text text-anchor="middle" x="460.5" y="-168.5" font-family="Helvetica,sans-Serif" font-size="10.00">execute_pipe</text>
</a>
</g>
</g>
<!-- Node10&#45;&gt;Node11 -->
<g id="edge10_Node000010_Node000011" class="edge">
<title>Node10&#45;&gt;Node11</title>
<g id="a_edge10_Node000010_Node000011"><a xlink:title=" ">
<path fill="none" stroke="#63b8ff" d="M526.85,-171C518.22,-171 509.42,-171 501.19,-171"/>
<polygon fill="#63b8ff" stroke="#63b8ff" points="526.86,-174.5 536.86,-171 526.86,-167.5 526.86,-174.5"/>
</a>
</g>
</g>
<!-- Node12 -->
<g id="Node000012" class="node">
<title>Node12</title>
<g id="a_Node000012"><a xlink:href="main__utils_8c.html#ad0183732909ae6e7c52e7b086c2e5642" target="_top" xlink:title="Manages the execution flow of commands with pipes.">
<polygon fill="white" stroke="#666666" points="384,-180.5 309,-180.5 309,-161.5 384,-161.5 384,-180.5"/>
<text text-anchor="middle" x="346.5" y="-168.5" font-family="Helvetica,sans-Serif" font-size="10.00">ft_pipe_flow</text>
</a>
</g>
</g>
<!-- Node11&#45;&gt;Node12 -->
<g id="edge11_Node000011_Node000012" class="edge">
<title>Node11&#45;&gt;Node12</title>
<g id="a_edge11_Node000011_Node000012"><a xlink:title=" ">
<path fill="none" stroke="#63b8ff" d="M409.47,-171C400.96,-171 392.26,-171 384.18,-171"/>
<polygon fill="#63b8ff" stroke="#63b8ff" points="409.7,-174.5 419.7,-171 409.7,-167.5 409.7,-174.5"/>
</a>
</g>
</g>
<!-- Node12&#45;&gt;Node5 -->
<g id="edge12_Node000012_Node000005" class="edge">
<title>Node12&#45;&gt;Node5</title>
<g id="a_edge12_Node000012_Node000005"><a xlink:title=" ">
<path fill="none" stroke="#63b8ff" d="M307.7,-158.17C292.67,-153.08 275.68,-147.31 261.75,-142.59"/>
<polygon fill="#63b8ff" stroke="#63b8ff" points="306.64,-161.51 317.24,-161.41 308.89,-154.88 306.64,-161.51"/>
</a>
</g>
</g>
<!-- Node13&#45;&gt;Node4 -->
<g id="edge14_Node000013_Node000004" class="edge">
<title>Node13&#45;&gt;Node4</title>
<g id="a_edge14_Node000013_Node000004"><a xlink:title=" ">
<path fill="none" stroke="#63b8ff" d="M941.63,-106.45C921.25,-111.98 895.59,-118.93 875.16,-124.47"/>
<polygon fill="#63b8ff" stroke="#63b8ff" points="942.73,-109.78 951.46,-103.79 940.9,-103.02 942.73,-109.78"/>
</a>
</g>
</g>
<!-- Node13&#45;&gt;Node8 -->
<g id="edge15_Node000013_Node000008" class="edge">
<title>Node13&#45;&gt;Node8</title>
<g id="a_edge15_Node000013_Node000008"><a xlink:title=" ">
<path fill="none" stroke="#63b8ff" d="M941.81,-106.3C935.64,-108.67 929.45,-111.55 924,-115 904.62,-127.28 907.09,-139.27 888,-152 882.48,-155.68 876.14,-158.82 869.92,-161.42"/>
<polygon fill="#63b8ff" stroke="#63b8ff" points="943.07,-109.57 951.38,-102.99 940.78,-102.96 943.07,-109.57"/>
</a>
</g>
</g>
<!-- Node14&#45;&gt;Node4 -->
<g id="edge17_Node000014_Node000004" class="edge">
<title>Node14&#45;&gt;Node4</title>
<g id="a_edge17_Node000014_Node000004"><a xlink:title=" ">
<path fill="none" stroke="#63b8ff" d="M944.1,-69.64C937.33,-72.06 930.33,-74.87 924,-78 896.82,-91.44 868.01,-112.29 852.19,-124.4"/>
<polygon fill="#63b8ff" stroke="#63b8ff" points="945.4,-72.9 953.76,-66.38 943.17,-66.26 945.4,-72.9"/>
</a>
</g>
</g>
<!-- Node14&#45;&gt;Node8 -->
<g id="edge18_Node000014_Node000008" class="edge">
<title>Node14&#45;&gt;Node8</title>
<g id="a_edge18_Node000014_Node000008"><a xlink:title=" ">
<path fill="none" stroke="#63b8ff" d="M944.11,-66.68C936.9,-69.31 929.71,-72.95 924,-78 896.6,-102.23 914.82,-127.14 888,-152 883.92,-155.78 879.01,-158.84 873.9,-161.31"/>
<polygon fill="#63b8ff" stroke="#63b8ff" points="945.29,-69.97 953.82,-63.69 943.23,-63.28 945.29,-69.97"/>
</a>
</g>
</g>
<!-- Node15&#45;&gt;Node4 -->
<g id="edge20_Node000015_Node000004" class="edge">
<title>Node15&#45;&gt;Node4</title>
<g id="a_edge20_Node000015_Node000004"><a xlink:title=" ">
<path fill="none" stroke="#63b8ff" d="M937.67,-235.7C932.72,-233.41 927.99,-230.55 924,-227 896.37,-202.43 915.28,-176.96 888,-152 884.32,-148.64 879.96,-145.88 875.38,-143.63"/>
<polygon fill="#63b8ff" stroke="#63b8ff" points="936.76,-239.11 947.35,-239.47 939.3,-232.58 936.76,-239.11"/>
</a>
</g>
</g>
<!-- Node15&#45;&gt;Node8 -->
<g id="edge21_Node000015_Node000008" class="edge">
<title>Node15&#45;&gt;Node8</title>
<g id="a_edge21_Node000015_Node000008"><a xlink:title=" ">
<path fill="none" stroke="#63b8ff" d="M937.75,-232.99C933.04,-231.16 928.36,-229.16 924,-227 896.82,-213.56 868.01,-192.71 852.19,-180.6"/>
<polygon fill="#63b8ff" stroke="#63b8ff" points="936.75,-236.35 947.35,-236.49 939.15,-229.78 936.75,-236.35"/>
</a>
</g>
</g>
<!-- Node17 -->
<g id="Node000017" class="node">
<title>Node17</title>
<g id="a_Node000017"><a xlink:href="pwd_8c.html#a445dbcbb87f52cdbb07a078f21b198c4" target="_top" xlink:title="Builtin function for the pwd (print working directory) command.">
<polygon fill="white" stroke="#666666" points="1002,-217.5 953,-217.5 953,-198.5 1002,-198.5 1002,-217.5"/>
<text text-anchor="middle" x="977.5" y="-205.5" font-family="Helvetica,sans-Serif" font-size="10.00">ft_pwd</text>
</a>
</g>
</g>
<!-- Node16&#45;&gt;Node17 -->
<g id="edge23_Node000016_Node000017" class="edge">
<title>Node16&#45;&gt;Node17</title>
<g id="a_edge23_Node000016_Node000017"><a xlink:title=" ">
<path fill="none" stroke="#63b8ff" d="M1075.56,-209.35C1050.97,-209.01 1021.92,-208.6 1002.05,-208.33"/>
<polygon fill="#63b8ff" stroke="#63b8ff" points="1075.74,-212.85 1085.79,-209.49 1075.84,-205.85 1075.74,-212.85"/>
</a>
</g>
</g>
<!-- Node17&#45;&gt;Node4 -->
<g id="edge24_Node000017_Node000004" class="edge">
<title>Node17&#45;&gt;Node4</title>
<g id="a_edge24_Node000017_Node000004"><a xlink:title=" ">
<path fill="none" stroke="#63b8ff" d="M943.32,-199.34C936.65,-196.86 929.88,-193.78 924,-190 904.43,-177.42 907.39,-164.86 888,-152 883.03,-148.7 877.37,-145.9 871.73,-143.56"/>
<polygon fill="#63b8ff" stroke="#63b8ff" points="942.33,-202.7 952.92,-202.55 944.55,-196.06 942.33,-202.7"/>
</a>
</g>
</g>
<!-- Node17&#45;&gt;Node8 -->
<g id="edge25_Node000017_Node000008" class="edge">
<title>Node17&#45;&gt;Node8</title>
<g id="a_edge25_Node000017_Node000008"><a xlink:title=" ">
<path fill="none" stroke="#63b8ff" d="M942.86,-198.88C922.32,-193.32 896.11,-186.21 875.29,-180.56"/>
<polygon fill="#63b8ff" stroke="#63b8ff" points="942.16,-202.32 952.72,-201.56 943.99,-195.56 942.16,-202.32"/>
</a>
</g>
</g>
<!-- Node18&#45;&gt;Node4 -->
<g id="edge27_Node000018_Node000004" class="edge">
<title>Node18&#45;&gt;Node4</title>
<g id="a_edge27_Node000018_Node000004"><a xlink:title=" ">
<path fill="none" stroke="#63b8ff" d="M939.48,-160.96C919.42,-155.53 894.78,-148.85 875.03,-143.5"/>
<polygon fill="#63b8ff" stroke="#63b8ff" points="938.64,-164.36 949.21,-163.6 940.47,-157.61 938.64,-164.36"/>
</a>
</g>
</g>
<!-- Node18&#45;&gt;Node8 -->
<g id="edge28_Node000018_Node000008" class="edge">
<title>Node18&#45;&gt;Node8</title>
<g id="a_edge28_Node000018_Node000008"><a xlink:title=" ">
<path fill="none" stroke="#63b8ff" d="M938.86,-171C923.21,-171 904.86,-171 888.24,-171"/>
<polygon fill="#63b8ff" stroke="#63b8ff" points="939.21,-174.5 949.21,-171 939.21,-167.5 939.21,-174.5"/>
</a>
</g>
</g>
<!-- Node20 -->
<g id="Node000020" class="node">
<title>Node20</title>
<g id="a_Node000020"><a xlink:href="handle__redirections_8c.html#ab2c37fefb1291d3f8d0dc91e8c096334" target="_top" xlink:title="Handles redirection associated with a command.">
<polygon fill="white" stroke="#666666" points="1031,-28.5 924,-28.5 924,-9.5 1031,-9.5 1031,-28.5"/>
<text text-anchor="middle" x="977.5" y="-16.5" font-family="Helvetica,sans-Serif" font-size="10.00">handle_redirection</text>
</a>
</g>
</g>
<!-- Node19&#45;&gt;Node20 -->
<g id="edge30_Node000019_Node000020" class="edge">
<title>Node19&#45;&gt;Node20</title>
<g id="a_edge30_Node000019_Node000020"><a xlink:title=" ">
<path fill="none" stroke="#63b8ff" d="M1056.83,-16.82C1048.24,-17.06 1039.53,-17.3 1031.19,-17.54"/>
<polygon fill="#63b8ff" stroke="#63b8ff" points="1056.93,-20.32 1066.83,-16.55 1056.73,-13.33 1056.93,-20.32"/>
</a>
</g>
</g>
<!-- Node21 -->
<g id="Node000021" class="node">
<title>Node21</title>
<g id="a_Node000021"><a xlink:href="create__command__list_8c.html#ae2006bf82a70d4753ffdca65847316ca" target="_top" xlink:title="Executes a redirection for the current command.">
<polygon fill="white" stroke="#666666" points="876,-37.5 802,-37.5 802,-18.5 876,-18.5 876,-37.5"/>
<text text-anchor="middle" x="839" y="-25.5" font-family="Helvetica,sans-Serif" font-size="10.00">ft_exe_redir</text>
</a>
</g>
</g>
<!-- Node20&#45;&gt;Node21 -->
<g id="edge31_Node000020_Node000021" class="edge">
<title>Node20&#45;&gt;Node21</title>
<g id="a_edge31_Node000020_Node000021"><a xlink:title=" ">
<path fill="none" stroke="#63b8ff" d="M913.54,-23.15C900.72,-24 887.66,-24.86 876.17,-25.62"/>
<polygon fill="#63b8ff" stroke="#63b8ff" points="913.98,-26.63 923.73,-22.48 913.52,-19.65 913.98,-26.63"/>
</a>
</g>
</g>
<!-- Node22 -->
<g id="Node000022" class="node">
<title>Node22</title>
<g id="a_Node000022"><a xlink:href="create__command__list_8c.html#ad16d74756b107a98677124008c71d23b" target="_top" xlink:title="Creates a command list from tokens.">
<polygon fill="white" stroke="#666666" points="615.5,-91.5 547.5,-91.5 547.5,-72.5 615.5,-72.5 615.5,-91.5"/>
<text text-anchor="middle" x="581.5" y="-79.5" font-family="Helvetica,sans-Serif" font-size="10.00">create_list</text>
</a>
</g>
</g>
<!-- Node21&#45;&gt;Node22 -->
<g id="edge32_Node000021_Node000022" class="edge">
<title>Node21&#45;&gt;Node22</title>
<g id="a_edge32_Node000021_Node000022"><a xlink:title=" ">
<path fill="none" stroke="#63b8ff" d="M791.87,-37.75C741.01,-48.5 660.46,-65.52 615.54,-75.02"/>
<polygon fill="#63b8ff" stroke="#63b8ff" points="792.87,-41.11 801.93,-35.62 791.43,-34.27 792.87,-41.11"/>
</a>
</g>
</g>
<!-- Node22&#45;&gt;Node5 -->
<g id="edge33_Node000022_Node000005" class="edge">
<title>Node22&#45;&gt;Node5</title>
<g id="a_edge33_Node000022_Node000005"><a xlink:title=" ">
<path fill="none" stroke="#63b8ff" d="M537.23,-87.25C483.58,-93.9 389.36,-106.08 309,-119 297.29,-120.88 284.59,-123.15 273.01,-125.3"/>
<polygon fill="#63b8ff" stroke="#63b8ff" points="537.91,-90.69 547.41,-85.99 537.05,-83.74 537.91,-90.69"/>
</a>
</g>
</g>
</g>
</svg>
