<?xml version="1.0" encoding="UTF-8" standalone="no"?>
<!DOCTYPE svg PUBLIC "-//W3C//DTD SVG 1.1//EN"
 "http://www.w3.org/Graphics/SVG/1.1/DTD/svg11.dtd">
<!-- Generated by graphviz version 2.43.0 (0)
 -->
<!-- Title: ft_merge_str Pages: 1 -->
<svg width="288pt" height="175pt"
 viewBox="0.00 0.00 288.00 175.00" xmlns="http://www.w3.org/2000/svg" xmlns:xlink="http://www.w3.org/1999/xlink">
<g id="graph0" class="graph" transform="scale(1 1) rotate(0) translate(4 171)">
<title>ft_merge_str</title>
<!-- Node1 -->
<g id="Node000001" class="node">
<title>Node1</title>
<g id="a_Node000001"><a xlink:title="Concatenates a literal part (non&#45;variable) of the string to the result.">
<polygon fill="#999999" stroke="#666666" points="78,-111 0,-111 0,-92 78,-92 78,-111"/>
<text text-anchor="middle" x="39" y="-99" font-family="Helvetica,sans-Serif" font-size="10.00">ft_merge_str</text>
</a>
</g>
</g>
<!-- Node2 -->
<g id="Node000002" class="node">
<title>Node2</title>
<g id="a_Node000002"><a xlink:href="ft__strjoin_8c.html#a91e6e3e428bcc9f2291b700e1829b82b" target="_top" xlink:title="Concatenates two strings into a newly allocated string.">
<polygon fill="white" stroke="#666666" points="173,-130 114,-130 114,-111 173,-111 173,-130"/>
<text text-anchor="middle" x="143.5" y="-118" font-family="Helvetica,sans-Serif" font-size="10.00">ft_strjoin</text>
</a>
</g>
</g>
<!-- Node1&#45;&gt;Node2 -->
<g id="edge1_Node000001_Node000002" class="edge">
<title>Node1&#45;&gt;Node2</title>
<g id="a_edge1_Node000001_Node000002"><a xlink:title=" ">
<path fill="none" stroke="#63b8ff" d="M78.17,-108.57C86.58,-110.14 95.51,-111.79 103.94,-113.35"/>
<polygon fill="#63b8ff" stroke="#63b8ff" points="103.44,-116.82 113.91,-115.2 104.72,-109.94 103.44,-116.82"/>
</a>
</g>
</g>
<!-- Node5 -->
<g id="Node000005" class="node">
<title>Node5</title>
<g id="a_Node000005"><a xlink:href="ft__substr_8c.html#a78c402cbf3d55b1374693c3b7d34f71d" target="_top" xlink:title="Extracts a substring from a given string.">
<polygon fill="white" stroke="#666666" points="173,-93 114,-93 114,-74 173,-74 173,-93"/>
<text text-anchor="middle" x="143.5" y="-81" font-family="Helvetica,sans-Serif" font-size="10.00">ft_substr</text>
</a>
</g>
</g>
<!-- Node1&#45;&gt;Node5 -->
<g id="edge4_Node000001_Node000005" class="edge">
<title>Node1&#45;&gt;Node5</title>
<g id="a_edge4_Node000001_Node000005"><a xlink:title=" ">
<path fill="none" stroke="#63b8ff" d="M78.17,-94.8C86.58,-93.32 95.51,-91.75 103.94,-90.27"/>
<polygon fill="#63b8ff" stroke="#63b8ff" points="104.67,-93.7 113.91,-88.52 103.46,-86.8 104.67,-93.7"/>
</a>
</g>
</g>
<!-- Node3 -->
<g id="Node000003" class="node">
<title>Node3</title>
<g id="a_Node000003"><a xlink:href="ft__memcpy_8c.html#a41a6f05af30cf85ff63a08e383826322" target="_top" xlink:title="Copies &#39;n&#39; bytes from memory area &#39;src&#39; to memory area &#39;dest&#39;.">
<polygon fill="white" stroke="#666666" points="280,-167 209,-167 209,-148 280,-148 280,-167"/>
<text text-anchor="middle" x="244.5" y="-155" font-family="Helvetica,sans-Serif" font-size="10.00">ft_memcpy</text>
</a>
</g>
</g>
<!-- Node2&#45;&gt;Node3 -->
<g id="edge2_Node000002_Node000003" class="edge">
<title>Node2&#45;&gt;Node3</title>
<g id="a_edge2_Node000002_Node000003"><a xlink:title=" ">
<path fill="none" stroke="#63b8ff" d="M169.99,-130.03C181.57,-134.35 195.45,-139.54 208.02,-144.24"/>
<polygon fill="#63b8ff" stroke="#63b8ff" points="207.15,-147.65 217.75,-147.88 209.61,-141.1 207.15,-147.65"/>
</a>
</g>
</g>
<!-- Node4 -->
<g id="Node000004" class="node">
<title>Node4</title>
<g id="a_Node000004"><a xlink:href="ft__strlen_8c.html#a828402378653640f545a4be2e00e92f9" target="_top" xlink:title="Calculates the length of a null&#45;terminated string.">
<polygon fill="white" stroke="#666666" points="272.5,-130 216.5,-130 216.5,-111 272.5,-111 272.5,-130"/>
<text text-anchor="middle" x="244.5" y="-118" font-family="Helvetica,sans-Serif" font-size="10.00">ft_strlen</text>
</a>
</g>
</g>
<!-- Node2&#45;&gt;Node4 -->
<g id="edge3_Node000002_Node000004" class="edge">
<title>Node2&#45;&gt;Node4</title>
<g id="a_edge3_Node000002_Node000004"><a xlink:title=" ">
<path fill="none" stroke="#63b8ff" d="M173.13,-120.5C183.43,-120.5 195.21,-120.5 206.14,-120.5"/>
<polygon fill="#63b8ff" stroke="#63b8ff" points="206.29,-124 216.29,-120.5 206.29,-117 206.29,-124"/>
</a>
</g>
</g>
<!-- Node5&#45;&gt;Node4 -->
<g id="edge7_Node000005_Node000004" class="edge">
<title>Node5&#45;&gt;Node4</title>
<g id="a_edge7_Node000005_Node000004"><a xlink:title=" ">
<path fill="none" stroke="#63b8ff" d="M169.99,-93.03C181.57,-97.35 195.45,-102.54 208.02,-107.24"/>
<polygon fill="#63b8ff" stroke="#63b8ff" points="207.15,-110.65 217.75,-110.88 209.61,-104.1 207.15,-110.65"/>
</a>
</g>
</g>
<!-- Node6 -->
<g id="Node000006" class="node">
<title>Node6</title>
<g id="a_Node000006"><a xlink:href="ft__strdup_8c.html#aebe73f27c70c56ac5053f860ef5436c9" target="_top" xlink:title="Duplicates a null&#45;terminated string by allocating memory.">
<polygon fill="white" stroke="#666666" points="274,-93 215,-93 215,-74 274,-74 274,-93"/>
<text text-anchor="middle" x="244.5" y="-81" font-family="Helvetica,sans-Serif" font-size="10.00">ft_strdup</text>
</a>
</g>
</g>
<!-- Node5&#45;&gt;Node6 -->
<g id="edge5_Node000005_Node000006" class="edge">
<title>Node5&#45;&gt;Node6</title>
<g id="a_edge5_Node000005_Node000006"><a xlink:title=" ">
<path fill="none" stroke="#63b8ff" d="M173.13,-83.5C182.99,-83.5 194.19,-83.5 204.71,-83.5"/>
<polygon fill="#63b8ff" stroke="#63b8ff" points="204.93,-87 214.93,-83.5 204.93,-80 204.93,-87"/>
</a>
</g>
</g>
<!-- Node7 -->
<g id="Node000007" class="node">
<title>Node7</title>
<g id="a_Node000007"><a xlink:href="ft__strlcpy_8c.html#aa053827b3a2ea3d0118783d6fb59d178" target="_top" xlink:title="Copies up to size &#45; 1 characters from the string src to dst, null&#45;terminating the result.">
<polygon fill="white" stroke="#666666" points="275.5,-56 213.5,-56 213.5,-37 275.5,-37 275.5,-56"/>
<text text-anchor="middle" x="244.5" y="-44" font-family="Helvetica,sans-Serif" font-size="10.00">ft_strlcpy</text>
</a>
</g>
</g>
<!-- Node5&#45;&gt;Node7 -->
<g id="edge6_Node000005_Node000007" class="edge">
<title>Node5&#45;&gt;Node7</title>
<g id="a_edge6_Node000005_Node000007"><a xlink:title=" ">
<path fill="none" stroke="#63b8ff" d="M169.99,-73.97C181.57,-69.65 195.45,-64.46 208.02,-59.76"/>
<polygon fill="#63b8ff" stroke="#63b8ff" points="209.61,-62.9 217.75,-56.12 207.15,-56.35 209.61,-62.9"/>
</a>
</g>
</g>
<!-- Node8 -->
<g id="Node000008" class="node">
<title>Node8</title>
<g id="a_Node000008"><a xlink:href="ft__strlcat_8c.html#a3ab017dd491d7327d1b4acbf1398b91e" target="_top" xlink:title="Returns the length of a null&#45;terminated string.">
<polygon fill="white" stroke="#666666" points="260.5,-19 228.5,-19 228.5,0 260.5,0 260.5,-19"/>
<text text-anchor="middle" x="244.5" y="-7" font-family="Helvetica,sans-Serif" font-size="10.00">len</text>
</a>
</g>
</g>
<!-- Node5&#45;&gt;Node8 -->
<g id="edge8_Node000005_Node000008" class="edge">
<title>Node5&#45;&gt;Node8</title>
<g id="a_edge8_Node000005_Node000008"><a xlink:title=" ">
<path fill="none" stroke="#63b8ff" d="M154.48,-73.86C166.73,-62.31 188.42,-42.72 209,-28.5 212.32,-26.2 215.95,-23.96 219.56,-21.86"/>
<polygon fill="#63b8ff" stroke="#63b8ff" points="221.28,-24.91 228.33,-17 217.89,-18.78 221.28,-24.91"/>
</a>
</g>
</g>
</g>
</svg>
