<?xml version="1.0" encoding="UTF-8" standalone="no"?>
<!DOCTYPE svg PUBLIC "-//W3C//DTD SVG 1.1//EN"
 "http://www.w3.org/Graphics/SVG/1.1/DTD/svg11.dtd">
<!-- Generated by graphviz version 2.43.0 (0)
 -->
<!-- Title: is_space Pages: 1 -->
<svg width="792pt" height="101pt"
 viewBox="0.00 0.00 792.00 101.00" xmlns="http://www.w3.org/2000/svg" xmlns:xlink="http://www.w3.org/1999/xlink">
<g id="graph0" class="graph" transform="scale(1 1) rotate(0) translate(4 97)">
<title>is_space</title>
<!-- Node1 -->
<g id="Node000001" class="node">
<title>Node1</title>
<g id="a_Node000001"><a xlink:title="Checks if the token represents whitespace or invalid characters (garbage).">
<polygon fill="#999999" stroke="#666666" points="784,-56 725,-56 725,-37 784,-37 784,-56"/>
<text text-anchor="middle" x="754.5" y="-44" font-family="Helvetica,sans-Serif" font-size="10.00">is_space</text>
</a>
</g>
</g>
<!-- Node2 -->
<g id="Node000002" class="node">
<title>Node2</title>
<g id="a_Node000002"><a xlink:href="assign__token__type_8c.html#afe8f8f4301ccbcd33344e893f665c442" target="_top" xlink:title="Correctly assigns types to tokens related to redirections and here&#45;documents.">
<polygon fill="white" stroke="#666666" points="677.5,-93 601.5,-93 601.5,-74 677.5,-74 677.5,-93"/>
<text text-anchor="middle" x="639.5" y="-81" font-family="Helvetica,sans-Serif" font-size="10.00">assign_redir</text>
</a>
</g>
</g>
<!-- Node1&#45;&gt;Node2 -->
<g id="edge1_Node000001_Node000002" class="edge">
<title>Node1&#45;&gt;Node2</title>
<g id="a_edge1_Node000001_Node000002"><a xlink:title=" ">
<path fill="none" stroke="#63b8ff" d="M715.09,-59.08C700.27,-63.93 683.61,-69.38 669.79,-73.91"/>
<polygon fill="#63b8ff" stroke="#63b8ff" points="716.57,-62.27 724.99,-55.84 714.39,-55.62 716.57,-62.27"/>
</a>
</g>
</g>
<!-- Node9 -->
<g id="Node000009" class="node">
<title>Node9</title>
<g id="a_Node000009"><a xlink:href="check__sintax__utils_8c.html#ad8979b4383535e8fa301630e112254bf" target="_top" xlink:title="Checks the syntax related to a command.">
<polygon fill="white" stroke="#666666" points="689,-56 590,-56 590,-37 689,-37 689,-56"/>
<text text-anchor="middle" x="639.5" y="-44" font-family="Helvetica,sans-Serif" font-size="10.00">check_command</text>
</a>
</g>
</g>
<!-- Node1&#45;&gt;Node9 -->
<g id="edge9_Node000001_Node000009" class="edge">
<title>Node1&#45;&gt;Node9</title>
<g id="a_edge9_Node000001_Node000009"><a xlink:title=" ">
<path fill="none" stroke="#63b8ff" d="M714.89,-46.5C706.64,-46.5 697.81,-46.5 689.23,-46.5"/>
<polygon fill="#63b8ff" stroke="#63b8ff" points="714.99,-50 724.99,-46.5 714.99,-43 714.99,-50"/>
</a>
</g>
</g>
<!-- Node11 -->
<g id="Node000011" class="node">
<title>Node11</title>
<g id="a_Node000011"><a xlink:href="check__sintax_8c.html#a8ed15b7dba2bb1e02a43dae2f00459af" target="_top" xlink:title="Checks the syntax of the entire token list.">
<polygon fill="white" stroke="#666666" points="397,-19 317,-19 317,0 397,0 397,-19"/>
<text text-anchor="middle" x="357" y="-7" font-family="Helvetica,sans-Serif" font-size="10.00">check_sintax</text>
</a>
</g>
</g>
<!-- Node1&#45;&gt;Node11 -->
<g id="edge14_Node000001_Node000011" class="edge">
<title>Node1&#45;&gt;Node11</title>
<g id="a_edge14_Node000001_Node000011"><a xlink:title=" ">
<path fill="none" stroke="#63b8ff" d="M715.18,-34.35C706.64,-32.05 697.57,-29.93 689,-28.5 584.52,-11.13 459.24,-8.91 397.03,-9.04"/>
<polygon fill="#63b8ff" stroke="#63b8ff" points="714.33,-37.75 724.9,-37.1 716.23,-31.01 714.33,-37.75"/>
</a>
</g>
</g>
<!-- Node3 -->
<g id="Node000003" class="node">
<title>Node3</title>
<g id="a_Node000003"><a xlink:href="assign__token__type_8c.html#a51e5006d1819ae97939773490b75ffaa" target="_top" xlink:title="Assigns correct types to the tokens in the list (COMMAND, ARGUMENT, FILE_, DELIMITER,...">
<polygon fill="white" stroke="#666666" points="554,-93 441,-93 441,-74 554,-74 554,-93"/>
<text text-anchor="middle" x="497.5" y="-81" font-family="Helvetica,sans-Serif" font-size="10.00">assign_token_types</text>
</a>
</g>
</g>
<!-- Node2&#45;&gt;Node3 -->
<g id="edge2_Node000002_Node000003" class="edge">
<title>Node2&#45;&gt;Node3</title>
<g id="a_edge2_Node000002_Node000003"><a xlink:title=" ">
<path fill="none" stroke="#63b8ff" d="M591.16,-83.5C579.23,-83.5 566.32,-83.5 554.03,-83.5"/>
<polygon fill="#63b8ff" stroke="#63b8ff" points="591.35,-87 601.35,-83.5 591.35,-80 591.35,-87"/>
</a>
</g>
</g>
<!-- Node4 -->
<g id="Node000004" class="node">
<title>Node4</title>
<g id="a_Node000004"><a xlink:href="assign__token__type_8c.html#a3a4c4ac34c8fb944f7cdc8889dd7d356" target="_top" xlink:title="Handles the type assignment for PIPE tokens.">
<polygon fill="white" stroke="#666666" points="394,-93 320,-93 320,-74 394,-74 394,-93"/>
<text text-anchor="middle" x="357" y="-81" font-family="Helvetica,sans-Serif" font-size="10.00">assign_pipe</text>
</a>
</g>
</g>
<!-- Node3&#45;&gt;Node4 -->
<g id="edge3_Node000003_Node000004" class="edge">
<title>Node3&#45;&gt;Node4</title>
<g id="a_edge3_Node000003_Node000004"><a xlink:title=" ">
<path fill="none" stroke="#63b8ff" d="M430.86,-76.76C418.18,-76.7 405.34,-76.95 394.05,-77.49"/>
<polygon fill="#63b8ff" stroke="#63b8ff" points="430.93,-80.26 440.96,-76.87 431,-73.26 430.93,-80.26"/>
</a>
</g>
</g>
<!-- Node5 -->
<g id="Node000005" class="node">
<title>Node5</title>
<g id="a_Node000005"><a xlink:href="tokenize__input_8c.html#a040acaabf04da0b8d7ce5da9c1d210d8" target="_top" xlink:title="Assigns types to tokens and applies command&#45;specific rules.">
<polygon fill="white" stroke="#666666" points="405,-56 309,-56 309,-37 405,-37 405,-56"/>
<text text-anchor="middle" x="357" y="-44" font-family="Helvetica,sans-Serif" font-size="10.00">ft_define_tokens</text>
</a>
</g>
</g>
<!-- Node3&#45;&gt;Node5 -->
<g id="edge5_Node000003_Node000005" class="edge">
<title>Node3&#45;&gt;Node5</title>
<g id="a_edge5_Node000003_Node000005"><a xlink:title=" ">
<path fill="none" stroke="#63b8ff" d="M451.13,-71.38C432.6,-66.43 411.47,-60.78 394.03,-56.12"/>
<polygon fill="#63b8ff" stroke="#63b8ff" points="450.27,-74.77 460.83,-73.97 452.07,-68.01 450.27,-74.77"/>
</a>
</g>
</g>
<!-- Node4&#45;&gt;Node3 -->
<g id="edge4_Node000004_Node000003" class="edge">
<title>Node4&#45;&gt;Node3</title>
<g id="a_edge4_Node000004_Node000003"><a xlink:title=" ">
<path fill="none" stroke="#63b8ff" d="M404.12,-89.9C415.92,-90.27 428.74,-90.35 440.96,-90.13"/>
<polygon fill="#63b8ff" stroke="#63b8ff" points="404.18,-86.4 394.05,-89.51 403.9,-93.4 404.18,-86.4"/>
</a>
</g>
</g>
<!-- Node6 -->
<g id="Node000006" class="node">
<title>Node6</title>
<g id="a_Node000006"><a xlink:href="tokenize__input_8c.html#a4e40c3f57ab2488a2b49f37846785b2e" target="_top" xlink:title="Tokenizes the entire user input string.">
<polygon fill="white" stroke="#666666" points="261.5,-56 203.5,-56 203.5,-37 261.5,-37 261.5,-56"/>
<text text-anchor="middle" x="232.5" y="-44" font-family="Helvetica,sans-Serif" font-size="10.00">tokenize</text>
</a>
</g>
</g>
<!-- Node5&#45;&gt;Node6 -->
<g id="edge6_Node000005_Node000006" class="edge">
<title>Node5&#45;&gt;Node6</title>
<g id="a_edge6_Node000005_Node000006"><a xlink:title=" ">
<path fill="none" stroke="#63b8ff" d="M298.77,-46.5C285.92,-46.5 272.83,-46.5 261.78,-46.5"/>
<polygon fill="#63b8ff" stroke="#63b8ff" points="298.99,-50 308.99,-46.5 298.99,-43 298.99,-50"/>
</a>
</g>
</g>
<!-- Node7 -->
<g id="Node000007" class="node">
<title>Node7</title>
<g id="a_Node000007"><a xlink:href="main__utils_8c.html#ae35edfb8f1339d6f77f53c28eb2a2ed6" target="_top" xlink:title="Handles a complete cycle of input → parsing → execution.">
<polygon fill="white" stroke="#666666" points="156,-37 77,-37 77,-18 156,-18 156,-37"/>
<text text-anchor="middle" x="116.5" y="-25" font-family="Helvetica,sans-Serif" font-size="10.00">ft_main_flow</text>
</a>
</g>
</g>
<!-- Node6&#45;&gt;Node7 -->
<g id="edge7_Node000006_Node000007" class="edge">
<title>Node6&#45;&gt;Node7</title>
<g id="a_edge7_Node000006_Node000007"><a xlink:title=" ">
<path fill="none" stroke="#63b8ff" d="M193.2,-40.12C181.25,-38.13 168.07,-35.93 156.11,-33.93"/>
<polygon fill="#63b8ff" stroke="#63b8ff" points="192.88,-43.61 203.32,-41.8 194.03,-36.71 192.88,-43.61"/>
</a>
</g>
</g>
<!-- Node8 -->
<g id="Node000008" class="node">
<title>Node8</title>
<g id="a_Node000008"><a xlink:href="main_8c.html#ab3862b46d6a8d13c2d884a297e6b05b5" target="_top" xlink:title="Main function of the minishell.">
<polygon fill="white" stroke="#666666" points="41,-37 0,-37 0,-18 41,-18 41,-37"/>
<text text-anchor="middle" x="20.5" y="-25" font-family="Helvetica,sans-Serif" font-size="10.00">main</text>
</a>
</g>
</g>
<!-- Node7&#45;&gt;Node8 -->
<g id="edge8_Node000007_Node000008" class="edge">
<title>Node7&#45;&gt;Node8</title>
<g id="a_edge8_Node000007_Node000008"><a xlink:title=" ">
<path fill="none" stroke="#63b8ff" d="M66.74,-27.5C57.62,-27.5 48.59,-27.5 41.03,-27.5"/>
<polygon fill="#63b8ff" stroke="#63b8ff" points="67,-31 77,-27.5 67,-24 67,-31"/>
</a>
</g>
</g>
<!-- Node10 -->
<g id="Node000010" class="node">
<title>Node10</title>
<g id="a_Node000010"><a xlink:href="check__sintax_8c.html#a3dadca8fc2261c0e335299829d01f84b" target="_top" xlink:title="Checks for syntax errors on a single token.">
<polygon fill="white" stroke="#666666" points="543.5,-56 451.5,-56 451.5,-37 543.5,-37 543.5,-56"/>
<text text-anchor="middle" x="497.5" y="-44" font-family="Helvetica,sans-Serif" font-size="10.00">ft_sintax_errors</text>
</a>
</g>
</g>
<!-- Node9&#45;&gt;Node10 -->
<g id="edge10_Node000009_Node000010" class="edge">
<title>Node9&#45;&gt;Node10</title>
<g id="a_edge10_Node000009_Node000010"><a xlink:title=" ">
<path fill="none" stroke="#63b8ff" d="M579.9,-46.5C567.8,-46.5 555.23,-46.5 543.7,-46.5"/>
<polygon fill="#63b8ff" stroke="#63b8ff" points="579.93,-50 589.93,-46.5 579.93,-43 579.93,-50"/>
</a>
</g>
</g>
<!-- Node10&#45;&gt;Node11 -->
<g id="edge11_Node000010_Node000011" class="edge">
<title>Node10&#45;&gt;Node11</title>
<g id="a_edge11_Node000010_Node000011"><a xlink:title=" ">
<path fill="none" stroke="#63b8ff" d="M451.13,-34.38C432.6,-29.43 411.47,-23.78 394.03,-19.12"/>
<polygon fill="#63b8ff" stroke="#63b8ff" points="450.27,-37.77 460.83,-36.97 452.07,-31.01 450.27,-37.77"/>
</a>
</g>
</g>
<!-- Node12 -->
<g id="Node000012" class="node">
<title>Node12</title>
<g id="a_Node000012"><a xlink:href="main__utils_8c.html#a7e8f478480ab6ab34d6f5eadaf6acdb9" target="_top" xlink:title="Handles parsing and execution of tokens.">
<polygon fill="white" stroke="#666666" points="273,-19 192,-19 192,0 273,0 273,-19"/>
<text text-anchor="middle" x="232.5" y="-7" font-family="Helvetica,sans-Serif" font-size="10.00">ft_token_flow</text>
</a>
</g>
</g>
<!-- Node11&#45;&gt;Node12 -->
<g id="edge12_Node000011_Node000012" class="edge">
<title>Node11&#45;&gt;Node12</title>
<g id="a_edge12_Node000011_Node000012"><a xlink:title=" ">
<path fill="none" stroke="#63b8ff" d="M306.81,-9.5C295.59,-9.5 283.82,-9.5 273.07,-9.5"/>
<polygon fill="#63b8ff" stroke="#63b8ff" points="306.9,-13 316.9,-9.5 306.9,-6 306.9,-13"/>
</a>
</g>
</g>
<!-- Node12&#45;&gt;Node7 -->
<g id="edge13_Node000012_Node000007" class="edge">
<title>Node12&#45;&gt;Node7</title>
<g id="a_edge13_Node000012_Node000007"><a xlink:title=" ">
<path fill="none" stroke="#63b8ff" d="M181.98,-17.32C173.35,-18.68 164.49,-20.08 156.21,-21.39"/>
<polygon fill="#63b8ff" stroke="#63b8ff" points="182.62,-20.76 191.95,-15.75 181.52,-13.85 182.62,-20.76"/>
</a>
</g>
</g>
</g>
</svg>
