<?xml version="1.0" encoding="UTF-8" standalone="no"?>
<!DOCTYPE svg PUBLIC "-//W3C//DTD SVG 1.1//EN"
 "http://www.w3.org/Graphics/SVG/1.1/DTD/svg11.dtd">
<!-- Generated by graphviz version 2.43.0 (0)
 -->
<!-- Title: ft_found_heredoc Pages: 1 -->
<svg width="1335pt" height="103pt"
 viewBox="0.00 0.00 1335.00 103.00" xmlns="http://www.w3.org/2000/svg" xmlns:xlink="http://www.w3.org/1999/xlink">
<g id="graph0" class="graph" transform="scale(1 1) rotate(0) translate(4 99)">
<title>ft_found_heredoc</title>
<!-- Node1 -->
<g id="Node000001" class="node">
<title>Node1</title>
<g id="a_Node000001"><a xlink:title="Checks if there is at least one HEREDOC token in the token list.">
<polygon fill="#999999" stroke="#666666" points="1327,-57 1226,-57 1226,-38 1327,-38 1327,-57"/>
<text text-anchor="middle" x="1276.5" y="-45" font-family="Helvetica,sans-Serif" font-size="10.00">ft_found_heredoc</text>
</a>
</g>
</g>
<!-- Node2 -->
<g id="Node000002" class="node">
<title>Node2</title>
<g id="a_Node000002"><a xlink:href="redir__utils_8c.html#acd7b4a57306a2984ae26bceaa9d97888" target="_top" xlink:title="Checks for following heredocs in tokens and removes the temporary file.">
<polygon fill="white" stroke="#666666" points="1062.5,-95 971.5,-95 971.5,-76 1062.5,-76 1062.5,-95"/>
<text text-anchor="middle" x="1017" y="-83" font-family="Helvetica,sans-Serif" font-size="10.00">ft_end_heredoc</text>
</a>
</g>
</g>
<!-- Node1&#45;&gt;Node2 -->
<g id="edge1_Node000001_Node000002" class="edge">
<title>Node1&#45;&gt;Node2</title>
<g id="a_edge1_Node000001_Node000002"><a xlink:title=" ">
<path fill="none" stroke="#63b8ff" d="M1215.76,-57.47C1207.12,-58.85 1198.34,-60.24 1190,-61.5 1146.78,-68.05 1097.34,-74.88 1062.59,-79.57"/>
<polygon fill="#63b8ff" stroke="#63b8ff" points="1216.49,-60.89 1225.8,-55.84 1215.37,-53.98 1216.49,-60.89"/>
</a>
</g>
</g>
<!-- Node3 -->
<g id="Node000003" class="node">
<title>Node3</title>
<g id="a_Node000003"><a xlink:href="handle__redirections_8c.html#a2834314002a1f4ef4af82f95159b0a34" target="_top" xlink:title="Handles input redirection from file or heredoc.">
<polygon fill="white" stroke="#666666" points="934,-57 815,-57 815,-38 934,-38 934,-57"/>
<text text-anchor="middle" x="874.5" y="-45" font-family="Helvetica,sans-Serif" font-size="10.00">ft_handle_infile_redir</text>
</a>
</g>
</g>
<!-- Node1&#45;&gt;Node3 -->
<g id="edge13_Node000001_Node000003" class="edge">
<title>Node1&#45;&gt;Node3</title>
<g id="a_edge13_Node000001_Node000003"><a xlink:title=" ">
<path fill="none" stroke="#63b8ff" d="M1215.29,-47.5C1139.27,-47.5 1009.36,-47.5 934.11,-47.5"/>
<polygon fill="#63b8ff" stroke="#63b8ff" points="1215.65,-51 1225.65,-47.5 1215.65,-44 1215.65,-51"/>
</a>
</g>
</g>
<!-- Node11 -->
<g id="Node000011" class="node">
<title>Node11</title>
<g id="a_Node000011"><a xlink:href="handle__heredoc_8c.html#ac5ba13b1edbd22e4a7e0a50fc91f80db" target="_top" xlink:title="Executes a single read&#45;write cycle of the here&#45;document.">
<polygon fill="white" stroke="#666666" points="1190,-19 1100,-19 1100,0 1190,0 1190,-19"/>
<text text-anchor="middle" x="1145" y="-7" font-family="Helvetica,sans-Serif" font-size="10.00">ft_exe_heredoc</text>
</a>
</g>
</g>
<!-- Node1&#45;&gt;Node11 -->
<g id="edge10_Node000001_Node000011" class="edge">
<title>Node1&#45;&gt;Node11</title>
<g id="a_edge10_Node000001_Node000011"><a xlink:title=" ">
<path fill="none" stroke="#63b8ff" d="M1232.78,-34.96C1215.16,-29.8 1195.08,-23.9 1178.67,-19.09"/>
<polygon fill="#63b8ff" stroke="#63b8ff" points="1232.24,-38.45 1242.82,-37.91 1234.21,-31.74 1232.24,-38.45"/>
</a>
</g>
</g>
<!-- Node2&#45;&gt;Node3 -->
<g id="edge2_Node000002_Node000003" class="edge">
<title>Node2&#45;&gt;Node3</title>
<g id="a_edge2_Node000002_Node000003"><a xlink:title=" ">
<path fill="none" stroke="#63b8ff" d="M970.72,-73.25C951.36,-68.02 929.08,-61.99 910.94,-57.09"/>
<polygon fill="#63b8ff" stroke="#63b8ff" points="969.98,-76.68 980.55,-75.91 971.81,-69.92 969.98,-76.68"/>
</a>
</g>
</g>
<!-- Node4 -->
<g id="Node000004" class="node">
<title>Node4</title>
<g id="a_Node000004"><a xlink:href="handle__redirections_8c.html#aa4509a43f47ed881eb2d81fb81458466" target="_top" xlink:title="Handles redirections without an associated command.">
<polygon fill="white" stroke="#666666" points="779,-62.5 666,-62.5 666,-32.5 779,-32.5 779,-62.5"/>
<text text-anchor="start" x="674" y="-50.5" font-family="Helvetica,sans-Serif" font-size="10.00">handle_redirection</text>
<text text-anchor="middle" x="722.5" y="-39.5" font-family="Helvetica,sans-Serif" font-size="10.00">_without_command</text>
</a>
</g>
</g>
<!-- Node3&#45;&gt;Node4 -->
<g id="edge3_Node000003_Node000004" class="edge">
<title>Node3&#45;&gt;Node4</title>
<g id="a_edge3_Node000003_Node000004"><a xlink:title=" ">
<path fill="none" stroke="#63b8ff" d="M804.43,-47.5C795.99,-47.5 787.45,-47.5 779.24,-47.5"/>
<polygon fill="#63b8ff" stroke="#63b8ff" points="804.65,-51 814.65,-47.5 804.65,-44 804.65,-51"/>
</a>
</g>
</g>
<!-- Node5 -->
<g id="Node000005" class="node">
<title>Node5</title>
<g id="a_Node000005"><a xlink:href="handle__redirections_8c.html#ab2c37fefb1291d3f8d0dc91e8c096334" target="_top" xlink:title="Handles redirection associated with a command.">
<polygon fill="white" stroke="#666666" points="630,-57 523,-57 523,-38 630,-38 630,-57"/>
<text text-anchor="middle" x="576.5" y="-45" font-family="Helvetica,sans-Serif" font-size="10.00">handle_redirection</text>
</a>
</g>
</g>
<!-- Node4&#45;&gt;Node5 -->
<g id="edge4_Node000004_Node000005" class="edge">
<title>Node4&#45;&gt;Node5</title>
<g id="a_edge4_Node000004_Node000005"><a xlink:title=" ">
<path fill="none" stroke="#63b8ff" d="M655.55,-47.5C647.05,-47.5 638.44,-47.5 630.19,-47.5"/>
<polygon fill="#63b8ff" stroke="#63b8ff" points="655.83,-51 665.83,-47.5 655.83,-44 655.83,-51"/>
</a>
</g>
</g>
<!-- Node6 -->
<g id="Node000006" class="node">
<title>Node6</title>
<g id="a_Node000006"><a xlink:href="create__command__list_8c.html#ae2006bf82a70d4753ffdca65847316ca" target="_top" xlink:title="Executes a redirection for the current command.">
<polygon fill="white" stroke="#666666" points="487,-57 413,-57 413,-38 487,-38 487,-57"/>
<text text-anchor="middle" x="450" y="-45" font-family="Helvetica,sans-Serif" font-size="10.00">ft_exe_redir</text>
</a>
</g>
</g>
<!-- Node5&#45;&gt;Node6 -->
<g id="edge5_Node000005_Node000006" class="edge">
<title>Node5&#45;&gt;Node6</title>
<g id="a_edge5_Node000005_Node000006"><a xlink:title=" ">
<path fill="none" stroke="#63b8ff" d="M512.56,-47.5C503.9,-47.5 495.25,-47.5 487.3,-47.5"/>
<polygon fill="#63b8ff" stroke="#63b8ff" points="512.7,-51 522.7,-47.5 512.7,-44 512.7,-51"/>
</a>
</g>
</g>
<!-- Node7 -->
<g id="Node000007" class="node">
<title>Node7</title>
<g id="a_Node000007"><a xlink:href="create__command__list_8c.html#ad16d74756b107a98677124008c71d23b" target="_top" xlink:title="Creates a command list from tokens.">
<polygon fill="white" stroke="#666666" points="377,-57 309,-57 309,-38 377,-38 377,-57"/>
<text text-anchor="middle" x="343" y="-45" font-family="Helvetica,sans-Serif" font-size="10.00">create_list</text>
</a>
</g>
</g>
<!-- Node6&#45;&gt;Node7 -->
<g id="edge6_Node000006_Node000007" class="edge">
<title>Node6&#45;&gt;Node7</title>
<g id="a_edge6_Node000006_Node000007"><a xlink:title=" ">
<path fill="none" stroke="#63b8ff" d="M402.83,-47.5C394.14,-47.5 385.22,-47.5 377.03,-47.5"/>
<polygon fill="#63b8ff" stroke="#63b8ff" points="402.86,-51 412.86,-47.5 402.86,-44 402.86,-51"/>
</a>
</g>
</g>
<!-- Node8 -->
<g id="Node000008" class="node">
<title>Node8</title>
<g id="a_Node000008"><a xlink:href="main__utils_8c.html#a7e8f478480ab6ab34d6f5eadaf6acdb9" target="_top" xlink:title="Handles parsing and execution of tokens.">
<polygon fill="white" stroke="#666666" points="273,-57 192,-57 192,-38 273,-38 273,-57"/>
<text text-anchor="middle" x="232.5" y="-45" font-family="Helvetica,sans-Serif" font-size="10.00">ft_token_flow</text>
</a>
</g>
</g>
<!-- Node7&#45;&gt;Node8 -->
<g id="edge7_Node000007_Node000008" class="edge">
<title>Node7&#45;&gt;Node8</title>
<g id="a_edge7_Node000007_Node000008"><a xlink:title=" ">
<path fill="none" stroke="#63b8ff" d="M298.83,-47.5C290.41,-47.5 281.62,-47.5 273.31,-47.5"/>
<polygon fill="#63b8ff" stroke="#63b8ff" points="298.86,-51 308.86,-47.5 298.86,-44 298.86,-51"/>
</a>
</g>
</g>
<!-- Node9 -->
<g id="Node000009" class="node">
<title>Node9</title>
<g id="a_Node000009"><a xlink:href="main__utils_8c.html#ae35edfb8f1339d6f77f53c28eb2a2ed6" target="_top" xlink:title="Handles a complete cycle of input → parsing → execution.">
<polygon fill="white" stroke="#666666" points="156,-57 77,-57 77,-38 156,-38 156,-57"/>
<text text-anchor="middle" x="116.5" y="-45" font-family="Helvetica,sans-Serif" font-size="10.00">ft_main_flow</text>
</a>
</g>
</g>
<!-- Node8&#45;&gt;Node9 -->
<g id="edge8_Node000008_Node000009" class="edge">
<title>Node8&#45;&gt;Node9</title>
<g id="a_edge8_Node000008_Node000009"><a xlink:title=" ">
<path fill="none" stroke="#63b8ff" d="M181.7,-47.5C173.16,-47.5 164.4,-47.5 156.21,-47.5"/>
<polygon fill="#63b8ff" stroke="#63b8ff" points="181.95,-51 191.95,-47.5 181.95,-44 181.95,-51"/>
</a>
</g>
</g>
<!-- Node10 -->
<g id="Node000010" class="node">
<title>Node10</title>
<g id="a_Node000010"><a xlink:href="main_8c.html#ab3862b46d6a8d13c2d884a297e6b05b5" target="_top" xlink:title="Main function of the minishell.">
<polygon fill="white" stroke="#666666" points="41,-57 0,-57 0,-38 41,-38 41,-57"/>
<text text-anchor="middle" x="20.5" y="-45" font-family="Helvetica,sans-Serif" font-size="10.00">main</text>
</a>
</g>
</g>
<!-- Node9&#45;&gt;Node10 -->
<g id="edge9_Node000009_Node000010" class="edge">
<title>Node9&#45;&gt;Node10</title>
<g id="a_edge9_Node000009_Node000010"><a xlink:title=" ">
<path fill="none" stroke="#63b8ff" d="M66.74,-47.5C57.62,-47.5 48.59,-47.5 41.03,-47.5"/>
<polygon fill="#63b8ff" stroke="#63b8ff" points="67,-51 77,-47.5 67,-44 67,-51"/>
</a>
</g>
</g>
<!-- Node12 -->
<g id="Node000012" class="node">
<title>Node12</title>
<g id="a_Node000012"><a xlink:href="handle__heredoc_8c.html#a922eae1c49290306f7cf811bf65d9ed1" target="_top" xlink:title="Handles the entire input process for a here&#45;document.">
<polygon fill="white" stroke="#666666" points="1064,-19 970,-19 970,0 1064,0 1064,-19"/>
<text text-anchor="middle" x="1017" y="-7" font-family="Helvetica,sans-Serif" font-size="10.00">handle_heredoc</text>
</a>
</g>
</g>
<!-- Node11&#45;&gt;Node12 -->
<g id="edge11_Node000011_Node000012" class="edge">
<title>Node11&#45;&gt;Node12</title>
<g id="a_edge11_Node000011_Node000012"><a xlink:title=" ">
<path fill="none" stroke="#63b8ff" d="M1089.77,-9.5C1081.32,-9.5 1072.65,-9.5 1064.4,-9.5"/>
<polygon fill="#63b8ff" stroke="#63b8ff" points="1089.93,-13 1099.93,-9.5 1089.93,-6 1089.93,-13"/>
</a>
</g>
</g>
<!-- Node12&#45;&gt;Node3 -->
<g id="edge12_Node000012_Node000003" class="edge">
<title>Node12&#45;&gt;Node3</title>
<g id="a_edge12_Node000012_Node000003"><a xlink:title=" ">
<path fill="none" stroke="#63b8ff" d="M970.72,-21.75C951.36,-26.98 929.08,-33.01 910.94,-37.91"/>
<polygon fill="#63b8ff" stroke="#63b8ff" points="971.81,-25.08 980.55,-19.09 969.98,-18.32 971.81,-25.08"/>
</a>
</g>
</g>
</g>
</svg>
