<?xml version="1.0" encoding="UTF-8" standalone="no"?>
<!DOCTYPE svg PUBLIC "-//W3C//DTD SVG 1.1//EN"
 "http://www.w3.org/Graphics/SVG/1.1/DTD/svg11.dtd">
<!-- Generated by graphviz version 2.43.0 (0)
 -->
<!-- Title: error_ex Pages: 1 -->
<svg width="743pt" height="177pt"
 viewBox="0.00 0.00 743.00 177.00" xmlns="http://www.w3.org/2000/svg" xmlns:xlink="http://www.w3.org/1999/xlink">
<g id="graph0" class="graph" transform="scale(1 1) rotate(0) translate(4 173)">
<title>error_ex</title>
<!-- Node1 -->
<g id="Node000001" class="node">
<title>Node1</title>
<g id="a_Node000001"><a xlink:title="Prints an error message to standard error.">
<polygon fill="#999999" stroke="#666666" points="735,-95 678,-95 678,-76 735,-76 735,-95"/>
<text text-anchor="middle" x="706.5" y="-83" font-family="Helvetica,sans-Serif" font-size="10.00">error_ex</text>
</a>
</g>
</g>
<!-- Node2 -->
<g id="Node000002" class="node">
<title>Node2</title>
<g id="a_Node000002"><a xlink:href="check__sintax__utils_8c.html#ad4c2c747cfe6cf3d23dff0a99937f136" target="_top" xlink:title="Checks the syntactic correctness of a here&#45;document.">
<polygon fill="white" stroke="#666666" points="642,-169 553,-169 553,-150 642,-150 642,-169"/>
<text text-anchor="middle" x="597.5" y="-157" font-family="Helvetica,sans-Serif" font-size="10.00">check_heredoc</text>
</a>
</g>
</g>
<!-- Node1&#45;&gt;Node2 -->
<g id="edge1_Node000001_Node000002" class="edge">
<title>Node1&#45;&gt;Node2</title>
<g id="a_edge1_Node000001_Node000002"><a xlink:title=" ">
<path fill="none" stroke="#63b8ff" d="M689.24,-102.59C677.09,-114.64 659.6,-130.53 642,-141.5 636.87,-144.7 631.07,-147.55 625.42,-149.99"/>
<polygon fill="#63b8ff" stroke="#63b8ff" points="691.88,-104.89 696.41,-95.31 686.9,-99.98 691.88,-104.89"/>
</a>
</g>
</g>
<!-- Node4 -->
<g id="Node000004" class="node">
<title>Node4</title>
<g id="a_Node000004"><a xlink:href="check__sintax_8c.html#a8ed15b7dba2bb1e02a43dae2f00459af" target="_top" xlink:title="Checks the syntax of the entire token list.">
<polygon fill="white" stroke="#666666" points="389,-57 309,-57 309,-38 389,-38 389,-57"/>
<text text-anchor="middle" x="349" y="-45" font-family="Helvetica,sans-Serif" font-size="10.00">check_sintax</text>
</a>
</g>
</g>
<!-- Node1&#45;&gt;Node4 -->
<g id="edge11_Node000001_Node000004" class="edge">
<title>Node1&#45;&gt;Node4</title>
<g id="a_edge11_Node000001_Node000004"><a xlink:title=" ">
<path fill="none" stroke="#63b8ff" d="M669.06,-73.07C660.29,-70.5 650.89,-68.1 642,-66.5 552.5,-50.41 445.4,-47.53 389.07,-47.26"/>
<polygon fill="#63b8ff" stroke="#63b8ff" points="668.05,-76.42 678.63,-76 670.1,-69.72 668.05,-76.42"/>
</a>
</g>
</g>
<!-- Node8 -->
<g id="Node000008" class="node">
<title>Node8</title>
<g id="a_Node000008"><a xlink:href="check__sintax__utils_8c.html#a2ce60b5e74342ed1a7442aed0a3a72ab" target="_top" xlink:title="Checks the syntactic correctness of a pipe.">
<polygon fill="white" stroke="#666666" points="633,-132 562,-132 562,-113 633,-113 633,-132"/>
<text text-anchor="middle" x="597.5" y="-120" font-family="Helvetica,sans-Serif" font-size="10.00">check_pipe</text>
</a>
</g>
</g>
<!-- Node1&#45;&gt;Node8 -->
<g id="edge7_Node000001_Node000008" class="edge">
<title>Node1&#45;&gt;Node8</title>
<g id="a_edge7_Node000001_Node000008"><a xlink:title=" ">
<path fill="none" stroke="#63b8ff" d="M668.26,-98.38C654.49,-103.14 639.13,-108.45 626.33,-112.88"/>
<polygon fill="#63b8ff" stroke="#63b8ff" points="669.64,-101.6 677.94,-95.03 667.35,-94.99 669.64,-101.6"/>
</a>
</g>
</g>
<!-- Node9 -->
<g id="Node000009" class="node">
<title>Node9</title>
<g id="a_Node000009"><a xlink:href="check__sintax__utils_8c.html#a614b2be0786f20e6e20f0d0238446eeb" target="_top" xlink:title="Checks the syntactic correctness of a redirection.">
<polygon fill="white" stroke="#666666" points="634,-95 561,-95 561,-76 634,-76 634,-95"/>
<text text-anchor="middle" x="597.5" y="-83" font-family="Helvetica,sans-Serif" font-size="10.00">check_redir</text>
</a>
</g>
</g>
<!-- Node1&#45;&gt;Node9 -->
<g id="edge9_Node000001_Node000009" class="edge">
<title>Node1&#45;&gt;Node9</title>
<g id="a_edge9_Node000001_Node000009"><a xlink:title=" ">
<path fill="none" stroke="#63b8ff" d="M667.79,-85.5C656.82,-85.5 644.88,-85.5 634.05,-85.5"/>
<polygon fill="#63b8ff" stroke="#63b8ff" points="667.94,-89 677.94,-85.5 667.94,-82 667.94,-89"/>
</a>
</g>
</g>
<!-- Node10 -->
<g id="Node000010" class="node">
<title>Node10</title>
<g id="a_Node000010"><a xlink:href="handle__tokens_8c.html#aa2c36964d13c3cd524d41408f386eed9" target="_top" xlink:title="Handles tokens enclosed in quotes and adds them to the list.">
<polygon fill="white" stroke="#666666" points="641.5,-19 553.5,-19 553.5,0 641.5,0 641.5,-19"/>
<text text-anchor="middle" x="597.5" y="-7" font-family="Helvetica,sans-Serif" font-size="10.00">handle_quotes</text>
</a>
</g>
</g>
<!-- Node1&#45;&gt;Node10 -->
<g id="edge12_Node000001_Node000010" class="edge">
<title>Node1&#45;&gt;Node10</title>
<g id="a_edge12_Node000001_Node000010"><a xlink:title=" ">
<path fill="none" stroke="#63b8ff" d="M686.99,-68.83C674.69,-58.13 657.91,-44.27 642,-33.5 634.29,-28.28 625.34,-23.19 617.57,-19.05"/>
<polygon fill="#63b8ff" stroke="#63b8ff" points="684.92,-71.67 694.74,-75.66 689.55,-66.42 684.92,-71.67"/>
</a>
</g>
</g>
<!-- Node3 -->
<g id="Node000003" class="node">
<title>Node3</title>
<g id="a_Node000003"><a xlink:href="check__sintax_8c.html#a3dadca8fc2261c0e335299829d01f84b" target="_top" xlink:title="Checks for syntax errors on a single token.">
<polygon fill="white" stroke="#666666" points="517,-113 425,-113 425,-94 517,-94 517,-113"/>
<text text-anchor="middle" x="471" y="-101" font-family="Helvetica,sans-Serif" font-size="10.00">ft_sintax_errors</text>
</a>
</g>
</g>
<!-- Node2&#45;&gt;Node3 -->
<g id="edge2_Node000002_Node000003" class="edge">
<title>Node2&#45;&gt;Node3</title>
<g id="a_edge2_Node000002_Node000003"><a xlink:title=" ">
<path fill="none" stroke="#63b8ff" d="M563.58,-146.07C560,-144.55 556.42,-143.01 553,-141.5 531.97,-132.22 508.18,-120.97 491.85,-113.13"/>
<polygon fill="#63b8ff" stroke="#63b8ff" points="562.36,-149.35 572.94,-149.98 565.06,-142.89 562.36,-149.35"/>
</a>
</g>
</g>
<!-- Node3&#45;&gt;Node4 -->
<g id="edge3_Node000003_Node000004" class="edge">
<title>Node3&#45;&gt;Node4</title>
<g id="a_edge3_Node000003_Node000004"><a xlink:title=" ">
<path fill="none" stroke="#63b8ff" d="M440.24,-89.61C418.48,-79.46 389.53,-65.95 370.36,-57"/>
<polygon fill="#63b8ff" stroke="#63b8ff" points="438.83,-92.82 449.37,-93.87 441.79,-86.47 438.83,-92.82"/>
</a>
</g>
</g>
<!-- Node5 -->
<g id="Node000005" class="node">
<title>Node5</title>
<g id="a_Node000005"><a xlink:href="main__utils_8c.html#a7e8f478480ab6ab34d6f5eadaf6acdb9" target="_top" xlink:title="Handles parsing and execution of tokens.">
<polygon fill="white" stroke="#666666" points="273,-56 192,-56 192,-37 273,-37 273,-56"/>
<text text-anchor="middle" x="232.5" y="-44" font-family="Helvetica,sans-Serif" font-size="10.00">ft_token_flow</text>
</a>
</g>
</g>
<!-- Node4&#45;&gt;Node5 -->
<g id="edge4_Node000004_Node000005" class="edge">
<title>Node4&#45;&gt;Node5</title>
<g id="a_edge4_Node000004_Node000005"><a xlink:title=" ">
<path fill="none" stroke="#63b8ff" d="M298.69,-47.07C290.17,-46.99 281.41,-46.92 273.19,-46.85"/>
<polygon fill="#63b8ff" stroke="#63b8ff" points="298.89,-50.57 308.92,-47.16 298.95,-43.57 298.89,-50.57"/>
</a>
</g>
</g>
<!-- Node6 -->
<g id="Node000006" class="node">
<title>Node6</title>
<g id="a_Node000006"><a xlink:href="main__utils_8c.html#ae35edfb8f1339d6f77f53c28eb2a2ed6" target="_top" xlink:title="Handles a complete cycle of input → parsing → execution.">
<polygon fill="white" stroke="#666666" points="156,-37 77,-37 77,-18 156,-18 156,-37"/>
<text text-anchor="middle" x="116.5" y="-25" font-family="Helvetica,sans-Serif" font-size="10.00">ft_main_flow</text>
</a>
</g>
</g>
<!-- Node5&#45;&gt;Node6 -->
<g id="edge5_Node000005_Node000006" class="edge">
<title>Node5&#45;&gt;Node6</title>
<g id="a_edge5_Node000005_Node000006"><a xlink:title=" ">
<path fill="none" stroke="#63b8ff" d="M181.98,-38.25C173.35,-36.81 164.49,-35.33 156.21,-33.95"/>
<polygon fill="#63b8ff" stroke="#63b8ff" points="181.51,-41.72 191.95,-39.91 182.66,-34.81 181.51,-41.72"/>
</a>
</g>
</g>
<!-- Node7 -->
<g id="Node000007" class="node">
<title>Node7</title>
<g id="a_Node000007"><a xlink:href="main_8c.html#ab3862b46d6a8d13c2d884a297e6b05b5" target="_top" xlink:title="Main function of the minishell.">
<polygon fill="white" stroke="#666666" points="41,-37 0,-37 0,-18 41,-18 41,-37"/>
<text text-anchor="middle" x="20.5" y="-25" font-family="Helvetica,sans-Serif" font-size="10.00">main</text>
</a>
</g>
</g>
<!-- Node6&#45;&gt;Node7 -->
<g id="edge6_Node000006_Node000007" class="edge">
<title>Node6&#45;&gt;Node7</title>
<g id="a_edge6_Node000006_Node000007"><a xlink:title=" ">
<path fill="none" stroke="#63b8ff" d="M66.74,-27.5C57.62,-27.5 48.59,-27.5 41.03,-27.5"/>
<polygon fill="#63b8ff" stroke="#63b8ff" points="67,-31 77,-27.5 67,-24 67,-31"/>
</a>
</g>
</g>
<!-- Node8&#45;&gt;Node3 -->
<g id="edge8_Node000008_Node000003" class="edge">
<title>Node8&#45;&gt;Node3</title>
<g id="a_edge8_Node000008_Node000003"><a xlink:title=" ">
<path fill="none" stroke="#63b8ff" d="M551.78,-115.68C540.54,-113.96 528.47,-112.12 517.21,-110.4"/>
<polygon fill="#63b8ff" stroke="#63b8ff" points="551.41,-119.16 561.82,-117.21 552.46,-112.24 551.41,-119.16"/>
</a>
</g>
</g>
<!-- Node9&#45;&gt;Node3 -->
<g id="edge10_Node000009_Node000003" class="edge">
<title>Node9&#45;&gt;Node3</title>
<g id="a_edge10_Node000009_Node000003"><a xlink:title=" ">
<path fill="none" stroke="#63b8ff" d="M550.92,-92.09C539.86,-93.69 528.04,-95.4 517.01,-96.99"/>
<polygon fill="#63b8ff" stroke="#63b8ff" points="551.43,-95.55 560.82,-90.66 550.43,-88.63 551.43,-95.55"/>
</a>
</g>
</g>
<!-- Node11 -->
<g id="Node000011" class="node">
<title>Node11</title>
<g id="a_Node000011"><a xlink:href="tokenize__input_8c.html#a4ec55df7b6b0c546095f50475f610fb1" target="_top" xlink:title="Extracts and builds a single token from the user input.">
<polygon fill="white" stroke="#666666" points="512,-19 430,-19 430,0 512,0 512,-19"/>
<text text-anchor="middle" x="471" y="-7" font-family="Helvetica,sans-Serif" font-size="10.00">ft_get_tokens</text>
</a>
</g>
</g>
<!-- Node10&#45;&gt;Node11 -->
<g id="edge13_Node000010_Node000011" class="edge">
<title>Node10&#45;&gt;Node11</title>
<g id="a_edge13_Node000010_Node000011"><a xlink:title=" ">
<path fill="none" stroke="#63b8ff" d="M543.1,-9.5C532.74,-9.5 522.04,-9.5 512.19,-9.5"/>
<polygon fill="#63b8ff" stroke="#63b8ff" points="543.31,-13 553.31,-9.5 543.31,-6 543.31,-13"/>
</a>
</g>
</g>
<!-- Node12 -->
<g id="Node000012" class="node">
<title>Node12</title>
<g id="a_Node000012"><a xlink:href="tokenize__input_8c.html#a4e40c3f57ab2488a2b49f37846785b2e" target="_top" xlink:title="Tokenizes the entire user input string.">
<polygon fill="white" stroke="#666666" points="261.5,-19 203.5,-19 203.5,0 261.5,0 261.5,-19"/>
<text text-anchor="middle" x="232.5" y="-7" font-family="Helvetica,sans-Serif" font-size="10.00">tokenize</text>
</a>
</g>
</g>
<!-- Node11&#45;&gt;Node12 -->
<g id="edge14_Node000011_Node000012" class="edge">
<title>Node11&#45;&gt;Node12</title>
<g id="a_edge14_Node000011_Node000012"><a xlink:title=" ">
<path fill="none" stroke="#63b8ff" d="M419.66,-9.5C371.45,-9.5 300.47,-9.5 261.56,-9.5"/>
<polygon fill="#63b8ff" stroke="#63b8ff" points="419.88,-13 429.88,-9.5 419.88,-6 419.88,-13"/>
</a>
</g>
</g>
<!-- Node12&#45;&gt;Node6 -->
<g id="edge15_Node000012_Node000006" class="edge">
<title>Node12&#45;&gt;Node6</title>
<g id="a_edge15_Node000012_Node000006"><a xlink:title=" ">
<path fill="none" stroke="#63b8ff" d="M193.2,-15.55C181.25,-17.43 168.07,-19.51 156.11,-21.4"/>
<polygon fill="#63b8ff" stroke="#63b8ff" points="193.99,-18.97 203.32,-13.95 192.9,-12.05 193.99,-18.97"/>
</a>
</g>
</g>
</g>
</svg>
