<?xml version="1.0" encoding="UTF-8" standalone="no"?>
<!DOCTYPE svg PUBLIC "-//W3C//DTD SVG 1.1//EN"
 "http://www.w3.org/Graphics/SVG/1.1/DTD/svg11.dtd">
<!-- Generated by graphviz version 2.43.0 (0)
 -->
<!-- Title: common_utils/write_errors.c Pages: 1 -->
<svg width="956pt" height="203pt"
 viewBox="0.00 0.00 956.00 203.00" xmlns="http://www.w3.org/2000/svg" xmlns:xlink="http://www.w3.org/1999/xlink">
<g id="graph0" class="graph" transform="scale(1 1) rotate(0) translate(4 199)">
<title>common_utils/write_errors.c</title>
<!-- Node1 -->
<g id="Node000001" class="node">
<title>Node1</title>
<g id="a_Node000001"><a xlink:title=" ">
<polygon fill="#999999" stroke="#666666" points="465.5,-195 352.5,-195 352.5,-165 465.5,-165 465.5,-195"/>
<text text-anchor="start" x="360.5" y="-183" font-family="Helvetica,sans-Serif" font-size="10.00">common_utils/write</text>
<text text-anchor="middle" x="409" y="-172" font-family="Helvetica,sans-Serif" font-size="10.00">_errors.c</text>
</a>
</g>
</g>
<!-- Node2 -->
<g id="Node000002" class="node">
<title>Node2</title>
<g id="a_Node000002"><a xlink:href="common__utils_8h.html" target="_top" xlink:title=" ">
<polygon fill="white" stroke="#666666" points="456.5,-129 361.5,-129 361.5,-110 456.5,-110 456.5,-129"/>
<text text-anchor="middle" x="409" y="-117" font-family="Helvetica,sans-Serif" font-size="10.00">common_utils.h</text>
</a>
</g>
</g>
<!-- Node1&#45;&gt;Node2 -->
<g id="edge1_Node000001_Node000002" class="edge">
<title>Node1&#45;&gt;Node2</title>
<g id="a_edge1_Node000001_Node000002"><a xlink:title=" ">
<path fill="none" stroke="#63b8ff" d="M409,-164.84C409,-157.21 409,-147.7 409,-139.45"/>
<polygon fill="#63b8ff" stroke="#63b8ff" points="412.5,-139.27 409,-129.27 405.5,-139.27 412.5,-139.27"/>
</a>
</g>
</g>
<!-- Node3 -->
<g id="Node000003" class="node">
<title>Node3</title>
<g id="a_Node000003"><a xlink:href="libft_8h.html" target="_top" xlink:title=" ">
<polygon fill="white" stroke="#666666" points="313.5,-74 238.5,-74 238.5,-55 313.5,-55 313.5,-74"/>
<text text-anchor="middle" x="276" y="-62" font-family="Helvetica,sans-Serif" font-size="10.00">../libft/libft.h</text>
</a>
</g>
</g>
<!-- Node2&#45;&gt;Node3 -->
<g id="edge2_Node000002_Node000003" class="edge">
<title>Node2&#45;&gt;Node3</title>
<g id="a_edge2_Node000002_Node000003"><a xlink:title=" ">
<path fill="none" stroke="#63b8ff" d="M387.63,-109.98C365.85,-101.3 331.84,-87.75 307.08,-77.88"/>
<polygon fill="#63b8ff" stroke="#63b8ff" points="308.34,-74.62 297.76,-74.17 305.75,-81.12 308.34,-74.62"/>
</a>
</g>
</g>
<!-- Node4 -->
<g id="Node000004" class="node">
<title>Node4</title>
<g id="a_Node000004"><a xlink:title=" ">
<polygon fill="#e0e0e0" stroke="#999999" points="56,-19 0,-19 0,0 56,0 56,-19"/>
<text text-anchor="middle" x="28" y="-7" font-family="Helvetica,sans-Serif" font-size="10.00">unistd.h</text>
</a>
</g>
</g>
<!-- Node2&#45;&gt;Node4 -->
<g id="edge21_Node000002_Node000004" class="edge">
<title>Node2&#45;&gt;Node4</title>
<g id="a_edge21_Node000002_Node000004"><a xlink:title=" ">
<path fill="none" stroke="#63b8ff" d="M361.15,-113.5C311.12,-107.42 230.73,-95.25 164,-74 123.09,-60.97 78.5,-38.41 51.92,-23.98"/>
<polygon fill="#63b8ff" stroke="#63b8ff" points="53.43,-20.82 42.98,-19.07 50.06,-26.95 53.43,-20.82"/>
</a>
</g>
</g>
<!-- Node5 -->
<g id="Node000005" class="node">
<title>Node5</title>
<g id="a_Node000005"><a xlink:title=" ">
<polygon fill="#e0e0e0" stroke="#999999" points="127.5,-19 74.5,-19 74.5,0 127.5,0 127.5,-19"/>
<text text-anchor="middle" x="101" y="-7" font-family="Helvetica,sans-Serif" font-size="10.00">stdlib.h</text>
</a>
</g>
</g>
<!-- Node2&#45;&gt;Node5 -->
<g id="edge19_Node000002_Node000005" class="edge">
<title>Node2&#45;&gt;Node5</title>
<g id="a_edge19_Node000002_Node000005"><a xlink:title=" ">
<path fill="none" stroke="#63b8ff" d="M361.41,-112.95C318.75,-106.88 255.06,-95.08 203,-74 171.98,-61.44 139.78,-39.68 120.06,-25.19"/>
<polygon fill="#63b8ff" stroke="#63b8ff" points="122.03,-22.29 111.93,-19.1 117.84,-27.9 122.03,-22.29"/>
</a>
</g>
</g>
<!-- Node6 -->
<g id="Node000006" class="node">
<title>Node6</title>
<g id="a_Node000006"><a xlink:title=" ">
<polygon fill="#e0e0e0" stroke="#999999" points="198.5,-19 145.5,-19 145.5,0 198.5,0 198.5,-19"/>
<text text-anchor="middle" x="172" y="-7" font-family="Helvetica,sans-Serif" font-size="10.00">string.h</text>
</a>
</g>
</g>
<!-- Node2&#45;&gt;Node6 -->
<g id="edge20_Node000002_Node000006" class="edge">
<title>Node2&#45;&gt;Node6</title>
<g id="a_edge20_Node000002_Node000006"><a xlink:title=" ">
<path fill="none" stroke="#63b8ff" d="M361.28,-114.27C323.46,-109.18 270.44,-98.09 230,-74 210.64,-62.47 193.94,-42.46 183.5,-27.98"/>
<polygon fill="#63b8ff" stroke="#63b8ff" points="186.15,-25.65 177.58,-19.41 180.39,-29.62 186.15,-25.65"/>
</a>
</g>
</g>
<!-- Node9 -->
<g id="Node000009" class="node">
<title>Node9</title>
<g id="a_Node000009"><a xlink:title=" ">
<polygon fill="#e0e0e0" stroke="#999999" points="688.5,-19 641.5,-19 641.5,0 688.5,0 688.5,-19"/>
<text text-anchor="middle" x="665" y="-7" font-family="Helvetica,sans-Serif" font-size="10.00">fcntl.h</text>
</a>
</g>
</g>
<!-- Node2&#45;&gt;Node9 -->
<g id="edge15_Node000002_Node000009" class="edge">
<title>Node2&#45;&gt;Node9</title>
<g id="a_edge15_Node000002_Node000009"><a xlink:title=" ">
<path fill="none" stroke="#63b8ff" d="M394.49,-109.98C375,-97.5 344.61,-73.71 361,-55 399.3,-11.29 557.36,-28.96 631.07,-18.86"/>
<polygon fill="#63b8ff" stroke="#63b8ff" points="632.02,-22.25 641.31,-17.15 630.87,-15.34 632.02,-22.25"/>
</a>
</g>
</g>
<!-- Node13 -->
<g id="Node000013" class="node">
<title>Node13</title>
<g id="a_Node000013"><a xlink:href="signal__flag_8h.html" target="_top" xlink:title=" ">
<polygon fill="white" stroke="#666666" points="448,-74 370,-74 370,-55 448,-55 448,-74"/>
<text text-anchor="middle" x="409" y="-62" font-family="Helvetica,sans-Serif" font-size="10.00">signal_flag.h</text>
</a>
</g>
</g>
<!-- Node2&#45;&gt;Node13 -->
<g id="edge12_Node000002_Node000013" class="edge">
<title>Node2&#45;&gt;Node13</title>
<g id="a_edge12_Node000002_Node000013"><a xlink:title=" ">
<path fill="none" stroke="#63b8ff" d="M409,-109.75C409,-102.8 409,-92.85 409,-84.13"/>
<polygon fill="#63b8ff" stroke="#63b8ff" points="412.5,-84.09 409,-74.09 405.5,-84.09 412.5,-84.09"/>
</a>
</g>
</g>
<!-- Node14 -->
<g id="Node000014" class="node">
<title>Node14</title>
<g id="a_Node000014"><a xlink:title=" ">
<polygon fill="#e0e0e0" stroke="#999999" points="574,-74 466,-74 466,-55 574,-55 574,-74"/>
<text text-anchor="middle" x="520" y="-62" font-family="Helvetica,sans-Serif" font-size="10.00">readline/readline.h</text>
</a>
</g>
</g>
<!-- Node2&#45;&gt;Node14 -->
<g id="edge13_Node000002_Node000014" class="edge">
<title>Node2&#45;&gt;Node14</title>
<g id="a_edge13_Node000002_Node000014"><a xlink:title=" ">
<path fill="none" stroke="#63b8ff" d="M426.83,-109.98C444.61,-101.5 472.15,-88.35 492.68,-78.54"/>
<polygon fill="#63b8ff" stroke="#63b8ff" points="494.33,-81.64 501.84,-74.17 491.31,-75.32 494.33,-81.64"/>
</a>
</g>
</g>
<!-- Node15 -->
<g id="Node000015" class="node">
<title>Node15</title>
<g id="a_Node000015"><a xlink:title=" ">
<polygon fill="#e0e0e0" stroke="#999999" points="693.5,-74 592.5,-74 592.5,-55 693.5,-55 693.5,-74"/>
<text text-anchor="middle" x="643" y="-62" font-family="Helvetica,sans-Serif" font-size="10.00">readline/history.h</text>
</a>
</g>
</g>
<!-- Node2&#45;&gt;Node15 -->
<g id="edge14_Node000002_Node000015" class="edge">
<title>Node2&#45;&gt;Node15</title>
<g id="a_edge14_Node000002_Node000015"><a xlink:title=" ">
<path fill="none" stroke="#63b8ff" d="M446.6,-109.98C486.99,-100.84 551.28,-86.27 595.23,-76.32"/>
<polygon fill="#63b8ff" stroke="#63b8ff" points="596.13,-79.7 605.11,-74.08 594.58,-72.88 596.13,-79.7"/>
</a>
</g>
</g>
<!-- Node16 -->
<g id="Node000016" class="node">
<title>Node16</title>
<g id="a_Node000016"><a xlink:title=" ">
<polygon fill="#e0e0e0" stroke="#999999" points="784,-74 712,-74 712,-55 784,-55 784,-74"/>
<text text-anchor="middle" x="748" y="-62" font-family="Helvetica,sans-Serif" font-size="10.00">sys/types.h</text>
</a>
</g>
</g>
<!-- Node2&#45;&gt;Node16 -->
<g id="edge16_Node000002_Node000016" class="edge">
<title>Node2&#45;&gt;Node16</title>
<g id="a_edge16_Node000002_Node000016"><a xlink:title=" ">
<path fill="none" stroke="#63b8ff" d="M456.7,-111.83C512.88,-103.84 609.28,-89.77 701.6,-74.19"/>
<polygon fill="#63b8ff" stroke="#63b8ff" points="702.4,-77.6 711.67,-72.48 701.23,-70.7 702.4,-77.6"/>
</a>
</g>
</g>
<!-- Node17 -->
<g id="Node000017" class="node">
<title>Node17</title>
<g id="a_Node000017"><a xlink:title=" ">
<polygon fill="#e0e0e0" stroke="#999999" points="868,-74 802,-74 802,-55 868,-55 868,-74"/>
<text text-anchor="middle" x="835" y="-62" font-family="Helvetica,sans-Serif" font-size="10.00">sys/wait.h</text>
</a>
</g>
</g>
<!-- Node2&#45;&gt;Node17 -->
<g id="edge17_Node000002_Node000017" class="edge">
<title>Node2&#45;&gt;Node17</title>
<g id="a_edge17_Node000002_Node000017"><a xlink:title=" ">
<path fill="none" stroke="#63b8ff" d="M456.77,-114.27C527.65,-107.71 665.04,-93.89 791.34,-74.15"/>
<polygon fill="#63b8ff" stroke="#63b8ff" points="792.24,-77.55 801.58,-72.53 791.15,-70.63 792.24,-77.55"/>
</a>
</g>
</g>
<!-- Node18 -->
<g id="Node000018" class="node">
<title>Node18</title>
<g id="a_Node000018"><a xlink:title=" ">
<polygon fill="#e0e0e0" stroke="#999999" points="948,-74 886,-74 886,-55 948,-55 948,-74"/>
<text text-anchor="middle" x="917" y="-62" font-family="Helvetica,sans-Serif" font-size="10.00">stdbool.h</text>
</a>
</g>
</g>
<!-- Node2&#45;&gt;Node18 -->
<g id="edge18_Node000002_Node000018" class="edge">
<title>Node2&#45;&gt;Node18</title>
<g id="a_edge18_Node000002_Node000018"><a xlink:title=" ">
<path fill="none" stroke="#63b8ff" d="M456.72,-115.77C539.88,-110.63 716.87,-97.94 875.67,-74.04"/>
<polygon fill="#63b8ff" stroke="#63b8ff" points="876.26,-77.49 885.62,-72.52 875.21,-70.57 876.26,-77.49"/>
</a>
</g>
</g>
<!-- Node3&#45;&gt;Node4 -->
<g id="edge3_Node000003_Node000004" class="edge">
<title>Node3&#45;&gt;Node4</title>
<g id="a_edge3_Node000003_Node000004"><a xlink:title=" ">
<path fill="none" stroke="#63b8ff" d="M238.22,-55.75C198.03,-47.45 132.32,-33.75 66.42,-19.28"/>
<polygon fill="#63b8ff" stroke="#63b8ff" points="66.79,-15.78 56.27,-17.05 65.28,-22.62 66.79,-15.78"/>
</a>
</g>
</g>
<!-- Node3&#45;&gt;Node5 -->
<g id="edge4_Node000003_Node000005" class="edge">
<title>Node3&#45;&gt;Node5</title>
<g id="a_edge4_Node000003_Node000005"><a xlink:title=" ">
<path fill="none" stroke="#63b8ff" d="M247.88,-54.98C217.85,-45.89 170.14,-31.44 137.29,-21.49"/>
<polygon fill="#63b8ff" stroke="#63b8ff" points="138.2,-18.11 127.61,-18.56 136.17,-24.81 138.2,-18.11"/>
</a>
</g>
</g>
<!-- Node3&#45;&gt;Node6 -->
<g id="edge5_Node000003_Node000006" class="edge">
<title>Node3&#45;&gt;Node6</title>
<g id="a_edge5_Node000003_Node000006"><a xlink:title=" ">
<path fill="none" stroke="#63b8ff" d="M259.29,-54.98C242.79,-46.57 217.3,-33.59 198.12,-23.81"/>
<polygon fill="#63b8ff" stroke="#63b8ff" points="199.51,-20.59 189.01,-19.17 196.33,-26.83 199.51,-20.59"/>
</a>
</g>
</g>
<!-- Node7 -->
<g id="Node000007" class="node">
<title>Node7</title>
<g id="a_Node000007"><a xlink:title=" ">
<polygon fill="#e0e0e0" stroke="#999999" points="550,-19 500,-19 500,0 550,0 550,-19"/>
<text text-anchor="middle" x="525" y="-7" font-family="Helvetica,sans-Serif" font-size="10.00">stdio.h</text>
</a>
</g>
</g>
<!-- Node3&#45;&gt;Node7 -->
<g id="edge6_Node000003_Node000007" class="edge">
<title>Node3&#45;&gt;Node7</title>
<g id="a_edge6_Node000003_Node000007"><a xlink:title=" ">
<path fill="none" stroke="#63b8ff" d="M313.77,-56.17C354.77,-48.1 422.41,-34.48 489.83,-19.2"/>
<polygon fill="#63b8ff" stroke="#63b8ff" points="490.8,-22.56 499.78,-16.93 489.25,-15.74 490.8,-22.56"/>
</a>
</g>
</g>
<!-- Node8 -->
<g id="Node000008" class="node">
<title>Node8</title>
<g id="a_Node000008"><a xlink:title=" ">
<polygon fill="#e0e0e0" stroke="#999999" points="623.5,-19 568.5,-19 568.5,0 623.5,0 623.5,-19"/>
<text text-anchor="middle" x="596" y="-7" font-family="Helvetica,sans-Serif" font-size="10.00">signal.h</text>
</a>
</g>
</g>
<!-- Node3&#45;&gt;Node8 -->
<g id="edge7_Node000003_Node000008" class="edge">
<title>Node3&#45;&gt;Node8</title>
<g id="a_edge7_Node000003_Node000008"><a xlink:title=" ">
<path fill="none" stroke="#63b8ff" d="M313.77,-57.29C318.56,-56.52 323.39,-55.74 328,-55 427.5,-39.11 455.3,-38.66 558.29,-19.01"/>
<polygon fill="#63b8ff" stroke="#63b8ff" points="559,-22.44 568.16,-17.12 557.68,-15.57 559,-22.44"/>
</a>
</g>
</g>
<!-- Node3&#45;&gt;Node9 -->
<g id="edge8_Node000003_Node000009" class="edge">
<title>Node3&#45;&gt;Node9</title>
<g id="a_edge8_Node000003_Node000009"><a xlink:title=" ">
<path fill="none" stroke="#63b8ff" d="M313.74,-57.13C318.54,-56.38 323.38,-55.65 328,-55 460,-36.43 497.19,-44.2 631.48,-19.06"/>
<polygon fill="#63b8ff" stroke="#63b8ff" points="632.15,-22.49 641.32,-17.19 630.84,-15.62 632.15,-22.49"/>
</a>
</g>
</g>
<!-- Node10 -->
<g id="Node000010" class="node">
<title>Node10</title>
<g id="a_Node000010"><a xlink:title=" ">
<polygon fill="#e0e0e0" stroke="#999999" points="335.5,-19 216.5,-19 216.5,0 335.5,0 335.5,-19"/>
<text text-anchor="middle" x="276" y="-7" font-family="Helvetica,sans-Serif" font-size="10.00">bits/types/siginfo_t.h</text>
</a>
</g>
</g>
<!-- Node3&#45;&gt;Node10 -->
<g id="edge9_Node000003_Node000010" class="edge">
<title>Node3&#45;&gt;Node10</title>
<g id="a_edge9_Node000003_Node000010"><a xlink:title=" ">
<path fill="none" stroke="#63b8ff" d="M276,-54.75C276,-47.8 276,-37.85 276,-29.13"/>
<polygon fill="#63b8ff" stroke="#63b8ff" points="279.5,-29.09 276,-19.09 272.5,-29.09 279.5,-29.09"/>
</a>
</g>
</g>
<!-- Node11 -->
<g id="Node000011" class="node">
<title>Node11</title>
<g id="a_Node000011"><a xlink:title=" ">
<polygon fill="#e0e0e0" stroke="#999999" points="410,-19 354,-19 354,0 410,0 410,-19"/>
<text text-anchor="middle" x="382" y="-7" font-family="Helvetica,sans-Serif" font-size="10.00">stdarg.h</text>
</a>
</g>
</g>
<!-- Node3&#45;&gt;Node11 -->
<g id="edge10_Node000003_Node000011" class="edge">
<title>Node3&#45;&gt;Node11</title>
<g id="a_edge10_Node000003_Node000011"><a xlink:title=" ">
<path fill="none" stroke="#63b8ff" d="M293.03,-54.98C309.93,-46.54 336.06,-33.47 355.64,-23.68"/>
<polygon fill="#63b8ff" stroke="#63b8ff" points="357.28,-26.77 364.66,-19.17 354.15,-20.51 357.28,-26.77"/>
</a>
</g>
</g>
<!-- Node12 -->
<g id="Node000012" class="node">
<title>Node12</title>
<g id="a_Node000012"><a xlink:title=" ">
<polygon fill="#e0e0e0" stroke="#999999" points="481.5,-19 428.5,-19 428.5,0 481.5,0 481.5,-19"/>
<text text-anchor="middle" x="455" y="-7" font-family="Helvetica,sans-Serif" font-size="10.00">limits.h</text>
</a>
</g>
</g>
<!-- Node3&#45;&gt;Node12 -->
<g id="edge11_Node000003_Node000012" class="edge">
<title>Node3&#45;&gt;Node12</title>
<g id="a_edge11_Node000003_Node000012"><a xlink:title=" ">
<path fill="none" stroke="#63b8ff" d="M304.76,-54.98C335.66,-45.84 384.84,-31.27 418.46,-21.32"/>
<polygon fill="#63b8ff" stroke="#63b8ff" points="419.76,-24.58 428.36,-18.39 417.78,-17.87 419.76,-24.58"/>
</a>
</g>
</g>
</g>
</svg>
